g pm0088_00_LiquidASkin
v 0.3725287 0.7345299 0.2823876
v 0.387143 0.7316223 0.285401
v 0.387179 0.7254318 0.2677876
v 0.369466 0.7315255 0.2677938
v 0.3631164 0.748977 0.2677997
v 0.3695096 0.7490152 0.2853161
v 0.3870293 0.7491293 0.2916352
v 0.3692352 0.7665106 0.267802
v 0.3723374 0.7635403 0.2823944
v 0.3868662 0.7728376 0.2677985
v 0.3869121 0.7666389 0.2854092
v 0.4015246 0.7637329 0.2823864
v 0.4045792 0.7667436 0.2677923
v 0.4109288 0.7492926 0.2677865
v 0.4045453 0.7492464 0.2853065
v 0.4017159 0.7347226 0.2823796
v 0.40481 0.7317589 0.2677841
v 0.3695 0.7490231 0.2502797
v 0.3870161 0.7491401 0.2439509
v 0.3869023 0.7666472 0.2501851
v 0.3723293 0.7635471 0.2532066
v 0.3871332 0.7316306 0.250177
v 0.3725206 0.7345366 0.2531998
v 0.3868662 0.7728376 0.2677985
v 0.3692352 0.7665106 0.267802
v 0.369466 0.7315255 0.2677938
v 0.3631164 0.748977 0.2677997
v 0.387179 0.7254318 0.2677876
v 0.4017079 0.7347293 0.2531918
v 0.40481 0.7317589 0.2677841
v 0.4109288 0.7492926 0.2677865
v 0.4045356 0.7492545 0.2502701
v 0.4015165 0.7637396 0.2531986
v 0.4045792 0.7667436 0.2677923
vt 0.4315242 0.05577083
vt 0.4453125 0.05495651
vt 0.4453125 0.04588515
vt 0.4210892 0.05053726
vt 0.4115362 0.0625
vt 0.4297096 0.0625
vt 0.4453125 0.0625
vt 0.4207728 0.07452478
vt 0.431345 0.06936033
vt 0.4453125 0.07933649
vt 0.4453125 0.07026504
vt 0.4586588 0.06945063
vt 0.4690941 0.0746841
vt 0.4786471 0.0625
vt 0.4604735 0.0625
vt 0.4588383 0.05586095
vt 0.4694102 0.05069669
vt 0.4609151 0.0234375
vt 0.4453125 0.0234375
vt 0.4453125 0.03098089
vt 0.4592801 0.03007617
vt 0.4453125 0.01567228
vt 0.4591008 0.01648667
vt 0.4453125 0.04005225
vt 0.4698522 0.03524055
vt 0.4695356 0.01125321
vt 0.4790886 0.0234375
vt 0.4453125 0.006600901
vt 0.4317864 0.0165768
vt 0.4212144 0.01141243
vt 0.411978 0.0234375
vt 0.4301514 0.0234375
vt 0.4319658 0.03016637
vt 0.4215308 0.03539984
vn -0.5727359 -0.5812121 0.5780709
vn 0.004860479 -0.7066758 0.7075208
vn 0.006600911 -0.9999782 -0.0002327957
vn -0.7024813 -0.7117022 3.005891E-05
vn -0.9999782 -0.006593555 0.0002747574
vn -0.7061754 -0.004819842 0.7080205
vn 0.0002786997 -0.0002286707 0.9999999
vn -0.7118081 0.7023739 0.000357906
vn -0.5803522 0.5733404 0.5783356
vn -0.006595214 0.9999782 0.0002318615
vn -0.004463021 0.7063522 0.7078465
vn 0.5730584 0.5809473 0.5780175
vn 0.7024818 0.7117017 -3.005876E-05
vn 0.9999782 0.006597438 -0.0002753023
vn 0.7065694 0.004497808 0.7076294
vn 0.5806761 -0.5736025 0.5777503
vn 0.7118118 -0.7023702 -0.0003597478
vn -0.7065663 -0.00449479 -0.7076325
vn -0.0002743422 0.000232016 -0.9999999
vn -0.004854884 0.7066771 -0.7075196
vn -0.5806721 0.5736048 -0.5777521
vn 0.004468321 -0.7063485 -0.7078501
vn -0.5730556 -0.5809453 -0.5780223
vn -0.006595214 0.9999782 0.0002318615
vn -0.7118081 0.7023739 0.000357906
vn -0.7024813 -0.7117022 3.005891E-05
vn -0.9999782 -0.006593555 0.0002747574
vn 0.006600911 -0.9999782 -0.0002327957
vn 0.5803553 -0.5733353 -0.5783376
vn 0.7118118 -0.7023702 -0.0003597478
vn 0.9999782 0.006597438 -0.0002753023
vn 0.7061772 0.004824181 -0.7080187
vn 0.5727385 0.5812137 -0.5780669
vn 0.7024818 0.7117017 -3.005876E-05
g pm0088_00_LiquidASkin_0
f 3/3/3 2/2/2 1/1/1
f 4/4/4 3/3/3 1/1/1
f 5/5/5 4/4/4 1/1/1
f 6/6/6 5/5/5 1/1/1
f 1/1/1 2/2/2 6/6/6
f 2/2/2 7/7/7 6/6/6
f 8/8/8 5/5/5 6/6/6
f 9/9/9 8/8/8 6/6/6
f 10/10/10 8/8/8 9/9/9
f 11/11/11 10/10/10 9/9/9
f 6/6/6 7/7/7 11/11/11
f 9/9/9 6/6/6 11/11/11
f 10/10/10 11/11/11 12/12/12
f 12/12/12 11/11/11 7/7/7
f 13/13/13 10/10/10 12/12/12
f 14/14/14 13/13/13 12/12/12
f 15/15/15 14/14/14 12/12/12
f 15/15/15 12/12/12 7/7/7
f 14/14/14 15/15/15 16/16/16
f 2/2/2 3/3/3 16/16/16
f 16/16/16 15/15/15 7/7/7
f 2/2/2 16/16/16 7/7/7
f 17/17/17 14/14/14 16/16/16
f 3/3/3 17/17/17 16/16/16
f 20/20/20 19/19/19 18/18/18
f 21/21/21 20/20/20 18/18/18
f 19/19/19 22/22/22 18/18/18
f 22/22/22 23/23/23 18/18/18
f 24/24/24 20/20/20 21/21/21
f 25/25/25 24/24/24 21/21/21
f 23/23/23 26/26/26 18/18/18
f 26/26/26 27/27/27 18/18/18
f 27/27/27 25/25/25 21/21/21
f 18/18/18 27/27/27 21/21/21
f 28/28/28 26/26/26 23/23/23
f 22/22/22 28/28/28 23/23/23
f 28/28/28 22/22/22 29/29/29
f 29/29/29 22/22/22 19/19/19
f 30/30/30 28/28/28 29/29/29
f 31/31/31 30/30/30 29/29/29
f 32/32/32 31/31/31 29/29/29
f 19/19/19 20/20/20 32/32/32
f 32/32/32 29/29/29 19/19/19
f 31/31/31 32/32/32 33/33/33
f 20/20/20 24/24/24 33/33/33
f 20/20/20 33/33/33 32/32/32
f 34/34/34 31/31/31 33/33/33
f 24/24/24 34/34/34 33/33/33
