g pm0076_00_RockHoleHeadSkin
v 0.06541757 0.5301211 0.4963321
v -0.002234419 0.5266635 0.4975484
v 0.01458276 0.6049187 0.5136501
v -0.08793432 0.5341921 0.5009701
v -0.1625079 0.5519845 0.5056508
v -0.1103259 0.6945992 0.525866
v -0.08000758 0.7137842 0.527969
v -0.004841959 0.7210565 0.5271449
v 0.1393273 0.7012349 0.5213097
v 0.1542471 0.6784925 0.5165256
v 0.1720961 0.6134876 0.5062182
v 0.1721337 0.5421303 0.4954202
v -0.001815992 0.5230402 0.461123
v -0.002234419 0.5266635 0.4975484
v 0.06541757 0.5301211 0.4963321
v 0.07173628 0.5253047 0.4512809
v -0.08793432 0.5341921 0.5009701
v -0.1046681 0.5208451 0.4617034
v 0.1721337 0.5421303 0.4954202
v 0.1899513 0.5378017 0.4397947
v -0.1625079 0.5519845 0.5056508
v -0.2015945 0.5272456 0.4631844
v -0.1257642 0.7174218 0.482794
v -0.1103259 0.6945992 0.525866
v 0.1720961 0.6134876 0.5062182
v 0.1542471 0.6784925 0.5165256
v 0.1604012 0.6987355 0.4841684
v 0.1882987 0.6166331 0.4663803
v 0.1393273 0.7012349 0.5213097
v 0.1495932 0.7138965 0.484537
v -0.004841959 0.7210565 0.5271449
v -0.001771272 0.7390577 0.4851609
v -0.08000758 0.7137842 0.527969
v -0.08255417 0.734833 0.4848133
v -0.1103259 0.6945992 0.525866
v -0.1257642 0.7174218 0.482794
v 0.1899513 0.5378017 0.4397947
v 0.1721337 0.5421303 0.4954202
vt 0.5155206 0.6614298
vt 0.5179296 0.6355177
vt 0.4987321 0.6391743
vt 0.5155187 0.602913
vt 0.5121272 0.5794861
vt 0.480075 0.5916544
vt 0.4734029 0.6024329
vt 0.4703953 0.6293907
vt 0.4734622 0.6810842
vt 0.4784875 0.6873407
vt 0.4923396 0.6958699
vt 0.509606 0.7001812
vt 0.5285896 0.6368304
vt 0.5179296 0.6355177
vt 0.5155206 0.6614298
vt 0.5273367 0.6665197
vt 0.5155187 0.602913
vt 0.5283433 0.5948639
vt 0.509606 0.7001812
vt 0.52212 0.7129547
vt 0.5121272 0.5794861
vt 0.5210468 0.5563109
vt 0.4721071 0.5743644
vt 0.480075 0.5916544
vt 0.4923396 0.6958699
vt 0.4784875 0.6873407
vt 0.4685846 0.6949116
vt 0.4900607 0.7130539
vt 0.4734622 0.6810842
vt 0.4649556 0.6888487
vt 0.4703953 0.6293907
vt 0.458875 0.6303979
vt 0.4734029 0.6024329
vt 0.461785 0.5979349
vt 0.480075 0.5916544
vt 0.4669088 0.5809761
vt 0.5110908 0.7227519
vt 0.509606 0.7001812
vn 0.0308166 -0.1805534 0.9830823
vn 0.02585404 -0.18348 0.9826834
vn 0.02797135 -0.1644423 0.98599
vn 0.02166455 -0.1776752 0.9838507
vn 0.01901032 -0.1650191 0.9861072
vn 0.01835874 -0.1489064 0.9886809
vn 0.01892609 -0.1318579 0.991088
vn 0.02614495 -0.1352272 0.9904696
vn 0.0333901 -0.1320975 0.9906742
vn 0.03615403 -0.1464427 0.9885583
vn 0.03731136 -0.1587162 0.986619
vn 0.03515608 -0.1706077 0.9847116
vn 0.0130438 -0.9678483 0.251196
vn 0.0130438 -0.9678483 0.251196
vn 0.2846308 -0.9327184 0.2214086
vn 0.2846308 -0.9327184 0.2214086
vn -0.2495007 -0.857954 0.4490705
vn -0.2495008 -0.857954 0.4490704
vn 0.6929235 -0.6468292 0.3185417
vn 0.6929235 -0.6468292 0.3185417
vn -0.5971063 -0.3655015 0.7140538
vn -0.5971062 -0.3655016 0.7140538
vn -0.6022372 0.4087834 0.6857161
vn -0.6022372 0.4087833 0.6857162
vn 0.9145303 -0.08372985 0.3957569
vn 0.8130366 0.3942974 0.4283702
vn 0.8130366 0.3942974 0.4283702
vn 0.9145303 -0.08372978 0.3957569
vn 0.5081311 0.731586 0.454516
vn 0.5081311 0.731586 0.454516
vn 0.1016016 0.8772454 0.469167
vn 0.1016016 0.8772454 0.469167
vn -0.2836079 0.7978243 0.5320178
vn -0.283608 0.7978242 0.5320179
vn -0.6022372 0.4087833 0.6857162
vn -0.6022372 0.4087834 0.6857161
vn 0.6929235 -0.6468292 0.3185417
vn 0.6929235 -0.6468292 0.3185417
g pm0076_00_RockHoleHeadSkin_0
f 3/3/3 2/2/2 1/1/1
f 3/3/3 4/4/4 2/2/2
f 3/3/3 5/5/5 4/4/4
f 3/3/3 6/6/6 5/5/5
f 7/7/7 6/6/6 3/3/3
f 8/8/8 7/7/7 3/3/3
f 9/9/9 8/8/8 3/3/3
f 10/10/10 9/9/9 3/3/3
f 11/11/11 10/10/10 3/3/3
f 11/11/11 3/3/3 12/12/12
f 3/3/3 1/1/1 12/12/12
f 15/15/15 14/14/14 13/13/13
f 16/16/16 15/15/15 13/13/13
f 13/13/13 14/14/14 17/17/17
f 18/18/18 13/13/13 17/17/17
f 19/19/19 15/15/15 16/16/16
f 20/20/20 19/19/19 16/16/16
f 18/18/18 17/17/17 21/21/21
f 22/22/22 18/18/18 21/21/21
f 22/22/22 21/21/21 23/23/23
f 21/21/21 24/24/24 23/23/23
f 27/27/27 26/26/26 25/25/25
f 28/28/28 27/27/27 25/25/25
f 29/29/29 26/26/26 27/27/27
f 30/30/30 29/29/29 27/27/27
f 31/31/31 29/29/29 30/30/30
f 32/32/32 31/31/31 30/30/30
f 33/33/33 31/31/31 32/32/32
f 34/34/34 33/33/33 32/32/32
f 35/35/35 33/33/33 34/34/34
f 36/36/36 35/35/35 34/34/34
f 28/28/28 25/25/25 37/37/37
f 25/25/25 38/38/38 37/37/37
