g pm0025_00_SippoSkin
v 0.002743288 0.3262572 -0.2340111
v 0.002743288 0.361647 -0.2098117
v 0.002743288 0.4162942 -0.2902668
v 0.002743288 0.3578775 -0.3028583
v 0.002743288 0.4723802 -0.2773622
v 0.002743288 0.3993767 -0.1848736
v 1.69195E-16 0.4162942 -0.2902668
v 0.002743288 0.4162942 -0.2902668
v 0.002743288 0.4723802 -0.2773622
v 2.137332E-16 0.4723802 -0.2773622
v 1.228284E-16 0.3578775 -0.3028583
v 0.002743288 0.3578775 -0.3028583
v 9.973858E-17 0.3262572 -0.2340111
v 0.002743288 0.3262572 -0.2340111
v 0.002743288 0.3578775 -0.3028583
v 1.228284E-16 0.3578775 -0.3028583
v 2.137332E-16 0.4723802 -0.2773622
v 0.002743288 0.4723802 -0.2773622
v 0.002743288 0.3993767 -0.1848736
v 1.586608E-16 0.3993767 -0.1848736
v -0.002743288 0.3262572 -0.2340111
v -0.002743288 0.3578775 -0.3028583
v -0.002743288 0.4162942 -0.2902668
v -0.002743288 0.361647 -0.2098117
v -0.002743288 0.4723802 -0.2773622
v -0.002743288 0.3993767 -0.1848736
v 1.69195E-16 0.4162942 -0.2902668
v 2.137332E-16 0.4723802 -0.2773622
v -0.002743288 0.4723802 -0.2773622
v -0.002743288 0.4162942 -0.2902668
v 1.228284E-16 0.3578775 -0.3028583
v -0.002743288 0.3578775 -0.3028583
v 9.973858E-17 0.3262572 -0.2340111
v 1.228284E-16 0.3578775 -0.3028583
v -0.002743288 0.3578775 -0.3028583
v -0.002743288 0.3262572 -0.2340111
v 2.137332E-16 0.4723802 -0.2773622
v 1.586608E-16 0.3993767 -0.1848736
v -0.002743288 0.3993767 -0.1848736
v -0.002743288 0.4723802 -0.2773622
vt 0.8211769 0.8515625
vt 0.84463 0.9160113
vt 0.6791751 0.9160112
vt 0.6791751 0.8515625
vt 0.6791751 0.9804688
vt 0.8588523 0.9804688
vt 0.6652833 0.9160116
vt 0.6791751 0.9160112
vt 0.6791751 0.9804688
vt 0.6652828 0.9804688
vt 0.6652832 0.8515625
vt 0.6791751 0.8515625
vt 0.8211801 0.8379479
vt 0.8211769 0.8515625
vt 0.6791751 0.8515625
vt 0.6791751 0.8379477
vt 0.6791751 0.9877892
vt 0.6791751 0.9804688
vt 0.8588523 0.9804688
vt 0.8588638 0.9877889
vt 0.8216892 0.8515625
vt 0.6796875 0.8515625
vt 0.6796875 0.9160112
vt 0.8451424 0.9160113
vt 0.6796875 0.9804688
vt 0.8593646 0.9804688
vt 0.6657957 0.9160116
vt 0.6657952 0.9804688
vt 0.6796875 0.9804688
vt 0.6796875 0.9160112
vt 0.6657956 0.8515625
vt 0.6796875 0.8515625
vt 0.8216925 0.8379479
vt 0.6796875 0.8379477
vt 0.6796875 0.8515625
vt 0.8216892 0.8515625
vt 0.6796875 0.9877892
vt 0.8593762 0.9877889
vt 0.8593646 0.9804688
vt 0.6796875 0.9804688
vn 1 0 0
vn 1 0 0
vn 1 0 0
vn 1 0 0
vn 1 0 0
vn 1 0 0
vn 0 0.2174188 -0.9760784
vn 0 0.2174161 -0.976079
vn 0 0.2206175 -0.9753604
vn 0 0.2209435 -0.9752866
vn 0 0.2139017 -0.9768552
vn 0 0.2142329 -0.9767826
vn 0 -0.9087378 -0.4173675
vn 0 -0.9087378 -0.4173675
vn 0 -0.9087378 -0.4173675
vn 0 -0.9087378 -0.4173675
vn 0 0.7849398 0.6195721
vn 2.145767E-06 0.7849398 0.6195721
vn 2.264976E-06 0.7849398 0.6195721
vn 0 0.7849398 0.6195721
vn -1 0 0
vn -1 0 0
vn -1 0 0
vn -1 0 0
vn -1 0 0
vn -1 0 0
vn 0 0.2174188 -0.9760784
vn 0 0.2209435 -0.9752866
vn 0 0.2206175 -0.9753604
vn 0 0.2174161 -0.976079
vn 0 0.2139017 -0.9768552
vn 0 0.2142329 -0.9767826
vn 0 -0.9087378 -0.4173675
vn 0 -0.9087378 -0.4173675
vn 0 -0.9087378 -0.4173675
vn 0 -0.9087378 -0.4173675
vn 0 0.7849398 0.6195721
vn 0 0.7849398 0.6195721
vn -2.026558E-06 0.7849398 0.6195722
vn -2.026558E-06 0.7849398 0.6195721
g pm0025_00_SippoSkin_0
f 3/3/3 2/2/2 1/1/1
f 4/4/4 3/3/3 1/1/1
f 3/3/3 5/5/5 2/2/2
f 5/5/5 6/6/6 2/2/2
f 9/9/9 8/8/8 7/7/7
f 10/10/10 9/9/9 7/7/7
f 7/7/7 8/8/8 11/11/11
f 8/8/8 12/12/12 11/11/11
f 15/15/15 14/14/14 13/13/13
f 16/16/16 15/15/15 13/13/13
f 19/19/19 18/18/18 17/17/17
f 20/20/20 19/19/19 17/17/17
f 23/23/23 22/22/22 21/21/21
f 24/24/24 23/23/23 21/21/21
f 25/25/25 23/23/23 24/24/24
f 26/26/26 25/25/25 24/24/24
f 29/29/29 28/28/28 27/27/27
f 30/30/30 29/29/29 27/27/27
f 30/30/30 27/27/27 31/31/31
f 32/32/32 30/30/30 31/31/31
f 35/35/35 34/34/34 33/33/33
f 36/36/36 35/35/35 33/33/33
f 39/39/39 38/38/38 37/37/37
f 40/40/40 39/39/39 37/37/37
