g pm0094_00_NormalTongueSkin
v 0.0930465 0.6764266 -0.0232836
v 0.0470917 0.67581 -0.023116
v 0.04440828 0.6903316 -0.09482294
v 0.08743014 0.6924252 -0.08967485
v 0.09963048 0.6562283 0.03899605
v 0.05012783 0.6557907 0.03943467
v 0.1462566 0.6477659 0.0348057
v 0.1351237 0.6718442 -0.0258975
v 0.1250782 0.6898166 -0.08337056
v 0.0889927 0.6975424 -0.1617645
v 0.1217849 0.6942622 -0.1476099
v 0.04444231 0.6886817 -0.1718067
v 0.1854463 0.6266797 0.02668479
v 0.1676318 0.6575416 -0.03467748
v 0.1932527 0.6361898 -0.05227445
v 0.1520451 0.6787634 -0.08028971
v 0.1546291 0.6820949 -0.1255819
v 0.2195008 0.5929189 0.01908863
v 0.05408551 0.6265539 0.1116676
v 0.1078856 0.6281884 0.11132
v 0.1587969 0.6152967 0.1035943
v 0.2029989 0.5898513 0.09369282
v 0.2406157 0.5508789 0.08551449
v 0.2182581 0.5534097 0.1556831
v 0.2568253 0.5150639 0.1379538
v 0.2254238 0.5216408 0.1956812
v 0.2629561 0.4883686 0.1671383
v 0.1705674 0.580007 0.171196
v 0.1761151 0.5456975 0.2169959
v 0.1157534 0.5960062 0.1823468
v 0.1197892 0.5604619 0.2309877
v 0.0582412 0.5923029 0.1844201
v 0.06041298 0.5564913 0.2341447
v 0.06164841 0.5126404 0.2773322
v 0.1217963 0.5176541 0.2730172
v 0.06152203 0.4667558 0.3131731
v 0.1216454 0.467727 0.3057898
v 0.1785394 0.4600298 0.288957
v 0.179138 0.5055482 0.2569396
v 0.2280111 0.4458801 0.2632448
v 0.2296201 0.4851531 0.232024
v 0.2714221 0.4229348 0.2262918
v 0.271174 0.4545983 0.1977909
v 0.0608332 0.4111445 0.3336017
v -4.768371E-09 0.4611953 0.3139279
v -4.768371E-09 0.4103622 0.3362545
v -4.768371E-09 0.3437608 0.3373555
v 0.0595895 0.3463192 0.3348078
v 0.1195981 0.4109554 0.3256253
v 0.1171417 0.3520273 0.3284253
v 0.05875591 0.2809116 0.3160128
v 0.1175118 0.2915408 0.3128306
v 0.1676983 0.3612306 0.3160398
v 0.1733418 0.4106864 0.3101678
v -4.768371E-09 0.2755803 0.3196635
v 0.2031838 0.3701268 0.3003358
v 0.2157325 0.3450593 0.2830085
v 0.2184726 0.4051856 0.2870424
v 0.2556741 0.3882109 0.253368
v 0.1698194 0.3144852 0.3014767
v 7.22934E-33 0.679674 -0.1744642
v 0.02222112 0.6858878 -0.173852
v 0.02220414 0.6894726 -0.09588907
v 7.941843E-33 0.6848718 -0.1010656
v 9.375157E-33 0.6705917 -0.02762166
v 0.02354584 0.6750717 -0.02331362
v 0.02506391 0.6550581 0.03926264
v 1.088663E-32 0.6505839 0.03498019
v 0.02704275 0.6243886 0.1109355
v 1.295023E-32 0.6184817 0.106093
v 0.0291206 0.5885134 0.1835149
v 1.507706E-32 0.5809823 0.1784991
v 0.03020648 0.552422 0.2331943
v 1.684235E-32 0.5446112 0.2281335
v 0.0308242 0.5085756 0.2770344
v -4.768371E-09 0.500769 0.2726261
v -4.768371E-09 0.482853 0.2953322
v 0.03133581 0.483325 0.2972146
v -0.0930465 0.6764266 -0.0232836
v -0.08743014 0.6924252 -0.08967485
v -0.04440828 0.6903316 -0.09482294
v -0.0470917 0.67581 -0.023116
v -0.09963048 0.6562283 0.03899605
v -0.05012783 0.6557907 0.03943467
v -0.1462566 0.6477659 0.0348057
v -0.1351237 0.6718442 -0.0258975
v -0.1250782 0.6898166 -0.08337056
v -0.0889927 0.6975424 -0.1617645
v -0.1217849 0.6942622 -0.1476099
v -0.04444231 0.6886817 -0.1718067
v -0.1854463 0.6266797 0.02668479
v -0.1676318 0.6575416 -0.03467748
v -0.1932527 0.6361898 -0.05227445
v -0.1520451 0.6787634 -0.08028971
v -0.1546291 0.6820949 -0.1255819
v -0.2195008 0.5929189 0.01908863
v -0.05408551 0.6265539 0.1116676
v -0.1078856 0.6281884 0.11132
v -0.1587969 0.6152967 0.1035943
v -0.2029989 0.5898513 0.09369282
v -0.2406157 0.5508789 0.08551449
v -0.2182581 0.5534097 0.1556831
v -0.2568253 0.5150639 0.1379538
v -0.2254238 0.5216408 0.1956812
v -0.2629561 0.4883686 0.1671383
v -0.1705674 0.580007 0.171196
v -0.1761151 0.5456975 0.2169959
v -0.1157534 0.5960062 0.1823468
v -0.1197892 0.5604619 0.2309877
v -0.0582412 0.5923029 0.1844201
v -0.06041298 0.5564913 0.2341447
v -0.06164841 0.5126404 0.2773322
v -0.1217963 0.5176541 0.2730172
v -0.06152204 0.4667558 0.3131731
v -0.1216454 0.467727 0.3057898
v -0.1785394 0.4600298 0.288957
v -0.179138 0.5055482 0.2569396
v -0.2280111 0.4458801 0.2632448
v -0.2296201 0.4851531 0.232024
v -0.2714221 0.4229348 0.2262918
v -0.271174 0.4545983 0.1977909
v -0.0608332 0.4111445 0.3336017
v -4.768371E-09 0.4611953 0.3139279
v -4.768371E-09 0.4103622 0.3362545
v -4.768371E-09 0.3437608 0.3373555
v -0.05958951 0.3463192 0.3348078
v -0.1195981 0.4109554 0.3256253
v -0.1171417 0.3520273 0.3284253
v -0.05875593 0.2809116 0.3160128
v -0.1175118 0.2915408 0.3128306
v -0.1676983 0.3612306 0.3160398
v -0.1733418 0.4106864 0.3101678
v -4.768371E-09 0.2755803 0.3196635
v -0.2031838 0.3701268 0.3003358
v -0.2157325 0.3450593 0.2830085
v -0.2184726 0.4051856 0.2870424
v -0.2556741 0.3882109 0.253368
v -0.1698194 0.3144852 0.3014767
v -4.768371E-09 0.679674 -0.1744642
v -4.768371E-09 0.6848718 -0.1010656
v -0.02220414 0.6894726 -0.09588907
v -0.02222116 0.6858878 -0.173852
v -4.768371E-09 0.6705917 -0.02762166
v -0.02354585 0.6750717 -0.02331362
v -0.02506392 0.6550581 0.03926264
v -4.768371E-09 0.6505839 0.03498019
v -0.02704275 0.6243886 0.1109355
v -4.768371E-09 0.6184817 0.106093
v -0.0291206 0.5885134 0.1835149
v -4.768371E-09 0.5809823 0.1784991
v -0.03020649 0.552422 0.2331943
v -4.768371E-09 0.5446112 0.2281335
v -0.0308242 0.5085756 0.2770344
v -4.768371E-09 0.500769 0.2726261
v -4.768371E-09 0.482853 0.2953322
v -0.03133582 0.483325 0.2972146
vt 0.1521883 0.6709907
vt 0.179462 0.6709926
vt 0.1808484 0.6865515
vt 0.15519 0.6853778
vt 0.148357 0.6583528
vt 0.177664 0.6582785
vt 0.1200333 0.6584726
vt 0.1270152 0.6712051
vt 0.133023 0.6837198
vt 0.1520911 0.6974484
vt 0.1306809 0.6952559
vt 0.1792725 0.6992071
vt 0.09266901 0.6584111
vt 0.1052412 0.6723567
vt 0.07719398 0.678829
vt 0.1160973 0.6824149
vt 0.1080434 0.6915112
vt 0.05546951 0.6592037
vt 0.1755342 0.6421477
vt 0.1442568 0.6422208
vt 0.1129695 0.6422848
vt 0.08138323 0.6412268
vt 0.03900015 0.6387298
vt 0.07445204 0.6235612
vt 0.03007412 0.6205099
vt 0.07161736 0.6084176
vt 0.02674758 0.6067209
vt 0.1083094 0.6247873
vt 0.1063774 0.6089938
vt 0.141474 0.6251379
vt 0.1401132 0.6092349
vt 0.173775 0.6245131
vt 0.1729808 0.6082271
vt 0.1726468 0.5918921
vt 0.1396252 0.5935155
vt 0.1732619 0.5764928
vt 0.1400452 0.5779263
vt 0.1066161 0.5785712
vt 0.1057068 0.5935705
vt 0.07312644 0.5788717
vt 0.0706991 0.5933361
vt 0.02629197 0.5764402
vt 0.02333963 0.5908669
vt 0.1737994 0.5610664
vt 0.2286319 0.5748434
vt 0.2286319 0.5603582
vt 0.2286319 0.5432553
vt 0.1737039 0.5439324
vt 0.140541 0.5621123
vt 0.1399515 0.5461035
vt 0.1717848 0.5187048
vt 0.1331066 0.5234355
vt 0.1096247 0.5501437
vt 0.1089174 0.5640392
vt 0.2286319 0.5166306
vt 0.08715999 0.5543826
vt 0.06547737 0.5440273
vt 0.07913578 0.5654271
vt 0.03826976 0.5616781
vt 0.09716284 0.5318512
vt 0.2286319 0.6997228
vt 0.1934217 0.6996406
vt 0.1942497 0.686734
vt 0.2286319 0.6877564
vt 0.2286319 0.6717963
vt 0.1935643 0.6709881
vt 0.1926067 0.6582221
vt 0.2286319 0.6588094
vt 0.1914989 0.6420743
vt 0.2286319 0.6425081
vt 0.1904956 0.6242449
vt 0.2286319 0.6243255
vt 0.1901025 0.6078066
vt 0.2286319 0.6075231
vt 0.1900048 0.5912328
vt 0.2286319 0.5905869
vt 0.2286319 0.5825918
vt 0.1900896 0.5824443
vt 0.1521883 0.6709907
vt 0.15519 0.6853778
vt 0.1808484 0.6865515
vt 0.179462 0.6709926
vt 0.148357 0.6583528
vt 0.177664 0.6582785
vt 0.1200333 0.6584726
vt 0.1270152 0.6712051
vt 0.133023 0.6837198
vt 0.1520911 0.6974484
vt 0.1306809 0.6952559
vt 0.1792725 0.6992071
vt 0.09266901 0.6584111
vt 0.1052412 0.6723567
vt 0.07719398 0.678829
vt 0.1160973 0.6824149
vt 0.1080434 0.6915112
vt 0.05546951 0.6592037
vt 0.1755342 0.6421477
vt 0.1442568 0.6422208
vt 0.1129695 0.6422848
vt 0.08138323 0.6412268
vt 0.03900015 0.6387298
vt 0.07445204 0.6235612
vt 0.03007412 0.6205099
vt 0.07161736 0.6084176
vt 0.02674758 0.6067209
vt 0.1083094 0.6247873
vt 0.1063774 0.6089938
vt 0.141474 0.6251379
vt 0.1401132 0.6092349
vt 0.173775 0.6245131
vt 0.1729808 0.6082271
vt 0.1726468 0.5918921
vt 0.1396252 0.5935155
vt 0.1732619 0.5764928
vt 0.1400452 0.5779263
vt 0.1066161 0.5785712
vt 0.1057068 0.5935705
vt 0.07312644 0.5788717
vt 0.0706991 0.5933361
vt 0.02629197 0.5764402
vt 0.02333963 0.5908669
vt 0.1737994 0.5610664
vt 0.2286319 0.5748434
vt 0.2286319 0.5603582
vt 0.2286319 0.5432553
vt 0.1737039 0.5439324
vt 0.140541 0.5621123
vt 0.1399515 0.5461035
vt 0.1717848 0.5187048
vt 0.1331066 0.5234355
vt 0.1096247 0.5501437
vt 0.1089174 0.5640392
vt 0.2286319 0.5166306
vt 0.08715999 0.5543826
vt 0.06547737 0.5440273
vt 0.07913578 0.5654271
vt 0.03826976 0.5616781
vt 0.09716284 0.5318512
vt 0.2286319 0.6997228
vt 0.2286319 0.6877564
vt 0.1942497 0.686734
vt 0.1934217 0.6996406
vt 0.2286319 0.6717963
vt 0.1935643 0.6709881
vt 0.1926067 0.6582221
vt 0.2286319 0.6588094
vt 0.1914989 0.6420743
vt 0.2286319 0.6425081
vt 0.1904956 0.6242449
vt 0.2286319 0.6243255
vt 0.1901025 0.6078066
vt 0.2286319 0.6075231
vt 0.1900048 0.5912328
vt 0.2286319 0.5905869
vt 0.2286319 0.5825918
vt 0.1900896 0.5824443
vn 0.1111956 0.9637797 0.2424134
vn -0.03499422 0.9708489 0.2371239
vn -0.05458237 0.98952 0.133682
vn 0.07854361 0.9850392 0.1533906
vn 0.1440088 0.9342602 0.3262198
vn -0.02139231 0.9421087 0.3346245
vn 0.3533994 0.8875724 0.2955066
vn 0.307274 0.923623 0.2291362
vn 0.2616608 0.9515776 0.1613494
vn 0.06800917 0.9929871 0.09670245
vn 0.2538475 0.9599697 0.1184045
vn -0.06226499 0.9956267 0.06964571
vn 0.5370915 0.8071421 0.2450599
vn 0.4821693 0.8537609 0.1964815
vn 0.5541202 0.8152541 0.1682607
vn 0.415122 0.8960354 0.1574617
vn 0.4358501 0.8897727 0.1354229
vn 0.622261 0.7541159 0.2100009
vn -0.01874879 0.9049278 0.4251519
vn 0.1666083 0.8974854 0.4083645
vn 0.387051 0.8469355 0.3645433
vn 0.5708598 0.7632321 0.3026483
vn 0.6566252 0.7066931 0.2634923
vn 0.5905764 0.7098309 0.3838744
vn 0.6745597 0.6556016 0.3393461
vn 0.5993001 0.6329983 0.4900535
vn 0.6821522 0.584686 0.4391022
vn 0.4095718 0.7896984 0.4567574
vn 0.421577 0.7032639 0.5724445
vn 0.1819501 0.8404765 0.5103856
vn 0.1948336 0.7509143 0.6310053
vn -0.01823325 0.848427 0.5289983
vn -0.001967852 0.7649893 0.64404
vn 0.02940661 0.6546753 0.755338
vn 0.2099642 0.6238234 0.7528343
vn 0.05142485 0.4939919 0.8679444
vn 0.2224476 0.4441582 0.8678943
vn 0.4196632 0.4034628 0.813081
vn 0.4241386 0.5792055 0.696152
vn 0.5829674 0.3578184 0.7294621
vn 0.5972298 0.5207096 0.610064
vn 0.6625654 0.322626 0.6759582
vn 0.6799058 0.478552 0.5556223
vn 0.08987912 0.2126177 0.972993
vn 0 0.468073 0.8836898
vn 0 0.2099993 0.9777015
vn 0 -0.03454313 0.9994032
vn 0.1030112 -0.03379679 0.9941059
vn 0.2345276 0.1962589 0.9520921
vn 0.2367888 -0.03203233 0.971033
vn 0.1087352 -0.158804 0.9813042
vn 0.2407203 -0.1487525 0.959128
vn 0.3901225 -0.02207528 0.9204983
vn 0.4069987 0.1784927 0.8958194
vn 0 -0.1612013 0.9869215
vn 0.505944 0.001630914 0.8625648
vn 0.5274608 -0.03491661 0.8488615
vn 0.5503793 0.1566242 0.8200924
vn 0.6148596 0.1294574 0.7779386
vn 0.3925554 -0.1155144 0.9124454
vn -0.1787689 0.9827438 0.04750066
vn -0.1415842 0.9887032 0.04919269
vn -0.1386753 0.9835025 0.1161549
vn -0.1814616 0.9770424 0.1116235
vn -0.1821119 0.9578617 0.2221173
vn -0.1317209 0.9647898 0.2276624
vn -0.1332465 0.9332398 0.3336298
vn -0.1902163 0.9242734 0.330963
vn -0.1449984 0.8920804 0.4279812
vn -0.2021357 0.8810751 0.427607
vn -0.1470499 0.8366309 0.5276601
vn -0.1961475 0.8282309 0.5249379
vn -0.1161902 0.7669898 0.631052
vn -0.1336858 0.7713779 0.622177
vn -0.04883112 0.6921223 0.7201266
vn 0 0.7148126 0.6993161
vn 0 0.6159731 0.7877672
vn -0.01815391 0.6133664 0.7895898
vn -0.1111957 0.9637797 0.2424134
vn -0.07854355 0.9850392 0.1533905
vn 0.05458236 0.98952 0.133682
vn 0.03499433 0.9708489 0.2371241
vn -0.1440088 0.9342602 0.3262198
vn 0.02139231 0.9421086 0.3346246
vn -0.3533994 0.8875725 0.2955063
vn -0.3072739 0.923623 0.2291362
vn -0.2616607 0.9515777 0.1613494
vn -0.06800921 0.9929871 0.0967022
vn -0.2538476 0.9599697 0.1184042
vn 0.06226506 0.9956267 0.06964573
vn -0.5370914 0.8071423 0.2450597
vn -0.4821692 0.853761 0.1964815
vn -0.5541202 0.8152541 0.1682605
vn -0.4151222 0.8960354 0.1574617
vn -0.4358501 0.8897727 0.1354228
vn -0.6222612 0.7541159 0.2100007
vn 0.01874885 0.9049277 0.4251521
vn -0.1666083 0.8974855 0.4083644
vn -0.3870508 0.8469356 0.3645431
vn -0.5708597 0.7632322 0.302648
vn -0.6566252 0.7066932 0.2634922
vn -0.5905764 0.7098311 0.3838743
vn -0.6745596 0.6556017 0.3393461
vn -0.5993 0.6329986 0.4900533
vn -0.6821522 0.5846861 0.4391021
vn -0.4095716 0.7896987 0.4567571
vn -0.4215767 0.7032641 0.5724444
vn -0.18195 0.8404765 0.5103856
vn -0.1948334 0.7509144 0.6310052
vn 0.01823325 0.848427 0.5289983
vn 0.001967913 0.7649893 0.64404
vn -0.02940648 0.6546755 0.7553378
vn -0.209964 0.6238236 0.7528341
vn -0.0514246 0.4939921 0.8679444
vn -0.2224475 0.4441583 0.8678942
vn -0.419663 0.403463 0.8130809
vn -0.4241386 0.5792056 0.6961518
vn -0.5829672 0.3578186 0.7294621
vn -0.5972298 0.5207096 0.6100639
vn -0.6625654 0.3226261 0.6759583
vn -0.6799057 0.478552 0.5556225
vn -0.08987905 0.2126177 0.972993
vn 0 0.468073 0.8836898
vn 0 0.2099993 0.9777015
vn 0 -0.03454313 0.9994032
vn -0.1030112 -0.03379679 0.9941059
vn -0.2345275 0.196259 0.9520921
vn -0.2367886 -0.03203226 0.971033
vn -0.1087352 -0.158804 0.9813042
vn -0.2407201 -0.1487524 0.959128
vn -0.3901224 -0.02207528 0.9204984
vn -0.4069986 0.1784927 0.8958195
vn 0 -0.1612013 0.9869215
vn -0.5059438 0.001631038 0.8625649
vn -0.5274608 -0.03491649 0.8488616
vn -0.5503792 0.1566242 0.8200925
vn -0.6148594 0.1294575 0.7779387
vn -0.3925554 -0.1155143 0.9124454
vn 0.1787691 0.9827437 0.04750065
vn 0.1814617 0.9770424 0.1116235
vn 0.1386754 0.9835024 0.116155
vn 0.1415843 0.9887032 0.0491928
vn 0.182112 0.9578617 0.2221176
vn 0.1317209 0.9647898 0.2276623
vn 0.1332467 0.9332396 0.3336302
vn 0.1902165 0.9242733 0.3309633
vn 0.1449985 0.8920804 0.4279812
vn 0.2021357 0.8810751 0.4276072
vn 0.14705 0.8366308 0.5276601
vn 0.1961476 0.8282309 0.5249378
vn 0.1161902 0.7669898 0.6310519
vn 0.1336859 0.7713779 0.622177
vn 0.04883118 0.6921225 0.7201264
vn 0 0.7148126 0.6993161
vn 0 0.6159731 0.7877672
vn 0.01815391 0.6133664 0.7895898
g pm0094_00_NormalTongueSkin_0
f 3/3/3 2/2/2 1/1/1
f 4/4/4 3/3/3 1/1/1
f 5/5/5 1/1/1 2/2/2
f 6/6/6 5/5/5 2/2/2
f 5/5/5 7/7/7 1/1/1
f 7/7/7 8/8/8 1/1/1
f 4/4/4 1/1/1 8/8/8
f 9/9/9 4/4/4 8/8/8
f 4/4/4 9/9/9 10/10/10
f 9/9/9 11/11/11 10/10/10
f 4/4/4 10/10/10 12/12/12
f 3/3/3 4/4/4 12/12/12
f 7/7/7 13/13/13 8/8/8
f 13/13/13 14/14/14 8/8/8
f 14/14/14 13/13/13 15/15/15
f 16/16/16 14/14/14 15/15/15
f 8/8/8 14/14/14 16/16/16
f 9/9/9 8/8/8 16/16/16
f 9/9/9 16/16/16 11/11/11
f 17/17/17 16/16/16 15/15/15
f 16/16/16 17/17/17 11/11/11
f 13/13/13 18/18/18 15/15/15
f 6/6/6 19/19/19 5/5/5
f 19/19/19 20/20/20 5/5/5
f 5/5/5 20/20/20 7/7/7
f 20/20/20 21/21/21 7/7/7
f 7/7/7 21/21/21 13/13/13
f 21/21/21 22/22/22 13/13/13
f 13/13/13 22/22/22 18/18/18
f 22/22/22 23/23/23 18/18/18
f 23/23/23 22/22/22 24/24/24
f 24/24/24 22/22/22 21/21/21
f 25/25/25 23/23/23 24/24/24
f 25/25/25 24/24/24 26/26/26
f 27/27/27 25/25/25 26/26/26
f 26/26/26 24/24/24 28/28/28
f 28/28/28 24/24/24 21/21/21
f 28/28/28 21/21/21 20/20/20
f 29/29/29 26/26/26 28/28/28
f 29/29/29 28/28/28 30/30/30
f 30/30/30 28/28/28 20/20/20
f 30/30/30 20/20/20 19/19/19
f 31/31/31 29/29/29 30/30/30
f 31/31/31 30/30/30 32/32/32
f 32/32/32 30/30/30 19/19/19
f 33/33/33 31/31/31 32/32/32
f 33/33/33 34/34/34 31/31/31
f 34/34/34 35/35/35 31/31/31
f 31/31/31 35/35/35 29/29/29
f 35/35/35 34/34/34 36/36/36
f 37/37/37 35/35/35 36/36/36
f 37/37/37 38/38/38 35/35/35
f 38/38/38 39/39/39 35/35/35
f 35/35/35 39/39/39 29/29/29
f 29/29/29 39/39/39 26/26/26
f 38/38/38 40/40/40 39/39/39
f 40/40/40 41/41/41 39/39/39
f 39/39/39 41/41/41 26/26/26
f 27/27/27 26/26/26 41/41/41
f 41/41/41 40/40/40 42/42/42
f 43/43/43 41/41/41 42/42/42
f 43/43/43 27/27/27 41/41/41
f 37/37/37 36/36/36 44/44/44
f 44/44/44 36/36/36 45/45/45
f 46/46/46 44/44/44 45/45/45
f 44/44/44 46/46/46 47/47/47
f 48/48/48 44/44/44 47/47/47
f 49/49/49 44/44/44 48/48/48
f 49/49/49 37/37/37 44/44/44
f 38/38/38 37/37/37 49/49/49
f 50/50/50 49/49/49 48/48/48
f 50/50/50 48/48/48 51/51/51
f 52/52/52 50/50/50 51/51/51
f 49/49/49 50/50/50 53/53/53
f 54/54/54 49/49/49 53/53/53
f 48/48/48 47/47/47 55/55/55
f 51/51/51 48/48/48 55/55/55
f 54/54/54 53/53/53 56/56/56
f 57/57/57 56/56/56 53/53/53
f 58/58/58 56/56/56 57/57/57
f 58/58/58 54/54/54 56/56/56
f 59/59/59 58/58/58 57/57/57
f 60/60/60 57/57/57 53/53/53
f 60/60/60 53/53/53 50/50/50
f 52/52/52 60/60/60 50/50/50
f 54/54/54 38/38/38 49/49/49
f 40/40/40 38/38/38 54/54/54
f 58/58/58 40/40/40 54/54/54
f 42/42/42 40/40/40 58/58/58
f 59/59/59 42/42/42 58/58/58
f 63/63/63 62/62/62 61/61/61
f 64/64/64 63/63/63 61/61/61
f 64/64/64 65/65/65 63/63/63
f 65/65/65 66/66/66 63/63/63
f 67/67/67 66/66/66 65/65/65
f 68/68/68 67/67/67 65/65/65
f 67/67/67 68/68/68 69/69/69
f 68/68/68 70/70/70 69/69/69
f 71/71/71 69/69/69 70/70/70
f 72/72/72 71/71/71 70/70/70
f 73/73/73 71/71/71 72/72/72
f 74/74/74 73/73/73 72/72/72
f 75/75/75 73/73/73 74/74/74
f 76/76/76 75/75/75 74/74/74
f 75/75/75 76/76/76 77/77/77
f 78/78/78 75/75/75 77/77/77
f 78/78/78 77/77/77 45/45/45
f 36/36/36 78/78/78 45/45/45
f 34/34/34 75/75/75 78/78/78
f 36/36/36 34/34/34 78/78/78
f 75/75/75 34/34/34 73/73/73
f 34/34/34 33/33/33 73/73/73
f 73/73/73 33/33/33 71/71/71
f 33/33/33 32/32/32 71/71/71
f 71/71/71 32/32/32 69/69/69
f 32/32/32 19/19/19 69/69/69
f 67/67/67 69/69/69 19/19/19
f 6/6/6 67/67/67 19/19/19
f 67/67/67 6/6/6 66/66/66
f 6/6/6 2/2/2 66/66/66
f 66/66/66 2/2/2 3/3/3
f 63/63/63 66/66/66 3/3/3
f 63/63/63 3/3/3 62/62/62
f 3/3/3 12/12/12 62/62/62
f 81/81/81 80/80/80 79/79/79
f 82/82/82 81/81/81 79/79/79
f 79/79/79 83/83/83 82/82/82
f 83/83/83 84/84/84 82/82/82
f 85/85/85 83/83/83 79/79/79
f 86/86/86 85/85/85 79/79/79
f 79/79/79 80/80/80 86/86/86
f 80/80/80 87/87/87 86/86/86
f 87/87/87 80/80/80 88/88/88
f 89/89/89 87/87/87 88/88/88
f 80/80/80 81/81/81 90/90/90
f 88/88/88 80/80/80 90/90/90
f 91/91/91 85/85/85 86/86/86
f 92/92/92 91/91/91 86/86/86
f 91/91/91 92/92/92 93/93/93
f 92/92/92 94/94/94 93/93/93
f 86/86/86 87/87/87 94/94/94
f 92/92/92 86/86/86 94/94/94
f 94/94/94 87/87/87 89/89/89
f 94/94/94 95/95/95 93/93/93
f 95/95/95 94/94/94 89/89/89
f 96/96/96 91/91/91 93/93/93
f 97/97/97 84/84/84 83/83/83
f 98/98/98 97/97/97 83/83/83
f 98/98/98 83/83/83 85/85/85
f 99/99/99 98/98/98 85/85/85
f 99/99/99 85/85/85 91/91/91
f 100/100/100 99/99/99 91/91/91
f 100/100/100 91/91/91 96/96/96
f 101/101/101 100/100/100 96/96/96
f 100/100/100 101/101/101 102/102/102
f 100/100/100 102/102/102 99/99/99
f 101/101/101 103/103/103 102/102/102
f 102/102/102 103/103/103 104/104/104
f 103/103/103 105/105/105 104/104/104
f 102/102/102 104/104/104 106/106/106
f 102/102/102 106/106/106 99/99/99
f 99/99/99 106/106/106 98/98/98
f 104/104/104 107/107/107 106/106/106
f 106/106/106 107/107/107 108/108/108
f 106/106/106 108/108/108 98/98/98
f 98/98/98 108/108/108 97/97/97
f 107/107/107 109/109/109 108/108/108
f 108/108/108 109/109/109 110/110/110
f 108/108/108 110/110/110 97/97/97
f 109/109/109 111/111/111 110/110/110
f 112/112/112 111/111/111 109/109/109
f 113/113/113 112/112/112 109/109/109
f 113/113/113 109/109/109 107/107/107
f 112/112/112 113/113/113 114/114/114
f 113/113/113 115/115/115 114/114/114
f 116/116/116 115/115/115 113/113/113
f 117/117/117 116/116/116 113/113/113
f 117/117/117 113/113/113 107/107/107
f 117/117/117 107/107/107 104/104/104
f 118/118/118 116/116/116 117/117/117
f 119/119/119 118/118/118 117/117/117
f 119/119/119 117/117/117 104/104/104
f 104/104/104 105/105/105 119/119/119
f 118/118/118 119/119/119 120/120/120
f 119/119/119 121/121/121 120/120/120
f 105/105/105 121/121/121 119/119/119
f 114/114/114 115/115/115 122/122/122
f 114/114/114 122/122/122 123/123/123
f 122/122/122 124/124/124 123/123/123
f 124/124/124 122/122/122 125/125/125
f 122/122/122 126/126/126 125/125/125
f 122/122/122 127/127/127 126/126/126
f 115/115/115 127/127/127 122/122/122
f 115/115/115 116/116/116 127/127/127
f 127/127/127 128/128/128 126/126/126
f 126/126/126 128/128/128 129/129/129
f 128/128/128 130/130/130 129/129/129
f 128/128/128 127/127/127 131/131/131
f 127/127/127 132/132/132 131/131/131
f 126/126/126 129/129/129 133/133/133
f 125/125/125 126/126/126 133/133/133
f 131/131/131 132/132/132 134/134/134
f 134/134/134 135/135/135 131/131/131
f 134/134/134 136/136/136 135/135/135
f 132/132/132 136/136/136 134/134/134
f 136/136/136 137/137/137 135/135/135
f 135/135/135 138/138/138 131/131/131
f 138/138/138 130/130/130 128/128/128
f 131/131/131 138/138/138 128/128/128
f 116/116/116 132/132/132 127/127/127
f 118/118/118 136/136/136 132/132/132
f 116/116/116 118/118/118 132/132/132
f 120/120/120 137/137/137 136/136/136
f 118/118/118 120/120/120 136/136/136
f 141/141/141 140/140/140 139/139/139
f 142/142/142 141/141/141 139/139/139
f 143/143/143 140/140/140 141/141/141
f 144/144/144 143/143/143 141/141/141
f 144/144/144 145/145/145 143/143/143
f 145/145/145 146/146/146 143/143/143
f 146/146/146 145/145/145 147/147/147
f 148/148/148 146/146/146 147/147/147
f 147/147/147 149/149/149 148/148/148
f 149/149/149 150/150/150 148/148/148
f 149/149/149 151/151/151 150/150/150
f 151/151/151 152/152/152 150/150/150
f 151/151/151 153/153/153 152/152/152
f 153/153/153 154/154/154 152/152/152
f 154/154/154 153/153/153 155/155/155
f 153/153/153 156/156/156 155/155/155
f 155/155/155 156/156/156 123/123/123
f 156/156/156 114/114/114 123/123/123
f 112/112/112 114/114/114 156/156/156
f 153/153/153 112/112/112 156/156/156
f 112/112/112 153/153/153 151/151/151
f 111/111/111 112/112/112 151/151/151
f 111/111/111 151/151/151 149/149/149
f 110/110/110 111/111/111 149/149/149
f 110/110/110 149/149/149 147/147/147
f 97/97/97 110/110/110 147/147/147
f 147/147/147 145/145/145 97/97/97
f 145/145/145 84/84/84 97/97/97
f 84/84/84 145/145/145 144/144/144
f 82/82/82 84/84/84 144/144/144
f 82/82/82 144/144/144 81/81/81
f 144/144/144 141/141/141 81/81/81
f 81/81/81 141/141/141 142/142/142
f 90/90/90 81/81/81 142/142/142
