g pm0088_00_LiquidDSkin
v 0.04910989 0.4007089 0.4489301
v 0.05734468 0.3990144 0.4506332
v 0.05734468 0.395519 0.4406954
v 0.04737283 0.3990233 0.4406954
v 0.04385503 0.4088939 0.4406954
v 0.04745983 0.4088939 0.4505802
v 0.05734469 0.4088939 0.4541486
v 0.04737284 0.4187644 0.4406954
v 0.04910989 0.4170788 0.4489301
v 0.05734468 0.4222688 0.4406954
v 0.05734468 0.4187733 0.4506333
v 0.06557946 0.4170787 0.4489302
v 0.06731653 0.4187646 0.4406955
v 0.07083433 0.4088939 0.4406955
v 0.06722954 0.4088939 0.4505803
v 0.06557946 0.4007089 0.4489301
v 0.06731652 0.3990234 0.4406954
v 0.04745981 0.408894 0.4308107
v 0.05734468 0.4088939 0.4272422
v 0.0573447 0.4187734 0.4307577
v 0.04910992 0.417079 0.4324608
v 0.05734468 0.3990144 0.4307576
v 0.0491099 0.400709 0.4324607
v 0.05734468 0.4222688 0.4406954
v 0.04737284 0.4187644 0.4406954
v 0.04737283 0.3990233 0.4406954
v 0.04385503 0.4088939 0.4406954
v 0.05734468 0.395519 0.4406954
v 0.06557946 0.400709 0.4324607
v 0.06731652 0.3990234 0.4406954
v 0.07083433 0.4088939 0.4406955
v 0.06722955 0.408894 0.4308107
v 0.06557948 0.417079 0.4324609
v 0.06731653 0.4187646 0.4406955
vt 0.4915414 0.1207911
vt 0.5000008 0.1202589
vt 0.5000008 0.1146398
vt 0.4850353 0.1175707
vt 0.4792162 0.125
vt 0.4904729 0.125
vt 0.5000008 0.125
vt 0.4850353 0.1324288
vt 0.4915414 0.1292087
vt 0.5000008 0.13536
vt 0.5000008 0.1297411
vt 0.5084602 0.1292086
vt 0.5149662 0.1324289
vt 0.5207856 0.125
vt 0.5095288 0.125
vt 0.5084602 0.1207911
vt 0.5149662 0.1175707
vt 0.5095288 0.09765625
vt 0.5000008 0.09765625
vt 0.5000008 0.1023974
vt 0.5084604 0.1018651
vt 0.5000008 0.09291516
vt 0.5084602 0.09344737
vt 0.5000008 0.1080163
vt 0.5149664 0.1050851
vt 0.5149664 0.09022699
vt 0.5207857 0.09765625
vt 0.5000008 0.0872961
vt 0.4915414 0.09344737
vt 0.4850354 0.09022699
vt 0.4792161 0.09765625
vt 0.490473 0.09765625
vt 0.4915414 0.1018651
vt 0.4850354 0.1050852
vn -0.5767187 -0.5772883 0.578043
vn -1.546234E-06 -0.7065299 0.7076833
vn 0 -1 -2.489791E-06
vn -0.7071617 -0.7070519 -1.547147E-06
vn -1 2.493543E-06 1.558464E-07
vn -0.7063888 0 0.707824
vn -3.50125E-06 -1.244889E-06 1
vn -0.7071606 0.707053 3.536324E-06
vn -0.576719 0.5772872 0.5780438
vn -2.723199E-06 1 6.691288E-06
vn -5.080477E-06 0.7065266 0.7076865
vn 0.5767134 0.5772875 0.5780491
vn 0.7071587 0.7070549 6.335934E-06
vn 1 1.558466E-06 2.181852E-06
vn 0.7063851 -1.987382E-06 0.7078277
vn 0.576717 -0.5772899 0.5780432
vn 0.7071611 -0.7070525 -1.768165E-06
vn -0.706388 6.330176E-06 -0.7078248
vn 0 7.93618E-06 -1
vn -1.398974E-06 0.7065352 -0.707678
vn -0.5767176 0.5772939 -0.5780386
vn 4.417821E-07 -0.7065253 -0.7076878
vn -0.5767185 -0.5772847 -0.5780469
vn -2.723199E-06 1 6.691288E-06
vn -0.7071606 0.707053 3.536324E-06
vn -0.7071617 -0.7070519 -1.547147E-06
vn -1 2.493543E-06 1.558464E-07
vn 0 -1 -2.489791E-06
vn 0.5767189 -0.5772849 -0.5780463
vn 0.7071611 -0.7070525 -1.768165E-06
vn 1 1.558466E-06 2.181852E-06
vn 0.7063881 5.152468E-06 -0.7078248
vn 0.5767171 0.5772944 -0.5780385
vn 0.7071587 0.7070549 6.335934E-06
g pm0088_00_LiquidDSkin_0
f 3/3/3 2/2/2 1/1/1
f 4/4/4 3/3/3 1/1/1
f 5/5/5 4/4/4 1/1/1
f 6/6/6 5/5/5 1/1/1
f 1/1/1 2/2/2 6/6/6
f 2/2/2 7/7/7 6/6/6
f 8/8/8 5/5/5 6/6/6
f 9/9/9 8/8/8 6/6/6
f 10/10/10 8/8/8 9/9/9
f 11/11/11 10/10/10 9/9/9
f 6/6/6 7/7/7 11/11/11
f 9/9/9 6/6/6 11/11/11
f 10/10/10 11/11/11 12/12/12
f 13/13/13 10/10/10 12/12/12
f 14/14/14 13/13/13 12/12/12
f 15/15/15 14/14/14 12/12/12
f 11/11/11 7/7/7 15/15/15
f 12/12/12 11/11/11 15/15/15
f 7/7/7 2/2/2 15/15/15
f 14/14/14 15/15/15 16/16/16
f 2/2/2 3/3/3 16/16/16
f 2/2/2 16/16/16 15/15/15
f 17/17/17 14/14/14 16/16/16
f 3/3/3 17/17/17 16/16/16
f 20/20/20 19/19/19 18/18/18
f 21/21/21 20/20/20 18/18/18
f 19/19/19 22/22/22 18/18/18
f 22/22/22 23/23/23 18/18/18
f 24/24/24 20/20/20 21/21/21
f 25/25/25 24/24/24 21/21/21
f 23/23/23 26/26/26 18/18/18
f 26/26/26 27/27/27 18/18/18
f 27/27/27 25/25/25 21/21/21
f 18/18/18 27/27/27 21/21/21
f 28/28/28 26/26/26 23/23/23
f 22/22/22 28/28/28 23/23/23
f 28/28/28 22/22/22 29/29/29
f 29/29/29 22/22/22 19/19/19
f 30/30/30 28/28/28 29/29/29
f 31/31/31 30/30/30 29/29/29
f 32/32/32 31/31/31 29/29/29
f 19/19/19 20/20/20 32/32/32
f 32/32/32 29/29/29 19/19/19
f 31/31/31 32/32/32 33/33/33
f 20/20/20 24/24/24 33/33/33
f 20/20/20 33/33/33 32/32/32
f 34/34/34 31/31/31 33/33/33
f 24/24/24 34/34/34 33/33/33
