g pm0088_61_LiquidBSkin
v 0.02744854 0.2811954 0.2923983
v 0.03682164 0.2792665 0.2943367
v 0.03682164 0.2752879 0.2830251
v 0.02547136 0.2792766 0.2830252
v 0.02146727 0.2905117 0.2830252
v 0.02557037 0.2905116 0.2942764
v 0.03682164 0.2905116 0.2983381
v 0.02547136 0.3017466 0.2830252
v 0.02744854 0.299828 0.2923982
v 0.03682164 0.3057354 0.2830252
v 0.03682164 0.3017568 0.2943367
v 0.04619476 0.2998279 0.2923982
v 0.04817191 0.3017466 0.2830252
v 0.05217602 0.2905117 0.2830252
v 0.04807293 0.2905117 0.2942764
v 0.04619476 0.2811953 0.2923982
v 0.04817192 0.2792766 0.2830252
v 0.02557036 0.2905117 0.2717739
v 0.03682164 0.2905117 0.2677123
v 0.03682164 0.3017569 0.2717136
v 0.02744852 0.299828 0.273652
v 0.03682164 0.2792665 0.2717136
v 0.02744854 0.2811954 0.273652
v 0.03682164 0.3057354 0.2830252
v 0.02547136 0.3017466 0.2830252
v 0.02547136 0.2792766 0.2830252
v 0.02146727 0.2905117 0.2830252
v 0.03682164 0.2752879 0.2830251
v 0.04619475 0.2811954 0.273652
v 0.04817192 0.2792766 0.2830252
v 0.05217602 0.2905117 0.2830252
v 0.04807293 0.2905117 0.2717739
v 0.04619473 0.299828 0.273652
v 0.04817191 0.3017466 0.2830252
vt 0.5507085 0.05659616
vt 0.5625533 0.05585071
vt 0.5625533 0.0479832
vt 0.5415991 0.0520873
vt 0.5334512 0.06248904
vt 0.5492128 0.06248904
vt 0.5625533 0.06248904
vt 0.5415991 0.072891
vt 0.5507085 0.06838194
vt 0.5625533 0.07699507
vt 0.5625533 0.0691275
vt 0.574398 0.06838194
vt 0.5835074 0.072891
vt 0.5916554 0.06248904
vt 0.5758938 0.06248904
vt 0.574398 0.05659616
vt 0.5835074 0.05208724
vt 0.5758981 0.02343336
vt 0.5624931 0.02343336
vt 0.5624931 0.03010386
vt 0.5743948 0.02935469
vt 0.5624931 0.01676297
vt 0.5743945 0.01751208
vt 0.5624931 0.03800941
vt 0.5835485 0.03388548
vt 0.5835485 0.01298141
vt 0.5917357 0.02343336
vt 0.5624931 0.008857578
vt 0.5505915 0.01751208
vt 0.5414378 0.01298141
vt 0.5332506 0.02343336
vt 0.5490885 0.02343336
vt 0.5505915 0.02935469
vt 0.5414382 0.03388548
vn -0.5763365 -0.5784443 0.5772681
vn 2.94402E-07 -0.7076833 0.7065299
vn 0 -1 -2.33204E-07
vn -0.7062271 -0.7079853 1.472917E-07
vn -1 -4.675779E-07 6.234371E-07
vn -0.7064242 -4.419843E-07 0.7077888
vn 1.557415E-07 0 1
vn -0.7062271 0.7079853 1.325625E-06
vn -0.5763373 0.5784432 0.5772684
vn 0 1 1.399223E-06
vn 4.416032E-07 0.7076828 0.7065303
vn 0.5763374 0.5784438 0.5772677
vn 0.706227 0.7079855 7.36458E-07
vn 1 6.23437E-07 0
vn 0.7064251 -2.209921E-07 0.7077878
vn 0.5763375 -0.5784438 0.5772676
vn 0.7062276 -0.7079849 -8.101049E-07
vn -0.7064247 7.366405E-07 -0.7077882
vn -3.893537E-07 4.672244E-07 -1
vn 0 0.7076845 -0.7065286
vn -0.5763372 0.5784445 -0.5772672
vn -5.888044E-07 -0.707682 -0.7065311
vn -0.5763373 -0.5784431 -0.5772684
vn 0 1 1.399223E-06
vn -0.7062271 0.7079853 1.325625E-06
vn -0.7062271 -0.7079853 1.472917E-07
vn -1 -4.675779E-07 6.234371E-07
vn 0 -1 -2.33204E-07
vn 0.5763375 -0.5784425 -0.5772689
vn 0.7062276 -0.7079849 -8.101049E-07
vn 1 6.23437E-07 0
vn 0.7064244 1.325953E-06 -0.7077885
vn 0.5763369 0.5784452 -0.5772668
vn 0.706227 0.7079855 7.36458E-07
g pm0088_61_LiquidBSkin_0
f 3/3/3 2/2/2 1/1/1
f 4/4/4 3/3/3 1/1/1
f 5/5/5 4/4/4 1/1/1
f 6/6/6 5/5/5 1/1/1
f 1/1/1 2/2/2 6/6/6
f 2/2/2 7/7/7 6/6/6
f 8/8/8 5/5/5 6/6/6
f 9/9/9 8/8/8 6/6/6
f 10/10/10 8/8/8 9/9/9
f 11/11/11 10/10/10 9/9/9
f 6/6/6 7/7/7 11/11/11
f 9/9/9 6/6/6 11/11/11
f 10/10/10 11/11/11 12/12/12
f 12/12/12 11/11/11 7/7/7
f 13/13/13 10/10/10 12/12/12
f 14/14/14 13/13/13 12/12/12
f 15/15/15 14/14/14 12/12/12
f 15/15/15 12/12/12 7/7/7
f 14/14/14 15/15/15 16/16/16
f 2/2/2 3/3/3 16/16/16
f 16/16/16 15/15/15 7/7/7
f 2/2/2 16/16/16 7/7/7
f 17/17/17 14/14/14 16/16/16
f 3/3/3 17/17/17 16/16/16
f 20/20/20 19/19/19 18/18/18
f 21/21/21 20/20/20 18/18/18
f 19/19/19 22/22/22 18/18/18
f 22/22/22 23/23/23 18/18/18
f 24/24/24 20/20/20 21/21/21
f 25/25/25 24/24/24 21/21/21
f 23/23/23 26/26/26 18/18/18
f 26/26/26 27/27/27 18/18/18
f 27/27/27 25/25/25 21/21/21
f 18/18/18 27/27/27 21/21/21
f 28/28/28 26/26/26 23/23/23
f 22/22/22 28/28/28 23/23/23
f 28/28/28 22/22/22 29/29/29
f 29/29/29 22/22/22 19/19/19
f 30/30/30 28/28/28 29/29/29
f 31/31/31 30/30/30 29/29/29
f 32/32/32 31/31/31 29/29/29
f 19/19/19 20/20/20 32/32/32
f 32/32/32 29/29/29 19/19/19
f 31/31/31 32/32/32 33/33/33
f 20/20/20 24/24/24 33/33/33
f 20/20/20 33/33/33 32/32/32
f 34/34/34 31/31/31 33/33/33
f 24/24/24 34/34/34 33/33/33
