g pm0025_00_SippoSkin
v 0.002391896 0.1573122 -0.1785399
v 0.002410469 0.1892706 -0.1360254
v 0.002410469 0.187507 -0.1625652
v 0.002391896 0.1532546 -0.2035525
v 0.002743288 0.2384414 -0.2273943
v 0.002743288 0.2402513 -0.1928449
v 0.002385209 0.1406986 -0.1274982
v 0.002385209 0.1353586 -0.1459745
v 0.001467676 0.1224567 -0.1395641
v 0.001467676 0.1177066 -0.1549573
v 0.004999997 0.09838531 -0.07347146
v -2.980232E-09 0.09254675 -0.07542519
v 0.002743288 0.2420611 -0.1582955
v 0.002410469 0.1910341 -0.1094856
v 0.002391896 0.1613698 -0.1535272
v 0.002385209 0.1460387 -0.109022
v 0.001467676 0.1272067 -0.1241709
v -2.980232E-09 0.1052152 -0.07175182
v 0.002743288 0.3262572 -0.2340111
v 0.002743288 0.361647 -0.2098117
v 0.002743288 0.4162942 -0.2902668
v 0.002743288 0.3578775 -0.3028583
v 0.001808773 0.2922976 -0.1629281
v 0.001808773 0.2989893 -0.1178883
v 0.002743288 0.2402513 -0.1928449
v 0.002743288 0.2384414 -0.2273943
v 0.002743288 0.4723802 -0.2773622
v 0.002743288 0.3993767 -0.1848736
v 0.001808773 0.3056808 -0.07284851
v 0.002743288 0.2420611 -0.1582955
v 1.707694E-16 0.4162942 -0.2902668
v 0.002743288 0.4162942 -0.2902668
v 0.002743288 0.4723802 -0.2773622
v 2.151963E-16 0.4723802 -0.2773622
v 1.24507E-16 0.3578775 -0.3028583
v 0.002743288 0.3578775 -0.3028583
v 0.002743288 0.3993767 -0.1848736
v 0.001808773 0.3056808 -0.07284851
v 8.623713E-17 0.3056808 -0.07284845
v 1.587578E-16 0.3993767 -0.1848736
v 2.151963E-16 0.4723802 -0.2773622
v 0.002743288 0.4723802 -0.2773622
v 0.002743288 0.2420611 -0.1582955
v 5.069324E-17 0.242061 -0.1582955
v 8.623713E-17 0.3056808 -0.07284845
v 0.001808773 0.3056808 -0.07284851
v 1.004275E-16 0.3262572 -0.2340111
v 0.002743288 0.3262572 -0.2340111
v 0.002743288 0.3578775 -0.3028583
v 1.24507E-16 0.3578775 -0.3028583
v 0.001808773 0.2922976 -0.1629281
v 7.453013E-17 0.2922975 -0.162928
v 2.980232E-10 0.2384414 -0.2273943
v 0.002743288 0.2384414 -0.2273943
v 0.001808773 0.2922976 -0.1629281
v 2.980233E-10 0.2922975 -0.162928
v 2.155228E-17 0.187507 -0.1625651
v 0.002410469 0.187507 -0.1625652
v 0.002743288 0.2384414 -0.2273943
v 4.695835E-17 0.2384414 -0.2273943
v 0.002410469 0.1910341 -0.1094856
v 2.501036E-17 0.1910339 -0.1094855
v 5.069324E-17 0.242061 -0.1582955
v 0.002743288 0.2420611 -0.1582955
v -4.492656E-19 0.1532545 -0.2035525
v 0.002391896 0.1532546 -0.2035525
v 0.002410469 0.187507 -0.1625652
v 2.155228E-17 0.187507 -0.1625651
v 0.002391896 0.1613698 -0.1535272
v 6.591043E-18 0.1613697 -0.1535271
v 2.501036E-17 0.1910339 -0.1094855
v 0.002410469 0.1910341 -0.1094856
v 0.002385209 0.1460387 -0.109022
v -1.630191E-18 0.1460387 -0.109022
v 6.591043E-18 0.1613697 -0.1535271
v 0.002391896 0.1613698 -0.1535272
v -1.052856E-17 0.1353586 -0.1459745
v 0.002385209 0.1353586 -0.1459745
v 0.002391896 0.1532546 -0.2035525
v -4.492656E-19 0.1532545 -0.2035525
v -2.007234E-17 0.1177066 -0.1549573
v 0.001467679 0.1177066 -0.1549573
v 0.002385209 0.1353586 -0.1459745
v -1.052856E-17 0.1353586 -0.1459745
v -2.622087E-17 0.1052152 -0.07175182
v -1.218357E-17 0.1272067 -0.1241709
v 0.001467679 0.1272067 -0.1241709
v -3.548975E-17 0.09254675 -0.07542519
v 0.001467679 0.1177066 -0.1549573
v -2.007234E-17 0.1177066 -0.1549573
v 0.001467679 0.1272067 -0.1241709
v -1.218357E-17 0.1272067 -0.1241709
v -1.630191E-18 0.1460387 -0.109022
v 0.002385209 0.1460387 -0.109022
v -0.002391896 0.1573122 -0.1785399
v -0.002391896 0.1532546 -0.2035525
v -0.002410469 0.187507 -0.1625652
v -0.002410469 0.1892706 -0.1360254
v -0.002743288 0.2384414 -0.2273943
v -0.002743288 0.2402513 -0.1928449
v -0.002385209 0.1406986 -0.1274982
v -0.002385209 0.1353586 -0.1459745
v -0.001467679 0.1224567 -0.1395641
v -0.001467679 0.1177066 -0.1549573
v -0.005 0.09838531 -0.07347146
v -3.548975E-17 0.09254675 -0.07542519
v -0.002743288 0.2420611 -0.1582955
v -0.002410469 0.1910341 -0.1094856
v -0.002391896 0.1613698 -0.1535272
v -0.002385209 0.1460387 -0.109022
v -0.001467679 0.1272067 -0.1241709
v -2.622087E-17 0.1052152 -0.07175182
v -0.002743288 0.3262572 -0.2340111
v -0.002743288 0.3578775 -0.3028583
v -0.002743288 0.4162942 -0.2902668
v -0.002743288 0.361647 -0.2098117
v -0.001808773 0.2922976 -0.1629281
v -0.001808773 0.2989893 -0.1178883
v -0.002743288 0.2402513 -0.1928449
v -0.002743288 0.2384414 -0.2273943
v -0.002743288 0.4723802 -0.2773622
v -0.002743288 0.3993767 -0.1848736
v -0.001808773 0.3056808 -0.07284851
v -0.002743288 0.2420611 -0.1582955
v 1.707694E-16 0.4162942 -0.2902668
v 2.151963E-16 0.4723802 -0.2773622
v -0.002743288 0.4723802 -0.2773622
v -0.002743288 0.4162942 -0.2902668
v 1.24507E-16 0.3578775 -0.3028583
v -0.002743288 0.3578775 -0.3028583
v -0.002743288 0.3993767 -0.1848736
v 1.587578E-16 0.3993767 -0.1848736
v 8.623713E-17 0.3056808 -0.07284845
v -0.001808773 0.3056808 -0.07284851
v 2.151963E-16 0.4723802 -0.2773622
v -0.002743288 0.4723802 -0.2773622
v -0.002743288 0.2420611 -0.1582955
v -0.001808773 0.3056808 -0.07284851
v 8.623713E-17 0.3056808 -0.07284845
v 5.069324E-17 0.242061 -0.1582955
v 1.004275E-16 0.3262572 -0.2340111
v 1.24507E-16 0.3578775 -0.3028583
v -0.002743288 0.3578775 -0.3028583
v -0.002743288 0.3262572 -0.2340111
v -0.001808773 0.2922976 -0.1629281
v 7.453013E-17 0.2922975 -0.162928
v 2.980232E-10 0.2384414 -0.2273943
v 2.980233E-10 0.2922975 -0.162928
v -0.001808772 0.2922976 -0.1629281
v -0.002743288 0.2384414 -0.2273943
v 2.155228E-17 0.187507 -0.1625651
v 4.695835E-17 0.2384414 -0.2273943
v -0.002743288 0.2384414 -0.2273943
v -0.002410469 0.187507 -0.1625652
v -0.002410469 0.1910341 -0.1094856
v -0.002743288 0.2420611 -0.1582955
v 5.069324E-17 0.242061 -0.1582955
v 2.501036E-17 0.1910339 -0.1094855
v -4.492656E-19 0.1532545 -0.2035525
v 2.155228E-17 0.187507 -0.1625651
v -0.002410469 0.187507 -0.1625652
v -0.002391896 0.1532546 -0.2035525
v -0.002391896 0.1613698 -0.1535272
v -0.002410469 0.1910341 -0.1094856
v 2.501036E-17 0.1910339 -0.1094855
v 6.591043E-18 0.1613697 -0.1535271
v -0.002385209 0.1460387 -0.109022
v -0.002391896 0.1613698 -0.1535272
v 6.591043E-18 0.1613697 -0.1535271
v -1.630191E-18 0.1460387 -0.109022
v -1.052856E-17 0.1353586 -0.1459745
v -4.492656E-19 0.1532545 -0.2035525
v -0.002391896 0.1532546 -0.2035525
v -0.002385209 0.1353586 -0.1459745
v -2.007234E-17 0.1177066 -0.1549573
v -1.052856E-17 0.1353586 -0.1459745
v -0.002385209 0.1353586 -0.1459745
v -0.001467679 0.1177066 -0.1549573
v -2.622087E-17 0.1052152 -0.07175182
v -0.001467679 0.1272067 -0.1241709
v -1.218357E-17 0.1272067 -0.1241709
v -3.548975E-17 0.09254675 -0.07542519
v -2.007234E-17 0.1177066 -0.1549573
v -0.001467679 0.1177066 -0.1549573
v -0.001467679 0.1272067 -0.1241709
v -0.002385209 0.1460387 -0.109022
v -1.630191E-18 0.1460387 -0.109022
v -1.218357E-17 0.1272067 -0.1241709
vt 0.6012596 0.7193323
vt 0.6012596 0.8515164
vt 0.5698001 0.796875
vt 0.5698001 0.6679688
vt 0.3979251 0.796875
vt 0.4443319 0.8515164
vt 0.7311661 0.7193321
vt 0.7026126 0.6679688
vt 0.7311654 0.6281821
vt 0.7026126 0.5820313
vt 0.9719294 0.6281822
vt 0.9709343 0.5820313
vt 0.4838626 0.90625
vt 0.6323001 0.90625
vt 0.6323001 0.7695313
vt 0.7651126 0.7695313
vt 0.7651126 0.6679688
vt 0.9701309 0.6679688
vt 0.8211769 0.8515625
vt 0.84463 0.9160113
vt 0.6791751 0.9160112
vt 0.6791751 0.8515625
vt 0.9135501 0.8515625
vt 0.9485852 0.9160112
vt 0.9485855 0.749158
vt 0.9135501 0.7149269
vt 0.6791751 0.9804688
vt 0.8588523 0.9804688
vt 0.9840212 0.9804688
vt 0.9838626 0.796875
vt 0.6652833 0.9160116
vt 0.6791751 0.9160112
vt 0.6791751 0.9804688
vt 0.6652828 0.9804688
vt 0.6652832 0.8515625
vt 0.6791751 0.8515625
vt 0.8588523 0.9804688
vt 0.9840212 0.9804688
vt 0.9840214 0.9877892
vt 0.8588638 0.9877889
vt 0.6791751 0.9877892
vt 0.6791751 0.9804688
vt 0.9838626 0.796875
vt 0.9919198 0.796875
vt 0.9919198 0.9804688
vt 0.9840212 0.9804688
vt 0.8211801 0.8379479
vt 0.8211769 0.8515625
vt 0.6791751 0.8515625
vt 0.6791751 0.8379477
vt 0.9135501 0.8515625
vt 0.8995947 0.8379477
vt 0.8995949 0.7149269
vt 0.9135501 0.7149269
vt 0.9135501 0.8515625
vt 0.8995947 0.8379477
vt 0.5556325 0.783425
vt 0.5698001 0.796875
vt 0.3979251 0.796875
vt 0.3979251 0.7834255
vt 0.6323001 0.90625
vt 0.6323001 0.9199156
vt 0.4838626 0.9199156
vt 0.4838626 0.90625
vt 0.5556319 0.6679688
vt 0.5698001 0.6679688
vt 0.5698001 0.796875
vt 0.5556325 0.783425
vt 0.6323001 0.7695313
vt 0.6462871 0.7833372
vt 0.6463429 0.90625
vt 0.6323001 0.90625
vt 0.7651126 0.7695313
vt 0.7651126 0.7833372
vt 0.6462871 0.7833372
vt 0.6323001 0.7695313
vt 0.6888938 0.6543366
vt 0.7026126 0.6679688
vt 0.5698001 0.6679688
vt 0.5698001 0.6543372
vt 0.6888933 0.5820313
vt 0.7026126 0.5820313
vt 0.7026126 0.6679688
vt 0.6888938 0.6543366
vt 0.9701309 0.6679688
vt 0.7787328 0.6817589
vt 0.7651126 0.6679688
vt 0.9709343 0.5820313
vt 0.7026126 0.5820313
vt 0.7026126 0.5741204
vt 0.7651126 0.6679688
vt 0.7787328 0.6817589
vt 0.7787328 0.7695313
vt 0.7651126 0.7695313
vt 0.601772 0.7193323
vt 0.5703125 0.6679688
vt 0.5703125 0.796875
vt 0.601772 0.8515164
vt 0.3984375 0.796875
vt 0.4448442 0.8515164
vt 0.7316785 0.7193321
vt 0.703125 0.6679688
vt 0.7316778 0.6281821
vt 0.703125 0.5820313
vt 0.9724417 0.6281822
vt 0.9714467 0.5820313
vt 0.484375 0.90625
vt 0.6328125 0.90625
vt 0.6328125 0.7695313
vt 0.765625 0.7695313
vt 0.765625 0.6679688
vt 0.9706432 0.6679688
vt 0.8216892 0.8515625
vt 0.6796875 0.8515625
vt 0.6796875 0.9160112
vt 0.8451424 0.9160113
vt 0.9140625 0.8515625
vt 0.9490975 0.9160112
vt 0.9490979 0.749158
vt 0.9140625 0.7149269
vt 0.6796875 0.9804688
vt 0.8593646 0.9804688
vt 0.9845335 0.9804688
vt 0.984375 0.796875
vt 0.6657957 0.9160116
vt 0.6657952 0.9804688
vt 0.6796875 0.9804688
vt 0.6796875 0.9160112
vt 0.6657956 0.8515625
vt 0.6796875 0.8515625
vt 0.8593646 0.9804688
vt 0.8593762 0.9877889
vt 0.9845338 0.9877892
vt 0.9845335 0.9804688
vt 0.6796875 0.9877892
vt 0.6796875 0.9804688
vt 0.984375 0.796875
vt 0.9845335 0.9804688
vt 0.9924321 0.9804688
vt 0.9924321 0.796875
vt 0.8216925 0.8379479
vt 0.6796875 0.8379477
vt 0.6796875 0.8515625
vt 0.8216892 0.8515625
vt 0.9140625 0.8515625
vt 0.900107 0.8379477
vt 0.9001073 0.7149269
vt 0.900107 0.8379477
vt 0.9140625 0.8515625
vt 0.9140625 0.7149269
vt 0.5561448 0.783425
vt 0.3984375 0.7834255
vt 0.3984375 0.796875
vt 0.5703125 0.796875
vt 0.6328125 0.90625
vt 0.484375 0.90625
vt 0.484375 0.9199156
vt 0.6328125 0.9199156
vt 0.5561442 0.6679688
vt 0.5561448 0.783425
vt 0.5703125 0.796875
vt 0.5703125 0.6679688
vt 0.6328125 0.7695313
vt 0.6328125 0.90625
vt 0.6468552 0.90625
vt 0.6467994 0.7833372
vt 0.765625 0.7695313
vt 0.6328125 0.7695313
vt 0.6467994 0.7833372
vt 0.765625 0.7833372
vt 0.6894062 0.6543366
vt 0.5703125 0.6543372
vt 0.5703125 0.6679688
vt 0.703125 0.6679688
vt 0.6894057 0.5820313
vt 0.6894062 0.6543366
vt 0.703125 0.6679688
vt 0.703125 0.5820313
vt 0.9706432 0.6679688
vt 0.765625 0.6679688
vt 0.7792451 0.6817589
vt 0.9714467 0.5820313
vt 0.703125 0.5741204
vt 0.703125 0.5820313
vt 0.765625 0.6679688
vt 0.765625 0.7695313
vt 0.7792451 0.7695313
vt 0.7792451 0.6817589
vn 0.9999868 -0.004981537 0.001218472
vn 0.999999 -0.001413719 -2.861055E-06
vn 0.9999998 -0.0006564925 -6.514858E-05
vn 0.9999841 -0.005482568 0.001331719
vn 0.9999962 0.002715503 0.000344996
vn 0.9999933 0.003646182 -2.86106E-06
vn 0.9992019 -0.03953715 -0.005689424
vn 0.9981064 -0.06003975 -0.01337354
vn 0.999011 -0.0432865 -0.01016123
vn 0.9856334 -0.1603935 -0.05292345
vn 0.9989198 -0.04204842 -0.01977519
vn 0.9836389 -0.1687819 -0.06298546
vn 0.9999977 0.002113021 0.0003439247
vn 0.9999998 -0.0005695897 -7.796393E-05
vn 0.9999789 -0.006312217 0.001535108
vn 0.9992172 0.03393136 0.02033857
vn 0.9968008 0.07368458 0.03096527
vn 0.9883996 0.1439404 0.04845081
vn 0.999997 -0.001588826 0.001861339
vn 0.9999965 -0.001934831 0.001779441
vn 0.9999994 -0.0009108201 0.0005660066
vn 0.9999989 -0.001244905 0.000756742
vn 0.9999979 0.001192341 0.001695647
vn 0.9999979 0.0007460177 0.001936213
vn 0.9999933 0.003646182 -2.86106E-06
vn 0.9999962 0.002715503 0.000344996
vn 0.9999993 -0.0009931339 0.0006304987
vn 0.9999962 -0.002097431 0.001779678
vn 0.9999983 0.0009526109 0.001590506
vn 0.9999977 0.002113021 0.0003439247
vn 0 0.2173959 -0.9760835
vn 0 0.2174087 -0.9760807
vn 0 0.2219343 -0.9750616
vn 0 0.2225076 -0.9749309
vn 0 0.2123674 -0.9771899
vn 0 0.2129208 -0.9770694
vn 5.245472E-06 0.7760247 0.6307026
vn 5.483747E-06 0.7700551 0.6379774
vn 0 0.7693057 0.6388808
vn 0 0.7760149 0.6307145
vn 0 0.7827094 0.6223874
vn 4.053208E-06 0.7819696 0.6233165
vn 1.859665E-05 -0.8020921 0.5972003
vn -1.788139E-07 -0.8020923 0.5972002
vn -2.384186E-07 -0.8020923 0.5972002
vn 1.859665E-05 -0.8020921 0.5972003
vn 0 -0.9056993 -0.4239208
vn 4.649229E-06 -0.9056737 -0.4239753
vn 1.907359E-06 -0.9077638 -0.4194817
vn 0 -0.9080048 -0.4189598
vn 6.198929E-06 -0.9034839 -0.4286222
vn 0 -0.9031892 -0.4292426
vn -7.152557E-07 0.7674344 -0.6411276
vn -3.314018E-05 0.7674344 -0.6411275
vn -3.314018E-05 0.7674344 -0.6411275
vn -7.152557E-07 0.7674344 -0.6411276
vn -3.576279E-07 -0.7863349 -0.6178005
vn -5.960465E-07 -0.7863349 -0.6178005
vn -5.960465E-07 -0.7863349 -0.6178005
vn -3.576279E-07 -0.7863349 -0.6178005
vn -7.987022E-06 0.691233 0.7226319
vn 2.384186E-07 0.691233 0.7226319
vn 2.384186E-07 0.691233 0.7226319
vn -7.927417E-06 0.691233 0.7226319
vn -5.960464E-07 0.7673334 -0.6412484
vn -1.889467E-05 0.7673334 -0.6412483
vn -1.889467E-05 0.7673334 -0.6412483
vn -6.556511E-07 0.7673333 -0.6412485
vn 6.091595E-05 -0.8294057 0.5586467
vn 5.960464E-07 -0.8294057 0.5586467
vn 5.960464E-07 -0.8294057 0.5586467
vn 6.091595E-05 -0.8294057 0.5586467
vn -1.108646E-05 0.9454744 0.3256965
vn 1.192093E-07 0.9454744 0.3256965
vn 0 0.9454744 0.3256965
vn -1.108646E-05 0.9454743 0.3256966
vn 2.384186E-07 -0.9549378 -0.2968061
vn 7.510185E-06 -0.9549378 -0.2968061
vn 7.510185E-06 -0.9549378 -0.2968061
vn 2.384186E-07 -0.9549378 -0.2968061
vn 0 0.4535363 -0.8912379
vn 3.33786E-06 0.4535364 -0.8912377
vn 3.33786E-06 0.4535364 -0.8912377
vn 0 0.4535363 -0.8912378
vn 0 0.9221361 0.3868658
vn 0 0.9221361 0.3868658
vn 0 0.9221359 0.3868659
vn 0 -0.9534296 -0.3016157
vn 0 -0.9534296 -0.3016156
vn 0 -0.9534296 -0.3016157
vn -6.198883E-06 -0.6267952 0.779184
vn -4.172325E-07 -0.6267952 0.779184
vn -4.768372E-07 -0.6267952 0.779184
vn -6.198883E-06 -0.6267952 0.779184
vn -0.9999868 -0.004981537 0.001218472
vn -0.9999841 -0.005482687 0.001331719
vn -0.9999998 -0.0006564925 -6.514858E-05
vn -0.999999 -0.001413719 -2.861055E-06
vn -0.9999962 0.002715503 0.000344996
vn -0.9999933 0.003646181 -2.861059E-06
vn -0.9992019 -0.03953709 -0.005689424
vn -0.9981064 -0.0600397 -0.0133736
vn -0.999011 -0.04328644 -0.01016111
vn -0.9856333 -0.1603935 -0.05292346
vn -0.9989198 -0.04204843 -0.01977519
vn -0.9836389 -0.1687819 -0.06298546
vn -0.9999977 0.002113021 0.0003438056
vn -0.9999998 -0.0005695897 -7.796394E-05
vn -0.9999789 -0.006312217 0.001535108
vn -0.9992172 0.03393136 0.02033857
vn -0.9968008 0.07368458 0.03096527
vn -0.9883996 0.1439404 0.04845068
vn -0.999997 -0.001588826 0.001861339
vn -0.9999989 -0.001244905 0.0007567422
vn -0.9999994 -0.0009108202 0.0005660066
vn -0.9999965 -0.001934831 0.001779441
vn -0.9999979 0.001192341 0.001695647
vn -0.9999979 0.0007460177 0.001936213
vn -0.9999933 0.003646181 -2.861059E-06
vn -0.9999962 0.002715503 0.000344996
vn -0.9999993 -0.000993134 0.0006304988
vn -0.9999962 -0.002097491 0.001779678
vn -0.9999983 0.0009526109 0.001590506
vn -0.9999977 0.002113021 0.0003438056
vn 0 0.2173959 -0.9760835
vn 0 0.2225076 -0.9749309
vn 0 0.2219343 -0.9750616
vn 0 0.2174087 -0.9760807
vn 0 0.2123674 -0.9771899
vn 0 0.2129208 -0.9770694
vn -5.245472E-06 0.7760247 0.6307026
vn 0 0.7760149 0.6307145
vn 0 0.7693057 0.6388808
vn -5.364534E-06 0.7700551 0.6379774
vn 0 0.7827094 0.6223874
vn -3.87439E-06 0.7819696 0.6233165
vn -1.889467E-05 -0.8020923 0.5972002
vn -1.889467E-05 -0.8020921 0.5972002
vn -2.384186E-07 -0.8020923 0.5972002
vn -1.788139E-07 -0.8020923 0.5972002
vn 0 -0.9056993 -0.4239208
vn 0 -0.9080048 -0.4189598
vn -1.966964E-06 -0.9077638 -0.4194817
vn -4.649229E-06 -0.9056738 -0.4239752
vn -6.198929E-06 -0.9034839 -0.428622
vn 0 -0.9031892 -0.4292426
vn -7.152557E-07 0.7674344 -0.6411276
vn -7.152557E-07 0.7674344 -0.6411276
vn 3.170966E-05 0.7674344 -0.6411275
vn 3.170967E-05 0.7674343 -0.6411276
vn -3.576279E-07 -0.7863349 -0.6178005
vn -3.576279E-07 -0.7863349 -0.6178005
vn -1.192093E-07 -0.7863349 -0.6178005
vn -1.192093E-07 -0.7863349 -0.6178005
vn 8.583068E-06 0.691233 0.7226319
vn 8.583068E-06 0.691233 0.7226319
vn 2.384186E-07 0.691233 0.7226319
vn 2.384186E-07 0.691233 0.7226319
vn -5.960464E-07 0.7673334 -0.6412484
vn -6.556511E-07 0.7673333 -0.6412485
vn 1.764297E-05 0.7673334 -0.6412483
vn 1.764297E-05 0.7673334 -0.6412483
vn -5.960465E-05 -0.8294057 0.5586467
vn -5.960465E-05 -0.8294057 0.5586467
vn 5.960464E-07 -0.8294057 0.5586467
vn 5.960464E-07 -0.8294057 0.5586467
vn 1.132488E-05 0.9454744 0.3256965
vn 1.144409E-05 0.9454744 0.3256965
vn 0 0.9454744 0.3256965
vn 1.192093E-07 0.9454744 0.3256965
vn 2.384186E-07 -0.9549378 -0.2968061
vn 2.384186E-07 -0.9549378 -0.2968061
vn -6.973743E-06 -0.9549378 -0.2968061
vn -6.973743E-06 -0.9549378 -0.2968061
vn 0 0.4535363 -0.8912379
vn 0 0.4535363 -0.8912378
vn -3.33786E-06 0.4535364 -0.8912377
vn -3.33786E-06 0.4535364 -0.8912377
vn 0 0.9221361 0.3868658
vn 0 0.9221359 0.3868659
vn 0 0.9221361 0.3868658
vn 0 -0.9534296 -0.3016157
vn 0 -0.9534296 -0.3016157
vn 0 -0.9534296 -0.3016156
vn 5.364418E-06 -0.6267952 0.779184
vn 5.483627E-06 -0.6267952 0.779184
vn -4.768372E-07 -0.6267952 0.779184
vn -4.172325E-07 -0.6267952 0.779184
g pm0025_00_SippoSkin_0
f 3/3/3 2/2/2 1/1/1
f 4/4/4 3/3/3 1/1/1
f 2/2/2 3/3/3 5/5/5
f 6/6/6 2/2/2 5/5/5
f 4/4/4 1/1/1 7/7/7
f 8/8/8 4/4/4 7/7/7
f 8/8/8 7/7/7 9/9/9
f 10/10/10 8/8/8 9/9/9
f 9/9/9 11/11/11 10/10/10
f 11/11/11 12/12/12 10/10/10
f 6/6/6 13/13/13 2/2/2
f 13/13/13 14/14/14 2/2/2
f 2/2/2 14/14/14 15/15/15
f 1/1/1 2/2/2 15/15/15
f 1/1/1 15/15/15 16/16/16
f 7/7/7 1/1/1 16/16/16
f 7/7/7 16/16/16 17/17/17
f 9/9/9 7/7/7 17/17/17
f 9/9/9 17/17/17 11/11/11
f 17/17/17 18/18/18 11/11/11
f 21/21/21 20/20/20 19/19/19
f 22/22/22 21/21/21 19/19/19
f 19/19/19 20/20/20 23/23/23
f 20/20/20 24/24/24 23/23/23
f 24/24/24 25/25/25 23/23/23
f 25/25/25 26/26/26 23/23/23
f 21/21/21 27/27/27 20/20/20
f 27/27/27 28/28/28 20/20/20
f 20/20/20 28/28/28 24/24/24
f 28/28/28 29/29/29 24/24/24
f 24/24/24 29/29/29 25/25/25
f 29/29/29 30/30/30 25/25/25
f 33/33/33 32/32/32 31/31/31
f 34/34/34 33/33/33 31/31/31
f 31/31/31 32/32/32 35/35/35
f 32/32/32 36/36/36 35/35/35
f 39/39/39 38/38/38 37/37/37
f 40/40/40 39/39/39 37/37/37
f 40/40/40 37/37/37 41/41/41
f 37/37/37 42/42/42 41/41/41
f 45/45/45 44/44/44 43/43/43
f 46/46/46 45/45/45 43/43/43
f 49/49/49 48/48/48 47/47/47
f 50/50/50 49/49/49 47/47/47
f 48/48/48 51/51/51 47/47/47
f 51/51/51 52/52/52 47/47/47
f 55/55/55 54/54/54 53/53/53
f 56/56/56 55/55/55 53/53/53
f 59/59/59 58/58/58 57/57/57
f 60/60/60 59/59/59 57/57/57
f 63/63/63 62/62/62 61/61/61
f 64/64/64 63/63/63 61/61/61
f 67/67/67 66/66/66 65/65/65
f 68/68/68 67/67/67 65/65/65
f 71/71/71 70/70/70 69/69/69
f 72/72/72 71/71/71 69/69/69
f 75/75/75 74/74/74 73/73/73
f 76/76/76 75/75/75 73/73/73
f 79/79/79 78/78/78 77/77/77
f 80/80/80 79/79/79 77/77/77
f 83/83/83 82/82/82 81/81/81
f 84/84/84 83/83/83 81/81/81
f 87/87/87 86/86/86 85/85/85
f 90/90/90 89/89/89 88/88/88
f 93/93/93 92/92/92 91/91/91
f 94/94/94 93/93/93 91/91/91
f 97/97/97 96/96/96 95/95/95
f 98/98/98 97/97/97 95/95/95
f 97/97/97 98/98/98 99/99/99
f 98/98/98 100/100/100 99/99/99
f 95/95/95 96/96/96 101/101/101
f 96/96/96 102/102/102 101/101/101
f 101/101/101 102/102/102 103/103/103
f 102/102/102 104/104/104 103/103/103
f 105/105/105 103/103/103 104/104/104
f 106/106/106 105/105/105 104/104/104
f 107/107/107 100/100/100 98/98/98
f 108/108/108 107/107/107 98/98/98
f 98/98/98 95/95/95 109/109/109
f 108/108/108 98/98/98 109/109/109
f 95/95/95 101/101/101 110/110/110
f 109/109/109 95/95/95 110/110/110
f 101/101/101 103/103/103 111/111/111
f 110/110/110 101/101/101 111/111/111
f 111/111/111 103/103/103 105/105/105
f 112/112/112 111/111/111 105/105/105
f 115/115/115 114/114/114 113/113/113
f 116/116/116 115/115/115 113/113/113
f 116/116/116 113/113/113 117/117/117
f 118/118/118 116/116/116 117/117/117
f 119/119/119 118/118/118 117/117/117
f 120/120/120 119/119/119 117/117/117
f 121/121/121 115/115/115 116/116/116
f 122/122/122 121/121/121 116/116/116
f 122/122/122 116/116/116 118/118/118
f 123/123/123 122/122/122 118/118/118
f 123/123/123 118/118/118 119/119/119
f 124/124/124 123/123/123 119/119/119
f 127/127/127 126/126/126 125/125/125
f 128/128/128 127/127/127 125/125/125
f 128/128/128 125/125/125 129/129/129
f 130/130/130 128/128/128 129/129/129
f 133/133/133 132/132/132 131/131/131
f 134/134/134 133/133/133 131/131/131
f 131/131/131 132/132/132 135/135/135
f 136/136/136 131/131/131 135/135/135
f 139/139/139 138/138/138 137/137/137
f 140/140/140 139/139/139 137/137/137
f 143/143/143 142/142/142 141/141/141
f 144/144/144 143/143/143 141/141/141
f 145/145/145 144/144/144 141/141/141
f 146/146/146 145/145/145 141/141/141
f 149/149/149 148/148/148 147/147/147
f 150/150/150 149/149/149 147/147/147
f 153/153/153 152/152/152 151/151/151
f 154/154/154 153/153/153 151/151/151
f 157/157/157 156/156/156 155/155/155
f 158/158/158 157/157/157 155/155/155
f 161/161/161 160/160/160 159/159/159
f 162/162/162 161/161/161 159/159/159
f 165/165/165 164/164/164 163/163/163
f 166/166/166 165/165/165 163/163/163
f 169/169/169 168/168/168 167/167/167
f 170/170/170 169/169/169 167/167/167
f 173/173/173 172/172/172 171/171/171
f 174/174/174 173/173/173 171/171/171
f 177/177/177 176/176/176 175/175/175
f 178/178/178 177/177/177 175/175/175
f 181/181/181 180/180/180 179/179/179
f 184/184/184 183/183/183 182/182/182
f 187/187/187 186/186/186 185/185/185
f 188/188/188 187/187/187 185/185/185
