g pm0076_00_RockHoleLFSkin
v 0.387859 0.3437999 -0.1206987
v 0.3960295 0.3516712 -0.04534313
v 0.3968638 0.3753435 -0.0487728
v 0.3903108 0.3706995 -0.1328261
v 0.3834409 0.3337545 0.03691166
v 0.3803561 0.3712284 0.04508939
v 0.3658038 0.3145345 0.05414103
v 0.3485463 0.3503405 0.07307095
v 0.3050884 0.2664834 0.06511579
v 0.2801383 0.2855632 0.08398033
v 0.2801383 0.2855632 0.08398033
v 0.3050884 0.2664834 0.06511579
v 0.3028889 0.2661145 0.0187
v 0.2809359 0.2911549 0.02300729
v 0.3014478 0.2668783 -0.04868338
v 0.284256 0.2909274 -0.04915463
v 0.3107112 0.2777446 -0.1090687
v 0.2885225 0.2902627 -0.1134618
v 0.3428659 0.3046051 -0.1247916
v 0.3423936 0.3195307 -0.1413705
v 0.370562 0.3284004 -0.1339807
v 0.3714012 0.3483585 -0.1469874
v 0.387859 0.3437999 -0.1206987
v 0.3903108 0.3706995 -0.1328261
v 0.3428659 0.3046051 -0.1247916
v 0.3107112 0.2777446 -0.1090687
v 0.3014478 0.2668783 -0.04868338
v 0.3643954 0.2992977 -0.03351036
v 0.370562 0.3284004 -0.1339807
v 0.387859 0.3437999 -0.1206987
v 0.3050884 0.2664834 0.06511579
v 0.3658038 0.3145345 0.05414103
v 0.3834409 0.3337545 0.03691166
v 0.3028889 0.2661145 0.0187
v 0.3960295 0.3516712 -0.04534313
vt 0.5413977 0.7235035
vt 0.5393039 0.6985304
vt 0.5340242 0.6990662
vt 0.5354706 0.7274922
vt 0.5454729 0.6726807
vt 0.5382302 0.6667572
vt 0.5511472 0.669009
vt 0.547048 0.6553826
vt 0.5676306 0.6657199
vt 0.5685974 0.6523438
vt 0.5750413 0.6588266
vt 0.5676306 0.6657199
vt 0.5670888 0.6799486
vt 0.5753796 0.6792685
vt 0.5662359 0.7018464
vt 0.5735167 0.7041537
vt 0.5635582 0.7205856
vt 0.5678629 0.7258214
vt 0.5544899 0.7249821
vt 0.5525793 0.7325692
vt 0.5465464 0.7279832
vt 0.5430472 0.7337565
vt 0.5413977 0.7235035
vt 0.5363492 0.7294706
vt 0.5544899 0.7249821
vt 0.5635582 0.7205856
vt 0.5662359 0.7018464
vt 0.5525312 0.6957964
vt 0.5465464 0.7279832
vt 0.5413977 0.7235035
vt 0.5676306 0.6657199
vt 0.5511472 0.669009
vt 0.5454729 0.6726807
vt 0.5670888 0.6799486
vt 0.5393039 0.6985304
vn 0.9016737 -0.2849134 -0.3252827
vn 0.9895195 -0.128919 0.06504659
vn 0.9895195 -0.128919 0.06504671
vn 0.9016738 -0.2849133 -0.3252826
vn 0.8765145 -0.1413739 0.4601476
vn 0.8765145 -0.1413738 0.4601475
vn 0.519218 -0.401639 0.7543864
vn 0.519218 -0.4016391 0.7543863
vn -0.1603988 -0.7544491 0.6364579
vn -0.1603988 -0.7544492 0.6364578
vn -0.1603988 -0.7544492 0.6364578
vn -0.1603988 -0.7544491 0.6364579
vn -0.5900776 -0.7882668 0.1744815
vn -0.5900776 -0.7882668 0.1744815
vn -0.6094132 -0.7699521 -0.1891805
vn -0.6094133 -0.7699521 -0.1891805
vn -0.331054 -0.7895176 -0.5167834
vn -0.3310539 -0.7895176 -0.5167834
vn 0.1567602 -0.697072 -0.6996548
vn 0.1567601 -0.697072 -0.6996548
vn 0.6072855 -0.5024112 -0.615457
vn 0.6072855 -0.5024112 -0.615457
vn 0.9016737 -0.2849134 -0.3252827
vn 0.9016738 -0.2849133 -0.3252826
vn 0.6346194 -0.7661577 -0.1012951
vn 0.5697541 -0.8156442 -0.1005224
vn 0.5743644 -0.8168438 -0.05358886
vn 0.6913826 -0.7221485 -0.02217359
vn 0.6831411 -0.7213031 -0.1141932
vn 0.7297103 -0.6806527 -0.06507491
vn 0.6308698 -0.7757766 0.01319097
vn 0.698085 -0.7155598 0.02552369
vn 0.7420669 -0.6702073 0.01260361
vn 0.5551987 -0.831597 -0.01416887
vn 0.7542371 -0.6563081 -0.01964806
g pm0076_00_RockHoleLFSkin_0
f 3/3/3 2/2/2 1/1/1
f 4/4/4 3/3/3 1/1/1
f 5/5/5 2/2/2 3/3/3
f 6/6/6 5/5/5 3/3/3
f 7/7/7 5/5/5 6/6/6
f 8/8/8 7/7/7 6/6/6
f 9/9/9 7/7/7 8/8/8
f 10/10/10 9/9/9 8/8/8
f 13/13/13 12/12/12 11/11/11
f 14/14/14 13/13/13 11/11/11
f 15/15/15 13/13/13 14/14/14
f 16/16/16 15/15/15 14/14/14
f 17/17/17 15/15/15 16/16/16
f 18/18/18 17/17/17 16/16/16
f 19/19/19 17/17/17 18/18/18
f 20/20/20 19/19/19 18/18/18
f 21/21/21 19/19/19 20/20/20
f 22/22/22 21/21/21 20/20/20
f 23/23/23 21/21/21 22/22/22
f 24/24/24 23/23/23 22/22/22
f 27/27/27 26/26/26 25/25/25
f 28/28/28 27/27/27 25/25/25
f 28/28/28 25/25/25 29/29/29
f 30/30/30 28/28/28 29/29/29
f 28/28/28 31/31/31 27/27/27
f 28/28/28 32/32/32 31/31/31
f 33/33/33 32/32/32 28/28/28
f 31/31/31 34/34/34 27/27/27
f 30/30/30 35/35/35 28/28/28
f 35/35/35 33/33/33 28/28/28
