g pm0088_61_RTeethSkin
v -0.0762966 0.5393572 0.2523824
v -0.07303059 0.5425373 0.255365
v -0.0687334 0.5405727 0.2541873
v -0.07324104 0.5359979 0.2490735
v -0.07690154 0.5393347 0.2517244
v -0.07378519 0.5358939 0.2485321
v -0.06820772 0.5406214 0.2537261
v -0.0727905 0.5359257 0.2486203
v -0.07340218 0.5358465 0.2481526
v -0.07823813 0.5402005 0.2430387
v -0.07978005 0.5424665 0.2474933
v -0.07772861 0.5401649 0.2425595
v -0.08261939 0.5481921 0.2464575
v -0.08144052 0.5446841 0.2393124
v -0.08065804 0.5442793 0.2388231
v -0.08111003 0.5453786 0.2384239
v -0.08479626 0.5582054 0.2370848
v -0.08446807 0.5585974 0.2364878
v -0.08468256 0.5591603 0.2371675
v -0.08566535 0.5589918 0.2461079
v -0.08326212 0.566942 0.2444255
v -0.08099874 0.5688761 0.2389375
v -0.07484579 0.5738407 0.2459964
v -0.07431337 0.5737739 0.245603
v -0.08032938 0.5690016 0.2384718
v -0.07438111 0.573873 0.2464944
v -0.07382517 0.5738659 0.2460981
v -0.06715025 0.5692125 0.2555426
v -0.06650873 0.5690596 0.2550709
v -0.080667 0.568261 0.238264
v -0.07302805 0.5671863 0.2567447
v -0.07943986 0.5695885 0.2524291
v -0.08014205 0.5693601 0.251562
v -0.0720279 0.5608332 0.2614059
v -0.06390144 0.5618443 0.2598638
v -0.0722094 0.5598447 0.2614435
v -0.06386121 0.5610496 0.2599339
v -0.06309024 0.5611737 0.2593854
v -0.06329713 0.5619819 0.2591255
v -0.08286467 0.560563 0.2567343
v -0.08189291 0.5607781 0.2575963
v -0.08284734 0.5596158 0.2568419
v -0.08565221 0.5580319 0.2461766
v -0.08184007 0.5596646 0.2576822
v -0.08039093 0.5482497 0.2546611
v -0.07974916 0.5481282 0.2553625
v -0.07250019 0.548297 0.2583742
v -0.06564703 0.5459558 0.2579024
v -0.06502699 0.5460634 0.2574179
v -0.06502699 0.5460634 0.2574179
v -0.06002734 0.5505398 0.2495147
v -0.06312537 0.5456154 0.246186
v -0.06820772 0.5406214 0.2537261
v -0.06774259 0.540091 0.2434852
v -0.0727905 0.5359257 0.2486203
v -0.06852305 0.5397033 0.243278
v -0.07001642 0.5447066 0.2380864
v -0.07093696 0.544682 0.2377448
v -0.07772861 0.5401649 0.2425595
v -0.07340218 0.5358465 0.2481526
v -0.07491105 0.5473796 0.2354468
v -0.08065804 0.5442793 0.2388231
v -0.07046261 0.5454949 0.2375096
v -0.07481979 0.548296 0.2351542
v -0.0729811 0.5560603 0.2336705
v -0.06426125 0.5535424 0.2376597
v -0.06376418 0.553206 0.2384494
v -0.07190084 0.5670522 0.2348908
v -0.05948251 0.5669967 0.2421553
v -0.07172915 0.5678102 0.2353716
v -0.08032938 0.5690016 0.2384718
v -0.07431337 0.5737739 0.245603
v -0.05985729 0.5679483 0.2423665
v -0.080667 0.568261 0.238264
v -0.08111003 0.5453786 0.2384239
v -0.08446807 0.5585974 0.2364878
v -0.07382517 0.5738659 0.2460981
v -0.05972535 0.5676805 0.2431422
v -0.06650873 0.5690596 0.2550709
v -0.06329713 0.5619819 0.2591255
v -0.05931341 0.566739 0.2430055
v -0.06309024 0.5611737 0.2593854
vt 0.3958185 0.3966163
vt 0.4054609 0.3989955
vt 0.4114226 0.3947805
vt 0.3942715 0.3903155
vt 0.3942297 0.3966647
vt 0.3922667 0.3903589
vt 0.4123132 0.3941395
vt 0.3946714 0.3895147
vt 0.3916188 0.3897362
vt 0.3763672 0.3959376
vt 0.3841095 0.3998367
vt 0.3754054 0.3953346
vt 0.3801507 0.406346
vt 0.3658425 0.4017519
vt 0.3648548 0.4007126
vt 0.3634852 0.4023644
vt 0.3600677 0.4180579
vt 0.3583051 0.4185596
vt 0.3605424 0.4190041
vt 0.3793611 0.4176152
vt 0.3803134 0.4254366
vt 0.3713335 0.4302249
vt 0.3944245 0.4349195
vt 0.393954 0.4356889
vt 0.370832 0.4311236
vt 0.3961188 0.434931
vt 0.3968284 0.4356679
vt 0.4220775 0.4283031
vt 0.4234663 0.4288769
vt 0.3690721 0.4300599
vt 0.411659 0.4243917
vt 0.3970539 0.4260155
vt 0.3951519 0.425979
vt 0.4160273 0.4175875
vt 0.4329171 0.4189758
vt 0.4157023 0.4167768
vt 0.4331373 0.4179581
vt 0.435441 0.4179292
vt 0.4347817 0.4197348
vt 0.3976409 0.4179333
vt 0.3994535 0.4180355
vt 0.3976245 0.4172601
vt 0.3792747 0.4167435
vt 0.3994758 0.4171975
vt 0.3955612 0.4065561
vt 0.3973376 0.4063497
vt 0.411185 0.4051232
vt 0.4237514 0.4007022
vt 0.4254103 0.4003954
vt 0.4749694 0.4083793
vt 0.4880931 0.4160846
vt 0.4965225 0.4118437
vt 0.4876502 0.4023731
vt 0.5057942 0.4067106
vt 0.5049837 0.3978632
vt 0.5069268 0.4061762
vt 0.5137078 0.4113061
vt 0.5152491 0.4111929
vt 0.5230771 0.4033035
vt 0.5071063 0.397715
vt 0.5223089 0.413653
vt 0.5325506 0.4087338
vt 0.5147461 0.4120005
vt 0.5221807 0.414533
vt 0.5190762 0.4220361
vt 0.5058385 0.4196731
vt 0.5047641 0.4193442
vt 0.513734 0.4313134
vt 0.4951645 0.4297621
vt 0.5129709 0.4319719
vt 0.5269807 0.437603
vt 0.5042887 0.4421917
vt 0.4951696 0.4302632
vt 0.5287533 0.4366971
vt 0.5344024 0.4102461
vt 0.5403756 0.4259748
vt 0.5026133 0.4422764
vt 0.4942188 0.4303238
vt 0.4766024 0.4356465
vt 0.466544 0.4266388
vt 0.4942783 0.4295486
vt 0.4659326 0.425661
vn -0.3823503 -0.6437699 0.6628488
vn -0.1326519 -0.5780002 0.8051827
vn 0.2099156 -0.7081442 0.6741418
vn -0.04543341 -0.893327 0.4471048
vn -0.6715934 -0.645311 0.3640551
vn -0.4018102 -0.9103789 0.09878647
vn 0.6286407 -0.7161366 0.3032478
vn 0.3639632 -0.9305456 0.04019528
vn 0.00604707 -0.9624016 -0.271563
vn -0.6463283 -0.7407003 -0.1833652
vn -0.8098579 -0.5760219 0.1110359
vn -0.248417 -0.8000193 -0.5461301
vn -0.915388 -0.3905677 0.09757857
vn -0.7868434 -0.4764722 -0.3922394
vn -0.4360139 -0.5782542 -0.6895753
vn -0.5251718 -0.3636925 -0.7693649
vn -0.9318197 -0.08790646 -0.3521143
vn -0.6548917 0.04017549 -0.754654
vn -0.9023107 0.2171622 -0.3723921
vn -0.9723443 0.2245157 0.06433738
vn -0.8530012 0.5217072 -0.01450984
vn -0.6596528 0.6308988 -0.4084419
vn -0.3967273 0.9168051 -0.04556057
vn 0.05370132 0.9562199 -0.2876797
vn -0.2684897 0.7292019 -0.6294266
vn -0.081856 0.9493501 0.3033712
vn 0.3272574 0.9376639 0.1170003
vn 0.1995151 0.7738952 0.6010656
vn 0.5290153 0.7714717 0.3535167
vn -0.4253717 0.4614323 -0.7785494
vn -0.120487 0.6545349 0.7463692
vn -0.4048827 0.7198131 0.5638608
vn -0.6960389 0.6649202 0.2709447
vn -0.1114647 0.3457475 0.9316836
vn 0.3544631 0.4204166 0.835228
vn -0.1128243 -0.04835152 0.9924378
vn 0.3981413 -0.007228705 0.9172956
vn 0.8353835 0.0436093 0.5479348
vn 0.6850594 0.5096466 0.5205323
vn -0.8472559 0.2779046 0.452688
vn -0.5312958 0.3268695 0.7815889
vn -0.8554357 -0.09782182 0.508587
vn -0.9885247 -0.1080502 0.105565
vn -0.5415676 -0.07483477 0.8373197
vn -0.7962674 -0.3812584 0.469681
vn -0.506958 -0.3746309 0.7763023
vn -0.1361448 -0.3681322 0.9197518
vn 0.3377891 -0.4160359 0.8442823
vn 0.7747869 -0.3854183 0.5011567
vn 0.7747869 -0.3854183 0.5011567
vn 0.9487583 -0.3052078 0.08188926
vn 0.8193734 -0.5496258 -0.1629069
vn 0.6286407 -0.7161366 0.3032478
vn 0.5679246 -0.730292 -0.3796514
vn 0.3639632 -0.9305456 0.04019528
vn 0.2842653 -0.7944338 -0.5367199
vn 0.5152758 -0.512687 -0.6867625
vn 0.1866227 -0.6167389 -0.7647255
vn -0.248417 -0.8000193 -0.5461301
vn 0.00604707 -0.9624016 -0.271563
vn -0.06632259 -0.5135611 -0.855486
vn -0.4360139 -0.5782542 -0.6895753
vn 0.3463495 -0.4003752 -0.8483759
vn -0.02682968 -0.3253841 -0.9452013
vn 0.03041482 -0.03659828 -0.9988671
vn 0.5642686 -0.1535195 -0.8111921
vn 0.8137692 -0.3122358 -0.4901922
vn 0.1436181 0.335809 -0.9309168
vn 0.7150374 0.2634624 -0.6475408
vn 0.1443083 0.6510031 -0.7452316
vn -0.2684897 0.7292019 -0.6294266
vn 0.05370132 0.9562199 -0.2876797
vn 0.5158117 0.7391717 -0.4330859
vn -0.4253717 0.4614323 -0.7785494
vn -0.5251718 -0.3636925 -0.7693649
vn -0.6548917 0.04017549 -0.754654
vn 0.3272574 0.9376639 0.1170003
vn 0.7171301 0.6866689 0.1192072
vn 0.5290153 0.7714717 0.3535167
vn 0.6850594 0.5096466 0.5205323
vn 0.9935243 0.08257313 -0.07804558
vn 0.8353835 0.0436093 0.5479348
g pm0088_61_RTeethSkin_0
f 3/3/3 2/2/2 1/1/1
f 4/4/4 3/3/3 1/1/1
f 1/1/1 5/5/5 4/4/4
f 5/5/5 6/6/6 4/4/4
f 3/3/3 4/4/4 7/7/7
f 4/4/4 8/8/8 7/7/7
f 8/8/8 4/4/4 6/6/6
f 9/9/9 8/8/8 6/6/6
f 10/10/10 6/6/6 5/5/5
f 6/6/6 10/10/10 9/9/9
f 11/11/11 10/10/10 5/5/5
f 10/10/10 12/12/12 9/9/9
f 10/10/10 11/11/11 13/13/13
f 14/14/14 10/10/10 13/13/13
f 15/15/15 12/12/12 10/10/10
f 14/14/14 15/15/15 10/10/10
f 16/16/16 15/15/15 14/14/14
f 16/16/16 14/14/14 17/17/17
f 18/18/18 16/16/16 17/17/17
f 17/17/17 19/19/19 18/18/18
f 20/20/20 19/19/19 17/17/17
f 20/20/20 21/21/21 19/19/19
f 21/21/21 22/22/22 19/19/19
f 22/22/22 21/21/21 23/23/23
f 22/22/22 23/23/23 24/24/24
f 25/25/25 22/22/22 24/24/24
f 23/23/23 26/26/26 24/24/24
f 26/26/26 27/27/27 24/24/24
f 27/27/27 26/26/26 28/28/28
f 29/29/29 27/27/27 28/28/28
f 22/22/22 25/25/25 30/30/30
f 30/30/30 18/18/18 19/19/19
f 22/22/22 30/30/30 19/19/19
f 31/31/31 28/28/28 26/26/26
f 32/32/32 31/31/31 26/26/26
f 21/21/21 33/33/33 23/23/23
f 26/26/26 23/23/23 33/33/33
f 32/32/32 26/26/26 33/33/33
f 21/21/21 20/20/20 33/33/33
f 31/31/31 34/34/34 28/28/28
f 34/34/34 35/35/35 28/28/28
f 35/35/35 34/34/34 36/36/36
f 37/37/37 35/35/35 36/36/36
f 37/37/37 38/38/38 35/35/35
f 38/38/38 39/39/39 35/35/35
f 28/28/28 35/35/35 39/39/39
f 29/29/29 28/28/28 39/39/39
f 32/32/32 33/33/33 40/40/40
f 41/41/41 32/32/32 40/40/40
f 41/41/41 34/34/34 31/31/31
f 32/32/32 41/41/41 31/31/31
f 20/20/20 40/40/40 33/33/33
f 42/42/42 40/40/40 20/20/20
f 41/41/41 40/40/40 42/42/42
f 43/43/43 42/42/42 20/20/20
f 43/43/43 20/20/20 17/17/17
f 17/17/17 14/14/14 43/43/43
f 14/14/14 13/13/13 43/43/43
f 34/34/34 41/41/41 44/44/44
f 36/36/36 34/34/34 44/44/44
f 44/44/44 41/41/41 42/42/42
f 43/43/43 13/13/13 45/45/45
f 42/42/42 43/43/43 45/45/45
f 42/42/42 45/45/45 44/44/44
f 13/13/13 11/11/11 45/45/45
f 11/11/11 5/5/5 45/45/45
f 46/46/46 45/45/45 5/5/5
f 45/45/45 46/46/46 44/44/44
f 1/1/1 46/46/46 5/5/5
f 1/1/1 2/2/2 46/46/46
f 2/2/2 47/47/47 46/46/46
f 2/2/2 3/3/3 47/47/47
f 3/3/3 48/48/48 47/47/47
f 3/3/3 7/7/7 48/48/48
f 7/7/7 49/49/49 48/48/48
f 46/46/46 47/47/47 36/36/36
f 44/44/44 46/46/46 36/36/36
f 47/47/47 48/48/48 37/37/37
f 36/36/36 47/47/47 37/37/37
f 48/48/48 49/49/49 38/38/38
f 37/37/37 48/48/48 38/38/38
f 52/52/52 51/51/51 50/50/50
f 53/53/53 52/52/52 50/50/50
f 54/54/54 52/52/52 53/53/53
f 55/55/55 54/54/54 53/53/53
f 56/56/56 54/54/54 55/55/55
f 54/54/54 56/56/56 57/57/57
f 54/54/54 57/57/57 52/52/52
f 56/56/56 58/58/58 57/57/57
f 59/59/59 58/58/58 56/56/56
f 60/60/60 59/59/59 56/56/56
f 60/60/60 56/56/56 55/55/55
f 61/61/61 58/58/58 59/59/59
f 62/62/62 61/61/61 59/59/59
f 57/57/57 58/58/58 63/63/63
f 58/58/58 61/61/61 64/64/64
f 63/63/63 58/58/58 64/64/64
f 64/64/64 65/65/65 63/63/63
f 65/65/65 66/66/66 63/63/63
f 57/57/57 67/67/67 52/52/52
f 63/63/63 66/66/66 67/67/67
f 57/57/57 63/63/63 67/67/67
f 66/66/66 65/65/65 68/68/68
f 69/69/69 66/66/66 68/68/68
f 67/67/67 66/66/66 69/69/69
f 68/68/68 70/70/70 69/69/69
f 71/71/71 70/70/70 68/68/68
f 70/70/70 71/71/71 72/72/72
f 73/73/73 70/70/70 72/72/72
f 70/70/70 73/73/73 69/69/69
f 74/74/74 71/71/71 68/68/68
f 61/61/61 62/62/62 75/75/75
f 64/64/64 61/61/61 75/75/75
f 64/64/64 75/75/75 65/65/65
f 75/75/75 76/76/76 65/65/65
f 68/68/68 65/65/65 76/76/76
f 74/74/74 68/68/68 76/76/76
f 73/73/73 72/72/72 77/77/77
f 78/78/78 73/73/73 77/77/77
f 73/73/73 78/78/78 69/69/69
f 78/78/78 77/77/77 79/79/79
f 79/79/79 80/80/80 78/78/78
f 78/78/78 80/80/80 81/81/81
f 78/78/78 81/81/81 69/69/69
f 81/81/81 67/67/67 69/69/69
f 80/80/80 82/82/82 81/81/81
f 81/81/81 82/82/82 51/51/51
f 82/82/82 50/50/50 51/51/51
f 81/81/81 51/51/51 67/67/67
f 51/51/51 52/52/52 67/67/67
