g pm0076_00_RockHoleRHSkin
v -0.5178801 0.5150328 0.1576948
v -0.5429407 0.5810568 0.1352474
v -0.5231059 0.5701118 0.2254157
v -0.5502912 0.6572703 0.1905148
v -0.5724708 0.6748799 0.08641935
v -0.527747 0.5154966 0.08748322
v -0.5168405 0.4914039 0.1141036
v -0.5467228 0.5644007 0.04925214
v -0.5410163 0.543301 0.0527469
v -0.5616897 0.6259453 0.04622025
v -0.5242355 0.6399339 0.03018067
v -0.5616897 0.6259453 0.04622025
v -0.5467228 0.5644007 0.04925214
v -0.5084892 0.570598 0.02358826
v -0.5724708 0.6748799 0.08641935
v -0.5389329 0.7002177 0.06763089
v -0.5410163 0.543301 0.0527469
v -0.5071349 0.5430958 0.0382781
v -0.5006082 0.5092018 0.07634566
v -0.527747 0.5154966 0.08748322
v -0.5168405 0.4914039 0.1141036
v -0.4840926 0.4816855 0.1030043
v -0.5168405 0.4914039 0.1141036
v -0.5178801 0.5150328 0.1576948
v -0.4838924 0.5019962 0.1467227
v -0.4840926 0.4816855 0.1030043
v -0.4669089 0.5710891 0.2209318
v -0.5231059 0.5701118 0.2254157
v -0.4978446 0.6718841 0.1874122
v -0.5502912 0.6572703 0.1905148
v -0.5724708 0.6748799 0.08641935
v -0.5389329 0.7002177 0.06763089
v -0.4669089 0.5710891 0.2209318
v -0.5231059 0.5701118 0.2254157
vt 0.5571915 0.4085523
vt 0.5524168 0.4363461
vt 0.5764806 0.4287755
vt 0.5663838 0.4632644
vt 0.5416729 0.4798078
vt 0.5373554 0.4106284
vt 0.5440679 0.3999642
vt 0.5299584 0.4345355
vt 0.5295056 0.425189
vt 0.5304544 0.4596829
vt 0.5189345 0.4657358
vt 0.5304544 0.4596829
vt 0.5299584 0.4345355
vt 0.5160229 0.4331665
vt 0.5416729 0.4798078
vt 0.5308766 0.492897
vt 0.5295056 0.425189
vt 0.5201199 0.4197387
vt 0.5308772 0.4017963
vt 0.5373554 0.4106284
vt 0.5440679 0.3999642
vt 0.5370096 0.3863568
vt 0.5440679 0.3999642
vt 0.5571915 0.4085523
vt 0.5573082 0.3904254
vt 0.5444781 0.3823311
vt 0.5857623 0.4059888
vt 0.5764806 0.4287755
vt 0.5779446 0.4778349
vt 0.5663838 0.4632644
vt 0.5416729 0.4798078
vt 0.5434811 0.5
vt 0.594294 0.4355793
vt 0.5764806 0.4287755
vn -0.9495591 -0.2775652 0.1459282
vn -0.954562 -0.2644217 0.1374504
vn -0.9527539 -0.2635308 0.151035
vn -0.956346 -0.2532108 0.1458994
vn -0.9593708 -0.2503884 0.1300515
vn -0.9505739 -0.28372 0.1261437
vn -0.9471628 -0.2905733 0.13583
vn -0.9574171 -0.2660581 0.1120959
vn -0.9537423 -0.2790341 0.1118734
vn -0.9610907 -0.2532757 0.1102546
vn -0.6119344 0.2550231 -0.7486652
vn -0.6119344 0.255023 -0.7486652
vn -0.5020528 -0.2120325 -0.8384421
vn -0.5020528 -0.2120325 -0.8384421
vn -0.6435562 0.7379948 -0.2029755
vn -0.6435562 0.7379948 -0.2029755
vn -0.4253602 -0.5500947 -0.7186547
vn -0.4253602 -0.5500947 -0.7186546
vn -0.3764597 -0.8070576 -0.4549023
vn -0.3764598 -0.8070576 -0.4549023
vn -0.2967984 -0.954939 0.001471086
vn -0.2967984 -0.954939 0.001471086
vn -0.2967984 -0.954939 0.001471086
vn -0.1769688 -0.7942597 0.5812346
vn -0.1769689 -0.7942596 0.5812346
vn -0.2967984 -0.954939 0.001471086
vn -0.1666888 -0.1983248 0.9658582
vn -0.1666888 -0.1983247 0.9658583
vn -0.406612 0.5937797 0.6943287
vn -0.4066122 0.5937795 0.6943287
vn -0.6435562 0.7379948 -0.2029755
vn -0.6435562 0.7379948 -0.2029755
vn -0.1666888 -0.1983248 0.9658582
vn -0.1666888 -0.1983247 0.9658583
g pm0076_00_RockHoleRHSkin_0
f 3/3/3 2/2/2 1/1/1
f 3/3/3 4/4/4 2/2/2
f 2/2/2 4/4/4 5/5/5
f 2/2/2 6/6/6 1/1/1
f 6/6/6 7/7/7 1/1/1
f 2/2/2 8/8/8 6/6/6
f 2/2/2 5/5/5 8/8/8
f 8/8/8 9/9/9 6/6/6
f 5/5/5 10/10/10 8/8/8
f 13/13/13 12/12/12 11/11/11
f 14/14/14 13/13/13 11/11/11
f 11/11/11 12/12/12 15/15/15
f 16/16/16 11/11/11 15/15/15
f 17/17/17 13/13/13 14/14/14
f 18/18/18 17/17/17 14/14/14
f 18/18/18 19/19/19 17/17/17
f 19/19/19 20/20/20 17/17/17
f 21/21/21 20/20/20 19/19/19
f 22/22/22 21/21/21 19/19/19
f 25/25/25 24/24/24 23/23/23
f 26/26/26 25/25/25 23/23/23
f 25/25/25 27/27/27 24/24/24
f 27/27/27 28/28/28 24/24/24
f 31/31/31 30/30/30 29/29/29
f 32/32/32 31/31/31 29/29/29
f 29/29/29 30/30/30 33/33/33
f 30/30/30 34/34/34 33/33/33
