g pm0076_00_RockHoleLHSkin
v 0.5525278 0.6025695 0.1276633
v 0.5666782 0.6825199 0.1416726
v 0.5725201 0.6440812 0.05989665
v 0.5544627 0.655065 0.1965335
v 0.5640141 0.6849881 0.1730933
v 0.5558325 0.5971984 0.03903123
v 0.540988 0.5624529 0.02937357
v 0.5164725 0.5298206 0.06719098
v 0.5065994 0.5243875 0.1071342
v 0.5204018 0.5620968 0.2073298
v 0.530803 0.5869461 0.2144511
v 0.5640141 0.6849881 0.1730933
v 0.5544627 0.655065 0.1965335
v 0.5154421 0.6618105 0.1948775
v 0.5256299 0.6984464 0.1746192
v 0.530803 0.5869461 0.2144511
v 0.4901383 0.5950207 0.2194315
v 0.5282557 0.7021126 0.132936
v 0.5666782 0.6825199 0.1416726
v 0.5408882 0.670109 0.06024729
v 0.5725201 0.6440812 0.05989665
v 0.5142943 0.6033744 0.02641505
v 0.5558325 0.5971984 0.03903123
v 0.49382 0.5615022 0.01409922
v 0.540988 0.5624529 0.02937357
v 0.4807117 0.5603895 0.2296071
v 0.5204018 0.5620968 0.2073298
v 0.5065994 0.5243875 0.1071342
v 0.4555753 0.508851 0.1035031
v 0.4807117 0.5603895 0.2296071
v 0.5204018 0.5620968 0.2073298
v 0.5164725 0.5298206 0.06719098
v 0.4650887 0.5300892 0.06727879
v 0.540988 0.5624529 0.02937357
v 0.49382 0.5615022 0.01409922
vt 0.9631729 0.06957459
vt 0.9782834 0.08543456
vt 0.9784137 0.05591738
vt 0.9679596 0.09730231
vt 0.975587 0.09386752
vt 0.971861 0.04038823
vt 0.9651192 0.03147113
vt 0.9526778 0.03771245
vt 0.945706 0.04957867
vt 0.9453724 0.09027619
vt 0.9507026 0.09544379
vt 0.975587 0.09386752
vt 0.9679596 0.09730231
vt 0.9686241 0.1117094
vt 0.9809573 0.1057444
vt 0.9507026 0.09544379
vt 0.9478065 0.1104616
vt 0.9884765 0.09068131
vt 0.9782834 0.08543456
vt 0.9884765 0.05707824
vt 0.9784137 0.05591738
vt 0.9782045 0.02824628
vt 0.971861 0.04038823
vt 0.97113 0.01329064
vt 0.9651192 0.03147113
vt 0.9387078 0.106101
vt 0.9453724 0.09027619
vt 0.945706 0.04957867
vt 0.9335985 0.04189658
vt 0.9336453 0.09553134
vt 0.9453724 0.09027619
vt 0.9526778 0.03771245
vt 0.9411051 0.02895856
vt 0.9651192 0.03147113
vt 0.9566317 0.01495993
vn 0.9254005 -0.3596701 0.1194627
vn 0.9498534 -0.2883264 0.1210221
vn 0.9388002 -0.3268082 0.1088608
vn 0.9438331 -0.3010194 0.1362588
vn 0.9574385 -0.2566346 0.1320994
vn 0.9236807 -0.3707304 0.09681366
vn 0.9037962 -0.4157433 0.101538
vn 0.8810926 -0.4609865 0.1056756
vn 0.8945033 -0.4312366 0.1178934
vn 0.9113218 -0.3907236 0.1297218
vn 0.9285182 -0.343648 0.1405699
vn 0.3649631 0.7940457 0.4861002
vn 0.2617339 0.4385117 0.859769
vn 0.2438077 0.4677126 0.8495896
vn 0.3519973 0.8029892 0.4809431
vn 0.2953064 -0.1275121 0.9468552
vn 0.2598361 0.01788386 0.9654871
vn 0.4778354 0.8722665 -0.1040414
vn 0.4778352 0.8722665 -0.1040414
vn 0.4715172 0.6201087 -0.6270061
vn 0.4715173 0.6201086 -0.6270062
vn 0.3844566 0.1544433 -0.9101321
vn 0.3844566 0.1544433 -0.9101321
vn 0.2850806 -0.4248501 -0.859204
vn 0.2850806 -0.4248502 -0.8592039
vn 0.3229505 -0.4603963 0.8268847
vn 0.3362109 -0.616427 0.7120252
vn 0.2854791 -0.9526213 0.1049489
vn 0.2884212 -0.9481288 0.1336596
vn 0.3229505 -0.4603963 0.8268847
vn 0.3362109 -0.616427 0.7120252
vn 0.2341425 -0.8522152 -0.4678745
vn 0.2382844 -0.8540912 -0.4623297
vn 0.2850806 -0.4248502 -0.8592039
vn 0.2850806 -0.4248501 -0.859204
g pm0076_00_RockHoleLHSkin_0
f 3/3/3 2/2/2 1/1/1
f 1/1/1 2/2/2 4/4/4
f 2/2/2 5/5/5 4/4/4
f 6/6/6 3/3/3 1/1/1
f 7/7/7 6/6/6 1/1/1
f 8/8/8 7/7/7 1/1/1
f 9/9/9 8/8/8 1/1/1
f 1/1/1 10/10/10 9/9/9
f 1/1/1 4/4/4 10/10/10
f 4/4/4 11/11/11 10/10/10
f 14/14/14 13/13/13 12/12/12
f 15/15/15 14/14/14 12/12/12
f 16/16/16 13/13/13 14/14/14
f 17/17/17 16/16/16 14/14/14
f 15/15/15 12/12/12 18/18/18
f 12/12/12 19/19/19 18/18/18
f 18/18/18 19/19/19 20/20/20
f 19/19/19 21/21/21 20/20/20
f 20/20/20 21/21/21 22/22/22
f 21/21/21 23/23/23 22/22/22
f 22/22/22 23/23/23 24/24/24
f 23/23/23 25/25/25 24/24/24
f 26/26/26 16/16/16 17/17/17
f 26/26/26 27/27/27 16/16/16
f 30/30/30 29/29/29 28/28/28
f 31/31/31 30/30/30 28/28/28
f 32/32/32 28/28/28 29/29/29
f 33/33/33 32/32/32 29/29/29
f 34/34/34 32/32/32 33/33/33
f 35/35/35 34/34/34 33/33/33
