g pm0019_01_MustacheSkin
v -0.09098354 0.169075 0.1607179
v -0.06418297 0.1613016 0.1752139
v -0.06379745 0.1683862 0.1757114
v -0.08771124 0.1736041 0.1627148
v -0.06783176 0.1584849 0.1798706
v -0.09029222 0.1657124 0.1660702
v -0.09480657 0.1667434 0.1634439
v -0.0919695 0.169276 0.1601811
v -0.0918289 0.1742857 0.1604667
v -0.09954222 0.1708197 0.1560587
v -0.1018429 0.1683505 0.1593503
v -0.09927828 0.1755189 0.1563995
v -0.1009338 0.1777299 0.1601342
v -0.09368555 0.1765518 0.1644572
v -0.1084407 0.1768641 0.1513491
v -0.1086686 0.1728056 0.1510549
v -0.1176031 0.1782092 0.1462986
v -0.1190855 0.1798127 0.1489391
v -0.1100096 0.1787713 0.1545366
v -0.1177951 0.1747915 0.146051
v -0.1106555 0.1706754 0.1538978
v -0.119468 0.1730003 0.1484453
v -0.126006 0.1790455 0.1419594
v -0.1256728 0.1761999 0.1419292
v -0.1323081 0.1796727 0.138705
v -0.1324157 0.1806441 0.1408513
v -0.1267027 0.1802878 0.1443175
v -0.1315812 0.1772562 0.1388378
v -0.1274717 0.1748091 0.1437108
v -0.1334745 0.1761657 0.1401599
v -0.1335506 0.1776083 0.1378073
v -0.1354754 0.1766178 0.1389763
v -0.1370024 0.1793008 0.1382787
v -0.1344088 0.1798818 0.1376202
v -0.13432 0.1807629 0.1396959
v -0.08321411 0.1748319 0.170766
v -0.08766042 0.1755724 0.1680508
v -0.06677356 0.1720352 0.1810161
v -0.08766042 0.1755724 0.1680508
v -0.08321411 0.1748319 0.170766
v -0.08146518 0.1708515 0.1778583
v -0.08830494 0.1722735 0.1732392
v -0.08614621 0.1666438 0.1741388
v -0.09015752 0.1676469 0.1714952
v -0.09029222 0.1657124 0.1660702
v -0.09662215 0.1690593 0.1674198
v -0.09480657 0.1667434 0.1634439
v -0.09576971 0.1737672 0.1683323
v -0.1018429 0.1683505 0.1593503
v -0.1034983 0.1705616 0.163085
v -0.1032345 0.1752608 0.1634253
v -0.09368555 0.1765518 0.1644572
v -0.1009338 0.1777299 0.1601342
v -0.1119965 0.1766412 0.1573792
v -0.1100096 0.1787713 0.1545366
v -0.1207586 0.1780215 0.151333
v -0.1209505 0.1746038 0.1510856
v -0.1122244 0.1725827 0.1570853
v -0.119468 0.1730003 0.1484453
v -0.1106555 0.1706754 0.1538978
v -0.1190855 0.1798127 0.1489391
v -0.1285123 0.1788952 0.1461175
v -0.1267027 0.1802878 0.1443175
v -0.1343275 0.1795505 0.1422059
v -0.1335919 0.1771035 0.1423187
v -0.1281742 0.1760322 0.1460759
v -0.1334745 0.1761657 0.1401599
v -0.1274717 0.1748091 0.1437108
v -0.1324157 0.1806441 0.1408513
v -0.1354754 0.1766178 0.1389763
v -0.1353979 0.1774606 0.1410663
v -0.1370024 0.1793008 0.1382787
v -0.1362659 0.1797689 0.140902
v -0.13432 0.1807629 0.1396959
v -0.1344088 0.1798818 0.1376202
v -0.06677356 0.1720352 0.1810161
v -0.07030865 0.168532 0.1853926
v -0.07047932 0.1615897 0.1854938
v -0.06783176 0.1584849 0.1798706
v 0.09098354 0.169075 0.1607179
v 0.08771124 0.1736041 0.1627148
v 0.06379745 0.1683862 0.1757114
v 0.06418297 0.1613016 0.1752139
v 0.06783176 0.1584849 0.1798706
v 0.09029222 0.1657124 0.1660702
v 0.09480657 0.1667434 0.1634439
v 0.0919695 0.169276 0.1601811
v 0.0918289 0.1742857 0.1604667
v 0.09954222 0.1708197 0.1560587
v 0.1018429 0.1683505 0.1593503
v 0.09927828 0.1755189 0.1563995
v 0.1009338 0.1777299 0.1601342
v 0.09368555 0.1765518 0.1644572
v 0.1084407 0.1768641 0.1513491
v 0.1086686 0.1728056 0.1510549
v 0.1176031 0.1782092 0.1462986
v 0.1190855 0.1798127 0.1489391
v 0.1100096 0.1787713 0.1545366
v 0.1177951 0.1747915 0.146051
v 0.1106555 0.1706754 0.1538978
v 0.119468 0.1730003 0.1484453
v 0.126006 0.1790455 0.1419594
v 0.1256728 0.1761999 0.1419292
v 0.1323081 0.1796727 0.138705
v 0.1324157 0.1806441 0.1408513
v 0.1267027 0.1802878 0.1443175
v 0.1315812 0.1772562 0.1388378
v 0.1274717 0.1748091 0.1437108
v 0.1334745 0.1761657 0.1401599
v 0.1335506 0.1776083 0.1378073
v 0.1354754 0.1766178 0.1389763
v 0.1370024 0.1793008 0.1382787
v 0.1344088 0.1798818 0.1376202
v 0.13432 0.1807629 0.1396959
v 0.08766042 0.1755724 0.1680508
v 0.08321411 0.1748319 0.170766
v 0.06677356 0.1720352 0.1810161
v 0.08766042 0.1755724 0.1680508
v 0.08830494 0.1722735 0.1732392
v 0.08146518 0.1708515 0.1778583
v 0.08321411 0.1748319 0.170766
v 0.08614621 0.1666438 0.1741388
v 0.09015752 0.1676469 0.1714952
v 0.09029222 0.1657124 0.1660702
v 0.09662215 0.1690593 0.1674198
v 0.09480657 0.1667434 0.1634439
v 0.09576971 0.1737672 0.1683323
v 0.1018429 0.1683505 0.1593503
v 0.1034983 0.1705616 0.163085
v 0.1032345 0.1752608 0.1634253
v 0.09368555 0.1765518 0.1644572
v 0.1009338 0.1777299 0.1601342
v 0.1119965 0.1766412 0.1573792
v 0.1100096 0.1787713 0.1545366
v 0.1207586 0.1780215 0.151333
v 0.1209505 0.1746038 0.1510856
v 0.1122244 0.1725827 0.1570853
v 0.119468 0.1730003 0.1484453
v 0.1106555 0.1706754 0.1538978
v 0.1190855 0.1798127 0.1489391
v 0.1285123 0.1788952 0.1461175
v 0.1267027 0.1802878 0.1443175
v 0.1343275 0.1795505 0.1422059
v 0.1335919 0.1771035 0.1423187
v 0.1281742 0.1760322 0.1460759
v 0.1334745 0.1761657 0.1401599
v 0.1274717 0.1748091 0.1437108
v 0.1324157 0.1806441 0.1408513
v 0.1354754 0.1766178 0.1389763
v 0.1353979 0.1774606 0.1410663
v 0.1370024 0.1793008 0.1382787
v 0.1362659 0.1797689 0.140902
v 0.13432 0.1807629 0.1396959
v 0.1344088 0.1798818 0.1376202
v 0.06677356 0.1720352 0.1810161
v 0.07030865 0.168532 0.1853926
v 0.07047932 0.1615897 0.1854938
v 0.06783176 0.1584849 0.1798706
vt 0.54448 0.9282998
vt 0.453125 0.9250982
vt 0.453125 0.9364389
vt 0.5329511 0.9364388
vt 0.453125 0.9147056
vt 0.5316294 0.9197133
vt 0.5500776 0.9202874
vt 0.5484374 0.9283599
vt 0.549284 0.9364389
vt 0.5788325 0.9288209
vt 0.5788324 0.9211822
vt 0.5788325 0.9364388
vt 0.5788324 0.9439207
vt 0.5480006 0.9445074
vt 0.6144007 0.9364388
vt 0.6144007 0.9302104
vt 0.6499689 0.9364389
vt 0.6499689 0.9412361
vt 0.6144006 0.9425784
vt 0.6499689 0.9315999
vt 0.6144006 0.9239751
vt 0.6499689 0.9267679
vt 0.6786323 0.9364388
vt 0.6779034 0.9323981
vt 0.7001299 0.9364388
vt 0.6987959 0.9397182
vt 0.67787 0.9403688
vt 0.6988543 0.9329967
vt 0.6788118 0.9283594
vt 0.700444 0.929553
vt 0.7058378 0.9331963
vt 0.7076548 0.9299508
vt 0.711233 0.9364389
vt 0.7072958 0.9364388
vt 0.7057711 0.9395014
vt 0.5059044 0.9454962
vt 0.5223714 0.9449952
vt 0.453125 0.9478169
vt 0.6340927 0.9897048
vt 0.6504251 0.9901083
vt 0.6660657 0.9808776
vt 0.6433456 0.9808776
vt 0.6499784 0.9725902
vt 0.6341708 0.9728929
vt 0.6247723 0.9647769
vt 0.6071504 0.9731338
vt 0.6066528 0.9652599
vt 0.6108779 0.9808776
vt 0.5784103 0.9660128
vt 0.5784103 0.97339
vt 0.5784103 0.9808777
vt 0.6088169 0.9891013
vt 0.5784103 0.9883752
vt 0.5432316 0.9808776
vt 0.5432316 0.9870238
vt 0.5080529 0.9808776
vt 0.5080528 0.9760169
vt 0.5432315 0.9747034
vt 0.5080529 0.9711614
vt 0.5432316 0.9685872
vt 0.5080529 0.9856725
vt 0.4794221 0.9808776
vt 0.4797497 0.9850609
vt 0.4586661 0.9808777
vt 0.4586329 0.9773206
vt 0.4798129 0.9767619
vt 0.4562832 0.97423
vt 0.4784702 0.9729149
vt 0.4585222 0.9854788
vt 0.4488875 0.9746683
vt 0.4515729 0.9775069
vt 0.4445429 0.9808776
vt 0.4516678 0.9808777
vt 0.4514464 0.9858838
vt 0.4447273 0.9857376
vt 0.703125 0.9914613
vt 0.703125 0.9808776
vt 0.703125 0.9700334
vt 0.703125 0.9592572
vt 0.54448 0.9282998
vt 0.5329511 0.9364388
vt 0.453125 0.9364389
vt 0.453125 0.9250982
vt 0.453125 0.9147056
vt 0.5316294 0.9197133
vt 0.5500776 0.9202874
vt 0.5484374 0.9283599
vt 0.549284 0.9364389
vt 0.5788325 0.9288209
vt 0.5788324 0.9211822
vt 0.5788325 0.9364388
vt 0.5788324 0.9439207
vt 0.5480006 0.9445074
vt 0.6144007 0.9364388
vt 0.6144007 0.9302104
vt 0.6499689 0.9364389
vt 0.6499689 0.9412361
vt 0.6144006 0.9425784
vt 0.6499689 0.9315999
vt 0.6144006 0.9239751
vt 0.6499689 0.9267679
vt 0.6786323 0.9364388
vt 0.6779034 0.9323981
vt 0.7001299 0.9364388
vt 0.6987959 0.9397182
vt 0.67787 0.9403688
vt 0.6988543 0.9329967
vt 0.6788118 0.9283594
vt 0.700444 0.929553
vt 0.7058378 0.9331963
vt 0.7076548 0.9299508
vt 0.711233 0.9364389
vt 0.7072958 0.9364388
vt 0.7057711 0.9395014
vt 0.5223714 0.9449952
vt 0.5059044 0.9454962
vt 0.453125 0.9478169
vt 0.6340927 0.9897048
vt 0.6433456 0.9808776
vt 0.6660657 0.9808776
vt 0.6504251 0.9901083
vt 0.6499784 0.9725902
vt 0.6341708 0.9728929
vt 0.6247723 0.9647769
vt 0.6071504 0.9731338
vt 0.6066528 0.9652599
vt 0.6108779 0.9808776
vt 0.5784103 0.9660128
vt 0.5784103 0.97339
vt 0.5784103 0.9808777
vt 0.6088169 0.9891013
vt 0.5784103 0.9883752
vt 0.5432316 0.9808776
vt 0.5432316 0.9870238
vt 0.5080529 0.9808776
vt 0.5080528 0.9760169
vt 0.5432315 0.9747034
vt 0.5080529 0.9711614
vt 0.5432316 0.9685872
vt 0.5080529 0.9856725
vt 0.4794221 0.9808776
vt 0.4797497 0.9850609
vt 0.4586661 0.9808777
vt 0.4586329 0.9773206
vt 0.4798129 0.9767619
vt 0.4562832 0.97423
vt 0.4784702 0.9729149
vt 0.4585222 0.9854788
vt 0.4488875 0.9746683
vt 0.4515729 0.9775069
vt 0.4445429 0.9808776
vt 0.4516678 0.9808777
vt 0.4514464 0.9858838
vt 0.4447273 0.9857376
vt 0.703125 0.9914613
vt 0.703125 0.9808776
vt 0.703125 0.9700334
vt 0.703125 0.9592572
vn 0.1441437 -0.4386329 -0.8870308
vn 0.1129886 -0.4487186 -0.8865017
vn -0.1542 0.7739965 -0.6141268
vn -0.1128621 0.8927036 -0.4362825
vn -0.758443 -0.6516962 -0.007504304
vn -0.7400134 -0.6544521 0.1551532
vn -0.4916057 -0.8708155 -0.002046736
vn 0.2519188 -0.4543653 -0.8544525
vn 0.2000994 0.7429046 -0.6387903
vn 0.2592883 -0.4481699 -0.8555194
vn -0.3196033 -0.9422919 -0.09969804
vn 0.3459775 0.6122442 -0.7109547
vn -0.1684163 0.9699181 0.1757693
vn -0.3235839 0.9156529 0.2384814
vn 0.3850919 0.5772866 -0.7200308
vn 0.2925084 -0.4505998 -0.8434445
vn 0.4063694 0.5463824 -0.7323456
vn -0.001293883 0.9982306 0.05944791
vn -0.04254984 0.9943639 0.09710737
vn 0.305222 -0.4478459 -0.8404009
vn -0.2578774 -0.9583344 -0.1228587
vn -0.2054599 -0.9677298 -0.1458947
vn 0.3786011 0.5278592 -0.7602801
vn 0.2968588 -0.4442839 -0.8452731
vn 0.2375838 0.5042312 -0.8302439
vn -0.187725 0.97938 -0.07466004
vn -0.001350111 0.9993305 0.03656075
vn 0.1486925 -0.4256264 -0.8925989
vn -0.2131344 -0.962607 -0.1672166
vn -0.3362455 -0.9102382 -0.2416718
vn -0.1298247 -0.3781292 -0.9166045
vn -0.639316 -0.6545607 -0.4035163
vn -0.8455682 0.238217 -0.4777731
vn -0.2497333 0.3398866 -0.906703
vn -0.5871314 0.7478479 -0.3098392
vn -0.7980881 0.4805243 0.3635271
vn -0.5971145 0.7325932 0.3267436
vn -0.7980881 0.4805243 0.3635271
vn -0.5971145 0.7325932 0.3267436
vn -0.7980881 0.4805243 0.3635271
vn -0.8132815 0.3619316 0.455608
vn -0.7623529 0.3870564 0.5186573
vn -0.8540615 0.2875484 0.4334685
vn -0.8344379 0.04428016 0.5493201
vn -0.7400134 -0.6544521 0.1551532
vn -0.7541518 -0.2070473 0.6232066
vn -0.4916057 -0.8708155 -0.002046736
vn -0.6362148 0.430666 0.6401232
vn -0.3196033 -0.9422919 -0.09969804
vn -0.688602 -0.3281629 0.6466346
vn -0.5617893 0.4549683 0.6909389
vn -0.3235839 0.9156529 0.2384814
vn -0.1684163 0.9699181 0.1757693
vn -0.5138713 0.4707588 0.7171628
vn -0.04254984 0.9943639 0.09710737
vn -0.4908516 0.4789132 0.7278096
vn -0.6002982 -0.4866351 0.6346875
vn -0.631573 -0.4383777 0.6394845
vn -0.2054599 -0.9677298 -0.1458947
vn -0.2578774 -0.9583344 -0.1228587
vn -0.001293883 0.9982306 0.05944791
vn -0.5156673 0.4672211 0.7181864
vn -0.001350111 0.9993305 0.03656075
vn -0.6342655 0.4437694 0.6330687
vn -0.6945095 -0.4912519 0.5256693
vn -0.5951984 -0.506733 0.6236669
vn -0.3362455 -0.9102382 -0.2416718
vn -0.2131344 -0.962607 -0.1672166
vn -0.187725 0.97938 -0.07466004
vn -0.639316 -0.6545607 -0.4035163
vn -0.8460057 -0.4347904 0.3085962
vn -0.8455682 0.238217 -0.4777731
vn -0.9233563 0.290686 0.2508282
vn -0.5871314 0.7478479 -0.3098392
vn -0.2497333 0.3398866 -0.906703
vn -0.7980881 0.4805243 0.3635271
vn -0.8132815 0.3619316 0.455608
vn -0.8540615 0.2875484 0.4334685
vn -0.758443 -0.6516962 -0.007504304
vn -0.1441436 -0.4386328 -0.887031
vn 0.113387 0.8916436 -0.4383093
vn 0.102033 0.8496941 -0.5173096
vn -0.1129886 -0.4487184 -0.8865017
vn 0.7333521 -0.6788334 0.03714786
vn 0.7400134 -0.6544521 0.1551535
vn 0.4916056 -0.8708156 -0.002046047
vn -0.2519187 -0.4543654 -0.8544525
vn -0.2005001 0.7416933 -0.640071
vn -0.2592885 -0.4481701 -0.8555192
vn 0.3196031 -0.9422921 -0.09969702
vn -0.3462302 0.611499 -0.7114729
vn 0.1684164 0.9699178 0.1757705
vn 0.323584 0.9156526 0.2384819
vn -0.38522 0.5769044 -0.7202687
vn -0.2925087 -0.4506 -0.8434443
vn -0.4064039 0.5462747 -0.7324069
vn 0.001293883 0.9982305 0.05944903
vn 0.04254974 0.9943638 0.09710868
vn -0.3052224 -0.447846 -0.8404006
vn 0.2578776 -0.9583345 -0.1228579
vn 0.2054601 -0.9677298 -0.1458944
vn -0.3786083 0.5278332 -0.7602946
vn -0.2968586 -0.4442841 -0.8452731
vn -0.2375839 0.5042295 -0.8302448
vn 0.1877253 0.97938 -0.07465978
vn 0.001350296 0.9993305 0.03656074
vn -0.1486921 -0.4256264 -0.8925989
vn 0.2131347 -0.962607 -0.1672164
vn 0.3362462 -0.9102381 -0.2416714
vn 0.1298254 -0.3781295 -0.9166043
vn 0.639317 -0.6545603 -0.4035152
vn 0.8455693 0.2382175 -0.4777709
vn 0.2497341 0.3398872 -0.9067026
vn 0.5871316 0.7478485 -0.3098373
vn 0.5971147 0.7325932 0.3267435
vn 0.7980881 0.4805243 0.3635271
vn 0.7980881 0.4805243 0.3635271
vn 0.5971147 0.7325932 0.3267435
vn 0.7602354 0.3931017 0.5172167
vn 0.8107572 0.3692978 0.4541938
vn 0.7980881 0.4805243 0.3635271
vn 0.8540615 0.2875484 0.4334685
vn 0.8344378 0.04428031 0.5493203
vn 0.7400134 -0.6544521 0.1551535
vn 0.7541515 -0.2070473 0.623207
vn 0.4916056 -0.8708156 -0.002046047
vn 0.6350719 0.4340467 0.6389736
vn 0.3196031 -0.9422921 -0.09969702
vn 0.6886016 -0.3281627 0.6466352
vn 0.5611937 0.4568104 0.6902071
vn 0.323584 0.9156526 0.2384819
vn 0.1684164 0.9699178 0.1757705
vn 0.5136344 0.4715192 0.7168329
vn 0.04254974 0.9943638 0.09710868
vn 0.490799 0.4790857 0.7277315
vn 0.600298 -0.4866352 0.6346875
vn 0.6315726 -0.4383777 0.639485
vn 0.2054601 -0.9677298 -0.1458944
vn 0.2578776 -0.9583345 -0.1228579
vn 0.001293883 0.9982305 0.05944903
vn 0.51566 0.4672454 0.7181758
vn 0.001350296 0.9993305 0.03656074
vn 0.6342647 0.4437717 0.6330678
vn 0.69451 -0.4912511 0.5256694
vn 0.5951986 -0.5067327 0.6236671
vn 0.3362462 -0.9102381 -0.2416714
vn 0.2131347 -0.962607 -0.1672164
vn 0.1877253 0.97938 -0.07465978
vn 0.639317 -0.6545603 -0.4035152
vn 0.8460059 -0.4347894 0.3085972
vn 0.8455693 0.2382175 -0.4777709
vn 0.9233556 0.2906867 0.2508298
vn 0.5871316 0.7478485 -0.3098373
vn 0.2497341 0.3398872 -0.9067026
vn 0.7980881 0.4805243 0.3635271
vn 0.8107572 0.3692978 0.4541938
vn 0.8540615 0.2875484 0.4334685
vn 0.7333521 -0.6788334 0.03714786
g pm0019_01_MustacheSkin_0
f 3/3/3 2/2/2 1/1/1
f 4/4/4 3/3/3 1/1/1
f 1/1/1 2/2/2 5/5/5
f 6/6/6 1/1/1 5/5/5
f 1/1/1 6/6/6 7/7/7
f 8/8/8 1/1/1 7/7/7
f 9/9/9 4/4/4 1/1/1
f 8/8/8 9/9/9 1/1/1
f 10/10/10 8/8/8 7/7/7
f 11/11/11 10/10/10 7/7/7
f 12/12/12 9/9/9 8/8/8
f 10/10/10 12/12/12 8/8/8
f 12/12/12 13/13/13 9/9/9
f 13/13/13 14/14/14 9/9/9
f 15/15/15 12/12/12 10/10/10
f 16/16/16 15/15/15 10/10/10
f 16/16/16 10/10/10 11/11/11
f 17/17/17 15/15/15 16/16/16
f 17/17/17 18/18/18 15/15/15
f 18/18/18 19/19/19 15/15/15
f 19/19/19 13/13/13 12/12/12
f 15/15/15 19/19/19 12/12/12
f 20/20/20 17/17/17 16/16/16
f 20/20/20 16/16/16 21/21/21
f 21/21/21 16/16/16 11/11/11
f 22/22/22 20/20/20 21/21/21
f 23/23/23 17/17/17 20/20/20
f 24/24/24 23/23/23 20/20/20
f 24/24/24 20/20/20 22/22/22
f 25/25/25 23/23/23 24/24/24
f 25/25/25 26/26/26 23/23/23
f 26/26/26 27/27/27 23/23/23
f 27/27/27 18/18/18 17/17/17
f 23/23/23 27/27/27 17/17/17
f 28/28/28 25/25/25 24/24/24
f 28/28/28 24/24/24 29/29/29
f 29/29/29 24/24/24 22/22/22
f 30/30/30 28/28/28 29/29/29
f 31/31/31 28/28/28 30/30/30
f 32/32/32 31/31/31 30/30/30
f 31/31/31 32/32/32 33/33/33
f 34/34/34 31/31/31 33/33/33
f 34/34/34 25/25/25 28/28/28
f 31/31/31 34/34/34 28/28/28
f 35/35/35 26/26/26 25/25/25
f 34/34/34 35/35/35 25/25/25
f 37/37/37 36/36/36 4/4/4
f 36/36/36 38/38/38 4/4/4
f 38/38/38 3/3/3 4/4/4
f 37/37/37 4/4/4 9/9/9
f 14/14/14 37/37/37 9/9/9
f 41/41/41 40/40/40 39/39/39
f 42/42/42 41/41/41 39/39/39
f 43/43/43 41/41/41 42/42/42
f 44/44/44 43/43/43 42/42/42
f 45/45/45 43/43/43 44/44/44
f 45/45/45 44/44/44 46/46/46
f 47/47/47 45/45/45 46/46/46
f 44/44/44 42/42/42 48/48/48
f 46/46/46 44/44/44 48/48/48
f 49/49/49 47/47/47 46/46/46
f 50/50/50 49/49/49 46/46/46
f 50/50/50 46/46/46 48/48/48
f 51/51/51 50/50/50 48/48/48
f 51/51/51 48/48/48 52/52/52
f 42/42/42 39/39/39 52/52/52
f 48/48/48 42/42/42 52/52/52
f 53/53/53 51/51/51 52/52/52
f 54/54/54 51/51/51 53/53/53
f 55/55/55 54/54/54 53/53/53
f 56/56/56 54/54/54 55/55/55
f 56/56/56 57/57/57 54/54/54
f 57/57/57 58/58/58 54/54/54
f 58/58/58 50/50/50 51/51/51
f 54/54/54 58/58/58 51/51/51
f 57/57/57 59/59/59 58/58/58
f 59/59/59 60/60/60 58/58/58
f 60/60/60 49/49/49 50/50/50
f 58/58/58 60/60/60 50/50/50
f 61/61/61 56/56/56 55/55/55
f 62/62/62 56/56/56 61/61/61
f 63/63/63 62/62/62 61/61/61
f 64/64/64 62/62/62 63/63/63
f 64/64/64 65/65/65 62/62/62
f 65/65/65 66/66/66 62/62/62
f 66/66/66 57/57/57 56/56/56
f 62/62/62 66/66/66 56/56/56
f 65/65/65 67/67/67 66/66/66
f 67/67/67 68/68/68 66/66/66
f 68/68/68 59/59/59 57/57/57
f 66/66/66 68/68/68 57/57/57
f 69/69/69 64/64/64 63/63/63
f 70/70/70 67/67/67 65/65/65
f 71/71/71 70/70/70 65/65/65
f 71/71/71 65/65/65 64/64/64
f 70/70/70 71/71/71 72/72/72
f 71/71/71 73/73/73 72/72/72
f 73/73/73 71/71/71 64/64/64
f 73/73/73 64/64/64 69/69/69
f 73/73/73 74/74/74 72/72/72
f 74/74/74 73/73/73 69/69/69
f 74/74/74 75/75/75 72/72/72
f 41/41/41 77/77/77 76/76/76
f 40/40/40 41/41/41 76/76/76
f 41/41/41 43/43/43 77/77/77
f 43/43/43 78/78/78 77/77/77
f 79/79/79 78/78/78 43/43/43
f 45/45/45 79/79/79 43/43/43
f 82/82/82 81/81/81 80/80/80
f 83/83/83 82/82/82 80/80/80
f 83/83/83 80/80/80 84/84/84
f 80/80/80 85/85/85 84/84/84
f 85/85/85 80/80/80 86/86/86
f 80/80/80 87/87/87 86/86/86
f 88/88/88 87/87/87 80/80/80
f 81/81/81 88/88/88 80/80/80
f 87/87/87 89/89/89 86/86/86
f 89/89/89 90/90/90 86/86/86
f 91/91/91 89/89/89 87/87/87
f 88/88/88 91/91/91 87/87/87
f 92/92/92 91/91/91 88/88/88
f 93/93/93 92/92/92 88/88/88
f 91/91/91 94/94/94 89/89/89
f 94/94/94 95/95/95 89/89/89
f 89/89/89 95/95/95 90/90/90
f 94/94/94 96/96/96 95/95/95
f 97/97/97 96/96/96 94/94/94
f 98/98/98 97/97/97 94/94/94
f 98/98/98 94/94/94 91/91/91
f 92/92/92 98/98/98 91/91/91
f 96/96/96 99/99/99 95/95/95
f 95/95/95 99/99/99 100/100/100
f 95/95/95 100/100/100 90/90/90
f 99/99/99 101/101/101 100/100/100
f 96/96/96 102/102/102 99/99/99
f 102/102/102 103/103/103 99/99/99
f 99/99/99 103/103/103 101/101/101
f 102/102/102 104/104/104 103/103/103
f 105/105/105 104/104/104 102/102/102
f 106/106/106 105/105/105 102/102/102
f 106/106/106 102/102/102 96/96/96
f 97/97/97 106/106/106 96/96/96
f 104/104/104 107/107/107 103/103/103
f 103/103/103 107/107/107 108/108/108
f 103/103/103 108/108/108 101/101/101
f 107/107/107 109/109/109 108/108/108
f 107/107/107 110/110/110 109/109/109
f 110/110/110 111/111/111 109/109/109
f 111/111/111 110/110/110 112/112/112
f 110/110/110 113/113/113 112/112/112
f 113/113/113 110/110/110 107/107/107
f 104/104/104 113/113/113 107/107/107
f 114/114/114 113/113/113 104/104/104
f 105/105/105 114/114/114 104/104/104
f 116/116/116 115/115/115 81/81/81
f 117/117/117 116/116/116 81/81/81
f 82/82/82 117/117/117 81/81/81
f 81/81/81 115/115/115 88/88/88
f 115/115/115 93/93/93 88/88/88
f 120/120/120 119/119/119 118/118/118
f 121/121/121 120/120/120 118/118/118
f 120/120/120 122/122/122 119/119/119
f 122/122/122 123/123/123 119/119/119
f 122/122/122 124/124/124 123/123/123
f 123/123/123 124/124/124 125/125/125
f 124/124/124 126/126/126 125/125/125
f 123/123/123 125/125/125 127/127/127
f 119/119/119 123/123/123 127/127/127
f 126/126/126 128/128/128 125/125/125
f 128/128/128 129/129/129 125/125/125
f 125/125/125 129/129/129 127/127/127
f 129/129/129 130/130/130 127/127/127
f 127/127/127 130/130/130 131/131/131
f 119/119/119 127/127/127 131/131/131
f 118/118/118 119/119/119 131/131/131
f 130/130/130 132/132/132 131/131/131
f 130/130/130 133/133/133 132/132/132
f 133/133/133 134/134/134 132/132/132
f 133/133/133 135/135/135 134/134/134
f 136/136/136 135/135/135 133/133/133
f 137/137/137 136/136/136 133/133/133
f 137/137/137 133/133/133 130/130/130
f 129/129/129 137/137/137 130/130/130
f 138/138/138 136/136/136 137/137/137
f 139/139/139 138/138/138 137/137/137
f 139/139/139 137/137/137 129/129/129
f 128/128/128 139/139/139 129/129/129
f 135/135/135 140/140/140 134/134/134
f 135/135/135 141/141/141 140/140/140
f 141/141/141 142/142/142 140/140/140
f 141/141/141 143/143/143 142/142/142
f 144/144/144 143/143/143 141/141/141
f 145/145/145 144/144/144 141/141/141
f 145/145/145 141/141/141 135/135/135
f 136/136/136 145/145/145 135/135/135
f 146/146/146 144/144/144 145/145/145
f 147/147/147 146/146/146 145/145/145
f 147/147/147 145/145/145 136/136/136
f 138/138/138 147/147/147 136/136/136
f 143/143/143 148/148/148 142/142/142
f 146/146/146 149/149/149 144/144/144
f 149/149/149 150/150/150 144/144/144
f 144/144/144 150/150/150 143/143/143
f 150/150/150 149/149/149 151/151/151
f 152/152/152 150/150/150 151/151/151
f 150/150/150 152/152/152 143/143/143
f 143/143/143 152/152/152 148/148/148
f 153/153/153 152/152/152 151/151/151
f 152/152/152 153/153/153 148/148/148
f 154/154/154 153/153/153 151/151/151
f 120/120/120 121/121/121 155/155/155
f 156/156/156 120/120/120 155/155/155
f 122/122/122 120/120/120 156/156/156
f 157/157/157 122/122/122 156/156/156
f 157/157/157 158/158/158 122/122/122
f 158/158/158 124/124/124 122/122/122
