g pm0088_61_LiquidASkin
v 0.2713499 0.001702281 0.2992929
v 0.2439372 0.001608353 0.3139778
v 0.2421849 0.007055813 0.3021792
v 0.2647302 0.005718862 0.2926732
v 0.2199912 0.001608348 0.3139778
v 0.2217434 0.007055807 0.3021792
v 0.2731176 0.007055812 0.2713952
v 0.2432451 0.01130779 0.2729314
v 0.2206833 0.01130779 0.2729314
v 0.1991981 0.005718862 0.2926732
v 0.1908107 0.007055808 0.2713952
v 0.284604 0.001608351 0.2733646
v 0.1925784 0.001702283 0.2992929
v 0.1793243 0.001608351 0.2733646
v 0.2432451 0.01130778 0.2468829
v 0.2731176 0.007055807 0.2484192
v 0.2647302 0.00571886 0.2271411
v 0.2421849 0.007055807 0.2176352
v 0.2217434 0.007055809 0.2176352
v 0.2206833 0.01130778 0.246883
v 0.1908107 0.007055809 0.2484192
v 0.1991981 0.005718862 0.2271411
v 0.2199912 0.001608354 0.2058365
v 0.2439372 0.001608353 0.2058365
v 0.1925784 0.001702283 0.2205214
v 0.2713499 0.001702283 0.2205215
v 0.2846041 0.001608349 0.2464497
v 0.1793243 0.001608351 0.2464497
v 0.2199912 0.001608348 0.3139778
v 0.2439372 0.001608353 0.3139778
v 0.2398939 0.001631245 0.2984713
v 0.2240345 0.001631245 0.2984713
v 0.2096991 0.001738788 0.2821722
v 0.2542292 0.001738788 0.2821722
v 0.2096991 0.001738788 0.2376421
v 0.2542292 0.001738788 0.237642
v 0.2398939 0.001631245 0.221343
v 0.2240345 0.001631245 0.2213431
v 0.2439372 0.001608353 0.2058365
v 0.2199912 0.001608354 0.2058365
v 0.1944205 0.001631245 0.2509943
v 0.1925784 0.001702283 0.2205214
v 0.1793243 0.001608351 0.2464497
v 0.1944205 0.001631245 0.2688201
v 0.1925784 0.001702283 0.2992929
v 0.1793243 0.001608351 0.2733646
v 0.2695078 0.001631245 0.26882
v 0.284604 0.001608351 0.2733646
v 0.2713499 0.001702281 0.2992929
v 0.2695078 0.001631245 0.2509943
v 0.2713499 0.001702283 0.2205215
v 0.2846041 0.001608349 0.2464497
vt 0.2369674 0.2980482
vt 0.2186788 0.2931023
vt 0.2173008 0.2973867
vt 0.2321908 0.3004408
vt 0.2025701 0.2931023
vt 0.2039479 0.2973867
vt 0.2375637 0.307464
vt 0.2179277 0.3070016
vt 0.203321 0.3070016
vt 0.1890578 0.3004408
vt 0.183685 0.307464
vt 0.2459422 0.3067099
vt 0.1842814 0.2980482
vt 0.1753064 0.3067099
vt 0.2179277 0.3154363
vt 0.2375637 0.3149739
vt 0.2321908 0.3219971
vt 0.2173008 0.3250513
vt 0.2039479 0.3250513
vt 0.203321 0.3154362
vt 0.183685 0.3149739
vt 0.1890578 0.3219971
vt 0.2025701 0.3293357
vt 0.2186788 0.3293357
vt 0.1842813 0.3243897
vt 0.2369674 0.3243897
vt 0.2459422 0.3157281
vt 0.1753064 0.3157281
vt 0.8014785 0.2934871
vt 0.7857729 0.2934871
vt 0.7884248 0.2985722
vt 0.7988266 0.2985722
vt 0.8082289 0.3039174
vt 0.7790227 0.3039174
vt 0.8082289 0.3185205
vt 0.7790227 0.3185205
vt 0.7884248 0.3238656
vt 0.7988266 0.3238656
vt 0.7857729 0.3289508
vt 0.8014785 0.3289508
vt 0.8182499 0.3141418
vt 0.8194579 0.324135
vt 0.828151 0.3156321
vt 0.8182499 0.308296
vt 0.8194579 0.2983029
vt 0.828151 0.3068058
vt 0.7690016 0.308296
vt 0.7591005 0.3068058
vt 0.7677937 0.2983029
vt 0.7690016 0.3141418
vt 0.7677935 0.3241349
vt 0.7591005 0.3156321
vn 0.263668 0.9292982 0.2586195
vn 0.09572491 0.9345364 0.3427513
vn 0.08331516 0.9640651 0.2522638
vn 0.2248732 0.9489046 0.2213868
vn -0.09572496 0.9345363 0.3427515
vn -0.08331508 0.9640651 0.2522638
vn 0.2556631 0.9632659 0.08218987
vn 0.08663008 0.9925271 0.08593621
vn -0.08663013 0.9925271 0.08593633
vn -0.2248731 0.9489045 0.2213872
vn -0.2556632 0.9632658 0.08219012
vn 0.3487503 0.9324985 0.09391341
vn -0.2636681 0.929298 0.25862
vn -0.3487507 0.9324984 0.09391368
vn 0.08662995 0.9925272 -0.08593621
vn 0.2556629 0.963266 -0.08218981
vn 0.2248728 0.9489047 -0.2213869
vn 0.08331502 0.9640652 -0.2522635
vn -0.08331498 0.9640651 -0.2522637
vn -0.08663002 0.9925271 -0.08593621
vn -0.2556633 0.9632659 -0.08218977
vn -0.2248731 0.9489045 -0.2213871
vn -0.09572478 0.9345365 -0.3427512
vn 0.09572478 0.9345365 -0.3427511
vn -0.263668 0.9292982 -0.2586198
vn 0.2636678 0.9292983 -0.2586195
vn 0.3487501 0.9324986 -0.09391343
vn -0.3487506 0.9324984 -0.0939135
vn -4.416709E-05 -0.9999974 -0.002255442
vn 4.42267E-05 -0.9999974 -0.002255442
vn -0.000119269 -0.9999959 -0.002874676
vn 0.0001193286 -0.9999959 -0.002874795
vn 0.0009183913 -0.9999992 -0.0008056787
vn -0.0009182721 -0.9999992 -0.0008056787
vn 0.0009183913 -0.9999992 0.000805619
vn -0.0009182721 -0.9999992 0.0008056191
vn -0.000119269 -0.9999959 0.002874616
vn 0.0001192094 -0.9999959 0.002874616
vn 4.42267E-05 -0.9999974 0.002255442
vn -4.416709E-05 -0.9999974 0.002255442
vn 0.003064994 -0.9999953 5.137926E-05
vn 0.0009045618 -0.9999993 0.0007531657
vn 0.002428654 -0.999997 -0.0001127125
vn 0.003064994 -0.9999953 -5.149847E-05
vn 0.0009045618 -0.9999993 -0.0007531657
vn 0.002428654 -0.999997 0.0001126529
vn -0.003065113 -0.9999953 -5.131966E-05
vn -0.002428654 -0.999997 0.0001127721
vn -0.0009046214 -0.9999993 -0.0007532253
vn -0.003065053 -0.9999953 5.149847E-05
vn -0.0009045618 -0.9999993 0.0007531657
vn -0.002428713 -0.999997 -0.0001126529
g pm0088_61_LiquidASkin_0
f 3/3/3 2/2/2 1/1/1
f 4/4/4 3/3/3 1/1/1
f 5/5/5 2/2/2 3/3/3
f 6/6/6 5/5/5 3/3/3
f 4/4/4 7/7/7 3/3/3
f 7/7/7 4/4/4 1/1/1
f 7/7/7 8/8/8 3/3/3
f 3/3/3 8/8/8 9/9/9
f 6/6/6 3/3/3 9/9/9
f 10/10/10 6/6/6 9/9/9
f 11/11/11 10/10/10 9/9/9
f 12/12/12 7/7/7 1/1/1
f 10/10/10 11/11/11 13/13/13
f 6/6/6 10/10/10 13/13/13
f 5/5/5 6/6/6 13/13/13
f 11/11/11 14/14/14 13/13/13
f 15/15/15 8/8/8 7/7/7
f 8/8/8 15/15/15 9/9/9
f 16/16/16 15/15/15 7/7/7
f 16/16/16 17/17/17 15/15/15
f 17/17/17 18/18/18 15/15/15
f 15/15/15 18/18/18 19/19/19
f 20/20/20 15/15/15 19/19/19
f 15/15/15 20/20/20 9/9/9
f 21/21/21 20/20/20 19/19/19
f 14/14/14 11/11/11 21/21/21
f 9/9/9 20/20/20 21/21/21
f 11/11/11 9/9/9 21/21/21
f 22/22/22 21/21/21 19/19/19
f 23/23/23 19/19/19 18/18/18
f 24/24/24 23/23/23 18/18/18
f 19/19/19 23/23/23 25/25/25
f 22/22/22 19/19/19 25/25/25
f 21/21/21 22/22/22 25/25/25
f 17/17/17 16/16/16 26/26/26
f 18/18/18 17/17/17 26/26/26
f 24/24/24 18/18/18 26/26/26
f 16/16/16 27/27/27 26/26/26
f 28/28/28 21/21/21 25/25/25
f 28/28/28 14/14/14 21/21/21
f 27/27/27 16/16/16 7/7/7
f 12/12/12 27/27/27 7/7/7
f 31/31/31 30/30/30 29/29/29
f 32/32/32 31/31/31 29/29/29
f 32/32/32 33/33/33 31/31/31
f 33/33/33 34/34/34 31/31/31
f 34/34/34 33/33/33 35/35/35
f 36/36/36 34/34/34 35/35/35
f 37/37/37 36/36/36 35/35/35
f 38/38/38 37/37/37 35/35/35
f 39/39/39 37/37/37 38/38/38
f 40/40/40 39/39/39 38/38/38
f 35/35/35 33/33/33 41/41/41
f 42/42/42 35/35/35 41/41/41
f 38/38/38 35/35/35 42/42/42
f 40/40/40 38/38/38 42/42/42
f 43/43/43 42/42/42 41/41/41
f 33/33/33 44/44/44 41/41/41
f 41/41/41 44/44/44 43/43/43
f 44/44/44 33/33/33 45/45/45
f 45/45/45 33/33/33 32/32/32
f 46/46/46 44/44/44 45/45/45
f 44/44/44 46/46/46 43/43/43
f 47/47/47 34/34/34 36/36/36
f 47/47/47 48/48/48 34/34/34
f 48/48/48 49/49/49 34/34/34
f 50/50/50 47/47/47 36/36/36
f 50/50/50 36/36/36 51/51/51
f 51/51/51 36/36/36 37/37/37
f 39/39/39 51/51/51 37/37/37
f 52/52/52 50/50/50 51/51/51
f 47/47/47 50/50/50 52/52/52
f 48/48/48 47/47/47 52/52/52
f 29/29/29 45/45/45 32/32/32
f 31/31/31 34/34/34 49/49/49
f 30/30/30 31/31/31 49/49/49
