g pm0130_00_MustacheSkin
v 1.015949 1.330788 1.150077
v 1.013915 1.327367 1.145657
v 1.014668 1.330245 1.142075
v 1.016304 1.33486 1.145289
v 1.029315 1.326551 1.141533
v 1.024246 1.32024 1.136002
v 1.042326 1.318242 1.137777
v 1.033824 1.310234 1.129929
v 1.068348 1.301624 1.130265
v 1.05894 1.291488 1.148483
v 1.080159 1.265982 1.15006
v 1.096785 1.268527 1.127856
v 1.08993 1.233399 1.154785
v 1.107823 1.224142 1.135493
v 1.085473 1.201195 1.169971
v 1.099659 1.178478 1.156343
v 1.070751 1.176908 1.189262
v 1.069288 1.140765 1.186843
v 1.043813 1.170232 1.211105
v 1.027992 1.143135 1.218168
v 1.037444 1.311138 1.14928
v 1.050203 1.142366 1.156526
v 1.012992 1.143902 1.190688
v 1.079113 1.177603 1.13456
v 1.08695 1.218974 1.11846
v 1.076173 1.259209 1.112304
v 1.052981 1.290222 1.117784
v 1.050558 1.177793 1.160088
v 1.027922 1.171502 1.184152
v 1.065063 1.199807 1.148816
v 1.069341 1.227973 1.137936
v 1.060314 1.256368 1.134629
v 1.044834 1.280497 1.13592
v 1.029375 1.303932 1.140788
v 0.9826272 1.173394 1.211086
v 1.003196 1.19452 1.20115
v 0.9362646 1.214463 1.23298
v 0.9501016 1.214631 1.260995
v 0.8695651 1.290105 1.281789
v 0.8949972 1.307057 1.266087
v 0.7733994 1.409234 1.287872
v 0.7570053 1.390659 1.306428
v 0.624508 1.53037 1.306465
v 0.6069832 1.510152 1.331309
v 0.4503499 1.658516 1.331097
v 0.4379482 1.637445 1.360246
v 0.2526275 1.78985 1.356376
v 0.2506377 1.760291 1.386666
v 0.973178 1.234754 1.249618
v 0.9958491 1.173612 1.238395
v 1.01741 1.193929 1.227808
v 0.4156613 1.616701 1.336097
v 0.2287744 1.7343 1.35891
v 0.5873531 1.494095 1.304583
v 0.7373711 1.382486 1.286555
v 0.8532149 1.288361 1.252772
v 0.428146 1.637953 1.307182
v 0.231968 1.7655 1.329244
v 0.6050354 1.514358 1.279612
v 0.7539411 1.403175 1.259427
v 0.8787742 1.305142 1.237594
v 0.9590572 1.235002 1.221745
v 1.003196 1.19452 1.20115
v 0.9590572 1.235002 1.221745
v 0.8787742 1.305142 1.237594
v 0.7539411 1.403175 1.259427
v 0.6050354 1.514358 1.279612
v 0.428146 1.637953 1.307182
v 0.231968 1.7655 1.329244
v 1.027922 1.171502 1.184152
v 1.050558 1.177793 1.160088
v 1.065063 1.199807 1.148816
v 1.069341 1.227973 1.137936
v 1.060314 1.256368 1.134629
v 1.044834 1.280497 1.13592
v 1.029375 1.303932 1.140788
v 1.026697 1.320963 1.149679
v 1.021645 1.315649 1.143223
v 1.013915 1.327367 1.145657
v -1.015951 1.330792 1.150071
v -1.016305 1.334863 1.145282
v -1.014669 1.330249 1.142068
v -1.013917 1.32737 1.145651
v -1.026698 1.320967 1.149672
v -1.029317 1.326554 1.141526
v -1.037446 1.311141 1.149273
v -1.042328 1.318245 1.13777
v -1.058941 1.291491 1.148476
v -1.06835 1.301627 1.130258
v -1.080161 1.265985 1.150053
v -1.096786 1.26853 1.127849
v -1.089931 1.233402 1.154778
v -1.107824 1.224145 1.135486
v -1.085475 1.201198 1.169964
v -1.09966 1.178481 1.156336
v -1.070752 1.176911 1.189255
v -1.069289 1.140768 1.186836
v -1.043814 1.170235 1.211099
v -1.027993 1.143138 1.218162
v -1.050204 1.142369 1.156519
v -1.012993 1.143904 1.190682
v -1.079115 1.177607 1.134553
v -1.086951 1.218977 1.118454
v -1.076174 1.259213 1.112297
v -1.052983 1.290225 1.117777
v -1.033826 1.310237 1.129923
v -1.050559 1.177796 1.160081
v -1.027923 1.171505 1.184146
v -1.065065 1.19981 1.148809
v -1.069343 1.227976 1.137929
v -1.060315 1.256371 1.134622
v -1.044836 1.280501 1.135913
v -1.029376 1.303936 1.140782
v -0.982628 1.173396 1.21108
v -1.003196 1.194523 1.201145
v -0.936264 1.214463 1.232976
v -0.950101 1.214631 1.260991
v -0.869565 1.290105 1.281788
v -0.894997 1.307057 1.266086
v -0.7733994 1.409234 1.287872
v -0.7570053 1.390659 1.306428
v -0.624508 1.53037 1.306465
v -0.6069832 1.510152 1.331309
v -0.4503499 1.658516 1.331097
v -0.4379482 1.637445 1.360246
v -0.2526275 1.78985 1.356376
v -0.2506377 1.760291 1.386666
v -0.9731775 1.234754 1.249614
v -0.99585 1.173615 1.238389
v -1.01741 1.193931 1.227803
v -0.4156613 1.616701 1.336097
v -0.2287744 1.7343 1.35891
v -0.5873531 1.494095 1.304583
v -0.7373711 1.382486 1.286555
v -0.8532148 1.288361 1.252771
v -0.428146 1.637953 1.307182
v -0.231968 1.7655 1.329244
v -0.6050354 1.514358 1.279612
v -0.7539411 1.403175 1.259427
v -0.878774 1.305142 1.237593
v -0.9590566 1.235002 1.22174
v -1.027923 1.171505 1.184146
v -1.050559 1.177796 1.160081
v -1.065065 1.19981 1.148809
v -1.069343 1.227976 1.137929
v -1.060315 1.256371 1.134622
v -1.044836 1.280501 1.135913
v -1.029376 1.303936 1.140782
v -1.003196 1.194523 1.201145
v -0.9590566 1.235002 1.22174
v -0.878774 1.305142 1.237593
v -0.7539411 1.403175 1.259427
v -0.6050354 1.514358 1.279612
v -0.428146 1.637953 1.307182
v -0.231968 1.7655 1.329244
v -1.021646 1.315653 1.143216
v -1.013917 1.32737 1.145651
v 1.021645 1.315649 1.143223
v 1.013915 1.327367 1.145657
v -1.024247 1.320243 1.135995
v -1.021646 1.315653 1.143216
v -1.013917 1.32737 1.145651
vt 0.7820788 0.8142151
vt 0.7770999 0.8113126
vt 0.7824425 0.8093662
vt 0.7818938 0.8116335
vt 0.7879981 0.8118672
vt 0.7883151 0.8092241
vt 0.7941024 0.8119565
vt 0.7941878 0.8092083
vt 0.8014333 0.8131732
vt 0.8009081 0.8154847
vt 0.8105686 0.8154847
vt 0.8105686 0.8131732
vt 0.8180332 0.8154847
vt 0.8180332 0.8131732
vt 0.8260431 0.8154847
vt 0.8260431 0.8131732
vt 0.8343513 0.8154847
vt 0.8343513 0.8131732
vt 0.8415613 0.8154847
vt 0.8415613 0.8131732
vt 0.7937799 0.8147664
vt 0.8343513 0.8108618
vt 0.8415613 0.8108618
vt 0.8260431 0.8108618
vt 0.8180332 0.8108618
vt 0.8105686 0.8108618
vt 0.8011942 0.8108618
vt 0.8343513 0.8085503
vt 0.8415613 0.8085503
vt 0.8260431 0.8085503
vt 0.8180332 0.8085503
vt 0.8105686 0.8085503
vt 0.800159 0.8085503
vt 0.7931505 0.8064899
vt 0.8486857 0.8108618
vt 0.8486857 0.8085503
vt 0.859606 0.8108618
vt 0.859606 0.8131732
vt 0.8780782 0.8131732
vt 0.8780782 0.8154847
vt 0.9042099 0.8154847
vt 0.9042099 0.8131732
vt 0.9349725 0.8154847
vt 0.9349725 0.8131732
vt 0.9649148 0.8154847
vt 0.9649148 0.8131732
vt 0.9921589 0.8154847
vt 0.9921589 0.8131732
vt 0.859606 0.8154847
vt 0.8486857 0.8131732
vt 0.8486857 0.8154847
vt 0.9649148 0.8108618
vt 0.9921589 0.8108618
vt 0.9349725 0.8108618
vt 0.9042099 0.8108618
vt 0.8780782 0.8108618
vt 0.9649148 0.8085503
vt 0.9921589 0.8085503
vt 0.9349725 0.8085503
vt 0.9042099 0.8085503
vt 0.8780782 0.8085503
vt 0.859606 0.8085503
vt 0.8486857 0.8177962
vt 0.859606 0.8177962
vt 0.8780782 0.8177962
vt 0.9042099 0.8177962
vt 0.9349725 0.8177962
vt 0.9649148 0.8177962
vt 0.9921589 0.8177962
vt 0.8415613 0.8177962
vt 0.8343513 0.8177962
vt 0.8260431 0.8177962
vt 0.8180332 0.8177962
vt 0.8105686 0.8177962
vt 0.8001595 0.8177962
vt 0.7931095 0.8175902
vt 0.7879294 0.814645
vt 0.7875156 0.817453
vt 0.7819217 0.8168675
vt 0.7820787 0.8142151
vt 0.7818939 0.8116335
vt 0.7824426 0.8093662
vt 0.7770998 0.8113126
vt 0.7879292 0.814645
vt 0.7879982 0.8118672
vt 0.7937799 0.8147664
vt 0.7941024 0.8119565
vt 0.8009081 0.8154847
vt 0.8014333 0.8131732
vt 0.8105686 0.8154847
vt 0.8105686 0.8131732
vt 0.8180333 0.8154847
vt 0.8180333 0.8131732
vt 0.8260431 0.8154847
vt 0.8260431 0.8131732
vt 0.8343512 0.8154847
vt 0.8343512 0.8131732
vt 0.8415614 0.8154847
vt 0.8415614 0.8131732
vt 0.8343512 0.8108618
vt 0.8415614 0.8108618
vt 0.8260431 0.8108618
vt 0.8180333 0.8108618
vt 0.8105686 0.8108618
vt 0.8011941 0.8108618
vt 0.7941878 0.8092083
vt 0.8343512 0.8085503
vt 0.8415614 0.8085503
vt 0.8260431 0.8085503
vt 0.8180333 0.8085503
vt 0.8105686 0.8085503
vt 0.8001589 0.8085503
vt 0.7931505 0.8064899
vt 0.8486857 0.8108618
vt 0.8486857 0.8085503
vt 0.859606 0.8108618
vt 0.859606 0.8131732
vt 0.8780783 0.8131732
vt 0.8780783 0.8154847
vt 0.9042099 0.8154847
vt 0.9042099 0.8131732
vt 0.9349725 0.8154847
vt 0.9349725 0.8131732
vt 0.9649147 0.8154847
vt 0.9649147 0.8131732
vt 0.9921588 0.8154847
vt 0.9921588 0.8131732
vt 0.859606 0.8154847
vt 0.8486857 0.8131732
vt 0.8486857 0.8154847
vt 0.9649147 0.8108618
vt 0.9921588 0.8108618
vt 0.9349725 0.8108618
vt 0.9042099 0.8108618
vt 0.8780783 0.8108618
vt 0.9649147 0.8085503
vt 0.9921588 0.8085503
vt 0.9349725 0.8085503
vt 0.9042099 0.8085503
vt 0.8780783 0.8085503
vt 0.859606 0.8085503
vt 0.8415614 0.8177962
vt 0.8343512 0.8177962
vt 0.8260431 0.8177962
vt 0.8180333 0.8177962
vt 0.8105686 0.8177962
vt 0.8001595 0.8177962
vt 0.7931097 0.8175902
vt 0.8486857 0.8177962
vt 0.859606 0.8177962
vt 0.8780783 0.8177962
vt 0.9042099 0.8177962
vt 0.9349725 0.8177962
vt 0.9649147 0.8177962
vt 0.9921589 0.8177962
vt 0.7875157 0.817453
vt 0.7819217 0.8168675
vt 0.7875773 0.806646
vt 0.7820042 0.8072502
vt 0.7883151 0.8092241
vt 0.7875775 0.806646
vt 0.7820043 0.8072502
vn -0.7187365 0.4145569 0.558176
vn -0.9839648 0.08124279 0.1587856
vn -0.8649738 0.4003437 -0.3025644
vn -0.5534634 0.8319592 0.0390146
vn -0.1944462 0.9807881 -0.01566042
vn -0.7402105 0.378315 -0.5558472
vn 0.2266527 0.9710922 -0.07488956
vn -0.5808581 0.2959745 -0.7582896
vn 0.5348574 0.8376122 -0.1110555
vn -0.05208594 0.2763164 0.9596543
vn 0.04687003 0.256022 0.965534
vn 0.8498936 0.513754 -0.1172078
vn 0.118697 0.3137594 0.9420542
vn 0.997339 0.06618784 -0.03056195
vn 0.1854518 0.4286549 0.8842299
vn 0.9266832 -0.3319784 0.1762057
vn 0.2753704 0.5343829 0.7991284
vn 0.617632 -0.6106199 0.4956552
vn 0.4471556 0.5895284 0.6726872
vn 0.2334817 -0.6564022 0.7173719
vn -0.196096 0.3104795 0.9301338
vn -0.4593614 -0.5411467 -0.7043774
vn -0.6316577 -0.5670449 -0.5286478
vn -0.2397885 -0.4358945 -0.8674662
vn -0.172646 -0.2651314 -0.9486299
vn -0.2702076 -0.04508066 -0.9617462
vn -0.4365872 0.1754778 -0.8823826
vn -0.7479122 0.5753685 -0.3310263
vn -0.4483795 0.6834999 -0.5760068
vn -0.9376245 0.319951 -0.1359842
vn -0.9992549 -0.009262864 0.0374677
vn -0.962509 -0.2330263 0.1388352
vn -0.9363217 -0.2982103 0.1853975
vn -0.9409084 -0.275954 0.1963177
vn -0.6850202 -0.5781597 -0.4432591
vn -0.1129968 0.6171421 -0.7786959
vn -0.6801216 -0.6304436 -0.374133
vn -0.04996936 -0.4781323 0.8768652
vn -0.0448678 -0.3536543 0.9342995
vn 0.6808308 0.6618993 0.313622
vn 0.6557391 0.7239637 0.2142026
vn 0.01419666 -0.2362338 0.9715925
vn 0.6271935 0.7740791 0.08619629
vn 0.08026524 -0.1341025 0.9877115
vn 0.5990979 0.8005708 -0.01296189
vn 0.1299782 -0.06340868 0.9894872
vn 0.5894912 0.8056883 -0.05802158
vn 0.1610118 -0.03075219 0.9864733
vn 0.6854954 0.6116356 0.3949658
vn 0.0317689 -0.5809584 0.8133131
vn 0.6138148 0.6009751 0.5119182
vn -0.5496228 -0.8352237 0.01777524
vn -0.5260289 -0.8495283 0.0399394
vn -0.5817966 -0.8125061 -0.03669478
vn -0.6223574 -0.7709281 -0.1354297
vn -0.6593267 -0.7028323 -0.2670487
vn -0.07291775 0.04163237 -0.9964686
vn -0.0789255 0.0130503 -0.9967951
vn -0.0344878 0.1072803 -0.9936305
vn 0.02513211 0.2150609 -0.9762772
vn 0.0762603 0.3393427 -0.9375665
vn 0.05640605 0.4712641 -0.8801867
vn -0.1129968 0.6171421 -0.7786959
vn 0.05640605 0.4712641 -0.8801867
vn 0.0762603 0.3393427 -0.9375665
vn 0.02513211 0.2150609 -0.9762772
vn -0.0344878 0.1072803 -0.9936305
vn -0.07291775 0.04163237 -0.9964686
vn -0.0789255 0.0130503 -0.9967951
vn -0.4483795 0.6834999 -0.5760068
vn -0.7479122 0.5753685 -0.3310263
vn -0.9376245 0.319951 -0.1359842
vn -0.9992549 -0.009262864 0.0374677
vn -0.962509 -0.2330263 0.1388352
vn -0.9363217 -0.2982103 0.1853975
vn -0.9409084 -0.275954 0.1963177
vn -0.4677747 0.3916152 0.7923537
vn -0.9731058 -0.1394214 0.183376
vn -0.9839648 0.08124279 0.1587856
vn 0.7187449 0.4145454 0.5581737
vn 0.5534604 0.8319615 0.03900975
vn 0.8649715 0.4003404 -0.3025753
vn 0.9839673 0.08123577 0.1587736
vn 0.4677773 0.3916038 0.7923578
vn 0.1944355 0.9807903 -0.01566185
vn 0.1960963 0.3104664 0.9301381
vn -0.2266666 0.9710893 -0.0748852
vn 0.05208657 0.2763092 0.9596563
vn -0.5348624 0.8376098 -0.11105
vn -0.04686916 0.2560194 0.9655347
vn -0.849894 0.5137544 -0.1172031
vn -0.1186957 0.3137567 0.9420552
vn -0.9973391 0.06618748 -0.03055891
vn -0.185449 0.4286523 0.8842318
vn -0.9266823 -0.3319804 0.1762072
vn -0.2753657 0.5343811 0.7991312
vn -0.6176326 -0.6106223 0.4956514
vn -0.4471495 0.5895285 0.6726912
vn -0.233489 -0.6564091 0.7173632
vn 0.4593602 -0.541147 -0.7043779
vn 0.6316552 -0.5670452 -0.5286506
vn 0.2397883 -0.4358946 -0.8674661
vn 0.1726454 -0.2651302 -0.9486303
vn 0.2702053 -0.045078 -0.9617469
vn 0.4365827 0.1754785 -0.8823848
vn 0.5808489 0.2959721 -0.7582974
vn 0.7479147 0.5753689 -0.3310199
vn 0.4483875 0.6835055 -0.5759937
vn 0.9376255 0.3199492 -0.1359815
vn 0.9992549 -0.009263039 0.03746767
vn 0.962509 -0.2330268 0.1388343
vn 0.9363214 -0.2982141 0.1853928
vn 0.9409075 -0.2759628 0.1963096
vn 0.6850172 -0.5781605 -0.4432627
vn 0.1130122 0.617157 -0.7786819
vn 0.6801193 -0.6304439 -0.3741366
vn 0.04995645 -0.478149 0.8768568
vn 0.04485979 -0.3536677 0.9342948
vn -0.6808293 0.6618987 0.3136267
vn -0.6557381 0.7239636 0.2142059
vn -0.01419797 -0.2362406 0.9715908
vn -0.6271939 0.7740788 0.08619703
vn -0.08026437 -0.1341055 0.9877112
vn -0.5990995 0.8005697 -0.01296172
vn -0.1299773 -0.06341069 0.9894872
vn -0.5894933 0.8056867 -0.05802224
vn -0.1610106 -0.030754 0.9864734
vn -0.6854921 0.6116351 0.3949722
vn -0.0317817 -0.580972 0.8133029
vn -0.613809 0.6009759 0.5119242
vn 0.5496241 -0.835223 0.01777204
vn 0.5260311 -0.8495272 0.039935
vn 0.5817985 -0.8125046 -0.03669829
vn 0.6223595 -0.7709258 -0.135433
vn 0.6593269 -0.7028307 -0.2670524
vn 0.07291622 0.04163336 -0.9964687
vn 0.07892361 0.01305114 -0.9967952
vn 0.03448915 0.1072836 -0.9936301
vn -0.02512583 0.2150696 -0.9762754
vn -0.07624889 0.3393572 -0.9375622
vn -0.0563914 0.4712819 -0.8801781
vn 0.4483875 0.6835055 -0.5759937
vn 0.7479147 0.5753689 -0.3310199
vn 0.9376255 0.3199492 -0.1359815
vn 0.9992549 -0.009263039 0.03746767
vn 0.962509 -0.2330268 0.1388343
vn 0.9363214 -0.2982141 0.1853928
vn 0.9409075 -0.2759628 0.1963096
vn 0.1130122 0.617157 -0.7786819
vn -0.0563914 0.4712819 -0.8801781
vn -0.07624889 0.3393572 -0.9375622
vn -0.02512583 0.2150696 -0.9762754
vn 0.03448915 0.1072836 -0.9936301
vn 0.07291622 0.04163336 -0.9964687
vn 0.07892361 0.01305114 -0.9967952
vn 0.9731067 -0.1394318 0.1833635
vn 0.9839673 0.08123577 0.1587736
vn -0.9731058 -0.1394214 0.183376
vn -0.9839648 0.08124279 0.1587856
vn 0.7402017 0.3783143 -0.5558593
vn 0.9731067 -0.1394318 0.1833635
vn 0.9839673 0.08123577 0.1587736
g pm0130_00_MustacheSkin_0
f 3/3/3 2/2/2 1/1/1
f 4/4/4 3/3/3 1/1/1
f 3/3/3 4/4/4 5/5/5
f 6/6/6 3/3/3 5/5/5
f 6/6/6 5/5/5 7/7/7
f 8/8/8 6/6/6 7/7/7
f 8/8/8 7/7/7 9/9/9
f 9/9/9 7/7/7 10/10/10
f 9/9/9 10/10/10 11/11/11
f 12/12/12 9/9/9 11/11/11
f 12/12/12 11/11/11 13/13/13
f 14/14/14 12/12/12 13/13/13
f 14/14/14 13/13/13 15/15/15
f 16/16/16 14/14/14 15/15/15
f 16/16/16 15/15/15 17/17/17
f 18/18/18 16/16/16 17/17/17
f 18/18/18 17/17/17 19/19/19
f 20/20/20 18/18/18 19/19/19
f 7/7/7 21/21/21 10/10/10
f 22/22/22 18/18/18 20/20/20
f 23/23/23 22/22/22 20/20/20
f 24/24/24 16/16/16 18/18/18
f 22/22/22 24/24/24 18/18/18
f 25/25/25 14/14/14 16/16/16
f 24/24/24 25/25/25 16/16/16
f 26/26/26 12/12/12 14/14/14
f 25/25/25 26/26/26 14/14/14
f 26/26/26 27/27/27 12/12/12
f 27/27/27 9/9/9 12/12/12
f 27/27/27 8/8/8 9/9/9
f 28/28/28 22/22/22 23/23/23
f 29/29/29 28/28/28 23/23/23
f 30/30/30 24/24/24 22/22/22
f 28/28/28 30/30/30 22/22/22
f 31/31/31 25/25/25 24/24/24
f 30/30/30 31/31/31 24/24/24
f 32/32/32 26/26/26 25/25/25
f 31/31/31 32/32/32 25/25/25
f 33/33/33 27/27/27 26/26/26
f 32/32/32 33/33/33 26/26/26
f 34/34/34 8/8/8 27/27/27
f 33/33/33 34/34/34 27/27/27
f 29/29/29 23/23/23 35/35/35
f 36/36/36 29/29/29 35/35/35
f 35/35/35 37/37/37 36/36/36
f 38/38/38 37/37/37 35/35/35
f 37/37/37 38/38/38 39/39/39
f 39/39/39 38/38/38 40/40/40
f 39/39/39 40/40/40 41/41/41
f 42/42/42 39/39/39 41/41/41
f 42/42/42 41/41/41 43/43/43
f 44/44/44 42/42/42 43/43/43
f 44/44/44 43/43/43 45/45/45
f 46/46/46 44/44/44 45/45/45
f 46/46/46 45/45/45 47/47/47
f 48/48/48 46/46/46 47/47/47
f 38/38/38 49/49/49 40/40/40
f 49/49/49 38/38/38 50/50/50
f 50/50/50 38/38/38 35/35/35
f 51/51/51 49/49/49 50/50/50
f 52/52/52 46/46/46 48/48/48
f 53/53/53 52/52/52 48/48/48
f 54/54/54 44/44/44 46/46/46
f 52/52/52 54/54/54 46/46/46
f 55/55/55 42/42/42 44/44/44
f 54/54/54 55/55/55 44/44/44
f 55/55/55 56/56/56 42/42/42
f 56/56/56 39/39/39 42/42/42
f 56/56/56 37/37/37 39/39/39
f 57/57/57 52/52/52 53/53/53
f 58/58/58 57/57/57 53/53/53
f 59/59/59 54/54/54 52/52/52
f 57/57/57 59/59/59 52/52/52
f 60/60/60 55/55/55 54/54/54
f 59/59/59 60/60/60 54/54/54
f 61/61/61 56/56/56 55/55/55
f 60/60/60 61/61/61 55/55/55
f 62/62/62 37/37/37 56/56/56
f 61/61/61 62/62/62 56/56/56
f 37/37/37 62/62/62 36/36/36
f 50/50/50 20/20/20 51/51/51
f 23/23/23 20/20/20 50/50/50
f 35/35/35 23/23/23 50/50/50
f 20/20/20 19/19/19 51/51/51
f 51/51/51 19/19/19 63/63/63
f 63/63/63 64/64/64 51/51/51
f 64/64/64 49/49/49 51/51/51
f 49/49/49 64/64/64 65/65/65
f 40/40/40 49/49/49 65/65/65
f 40/40/40 65/65/65 66/66/66
f 41/41/41 40/40/40 66/66/66
f 41/41/41 66/66/66 67/67/67
f 43/43/43 41/41/41 67/67/67
f 43/43/43 67/67/67 68/68/68
f 45/45/45 43/43/43 68/68/68
f 45/45/45 68/68/68 69/69/69
f 47/47/47 45/45/45 69/69/69
f 19/19/19 70/70/70 63/63/63
f 19/19/19 17/17/17 70/70/70
f 17/17/17 71/71/71 70/70/70
f 17/17/17 15/15/15 71/71/71
f 15/15/15 72/72/72 71/71/71
f 15/15/15 13/13/13 72/72/72
f 13/13/13 73/73/73 72/72/72
f 13/13/13 11/11/11 73/73/73
f 11/11/11 74/74/74 73/73/73
f 11/11/11 10/10/10 74/74/74
f 10/10/10 75/75/75 74/74/74
f 10/10/10 21/21/21 75/75/75
f 21/21/21 76/76/76 75/75/75
f 21/21/21 77/77/77 76/76/76
f 77/77/77 78/78/78 76/76/76
f 5/5/5 77/77/77 21/21/21
f 7/7/7 5/5/5 21/21/21
f 77/77/77 1/1/1 78/78/78
f 1/1/1 79/79/79 78/78/78
f 4/4/4 1/1/1 77/77/77
f 5/5/5 4/4/4 77/77/77
f 82/82/82 81/81/81 80/80/80
f 83/83/83 82/82/82 80/80/80
f 80/80/80 81/81/81 84/84/84
f 81/81/81 85/85/85 84/84/84
f 84/84/84 85/85/85 86/86/86
f 85/85/85 87/87/87 86/86/86
f 86/86/86 87/87/87 88/88/88
f 87/87/87 89/89/89 88/88/88
f 88/88/88 89/89/89 90/90/90
f 89/89/89 91/91/91 90/90/90
f 90/90/90 91/91/91 92/92/92
f 91/91/91 93/93/93 92/92/92
f 92/92/92 93/93/93 94/94/94
f 93/93/93 95/95/95 94/94/94
f 94/94/94 95/95/95 96/96/96
f 95/95/95 97/97/97 96/96/96
f 96/96/96 97/97/97 98/98/98
f 97/97/97 99/99/99 98/98/98
f 97/97/97 100/100/100 99/99/99
f 100/100/100 101/101/101 99/99/99
f 102/102/102 100/100/100 97/97/97
f 95/95/95 102/102/102 97/97/97
f 103/103/103 102/102/102 95/95/95
f 93/93/93 103/103/103 95/95/95
f 104/104/104 103/103/103 93/93/93
f 91/91/91 104/104/104 93/93/93
f 105/105/105 104/104/104 91/91/91
f 89/89/89 105/105/105 91/91/91
f 106/106/106 105/105/105 89/89/89
f 87/87/87 106/106/106 89/89/89
f 100/100/100 107/107/107 101/101/101
f 107/107/107 108/108/108 101/101/101
f 109/109/109 107/107/107 100/100/100
f 102/102/102 109/109/109 100/100/100
f 110/110/110 109/109/109 102/102/102
f 103/103/103 110/110/110 102/102/102
f 111/111/111 110/110/110 103/103/103
f 104/104/104 111/111/111 103/103/103
f 112/112/112 111/111/111 104/104/104
f 105/105/105 112/112/112 104/104/104
f 113/113/113 112/112/112 105/105/105
f 106/106/106 113/113/113 105/105/105
f 101/101/101 108/108/108 114/114/114
f 108/108/108 115/115/115 114/114/114
f 116/116/116 114/114/114 115/115/115
f 116/116/116 117/117/117 114/114/114
f 117/117/117 116/116/116 118/118/118
f 117/117/117 118/118/118 119/119/119
f 119/119/119 118/118/118 120/120/120
f 118/118/118 121/121/121 120/120/120
f 120/120/120 121/121/121 122/122/122
f 121/121/121 123/123/123 122/122/122
f 122/122/122 123/123/123 124/124/124
f 123/123/123 125/125/125 124/124/124
f 124/124/124 125/125/125 126/126/126
f 125/125/125 127/127/127 126/126/126
f 128/128/128 117/117/117 119/119/119
f 117/117/117 128/128/128 129/129/129
f 117/117/117 129/129/129 114/114/114
f 128/128/128 130/130/130 129/129/129
f 125/125/125 131/131/131 127/127/127
f 131/131/131 132/132/132 127/127/127
f 133/133/133 131/131/131 125/125/125
f 123/123/123 133/133/133 125/125/125
f 134/134/134 133/133/133 123/123/123
f 121/121/121 134/134/134 123/123/123
f 135/135/135 134/134/134 121/121/121
f 118/118/118 135/135/135 121/121/121
f 116/116/116 135/135/135 118/118/118
f 131/131/131 136/136/136 132/132/132
f 136/136/136 137/137/137 132/132/132
f 138/138/138 136/136/136 131/131/131
f 133/133/133 138/138/138 131/131/131
f 139/139/139 138/138/138 133/133/133
f 134/134/134 139/139/139 133/133/133
f 140/140/140 139/139/139 134/134/134
f 135/135/135 140/140/140 134/134/134
f 141/141/141 140/140/140 135/135/135
f 116/116/116 141/141/141 135/135/135
f 141/141/141 116/116/116 115/115/115
f 99/99/99 129/129/129 130/130/130
f 98/98/98 99/99/99 130/130/130
f 96/96/96 98/98/98 142/142/142
f 143/143/143 96/96/96 142/142/142
f 94/94/94 96/96/96 143/143/143
f 144/144/144 94/94/94 143/143/143
f 92/92/92 94/94/94 144/144/144
f 145/145/145 92/92/92 144/144/144
f 90/90/90 92/92/92 145/145/145
f 146/146/146 90/90/90 145/145/145
f 88/88/88 90/90/90 146/146/146
f 147/147/147 88/88/88 146/146/146
f 86/86/86 88/88/88 147/147/147
f 148/148/148 86/86/86 147/147/147
f 142/142/142 98/98/98 149/149/149
f 98/98/98 130/130/130 149/149/149
f 150/150/150 149/149/149 130/130/130
f 128/128/128 150/150/150 130/130/130
f 150/150/150 128/128/128 151/151/151
f 128/128/128 119/119/119 151/151/151
f 151/151/151 119/119/119 152/152/152
f 119/119/119 120/120/120 152/152/152
f 152/152/152 120/120/120 153/153/153
f 120/120/120 122/122/122 153/153/153
f 153/153/153 122/122/122 154/154/154
f 122/122/122 124/124/124 154/154/154
f 154/154/154 124/124/124 155/155/155
f 124/124/124 126/126/126 155/155/155
f 148/148/148 156/156/156 86/86/86
f 156/156/156 84/84/84 86/86/86
f 156/156/156 157/157/157 84/84/84
f 157/157/157 80/80/80 84/84/84
f 101/101/101 114/114/114 129/129/129
f 99/99/99 101/101/101 129/129/129
f 158/158/158 6/6/6 8/8/8
f 34/34/34 158/158/158 8/8/8
f 158/158/158 159/159/159 6/6/6
f 159/159/159 3/3/3 6/6/6
f 85/85/85 160/160/160 106/106/106
f 87/87/87 85/85/85 106/106/106
f 106/106/106 160/160/160 113/113/113
f 160/160/160 161/161/161 113/113/113
f 85/85/85 81/81/81 160/160/160
f 81/81/81 82/82/82 160/160/160
f 160/160/160 82/82/82 161/161/161
f 82/82/82 162/162/162 161/161/161
