g pm0111_01_HornSkin
v -0.0366178 0.2932837 0.7904471
v -3.916893E-18 0.3011209 0.7851495
v 7.699101E-10 0.3101612 0.814595
v -0.02950111 0.3042822 0.8193791
v -0.06342389 0.2718719 0.8049203
v -0.05109741 0.2882209 0.8324492
v -0.07323559 0.2426229 0.8246912
v -0.05900221 0.2662804 0.8503034
v -0.06342389 0.2133739 0.8444622
v -0.05109741 0.2443401 0.8681577
v -0.03661779 0.1919621 0.8589354
v -0.0295011 0.2282787 0.8812279
v 7.699101E-10 0.2223998 0.886012
v 4.599349E-18 0.1841248 0.864233
v -1.656865E-18 0.3203697 0.8492996
v -0.01883753 0.316806 0.8525401
v -0.03262755 0.307076 0.8613871
v -0.03767506 0.2937824 0.8734747
v -0.03262755 0.2804887 0.8855624
v -0.01883753 0.270757 0.8944111
v -3.088308E-18 0.267195 0.89765
v -1.268637E-18 0.3292332 0.8785213
v -0.008451608 0.3276613 0.8800111
v -0.01463861 0.3233945 0.8840545
v -6.481266E-08 0.3347251 0.8973697
v -0.01690322 0.3175559 0.8895878
v -0.01463861 0.311717 0.8951213
v -6.481266E-08 0.3347251 0.8973697
v -0.008451608 0.3074431 0.8991719
v -1.461662E-18 0.3058785 0.9006545
v -6.481266E-08 0.3347251 0.8973697
v 0.0366178 0.2932837 0.7904471
v 0.02950111 0.3042822 0.8193791
v 7.699101E-10 0.3101612 0.814595
v -3.916893E-18 0.3011209 0.7851495
v 0.06342389 0.2718719 0.8049203
v 0.05109741 0.2882209 0.8324492
v 0.07323559 0.2426229 0.8246912
v 0.05900222 0.2662804 0.8503034
v 0.06342389 0.2133739 0.8444622
v 0.05109741 0.2443401 0.8681577
v 0.03661779 0.1919621 0.8589354
v 0.02950111 0.2282787 0.8812279
v 7.699101E-10 0.2223998 0.886012
v 4.599349E-18 0.1841248 0.864233
v -1.656865E-18 0.3203697 0.8492996
v 0.01883753 0.316806 0.8525401
v 0.03262755 0.307076 0.8613871
v 0.03767506 0.2937824 0.8734747
v 0.03262755 0.2804887 0.8855624
v 0.01883753 0.270757 0.8944111
v -3.088308E-18 0.267195 0.89765
v -1.268637E-18 0.3292332 0.8785213
v 0.008451608 0.3276613 0.8800111
v 0.01463861 0.3233945 0.8840545
v 0.01690322 0.3175559 0.8895878
v 0.01463861 0.311717 0.8951213
v -6.481266E-08 0.3347251 0.8973697
v 0.008451608 0.3074431 0.8991719
v -1.461662E-18 0.3058785 0.9006545
v -6.481266E-08 0.3347251 0.8973697
v 0.01463861 0.3233945 0.8840545
v -6.481266E-08 0.3347251 0.8973697
v 0.01463861 0.3233945 0.8840545
vt 0.565612 0.6302762
vt 0.5759113 0.606065
vt 0.5596733 0.5792454
vt 0.5514513 0.5976224
vt 0.5547317 0.652817
vt 0.5423207 0.6131039
vt 0.542875 0.6723628
vt 0.5325055 0.6251637
vt 0.5295659 0.6875081
vt 0.5220858 0.6336787
vt 0.5148878 0.6969035
vt 0.5111459 0.6387167
vt 0.5 0.6403775
vt 0.5 0.7000101
vt 0.5375959 0.544111
vt 0.5326274 0.5560312
vt 0.5268542 0.5654508
vt 0.5205566 0.5722694
vt 0.5139004 0.5767376
vt 0.5069848 0.5792375
vt 0.5 0.580039
vt 0.5134033 0.512342
vt 0.5117655 0.5166237
vt 0.5097773 0.5199902
vt 0.5072817 0.5053645
vt 0.5075842 0.5226479
vt 0.5051268 0.5242949
vt 0.5053554 0.5069947
vt 0.5025786 0.5255378
vt 0.5 0.5258313
vt 0.5011371 0.5081238
vt 0.565612 0.6302762
vt 0.5514513 0.5976224
vt 0.5596733 0.5792454
vt 0.5759113 0.606065
vt 0.5547317 0.652817
vt 0.5423207 0.6131039
vt 0.542875 0.6723628
vt 0.5325055 0.6251637
vt 0.5295659 0.6875081
vt 0.5220858 0.6336787
vt 0.5148878 0.6969035
vt 0.5111459 0.6387167
vt 0.5 0.6403775
vt 0.5 0.7000101
vt 0.5375959 0.544111
vt 0.5326274 0.5560312
vt 0.5268542 0.5654508
vt 0.5205566 0.5722694
vt 0.5139004 0.5767376
vt 0.5069848 0.5792375
vt 0.5 0.580039
vt 0.5134033 0.512342
vt 0.5117655 0.5166237
vt 0.5097773 0.5199902
vt 0.5075842 0.5226479
vt 0.5051268 0.5242949
vt 0.5053554 0.5069947
vt 0.5025786 0.5255378
vt 0.5 0.5258313
vt 0.5011371 0.5081238
vt 0.5097773 0.5199902
vt 0.5072817 0.5053645
vt 0.5097773 0.5199902
vn -0.4368329 0.8894979 -0.134054
vn 0 0.9765819 -0.2151458
vn 0 0.9781398 -0.2079484
vn -0.4260842 0.8961236 -0.124156
vn -0.7567255 0.6478721 0.08733981
vn -0.7361678 0.6688392 0.1034943
vn -0.8679134 0.3135691 0.3852282
vn -0.8414084 0.3550618 0.4073857
vn -0.7407106 -0.0183249 0.6715744
vn -0.7157071 0.04433096 0.6969922
vn -0.4210735 -0.2553452 0.8703424
vn -0.4059184 -0.1770968 0.8965863
vn 2.73157E-07 -0.2563003 0.9665972
vn 1.3895E-07 -0.3402266 0.9403435
vn 0 0.9914421 -0.1305473
vn -0.387824 0.9205042 -0.04758864
vn -0.6662145 0.7247401 0.1758124
vn -0.7557163 0.4565073 0.4695679
vn -0.6383965 0.1930749 0.7450985
vn -0.3604411 0.006489672 0.9327594
vn 2.793955E-07 -0.06005328 0.9981952
vn -2.391901E-07 0.9913894 0.1309465
vn -0.2784894 0.9406141 0.1941359
vn -0.473985 0.8027043 0.3619449
vn -4.590411E-07 0.7453885 0.6666303
vn -0.5323972 0.617876 0.5786039
vn -0.4467138 0.439487 0.7792932
vn -4.590411E-07 0.7453885 0.6666303
vn -0.2514164 0.3142484 0.915444
vn 1.568158E-07 0.2696999 0.9629444
vn -4.590411E-07 0.7453885 0.6666303
vn 0.4368327 0.889498 -0.134054
vn 0.4260842 0.8961236 -0.1241558
vn 0 0.9781398 -0.2079484
vn 0 0.9765819 -0.2151458
vn 0.7567254 0.6478722 0.08733953
vn 0.7361676 0.6688395 0.1034943
vn 0.8679135 0.3135692 0.3852279
vn 0.8414083 0.355062 0.4073855
vn 0.7407109 -0.01832483 0.671574
vn 0.7157074 0.04433095 0.6969919
vn 0.4210739 -0.2553453 0.8703421
vn 0.4059188 -0.1770967 0.8965861
vn 2.73157E-07 -0.2563003 0.9665972
vn 1.3895E-07 -0.3402266 0.9403435
vn 0 0.9914421 -0.1305473
vn 0.3878238 0.9205043 -0.04758808
vn 0.666214 0.7247404 0.1758129
vn 0.7557158 0.4565076 0.4695683
vn 0.6383967 0.1930752 0.7450984
vn 0.3604416 0.006489811 0.9327592
vn 2.793955E-07 -0.06005328 0.9981952
vn -2.391901E-07 0.9913894 0.1309465
vn 0.278489 0.9406142 0.1941361
vn 0.4739842 0.8027045 0.3619455
vn 0.5323966 0.6178763 0.5786042
vn 0.4467136 0.4394873 0.7792931
vn -4.590411E-07 0.7453885 0.6666303
vn 0.2514165 0.3142485 0.915444
vn 1.568158E-07 0.2696999 0.9629444
vn -4.590411E-07 0.7453885 0.6666303
vn 0.4739842 0.8027045 0.3619455
vn -4.590411E-07 0.7453885 0.6666303
vn 0.4739842 0.8027045 0.3619455
g pm0111_01_HornSkin_0
f 3/3/3 2/2/2 1/1/1
f 4/4/4 3/3/3 1/1/1
f 4/4/4 1/1/1 5/5/5
f 6/6/6 4/4/4 5/5/5
f 6/6/6 5/5/5 7/7/7
f 8/8/8 6/6/6 7/7/7
f 8/8/8 7/7/7 9/9/9
f 10/10/10 8/8/8 9/9/9
f 10/10/10 9/9/9 11/11/11
f 12/12/12 10/10/10 11/11/11
f 12/12/12 11/11/11 13/13/13
f 11/11/11 14/14/14 13/13/13
f 15/15/15 3/3/3 4/4/4
f 16/16/16 15/15/15 4/4/4
f 16/16/16 4/4/4 6/6/6
f 17/17/17 16/16/16 6/6/6
f 17/17/17 6/6/6 8/8/8
f 18/18/18 17/17/17 8/8/8
f 18/18/18 8/8/8 10/10/10
f 19/19/19 18/18/18 10/10/10
f 19/19/19 10/10/10 12/12/12
f 20/20/20 19/19/19 12/12/12
f 12/12/12 13/13/13 21/21/21
f 20/20/20 12/12/12 21/21/21
f 22/22/22 15/15/15 16/16/16
f 23/23/23 22/22/22 16/16/16
f 23/23/23 16/16/16 17/17/17
f 24/24/24 23/23/23 17/17/17
f 24/24/24 17/17/17 18/18/18
f 23/23/23 24/24/24 25/25/25
f 22/22/22 23/23/23 25/25/25
f 26/26/26 24/24/24 18/18/18
f 26/26/26 18/18/18 19/19/19
f 27/27/27 26/26/26 19/19/19
f 27/27/27 19/19/19 20/20/20
f 26/26/26 27/27/27 28/28/28
f 24/24/24 26/26/26 28/28/28
f 29/29/29 27/27/27 20/20/20
f 20/20/20 21/21/21 30/30/30
f 29/29/29 20/20/20 30/30/30
f 29/29/29 30/30/30 31/31/31
f 27/27/27 29/29/29 31/31/31
f 34/34/34 33/33/33 32/32/32
f 35/35/35 34/34/34 32/32/32
f 32/32/32 33/33/33 36/36/36
f 33/33/33 37/37/37 36/36/36
f 36/36/36 37/37/37 38/38/38
f 37/37/37 39/39/39 38/38/38
f 38/38/38 39/39/39 40/40/40
f 39/39/39 41/41/41 40/40/40
f 40/40/40 41/41/41 42/42/42
f 41/41/41 43/43/43 42/42/42
f 42/42/42 43/43/43 44/44/44
f 45/45/45 42/42/42 44/44/44
f 34/34/34 46/46/46 33/33/33
f 46/46/46 47/47/47 33/33/33
f 33/33/33 47/47/47 37/37/37
f 47/47/47 48/48/48 37/37/37
f 37/37/37 48/48/48 39/39/39
f 48/48/48 49/49/49 39/39/39
f 39/39/39 49/49/49 41/41/41
f 49/49/49 50/50/50 41/41/41
f 41/41/41 50/50/50 43/43/43
f 50/50/50 51/51/51 43/43/43
f 43/43/43 51/51/51 52/52/52
f 44/44/44 43/43/43 52/52/52
f 46/46/46 53/53/53 47/47/47
f 53/53/53 54/54/54 47/47/47
f 47/47/47 54/54/54 48/48/48
f 54/54/54 55/55/55 48/48/48
f 48/48/48 55/55/55 49/49/49
f 55/55/55 56/56/56 49/49/49
f 49/49/49 56/56/56 50/50/50
f 56/56/56 57/57/57 50/50/50
f 50/50/50 57/57/57 51/51/51
f 57/57/57 56/56/56 58/58/58
f 57/57/57 59/59/59 51/51/51
f 51/51/51 59/59/59 60/60/60
f 52/52/52 51/51/51 60/60/60
f 60/60/60 59/59/59 61/61/61
f 59/59/59 57/57/57 61/61/61
f 56/56/56 62/62/62 58/58/58
f 54/54/54 53/53/53 63/63/63
f 64/64/64 54/54/54 63/63/63
