g pm0105_61_L_FireAStenSkin
v 0.4594614 0.7718089 0.5041233
v 0.4618078 0.7707943 0.5081874
v 0.4568579 0.7579069 0.5167606
v 0.4499714 0.7582055 0.5096025
v 0.4665003 0.7718089 0.5081874
v 0.4665003 0.7582055 0.519145
v 0.4665005 0.7755288 0.5000597
v 0.4472154 0.7579069 0.5000597
v 0.457115 0.7707943 0.5000597
v 0.4594614 0.7718089 0.4959959
v 0.4499714 0.7582055 0.4905166
v 0.4665005 0.7755288 0.5000597
v 0.4568579 0.7579069 0.4833585
v 0.4618078 0.7707943 0.4919318
v 0.4665003 0.7718089 0.4919318
v 0.4665003 0.7582055 0.4809741
v 0.4665005 0.7755288 0.5000597
v 0.4761427 0.7579069 0.5167606
v 0.471193 0.7707943 0.5081874
v 0.4735394 0.7718089 0.5041233
v 0.4830292 0.7582055 0.5096025
v 0.4857852 0.7579069 0.5000597
v 0.4758857 0.7707943 0.5000597
v 0.4735394 0.7718089 0.4959959
v 0.4830292 0.7582055 0.4905166
v 0.4761427 0.7579069 0.4833585
v 0.471193 0.7707943 0.4919318
v 0.4665003 0.7718089 0.4919318
v 0.4665003 0.7582055 0.4809741
v 0.4665005 0.7755288 0.5000597
v 0.4665005 0.7755288 0.5000597
v 0.5083184 0.650641 0.475916
v 0.4903964 0.650641 0.4586708
v 0.5042004 0.5522094 0.4347615
v 0.5324754 0.5522094 0.461969
v 0.5419006 0.5522094 0.5000598
v 0.5142924 0.650641 0.5000599
v 0.5083184 0.650641 0.5242035
v 0.5324754 0.5522094 0.5381507
v 0.5042004 0.5522094 0.5653581
v 0.4903964 0.650641 0.5414488
v 0.4665002 0.650641 0.4517729
v 0.4665002 0.5522094 0.423879
v 0.4665002 0.650641 0.5483465
v 0.4426041 0.650641 0.5414488
v 0.4246821 0.650641 0.5242035
v 0.4288 0.5522094 0.5653581
v 0.4005249 0.5522094 0.5381507
v 0.3910998 0.5522094 0.5000598
v 0.418708 0.650641 0.5000599
v 0.4246821 0.650641 0.475916
v 0.4005249 0.5522094 0.461969
v 0.4288 0.5522094 0.4347615
v 0.4426041 0.650641 0.4586708
v 0.4665002 0.650641 0.4517729
v 0.4665002 0.5522094 0.423879
v 0.4662987 0.4522087 0.3983651
v 0.4159918 0.4523515 0.412899
v 0.4665002 0.3510489 0.3838493
v 0.4089902 0.3510489 0.4004498
v 0.4662822 0.2521717 0.3719498
v 0.4029147 0.2520475 0.3903584
v 0.4665002 0.1528719 0.3442352
v 0.3893872 0.1528719 0.3664964
v 0.3315524 0.1528719 0.4221474
v 0.3554436 0.2520432 0.4361942
v 0.3397029 0.2521771 0.5002764
v 0.3122743 0.1528719 0.5000597
v 0.3315524 0.1528719 0.577972
v 0.3556617 0.2523985 0.5643047
v 0.4032885 0.2526566 0.609978
v 0.3893872 0.1528719 0.6336231
v 0.4667183 0.2528823 0.62817
v 0.4665002 0.1528719 0.6558841
v 0.5436131 0.1528719 0.6336231
v 0.5300855 0.2530064 0.6097612
v 0.6014478 0.1528719 0.577972
v 0.5775564 0.2530107 0.5639253
v 0.5932969 0.2528768 0.4998429
v 0.6207259 0.1528719 0.5000597
v 0.6014478 0.1528719 0.4221474
v 0.5773384 0.2526554 0.4358148
v 0.5297117 0.2523973 0.3901415
v 0.5436131 0.1528719 0.3664964
v 0.4665002 0.1528719 0.3442352
v 0.4662822 0.2521717 0.3719498
v 0.3766131 0.05285522 0.6557501
v 0.4665002 0.05285522 0.6816979
v 0.5563872 0.05285522 0.6557501
v 0.52401 0.3510489 0.4004498
v 0.5671423 0.3510489 0.4419541
v 0.4665002 0.3510489 0.3838493
v 0.5815197 0.3510489 0.5000597
v 0.5671423 0.3510489 0.5581654
v 0.3766574 -0.03745556 0.6556754
v 0.3092752 -0.03745553 0.5908352
v 0.3091978 0.05285522 0.5908791
v 0.286726 0.05285522 0.50006
v 0.2868144 -0.03745556 0.5000601
v 0.3092752 -0.03745553 0.4092849
v 0.3091978 0.05285522 0.4092406
v 0.3766131 0.05285522 0.3443696
v 0.3766574 -0.03745556 0.3444444
v 0.4665002 -0.03745553 0.3185101
v 0.4665002 0.05285522 0.3184216
v 0.3449684 -0.1048353 0.570227
v 0.3954108 -0.1036317 0.6231943
v 0.4665002 -0.03745553 0.6816094
v 0.4665002 -0.1048353 0.6403962
v 0.3449684 -0.1048353 0.4298931
v 0.3243215 -0.1036317 0.5000601
v 0.4665002 -0.1048353 0.359723
v 0.3954108 -0.1036317 0.3769254
v 0.5375896 -0.1036317 0.6231943
v 0.556343 -0.03745556 0.6556754
v 0.5880319 -0.1048353 0.570227
v 0.6237252 -0.03745553 0.5908352
v 0.6238024 0.05285522 0.5908791
v 0.6462743 0.05285522 0.50006
v 0.6461859 -0.03745556 0.5000601
v 0.6237252 -0.03745553 0.4092849
v 0.6238024 0.05285522 0.4092406
v 0.5563872 0.05285522 0.3443695
v 0.556343 -0.03745556 0.3444444
v 0.4665002 -0.03745553 0.3185101
v 0.4665002 0.05285522 0.3184216
v 0.5880319 -0.1048353 0.4298928
v 0.5375896 -0.1036317 0.3769254
v 0.4665002 -0.1048353 0.359723
v 0.6086788 -0.1036317 0.5000601
v 0.5155177 -0.1455037 0.4717585
v 0.4991785 -0.1420821 0.4434599
v 0.4665002 -0.1455037 0.4434597
v 0.4665002 -0.1580497 0.5000597
v 0.5318569 -0.1420821 0.5000599
v 0.5155177 -0.1455037 0.528361
v 0.4665002 -0.1580497 0.5000597
v 0.4991785 -0.1420821 0.5566596
v 0.4665002 -0.1455037 0.5566595
v 0.4174828 -0.1455037 0.528361
v 0.4338219 -0.1420821 0.5566596
v 0.4011436 -0.1420821 0.5000599
v 0.4174828 -0.1455037 0.4717585
v 0.4665002 -0.1580497 0.5000597
v 0.4338219 -0.1420821 0.4434599
v 0.4665002 -0.1455037 0.4434597
v 0.4665002 -0.1580497 0.5000597
v 0.4665002 -0.1580497 0.5000597
v 0.4665005 0.7755288 0.5000597
v 0.3658577 0.3510489 0.5581654
v 0.4089902 0.3510489 0.5996698
v 0.3514803 0.3510489 0.5000597
v 0.3658577 0.3510489 0.4419541
v 0.4163373 0.4523683 0.5872343
v 0.4667017 0.4522283 0.6017544
v 0.4665002 0.3510489 0.6162704
v 0.52401 0.3510489 0.5996698
v 0.5170085 0.4520855 0.5872205
v 0.4665002 0.5522094 0.5762405
v 0.3785137 0.4524708 0.5509197
v 0.3658291 0.4525012 0.5000734
v 0.3783122 0.452461 0.4492237
v 0.554688 0.4519759 0.5508957
v 0.5671712 0.4519357 0.500046
v 0.5544865 0.4519661 0.4491997
v 0.516663 0.4520687 0.4128853
v 0.4662987 0.4522087 0.3983651
vt 0.4159324 0.9797972
vt 0.4439285 0.9771914
vt 0.4169233 0.9719796
vt 0.3339257 0.9719796
vt 0.49893 0.9797972
vt 0.4999209 0.9719796
vt 0.4979391 0.9876148
vt 0.2509291 0.9719796
vt 0.3332658 0.9771914
vt 0.3329358 0.9797972
vt 0.1679325 0.9719796
vt 0.4979391 0.9876148
vt 0.08493559 0.9719796
vt 0.2226034 0.9771914
vt 0.2499389 0.9797972
vt 0.001938641 0.9719796
vt 0.4979391 0.9876148
vt 0.582918 0.9719796
vt 0.5545917 0.9771914
vt 0.5819271 0.9797972
vt 0.6659151 0.9719796
vt 0.7489107 0.9719796
vt 0.6652535 0.9771914
vt 0.6649227 0.9797972
vt 0.8319063 0.9719796
vt 0.9149028 0.9719796
vt 0.7759149 0.9771914
vt 0.7479192 0.9797972
vt 0.9978994 0.9719796
vt 0.4979391 0.9876148
vt 0.4979391 0.9876148
vt 0.831906 0.8276707
vt 0.9149032 0.8276707
vt 0.9149032 0.7402689
vt 0.831906 0.7402689
vt 0.7489098 0.7402689
vt 0.7489094 0.8276707
vt 0.6659127 0.8276707
vt 0.6659137 0.7402689
vt 0.5829168 0.7402689
vt 0.5829163 0.8276707
vt 0.9979003 0.8276707
vt 0.9979004 0.7402689
vt 0.4999199 0.8276707
vt 0.4169235 0.8276707
vt 0.3339272 0.8276707
vt 0.416923 0.7402689
vt 0.3339262 0.7402689
vt 0.2509301 0.7402689
vt 0.2509305 0.8276707
vt 0.167934 0.8276707
vt 0.167934 0.7402689
vt 0.08493675 0.7402689
vt 0.08493675 0.8276707
vt 0.001939535 0.8276707
vt 0.001939535 0.7402689
vt 0.001939535 0.6629578
vt 0.08493675 0.6629578
vt 0.001939475 0.5863453
vt 0.08493666 0.5863453
vt 0.001939416 0.5093927
vt 0.08493656 0.5093927
vt 0.001939535 0.4078824
vt 0.08493654 0.4078824
vt 0.1679336 0.4078824
vt 0.1679337 0.5093927
vt 0.2509298 0.5093927
vt 0.2509297 0.4078824
vt 0.3339258 0.4078824
vt 0.3339258 0.5093927
vt 0.416923 0.5093927
vt 0.4169229 0.4078824
vt 0.4999201 0.5093927
vt 0.4999199 0.4078824
vt 0.582917 0.4078824
vt 0.5829169 0.5093927
vt 0.6659142 0.4078824
vt 0.6659137 0.5093927
vt 0.7489102 0.5093927
vt 0.7489103 0.4078824
vt 0.8319064 0.4078824
vt 0.8319067 0.5093927
vt 0.9149034 0.5093927
vt 0.9149034 0.4078824
vt 0.9979003 0.4078824
vt 0.9979002 0.5093927
vt 0.4169234 0.2911952
vt 0.4999199 0.2911951
vt 0.5829165 0.2911952
vt 0.9149033 0.5863453
vt 0.8319063 0.5863453
vt 0.9979002 0.5863453
vt 0.7489102 0.5863453
vt 0.6659142 0.5863453
vt 0.4169239 0.1390626
vt 0.3339279 0.1390626
vt 0.3339269 0.2911951
vt 0.2509299 0.2911952
vt 0.2509301 0.1390626
vt 0.1679322 0.1390626
vt 0.1679329 0.2911951
vt 0.08493622 0.2911952
vt 0.08493589 0.1390626
vt 0.001939535 0.1390626
vt 0.001939535 0.2911951
vt 0.3339284 0.0440807
vt 0.4169241 0.0440807
vt 0.4999199 0.1390626
vt 0.4999199 0.0440807
vt 0.1679326 0.0440807
vt 0.2509305 0.0440807
vt 0.001939535 0.0440807
vt 0.08493605 0.0440807
vt 0.5829157 0.0440807
vt 0.5829159 0.1390626
vt 0.6659116 0.0440807
vt 0.6659119 0.1390626
vt 0.665913 0.2911951
vt 0.7489101 0.2911952
vt 0.7489098 0.1390626
vt 0.8319077 0.1390626
vt 0.8319072 0.2911951
vt 0.9149038 0.2911952
vt 0.914904 0.1390626
vt 0.9979003 0.1390626
vt 0.9979003 0.2911951
vt 0.8319074 0.0440807
vt 0.9149039 0.0440807
vt 0.9979003 0.0440807
vt 0.7489095 0.0440807
vt 0.6670139 0.03114939
vt 0.7773094 0.03545982
vt 0.7500104 0.03114939
vt 0.5021204 0.01821807
vt 0.6666465 0.03545982
vt 0.584016 0.03114939
vt 0.5021204 0.01821807
vt 0.555984 0.03545982
vt 0.5010202 0.03114939
vt 0.4180244 0.03114939
vt 0.4453229 0.03545982
vt 0.3346604 0.03545982
vt 0.3350265 0.03114939
vt 0.5021204 0.01821807
vt 0.2239975 0.03545982
vt 0.25203 0.03114939
vt 0.5021204 0.01821807
vt 0.5021204 0.01821807
vt 0.4979391 0.9876148
vt 0.3339255 0.5863453
vt 0.4169227 0.5863453
vt 0.2509297 0.5863453
vt 0.1679338 0.5863453
vt 0.4169225 0.6629578
vt 0.4999199 0.6629578
vt 0.49992 0.5863453
vt 0.5829171 0.5863453
vt 0.5829173 0.6629578
vt 0.4999199 0.7402689
vt 0.3339252 0.6629578
vt 0.2509296 0.6629578
vt 0.167934 0.6629578
vt 0.6659147 0.6629578
vt 0.7489103 0.6629578
vt 0.831906 0.6629578
vt 0.9149032 0.6629578
vt 0.9979003 0.6629578
vn -0.5990061 0.7222081 0.3458426
vn -0.370813 0.6708001 0.6422809
vn -0.480331 0.2776172 0.8319921
vn -0.8312634 0.2804687 0.4799359
vn 2.791138E-07 0.7221984 0.691686
vn 4.541543E-07 0.2804654 0.9598641
vn 2.900682E-06 1 -2.276397E-07
vn -0.960692 0.2776165 -1.453329E-07
vn -0.7416383 0.6708 -1.071824E-06
vn -0.5990077 0.7222065 -0.3458433
vn -0.8312657 0.2804667 -0.479933
vn 2.900682E-06 1 -2.276397E-07
vn -0.4803338 0.2776143 -0.8319914
vn -0.3708148 0.6707997 -0.6422805
vn -4.284054E-07 0.7222 -0.6916843
vn 1.211079E-07 0.2804628 -0.9598649
vn 2.900682E-06 1 -2.276397E-07
vn 0.4803309 0.2776169 0.8319923
vn 0.3708135 0.670797 0.642284
vn 0.5990113 0.7222038 0.3458427
vn 0.8312647 0.280467 0.4799346
vn 0.9606928 0.2776139 -3.197326E-07
vn 0.7416415 0.6707964 0
vn 0.5990133 0.7222028 -0.3458413
vn 0.8312666 0.2804651 -0.4799325
vn 0.4803329 0.2776138 -0.8319921
vn 0.3708143 0.6707987 -0.6422817
vn -4.284054E-07 0.7222 -0.6916843
vn 1.211079E-07 0.2804628 -0.9598649
vn 2.900682E-06 1 -2.276397E-07
vn 2.900682E-06 1 -2.276397E-07
vn 0.8342817 0.2682624 -0.4816735
vn 0.4819653 0.2660773 -0.8348128
vn 0.4837237 0.2541453 -0.8375092
vn 0.8369011 0.2564374 -0.4835663
vn 0.9670911 0.2544296 -0.000669993
vn 0.9639516 0.2660778 0
vn 0.8342807 0.2682631 0.4816748
vn 0.8371832 0.2572445 0.4826485
vn 0.4837521 0.2549663 0.8372431
vn 0.4819641 0.2660788 0.834813
vn -1.702841E-07 0.2682597 -0.9633467
vn 0.0004971891 0.2570984 -0.9663851
vn 0 0.268261 0.9633463
vn -0.481964 0.2660789 0.834813
vn -0.8342799 0.2682637 0.4816759
vn -0.483186 0.254558 0.8376941
vn -0.8365779 0.2571349 0.4837552
vn -0.9668857 0.2552089 0.0006457759
vn -0.9639512 0.2660791 3.740374E-07
vn -0.8342811 0.2682634 -0.481674
vn -0.836843 0.2579173 -0.4828794
vn -0.4831984 0.2553326 -0.8374512
vn -0.4819655 0.2660776 -0.8348125
vn -1.702841E-07 0.2682597 -0.9633467
vn 0.0004971891 0.2570984 -0.9663851
vn -0.0002344803 0.1880249 -0.9821642
vn -0.4915223 0.1863173 -0.8507007
vn -0.0003720117 0.130023 -0.9915109
vn -0.4961866 0.128255 -0.8586906
vn -0.001391436 0.2041383 -0.978941
vn -0.4907625 0.2018131 -0.8475987
vn -0.0001866206 0.2580915 -0.9661204
vn -0.4835368 0.2558028 -0.8371124
vn -0.8367302 0.2582116 -0.4829176
vn -0.8483468 0.2041734 -0.4884883
vn -0.9794315 0.2017744 0.0009465743
vn -0.966764 0.2556703 0.0001383628
vn -0.8366784 0.2578672 0.4831911
vn -0.8473306 0.2040673 0.4902932
vn -0.4889645 0.2016452 0.8486772
vn -0.4833343 0.2552081 0.8374107
vn 0.001015857 0.2039291 0.9789851
vn 0.0001315087 0.2574082 0.9663028
vn 0.4836357 0.2548714 0.8373392
vn 0.4906684 0.201552 0.8477154
vn 0.8369576 0.2572819 0.4830197
vn 0.8484684 0.2038905 0.4883952
vn 0.9794702 0.2015848 -0.001340816
vn 0.9669435 0.2549907 -0.0002270878
vn 0.8366964 0.2576192 -0.4832922
vn 0.8470863 0.2039932 -0.490746
vn 0.4884915 0.2017166 -0.8489326
vn 0.4832005 0.255459 -0.8374115
vn -0.0001866206 0.2580915 -0.9661204
vn -0.001391436 0.2041383 -0.978941
vn -0.4960409 0.1256077 0.859166
vn 0 0.1264776 0.9919695
vn 0.4960414 0.125608 0.8591657
vn 0.4952615 0.1292685 -0.8590726
vn 0.8581529 0.1307254 -0.496472
vn -0.0003720117 0.130023 -0.9915109
vn 0.9916082 0.129276 -0.0009204777
vn 0.8589399 0.1303228 0.4952152
vn -0.488032 -0.2175086 0.8452897
vn -0.8454594 -0.2166505 0.4881199
vn -0.8590734 0.1264694 0.4959822
vn -0.9920813 0.1255978 2.177879E-07
vn -0.9760562 -0.2175184 0
vn -0.8454599 -0.2166511 -0.4881186
vn -0.8590737 0.1264681 -0.495982
vn -0.496042 0.1256064 -0.8591655
vn -0.4880339 -0.2175087 -0.8452886
vn -2.966141E-07 -0.2166377 -0.9762521
vn -3.442091E-07 0.1264767 -0.9919695
vn -0.6359901 -0.6787456 0.3671798
vn -0.3704601 -0.6716015 0.6416468
vn 0 -0.2166381 0.976252
vn 0 -0.678748 0.7343713
vn -0.6359912 -0.6787451 -0.3671787
vn -0.740914 -0.6715998 1.262761E-07
vn 0 -0.6787471 -0.7343722
vn -0.3704627 -0.671601 -0.6416458
vn 0.3704603 -0.6716017 0.6416465
vn 0.4880322 -0.2175086 0.8452896
vn 0.6359901 -0.6787456 0.3671796
vn 0.8454596 -0.2166503 0.4881195
vn 0.8590734 0.1264702 0.495982
vn 0.9920811 0.1255989 2.030226E-07
vn 0.9760562 -0.2175184 0
vn 0.8454603 -0.2166506 -0.4881181
vn 0.8590739 0.1264688 -0.4959816
vn 0.4960423 0.1256067 -0.8591653
vn 0.4880342 -0.2175084 -0.8452885
vn -2.966141E-07 -0.2166377 -0.9762521
vn -3.442091E-07 0.1264767 -0.9919695
vn 0.6359913 -0.678745 -0.3671788
vn 0.3704629 -0.6716007 -0.6416462
vn 0 -0.6787471 -0.7343722
vn 0.7409139 -0.6716 1.842144E-07
vn 0.3237961 -0.9274747 -0.1869407
vn 0.203514 -0.9134186 -0.352489
vn 0 -0.9274786 -0.3738761
vn 0 -1 -2.801475E-07
vn 0.4070313 -0.9134142 0
vn 0.3237948 -0.927475 0.186941
vn 0 -1 -2.801475E-07
vn 0.2035119 -0.9134189 0.3524893
vn 0 -0.9274788 0.3738757
vn -0.3237943 -0.9274753 0.1869409
vn -0.2035119 -0.9134189 0.3524894
vn -0.4070306 -0.9134145 0
vn -0.3237958 -0.9274748 -0.1869407
vn 0 -1 -2.801475E-07
vn -0.2035143 -0.9134187 -0.3524887
vn 0 -0.9274786 -0.3738761
vn 0 -1 -2.801475E-07
vn 0 -1 -2.801475E-07
vn 2.900682E-06 1 -2.276397E-07
vn -0.8585119 0.1302842 0.4959671
vn -0.4957415 0.1292707 0.8587953
vn -0.991707 0.1285183 0.0005150588
vn -0.8589659 0.1294378 -0.4954021
vn -0.4906067 0.1864787 0.8511937
vn 0.000585022 0.1880244 0.9821641
vn -9.79921E-05 0.1304706 0.9914522
vn 0.4960086 0.129015 0.8586796
vn 0.491807 0.1863531 0.8505282
vn 0.0001966662 0.2571266 0.9663777
vn -0.850089 0.1880616 0.4919162
vn -0.98248 0.1863654 0.001001406
vn -0.8509703 0.1878981 -0.4904527
vn 0.8510534 0.1879586 0.4902852
vn 0.9824659 0.1864397 -0.001014987
vn 0.8501605 0.1881265 -0.4917677
vn 0.49088 0.186518 -0.8510275
vn -0.0002344803 0.1880249 -0.9821642
g pm0105_61_L_FireAStenSkin_0
f 3/3/3 2/2/2 1/1/1
f 4/4/4 3/3/3 1/1/1
f 5/5/5 2/2/2 3/3/3
f 1/1/1 2/2/2 5/5/5
f 6/6/6 5/5/5 3/3/3
f 7/7/7 1/1/1 5/5/5
f 4/4/4 1/1/1 8/8/8
f 1/1/1 9/9/9 8/8/8
f 8/8/8 9/9/9 10/10/10
f 10/10/10 9/9/9 1/1/1
f 11/11/11 8/8/8 10/10/10
f 12/12/12 10/10/10 1/1/1
f 11/11/11 10/10/10 13/13/13
f 10/10/10 14/14/14 13/13/13
f 13/13/13 14/14/14 15/15/15
f 15/15/15 14/14/14 10/10/10
f 16/16/16 13/13/13 15/15/15
f 17/17/17 15/15/15 10/10/10
f 6/6/6 18/18/18 5/5/5
f 18/18/18 19/19/19 5/5/5
f 20/20/20 19/19/19 18/18/18
f 5/5/5 19/19/19 20/20/20
f 21/21/21 20/20/20 18/18/18
f 21/21/21 22/22/22 20/20/20
f 22/22/22 23/23/23 20/20/20
f 24/24/24 23/23/23 22/22/22
f 20/20/20 23/23/23 24/24/24
f 25/25/25 24/24/24 22/22/22
f 25/25/25 26/26/26 24/24/24
f 26/26/26 27/27/27 24/24/24
f 28/28/28 27/27/27 26/26/26
f 24/24/24 27/27/27 28/28/28
f 29/29/29 28/28/28 26/26/26
f 30/30/30 24/24/24 28/28/28
f 31/31/31 20/20/20 24/24/24
f 26/26/26 25/25/25 32/32/32
f 25/25/25 22/22/22 32/32/32
f 33/33/33 26/26/26 32/32/32
f 34/34/34 33/33/33 32/32/32
f 35/35/35 34/34/34 32/32/32
f 36/36/36 35/35/35 32/32/32
f 37/37/37 36/36/36 32/32/32
f 22/22/22 37/37/37 32/32/32
f 36/36/36 37/37/37 38/38/38
f 39/39/39 36/36/36 38/38/38
f 40/40/40 39/39/39 38/38/38
f 41/41/41 40/40/40 38/38/38
f 33/33/33 34/34/34 42/42/42
f 34/34/34 43/43/43 42/42/42
f 26/26/26 33/33/33 42/42/42
f 29/29/29 26/26/26 42/42/42
f 37/37/37 22/22/22 38/38/38
f 22/22/22 21/21/21 38/38/38
f 18/18/18 41/41/41 38/38/38
f 21/21/21 18/18/18 38/38/38
f 41/41/41 18/18/18 6/6/6
f 44/44/44 41/41/41 6/6/6
f 45/45/45 44/44/44 6/6/6
f 3/3/3 45/45/45 6/6/6
f 45/45/45 3/3/3 46/46/46
f 47/47/47 45/45/45 46/46/46
f 44/44/44 45/45/45 47/47/47
f 48/48/48 47/47/47 46/46/46
f 49/49/49 48/48/48 46/46/46
f 50/50/50 49/49/49 46/46/46
f 49/49/49 50/50/50 51/51/51
f 52/52/52 49/49/49 51/51/51
f 53/53/53 52/52/52 51/51/51
f 54/54/54 53/53/53 51/51/51
f 53/53/53 54/54/54 55/55/55
f 56/56/56 53/53/53 55/55/55
f 3/3/3 4/4/4 46/46/46
f 50/50/50 8/8/8 51/51/51
f 8/8/8 50/50/50 46/46/46
f 4/4/4 8/8/8 46/46/46
f 8/8/8 11/11/11 51/51/51
f 54/54/54 13/13/13 55/55/55
f 13/13/13 54/54/54 51/51/51
f 11/11/11 13/13/13 51/51/51
f 13/13/13 16/16/16 55/55/55
f 56/56/56 57/57/57 53/53/53
f 57/57/57 58/58/58 53/53/53
f 53/53/53 58/58/58 52/52/52
f 58/58/58 57/57/57 59/59/59
f 60/60/60 58/58/58 59/59/59
f 60/60/60 59/59/59 61/61/61
f 62/62/62 60/60/60 61/61/61
f 62/62/62 61/61/61 63/63/63
f 64/64/64 62/62/62 63/63/63
f 62/62/62 64/64/64 65/65/65
f 66/66/66 62/62/62 65/65/65
f 60/60/60 62/62/62 66/66/66
f 67/67/67 66/66/66 65/65/65
f 68/68/68 67/67/67 65/65/65
f 67/67/67 68/68/68 69/69/69
f 70/70/70 67/67/67 69/69/69
f 71/71/71 70/70/70 69/69/69
f 72/72/72 71/71/71 69/69/69
f 71/71/71 72/72/72 73/73/73
f 72/72/72 74/74/74 73/73/73
f 74/74/74 75/75/75 73/73/73
f 75/75/75 76/76/76 73/73/73
f 76/76/76 75/75/75 77/77/77
f 78/78/78 76/76/76 77/77/77
f 79/79/79 78/78/78 77/77/77
f 80/80/80 79/79/79 77/77/77
f 79/79/79 80/80/80 81/81/81
f 82/82/82 79/79/79 81/81/81
f 83/83/83 82/82/82 81/81/81
f 84/84/84 83/83/83 81/81/81
f 83/83/83 84/84/84 85/85/85
f 86/86/86 83/83/83 85/85/85
f 72/72/72 87/87/87 74/74/74
f 87/87/87 88/88/88 74/74/74
f 89/89/89 75/75/75 74/74/74
f 88/88/88 89/89/89 74/74/74
f 77/77/77 75/75/75 89/89/89
f 83/83/83 90/90/90 82/82/82
f 90/90/90 83/83/83 86/86/86
f 90/90/90 91/91/91 82/82/82
f 92/92/92 90/90/90 86/86/86
f 79/79/79 93/93/93 78/78/78
f 93/93/93 79/79/79 82/82/82
f 91/91/91 93/93/93 82/82/82
f 93/93/93 94/94/94 78/78/78
f 87/87/87 95/95/95 88/88/88
f 95/95/95 87/87/87 96/96/96
f 87/87/87 97/97/97 96/96/96
f 97/97/97 98/98/98 96/96/96
f 98/98/98 99/99/99 96/96/96
f 99/99/99 98/98/98 100/100/100
f 98/98/98 101/101/101 100/100/100
f 101/101/101 102/102/102 100/100/100
f 102/102/102 103/103/103 100/100/100
f 103/103/103 102/102/102 104/104/104
f 102/102/102 105/105/105 104/104/104
f 95/95/95 96/96/96 106/106/106
f 96/96/96 99/99/99 106/106/106
f 107/107/107 95/95/95 106/106/106
f 95/95/95 107/107/107 108/108/108
f 107/107/107 109/109/109 108/108/108
f 99/99/99 100/100/100 110/110/110
f 100/100/100 103/103/103 110/110/110
f 111/111/111 99/99/99 110/110/110
f 99/99/99 111/111/111 106/106/106
f 103/103/103 104/104/104 112/112/112
f 113/113/113 103/103/103 112/112/112
f 103/103/103 113/113/113 110/110/110
f 109/109/109 114/114/114 108/108/108
f 114/114/114 115/115/115 108/108/108
f 115/115/115 114/114/114 116/116/116
f 117/117/117 115/115/115 116/116/116
f 89/89/89 115/115/115 117/117/117
f 108/108/108 115/115/115 89/89/89
f 118/118/118 89/89/89 117/117/117
f 119/119/119 118/118/118 117/117/117
f 120/120/120 119/119/119 117/117/117
f 120/120/120 117/117/117 116/116/116
f 119/119/119 120/120/120 121/121/121
f 122/122/122 119/119/119 121/121/121
f 123/123/123 122/122/122 121/121/121
f 124/124/124 123/123/123 121/121/121
f 123/123/123 124/124/124 125/125/125
f 126/126/126 123/123/123 125/125/125
f 124/124/124 121/121/121 127/127/127
f 121/121/121 120/120/120 127/127/127
f 128/128/128 124/124/124 127/127/127
f 124/124/124 128/128/128 129/129/129
f 125/125/125 124/124/124 129/129/129
f 130/130/130 120/120/120 116/116/116
f 120/120/120 130/130/130 127/127/127
f 127/127/127 131/131/131 128/128/128
f 127/127/127 130/130/130 131/131/131
f 131/131/131 132/132/132 128/128/128
f 133/133/133 132/132/132 131/131/131
f 128/128/128 132/132/132 133/133/133
f 129/129/129 128/128/128 133/133/133
f 134/134/134 133/133/133 131/131/131
f 130/130/130 135/135/135 131/131/131
f 136/136/136 135/135/135 130/130/130
f 131/131/131 135/135/135 136/136/136
f 116/116/116 136/136/136 130/130/130
f 137/137/137 131/131/131 136/136/136
f 116/116/116 114/114/114 136/136/136
f 114/114/114 138/138/138 136/136/136
f 139/139/139 138/138/138 114/114/114
f 136/136/136 138/138/138 139/139/139
f 134/134/134 139/139/139 140/140/140
f 139/139/139 141/141/141 140/140/140
f 140/140/140 141/141/141 107/107/107
f 107/107/107 141/141/141 139/139/139
f 106/106/106 140/140/140 107/107/107
f 109/109/109 107/107/107 139/139/139
f 109/109/109 139/139/139 114/114/114
f 106/106/106 111/111/111 140/140/140
f 111/111/111 142/142/142 140/140/140
f 143/143/143 142/142/142 111/111/111
f 140/140/140 142/142/142 143/143/143
f 110/110/110 143/143/143 111/111/111
f 144/144/144 140/140/140 143/143/143
f 110/110/110 113/113/113 143/143/143
f 113/113/113 145/145/145 143/143/143
f 146/146/146 145/145/145 113/113/113
f 143/143/143 145/145/145 146/146/146
f 112/112/112 146/146/146 113/113/113
f 147/147/147 143/143/143 146/146/146
f 148/148/148 136/136/136 139/139/139
f 149/149/149 5/5/5 20/20/20
f 151/151/151 150/150/150 70/70/70
f 71/71/71 151/151/151 70/70/70
f 150/150/150 152/152/152 70/70/70
f 152/152/152 67/67/67 70/70/70
f 67/67/67 152/152/152 66/66/66
f 152/152/152 153/153/153 66/66/66
f 153/153/153 60/60/60 66/66/66
f 151/151/151 154/154/154 150/150/150
f 154/154/154 151/151/151 155/155/155
f 151/151/151 156/156/156 155/155/155
f 151/151/151 71/71/71 156/156/156
f 156/156/156 157/157/157 155/155/155
f 157/157/157 158/158/158 155/155/155
f 158/158/158 40/40/40 155/155/155
f 40/40/40 159/159/159 155/155/155
f 47/47/47 154/154/154 155/155/155
f 159/159/159 47/47/47 155/155/155
f 154/154/154 160/160/160 150/150/150
f 160/160/160 154/154/154 47/47/47
f 71/71/71 73/73/73 156/156/156
f 156/156/156 73/73/73 157/157/157
f 152/152/152 161/161/161 153/153/153
f 160/160/160 161/161/161 152/152/152
f 161/161/161 162/162/162 153/153/153
f 153/153/153 162/162/162 60/60/60
f 162/162/162 58/58/58 60/60/60
f 73/73/73 76/76/76 157/157/157
f 157/157/157 76/76/76 78/78/78
f 94/94/94 157/157/157 78/78/78
f 163/163/163 158/158/158 157/157/157
f 94/94/94 163/163/163 157/157/157
f 164/164/164 163/163/163 94/94/94
f 93/93/93 164/164/164 94/94/94
f 165/165/165 164/164/164 93/93/93
f 91/91/91 165/165/165 93/93/93
f 166/166/166 165/165/165 91/91/91
f 90/90/90 166/166/166 91/91/91
f 167/167/167 166/166/166 90/90/90
f 92/92/92 167/167/167 90/90/90
f 163/163/163 164/164/164 36/36/36
f 39/39/39 163/163/163 36/36/36
f 158/158/158 163/163/163 39/39/39
f 40/40/40 158/158/158 39/39/39
f 164/164/164 165/165/165 35/35/35
f 36/36/36 164/164/164 35/35/35
f 165/165/165 166/166/166 34/34/34
f 35/35/35 165/165/165 34/34/34
f 166/166/166 167/167/167 43/43/43
f 34/34/34 166/166/166 43/43/43
f 40/40/40 41/41/41 159/159/159
f 41/41/41 44/44/44 159/159/159
f 159/159/159 44/44/44 47/47/47
f 48/48/48 160/160/160 47/47/47
f 161/161/161 160/160/160 48/48/48
f 49/49/49 161/161/161 48/48/48
f 162/162/162 161/161/161 49/49/49
f 52/52/52 162/162/162 49/49/49
f 58/58/58 162/162/162 52/52/52
f 150/150/150 160/160/160 152/152/152
f 95/95/95 108/108/108 88/88/88
f 88/88/88 108/108/108 89/89/89
f 118/118/118 77/77/77 89/89/89
f 80/80/80 77/77/77 118/118/118
f 119/119/119 80/80/80 118/118/118
f 81/81/81 80/80/80 119/119/119
f 122/122/122 81/81/81 119/119/119
f 84/84/84 81/81/81 122/122/122
f 123/123/123 84/84/84 122/122/122
f 85/85/85 84/84/84 123/123/123
f 126/126/126 85/85/85 123/123/123
f 72/72/72 69/69/69 97/97/97
f 87/87/87 72/72/72 97/97/97
f 97/97/97 69/69/69 98/98/98
f 69/69/69 68/68/68 98/98/98
f 98/98/98 68/68/68 101/101/101
f 68/68/68 65/65/65 101/101/101
f 101/101/101 65/65/65 102/102/102
f 65/65/65 64/64/64 102/102/102
f 102/102/102 64/64/64 105/105/105
f 64/64/64 63/63/63 105/105/105
