g pm0198_00_RCloseWingSkin
v -0.05142203 0.1309762 0.05197406
v -0.05062924 0.112356 0.04615499
v -0.0630423 0.1201889 0.02299515
v -0.06172848 0.139298 0.02780632
v -0.04878574 0.1504914 0.05482422
v -0.05707895 0.1590163 0.03150165
v -0.05695674 0.1676808 0.004970506
v -0.06609342 0.147202 0.002398793
v -0.03116111 0.1240176 0.07394741
v -0.02977201 0.1035405 0.06468588
v -0.02953249 0.1434851 0.07551043
v -0.06924431 0.1268977 -0.001294605
v -0.02726177 0.08994502 0.0525275
v -0.04856429 0.09656564 0.0380285
v -0.06130231 0.1053105 0.01802871
v -0.0681254 0.1099301 -0.005842018
v -0.0590692 0.09248483 0.01210557
v -0.06530982 0.09805151 -0.009551427
v -0.04584859 0.08437926 0.02871104
v -0.02454537 0.07796799 0.03806144
v -0.04175721 0.1725409 0.05391972
v -0.02524723 0.1661348 0.07380308
v -0.04885056 0.1804372 0.03130605
v -0.03813966 0.197344 0.03022295
v -0.03464574 0.192321 0.0504203
v -0.02061414 0.1880694 0.06820544
v -0.03547833 0.2027681 0.009108672
v -0.04540198 0.1875681 0.006957129
vt 0.5884264 0.4893909
vt 0.5899044 0.3546753
vt 0.4090107 0.3676233
vt 0.4047541 0.4981763
vt 0.5765758 0.6268528
vt 0.3961618 0.6383038
vt 0.202807 0.6505837
vt 0.2267047 0.4993215
vt 0.8040251 0.486609
vt 0.7951828 0.318229
vt 0.786748 0.6321445
vt 0.2423602 0.365407
vt 0.7603571 0.1799467
vt 0.5732838 0.2310498
vt 0.4088198 0.2634101
vt 0.2478559 0.2534728
vt 0.3980854 0.1693602
vt 0.2491635 0.1712713
vt 0.5426635 0.1260455
vt 0.6971284 0.03999376
vt 0.5453704 0.7902696
vt 0.7451837 0.8067403
vt 0.3625968 0.7963812
vt 0.3301308 0.9406257
vt 0.4932355 0.9411454
vt 0.6701789 0.9739571
vt 0.1590791 0.9528906
vt 0.1750658 0.8130417
vn -0.8888703 -0.01058424 0.4580366
vn -0.8762785 -0.1520332 0.4571893
vn -0.9032376 -0.1196028 0.4121371
vn -0.9127455 0.02018325 0.4080299
vn -0.8841565 0.1304019 0.4486231
vn -0.9044995 0.1578242 0.3961972
vn -0.9161202 0.171731 0.3622597
vn -0.926129 0.03971669 0.3751102
vn -0.8715347 -0.03057795 0.4893795
vn -0.8576679 -0.1693505 0.4855164
vn -0.8694525 0.1089336 0.4818566
vn -0.9190807 -0.09537486 0.3823537
vn -0.8371427 -0.2722422 0.4744221
vn -0.8552543 -0.2580742 0.4493748
vn -0.8834591 -0.2263386 0.4102083
vn -0.9012144 -0.1998649 0.3845343
vn -0.8693423 -0.2777715 0.4087627
vn -0.8870255 -0.2519217 0.3869381
vn -0.8426873 -0.3067178 0.4424955
vn -0.8265501 -0.3179525 0.4644578
vn -0.8693666 0.2360367 0.4341525
vn -0.8576384 0.2145014 0.4673816
vn -0.8866268 0.2596956 0.3826891
vn -0.8743107 0.3063745 0.376451
vn -0.859507 0.2860432 0.4235883
vn -0.8502088 0.2656577 0.4545007
vn -0.8842738 0.3123911 0.3470904
vn -0.8973202 0.2688121 0.3500805
g pm0198_00_RCloseWingSkin_0
f 3/3/3 2/2/2 1/1/1
f 4/4/4 3/3/3 1/1/1
f 1/1/1 5/5/5 4/4/4
f 5/5/5 6/6/6 4/4/4
f 6/6/6 7/7/7 4/4/4
f 7/7/7 8/8/8 4/4/4
f 3/3/3 4/4/4 8/8/8
f 1/1/1 2/2/2 9/9/9
f 2/2/2 10/10/10 9/9/9
f 11/11/11 5/5/5 1/1/1
f 9/9/9 11/11/11 1/1/1
f 12/12/12 3/3/3 8/8/8
f 10/10/10 2/2/2 13/13/13
f 2/2/2 14/14/14 13/13/13
f 2/2/2 3/3/3 14/14/14
f 3/3/3 15/15/15 14/14/14
f 3/3/3 12/12/12 15/15/15
f 12/12/12 16/16/16 15/15/15
f 15/15/15 16/16/16 17/17/17
f 16/16/16 18/18/18 17/17/17
f 15/15/15 17/17/17 19/19/19
f 14/14/14 15/15/15 19/19/19
f 14/14/14 19/19/19 20/20/20
f 13/13/13 14/14/14 20/20/20
f 5/5/5 11/11/11 21/21/21
f 11/11/11 22/22/22 21/21/21
f 5/5/5 21/21/21 23/23/23
f 6/6/6 5/5/5 23/23/23
f 23/23/23 21/21/21 24/24/24
f 21/21/21 25/25/25 24/24/24
f 21/21/21 22/22/22 25/25/25
f 22/22/22 26/26/26 25/25/25
f 24/24/24 27/27/27 23/23/23
f 27/27/27 28/28/28 23/23/23
f 23/23/23 28/28/28 7/7/7
f 6/6/6 23/23/23 7/7/7
