g pm0105_61_R_FireAStenSkin
v -0.4594614 0.7718089 0.5041233
v -0.4499714 0.7582055 0.5096025
v -0.4568579 0.7579069 0.5167606
v -0.4618078 0.7707943 0.5081874
v -0.4665003 0.7718089 0.5081874
v -0.4665003 0.7582055 0.519145
v -0.4665005 0.7755288 0.5000597
v -0.4472154 0.7579069 0.5000597
v -0.457115 0.7707943 0.5000597
v -0.4594614 0.7718089 0.4959959
v -0.4499714 0.7582055 0.4905166
v -0.4665005 0.7755288 0.5000597
v -0.4568579 0.7579069 0.4833585
v -0.4618077 0.7707943 0.4919318
v -0.4665003 0.7718089 0.4919318
v -0.4665003 0.7582055 0.4809741
v -0.4665005 0.7755288 0.5000597
v -0.4761427 0.7579069 0.5167606
v -0.471193 0.7707943 0.5081874
v -0.4735394 0.7718089 0.5041233
v -0.4830292 0.7582055 0.5096025
v -0.4857852 0.7579069 0.5000597
v -0.4758857 0.7707943 0.5000597
v -0.4735394 0.7718089 0.4959959
v -0.4830292 0.7582055 0.4905166
v -0.4761427 0.7579069 0.4833585
v -0.471193 0.7707943 0.4919318
v -0.4665003 0.7718089 0.4919318
v -0.4665003 0.7582055 0.4809741
v -0.4665005 0.7755288 0.5000597
v -0.4665005 0.7755288 0.5000597
v -0.5083184 0.650641 0.475916
v -0.4903964 0.650641 0.4586708
v -0.5042004 0.5522094 0.4347615
v -0.5324754 0.5522094 0.461969
v -0.5419006 0.5522094 0.5000598
v -0.5142924 0.650641 0.5000599
v -0.5083184 0.650641 0.5242035
v -0.5324754 0.5522094 0.5381507
v -0.5042004 0.5522094 0.5653581
v -0.4903964 0.650641 0.5414488
v -0.4665002 0.650641 0.4517729
v -0.4665002 0.5522094 0.423879
v -0.4665002 0.650641 0.5483465
v -0.4426041 0.650641 0.5414488
v -0.4246821 0.650641 0.5242035
v -0.4288 0.5522094 0.5653581
v -0.4005249 0.5522094 0.5381507
v -0.3910998 0.5522094 0.5000598
v -0.418708 0.650641 0.5000599
v -0.4246821 0.650641 0.475916
v -0.4005249 0.5522094 0.461969
v -0.4288 0.5522094 0.4347615
v -0.4426041 0.650641 0.4586708
v -0.4665002 0.650641 0.4517729
v -0.4665002 0.5522094 0.423879
v -0.4662987 0.4522087 0.3983651
v -0.4159918 0.4523515 0.412899
v -0.4665002 0.3510489 0.3838493
v -0.4089902 0.3510489 0.4004498
v -0.4662822 0.2521717 0.3719498
v -0.4029147 0.2520475 0.3903584
v -0.4665002 0.1528719 0.3442352
v -0.3893872 0.1528719 0.3664964
v -0.3315524 0.1528719 0.4221474
v -0.3554436 0.2520432 0.4361942
v -0.3397029 0.2521771 0.5002764
v -0.3122743 0.1528719 0.5000597
v -0.3315524 0.1528719 0.577972
v -0.3556617 0.2523985 0.5643047
v -0.4032885 0.2526566 0.609978
v -0.3893872 0.1528719 0.6336231
v -0.4667183 0.2528823 0.62817
v -0.4665002 0.1528719 0.6558841
v -0.5436131 0.1528719 0.6336231
v -0.5300855 0.2530064 0.6097612
v -0.6014478 0.1528719 0.577972
v -0.5775564 0.2530107 0.5639253
v -0.5932969 0.2528768 0.4998429
v -0.6207259 0.1528719 0.5000597
v -0.6014478 0.1528719 0.4221474
v -0.5773384 0.2526554 0.4358148
v -0.5297117 0.2523973 0.3901415
v -0.5436131 0.1528719 0.3664964
v -0.4665002 0.1528719 0.3442352
v -0.4662822 0.2521717 0.3719498
v -0.3766131 0.05285522 0.6557501
v -0.4665002 0.05285522 0.6816979
v -0.5563872 0.05285522 0.6557501
v -0.52401 0.3510489 0.4004498
v -0.5671423 0.3510489 0.4419541
v -0.4665002 0.3510489 0.3838493
v -0.5815197 0.3510489 0.5000597
v -0.5671423 0.3510489 0.5581654
v -0.3766574 -0.03745556 0.6556754
v -0.3092752 -0.03745553 0.5908352
v -0.3091978 0.05285522 0.5908791
v -0.286726 0.05285522 0.50006
v -0.2868144 -0.03745556 0.5000601
v -0.3092752 -0.03745553 0.4092849
v -0.3091978 0.05285522 0.4092406
v -0.3766131 0.05285522 0.3443696
v -0.3766574 -0.03745556 0.3444444
v -0.4665002 -0.03745553 0.3185101
v -0.4665002 0.05285522 0.3184216
v -0.3449684 -0.1048353 0.570227
v -0.3954108 -0.1036317 0.6231943
v -0.4665002 -0.03745553 0.6816094
v -0.4665002 -0.1048353 0.6403962
v -0.3449684 -0.1048353 0.4298931
v -0.3243215 -0.1036317 0.5000601
v -0.4665002 -0.1048353 0.359723
v -0.3954108 -0.1036317 0.3769254
v -0.5375896 -0.1036317 0.6231943
v -0.556343 -0.03745556 0.6556754
v -0.5880319 -0.1048353 0.570227
v -0.6237252 -0.03745553 0.5908352
v -0.6238024 0.05285522 0.5908791
v -0.6462743 0.05285522 0.50006
v -0.6461859 -0.03745556 0.5000601
v -0.6237252 -0.03745553 0.4092849
v -0.6238024 0.05285522 0.4092406
v -0.5563872 0.05285522 0.3443695
v -0.556343 -0.03745556 0.3444444
v -0.4665002 -0.03745553 0.3185101
v -0.4665002 0.05285522 0.3184216
v -0.5880319 -0.1048353 0.4298928
v -0.5375896 -0.1036317 0.3769254
v -0.4665002 -0.1048353 0.359723
v -0.6086788 -0.1036317 0.5000601
v -0.5155177 -0.1455037 0.4717585
v -0.4991785 -0.1420821 0.4434599
v -0.4665002 -0.1455037 0.4434597
v -0.4665002 -0.1580497 0.5000597
v -0.5318569 -0.1420821 0.5000599
v -0.5155177 -0.1455037 0.528361
v -0.4665002 -0.1580497 0.5000597
v -0.4991785 -0.1420821 0.5566596
v -0.4665002 -0.1455037 0.5566595
v -0.4338219 -0.1420821 0.5566596
v -0.4174828 -0.1455037 0.528361
v -0.4665002 -0.1580497 0.5000597
v -0.4174828 -0.1455037 0.4717585
v -0.4011436 -0.1420821 0.5000599
v -0.4338219 -0.1420821 0.4434599
v -0.4665002 -0.1455037 0.4434597
v -0.4665002 -0.1580497 0.5000597
v -0.4665002 -0.1580497 0.5000597
v -0.4665005 0.7755288 0.5000597
v -0.4089902 0.3510489 0.5996698
v -0.3658577 0.3510489 0.5581654
v -0.3514803 0.3510489 0.5000597
v -0.3658577 0.3510489 0.4419541
v -0.4163373 0.4523683 0.5872343
v -0.4667017 0.4522283 0.6017544
v -0.4665002 0.3510489 0.6162704
v -0.52401 0.3510489 0.5996698
v -0.5170085 0.4520855 0.5872205
v -0.4665002 0.5522094 0.5762405
v -0.3785137 0.4524708 0.5509197
v -0.3658291 0.4525012 0.5000734
v -0.3783122 0.452461 0.4492237
v -0.554688 0.4519759 0.5508957
v -0.5671712 0.4519357 0.500046
v -0.5544865 0.4519661 0.4491997
v -0.516663 0.4520687 0.4128853
v -0.4662987 0.4522087 0.3983651
vt 0.4159324 0.9797972
vt 0.3339257 0.9719796
vt 0.4169233 0.9719796
vt 0.4439285 0.9771914
vt 0.49893 0.9797972
vt 0.4999209 0.9719796
vt 0.4979391 0.9876148
vt 0.2509291 0.9719796
vt 0.3332658 0.9771914
vt 0.3329358 0.9797972
vt 0.1679325 0.9719796
vt 0.4979391 0.9876148
vt 0.08493559 0.9719796
vt 0.2226034 0.9771914
vt 0.2499389 0.9797972
vt 0.001938641 0.9719796
vt 0.4979391 0.9876148
vt 0.582918 0.9719796
vt 0.5545917 0.9771914
vt 0.5819271 0.9797972
vt 0.6659151 0.9719796
vt 0.7489107 0.9719796
vt 0.6652535 0.9771914
vt 0.6649227 0.9797972
vt 0.8319063 0.9719796
vt 0.9149028 0.9719796
vt 0.7759149 0.9771914
vt 0.7479192 0.9797972
vt 0.9978994 0.9719796
vt 0.4979391 0.9876148
vt 0.4979391 0.9876148
vt 0.831906 0.8276707
vt 0.9149032 0.8276707
vt 0.9149032 0.7402689
vt 0.831906 0.7402689
vt 0.7489098 0.7402689
vt 0.7489094 0.8276707
vt 0.6659127 0.8276707
vt 0.6659137 0.7402689
vt 0.5829168 0.7402689
vt 0.5829163 0.8276707
vt 0.9979003 0.8276707
vt 0.9979004 0.7402689
vt 0.4999199 0.8276707
vt 0.4169235 0.8276707
vt 0.3339272 0.8276707
vt 0.416923 0.7402689
vt 0.3339262 0.7402689
vt 0.2509301 0.7402689
vt 0.2509305 0.8276707
vt 0.167934 0.8276707
vt 0.167934 0.7402689
vt 0.08493675 0.7402689
vt 0.08493675 0.8276707
vt 0.001939535 0.8276707
vt 0.001939535 0.7402689
vt 0.001939535 0.6629578
vt 0.08493675 0.6629578
vt 0.001939475 0.5863453
vt 0.08493666 0.5863453
vt 0.001939416 0.5093927
vt 0.08493656 0.5093927
vt 0.001939535 0.4078824
vt 0.08493654 0.4078824
vt 0.1679336 0.4078824
vt 0.1679337 0.5093927
vt 0.2509298 0.5093927
vt 0.2509297 0.4078824
vt 0.3339258 0.4078824
vt 0.3339258 0.5093927
vt 0.416923 0.5093927
vt 0.4169229 0.4078824
vt 0.4999201 0.5093927
vt 0.4999199 0.4078824
vt 0.582917 0.4078824
vt 0.5829169 0.5093927
vt 0.6659142 0.4078824
vt 0.6659137 0.5093927
vt 0.7489102 0.5093927
vt 0.7489103 0.4078824
vt 0.8319064 0.4078824
vt 0.8319067 0.5093927
vt 0.9149034 0.5093927
vt 0.9149034 0.4078824
vt 0.9979003 0.4078824
vt 0.9979002 0.5093927
vt 0.4169234 0.2911952
vt 0.4999199 0.2911951
vt 0.5829165 0.2911952
vt 0.9149033 0.5863453
vt 0.8319063 0.5863453
vt 0.9979002 0.5863453
vt 0.7489102 0.5863453
vt 0.6659142 0.5863453
vt 0.4169239 0.1390626
vt 0.3339279 0.1390626
vt 0.3339269 0.2911951
vt 0.2509299 0.2911952
vt 0.2509301 0.1390626
vt 0.1679322 0.1390626
vt 0.1679329 0.2911951
vt 0.08493622 0.2911952
vt 0.08493589 0.1390626
vt 0.001939535 0.1390626
vt 0.001939535 0.2911951
vt 0.3339284 0.0440807
vt 0.4169241 0.0440807
vt 0.4999199 0.1390626
vt 0.4999199 0.0440807
vt 0.1679326 0.0440807
vt 0.2509305 0.0440807
vt 0.001939535 0.0440807
vt 0.08493605 0.0440807
vt 0.5829157 0.0440807
vt 0.5829159 0.1390626
vt 0.6659116 0.0440807
vt 0.6659119 0.1390626
vt 0.665913 0.2911951
vt 0.7489101 0.2911952
vt 0.7489098 0.1390626
vt 0.8319077 0.1390626
vt 0.8319072 0.2911951
vt 0.9149038 0.2911952
vt 0.914904 0.1390626
vt 0.9979003 0.1390626
vt 0.9979003 0.2911951
vt 0.8319074 0.0440807
vt 0.9149039 0.0440807
vt 0.9979003 0.0440807
vt 0.7489095 0.0440807
vt 0.6670139 0.03114939
vt 0.7773094 0.03545982
vt 0.7500104 0.03114939
vt 0.5021204 0.01821807
vt 0.6666465 0.03545982
vt 0.584016 0.03114939
vt 0.5021204 0.01821807
vt 0.555984 0.03545982
vt 0.5010202 0.03114939
vt 0.4453229 0.03545982
vt 0.4180244 0.03114939
vt 0.5021204 0.01821807
vt 0.3350265 0.03114939
vt 0.3346604 0.03545982
vt 0.2239975 0.03545982
vt 0.25203 0.03114939
vt 0.5021204 0.01821807
vt 0.5021204 0.01821807
vt 0.4979391 0.9876148
vt 0.4169227 0.5863453
vt 0.3339255 0.5863453
vt 0.2509297 0.5863453
vt 0.1679338 0.5863453
vt 0.4169225 0.6629578
vt 0.4999199 0.6629578
vt 0.49992 0.5863453
vt 0.5829171 0.5863453
vt 0.5829173 0.6629578
vt 0.4999199 0.7402689
vt 0.3339252 0.6629578
vt 0.2509296 0.6629578
vt 0.167934 0.6629578
vt 0.6659147 0.6629578
vt 0.7489103 0.6629578
vt 0.831906 0.6629578
vt 0.9149032 0.6629578
vt 0.9979003 0.6629578
vn 0.5990052 0.722207 0.3458467
vn 0.8312634 0.2804684 0.4799362
vn 0.4803319 0.2776169 0.8319917
vn 0.3708117 0.6707986 0.6422834
vn -3.375326E-07 0.7221963 0.6916882
vn -1.059693E-07 0.2804652 0.9598642
vn -2.100499E-06 1 6.553282E-07
vn 0.9606919 0.2776167 -3.851326E-07
vn 0.7416378 0.6708006 6.579514E-07
vn 0.5990084 0.7222064 -0.3458422
vn 0.8312656 0.2804669 -0.4799332
vn -2.100499E-06 1 6.553282E-07
vn 0.4803334 0.2776146 -0.8319916
vn 0.3708137 0.6708006 -0.6422802
vn -2.028434E-06 0.722199 -0.6916853
vn -3.330468E-07 0.2804627 -0.9598649
vn -2.100499E-06 1 6.553282E-07
vn -0.4803302 0.2776167 0.8319927
vn -0.370812 0.6707957 0.6422863
vn -0.5990109 0.7222033 0.3458444
vn -0.8312643 0.280467 0.4799353
vn -0.9606927 0.277614 -1.816663E-07
vn -0.7416414 0.6707965 -1.37959E-07
vn -0.599013 0.7222022 -0.3458431
vn -0.831267 0.2804652 -0.4799316
vn -0.4803338 0.277614 -0.8319916
vn -0.3708147 0.670797 -0.6422833
vn -2.028434E-06 0.722199 -0.6916853
vn -3.330468E-07 0.2804627 -0.9598649
vn -2.100499E-06 1 6.553282E-07
vn -2.100499E-06 1 6.553282E-07
vn -0.8342819 0.2682625 -0.481673
vn -0.4819656 0.2660774 -0.8348126
vn -0.4837236 0.2541452 -0.8375092
vn -0.8369011 0.2564374 -0.4835663
vn -0.9670911 0.2544295 -0.000669822
vn -0.9639516 0.2660777 4.363772E-07
vn -0.8342805 0.2682631 0.4816752
vn -0.8371832 0.2572446 0.4826486
vn -0.4837523 0.2549663 0.837243
vn -0.4819639 0.2660787 0.8348131
vn 1.374223E-07 0.2682597 -0.9633467
vn -0.0004971811 0.2570984 -0.9663851
vn 1.49372E-07 0.268261 0.9633463
vn 0.4819649 0.2660789 0.8348125
vn 0.83428 0.2682638 0.4816758
vn 0.4831865 0.2545581 0.8376938
vn 0.836578 0.257135 0.4837551
vn 0.9668858 0.2552088 0.0006456984
vn 0.9639511 0.2660794 1.157736E-07
vn 0.834281 0.2682633 -0.4816742
vn 0.836843 0.257917 -0.4828795
vn 0.4831985 0.2553325 -0.8374512
vn 0.4819654 0.2660776 -0.8348126
vn 1.374223E-07 0.2682597 -0.9633467
vn -0.0004971811 0.2570984 -0.9663851
vn 0.000234462 0.1880249 -0.9821642
vn 0.4915223 0.1863173 -0.8507007
vn 0.0003719695 0.130023 -0.9915109
vn 0.4961865 0.1282551 -0.8586906
vn 0.001391414 0.2041383 -0.978941
vn 0.4907626 0.2018131 -0.8475987
vn 0.0001866207 0.2580915 -0.9661204
vn 0.4835368 0.2558028 -0.8371124
vn 0.8367302 0.2582117 -0.4829176
vn 0.8483468 0.2041735 -0.4884883
vn 0.9794315 0.2017745 0.0009465383
vn 0.966764 0.2556704 0.0001383476
vn 0.8366784 0.2578673 0.4831911
vn 0.8473306 0.2040673 0.4902932
vn 0.4889645 0.2016452 0.8486772
vn 0.4833343 0.2552081 0.8374107
vn -0.001015916 0.2039291 0.9789851
vn -0.0001315315 0.2574082 0.9663028
vn -0.4836357 0.2548714 0.8373392
vn -0.4906683 0.201552 0.8477154
vn -0.8369576 0.2572819 0.4830198
vn -0.8484684 0.2038906 0.4883953
vn -0.9794702 0.2015848 -0.001340808
vn -0.9669434 0.2549908 -0.0002270878
vn -0.8366964 0.2576194 -0.4832923
vn -0.8470863 0.2039933 -0.490746
vn -0.4884915 0.2017167 -0.8489325
vn -0.4832005 0.2554591 -0.8374114
vn 0.0001866207 0.2580915 -0.9661204
vn 0.001391414 0.2041383 -0.978941
vn 0.4960408 0.1256077 0.859166
vn 0 0.1264775 0.9919695
vn -0.4960413 0.1256079 0.8591657
vn -0.4952615 0.1292684 -0.8590726
vn -0.8581529 0.1307253 -0.496472
vn 0.0003719695 0.130023 -0.9915109
vn -0.9916082 0.1292759 -0.000920483
vn -0.8589399 0.1303228 0.4952153
vn 0.4880319 -0.2175087 0.8452898
vn 0.8454593 -0.2166505 0.4881199
vn 0.8590734 0.1264695 0.4959822
vn 0.9920812 0.1255978 1.919486E-07
vn 0.9760562 -0.2175184 0
vn 0.84546 -0.2166511 -0.4881186
vn 0.8590738 0.1264681 -0.495982
vn 0.4960421 0.1256064 -0.8591655
vn 0.488034 -0.2175087 -0.8452886
vn 3.468104E-07 -0.2166376 -0.9762521
vn 3.442092E-07 0.1264767 -0.9919695
vn 0.63599 -0.6787457 0.3671799
vn 0.37046 -0.6716016 0.6416467
vn 0 -0.2166381 0.976252
vn 0 -0.678748 0.7343713
vn 0.6359912 -0.6787452 -0.3671786
vn 0.740914 -0.6715999 1.069633E-07
vn 0 -0.6787469 -0.7343722
vn 0.3704627 -0.671601 -0.641646
vn -0.3704604 -0.6716016 0.6416466
vn -0.4880323 -0.2175085 0.8452896
vn -0.6359902 -0.6787456 0.3671796
vn -0.8454596 -0.2166503 0.4881195
vn -0.8590735 0.1264701 0.495982
vn -0.9920811 0.125599 2.177878E-07
vn -0.9760562 -0.2175184 0
vn -0.8454603 -0.2166506 -0.4881181
vn -0.8590738 0.126469 -0.4959816
vn -0.4960424 0.1256067 -0.8591652
vn -0.4880341 -0.2175084 -0.8452886
vn 3.468104E-07 -0.2166376 -0.9762521
vn 3.442092E-07 0.1264767 -0.9919695
vn -0.6359913 -0.678745 -0.3671788
vn -0.3704627 -0.6716006 -0.6416462
vn 0 -0.6787469 -0.7343722
vn -0.7409139 -0.6716 1.886712E-07
vn -0.3237962 -0.9274746 -0.1869407
vn -0.2035142 -0.9134185 -0.3524891
vn 0 -0.9274786 -0.3738762
vn 0 -1 -2.253818E-07
vn -0.4070314 -0.9134142 1.928478E-07
vn -0.3237946 -0.9274751 0.186941
vn 0 -1 -2.253818E-07
vn -0.2035121 -0.9134189 0.3524891
vn 0 -0.9274788 0.3738756
vn 0.203512 -0.9134189 0.3524894
vn 0.3237944 -0.9274752 0.1869409
vn 0 -1 -2.253818E-07
vn 0.3237958 -0.9274748 -0.1869407
vn 0.4070306 -0.9134145 0
vn 0.2035142 -0.9134187 -0.3524887
vn 0 -0.9274786 -0.3738762
vn 0 -1 -2.253818E-07
vn 0 -1 -2.253818E-07
vn -2.100499E-06 1 6.553282E-07
vn 0.4957415 0.1292707 0.8587953
vn 0.8585119 0.1302841 0.4959671
vn 0.991707 0.1285184 0.000515064
vn 0.8589659 0.1294379 -0.4954022
vn 0.4906068 0.1864787 0.8511936
vn -0.000585083 0.1880243 0.9821641
vn 9.793395E-05 0.1304706 0.9914522
vn -0.4960084 0.1290148 0.8586797
vn -0.4918072 0.1863531 0.8505282
vn -0.0001966898 0.2571266 0.9663777
vn 0.850089 0.1880616 0.4919162
vn 0.98248 0.1863652 0.001001436
vn 0.8509703 0.187898 -0.4904528
vn -0.8510534 0.1879587 0.4902852
vn -0.9824659 0.1864397 -0.001015047
vn -0.8501605 0.1881265 -0.4917678
vn -0.49088 0.186518 -0.8510275
vn 0.000234462 0.1880249 -0.9821642
g pm0105_61_R_FireAStenSkin_0
f 3/3/3 2/2/2 1/1/1
f 4/4/4 3/3/3 1/1/1
f 4/4/4 5/5/5 3/3/3
f 4/4/4 1/1/1 5/5/5
f 5/5/5 6/6/6 3/3/3
f 1/1/1 7/7/7 5/5/5
f 1/1/1 2/2/2 8/8/8
f 9/9/9 1/1/1 8/8/8
f 9/9/9 8/8/8 10/10/10
f 9/9/9 10/10/10 1/1/1
f 8/8/8 11/11/11 10/10/10
f 10/10/10 12/12/12 1/1/1
f 10/10/10 11/11/11 13/13/13
f 14/14/14 10/10/10 13/13/13
f 14/14/14 13/13/13 15/15/15
f 14/14/14 15/15/15 10/10/10
f 13/13/13 16/16/16 15/15/15
f 15/15/15 17/17/17 10/10/10
f 18/18/18 6/6/6 5/5/5
f 19/19/19 18/18/18 5/5/5
f 19/19/19 20/20/20 18/18/18
f 19/19/19 5/5/5 20/20/20
f 20/20/20 21/21/21 18/18/18
f 22/22/22 21/21/21 20/20/20
f 23/23/23 22/22/22 20/20/20
f 23/23/23 24/24/24 22/22/22
f 23/23/23 20/20/20 24/24/24
f 24/24/24 25/25/25 22/22/22
f 26/26/26 25/25/25 24/24/24
f 27/27/27 26/26/26 24/24/24
f 27/27/27 28/28/28 26/26/26
f 27/27/27 24/24/24 28/28/28
f 28/28/28 29/29/29 26/26/26
f 24/24/24 30/30/30 28/28/28
f 20/20/20 31/31/31 24/24/24
f 25/25/25 26/26/26 32/32/32
f 22/22/22 25/25/25 32/32/32
f 26/26/26 33/33/33 32/32/32
f 33/33/33 34/34/34 32/32/32
f 34/34/34 35/35/35 32/32/32
f 35/35/35 36/36/36 32/32/32
f 36/36/36 37/37/37 32/32/32
f 37/37/37 22/22/22 32/32/32
f 37/37/37 36/36/36 38/38/38
f 36/36/36 39/39/39 38/38/38
f 39/39/39 40/40/40 38/38/38
f 40/40/40 41/41/41 38/38/38
f 34/34/34 33/33/33 42/42/42
f 43/43/43 34/34/34 42/42/42
f 26/26/26 29/29/29 42/42/42
f 33/33/33 26/26/26 42/42/42
f 22/22/22 37/37/37 38/38/38
f 21/21/21 22/22/22 38/38/38
f 18/18/18 21/21/21 38/38/38
f 41/41/41 18/18/18 38/38/38
f 18/18/18 41/41/41 6/6/6
f 41/41/41 44/44/44 6/6/6
f 44/44/44 45/45/45 6/6/6
f 45/45/45 3/3/3 6/6/6
f 3/3/3 45/45/45 46/46/46
f 45/45/45 47/47/47 46/46/46
f 45/45/45 44/44/44 47/47/47
f 47/47/47 48/48/48 46/46/46
f 48/48/48 49/49/49 46/46/46
f 49/49/49 50/50/50 46/46/46
f 50/50/50 49/49/49 51/51/51
f 49/49/49 52/52/52 51/51/51
f 52/52/52 53/53/53 51/51/51
f 53/53/53 54/54/54 51/51/51
f 54/54/54 53/53/53 55/55/55
f 53/53/53 56/56/56 55/55/55
f 2/2/2 3/3/3 46/46/46
f 8/8/8 50/50/50 51/51/51
f 8/8/8 2/2/2 46/46/46
f 50/50/50 8/8/8 46/46/46
f 11/11/11 8/8/8 51/51/51
f 13/13/13 54/54/54 55/55/55
f 13/13/13 11/11/11 51/51/51
f 54/54/54 13/13/13 51/51/51
f 16/16/16 13/13/13 55/55/55
f 57/57/57 56/56/56 53/53/53
f 58/58/58 57/57/57 53/53/53
f 58/58/58 53/53/53 52/52/52
f 57/57/57 58/58/58 59/59/59
f 58/58/58 60/60/60 59/59/59
f 59/59/59 60/60/60 61/61/61
f 60/60/60 62/62/62 61/61/61
f 61/61/61 62/62/62 63/63/63
f 62/62/62 64/64/64 63/63/63
f 64/64/64 62/62/62 65/65/65
f 62/62/62 66/66/66 65/65/65
f 62/62/62 60/60/60 66/66/66
f 66/66/66 67/67/67 65/65/65
f 67/67/67 68/68/68 65/65/65
f 68/68/68 67/67/67 69/69/69
f 67/67/67 70/70/70 69/69/69
f 70/70/70 71/71/71 69/69/69
f 71/71/71 72/72/72 69/69/69
f 72/72/72 71/71/71 73/73/73
f 74/74/74 72/72/72 73/73/73
f 75/75/75 74/74/74 73/73/73
f 76/76/76 75/75/75 73/73/73
f 75/75/75 76/76/76 77/77/77
f 76/76/76 78/78/78 77/77/77
f 78/78/78 79/79/79 77/77/77
f 79/79/79 80/80/80 77/77/77
f 80/80/80 79/79/79 81/81/81
f 79/79/79 82/82/82 81/81/81
f 82/82/82 83/83/83 81/81/81
f 83/83/83 84/84/84 81/81/81
f 84/84/84 83/83/83 85/85/85
f 83/83/83 86/86/86 85/85/85
f 87/87/87 72/72/72 74/74/74
f 88/88/88 87/87/87 74/74/74
f 89/89/89 88/88/88 74/74/74
f 75/75/75 89/89/89 74/74/74
f 75/75/75 77/77/77 89/89/89
f 90/90/90 83/83/83 82/82/82
f 83/83/83 90/90/90 86/86/86
f 91/91/91 90/90/90 82/82/82
f 90/90/90 92/92/92 86/86/86
f 93/93/93 79/79/79 78/78/78
f 93/93/93 91/91/91 82/82/82
f 79/79/79 93/93/93 82/82/82
f 94/94/94 93/93/93 78/78/78
f 95/95/95 87/87/87 88/88/88
f 87/87/87 95/95/95 96/96/96
f 97/97/97 87/87/87 96/96/96
f 98/98/98 97/97/97 96/96/96
f 99/99/99 98/98/98 96/96/96
f 98/98/98 99/99/99 100/100/100
f 101/101/101 98/98/98 100/100/100
f 102/102/102 101/101/101 100/100/100
f 103/103/103 102/102/102 100/100/100
f 102/102/102 103/103/103 104/104/104
f 105/105/105 102/102/102 104/104/104
f 96/96/96 95/95/95 106/106/106
f 99/99/99 96/96/96 106/106/106
f 95/95/95 107/107/107 106/106/106
f 107/107/107 95/95/95 108/108/108
f 109/109/109 107/107/107 108/108/108
f 100/100/100 99/99/99 110/110/110
f 103/103/103 100/100/100 110/110/110
f 99/99/99 111/111/111 110/110/110
f 111/111/111 99/99/99 106/106/106
f 104/104/104 103/103/103 112/112/112
f 103/103/103 113/113/113 112/112/112
f 113/113/113 103/103/103 110/110/110
f 114/114/114 109/109/109 108/108/108
f 115/115/115 114/114/114 108/108/108
f 114/114/114 115/115/115 116/116/116
f 115/115/115 117/117/117 116/116/116
f 115/115/115 89/89/89 117/117/117
f 115/115/115 108/108/108 89/89/89
f 89/89/89 118/118/118 117/117/117
f 118/118/118 119/119/119 117/117/117
f 119/119/119 120/120/120 117/117/117
f 117/117/117 120/120/120 116/116/116
f 120/120/120 119/119/119 121/121/121
f 119/119/119 122/122/122 121/121/121
f 122/122/122 123/123/123 121/121/121
f 123/123/123 124/124/124 121/121/121
f 124/124/124 123/123/123 125/125/125
f 123/123/123 126/126/126 125/125/125
f 121/121/121 124/124/124 127/127/127
f 120/120/120 121/121/121 127/127/127
f 124/124/124 128/128/128 127/127/127
f 124/124/124 125/125/125 129/129/129
f 128/128/128 124/124/124 129/129/129
f 120/120/120 130/130/130 116/116/116
f 130/130/130 120/120/120 127/127/127
f 131/131/131 127/127/127 128/128/128
f 130/130/130 127/127/127 131/131/131
f 132/132/132 131/131/131 128/128/128
f 132/132/132 133/133/133 131/131/131
f 128/128/128 129/129/129 133/133/133
f 132/132/132 128/128/128 133/133/133
f 133/133/133 134/134/134 131/131/131
f 135/135/135 130/130/130 131/131/131
f 135/135/135 136/136/136 130/130/130
f 135/135/135 131/131/131 136/136/136
f 136/136/136 116/116/116 130/130/130
f 131/131/131 137/137/137 136/136/136
f 114/114/114 116/116/116 136/136/136
f 138/138/138 114/114/114 136/136/136
f 138/138/138 139/139/139 114/114/114
f 138/138/138 136/136/136 139/139/139
f 139/139/139 109/109/109 114/114/114
f 107/107/107 109/109/109 139/139/139
f 140/140/140 107/107/107 139/139/139
f 140/140/140 141/141/141 107/107/107
f 140/140/140 139/139/139 141/141/141
f 141/141/141 106/106/106 107/107/107
f 139/139/139 142/142/142 141/141/141
f 141/141/141 142/142/142 143/143/143
f 144/144/144 141/141/141 143/143/143
f 144/144/144 143/143/143 111/111/111
f 111/111/111 106/106/106 141/141/141
f 144/144/144 111/111/111 141/141/141
f 143/143/143 110/110/110 111/111/111
f 113/113/113 110/110/110 143/143/143
f 145/145/145 113/113/113 143/143/143
f 145/145/145 146/146/146 113/113/113
f 145/145/145 143/143/143 146/146/146
f 146/146/146 112/112/112 113/113/113
f 143/143/143 147/147/147 146/146/146
f 136/136/136 148/148/148 139/139/139
f 5/5/5 149/149/149 20/20/20
f 150/150/150 71/71/71 70/70/70
f 151/151/151 150/150/150 70/70/70
f 152/152/152 151/151/151 70/70/70
f 67/67/67 152/152/152 70/70/70
f 152/152/152 67/67/67 66/66/66
f 153/153/153 152/152/152 66/66/66
f 60/60/60 153/153/153 66/66/66
f 154/154/154 150/150/150 151/151/151
f 150/150/150 154/154/154 155/155/155
f 156/156/156 150/150/150 155/155/155
f 71/71/71 150/150/150 156/156/156
f 157/157/157 156/156/156 155/155/155
f 158/158/158 157/157/157 155/155/155
f 40/40/40 158/158/158 155/155/155
f 159/159/159 40/40/40 155/155/155
f 47/47/47 159/159/159 155/155/155
f 154/154/154 47/47/47 155/155/155
f 160/160/160 154/154/154 151/151/151
f 160/160/160 151/151/151 152/152/152
f 154/154/154 160/160/160 47/47/47
f 161/161/161 152/152/152 153/153/153
f 161/161/161 160/160/160 152/152/152
f 162/162/162 161/161/161 153/153/153
f 162/162/162 153/153/153 60/60/60
f 58/58/58 162/162/162 60/60/60
f 73/73/73 156/156/156 157/157/157
f 73/73/73 71/71/71 156/156/156
f 76/76/76 73/73/73 157/157/157
f 76/76/76 157/157/157 78/78/78
f 157/157/157 94/94/94 78/78/78
f 163/163/163 94/94/94 157/157/157
f 158/158/158 163/163/163 157/157/157
f 163/163/163 164/164/164 94/94/94
f 164/164/164 93/93/93 94/94/94
f 164/164/164 165/165/165 93/93/93
f 165/165/165 91/91/91 93/93/93
f 165/165/165 166/166/166 91/91/91
f 166/166/166 90/90/90 91/91/91
f 166/166/166 167/167/167 90/90/90
f 167/167/167 92/92/92 90/90/90
f 164/164/164 163/163/163 36/36/36
f 163/163/163 39/39/39 36/36/36
f 163/163/163 158/158/158 39/39/39
f 158/158/158 40/40/40 39/39/39
f 164/164/164 36/36/36 35/35/35
f 165/165/165 164/164/164 35/35/35
f 165/165/165 35/35/35 34/34/34
f 166/166/166 165/165/165 34/34/34
f 166/166/166 34/34/34 43/43/43
f 167/167/167 166/166/166 43/43/43
f 41/41/41 40/40/40 159/159/159
f 44/44/44 41/41/41 159/159/159
f 44/44/44 159/159/159 47/47/47
f 160/160/160 48/48/48 47/47/47
f 160/160/160 161/161/161 48/48/48
f 161/161/161 49/49/49 48/48/48
f 161/161/161 162/162/162 49/49/49
f 162/162/162 52/52/52 49/49/49
f 162/162/162 58/58/58 52/52/52
f 108/108/108 95/95/95 88/88/88
f 108/108/108 88/88/88 89/89/89
f 77/77/77 118/118/118 89/89/89
f 77/77/77 80/80/80 118/118/118
f 80/80/80 119/119/119 118/118/118
f 80/80/80 81/81/81 119/119/119
f 81/81/81 122/122/122 119/119/119
f 81/81/81 84/84/84 122/122/122
f 84/84/84 123/123/123 122/122/122
f 84/84/84 85/85/85 123/123/123
f 85/85/85 126/126/126 123/123/123
f 72/72/72 87/87/87 97/97/97
f 69/69/69 72/72/72 97/97/97
f 69/69/69 97/97/97 98/98/98
f 68/68/68 69/69/69 98/98/98
f 68/68/68 98/98/98 101/101/101
f 65/65/65 68/68/68 101/101/101
f 65/65/65 101/101/101 102/102/102
f 64/64/64 65/65/65 102/102/102
f 64/64/64 102/102/102 105/105/105
f 63/63/63 64/64/64 105/105/105
