g pm0105_61_R_FireCore2Skin
v -0.3514677 0.1492622 0.5598277
v -0.3299478 0.04665571 0.6041182
v -0.4220435 0.04664344 0.5339047
v -0.4396946 0.1493458 0.5139492
v -0.3654904 0.247838 0.516671
v -0.4453362 0.2474768 0.5035012
v -0.3490638 -0.05563673 0.6173546
v -0.425589 -0.05931102 0.5409214
v -0.38846 -0.1146642 0.5780728
v -0.4665056 -0.138133 0.5000538
v -0.4532829 0.3448631 0.4978743
v -0.3795782 0.3448119 0.4857914
v -0.4565966 0.4428247 0.4966374
v -0.3981279 0.4421542 0.4764
v -0.4213625 0.5464576 0.4717399
v -0.4665191 0.5464577 0.5000663
v -0.466498 0.6460757 0.5000471
v -0.440017 0.6460757 0.4738632
v -0.4665103 0.7609297 0.5000599
v -0.5815315 0.1495163 0.440192
v -0.6027748 0.04665571 0.3961727
v -0.5112957 0.04657448 0.4658789
v -0.493305 0.1494043 0.4860712
v -0.5675086 0.2478201 0.4833481
v -0.4876631 0.2474768 0.4965193
v -0.5836319 -0.05563674 0.3828788
v -0.5100671 -0.0591784 0.4564742
v -0.5448371 -0.1146642 0.4216671
v -0.4664938 -0.138133 0.5000657
v -0.4793642 0.3448813 0.5021562
v -0.5533335 0.3449326 0.5143176
v -0.4764089 0.4430519 0.5035135
v -0.5346836 0.4437202 0.523794
v -0.5113501 0.5464576 0.5285443
v -0.4665191 0.5464577 0.5000663
v -0.466498 0.6460757 0.5000471
v -0.4926813 0.6460757 0.5264099
v -0.4665103 0.7609297 0.5000599
v -0.5263175 0.1492622 0.6150423
v -0.5705776 0.04665571 0.6365408
v -0.5004822 0.04664344 0.5444474
v -0.4804389 0.1493458 0.5268154
v -0.4831608 0.247838 0.6010197
v -0.4699908 0.2474768 0.5211738
v -0.5838789 -0.05563674 0.6173984
v -0.5084905 -0.05925856 0.5420284
v -0.5445551 -0.1146642 0.5780596
v -0.4665056 -0.138133 0.5000538
v -0.4642977 0.3448631 0.5131698
v -0.4520158 0.3448108 0.5884699
v -0.4631309 0.4428247 0.509922
v -0.4428616 0.4421542 0.5683907
v -0.438192 0.5464576 0.545164
v -0.4665192 0.5464577 0.5000665
v -0.4665141 0.6460757 0.5000318
v -0.440366 0.6460757 0.5264689
v -0.4664987 0.7609297 0.5000713
v -0.4066818 0.1495163 0.3849785
v -0.3626321 0.04665571 0.3637138
v -0.4324563 0.04657448 0.4551952
v -0.452561 0.1494043 0.4732049
v -0.4498379 0.2478201 0.3990014
v -0.4630089 0.2474768 0.4788469
v -0.3494989 -0.05563674 0.3827346
v -0.4252413 -0.05928696 0.4586792
v -0.3881284 -0.1146642 0.4217034
v -0.4665056 -0.138133 0.5000538
v -0.4686168 0.3448815 0.4868606
v -0.4810437 0.3449337 0.411659
v -0.470007 0.4430519 0.4901096
v -0.4902556 0.4437202 0.4318349
v -0.4949964 0.5464576 0.4551764
v -0.4665192 0.5464577 0.5000665
v -0.4665141 0.6460757 0.5000318
v -0.4929126 0.6460757 0.4738046
v -0.4664987 0.7609297 0.5000713
vt 0.9945436 1.819869
vt 0.9945436 1.645257
vt 0.02145255 1.648094
vt 0.03655016 1.838467
vt 0.9945436 1.999813
vt 0.07379556 2.02213
vt 0.9945436 1.435205
vt 0.01601136 1.428705
vt 0.9185411 1.291436
vt 0.7623969 1.167715
vt 0.1625955 2.21281
vt 0.9945436 2.198654
vt 0.2861679 2.367167
vt 0.9945436 2.347449
vt 0.9945436 2.526357
vt 0.4611605 2.54861
vt 0.6526369 2.733515
vt 0.9945436 2.70932
vt 0.9945436 2.907511
vt 0.9939905 1.544275
vt 0.9939905 1.390187
vt 0.01907277 1.362486
vt 0.02682185 1.564875
vt 0.9939905 1.721165
vt 0.06383729 1.741233
vt 0.9939905 1.143183
vt 0.1574966 1.155933
vt 0.9179879 1.015456
vt 0.7618438 0.90625
vt 0.1886202 1.928975
vt 0.9939905 1.915243
vt 0.3323098 2.082409
vt 0.9939905 2.06361
vt 0.9939905 2.237278
vt 0.5200608 2.262668
vt 0.7149823 2.452194
vt 0.9939905 2.429588
vt 0.9939905 2.655622
vt 0.9941082 2.13524
vt 0.9941082 1.939883
vt 0.03331411 1.969227
vt 0.05464947 2.147567
vt 0.9941082 2.310161
vt 0.1030253 2.334619
vt 0.9941082 1.732795
vt 0.07824814 1.744534
vt 0.9181058 1.587215
vt 0.7619617 1.468397
vt 0.230405 2.499454
vt 0.9941082 2.48668
vt 0.3835167 2.672167
vt 0.9941082 2.651317
vt 0.9941082 2.819261
vt 0.5659076 2.851045
vt 0.7750155 3.043524
vt 0.9941082 3.024149
vt 0.9941082 3.197214
vt 0.9946679 2.318138
vt 0.9946679 2.128126
vt 0.03387366 2.144567
vt 0.05778341 2.33533
vt 0.9946679 2.490875
vt 0.09132184 2.515089
vt 0.9946679 1.920515
vt 0.07234003 1.924815
vt 0.910075 1.764228
vt 0.7625212 1.674133
vt 0.160088 2.686559
vt 0.9946678 2.670554
vt 0.2720652 2.858796
vt 0.9946679 2.844339
vt 0.9946678 3.007442
vt 0.4205958 3.030455
vt 0.6376762 3.216692
vt 0.9946679 3.189044
vt 0.9946679 3.394094
vn -0.4644609 0.1800055 0.8671067
vn -0.6030867 0.1499053 0.7834634
vn -0.5914245 0.1513656 0.7920262
vn -0.4316655 0.1896557 0.8818705
vn -0.1996289 0.2072371 0.9577062
vn -0.1733882 0.2044559 0.9633973
vn -0.658201 0.1276731 0.7419373
vn -0.6694846 0.1012779 0.7358894
vn -0.7068532 0.0006275369 0.7073601
vn -0.7070429 0.0003733036 0.7071705
vn 0.1120156 0.1343866 0.9845774
vn 0.09760001 0.1405157 0.9852561
vn 0.3312072 0.0764709 0.9404542
vn 0.3160051 0.0769759 0.9456297
vn 0.4949128 0.06386846 0.8665923
vn 0.5071828 0.06222964 0.8595889
vn 0.6378751 0.03269562 0.7694455
vn 0.6314068 0.03577846 0.7746259
vn 0.7031071 -3.567478E-06 0.7110839
vn 0.4642405 0.1798328 -0.8672606
vn 0.601868 0.1507366 -0.7842406
vn 0.5897476 0.1520279 -0.7931489
vn 0.4316787 0.1895555 -0.8818856
vn 0.1993583 0.2075608 -0.9576924
vn 0.1727777 0.2047532 -0.9634438
vn 0.6575962 0.1292168 -0.7422064
vn 0.6691149 0.1024427 -0.7360643
vn 0.7073145 0.0002120639 -0.706899
vn 0.7073761 0.0001345324 -0.7068373
vn -0.1125232 0.134442 -0.984512
vn -0.0984053 0.1404784 -0.9851813
vn -0.3299828 0.07727705 -0.9408186
vn -0.3172474 0.07759731 -0.9451628
vn -0.4988979 0.06496155 -0.8642227
vn -0.5114634 0.06325397 -0.8569738
vn -0.6438411 0.03306142 -0.7644446
vn -0.6373355 0.03617033 -0.769737
vn -0.7095165 2.502911E-06 -0.7046888
vn -0.8672072 0.180317 -0.4641525
vn -0.7838783 0.1503438 -0.602438
vn -0.7926146 0.1518472 -0.5905121
vn -0.8819397 0.1898927 -0.4314199
vn -0.9580197 0.2078331 -0.1974935
vn -0.9634979 0.2052692 -0.1718617
vn -0.7421959 0.1280345 -0.6578392
vn -0.7360641 0.1015792 -0.6692468
vn -0.706956 0.0002315077 -0.7072575
vn -0.7068876 0.000142771 -0.7073259
vn -0.9844204 0.1353543 0.1122303
vn -0.9850724 0.1416349 0.09783653
vn -0.9407632 0.07663272 0.3302907
vn -0.9460775 0.07714827 0.3146195
vn -0.8663934 0.06398151 0.4952462
vn -0.8593876 0.06233805 0.5075105
vn -0.7692567 0.03269739 0.6381027
vn -0.7744229 0.03579002 0.6316552
vn -0.7109823 -0.0001479177 0.7032098
vn 0.8671598 0.1795224 0.4645487
vn 0.783712 0.1494701 0.6028716
vn 0.7922334 0.1508351 0.5912825
vn 0.8818161 0.1893187 0.4319245
vn 0.9580415 0.2079543 0.19726
vn 0.9635601 0.205339 0.1714288
vn 0.7420015 0.1277103 0.6581215
vn 0.7358201 0.1013593 0.6695485
vn 0.7074424 0.002201017 0.7067675
vn 0.7067872 0.001323178 0.707425
vn 0.9842812 0.1355362 -0.1132276
vn 0.9849422 0.1416245 -0.09915325
vn 0.9410545 0.07774058 -0.3292001
vn 0.9455495 0.07815146 -0.3159566
vn 0.8644243 0.06484638 -0.4985634
vn 0.8571783 0.0631432 -0.5111343
vn 0.7646418 0.03305789 -0.6436071
vn 0.7699485 0.03615653 -0.6370808
vn 0.7048009 0.0001506613 -0.7094051
g pm0105_61_R_FireCore2Skin_0
f 3/3/3 2/2/2 1/1/1
f 4/4/4 3/3/3 1/1/1
f 4/4/4 1/1/1 5/5/5
f 6/6/6 4/4/4 5/5/5
f 7/7/7 2/2/2 3/3/3
f 8/8/8 7/7/7 3/3/3
f 8/8/8 9/9/9 7/7/7
f 8/8/8 10/10/10 9/9/9
f 6/6/6 5/5/5 11/11/11
f 5/5/5 12/12/12 11/11/11
f 11/11/11 12/12/12 13/13/13
f 12/12/12 14/14/14 13/13/13
f 13/13/13 14/14/14 15/15/15
f 16/16/16 13/13/13 15/15/15
f 16/16/16 15/15/15 17/17/17
f 15/15/15 18/18/18 17/17/17
f 17/17/17 18/18/18 19/19/19
f 22/22/22 21/21/21 20/20/20
f 23/23/23 22/22/22 20/20/20
f 23/23/23 20/20/20 24/24/24
f 25/25/25 23/23/23 24/24/24
f 26/26/26 21/21/21 22/22/22
f 27/27/27 26/26/26 22/22/22
f 27/27/27 28/28/28 26/26/26
f 27/27/27 29/29/29 28/28/28
f 25/25/25 24/24/24 30/30/30
f 24/24/24 31/31/31 30/30/30
f 30/30/30 31/31/31 32/32/32
f 31/31/31 33/33/33 32/32/32
f 32/32/32 33/33/33 34/34/34
f 35/35/35 32/32/32 34/34/34
f 35/35/35 34/34/34 36/36/36
f 34/34/34 37/37/37 36/36/36
f 36/36/36 37/37/37 38/38/38
f 41/41/41 40/40/40 39/39/39
f 42/42/42 41/41/41 39/39/39
f 42/42/42 39/39/39 43/43/43
f 44/44/44 42/42/42 43/43/43
f 45/45/45 40/40/40 41/41/41
f 46/46/46 45/45/45 41/41/41
f 46/46/46 47/47/47 45/45/45
f 46/46/46 48/48/48 47/47/47
f 44/44/44 43/43/43 49/49/49
f 43/43/43 50/50/50 49/49/49
f 49/49/49 50/50/50 51/51/51
f 50/50/50 52/52/52 51/51/51
f 51/51/51 52/52/52 53/53/53
f 54/54/54 51/51/51 53/53/53
f 54/54/54 53/53/53 55/55/55
f 53/53/53 56/56/56 55/55/55
f 55/55/55 56/56/56 57/57/57
f 60/60/60 59/59/59 58/58/58
f 61/61/61 60/60/60 58/58/58
f 61/61/61 58/58/58 62/62/62
f 63/63/63 61/61/61 62/62/62
f 64/64/64 59/59/59 60/60/60
f 65/65/65 64/64/64 60/60/60
f 65/65/65 66/66/66 64/64/64
f 65/65/65 67/67/67 66/66/66
f 63/63/63 62/62/62 68/68/68
f 62/62/62 69/69/69 68/68/68
f 68/68/68 69/69/69 70/70/70
f 69/69/69 71/71/71 70/70/70
f 70/70/70 71/71/71 72/72/72
f 73/73/73 70/70/70 72/72/72
f 73/73/73 72/72/72 74/74/74
f 72/72/72 75/75/75 74/74/74
f 74/74/74 75/75/75 76/76/76
