g pm0130_01_MustacheSkin
v 1.015949 1.330788 1.150077
v 1.013915 1.327367 1.145657
v 1.014668 1.330246 1.142075
v 1.016304 1.33486 1.145289
v 1.029315 1.326551 1.141533
v 1.024246 1.32024 1.136002
v 1.042326 1.318242 1.137777
v 1.033824 1.310234 1.129929
v 1.068348 1.301624 1.130265
v 1.05894 1.291488 1.148483
v 1.080159 1.265982 1.15006
v 1.096785 1.268527 1.127856
v 1.08993 1.233399 1.154785
v 1.107823 1.224142 1.135493
v 1.085473 1.201195 1.169971
v 1.099659 1.178478 1.156343
v 1.070751 1.176908 1.189262
v 1.069288 1.140765 1.186843
v 1.043813 1.170232 1.211105
v 1.027992 1.143135 1.218168
v 1.037444 1.311138 1.14928
v 1.050203 1.142366 1.156526
v 1.012992 1.143902 1.190688
v 1.079113 1.177604 1.13456
v 1.08695 1.218974 1.11846
v 1.076173 1.25921 1.112304
v 1.052981 1.290222 1.117784
v 1.050558 1.177793 1.160088
v 1.027922 1.171502 1.184152
v 1.065063 1.199807 1.148816
v 1.069341 1.227973 1.137936
v 1.060314 1.256368 1.134629
v 1.044834 1.280497 1.13592
v 1.029375 1.303932 1.140788
v 0.9826272 1.173394 1.211086
v 1.003196 1.19452 1.20115
v 0.9362646 1.214463 1.23298
v 0.9501016 1.214631 1.260995
v 0.8695652 1.290105 1.281789
v 0.8949972 1.307057 1.266087
v 0.7733994 1.409234 1.287872
v 0.7570055 1.390659 1.306428
v 0.6245081 1.53037 1.306465
v 0.6069833 1.510152 1.331309
v 0.4503499 1.658516 1.331097
v 0.4379483 1.637445 1.360246
v 0.2526276 1.78985 1.356376
v 0.2506377 1.760291 1.386666
v 0.973178 1.234754 1.249618
v 0.9958492 1.173612 1.238395
v 1.01741 1.193929 1.227808
v 0.4156613 1.616701 1.336097
v 0.2287744 1.7343 1.35891
v 0.5873532 1.494095 1.304583
v 0.7373713 1.382486 1.286555
v 0.8532149 1.288361 1.252772
v 0.428146 1.637954 1.307182
v 0.2319681 1.7655 1.329244
v 0.6050354 1.514358 1.279612
v 0.7539411 1.403175 1.259427
v 0.8787742 1.305142 1.237594
v 0.9590573 1.235002 1.221745
v 1.003196 1.19452 1.20115
v 0.9590573 1.235002 1.221745
v 0.8787742 1.305142 1.237594
v 0.7539411 1.403175 1.259427
v 0.6050354 1.514358 1.279612
v 0.428146 1.637954 1.307182
v 0.2319681 1.7655 1.329244
v 1.027922 1.171502 1.184152
v 1.050558 1.177793 1.160088
v 1.065063 1.199807 1.148816
v 1.069341 1.227973 1.137936
v 1.060314 1.256368 1.134629
v 1.044834 1.280497 1.13592
v 1.029375 1.303932 1.140788
v 1.026697 1.320963 1.149679
v 1.021645 1.31565 1.143223
v 1.013915 1.327367 1.145657
v -1.015951 1.330792 1.150071
v -1.016305 1.334863 1.145282
v -1.014669 1.330249 1.142068
v -1.013916 1.32737 1.145651
v -1.026698 1.320967 1.149672
v -1.029317 1.326554 1.141526
v -1.037446 1.311142 1.149273
v -1.042328 1.318245 1.13777
v -1.058941 1.291491 1.148476
v -1.06835 1.301628 1.130258
v -1.080161 1.265985 1.150053
v -1.096786 1.26853 1.127849
v -1.089931 1.233402 1.154778
v -1.107824 1.224145 1.135486
v -1.085475 1.201198 1.169964
v -1.09966 1.178482 1.156336
v -1.070752 1.176911 1.189255
v -1.069289 1.140768 1.186836
v -1.043814 1.170235 1.211099
v -1.027993 1.143138 1.218162
v -1.050204 1.14237 1.156519
v -1.012993 1.143905 1.190682
v -1.079115 1.177607 1.134553
v -1.086951 1.218977 1.118454
v -1.076174 1.259213 1.112297
v -1.052983 1.290225 1.117777
v -1.033826 1.310237 1.129923
v -1.050559 1.177796 1.160081
v -1.027923 1.171505 1.184146
v -1.065065 1.19981 1.148809
v -1.069343 1.227976 1.137929
v -1.060315 1.256371 1.134622
v -1.044836 1.280501 1.135913
v -1.029376 1.303936 1.140782
v -0.982628 1.173396 1.21108
v -1.003196 1.194523 1.201145
v -0.936264 1.214464 1.232976
v -0.950101 1.214632 1.260991
v -0.8695649 1.290105 1.281788
v -0.894997 1.307057 1.266086
v -0.7733994 1.409234 1.287872
v -0.7570052 1.390659 1.306428
v -0.624508 1.53037 1.306465
v -0.6069831 1.510152 1.331309
v -0.4503498 1.658516 1.331097
v -0.4379482 1.637445 1.360246
v -0.2526275 1.78985 1.356376
v -0.2506377 1.760291 1.386666
v -0.9731775 1.234754 1.249614
v -0.9958498 1.173615 1.238389
v -1.01741 1.193931 1.227803
v -0.4156612 1.616701 1.336097
v -0.2287743 1.7343 1.35891
v -0.5873531 1.494095 1.304583
v -0.737371 1.382486 1.286555
v -0.8532148 1.288361 1.252771
v -0.4281459 1.637954 1.307182
v -0.231968 1.7655 1.329244
v -0.6050353 1.514358 1.279612
v -0.7539411 1.403175 1.259427
v -0.878774 1.305142 1.237593
v -0.9590566 1.235002 1.22174
v -1.027923 1.171505 1.184146
v -1.050559 1.177796 1.160081
v -1.065065 1.19981 1.148809
v -1.069343 1.227976 1.137929
v -1.060315 1.256371 1.134622
v -1.044836 1.280501 1.135913
v -1.029376 1.303936 1.140782
v -1.003196 1.194523 1.201145
v -0.9590566 1.235002 1.22174
v -0.878774 1.305142 1.237593
v -0.7539411 1.403175 1.259427
v -0.6050353 1.514358 1.279612
v -0.4281459 1.637954 1.307182
v -0.231968 1.7655 1.329244
v -1.021646 1.315653 1.143216
v -1.013916 1.32737 1.145651
v 1.021645 1.31565 1.143223
v 1.013915 1.327367 1.145657
v -1.024247 1.320243 1.135995
v -1.021646 1.315653 1.143216
v -1.013916 1.32737 1.145651
vt 0.7802588 0.8338386
vt 0.7765648 0.8307542
vt 0.7814974 0.8286856
vt 0.7814952 0.831095
vt 0.7875165 0.8308775
vt 0.7877235 0.8286011
vt 0.7937099 0.8309581
vt 0.7937639 0.8286831
vt 0.8014333 0.831013
vt 0.8009081 0.8333244
vt 0.8105686 0.8333244
vt 0.8105686 0.831013
vt 0.8180332 0.8333244
vt 0.8180332 0.831013
vt 0.8260431 0.8333244
vt 0.8260431 0.831013
vt 0.8343513 0.8333244
vt 0.8343513 0.831013
vt 0.8415613 0.8333244
vt 0.8415613 0.831013
vt 0.7935058 0.8332844
vt 0.8343513 0.8287016
vt 0.8415613 0.8287015
vt 0.8260431 0.8287016
vt 0.8180332 0.8287016
vt 0.8105686 0.8287016
vt 0.8011942 0.8287016
vt 0.8343513 0.8263901
vt 0.8415613 0.8263901
vt 0.8260431 0.8263901
vt 0.8180332 0.8263901
vt 0.8105686 0.8263901
vt 0.800159 0.8263901
vt 0.7931076 0.8264327
vt 0.8486857 0.8287016
vt 0.8486857 0.8263901
vt 0.8596058 0.8287015
vt 0.8596058 0.831013
vt 0.8780782 0.831013
vt 0.8780782 0.8333244
vt 0.9042099 0.8333244
vt 0.9042099 0.831013
vt 0.9349725 0.8333244
vt 0.9349725 0.831013
vt 0.9649148 0.8333244
vt 0.9649148 0.831013
vt 0.9921589 0.8333244
vt 0.9921589 0.831013
vt 0.8596058 0.8333244
vt 0.8486857 0.831013
vt 0.8486857 0.8333244
vt 0.9649148 0.8287016
vt 0.9921589 0.8287016
vt 0.9349725 0.8287016
vt 0.9042099 0.8287016
vt 0.8780782 0.8287016
vt 0.9649148 0.8263901
vt 0.9921589 0.8263901
vt 0.9349725 0.8263901
vt 0.9042099 0.8263901
vt 0.8780782 0.8263901
vt 0.859606 0.8263901
vt 0.8486857 0.835636
vt 0.859606 0.835636
vt 0.8780782 0.835636
vt 0.9042099 0.835636
vt 0.9349725 0.835636
vt 0.9649148 0.835636
vt 0.9921589 0.835636
vt 0.8415613 0.835636
vt 0.8343513 0.835636
vt 0.8260431 0.835636
vt 0.8180332 0.835636
vt 0.8105686 0.835636
vt 0.8001595 0.835636
vt 0.7930818 0.8356222
vt 0.7874717 0.8332702
vt 0.7872016 0.8356891
vt 0.7797235 0.8366579
vt 0.7802585 0.8338386
vt 0.7814956 0.831095
vt 0.7814977 0.8286856
vt 0.7765645 0.8307542
vt 0.7874716 0.8332702
vt 0.7875166 0.8308775
vt 0.7935058 0.8332844
vt 0.7937099 0.8309581
vt 0.8009081 0.8333244
vt 0.8014333 0.831013
vt 0.8105686 0.8333244
vt 0.8105686 0.831013
vt 0.8180333 0.8333244
vt 0.8180333 0.831013
vt 0.8260431 0.8333244
vt 0.8260431 0.831013
vt 0.8343512 0.8333244
vt 0.8343512 0.831013
vt 0.8415614 0.8333244
vt 0.8415614 0.831013
vt 0.8343512 0.8287016
vt 0.8415614 0.8287015
vt 0.8260431 0.8287016
vt 0.8180333 0.8287016
vt 0.8105686 0.8287016
vt 0.8011941 0.8287016
vt 0.7937639 0.8286831
vt 0.8343512 0.8263901
vt 0.8415614 0.8263901
vt 0.8260431 0.8263901
vt 0.8180333 0.8263901
vt 0.8105686 0.8263901
vt 0.8001589 0.8263901
vt 0.7931076 0.8264327
vt 0.8486857 0.8287016
vt 0.8486857 0.8263901
vt 0.8596058 0.8287015
vt 0.8596058 0.831013
vt 0.8780783 0.831013
vt 0.8780783 0.8333244
vt 0.9042099 0.8333244
vt 0.9042099 0.831013
vt 0.9349725 0.8333244
vt 0.9349725 0.831013
vt 0.9649147 0.8333244
vt 0.9649147 0.831013
vt 0.9921588 0.8333244
vt 0.9921588 0.831013
vt 0.8596058 0.8333244
vt 0.8486857 0.831013
vt 0.8486857 0.8333244
vt 0.9649147 0.8287016
vt 0.9921588 0.8287016
vt 0.9349725 0.8287016
vt 0.9042099 0.8287016
vt 0.8780783 0.8287016
vt 0.9649147 0.8263901
vt 0.9921588 0.8263901
vt 0.9349725 0.8263901
vt 0.9042099 0.8263901
vt 0.8780783 0.8263901
vt 0.859606 0.8263901
vt 0.8415614 0.835636
vt 0.8343512 0.835636
vt 0.8260431 0.835636
vt 0.8180333 0.835636
vt 0.8105686 0.835636
vt 0.8001595 0.835636
vt 0.7930818 0.8356222
vt 0.8486857 0.835636
vt 0.859606 0.835636
vt 0.8780783 0.835636
vt 0.9042099 0.835636
vt 0.9349725 0.835636
vt 0.9649147 0.835636
vt 0.9921589 0.835636
vt 0.7872016 0.8356891
vt 0.7797239 0.8366579
vt 0.7872419 0.8263804
vt 0.7800047 0.8264371
vt 0.7877235 0.8286011
vt 0.7872419 0.8263804
vt 0.7800049 0.8264371
vn -0.718741 0.4145497 0.5581755
vn -0.9839661 0.08123869 0.1587796
vn -0.8649728 0.4003428 -0.3025685
vn -0.5534619 0.8319602 0.0390139
vn -0.1944453 0.9807884 -0.01566058
vn -0.7402054 0.3783194 -0.555851
vn 0.2266504 0.9710929 -0.07488746
vn -0.5808542 0.2959803 -0.7582902
vn 0.5348542 0.8376145 -0.1110538
vn -0.05209326 0.2763173 0.9596536
vn 0.04686687 0.2560229 0.9655339
vn 0.8498928 0.5137556 -0.1172068
vn 0.1186956 0.3137593 0.9420544
vn 0.997339 0.06618819 -0.03056156
vn 0.1854507 0.4286556 0.8842298
vn 0.926683 -0.3319791 0.1762057
vn 0.2753708 0.5343838 0.7991276
vn 0.6176324 -0.6106205 0.495654
vn 0.447157 0.5895294 0.6726854
vn 0.2334835 -0.6564025 0.7173712
vn -0.1961049 0.3104798 0.9301318
vn -0.4593595 -0.5411468 -0.7043784
vn -0.631656 -0.5670444 -0.5286505
vn -0.2397871 -0.4358955 -0.8674659
vn -0.172643 -0.2651317 -0.9486303
vn -0.2702029 -0.0450787 -0.9617475
vn -0.4365841 0.1754823 -0.8823833
vn -0.7479116 0.5753678 -0.331029
vn -0.4483765 0.6835001 -0.5760088
vn -0.9376246 0.3199494 -0.1359867
vn -0.9992551 -0.009264313 0.03746302
vn -0.9625099 -0.2330265 0.1388282
vn -0.9363243 -0.2982076 0.1853888
vn -0.9409115 -0.2759502 0.1963083
vn -0.685019 -0.5781588 -0.4432622
vn -0.1129935 0.6171431 -0.7786956
vn -0.6801206 -0.6304427 -0.3741363
vn -0.04997008 -0.4781329 0.8768649
vn -0.04487047 -0.3536556 0.9342988
vn 0.6808301 0.6618996 0.3136227
vn 0.6557373 0.7239653 0.214203
vn 0.01419185 -0.2362349 0.9715923
vn 0.6271924 0.7740802 0.08619536
vn 0.08026285 -0.1341034 0.9877115
vn 0.5990984 0.8005704 -0.01296362
vn 0.129979 -0.06340905 0.9894871
vn 0.5894927 0.805687 -0.05802443
vn 0.161014 -0.03075206 0.9864729
vn 0.6854959 0.6116351 0.3949658
vn 0.03176998 -0.5809588 0.8133126
vn 0.6138156 0.6009756 0.5119168
vn -0.5496231 -0.8352237 0.01777136
vn -0.5260292 -0.8495284 0.03993423
vn -0.581798 -0.8125049 -0.03669929
vn -0.6223586 -0.7709264 -0.1354339
vn -0.6593264 -0.7028312 -0.2670525
vn -0.07291651 0.04163404 -0.9964687
vn -0.07892288 0.01305284 -0.9967953
vn -0.03448824 0.1072817 -0.9936303
vn 0.02513135 0.2150625 -0.9762769
vn 0.07626155 0.3393441 -0.9375659
vn 0.05640903 0.4712653 -0.8801858
vn -0.1129935 0.6171431 -0.7786956
vn 0.05640903 0.4712653 -0.8801858
vn 0.07626155 0.3393441 -0.9375659
vn 0.02513135 0.2150625 -0.9762769
vn -0.03448824 0.1072817 -0.9936303
vn -0.07291651 0.04163404 -0.9964687
vn -0.07892288 0.01305284 -0.9967953
vn -0.4483765 0.6835001 -0.5760088
vn -0.7479116 0.5753678 -0.331029
vn -0.9376246 0.3199494 -0.1359867
vn -0.9992551 -0.009264313 0.03746302
vn -0.9625099 -0.2330265 0.1388282
vn -0.9363243 -0.2982076 0.1853888
vn -0.9409115 -0.2759502 0.1963083
vn -0.4677788 0.3916129 0.7923524
vn -0.9731074 -0.1394222 0.183367
vn -0.9839661 0.08123869 0.1587796
vn 0.7187425 0.4145533 0.5581709
vn 0.553458 0.8319631 0.0390085
vn 0.8649689 0.4003462 -0.3025752
vn 0.9839668 0.08124288 0.158773
vn 0.4677788 0.3916125 0.7923526
vn 0.1944401 0.9807894 -0.01566283
vn 0.1961024 0.3104748 0.930134
vn -0.2266562 0.9710917 -0.07488631
vn 0.05209194 0.2763129 0.9596549
vn -0.534857 0.8376129 -0.111052
vn -0.04686539 0.2560198 0.9655349
vn -0.8498938 0.5137542 -0.1172055
vn -0.1186925 0.3137572 0.9420555
vn -0.9973392 0.06618578 -0.0305611
vn -0.1854473 0.4286545 0.8842311
vn -0.9266821 -0.3319818 0.1762051
vn -0.2753662 0.5343835 0.7991294
vn -0.6176337 -0.6106228 0.4956495
vn -0.4471508 0.5895305 0.6726888
vn -0.2334918 -0.6564097 0.7173618
vn 0.4593584 -0.5411463 -0.7043796
vn 0.6316538 -0.5670446 -0.5286528
vn 0.2397892 -0.4358943 -0.867466
vn 0.1726472 -0.2651315 -0.9486296
vn 0.2702068 -0.04507922 -0.9617464
vn 0.436585 0.1754809 -0.8823831
vn 0.5808525 0.2959785 -0.7582923
vn 0.7479136 0.5753689 -0.3310224
vn 0.4483859 0.6835054 -0.5759953
vn 0.937625 0.3199493 -0.1359847
vn 0.9992551 -0.009264275 0.03746359
vn 0.9625097 -0.2330265 0.1388298
vn 0.9363235 -0.2982096 0.1853899
vn 0.9409109 -0.2759528 0.1963079
vn 0.6850163 -0.5781596 -0.4432654
vn 0.1130115 0.6171565 -0.7786824
vn 0.6801183 -0.6304429 -0.3741401
vn 0.04995562 -0.4781507 0.876856
vn 0.04485962 -0.3536699 0.934294
vn -0.6808311 0.6618984 0.3136235
vn -0.6557388 0.7239636 0.214204
vn -0.01419719 -0.2362429 0.9715903
vn -0.6271933 0.7740793 0.08619647
vn -0.08026395 -0.1341068 0.9877111
vn -0.5990989 0.8005701 -0.01296223
vn -0.1299783 -0.06341038 0.9894871
vn -0.589493 0.805687 -0.05802255
vn -0.1610127 -0.03075268 0.9864731
vn -0.6854935 0.611636 0.3949684
vn -0.03178317 -0.5809727 0.8133022
vn -0.6138101 0.6009774 0.5119212
vn 0.5496243 -0.8352229 0.01777206
vn 0.5260302 -0.8495277 0.03993595
vn 0.5817993 -0.812504 -0.03669892
vn 0.6223593 -0.7709255 -0.1354355
vn 0.659326 -0.7028304 -0.2670557
vn 0.07291766 0.04163443 -0.9964685
vn 0.07892362 0.01305329 -0.9967952
vn 0.03449084 0.1072839 -0.99363
vn -0.02512473 0.2150678 -0.9762759
vn -0.07624916 0.3393554 -0.9375628
vn -0.05639137 0.4712806 -0.8801787
vn 0.4483859 0.6835054 -0.5759953
vn 0.7479136 0.5753689 -0.3310224
vn 0.937625 0.3199493 -0.1359847
vn 0.9992551 -0.009264275 0.03746359
vn 0.9625097 -0.2330265 0.1388298
vn 0.9363235 -0.2982096 0.1853899
vn 0.9409109 -0.2759528 0.1963079
vn 0.1130115 0.6171565 -0.7786824
vn -0.05639137 0.4712806 -0.8801787
vn -0.07624916 0.3393554 -0.9375628
vn -0.02512473 0.2150678 -0.9762759
vn 0.03449084 0.1072839 -0.99363
vn 0.07291766 0.04163443 -0.9964685
vn 0.07892362 0.01305329 -0.9967952
vn 0.9731082 -0.1394216 0.1833628
vn 0.9839668 0.08124288 0.158773
vn -0.9731074 -0.1394222 0.183367
vn -0.9839661 0.08123869 0.1587796
vn 0.7402015 0.3783207 -0.5558554
vn 0.9731082 -0.1394216 0.1833628
vn 0.9839668 0.08124288 0.158773
g pm0130_01_MustacheSkin_0
f 3/3/3 2/2/2 1/1/1
f 4/4/4 3/3/3 1/1/1
f 3/3/3 4/4/4 5/5/5
f 6/6/6 3/3/3 5/5/5
f 6/6/6 5/5/5 7/7/7
f 8/8/8 6/6/6 7/7/7
f 8/8/8 7/7/7 9/9/9
f 9/9/9 7/7/7 10/10/10
f 9/9/9 10/10/10 11/11/11
f 12/12/12 9/9/9 11/11/11
f 12/12/12 11/11/11 13/13/13
f 14/14/14 12/12/12 13/13/13
f 14/14/14 13/13/13 15/15/15
f 16/16/16 14/14/14 15/15/15
f 16/16/16 15/15/15 17/17/17
f 18/18/18 16/16/16 17/17/17
f 18/18/18 17/17/17 19/19/19
f 20/20/20 18/18/18 19/19/19
f 7/7/7 21/21/21 10/10/10
f 22/22/22 18/18/18 20/20/20
f 23/23/23 22/22/22 20/20/20
f 24/24/24 16/16/16 18/18/18
f 22/22/22 24/24/24 18/18/18
f 25/25/25 14/14/14 16/16/16
f 24/24/24 25/25/25 16/16/16
f 26/26/26 12/12/12 14/14/14
f 25/25/25 26/26/26 14/14/14
f 26/26/26 27/27/27 12/12/12
f 27/27/27 9/9/9 12/12/12
f 27/27/27 8/8/8 9/9/9
f 28/28/28 22/22/22 23/23/23
f 29/29/29 28/28/28 23/23/23
f 30/30/30 24/24/24 22/22/22
f 28/28/28 30/30/30 22/22/22
f 31/31/31 25/25/25 24/24/24
f 30/30/30 31/31/31 24/24/24
f 32/32/32 26/26/26 25/25/25
f 31/31/31 32/32/32 25/25/25
f 33/33/33 27/27/27 26/26/26
f 32/32/32 33/33/33 26/26/26
f 34/34/34 8/8/8 27/27/27
f 33/33/33 34/34/34 27/27/27
f 29/29/29 23/23/23 35/35/35
f 36/36/36 29/29/29 35/35/35
f 35/35/35 37/37/37 36/36/36
f 38/38/38 37/37/37 35/35/35
f 37/37/37 38/38/38 39/39/39
f 39/39/39 38/38/38 40/40/40
f 39/39/39 40/40/40 41/41/41
f 42/42/42 39/39/39 41/41/41
f 42/42/42 41/41/41 43/43/43
f 44/44/44 42/42/42 43/43/43
f 44/44/44 43/43/43 45/45/45
f 46/46/46 44/44/44 45/45/45
f 46/46/46 45/45/45 47/47/47
f 48/48/48 46/46/46 47/47/47
f 38/38/38 49/49/49 40/40/40
f 49/49/49 38/38/38 50/50/50
f 50/50/50 38/38/38 35/35/35
f 51/51/51 49/49/49 50/50/50
f 52/52/52 46/46/46 48/48/48
f 53/53/53 52/52/52 48/48/48
f 54/54/54 44/44/44 46/46/46
f 52/52/52 54/54/54 46/46/46
f 55/55/55 42/42/42 44/44/44
f 54/54/54 55/55/55 44/44/44
f 55/55/55 56/56/56 42/42/42
f 56/56/56 39/39/39 42/42/42
f 56/56/56 37/37/37 39/39/39
f 57/57/57 52/52/52 53/53/53
f 58/58/58 57/57/57 53/53/53
f 59/59/59 54/54/54 52/52/52
f 57/57/57 59/59/59 52/52/52
f 60/60/60 55/55/55 54/54/54
f 59/59/59 60/60/60 54/54/54
f 61/61/61 56/56/56 55/55/55
f 60/60/60 61/61/61 55/55/55
f 62/62/62 37/37/37 56/56/56
f 61/61/61 62/62/62 56/56/56
f 37/37/37 62/62/62 36/36/36
f 50/50/50 20/20/20 51/51/51
f 23/23/23 20/20/20 50/50/50
f 35/35/35 23/23/23 50/50/50
f 20/20/20 19/19/19 51/51/51
f 51/51/51 19/19/19 63/63/63
f 63/63/63 64/64/64 51/51/51
f 64/64/64 49/49/49 51/51/51
f 49/49/49 64/64/64 65/65/65
f 40/40/40 49/49/49 65/65/65
f 40/40/40 65/65/65 66/66/66
f 41/41/41 40/40/40 66/66/66
f 41/41/41 66/66/66 67/67/67
f 43/43/43 41/41/41 67/67/67
f 43/43/43 67/67/67 68/68/68
f 45/45/45 43/43/43 68/68/68
f 45/45/45 68/68/68 69/69/69
f 47/47/47 45/45/45 69/69/69
f 19/19/19 70/70/70 63/63/63
f 19/19/19 17/17/17 70/70/70
f 17/17/17 71/71/71 70/70/70
f 17/17/17 15/15/15 71/71/71
f 15/15/15 72/72/72 71/71/71
f 15/15/15 13/13/13 72/72/72
f 13/13/13 73/73/73 72/72/72
f 13/13/13 11/11/11 73/73/73
f 11/11/11 74/74/74 73/73/73
f 11/11/11 10/10/10 74/74/74
f 10/10/10 75/75/75 74/74/74
f 10/10/10 21/21/21 75/75/75
f 21/21/21 76/76/76 75/75/75
f 21/21/21 77/77/77 76/76/76
f 77/77/77 78/78/78 76/76/76
f 5/5/5 77/77/77 21/21/21
f 7/7/7 5/5/5 21/21/21
f 77/77/77 1/1/1 78/78/78
f 1/1/1 79/79/79 78/78/78
f 4/4/4 1/1/1 77/77/77
f 5/5/5 4/4/4 77/77/77
f 82/82/82 81/81/81 80/80/80
f 83/83/83 82/82/82 80/80/80
f 80/80/80 81/81/81 84/84/84
f 81/81/81 85/85/85 84/84/84
f 84/84/84 85/85/85 86/86/86
f 85/85/85 87/87/87 86/86/86
f 86/86/86 87/87/87 88/88/88
f 87/87/87 89/89/89 88/88/88
f 88/88/88 89/89/89 90/90/90
f 89/89/89 91/91/91 90/90/90
f 90/90/90 91/91/91 92/92/92
f 91/91/91 93/93/93 92/92/92
f 92/92/92 93/93/93 94/94/94
f 93/93/93 95/95/95 94/94/94
f 94/94/94 95/95/95 96/96/96
f 95/95/95 97/97/97 96/96/96
f 96/96/96 97/97/97 98/98/98
f 97/97/97 99/99/99 98/98/98
f 97/97/97 100/100/100 99/99/99
f 100/100/100 101/101/101 99/99/99
f 102/102/102 100/100/100 97/97/97
f 95/95/95 102/102/102 97/97/97
f 103/103/103 102/102/102 95/95/95
f 93/93/93 103/103/103 95/95/95
f 104/104/104 103/103/103 93/93/93
f 91/91/91 104/104/104 93/93/93
f 105/105/105 104/104/104 91/91/91
f 89/89/89 105/105/105 91/91/91
f 106/106/106 105/105/105 89/89/89
f 87/87/87 106/106/106 89/89/89
f 100/100/100 107/107/107 101/101/101
f 107/107/107 108/108/108 101/101/101
f 109/109/109 107/107/107 100/100/100
f 102/102/102 109/109/109 100/100/100
f 110/110/110 109/109/109 102/102/102
f 103/103/103 110/110/110 102/102/102
f 111/111/111 110/110/110 103/103/103
f 104/104/104 111/111/111 103/103/103
f 112/112/112 111/111/111 104/104/104
f 105/105/105 112/112/112 104/104/104
f 113/113/113 112/112/112 105/105/105
f 106/106/106 113/113/113 105/105/105
f 101/101/101 108/108/108 114/114/114
f 108/108/108 115/115/115 114/114/114
f 116/116/116 114/114/114 115/115/115
f 116/116/116 117/117/117 114/114/114
f 117/117/117 116/116/116 118/118/118
f 117/117/117 118/118/118 119/119/119
f 119/119/119 118/118/118 120/120/120
f 118/118/118 121/121/121 120/120/120
f 120/120/120 121/121/121 122/122/122
f 121/121/121 123/123/123 122/122/122
f 122/122/122 123/123/123 124/124/124
f 123/123/123 125/125/125 124/124/124
f 124/124/124 125/125/125 126/126/126
f 125/125/125 127/127/127 126/126/126
f 128/128/128 117/117/117 119/119/119
f 117/117/117 128/128/128 129/129/129
f 117/117/117 129/129/129 114/114/114
f 128/128/128 130/130/130 129/129/129
f 125/125/125 131/131/131 127/127/127
f 131/131/131 132/132/132 127/127/127
f 133/133/133 131/131/131 125/125/125
f 123/123/123 133/133/133 125/125/125
f 134/134/134 133/133/133 123/123/123
f 121/121/121 134/134/134 123/123/123
f 135/135/135 134/134/134 121/121/121
f 118/118/118 135/135/135 121/121/121
f 116/116/116 135/135/135 118/118/118
f 131/131/131 136/136/136 132/132/132
f 136/136/136 137/137/137 132/132/132
f 138/138/138 136/136/136 131/131/131
f 133/133/133 138/138/138 131/131/131
f 139/139/139 138/138/138 133/133/133
f 134/134/134 139/139/139 133/133/133
f 140/140/140 139/139/139 134/134/134
f 135/135/135 140/140/140 134/134/134
f 141/141/141 140/140/140 135/135/135
f 116/116/116 141/141/141 135/135/135
f 141/141/141 116/116/116 115/115/115
f 99/99/99 129/129/129 130/130/130
f 98/98/98 99/99/99 130/130/130
f 96/96/96 98/98/98 142/142/142
f 143/143/143 96/96/96 142/142/142
f 94/94/94 96/96/96 143/143/143
f 144/144/144 94/94/94 143/143/143
f 92/92/92 94/94/94 144/144/144
f 145/145/145 92/92/92 144/144/144
f 90/90/90 92/92/92 145/145/145
f 146/146/146 90/90/90 145/145/145
f 88/88/88 90/90/90 146/146/146
f 147/147/147 88/88/88 146/146/146
f 86/86/86 88/88/88 147/147/147
f 148/148/148 86/86/86 147/147/147
f 142/142/142 98/98/98 149/149/149
f 98/98/98 130/130/130 149/149/149
f 150/150/150 149/149/149 130/130/130
f 128/128/128 150/150/150 130/130/130
f 150/150/150 128/128/128 151/151/151
f 128/128/128 119/119/119 151/151/151
f 151/151/151 119/119/119 152/152/152
f 119/119/119 120/120/120 152/152/152
f 152/152/152 120/120/120 153/153/153
f 120/120/120 122/122/122 153/153/153
f 153/153/153 122/122/122 154/154/154
f 122/122/122 124/124/124 154/154/154
f 154/154/154 124/124/124 155/155/155
f 124/124/124 126/126/126 155/155/155
f 148/148/148 156/156/156 86/86/86
f 156/156/156 84/84/84 86/86/86
f 156/156/156 157/157/157 84/84/84
f 157/157/157 80/80/80 84/84/84
f 101/101/101 114/114/114 129/129/129
f 99/99/99 101/101/101 129/129/129
f 158/158/158 6/6/6 8/8/8
f 34/34/34 158/158/158 8/8/8
f 158/158/158 159/159/159 6/6/6
f 159/159/159 3/3/3 6/6/6
f 85/85/85 160/160/160 106/106/106
f 87/87/87 85/85/85 106/106/106
f 106/106/106 160/160/160 113/113/113
f 160/160/160 161/161/161 113/113/113
f 85/85/85 81/81/81 160/160/160
f 81/81/81 82/82/82 160/160/160
f 160/160/160 82/82/82 161/161/161
f 82/82/82 162/162/162 161/161/161
