g pm0105_61_L_FireCore3Skin
v 0.5595284 -0.06940246 0.4977373
v 0.4921175 -0.1260403 0.4977373
v 0.4843912 -0.1260403 0.4798462
v 0.5292615 -0.1041922 0.4349758
v 0.4665001 -0.1260403 0.47212
v 0.4665 -0.06940247 0.4047089
v 0.5292615 -0.1041922 0.5604987
v 0.4843912 -0.1260403 0.5156284
v 0.4665 -0.06940247 0.5907656
v 0.4665001 -0.1260403 0.5233547
v 0.4665 -0.06940247 0.4047089
v 0.4665001 -0.1260403 0.47212
v 0.4486089 -0.1260403 0.4798462
v 0.4037386 -0.1041922 0.4349758
v 0.4408828 -0.1260403 0.4977373
v 0.3734717 -0.06940246 0.4977373
v 0.4486089 -0.1260403 0.5156284
v 0.4037386 -0.1041922 0.5604987
v 0.4665001 -0.1260403 0.5233547
v 0.4665 -0.06940247 0.5907656
vt 0.9877788 1.161369
vt 0.01326281 1.161278
vt 0.01326287 1.566853
vt 0.9877788 1.587239
vt 0.01326287 1.946743
vt 0.9877791 2.17835
vt 0.9877791 0.7352352
vt 0.01326281 0.7556539
vt 0.9877788 0.1436638
vt 0.01326245 0.3754899
vt 0.9825823 2.175776
vt 0.01326287 1.94515
vt 0.01326266 1.5668
vt 0.9825822 1.587104
vt 0.01326266 1.162981
vt 0.9825821 1.162981
vt 0.01326263 0.7591608
vt 0.9825821 0.7388613
vt 0.01326245 0.3808108
vt 0.9825823 0.1501788
vn -0.5913674 0.8064023 -3.777301E-07
vn -0.5913674 0.8064023 -3.498905E-07
vn -0.2943409 0.9092449 0.294342
vn -0.2943411 0.9092448 0.294342
vn 0 0.806403 0.5913663
vn -1.284279E-07 0.8064031 0.5913663
vn -0.2943423 0.9092444 -0.2943422
vn -0.2943423 0.9092443 -0.2943422
vn -1.510921E-07 0.8064026 -0.5913669
vn 0 0.8064026 -0.591367
vn -1.284279E-07 0.8064031 0.5913663
vn 0 0.806403 0.5913663
vn 0.2943414 0.9092451 0.2943405
vn 0.2943408 0.9092451 0.2943411
vn 0.5913668 0.8064027 0
vn 0.5913669 0.8064026 0
vn 0.2943426 0.9092447 -0.2943407
vn 0.2943422 0.9092447 -0.2943411
vn 0 0.8064026 -0.591367
vn -1.510921E-07 0.8064026 -0.5913669
g pm0105_61_L_FireCore3Skin_0
f 3/3/3 2/2/2 1/1/1
f 4/4/4 3/3/3 1/1/1
f 5/5/5 3/3/3 4/4/4
f 6/6/6 5/5/5 4/4/4
f 1/1/1 2/2/2 7/7/7
f 2/2/2 8/8/8 7/7/7
f 7/7/7 8/8/8 9/9/9
f 8/8/8 10/10/10 9/9/9
f 13/13/13 12/12/12 11/11/11
f 14/14/14 13/13/13 11/11/11
f 15/15/15 13/13/13 14/14/14
f 16/16/16 15/15/15 14/14/14
f 17/17/17 15/15/15 16/16/16
f 18/18/18 17/17/17 16/16/16
f 19/19/19 17/17/17 18/18/18
f 20/20/20 19/19/19 18/18/18
