g pm0105_61_L_FireCore2Skin
v 0.3514677 0.1492622 0.5598277
v 0.4396946 0.1493458 0.5139492
v 0.4220435 0.04664344 0.5339047
v 0.3299478 0.04665571 0.6041182
v 0.3654904 0.247838 0.516671
v 0.4453362 0.2474768 0.5035012
v 0.3490638 -0.05563674 0.6173547
v 0.425589 -0.05931102 0.5409214
v 0.38846 -0.1146642 0.5780728
v 0.4665056 -0.138133 0.5000538
v 0.4532829 0.3448631 0.4978743
v 0.3795782 0.3448119 0.4857914
v 0.4565966 0.4428247 0.4966374
v 0.3981279 0.4421542 0.4764
v 0.4213625 0.5464576 0.4717399
v 0.4665191 0.5464577 0.5000663
v 0.466498 0.6460757 0.5000471
v 0.440017 0.6460757 0.4738632
v 0.4665103 0.7609297 0.5000599
v 0.5815315 0.1495163 0.440192
v 0.493305 0.1494043 0.4860712
v 0.5112957 0.04657448 0.4658789
v 0.6027748 0.04665571 0.3961727
v 0.5675086 0.2478201 0.4833481
v 0.4876631 0.2474768 0.4965193
v 0.5836319 -0.05563674 0.3828788
v 0.5100671 -0.0591784 0.4564742
v 0.5448371 -0.1146642 0.4216671
v 0.4664938 -0.138133 0.5000657
v 0.4793642 0.3448813 0.5021562
v 0.5533335 0.3449326 0.5143176
v 0.4764089 0.4430519 0.5035135
v 0.5346836 0.4437202 0.523794
v 0.5113501 0.5464576 0.5285443
v 0.4665191 0.5464577 0.5000663
v 0.466498 0.6460757 0.5000471
v 0.4926813 0.6460757 0.5264099
v 0.4665103 0.7609297 0.5000599
v 0.5263175 0.1492622 0.6150423
v 0.4804389 0.1493458 0.5268154
v 0.5004822 0.04664344 0.5444474
v 0.5705776 0.04665571 0.6365408
v 0.4831608 0.247838 0.6010197
v 0.4699908 0.2474768 0.5211738
v 0.5838789 -0.05563674 0.6173984
v 0.5084905 -0.05925856 0.5420284
v 0.5445551 -0.1146642 0.5780596
v 0.4665056 -0.138133 0.5000538
v 0.4642977 0.3448631 0.5131698
v 0.4520158 0.3448108 0.5884699
v 0.4631309 0.4428247 0.509922
v 0.4428616 0.4421542 0.5683907
v 0.438192 0.5464576 0.545164
v 0.4665192 0.5464577 0.5000665
v 0.4665141 0.6460757 0.5000318
v 0.440366 0.6460757 0.5264689
v 0.4664987 0.7609297 0.5000713
v 0.4066818 0.1495163 0.3849785
v 0.452561 0.1494043 0.4732049
v 0.4324563 0.04657448 0.4551952
v 0.3626321 0.04665571 0.3637138
v 0.4498379 0.2478201 0.3990014
v 0.4630089 0.2474768 0.4788469
v 0.3494989 -0.05563674 0.3827346
v 0.4252413 -0.05928696 0.4586792
v 0.3881284 -0.1146642 0.4217034
v 0.4665056 -0.138133 0.5000538
v 0.4686168 0.3448815 0.4868606
v 0.4810437 0.3449337 0.411659
v 0.470007 0.4430519 0.4901096
v 0.4902556 0.4437202 0.4318349
v 0.4949964 0.5464576 0.4551764
v 0.4665192 0.5464577 0.5000665
v 0.4665141 0.6460757 0.5000318
v 0.4929126 0.6460757 0.4738046
v 0.4664987 0.7609297 0.5000713
vt 0.9945436 2.733489
vt 0.03655016 2.770684
vt 0.02145255 2.389937
vt 0.9945436 2.384263
vt 0.9945436 3.093377
vt 0.07379556 3.13801
vt 0.9945436 1.96416
vt 0.01601136 1.951159
vt 0.9185411 1.676621
vt 0.7623969 1.42918
vt 0.1625955 3.519369
vt 0.9945436 3.491058
vt 0.2861679 3.828084
vt 0.9945436 3.788648
vt 0.9945436 4.146463
vt 0.4611605 4.19097
vt 0.6526369 4.56078
vt 0.9945436 4.51239
vt 0.9945436 4.908773
vt 0.9939905 2.182299
vt 0.02682185 2.2235
vt 0.01907277 1.818723
vt 0.9939905 1.874123
vt 0.9939905 2.536081
vt 0.06383729 2.576216
vt 0.9939905 1.380116
vt 0.1574966 1.405617
vt 0.9179879 1.124662
vt 0.7618438 0.90625
vt 0.1886202 2.951701
vt 0.9939905 2.924237
vt 0.3323098 3.258569
vt 0.9939905 3.220971
vt 0.9939905 3.568306
vt 0.5200608 3.619086
vt 0.7149823 3.998138
vt 0.9939905 3.952927
vt 0.9939905 4.404995
vt 0.9941082 3.36423
vt 0.05464947 3.388884
vt 0.03331411 3.032203
vt 0.9941082 2.973516
vt 0.9941082 3.714071
vt 0.1030253 3.762989
vt 0.9941082 2.55934
vt 0.07824814 2.582818
vt 0.9181058 2.26818
vt 0.7619617 2.030544
vt 0.230405 4.092657
vt 0.9941082 4.06711
vt 0.3835167 4.438084
vt 0.9941082 4.396384
vt 0.9941082 4.732273
vt 0.5659076 4.795839
vt 0.7750155 5.180798
vt 0.9941082 5.142048
vt 0.9941082 5.488177
vt 0.9946679 3.730026
vt 0.05778341 3.76441
vt 0.03387366 3.382884
vt 0.9946679 3.350002
vt 0.9946679 4.0755
vt 0.09132184 4.123928
vt 0.9946679 2.93478
vt 0.07234003 2.94338
vt 0.910075 2.622206
vt 0.7625212 2.442016
vt 0.160088 4.466868
vt 0.9946678 4.434859
vt 0.2720652 4.811342
vt 0.9946679 4.782428
vt 0.9946678 5.108634
vt 0.4205958 5.154659
vt 0.6376762 5.527134
vt 0.9946679 5.471838
vt 0.9946679 5.881937
vn 0.4644609 0.1800056 0.8671067
vn 0.4316656 0.1896557 0.8818704
vn 0.5914242 0.1513657 0.7920264
vn 0.6030864 0.1499054 0.7834635
vn 0.1996289 0.2072371 0.9577062
vn 0.1733883 0.2044559 0.9633973
vn 0.6582007 0.1276733 0.7419376
vn 0.6694843 0.101278 0.7358897
vn 0.7068531 0.0006272627 0.70736
vn 0.7070427 0.0003733036 0.7071707
vn -0.1120156 0.1343866 0.9845774
vn -0.0976 0.1405156 0.9852561
vn -0.3312071 0.07647092 0.9404542
vn -0.3160051 0.07697593 0.9456297
vn -0.4949127 0.06386852 0.8665923
vn -0.5071827 0.06222971 0.859589
vn -0.637875 0.03269564 0.7694455
vn -0.6314068 0.03577849 0.7746259
vn -0.7031072 -3.672343E-06 0.7110839
vn -0.4642405 0.1798328 -0.8672606
vn -0.4316787 0.1895555 -0.8818856
vn -0.5897476 0.1520279 -0.7931489
vn -0.601868 0.1507367 -0.7842406
vn -0.1993584 0.2075608 -0.9576924
vn -0.1727778 0.2047533 -0.9634438
vn -0.6575962 0.1292169 -0.7422063
vn -0.6691149 0.1024428 -0.7360643
vn -0.7073146 0.0002120638 -0.7068988
vn -0.7073763 0.0001345324 -0.7068371
vn 0.1125231 0.134442 -0.984512
vn 0.09840517 0.1404784 -0.9851813
vn 0.3299827 0.07727704 -0.9408186
vn 0.3172473 0.07759729 -0.9451628
vn 0.4988978 0.06496154 -0.8642228
vn 0.5114633 0.06325395 -0.8569739
vn 0.6438411 0.03306131 -0.7644446
vn 0.6373355 0.03617022 -0.7697371
vn 0.7095167 2.397808E-06 -0.7046887
vn 0.8672071 0.180317 -0.4641525
vn 0.8819396 0.1898928 -0.4314198
vn 0.7926146 0.1518472 -0.5905122
vn 0.7838783 0.1503438 -0.6024381
vn 0.9580197 0.2078332 -0.1974935
vn 0.9634978 0.2052694 -0.1718616
vn 0.7421959 0.1280344 -0.6578392
vn 0.7360642 0.1015791 -0.6692468
vn 0.7069561 0.0002315922 -0.7072574
vn 0.7068877 0.0001423536 -0.7073258
vn 0.9844204 0.1353543 0.1122302
vn 0.9850724 0.141635 0.09783648
vn 0.9407632 0.07663262 0.3302907
vn 0.9460776 0.07714816 0.3146194
vn 0.8663934 0.06398153 0.4952462
vn 0.8593875 0.06233806 0.5075106
vn 0.7692567 0.03269745 0.6381027
vn 0.7744228 0.03579007 0.6316552
vn 0.7109823 -0.0001478046 0.7032098
vn -0.8671598 0.1795224 0.4645488
vn -0.8818161 0.1893187 0.4319245
vn -0.7922334 0.1508351 0.5912825
vn -0.7837121 0.1494701 0.6028715
vn -0.9580415 0.2079542 0.19726
vn -0.9635601 0.2053389 0.1714288
vn -0.7420015 0.1277102 0.6581215
vn -0.7358201 0.1013591 0.6695485
vn -0.7074426 0.002200557 0.7067674
vn -0.7067873 0.001322764 0.7074249
vn -0.9842812 0.1355362 -0.1132276
vn -0.9849422 0.1416245 -0.09915324
vn -0.9410545 0.07774056 -0.3292001
vn -0.9455495 0.07815145 -0.3159566
vn -0.8644244 0.06484631 -0.4985633
vn -0.8571783 0.06314313 -0.5111342
vn -0.7646418 0.03305784 -0.6436071
vn -0.7699486 0.03615646 -0.6370807
vn -0.7048009 0.0001507743 -0.7094051
g pm0105_61_L_FireCore2Skin_0
f 3/3/3 2/2/2 1/1/1
f 4/4/4 3/3/3 1/1/1
f 1/1/1 2/2/2 5/5/5
f 2/2/2 6/6/6 5/5/5
f 4/4/4 7/7/7 3/3/3
f 7/7/7 8/8/8 3/3/3
f 9/9/9 8/8/8 7/7/7
f 10/10/10 8/8/8 9/9/9
f 5/5/5 6/6/6 11/11/11
f 12/12/12 5/5/5 11/11/11
f 12/12/12 11/11/11 13/13/13
f 14/14/14 12/12/12 13/13/13
f 14/14/14 13/13/13 15/15/15
f 13/13/13 16/16/16 15/15/15
f 15/15/15 16/16/16 17/17/17
f 18/18/18 15/15/15 17/17/17
f 18/18/18 17/17/17 19/19/19
f 22/22/22 21/21/21 20/20/20
f 23/23/23 22/22/22 20/20/20
f 20/20/20 21/21/21 24/24/24
f 21/21/21 25/25/25 24/24/24
f 23/23/23 26/26/26 22/22/22
f 26/26/26 27/27/27 22/22/22
f 28/28/28 27/27/27 26/26/26
f 29/29/29 27/27/27 28/28/28
f 24/24/24 25/25/25 30/30/30
f 31/31/31 24/24/24 30/30/30
f 31/31/31 30/30/30 32/32/32
f 33/33/33 31/31/31 32/32/32
f 33/33/33 32/32/32 34/34/34
f 32/32/32 35/35/35 34/34/34
f 34/34/34 35/35/35 36/36/36
f 37/37/37 34/34/34 36/36/36
f 37/37/37 36/36/36 38/38/38
f 41/41/41 40/40/40 39/39/39
f 42/42/42 41/41/41 39/39/39
f 39/39/39 40/40/40 43/43/43
f 40/40/40 44/44/44 43/43/43
f 42/42/42 45/45/45 41/41/41
f 45/45/45 46/46/46 41/41/41
f 47/47/47 46/46/46 45/45/45
f 48/48/48 46/46/46 47/47/47
f 43/43/43 44/44/44 49/49/49
f 50/50/50 43/43/43 49/49/49
f 50/50/50 49/49/49 51/51/51
f 52/52/52 50/50/50 51/51/51
f 52/52/52 51/51/51 53/53/53
f 51/51/51 54/54/54 53/53/53
f 53/53/53 54/54/54 55/55/55
f 56/56/56 53/53/53 55/55/55
f 56/56/56 55/55/55 57/57/57
f 60/60/60 59/59/59 58/58/58
f 61/61/61 60/60/60 58/58/58
f 58/58/58 59/59/59 62/62/62
f 59/59/59 63/63/63 62/62/62
f 61/61/61 64/64/64 60/60/60
f 64/64/64 65/65/65 60/60/60
f 66/66/66 65/65/65 64/64/64
f 67/67/67 65/65/65 66/66/66
f 62/62/62 63/63/63 68/68/68
f 69/69/69 62/62/62 68/68/68
f 69/69/69 68/68/68 70/70/70
f 71/71/71 69/69/69 70/70/70
f 71/71/71 70/70/70 72/72/72
f 70/70/70 73/73/73 72/72/72
f 72/72/72 73/73/73 74/74/74
f 75/75/75 72/72/72 74/74/74
f 75/75/75 74/74/74 76/76/76
