g pm0232_01_KibaSkin
v 0.5415574 0.4722341 0.5902294
v 0.5420079 0.4682172 0.5919694
v 0.511641 0.4563642 0.5915701
v 0.5131336 0.4687395 0.5885812
v 0.5142623 0.4444008 0.5871836
v 0.5439536 0.4643835 0.5910807
v 0.5200161 0.4375252 0.5771927
v 0.5466221 0.462151 0.5879791
v 0.5428227 0.474859 0.5864587
v 0.5187794 0.4769308 0.5782823
v 0.5501407 0.4721664 0.587605
v 0.5453218 0.4750173 0.5821327
v 0.5480521 0.4726451 0.578992
v 0.5320349 0.4694795 0.5557511
v 0.5344365 0.457825 0.5520239
v 0.54994 0.4687182 0.578256
v 0.5323745 0.4455681 0.5557923
v 0.550293 0.4647833 0.5801293
v 0.5268567 0.4379676 0.5653444
v 0.5490253 0.4623024 0.5838297
v 0.5259776 0.4773991 0.5658799
v 0.5466221 0.462151 0.5879791
v 0.5200161 0.4375252 0.5771927
v 0.4701672 0.4408275 0.5870645
v 0.4759018 0.4633418 0.582004
v 0.5131336 0.4687395 0.5885812
v 0.511641 0.4563642 0.5915701
v 0.4720569 0.4188771 0.5781499
v 0.5142623 0.4444008 0.5871836
v 0.4805325 0.4061013 0.5597311
v 0.5200161 0.4375252 0.5771927
v 0.5187794 0.4769308 0.5782823
v 0.4863461 0.4767398 0.5663
v 0.4217509 0.4320523 0.5740821
v 0.4313451 0.4612427 0.5701251
v 0.4223279 0.4014569 0.560197
v 0.447592 0.4803801 0.5486964
v 0.3690121 0.438766 0.5563685
v 0.381977 0.4733839 0.5521899
v 0.3679062 0.4025843 0.5408148
v 0.4320322 0.384283 0.5356899
v 0.3795456 0.380834 0.5100492
v 0.4025978 0.4966799 0.5266041
v 0.5259776 0.4773991 0.5658799
v 0.4987505 0.477556 0.5446052
v 0.5077989 0.4652758 0.5264767
v 0.5320349 0.4694795 0.5557511
v 0.5087696 0.4435165 0.518822
v 0.5344365 0.457825 0.5520239
v 0.5036424 0.4210363 0.5229455
v 0.5323745 0.4455681 0.5557923
v 0.4925167 0.4069284 0.5387886
v 0.5268567 0.4379676 0.5653444
v 0.4631729 0.4043007 0.4885591
v 0.4727992 0.4361466 0.483911
v 0.4743049 0.4639001 0.4948186
v 0.4637032 0.4818922 0.5206501
v 0.4315646 0.4432124 0.4468549
v 0.4188045 0.4062577 0.4515474
v 0.4476444 0.3853763 0.5082989
v 0.399056 0.3822552 0.4757943
v 0.4338382 0.4758936 0.4614689
v 0.4213318 0.4982505 0.4941535
v 0.5200161 0.4375252 0.5771927
v 0.4805325 0.4061013 0.5597311
v 0.4320322 0.384283 0.5356899
v 0.3795456 0.380834 0.5100492
v 0.3465734 0.3868394 0.4414462
v 0.323369 0.3851963 0.4821004
v 0.3697479 0.4151064 0.4121573
v 0.3840405 0.4592002 0.405421
v 0.383992 0.5022784 0.4238106
v 0.3696209 0.5278868 0.4603017
v 0.3464165 0.5262437 0.500956
v 0.323242 0.4979767 0.5302449
v 0.3089494 0.453883 0.536981
v 0.3089979 0.4108047 0.5185915
v 0.323369 0.3851963 0.4821004
v -0.5415574 0.4722341 0.5902294
v -0.5131336 0.4687395 0.5885812
v -0.511641 0.4563642 0.5915701
v -0.5420079 0.4682172 0.5919694
v -0.5142623 0.4444008 0.5871836
v -0.5439536 0.4643835 0.5910807
v -0.5200161 0.4375252 0.5771927
v -0.5466221 0.462151 0.5879791
v -0.5428227 0.474859 0.5864587
v -0.5187794 0.4769308 0.5782823
v -0.5501407 0.4721664 0.587605
v -0.5453218 0.4750173 0.5821327
v -0.5480521 0.4726451 0.578992
v -0.5320349 0.4694795 0.5557511
v -0.5344365 0.457825 0.5520239
v -0.54994 0.4687182 0.578256
v -0.5323745 0.4455681 0.5557923
v -0.550293 0.4647833 0.5801293
v -0.5268567 0.4379676 0.5653444
v -0.5490253 0.4623024 0.5838297
v -0.5259776 0.4773991 0.5658799
v -0.5466221 0.462151 0.5879791
v -0.5200161 0.4375252 0.5771927
v -0.4701672 0.4408275 0.5870645
v -0.511641 0.4563642 0.5915701
v -0.5131336 0.4687395 0.5885812
v -0.4759018 0.4633418 0.582004
v -0.4720569 0.4188771 0.5781499
v -0.5142623 0.4444008 0.5871836
v -0.4805325 0.4061013 0.5597311
v -0.5200161 0.4375252 0.5771927
v -0.5187794 0.4769308 0.5782823
v -0.4863461 0.4767398 0.5663
v -0.4217509 0.4320523 0.5740821
v -0.4313451 0.4612427 0.5701251
v -0.4223279 0.4014569 0.560197
v -0.447592 0.4803801 0.5486964
v -0.3690121 0.438766 0.5563685
v -0.381977 0.4733839 0.5521899
v -0.3679062 0.4025843 0.5408148
v -0.4320322 0.384283 0.5356899
v -0.3795456 0.380834 0.5100492
v -0.4025978 0.4966799 0.5266041
v -0.5259776 0.4773991 0.5658799
v -0.4987505 0.477556 0.5446052
v -0.5077989 0.4652758 0.5264767
v -0.5320349 0.4694795 0.5557511
v -0.5087696 0.4435165 0.518822
v -0.5344365 0.457825 0.5520239
v -0.5036424 0.4210363 0.5229455
v -0.5323745 0.4455681 0.5557923
v -0.4925167 0.4069284 0.5387886
v -0.5268567 0.4379676 0.5653444
v -0.4631729 0.4043007 0.4885591
v -0.4727992 0.4361466 0.483911
v -0.4743049 0.4639001 0.4948186
v -0.4637032 0.4818922 0.5206501
v -0.4315646 0.4432124 0.4468549
v -0.4188045 0.4062577 0.4515474
v -0.4476444 0.3853763 0.5082989
v -0.399056 0.3822552 0.4757943
v -0.4338382 0.4758936 0.4614689
v -0.4213318 0.4982505 0.4941535
v -0.5200161 0.4375252 0.5771927
v -0.4805325 0.4061013 0.5597311
v -0.4320322 0.384283 0.5356899
v -0.3795456 0.380834 0.5100492
v -0.3465734 0.3868394 0.4414462
v -0.323369 0.3851963 0.4821004
v -0.3697479 0.4151064 0.4121573
v -0.3840405 0.4592002 0.405421
v -0.383992 0.5022784 0.4238106
v -0.3696209 0.5278868 0.4603017
v -0.3464165 0.5262437 0.500956
v -0.3696209 0.5278868 0.4603017
v -0.323242 0.4979767 0.5302449
v -0.3089494 0.453883 0.536981
v -0.3089979 0.4108047 0.5185915
v -0.323369 0.3851963 0.4821004
vt 0.8717697 0.3437743
vt 0.8750668 0.3470618
vt 0.8455186 0.3690348
vt 0.8405228 0.3585814
vt 0.8522177 0.3786774
vt 0.8791203 0.3495097
vt 0.8591952 0.3876712
vt 0.8829923 0.3513758
vt 0.8696606 0.3396186
vt 0.8375258 0.3474004
vt 0.8822069 0.3359375
vt 0.8690877 0.3359381
vt 0.8700838 0.3317004
vt 0.837806 0.3247902
vt 0.8409085 0.3142401
vt 0.8723261 0.3280377
vt 0.845603 0.3043511
vt 0.8753786 0.3249984
vt 0.8516946 0.294957
vt 0.8789554 0.3223776
vt 0.8366315 0.3359377
vt 0.8829923 0.3199639
vt 0.8591948 0.2858984
vt 0.7988746 0.3901629
vt 0.7949531 0.3723676
vt 0.8405228 0.3585814
vt 0.8455186 0.3690348
vt 0.8045573 0.407279
vt 0.8522177 0.3786774
vt 0.8112876 0.4240988
vt 0.8591952 0.3876712
vt 0.8375258 0.3474004
vt 0.7924845 0.3547505
vt 0.7362309 0.4058585
vt 0.7354069 0.3831753
vt 0.7382069 0.4278525
vt 0.7349353 0.3596585
vt 0.6757813 0.4104772
vt 0.6757813 0.3859944
vt 0.6757813 0.4344805
vt 0.742156 0.4497041
vt 0.6757813 0.4582512
vt 0.6757813 0.3610419
vt 0.8366315 0.3359377
vt 0.7916343 0.3359374
vt 0.792465 0.3183032
vt 0.837806 0.3247902
vt 0.7945788 0.3008729
vt 0.8409085 0.3142401
vt 0.7983165 0.2842749
vt 0.845603 0.3043511
vt 0.8038235 0.2680743
vt 0.8516946 0.294957
vt 0.7347922 0.2688994
vt 0.7338948 0.2901709
vt 0.7340331 0.3124292
vt 0.7344794 0.3359376
vt 0.6757813 0.287087
vt 0.6757813 0.2635226
vt 0.7374597 0.2480091
vt 0.6757813 0.240199
vt 0.6757813 0.311201
vt 0.6757813 0.3359382
vt 0.8591948 0.2858984
vt 0.8112879 0.2518957
vt 0.7421553 0.2269473
vt 0.6757813 0.2167162
vt 0.6250005 0.2366633
vt 0.625 0.2126048
vt 0.6250005 0.2615049
vt 0.6249995 0.2862396
vt 0.625 0.3109887
vt 0.625 0.3359375
vt 0.6249995 0.3612947
vt 0.625 0.386727
vt 0.625 0.4121633
vt 0.625 0.4374397
vt 0.6250005 0.4616947
vt 0.8717697 0.3437743
vt 0.8405228 0.3585814
vt 0.8455186 0.3690348
vt 0.8750668 0.3470618
vt 0.8522177 0.3786774
vt 0.8791203 0.3495097
vt 0.8591952 0.3876712
vt 0.8829923 0.3513758
vt 0.8696606 0.3396186
vt 0.8375258 0.3474004
vt 0.8822069 0.3359375
vt 0.8690877 0.3359381
vt 0.8700838 0.3317004
vt 0.837806 0.3247902
vt 0.8409085 0.3142401
vt 0.8723261 0.3280377
vt 0.845603 0.3043511
vt 0.8753786 0.3249984
vt 0.8516946 0.294957
vt 0.8789554 0.3223776
vt 0.8366315 0.3359377
vt 0.8829923 0.3199639
vt 0.8591948 0.2858984
vt 0.7988746 0.3901629
vt 0.8455186 0.3690348
vt 0.8405228 0.3585814
vt 0.7949531 0.3723676
vt 0.8045573 0.407279
vt 0.8522177 0.3786774
vt 0.8112876 0.4240988
vt 0.8591952 0.3876712
vt 0.8375258 0.3474004
vt 0.7924845 0.3547505
vt 0.7362309 0.4058585
vt 0.7354069 0.3831753
vt 0.7382069 0.4278525
vt 0.7349353 0.3596585
vt 0.6757813 0.4104772
vt 0.6757813 0.3859944
vt 0.6757813 0.4344805
vt 0.742156 0.4497041
vt 0.6757813 0.4582512
vt 0.6757813 0.3610419
vt 0.8366315 0.3359377
vt 0.7916343 0.3359374
vt 0.792465 0.3183032
vt 0.837806 0.3247902
vt 0.7945788 0.3008729
vt 0.8409085 0.3142401
vt 0.7983165 0.2842749
vt 0.845603 0.3043511
vt 0.8038235 0.2680743
vt 0.8516946 0.294957
vt 0.7347922 0.2688994
vt 0.7338948 0.2901709
vt 0.7340331 0.3124292
vt 0.7344794 0.3359376
vt 0.6757813 0.287087
vt 0.6757813 0.2635226
vt 0.7374597 0.2480091
vt 0.6757813 0.240199
vt 0.6757813 0.311201
vt 0.6757813 0.3359382
vt 0.8591948 0.2858984
vt 0.8112879 0.2518957
vt 0.7421553 0.2269473
vt 0.6757813 0.2167162
vt 0.6250005 0.2366633
vt 0.625 0.2126048
vt 0.6250005 0.2615049
vt 0.6249995 0.2862396
vt 0.625 0.3109887
vt 0.625 0.3359375
vt 0.6249995 0.3612947
vt 0.625 0.3359375
vt 0.625 0.386727
vt 0.625 0.4121633
vt 0.625 0.4374397
vt 0.6250005 0.4616947
vn 0.4431889 0.5099582 0.7372423
vn 0.4875312 0.2037057 0.8490096
vn 0.1780045 0.09353592 0.9795741
vn 0.1310193 0.5654358 0.8143196
vn 0.3508438 -0.3470191 0.8697622
vn 0.6110399 -0.08237503 0.7873021
vn 0.5797198 -0.5905815 0.561372
vn 0.7670807 -0.2433622 0.5936009
vn 0.5057595 0.7083575 0.4923788
vn 0.2421168 0.8637526 0.4419399
vn 0.8315606 0.2745001 0.4828629
vn 0.6599631 0.7184833 0.2196146
vn 0.8433096 0.5366379 0.02913015
vn 0.7469205 0.6039124 -0.2782077
vn 0.9262739 0.1435499 -0.3484396
vn 0.9714906 0.2369947 -0.006298563
vn 0.9370866 -0.3066502 -0.1668364
vn 0.9914698 -0.05589342 0.1177436
vn 0.7980843 -0.5759557 0.1770211
vn 0.9094107 -0.23361 0.344091
vn 0.4775675 0.8782382 0.02504019
vn 0.7670807 -0.2433622 0.5936009
vn 0.5797198 -0.5905815 0.561372
vn -0.03106033 0.004737122 0.9995063
vn -0.03514893 0.5499008 0.8344901
vn 0.1310193 0.5654358 0.8143196
vn 0.1780045 0.09353592 0.9795741
vn 0.128257 -0.5063042 0.8527639
vn 0.3508438 -0.3470191 0.8697622
vn 0.3759721 -0.7919853 0.481045
vn 0.5797198 -0.5905815 0.561372
vn 0.2421168 0.8637526 0.4419399
vn 0.128276 0.8969657 0.4230812
vn -0.154488 -0.04896775 0.9867805
vn -0.08912814 0.5195006 0.849809
vn -0.04869215 -0.5890115 0.8066563
vn 0.1295196 0.8865151 0.4442023
vn -0.2158085 -0.07635701 0.9734456
vn -0.08440518 0.4919423 0.8665267
vn -0.1683283 -0.6235981 0.7634075
vn 0.184845 -0.9007725 0.3929903
vn 0.03894825 -0.9463388 0.3208206
vn 0.1798902 0.8592768 0.4788349
vn 0.4775675 0.8782382 0.02504019
vn 0.4025225 0.9133987 -0.06065042
vn 0.6805311 0.5925617 -0.4309849
vn 0.7469205 0.6039124 -0.2782077
vn 0.8384458 0.06179525 -0.5414702
vn 0.9262739 0.1435499 -0.3484396
vn 0.8132156 -0.4576908 -0.3594435
vn 0.9370866 -0.3066502 -0.1668364
vn 0.6325775 -0.7739818 0.02824787
vn 0.7980843 -0.5759557 0.1770211
vn 0.687841 -0.5358253 -0.489659
vn 0.7689072 0.01125437 -0.6392612
vn 0.669364 0.5644686 -0.4830394
vn 0.4215817 0.9042644 -0.0676375
vn 0.7307605 -0.01472508 -0.6824752
vn 0.5938036 -0.569155 -0.5687352
vn 0.4641618 -0.8803324 -0.09781948
vn 0.3301487 -0.9250938 -0.1876251
vn 0.6890215 0.5386788 -0.4848448
vn 0.4775003 0.8777207 -0.03999799
vn 0.5797198 -0.5905815 0.561372
vn 0.3759721 -0.7919853 0.481045
vn 0.184845 -0.9007725 0.3929903
vn 0.03894825 -0.9463388 0.3208206
vn 0.2709412 -0.9361185 -0.2242164
vn -0.02347818 -0.9572806 0.2882061
vn 0.5552411 -0.5794867 -0.5965756
vn 0.7226599 -0.02619431 -0.6907072
vn 0.711255 0.5215505 -0.4712762
vn 0.5200538 0.8540111 -0.01445673
vn 0.2229922 0.8354235 0.5023366
vn -0.06315035 0.4739572 0.8782805
vn -0.2293607 -0.08824863 0.9693326
vn -0.2140338 -0.6336073 0.743459
vn -0.02347818 -0.9572806 0.2882061
vn -0.443189 0.5099581 0.7372423
vn -0.1310191 0.5654359 0.8143194
vn -0.1780041 0.09353577 0.9795742
vn -0.4875313 0.2037054 0.8490096
vn -0.3508436 -0.3470195 0.8697622
vn -0.61104 -0.0823754 0.787302
vn -0.5797197 -0.5905818 0.5613718
vn -0.7670808 -0.2433626 0.5936006
vn -0.5057599 0.7083573 0.4923787
vn -0.242117 0.8637527 0.4419397
vn -0.831561 0.2744991 0.4828629
vn -0.6599634 0.718483 0.2196144
vn -0.8433101 0.5366372 0.02912997
vn -0.7469209 0.6039118 -0.2782079
vn -0.9262739 0.1435491 -0.3484397
vn -0.9714907 0.2369938 -0.006298836
vn -0.9370863 -0.3066508 -0.1668366
vn -0.9914698 -0.05589424 0.1177432
vn -0.7980841 -0.5759562 0.1770207
vn -0.9094107 -0.2336106 0.3440907
vn -0.4775679 0.878238 0.02504003
vn -0.7670808 -0.2433626 0.5936006
vn -0.5797197 -0.5905818 0.5613718
vn 0.03106075 0.004736961 0.9995063
vn -0.1780041 0.09353577 0.9795742
vn -0.1310191 0.5654359 0.8143194
vn 0.03514925 0.5499008 0.8344901
vn -0.1282567 -0.5063045 0.8527638
vn -0.3508436 -0.3470195 0.8697622
vn -0.3759718 -0.7919855 0.4810449
vn -0.5797197 -0.5905818 0.5613718
vn -0.242117 0.8637527 0.4419397
vn -0.128276 0.8969658 0.4230811
vn 0.1544882 -0.04896782 0.9867804
vn 0.08912847 0.5195004 0.8498091
vn 0.04869231 -0.5890116 0.8066562
vn -0.1295196 0.8865151 0.4442023
vn 0.2158086 -0.07635716 0.9734455
vn 0.08440543 0.4919423 0.8665267
vn 0.1683284 -0.623598 0.7634075
vn -0.1848449 -0.9007725 0.3929902
vn -0.03894817 -0.9463388 0.3208206
vn -0.1798901 0.8592768 0.4788351
vn -0.4775679 0.878238 0.02504003
vn -0.4025227 0.9133986 -0.06065049
vn -0.6805314 0.5925612 -0.4309849
vn -0.7469209 0.6039118 -0.2782079
vn -0.8384457 0.06179475 -0.5414704
vn -0.9262739 0.1435491 -0.3484397
vn -0.8132154 -0.4576911 -0.3594436
vn -0.9370863 -0.3066508 -0.1668366
vn -0.6325771 -0.773982 0.0282477
vn -0.7980841 -0.5759562 0.1770207
vn -0.6878409 -0.5358254 -0.4896592
vn -0.7689071 0.01125421 -0.6392615
vn -0.669364 0.5644685 -0.4830395
vn -0.4215817 0.9042643 -0.06763751
vn -0.7307603 -0.01472509 -0.6824754
vn -0.5938035 -0.5691549 -0.5687355
vn -0.4641618 -0.8803324 -0.09781965
vn -0.3301487 -0.9250938 -0.1876253
vn -0.6890215 0.5386788 -0.4848449
vn -0.4775002 0.8777207 -0.0399979
vn -0.5797197 -0.5905818 0.5613718
vn -0.3759718 -0.7919855 0.4810449
vn -0.1848449 -0.9007725 0.3929902
vn -0.03894817 -0.9463388 0.3208206
vn -0.2709412 -0.9361185 -0.2242165
vn 0.02347827 -0.9572806 0.2882061
vn -0.555241 -0.5794866 -0.5965757
vn -0.7226598 -0.02619415 -0.6907075
vn -0.7112549 0.5215508 -0.4712763
vn -0.5200538 0.8540111 -0.01445664
vn -0.2229921 0.8354234 0.5023367
vn -0.5200538 0.8540111 -0.01445664
vn 0.06315054 0.473957 0.8782806
vn 0.2293608 -0.08824872 0.9693326
vn 0.2140338 -0.6336071 0.7434591
vn 0.02347827 -0.9572806 0.2882061
g pm0232_01_KibaSkin_0
f 3/3/3 2/2/2 1/1/1
f 4/4/4 3/3/3 1/1/1
f 3/3/3 5/5/5 2/2/2
f 5/5/5 6/6/6 2/2/2
f 5/5/5 7/7/7 6/6/6
f 7/7/7 8/8/8 6/6/6
f 4/4/4 1/1/1 9/9/9
f 10/10/10 4/4/4 9/9/9
f 11/11/11 1/1/1 2/2/2
f 11/11/11 2/2/2 6/6/6
f 11/11/11 6/6/6 8/8/8
f 11/11/11 9/9/9 1/1/1
f 11/11/11 12/12/12 9/9/9
f 9/9/9 12/12/12 10/10/10
f 11/11/11 13/13/13 12/12/12
f 13/13/13 14/14/14 12/12/12
f 15/15/15 14/14/14 13/13/13
f 16/16/16 15/15/15 13/13/13
f 11/11/11 16/16/16 13/13/13
f 17/17/17 15/15/15 16/16/16
f 18/18/18 17/17/17 16/16/16
f 11/11/11 18/18/18 16/16/16
f 19/19/19 17/17/17 18/18/18
f 20/20/20 19/19/19 18/18/18
f 11/11/11 20/20/20 18/18/18
f 14/14/14 21/21/21 12/12/12
f 12/12/12 21/21/21 10/10/10
f 11/11/11 22/22/22 20/20/20
f 20/20/20 22/22/22 19/19/19
f 22/22/22 23/23/23 19/19/19
f 26/26/26 25/25/25 24/24/24
f 27/27/27 26/26/26 24/24/24
f 27/27/27 24/24/24 28/28/28
f 29/29/29 27/27/27 28/28/28
f 29/29/29 28/28/28 30/30/30
f 31/31/31 29/29/29 30/30/30
f 26/26/26 32/32/32 25/25/25
f 32/32/32 33/33/33 25/25/25
f 24/24/24 25/25/25 34/34/34
f 25/25/25 35/35/35 34/34/34
f 25/25/25 33/33/33 35/35/35
f 24/24/24 34/34/34 36/36/36
f 28/28/28 24/24/24 36/36/36
f 33/33/33 37/37/37 35/35/35
f 34/34/34 35/35/35 38/38/38
f 34/34/34 38/38/38 36/36/36
f 35/35/35 39/39/39 38/38/38
f 35/35/35 37/37/37 39/39/39
f 38/38/38 40/40/40 36/36/36
f 36/36/36 40/40/40 41/41/41
f 28/28/28 36/36/36 41/41/41
f 30/30/30 28/28/28 41/41/41
f 40/40/40 42/42/42 41/41/41
f 37/37/37 43/43/43 39/39/39
f 32/32/32 44/44/44 33/33/33
f 44/44/44 45/45/45 33/33/33
f 33/33/33 45/45/45 37/37/37
f 45/45/45 44/44/44 46/46/46
f 44/44/44 47/47/47 46/46/46
f 46/46/46 47/47/47 48/48/48
f 47/47/47 49/49/49 48/48/48
f 48/48/48 49/49/49 50/50/50
f 49/49/49 51/51/51 50/50/50
f 50/50/50 51/51/51 52/52/52
f 51/51/51 53/53/53 52/52/52
f 48/48/48 50/50/50 54/54/54
f 50/50/50 52/52/52 54/54/54
f 55/55/55 48/48/48 54/54/54
f 46/46/46 48/48/48 55/55/55
f 56/56/56 46/46/46 55/55/55
f 45/45/45 46/46/46 56/56/56
f 57/57/57 45/45/45 56/56/56
f 58/58/58 55/55/55 54/54/54
f 56/56/56 55/55/55 58/58/58
f 59/59/59 58/58/58 54/54/54
f 54/54/54 60/60/60 59/59/59
f 52/52/52 60/60/60 54/54/54
f 60/60/60 61/61/61 59/59/59
f 62/62/62 56/56/56 58/58/58
f 57/57/57 56/56/56 62/62/62
f 63/63/63 57/57/57 62/62/62
f 53/53/53 64/64/64 52/52/52
f 64/64/64 65/65/65 52/52/52
f 52/52/52 65/65/65 60/60/60
f 65/65/65 66/66/66 60/60/60
f 60/60/60 66/66/66 61/61/61
f 66/66/66 67/67/67 61/61/61
f 57/57/57 63/63/63 43/43/43
f 37/37/37 57/57/57 43/43/43
f 45/45/45 57/57/57 37/37/37
f 61/61/61 67/67/67 68/68/68
f 67/67/67 69/69/69 68/68/68
f 61/61/61 68/68/68 70/70/70
f 59/59/59 61/61/61 70/70/70
f 59/59/59 70/70/70 71/71/71
f 58/58/58 59/59/59 71/71/71
f 58/58/58 71/71/71 72/72/72
f 62/62/62 58/58/58 72/72/72
f 62/62/62 72/72/72 73/73/73
f 63/63/63 62/62/62 73/73/73
f 63/63/63 73/73/73 74/74/74
f 43/43/43 63/63/63 74/74/74
f 43/43/43 74/74/74 75/75/75
f 39/39/39 43/43/43 75/75/75
f 39/39/39 75/75/75 76/76/76
f 38/38/38 39/39/39 76/76/76
f 38/38/38 76/76/76 77/77/77
f 40/40/40 38/38/38 77/77/77
f 40/40/40 77/77/77 78/78/78
f 42/42/42 40/40/40 78/78/78
f 81/81/81 80/80/80 79/79/79
f 82/82/82 81/81/81 79/79/79
f 83/83/83 81/81/81 82/82/82
f 84/84/84 83/83/83 82/82/82
f 85/85/85 83/83/83 84/84/84
f 86/86/86 85/85/85 84/84/84
f 79/79/79 80/80/80 87/87/87
f 80/80/80 88/88/88 87/87/87
f 79/79/79 89/89/89 82/82/82
f 82/82/82 89/89/89 84/84/84
f 84/84/84 89/89/89 86/86/86
f 87/87/87 89/89/89 79/79/79
f 90/90/90 89/89/89 87/87/87
f 90/90/90 87/87/87 88/88/88
f 91/91/91 89/89/89 90/90/90
f 92/92/92 91/91/91 90/90/90
f 92/92/92 93/93/93 91/91/91
f 93/93/93 94/94/94 91/91/91
f 94/94/94 89/89/89 91/91/91
f 93/93/93 95/95/95 94/94/94
f 95/95/95 96/96/96 94/94/94
f 96/96/96 89/89/89 94/94/94
f 95/95/95 97/97/97 96/96/96
f 97/97/97 98/98/98 96/96/96
f 98/98/98 89/89/89 96/96/96
f 99/99/99 92/92/92 90/90/90
f 99/99/99 90/90/90 88/88/88
f 100/100/100 89/89/89 98/98/98
f 100/100/100 98/98/98 97/97/97
f 101/101/101 100/100/100 97/97/97
f 104/104/104 103/103/103 102/102/102
f 105/105/105 104/104/104 102/102/102
f 102/102/102 103/103/103 106/106/106
f 103/103/103 107/107/107 106/106/106
f 106/106/106 107/107/107 108/108/108
f 107/107/107 109/109/109 108/108/108
f 110/110/110 104/104/104 105/105/105
f 111/111/111 110/110/110 105/105/105
f 105/105/105 102/102/102 112/112/112
f 113/113/113 105/105/105 112/112/112
f 111/111/111 105/105/105 113/113/113
f 102/102/102 106/106/106 114/114/114
f 112/112/112 102/102/102 114/114/114
f 115/115/115 111/111/111 113/113/113
f 113/113/113 112/112/112 116/116/116
f 116/116/116 112/112/112 114/114/114
f 117/117/117 113/113/113 116/116/116
f 115/115/115 113/113/113 117/117/117
f 118/118/118 116/116/116 114/114/114
f 118/118/118 114/114/114 119/119/119
f 106/106/106 108/108/108 119/119/119
f 114/114/114 106/106/106 119/119/119
f 120/120/120 118/118/118 119/119/119
f 121/121/121 115/115/115 117/117/117
f 122/122/122 110/110/110 111/111/111
f 123/123/123 122/122/122 111/111/111
f 123/123/123 111/111/111 115/115/115
f 122/122/122 123/123/123 124/124/124
f 125/125/125 122/122/122 124/124/124
f 125/125/125 124/124/124 126/126/126
f 127/127/127 125/125/125 126/126/126
f 127/127/127 126/126/126 128/128/128
f 129/129/129 127/127/127 128/128/128
f 129/129/129 128/128/128 130/130/130
f 131/131/131 129/129/129 130/130/130
f 128/128/128 126/126/126 132/132/132
f 130/130/130 128/128/128 132/132/132
f 126/126/126 133/133/133 132/132/132
f 126/126/126 124/124/124 133/133/133
f 124/124/124 134/134/134 133/133/133
f 124/124/124 123/123/123 134/134/134
f 123/123/123 135/135/135 134/134/134
f 133/133/133 136/136/136 132/132/132
f 133/133/133 134/134/134 136/136/136
f 136/136/136 137/137/137 132/132/132
f 138/138/138 132/132/132 137/137/137
f 138/138/138 130/130/130 132/132/132
f 139/139/139 138/138/138 137/137/137
f 134/134/134 140/140/140 136/136/136
f 134/134/134 135/135/135 140/140/140
f 135/135/135 141/141/141 140/140/140
f 142/142/142 131/131/131 130/130/130
f 143/143/143 142/142/142 130/130/130
f 143/143/143 130/130/130 138/138/138
f 144/144/144 143/143/143 138/138/138
f 144/144/144 138/138/138 139/139/139
f 145/145/145 144/144/144 139/139/139
f 141/141/141 135/135/135 121/121/121
f 135/135/135 115/115/115 121/121/121
f 135/135/135 123/123/123 115/115/115
f 145/145/145 139/139/139 146/146/146
f 147/147/147 145/145/145 146/146/146
f 139/139/139 137/137/137 148/148/148
f 146/146/146 139/139/139 148/148/148
f 137/137/137 136/136/136 149/149/149
f 148/148/148 137/137/137 149/149/149
f 136/136/136 140/140/140 150/150/150
f 149/149/149 136/136/136 150/150/150
f 140/140/140 141/141/141 151/151/151
f 150/150/150 140/140/140 151/151/151
f 141/141/141 121/121/121 152/152/152
f 153/153/153 141/141/141 152/152/152
f 152/152/152 121/121/121 154/154/154
f 121/121/121 117/117/117 154/154/154
f 154/154/154 117/117/117 155/155/155
f 117/117/117 116/116/116 155/155/155
f 155/155/155 116/116/116 156/156/156
f 116/116/116 118/118/118 156/156/156
f 156/156/156 118/118/118 157/157/157
f 118/118/118 120/120/120 157/157/157
