g pm0232_00_KibaSkin
v 0.7169101 0.52008 0.6948051
v 0.7208669 0.514968 0.6996959
v 0.666952 0.480404 0.6921746
v 0.6615862 0.497997 0.6823818
v 0.6787276 0.4632782 0.6906582
v 0.7272806 0.5100386 0.7002242
v 0.6924144 0.453161 0.6784117
v 0.7337006 0.5071748 0.6961881
v 0.7169209 0.5234221 0.68742
v 0.6646792 0.509337 0.6650203
v 0.7356563 0.5275764 0.6934651
v 0.7208956 0.5237176 0.6803612
v 0.7273157 0.5208538 0.6763252
v 0.6887367 0.4999757 0.6344751
v 0.7005123 0.4828498 0.6329587
v 0.7337293 0.5159244 0.6768534
v 0.7058781 0.4652569 0.6427514
v 0.7376862 0.5108123 0.6817442
v 0.7027852 0.4539168 0.6601129
v 0.7376753 0.5074703 0.6891293
v 0.67505 0.5100929 0.6467215
v 0.7337006 0.5071748 0.6961881
v 0.6924144 0.453161 0.6784117
v 0.5884687 0.4448931 0.6665211
v 0.587223 0.4742512 0.6557646
v 0.6615862 0.497997 0.6823818
v 0.666952 0.480404 0.6921746
v 0.5993718 0.4162314 0.6602857
v 0.6787276 0.4632782 0.6906582
v 0.6157676 0.3992141 0.6394396
v 0.6924144 0.453161 0.6784117
v 0.6646792 0.509337 0.6650203
v 0.5961106 0.4903619 0.6321242
v 0.49124 0.4261639 0.6218534
v 0.4985237 0.4617138 0.6141474
v 0.4953937 0.3914258 0.6095105
v 0.5144625 0.4844966 0.5893358
v 0.3968802 0.4353904 0.5791038
v 0.4096534 0.4758432 0.5727419
v 0.3972538 0.3958687 0.5624315
v 0.5093983 0.3707682 0.5818332
v 0.4106318 0.372374 0.5290931
v 0.4306946 0.5017754 0.5457757
v 0.67505 0.5100929 0.6467215
v 0.6117366 0.4914889 0.6046302
v 0.6281323 0.4772019 0.5837842
v 0.6887367 0.4999757 0.6344751
v 0.6390355 0.4485403 0.5775487
v 0.7005123 0.4828498 0.6329587
v 0.6402811 0.419182 0.5883054
v 0.7058781 0.4652569 0.6427514
v 0.6313936 0.4003412 0.6119456
v 0.7027852 0.4539168 0.6601129
v 0.5438433 0.3948644 0.524582
v 0.551127 0.4304142 0.516876
v 0.5469733 0.4651523 0.5292189
v 0.5329689 0.4858099 0.5568962
v 0.4657184 0.4402655 0.4584945
v 0.4529452 0.3998128 0.4648565
v 0.5279043 0.3720816 0.5493934
v 0.4319039 0.3738805 0.4918227
v 0.4653447 0.4797872 0.4751669
v 0.4519669 0.503282 0.5085053
v 0.6924144 0.453161 0.6784117
v 0.6157676 0.3992141 0.6394396
v 0.5093983 0.3707682 0.5818332
v 0.4106318 0.372374 0.5290931
v 0.3465734 0.3868394 0.4414462
v 0.323369 0.3851963 0.4821004
v 0.3697479 0.4151064 0.4121573
v 0.3840405 0.4592002 0.4054211
v 0.383992 0.5022784 0.4238106
v 0.3696209 0.5278868 0.4603017
v 0.3464165 0.5262437 0.500956
v 0.323242 0.4979767 0.5302449
v 0.3089494 0.453883 0.536981
v 0.3089979 0.4108047 0.5185915
v 0.323369 0.3851963 0.4821004
v -0.7169101 0.52008 0.6948051
v -0.6615862 0.497997 0.6823818
v -0.666952 0.480404 0.6921746
v -0.7208669 0.514968 0.6996959
v -0.6787276 0.4632782 0.6906582
v -0.7272806 0.5100386 0.7002242
v -0.6924144 0.453161 0.6784117
v -0.7337006 0.5071748 0.6961881
v -0.7169209 0.5234221 0.68742
v -0.6646792 0.509337 0.6650203
v -0.7356563 0.5275764 0.6934651
v -0.7208956 0.5237176 0.6803612
v -0.7273157 0.5208538 0.6763252
v -0.6887367 0.4999757 0.6344751
v -0.7005123 0.4828498 0.6329587
v -0.7337293 0.5159244 0.6768534
v -0.7058781 0.4652569 0.6427514
v -0.7376862 0.5108123 0.6817442
v -0.7027852 0.4539168 0.6601129
v -0.7376753 0.5074703 0.6891293
v -0.67505 0.5100929 0.6467215
v -0.7337006 0.5071748 0.6961881
v -0.6924144 0.453161 0.6784117
v -0.5884687 0.4448931 0.6665211
v -0.666952 0.480404 0.6921746
v -0.6615862 0.497997 0.6823818
v -0.587223 0.4742512 0.6557646
v -0.5993718 0.4162314 0.6602857
v -0.6787276 0.4632782 0.6906582
v -0.6157676 0.3992141 0.6394396
v -0.6924144 0.453161 0.6784117
v -0.6646792 0.509337 0.6650203
v -0.5961106 0.4903619 0.6321242
v -0.49124 0.4261639 0.6218534
v -0.4985237 0.4617138 0.6141474
v -0.4953937 0.3914258 0.6095105
v -0.5144625 0.4844966 0.5893358
v -0.3968802 0.4353904 0.5791038
v -0.4096534 0.4758432 0.5727419
v -0.3972538 0.3958687 0.5624315
v -0.5093983 0.3707682 0.5818332
v -0.4106318 0.372374 0.5290931
v -0.4306946 0.5017754 0.5457757
v -0.67505 0.5100929 0.6467215
v -0.6117366 0.4914889 0.6046302
v -0.6281323 0.4772019 0.5837842
v -0.6887367 0.4999757 0.6344751
v -0.6390355 0.4485403 0.5775487
v -0.7005123 0.4828498 0.6329587
v -0.6402811 0.419182 0.5883054
v -0.7058781 0.4652569 0.6427514
v -0.6313936 0.4003412 0.6119456
v -0.7027852 0.4539168 0.6601129
v -0.5438433 0.3948644 0.524582
v -0.551127 0.4304142 0.516876
v -0.5469733 0.4651523 0.5292189
v -0.5329689 0.4858099 0.5568962
v -0.4657184 0.4402655 0.4584945
v -0.4529452 0.3998128 0.4648565
v -0.5279043 0.3720816 0.5493934
v -0.4319039 0.3738805 0.4918227
v -0.4653447 0.4797872 0.4751669
v -0.4519669 0.503282 0.5085053
v -0.6924144 0.453161 0.6784117
v -0.6157676 0.3992141 0.6394396
v -0.5093983 0.3707682 0.5818332
v -0.4106318 0.372374 0.5290931
v -0.3465734 0.3868394 0.4414462
v -0.323369 0.3851963 0.4821004
v -0.3697479 0.4151064 0.4121573
v -0.3840405 0.4592002 0.4054211
v -0.383992 0.5022784 0.4238106
v -0.3696209 0.5278868 0.4603017
v -0.3464165 0.5262437 0.500956
v -0.323242 0.4979767 0.5302449
v -0.3089494 0.453883 0.536981
v -0.3089979 0.4108047 0.5185915
v -0.323369 0.3851963 0.4821004
vt 0.8717697 0.3437743
vt 0.8750668 0.3470618
vt 0.8455186 0.3690348
vt 0.8405228 0.3585814
vt 0.8522177 0.3786774
vt 0.8791203 0.3495097
vt 0.8591952 0.3876712
vt 0.8829923 0.3513758
vt 0.8696606 0.3396186
vt 0.8375258 0.3474004
vt 0.8822069 0.3359375
vt 0.8690877 0.3359381
vt 0.8700838 0.3317004
vt 0.837806 0.3247902
vt 0.8409085 0.3142401
vt 0.8723261 0.3280377
vt 0.845603 0.3043511
vt 0.8753786 0.3249984
vt 0.8516946 0.294957
vt 0.8789554 0.3223776
vt 0.8366315 0.3359377
vt 0.8829923 0.3199639
vt 0.8591948 0.2858984
vt 0.7988746 0.3901629
vt 0.7949531 0.3723676
vt 0.8405228 0.3585814
vt 0.8455186 0.3690348
vt 0.8045573 0.407279
vt 0.8522177 0.3786774
vt 0.8112876 0.4240988
vt 0.8591952 0.3876712
vt 0.8375258 0.3474004
vt 0.7924845 0.3547505
vt 0.7362309 0.4058585
vt 0.7354069 0.3831753
vt 0.7382069 0.4278525
vt 0.7349353 0.3596585
vt 0.6757813 0.4104772
vt 0.6757813 0.3859944
vt 0.6757813 0.4344805
vt 0.742156 0.4497041
vt 0.6757813 0.4582512
vt 0.6757813 0.3610419
vt 0.8366315 0.3359377
vt 0.7916343 0.3359374
vt 0.792465 0.3183032
vt 0.837806 0.3247902
vt 0.7945788 0.3008729
vt 0.8409085 0.3142401
vt 0.7983165 0.2842749
vt 0.845603 0.3043511
vt 0.8038235 0.2680743
vt 0.8516946 0.294957
vt 0.7347922 0.2688994
vt 0.7338948 0.2901709
vt 0.7340331 0.3124292
vt 0.7344794 0.3359376
vt 0.6757813 0.287087
vt 0.6757813 0.2635226
vt 0.7374597 0.2480091
vt 0.6757813 0.240199
vt 0.6757813 0.311201
vt 0.6757813 0.3359382
vt 0.8591948 0.2858984
vt 0.8112879 0.2518957
vt 0.7421553 0.2269473
vt 0.6757813 0.2167162
vt 0.6250005 0.2366633
vt 0.625 0.2126048
vt 0.6250005 0.2615049
vt 0.6249995 0.2862396
vt 0.625 0.3109887
vt 0.625 0.3359375
vt 0.6249995 0.3612947
vt 0.625 0.386727
vt 0.625 0.4121633
vt 0.625 0.4374397
vt 0.6250005 0.4616947
vt 0.8717697 0.3437743
vt 0.8405228 0.3585814
vt 0.8455186 0.3690348
vt 0.8750668 0.3470618
vt 0.8522177 0.3786774
vt 0.8791203 0.3495097
vt 0.8591952 0.3876712
vt 0.8829923 0.3513758
vt 0.8696606 0.3396186
vt 0.8375258 0.3474004
vt 0.8822069 0.3359375
vt 0.8690877 0.3359381
vt 0.8700838 0.3317004
vt 0.837806 0.3247902
vt 0.8409085 0.3142401
vt 0.8723261 0.3280377
vt 0.845603 0.3043511
vt 0.8753786 0.3249984
vt 0.8516946 0.294957
vt 0.8789554 0.3223776
vt 0.8366315 0.3359377
vt 0.8829923 0.3199639
vt 0.8591948 0.2858984
vt 0.7988746 0.3901629
vt 0.8455186 0.3690348
vt 0.8405228 0.3585814
vt 0.7949531 0.3723676
vt 0.8045573 0.407279
vt 0.8522177 0.3786774
vt 0.8112876 0.4240988
vt 0.8591952 0.3876712
vt 0.8375258 0.3474004
vt 0.7924845 0.3547505
vt 0.7362309 0.4058585
vt 0.7354069 0.3831753
vt 0.7382069 0.4278525
vt 0.7349353 0.3596585
vt 0.6757813 0.4104772
vt 0.6757813 0.3859944
vt 0.6757813 0.4344805
vt 0.742156 0.4497041
vt 0.6757813 0.4582512
vt 0.6757813 0.3610419
vt 0.8366315 0.3359377
vt 0.7916343 0.3359374
vt 0.792465 0.3183032
vt 0.837806 0.3247902
vt 0.7945788 0.3008729
vt 0.8409085 0.3142401
vt 0.7983165 0.2842749
vt 0.845603 0.3043511
vt 0.8038235 0.2680743
vt 0.8516946 0.294957
vt 0.7347922 0.2688994
vt 0.7338948 0.2901709
vt 0.7340331 0.3124292
vt 0.7344794 0.3359376
vt 0.6757813 0.287087
vt 0.6757813 0.2635226
vt 0.7374597 0.2480091
vt 0.6757813 0.240199
vt 0.6757813 0.311201
vt 0.6757813 0.3359382
vt 0.8591948 0.2858984
vt 0.8112879 0.2518957
vt 0.7421553 0.2269473
vt 0.6757813 0.2167162
vt 0.6250005 0.2366633
vt 0.625 0.2126048
vt 0.6250005 0.2615049
vt 0.6249995 0.2862396
vt 0.625 0.3109887
vt 0.625 0.3359375
vt 0.6249995 0.3612947
vt 0.625 0.386727
vt 0.625 0.4121633
vt 0.625 0.4374397
vt 0.6250005 0.4616947
vn 0.0841155 0.7719001 0.6301546
vn 0.1874453 0.4916334 0.8503886
vn -0.1119619 0.2495818 0.9618594
vn -0.199536 0.6908292 0.6949392
vn 0.1609445 -0.229869 0.9598214
vn 0.4330328 0.1853073 0.8821247
vn 0.5390178 -0.5525052 0.6357656
vn 0.7411305 -0.0181736 0.671115
vn 0.1329437 0.9391965 0.3166006
vn -0.09838645 0.9569418 0.2730978
vn 0.6338122 0.6712269 0.3843651
vn 0.306335 0.9518932 0.007623062
vn 0.554333 0.8060924 -0.2071951
vn 0.4647737 0.7385905 -0.4883335
vn 0.7537618 0.3109624 -0.5789175
vn 0.806262 0.5360202 -0.2502477
vn 0.910596 -0.177532 -0.3732255
vn 0.9718689 0.2233001 -0.07488491
vn 0.8412006 -0.5316329 0.09873144
vn 0.9582562 -0.003062299 0.2858945
vn 0.1483106 0.9748178 -0.166536
vn 0.7411305 -0.0181736 0.671115
vn 0.5390178 -0.5525052 0.6357656
vn -0.2738832 0.08440517 0.958052
vn -0.3025275 0.6145175 0.7285913
vn -0.199536 0.6908292 0.6949392
vn -0.1119619 0.2495818 0.9618594
vn -0.05983926 -0.4659794 0.8827698
vn 0.1609445 -0.229869 0.9598214
vn 0.2777217 -0.8238444 0.4941165
vn 0.5390178 -0.5525052 0.6357656
vn -0.09838645 0.9569418 0.2730978
vn -0.147485 0.9468786 0.2857782
vn -0.3545572 -0.001053262 0.9350337
vn -0.3065495 0.5704182 0.7620043
vn -0.2196417 -0.5731399 0.7894733
vn -0.09472428 0.9380096 0.3334148
vn -0.3901234 -0.03646453 0.9200402
vn -0.2765768 0.5475143 0.7897679
vn -0.3188075 -0.610446 0.7250638
vn 0.05816995 -0.9310579 0.3602046
vn -0.08558739 -0.9588322 0.2707685
vn -0.01960481 0.9245077 0.3806589
vn 0.1483106 0.9748178 -0.166536
vn 0.1342058 0.9673012 -0.2152141
vn 0.4433825 0.6680577 -0.5975876
vn 0.4647737 0.7385905 -0.4883335
vn 0.6727242 0.1515226 -0.7242119
vn 0.7537618 0.3109624 -0.5789175
vn 0.7384709 -0.4097458 -0.5355082
vn 0.910596 -0.177532 -0.3732255
vn 0.5940344 -0.8015791 -0.06777941
vn 0.8412006 -0.5316329 0.09873144
vn 0.5814346 -0.5161034 -0.6289444
vn 0.616425 0.06809602 -0.7844636
vn 0.4732817 0.6265186 -0.6192567
vn 0.2031539 0.9596795 -0.1942773
vn 0.5892352 0.03343491 -0.8072694
vn 0.4787712 -0.5534801 -0.6814969
vn 0.3703529 -0.9087191 -0.1925314
vn 0.221513 -0.9368117 -0.2707688
vn 0.5155323 0.604424 -0.6073698
vn 0.2836131 0.9464647 -0.1541692
vn 0.5390178 -0.5525052 0.6357656
vn 0.2777217 -0.8238444 0.4941165
vn 0.05816995 -0.9310579 0.3602046
vn -0.08558739 -0.9588322 0.2707685
vn 0.1587322 -0.9396877 -0.3029703
vn -0.1459312 -0.9614596 0.2330223
vn 0.4367876 -0.5627257 -0.7018237
vn 0.5824762 0.02222143 -0.8125439
vn 0.5417027 0.5941011 -0.5946444
vn 0.3289112 0.9354815 -0.1291962
vn 0.02482669 0.9136041 0.4058462
vn -0.2534786 0.5371371 0.8045075
vn -0.3996065 -0.04786016 0.9154365
vn -0.3589193 -0.6194993 0.6981387
vn -0.1459312 -0.9614596 0.2330223
vn -0.08411479 0.7718996 0.6301553
vn 0.1995363 0.6908289 0.6949393
vn 0.1119624 0.2495815 0.9618594
vn -0.1874443 0.491633 0.8503892
vn -0.1609439 -0.2298689 0.9598215
vn -0.4330316 0.185307 0.8821253
vn -0.5390173 -0.5525052 0.635766
vn -0.7411299 -0.01817395 0.6711156
vn -0.1329433 0.9391963 0.3166012
vn 0.09838652 0.9569417 0.2730982
vn -0.6338121 0.6712263 0.3843663
vn -0.3063348 0.9518933 0.007623646
vn -0.5543331 0.8060925 -0.2071946
vn -0.464774 0.7385904 -0.4883333
vn -0.7537622 0.3109619 -0.5789172
vn -0.8062624 0.5360199 -0.2502471
vn -0.9105961 -0.1775326 -0.373225
vn -0.9718692 0.2232996 -0.07488405
vn -0.8412004 -0.5316332 0.09873203
vn -0.9582559 -0.003062897 0.2858955
vn -0.1483106 0.9748178 -0.1665358
vn -0.7411299 -0.01817395 0.6711156
vn -0.5390173 -0.5525052 0.635766
vn 0.2738833 0.08440515 0.958052
vn 0.1119624 0.2495815 0.9618594
vn 0.1995363 0.6908289 0.6949393
vn 0.3025275 0.6145175 0.7285913
vn 0.05983933 -0.4659792 0.8827699
vn -0.1609439 -0.2298689 0.9598215
vn -0.2777216 -0.8238443 0.4941167
vn -0.5390173 -0.5525052 0.635766
vn 0.09838652 0.9569417 0.2730982
vn 0.1474848 0.9468786 0.2857783
vn 0.3545571 -0.001053179 0.9350338
vn 0.3065495 0.5704183 0.7620042
vn 0.2196416 -0.5731398 0.7894734
vn 0.09472402 0.9380096 0.3334146
vn 0.3901234 -0.03646445 0.9200402
vn 0.2765768 0.5475146 0.7897677
vn 0.3188073 -0.6104459 0.725064
vn -0.05817004 -0.9310579 0.3602048
vn 0.0855873 -0.9588322 0.2707685
vn 0.01960473 0.9245079 0.3806586
vn -0.1483106 0.9748178 -0.1665358
vn -0.1342061 0.9673012 -0.2152139
vn -0.4433827 0.6680576 -0.5975874
vn -0.464774 0.7385904 -0.4883333
vn -0.6727245 0.1515223 -0.7242117
vn -0.7537622 0.3109619 -0.5789172
vn -0.7384709 -0.4097461 -0.5355081
vn -0.9105961 -0.1775326 -0.373225
vn -0.5940345 -0.8015791 -0.06777915
vn -0.8412004 -0.5316332 0.09873203
vn -0.5814347 -0.5161034 -0.6289444
vn -0.616425 0.06809584 -0.7844636
vn -0.4732819 0.6265185 -0.6192567
vn -0.2031541 0.9596795 -0.1942773
vn -0.5892352 0.03343491 -0.8072695
vn -0.4787712 -0.55348 -0.6814969
vn -0.370353 -0.9087191 -0.1925314
vn -0.2215131 -0.9368117 -0.2707689
vn -0.5155323 0.6044239 -0.6073699
vn -0.2836131 0.9464647 -0.1541694
vn -0.5390173 -0.5525052 0.635766
vn -0.2777216 -0.8238443 0.4941167
vn -0.05817004 -0.9310579 0.3602048
vn 0.0855873 -0.9588322 0.2707685
vn -0.1587322 -0.9396877 -0.3029703
vn 0.1459311 -0.9614596 0.2330223
vn -0.4367874 -0.5627257 -0.7018237
vn -0.5824762 0.02222143 -0.8125439
vn -0.5417026 0.5941011 -0.5946446
vn -0.3289111 0.9354815 -0.1291966
vn -0.02482677 0.9136043 0.4058459
vn 0.2534784 0.5371375 0.8045074
vn 0.3996064 -0.04786009 0.9154366
vn 0.3589192 -0.6194991 0.6981388
vn 0.1459311 -0.9614596 0.2330223
g pm0232_00_KibaSkin_0
f 3/3/3 2/2/2 1/1/1
f 4/4/4 3/3/3 1/1/1
f 3/3/3 5/5/5 2/2/2
f 5/5/5 6/6/6 2/2/2
f 5/5/5 7/7/7 6/6/6
f 7/7/7 8/8/8 6/6/6
f 4/4/4 1/1/1 9/9/9
f 10/10/10 4/4/4 9/9/9
f 11/11/11 1/1/1 2/2/2
f 11/11/11 2/2/2 6/6/6
f 11/11/11 6/6/6 8/8/8
f 11/11/11 9/9/9 1/1/1
f 11/11/11 12/12/12 9/9/9
f 9/9/9 12/12/12 10/10/10
f 11/11/11 13/13/13 12/12/12
f 13/13/13 14/14/14 12/12/12
f 15/15/15 14/14/14 13/13/13
f 16/16/16 15/15/15 13/13/13
f 11/11/11 16/16/16 13/13/13
f 17/17/17 15/15/15 16/16/16
f 18/18/18 17/17/17 16/16/16
f 11/11/11 18/18/18 16/16/16
f 19/19/19 17/17/17 18/18/18
f 20/20/20 19/19/19 18/18/18
f 11/11/11 20/20/20 18/18/18
f 14/14/14 21/21/21 12/12/12
f 12/12/12 21/21/21 10/10/10
f 11/11/11 22/22/22 20/20/20
f 20/20/20 22/22/22 19/19/19
f 22/22/22 23/23/23 19/19/19
f 26/26/26 25/25/25 24/24/24
f 27/27/27 26/26/26 24/24/24
f 27/27/27 24/24/24 28/28/28
f 29/29/29 27/27/27 28/28/28
f 29/29/29 28/28/28 30/30/30
f 31/31/31 29/29/29 30/30/30
f 26/26/26 32/32/32 25/25/25
f 32/32/32 33/33/33 25/25/25
f 24/24/24 25/25/25 34/34/34
f 25/25/25 35/35/35 34/34/34
f 25/25/25 33/33/33 35/35/35
f 24/24/24 34/34/34 36/36/36
f 28/28/28 24/24/24 36/36/36
f 33/33/33 37/37/37 35/35/35
f 34/34/34 35/35/35 38/38/38
f 34/34/34 38/38/38 36/36/36
f 35/35/35 39/39/39 38/38/38
f 35/35/35 37/37/37 39/39/39
f 38/38/38 40/40/40 36/36/36
f 36/36/36 40/40/40 41/41/41
f 28/28/28 36/36/36 41/41/41
f 30/30/30 28/28/28 41/41/41
f 40/40/40 42/42/42 41/41/41
f 37/37/37 43/43/43 39/39/39
f 32/32/32 44/44/44 33/33/33
f 44/44/44 45/45/45 33/33/33
f 33/33/33 45/45/45 37/37/37
f 45/45/45 44/44/44 46/46/46
f 44/44/44 47/47/47 46/46/46
f 46/46/46 47/47/47 48/48/48
f 47/47/47 49/49/49 48/48/48
f 48/48/48 49/49/49 50/50/50
f 49/49/49 51/51/51 50/50/50
f 50/50/50 51/51/51 52/52/52
f 51/51/51 53/53/53 52/52/52
f 48/48/48 50/50/50 54/54/54
f 50/50/50 52/52/52 54/54/54
f 55/55/55 48/48/48 54/54/54
f 46/46/46 48/48/48 55/55/55
f 56/56/56 46/46/46 55/55/55
f 45/45/45 46/46/46 56/56/56
f 57/57/57 45/45/45 56/56/56
f 58/58/58 55/55/55 54/54/54
f 56/56/56 55/55/55 58/58/58
f 59/59/59 58/58/58 54/54/54
f 54/54/54 60/60/60 59/59/59
f 52/52/52 60/60/60 54/54/54
f 60/60/60 61/61/61 59/59/59
f 62/62/62 56/56/56 58/58/58
f 57/57/57 56/56/56 62/62/62
f 63/63/63 57/57/57 62/62/62
f 53/53/53 64/64/64 52/52/52
f 64/64/64 65/65/65 52/52/52
f 52/52/52 65/65/65 60/60/60
f 65/65/65 66/66/66 60/60/60
f 60/60/60 66/66/66 61/61/61
f 66/66/66 67/67/67 61/61/61
f 57/57/57 63/63/63 43/43/43
f 37/37/37 57/57/57 43/43/43
f 45/45/45 57/57/57 37/37/37
f 61/61/61 67/67/67 68/68/68
f 67/67/67 69/69/69 68/68/68
f 61/61/61 68/68/68 70/70/70
f 59/59/59 61/61/61 70/70/70
f 59/59/59 70/70/70 71/71/71
f 58/58/58 59/59/59 71/71/71
f 58/58/58 71/71/71 72/72/72
f 62/62/62 58/58/58 72/72/72
f 62/62/62 72/72/72 73/73/73
f 63/63/63 62/62/62 73/73/73
f 63/63/63 73/73/73 74/74/74
f 43/43/43 63/63/63 74/74/74
f 43/43/43 74/74/74 75/75/75
f 39/39/39 43/43/43 75/75/75
f 39/39/39 75/75/75 76/76/76
f 38/38/38 39/39/39 76/76/76
f 38/38/38 76/76/76 77/77/77
f 40/40/40 38/38/38 77/77/77
f 40/40/40 77/77/77 78/78/78
f 42/42/42 40/40/40 78/78/78
f 81/81/81 80/80/80 79/79/79
f 82/82/82 81/81/81 79/79/79
f 83/83/83 81/81/81 82/82/82
f 84/84/84 83/83/83 82/82/82
f 85/85/85 83/83/83 84/84/84
f 86/86/86 85/85/85 84/84/84
f 79/79/79 80/80/80 87/87/87
f 80/80/80 88/88/88 87/87/87
f 79/79/79 89/89/89 82/82/82
f 82/82/82 89/89/89 84/84/84
f 84/84/84 89/89/89 86/86/86
f 87/87/87 89/89/89 79/79/79
f 90/90/90 89/89/89 87/87/87
f 90/90/90 87/87/87 88/88/88
f 91/91/91 89/89/89 90/90/90
f 92/92/92 91/91/91 90/90/90
f 92/92/92 93/93/93 91/91/91
f 93/93/93 94/94/94 91/91/91
f 94/94/94 89/89/89 91/91/91
f 93/93/93 95/95/95 94/94/94
f 95/95/95 96/96/96 94/94/94
f 96/96/96 89/89/89 94/94/94
f 95/95/95 97/97/97 96/96/96
f 97/97/97 98/98/98 96/96/96
f 98/98/98 89/89/89 96/96/96
f 99/99/99 92/92/92 90/90/90
f 99/99/99 90/90/90 88/88/88
f 100/100/100 89/89/89 98/98/98
f 100/100/100 98/98/98 97/97/97
f 101/101/101 100/100/100 97/97/97
f 104/104/104 103/103/103 102/102/102
f 105/105/105 104/104/104 102/102/102
f 102/102/102 103/103/103 106/106/106
f 103/103/103 107/107/107 106/106/106
f 106/106/106 107/107/107 108/108/108
f 107/107/107 109/109/109 108/108/108
f 110/110/110 104/104/104 105/105/105
f 111/111/111 110/110/110 105/105/105
f 105/105/105 102/102/102 112/112/112
f 113/113/113 105/105/105 112/112/112
f 111/111/111 105/105/105 113/113/113
f 102/102/102 106/106/106 114/114/114
f 112/112/112 102/102/102 114/114/114
f 115/115/115 111/111/111 113/113/113
f 113/113/113 112/112/112 116/116/116
f 116/116/116 112/112/112 114/114/114
f 117/117/117 113/113/113 116/116/116
f 115/115/115 113/113/113 117/117/117
f 118/118/118 116/116/116 114/114/114
f 118/118/118 114/114/114 119/119/119
f 106/106/106 108/108/108 119/119/119
f 114/114/114 106/106/106 119/119/119
f 120/120/120 118/118/118 119/119/119
f 121/121/121 115/115/115 117/117/117
f 122/122/122 110/110/110 111/111/111
f 123/123/123 122/122/122 111/111/111
f 123/123/123 111/111/111 115/115/115
f 122/122/122 123/123/123 124/124/124
f 125/125/125 122/122/122 124/124/124
f 125/125/125 124/124/124 126/126/126
f 127/127/127 125/125/125 126/126/126
f 127/127/127 126/126/126 128/128/128
f 129/129/129 127/127/127 128/128/128
f 129/129/129 128/128/128 130/130/130
f 131/131/131 129/129/129 130/130/130
f 128/128/128 126/126/126 132/132/132
f 130/130/130 128/128/128 132/132/132
f 126/126/126 133/133/133 132/132/132
f 126/126/126 124/124/124 133/133/133
f 124/124/124 134/134/134 133/133/133
f 124/124/124 123/123/123 134/134/134
f 123/123/123 135/135/135 134/134/134
f 133/133/133 136/136/136 132/132/132
f 133/133/133 134/134/134 136/136/136
f 136/136/136 137/137/137 132/132/132
f 138/138/138 132/132/132 137/137/137
f 138/138/138 130/130/130 132/132/132
f 139/139/139 138/138/138 137/137/137
f 134/134/134 140/140/140 136/136/136
f 134/134/134 135/135/135 140/140/140
f 135/135/135 141/141/141 140/140/140
f 142/142/142 131/131/131 130/130/130
f 143/143/143 142/142/142 130/130/130
f 143/143/143 130/130/130 138/138/138
f 144/144/144 143/143/143 138/138/138
f 144/144/144 138/138/138 139/139/139
f 145/145/145 144/144/144 139/139/139
f 141/141/141 135/135/135 121/121/121
f 135/135/135 115/115/115 121/121/121
f 135/135/135 123/123/123 115/115/115
f 145/145/145 139/139/139 146/146/146
f 147/147/147 145/145/145 146/146/146
f 139/139/139 137/137/137 148/148/148
f 146/146/146 139/139/139 148/148/148
f 137/137/137 136/136/136 149/149/149
f 148/148/148 137/137/137 149/149/149
f 136/136/136 140/140/140 150/150/150
f 149/149/149 136/136/136 150/150/150
f 140/140/140 141/141/141 151/151/151
f 150/150/150 140/140/140 151/151/151
f 141/141/141 121/121/121 152/152/152
f 151/151/151 141/141/141 152/152/152
f 152/152/152 121/121/121 153/153/153
f 121/121/121 117/117/117 153/153/153
f 153/153/153 117/117/117 154/154/154
f 117/117/117 116/116/116 154/154/154
f 154/154/154 116/116/116 155/155/155
f 116/116/116 118/118/118 155/155/155
f 155/155/155 118/118/118 156/156/156
f 118/118/118 120/120/120 156/156/156
