g pm0308_00_HairSkin
v -0.02600439 1.124499 -0.01390066
v -0.03375494 1.150619 -0.01523719
v -0.01983961 1.153865 -0.005355457
v -0.02538756 1.19435 -0.008123229
v -0.04468589 1.191124 -0.02016602
v -1.219158E-24 1.155036 -0.001232974
v 1.229597E-24 1.195534 -0.003531181
v -2.047735E-24 1.1273 -0.00311053
v -1.550075E-24 1.105062 -0.005880998
v -0.01650964 1.103105 -0.01236018
v -0.04474531 1.146364 -0.0270149
v -0.04900861 1.140815 -0.04421661
v -0.03703175 1.117605 -0.03595675
v -0.02603475 1.10954 -0.05953943
v -0.04454269 1.134389 -0.0635851
v -0.0341223 1.13005 -0.07626963
v -0.01997479 1.126475 -0.08573898
v -1.293499E-24 1.124791 -0.09006886
v -2.098641E-24 1.105321 -0.07099561
v -0.02549879 1.159874 -0.1100794
v 1.123005E-24 1.158152 -0.1146851
v -0.04537604 1.164133 -0.09860369
v -0.05896189 1.170763 -0.08048733
v -0.06385658 1.17853 -0.05812725
v -0.05878672 1.185694 -0.03650248
v -0.02838018 1.192962 -0.1310363
v 3.833605E-24 1.190636 -0.1355411
v 5.643149E-24 1.225537 -0.1503226
v -0.0293004 1.226134 -0.1447521
v -0.05349134 1.232209 -0.1317386
v -0.02988867 1.261778 -0.148298
v -0.05179032 1.24907 -0.1365417
v -0.05887039 1.271356 -0.1222023
v -0.03573522 1.289375 -0.1357171
v 8.425268E-24 1.298381 -0.1420513
v 7.46843E-24 1.265195 -0.1535018
v -0.03865157 1.311297 -0.1065817
v 8.612862E-24 1.323078 -0.1108721
v 8.51068E-24 1.324196 -0.07111635
v -0.03574336 1.313221 -0.07017253
v -0.0588649 1.29069 -0.06906507
v -0.02991691 1.300102 -0.04292413
v -0.0515046 1.28321 -0.04417131
v -0.05301528 1.267487 -0.03792423
v -0.02957914 1.272269 -0.02385846
v 5.808559E-24 1.275529 -0.01901812
v 7.817072E-24 1.306565 -0.04080776
v -0.02854071 1.235734 -0.01400014
v 3.986204E-24 1.236756 -0.009254908
v -0.05127426 1.231664 -0.02673945
v -0.06275656 1.285713 -0.09735502
v -0.07425237 1.24685 -0.08321888
v -0.06886228 1.237909 -0.1094444
v -0.06668543 1.205425 -0.09782137
v -0.07168003 1.214519 -0.07150402
v -0.0517994 1.198263 -0.1185501
v -0.06660073 1.223964 -0.04627844
v -0.06887698 1.25782 -0.05638276
v -0.02383861 1.098205 -0.02950992
v -0.01650963 1.092676 -0.04775401
v -1.564777E-24 1.09025 -0.05384545
v 0.02600439 1.124499 -0.01390066
v 0.01983961 1.153865 -0.005355457
v 0.03375494 1.150619 -0.01523719
v 0.02538756 1.19435 -0.008123229
v 0.04468589 1.191124 -0.02016602
v -1.219158E-24 1.155036 -0.001232974
v 1.229597E-24 1.195534 -0.003531181
v -2.047735E-24 1.1273 -0.00311053
v -1.550075E-24 1.105062 -0.005880998
v 0.01650964 1.103105 -0.01236018
v 0.04474531 1.146364 -0.0270149
v 0.04900861 1.140815 -0.04421661
v 0.03703175 1.117605 -0.03595675
v 0.02603475 1.10954 -0.05953943
v 0.04454269 1.134389 -0.0635851
v 0.0341223 1.13005 -0.07626963
v 0.01997479 1.126475 -0.08573898
v -1.293499E-24 1.124791 -0.09006886
v -2.098641E-24 1.105321 -0.07099561
v 0.02549879 1.159874 -0.1100794
v 1.123005E-24 1.158152 -0.1146851
v 0.04537604 1.164133 -0.09860369
v 0.05896189 1.170763 -0.08048733
v 0.06385658 1.17853 -0.05812725
v 0.05878672 1.185694 -0.03650248
v 0.02838018 1.192962 -0.1310363
v 3.833605E-24 1.190636 -0.1355411
v 5.643149E-24 1.225537 -0.1503226
v 0.0293004 1.226134 -0.1447521
v 0.05349134 1.232209 -0.1317386
v 0.02988867 1.261778 -0.148298
v 0.05179032 1.24907 -0.1365417
v 0.05887039 1.271356 -0.1222023
v 0.03573522 1.289375 -0.1357171
v 8.425268E-24 1.298381 -0.1420513
v 7.46843E-24 1.265195 -0.1535018
v 0.03865157 1.311297 -0.1065817
v 8.612862E-24 1.323078 -0.1108721
v 8.51068E-24 1.324196 -0.07111635
v 0.03574336 1.313221 -0.07017253
v 0.0588649 1.29069 -0.06906507
v 0.02991691 1.300102 -0.04292413
v 0.0515046 1.28321 -0.04417131
v 0.05301528 1.267487 -0.03792423
v 0.02957914 1.272269 -0.02385846
v 5.808559E-24 1.275529 -0.01901812
v 7.817072E-24 1.306565 -0.04080776
v 0.02854071 1.235734 -0.01400014
v 3.986204E-24 1.236756 -0.009254908
v 0.05127426 1.231664 -0.02673945
v 0.06275656 1.285713 -0.09735502
v 0.07425237 1.24685 -0.08321888
v 0.06886228 1.237909 -0.1094444
v 0.06668543 1.205425 -0.09782137
v 0.07168003 1.214519 -0.07150402
v 0.0517994 1.198263 -0.1185501
v 0.06660073 1.223964 -0.04627844
v 0.06887698 1.25782 -0.05638276
v 0.02383861 1.098205 -0.02950992
v 0.01650963 1.092676 -0.04775401
v -1.564777E-24 1.09025 -0.05384545
vt 0.8527077 0.4962958
vt 0.8592695 0.5182412
vt 0.8733492 0.5136718
vt 0.8834115 0.5472533
vt 0.865118 0.5513992
vt 0.8898891 0.5055942
vt 0.9058585 0.5407498
vt 0.8749375 0.484034
vt 0.8622407 0.4682157
vt 0.8481045 0.4761002
vt 0.8461101 0.5215513
vt 0.8314805 0.5232682
vt 0.8314805 0.5014955
vt 0.808799 0.4988671
vt 0.8154684 0.5229685
vt 0.8023493 0.5206656
vt 0.7886717 0.5167273
vt 0.7723746 0.5095208
vt 0.78597 0.4894514
vt 0.7790854 0.5501124
vt 0.7570432 0.5444312
vt 0.7972227 0.5532162
vt 0.8144275 0.5548557
vt 0.8314805 0.555081
vt 0.8484297 0.5538869
vt 0.7751296 0.5819495
vt 0.7505008 0.5819495
vt 0.7541707 0.6170882
vt 0.7778318 0.6100374
vt 0.7974672 0.6075045
vt 0.7888454 0.6350451
vt 0.7992806 0.6188848
vt 0.8141955 0.6271988
vt 0.8072357 0.6470402
vt 0.7955741 0.6742859
vt 0.7703758 0.6517457
vt 0.8314805 0.6526639
vt 0.8314805 0.6848196
vt 0.8669562 0.6769732
vt 0.8558719 0.6482197
vt 0.8489906 0.6277867
vt 0.8747522 0.6365172
vt 0.8641745 0.6201507
vt 0.8657664 0.6089717
vt 0.8854783 0.6124684
vt 0.9100306 0.6200995
vt 0.8935387 0.6545357
vt 0.8879853 0.5819495
vt 0.9134214 0.5819495
vt 0.8677863 0.5819495
vt 0.8314805 0.6294616
vt 0.8314805 0.6035789
vt 0.8145664 0.604354
vt 0.8131199 0.5819495
vt 0.8314805 0.5819495
vt 0.7952161 0.5819495
vt 0.8496717 0.5819495
vt 0.8494065 0.6051213
vt 0.8314805 0.4805435
vt 0.8121293 0.4795766
vt 0.7977449 0.4730623
vt 0.8527077 0.4962958
vt 0.8733492 0.5136718
vt 0.8592695 0.5182412
vt 0.8834115 0.5472533
vt 0.865118 0.5513992
vt 0.8898891 0.5055942
vt 0.9058585 0.5407498
vt 0.8749375 0.484034
vt 0.8622407 0.4682157
vt 0.8481045 0.4761002
vt 0.8461101 0.5215513
vt 0.8314805 0.5232682
vt 0.8314805 0.5014955
vt 0.808799 0.4988671
vt 0.8154684 0.5229685
vt 0.8023493 0.5206656
vt 0.7886717 0.5167273
vt 0.7723746 0.5095208
vt 0.78597 0.4894514
vt 0.7790854 0.5501124
vt 0.7570432 0.5444312
vt 0.7972227 0.5532162
vt 0.8144275 0.5548557
vt 0.8314805 0.555081
vt 0.8484297 0.5538869
vt 0.7751296 0.5819495
vt 0.7505008 0.5819495
vt 0.7541707 0.6170882
vt 0.7778318 0.6100374
vt 0.7974672 0.6075045
vt 0.7888454 0.6350451
vt 0.7992806 0.6188848
vt 0.8141955 0.6271988
vt 0.8072357 0.6470402
vt 0.7955741 0.6742859
vt 0.7703758 0.6517457
vt 0.8314805 0.6526639
vt 0.8314805 0.6848196
vt 0.8669562 0.6769732
vt 0.8558719 0.6482197
vt 0.8489906 0.6277867
vt 0.8747522 0.6365172
vt 0.8641745 0.6201507
vt 0.8657664 0.6089717
vt 0.8854783 0.6124684
vt 0.9100306 0.6200995
vt 0.8935387 0.6545357
vt 0.8879853 0.5819495
vt 0.9134214 0.5819495
vt 0.8677863 0.5819495
vt 0.8314805 0.6294616
vt 0.8314805 0.6035789
vt 0.8145664 0.604354
vt 0.8131199 0.5819495
vt 0.8314805 0.5819495
vt 0.7952161 0.5819495
vt 0.8496717 0.5819495
vt 0.8494065 0.6051213
vt 0.8314805 0.4805435
vt 0.8121293 0.4795766
vt 0.7977449 0.4730623
vn -0.5968519 -0.2644219 0.7575281
vn -0.6324047 -0.1458177 0.7607901
vn -0.4189007 -0.0990861 0.9026096
vn -0.3736924 0.04128317 0.9266335
vn -0.6587653 -0.02578432 0.7519066
vn 2.733233E-07 -0.07125252 0.9974583
vn 1.319949E-07 0.06709643 0.9977465
vn 4.562095E-07 -0.2182068 0.9759026
vn 3.227379E-07 -0.3182596 0.9480036
vn -0.5442217 -0.3947945 0.7402433
vn -0.7910789 -0.2372703 0.5638235
vn -0.900135 -0.4077103 0.1533931
vn -0.8256738 -0.5295938 0.1944048
vn -0.5973672 -0.693504 -0.4027464
vn -0.7941184 -0.5452661 -0.2684416
vn -0.635787 -0.6043935 -0.4800868
vn -0.4200601 -0.6609873 -0.6218081
vn 2.735312E-07 -0.7006493 -0.7135058
vn 1.518558E-07 -0.8002741 -0.5996343
vn -0.3758987 -0.5633108 -0.735786
vn 1.32284E-07 -0.5886741 -0.8083705
vn -0.6653475 -0.5018548 -0.5526794
vn -0.8707383 -0.4084041 -0.2738995
vn -0.9553556 -0.2752993 0.1072661
vn -0.8651848 -0.131587 0.4838804
vn -0.373206 -0.4119312 -0.8312821
vn 0 -0.4312677 -0.902224
vn 0 -0.1888392 -0.982008
vn -0.3847228 -0.1793631 -0.9054376
vn -0.6886917 -0.1360057 -0.7121841
vn -0.410147 0.1271713 -0.9031096
vn -0.6553551 0.07455471 -0.7516325
vn -0.7898719 0.2613842 -0.5547798
vn -0.49657 0.4823106 -0.721661
vn 0 0.5859066 -0.8103785
vn 0 0.1577101 -0.9874855
vn -0.5493228 0.7853996 -0.2852927
vn 0 0.9395877 -0.3423084
vn 1.633219E-07 0.9693313 0.2457576
vn -0.4977368 0.8317941 0.2457165
vn -0.7889215 0.555025 0.2637236
vn -0.412009 0.6715361 0.6158634
vn -0.654486 0.5342498 0.5350003
vn -0.6846796 0.3457218 0.641631
vn -0.3848311 0.4328245 0.8152104
vn 0 0.4741766 0.8804297
vn 0 0.7502174 0.6611912
vn -0.3712378 0.2093234 0.904636
vn 0 0.238519 0.9711379
vn -0.6816448 0.1359888 0.7189348
vn -0.8671249 0.4689522 -0.1678636
vn -0.9868801 0.1534008 -0.05035842
vn -0.9012287 -0.004896699 -0.4333161
vn -0.911356 -0.2380399 -0.3358085
vn -0.994263 -0.09803131 0.04279018
vn -0.6888464 -0.3494674 -0.6351089
vn -0.9053915 0.03447925 0.4231754
vn -0.897579 0.2730648 0.3461033
vn -0.7657433 -0.6047817 0.2188064
vn -0.5420743 -0.7809562 -0.3102624
vn 3.212184E-07 -0.8565678 -0.5160346
vn 0.5968521 -0.2644219 0.7575279
vn 0.4189008 -0.09908608 0.9026096
vn 0.6324045 -0.1458177 0.7607902
vn 0.3736926 0.04128317 0.9266335
vn 0.658765 -0.02578432 0.7519068
vn 2.733233E-07 -0.07125252 0.9974583
vn 1.319949E-07 0.06709643 0.9977465
vn 4.562095E-07 -0.2182068 0.9759026
vn 3.227379E-07 -0.3182596 0.9480036
vn 0.5442221 -0.3947944 0.740243
vn 0.7910789 -0.2372703 0.5638235
vn 0.900135 -0.4077102 0.1533932
vn 0.8256738 -0.5295938 0.1944046
vn 0.5973673 -0.693504 -0.4027463
vn 0.7941184 -0.545266 -0.2684417
vn 0.6357871 -0.6043934 -0.4800869
vn 0.4200602 -0.6609871 -0.6218081
vn 2.735312E-07 -0.7006493 -0.7135058
vn 1.518558E-07 -0.8002741 -0.5996343
vn 0.3758989 -0.5633107 -0.735786
vn 1.32284E-07 -0.5886741 -0.8083705
vn 0.6653475 -0.5018547 -0.5526794
vn 0.8707383 -0.408404 -0.2738994
vn 0.9553556 -0.2752992 0.1072663
vn 0.8651845 -0.1315871 0.4838807
vn 0.3732061 -0.4119312 -0.8312821
vn 0 -0.4312677 -0.902224
vn 0 -0.1888392 -0.982008
vn 0.384723 -0.1793631 -0.9054375
vn 0.6886916 -0.1360056 -0.7121842
vn 0.4101471 0.1271714 -0.9031095
vn 0.6553552 0.07455484 -0.7516323
vn 0.7898719 0.2613844 -0.5547798
vn 0.4965703 0.4823107 -0.7216608
vn 0 0.5859066 -0.8103785
vn 0 0.1577101 -0.9874855
vn 0.549323 0.7853995 -0.2852927
vn 0 0.9395877 -0.3423084
vn 1.633219E-07 0.9693313 0.2457576
vn 0.4977367 0.8317942 0.2457165
vn 0.7889215 0.555025 0.2637236
vn 0.4120092 0.6715361 0.6158633
vn 0.654486 0.5342499 0.5350001
vn 0.6846796 0.3457217 0.6416309
vn 0.3848312 0.4328246 0.8152103
vn 0 0.4741766 0.8804297
vn 0 0.7502174 0.6611912
vn 0.371238 0.2093234 0.9046358
vn 0 0.238519 0.9711379
vn 0.6816447 0.1359888 0.718935
vn 0.8671249 0.4689522 -0.1678635
vn 0.9868801 0.1534007 -0.05035827
vn 0.9012288 -0.004896698 -0.4333159
vn 0.911356 -0.2380398 -0.3358085
vn 0.994263 -0.09803131 0.04279032
vn 0.6888464 -0.3494672 -0.6351088
vn 0.9053914 0.03447938 0.4231755
vn 0.8975789 0.2730649 0.3461036
vn 0.7657435 -0.6047816 0.2188063
vn 0.5420745 -0.7809561 -0.3102623
vn 3.212184E-07 -0.8565678 -0.5160346
g pm0308_00_HairSkin_0
f 3/3/3 2/2/2 1/1/1
f 3/3/3 4/4/4 2/2/2
f 4/4/4 5/5/5 2/2/2
f 3/3/3 6/6/6 4/4/4
f 3/3/3 1/1/1 6/6/6
f 6/6/6 7/7/7 4/4/4
f 1/1/1 8/8/8 6/6/6
f 9/9/9 8/8/8 1/1/1
f 10/10/10 9/9/9 1/1/1
f 11/11/11 1/1/1 2/2/2
f 11/11/11 12/12/12 1/1/1
f 12/12/12 13/13/13 1/1/1
f 14/14/14 13/13/13 12/12/12
f 15/15/15 14/14/14 12/12/12
f 15/15/15 16/16/16 14/14/14
f 17/17/17 14/14/14 16/16/16
f 17/17/17 18/18/18 14/14/14
f 18/18/18 19/19/19 14/14/14
f 17/17/17 20/20/20 18/18/18
f 17/17/17 16/16/16 20/20/20
f 20/20/20 21/21/21 18/18/18
f 16/16/16 22/22/22 20/20/20
f 23/23/23 22/22/22 16/16/16
f 15/15/15 23/23/23 16/16/16
f 15/15/15 12/12/12 23/23/23
f 12/12/12 24/24/24 23/23/23
f 25/25/25 24/24/24 12/12/12
f 11/11/11 25/25/25 12/12/12
f 11/11/11 2/2/2 25/25/25
f 2/2/2 5/5/5 25/25/25
f 20/20/20 26/26/26 21/21/21
f 20/20/20 22/22/22 26/26/26
f 26/26/26 27/27/27 21/21/21
f 28/28/28 27/27/27 26/26/26
f 29/29/29 28/28/28 26/26/26
f 29/29/29 26/26/26 30/30/30
f 29/29/29 30/30/30 31/31/31
f 29/29/29 31/31/31 28/28/28
f 30/30/30 32/32/32 31/31/31
f 31/31/31 32/32/32 33/33/33
f 33/33/33 32/32/32 30/30/30
f 34/34/34 31/31/31 33/33/33
f 34/34/34 35/35/35 31/31/31
f 35/35/35 36/36/36 31/31/31
f 31/31/31 36/36/36 28/28/28
f 34/34/34 37/37/37 35/35/35
f 34/34/34 33/33/33 37/37/37
f 37/37/37 38/38/38 35/35/35
f 39/39/39 38/38/38 37/37/37
f 40/40/40 39/39/39 37/37/37
f 40/40/40 37/37/37 41/41/41
f 40/40/40 41/41/41 42/42/42
f 40/40/40 42/42/42 39/39/39
f 41/41/41 43/43/43 42/42/42
f 42/42/42 43/43/43 44/44/44
f 44/44/44 43/43/43 41/41/41
f 45/45/45 42/42/42 44/44/44
f 45/45/45 46/46/46 42/42/42
f 46/46/46 47/47/47 42/42/42
f 42/42/42 47/47/47 39/39/39
f 45/45/45 48/48/48 46/46/46
f 45/45/45 44/44/44 48/48/48
f 48/48/48 49/49/49 46/46/46
f 44/44/44 50/50/50 48/48/48
f 37/37/37 51/51/51 41/41/41
f 33/33/33 51/51/51 37/37/37
f 52/52/52 51/51/51 33/33/33
f 41/41/41 51/51/51 52/52/52
f 53/53/53 52/52/52 33/33/33
f 53/53/53 33/33/33 30/30/30
f 53/53/53 54/54/54 52/52/52
f 53/53/53 30/30/30 54/54/54
f 54/54/54 55/55/55 52/52/52
f 30/30/30 56/56/56 54/54/54
f 26/26/26 56/56/56 30/30/30
f 57/57/57 50/50/50 44/44/44
f 52/52/52 55/55/55 57/57/57
f 58/58/58 52/52/52 57/57/57
f 58/58/58 57/57/57 44/44/44
f 58/58/58 44/44/44 41/41/41
f 58/58/58 41/41/41 52/52/52
f 22/22/22 56/56/56 26/26/26
f 56/56/56 22/22/22 23/23/23
f 54/54/54 56/56/56 23/23/23
f 24/24/24 55/55/55 54/54/54
f 23/23/23 24/24/24 54/54/54
f 55/55/55 24/24/24 25/25/25
f 57/57/57 55/55/55 25/25/25
f 25/25/25 5/5/5 57/57/57
f 5/5/5 50/50/50 57/57/57
f 50/50/50 5/5/5 4/4/4
f 48/48/48 50/50/50 4/4/4
f 4/4/4 7/7/7 48/48/48
f 7/7/7 49/49/49 48/48/48
f 1/1/1 13/13/13 59/59/59
f 10/10/10 1/1/1 59/59/59
f 59/59/59 13/13/13 14/14/14
f 60/60/60 59/59/59 14/14/14
f 60/60/60 14/14/14 61/61/61
f 14/14/14 19/19/19 61/61/61
f 64/64/64 63/63/63 62/62/62
f 65/65/65 63/63/63 64/64/64
f 66/66/66 65/65/65 64/64/64
f 67/67/67 63/63/63 65/65/65
f 62/62/62 63/63/63 67/67/67
f 68/68/68 67/67/67 65/65/65
f 69/69/69 62/62/62 67/67/67
f 69/69/69 70/70/70 62/62/62
f 70/70/70 71/71/71 62/62/62
f 62/62/62 72/72/72 64/64/64
f 73/73/73 72/72/72 62/62/62
f 74/74/74 73/73/73 62/62/62
f 74/74/74 75/75/75 73/73/73
f 75/75/75 76/76/76 73/73/73
f 77/77/77 76/76/76 75/75/75
f 75/75/75 78/78/78 77/77/77
f 79/79/79 78/78/78 75/75/75
f 80/80/80 79/79/79 75/75/75
f 81/81/81 78/78/78 79/79/79
f 77/77/77 78/78/78 81/81/81
f 82/82/82 81/81/81 79/79/79
f 83/83/83 77/77/77 81/81/81
f 84/84/84 76/76/76 77/77/77
f 83/83/83 84/84/84 77/77/77
f 73/73/73 76/76/76 84/84/84
f 85/85/85 73/73/73 84/84/84
f 86/86/86 72/72/72 73/73/73
f 85/85/85 86/86/86 73/73/73
f 64/64/64 72/72/72 86/86/86
f 66/66/66 64/64/64 86/86/86
f 87/87/87 81/81/81 82/82/82
f 83/83/83 81/81/81 87/87/87
f 88/88/88 87/87/87 82/82/82
f 88/88/88 89/89/89 87/87/87
f 89/89/89 90/90/90 87/87/87
f 87/87/87 90/90/90 91/91/91
f 91/91/91 90/90/90 92/92/92
f 92/92/92 90/90/90 89/89/89
f 93/93/93 91/91/91 92/92/92
f 93/93/93 92/92/92 94/94/94
f 93/93/93 94/94/94 91/91/91
f 92/92/92 95/95/95 94/94/94
f 96/96/96 95/95/95 92/92/92
f 97/97/97 96/96/96 92/92/92
f 97/97/97 92/92/92 89/89/89
f 98/98/98 95/95/95 96/96/96
f 94/94/94 95/95/95 98/98/98
f 99/99/99 98/98/98 96/96/96
f 99/99/99 100/100/100 98/98/98
f 100/100/100 101/101/101 98/98/98
f 98/98/98 101/101/101 102/102/102
f 102/102/102 101/101/101 103/103/103
f 103/103/103 101/101/101 100/100/100
f 104/104/104 102/102/102 103/103/103
f 104/104/104 103/103/103 105/105/105
f 104/104/104 105/105/105 102/102/102
f 103/103/103 106/106/106 105/105/105
f 107/107/107 106/106/106 103/103/103
f 108/108/108 107/107/107 103/103/103
f 108/108/108 103/103/103 100/100/100
f 109/109/109 106/106/106 107/107/107
f 105/105/105 106/106/106 109/109/109
f 110/110/110 109/109/109 107/107/107
f 111/111/111 105/105/105 109/109/109
f 112/112/112 98/98/98 102/102/102
f 112/112/112 94/94/94 98/98/98
f 112/112/112 113/113/113 94/94/94
f 112/112/112 102/102/102 113/113/113
f 113/113/113 114/114/114 94/94/94
f 94/94/94 114/114/114 91/91/91
f 115/115/115 114/114/114 113/113/113
f 91/91/91 114/114/114 115/115/115
f 116/116/116 115/115/115 113/113/113
f 117/117/117 91/91/91 115/115/115
f 117/117/117 87/87/87 91/91/91
f 111/111/111 118/118/118 105/105/105
f 116/116/116 113/113/113 118/118/118
f 113/113/113 119/119/119 118/118/118
f 118/118/118 119/119/119 105/105/105
f 105/105/105 119/119/119 102/102/102
f 102/102/102 119/119/119 113/113/113
f 117/117/117 83/83/83 87/87/87
f 117/117/117 115/115/115 84/84/84
f 83/83/83 117/117/117 84/84/84
f 85/85/85 84/84/84 115/115/115
f 116/116/116 85/85/85 115/115/115
f 116/116/116 118/118/118 86/86/86
f 85/85/85 116/116/116 86/86/86
f 66/66/66 86/86/86 118/118/118
f 111/111/111 66/66/66 118/118/118
f 66/66/66 111/111/111 65/65/65
f 111/111/111 109/109/109 65/65/65
f 68/68/68 65/65/65 109/109/109
f 110/110/110 68/68/68 109/109/109
f 62/62/62 71/71/71 120/120/120
f 74/74/74 62/62/62 120/120/120
f 74/74/74 120/120/120 75/75/75
f 120/120/120 121/121/121 75/75/75
f 75/75/75 121/121/121 122/122/122
f 80/80/80 75/75/75 122/122/122
