g pm0327_00_BodyB_Skin
v 0.1437999 0.6373298 0.2251831
v 0.1368398 0.6844286 0.2102547
v 0.1777615 0.6809221 0.1873848
v 0.1878807 0.6347095 0.1993694
v 0.09658413 0.6390023 0.241629
v 0.0907926 0.6874756 0.2245554
v 0.224941 0.632522 0.1662579
v 0.2122781 0.679917 0.1572416
v 0.04496231 0.6893366 0.2327679
v 0.04810094 0.6400946 0.2511328
v -1.912149E-08 0.6901754 0.2353236
v -1.921101E-08 0.6406233 0.2541324
v 0.229856 0.5841631 0.1707252
v 0.1917338 0.585853 0.2051046
v 0.2271992 0.5377645 0.1708686
v 0.1897678 0.5381772 0.2037479
v 0.2164867 0.4982687 0.1654431
v 0.1821683 0.4955696 0.193413
v 0.1471374 0.5871062 0.2322543
v 0.09912274 0.5872687 0.2498923
v 0.1458645 0.537209 0.2303948
v 0.09865201 0.5358986 0.2475411
v 0.1401416 0.491536 0.2161023
v 0.09658122 0.5120719 0.2395863
v 0.04972251 0.5351799 0.2576437
v 0.04975839 0.5876374 0.2601185
v -1.901349E-08 0.535086 0.2610016
v -1.907853E-08 0.5878421 0.2634631
v -0.1438 0.6373298 0.2251831
v -0.1878807 0.6347095 0.1993694
v -0.1777615 0.6809221 0.1873848
v -0.1368398 0.6844286 0.2102547
v -0.09658416 0.6390023 0.241629
v -0.09079264 0.6874756 0.2245554
v -0.224941 0.632522 0.1662579
v -0.2122782 0.679917 0.1572416
v -0.04496234 0.6893366 0.2327679
v -0.04810097 0.6400946 0.2511328
v -1.912149E-08 0.6901754 0.2353236
v -1.921101E-08 0.6406233 0.2541324
v -0.229856 0.5841631 0.1707252
v -0.1917339 0.585853 0.2051046
v -0.1471374 0.5871062 0.2322543
v -0.09912278 0.5872687 0.2498923
v -0.1897678 0.5381772 0.2037479
v -0.1458645 0.5372089 0.2303948
v -0.09865201 0.5358986 0.2475411
v -0.1821683 0.4955696 0.193413
v -0.1401417 0.491536 0.2161023
v -0.2164868 0.4982687 0.1654431
v -0.2271992 0.5377645 0.1708686
v -0.04972255 0.53518 0.2576437
v -0.04975842 0.5876374 0.2601185
v -1.901349E-08 0.535086 0.2610016
v -1.907853E-08 0.5878421 0.2634631
v -0.09646605 0.5107505 0.2391438
v 0.24893 0.751493 0.05292652
v 0.2241996 0.7703604 0.0666646
v 0.2294295 0.7793359 0.07068019
v 0.2571807 0.7609682 0.05718068
v 0.1982395 0.7889576 0.0713985
v 0.203297 0.7969577 0.07496561
v 0.2742144 0.7498022 0.03879815
v 0.2622394 0.7404113 0.0352536
v 0.3057333 0.7732728 0.04603806
v 0.2855037 0.7870838 0.0679855
v 0.2536306 0.8084088 0.08456527
v 0.2231782 0.8279482 0.09005167
v 0.176249 0.8135817 0.0705489
v 0.1708894 0.8057331 0.0669635
v 0.1463007 0.8205948 0.05520741
v 0.1497245 0.830574 0.05786484
v 0.1317911 0.8419909 0.04067411
v 0.1297143 0.8298664 0.03978956
v 0.1396325 0.880969 0.04679531
v 0.1607515 0.8679971 0.06838159
v 0.1928081 0.8477997 0.08463162
v 0.2137944 0.886467 0.09515437
v 0.2469109 0.8642629 0.1015144
v 0.1781533 0.9088615 0.07657137
v 0.1544375 0.9233518 0.05206104
v 0.3157393 0.8196965 0.07644933
v 0.3386709 0.8039522 0.05189662
v 0.3638539 0.8353262 0.05529634
v 0.3389332 0.8495036 0.08116993
v 0.3880643 0.8777518 0.05594544
v 0.3620937 0.8871489 0.08189315
v 0.38048 0.9303492 0.07710853
v 0.3290512 0.9114574 0.09955397
v 0.352927 0.9519344 0.09118054
v 0.3722963 0.9864983 0.07793489
v 0.3850267 0.9583174 0.07165617
v 0.3204783 0.9768821 0.09696405
v 0.3429365 1.011335 0.08075845
v 0.294154 0.9363295 0.105944
v 0.4024912 0.9239438 0.05330532
v 0.3036926 0.873726 0.1000736
v 0.2683409 0.8968623 0.1065194
v 0.3083624 1.028174 0.07793427
v 0.284556 0.9965007 0.09118074
v 0.253685 1.012997 0.07710938
v 0.2774428 1.028446 0.07165688
v 0.2572894 0.9581829 0.09956568
v 0.2216896 0.978564 0.08191682
v 0.2389388 1.030555 0.05329847
v 0.2026054 0.9985071 0.05597419
v 0.2328276 0.9197414 0.1001142
v 0.1963709 0.942073 0.08125145
v 0.1733166 0.9590541 0.05540235
v 0.2807178 0.8430946 0.0950966
v -0.2468318 0.7519234 0.05231192
v -0.2571807 0.7609682 0.05718068
v -0.2294295 0.7793359 0.07068019
v -0.2224855 0.7704481 0.06580275
v -0.1969815 0.788699 0.07044496
v -0.203297 0.7969577 0.07496561
v -0.2742144 0.7498022 0.03879816
v -0.2599716 0.7410362 0.03493905
v -0.3057333 0.7732728 0.04603806
v -0.2855037 0.7870838 0.0679855
v -0.2536306 0.8084088 0.08456527
v -0.2231782 0.8279482 0.09005167
v -0.176249 0.8135817 0.0705489
v -0.1701206 0.8051751 0.06608873
v -0.1459326 0.8198115 0.05452422
v -0.1497246 0.830574 0.05786484
v -0.1317912 0.8419909 0.04067411
v -0.1296158 0.828957 0.03934773
v -0.1396325 0.880969 0.04679531
v -0.1607515 0.8679971 0.06838159
v -0.1928081 0.8477997 0.08463162
v -0.2137944 0.886467 0.09515437
v -0.2469109 0.8642629 0.1015144
v -0.1781534 0.9088615 0.07657137
v -0.1544375 0.9233518 0.05206104
v -0.3157394 0.8196965 0.07644933
v -0.2807178 0.8430946 0.0950966
v -0.3389333 0.8495036 0.08116992
v -0.3036926 0.873726 0.1000736
v -0.3620937 0.8871489 0.08189315
v -0.3290513 0.9114574 0.09955397
v -0.38048 0.9303492 0.07710853
v -0.352927 0.9519344 0.09118054
v -0.3722963 0.9864983 0.07793489
v -0.3850267 0.9583174 0.07165618
v -0.3204783 0.9768821 0.09696405
v -0.3429365 1.011335 0.08075845
v -0.294154 0.9363295 0.105944
v -0.4024912 0.9239438 0.05330532
v -0.3880643 0.8777518 0.05594544
v -0.268341 0.8968623 0.1065194
v -0.3638539 0.8353262 0.05529634
v -0.3083624 1.028174 0.07793427
v -0.2845561 0.9965007 0.09118074
v -0.253685 1.012997 0.07710938
v -0.2774428 1.028446 0.07165688
v -0.2572894 0.9581829 0.09956568
v -0.2216897 0.978564 0.08191682
v -0.2389388 1.030555 0.05329847
v -0.2026055 0.9985071 0.05597419
v -0.2328276 0.9197414 0.1001142
v -0.1963709 0.942073 0.08125145
v -0.1733166 0.9590541 0.05540235
v -0.3386709 0.8039522 0.05189662
v 0.1428769 0.8106156 0.05254997
v 0.1276375 0.8177418 0.03890502
v 0.1655298 0.7978846 0.0633781
v 0.1931821 0.7809575 0.06783138
v 0.2189697 0.7613848 0.06264901
v 0.2406793 0.742018 0.04867237
v 0.2502643 0.7310205 0.03170904
v -0.236483 0.7428786 0.04744317
v -0.2457289 0.7322702 0.03107995
v -0.2155414 0.7615603 0.0609253
v -0.1906661 0.7804403 0.06592432
v -0.1639921 0.7967686 0.06162857
v -0.1421407 0.8090491 0.0511836
v -0.1274405 0.8159232 0.03802135
vt 0.494428 0.2917577
vt 0.4928981 0.3769599
vt 0.3307066 0.370365
vt 0.3243624 0.2874754
vt 0.6612726 0.2959714
vt 0.6624295 0.3852141
vt 0.1563213 0.2856054
vt 0.1731328 0.3708818
vt 0.8291575 0.3905764
vt 0.8280988 0.2989365
vt 0.9922459 0.3928136
vt 0.9922452 0.3002546
vt 0.1531725 0.2022945
vt 0.3248543 0.2055925
vt 0.164064 0.1236789
vt 0.3303789 0.1272264
vt 0.1859709 0.05460104
vt 0.3362139 0.0532763
vt 0.4952677 0.2079076
vt 0.6610397 0.2092083
vt 0.4983798 0.1274069
vt 0.661131 0.1261529
vt 0.4971625 0.04819787
vt 0.6603973 0.08452445
vt 0.8254352 0.1244478
vt 0.8265697 0.2105144
vt 0.9922359 0.1240519
vt 0.9922353 0.2111096
vt 0.4931313 0.2917091
vt 0.3230076 0.2873752
vt 0.3292587 0.3703088
vt 0.4915374 0.3769501
vt 0.6600233 0.2959547
vt 0.6611487 0.3852221
vt 0.1548877 0.2854462
vt 0.1715968 0.370775
vt 0.8279235 0.3905848
vt 0.8268752 0.2989323
vt 0.9910271 0.3928136
vt 0.9910277 0.3002546
vt 0.1518633 0.2020904
vt 0.323613 0.2054588
vt 0.4940651 0.2078367
vt 0.6598545 0.2091857
vt 0.3292744 0.127068
vt 0.4972986 0.1273263
vt 0.6600082 0.1261574
vt 0.3352736 0.05309615
vt 0.4962952 0.04811424
vt 0.1849599 0.05434322
vt 0.162901 0.1234412
vt 0.8242531 0.1244518
vt 0.8253764 0.210508
vt 0.991037 0.1240519
vt 0.9910377 0.2111096
vt 0.6592677 0.08223656
vt 0.2681763 0.4829895
vt 0.3840312 0.4939819
vt 0.3861471 0.5128816
vt 0.263141 0.5061322
vt 0.4918034 0.4984715
vt 0.4925123 0.5155401
vt 0.1689924 0.4958874
vt 0.1854171 0.4693564
vt 0.1224836 0.5632628
vt 0.2349887 0.5738614
vt 0.3746821 0.5803958
vt 0.4943993 0.581903
vt 0.5995556 0.5113845
vt 0.5999712 0.4941142
vt 0.706383 0.4855264
vt 0.715934 0.5040369
vt 0.809944 0.4937289
vt 0.7897148 0.474243
vt 0.8638986 0.5602591
vt 0.7518339 0.5716181
vt 0.6143357 0.5791869
vt 0.6257316 0.6540551
vt 0.4953014 0.6554055
vt 0.777613 0.6478866
vt 0.9051077 0.6387207
vt 0.2122891 0.6506521
vt 0.08411109 0.6425353
vt 0.07000721 0.7157499
vt 0.2044142 0.715526
vt 0.07897758 0.8044058
vt 0.2083553 0.7909534
vt 0.2315395 0.8716011
vt 0.3562286 0.7939991
vt 0.3602188 0.8742713
vt 0.3658425 0.946665
vt 0.2643005 0.9205153
vt 0.4980239 0.87743
vt 0.4991006 0.9532105
vt 0.4965817 0.7959682
vt 0.1203312 0.8899828
vt 0.3583068 0.7188786
vt 0.4957321 0.719179
vt 0.6321491 0.9456965
vt 0.6362325 0.8727589
vt 0.7645968 0.8692239
vt 0.7334962 0.9184892
vt 0.6368216 0.7925582
vt 0.7845441 0.7884051
vt 0.8762734 0.8866519
vt 0.9140092 0.800782
vt 0.633098 0.7176368
vt 0.7865518 0.7127985
vt 0.9204535 0.7119065
vt 0.3647643 0.655338
vt 0.2687096 0.4847457
vt 0.257884 0.5093855
vt 0.3814142 0.5167093
vt 0.3837223 0.4960977
vt 0.4907278 0.5008839
vt 0.488488 0.5197467
vt 0.1641593 0.4982285
vt 0.1872856 0.4703885
vt 0.1180441 0.5649616
vt 0.2303935 0.5761871
vt 0.3706095 0.5833341
vt 0.4912053 0.5852773
vt 0.5964403 0.5158655
vt 0.5982161 0.4968802
vt 0.7044213 0.4885192
vt 0.7141798 0.5086542
vt 0.8095641 0.4982951
vt 0.7877429 0.4773784
vt 0.8654529 0.5643311
vt 0.7516859 0.5755731
vt 0.61229 0.5828838
vt 0.6251372 0.6571182
vt 0.4934378 0.6581131
vt 0.7790391 0.6513351
vt 0.9068969 0.6423346
vt 0.2089995 0.6523501
vt 0.362313 0.6576238
vt 0.202481 0.7168427
vt 0.3573516 0.7207279
vt 0.2082049 0.7919075
vt 0.3562869 0.7953744
vt 0.2306254 0.8721185
vt 0.3594899 0.8751051
vt 0.3644552 0.9470092
vt 0.2629787 0.9208135
vt 0.4973911 0.8785698
vt 0.4977638 0.9538152
vt 0.4967193 0.7976863
vt 0.1189919 0.8900979
vt 0.07845969 0.8048935
vt 0.4953463 0.7214277
vt 0.06817577 0.7165939
vt 0.630989 0.9466699
vt 0.6352319 0.8747736
vt 0.763967 0.8714871
vt 0.7321157 0.9202234
vt 0.6371183 0.7949951
vt 0.7850404 0.791159
vt 0.8756771 0.8891933
vt 0.9147824 0.803821
vt 0.6338514 0.7202595
vt 0.7877074 0.7158779
vt 0.9220437 0.7152358
vt 0.08087268 0.6437122
vt 0.6968321 0.4670158
vt 0.7694855 0.4547572
vt 0.6003869 0.476844
vt 0.4910945 0.4814028
vt 0.3819152 0.4750821
vt 0.2732116 0.4598469
vt 0.2018417 0.4428254
vt 0.2795353 0.4601059
vt 0.2104119 0.4425486
vt 0.3860304 0.4754861
vt 0.4929676 0.4820212
vt 0.5999918 0.477895
vt 0.6946628 0.4683842
vt 0.7659217 0.4564618
vn 0.420966 0.2388677 0.8750598
vn 0.3900534 0.4178605 0.8205187
vn 0.5387268 0.4002445 0.7413351
vn 0.5775623 0.2279487 0.7838758
vn 0.2698645 0.250214 0.9298205
vn 0.2494983 0.4338322 0.8657599
vn 0.723618 0.2211442 0.6538136
vn 0.6778108 0.3966436 0.6190689
vn 0.1217612 0.4423261 0.8885504
vn 0.1316937 0.2550129 0.9579275
vn 0 0.4448279 0.8956161
vn 0 0.2578619 0.9661818
vn 0.7416309 0.03017812 0.6701291
vn 0.5935478 0.034658 0.8040521
vn 0.7291296 -0.1789019 0.6605787
vn 0.5766625 -0.1826355 0.7963069
vn 0.6824571 -0.3875257 0.6197387
vn 0.5377882 -0.3902466 0.7473229
vn 0.4303711 0.03373981 0.9020213
vn 0.2811744 0.04228357 0.9587247
vn 0.3906308 -0.2104281 0.8961738
vn 0.277009 -0.1773128 0.9443655
vn 0.3633297 -0.3973619 0.8426714
vn 0.2672235 -0.3162556 0.9102604
vn 0.1670216 -0.2206077 0.9609558
vn 0.1430462 0.0382288 0.9889774
vn 1.38171E-05 -0.2098645 0.9777305
vn 5.898816E-06 0.04007545 0.9991966
vn -0.4209646 0.2388678 0.8750605
vn -0.5775623 0.2279487 0.7838758
vn -0.5387267 0.4002447 0.7413351
vn -0.3900533 0.4178605 0.8205187
vn -0.2698644 0.2502139 0.9298205
vn -0.2494983 0.4338321 0.86576
vn -0.7236179 0.2211442 0.6538138
vn -0.6778108 0.3966436 0.6190689
vn -0.1217612 0.4423262 0.8885503
vn -0.1316907 0.2550129 0.9579279
vn 0 0.4448279 0.8956161
vn 0 0.2578619 0.9661818
vn -0.7416309 0.030178 0.6701291
vn -0.5935453 0.03465802 0.804054
vn -0.4303647 0.03373984 0.9020243
vn -0.2811623 0.04228323 0.9587283
vn -0.5766558 -0.1826359 0.7963116
vn -0.390607 -0.2104292 0.896184
vn -0.2769797 -0.1773135 0.9443739
vn -0.5377812 -0.3902475 0.7473274
vn -0.363306 -0.3973632 0.842681
vn -0.6824563 -0.387526 0.6197395
vn -0.7291287 -0.1789021 0.6605796
vn -0.1669872 -0.220608 0.9609617
vn -0.1430352 0.03822853 0.988979
vn 1.38171E-05 -0.2098645 0.9777305
vn 5.898816E-06 0.04007545 0.9991966
vn -0.2671878 -0.3162565 0.9102706
vn 0.3580147 -0.5032198 0.7865083
vn 0.125642 -0.3425666 0.9310544
vn 0.03602617 -0.4282654 0.9029346
vn 0.2528853 -0.5827851 0.7722762
vn -0.1108193 -0.1870338 0.9760827
vn -0.1804965 -0.2836 0.9418025
vn 0.4407475 -0.7168394 0.5402619
vn 0.5459038 -0.6328699 0.5490581
vn 0.4760411 -0.687189 0.5487769
vn 0.2812356 -0.5521976 0.7848467
vn 0.05942661 -0.3977715 0.915558
vn -0.1618074 -0.2514817 0.9542407
vn -0.3955037 -0.1484223 0.9063927
vn -0.3457098 -0.04074882 0.9374563
vn -0.5771419 0.0901734 0.8116502
vn -0.6185687 -0.02197428 0.7854234
vn -0.8262632 0.08698009 0.5565281
vn -0.7888219 0.2006315 0.5809536
vn -0.8169916 0.1486905 0.5571498
vn -0.6103178 0.02740692 0.7916824
vn -0.3831063 -0.1097896 0.9171563
vn -0.3360856 -0.01102363 0.9417669
vn -0.1041683 -0.1617403 0.98132
vn -0.5704496 0.1396337 0.8093761
vn -0.7769796 0.2760129 0.5657911
vn 0.3596234 -0.4697834 0.80621
vn 0.5659988 -0.6028565 0.5623251
vn 0.6667999 -0.478949 0.5709515
vn 0.450671 -0.3543781 0.8193362
vn 0.7576079 -0.3129345 0.5728022
vn 0.5398576 -0.2076734 0.8157362
vn 0.6121694 -0.03972926 0.7897279
vn 0.2986093 -0.0653294 0.9521369
vn 0.3979594 0.0939789 0.9125767
vn 0.5173448 0.2664554 0.8132379
vn 0.6550932 0.1122004 0.7471707
vn 0.1642677 0.2519746 0.9536901
vn 0.2921951 0.449293 0.8442498
vn 0.05841325 0.08919519 0.9942998
vn 0.8146051 -0.1046855 0.5704907
vn 0.2085158 -0.2027181 0.9567792
vn -0.03005364 -0.04715186 0.9984356
vn 0.03340856 0.5822216 0.8123434
vn -0.07500691 0.4022123 0.9124687
vn -0.2844364 0.5448963 0.7887864
vn -0.1638778 0.6463201 0.7452613
vn -0.1797509 0.2469984 0.9521982
vn -0.4075299 0.4109012 0.8155242
vn -0.4262455 0.7048728 0.5669824
vn -0.5920463 0.5685493 0.571168
vn -0.2679906 0.1095376 0.9571742
vn -0.5038818 0.2710217 0.8201526
vn -0.7053899 0.4197838 0.5711451
vn 0.1271295 -0.3143148 0.9407679
vn -0.3634086 -0.4891987 0.7928548
vn -0.2528852 -0.5827854 0.772276
vn -0.03602622 -0.4282657 0.9029345
vn -0.1301259 -0.3283488 0.9355503
vn 0.1087407 -0.1725052 0.978988
vn 0.1804965 -0.2836002 0.9418025
vn -0.4407476 -0.7168397 0.5402613
vn -0.5551583 -0.6230021 0.5510604
vn -0.4760413 -0.6871895 0.5487762
vn -0.2812357 -0.5521978 0.7848465
vn -0.05942661 -0.3977717 0.9155579
vn 0.1618075 -0.2514818 0.9542407
vn 0.3955038 -0.1484223 0.9063926
vn 0.34438 -0.02693901 0.9384437
vn 0.577042 0.1026564 0.8102371
vn 0.6185689 -0.02197428 0.7854232
vn 0.8262634 0.08697998 0.5565279
vn 0.7853826 0.2094327 0.5825052
vn 0.8169917 0.1486905 0.5571496
vn 0.6103179 0.02740704 0.7916822
vn 0.3831062 -0.1097896 0.9171564
vn 0.3360856 -0.01102351 0.9417669
vn 0.1041684 -0.1617404 0.98132
vn 0.5704498 0.1396337 0.809376
vn 0.7769798 0.2760129 0.5657908
vn -0.3596236 -0.4697837 0.8062098
vn -0.1271295 -0.3143148 0.9407679
vn -0.4506713 -0.3543781 0.819336
vn -0.2085158 -0.2027181 0.9567792
vn -0.5398577 -0.2076735 0.8157361
vn -0.2986092 -0.06532934 0.9521369
vn -0.6121693 -0.03972927 0.7897279
vn -0.3979592 0.09397919 0.9125768
vn -0.5173446 0.2664554 0.813238
vn -0.6550931 0.1122005 0.7471707
vn -0.1642675 0.2519748 0.9536901
vn -0.292195 0.449293 0.8442499
vn -0.058413 0.08919545 0.9942998
vn -0.8146052 -0.1046855 0.5704905
vn -0.7576081 -0.3129346 0.5728019
vn 0.03005382 -0.04715174 0.9984356
vn -0.6668004 -0.4789491 0.570951
vn -0.03340843 0.5822216 0.8123435
vn 0.07500704 0.4022124 0.9124687
vn 0.2844367 0.5448962 0.7887864
vn 0.1638779 0.6463201 0.7452614
vn 0.1797509 0.2469985 0.9521981
vn 0.40753 0.4109012 0.8155241
vn 0.4262456 0.7048728 0.5669824
vn 0.5920465 0.5685492 0.5711678
vn 0.2679908 0.1095376 0.9571742
vn 0.503882 0.2710218 0.8201525
vn 0.70539 0.4197838 0.5711449
vn -0.5659992 -0.6028566 0.5623245
vn -0.4610188 0.3353369 0.8215905
vn -0.6584544 0.4600406 0.5956513
vn -0.2251775 0.1897637 0.9556594
vn 0.04293525 0.03119662 0.9985906
vn 0.313828 -0.1302679 0.9405011
vn 0.5743349 -0.2730857 0.7717277
vn 0.7656144 -0.3770009 0.5212532
vn -0.6097596 -0.1827972 0.7712188
vn -0.8002346 -0.2938631 0.5227516
vn -0.3555542 -0.0393466 0.9338271
vn -0.07873993 0.1143543 0.9903147
vn 0.1913116 0.2669276 0.9445367
vn 0.4305653 0.4040091 0.8070875
vn 0.6216029 0.5155169 0.5897899
g pm0327_00_BodyB_Skin_0
f 3/3/3 2/2/2 1/1/1
f 4/4/4 3/3/3 1/1/1
f 5/5/5 1/1/1 2/2/2
f 6/6/6 5/5/5 2/2/2
f 4/4/4 7/7/7 3/3/3
f 7/7/7 8/8/8 3/3/3
f 6/6/6 9/9/9 5/5/5
f 9/9/9 10/10/10 5/5/5
f 9/9/9 11/11/11 10/10/10
f 11/11/11 12/12/12 10/10/10
f 13/13/13 7/7/7 4/4/4
f 14/14/14 13/13/13 4/4/4
f 15/15/15 13/13/13 14/14/14
f 16/16/16 15/15/15 14/14/14
f 17/17/17 15/15/15 16/16/16
f 18/18/18 17/17/17 16/16/16
f 14/14/14 4/4/4 19/19/19
f 16/16/16 14/14/14 19/19/19
f 4/4/4 1/1/1 19/19/19
f 20/20/20 19/19/19 1/1/1
f 5/5/5 20/20/20 1/1/1
f 21/21/21 16/16/16 19/19/19
f 19/19/19 20/20/20 21/21/21
f 18/18/18 16/16/16 21/21/21
f 20/20/20 22/22/22 21/21/21
f 23/23/23 18/18/18 21/21/21
f 21/21/21 24/24/24 23/23/23
f 21/21/21 22/22/22 24/24/24
f 22/22/22 20/20/20 25/25/25
f 24/24/24 22/22/22 25/25/25
f 20/20/20 26/26/26 25/25/25
f 20/20/20 5/5/5 26/26/26
f 5/5/5 10/10/10 26/26/26
f 25/25/25 26/26/26 27/27/27
f 26/26/26 28/28/28 27/27/27
f 26/26/26 10/10/10 28/28/28
f 10/10/10 12/12/12 28/28/28
f 31/31/31 30/30/30 29/29/29
f 32/32/32 31/31/31 29/29/29
f 29/29/29 33/33/33 32/32/32
f 33/33/33 34/34/34 32/32/32
f 35/35/35 30/30/30 31/31/31
f 36/36/36 35/35/35 31/31/31
f 37/37/37 34/34/34 33/33/33
f 38/38/38 37/37/37 33/33/33
f 39/39/39 37/37/37 38/38/38
f 40/40/40 39/39/39 38/38/38
f 35/35/35 41/41/41 30/30/30
f 41/41/41 42/42/42 30/30/30
f 30/30/30 42/42/42 43/43/43
f 29/29/29 30/30/30 43/43/43
f 44/44/44 33/33/33 29/29/29
f 43/43/43 44/44/44 29/29/29
f 43/43/43 42/42/42 45/45/45
f 46/46/46 43/43/43 45/45/45
f 43/43/43 46/46/46 44/44/44
f 46/46/46 47/47/47 44/44/44
f 45/45/45 48/48/48 46/46/46
f 48/48/48 49/49/49 46/46/46
f 50/50/50 48/48/48 45/45/45
f 51/51/51 50/50/50 45/45/45
f 51/51/51 45/45/45 42/42/42
f 41/41/41 51/51/51 42/42/42
f 47/47/47 52/52/52 44/44/44
f 52/52/52 53/53/53 44/44/44
f 33/33/33 44/44/44 53/53/53
f 38/38/38 33/33/33 53/53/53
f 52/52/52 54/54/54 53/53/53
f 54/54/54 55/55/55 53/53/53
f 38/38/38 53/53/53 55/55/55
f 40/40/40 38/38/38 55/55/55
f 52/52/52 47/47/47 56/56/56
f 56/56/56 46/46/46 49/49/49
f 56/56/56 47/47/47 46/46/46
f 59/59/59 58/58/58 57/57/57
f 60/60/60 59/59/59 57/57/57
f 61/61/61 58/58/58 59/59/59
f 62/62/62 61/61/61 59/59/59
f 60/60/60 57/57/57 63/63/63
f 57/57/57 64/64/64 63/63/63
f 60/60/60 63/63/63 65/65/65
f 66/66/66 60/60/60 65/65/65
f 60/60/60 66/66/66 59/59/59
f 66/66/66 67/67/67 59/59/59
f 62/62/62 59/59/59 67/67/67
f 68/68/68 62/62/62 67/67/67
f 61/61/61 62/62/62 69/69/69
f 70/70/70 61/61/61 69/69/69
f 70/70/70 69/69/69 71/71/71
f 69/69/69 72/72/72 71/71/71
f 71/71/71 72/72/72 73/73/73
f 74/74/74 71/71/71 73/73/73
f 73/73/73 72/72/72 75/75/75
f 72/72/72 76/76/76 75/75/75
f 76/76/76 72/72/72 69/69/69
f 77/77/77 76/76/76 69/69/69
f 62/62/62 68/68/68 77/77/77
f 69/69/69 62/62/62 77/77/77
f 77/77/77 68/68/68 78/78/78
f 77/77/77 78/78/78 76/76/76
f 68/68/68 79/79/79 78/78/78
f 78/78/78 80/80/80 76/76/76
f 76/76/76 80/80/80 81/81/81
f 75/75/75 76/76/76 81/81/81
f 66/66/66 82/82/82 67/67/67
f 82/82/82 66/66/66 83/83/83
f 66/66/66 65/65/65 83/83/83
f 82/82/82 83/83/83 84/84/84
f 85/85/85 82/82/82 84/84/84
f 85/85/85 84/84/84 86/86/86
f 87/87/87 85/85/85 86/86/86
f 87/87/87 86/86/86 88/88/88
f 87/87/87 88/88/88 89/89/89
f 88/88/88 90/90/90 89/89/89
f 91/91/91 90/90/90 88/88/88
f 92/92/92 91/91/91 88/88/88
f 93/93/93 90/90/90 91/91/91
f 89/89/89 90/90/90 93/93/93
f 94/94/94 93/93/93 91/91/91
f 95/95/95 89/89/89 93/93/93
f 92/92/92 88/88/88 96/96/96
f 86/86/86 96/96/96 88/88/88
f 97/97/97 89/89/89 95/95/95
f 87/87/87 89/89/89 97/97/97
f 85/85/85 87/87/87 97/97/97
f 98/98/98 97/97/97 95/95/95
f 93/93/93 94/94/94 99/99/99
f 100/100/100 93/93/93 99/99/99
f 100/100/100 99/99/99 101/101/101
f 99/99/99 102/102/102 101/101/101
f 103/103/103 95/95/95 93/93/93
f 100/100/100 103/103/103 93/93/93
f 100/100/100 101/101/101 103/103/103
f 101/101/101 104/104/104 103/103/103
f 105/105/105 101/101/101 102/102/102
f 106/106/106 104/104/104 101/101/101
f 105/105/105 106/106/106 101/101/101
f 107/107/107 98/98/98 95/95/95
f 103/103/103 107/107/107 95/95/95
f 103/103/103 104/104/104 107/107/107
f 104/104/104 108/108/108 107/107/107
f 108/108/108 104/104/104 106/106/106
f 109/109/109 108/108/108 106/106/106
f 109/109/109 81/81/81 108/108/108
f 81/81/81 80/80/80 108/108/108
f 108/108/108 80/80/80 78/78/78
f 107/107/107 108/108/108 78/78/78
f 107/107/107 78/78/78 98/98/98
f 78/78/78 79/79/79 98/98/98
f 98/98/98 79/79/79 97/97/97
f 79/79/79 110/110/110 97/97/97
f 79/79/79 68/68/68 110/110/110
f 68/68/68 67/67/67 110/110/110
f 82/82/82 110/110/110 67/67/67
f 85/85/85 97/97/97 110/110/110
f 82/82/82 85/85/85 110/110/110
f 113/113/113 112/112/112 111/111/111
f 114/114/114 113/113/113 111/111/111
f 114/114/114 115/115/115 113/113/113
f 115/115/115 116/116/116 113/113/113
f 111/111/111 112/112/112 117/117/117
f 118/118/118 111/111/111 117/117/117
f 117/117/117 112/112/112 119/119/119
f 112/112/112 120/120/120 119/119/119
f 120/120/120 112/112/112 113/113/113
f 121/121/121 120/120/120 113/113/113
f 113/113/113 116/116/116 121/121/121
f 116/116/116 122/122/122 121/121/121
f 116/116/116 115/115/115 123/123/123
f 115/115/115 124/124/124 123/123/123
f 123/123/123 124/124/124 125/125/125
f 126/126/126 123/123/123 125/125/125
f 126/126/126 125/125/125 127/127/127
f 125/125/125 128/128/128 127/127/127
f 126/126/126 127/127/127 129/129/129
f 130/130/130 126/126/126 129/129/129
f 126/126/126 130/130/130 123/123/123
f 130/130/130 131/131/131 123/123/123
f 116/116/116 123/123/123 131/131/131
f 122/122/122 116/116/116 131/131/131
f 122/122/122 131/131/131 132/132/132
f 132/132/132 131/131/131 130/130/130
f 133/133/133 122/122/122 132/132/132
f 134/134/134 132/132/132 130/130/130
f 130/130/130 129/129/129 135/135/135
f 134/134/134 130/130/130 135/135/135
f 136/136/136 120/120/120 121/121/121
f 137/137/137 136/136/136 121/121/121
f 122/122/122 133/133/133 137/137/137
f 121/121/121 122/122/122 137/137/137
f 138/138/138 136/136/136 137/137/137
f 139/139/139 138/138/138 137/137/137
f 137/137/137 133/133/133 139/139/139
f 140/140/140 138/138/138 139/139/139
f 141/141/141 140/140/140 139/139/139
f 142/142/142 140/140/140 141/141/141
f 143/143/143 142/142/142 141/141/141
f 143/143/143 144/144/144 142/142/142
f 144/144/144 145/145/145 142/142/142
f 143/143/143 146/146/146 144/144/144
f 143/143/143 141/141/141 146/146/146
f 146/146/146 147/147/147 144/144/144
f 141/141/141 148/148/148 146/146/146
f 141/141/141 139/139/139 148/148/148
f 149/149/149 142/142/142 145/145/145
f 150/150/150 140/140/140 142/142/142
f 149/149/149 150/150/150 142/142/142
f 138/138/138 140/140/140 150/150/150
f 139/139/139 151/151/151 148/148/148
f 152/152/152 138/138/138 150/150/150
f 147/147/147 146/146/146 153/153/153
f 146/146/146 154/154/154 153/153/153
f 153/153/153 154/154/154 155/155/155
f 156/156/156 153/153/153 155/155/155
f 157/157/157 154/154/154 146/146/146
f 148/148/148 157/157/157 146/146/146
f 155/155/155 154/154/154 157/157/157
f 158/158/158 155/155/155 157/157/157
f 156/156/156 155/155/155 159/159/159
f 160/160/160 159/159/159 155/155/155
f 158/158/158 160/160/160 155/155/155
f 161/161/161 157/157/157 148/148/148
f 151/151/151 161/161/161 148/148/148
f 158/158/158 157/157/157 161/161/161
f 162/162/162 158/158/158 161/161/161
f 158/158/158 162/162/162 160/160/160
f 162/162/162 163/163/163 160/160/160
f 135/135/135 163/163/163 162/162/162
f 134/134/134 135/135/135 162/162/162
f 162/162/162 161/161/161 132/132/132
f 134/134/134 162/162/162 132/132/132
f 132/132/132 161/161/161 151/151/151
f 133/133/133 132/132/132 151/151/151
f 136/136/136 138/138/138 152/152/152
f 120/120/120 136/136/136 164/164/164
f 119/119/119 120/120/120 164/164/164
f 164/164/164 136/136/136 152/152/152
f 133/133/133 151/151/151 139/139/139
f 165/165/165 71/71/71 74/74/74
f 166/166/166 165/165/165 74/74/74
f 70/70/70 71/71/71 165/165/165
f 167/167/167 70/70/70 165/165/165
f 70/70/70 167/167/167 61/61/61
f 167/167/167 168/168/168 61/61/61
f 61/61/61 168/168/168 58/58/58
f 168/168/168 169/169/169 58/58/58
f 58/58/58 169/169/169 170/170/170
f 57/57/57 58/58/58 170/170/170
f 57/57/57 170/170/170 64/64/64
f 170/170/170 171/171/171 64/64/64
f 172/172/172 111/111/111 118/118/118
f 173/173/173 172/172/172 118/118/118
f 114/114/114 111/111/111 172/172/172
f 174/174/174 114/114/114 172/172/172
f 114/114/114 174/174/174 115/115/115
f 174/174/174 175/175/175 115/115/115
f 115/115/115 175/175/175 124/124/124
f 175/175/175 176/176/176 124/124/124
f 124/124/124 176/176/176 177/177/177
f 125/125/125 124/124/124 177/177/177
f 125/125/125 177/177/177 128/128/128
f 177/177/177 178/178/178 128/128/128
