g pm0402_00_WingBSkin
v -0.2560738 0.5400894 -0.2243493
v -0.2306335 0.4638657 -0.2362938
v -0.1942461 0.4705724 -0.2015926
v -0.2204334 0.5490338 -0.1892974
v -0.1680589 0.3921106 -0.2138879
v -0.2051931 0.3876421 -0.2482384
v -0.2673781 0.4570931 -0.2713359
v -0.2901801 0.5254117 -0.2606301
v -0.299548 0.4511636 -0.3020152
v -0.3185782 0.5081816 -0.2930802
v -0.2805177 0.3941455 -0.3109502
v -0.2445762 0.3887745 -0.2820417
v -0.3403849 0.490002 -0.3202127
v -0.3258068 0.4463238 -0.3270572
v -0.3112285 0.4026448 -0.3339019
v -0.350125 0.4418414 -0.3502487
v -0.3583879 0.4665984 -0.3463692
v -0.366922 0.4480038 -0.3621246
v -0.3683323 0.4384856 -0.3676123
v -0.3610999 0.43056 -0.364858
v -0.3418622 0.4170843 -0.3541283
v -0.1832993 0.5535028 -0.1549469
v -0.157859 0.4772792 -0.1668914
v -0.1324187 0.4010556 -0.178836
v -0.1211143 0.4840518 -0.1318493
v -0.1439162 0.5523704 -0.1211435
v -0.08894442 0.4899811 -0.1011701
v -0.1079746 0.546999 -0.09223519
v -0.06991415 0.432963 -0.1101051
v -0.09831235 0.4157331 -0.1425552
v -0.0772636 0.5384993 -0.06928346
v -0.06268565 0.4948211 -0.07612806
v -0.0481074 0.4511422 -0.08297271
v -0.03836727 0.4993032 -0.05293659
v -0.04663013 0.5240601 -0.04905706
v -0.02739225 0.5105843 -0.0383273
v -0.02015997 0.5026591 -0.03557292
v -0.02157032 0.4931405 -0.04106091
v -0.03010442 0.4745461 -0.05681616
v -0.2560738 0.5400894 -0.2243493
v -0.2204334 0.5490338 -0.1892974
v -0.1942461 0.4705724 -0.2015926
v -0.2306335 0.4638657 -0.2362938
v -0.1680589 0.3921106 -0.2138879
v -0.2051931 0.3876421 -0.2482384
v -0.2673781 0.4570931 -0.2713359
v -0.2901801 0.5254117 -0.2606301
v -0.299548 0.4511636 -0.3020152
v -0.3185782 0.5081816 -0.2930802
v -0.2805177 0.3941455 -0.3109502
v -0.2445762 0.3887745 -0.2820417
v -0.3403849 0.490002 -0.3202127
v -0.3258068 0.4463238 -0.3270572
v -0.3112285 0.4026448 -0.3339019
v -0.350125 0.4418414 -0.3502487
v -0.3583879 0.4665984 -0.3463692
v -0.366922 0.4480038 -0.3621246
v -0.3683323 0.4384856 -0.3676123
v -0.3610999 0.43056 -0.364858
v -0.3418622 0.4170843 -0.3541283
v -0.1832993 0.5535028 -0.1549469
v -0.157859 0.4772792 -0.1668914
v -0.1324187 0.4010556 -0.178836
v -0.1211143 0.4840518 -0.1318493
v -0.1439162 0.5523704 -0.1211435
v -0.08894442 0.4899811 -0.1011701
v -0.1079746 0.546999 -0.09223519
v -0.06991415 0.432963 -0.1101051
v -0.09831235 0.4157331 -0.1425552
v -0.0772636 0.5384993 -0.06928346
v -0.06268565 0.4948211 -0.07612806
v -0.0481074 0.4511422 -0.08297271
v -0.03836727 0.4993032 -0.05293659
v -0.04663013 0.5240601 -0.04905706
v -0.02739225 0.5105843 -0.0383273
v -0.02015997 0.5026591 -0.03557292
v -0.02157032 0.4931405 -0.04106091
v -0.03010442 0.4745461 -0.05681616
v 0.2560738 0.5400894 -0.2243492
v 0.2204334 0.5490338 -0.1892973
v 0.1942461 0.4705724 -0.2015925
v 0.2306334 0.4638657 -0.2362937
v 0.1680589 0.3921106 -0.2138878
v 0.2051931 0.3876421 -0.2482383
v 0.2673781 0.4570931 -0.2713358
v 0.2901801 0.5254117 -0.26063
v 0.299548 0.4511636 -0.302015
v 0.3185782 0.5081816 -0.2930801
v 0.2805177 0.3941455 -0.31095
v 0.2445762 0.3887744 -0.2820417
v 0.3403848 0.4900021 -0.3202126
v 0.3258068 0.4463238 -0.3270571
v 0.3112285 0.4026449 -0.3339017
v 0.350125 0.4418414 -0.3502486
v 0.3583879 0.4665984 -0.3463691
v 0.3669219 0.4480037 -0.3621244
v 0.3683323 0.4384856 -0.3676122
v 0.3610999 0.43056 -0.3648579
v 0.3418621 0.4170843 -0.3541282
v 0.1832993 0.5535027 -0.1549468
v 0.157859 0.4772792 -0.1668913
v 0.1324187 0.4010556 -0.1788359
v 0.1211143 0.4840518 -0.1318492
v 0.1439162 0.5523704 -0.1211434
v 0.08894441 0.4899811 -0.10117
v 0.1079746 0.546999 -0.09223509
v 0.06991414 0.432963 -0.110105
v 0.09831235 0.4157331 -0.1425551
v 0.0772636 0.5384993 -0.06928335
v 0.06268565 0.4948211 -0.07612796
v 0.04810739 0.4511422 -0.08297261
v 0.03836726 0.4993032 -0.05293648
v 0.04663012 0.5240601 -0.04905695
v 0.02739225 0.5105843 -0.0383272
v 0.02015996 0.5026591 -0.03557282
v 0.02157031 0.4931405 -0.0410608
v 0.03010441 0.4745461 -0.05681606
v 0.2560738 0.5400894 -0.2243492
v 0.2306334 0.4638657 -0.2362937
v 0.1942461 0.4705724 -0.2015925
v 0.2204334 0.5490338 -0.1892973
v 0.1680589 0.3921106 -0.2138878
v 0.2051931 0.3876421 -0.2482383
v 0.2673781 0.4570931 -0.2713358
v 0.2901801 0.5254117 -0.26063
v 0.299548 0.4511636 -0.302015
v 0.3185782 0.5081816 -0.2930801
v 0.2805177 0.3941455 -0.31095
v 0.2445762 0.3887744 -0.2820417
v 0.3403848 0.4900021 -0.3202126
v 0.3258068 0.4463238 -0.3270571
v 0.3112285 0.4026449 -0.3339017
v 0.350125 0.4418414 -0.3502486
v 0.3583879 0.4665984 -0.3463691
v 0.3669219 0.4480037 -0.3621244
v 0.3683323 0.4384856 -0.3676122
v 0.3610999 0.43056 -0.3648579
v 0.3418621 0.4170843 -0.3541282
v 0.1832993 0.5535027 -0.1549468
v 0.157859 0.4772792 -0.1668913
v 0.1324187 0.4010556 -0.1788359
v 0.1211143 0.4840518 -0.1318492
v 0.1439162 0.5523704 -0.1211434
v 0.08894441 0.4899811 -0.10117
v 0.1079746 0.546999 -0.09223509
v 0.06991414 0.432963 -0.110105
v 0.09831235 0.4157331 -0.1425551
v 0.0772636 0.5384993 -0.06928335
v 0.06268565 0.4948211 -0.07612796
v 0.04810739 0.4511422 -0.08297261
v 0.03836726 0.4993032 -0.05293648
v 0.04663012 0.5240601 -0.04905695
v 0.02739225 0.5105843 -0.0383272
v 0.02015996 0.5026591 -0.03557282
v 0.02157031 0.4931405 -0.0410608
v 0.03010441 0.4745461 -0.05681606
vt 0.8227136 0.3180024
vt 0.8540076 0.3179924
vt 0.8540076 0.2821758
vt 0.8217903 0.2821758
vt 0.8862259 0.2821758
vt 0.8853019 0.3180032
vt 0.8540076 0.3561178
vt 0.8259611 0.3561178
vt 0.8540074 0.3883652
vt 0.830601 0.3883652
vt 0.8774143 0.3883652
vt 0.8820543 0.3561178
vt 0.8360771 0.4147162
vt 0.8540087 0.4147162
vt 0.8719379 0.4147162
vt 0.8540073 0.4390609
vt 0.8438447 0.4390609
vt 0.8504272 0.4529786
vt 0.8540073 0.4573101
vt 0.8575878 0.4529786
vt 0.8641701 0.4390609
vt 0.8227041 0.2463183
vt 0.8540076 0.2463183
vt 0.8853117 0.2463183
vt 0.8540086 0.2094775
vt 0.8259482 0.2094775
vt 0.8540087 0.1772153
vt 0.8305886 0.1772153
vt 0.8774267 0.1772153
vt 0.8820672 0.2094775
vt 0.8360671 0.1508795
vt 0.8540074 0.1508795
vt 0.8719482 0.1508795
vt 0.8540074 0.126491
vt 0.8438385 0.126491
vt 0.8504251 0.1125646
vt 0.8540073 0.1082306
vt 0.85759 0.1125646
vt 0.8641762 0.126491
vt 0.9591514 0.3192925
vt 0.9600913 0.2821758
vt 0.9272942 0.2821758
vt 0.9272942 0.3192819
vt 0.8944961 0.2821758
vt 0.8954366 0.3192933
vt 0.9272942 0.3561178
vt 0.9558455 0.3561178
vt 0.9272942 0.3883652
vt 0.951122 0.3883652
vt 0.9034663 0.3883652
vt 0.8987427 0.3561178
vt 0.9455473 0.4147162
vt 0.927293 0.4147162
vt 0.9090412 0.4147162
vt 0.9272943 0.4390611
vt 0.93764 0.4390609
vt 0.9309391 0.4529786
vt 0.9272945 0.4573101
vt 0.9236497 0.4529786
vt 0.9169489 0.4390609
vt 0.9591609 0.2463183
vt 0.927294 0.2463183
vt 0.8954268 0.2463183
vt 0.9272931 0.2094775
vt 0.9558585 0.2094775
vt 0.9272931 0.1772153
vt 0.9511345 0.1772153
vt 0.9034536 0.1772153
vt 0.8987295 0.2094775
vt 0.9455575 0.1508795
vt 0.9272943 0.1508795
vt 0.9090306 0.1508795
vt 0.9272942 0.126491
vt 0.9376464 0.126491
vt 0.9309413 0.1125646
vt 0.9272943 0.1082306
vt 0.9236474 0.1125646
vt 0.9169425 0.126491
vt 0.8227136 0.3180024
vt 0.8217903 0.2821758
vt 0.8540076 0.2821758
vt 0.8540076 0.3179924
vt 0.8862259 0.2821758
vt 0.8853019 0.3180032
vt 0.8540076 0.3561178
vt 0.8259611 0.3561178
vt 0.8540074 0.3883652
vt 0.830601 0.3883652
vt 0.8774143 0.3883652
vt 0.8820543 0.3561178
vt 0.8360772 0.4147162
vt 0.8540087 0.4147162
vt 0.8719378 0.4147162
vt 0.8540073 0.4390609
vt 0.8438447 0.4390609
vt 0.8504272 0.4529786
vt 0.8540073 0.4573101
vt 0.8575878 0.4529786
vt 0.8641701 0.4390609
vt 0.8227041 0.2463183
vt 0.8540076 0.2463183
vt 0.8853117 0.2463183
vt 0.8540086 0.2094775
vt 0.8259482 0.2094775
vt 0.8540087 0.1772153
vt 0.8305886 0.1772153
vt 0.8774267 0.1772153
vt 0.8820672 0.2094775
vt 0.8360671 0.1508795
vt 0.8540074 0.1508795
vt 0.8719482 0.1508795
vt 0.8540074 0.126491
vt 0.8438385 0.126491
vt 0.8504251 0.1125646
vt 0.8540073 0.1082306
vt 0.85759 0.1125646
vt 0.8641763 0.126491
vt 0.9591514 0.3192925
vt 0.9272942 0.3192819
vt 0.9272942 0.2821758
vt 0.9600913 0.2821758
vt 0.8944962 0.2821758
vt 0.8954366 0.3192933
vt 0.9272942 0.3561178
vt 0.9558455 0.3561178
vt 0.9272942 0.3883652
vt 0.951122 0.3883652
vt 0.9034663 0.3883652
vt 0.8987427 0.3561178
vt 0.9455473 0.4147162
vt 0.927293 0.4147162
vt 0.9090412 0.4147162
vt 0.9272944 0.4390611
vt 0.93764 0.4390609
vt 0.9309392 0.4529786
vt 0.9272945 0.4573101
vt 0.9236497 0.4529786
vt 0.9169489 0.4390609
vt 0.9591609 0.2463183
vt 0.927294 0.2463183
vt 0.8954268 0.2463183
vt 0.9272931 0.2094775
vt 0.9558585 0.2094775
vt 0.9272931 0.1772153
vt 0.9511345 0.1772153
vt 0.9034536 0.1772153
vt 0.8987295 0.2094775
vt 0.9455575 0.1508795
vt 0.9272943 0.1508795
vt 0.9090306 0.1508795
vt 0.9272942 0.126491
vt 0.9376464 0.126491
vt 0.9309413 0.1125646
vt 0.9272944 0.1082306
vt 0.9236475 0.1125646
vt 0.9169425 0.126491
vn 0.6224043 0.3196874 -0.7144319
vn 0.6224042 0.3196875 -0.7144319
vn 0.6224043 0.3196874 -0.7144319
vn 0.6224043 0.3196874 -0.7144319
vn 0.6224043 0.3196874 -0.7144319
vn 0.6224043 0.3196874 -0.7144319
vn 0.6224043 0.3196876 -0.7144318
vn 0.6224043 0.3196874 -0.7144319
vn 0.6224043 0.3196877 -0.7144316
vn 0.6224045 0.3196874 -0.7144317
vn 0.6224044 0.3196876 -0.7144317
vn 0.6224042 0.3196876 -0.7144318
vn 0.6224046 0.3196875 -0.7144315
vn 0.6224047 0.3196877 -0.7144313
vn 0.6224048 0.3196878 -0.7144312
vn 0.6224051 0.3196878 -0.714431
vn 0.6224049 0.3196876 -0.7144312
vn 0.6224049 0.3196878 -0.714431
vn 0.6224053 0.319688 -0.7144307
vn 0.6224055 0.3196881 -0.7144305
vn 0.6224052 0.3196879 -0.7144308
vn 0.6224045 0.3196874 -0.7144317
vn 0.6224045 0.3196874 -0.7144317
vn 0.6224044 0.3196874 -0.7144318
vn 0.6224045 0.3196874 -0.7144317
vn 0.6224044 0.3196873 -0.7144318
vn 0.6224043 0.3196874 -0.7144319
vn 0.6224044 0.3196873 -0.7144318
vn 0.6224044 0.3196873 -0.7144318
vn 0.6224045 0.3196874 -0.7144318
vn 0.6224045 0.3196874 -0.7144318
vn 0.6224043 0.3196875 -0.7144318
vn 0.6224042 0.3196874 -0.7144319
vn 0.6224043 0.3196876 -0.7144318
vn 0.6224045 0.3196876 -0.7144316
vn 0.6224045 0.3196876 -0.7144316
vn 0.6224043 0.3196876 -0.7144318
vn 0.622404 0.3196876 -0.7144319
vn 0.622404 0.3196876 -0.7144319
vn -0.6224043 -0.3196875 0.7144318
vn -0.6224044 -0.3196874 0.7144318
vn -0.6224044 -0.3196874 0.7144318
vn -0.6224043 -0.3196875 0.7144318
vn -0.6224045 -0.3196874 0.7144318
vn -0.6224043 -0.3196875 0.7144317
vn -0.6224044 -0.3196874 0.7144318
vn -0.6224044 -0.3196875 0.7144317
vn -0.6224045 -0.3196875 0.7144317
vn -0.6224046 -0.3196874 0.7144316
vn -0.6224045 -0.3196877 0.7144316
vn -0.6224043 -0.3196876 0.7144317
vn -0.6224048 -0.3196873 0.7144313
vn -0.6224048 -0.3196875 0.7144314
vn -0.6224048 -0.3196877 0.7144313
vn -0.6224051 -0.3196876 0.714431
vn -0.622405 -0.3196875 0.7144312
vn -0.6224051 -0.3196876 0.7144311
vn -0.6224055 -0.3196878 0.7144307
vn -0.6224056 -0.3196878 0.7144305
vn -0.6224054 -0.3196879 0.7144307
vn -0.6224044 -0.3196874 0.7144318
vn -0.6224044 -0.3196874 0.7144318
vn -0.6224044 -0.3196874 0.7144317
vn -0.6224044 -0.3196874 0.7144318
vn -0.6224044 -0.3196874 0.7144318
vn -0.6224043 -0.3196874 0.7144319
vn -0.6224044 -0.3196874 0.7144318
vn -0.6224043 -0.3196874 0.7144319
vn -0.6224043 -0.3196874 0.7144318
vn -0.6224044 -0.3196874 0.7144318
vn -0.6224043 -0.3196874 0.7144319
vn -0.6224041 -0.3196874 0.714432
vn -0.622404 -0.3196874 0.7144321
vn -0.6224043 -0.3196874 0.7144319
vn -0.622404 -0.3196874 0.7144321
vn -0.6224039 -0.3196874 0.7144322
vn -0.6224037 -0.3196872 0.7144325
vn -0.6224038 -0.3196873 0.7144324
vn -0.6224043 0.3196876 -0.7144318
vn -0.6224043 0.3196876 -0.7144318
vn -0.6224043 0.3196875 -0.7144318
vn -0.6224043 0.3196875 -0.7144318
vn -0.6224044 0.3196874 -0.7144318
vn -0.6224044 0.3196874 -0.7144318
vn -0.6224045 0.3196874 -0.7144317
vn -0.6224045 0.3196875 -0.7144316
vn -0.6224046 0.3196874 -0.7144316
vn -0.6224047 0.3196872 -0.7144316
vn -0.6224045 0.3196874 -0.7144317
vn -0.6224044 0.3196874 -0.7144318
vn -0.6224048 0.3196869 -0.7144316
vn -0.6224046 0.3196871 -0.7144317
vn -0.6224043 0.3196876 -0.7144318
vn -0.6224043 0.3196871 -0.714432
vn -0.6224046 0.3196865 -0.714432
vn -0.6224043 0.3196865 -0.7144322
vn -0.6224039 0.3196871 -0.7144322
vn -0.6224036 0.3196879 -0.7144322
vn -0.6224039 0.3196878 -0.714432
vn -0.6224043 0.3196875 -0.7144317
vn -0.6224045 0.3196876 -0.7144316
vn -0.6224045 0.3196875 -0.7144316
vn -0.6224044 0.3196875 -0.7144317
vn -0.6224044 0.3196874 -0.7144318
vn -0.6224043 0.3196874 -0.7144319
vn -0.6224043 0.3196874 -0.7144319
vn -0.6224043 0.3196874 -0.7144319
vn -0.6224044 0.3196875 -0.7144317
vn -0.6224043 0.3196874 -0.7144319
vn -0.6224043 0.3196874 -0.7144319
vn -0.6224043 0.3196874 -0.7144319
vn -0.6224045 0.3196875 -0.7144316
vn -0.6224044 0.3196874 -0.7144317
vn -0.6224045 0.3196876 -0.7144316
vn -0.6224045 0.3196876 -0.7144315
vn -0.6224046 0.3196877 -0.7144314
vn -0.6224045 0.3196876 -0.7144316
vn 0.6224043 -0.3196875 0.7144318
vn 0.6224043 -0.3196875 0.7144318
vn 0.6224044 -0.3196875 0.7144317
vn 0.6224043 -0.3196875 0.7144318
vn 0.6224045 -0.3196874 0.7144316
vn 0.6224044 -0.3196875 0.7144317
vn 0.6224044 -0.3196874 0.7144317
vn 0.6224043 -0.3196875 0.7144318
vn 0.6224046 -0.3196874 0.7144316
vn 0.6224047 -0.3196872 0.7144315
vn 0.6224045 -0.3196876 0.7144315
vn 0.6224044 -0.3196875 0.7144317
vn 0.6224048 -0.3196869 0.7144317
vn 0.6224046 -0.3196873 0.7144316
vn 0.6224045 -0.3196877 0.7144315
vn 0.6224043 -0.3196872 0.7144319
vn 0.6224046 -0.3196865 0.714432
vn 0.6224041 -0.3196864 0.7144324
vn 0.6224039 -0.3196872 0.7144323
vn 0.6224038 -0.3196879 0.7144321
vn 0.622404 -0.319688 0.7144319
vn 0.6224043 -0.3196875 0.7144318
vn 0.6224044 -0.3196874 0.7144317
vn 0.6224045 -0.3196874 0.7144316
vn 0.6224043 -0.3196875 0.7144318
vn 0.6224043 -0.3196875 0.7144318
vn 0.6224044 -0.3196874 0.7144317
vn 0.6224043 -0.3196875 0.7144318
vn 0.6224044 -0.3196875 0.7144317
vn 0.6224044 -0.3196875 0.7144317
vn 0.6224043 -0.3196875 0.7144318
vn 0.6224044 -0.3196875 0.7144317
vn 0.6224045 -0.3196874 0.7144316
vn 0.6224043 -0.3196875 0.7144318
vn 0.6224044 -0.3196875 0.7144317
vn 0.6224044 -0.3196876 0.7144317
vn 0.6224044 -0.3196876 0.7144317
vn 0.6224044 -0.3196876 0.7144317
vn 0.6224044 -0.3196876 0.7144317
g pm0402_00_WingBSkin_0
f 3/3/3 2/2/2 1/1/1
f 4/4/4 3/3/3 1/1/1
f 3/3/3 5/5/5 2/2/2
f 5/5/5 6/6/6 2/2/2
f 1/1/1 2/2/2 7/7/7
f 8/8/8 1/1/1 7/7/7
f 8/8/8 7/7/7 9/9/9
f 10/10/10 8/8/8 9/9/9
f 9/9/9 7/7/7 11/11/11
f 7/7/7 12/12/12 11/11/11
f 2/2/2 6/6/6 12/12/12
f 7/7/7 2/2/2 12/12/12
f 10/10/10 9/9/9 13/13/13
f 9/9/9 14/14/14 13/13/13
f 9/9/9 11/11/11 14/14/14
f 11/11/11 15/15/15 14/14/14
f 13/13/13 14/14/14 16/16/16
f 17/17/17 13/13/13 16/16/16
f 17/17/17 16/16/16 18/18/18
f 16/16/16 19/19/19 18/18/18
f 20/20/20 19/19/19 16/16/16
f 21/21/21 20/20/20 16/16/16
f 14/14/14 15/15/15 21/21/21
f 16/16/16 14/14/14 21/21/21
f 3/3/3 4/4/4 22/22/22
f 23/23/23 3/3/3 22/22/22
f 5/5/5 3/3/3 23/23/23
f 24/24/24 5/5/5 23/23/23
f 23/23/23 22/22/22 25/25/25
f 22/22/22 26/26/26 25/25/25
f 25/25/25 26/26/26 27/27/27
f 26/26/26 28/28/28 27/27/27
f 25/25/25 27/27/27 29/29/29
f 30/30/30 25/25/25 29/29/29
f 23/23/23 25/25/25 30/30/30
f 24/24/24 23/23/23 30/30/30
f 27/27/27 28/28/28 31/31/31
f 32/32/32 27/27/27 31/31/31
f 29/29/29 27/27/27 32/32/32
f 33/33/33 29/29/29 32/32/32
f 32/32/32 31/31/31 34/34/34
f 31/31/31 35/35/35 34/34/34
f 34/34/34 35/35/35 36/36/36
f 37/37/37 34/34/34 36/36/36
f 37/37/37 38/38/38 34/34/34
f 38/38/38 39/39/39 34/34/34
f 32/32/32 34/34/34 39/39/39
f 33/33/33 32/32/32 39/39/39
f 42/42/42 41/41/41 40/40/40
f 43/43/43 42/42/42 40/40/40
f 44/44/44 42/42/42 43/43/43
f 45/45/45 44/44/44 43/43/43
f 43/43/43 40/40/40 46/46/46
f 40/40/40 47/47/47 46/46/46
f 46/46/46 47/47/47 48/48/48
f 47/47/47 49/49/49 48/48/48
f 46/46/46 48/48/48 50/50/50
f 51/51/51 46/46/46 50/50/50
f 43/43/43 46/46/46 51/51/51
f 45/45/45 43/43/43 51/51/51
f 48/48/48 49/49/49 52/52/52
f 53/53/53 48/48/48 52/52/52
f 50/50/50 48/48/48 53/53/53
f 54/54/54 50/50/50 53/53/53
f 53/53/53 52/52/52 55/55/55
f 52/52/52 56/56/56 55/55/55
f 55/55/55 56/56/56 57/57/57
f 58/58/58 55/55/55 57/57/57
f 58/58/58 59/59/59 55/55/55
f 59/59/59 60/60/60 55/55/55
f 53/53/53 55/55/55 60/60/60
f 54/54/54 53/53/53 60/60/60
f 42/42/42 62/62/62 61/61/61
f 41/41/41 42/42/42 61/61/61
f 42/42/42 44/44/44 62/62/62
f 44/44/44 63/63/63 62/62/62
f 61/61/61 62/62/62 64/64/64
f 65/65/65 61/61/61 64/64/64
f 65/65/65 64/64/64 66/66/66
f 67/67/67 65/65/65 66/66/66
f 66/66/66 64/64/64 68/68/68
f 64/64/64 69/69/69 68/68/68
f 62/62/62 63/63/63 69/69/69
f 64/64/64 62/62/62 69/69/69
f 67/67/67 66/66/66 70/70/70
f 66/66/66 71/71/71 70/70/70
f 66/66/66 68/68/68 71/71/71
f 68/68/68 72/72/72 71/71/71
f 70/70/70 71/71/71 73/73/73
f 74/74/74 70/70/70 73/73/73
f 74/74/74 73/73/73 75/75/75
f 73/73/73 76/76/76 75/75/75
f 77/77/77 76/76/76 73/73/73
f 78/78/78 77/77/77 73/73/73
f 71/71/71 72/72/72 78/78/78
f 73/73/73 71/71/71 78/78/78
f 81/81/81 80/80/80 79/79/79
f 82/82/82 81/81/81 79/79/79
f 83/83/83 81/81/81 82/82/82
f 84/84/84 83/83/83 82/82/82
f 82/82/82 79/79/79 85/85/85
f 79/79/79 86/86/86 85/85/85
f 85/85/85 86/86/86 87/87/87
f 86/86/86 88/88/88 87/87/87
f 85/85/85 87/87/87 89/89/89
f 90/90/90 85/85/85 89/89/89
f 82/82/82 85/85/85 90/90/90
f 84/84/84 82/82/82 90/90/90
f 87/87/87 88/88/88 91/91/91
f 92/92/92 87/87/87 91/91/91
f 89/89/89 87/87/87 92/92/92
f 93/93/93 89/89/89 92/92/92
f 92/92/92 91/91/91 94/94/94
f 91/91/91 95/95/95 94/94/94
f 94/94/94 95/95/95 96/96/96
f 97/97/97 94/94/94 96/96/96
f 97/97/97 98/98/98 94/94/94
f 98/98/98 99/99/99 94/94/94
f 92/92/92 94/94/94 99/99/99
f 93/93/93 92/92/92 99/99/99
f 81/81/81 101/101/101 100/100/100
f 80/80/80 81/81/81 100/100/100
f 81/81/81 83/83/83 101/101/101
f 83/83/83 102/102/102 101/101/101
f 100/100/100 101/101/101 103/103/103
f 104/104/104 100/100/100 103/103/103
f 104/104/104 103/103/103 105/105/105
f 106/106/106 104/104/104 105/105/105
f 105/105/105 103/103/103 107/107/107
f 103/103/103 108/108/108 107/107/107
f 101/101/101 102/102/102 108/108/108
f 103/103/103 101/101/101 108/108/108
f 106/106/106 105/105/105 109/109/109
f 105/105/105 110/110/110 109/109/109
f 105/105/105 107/107/107 110/110/110
f 107/107/107 111/111/111 110/110/110
f 109/109/109 110/110/110 112/112/112
f 113/113/113 109/109/109 112/112/112
f 113/113/113 112/112/112 114/114/114
f 112/112/112 115/115/115 114/114/114
f 116/116/116 115/115/115 112/112/112
f 117/117/117 116/116/116 112/112/112
f 110/110/110 111/111/111 117/117/117
f 112/112/112 110/110/110 117/117/117
f 120/120/120 119/119/119 118/118/118
f 121/121/121 120/120/120 118/118/118
f 120/120/120 122/122/122 119/119/119
f 122/122/122 123/123/123 119/119/119
f 118/118/118 119/119/119 124/124/124
f 125/125/125 118/118/118 124/124/124
f 125/125/125 124/124/124 126/126/126
f 127/127/127 125/125/125 126/126/126
f 126/126/126 124/124/124 128/128/128
f 124/124/124 129/129/129 128/128/128
f 119/119/119 123/123/123 129/129/129
f 124/124/124 119/119/119 129/129/129
f 127/127/127 126/126/126 130/130/130
f 126/126/126 131/131/131 130/130/130
f 126/126/126 128/128/128 131/131/131
f 128/128/128 132/132/132 131/131/131
f 130/130/130 131/131/131 133/133/133
f 134/134/134 130/130/130 133/133/133
f 134/134/134 133/133/133 135/135/135
f 133/133/133 136/136/136 135/135/135
f 137/137/137 136/136/136 133/133/133
f 138/138/138 137/137/137 133/133/133
f 131/131/131 132/132/132 138/138/138
f 133/133/133 131/131/131 138/138/138
f 120/120/120 121/121/121 139/139/139
f 140/140/140 120/120/120 139/139/139
f 122/122/122 120/120/120 140/140/140
f 141/141/141 122/122/122 140/140/140
f 140/140/140 139/139/139 142/142/142
f 139/139/139 143/143/143 142/142/142
f 142/142/142 143/143/143 144/144/144
f 143/143/143 145/145/145 144/144/144
f 142/142/142 144/144/144 146/146/146
f 147/147/147 142/142/142 146/146/146
f 140/140/140 142/142/142 147/147/147
f 141/141/141 140/140/140 147/147/147
f 144/144/144 145/145/145 148/148/148
f 149/149/149 144/144/144 148/148/148
f 146/146/146 144/144/144 149/149/149
f 150/150/150 146/146/146 149/149/149
f 149/149/149 148/148/148 151/151/151
f 148/148/148 152/152/152 151/151/151
f 151/151/151 152/152/152 153/153/153
f 154/154/154 151/151/151 153/153/153
f 154/154/154 155/155/155 151/151/151
f 155/155/155 156/156/156 151/151/151
f 149/149/149 151/151/151 156/156/156
f 150/150/150 149/149/149 156/156/156
