g pm0438_00_LTearSkin
v 0.004176837 0.0002857185 -0.004179719
v 0.005882754 0.0002427199 7.799313E-06
v 0.005175668 0.003591341 3.440446E-05
v 0.003668441 0.003629904 -0.003641206
v -2.969864E-13 0.003636166 -0.005144401
v -2.969864E-13 0.000293685 -0.00588044
v 0.00401479 -0.002449587 -0.004024127
v 0.005427304 -0.002752191 -1.707182E-05
v -2.969864E-13 -0.002705159 -0.005450933
v -2.969864E-13 -0.005014848 -0.003126269
v 0.00243597 -0.004836914 -0.002452919
v 0.003087919 -0.005038351 -4.431466E-05
v -2.969864E-13 -0.005894438 -4.807439E-05
v 0.003606962 0.006948804 5.289686E-05
v 0.00255844 0.006973292 -0.002498194
v -2.969864E-13 0.00697631 -0.003553865
v -2.969864E-13 0.01309701 0.0001067963
v 0.00418177 0.000217558 0.004178882
v 0.003668772 0.003570042 0.003699562
v -2.969864E-13 0.003551789 0.005203002
v -2.969864E-13 0.0001977508 0.005884445
v 0.004002762 -0.00251498 0.003995657
v -2.969864E-13 -0.00279369 0.005406077
v -2.969864E-13 -0.005065163 0.003044056
v 0.002410943 -0.004876464 0.002398718
v -2.969864E-13 0.006917428 0.003667158
v 0.002565411 0.006928985 0.002611724
v -0.004176837 0.0002857185 -0.004179719
v -0.003668441 0.003629904 -0.003641206
v -0.005175668 0.003591341 3.440446E-05
v -0.005882754 0.0002427199 7.799313E-06
v -2.969864E-13 0.003636166 -0.005144401
v -2.969864E-13 0.000293685 -0.00588044
v -0.00401479 -0.002449587 -0.004024127
v -0.005427304 -0.002752191 -1.707182E-05
v -2.969864E-13 -0.002705159 -0.005450933
v -2.969864E-13 -0.005014848 -0.003126269
v -0.00243597 -0.004836914 -0.002452919
v -0.003087919 -0.005038351 -4.431466E-05
v -2.969864E-13 -0.005894438 -4.807439E-05
v -0.003606962 0.006948804 5.289686E-05
v -0.00255844 0.006973292 -0.002498194
v -2.969864E-13 0.00697631 -0.003553865
v -2.969864E-13 0.01309701 0.0001067963
v -0.00418177 0.000217558 0.004178882
v -0.003668772 0.003570042 0.003699562
v -2.969864E-13 0.003551789 0.005203002
v -2.969864E-13 0.0001977508 0.005884445
v -0.004002762 -0.00251498 0.003995657
v -2.969864E-13 -0.00279369 0.005406077
v -2.969864E-13 -0.005065163 0.003044056
v -0.002410943 -0.004876464 0.002398718
v -2.969864E-13 0.006917428 0.003667158
v -0.002565411 0.006928985 0.002611724
v -2.969864E-13 0.006917428 0.003667158
vt 0.8468201 0.2628069
vt 0.8618563 0.2634898
vt 0.8618563 0.2758138
vt 0.8470788 0.2760547
vt 0.8296269 0.2788662
vt 0.8277755 0.2611694
vt 0.8482307 0.2529641
vt 0.8618563 0.2529413
vt 0.8319613 0.2458807
vt 0.8441274 0.2327167
vt 0.852021 0.2410587
vt 0.8618563 0.2407976
vt 0.8618563 0.2272233
vt 0.8618563 0.2903697
vt 0.8499382 0.2915099
vt 0.8380778 0.2967811
vt 0.8618563 0.3224772
vt 0.8768669 0.2628057
vt 0.8766317 0.2760587
vt 0.8940462 0.2788657
vt 0.8958998 0.2611866
vt 0.875545 0.2529462
vt 0.8917283 0.2458982
vt 0.879566 0.2327124
vt 0.8718333 0.2410036
vt 0.885621 0.2967734
vt 0.8737799 0.2914894
vt 0.8468206 0.2628069
vt 0.8470793 0.2760547
vt 0.8618569 0.2758138
vt 0.8618569 0.2634898
vt 0.8296275 0.2788662
vt 0.827776 0.2611694
vt 0.8482313 0.2529641
vt 0.8618569 0.2529413
vt 0.8319616 0.2458807
vt 0.8441279 0.2327167
vt 0.8520215 0.2410587
vt 0.8618569 0.2407976
vt 0.8618569 0.2272233
vt 0.8618569 0.2903697
vt 0.8499386 0.2915099
vt 0.8380783 0.2967811
vt 0.8618569 0.3224772
vt 0.8768673 0.2628057
vt 0.8766322 0.2760587
vt 0.8940468 0.2788657
vt 0.8959002 0.2611866
vt 0.8755455 0.2529462
vt 0.8917289 0.2458982
vt 0.8795664 0.2327124
vt 0.8718338 0.2410036
vt 0.8856215 0.2967734
vt 0.8737803 0.2914894
vt 0.8856215 0.2967734
vn 0.7059405 -0.05768777 -0.7059178
vn 0.9979549 -0.06392188 -8.815221E-05
vn 0.9086556 0.417533 0.003347238
vn 0.6424583 0.4231595 -0.6388924
vn 0 0.4249875 -0.9051992
vn 0 -0.05588523 -0.9984372
vn 0.5759481 -0.5761467 -0.5799472
vn 0.7994011 -0.600783 -0.004202715
vn 0 -0.5945807 -0.804036
vn 0 -0.8887177 -0.458455
vn 0.3867074 -0.8343382 -0.3928575
vn 0.4516252 -0.8921831 -0.006643939
vn 0 -0.9999714 -0.007557271
vn 0.6210201 0.7837726 0.005884174
vn 0.4390794 0.787221 -0.4330041
vn 2.034718E-07 0.7887262 -0.6147447
vn 0 0.9999722 0.007456699
vn 0.7054446 -0.06898979 0.7053995
vn 0.6424299 0.4128012 0.6456615
vn 0 0.410318 0.9119425
vn 0 -0.07182263 0.9974174
vn 0.5754159 -0.5850446 0.5715061
vn 0 -0.6068312 0.7948307
vn 0 -0.8955768 0.4449068
vn 0.3863791 -0.8402734 0.3803313
vn 0 0.7790874 0.6269153
vn 0.4392518 0.7804216 0.4449719
vn -0.7059405 -0.05768777 -0.705918
vn -0.6424583 0.4231597 -0.6388922
vn -0.9086556 0.417533 0.003347239
vn -0.9979549 -0.0639219 -8.815222E-05
vn 0 0.4249875 -0.9051992
vn 0 -0.05588523 -0.9984372
vn -0.5759481 -0.5761467 -0.5799472
vn -0.799401 -0.6007831 -0.004202716
vn 0 -0.5945807 -0.804036
vn 0 -0.8887177 -0.458455
vn -0.3867074 -0.8343382 -0.3928576
vn -0.451625 -0.8921831 -0.006643939
vn 0 -0.9999714 -0.007557271
vn -0.6210199 0.7837727 0.005884173
vn -0.4390793 0.787221 -0.4330041
vn 2.034718E-07 0.7887262 -0.6147447
vn 0 0.9999722 0.007456699
vn -0.7054446 -0.06898981 0.7053995
vn -0.6424298 0.4128016 0.6456615
vn 0 0.410318 0.9119425
vn 0 -0.07182263 0.9974174
vn -0.5754158 -0.5850447 0.5715062
vn 0 -0.6068312 0.7948307
vn 0 -0.8955768 0.4449068
vn -0.3863791 -0.8402734 0.3803313
vn 0 0.7790874 0.6269153
vn -0.4392515 0.7804217 0.4449721
vn 0 0.7790874 0.6269153
g pm0438_00_LTearSkin_0
f 3/3/3 2/2/2 1/1/1
f 4/4/4 3/3/3 1/1/1
f 4/4/4 1/1/1 5/5/5
f 1/1/1 6/6/6 5/5/5
f 7/7/7 1/1/1 2/2/2
f 8/8/8 7/7/7 2/2/2
f 9/9/9 6/6/6 1/1/1
f 7/7/7 9/9/9 1/1/1
f 9/9/9 7/7/7 10/10/10
f 7/7/7 11/11/11 10/10/10
f 10/10/10 11/11/11 12/12/12
f 7/7/7 8/8/8 12/12/12
f 11/11/11 7/7/7 12/12/12
f 13/13/13 10/10/10 12/12/12
f 14/14/14 3/3/3 4/4/4
f 15/15/15 14/14/14 4/4/4
f 4/4/4 5/5/5 16/16/16
f 15/15/15 4/4/4 16/16/16
f 14/14/14 15/15/15 17/17/17
f 15/15/15 16/16/16 17/17/17
f 18/18/18 2/2/2 3/3/3
f 19/19/19 18/18/18 3/3/3
f 19/19/19 20/20/20 18/18/18
f 20/20/20 21/21/21 18/18/18
f 22/22/22 18/18/18 21/21/21
f 22/22/22 8/8/8 18/18/18
f 8/8/8 22/22/22 12/12/12
f 23/23/23 22/22/22 21/21/21
f 13/13/13 12/12/12 24/24/24
f 22/22/22 23/23/23 24/24/24
f 12/12/12 25/25/25 24/24/24
f 22/22/22 25/25/25 12/12/12
f 25/25/25 22/22/22 24/24/24
f 26/26/26 20/20/20 19/19/19
f 27/27/27 26/26/26 19/19/19
f 27/27/27 19/19/19 14/14/14
f 26/26/26 27/27/27 17/17/17
f 27/27/27 14/14/14 17/17/17
f 19/19/19 3/3/3 14/14/14
f 8/8/8 2/2/2 18/18/18
f 30/30/30 29/29/29 28/28/28
f 31/31/31 30/30/30 28/28/28
f 28/28/28 29/29/29 32/32/32
f 33/33/33 28/28/28 32/32/32
f 28/28/28 34/34/34 31/31/31
f 34/34/34 35/35/35 31/31/31
f 36/36/36 34/34/34 28/28/28
f 33/33/33 36/36/36 28/28/28
f 34/34/34 36/36/36 37/37/37
f 38/38/38 34/34/34 37/37/37
f 38/38/38 37/37/37 39/39/39
f 34/34/34 38/38/38 39/39/39
f 35/35/35 34/34/34 39/39/39
f 37/37/37 40/40/40 39/39/39
f 30/30/30 41/41/41 29/29/29
f 41/41/41 42/42/42 29/29/29
f 29/29/29 42/42/42 43/43/43
f 32/32/32 29/29/29 43/43/43
f 42/42/42 41/41/41 44/44/44
f 43/43/43 42/42/42 44/44/44
f 31/31/31 45/45/45 30/30/30
f 31/31/31 35/35/35 45/45/45
f 45/45/45 46/46/46 30/30/30
f 47/47/47 46/46/46 45/45/45
f 48/48/48 47/47/47 45/45/45
f 45/45/45 49/49/49 48/48/48
f 35/35/35 49/49/49 45/45/45
f 49/49/49 35/35/35 39/39/39
f 49/49/49 50/50/50 48/48/48
f 39/39/39 40/40/40 51/51/51
f 50/50/50 49/49/49 51/51/51
f 52/52/52 39/39/39 51/51/51
f 52/52/52 49/49/49 39/39/39
f 49/49/49 52/52/52 51/51/51
f 47/47/47 53/53/53 46/46/46
f 53/53/53 54/54/54 46/46/46
f 46/46/46 54/54/54 41/41/41
f 41/41/41 54/54/54 44/44/44
f 30/30/30 46/46/46 41/41/41
f 54/54/54 55/55/55 44/44/44
