g pm0402_00_WingCSkin
v -0.2306393 0.4160267 -0.2376081
v -0.1854213 0.3499826 -0.2236997
v -0.1568111 0.3764142 -0.1912034
v -0.2033565 0.4443972 -0.2055201
v -0.1102655 0.3084309 -0.1768866
v -0.1402034 0.2839385 -0.2097913
v -0.2143124 0.3232911 -0.2565151
v -0.2548409 0.382486 -0.2689811
v -0.2396066 0.2999229 -0.285245
v -0.2734312 0.3493261 -0.295649
v -0.2057819 0.2505195 -0.274841
v -0.1737839 0.2640963 -0.2440491
v -0.2861642 0.3186935 -0.3166657
v -0.260253 0.2808485 -0.3086958
v -0.2343414 0.2430028 -0.3007258
v -0.2793736 0.2631835 -0.3304137
v -0.2940601 0.2846341 -0.334931
v -0.2954657 0.2606536 -0.3444062
v -0.2936894 0.2499577 -0.346674
v -0.2851175 0.2455395 -0.3412232
v -0.264687 0.2417326 -0.3258963
v -0.1734189 0.4688901 -0.1726155
v -0.128201 0.4028462 -0.1587071
v -0.08298313 0.3368021 -0.1447987
v -0.0993098 0.4295375 -0.1258916
v -0.1398383 0.4887323 -0.1383576
v -0.07401568 0.4529057 -0.09716178
v -0.1078402 0.502309 -0.1075658
v -0.04019101 0.4035023 -0.0867578
v -0.05878136 0.3703427 -0.1134256
v -0.07928037 0.5098253 -0.08168081
v -0.05336923 0.4719802 -0.07371092
v -0.02745768 0.4341345 -0.06574088
v -0.03424844 0.4896449 -0.051993
v -0.04893495 0.5110957 -0.05651037
v -0.02850428 0.5072886 -0.04118335
v -0.01993264 0.5028708 -0.03573266
v -0.01815622 0.4921744 -0.03800045
v -0.01956187 0.4681942 -0.04747563
v -0.2306393 0.4160267 -0.2376081
v -0.2033565 0.4443972 -0.2055201
v -0.1568111 0.3764142 -0.1912034
v -0.1854213 0.3499826 -0.2236997
v -0.1102655 0.3084309 -0.1768866
v -0.1402034 0.2839385 -0.2097913
v -0.2143124 0.3232911 -0.2565151
v -0.2548409 0.382486 -0.2689811
v -0.2396066 0.2999229 -0.285245
v -0.2734312 0.3493261 -0.295649
v -0.2057819 0.2505195 -0.274841
v -0.1737839 0.2640963 -0.2440491
v -0.2861642 0.3186935 -0.3166657
v -0.260253 0.2808485 -0.3086958
v -0.2343414 0.2430028 -0.3007258
v -0.2793736 0.2631835 -0.3304137
v -0.2940601 0.2846341 -0.334931
v -0.2954657 0.2606536 -0.3444062
v -0.2936894 0.2499577 -0.346674
v -0.2851175 0.2455395 -0.3412232
v -0.264687 0.2417326 -0.3258963
v -0.1734189 0.4688901 -0.1726155
v -0.128201 0.4028462 -0.1587071
v -0.08298313 0.3368021 -0.1447987
v -0.0993098 0.4295375 -0.1258916
v -0.1398383 0.4887323 -0.1383576
v -0.07401568 0.4529057 -0.09716178
v -0.1078402 0.502309 -0.1075658
v -0.04019101 0.4035023 -0.0867578
v -0.05878136 0.3703427 -0.1134256
v -0.07928037 0.5098253 -0.08168081
v -0.05336923 0.4719802 -0.07371092
v -0.02745768 0.4341345 -0.06574088
v -0.03424844 0.4896449 -0.051993
v -0.04893495 0.5110957 -0.05651037
v -0.02850428 0.5072886 -0.04118335
v -0.01993264 0.5028708 -0.03573266
v -0.01815622 0.4921744 -0.03800045
v -0.01956187 0.4681942 -0.04747563
v 0.2306393 0.4160267 -0.237608
v 0.2033565 0.4443972 -0.20552
v 0.1568111 0.3764142 -0.1912033
v 0.1854213 0.3499826 -0.2236996
v 0.1102655 0.3084309 -0.1768865
v 0.1402034 0.2839385 -0.2097912
v 0.2143124 0.3232911 -0.256515
v 0.2548409 0.3824859 -0.268981
v 0.2396066 0.2999229 -0.2852449
v 0.2734312 0.3493261 -0.2956488
v 0.2057819 0.2505195 -0.2748409
v 0.1737839 0.2640963 -0.244049
v 0.2861642 0.3186935 -0.3166656
v 0.260253 0.2808485 -0.3086957
v 0.2343414 0.2430028 -0.3007256
v 0.2793736 0.2631835 -0.3304136
v 0.2940601 0.2846341 -0.3349309
v 0.2954657 0.2606536 -0.3444061
v 0.2936895 0.2499577 -0.3466739
v 0.2851175 0.2455395 -0.3412232
v 0.264687 0.2417326 -0.3258962
v 0.1734189 0.4688901 -0.1726154
v 0.128201 0.4028462 -0.158707
v 0.08298315 0.3368021 -0.1447986
v 0.09930982 0.4295375 -0.1258915
v 0.1398383 0.4887323 -0.1383575
v 0.07401568 0.4529057 -0.09716168
v 0.1078402 0.502309 -0.1075657
v 0.04019102 0.4035023 -0.08675769
v 0.05878137 0.3703427 -0.1134255
v 0.07928038 0.5098253 -0.0816807
v 0.05336924 0.4719802 -0.07371081
v 0.02745769 0.4341345 -0.06574076
v 0.03424845 0.4896449 -0.05199289
v 0.04893496 0.5110957 -0.05651025
v 0.02850429 0.5072886 -0.04118323
v 0.01993265 0.5028708 -0.03573255
v 0.01815623 0.4921744 -0.03800034
v 0.01956188 0.4681942 -0.04747552
v 0.2306393 0.4160267 -0.237608
v 0.1854213 0.3499826 -0.2236996
v 0.1568111 0.3764142 -0.1912033
v 0.2033565 0.4443972 -0.20552
v 0.1102655 0.3084309 -0.1768865
v 0.1402034 0.2839385 -0.2097912
v 0.2143124 0.3232911 -0.256515
v 0.2548409 0.3824859 -0.268981
v 0.2396066 0.2999229 -0.2852449
v 0.2734312 0.3493261 -0.2956488
v 0.2057819 0.2505195 -0.2748409
v 0.1737839 0.2640963 -0.244049
v 0.2861642 0.3186935 -0.3166656
v 0.260253 0.2808485 -0.3086957
v 0.2343414 0.2430028 -0.3007256
v 0.2793736 0.2631835 -0.3304136
v 0.2940601 0.2846341 -0.3349309
v 0.2954657 0.2606536 -0.3444061
v 0.2936895 0.2499577 -0.3466739
v 0.2851175 0.2455395 -0.3412232
v 0.264687 0.2417326 -0.3258962
v 0.1734189 0.4688901 -0.1726154
v 0.128201 0.4028462 -0.158707
v 0.08298315 0.3368021 -0.1447986
v 0.09930982 0.4295375 -0.1258915
v 0.1398383 0.4887323 -0.1383575
v 0.07401568 0.4529057 -0.09716168
v 0.1078402 0.502309 -0.1075657
v 0.04019102 0.4035023 -0.08675769
v 0.05878137 0.3703427 -0.1134255
v 0.07928038 0.5098253 -0.0816807
v 0.05336924 0.4719802 -0.07371081
v 0.02745769 0.4341345 -0.06574076
v 0.03424845 0.4896449 -0.05199289
v 0.04893496 0.5110957 -0.05651025
v 0.02850429 0.5072886 -0.04118323
v 0.01993265 0.5028708 -0.03573255
v 0.01815623 0.4921744 -0.03800034
v 0.01956188 0.4681942 -0.04747552
vt 0.8952111 0.7541994
vt 0.9272948 0.7541887
vt 0.9272949 0.7173388
vt 0.8942047 0.7173388
vt 0.9598455 0.7173388
vt 0.9589121 0.7541999
vt 0.9272947 0.7907471
vt 0.8984503 0.7907512
vt 0.9272946 0.823985
vt 0.9031178 0.823985
vt 0.9509428 0.823985
vt 0.955631 0.7907518
vt 0.9088149 0.8505778
vt 0.9272945 0.8505778
vt 0.94541 0.8505778
vt 0.9272945 0.8752038
vt 0.9168335 0.8752038
vt 0.9236112 0.8892651
vt 0.9272943 0.8936412
vt 0.9309117 0.8892651
vt 0.9375621 0.8752039
vt 0.8951204 0.6804829
vt 0.9272949 0.680483
vt 0.9589217 0.6804829
vt 0.9272948 0.6432471
vt 0.8984441 0.6432471
vt 0.9272947 0.6106532
vt 0.9032122 0.6106532
vt 0.9509555 0.6106532
vt 0.9556438 0.6432471
vt 0.9088446 0.5840475
vt 0.9272946 0.5840475
vt 0.9454205 0.5840475
vt 0.9272946 0.5594072
vt 0.9168365 0.5594072
vt 0.9236101 0.5453371
vt 0.9272945 0.5409583
vt 0.9309139 0.5453371
vt 0.9375683 0.5594072
vt 0.886193 0.7541994
vt 0.8871428 0.7173388
vt 0.854007 0.7173388
vt 0.8540072 0.7541885
vt 0.8208705 0.7173388
vt 0.8218207 0.7541995
vt 0.8540072 0.791405
vt 0.8828532 0.791405
vt 0.8540072 0.823985
vt 0.8780809 0.823985
vt 0.8299333 0.823985
vt 0.825161 0.791405
vt 0.8724487 0.8505778
vt 0.8540072 0.8505778
vt 0.8355656 0.8505778
vt 0.8540074 0.8752038
vt 0.8644599 0.8752038
vt 0.8576897 0.8892651
vt 0.8540074 0.8936412
vt 0.850325 0.8892651
vt 0.8435549 0.8752038
vt 0.8862027 0.680483
vt 0.854007 0.6804716
vt 0.8218108 0.6804824
vt 0.8540072 0.6432471
vt 0.8828664 0.6432471
vt 0.8540071 0.6106532
vt 0.8780937 0.6106532
vt 0.8299204 0.6106532
vt 0.8251476 0.6432471
vt 0.8724591 0.5840475
vt 0.8540072 0.5840475
vt 0.835555 0.5840475
vt 0.8540072 0.5594072
vt 0.8644661 0.5594072
vt 0.8576917 0.5453371
vt 0.8540073 0.5409583
vt 0.8503228 0.5453371
vt 0.8435486 0.5594072
vt 0.8952111 0.7541994
vt 0.8942047 0.7173388
vt 0.9272949 0.7173388
vt 0.9272948 0.7541887
vt 0.9598454 0.7173388
vt 0.9589121 0.7541999
vt 0.9272947 0.7907471
vt 0.8984503 0.7907512
vt 0.9272947 0.823985
vt 0.9031178 0.823985
vt 0.9509428 0.823985
vt 0.955631 0.7907518
vt 0.9088149 0.8505778
vt 0.9272945 0.8505778
vt 0.94541 0.8505778
vt 0.9272945 0.8752038
vt 0.9168336 0.8752038
vt 0.9236112 0.8892651
vt 0.9272943 0.8936412
vt 0.9309118 0.8892651
vt 0.9375621 0.8752039
vt 0.8951203 0.6804829
vt 0.9272949 0.680483
vt 0.9589217 0.6804829
vt 0.9272948 0.6432471
vt 0.8984441 0.6432471
vt 0.9272947 0.6106532
vt 0.9032122 0.6106532
vt 0.9509555 0.6106532
vt 0.9556439 0.6432471
vt 0.9088446 0.5840475
vt 0.9272947 0.5840475
vt 0.9454204 0.5840475
vt 0.9272947 0.5594072
vt 0.9168365 0.5594072
vt 0.9236101 0.5453371
vt 0.9272945 0.5409583
vt 0.930914 0.5453371
vt 0.9375683 0.5594072
vt 0.886193 0.7541994
vt 0.8540071 0.7541885
vt 0.854007 0.7173388
vt 0.8871428 0.7173388
vt 0.8208705 0.7173388
vt 0.8218208 0.7541995
vt 0.8540071 0.791405
vt 0.8828532 0.791405
vt 0.8540072 0.823985
vt 0.8780809 0.823985
vt 0.8299333 0.823985
vt 0.825161 0.791405
vt 0.8724487 0.8505778
vt 0.8540072 0.8505778
vt 0.8355656 0.8505778
vt 0.8540073 0.8752038
vt 0.86446 0.8752038
vt 0.8576897 0.8892651
vt 0.8540073 0.8936412
vt 0.850325 0.8892651
vt 0.8435549 0.8752038
vt 0.8862027 0.680483
vt 0.854007 0.6804716
vt 0.8218108 0.6804824
vt 0.8540071 0.6432471
vt 0.8828664 0.6432471
vt 0.8540071 0.6106532
vt 0.8780937 0.6106532
vt 0.8299204 0.6106532
vt 0.8251476 0.6432471
vt 0.8724591 0.5840475
vt 0.8540072 0.5840475
vt 0.835555 0.5840475
vt 0.8540072 0.5594072
vt 0.864466 0.5594072
vt 0.8576916 0.5453371
vt 0.8540073 0.5409583
vt 0.8503228 0.5453371
vt 0.8435486 0.5594072
vn 0.6099966 0.2600064 -0.7485325
vn 0.6099966 0.2600064 -0.7485324
vn 0.6099964 0.2600065 -0.7485325
vn 0.6099964 0.2600065 -0.7485325
vn 0.6099964 0.2600064 -0.7485325
vn 0.6099964 0.2600064 -0.7485325
vn 0.6099964 0.2600065 -0.7485325
vn 0.6099966 0.2600064 -0.7485325
vn 0.6099966 0.2600064 -0.7485324
vn 0.6099966 0.2600064 -0.7485325
vn 0.6099966 0.2600064 -0.7485325
vn 0.6099964 0.2600064 -0.7485325
vn 0.6099966 0.2600067 -0.7485324
vn 0.6099967 0.2600065 -0.7485322
vn 0.6099967 0.2600064 -0.7485324
vn 0.6099966 0.2600068 -0.7485323
vn 0.6099965 0.2600068 -0.7485324
vn 0.6099963 0.2600069 -0.7485325
vn 0.6099965 0.2600067 -0.7485324
vn 0.6099966 0.2600065 -0.7485324
vn 0.6099968 0.2600064 -0.7485322
vn 0.6099964 0.2600066 -0.7485325
vn 0.6099964 0.2600065 -0.7485325
vn 0.6099964 0.2600065 -0.7485325
vn 0.6099966 0.2600065 -0.7485324
vn 0.6099966 0.2600065 -0.7485325
vn 0.6099964 0.2600065 -0.7485325
vn 0.6099964 0.2600065 -0.7485325
vn 0.6099966 0.2600064 -0.7485325
vn 0.6099966 0.2600064 -0.7485325
vn 0.6099963 0.2600063 -0.7485328
vn 0.6099963 0.2600065 -0.7485327
vn 0.6099963 0.2600064 -0.7485327
vn 0.6099958 0.2600063 -0.748533
vn 0.609996 0.2600062 -0.748533
vn 0.6099959 0.260006 -0.7485332
vn 0.6099959 0.2600062 -0.7485331
vn 0.6099958 0.2600063 -0.7485331
vn 0.609996 0.2600063 -0.748533
vn -0.6099965 -0.2600065 0.7485325
vn -0.6099965 -0.2600065 0.7485325
vn -0.6099964 -0.2600064 0.7485325
vn -0.6099964 -0.2600065 0.7485325
vn -0.6099964 -0.2600064 0.7485325
vn -0.6099964 -0.2600064 0.7485325
vn -0.6099964 -0.2600064 0.7485325
vn -0.6099966 -0.2600064 0.7485325
vn -0.6099964 -0.2600064 0.7485325
vn -0.6099965 -0.2600065 0.7485325
vn -0.6099964 -0.2600063 0.7485326
vn -0.6099964 -0.2600064 0.7485325
vn -0.6099965 -0.2600065 0.7485325
vn -0.6099966 -0.2600064 0.7485325
vn -0.6099966 -0.2600063 0.7485325
vn -0.6099967 -0.2600064 0.7485323
vn -0.6099967 -0.2600067 0.7485322
vn -0.6099967 -0.2600065 0.7485322
vn -0.6099968 -0.2600064 0.7485322
vn -0.6099967 -0.2600062 0.7485324
vn -0.6099967 -0.2600062 0.7485325
vn -0.6099964 -0.2600065 0.7485325
vn -0.6099964 -0.2600064 0.7485325
vn -0.6099964 -0.2600064 0.7485325
vn -0.6099964 -0.2600064 0.7485325
vn -0.6099964 -0.2600065 0.7485325
vn -0.6099964 -0.2600064 0.7485325
vn -0.6099964 -0.2600064 0.7485326
vn -0.6099964 -0.2600064 0.7485325
vn -0.6099964 -0.2600064 0.7485325
vn -0.6099964 -0.2600064 0.7485325
vn -0.6099964 -0.2600064 0.7485325
vn -0.6099963 -0.2600064 0.7485327
vn -0.6099961 -0.2600063 0.7485328
vn -0.6099963 -0.2600063 0.7485327
vn -0.6099961 -0.2600062 0.748533
vn -0.609996 -0.2600062 0.748533
vn -0.609996 -0.2600062 0.748533
vn -0.6099961 -0.2600064 0.7485328
vn -0.6099966 0.2600064 -0.7485325
vn -0.6099964 0.2600064 -0.7485325
vn -0.6099964 0.2600065 -0.7485325
vn -0.6099964 0.2600064 -0.7485325
vn -0.6099964 0.2600064 -0.7485325
vn -0.6099964 0.2600064 -0.7485325
vn -0.6099964 0.2600064 -0.7485325
vn -0.6099966 0.2600064 -0.7485324
vn -0.6099966 0.2600064 -0.7485325
vn -0.6099967 0.2600064 -0.7485324
vn -0.6099964 0.2600065 -0.7485325
vn -0.6099964 0.2600064 -0.7485326
vn -0.6099966 0.2600064 -0.7485325
vn -0.6099964 0.2600065 -0.7485325
vn -0.6099963 0.2600067 -0.7485325
vn -0.6099961 0.2600065 -0.7485329
vn -0.6099961 0.2600064 -0.7485328
vn -0.6099958 0.2600063 -0.7485332
vn -0.6099957 0.2600065 -0.7485332
vn -0.6099957 0.2600068 -0.7485331
vn -0.609996 0.2600068 -0.7485328
vn -0.6099964 0.2600064 -0.7485326
vn -0.6099964 0.2600064 -0.7485325
vn -0.6099964 0.2600064 -0.7485325
vn -0.6099964 0.2600065 -0.7485325
vn -0.6099964 0.2600064 -0.7485325
vn -0.6099964 0.2600064 -0.7485325
vn -0.6099966 0.2600064 -0.7485325
vn -0.6099964 0.2600064 -0.7485325
vn -0.6099964 0.2600064 -0.7485325
vn -0.6099966 0.2600064 -0.7485324
vn -0.6099966 0.2600064 -0.7485325
vn -0.6099964 0.2600064 -0.7485325
vn -0.6099966 0.2600064 -0.7485324
vn -0.6099966 0.2600064 -0.7485324
vn -0.6099966 0.2600064 -0.7485324
vn -0.6099967 0.2600064 -0.7485324
vn -0.6099967 0.2600067 -0.7485322
vn -0.6099967 0.2600064 -0.7485324
vn 0.6099964 -0.2600064 0.7485326
vn 0.6099964 -0.2600064 0.7485326
vn 0.6099964 -0.2600065 0.7485325
vn 0.6099963 -0.2600064 0.7485327
vn 0.6099964 -0.2600064 0.7485326
vn 0.6099964 -0.2600064 0.7485326
vn 0.6099966 -0.2600064 0.7485325
vn 0.6099964 -0.2600065 0.7485325
vn 0.6099967 -0.2600065 0.7485324
vn 0.6099968 -0.2600064 0.7485322
vn 0.6099965 -0.2600066 0.7485325
vn 0.6099964 -0.2600066 0.7485325
vn 0.6099967 -0.2600062 0.7485324
vn 0.6099967 -0.2600065 0.7485324
vn 0.6099964 -0.2600068 0.7485325
vn 0.6099963 -0.2600062 0.7485327
vn 0.6099964 -0.260006 0.7485328
vn 0.6099961 -0.2600057 0.7485331
vn 0.6099959 -0.2600062 0.7485331
vn 0.6099958 -0.2600065 0.7485331
vn 0.6099961 -0.2600068 0.7485328
vn 0.6099964 -0.2600065 0.7485326
vn 0.6099964 -0.2600065 0.7485325
vn 0.6099966 -0.2600064 0.7485325
vn 0.6099964 -0.2600065 0.7485325
vn 0.6099964 -0.2600065 0.7485326
vn 0.6099964 -0.2600063 0.7485325
vn 0.6099966 -0.2600064 0.7485325
vn 0.6099966 -0.2600064 0.7485325
vn 0.6099966 -0.2600064 0.7485325
vn 0.6099967 -0.2600064 0.7485324
vn 0.6099967 -0.2600064 0.7485324
vn 0.6099966 -0.2600064 0.7485325
vn 0.6099966 -0.2600065 0.7485324
vn 0.6099968 -0.2600064 0.7485322
vn 0.6099966 -0.2600064 0.7485324
vn 0.6099966 -0.2600065 0.7485324
vn 0.6099967 -0.2600066 0.7485323
vn 0.6099968 -0.2600065 0.7485322
g pm0402_00_WingCSkin_0
f 3/3/3 2/2/2 1/1/1
f 4/4/4 3/3/3 1/1/1
f 3/3/3 5/5/5 2/2/2
f 5/5/5 6/6/6 2/2/2
f 1/1/1 2/2/2 7/7/7
f 8/8/8 1/1/1 7/7/7
f 8/8/8 7/7/7 9/9/9
f 10/10/10 8/8/8 9/9/9
f 9/9/9 7/7/7 11/11/11
f 7/7/7 12/12/12 11/11/11
f 2/2/2 6/6/6 12/12/12
f 7/7/7 2/2/2 12/12/12
f 10/10/10 9/9/9 13/13/13
f 9/9/9 14/14/14 13/13/13
f 9/9/9 11/11/11 14/14/14
f 11/11/11 15/15/15 14/14/14
f 13/13/13 14/14/14 16/16/16
f 17/17/17 13/13/13 16/16/16
f 17/17/17 16/16/16 18/18/18
f 16/16/16 19/19/19 18/18/18
f 20/20/20 19/19/19 16/16/16
f 21/21/21 20/20/20 16/16/16
f 14/14/14 15/15/15 21/21/21
f 16/16/16 14/14/14 21/21/21
f 3/3/3 4/4/4 22/22/22
f 23/23/23 3/3/3 22/22/22
f 5/5/5 3/3/3 23/23/23
f 24/24/24 5/5/5 23/23/23
f 23/23/23 22/22/22 25/25/25
f 22/22/22 26/26/26 25/25/25
f 25/25/25 26/26/26 27/27/27
f 26/26/26 28/28/28 27/27/27
f 25/25/25 27/27/27 29/29/29
f 30/30/30 25/25/25 29/29/29
f 23/23/23 25/25/25 30/30/30
f 24/24/24 23/23/23 30/30/30
f 27/27/27 28/28/28 31/31/31
f 32/32/32 27/27/27 31/31/31
f 29/29/29 27/27/27 32/32/32
f 33/33/33 29/29/29 32/32/32
f 32/32/32 31/31/31 34/34/34
f 31/31/31 35/35/35 34/34/34
f 34/34/34 35/35/35 36/36/36
f 37/37/37 34/34/34 36/36/36
f 37/37/37 38/38/38 34/34/34
f 38/38/38 39/39/39 34/34/34
f 32/32/32 34/34/34 39/39/39
f 33/33/33 32/32/32 39/39/39
f 42/42/42 41/41/41 40/40/40
f 43/43/43 42/42/42 40/40/40
f 44/44/44 42/42/42 43/43/43
f 45/45/45 44/44/44 43/43/43
f 43/43/43 40/40/40 46/46/46
f 40/40/40 47/47/47 46/46/46
f 46/46/46 47/47/47 48/48/48
f 47/47/47 49/49/49 48/48/48
f 46/46/46 48/48/48 50/50/50
f 51/51/51 46/46/46 50/50/50
f 43/43/43 46/46/46 51/51/51
f 45/45/45 43/43/43 51/51/51
f 48/48/48 49/49/49 52/52/52
f 53/53/53 48/48/48 52/52/52
f 50/50/50 48/48/48 53/53/53
f 54/54/54 50/50/50 53/53/53
f 53/53/53 52/52/52 55/55/55
f 52/52/52 56/56/56 55/55/55
f 55/55/55 56/56/56 57/57/57
f 58/58/58 55/55/55 57/57/57
f 58/58/58 59/59/59 55/55/55
f 59/59/59 60/60/60 55/55/55
f 53/53/53 55/55/55 60/60/60
f 54/54/54 53/53/53 60/60/60
f 42/42/42 62/62/62 61/61/61
f 41/41/41 42/42/42 61/61/61
f 42/42/42 44/44/44 62/62/62
f 44/44/44 63/63/63 62/62/62
f 61/61/61 62/62/62 64/64/64
f 65/65/65 61/61/61 64/64/64
f 65/65/65 64/64/64 66/66/66
f 67/67/67 65/65/65 66/66/66
f 66/66/66 64/64/64 68/68/68
f 64/64/64 69/69/69 68/68/68
f 62/62/62 63/63/63 69/69/69
f 64/64/64 62/62/62 69/69/69
f 67/67/67 66/66/66 70/70/70
f 66/66/66 71/71/71 70/70/70
f 66/66/66 68/68/68 71/71/71
f 68/68/68 72/72/72 71/71/71
f 70/70/70 71/71/71 73/73/73
f 74/74/74 70/70/70 73/73/73
f 74/74/74 73/73/73 75/75/75
f 73/73/73 76/76/76 75/75/75
f 77/77/77 76/76/76 73/73/73
f 78/78/78 77/77/77 73/73/73
f 71/71/71 72/72/72 78/78/78
f 73/73/73 71/71/71 78/78/78
f 81/81/81 80/80/80 79/79/79
f 82/82/82 81/81/81 79/79/79
f 83/83/83 81/81/81 82/82/82
f 84/84/84 83/83/83 82/82/82
f 82/82/82 79/79/79 85/85/85
f 79/79/79 86/86/86 85/85/85
f 85/85/85 86/86/86 87/87/87
f 86/86/86 88/88/88 87/87/87
f 85/85/85 87/87/87 89/89/89
f 90/90/90 85/85/85 89/89/89
f 82/82/82 85/85/85 90/90/90
f 84/84/84 82/82/82 90/90/90
f 87/87/87 88/88/88 91/91/91
f 92/92/92 87/87/87 91/91/91
f 89/89/89 87/87/87 92/92/92
f 93/93/93 89/89/89 92/92/92
f 92/92/92 91/91/91 94/94/94
f 91/91/91 95/95/95 94/94/94
f 94/94/94 95/95/95 96/96/96
f 97/97/97 94/94/94 96/96/96
f 97/97/97 98/98/98 94/94/94
f 98/98/98 99/99/99 94/94/94
f 92/92/92 94/94/94 99/99/99
f 93/93/93 92/92/92 99/99/99
f 81/81/81 101/101/101 100/100/100
f 80/80/80 81/81/81 100/100/100
f 81/81/81 83/83/83 101/101/101
f 83/83/83 102/102/102 101/101/101
f 100/100/100 101/101/101 103/103/103
f 104/104/104 100/100/100 103/103/103
f 104/104/104 103/103/103 105/105/105
f 106/106/106 104/104/104 105/105/105
f 105/105/105 103/103/103 107/107/107
f 103/103/103 108/108/108 107/107/107
f 101/101/101 102/102/102 108/108/108
f 103/103/103 101/101/101 108/108/108
f 106/106/106 105/105/105 109/109/109
f 105/105/105 110/110/110 109/109/109
f 105/105/105 107/107/107 110/110/110
f 107/107/107 111/111/111 110/110/110
f 109/109/109 110/110/110 112/112/112
f 113/113/113 109/109/109 112/112/112
f 113/113/113 112/112/112 114/114/114
f 112/112/112 115/115/115 114/114/114
f 116/116/116 115/115/115 112/112/112
f 117/117/117 116/116/116 112/112/112
f 110/110/110 111/111/111 117/117/117
f 112/112/112 110/110/110 117/117/117
f 120/120/120 119/119/119 118/118/118
f 121/121/121 120/120/120 118/118/118
f 120/120/120 122/122/122 119/119/119
f 122/122/122 123/123/123 119/119/119
f 118/118/118 119/119/119 124/124/124
f 125/125/125 118/118/118 124/124/124
f 125/125/125 124/124/124 126/126/126
f 127/127/127 125/125/125 126/126/126
f 126/126/126 124/124/124 128/128/128
f 124/124/124 129/129/129 128/128/128
f 119/119/119 123/123/123 129/129/129
f 124/124/124 119/119/119 129/129/129
f 127/127/127 126/126/126 130/130/130
f 126/126/126 131/131/131 130/130/130
f 126/126/126 128/128/128 131/131/131
f 128/128/128 132/132/132 131/131/131
f 130/130/130 131/131/131 133/133/133
f 134/134/134 130/130/130 133/133/133
f 134/134/134 133/133/133 135/135/135
f 133/133/133 136/136/136 135/135/135
f 137/137/137 136/136/136 133/133/133
f 138/138/138 137/137/137 133/133/133
f 131/131/131 132/132/132 138/138/138
f 133/133/133 131/131/131 138/138/138
f 120/120/120 121/121/121 139/139/139
f 140/140/140 120/120/120 139/139/139
f 122/122/122 120/120/120 140/140/140
f 141/141/141 122/122/122 140/140/140
f 140/140/140 139/139/139 142/142/142
f 139/139/139 143/143/143 142/142/142
f 142/142/142 143/143/143 144/144/144
f 143/143/143 145/145/145 144/144/144
f 142/142/142 144/144/144 146/146/146
f 147/147/147 142/142/142 146/146/146
f 140/140/140 142/142/142 147/147/147
f 141/141/141 140/140/140 147/147/147
f 144/144/144 145/145/145 148/148/148
f 149/149/149 144/144/144 148/148/148
f 146/146/146 144/144/144 149/149/149
f 150/150/150 146/146/146 149/149/149
f 149/149/149 148/148/148 151/151/151
f 148/148/148 152/152/152 151/151/151
f 151/151/151 152/152/152 153/153/153
f 154/154/154 151/151/151 153/153/153
f 154/154/154 155/155/155 151/151/151
f 155/155/155 156/156/156 151/151/151
f 149/149/149 151/151/151 156/156/156
f 150/150/150 149/149/149 156/156/156
