g pm0438_00_RTearSkin
v 0.004182032 0.0002812679 -0.004174822
v 0.003672563 0.003626028 -0.0036409
v -2.969867E-13 0.003636166 -0.005144401
v -2.969867E-13 0.000293685 -0.00588044
v 0.005175763 0.003591204 3.46697E-05
v 0.005882762 0.0002425641 8.10096E-06
v 0.004015039 -0.002449694 -0.004023816
v -2.969867E-13 -0.002705159 -0.005450933
v 0.005427233 -0.002752335 -1.679345E-05
v 0.003082597 -0.005041659 -3.790808E-05
v 0.002436495 -0.004836983 -0.00245227
v -2.969867E-13 -0.005014848 -0.003126269
v -2.969867E-13 -0.005894438 -4.807439E-05
v -2.969867E-13 0.00697631 -0.003553865
v 0.002558641 0.006970651 -0.002505347
v 0.003614293 0.006944934 6.039627E-05
v -2.969867E-13 0.01309701 0.0001067963
v 0.004177099 0.0002131076 0.004183775
v 0.003672233 0.003566166 0.003699873
v -2.969867E-13 0.003551789 0.005203002
v -2.969867E-13 0.0001977508 0.005884445
v 0.004002387 -0.002515087 0.003995969
v -2.969867E-13 -0.005065163 0.003044056
v 0.002410167 -0.004876533 0.002399368
v -2.969867E-13 -0.00279369 0.005406077
v 0.00256577 0.00692892 0.002611547
v -2.969867E-13 0.006917428 0.003667158
v -0.004182032 0.0002812679 -0.004174822
v -2.969867E-13 0.000293685 -0.00588044
v -2.969867E-13 0.003636166 -0.005144401
v -0.003672563 0.003626028 -0.0036409
v -0.005175763 0.003591204 3.46697E-05
v -0.005882762 0.0002425641 8.10096E-06
v -0.004015039 -0.002449694 -0.004023816
v -2.969867E-13 -0.002705159 -0.005450933
v -0.005427233 -0.002752335 -1.679345E-05
v -0.003082597 -0.005041659 -3.790808E-05
v -0.002436495 -0.004836983 -0.00245227
v -2.969867E-13 -0.005014848 -0.003126269
v -2.969867E-13 -0.005894438 -4.807439E-05
v -2.969867E-13 0.00697631 -0.003553865
v -0.002558641 0.006970651 -0.002505347
v -0.003614293 0.006944934 6.039627E-05
v -2.969867E-13 0.01309701 0.0001067963
v -0.004177099 0.0002131076 0.004183775
v -0.003672233 0.003566166 0.003699873
v -2.969867E-13 0.003551789 0.005203002
v -2.969867E-13 0.0001977508 0.005884445
v -0.004002387 -0.002515087 0.003995969
v -2.969867E-13 -0.005065163 0.003044056
v -0.002410167 -0.004876533 0.002399368
v -2.969867E-13 -0.00279369 0.005406077
v -0.00256577 0.00692892 0.002611547
v -2.969867E-13 0.006917428 0.003667158
vt 0.5678735 0.6486422
vt 0.5681331 0.6632215
vt 0.5489745 0.666303
vt 0.5469418 0.6468416
vt 0.5844104 0.6629863
vt 0.5844104 0.6494183
vt 0.5694027 0.6378272
vt 0.5515426 0.630026
vt 0.5844104 0.6378083
vt 0.5844104 0.6244346
vt 0.5735803 0.6247355
vt 0.5649164 0.6155447
vt 0.5844104 0.6094899
vt 0.5582588 0.6860121
vt 0.5712266 0.6802323
vt 0.5844104 0.6789572
vt 0.5844104 0.7142934
vt 0.6009278 0.6486421
vt 0.6006439 0.6632184
vt 0.6198403 0.6663116
vt 0.6218843 0.6468591
vt 0.5994455 0.637819
vt 0.6039048 0.6155288
vt 0.5953658 0.6246867
vt 0.6172932 0.6300364
vt 0.5975142 0.6802139
vt 0.6105597 0.6860092
vt 0.567874 0.6486422
vt 0.5469422 0.6468416
vt 0.548975 0.666303
vt 0.5681336 0.6632215
vt 0.5844109 0.6629863
vt 0.5844109 0.6494183
vt 0.5694032 0.6378272
vt 0.5515431 0.630026
vt 0.5844109 0.6378083
vt 0.5844109 0.6244346
vt 0.5735807 0.6247355
vt 0.5649168 0.6155447
vt 0.5844109 0.6094899
vt 0.5582592 0.6860121
vt 0.5712271 0.6802323
vt 0.5844109 0.6789572
vt 0.5844109 0.7142934
vt 0.6009283 0.6486421
vt 0.6006444 0.6632184
vt 0.6198406 0.6663116
vt 0.6218848 0.6468591
vt 0.5994458 0.637819
vt 0.6039052 0.6155288
vt 0.5953662 0.6246867
vt 0.6172938 0.6300364
vt 0.5975146 0.6802139
vt 0.6105602 0.6860092
vn 0.7060738 -0.05809746 -0.7057511
vn 0.6426744 0.422866 -0.6388692
vn 0 0.4246804 -0.9053434
vn 0 -0.05628838 -0.9984145
vn 0.9088001 0.4172149 0.003780206
vn 0.9979293 -0.06431958 0.0003004337
vn 0.5759577 -0.5763996 -0.5796863
vn 0 -0.5948347 -0.803848
vn 0.7992617 -0.6009708 -0.003854462
vn 0.4515221 -0.8922372 -0.006352783
vn 0.3866762 -0.8344705 -0.3926073
vn 0 -0.888835 -0.4582274
vn 0 -0.9999735 -0.007287276
vn 0 0.7887123 -0.6147624
vn 0.4392514 0.7872235 -0.4328249
vn 0.6211314 0.7836803 0.006412233
vn 0 0.9999676 0.008046385
vn 0.7052203 -0.06932135 0.7055912
vn 0.6422949 0.4124129 0.6460439
vn 0 0.409904 0.9121287
vn 0 -0.07211809 0.9973961
vn 0.5751874 -0.5851181 0.5716609
vn 0 -0.895496 0.4450695
vn 0.3862306 -0.8402476 0.3805389
vn 0 -0.6068317 0.7948304
vn 0.4391786 0.7801322 0.4455512
vn 0 0.7787076 0.6273871
vn -0.7060738 -0.05809764 -0.7057511
vn 0 -0.05628838 -0.9984145
vn 0 0.4246804 -0.9053434
vn -0.6426744 0.422866 -0.6388693
vn -0.9088001 0.4172147 0.003780206
vn -0.9979293 -0.06431968 0.0003004337
vn -0.5759575 -0.5763997 -0.5796863
vn 0 -0.5948347 -0.803848
vn -0.7992615 -0.600971 -0.003854462
vn -0.451522 -0.8922374 -0.006352865
vn -0.3866763 -0.8344705 -0.3926073
vn 0 -0.888835 -0.4582274
vn 0 -0.9999735 -0.007287276
vn 0 0.7887123 -0.6147624
vn -0.4392513 0.7872235 -0.432825
vn -0.6211312 0.7836803 0.006412235
vn 0 0.9999676 0.008046385
vn -0.7052202 -0.06932133 0.7055913
vn -0.6422948 0.4124129 0.6460441
vn 0 0.409904 0.9121287
vn 0 -0.07211809 0.9973961
vn -0.5751872 -0.5851184 0.5716609
vn 0 -0.895496 0.4450695
vn -0.3862305 -0.8402477 0.3805389
vn 0 -0.6068317 0.7948304
vn -0.4391784 0.7801324 0.4455511
vn 0 0.7787076 0.6273871
g pm0438_00_RTearSkin_0
f 3/3/3 2/2/2 1/1/1
f 4/4/4 3/3/3 1/1/1
f 1/1/1 2/2/2 5/5/5
f 6/6/6 1/1/1 5/5/5
f 1/1/1 7/7/7 4/4/4
f 7/7/7 8/8/8 4/4/4
f 9/9/9 7/7/7 1/1/1
f 6/6/6 9/9/9 1/1/1
f 7/7/7 9/9/9 10/10/10
f 11/11/11 7/7/7 10/10/10
f 11/11/11 10/10/10 12/12/12
f 7/7/7 11/11/11 12/12/12
f 8/8/8 7/7/7 12/12/12
f 10/10/10 13/13/13 12/12/12
f 3/3/3 14/14/14 2/2/2
f 14/14/14 15/15/15 2/2/2
f 2/2/2 15/15/15 5/5/5
f 15/15/15 16/16/16 5/5/5
f 15/15/15 14/14/14 17/17/17
f 16/16/16 15/15/15 17/17/17
f 6/6/6 5/5/5 18/18/18
f 6/6/6 18/18/18 9/9/9
f 5/5/5 19/19/19 18/18/18
f 5/5/5 16/16/16 19/19/19
f 18/18/18 19/19/19 20/20/20
f 21/21/21 18/18/18 20/20/20
f 18/18/18 22/22/22 9/9/9
f 9/9/9 22/22/22 10/10/10
f 23/23/23 13/13/13 10/10/10
f 24/24/24 23/23/23 10/10/10
f 24/24/24 22/22/22 23/23/23
f 22/22/22 24/24/24 10/10/10
f 25/25/25 22/22/22 18/18/18
f 21/21/21 25/25/25 18/18/18
f 22/22/22 25/25/25 23/23/23
f 16/16/16 26/26/26 19/19/19
f 26/26/26 16/16/16 17/17/17
f 19/19/19 26/26/26 27/27/27
f 20/20/20 19/19/19 27/27/27
f 27/27/27 26/26/26 17/17/17
f 30/30/30 29/29/29 28/28/28
f 31/31/31 30/30/30 28/28/28
f 31/31/31 28/28/28 32/32/32
f 28/28/28 33/33/33 32/32/32
f 34/34/34 28/28/28 29/29/29
f 35/35/35 34/34/34 29/29/29
f 36/36/36 33/33/33 28/28/28
f 34/34/34 36/36/36 28/28/28
f 36/36/36 34/34/34 37/37/37
f 34/34/34 38/38/38 37/37/37
f 37/37/37 38/38/38 39/39/39
f 34/34/34 35/35/35 39/39/39
f 38/38/38 34/34/34 39/39/39
f 40/40/40 37/37/37 39/39/39
f 41/41/41 30/30/30 31/31/31
f 42/42/42 41/41/41 31/31/31
f 42/42/42 31/31/31 32/32/32
f 43/43/43 42/42/42 32/32/32
f 41/41/41 42/42/42 44/44/44
f 42/42/42 43/43/43 44/44/44
f 32/32/32 33/33/33 45/45/45
f 45/45/45 33/33/33 36/36/36
f 46/46/46 32/32/32 45/45/45
f 43/43/43 32/32/32 46/46/46
f 46/46/46 45/45/45 47/47/47
f 45/45/45 48/48/48 47/47/47
f 49/49/49 45/45/45 36/36/36
f 49/49/49 36/36/36 37/37/37
f 40/40/40 50/50/50 37/37/37
f 50/50/50 51/51/51 37/37/37
f 49/49/49 51/51/51 50/50/50
f 51/51/51 49/49/49 37/37/37
f 52/52/52 48/48/48 45/45/45
f 49/49/49 52/52/52 45/45/45
f 52/52/52 49/49/49 50/50/50
f 53/53/53 43/43/43 46/46/46
f 43/43/43 53/53/53 44/44/44
f 46/46/46 47/47/47 54/54/54
f 53/53/53 46/46/46 54/54/54
f 53/53/53 54/54/54 44/44/44
