g pm0536_00_TongueBSkin
v 0.02180492 0.385819 0.1532784
v 0.02189573 0.3961019 0.1566959
v 0.03984791 0.4008178 0.1460332
v 0.03971979 0.39166 0.1428891
v 0.0212498 0.4070905 0.1585585
v 0.03865529 0.4106496 0.1479528
v 0.0003475193 0.3937463 0.160141
v 0.0003294807 0.405815 0.1621811
v 0.0003548201 0.3823426 0.1564371
v 0.0002899663 0.4192139 0.1608937
v 0.01913039 0.4194906 0.1573109
v 0.0176603 0.4318025 0.1507955
v 0.0348212 0.4218291 0.1474233
v 0.02960111 0.4305025 0.1445549
v 0.000219837 0.4324161 0.1539389
v -0.02063526 0.4069891 0.1587882
v -0.01858975 0.4193993 0.1575178
v -0.03439924 0.4216614 0.1478031
v -0.01725089 0.4317179 0.1509871
v -0.02925301 0.4303599 0.1448778
v -0.03817309 0.4104635 0.1483742
v -0.02114523 0.385715 0.153514
v -0.02124835 0.3959974 0.1569326
v -0.03933906 0.4006261 0.1464676
v -0.0392011 0.3914689 0.1433221
v 0.0347072 0.4374604 0.1335425
v 0.01896237 0.4425263 0.1368549
v 0.02024722 0.4505786 0.1185958
v 0.03715478 0.444675 0.1165573
v 0.0001099536 0.443895 0.1389766
v -1.855971E-05 0.4525208 0.1193588
v -0.0001445785 0.4571641 0.09843739
v 0.01872548 0.4548758 0.0991253
v 0.01722558 0.4544652 0.08155774
v 0.03448795 0.4488903 0.09862257
v 0.02923149 0.4497712 0.08568607
v -0.0002470152 0.4567539 0.07958354
v -0.02028185 0.4504805 0.1188182
v -0.01899465 0.4547845 0.09933224
v -0.0347325 0.4487227 0.0990023
v -0.01768561 0.4543806 0.08174925
v -0.02962262 0.4496287 0.08600894
v -0.03718196 0.444495 0.1169651
v -0.01875776 0.4424349 0.1370618
v -0.03451325 0.4372928 0.1339222
v 0.03438648 0.4444917 0.07818552
v 0.01857596 0.4483938 0.06900756
v 0.02063505 0.439139 0.06064573
v 0.03817279 0.4358031 0.0711051
v -0.000304782 0.4502191 0.06616838
v -0.0003296125 0.4401746 0.05720755
v -0.0003332398 0.4292353 0.05171669
v 0.02126126 0.4291782 0.05564315
v 0.02117104 0.4188644 0.05232021
v 0.0393506 0.4267436 0.06682635
v 0.03922415 0.4174986 0.06394844
v -0.0003262658 0.4178487 0.0479608
v -0.02125002 0.4390376 0.06087551
v -0.02188283 0.4290737 0.05587984
v -0.03983637 0.4265518 0.06726076
v -0.02177911 0.4187603 0.05255584
v -0.03969674 0.4173074 0.06438139
v -0.03865559 0.4356171 0.07152657
v -0.01914417 0.4483024 0.06921449
v -0.03483397 0.4443241 0.07856525
v 0.05034446 0.4094428 0.08115979
v 0.0503847 0.4197728 0.08443332
v 0.04881246 0.4300392 0.0885007
v 0.05420568 0.4116221 0.1056315
v 0.05247353 0.4231219 0.1094064
v 0.05423884 0.400227 0.1019015
v 0.0473434 0.4348311 0.1132713
v 0.04401524 0.4401782 0.09415574
v 0.0490755 0.416326 0.1303963
v 0.04425213 0.4278287 0.1318853
v 0.05061419 0.395381 0.1241207
v 0.05065566 0.4056475 0.1275882
v -0.05031865 0.3951365 0.1246744
v -0.0503718 0.4054028 0.1281425
v -0.04881268 0.4160889 0.1309333
v -0.0541914 0.4113595 0.1062262
v -0.05247367 0.4228677 0.1099822
v -0.05421028 0.3999643 0.1024964
v -0.04735821 0.4346018 0.1137908
v -0.04402903 0.4276148 0.1323696
v -0.04907572 0.4298021 0.0890377
v -0.04426592 0.4399644 0.09464005
v -0.05058839 0.4091984 0.08171351
v -0.05064275 0.4195281 0.08498755
vt 0.08360803 0.01373902
vt 0.08014268 0.02207257
vt 0.09429675 0.03072575
vt 0.1009617 0.02442114
vt 0.07698596 0.02924079
vt 0.08873862 0.03606144
vt 0.06277245 0.0190271
vt 0.06272161 0.02704081
vt 0.06282988 0.01005038
vt 0.0626727 0.03477795
vt 0.07380319 0.0362373
vt 0.07200086 0.04358011
vt 0.08328158 0.04144868
vt 0.0789696 0.04577187
vt 0.0626238 0.04253778
vt 0.04842979 0.02907959
vt 0.05152434 0.0361115
vt 0.04198068 0.04121551
vt 0.05323419 0.04347417
vt 0.04623824 0.04558706
vt 0.03659129 0.03576702
vt 0.04200336 0.01350414
vt 0.04536349 0.02187623
vt 0.03109983 0.03036898
vt 0.02451313 0.02398953
vt 0.08105385 0.05288124
vt 0.07228881 0.0525054
vt 0.0727784 0.06250411
vt 0.08197498 0.06255752
vt 0.06256497 0.0518913
vt 0.0624986 0.06244609
vt 0.06243223 0.07300037
vt 0.07216316 0.07249486
vt 0.07176298 0.08141541
vt 0.08093226 0.07221782
vt 0.07875884 0.07929713
vt 0.06237343 0.08235592
vt 0.05221882 0.06238803
vt 0.05270836 0.07238507
vt 0.04394335 0.07200897
vt 0.05299631 0.08130944
vt 0.04602742 0.07911235
vt 0.04302225 0.06233761
vt 0.05283406 0.05239555
vt 0.04406494 0.05267242
vt 0.08301616 0.08365977
vt 0.0734728 0.08877844
vt 0.07656735 0.09581077
vt 0.08840519 0.0890891
vt 0.0623247 0.09012395
vt 0.06227618 0.09787893
vt 0.06222603 0.1036104
vt 0.07963371 0.1006983
vt 0.08299398 0.1061698
vt 0.09389603 0.09213901
vt 0.1004816 0.09555458
vt 0.06217012 0.1097534
vt 0.04801124 0.09564948
vt 0.04485452 0.1005019
vt 0.03069915 0.09178215
vt 0.04138935 0.1059349
vt 0.02403301 0.09512298
vt 0.03625786 0.08879465
vt 0.05119398 0.08865267
vt 0.04171529 0.08342665
vt 0.1086104 0.08350343
vt 0.1027536 0.08028734
vt 0.09540844 0.0772348
vt 0.1059072 0.06272393
vt 0.09770125 0.06266001
vt 0.1123828 0.06281108
vt 0.08978432 0.06260601
vt 0.08828431 0.07405311
vt 0.09559208 0.04802898
vt 0.08842844 0.05112988
vt 0.1088717 0.04194769
vt 0.1029751 0.04506117
vt 0.01374385 0.04139572
vt 0.02224359 0.0446054
vt 0.02958876 0.04765636
vt 0.0190914 0.06223381
vt 0.0272966 0.06226254
vt 0.009974122 0.06221798
vt 0.03521313 0.06229791
vt 0.03671286 0.0508379
vt 0.02940513 0.07686216
vt 0.03656873 0.07376111
vt 0.01348256 0.08295149
vt 0.0220221 0.0798316
vn 0.3882557 -0.2494813 0.8871396
vn 0.3842432 -0.1536271 0.9103603
vn 0.7169769 -0.08227684 0.6922244
vn 0.7227469 -0.1778802 0.6678289
vn 0.3670326 0.06516001 0.9279231
vn 0.6794607 0.1282619 0.7224141
vn 0.005830933 -0.1790395 0.9838246
vn 0.005381067 0.0413603 0.9991298
vn 0.005939844 -0.2741839 0.961659
vn 0.004307857 0.3463106 0.93811
vn 0.3256688 0.3558733 0.8759532
vn 0.2774948 0.6167846 0.7365959
vn 0.5852647 0.3887837 0.7115564
vn 0.4757952 0.5782807 0.6627294
vn 0.002705074 0.6343067 0.7730768
vn -0.3571413 0.06340594 0.9318958
vn -0.3177583 0.3543144 0.8794833
vn -0.5792987 0.3859624 0.7179456
vn -0.2723804 0.6154521 0.7396131
vn -0.4712906 0.5759861 0.667926
vn -0.6721072 0.1249882 0.7298287
vn -0.3772856 -0.2513352 0.8913395
vn -0.3734833 -0.1554622 0.9145172
vn -0.708932 -0.08573026 0.7000469
vn -0.7145057 -0.1813609 0.6757143
vn 0.5285963 0.6887887 0.4961412
vn 0.2723247 0.8007084 0.5335779
vn 0.2728338 0.9148334 0.2977274
vn 0.5524597 0.7932026 0.2561599
vn 0.000994393 0.8351789 0.5499775
vn -0.0005952048 0.9503834 0.3110802
vn -0.00214289 0.9987319 0.05029985
vn 0.2692262 0.9622432 0.04006601
vn 0.2714102 0.933971 -0.2324536
vn 0.5254884 0.8507999 0.00117395
vn 0.4703913 0.8599804 -0.197903
vn -0.003708647 0.9686518 -0.2483948
vn -0.2739791 0.913509 0.3007272
vn -0.2734281 0.9609289 0.04304301
vn -0.529559 0.8482445 0.006961797
vn -0.2784649 0.9326392 -0.2294372
vn -0.4766945 0.8576865 -0.1927076
vn -0.5534518 0.7905239 0.262227
vn -0.2703295 0.799394 0.5365551
vn -0.5264512 0.686233 0.5019297
vn 0.5785958 0.7364331 -0.3505612
vn 0.3170318 0.8061301 -0.499645
vn 0.356724 0.6025602 -0.7139112
vn 0.6716949 0.5330998 -0.5144225
vn -0.005046866 0.8339762 -0.5517774
vn -0.005797776 0.6241257 -0.7813025
vn -0.005992453 0.4373323 -0.89928
vn 0.3733199 0.415795 -0.829305
vn 0.3772395 0.3247774 -0.8673004
vn 0.7087692 0.345596 -0.6149874
vn 0.71446 0.2540929 -0.6519077
vn -0.005985403 0.3474964 -0.9376622
vn -0.3674495 0.6008061 -0.7099386
vn -0.3844055 0.4139597 -0.8251483
vn -0.7171393 0.3421425 -0.6071653
vn -0.3883008 0.322923 -0.8631009
vn -0.7227917 0.2506117 -0.6440232
vn -0.6798727 0.5298262 -0.5070082
vn -0.3263955 0.8045716 -0.4961155
vn -0.5859677 0.7336122 -0.344173
vn 0.929832 0.149652 -0.3361796
vn 0.9228444 0.2389691 -0.3020797
vn 0.8739343 0.4323591 -0.222046
vn 0.9914405 0.1257942 0.03494966
vn 0.9411203 0.323001 0.09981501
vn 0.9992958 0.03706218 0.005856597
vn 0.7953661 0.5775147 0.1840366
vn 0.7382689 0.6661903 -0.1055916
vn 0.8779954 0.2206405 0.4247844
vn 0.741887 0.4775698 0.4706706
vn 0.9341345 -0.07462984 0.3490317
vn 0.9270919 0.01753769 0.3744237
vn -0.9298762 -0.07914437 0.3592582
vn -0.9230022 0.01305673 0.3845732
vn -0.8743405 0.2163962 0.4343976
vn -0.9915951 0.1209913 0.0458284
vn -0.9415219 0.3184415 0.1101429
vn -0.9993392 0.03222129 0.01682127
vn -0.7960871 0.5736603 0.1927674
vn -0.7389829 0.4739829 0.4787948
vn -0.8784017 0.4281152 -0.212433
vn -0.7426011 0.6626037 -0.09746777
vn -0.9341784 0.1451371 -0.3259539
vn -0.9272497 0.234488 -0.2919306
g pm0536_00_TongueBSkin_0
f 3/3/3 2/2/2 1/1/1
f 4/4/4 3/3/3 1/1/1
f 5/5/5 2/2/2 3/3/3
f 6/6/6 5/5/5 3/3/3
f 7/7/7 2/2/2 5/5/5
f 1/1/1 2/2/2 7/7/7
f 8/8/8 7/7/7 5/5/5
f 9/9/9 1/1/1 7/7/7
f 8/8/8 5/5/5 10/10/10
f 5/5/5 11/11/11 10/10/10
f 10/10/10 11/11/11 12/12/12
f 12/12/12 11/11/11 13/13/13
f 13/13/13 11/11/11 5/5/5
f 6/6/6 13/13/13 5/5/5
f 14/14/14 12/12/12 13/13/13
f 15/15/15 10/10/10 12/12/12
f 8/8/8 10/10/10 16/16/16
f 8/8/8 16/16/16 7/7/7
f 10/10/10 17/17/17 16/16/16
f 16/16/16 17/17/17 18/18/18
f 18/18/18 17/17/17 19/19/19
f 19/19/19 17/17/17 10/10/10
f 15/15/15 19/19/19 10/10/10
f 20/20/20 18/18/18 19/19/19
f 21/21/21 16/16/16 18/18/18
f 9/9/9 7/7/7 22/22/22
f 7/7/7 23/23/23 22/22/22
f 16/16/16 23/23/23 7/7/7
f 22/22/22 23/23/23 24/24/24
f 24/24/24 23/23/23 16/16/16
f 21/21/21 24/24/24 16/16/16
f 25/25/25 22/22/22 24/24/24
f 14/14/14 26/26/26 12/12/12
f 14/14/14 13/13/13 26/26/26
f 26/26/26 27/27/27 12/12/12
f 28/28/28 27/27/27 26/26/26
f 29/29/29 28/28/28 26/26/26
f 30/30/30 27/27/27 28/28/28
f 31/31/31 30/30/30 28/28/28
f 12/12/12 27/27/27 30/30/30
f 15/15/15 12/12/12 30/30/30
f 15/15/15 30/30/30 19/19/19
f 31/31/31 28/28/28 32/32/32
f 28/28/28 33/33/33 32/32/32
f 32/32/32 33/33/33 34/34/34
f 34/34/34 33/33/33 35/35/35
f 35/35/35 33/33/33 28/28/28
f 29/29/29 35/35/35 28/28/28
f 36/36/36 34/34/34 35/35/35
f 37/37/37 32/32/32 34/34/34
f 31/31/31 32/32/32 38/38/38
f 31/31/31 38/38/38 30/30/30
f 32/32/32 39/39/39 38/38/38
f 38/38/38 39/39/39 40/40/40
f 40/40/40 39/39/39 41/41/41
f 41/41/41 39/39/39 32/32/32
f 37/37/37 41/41/41 32/32/32
f 42/42/42 40/40/40 41/41/41
f 43/43/43 38/38/38 40/40/40
f 38/38/38 44/44/44 30/30/30
f 45/45/45 44/44/44 38/38/38
f 43/43/43 45/45/45 38/38/38
f 19/19/19 44/44/44 45/45/45
f 20/20/20 19/19/19 45/45/45
f 30/30/30 44/44/44 19/19/19
f 36/36/36 46/46/46 34/34/34
f 36/36/36 35/35/35 46/46/46
f 46/46/46 47/47/47 34/34/34
f 48/48/48 47/47/47 46/46/46
f 49/49/49 48/48/48 46/46/46
f 50/50/50 47/47/47 48/48/48
f 51/51/51 50/50/50 48/48/48
f 34/34/34 47/47/47 50/50/50
f 37/37/37 34/34/34 50/50/50
f 37/37/37 50/50/50 41/41/41
f 51/51/51 48/48/48 52/52/52
f 48/48/48 53/53/53 52/52/52
f 52/52/52 53/53/53 54/54/54
f 54/54/54 53/53/53 55/55/55
f 55/55/55 53/53/53 48/48/48
f 49/49/49 55/55/55 48/48/48
f 56/56/56 54/54/54 55/55/55
f 57/57/57 52/52/52 54/54/54
f 51/51/51 52/52/52 58/58/58
f 51/51/51 58/58/58 50/50/50
f 52/52/52 59/59/59 58/58/58
f 58/58/58 59/59/59 60/60/60
f 60/60/60 59/59/59 61/61/61
f 61/61/61 59/59/59 52/52/52
f 57/57/57 61/61/61 52/52/52
f 62/62/62 60/60/60 61/61/61
f 63/63/63 58/58/58 60/60/60
f 58/58/58 64/64/64 50/50/50
f 65/65/65 64/64/64 58/58/58
f 63/63/63 65/65/65 58/58/58
f 41/41/41 64/64/64 65/65/65
f 42/42/42 41/41/41 65/65/65
f 50/50/50 64/64/64 41/41/41
f 56/56/56 55/55/55 66/66/66
f 55/55/55 67/67/67 66/66/66
f 68/68/68 67/67/67 55/55/55
f 69/69/69 67/67/67 68/68/68
f 66/66/66 67/67/67 69/69/69
f 70/70/70 69/69/69 68/68/68
f 71/71/71 66/66/66 69/69/69
f 70/70/70 68/68/68 72/72/72
f 68/68/68 73/73/73 72/72/72
f 72/72/72 73/73/73 35/35/35
f 35/35/35 73/73/73 46/46/46
f 46/46/46 73/73/73 68/68/68
f 29/29/29 72/72/72 35/35/35
f 49/49/49 46/46/46 68/68/68
f 49/49/49 68/68/68 55/55/55
f 70/70/70 72/72/72 74/74/74
f 70/70/70 74/74/74 69/69/69
f 72/72/72 75/75/75 74/74/74
f 74/74/74 75/75/75 13/13/13
f 13/13/13 75/75/75 26/26/26
f 26/26/26 75/75/75 72/72/72
f 29/29/29 26/26/26 72/72/72
f 6/6/6 74/74/74 13/13/13
f 71/71/71 69/69/69 76/76/76
f 69/69/69 77/77/77 76/76/76
f 74/74/74 77/77/77 69/69/69
f 76/76/76 77/77/77 3/3/3
f 3/3/3 77/77/77 74/74/74
f 6/6/6 3/3/3 74/74/74
f 4/4/4 76/76/76 3/3/3
f 24/24/24 79/79/79 78/78/78
f 25/25/25 24/24/24 78/78/78
f 80/80/80 79/79/79 24/24/24
f 21/21/21 80/80/80 24/24/24
f 81/81/81 79/79/79 80/80/80
f 78/78/78 79/79/79 81/81/81
f 82/82/82 81/81/81 80/80/80
f 83/83/83 78/78/78 81/81/81
f 82/82/82 80/80/80 84/84/84
f 80/80/80 85/85/85 84/84/84
f 84/84/84 85/85/85 45/45/45
f 45/45/45 85/85/85 18/18/18
f 18/18/18 85/85/85 80/80/80
f 21/21/21 18/18/18 80/80/80
f 20/20/20 45/45/45 18/18/18
f 43/43/43 84/84/84 45/45/45
f 82/82/82 84/84/84 86/86/86
f 82/82/82 86/86/86 81/81/81
f 84/84/84 87/87/87 86/86/86
f 86/86/86 87/87/87 65/65/65
f 65/65/65 87/87/87 40/40/40
f 40/40/40 87/87/87 84/84/84
f 43/43/43 40/40/40 84/84/84
f 42/42/42 65/65/65 40/40/40
f 63/63/63 86/86/86 65/65/65
f 83/83/83 81/81/81 88/88/88
f 81/81/81 89/89/89 88/88/88
f 86/86/86 89/89/89 81/81/81
f 88/88/88 89/89/89 60/60/60
f 60/60/60 89/89/89 86/86/86
f 63/63/63 60/60/60 86/86/86
f 62/62/62 88/88/88 60/60/60
