g pm0519_00_RCloseWingSkin
v -0.08431622 0.12498 -0.07326175
v -0.07524697 0.1137381 -0.08585893
v -0.06646148 0.1160383 -0.08349771
v -0.07400267 0.1306423 -0.07044368
v -0.09005387 0.1156057 -0.07323374
v -0.09745003 0.1221214 -0.05744516
v -0.08874908 0.1380352 -0.06144098
v -0.1024225 0.1318984 -0.0389955
v -0.0902979 0.1508812 -0.04575873
v -0.07526151 0.1450135 -0.05935847
v -0.0732177 0.1590369 -0.04384167
v -0.09050682 0.1620382 -0.02947117
v -0.0724607 0.1697014 -0.02949868
v -0.1037335 0.1429785 -0.02020033
v -0.0893463 0.1707898 -0.01425463
v -0.0724833 0.1759474 -0.01658129
v -0.1019413 0.1536142 -0.002758069
v -0.07948744 0.09380334 -0.08614875
v -0.09017769 0.09808008 -0.07010525
v -0.08279651 0.08402055 -0.06575435
v -0.06299483 0.07379874 -0.08424991
v -0.06768836 0.06635399 -0.05981624
v -0.07326371 0.06151215 -0.03277839
v -0.08959185 0.08152984 -0.04204586
v -0.09536959 0.08518537 -0.0173351
v -0.07683036 0.06174825 -0.006578801
v -0.08235785 0.07061429 0.02182481
v -0.09921026 0.09572986 0.007376465
v -0.08854873 0.08823286 0.0494981
v -0.1014376 0.1118746 0.03043628
v -0.09773408 0.1016934 -0.05024032
v -0.1034563 0.108954 -0.02864566
v -0.1062572 0.1197587 -0.007078188
v -0.1062452 0.1336992 0.01232409
v -0.1039523 0.1481178 0.02854766
v -0.1007701 0.12862 0.04654067
v -0.1002297 0.1591891 0.04030262
v -0.09938642 0.1459035 0.05591739
v -0.09546492 0.1322418 0.070329
v -0.09199829 0.1090182 0.06438211
v -0.09580778 0.1580017 0.06281155
v -0.09490608 0.1700151 0.04924573
v -0.08747708 0.1762929 0.05239302
v -0.09242555 0.1784983 0.03074569
v -0.08625678 0.1828597 0.03210797
v -0.08642801 0.1809962 0.013554
v -0.0769385 0.1826988 0.0314965
v -0.07478999 0.1839414 0.009119074
v -0.07333398 0.1807057 -0.004281909
v -0.0877028 0.1758997 -0.0003305268
v -0.09616444 0.1721039 0.02514117
v -0.09970823 0.1631576 0.0123938
v -0.07803896 0.1757374 0.05153585
v -0.08937027 0.1652283 0.06794477
v -0.08957563 0.1513725 0.07631183
v -0.08019837 0.1637932 0.06828282
v -0.08021896 0.1504862 0.07561269
v -0.08598427 0.1245355 0.07924283
v -0.07834025 0.1239201 0.0786408
v -0.07689466 0.100864 0.07359749
v -0.07055558 0.0758201 0.05653191
v -0.06216545 0.05880823 0.03151014
v -0.05617539 0.0499181 0.004947605
v -0.05319075 0.04781936 -0.02037224
v -0.0491486 0.05306793 -0.0487798
v -0.04715519 0.06405978 -0.07822748
v -0.05892732 0.0822901 -0.1025491
v -0.04647331 0.0760306 -0.09765849
v -0.05485982 0.09078146 -0.1208483
v -0.06493859 0.1021181 -0.1224804
v -0.07221301 0.0979607 -0.1043146
v -0.06905145 0.1140573 -0.1025871
v -0.06285593 0.1143765 -0.1193152
v -0.05629686 0.1168745 -0.1171419
v -0.06137918 0.1164564 -0.1003198
v -0.04579144 0.08800142 -0.1170895
v -0.05726649 0.108552 -0.1398104
v -0.05627096 0.1167262 -0.1356929
v -0.04959439 0.114986 -0.1571404
v -0.0459809 0.1077121 -0.1545875
v -0.05042036 0.09924679 -0.1377179
v -0.04450219 0.1149348 -0.157417
v -0.04522608 0.1199341 -0.1541526
v -0.04968599 0.119076 -0.1520706
v -0.0465085 0.1203076 -0.1493145
v -0.05140268 0.118591 -0.1332282
v -0.04315132 0.1057674 -0.151373
v -0.04447138 0.0968844 -0.1342313
v -0.04287582 0.1172158 -0.1476696
v -0.04093262 0.112776 -0.152084
v -0.04450219 0.1149348 -0.157417
v -0.04315132 0.1057674 -0.151373
v -0.0459809 0.1077121 -0.1545875
v -0.06408073 0.1272138 -0.04992885
v -0.05558405 0.1057821 -0.04080474
v -0.05747494 0.1116932 -0.02096942
v -0.06397827 0.1364893 -0.03292819
v -0.06419479 0.1199242 -0.06641725
v -0.0543892 0.1034145 -0.06159987
v -0.06646148 0.1160383 -0.08349771
v -0.05399049 0.1047579 -0.08436853
v -0.05965281 0.1199119 -0.002206733
v -0.06377804 0.1456405 -0.0168806
v -0.06203522 0.1297265 0.01411837
v -0.06425414 0.1536017 -0.002676189
v -0.06400323 0.1047742 0.03356137
v -0.05903878 0.0918577 0.01393591
v -0.07055558 0.0758201 0.05653191
v -0.06216545 0.05880823 0.03151014
v -0.05490278 0.08348505 -0.00808167
v -0.05617539 0.0499181 0.004947605
v -0.05169372 0.07975882 -0.03099114
v -0.05319075 0.04781936 -0.02037224
v -0.04896049 0.08127121 -0.05541033
v -0.0491486 0.05306793 -0.0487798
v -0.04679018 0.08810964 -0.08103912
v -0.04715519 0.06405978 -0.07822748
v -0.07689466 0.100864 0.07359749
v -0.06898846 0.1209652 0.04769903
v -0.07834025 0.1239201 0.0786408
v -0.07228789 0.1363375 0.05676774
v -0.07644207 0.1504361 0.06339159
v -0.08021896 0.1504862 0.07561269
v -0.06810901 0.1517856 0.03655128
v -0.07124832 0.1605036 0.04331854
v -0.06827569 0.1678789 0.01987088
v -0.06588106 0.1609076 0.009421853
v -0.06510667 0.1408925 0.02716465
v -0.07063215 0.1731067 0.02856705
v -0.07803896 0.1757374 0.05153585
v -0.0769385 0.1826988 0.0314965
v -0.08019837 0.1637932 0.06828282
v -0.05629686 0.1168745 -0.1171419
v -0.04835693 0.1106028 -0.1147396
v -0.05117371 0.1076804 -0.09955404
v -0.06137918 0.1164564 -0.1003198
v -0.0453576 0.09392561 -0.09819093
v -0.04392502 0.09974157 -0.1153427
v -0.04647331 0.0760306 -0.09765849
v -0.04579144 0.08800142 -0.1170895
v -0.04561637 0.1139093 -0.1312046
v -0.05140268 0.118591 -0.1332282
v -0.04287582 0.1172158 -0.1476696
v -0.04242882 0.1062588 -0.1337133
v -0.04093262 0.112776 -0.152084
v -0.04447138 0.0968844 -0.1342313
v -0.04315132 0.1057674 -0.151373
v -0.0465085 0.1203076 -0.1493145
v -0.06419479 0.1199242 -0.06641725
v -0.06408073 0.1272138 -0.04992885
v -0.06397827 0.1364893 -0.03292819
v -0.06377804 0.1456405 -0.0168806
v -0.06425414 0.1536017 -0.002676189
v -0.06588106 0.1609076 0.009421853
v -0.06827569 0.1678789 0.01987088
v -0.07063215 0.1731067 0.02856705
vt 0.2844992 0.6916806
vt 0.2777711 0.6517903
vt 0.2544929 0.6550817
vt 0.2600552 0.7003824
vt 0.3057863 0.6838717
vt 0.3200427 0.7179319
vt 0.2866535 0.7278126
vt 0.329438 0.7581965
vt 0.2883076 0.7662272
vt 0.2595364 0.7383145
vt 0.2560099 0.7781263
vt 0.2891265 0.8021923
vt 0.2556238 0.8098285
vt 0.3323905 0.7991811
vt 0.2872797 0.8342279
vt 0.2551878 0.8352295
vt 0.3294592 0.8381524
vt 0.3269303 0.6339869
vt 0.3396321 0.6693602
vt 0.3716157 0.6562358
vt 0.3761836 0.6010634
vt 0.4174047 0.634882
vt 0.4572376 0.6789877
vt 0.4044059 0.6954587
vt 0.4262967 0.7426072
vt 0.4871461 0.7273342
vt 0.5011162 0.7918034
vt 0.4350111 0.7968921
vt 0.4929405 0.8646208
vt 0.4284806 0.8540293
vt 0.3603284 0.7072909
vt 0.3749456 0.7510905
vt 0.3807023 0.797957
vt 0.3750462 0.8443484
vt 0.3618051 0.8856987
vt 0.411747 0.8984432
vt 0.3484687 0.9163147
vt 0.3863832 0.9304354
vt 0.42386 0.9444318
vt 0.4653813 0.9137043
vt 0.3683466 0.9535084
vt 0.3328357 0.9421341
vt 0.3186123 0.9576627
vt 0.2976755 0.9204916
vt 0.2820652 0.9286434
vt 0.2820338 0.8911387
vt 0.2601143 0.9326678
vt 0.2588829 0.8854122
vt 0.2567564 0.8592468
vt 0.2854429 0.8623295
vt 0.3107852 0.904397
vt 0.3225245 0.8731748
vt 0.3054445 0.9706744
vt 0.3578372 0.9724846
vt 0.3916749 0.9747397
vt 0.3558767 0.9905288
vt 0.3950461 0.9921781
vt 0.4496011 0.95942
vt 0.4591684 0.9707204
vt 0.5017271 0.930135
vt 0.5408723 0.8634749
vt 0.5531854 0.7881398
vt 0.541483 0.7208449
vt 0.5131156 0.6675634
vt 0.4683461 0.6173422
vt 0.4113314 0.5798228
vt 0.346276 0.5746735
vt 0.3727441 0.558354
vt 0.3163684 0.5482836
vt 0.2898363 0.5644811
vt 0.3083833 0.599234
vt 0.2717947 0.613831
vt 0.2658184 0.5758719
vt 0.250864 0.5783834
vt 0.2526784 0.6167325
vt 0.3341568 0.5368851
vt 0.271426 0.5311438
vt 0.2567453 0.5422907
vt 0.2530157 0.4978065
vt 0.2663453 0.4904523
vt 0.2913569 0.5193679
vt 0.2474914 0.4902257
vt 0.239481 0.5021492
vt 0.2476723 0.5087095
vt 0.2405334 0.512845
vt 0.2456987 0.5456142
vt 0.275878 0.4900146
vt 0.3050174 0.5134499
vt 0.2313369 0.5150878
vt 0.2221962 0.5056146
vt 0.2288709 0.4942485
vt 0.2079333 0.5056173
vt 0.2111895 0.496115
vt 0.2178121 0.7293406
vt 0.1685691 0.7242246
vt 0.1558499 0.7672738
vt 0.2095275 0.7703179
vt 0.2310449 0.6910868
vt 0.1896642 0.6835634
vt 0.2544929 0.6550817
vt 0.2164589 0.6425332
vt 0.1510248 0.8111849
vt 0.2063652 0.8087766
vt 0.1547411 0.8522012
vt 0.2080698 0.8427161
vt 0.09343257 0.8663808
vt 0.08686366 0.8150823
vt 0.01781101 0.8859569
vt 0.008914538 0.8177693
vt 0.0933147 0.7643215
vt 0.01904551 0.7562183
vt 0.1107882 0.7178464
vt 0.04164956 0.706167
vt 0.1395977 0.6755114
vt 0.08145843 0.6599182
vt 0.1756445 0.6356289
vt 0.1291086 0.6227543
vt 0.05214449 0.9444322
vt 0.1130283 0.9099627
vt 0.09395184 0.9743308
vt 0.1364954 0.9415457
vt 0.159239 0.9671173
vt 0.1494717 0.9914094
vt 0.1826611 0.9156488
vt 0.1964436 0.9357187
vt 0.2246585 0.8987409
vt 0.2143401 0.8723596
vt 0.1666606 0.8879863
vt 0.2350217 0.9191765
vt 0.2212003 0.9655014
vt 0.2601143 0.9326678
vt 0.1815568 0.988331
vt 0.250864 0.5783834
vt 0.2299392 0.5797874
vt 0.2231991 0.6111603
vt 0.2526784 0.6167325
vt 0.1913293 0.6062236
vt 0.2070142 0.5768183
vt 0.1566854 0.5973175
vt 0.1842621 0.5718807
vt 0.230638 0.5474377
vt 0.2456987 0.5456142
vt 0.2313369 0.5150878
vt 0.2146052 0.5412165
vt 0.2221962 0.5056146
vt 0.1960977 0.538749
vt 0.2079333 0.5056173
vt 0.2405334 0.512845
vt 0.2310449 0.6910868
vt 0.2178121 0.7293406
vt 0.2095275 0.7703179
vt 0.2063652 0.8087766
vt 0.2080698 0.8427161
vt 0.2143401 0.8723596
vt 0.2246585 0.8987409
vt 0.2350217 0.9191765
vn -0.4250675 0.5789247 -0.6958188
vn -0.6029513 0.4935438 -0.6267888
vn 0.4310304 0.84527 -0.3158028
vn 0.3356745 0.771274 -0.5407948
vn -0.7652675 0.2408777 -0.5969452
vn -0.8487738 0.1957522 -0.4911864
vn -0.4495326 0.5841833 -0.6757591
vn -0.9066442 0.2349233 -0.3504386
vn -0.4982149 0.6497455 -0.5741191
vn 0.3573296 0.7218731 -0.5926338
vn 0.3718491 0.7456661 -0.5529107
vn -0.5183502 0.7288571 -0.4473034
vn 0.3890092 0.8028414 -0.4517938
vn -0.9211462 0.3136293 -0.2304915
vn -0.5086728 0.7964324 -0.3270278
vn 0.3886717 0.8621126 -0.3251094
vn -0.9066144 0.3961544 -0.1452997
vn -0.8053725 -0.3017302 -0.5102293
vn -0.8641207 -0.2288747 -0.448232
vn -0.7760954 -0.5105511 -0.3701534
vn -0.374431 -0.7912672 -0.4834229
vn -0.3963921 -0.8546977 -0.3352091
vn -0.4498786 -0.8813715 -0.1441995
vn -0.8137859 -0.539116 -0.2170405
vn -0.8697268 -0.4900317 -0.05868796
vn -0.5287474 -0.8459547 0.0691864
vn -0.6056054 -0.7411214 0.2897952
vn -0.9184021 -0.3876884 0.0789636
vn -0.6665089 -0.5528024 0.5001753
vn -0.9478551 -0.2497645 0.1979607
vn -0.9228354 -0.2204423 -0.3158799
vn -0.9725367 -0.1556217 -0.1730728
vn -0.9963685 -0.06185075 -0.0585184
vn -0.9986076 0.04806033 0.02174943
vn -0.9813938 0.1719226 0.08549108
vn -0.9409522 -0.06685355 0.3318728
vn -0.9328206 0.3313514 0.1416049
vn -0.9293466 0.1198803 0.3492043
vn -0.809146 0.01620565 0.587384
vn -0.6808137 -0.2622806 0.6838871
vn -0.7830756 0.3094805 0.5394576
vn -0.7727457 0.5708663 0.2774449
vn -0.2763755 0.852696 0.4433127
vn -0.6539302 0.7548093 0.05136159
vn -0.1991244 0.972816 0.1182304
vn -0.4779623 0.8772017 -0.04548722
vn 0.4525287 0.8678004 0.2052809
vn 0.2560944 0.9664544 0.0195339
vn 0.3573363 0.9159892 -0.1824135
vn -0.493011 0.8453162 -0.2058656
vn -0.8093219 0.587253 -0.0114906
vn -0.8729724 0.48063 -0.08315082
vn 0.5108098 0.7316089 0.4514664
vn -0.3455836 0.5924148 0.7277477
vn -0.4873768 0.2531306 0.8356966
vn 0.5008206 0.5311297 0.6834325
vn 0.4742537 0.2974365 0.8286224
vn -0.3749529 -0.1097299 0.9205269
vn 0.455165 -0.01875789 0.8902095
vn 0.1836926 -0.2884842 0.9396988
vn 0.3110363 -0.5899549 0.7451239
vn 0.3932616 -0.7738398 0.4965051
vn 0.4595943 -0.8574539 0.2313996
vn 0.5098054 -0.8602383 -0.009407355
vn 0.5494013 -0.8123953 -0.1953768
vn 0.5817146 -0.7483518 -0.3187127
vn -0.3593633 -0.7558805 -0.5472685
vn 0.6017801 -0.7108674 -0.3640444
vn -0.3200732 -0.7450561 -0.5851876
vn -0.8405834 -0.1339458 -0.52486
vn -0.8326252 -0.1865669 -0.5214672
vn -0.649349 0.6447413 -0.4033046
vn -0.663828 0.6902554 -0.2878886
vn 0.1339658 0.9902241 0.03885045
vn 0.2238231 0.9717191 -0.07526667
vn 0.6105276 -0.6942782 -0.3810956
vn -0.7464331 -0.0699797 -0.6617708
vn -0.5738322 0.7523145 -0.3236349
vn -0.3596371 0.1089663 -0.9267079
vn 0.07057995 -0.4278919 -0.9010699
vn -0.2102303 -0.6729909 -0.7091449
vn 0.3375488 0.1752566 -0.9248492
vn 0.289465 0.8748536 -0.3883828
vn -0.2133919 0.8604739 -0.4626539
vn 0.2219789 0.9611487 -0.1640684
vn 0.1416167 0.9899022 0.006191757
vn 0.6354569 -0.4813867 -0.6037064
vn 0.6243766 -0.6401756 -0.4475814
vn 0.6593853 0.7394094 -0.1359588
vn 0.9060697 0.08537807 -0.4144252
vn 0.3375488 0.1752566 -0.9248492
vn 0.6354569 -0.4813867 -0.6037064
vn 0.07057995 -0.4278919 -0.9010699
vn 0.8236024 0.4979568 -0.2715108
vn 0.9672348 0.2518625 -0.03197107
vn 0.9838978 0.178732 1.882376E-05
vn 0.8745486 0.4269968 -0.2298662
vn 0.7248375 0.6331265 -0.2715907
vn 0.9255689 0.3770964 -0.03347344
vn 0.4310304 0.84527 -0.3158028
vn 0.8542671 0.519786 0.007086175
vn 0.9883825 0.1409319 0.05690648
vn 0.8991465 0.4069878 -0.1609239
vn 0.983283 0.1346253 0.1225991
vn 0.9063871 0.4149852 -0.0790552
vn 0.9176773 -0.1211821 0.3783956
vn 0.9503367 -0.1657944 0.2633864
vn 0.3110363 -0.5899549 0.7451239
vn 0.3932616 -0.7738398 0.4965051
vn 0.9743334 -0.1691152 0.1485747
vn 0.4595943 -0.8574539 0.2313996
vn 0.990006 -0.1301892 0.05421097
vn 0.5098054 -0.8602383 -0.009407355
vn 0.9981937 -0.06007591 -0.0003947942
vn 0.5494013 -0.8123953 -0.1953768
vn 0.999678 0.0183461 -0.01753415
vn 0.5817146 -0.7483518 -0.3187127
vn 0.1836926 -0.2884842 0.9396988
vn 0.8900908 -0.02747691 0.4549544
vn 0.455165 -0.01875789 0.8902095
vn 0.8744519 0.09893606 0.4749164
vn 0.79938 0.2981077 0.5216545
vn 0.4742537 0.2974365 0.8286224
vn 0.9469808 0.2233524 0.230957
vn 0.865687 0.380429 0.325361
vn 0.865324 0.488867 0.11056
vn 0.8947048 0.4465857 0.008032617
vn 0.9707429 0.1563359 0.1822557
vn 0.8294245 0.5214712 0.2003067
vn 0.5108098 0.7316089 0.4514664
vn 0.4525287 0.8678004 0.2052809
vn 0.5008206 0.5311297 0.6834325
vn 0.1339658 0.9902241 0.03885045
vn 0.7534902 0.6389008 0.1551073
vn 0.7801476 0.6161152 0.1084984
vn 0.2238231 0.9717191 -0.07526667
vn 0.9987466 0.04974331 0.005550371
vn 0.9993998 0.03447704 -0.00335053
vn 0.6017801 -0.7108674 -0.3640444
vn 0.6105276 -0.6942782 -0.3810956
vn 0.7449352 0.6605378 0.09360234
vn 0.1416167 0.9899022 0.006191757
vn 0.6593853 0.7394094 -0.1359588
vn 0.9937701 0.0293959 -0.1075025
vn 0.9060697 0.08537807 -0.4144252
vn 0.6243766 -0.6401756 -0.4475814
vn 0.6354569 -0.4813867 -0.6037064
vn 0.2219789 0.9611487 -0.1640684
vn 0.7248375 0.6331265 -0.2715907
vn 0.8236024 0.4979568 -0.2715108
vn 0.8745486 0.4269968 -0.2298662
vn 0.8991465 0.4069878 -0.1609239
vn 0.9063871 0.4149852 -0.0790552
vn 0.8947048 0.4465857 0.008032617
vn 0.865324 0.488867 0.11056
vn 0.8294245 0.5214712 0.2003067
g pm0519_00_RCloseWingSkin_0
f 3/3/3 2/2/2 1/1/1
f 4/4/4 3/3/3 1/1/1
f 5/5/5 1/1/1 2/2/2
f 5/5/5 6/6/6 1/1/1
f 6/6/6 7/7/7 1/1/1
f 4/4/4 1/1/1 7/7/7
f 6/6/6 8/8/8 7/7/7
f 8/8/8 9/9/9 7/7/7
f 10/10/10 7/7/7 9/9/9
f 10/10/10 4/4/4 7/7/7
f 11/11/11 10/10/10 9/9/9
f 11/11/11 9/9/9 12/12/12
f 13/13/13 11/11/11 12/12/12
f 14/14/14 12/12/12 9/9/9
f 8/8/8 14/14/14 9/9/9
f 13/13/13 12/12/12 15/15/15
f 16/16/16 13/13/13 15/15/15
f 17/17/17 15/15/15 12/12/12
f 14/14/14 17/17/17 12/12/12
f 5/5/5 2/2/2 18/18/18
f 19/19/19 5/5/5 18/18/18
f 5/5/5 19/19/19 6/6/6
f 20/20/20 19/19/19 18/18/18
f 20/20/20 18/18/18 21/21/21
f 22/22/22 20/20/20 21/21/21
f 22/22/22 23/23/23 20/20/20
f 23/23/23 24/24/24 20/20/20
f 24/24/24 23/23/23 25/25/25
f 23/23/23 26/26/26 25/25/25
f 25/25/25 26/26/26 27/27/27
f 28/28/28 25/25/25 27/27/27
f 27/27/27 29/29/29 28/28/28
f 29/29/29 30/30/30 28/28/28
f 20/20/20 24/24/24 31/31/31
f 19/19/19 20/20/20 31/31/31
f 24/24/24 25/25/25 32/32/32
f 31/31/31 24/24/24 32/32/32
f 25/25/25 28/28/28 33/33/33
f 32/32/32 25/25/25 33/33/33
f 28/28/28 30/30/30 34/34/34
f 33/33/33 28/28/28 34/34/34
f 19/19/19 31/31/31 6/6/6
f 31/31/31 32/32/32 8/8/8
f 6/6/6 31/31/31 8/8/8
f 32/32/32 33/33/33 14/14/14
f 8/8/8 32/32/32 14/14/14
f 33/33/33 34/34/34 17/17/17
f 14/14/14 33/33/33 17/17/17
f 34/34/34 30/30/30 35/35/35
f 30/30/30 36/36/36 35/35/35
f 36/36/36 30/30/30 29/29/29
f 35/35/35 36/36/36 37/37/37
f 36/36/36 38/38/38 37/37/37
f 36/36/36 39/39/39 38/38/38
f 36/36/36 40/40/40 39/39/39
f 39/39/39 41/41/41 38/38/38
f 38/38/38 41/41/41 42/42/42
f 37/37/37 38/38/38 42/42/42
f 42/42/42 41/41/41 43/43/43
f 44/44/44 42/42/42 43/43/43
f 37/37/37 42/42/42 44/44/44
f 45/45/45 44/44/44 43/43/43
f 44/44/44 45/45/45 46/46/46
f 45/45/45 43/43/43 47/47/47
f 45/45/45 47/47/47 48/48/48
f 46/46/46 45/45/45 48/48/48
f 46/46/46 48/48/48 49/49/49
f 50/50/50 46/46/46 49/49/49
f 51/51/51 46/46/46 50/50/50
f 51/51/51 37/37/37 44/44/44
f 51/51/51 44/44/44 46/46/46
f 52/52/52 51/51/51 50/50/50
f 43/43/43 53/53/53 47/47/47
f 41/41/41 54/54/54 43/43/43
f 43/43/43 54/54/54 53/53/53
f 54/54/54 41/41/41 55/55/55
f 56/56/56 54/54/54 55/55/55
f 54/54/54 56/56/56 53/53/53
f 57/57/57 56/56/56 55/55/55
f 57/57/57 55/55/55 58/58/58
f 59/59/59 57/57/57 58/58/58
f 52/52/52 35/35/35 51/51/51
f 35/35/35 37/37/37 51/51/51
f 49/49/49 16/16/16 50/50/50
f 16/16/16 15/15/15 50/50/50
f 50/50/50 15/15/15 17/17/17
f 52/52/52 50/50/50 17/17/17
f 34/34/34 35/35/35 52/52/52
f 17/17/17 34/34/34 52/52/52
f 58/58/58 55/55/55 39/39/39
f 40/40/40 58/58/58 39/39/39
f 60/60/60 58/58/58 40/40/40
f 59/59/59 58/58/58 60/60/60
f 60/60/60 40/40/40 61/61/61
f 40/40/40 29/29/29 61/61/61
f 40/40/40 36/36/36 29/29/29
f 61/61/61 29/29/29 27/27/27
f 62/62/62 61/61/61 27/27/27
f 27/27/27 26/26/26 62/62/62
f 26/26/26 63/63/63 62/62/62
f 63/63/63 26/26/26 23/23/23
f 64/64/64 63/63/63 23/23/23
f 64/64/64 23/23/23 22/22/22
f 65/65/65 64/64/64 22/22/22
f 65/65/65 22/22/22 66/66/66
f 22/22/22 21/21/21 66/66/66
f 66/66/66 21/21/21 67/67/67
f 68/68/68 66/66/66 67/67/67
f 68/68/68 67/67/67 69/69/69
f 70/70/70 69/69/69 67/67/67
f 71/71/71 70/70/70 67/67/67
f 70/70/70 71/71/71 72/72/72
f 73/73/73 70/70/70 72/72/72
f 74/74/74 73/73/73 72/72/72
f 75/75/75 74/74/74 72/72/72
f 76/76/76 68/68/68 69/69/69
f 72/72/72 71/71/71 2/2/2
f 75/75/75 72/72/72 2/2/2
f 71/71/71 18/18/18 2/2/2
f 67/67/67 21/21/21 18/18/18
f 71/71/71 67/67/67 18/18/18
f 3/3/3 75/75/75 2/2/2
f 70/70/70 73/73/73 77/77/77
f 69/69/69 70/70/70 77/77/77
f 73/73/73 78/78/78 77/77/77
f 77/77/77 78/78/78 79/79/79
f 77/77/77 79/79/79 80/80/80
f 81/81/81 77/77/77 80/80/80
f 76/76/76 69/69/69 81/81/81
f 81/81/81 69/69/69 77/77/77
f 82/82/82 80/80/80 79/79/79
f 83/83/83 82/82/82 79/79/79
f 84/84/84 83/83/83 79/79/79
f 78/78/78 84/84/84 79/79/79
f 85/85/85 84/84/84 78/78/78
f 85/85/85 83/83/83 84/84/84
f 86/86/86 85/85/85 78/78/78
f 81/81/81 80/80/80 87/87/87
f 88/88/88 81/81/81 87/87/87
f 88/88/88 76/76/76 81/81/81
f 89/89/89 83/83/83 85/85/85
f 89/89/89 90/90/90 83/83/83
f 90/90/90 91/91/91 83/83/83
f 90/90/90 92/92/92 91/91/91
f 92/92/92 93/93/93 91/91/91
f 86/86/86 78/78/78 73/73/73
f 74/74/74 86/86/86 73/73/73
f 96/96/96 95/95/95 94/94/94
f 97/97/97 96/96/96 94/94/94
f 94/94/94 95/95/95 98/98/98
f 95/95/95 99/99/99 98/98/98
f 98/98/98 99/99/99 100/100/100
f 99/99/99 101/101/101 100/100/100
f 102/102/102 96/96/96 97/97/97
f 103/103/103 102/102/102 97/97/97
f 104/104/104 102/102/102 103/103/103
f 105/105/105 104/104/104 103/103/103
f 104/104/104 106/106/106 102/102/102
f 106/106/106 107/107/107 102/102/102
f 102/102/102 107/107/107 96/96/96
f 106/106/106 108/108/108 107/107/107
f 108/108/108 109/109/109 107/107/107
f 107/107/107 109/109/109 110/110/110
f 107/107/107 110/110/110 96/96/96
f 96/96/96 110/110/110 95/95/95
f 109/109/109 111/111/111 110/110/110
f 110/110/110 111/111/111 112/112/112
f 111/111/111 113/113/113 112/112/112
f 112/112/112 113/113/113 114/114/114
f 112/112/112 114/114/114 99/99/99
f 99/99/99 114/114/114 101/101/101
f 113/113/113 115/115/115 114/114/114
f 114/114/114 115/115/115 116/116/116
f 114/114/114 116/116/116 101/101/101
f 115/115/115 117/117/117 116/116/116
f 110/110/110 112/112/112 95/95/95
f 95/95/95 112/112/112 99/99/99
f 118/118/118 108/108/108 106/106/106
f 119/119/119 118/118/118 106/106/106
f 120/120/120 118/118/118 119/119/119
f 121/121/121 120/120/120 119/119/119
f 120/120/120 121/121/121 122/122/122
f 123/123/123 120/120/120 122/122/122
f 122/122/122 121/121/121 124/124/124
f 125/125/125 122/122/122 124/124/124
f 125/125/125 124/124/124 126/126/126
f 126/126/126 124/124/124 127/127/127
f 124/124/124 128/128/128 127/127/127
f 121/121/121 119/119/119 128/128/128
f 124/124/124 121/121/121 128/128/128
f 129/129/129 125/125/125 126/126/126
f 128/128/128 119/119/119 104/104/104
f 119/119/119 106/106/106 104/104/104
f 128/128/128 104/104/104 105/105/105
f 127/127/127 128/128/128 105/105/105
f 130/130/130 125/125/125 129/129/129
f 122/122/122 125/125/125 130/130/130
f 131/131/131 130/130/130 129/129/129
f 132/132/132 122/122/122 130/130/130
f 132/132/132 123/123/123 122/122/122
f 135/135/135 134/134/134 133/133/133
f 136/136/136 135/135/135 133/133/133
f 135/135/135 137/137/137 134/134/134
f 137/137/137 138/138/138 134/134/134
f 137/137/137 139/139/139 138/138/138
f 139/139/139 140/140/140 138/138/138
f 136/136/136 100/100/100 135/135/135
f 100/100/100 101/101/101 135/135/135
f 135/135/135 101/101/101 137/137/137
f 101/101/101 116/116/116 137/137/137
f 137/137/137 116/116/116 139/139/139
f 116/116/116 117/117/117 139/139/139
f 134/134/134 141/141/141 133/133/133
f 141/141/141 142/142/142 133/133/133
f 141/141/141 143/143/143 142/142/142
f 141/141/141 144/144/144 143/143/143
f 134/134/134 138/138/138 144/144/144
f 141/141/141 134/134/134 144/144/144
f 144/144/144 145/145/145 143/143/143
f 144/144/144 146/146/146 145/145/145
f 138/138/138 140/140/140 146/146/146
f 144/144/144 138/138/138 146/146/146
f 146/146/146 147/147/147 145/145/145
f 143/143/143 148/148/148 142/142/142
f 149/149/149 3/3/3 4/4/4
f 149/149/149 4/4/4 10/10/10
f 150/150/150 149/149/149 10/10/10
f 150/150/150 10/10/10 11/11/11
f 151/151/151 150/150/150 11/11/11
f 151/151/151 11/11/11 13/13/13
f 152/152/152 151/151/151 13/13/13
f 152/152/152 13/13/13 16/16/16
f 153/153/153 152/152/152 16/16/16
f 153/153/153 16/16/16 49/49/49
f 154/154/154 153/153/153 49/49/49
f 49/49/49 48/48/48 154/154/154
f 48/48/48 155/155/155 154/154/154
f 48/48/48 47/47/47 155/155/155
f 47/47/47 156/156/156 155/155/155
f 41/41/41 39/39/39 55/55/55
