g pm0607_00_FireBSkin
v 5.46904E-08 0.2467092 4.038345E-07
v 5.912083E-08 0.2483018 -0.00655493
v -0.004471767 0.2483018 -0.004471443
v 5.863062E-08 0.2526565 -0.01287613
v -0.008779367 0.2526565 -0.008779047
v -0.006555253 0.2483018 3.815042E-07
v 5.46904E-08 0.2467092 4.038345E-07
v -0.01287643 0.2526565 3.771909E-07
v -0.01638641 0.2579676 3.768569E-07
v -0.01117254 0.2579676 -0.01117222
v -0.012627 0.2635632 -0.01262668
v -0.01851962 0.2635632 3.752789E-07
v -0.0196595 0.2710805 3.717477E-07
v -0.01340419 0.2710805 -0.01340389
v 5.809999E-08 0.2579676 -0.01638612
v -0.004471769 0.2483018 0.004472207
v 5.46904E-08 0.2467092 4.038345E-07
v -0.008779372 0.2526565 0.0087798
v 5.605884E-08 0.2483018 0.006555693
v 5.46904E-08 0.2467092 4.038345E-07
v 5.351526E-08 0.2526565 0.01287687
v 5.266719E-08 0.2579676 0.01638685
v -0.01117254 0.2579676 0.01117297
v -0.012627 0.2635632 0.01262743
v 5.151132E-08 0.2635632 0.01852004
v 5.002416E-08 0.2710805 0.01965991
v -0.0134042 0.2710805 0.01340462
v 0.004471889 0.2483018 0.004472206
v 5.46904E-08 0.2467092 4.038345E-07
v 0.008779498 0.2526565 0.0087798
v 0.00655538 0.2483018 3.705219E-07
v 5.46904E-08 0.2467092 4.038345E-07
v 0.01287658 0.2526565 3.45494E-07
v 0.01638658 0.2579676 3.240681E-07
v 0.01117267 0.2579676 0.01117296
v 0.01262713 0.2635632 0.01262741
v 0.01851978 0.2635632 3.038902E-07
v 0.01965964 0.2710805 2.854117E-07
v 0.01340431 0.2710805 0.01340457
v 0.004471891 0.2483018 -0.004471457
v 5.46904E-08 0.2467092 4.038345E-07
v 0.008779502 0.2526565 -0.008779089
v 5.912083E-08 0.2483018 -0.00655493
v 5.46904E-08 0.2467092 4.038345E-07
v 5.863062E-08 0.2526565 -0.01287613
v 5.809999E-08 0.2579676 -0.01638612
v 0.01117268 0.2579676 -0.01117228
v 0.01262713 0.2635632 -0.01262676
v 5.62951E-08 0.2635632 -0.01851934
v 5.352664E-08 0.2710805 -0.01965923
v 0.01340431 0.2710805 -0.01340395
v 0.01937065 0.2816571 2.685843E-07
v 0.01320727 0.2816571 0.01320753
v 0.01187435 0.2941596 0.0118746
v 0.01741569 0.2941596 2.561909E-07
v 0.01437962 0.307554 2.465043E-07
v 0.009804299 0.307554 0.009804551
v 0.01079702 0.3209007 2.363046E-07
v 0.007361617 0.3209007 0.00736186
v 0.00468698 0.3332404 0.004687198
v 0.006874216 0.3332404 2.229595E-07
v 0.002596304 0.3446657 2.044807E-07
v 0.00177643 0.3446657 0.001776613
v 3.470324E-08 0.3209007 0.01079732
v 3.888798E-08 0.307554 0.01437992
v -0.009804232 0.307554 0.009804613
v -0.007361566 0.3209007 0.007361917
v -0.01187426 0.2941596 0.01187466
v 4.313485E-08 0.2941596 0.01741599
v -0.00468693 0.3332404 0.004687239
v 3.230667E-08 0.3332404 0.006874479
v 3.129309E-08 0.3446657 0.002596507
v 0.00177643 0.3446657 0.001776613
v 2.737194E-08 0.3499692 2.138646E-07
v 3.129309E-08 0.3446657 0.002596507
v -0.001776374 0.3446657 0.001776631
v -0.01079698 0.3209007 3.019776E-07
v -0.01437955 0.307554 3.261495E-07
v -0.009804225 0.307554 -0.009803964
v -0.007361558 0.3209007 -0.007361315
v -0.01187425 0.2941596 -0.01187398
v -0.0174156 0.2941596 3.441557E-07
v -0.004686922 0.3332404 -0.004686705
v -0.006874177 0.3332404 2.671291E-07
v -0.002596253 0.3446657 2.223122E-07
v -0.001776374 0.3446657 0.001776631
v 2.737194E-08 0.3499692 2.138646E-07
v -0.002596253 0.3446657 2.223122E-07
v -0.001776368 0.3446657 -0.001776186
v 3.019534E-08 0.3209007 -0.01079675
v 3.524351E-08 0.307554 -0.01437932
v 4.190282E-08 0.2941596 -0.01741535
v 2.935926E-08 0.3332404 -0.006873965
v 3.107566E-08 0.3446657 -0.00259607
v -0.001776368 0.3446657 -0.001776186
v 2.737194E-08 0.3499692 2.138646E-07
v 2.737194E-08 0.3499692 2.138646E-07
v 4.621924E-08 0.2816571 0.01937093
v -0.01320717 0.2816571 0.01320758
v -0.01937053 0.2816571 3.59552E-07
v -0.01320716 0.2816571 -0.01320687
v 4.750825E-08 0.2816571 -0.01937027
v 5.352664E-08 0.2710805 -0.01965923
v 5.62951E-08 0.2635632 -0.01851934
v 3.019534E-08 0.3209007 -0.01079675
v 3.524351E-08 0.307554 -0.01437932
v 0.009804289 0.307554 -0.009804014
v 0.007361607 0.3209007 -0.007361351
v 0.01187434 0.2941596 -0.01187404
v 4.190282E-08 0.2941596 -0.01741535
v 0.004686974 0.3332404 -0.004686729
v 2.935926E-08 0.3332404 -0.006873965
v 3.107566E-08 0.3446657 -0.00259607
v 0.001776429 0.3446657 -0.001776196
v 0.002596304 0.3446657 2.044807E-07
v 0.001776429 0.3446657 -0.001776196
v 2.737194E-08 0.3499692 2.138646E-07
v 2.737194E-08 0.3499692 2.138646E-07
v 4.750825E-08 0.2816571 -0.01937027
v 0.01320727 0.2816571 -0.01320694
v 2.737194E-08 0.3499692 2.138646E-07
v 2.737194E-08 0.3499692 2.138646E-07
vt 0.09918618 0.003906369
vt 0.03125 0.03303826
vt 0.1502857 0.03303802
vt 0.03125 0.05480397
vt 0.1502857 0.05480397
vt 0.2666783 0.03303826
vt 0.2013617 0.003906369
vt 0.266679 0.05480421
vt 0.266679 0.06724083
vt 0.1502857 0.0672406
vt 0.150285 0.07726395
vt 0.2666783 0.07726395
vt 0.2666783 0.08908236
vt 0.150285 0.08908236
vt 0.03125024 0.06724083
vt 0.3829134 0.03303826
vt 0.3319063 0.003906369
vt 0.3829134 0.05480444
vt 0.497206 0.03303802
vt 0.4330688 0.003906369
vt 0.4976981 0.05480444
vt 0.497987 0.0672406
vt 0.3829131 0.06724083
vt 0.3829131 0.07726395
vt 0.4982445 0.07726347
vt 0.498497 0.0890826
vt 0.3829134 0.08908212
vt 0.6161702 0.03303778
vt 0.5639653 0.003906369
vt 0.6161702 0.05480397
vt 0.7327394 0.03303826
vt 0.6673236 0.003906369
vt 0.7327394 0.05480397
vt 0.7327394 0.0672406
vt 0.6161702 0.06724083
vt 0.6161702 0.07726395
vt 0.7327394 0.07726395
vt 0.7327394 0.08908236
vt 0.6161702 0.0890826
vt 0.8494134 0.03303826
vt 0.798213 0.003906369
vt 0.8494134 0.05480444
vt 0.9687498 0.03303826
vt 0.900645 0.003906369
vt 0.9687493 0.05480397
vt 0.9687493 0.06724083
vt 0.8494134 0.0672406
vt 0.8494139 0.07726347
vt 0.9687505 0.07726395
vt 0.968749 0.08908236
vt 0.8494139 0.0890826
vt 0.7327394 0.1054226
vt 0.6161702 0.1054226
vt 0.6161702 0.1262707
vt 0.7327394 0.1262704
vt 0.7327394 0.1524123
vt 0.6161702 0.1524125
vt 0.7327394 0.1856405
vt 0.6161702 0.1856405
vt 0.6161702 0.2299236
vt 0.7327394 0.2299238
vt 0.7327394 0.3082138
vt 0.6161702 0.3082138
vt 0.4996448 0.1856405
vt 0.4994335 0.1524123
vt 0.3829131 0.1524125
vt 0.3829131 0.1856405
vt 0.3829131 0.1262711
vt 0.4991443 0.1262704
vt 0.3829134 0.2299238
vt 0.4998345 0.2299238
vt 0.4999404 0.3082141
vt 0.6161702 0.3082138
vt 0.5645771 0.376388
vt 0.4999404 0.3082141
vt 0.3829134 0.3082145
vt 0.2666783 0.1856405
vt 0.266679 0.1524125
vt 0.150285 0.1524125
vt 0.150285 0.1856405
vt 0.1502857 0.1262707
vt 0.266679 0.1262704
vt 0.150285 0.2299241
vt 0.2666783 0.2299236
vt 0.2666783 0.3082141
vt 0.3829134 0.3082145
vt 0.331316 0.376388
vt 0.2666783 0.3082141
vt 0.1502857 0.3082148
vt 0.03125024 0.1856405
vt 0.03125024 0.1524123
vt 0.03125024 0.1262707
vt 0.03125024 0.2299238
vt 0.03125024 0.3082148
vt 0.1502857 0.3082148
vt 0.09859514 0.376388
vt 0.2019517 0.376388
vt 0.4988208 0.1054224
vt 0.3829131 0.1054226
vt 0.266679 0.1054226
vt 0.150285 0.1054226
vt 0.03125 0.1054226
vt 0.03125 0.0890826
vt 0.03125 0.07726395
vt 0.9687507 0.1856409
vt 0.9687505 0.1524125
vt 0.8494139 0.1524125
vt 0.8494134 0.1856402
vt 0.8494139 0.1262709
vt 0.9687505 0.1262709
vt 0.8494134 0.2299241
vt 0.9687498 0.2299238
vt 0.9687498 0.3082143
vt 0.8494134 0.3082148
vt 0.7327394 0.3082138
vt 0.8494134 0.3082148
vt 0.7976213 0.376388
vt 0.9012382 0.376388
vt 0.968749 0.1054226
vt 0.8494139 0.1054226
vt 0.4348619 0.376388
vt 0.6679156 0.376388
vn -6.254444E-07 -1 1.389876E-07
vn -8.995032E-07 -0.9598553 -0.2804954
vn -0.1984202 -0.9598224 -0.1984196
vn -1.260755E-06 -0.838019 -0.545641
vn -0.3858965 -0.8379549 -0.3858958
vn -0.2804961 -0.9598552 -2.075777E-07
vn -6.254444E-07 -1 1.389876E-07
vn -0.5456417 -0.8380186 -2.224863E-07
vn -0.7735339 -0.633755 0
vn -0.5470763 -0.6335741 -0.5470752
vn -0.654451 -0.3786684 -0.6544496
vn -0.925501 -0.3787453 3.44019E-07
vn -0.9923996 -0.1230572 3.520796E-07
vn -0.7017367 -0.1230183 -0.7017351
vn -1.699232E-06 -0.6337557 -0.7735333
vn -0.1984202 -0.9598225 0.1984196
vn -6.254444E-07 -1 1.389876E-07
vn -0.3858963 -0.837955 0.3858958
vn -4.151555E-07 -0.9598553 0.2804959
vn -6.254444E-07 -1 1.389876E-07
vn -2.224864E-07 -0.8380185 0.5456418
vn 0 -0.6337544 0.7735344
vn -0.5470759 -0.6335737 0.5470761
vn -0.6544502 -0.3786674 0.6544508
vn 5.160288E-07 -0.3787439 0.9255015
vn 1.232279E-06 -0.1230552 0.9923999
vn -0.7017355 -0.1230168 0.7017365
vn 0.1984191 -0.9598225 0.1984201
vn -6.254444E-07 -1 1.389876E-07
vn 0.3858955 -0.8379549 0.3858966
vn 0.2804949 -0.9598555 4.151555E-07
vn -6.254444E-07 -1 1.389876E-07
vn 0.5456406 -0.8380193 4.449729E-07
vn 0.7735335 -0.6337554 0
vn 0.547076 -0.6335734 0.5470763
vn 0.6544513 -0.3786664 0.6544505
vn 0.9255013 -0.3787445 -6.880387E-07
vn 0.9923998 -0.1230554 -9.682195E-07
vn 0.701737 -0.1230156 0.7017353
vn 0.1984185 -0.9598228 -0.1984193
vn -6.254444E-07 -1 1.389876E-07
vn 0.3858946 -0.8379558 -0.3858957
vn -8.995032E-07 -0.9598553 -0.2804954
vn -6.254444E-07 -1 1.389876E-07
vn -1.260755E-06 -0.838019 -0.545641
vn -1.699232E-06 -0.6337557 -0.7735333
vn 0.5470744 -0.633575 -0.5470762
vn 0.6544491 -0.3786684 -0.6544515
vn -1.806099E-06 -0.3787459 -0.9255007
vn -2.112478E-06 -0.1230575 -0.9923996
vn 0.7017348 -0.1230175 -0.701737
vn 0.9961759 0.08737008 -1.223604E-06
vn 0.7044049 0.08735435 0.7044026
vn 0.6879165 0.2313986 0.687914
vn 0.9728466 0.2314507 -1.372867E-06
vn 0.9464698 0.3227922 -1.603564E-06
vn 0.6692795 0.3226988 0.669276
vn 0.9171194 0.3986125 -1.760111E-06
vn 0.6484971 0.3986335 0.6484928
vn 0.6024908 0.5234653 0.6024855
vn 0.8518968 0.5237098 -1.65919E-06
vn 0.6396387 0.7686757 -1.450174E-06
vn 0.452238 0.7687435 0.4522326
vn 2.514448E-06 0.3986144 0.9171186
vn 2.025557E-06 0.3227933 0.9464695
vn -0.6692776 0.3226984 0.6692781
vn -0.6484945 0.3986339 0.6484951
vn -0.6879151 0.2313977 0.6879156
vn 1.544477E-06 0.231451 0.9728465
vn -0.602487 0.5234665 0.6024883
vn 3.318386E-06 0.5237124 0.8518952
vn 3.936193E-06 0.7686779 0.639636
vn 0.452238 0.7687435 0.4522326
vn 2.332553E-06 1 -1.166276E-06
vn 3.936193E-06 0.7686779 0.639636
vn -0.4522327 0.7687453 0.4522348
vn -0.9171196 0.3986122 -2.514446E-07
vn -0.9464702 0.3227912 0
vn -0.6692791 0.322696 -0.6692778
vn -0.6484963 0.398631 -0.6484951
vn -0.6879164 0.2313958 -0.687915
vn -0.972847 0.231449 0
vn -0.6024895 0.5234635 -0.6024885
vn -0.8518964 0.5237103 0
vn -0.6396368 0.7686773 -1.035841E-07
vn -0.4522327 0.7687453 0.4522348
vn 2.332553E-06 1 -1.166276E-06
vn -0.6396368 0.7686773 -1.035841E-07
vn -0.4522355 0.7687432 -0.4522355
vn -1.341039E-06 0.398611 -0.9171201
vn -1.434769E-06 0.3227905 -0.9464704
vn -1.887693E-06 0.2314487 -0.9728471
vn -1.135238E-06 0.523709 -0.8518972
vn 0 0.768676 -0.6396382
vn -0.4522355 0.7687432 -0.4522355
vn 2.332553E-06 1 -1.166276E-06
vn 2.332553E-06 1 -1.166276E-06
vn 1.398405E-06 0.08737028 0.9961759
vn -0.7044035 0.08735301 0.7044041
vn -0.9961761 0.08736831 3.496012E-07
vn -0.7044048 0.08735134 -0.704403
vn -2.097607E-06 0.08736796 -0.9961761
vn -2.112478E-06 -0.1230575 -0.9923996
vn -1.806099E-06 -0.3787459 -0.9255007
vn -1.341039E-06 0.398611 -0.9171201
vn -1.434769E-06 0.3227905 -0.9464704
vn 0.6692772 0.3226972 -0.6692792
vn 0.6484948 0.3986317 -0.6484961
vn 0.6879144 0.2313972 -0.6879165
vn -1.887693E-06 0.2314487 -0.9728471
vn 0.6024885 0.5234637 -0.6024892
vn -1.135238E-06 0.523709 -0.8518972
vn 0 0.768676 -0.6396382
vn 0.452236 0.7687427 -0.452236
vn 0.6396387 0.7686757 -1.450174E-06
vn 0.452236 0.7687427 -0.452236
vn 2.332553E-06 1 -1.166276E-06
vn 2.332553E-06 1 -1.166276E-06
vn -2.097607E-06 0.08736796 -0.9961761
vn 0.7044026 0.08735283 -0.7044051
vn 2.332553E-06 1 -1.166276E-06
vn 2.332553E-06 1 -1.166276E-06
g pm0607_00_FireBSkin_0
f 3/3/3 2/2/2 1/1/1
f 4/4/4 2/2/2 3/3/3
f 5/5/5 4/4/4 3/3/3
f 5/5/5 3/3/3 6/6/6
f 6/6/6 3/3/3 7/7/7
f 8/8/8 5/5/5 6/6/6
f 5/5/5 8/8/8 9/9/9
f 10/10/10 5/5/5 9/9/9
f 4/4/4 5/5/5 10/10/10
f 11/11/11 10/10/10 9/9/9
f 12/12/12 11/11/11 9/9/9
f 12/12/12 13/13/13 11/11/11
f 13/13/13 14/14/14 11/11/11
f 15/15/15 4/4/4 10/10/10
f 8/8/8 6/6/6 16/16/16
f 6/6/6 17/17/17 16/16/16
f 18/18/18 8/8/8 16/16/16
f 18/18/18 16/16/16 19/19/19
f 19/19/19 16/16/16 20/20/20
f 21/21/21 18/18/18 19/19/19
f 18/18/18 21/21/21 22/22/22
f 23/23/23 18/18/18 22/22/22
f 8/8/8 18/18/18 23/23/23
f 9/9/9 8/8/8 23/23/23
f 12/12/12 9/9/9 23/23/23
f 24/24/24 23/23/23 22/22/22
f 24/24/24 12/12/12 23/23/23
f 25/25/25 24/24/24 22/22/22
f 25/25/25 26/26/26 24/24/24
f 26/26/26 27/27/27 24/24/24
f 27/27/27 13/13/13 12/12/12
f 24/24/24 27/27/27 12/12/12
f 21/21/21 19/19/19 28/28/28
f 19/19/19 29/29/29 28/28/28
f 30/30/30 21/21/21 28/28/28
f 30/30/30 28/28/28 31/31/31
f 31/31/31 28/28/28 32/32/32
f 33/33/33 30/30/30 31/31/31
f 30/30/30 33/33/33 34/34/34
f 35/35/35 30/30/30 34/34/34
f 21/21/21 30/30/30 35/35/35
f 22/22/22 21/21/21 35/35/35
f 25/25/25 22/22/22 35/35/35
f 36/36/36 35/35/35 34/34/34
f 36/36/36 25/25/25 35/35/35
f 37/37/37 36/36/36 34/34/34
f 37/37/37 38/38/38 36/36/36
f 38/38/38 39/39/39 36/36/36
f 39/39/39 26/26/26 25/25/25
f 36/36/36 39/39/39 25/25/25
f 33/33/33 31/31/31 40/40/40
f 31/31/31 41/41/41 40/40/40
f 42/42/42 33/33/33 40/40/40
f 42/42/42 40/40/40 43/43/43
f 44/44/44 43/43/43 40/40/40
f 45/45/45 42/42/42 43/43/43
f 42/42/42 45/45/45 46/46/46
f 47/47/47 42/42/42 46/46/46
f 33/33/33 42/42/42 47/47/47
f 34/34/34 33/33/33 47/47/47
f 37/37/37 34/34/34 47/47/47
f 48/48/48 47/47/47 46/46/46
f 48/48/48 37/37/37 47/47/47
f 49/49/49 48/48/48 46/46/46
f 49/49/49 50/50/50 48/48/48
f 50/50/50 51/51/51 48/48/48
f 51/51/51 38/38/38 37/37/37
f 48/48/48 51/51/51 37/37/37
f 38/38/38 52/52/52 39/39/39
f 52/52/52 53/53/53 39/39/39
f 53/53/53 52/52/52 54/54/54
f 52/52/52 55/55/55 54/54/54
f 55/55/55 56/56/56 54/54/54
f 56/56/56 57/57/57 54/54/54
f 57/57/57 56/56/56 58/58/58
f 59/59/59 57/57/57 58/58/58
f 60/60/60 59/59/59 58/58/58
f 61/61/61 60/60/60 58/58/58
f 61/61/61 62/62/62 60/60/60
f 62/62/62 63/63/63 60/60/60
f 57/57/57 59/59/59 64/64/64
f 59/59/59 60/60/60 64/64/64
f 65/65/65 57/57/57 64/64/64
f 66/66/66 65/65/65 64/64/64
f 67/67/67 66/66/66 64/64/64
f 65/65/65 66/66/66 68/68/68
f 69/69/69 65/65/65 68/68/68
f 57/57/57 65/65/65 69/69/69
f 54/54/54 57/57/57 69/69/69
f 70/70/70 67/67/67 64/64/64
f 71/71/71 70/70/70 64/64/64
f 60/60/60 71/71/71 64/64/64
f 72/72/72 71/71/71 60/60/60
f 73/73/73 72/72/72 60/60/60
f 74/74/74 72/72/72 73/73/73
f 71/71/71 75/75/75 70/70/70
f 75/75/75 76/76/76 70/70/70
f 66/66/66 67/67/67 77/77/77
f 67/67/67 70/70/70 77/77/77
f 78/78/78 66/66/66 77/77/77
f 79/79/79 78/78/78 77/77/77
f 80/80/80 79/79/79 77/77/77
f 78/78/78 79/79/79 81/81/81
f 82/82/82 78/78/78 81/81/81
f 83/83/83 80/80/80 77/77/77
f 84/84/84 83/83/83 77/77/77
f 70/70/70 84/84/84 77/77/77
f 85/85/85 84/84/84 70/70/70
f 86/86/86 85/85/85 70/70/70
f 87/87/87 85/85/85 86/86/86
f 84/84/84 88/88/88 83/83/83
f 88/88/88 89/89/89 83/83/83
f 79/79/79 80/80/80 90/90/90
f 80/80/80 83/83/83 90/90/90
f 91/91/91 79/79/79 90/90/90
f 79/79/79 91/91/91 92/92/92
f 81/81/81 79/79/79 92/92/92
f 66/66/66 78/78/78 82/82/82
f 68/68/68 66/66/66 82/82/82
f 83/83/83 93/93/93 90/90/90
f 94/94/94 93/93/93 83/83/83
f 95/95/95 94/94/94 83/83/83
f 96/96/96 94/94/94 95/95/95
f 97/97/97 89/89/89 88/88/88
f 98/98/98 69/69/69 68/68/68
f 99/99/99 98/98/98 68/68/68
f 98/98/98 99/99/99 27/27/27
f 26/26/26 98/98/98 27/27/27
f 99/99/99 68/68/68 82/82/82
f 100/100/100 99/99/99 82/82/82
f 100/100/100 82/82/82 81/81/81
f 101/101/101 100/100/100 81/81/81
f 100/100/100 101/101/101 14/14/14
f 13/13/13 100/100/100 14/14/14
f 99/99/99 100/100/100 13/13/13
f 27/27/27 99/99/99 13/13/13
f 101/101/101 81/81/81 92/92/92
f 102/102/102 101/101/101 92/92/92
f 101/101/101 102/102/102 103/103/103
f 14/14/14 101/101/101 103/103/103
f 14/14/14 103/103/103 104/104/104
f 11/11/11 14/14/14 104/104/104
f 11/11/11 104/104/104 10/10/10
f 104/104/104 15/15/15 10/10/10
f 53/53/53 98/98/98 26/26/26
f 98/98/98 53/53/53 69/69/69
f 53/53/53 54/54/54 69/69/69
f 39/39/39 53/53/53 26/26/26
f 107/107/107 106/106/106 105/105/105
f 108/108/108 107/107/107 105/105/105
f 106/106/106 107/107/107 109/109/109
f 110/110/110 106/106/106 109/109/109
f 111/111/111 108/108/108 105/105/105
f 112/112/112 111/111/111 105/105/105
f 112/112/112 113/113/113 111/111/111
f 113/113/113 114/114/114 111/111/111
f 107/107/107 108/108/108 58/58/58
f 108/108/108 111/111/111 58/58/58
f 56/56/56 107/107/107 58/58/58
f 107/107/107 56/56/56 55/55/55
f 109/109/109 107/107/107 55/55/55
f 111/111/111 61/61/61 58/58/58
f 115/115/115 61/61/61 111/111/111
f 116/116/116 115/115/115 111/111/111
f 117/117/117 115/115/115 116/116/116
f 118/118/118 114/114/114 113/113/113
f 119/119/119 110/110/110 109/109/109
f 120/120/120 119/119/119 109/109/109
f 120/120/120 109/109/109 55/55/55
f 119/119/119 120/120/120 51/51/51
f 50/50/50 119/119/119 51/51/51
f 52/52/52 120/120/120 55/55/55
f 120/120/120 52/52/52 38/38/38
f 51/51/51 120/120/120 38/38/38
f 121/121/121 76/76/76 75/75/75
f 122/122/122 63/63/63 62/62/62
