g pm0892_00_EyeCSkin
v 0.1114574 2.249855 0.003859767
v 0.1196989 2.250717 0.003859767
v 0.1210659 2.250396 0.007028317
v 0.1139667 2.248996 0.01148504
v 0.124368 2.24962 0.008346469
v 0.1218089 2.246382 0.01506847
v 0.1276777 2.248818 0.007035032
v 0.1297219 2.243519 0.01250386
v 0.1333463 2.242241 0.003859767
v 0.1290488 2.248479 0.003859767
v 0.1248265 2.250304 0.003859767
v 0.1179357 2.24163 0.02023131
v 0.1295091 2.236685 0.01610035
v 0.1235076 2.221444 0.0210193
v 0.1090803 2.230899 0.02659667
v 0.09676935 2.238612 0.01874829
v 0.1073645 2.245901 0.01495094
v 0.09310909 2.241235 0.003859766
v 0.1035954 2.247317 0.003859767
v 0.1345787 2.234497 0.003859767
v 0.1301508 2.217124 0.003859767
v 0.07872348 2.225271 0.02334965
v 0.09039511 2.210708 0.03425992
v 0.05652788 2.210031 0.02681595
v 0.05411318 2.218261 0.003859766
v 0.07545806 2.230358 0.003859766
v 0.06516842 2.188577 0.03899115
v 0.07634941 2.166012 0.03000837
v 0.1051126 2.193861 0.02691698
v 0.1120895 2.186507 0.003859766
v 0.08159234 2.156729 0.003859766
v 0.03595913 2.197757 0.02904202
v 0.04099331 2.171031 0.04138704
v 0.01451248 2.187997 0.0308727
v 0.01668264 2.157667 0.04296966
v -1.113791E-09 2.184867 0.03144846
v -1.113791E-09 2.153263 0.04347131
v -1.113791E-09 2.19889 0.003859766
v 0.0138653 2.201236 0.003859766
v 0.0194447 2.128941 0.03170373
v -1.113791E-09 2.123666 0.03186935
v 0.02066583 2.117655 0.003859766
v -1.113791E-09 2.112064 0.003859766
v 0.03457125 2.208734 0.003859766
v 0.05082071 2.13448 0.003859766
v 0.04772502 2.144779 0.03115006
v -0.0194447 2.128941 0.03170373
v -0.01668264 2.157667 0.04296966
v -0.02066583 2.117655 0.003859766
v -0.04772502 2.144779 0.03115006
v -0.04099331 2.171031 0.04138704
v -0.05082071 2.13448 0.003859766
v -0.01451248 2.187997 0.0308727
v -0.0138653 2.201236 0.003859766
v -0.03595913 2.197757 0.02904202
v -0.03457125 2.208734 0.003859766
v -0.07634941 2.166012 0.03000837
v -0.06516842 2.188577 0.03899115
v -0.1051126 2.193861 0.02691698
v -0.09039511 2.210708 0.03425992
v -0.05652788 2.210031 0.02681595
v -0.07872348 2.225271 0.02334965
v -0.05411318 2.218261 0.003859766
v -0.07545806 2.230358 0.003859766
v -0.1120895 2.186507 0.003859766
v -0.08159234 2.156729 0.003859766
v -0.1090803 2.230899 0.02659667
v -0.09676935 2.238612 0.01874829
v -0.1179357 2.24163 0.02023131
v -0.1073645 2.245901 0.01495094
v -0.09310909 2.241235 0.003859766
v -0.1035954 2.247317 0.003859767
v -0.1235076 2.221444 0.0210193
v -0.1295091 2.236685 0.01610035
v -0.1345787 2.234497 0.003859767
v -0.1301508 2.217124 0.003859767
v -0.1297219 2.243519 0.01250386
v -0.1218089 2.246382 0.01506847
v -0.1276777 2.248818 0.007035032
v -0.124368 2.24962 0.008346473
v -0.1139667 2.248996 0.01148504
v -0.1210659 2.250396 0.007028318
v -0.1114574 2.249855 0.003859767
v -0.1196989 2.250717 0.003859767
v -0.1333463 2.242241 0.003859767
v -0.1290488 2.248479 0.003859767
v -0.1248265 2.250304 0.003859767
v 0.1333463 2.242241 0.003859767
v 0.1290488 2.248479 0.003859767
v 0.1276777 2.248818 0.0006845009
v 0.1297219 2.243519 -0.004784325
v 0.124368 2.24962 -0.0006269348
v 0.1218089 2.246382 -0.007348934
v 0.1210659 2.250396 0.0006912166
v 0.1139667 2.248996 -0.003765504
v 0.1196989 2.250717 0.003859767
v 0.1114574 2.249855 0.003859767
v 0.1248265 2.250304 0.003859767
v 0.1073645 2.245901 -0.007231405
v 0.1035954 2.247317 0.003859767
v 0.09676935 2.238612 -0.01102876
v 0.1090803 2.230899 -0.01887714
v 0.1179357 2.24163 -0.01251177
v 0.1235076 2.221444 -0.01329976
v 0.1295091 2.236685 -0.008380813
v 0.1301508 2.217124 0.003859767
v 0.1345787 2.234497 0.003859767
v 0.09310909 2.241235 0.003859766
v 0.07872348 2.225271 -0.01563012
v 0.07545806 2.230358 0.003859766
v 0.05652788 2.210031 -0.01909642
v 0.06516842 2.188577 -0.03127162
v 0.09039511 2.210708 -0.02654039
v 0.07634941 2.166012 -0.02228884
v 0.1051126 2.193861 -0.01919745
v 0.08159234 2.156729 0.003859766
v 0.1120895 2.186507 0.003859766
v 0.05411318 2.218261 0.003859766
v 0.03595913 2.197757 -0.02132248
v 0.03457125 2.208734 0.003859766
v 0.01451248 2.187997 -0.02315316
v 0.0138653 2.201236 0.003859766
v -1.113791E-09 2.184867 -0.02372892
v -1.113791E-09 2.19889 0.003859766
v -1.113791E-09 2.153263 -0.03575178
v 0.01668264 2.157667 -0.03525013
v -1.113791E-09 2.123666 -0.02414982
v 0.0194447 2.128941 -0.02398419
v -1.113791E-09 2.112064 0.003859766
v 0.02066583 2.117655 0.003859766
v 0.04099331 2.171031 -0.0336675
v 0.04772502 2.144779 -0.02343054
v 0.05082071 2.13448 0.003859766
v -0.0194447 2.128941 -0.02398419
v -0.02066583 2.117655 0.003859766
v -0.01668264 2.157667 -0.03525013
v -0.01451248 2.187997 -0.02315316
v -0.04772502 2.144779 -0.02343054
v -0.05082071 2.13448 0.003859766
v -0.04099331 2.171031 -0.0336675
v -0.03595913 2.197757 -0.02132248
v -0.03457125 2.208734 0.003859766
v -0.0138653 2.201236 0.003859766
v -0.07634941 2.166012 -0.02228884
v -0.08159234 2.156729 0.003859766
v -0.1051126 2.193861 -0.01919745
v -0.1120895 2.186507 0.003859766
v -0.09039511 2.210708 -0.02654039
v -0.06516842 2.188577 -0.03127162
v -0.07872348 2.225271 -0.01563012
v -0.05652788 2.210031 -0.01909642
v -0.07545806 2.230358 0.003859766
v -0.05411318 2.218261 0.003859766
v -0.09310909 2.241235 0.003859766
v -0.09676935 2.238612 -0.01102876
v -0.1035954 2.247317 0.003859767
v -0.1073645 2.245901 -0.007231405
v -0.1090803 2.230899 -0.01887714
v -0.1179357 2.24163 -0.01251177
v -0.1235076 2.221444 -0.01329976
v -0.1295091 2.236685 -0.008380813
v -0.1301508 2.217124 0.003859767
v -0.1345787 2.234497 0.003859767
v -0.1114574 2.249855 0.003859767
v -0.1139667 2.248996 -0.003765504
v -0.1196989 2.250717 0.003859767
v -0.1210659 2.250396 0.0006912154
v -0.1218089 2.246382 -0.007348934
v -0.124368 2.24962 -0.0006269395
v -0.1297219 2.243519 -0.004784325
v -0.1276777 2.248818 0.0006845009
v -0.1333463 2.242241 0.003859767
v -0.1290488 2.248479 0.003859767
v -0.1248265 2.250304 0.003859767
vt 0.4185303 1.487864
vt 0.4306146 1.485903
vt 0.4306011 1.483686
vt 0.4192089 1.482733
vt 0.4336626 1.481757
vt 0.426381 1.478287
vt 0.4383225 1.480996
vt 0.4364789 1.47597
vt 0.4480864 1.476478
vt 0.4424191 1.481587
vt 0.4373275 1.483985
vt 0.4188281 1.474997
vt 0.4334798 1.471314
vt 0.4225837 1.462199
vt 0.4044581 1.469197
vt 0.3925538 1.477841
vt 0.4089106 1.481107
vt 0.3880532 1.487774
vt 0.406 1.488549
vt 0.4504144 1.470518
vt 0.4452059 1.456812
vt 0.3652636 1.471545
vt 0.3758981 1.458594
vt 0.3322022 1.464168
vt 0.326212 1.480404
vt 0.3590477 1.484862
vt 0.3389764 1.447198
vt 0.3514683 1.430826
vt 0.3934367 1.446337
vt 0.4178894 1.434544
vt 0.3715628 1.414621
vt 0.3019063 1.458089
vt 0.3045768 1.438157
vt 0.2706845 1.453081
vt 0.2715502 1.431161
vt 0.249981 1.451477
vt 0.249999 1.428748
vt 0.249974 1.47256
vt 0.2686177 1.473494
vt 0.2738209 1.411398
vt 0.2500193 1.408906
vt 0.2805163 1.391928
vt 0.2500452 1.389416
vt 0.2976418 1.476553
vt 0.3254165 1.401105
vt 0.3113723 1.419446
vt 0.2262074 1.411387
vt 0.228439 1.431157
vt 0.21956 1.391905
vt 0.1886158 1.419423
vt 0.1953859 1.438149
vt 0.1745955 1.401062
vt 0.2292726 1.453081
vt 0.2313296 1.473495
vt 0.1980372 1.458091
vt 0.2022996 1.476562
vt 0.1484612 1.430805
vt 0.16095 1.447195
vt 0.1064272 1.44633
vt 0.1239904 1.458611
vt 0.1677189 1.464175
vt 0.1346284 1.471559
vt 0.1737097 1.480418
vt 0.1408446 1.484879
vt 0.08194606 1.434528
vt 0.1283634 1.414578
vt 0.09539537 1.469195
vt 0.1073113 1.477852
vt 0.08102328 1.475025
vt 0.09094904 1.481128
vt 0.1118223 1.487788
vt 0.0938755 1.48857
vt 0.0772482 1.462234
vt 0.06635989 1.471352
vt 0.049415 1.470558
vt 0.05460753 1.456846
vt 0.06335902 1.47601
vt 0.07346776 1.478325
vt 0.06153619 1.481038
vt 0.06621663 1.481806
vt 0.0806547 1.48276
vt 0.0692433 1.483706
vt 0.08134215 1.487897
vt 0.06925508 1.485949
vt 0.05176227 1.476528
vt 0.05742186 1.481624
vt 0.06251551 1.484029
vt 0.5499306 1.473841
vt 0.5554899 1.47905
vt 0.5596851 1.478486
vt 0.5616359 1.47339
vt 0.5643996 1.47929
vt 0.571804 1.475781
vt 0.56742 1.481261
vt 0.5789303 1.480357
vt 0.5673387 1.483535
vt 0.5793916 1.48559
vt 0.5605834 1.481532
vt 0.5892908 1.478805
vt 0.5918723 1.486403
vt 0.6057605 1.475735
vt 0.5941473 1.466878
vt 0.5794999 1.472539
vt 0.5761862 1.459621
vt 0.5648131 1.468702
vt 0.5536443 1.453922
vt 0.5477211 1.467741
vt 0.6098524 1.485847
vt 0.6334127 1.4698
vt 0.6390027 1.48329
vt 0.6669088 1.462878
vt 0.6607245 1.445756
vt 0.6232944 1.45666
vt 0.6487203 1.429235
vt 0.6062706 1.444187
vt 0.6291562 1.412869
vt 0.5823991 1.432086
vt 0.6721826 1.479329
vt 0.6975926 1.457122
vt 0.7012402 1.475866
vt 0.7290608 1.452299
vt 0.7308174 1.473047
vt 0.7498625 1.450719
vt 0.7498334 1.472178
vt 0.7498653 1.427784
vt 0.7283927 1.430171
vt 0.7498521 1.407893
vt 0.7262758 1.410335
vt 0.7498289 1.38844
vt 0.7198225 1.390862
vt 0.6953765 1.437018
vt 0.6889129 1.418178
vt 0.6752408 1.399732
vt 0.7734413 1.410331
vt 0.7798549 1.390844
vt 0.7713448 1.430177
vt 0.7706682 1.452314
vt 0.8108556 1.41818
vt 0.8245236 1.399706
vt 0.8043935 1.437042
vt 0.8021595 1.457165
vt 0.7984547 1.475925
vt 0.7688524 1.473069
vt 0.8511302 1.429264
vt 0.8707331 1.412869
vt 0.8936691 1.444272
vt 0.9176016 1.432157
vt 0.8766025 1.456761
vt 0.8390988 1.44581
vt 0.866452 1.469917
vt 0.8328847 1.462955
vt 0.860829 1.483422
vt 0.8275625 1.479425
vt 0.8900614 1.485997
vt 0.8941708 1.47588
vt 0.9080771 1.48656
vt 0.9106717 1.478962
vt 0.9058083 1.467019
vt 0.9204788 1.472697
vt 0.9237998 1.459761
vt 0.9351796 1.468861
vt 0.9463775 1.454064
vt 0.9522789 1.467905
vt 0.9205719 1.485751
vt 0.9210411 1.480518
vt 0.9326411 1.483696
vt 0.9325723 1.481427
vt 0.9281811 1.475944
vt 0.9355944 1.479461
vt 0.9383544 1.473554
vt 0.9403003 1.478656
vt 0.9500636 1.474008
vt 0.9444948 1.479217
vt 0.9393895 1.481695
vn -0.1104638 0.9938802 -2.843886E-06
vn 0.06247933 0.9980462 -3.608409E-06
vn 0.09198017 0.9613298 0.2595854
vn 0.0005201958 0.9299636 0.3676513
vn 0.3349557 0.8869497 0.3180015
vn 0.3324987 0.7681448 0.547173
vn 0.5993896 0.7444459 0.2941638
vn 0.7047542 0.5679319 0.4251761
vn 0.8697172 0.4935504 -1.971343E-06
vn 0.6517611 0.7584244 -3.840017E-06
vn 0.3489659 0.9371354 -3.933735E-06
vn 0.3071396 0.585149 0.7505104
vn 0.7794049 0.2587661 0.5705857
vn 0.7500482 -0.06568818 0.6581131
vn 0.252591 0.3805119 0.8896114
vn -0.2019811 0.7790687 0.5935113
vn -0.1090987 0.8616354 0.4956632
vn -0.3748615 0.9270808 -1.110541E-06
vn -0.261885 0.9650991 -2.237756E-06
vn 0.9932044 0.1163829 -5.16726E-07
vn 0.9654148 -0.2607191 0
vn -0.2519827 0.7141057 0.6531139
vn 0.1920905 0.2173956 0.9569955
vn -0.2539458 0.6768633 0.690918
vn -0.4157214 0.909492 -2.574099E-07
vn -0.4249125 0.9052344 -6.620579E-07
vn 0.1441755 0.1042242 0.9840481
vn 0.5435582 -0.4742295 0.6925683
vn 0.6551973 -0.3103234 0.6887785
vn 0.8469765 -0.5316304 0
vn 0.7047355 -0.7094701 0
vn -0.2088666 0.6605855 0.7211114
vn 0.1081676 0.0265245 0.9937788
vn -0.119287 0.6545372 0.7465599
vn 0.06417146 -0.02470899 0.9976329
vn 0 0.6534852 0.7569393
vn 1.724059E-07 -0.04463908 0.9990032
vn 0 1 -4.777486E-07
vn -0.2043489 0.9788981 0
vn 0.2430494 -0.6717548 0.699766
vn 0 -0.7081514 0.7060606
vn 0.3200906 -0.9473869 0
vn 0 -1 0
vn -0.3462251 0.9381515 1.788217E-07
vn 0.5450012 -0.8384353 0
vn 0.4184062 -0.587866 0.6923509
vn -0.2430492 -0.6717549 0.6997661
vn -0.0641713 -0.02470881 0.9976329
vn -0.3200905 -0.947387 0
vn -0.4184061 -0.5878661 0.6923509
vn -0.1081674 0.02652486 0.9937788
vn -0.5450009 -0.8384355 0
vn 0.1192873 0.6545375 0.7465596
vn 0.2043491 0.978898 -2.802539E-07
vn 0.2088669 0.6605856 0.7211112
vn 0.3462253 0.9381514 -2.682324E-07
vn -0.5435578 -0.4742296 0.6925685
vn -0.1441752 0.1042242 0.9840482
vn -0.6551973 -0.3103234 0.6887786
vn -0.1920904 0.2173954 0.9569955
vn 0.2539461 0.6768633 0.690918
vn 0.2519825 0.7141054 0.6531143
vn 0.4157216 0.9094919 0
vn 0.4249126 0.9052344 0
vn -0.8469765 -0.5316304 0
vn -0.7047353 -0.7094703 0
vn -0.2525908 0.3805116 0.8896116
vn 0.2019809 0.7790679 0.5935125
vn -0.3071395 0.5851479 0.7505113
vn 0.1090984 0.8616342 0.4956653
vn 0.3748615 0.9270808 0
vn 0.2618852 0.965099 4.475515E-07
vn -0.7500479 -0.06568817 0.6581134
vn -0.7794044 0.2587662 0.5705864
vn -0.9932044 0.116383 8.612099E-07
vn -0.9654148 -0.2607189 1.769419E-07
vn -0.7047536 0.5679308 0.4251789
vn -0.3324986 0.7681432 0.5471752
vn -0.5993888 0.7444448 0.2941683
vn -0.3349551 0.8869482 0.318006
vn -0.0005204059 0.9299623 0.3676546
vn -0.09198011 0.9613287 0.2595899
vn 0.1104636 0.9938802 9.710832E-07
vn -0.06247947 0.9980462 2.004672E-06
vn -0.8697169 0.4935508 2.207903E-06
vn -0.6517611 0.7584244 3.332843E-06
vn -0.3489657 0.9371355 2.950299E-06
vn 0.8697172 0.4935504 -1.971343E-06
vn 0.6517611 0.7584244 -3.840017E-06
vn 0.599389 0.744444 -0.2941701
vn 0.7047535 0.5679303 -0.4251796
vn 0.3349554 0.8869476 -0.3180078
vn 0.3324988 0.7681422 -0.5471765
vn 0.09198025 0.9613281 -0.2595917
vn 0.0005206158 0.9299616 -0.3676563
vn 0.06247933 0.9980462 -3.608409E-06
vn -0.1104638 0.9938802 -2.843886E-06
vn 0.3489659 0.9371354 -3.933735E-06
vn -0.1090982 0.8616337 -0.4956661
vn -0.261885 0.9650991 -2.237756E-06
vn -0.2019806 0.7790676 -0.5935128
vn 0.2525913 0.3805111 -0.8896117
vn 0.3071398 0.5851475 -0.7505115
vn 0.7500483 -0.06568842 -0.658113
vn 0.7794046 0.2587655 -0.5705864
vn 0.9654148 -0.2607191 0
vn 0.9932044 0.1163829 -5.16726E-07
vn -0.3748615 0.9270808 -1.110541E-06
vn -0.2519823 0.7141051 -0.6531147
vn -0.4249125 0.9052344 -6.620579E-07
vn -0.2539456 0.6768631 -0.6909182
vn 0.1441758 0.1042237 -0.9840482
vn 0.192091 0.2173949 -0.9569955
vn 0.5435583 -0.4742296 -0.6925681
vn 0.6551977 -0.3103236 -0.688778
vn 0.7047355 -0.7094701 0
vn 0.8469765 -0.5316304 0
vn -0.4157214 0.909492 -2.574099E-07
vn -0.2088666 0.6605855 -0.7211113
vn -0.3462251 0.9381515 1.788217E-07
vn -0.1192872 0.6545372 -0.7465599
vn -0.2043489 0.9788981 0
vn 0 0.6534848 -0.7569396
vn 0 1 -4.777486E-07
vn 0 -0.04463916 -0.9990032
vn 0.06417148 -0.02470899 -0.9976329
vn 0 -0.7081514 -0.7060606
vn 0.2430493 -0.6717549 -0.6997659
vn 0 -1 0
vn 0.3200906 -0.9473869 0
vn 0.1081677 0.02652469 -0.9937788
vn 0.4184065 -0.5878662 -0.6923506
vn 0.5450012 -0.8384353 0
vn -0.2430493 -0.6717549 -0.699766
vn -0.3200905 -0.947387 0
vn -0.06417129 -0.02470898 -0.9976329
vn 0.1192872 0.6545371 -0.74656
vn -0.4184062 -0.5878661 -0.6923508
vn -0.5450009 -0.8384355 0
vn -0.1081675 0.02652451 -0.9937788
vn 0.2088668 0.6605854 -0.7211114
vn 0.3462253 0.9381514 -2.682324E-07
vn 0.2043491 0.978898 -2.802539E-07
vn -0.5435579 -0.4742296 -0.6925685
vn -0.7047353 -0.7094703 0
vn -0.6551973 -0.3103234 -0.6887786
vn -0.8469765 -0.5316304 0
vn -0.1920904 0.217395 -0.9569957
vn -0.1441755 0.104224 -0.9840482
vn 0.2519825 0.7141053 -0.6531144
vn 0.2539459 0.676863 -0.6909181
vn 0.4249126 0.9052344 0
vn 0.4157216 0.9094919 0
vn 0.3748615 0.9270808 0
vn 0.2019809 0.7790679 -0.5935125
vn 0.2618852 0.965099 4.475515E-07
vn 0.1090984 0.8616344 -0.4956648
vn -0.252591 0.3805117 -0.8896115
vn -0.3071399 0.5851482 -0.7505109
vn -0.750048 -0.06568818 -0.6581131
vn -0.7794051 0.2587664 -0.5705853
vn -0.9654148 -0.2607189 1.769419E-07
vn -0.9932044 0.116383 8.612099E-07
vn 0.1104636 0.9938802 9.710832E-07
vn -0.0005205464 0.9299629 -0.367653
vn -0.06247947 0.9980462 2.004672E-06
vn -0.09198052 0.9613295 -0.2595866
vn -0.3324994 0.7681441 -0.5471735
vn -0.3349559 0.8869495 -0.3180016
vn -0.7047548 0.5679317 -0.4251757
vn -0.59939 0.7444459 -0.2941632
vn -0.8697169 0.4935508 2.207903E-06
vn -0.6517611 0.7584244 3.332843E-06
vn -0.3489657 0.9371355 2.950299E-06
g pm0892_00_EyeCSkin_0
f 3/3/3 2/2/2 1/1/1
f 4/4/4 3/3/3 1/1/1
f 5/5/5 3/3/3 4/4/4
f 6/6/6 5/5/5 4/4/4
f 7/7/7 5/5/5 6/6/6
f 8/8/8 7/7/7 6/6/6
f 7/7/7 8/8/8 9/9/9
f 10/10/10 7/7/7 9/9/9
f 7/7/7 10/10/10 5/5/5
f 10/10/10 11/11/11 5/5/5
f 11/11/11 2/2/2 3/3/3
f 5/5/5 11/11/11 3/3/3
f 8/8/8 6/6/6 12/12/12
f 13/13/13 8/8/8 12/12/12
f 9/9/9 8/8/8 13/13/13
f 13/13/13 12/12/12 14/14/14
f 12/12/12 15/15/15 14/14/14
f 15/15/15 12/12/12 16/16/16
f 12/12/12 17/17/17 16/16/16
f 6/6/6 4/4/4 17/17/17
f 12/12/12 6/6/6 17/17/17
f 16/16/16 17/17/17 18/18/18
f 17/17/17 19/19/19 18/18/18
f 17/17/17 4/4/4 19/19/19
f 20/20/20 13/13/13 14/14/14
f 20/20/20 9/9/9 13/13/13
f 21/21/21 20/20/20 14/14/14
f 15/15/15 16/16/16 22/22/22
f 23/23/23 15/15/15 22/22/22
f 23/23/23 22/22/22 24/24/24
f 24/24/24 22/22/22 25/25/25
f 22/22/22 26/26/26 25/25/25
f 16/16/16 18/18/18 26/26/26
f 22/22/22 16/16/16 26/26/26
f 27/27/27 23/23/23 24/24/24
f 23/23/23 27/27/27 28/28/28
f 29/29/29 23/23/23 28/28/28
f 21/21/21 14/14/14 29/29/29
f 15/15/15 23/23/23 29/29/29
f 14/14/14 15/15/15 29/29/29
f 30/30/30 29/29/29 28/28/28
f 30/30/30 21/21/21 29/29/29
f 31/31/31 30/30/30 28/28/28
f 27/27/27 24/24/24 32/32/32
f 33/33/33 27/27/27 32/32/32
f 28/28/28 27/27/27 33/33/33
f 33/33/33 32/32/32 34/34/34
f 35/35/35 33/33/33 34/34/34
f 35/35/35 34/34/34 36/36/36
f 37/37/37 35/35/35 36/36/36
f 36/36/36 34/34/34 38/38/38
f 34/34/34 39/39/39 38/38/38
f 34/34/34 32/32/32 39/39/39
f 40/40/40 35/35/35 37/37/37
f 41/41/41 40/40/40 37/37/37
f 42/42/42 40/40/40 41/41/41
f 43/43/43 42/42/42 41/41/41
f 32/32/32 44/44/44 39/39/39
f 42/42/42 45/45/45 40/40/40
f 45/45/45 46/46/46 40/40/40
f 46/46/46 33/33/33 35/35/35
f 40/40/40 46/46/46 35/35/35
f 45/45/45 31/31/31 46/46/46
f 32/32/32 24/24/24 44/44/44
f 24/24/24 25/25/25 44/44/44
f 46/46/46 28/28/28 33/33/33
f 31/31/31 28/28/28 46/46/46
f 47/47/47 41/41/41 37/37/37
f 48/48/48 47/47/47 37/37/37
f 49/49/49 43/43/43 41/41/41
f 47/47/47 49/49/49 41/41/41
f 50/50/50 47/47/47 48/48/48
f 51/51/51 50/50/50 48/48/48
f 52/52/52 49/49/49 47/47/47
f 50/50/50 52/52/52 47/47/47
f 51/51/51 48/48/48 53/53/53
f 53/53/53 48/48/48 36/36/36
f 53/53/53 36/36/36 38/38/38
f 54/54/54 53/53/53 38/38/38
f 48/48/48 37/37/37 36/36/36
f 55/55/55 53/53/53 54/54/54
f 55/55/55 51/51/51 53/53/53
f 56/56/56 55/55/55 54/54/54
f 57/57/57 50/50/50 51/51/51
f 58/58/58 57/57/57 51/51/51
f 58/58/58 51/51/51 55/55/55
f 59/59/59 57/57/57 58/58/58
f 60/60/60 59/59/59 58/58/58
f 60/60/60 58/58/58 61/61/61
f 61/61/61 55/55/55 56/56/56
f 61/61/61 58/58/58 55/55/55
f 62/62/62 60/60/60 61/61/61
f 62/62/62 61/61/61 63/63/63
f 63/63/63 61/61/61 56/56/56
f 64/64/64 62/62/62 63/63/63
f 59/59/59 65/65/65 57/57/57
f 65/65/65 66/66/66 57/57/57
f 67/67/67 60/60/60 62/62/62
f 68/68/68 67/67/67 62/62/62
f 68/68/68 62/62/62 64/64/64
f 69/69/69 67/67/67 68/68/68
f 70/70/70 69/69/69 68/68/68
f 70/70/70 68/68/68 71/71/71
f 71/71/71 68/68/68 64/64/64
f 72/72/72 70/70/70 71/71/71
f 67/67/67 69/69/69 73/73/73
f 73/73/73 59/59/59 60/60/60
f 67/67/67 73/73/73 60/60/60
f 69/69/69 74/74/74 73/73/73
f 74/74/74 75/75/75 73/73/73
f 75/75/75 76/76/76 73/73/73
f 77/77/77 74/74/74 69/69/69
f 78/78/78 77/77/77 69/69/69
f 78/78/78 69/69/69 70/70/70
f 79/79/79 77/77/77 78/78/78
f 80/80/80 79/79/79 78/78/78
f 80/80/80 78/78/78 81/81/81
f 81/81/81 78/78/78 70/70/70
f 81/81/81 70/70/70 72/72/72
f 82/82/82 80/80/80 81/81/81
f 82/82/82 81/81/81 83/83/83
f 83/83/83 81/81/81 72/72/72
f 84/84/84 82/82/82 83/83/83
f 77/77/77 79/79/79 85/85/85
f 85/85/85 75/75/75 74/74/74
f 77/77/77 85/85/85 74/74/74
f 79/79/79 86/86/86 85/85/85
f 86/86/86 79/79/79 80/80/80
f 87/87/87 86/86/86 80/80/80
f 87/87/87 80/80/80 82/82/82
f 84/84/84 87/87/87 82/82/82
f 73/73/73 76/76/76 59/59/59
f 76/76/76 65/65/65 59/59/59
f 90/90/90 89/89/89 88/88/88
f 91/91/91 90/90/90 88/88/88
f 92/92/92 90/90/90 91/91/91
f 90/90/90 92/92/92 89/89/89
f 93/93/93 92/92/92 91/91/91
f 94/94/94 92/92/92 93/93/93
f 95/95/95 94/94/94 93/93/93
f 96/96/96 94/94/94 95/95/95
f 97/97/97 96/96/96 95/95/95
f 94/94/94 96/96/96 98/98/98
f 92/92/92 94/94/94 98/98/98
f 92/92/92 98/98/98 89/89/89
f 97/97/97 95/95/95 99/99/99
f 100/100/100 97/97/97 99/99/99
f 100/100/100 99/99/99 101/101/101
f 101/101/101 99/99/99 102/102/102
f 99/99/99 103/103/103 102/102/102
f 95/95/95 93/93/93 103/103/103
f 99/99/99 95/95/95 103/103/103
f 102/102/102 103/103/103 104/104/104
f 103/103/103 105/105/105 104/104/104
f 93/93/93 91/91/91 105/105/105
f 103/103/103 93/93/93 105/105/105
f 104/104/104 105/105/105 106/106/106
f 105/105/105 107/107/107 106/106/106
f 108/108/108 100/100/100 101/101/101
f 105/105/105 91/91/91 107/107/107
f 91/91/91 88/88/88 107/107/107
f 108/108/108 101/101/101 109/109/109
f 110/110/110 108/108/108 109/109/109
f 110/110/110 109/109/109 111/111/111
f 111/111/111 109/109/109 112/112/112
f 109/109/109 113/113/113 112/112/112
f 101/101/101 102/102/102 113/113/113
f 109/109/109 101/101/101 113/113/113
f 112/112/112 113/113/113 114/114/114
f 113/113/113 115/115/115 114/114/114
f 102/102/102 104/104/104 115/115/115
f 113/113/113 102/102/102 115/115/115
f 114/114/114 115/115/115 116/116/116
f 115/115/115 117/117/117 116/116/116
f 104/104/104 106/106/106 117/117/117
f 115/115/115 104/104/104 117/117/117
f 118/118/118 110/110/110 111/111/111
f 118/118/118 111/111/111 119/119/119
f 120/120/120 118/118/118 119/119/119
f 120/120/120 119/119/119 121/121/121
f 122/122/122 120/120/120 121/121/121
f 122/122/122 121/121/121 123/123/123
f 124/124/124 122/122/122 123/123/123
f 123/123/123 121/121/121 125/125/125
f 121/121/121 126/126/126 125/125/125
f 121/121/121 119/119/119 126/126/126
f 125/125/125 126/126/126 127/127/127
f 126/126/126 128/128/128 127/127/127
f 127/127/127 128/128/128 129/129/129
f 128/128/128 130/130/130 129/129/129
f 119/119/119 131/131/131 126/126/126
f 126/126/126 131/131/131 128/128/128
f 131/131/131 132/132/132 128/128/128
f 128/128/128 132/132/132 130/130/130
f 132/132/132 133/133/133 130/130/130
f 119/119/119 111/111/111 131/131/131
f 111/111/111 112/112/112 131/131/131
f 131/131/131 112/112/112 132/132/132
f 112/112/112 114/114/114 132/132/132
f 132/132/132 114/114/114 133/133/133
f 114/114/114 116/116/116 133/133/133
f 134/134/134 127/127/127 129/129/129
f 135/135/135 134/134/134 129/129/129
f 136/136/136 125/125/125 127/127/127
f 134/134/134 136/136/136 127/127/127
f 136/136/136 137/137/137 125/125/125
f 138/138/138 134/134/134 135/135/135
f 139/139/139 138/138/138 135/135/135
f 140/140/140 136/136/136 134/134/134
f 138/138/138 140/140/140 134/134/134
f 141/141/141 137/137/137 136/136/136
f 140/140/140 141/141/141 136/136/136
f 141/141/141 142/142/142 137/137/137
f 142/142/142 143/143/143 137/137/137
f 137/137/137 143/143/143 123/123/123
f 137/137/137 123/123/123 125/125/125
f 143/143/143 124/124/124 123/123/123
f 144/144/144 138/138/138 139/139/139
f 145/145/145 144/144/144 139/139/139
f 146/146/146 144/144/144 145/145/145
f 147/147/147 146/146/146 145/145/145
f 146/146/146 148/148/148 144/144/144
f 148/148/148 149/149/149 144/144/144
f 149/149/149 140/140/140 138/138/138
f 144/144/144 149/149/149 138/138/138
f 148/148/148 150/150/150 149/149/149
f 150/150/150 151/151/151 149/149/149
f 151/151/151 141/141/141 140/140/140
f 149/149/149 151/151/151 140/140/140
f 150/150/150 152/152/152 151/151/151
f 152/152/152 153/153/153 151/151/151
f 153/153/153 142/142/142 141/141/141
f 151/151/151 153/153/153 141/141/141
f 154/154/154 152/152/152 150/150/150
f 155/155/155 154/154/154 150/150/150
f 155/155/155 150/150/150 148/148/148
f 156/156/156 154/154/154 155/155/155
f 157/157/157 156/156/156 155/155/155
f 157/157/157 155/155/155 158/158/158
f 158/158/158 155/155/155 148/148/148
f 158/158/158 148/148/148 146/146/146
f 159/159/159 157/157/157 158/158/158
f 159/159/159 158/158/158 160/160/160
f 160/160/160 158/158/158 146/146/146
f 160/160/160 146/146/146 147/147/147
f 161/161/161 159/159/159 160/160/160
f 161/161/161 160/160/160 162/162/162
f 162/162/162 160/160/160 147/147/147
f 163/163/163 161/161/161 162/162/162
f 164/164/164 156/156/156 157/157/157
f 165/165/165 164/164/164 157/157/157
f 165/165/165 157/157/157 159/159/159
f 166/166/166 164/164/164 165/165/165
f 167/167/167 166/166/166 165/165/165
f 167/167/167 165/165/165 168/168/168
f 168/168/168 165/165/165 159/159/159
f 168/168/168 159/159/159 161/161/161
f 169/169/169 167/167/167 168/168/168
f 169/169/169 168/168/168 170/170/170
f 170/170/170 168/168/168 161/161/161
f 170/170/170 161/161/161 163/163/163
f 171/171/171 169/169/169 170/170/170
f 171/171/171 170/170/170 172/172/172
f 172/172/172 170/170/170 163/163/163
f 173/173/173 171/171/171 172/172/172
f 169/169/169 171/171/171 173/173/173
f 167/167/167 169/169/169 174/174/174
f 166/166/166 167/167/167 174/174/174
f 174/174/174 169/169/169 173/173/173
f 4/4/4 1/1/1 19/19/19
f 66/66/66 52/52/52 50/50/50
f 57/57/57 66/66/66 50/50/50
