g pm0891_00_EyeFSkin
v 0.01303087 0.1205476 0.001985252
v 0.01424818 0.1208997 0.005205295
v 0.01588972 0.1201719 0.003681069
v 0.01521104 0.1200002 0.001985252
v 0.01752824 0.1205946 0.004383498
v 0.01733677 0.1218311 0.006507592
v 0.01916672 0.1210275 0.003681069
v 0.02042793 0.1227972 0.005241137
v 0.02166823 0.1231894 0.001985252
v 0.0198454 0.1212085 0.001985252
v 0.01761907 0.1200456 0.001985252
v 0.01677413 0.1239649 0.007915406
v 0.02071015 0.1255625 0.006246467
v 0.01986511 0.1285087 0.006571548
v 0.01581411 0.1263652 0.008452836
v 0.01178119 0.124331 0.006531299
v 0.0128863 0.1224449 0.006161646
v 0.01024485 0.1235224 0.001985252
v 0.011334 0.1218689 0.001985252
v 0.02232841 0.1262387 0.001985252
v 0.02155695 0.1294265 0.001985252
v 0.01078694 0.126014 0.006520009
v 0.01440891 0.1286326 0.008416372
v 0.009072465 0.1277833 0.00649445
v 0.007868805 0.1264372 0.001985252
v 0.009323171 0.1249667 0.001985252
v 0.01196205 0.1310894 0.008366624
v 0.01480979 0.1344664 0.006495342
v 0.01800308 0.131347 0.00653388
v 0.01949251 0.1325007 0.001985252
v 0.01598622 0.1358695 0.001985252
v 0.006392268 0.1293419 0.006476876
v 0.008367191 0.1332519 0.008336921
v 0.00340742 0.1302036 0.006471128
v 0.004370138 0.1345288 0.008329043
v -5.293956E-25 0.1304765 0.006472755
v -5.293956E-25 0.134964 0.008331539
v -5.293956E-25 0.1286177 0.001985252
v 0.002998043 0.1284337 0.001985252
v 0.005319338 0.1388636 0.006471187
v -5.293956E-25 0.1394515 0.006472754
v 0.005711123 0.1406593 0.001985252
v -5.293956E-25 0.1413103 0.001985252
v 0.005561046 0.1277387 0.001985252
v 0.01111336 0.1388275 0.001985252
v 0.01031119 0.1371906 0.006475117
v -0.005319338 0.1388636 0.006471187
v -0.004370138 0.1345288 0.008329043
v -0.005711123 0.1406593 0.001985252
v -0.01031119 0.1371906 0.006475117
v -0.008367191 0.1332519 0.008336921
v -0.01111336 0.1388275 0.001985252
v -0.00340742 0.1302036 0.006471128
v -0.002998043 0.1284337 0.001985252
v -0.006392268 0.1293419 0.006476876
v -0.005561046 0.1277387 0.001985252
v -0.01480979 0.1344664 0.006495342
v -0.01196205 0.1310894 0.008366624
v -0.01800308 0.131347 0.00653388
v -0.01440891 0.1286326 0.008416372
v -0.009072465 0.1277833 0.00649445
v -0.01078694 0.126014 0.006520009
v -0.007868805 0.1264372 0.001985252
v -0.009323171 0.1249667 0.001985252
v -0.01949251 0.1325007 0.001985252
v -0.01598622 0.1358695 0.001985252
v -0.01581411 0.1263652 0.008452836
v -0.01178119 0.124331 0.006531299
v -0.01677413 0.1239649 0.007915406
v -0.0128863 0.1224449 0.006161646
v -0.01024485 0.1235224 0.001985252
v -0.011334 0.1218689 0.001985252
v -0.01986511 0.1285087 0.006571548
v -0.02071015 0.1255625 0.006246467
v -0.02232841 0.1262387 0.001985252
v -0.02155695 0.1294265 0.001985252
v -0.02042793 0.1227972 0.005241137
v -0.01733677 0.1218311 0.006507592
v -0.01916672 0.1210275 0.003681069
v -0.01752824 0.1205946 0.004383498
v -0.01424818 0.1208997 0.005205295
v -0.01588972 0.1201719 0.003681069
v -0.01303087 0.1205476 0.001985252
v -0.01521104 0.1200002 0.001985252
v -0.02166823 0.1231894 0.001985252
v -0.0198454 0.1212085 0.001985252
v -0.01761907 0.1200456 0.001985252
v 0.02166823 0.1231894 0.001985252
v 0.02042793 0.1227972 -0.001270633
v 0.01916672 0.1210275 0.0002894352
v 0.0198454 0.1212085 0.001985252
v 0.01752824 0.1205946 -0.0004129929
v 0.01733677 0.1218311 -0.002537097
v 0.01588972 0.1201719 0.0002894352
v 0.01424818 0.1208997 -0.001234789
v 0.01521104 0.1200002 0.001985252
v 0.01303087 0.1205476 0.001985252
v 0.01761907 0.1200456 0.001985252
v 0.0128863 0.1224449 -0.002191141
v 0.011334 0.1218689 0.001985252
v 0.01178119 0.124331 -0.002560794
v 0.01581411 0.1263652 -0.004482332
v 0.01677413 0.1239649 -0.003944902
v 0.01986511 0.1285087 -0.002601043
v 0.02071015 0.1255625 -0.002275962
v 0.02155695 0.1294265 0.001985252
v 0.02232841 0.1262387 0.001985252
v 0.01024485 0.1235224 0.001985252
v 0.01078694 0.126014 -0.002549503
v 0.009323171 0.1249667 0.001985252
v 0.009072465 0.1277833 -0.002523944
v 0.01196205 0.1310894 -0.004396119
v 0.01440891 0.1286326 -0.004445867
v 0.01480979 0.1344664 -0.002524836
v 0.01800308 0.131347 -0.002563375
v 0.01598622 0.1358695 0.001985252
v 0.01949251 0.1325007 0.001985252
v 0.007868805 0.1264372 0.001985252
v 0.006392268 0.1293419 -0.002506371
v 0.005561046 0.1277387 0.001985252
v 0.00340742 0.1302036 -0.002500622
v 0.002998043 0.1284337 0.001985252
v -5.293956E-25 0.1304765 -0.00250225
v -5.293956E-25 0.1286177 0.001985252
v -5.293956E-25 0.134964 -0.004361034
v 0.004370138 0.1345288 -0.004358537
v -5.293956E-25 0.1394515 -0.00250225
v 0.005319338 0.1388636 -0.002500683
v -5.293956E-25 0.1413103 0.001985252
v 0.005711123 0.1406593 0.001985252
v 0.008367191 0.1332519 -0.004366416
v 0.01031119 0.1371906 -0.002504612
v 0.01111336 0.1388275 0.001985252
v -0.005319338 0.1388636 -0.002500683
v -0.005711123 0.1406593 0.001985252
v -0.004370138 0.1345288 -0.004358537
v -0.00340742 0.1302036 -0.002500622
v -0.01031119 0.1371906 -0.002504612
v -0.01111336 0.1388275 0.001985252
v -0.008367191 0.1332519 -0.004366416
v -0.006392268 0.1293419 -0.002506371
v -0.005561046 0.1277387 0.001985252
v -0.002998043 0.1284337 0.001985252
v -0.01480979 0.1344664 -0.002524836
v -0.01598622 0.1358695 0.001985252
v -0.01800308 0.131347 -0.002563375
v -0.01949251 0.1325007 0.001985252
v -0.01440891 0.1286326 -0.004445867
v -0.01196205 0.1310894 -0.004396119
v -0.01078694 0.126014 -0.002549503
v -0.009072465 0.1277833 -0.002523944
v -0.009323171 0.1249667 0.001985252
v -0.007868805 0.1264372 0.001985252
v -0.01024485 0.1235224 0.001985252
v -0.01178119 0.124331 -0.002560794
v -0.011334 0.1218689 0.001985252
v -0.0128863 0.1224449 -0.002191141
v -0.01581411 0.1263652 -0.004482332
v -0.01677413 0.1239649 -0.003944902
v -0.01986511 0.1285087 -0.002601043
v -0.02071015 0.1255625 -0.002275962
v -0.02155695 0.1294265 0.001985252
v -0.02232841 0.1262387 0.001985252
v -0.01303087 0.1205476 0.001985252
v -0.01424818 0.1208997 -0.001234789
v -0.01521104 0.1200002 0.001985252
v -0.01588972 0.1201719 0.0002894352
v -0.01733677 0.1218311 -0.002537097
v -0.01752824 0.1205946 -0.0004129929
v -0.02042793 0.1227972 -0.001270633
v -0.01916672 0.1210275 0.0002894352
v -0.02166823 0.1231894 0.001985252
v -0.0198454 0.1212085 0.001985252
v -0.01761907 0.1200456 0.001985252
vt 0.6653874 1.583882
vt 0.6709453 1.592368
vt 0.6764354 1.588423
vt 0.6740522 1.583118
vt 0.6810117 1.590851
vt 0.6790727 1.597546
vt 0.6862583 1.591738
vt 0.6888646 1.598808
vt 0.6997123 1.597235
vt 0.6921774 1.589176
vt 0.6834685 1.58429
vt 0.6771344 1.604396
vt 0.6892946 1.608054
vt 0.6865926 1.616793
vt 0.6744026 1.610887
vt 0.6623475 1.603285
vt 0.6662598 1.597514
vt 0.6526834 1.592357
vt 0.657995 1.587321
vt 0.7031318 1.609286
vt 0.7009673 1.621879
vt 0.6590804 1.608515
vt 0.6699845 1.617074
vt 0.6535546 1.613823
vt 0.6448996 1.601537
vt 0.6490573 1.597108
vt 0.6622595 1.624483
vt 0.6712995 1.634542
vt 0.6808732 1.62519
vt 0.6938932 1.633768
vt 0.6816467 1.646123
vt 0.6451343 1.618426
vt 0.6511335 1.630805
vt 0.6356235 1.620953
vt 0.6386485 1.634721
vt 0.6248366 1.621802
vt 0.6248366 1.636087
vt 0.6248366 1.607222
vt 0.6323143 1.606678
vt 0.6419276 1.648351
vt 0.6248366 1.650337
vt 0.645592 1.663783
vt 0.6248366 1.666234
vt 0.6390928 1.605013
vt 0.6646105 1.657005
vt 0.6573987 1.642919
vt 0.6077455 1.648351
vt 0.6110247 1.634721
vt 0.6040812 1.663783
vt 0.5922745 1.642919
vt 0.5985396 1.630805
vt 0.5850627 1.657005
vt 0.6140497 1.620953
vt 0.6173587 1.606678
vt 0.6045389 1.618426
vt 0.6105803 1.605013
vt 0.5783737 1.634542
vt 0.5874137 1.624483
vt 0.5688 1.62519
vt 0.5796887 1.617074
vt 0.5961186 1.613823
vt 0.5905927 1.608515
vt 0.6047735 1.601537
vt 0.6006159 1.597108
vt 0.55578 1.633768
vt 0.5680264 1.646123
vt 0.5752707 1.610887
vt 0.5873256 1.603285
vt 0.5725389 1.604396
vt 0.5834134 1.597514
vt 0.5969898 1.592357
vt 0.5916781 1.587321
vt 0.5630805 1.616793
vt 0.5603784 1.608054
vt 0.5465414 1.609286
vt 0.5487058 1.621879
vt 0.5608086 1.598808
vt 0.5706004 1.597546
vt 0.5634149 1.591738
vt 0.5686614 1.590851
vt 0.5787279 1.592368
vt 0.5732378 1.588423
vt 0.5842859 1.583882
vt 0.5756209 1.583118
vt 0.5499609 1.597235
vt 0.5574957 1.589176
vt 0.5662047 1.58429
vt 0.8002877 1.597235
vt 0.8111354 1.598808
vt 0.8137417 1.591738
vt 0.8078226 1.589176
vt 0.8189883 1.590851
vt 0.8209273 1.597546
vt 0.8235646 1.588423
vt 0.8290547 1.592368
vt 0.8259478 1.583118
vt 0.8346126 1.583882
vt 0.8165315 1.58429
vt 0.8337402 1.597514
vt 0.842005 1.587321
vt 0.8376524 1.603285
vt 0.8255974 1.610887
vt 0.8228656 1.604396
vt 0.8134074 1.616793
vt 0.8107054 1.608054
vt 0.7990327 1.621879
vt 0.7968682 1.609286
vt 0.8473166 1.592357
vt 0.8409196 1.608515
vt 0.8509427 1.597108
vt 0.8464454 1.613823
vt 0.8377405 1.624483
vt 0.8300154 1.617074
vt 0.8287005 1.634542
vt 0.8191268 1.62519
vt 0.8183533 1.646123
vt 0.8061068 1.633768
vt 0.8551004 1.601537
vt 0.8548657 1.618426
vt 0.8609072 1.605013
vt 0.8643765 1.620953
vt 0.8676857 1.606678
vt 0.8751634 1.621802
vt 0.8751634 1.607222
vt 0.8751634 1.636087
vt 0.8613515 1.634721
vt 0.8751634 1.650337
vt 0.8580724 1.648352
vt 0.8751634 1.666234
vt 0.854408 1.663783
vt 0.8488665 1.630805
vt 0.8426013 1.642919
vt 0.8353895 1.657005
vt 0.8922545 1.648351
vt 0.8959188 1.663783
vt 0.8889754 1.634721
vt 0.8859503 1.620953
vt 0.9077256 1.642919
vt 0.9149373 1.657005
vt 0.9014603 1.630805
vt 0.8954611 1.618426
vt 0.8894198 1.605013
vt 0.8826413 1.606678
vt 0.9216263 1.634542
vt 0.9319736 1.646123
vt 0.9312 1.62519
vt 0.9442201 1.633768
vt 0.9203113 1.617074
vt 0.9125862 1.624483
vt 0.9094073 1.608515
vt 0.9038813 1.613823
vt 0.8993841 1.597108
vt 0.8952265 1.601537
vt 0.9030101 1.592357
vt 0.9126744 1.603285
vt 0.9083219 1.587321
vt 0.9165866 1.597514
vt 0.9247293 1.610887
vt 0.9274611 1.604396
vt 0.9369195 1.616793
vt 0.9396216 1.608054
vt 0.9512942 1.621879
vt 0.9534585 1.609286
vt 0.9157141 1.583882
vt 0.921272 1.592368
vt 0.9243791 1.583118
vt 0.9267621 1.588423
vt 0.9293996 1.597546
vt 0.9313385 1.590851
vt 0.9391913 1.598808
vt 0.9365852 1.591738
vt 0.9500391 1.597235
vt 0.9425043 1.589176
vt 0.9337952 1.58429
vn -0.3118993 -0.9501152 4.549057E-07
vn -0.1586765 -0.8870596 0.4335286
vn -0.01266756 -0.9566842 0.2908518
vn -0.04953923 -0.9987722 4.204047E-07
vn 0.2731012 -0.9010204 0.3370132
vn 0.25532 -0.7519667 0.6077481
vn 0.5514019 -0.7804682 0.2946613
vn 0.6718084 -0.5936105 0.4430575
vn 0.839118 -0.5439494 -3.968431E-07
vn 0.6005027 -0.7996227 -4.310375E-07
vn 0.2832919 -0.9590337 0
vn 0.2025281 -0.4837767 0.8514355
vn 0.75748 -0.2312085 0.6105462
vn 0.7054502 0.1645034 0.6894045
vn 0.1245885 -0.1903295 0.9737825
vn -0.4603578 -0.5509084 0.696111
vn -0.342379 -0.724885 0.5977611
vn -0.7088856 -0.7053235 1.769427E-07
vn -0.5620514 -0.8271024 5.020395E-07
vn 0.9915369 -0.1298252 -4.419109E-07
vn 0.949832 0.3127604 -2.705766E-07
vn -0.4695115 -0.487491 0.7361464
vn 0.06802092 -0.01324035 0.997596
vn -0.3898806 -0.531296 0.7521421
vn -0.5931382 -0.8051006 0
vn -0.7116122 -0.7025726 1.833568E-07
vn 0.04448726 0.04998387 0.9977587
vn 0.4435942 0.5788746 0.6841991
vn 0.5772297 0.4319938 0.6929554
vn 0.7882465 0.6153597 -2.627928E-07
vn 0.6073567 0.7944292 -2.573411E-07
vn -0.2619291 -0.6021834 0.7541673
vn 0.03485355 0.0617692 0.9974817
vn -0.1264345 -0.6491255 0.7501003
vn 0.02149999 0.06218226 0.9978332
vn 0 -0.6638248 0.7478881
vn 1.733203E-07 0.06195248 0.9980791
vn 0 -1 0
vn -0.1945954 -0.9808836 0
vn 0.15905 0.7116434 0.6843002
vn 0 0.7279823 0.685596
vn 0.2158376 0.9764292 0
vn 0 1 0
vn -0.400869 -0.9161354 0
vn 0.4193719 0.9078145 -2.564166E-07
vn 0.307497 0.6632323 0.6823258
vn -0.1590497 0.7116433 0.6843003
vn -0.02149955 0.06218192 0.9978332
vn -0.2158376 0.9764293 0
vn -0.307497 0.6632321 0.682326
vn -0.03485328 0.06176867 0.9974818
vn -0.4193718 0.9078146 0
vn 0.1264349 -0.6491256 0.7501001
vn 0.1945956 -0.9808835 0
vn 0.2619294 -0.6021835 0.7541671
vn 0.4008693 -0.9161353 0
vn -0.4435938 0.5788744 0.6841995
vn -0.04448707 0.04998368 0.9977587
vn -0.5772296 0.4319937 0.6929556
vn -0.06802082 -0.01324035 0.997596
vn 0.3898808 -0.5312958 0.7521421
vn 0.4695115 -0.4874908 0.7361465
vn 0.5931384 -0.8051005 0
vn 0.7116123 -0.7025723 3.667134E-07
vn -0.7882463 0.6153599 3.503905E-07
vn -0.6073567 0.7944294 0
vn -0.1245885 -0.1903291 0.9737826
vn 0.4603578 -0.5509082 0.6961112
vn -0.2025276 -0.4837764 0.8514358
vn 0.3423791 -0.7248847 0.5977615
vn 0.7088857 -0.7053234 5.308281E-07
vn 0.5620515 -0.8271022 5.020394E-07
vn -0.7054499 0.1645036 0.6894048
vn -0.7574796 -0.2312081 0.6105468
vn -0.9915369 -0.1298251 3.535288E-07
vn -0.949832 0.3127604 3.607688E-07
vn -0.6718081 -0.5936105 0.4430581
vn -0.2553195 -0.7519664 0.6077487
vn -0.5514018 -0.780468 0.2946621
vn -0.273101 -0.9010203 0.3370138
vn 0.1586767 -0.8870595 0.4335288
vn 0.0126677 -0.9566841 0.2908523
vn 0.3118994 -0.9501151 6.065409E-07
vn 0.04953937 -0.9987721 5.605396E-07
vn -0.839118 -0.5439494 3.174746E-07
vn -0.6005027 -0.7996227 2.873584E-07
vn -0.2832919 -0.9590337 4.266985E-07
vn 0.839118 -0.5439494 -3.968431E-07
vn 0.671808 -0.5936104 -0.4430582
vn 0.5514019 -0.780468 -0.294662
vn 0.6005027 -0.7996227 -4.310375E-07
vn 0.2731008 -0.9010204 -0.3370135
vn 0.2553196 -0.7519665 -0.6077486
vn -0.0126677 -0.9566843 -0.2908516
vn -0.1586769 -0.8870597 -0.4335283
vn -0.04953923 -0.9987722 4.204047E-07
vn -0.3118993 -0.9501152 4.549057E-07
vn 0.2832919 -0.9590337 0
vn -0.3423795 -0.7248849 -0.597761
vn -0.5620514 -0.8271024 5.020395E-07
vn -0.460358 -0.5509083 -0.696111
vn 0.1245885 -0.1903287 -0.9737827
vn 0.2025277 -0.4837762 -0.8514359
vn 0.70545 0.1645036 -0.6894048
vn 0.7574797 -0.2312079 -0.6105468
vn 0.949832 0.3127604 -2.705766E-07
vn 0.9915369 -0.1298252 -4.419109E-07
vn -0.7088856 -0.7053235 1.769427E-07
vn -0.4695114 -0.4874908 -0.7361465
vn -0.7116122 -0.7025726 1.833568E-07
vn -0.3898805 -0.5312959 -0.7521422
vn 0.04448742 0.04998403 -0.9977587
vn 0.0680211 -0.01324009 -0.997596
vn 0.4435938 0.5788746 -0.6841993
vn 0.5772297 0.4319936 -0.6929555
vn 0.6073567 0.7944292 -2.573411E-07
vn 0.7882465 0.6153597 -2.627928E-07
vn -0.5931382 -0.8051006 0
vn -0.2619291 -0.6021835 -0.7541673
vn -0.400869 -0.9161354 0
vn -0.1264345 -0.6491256 -0.7501001
vn -0.1945954 -0.9808836 0
vn 0 -0.6638249 -0.7478881
vn 0 -1 0
vn 1.733204E-07 0.06195233 -0.9980791
vn 0.02149999 0.06218228 -0.9978332
vn 0 0.7279823 -0.685596
vn 0.1590499 0.7116435 -0.6843001
vn 0 1 0
vn 0.2158376 0.9764292 0
vn 0.03485371 0.06176902 -0.9974817
vn 0.307497 0.6632321 -0.682326
vn 0.4193719 0.9078145 -2.564166E-07
vn -0.1590499 0.7116434 -0.6843002
vn -0.2158376 0.9764293 0
vn -0.0214999 0.06218228 -0.9978332
vn 0.1264347 -0.6491256 -0.7501001
vn -0.3074969 0.6632323 -0.6823259
vn -0.4193718 0.9078146 0
vn -0.03485346 0.0617692 -0.9974817
vn 0.2619294 -0.6021834 -0.7541671
vn 0.4008693 -0.9161353 0
vn 0.1945956 -0.9808835 0
vn -0.4435938 0.5788747 -0.6841992
vn -0.6073567 0.7944294 0
vn -0.5772297 0.4319938 -0.6929554
vn -0.7882463 0.6153599 3.503905E-07
vn -0.06802085 -0.01324027 -0.997596
vn -0.04448717 0.04998387 -0.9977587
vn 0.4695117 -0.4874909 -0.7361463
vn 0.3898807 -0.5312958 -0.7521421
vn 0.7116123 -0.7025723 3.667134E-07
vn 0.5931384 -0.8051005 0
vn 0.7088857 -0.7053234 5.308281E-07
vn 0.4603582 -0.5509083 -0.6961109
vn 0.5620515 -0.8271022 5.020394E-07
vn 0.3423793 -0.7248851 -0.5977609
vn -0.1245883 -0.1903289 -0.9737827
vn -0.2025275 -0.4837764 -0.8514358
vn -0.7054502 0.1645037 -0.6894045
vn -0.75748 -0.231208 -0.6105465
vn -0.949832 0.3127604 3.607688E-07
vn -0.9915369 -0.1298251 3.535288E-07
vn 0.3118994 -0.9501151 6.065409E-07
vn 0.1586769 -0.8870597 -0.4335281
vn 0.04953937 -0.9987721 5.605396E-07
vn 0.0126677 -0.9566844 -0.2908512
vn -0.2553195 -0.7519668 -0.6077481
vn -0.2731009 -0.9010206 -0.337013
vn -0.6718083 -0.5936105 -0.4430579
vn -0.551402 -0.7804682 -0.2946615
vn -0.839118 -0.5439494 3.174746E-07
vn -0.6005027 -0.7996227 2.873584E-07
vn -0.2832919 -0.9590337 4.266985E-07
g pm0891_00_EyeFSkin_0
f 3/3/3 2/2/2 1/1/1
f 4/4/4 3/3/3 1/1/1
f 3/3/3 5/5/5 2/2/2
f 5/5/5 6/6/6 2/2/2
f 5/5/5 7/7/7 6/6/6
f 7/7/7 8/8/8 6/6/6
f 8/8/8 7/7/7 9/9/9
f 7/7/7 10/10/10 9/9/9
f 10/10/10 7/7/7 5/5/5
f 11/11/11 10/10/10 5/5/5
f 11/11/11 5/5/5 3/3/3
f 4/4/4 11/11/11 3/3/3
f 6/6/6 8/8/8 12/12/12
f 8/8/8 13/13/13 12/12/12
f 8/8/8 9/9/9 13/13/13
f 12/12/12 13/13/13 14/14/14
f 15/15/15 12/12/12 14/14/14
f 12/12/12 15/15/15 16/16/16
f 17/17/17 12/12/12 16/16/16
f 6/6/6 12/12/12 17/17/17
f 2/2/2 6/6/6 17/17/17
f 17/17/17 16/16/16 18/18/18
f 19/19/19 17/17/17 18/18/18
f 13/13/13 20/20/20 14/14/14
f 9/9/9 20/20/20 13/13/13
f 20/20/20 21/21/21 14/14/14
f 2/2/2 17/17/17 19/19/19
f 1/1/1 2/2/2 19/19/19
f 16/16/16 15/15/15 22/22/22
f 15/15/15 23/23/23 22/22/22
f 22/22/22 23/23/23 24/24/24
f 22/22/22 24/24/24 25/25/25
f 26/26/26 22/22/22 25/25/25
f 16/16/16 22/22/22 26/26/26
f 18/18/18 16/16/16 26/26/26
f 23/23/23 27/27/27 24/24/24
f 27/27/27 23/23/23 28/28/28
f 23/23/23 29/29/29 28/28/28
f 29/29/29 30/30/30 28/28/28
f 21/21/21 30/30/30 29/29/29
f 30/30/30 31/31/31 28/28/28
f 14/14/14 21/21/21 29/29/29
f 15/15/15 14/14/14 29/29/29
f 23/23/23 15/15/15 29/29/29
f 24/24/24 27/27/27 32/32/32
f 27/27/27 33/33/33 32/32/32
f 27/27/27 28/28/28 33/33/33
f 32/32/32 33/33/33 34/34/34
f 33/33/33 35/35/35 34/34/34
f 34/34/34 35/35/35 36/36/36
f 35/35/35 37/37/37 36/36/36
f 34/34/34 36/36/36 38/38/38
f 39/39/39 34/34/34 38/38/38
f 32/32/32 34/34/34 39/39/39
f 35/35/35 40/40/40 37/37/37
f 40/40/40 41/41/41 37/37/37
f 40/40/40 42/42/42 41/41/41
f 42/42/42 43/43/43 41/41/41
f 44/44/44 32/32/32 39/39/39
f 45/45/45 42/42/42 40/40/40
f 46/46/46 45/45/45 40/40/40
f 46/46/46 40/40/40 35/35/35
f 33/33/33 46/46/46 35/35/35
f 24/24/24 32/32/32 44/44/44
f 25/25/25 24/24/24 44/44/44
f 31/31/31 45/45/45 46/46/46
f 28/28/28 31/31/31 46/46/46
f 28/28/28 46/46/46 33/33/33
f 41/41/41 47/47/47 37/37/37
f 47/47/47 48/48/48 37/37/37
f 49/49/49 47/47/47 41/41/41
f 43/43/43 49/49/49 41/41/41
f 47/47/47 50/50/50 48/48/48
f 50/50/50 51/51/51 48/48/48
f 52/52/52 50/50/50 47/47/47
f 49/49/49 52/52/52 47/47/47
f 48/48/48 51/51/51 53/53/53
f 48/48/48 53/53/53 36/36/36
f 36/36/36 53/53/53 38/38/38
f 53/53/53 54/54/54 38/38/38
f 37/37/37 48/48/48 36/36/36
f 53/53/53 55/55/55 54/54/54
f 51/51/51 55/55/55 53/53/53
f 55/55/55 56/56/56 54/54/54
f 50/50/50 57/57/57 51/51/51
f 57/57/57 58/58/58 51/51/51
f 51/51/51 58/58/58 55/55/55
f 57/57/57 59/59/59 58/58/58
f 59/59/59 60/60/60 58/58/58
f 58/58/58 60/60/60 61/61/61
f 55/55/55 61/61/61 56/56/56
f 58/58/58 61/61/61 55/55/55
f 60/60/60 62/62/62 61/61/61
f 61/61/61 62/62/62 63/63/63
f 61/61/61 63/63/63 56/56/56
f 62/62/62 64/64/64 63/63/63
f 65/65/65 59/59/59 57/57/57
f 66/66/66 65/65/65 57/57/57
f 60/60/60 67/67/67 62/62/62
f 67/67/67 68/68/68 62/62/62
f 62/62/62 68/68/68 64/64/64
f 67/67/67 69/69/69 68/68/68
f 69/69/69 70/70/70 68/68/68
f 68/68/68 70/70/70 71/71/71
f 68/68/68 71/71/71 64/64/64
f 70/70/70 72/72/72 71/71/71
f 69/69/69 67/67/67 73/73/73
f 73/73/73 67/67/67 60/60/60
f 59/59/59 73/73/73 60/60/60
f 74/74/74 69/69/69 73/73/73
f 75/75/75 74/74/74 73/73/73
f 76/76/76 75/75/75 73/73/73
f 74/74/74 77/77/77 69/69/69
f 77/77/77 78/78/78 69/69/69
f 69/69/69 78/78/78 70/70/70
f 77/77/77 79/79/79 78/78/78
f 79/79/79 80/80/80 78/78/78
f 78/78/78 80/80/80 81/81/81
f 78/78/78 81/81/81 70/70/70
f 70/70/70 81/81/81 72/72/72
f 80/80/80 82/82/82 81/81/81
f 81/81/81 82/82/82 83/83/83
f 81/81/81 83/83/83 72/72/72
f 82/82/82 84/84/84 83/83/83
f 79/79/79 77/77/77 85/85/85
f 85/85/85 77/77/77 74/74/74
f 75/75/75 85/85/85 74/74/74
f 86/86/86 79/79/79 85/85/85
f 79/79/79 86/86/86 80/80/80
f 86/86/86 87/87/87 80/80/80
f 87/87/87 84/84/84 82/82/82
f 80/80/80 87/87/87 82/82/82
f 76/76/76 73/73/73 59/59/59
f 65/65/65 76/76/76 59/59/59
f 90/90/90 89/89/89 88/88/88
f 91/91/91 90/90/90 88/88/88
f 90/90/90 92/92/92 89/89/89
f 92/92/92 90/90/90 91/91/91
f 92/92/92 93/93/93 89/89/89
f 92/92/92 94/94/94 93/93/93
f 94/94/94 95/95/95 93/93/93
f 94/94/94 96/96/96 95/95/95
f 96/96/96 97/97/97 95/95/95
f 94/94/94 92/92/92 98/98/98
f 96/96/96 94/94/94 98/98/98
f 98/98/98 92/92/92 91/91/91
f 95/95/95 97/97/97 99/99/99
f 97/97/97 100/100/100 99/99/99
f 99/99/99 100/100/100 101/101/101
f 99/99/99 101/101/101 102/102/102
f 103/103/103 99/99/99 102/102/102
f 95/95/95 99/99/99 103/103/103
f 93/93/93 95/95/95 103/103/103
f 103/103/103 102/102/102 104/104/104
f 105/105/105 103/103/103 104/104/104
f 93/93/93 103/103/103 105/105/105
f 105/105/105 104/104/104 106/106/106
f 107/107/107 105/105/105 106/106/106
f 100/100/100 108/108/108 101/101/101
f 89/89/89 93/93/93 105/105/105
f 89/89/89 105/105/105 107/107/107
f 88/88/88 89/89/89 107/107/107
f 101/101/101 108/108/108 109/109/109
f 108/108/108 110/110/110 109/109/109
f 109/109/109 110/110/110 111/111/111
f 109/109/109 111/111/111 112/112/112
f 113/113/113 109/109/109 112/112/112
f 101/101/101 109/109/109 113/113/113
f 102/102/102 101/101/101 113/113/113
f 113/113/113 112/112/112 114/114/114
f 115/115/115 113/113/113 114/114/114
f 102/102/102 113/113/113 115/115/115
f 104/104/104 102/102/102 115/115/115
f 115/115/115 114/114/114 116/116/116
f 117/117/117 115/115/115 116/116/116
f 104/104/104 115/115/115 117/117/117
f 106/106/106 104/104/104 117/117/117
f 110/110/110 118/118/118 111/111/111
f 111/111/111 118/118/118 119/119/119
f 118/118/118 120/120/120 119/119/119
f 119/119/119 120/120/120 121/121/121
f 120/120/120 122/122/122 121/121/121
f 121/121/121 122/122/122 123/123/123
f 122/122/122 124/124/124 123/123/123
f 121/121/121 123/123/123 125/125/125
f 126/126/126 121/121/121 125/125/125
f 119/119/119 121/121/121 126/126/126
f 126/126/126 125/125/125 127/127/127
f 128/128/128 126/126/126 127/127/127
f 128/128/128 127/127/127 129/129/129
f 130/130/130 128/128/128 129/129/129
f 131/131/131 119/119/119 126/126/126
f 131/131/131 126/126/126 128/128/128
f 132/132/132 131/131/131 128/128/128
f 132/132/132 128/128/128 130/130/130
f 133/133/133 132/132/132 130/130/130
f 111/111/111 119/119/119 131/131/131
f 112/112/112 111/111/111 131/131/131
f 112/112/112 131/131/131 132/132/132
f 114/114/114 112/112/112 132/132/132
f 114/114/114 132/132/132 133/133/133
f 116/116/116 114/114/114 133/133/133
f 127/127/127 134/134/134 129/129/129
f 134/134/134 135/135/135 129/129/129
f 136/136/136 134/134/134 127/127/127
f 125/125/125 136/136/136 127/127/127
f 137/137/137 136/136/136 125/125/125
f 134/134/134 138/138/138 135/135/135
f 138/138/138 139/139/139 135/135/135
f 140/140/140 138/138/138 134/134/134
f 136/136/136 140/140/140 134/134/134
f 141/141/141 140/140/140 136/136/136
f 137/137/137 141/141/141 136/136/136
f 142/142/142 141/141/141 137/137/137
f 143/143/143 142/142/142 137/137/137
f 143/143/143 137/137/137 123/123/123
f 123/123/123 137/137/137 125/125/125
f 124/124/124 143/143/143 123/123/123
f 138/138/138 144/144/144 139/139/139
f 144/144/144 145/145/145 139/139/139
f 144/144/144 146/146/146 145/145/145
f 146/146/146 147/147/147 145/145/145
f 148/148/148 146/146/146 144/144/144
f 149/149/149 148/148/148 144/144/144
f 149/149/149 144/144/144 138/138/138
f 140/140/140 149/149/149 138/138/138
f 150/150/150 148/148/148 149/149/149
f 151/151/151 150/150/150 149/149/149
f 151/151/151 149/149/149 140/140/140
f 141/141/141 151/151/151 140/140/140
f 152/152/152 150/150/150 151/151/151
f 153/153/153 152/152/152 151/151/151
f 153/153/153 151/151/151 141/141/141
f 142/142/142 153/153/153 141/141/141
f 152/152/152 154/154/154 150/150/150
f 154/154/154 155/155/155 150/150/150
f 150/150/150 155/155/155 148/148/148
f 154/154/154 156/156/156 155/155/155
f 156/156/156 157/157/157 155/155/155
f 155/155/155 157/157/157 158/158/158
f 155/155/155 158/158/158 148/148/148
f 148/148/148 158/158/158 146/146/146
f 157/157/157 159/159/159 158/158/158
f 158/158/158 159/159/159 160/160/160
f 158/158/158 160/160/160 146/146/146
f 146/146/146 160/160/160 147/147/147
f 159/159/159 161/161/161 160/160/160
f 160/160/160 161/161/161 162/162/162
f 160/160/160 162/162/162 147/147/147
f 161/161/161 163/163/163 162/162/162
f 156/156/156 164/164/164 157/157/157
f 164/164/164 165/165/165 157/157/157
f 157/157/157 165/165/165 159/159/159
f 164/164/164 166/166/166 165/165/165
f 166/166/166 167/167/167 165/165/165
f 165/165/165 167/167/167 168/168/168
f 165/165/165 168/168/168 159/159/159
f 159/159/159 168/168/168 161/161/161
f 167/167/167 169/169/169 168/168/168
f 168/168/168 169/169/169 170/170/170
f 168/168/168 170/170/170 161/161/161
f 161/161/161 170/170/170 163/163/163
f 169/169/169 171/171/171 170/170/170
f 170/170/170 171/171/171 172/172/172
f 170/170/170 172/172/172 163/163/163
f 171/171/171 173/173/173 172/172/172
f 171/171/171 169/169/169 173/173/173
f 167/167/167 166/166/166 174/174/174
f 169/169/169 167/167/167 174/174/174
f 169/169/169 174/174/174 173/173/173
f 66/66/66 57/57/57 50/50/50
f 52/52/52 66/66/66 50/50/50
