g pm0891_00_TubuBSkin
v -0.005711584 -0.0731177 0.005707138
v -0.003326998 -0.07335034 0.007256003
v -0.003172293 -0.07569959 0.00569402
v -0.004998503 -0.07500057 0.00499348
v 3.814697E-08 -0.07614313 0.006101647
v 3.814697E-08 -0.07355163 0.007894867
v 0.003100471 -0.07570101 0.00573188
v 0.003319149 -0.07335279 0.007258315
v 0.004994564 -0.07500079 0.004997257
v 0.005708017 -0.07311931 0.005709919
v -0.006121902 -0.06999994 0.006118144
v -0.003528633 -0.06999994 0.007903572
v 3.814697E-08 -0.06999994 0.008657187
v 0.003527794 -0.06999994 0.007904068
v 0.006119728 -0.06999994 0.006120597
v -0.005709009 -0.06687428 0.005705508
v -0.003322716 -0.06663883 0.007253011
v 3.814697E-08 -0.0664379 0.00789036
v 0.00332036 -0.06664075 0.007254927
v 0.00570692 -0.06687679 0.005709005
v -0.004996042 -0.06499665 0.004993284
v -0.003102331 -0.06429715 0.005729257
v 3.814697E-08 -0.06385577 0.006100649
v 0.003106184 -0.06429987 0.005729938
v 0.00499485 -0.06499929 0.004997181
v -0.005731029 -0.06429692 0.003098275
v -0.003351822 -0.06275468 0.003350222
v 3.814697E-08 -0.06210159 0.003547345
v 0.003354998 -0.06275895 0.00335629
v 0.005693903 -0.06429993 0.003171905
v -0.006100521 -0.06385589 1.267282E-07
v -0.003547306 -0.06210164 1.267282E-07
v 3.814697E-08 -0.06134066 1.267282E-07
v 0.003547678 -0.06210175 1.267282E-07
v 0.006100549 -0.06385577 1.267282E-07
v 0.007253113 -0.0666413 0.003325022
v 0.007890454 -0.06643824 1.267282E-07
v 0.00865674 -0.06999994 1.267282E-07
v 0.007904406 -0.06999994 0.00352689
v 0.007894897 -0.07355182 1.267282E-07
v 0.007256117 -0.07335203 0.003324891
v 0.006101837 -0.07614315 1.267282E-07
v 0.005729542 -0.07570041 0.003106121
v 0.003349676 -0.07724394 0.003355146
v 0.00354557 -0.07789914 1.267282E-07
v 3.814697E-08 -0.07789855 0.003546764
v 3.814697E-08 -0.07865912 1.267282E-07
v -0.003358154 -0.07724272 0.003349209
v -0.003549995 -0.077897 1.267282E-07
v -0.005732746 -0.07570117 0.003098239
v -0.006101465 -0.07614309 1.267282E-07
v -0.007892332 -0.07355647 1.267282E-07
v -0.007259378 -0.0733552 0.003313909
v -0.008656606 -0.06999994 1.267282E-07
v -0.007907962 -0.06999994 0.003518732
v -0.007892094 -0.06644289 1.267282E-07
v -0.007257862 -0.0666408 0.003313337
v -0.005692549 -0.06429979 -0.003173566
v -0.003350076 -0.0627573 -0.003357359
v -0.003547306 -0.06210164 1.267282E-07
v -0.006100521 -0.06385589 1.267282E-07
v 3.814697E-08 -0.06134066 1.267282E-07
v 3.814697E-08 -0.06210178 -0.003547617
v 0.003547678 -0.06210175 1.267282E-07
v 0.003356399 -0.06275655 -0.003349466
v 0.006100549 -0.06385577 1.267282E-07
v 0.005731211 -0.06429745 -0.003098794
v -0.00499238 -0.06499816 -0.004998188
v -0.003099069 -0.0642978 -0.005731274
v 3.814697E-08 -0.06385536 -0.006099979
v 0.003171883 -0.0642985 -0.005692278
v 0.004997549 -0.06499723 -0.004992181
v -0.00570445 -0.06687493 -0.005710152
v -0.003317509 -0.06663912 -0.007255142
v 3.814697E-08 -0.0664383 -0.007890307
v 0.003325262 -0.06663969 -0.007252075
v 0.005709276 -0.06687444 -0.005705136
v -0.006117172 -0.06999994 -0.006122551
v -0.00352808 -0.06999994 -0.007903607
v 3.814697E-08 -0.06999994 -0.008656666
v 0.00352787 -0.06999994 -0.007903769
v 0.006121187 -0.06999994 -0.006118694
v -0.005706863 -0.07311594 -0.005712534
v -0.00331913 -0.07335097 -0.007258857
v 3.814697E-08 -0.07355187 -0.007894685
v 0.003326683 -0.07335036 -0.007255898
v 0.005711288 -0.07311592 -0.005708193
v -0.004993429 -0.07499973 -0.004999137
v -0.003099947 -0.0757001 -0.005732733
v 3.814697E-08 -0.07614239 -0.006102171
v 0.003172521 -0.07569844 -0.005694815
v 0.004998455 -0.07499879 -0.004995102
v -0.005693397 -0.07569907 -0.003173867
v -0.00335104 -0.07724195 -0.003357728
v 3.814697E-08 -0.07789756 -0.003548861
v 0.003355837 -0.07724211 -0.003352641
v 0.005731735 -0.07569927 -0.003103699
v -0.006101465 -0.07614309 1.267282E-07
v -0.003549995 -0.077897 1.267282E-07
v 3.814697E-08 -0.07865912 1.267282E-07
v 0.00354557 -0.07789914 1.267282E-07
v 0.006101837 -0.07614315 1.267282E-07
v 0.007258463 -0.07335041 -0.003320923
v 0.007894897 -0.07355182 1.267282E-07
v 0.00790328 -0.06999994 -0.003529066
v 0.00865674 -0.06999994 1.267282E-07
v 0.007254944 -0.06663863 -0.003317728
v 0.007890454 -0.06643824 1.267282E-07
v -0.007253322 -0.07335152 -0.003331481
v -0.007892332 -0.07355647 1.267282E-07
v -0.007899513 -0.06999994 -0.003537752
v -0.008656606 -0.06999994 1.267282E-07
v -0.007250995 -0.06664232 -0.00333054
v -0.007892094 -0.06644289 1.267282E-07
vt 0.05267227 0.8133429
vt 0.0647217 0.813552
vt 0.06395233 0.8075873
vt 0.05466914 0.8085666
vt 0.07812858 0.8069755
vt 0.07813191 0.8134244
vt 0.09194911 0.8076181
vt 0.09150374 0.8135491
vt 0.1015621 0.8085697
vt 0.1035654 0.8133419
vt 0.05160224 0.8203123
vt 0.06446946 0.820313
vt 0.07813275 0.8203142
vt 0.09179056 0.8203145
vt 0.1046449 0.8203142
vt 0.05268228 0.8273011
vt 0.06473899 0.8270975
vt 0.07813346 0.8272255
vt 0.09151459 0.8270944
vt 0.1035652 0.8272958
vt 0.05468333 0.8320659
vt 0.06429958 0.8330148
vt 0.07813215 0.8336549
vt 0.09197998 0.83301
vt 0.1015669 0.8320587
vt 0.0469166 0.8358515
vt 0.06024122 0.8396295
vt 0.07813275 0.8410312
vt 0.09601831 0.8396107
vt 0.1089423 0.835748
vt 0.03307962 0.8429955
vt 0.05193222 0.8494722
vt 0.0781244 0.8522815
vt 0.1043196 0.8494714
vt 0.1231695 0.842996
vt 0.116867 0.8292952
vt 0.1363858 0.8334621
vt 0.1420441 0.8203126
vt 0.1196469 0.8203135
vt 0.1364185 0.8071994
vt 0.1168809 0.8113492
vt 0.123179 0.7976324
vt 0.1093097 0.8047914
vt 0.09599435 0.8010076
vt 0.104304 0.7911493
vt 0.07812703 0.7995932
vt 0.0781244 0.7883435
vt 0.06020474 0.8010011
vt 0.05191219 0.7911574
vt 0.04690516 0.8047792
vt 0.03307247 0.7976326
vt 0.01984918 0.8071823
vt 0.03932083 0.8113323
vt 0.01420593 0.8203126
vt 0.03656316 0.8203123
vt 0.01985025 0.8334451
vt 0.03932738 0.829304
vt 0.2495549 0.7927741
vt 0.2366081 0.7966425
vt 0.2449425 0.8065031
vt 0.2637954 0.8000267
vt 0.2187502 0.8093126
vt 0.2187501 0.7980583
vt 0.1925557 0.8065028
vt 0.2008467 0.7966559
vt 0.1737058 0.8000271
vt 0.1875375 0.7928778
vt 0.2421749 0.7890874
vt 0.2325686 0.7900411
vt 0.2187521 0.7906853
vt 0.204573 0.7900738
vt 0.1952927 0.7890939
vt 0.2441769 0.7843275
vt 0.2321277 0.784127
vt 0.2187523 0.7842531
vt 0.2053424 0.7841265
vt 0.1932965 0.7843304
vt 0.245257 0.7773443
vt 0.2324138 0.7773441
vt 0.2187523 0.7773441
vt 0.2050913 0.7773441
vt 0.1922223 0.7773441
vt 0.2441826 0.7703823
vt 0.2321306 0.770583
vt 0.2187518 0.7704562
vt 0.2053391 0.770583
vt 0.1932922 0.7703797
vt 0.242178 0.7656068
vt 0.23257 0.7646527
vt 0.2187507 0.76401
vt 0.2045732 0.7646227
vt 0.1952941 0.7656053
vt 0.249558 0.7619169
vt 0.2366131 0.7580476
vt 0.2187535 0.7566327
vt 0.2008448 0.7580409
vt 0.1875479 0.7618239
vt 0.2638023 0.7546641
vt 0.2449628 0.7481885
vt 0.2187502 0.7453749
vt 0.1925709 0.7481806
vt 0.173696 0.7546638
vt 0.1799708 0.7683815
vt 0.1604568 0.7642307
vt 0.1772452 0.7773446
vt 0.1548311 0.7773436
vt 0.179979 0.7863365
vt 0.1604896 0.7904931
vt 0.2574697 0.768387
vt 0.2770253 0.7642133
vt 0.2602072 0.7773446
vt 0.2826689 0.7773436
vt 0.2574611 0.7863177
vt 0.2770236 0.790476
vn -0.6766976 -0.2944745 0.6748075
vn -0.3382176 -0.3405881 0.8772734
vn -0.2986856 -0.6748596 0.6747974
vn -0.5799312 -0.5758914 0.5762194
vn -0.002307356 -0.708692 0.7055142
vn -0.001468837 -0.3697002 0.9291499
vn 0.2961095 -0.6745567 0.6762339
vn 0.3388411 -0.3390757 0.8776186
vn 0.5769921 -0.5775365 0.5775221
vn 0.6753961 -0.2953144 0.6757435
vn -0.7076279 0.000480175 0.7065852
vn -0.368727 0.0005544424 0.9295376
vn -0.0001928806 0.0005452632 0.9999998
vn 0.3686543 0.0004184246 0.9295665
vn 0.7070222 0.0002453327 0.7071913
vn -0.6759739 0.2953886 0.6751332
vn -0.3391326 0.3391703 0.8774694
vn -9.167194E-05 0.3686332 0.929575
vn 0.3387658 0.3391414 0.8776223
vn 0.6752923 0.294448 0.6762254
vn -0.5773507 0.5780425 0.5766568
vn -0.2963024 0.6750903 0.6756167
vn 5.173683E-05 0.7094691 0.7047365
vn 0.2950362 0.6745238 0.6767358
vn 0.5764797 0.5760399 0.579525
vn -0.6758316 0.6749745 0.2960762
vn -0.3397637 0.8769951 0.3397651
vn 0.0002342463 0.9299861 0.3675946
vn 0.3401541 0.8770934 0.3391201
vn 0.6746408 0.6750836 0.2985329
vn -0.7052262 0.7089782 -0.002429366
vn -0.3681461 0.9297677 -0.0007978082
vn 0.0001391172 1 -2.223253E-05
vn 0.3679865 0.9298308 0.0007308722
vn 0.7051603 0.7090445 0.002226711
vn 0.8773156 0.3406466 0.3380491
vn 0.9291213 0.3697725 0.001370549
vn 0.9999998 0.0005460978 7.998944E-05
vn 0.9296176 0.0004179478 0.3685253
vn 0.9296346 -0.3684829 0.0001324415
vn 0.8774981 -0.3391153 0.3391134
vn 0.7051369 -0.7090712 0.0002001524
vn 0.6759897 -0.6746944 0.2963535
vn 0.3398698 -0.8768758 0.3399665
vn 0.3676327 -0.929971 -3.504752E-05
vn -0.0008189678 -0.9297655 0.3681513
vn -0.000197053 -0.9999999 -0.0001644492
vn -0.3390953 -0.8771352 0.3400711
vn -0.368187 -0.9297514 -0.0008097886
vn -0.6770866 -0.6742051 0.2949597
vn -0.7054977 -0.7087076 -0.00257951
vn -0.9291177 -0.3697779 -0.002118349
vn -0.8776708 -0.3390947 0.3386869
vn -0.9999994 0.000159502 -0.001069129
vn -0.9296582 0.0002266169 0.368423
vn -0.9291496 0.369698 -0.002104342
vn -0.8775833 0.3392298 0.3387784
vn -0.6745926 0.6751205 -0.2985586
vn -0.3400822 0.8771575 -0.3390263
vn -0.3681461 0.9297677 -0.0007978082
vn -0.7052262 0.7089782 -0.002429366
vn 0.0001391172 1 -2.223253E-05
vn 0.0006421804 0.9298131 -0.3680313
vn 0.3679865 0.9298308 0.0007308722
vn 0.3390124 0.8772054 -0.3399725
vn 0.7051603 0.7090445 0.002226711
vn 0.6767603 0.6746103 -0.2947822
vn -0.5759494 0.5763593 -0.5797347
vn -0.2947611 0.6745675 -0.6768122
vn 0.002295136 0.7090998 -0.7051045
vn 0.2986456 0.6752965 -0.6743777
vn 0.579589 0.57643 -0.5760253
vn -0.6747566 0.2947459 -0.6766302
vn -0.338629 0.3391316 -0.8776788
vn 0.001475453 0.3697974 -0.9291112
vn 0.33815 0.3407471 -0.8772377
vn 0.6762897 0.2946825 -0.6751255
vn -0.7065541 0.0004880429 -0.7076589
vn -0.3685364 0.000561595 -0.9296132
vn 0.0002154112 0.0005795956 -0.9999998
vn 0.3685821 0.0005810261 -0.929595
vn 0.7072139 0.0005980729 -0.7069994
vn -0.6748412 -0.2945864 -0.6766153
vn -0.3386733 -0.3389877 -0.8777174
vn 0.001451135 -0.3696555 -0.9291677
vn 0.3381382 -0.3405431 -0.8773215
vn 0.6762631 -0.29444 -0.6752579
vn -0.5761859 -0.57581 -0.5800453
vn -0.2948693 -0.6740515 -0.6772789
vn 0.002224326 -0.7085602 -0.7056469
vn 0.2986914 -0.6746825 -0.6749719
vn 0.5798109 -0.5756987 -0.5765331
vn -0.6748211 -0.6747897 -0.2987897
vn -0.340087 -0.8771172 -0.3391258
vn 0.0005472898 -0.9297527 -0.3681842
vn 0.3391654 -0.8770568 -0.3402032
vn 0.6771507 -0.6741131 -0.2950228
vn -0.7054977 -0.7087076 -0.00257951
vn -0.368187 -0.9297514 -0.0008097886
vn -0.000197053 -0.9999999 -0.0001644492
vn 0.3676327 -0.929971 -3.504752E-05
vn 0.7051369 -0.7090712 0.0002001524
vn 0.8776826 -0.3389953 -0.3387559
vn 0.9296346 -0.3684829 0.0001324415
vn 0.9295734 0.0005818606 -0.3686368
vn 0.9999998 0.0005460978 7.998944E-05
vn 0.8776554 0.3391115 -0.3387097
vn 0.9291213 0.3697725 0.001370549
vn -0.8773414 -0.3405029 -0.3381268
vn -0.9291177 -0.3697779 -0.002118349
vn -0.9295021 0.0002926588 -0.3688167
vn -0.9999994 0.000159502 -0.001069129
vn -0.8772619 0.3406529 -0.3381822
vn -0.9291496 0.369698 -0.002104342
g pm0891_00_TubuBSkin_0
f 3/3/3 2/2/2 1/1/1
f 4/4/4 3/3/3 1/1/1
f 3/3/3 5/5/5 2/2/2
f 5/5/5 6/6/6 2/2/2
f 5/5/5 7/7/7 6/6/6
f 7/7/7 8/8/8 6/6/6
f 7/7/7 9/9/9 8/8/8
f 9/9/9 10/10/10 8/8/8
f 1/1/1 2/2/2 11/11/11
f 2/2/2 12/12/12 11/11/11
f 2/2/2 6/6/6 12/12/12
f 6/6/6 13/13/13 12/12/12
f 6/6/6 8/8/8 13/13/13
f 8/8/8 14/14/14 13/13/13
f 8/8/8 10/10/10 14/14/14
f 10/10/10 15/15/15 14/14/14
f 11/11/11 12/12/12 16/16/16
f 12/12/12 17/17/17 16/16/16
f 12/12/12 13/13/13 17/17/17
f 13/13/13 18/18/18 17/17/17
f 13/13/13 14/14/14 18/18/18
f 14/14/14 19/19/19 18/18/18
f 14/14/14 15/15/15 19/19/19
f 15/15/15 20/20/20 19/19/19
f 16/16/16 17/17/17 21/21/21
f 17/17/17 22/22/22 21/21/21
f 17/17/17 18/18/18 22/22/22
f 18/18/18 23/23/23 22/22/22
f 18/18/18 19/19/19 23/23/23
f 19/19/19 24/24/24 23/23/23
f 19/19/19 20/20/20 24/24/24
f 20/20/20 25/25/25 24/24/24
f 21/21/21 22/22/22 26/26/26
f 22/22/22 27/27/27 26/26/26
f 22/22/22 23/23/23 27/27/27
f 23/23/23 28/28/28 27/27/27
f 23/23/23 24/24/24 28/28/28
f 24/24/24 29/29/29 28/28/28
f 24/24/24 25/25/25 29/29/29
f 25/25/25 30/30/30 29/29/29
f 25/25/25 20/20/20 30/30/30
f 26/26/26 27/27/27 31/31/31
f 27/27/27 32/32/32 31/31/31
f 27/27/27 28/28/28 32/32/32
f 28/28/28 33/33/33 32/32/32
f 28/28/28 29/29/29 33/33/33
f 29/29/29 34/34/34 33/33/33
f 29/29/29 30/30/30 34/34/34
f 30/30/30 35/35/35 34/34/34
f 30/30/30 36/36/36 35/35/35
f 36/36/36 37/37/37 35/35/35
f 38/38/38 37/37/37 36/36/36
f 39/39/39 38/38/38 36/36/36
f 40/40/40 38/38/38 39/39/39
f 41/41/41 40/40/40 39/39/39
f 42/42/42 40/40/40 41/41/41
f 43/43/43 42/42/42 41/41/41
f 42/42/42 43/43/43 44/44/44
f 45/45/45 42/42/42 44/44/44
f 45/45/45 44/44/44 46/46/46
f 47/47/47 45/45/45 46/46/46
f 47/47/47 46/46/46 48/48/48
f 49/49/49 47/47/47 48/48/48
f 49/49/49 48/48/48 50/50/50
f 51/51/51 49/49/49 50/50/50
f 50/50/50 48/48/48 3/3/3
f 4/4/4 50/50/50 3/3/3
f 48/48/48 46/46/46 5/5/5
f 3/3/3 48/48/48 5/5/5
f 46/46/46 44/44/44 7/7/7
f 5/5/5 46/46/46 7/7/7
f 44/44/44 43/43/43 9/9/9
f 7/7/7 44/44/44 9/9/9
f 43/43/43 41/41/41 10/10/10
f 9/9/9 43/43/43 10/10/10
f 10/10/10 41/41/41 15/15/15
f 41/41/41 39/39/39 15/15/15
f 15/15/15 39/39/39 20/20/20
f 39/39/39 36/36/36 20/20/20
f 20/20/20 36/36/36 30/30/30
f 51/51/51 50/50/50 52/52/52
f 50/50/50 53/53/53 52/52/52
f 50/50/50 4/4/4 53/53/53
f 4/4/4 1/1/1 53/53/53
f 52/52/52 53/53/53 54/54/54
f 53/53/53 55/55/55 54/54/54
f 53/53/53 1/1/1 55/55/55
f 1/1/1 11/11/11 55/55/55
f 54/54/54 55/55/55 56/56/56
f 55/55/55 57/57/57 56/56/56
f 55/55/55 11/11/11 57/57/57
f 11/11/11 16/16/16 57/57/57
f 56/56/56 57/57/57 26/26/26
f 31/31/31 56/56/56 26/26/26
f 57/57/57 16/16/16 21/21/21
f 26/26/26 57/57/57 21/21/21
f 60/60/60 59/59/59 58/58/58
f 61/61/61 60/60/60 58/58/58
f 60/60/60 62/62/62 59/59/59
f 62/62/62 63/63/63 59/59/59
f 62/62/62 64/64/64 63/63/63
f 64/64/64 65/65/65 63/63/63
f 64/64/64 66/66/66 65/65/65
f 66/66/66 67/67/67 65/65/65
f 58/58/58 59/59/59 68/68/68
f 59/59/59 69/69/69 68/68/68
f 59/59/59 63/63/63 69/69/69
f 63/63/63 70/70/70 69/69/69
f 63/63/63 65/65/65 70/70/70
f 65/65/65 71/71/71 70/70/70
f 65/65/65 67/67/67 71/71/71
f 67/67/67 72/72/72 71/71/71
f 68/68/68 69/69/69 73/73/73
f 68/68/68 73/73/73 58/58/58
f 69/69/69 74/74/74 73/73/73
f 69/69/69 70/70/70 74/74/74
f 70/70/70 75/75/75 74/74/74
f 70/70/70 71/71/71 75/75/75
f 71/71/71 76/76/76 75/75/75
f 71/71/71 72/72/72 76/76/76
f 72/72/72 77/77/77 76/76/76
f 73/73/73 74/74/74 78/78/78
f 74/74/74 79/79/79 78/78/78
f 74/74/74 75/75/75 79/79/79
f 75/75/75 80/80/80 79/79/79
f 75/75/75 76/76/76 80/80/80
f 76/76/76 81/81/81 80/80/80
f 76/76/76 77/77/77 81/81/81
f 77/77/77 82/82/82 81/81/81
f 78/78/78 79/79/79 83/83/83
f 79/79/79 84/84/84 83/83/83
f 79/79/79 80/80/80 84/84/84
f 80/80/80 85/85/85 84/84/84
f 80/80/80 81/81/81 85/85/85
f 81/81/81 86/86/86 85/85/85
f 81/81/81 82/82/82 86/86/86
f 82/82/82 87/87/87 86/86/86
f 83/83/83 84/84/84 88/88/88
f 84/84/84 89/89/89 88/88/88
f 84/84/84 85/85/85 89/89/89
f 85/85/85 90/90/90 89/89/89
f 85/85/85 86/86/86 90/90/90
f 86/86/86 91/91/91 90/90/90
f 86/86/86 87/87/87 91/91/91
f 87/87/87 92/92/92 91/91/91
f 88/88/88 89/89/89 93/93/93
f 88/88/88 93/93/93 83/83/83
f 89/89/89 94/94/94 93/93/93
f 89/89/89 90/90/90 94/94/94
f 90/90/90 95/95/95 94/94/94
f 90/90/90 91/91/91 95/95/95
f 91/91/91 96/96/96 95/95/95
f 91/91/91 92/92/92 96/96/96
f 92/92/92 97/97/97 96/96/96
f 93/93/93 94/94/94 98/98/98
f 94/94/94 99/99/99 98/98/98
f 94/94/94 95/95/95 99/99/99
f 95/95/95 100/100/100 99/99/99
f 95/95/95 96/96/96 100/100/100
f 96/96/96 101/101/101 100/100/100
f 96/96/96 97/97/97 101/101/101
f 97/97/97 102/102/102 101/101/101
f 92/92/92 87/87/87 103/103/103
f 97/97/97 92/92/92 103/103/103
f 97/97/97 103/103/103 104/104/104
f 102/102/102 97/97/97 104/104/104
f 103/103/103 87/87/87 105/105/105
f 87/87/87 82/82/82 105/105/105
f 103/103/103 105/105/105 106/106/106
f 104/104/104 103/103/103 106/106/106
f 105/105/105 82/82/82 107/107/107
f 82/82/82 77/77/77 107/107/107
f 105/105/105 107/107/107 108/108/108
f 106/106/106 105/105/105 108/108/108
f 107/107/107 77/77/77 72/72/72
f 67/67/67 107/107/107 72/72/72
f 108/108/108 107/107/107 67/67/67
f 66/66/66 108/108/108 67/67/67
f 93/93/93 109/109/109 83/83/83
f 93/93/93 98/98/98 109/109/109
f 98/98/98 110/110/110 109/109/109
f 83/83/83 109/109/109 78/78/78
f 109/109/109 111/111/111 78/78/78
f 109/109/109 110/110/110 111/111/111
f 110/110/110 112/112/112 111/111/111
f 78/78/78 111/111/111 73/73/73
f 111/111/111 113/113/113 73/73/73
f 111/111/111 112/112/112 113/113/113
f 112/112/112 114/114/114 113/113/113
f 73/73/73 113/113/113 58/58/58
f 113/113/113 114/114/114 61/61/61
f 58/58/58 113/113/113 61/61/61
