g pm0891_00_TubuCSkin
v -0.002328474 -0.101271 0.002326651
v -0.001356337 -0.1013658 0.002958083
v -0.001293261 -0.1023236 0.002321304
v -0.002037756 -0.1020386 0.002035712
v 1.716614E-08 -0.1025044 0.002487483
v 1.716614E-08 -0.1014479 0.003218532
v 0.001263979 -0.1023242 0.002336738
v 0.001353128 -0.1013668 0.002959026
v 0.00203615 -0.1020387 0.002037251
v 0.002327001 -0.1012717 0.002327785
v -0.002495739 -0.09999998 0.002494208
v -0.001438534 -0.09999998 0.00322208
v 1.716614E-08 -0.09999998 0.00352931
v 0.001438196 -0.09999998 0.003222283
v 0.002494858 -0.09999998 0.002495208
v -0.002327406 -0.09872573 0.002325987
v -0.001354591 -0.09862974 0.002956863
v 1.716614E-08 -0.09854782 0.003216694
v 0.001353624 -0.09863053 0.002957645
v 0.002326563 -0.09872675 0.002327413
v -0.002036764 -0.09796026 0.002035632
v -0.001264736 -0.09767509 0.002335669
v 1.716614E-08 -0.09749515 0.002487075
v 0.001266306 -0.0976762 0.002335947
v 0.002036264 -0.09796134 0.002037221
v -0.00233639 -0.097675 0.001263086
v -0.001366446 -0.09704627 0.001365798
v 1.716614E-08 -0.09678002 0.00144616
v 0.001367748 -0.09704801 0.001368272
v 0.002321251 -0.09767623 0.001293103
v -0.002487022 -0.0974952 5.166379E-08
v -0.001446144 -0.09678004 5.166379E-08
v 1.716614E-08 -0.09646981 5.166379E-08
v 0.001446293 -0.09678009 5.166379E-08
v 0.002487028 -0.09749515 5.166379E-08
v 0.002956904 -0.09863074 0.001355525
v 0.003216732 -0.09854797 5.166379E-08
v 0.003529127 -0.09999998 5.166379E-08
v 0.003222425 -0.09999998 0.001437821
v 0.003218544 -0.101448 5.166379E-08
v 0.002958134 -0.1013665 0.001355472
v 0.002487562 -0.1025044 5.166379E-08
v 0.002335785 -0.1023239 0.001266285
v 0.001365583 -0.1029532 0.001367806
v 0.001445444 -0.1032203 5.166379E-08
v 1.716614E-08 -0.10322 0.001445923
v 1.716614E-08 -0.1035301 5.166379E-08
v -0.00136904 -0.1029527 0.001365385
v -0.001447241 -0.1032194 5.166379E-08
v -0.002337095 -0.1023242 0.001263071
v -0.002487404 -0.1025044 5.166379E-08
v -0.003217499 -0.1014499 5.166379E-08
v -0.002959454 -0.1013678 0.001350994
v -0.003529073 -0.09999998 5.166379E-08
v -0.003223869 -0.09999998 0.001434495
v -0.003217403 -0.09854986 5.166379E-08
v -0.002958843 -0.09863054 0.001350761
v -0.002320701 -0.09767617 -0.00129378
v -0.00136574 -0.09704734 -0.001368708
v -0.001446144 -0.09678004 5.166379E-08
v -0.002487022 -0.0974952 5.166379E-08
v 1.716614E-08 -0.09646981 5.166379E-08
v 1.716614E-08 -0.0967801 -0.001446271
v 0.001446293 -0.09678009 5.166379E-08
v 0.00136832 -0.09704703 -0.00136549
v 0.002487028 -0.09749515 5.166379E-08
v 0.002336462 -0.09767522 -0.001263298
v -0.002035267 -0.09796088 -0.002037631
v -0.001263411 -0.09767536 -0.002336491
v 1.716614E-08 -0.09749499 -0.002486802
v 0.001293095 -0.09767564 -0.002320593
v 0.002037371 -0.0979605 -0.002035182
v -0.002325556 -0.098726 -0.00232788
v -0.001352465 -0.09862985 -0.002957732
v 1.716614E-08 -0.09854799 -0.003216673
v 0.001355627 -0.09863009 -0.002956482
v 0.002327526 -0.0987258 -0.002325835
v -0.002493812 -0.09999998 -0.002496005
v -0.001438305 -0.09999998 -0.003222095
v 1.716614E-08 -0.09999998 -0.003529097
v 0.001438215 -0.09999998 -0.003222161
v 0.002495449 -0.09999998 -0.002494432
v -0.002326538 -0.1012703 -0.002328851
v -0.001353123 -0.1013661 -0.002959247
v 1.716614E-08 -0.101448 -0.003218458
v 0.001356199 -0.1013658 -0.00295804
v 0.002328346 -0.1012703 -0.002327082
v -0.002035687 -0.1020383 -0.002038018
v -0.001263773 -0.1023238 -0.002337086
v 1.716614E-08 -0.1025041 -0.002487696
v 0.001293352 -0.1023231 -0.002321628
v 0.002037743 -0.1020379 -0.002036373
v -0.002321045 -0.1023234 -0.001293903
v -0.001366131 -0.1029524 -0.001368858
v 1.716614E-08 -0.1032196 -0.001446778
v 0.001368092 -0.1029524 -0.001366785
v 0.002336681 -0.1023234 -0.001265297
v -0.002487404 -0.1025044 5.166379E-08
v -0.001447241 -0.1032194 5.166379E-08
v 1.716614E-08 -0.1035301 5.166379E-08
v 0.001445444 -0.1032203 5.166379E-08
v 0.002487562 -0.1025044 5.166379E-08
v 0.002959087 -0.1013659 -0.001353854
v 0.003218544 -0.101448 5.166379E-08
v 0.003221968 -0.09999998 -0.001438708
v 0.003529127 -0.09999998 5.166379E-08
v 0.002957647 -0.09862965 -0.001352551
v 0.003216732 -0.09854797 5.166379E-08
v -0.002956993 -0.1013663 -0.001358158
v -0.003217499 -0.1014499 5.166379E-08
v -0.003220426 -0.09999998 -0.001442249
v -0.003529073 -0.09999998 5.166379E-08
v -0.002956039 -0.09863116 -0.001357774
v -0.003217403 -0.09854986 5.166379E-08
vt 0.3408047 0.618148
vt 0.3458974 0.6182362
vt 0.3455721 0.6157154
vt 0.3416488 0.616129
vt 0.3515638 0.6154567
vt 0.3515652 0.6181823
vt 0.3574053 0.615728
vt 0.3572172 0.618235
vt 0.3614682 0.6161305
vt 0.3623151 0.6181473
vt 0.3403524 0.6210936
vt 0.345791 0.6210939
vt 0.3515652 0.6210943
vt 0.3573385 0.6210943
vt 0.3627712 0.6210946
vt 0.3408092 0.6240474
vt 0.3459052 0.6239613
vt 0.3515657 0.6240155
vt 0.3572217 0.6239601
vt 0.3623151 0.624045
vt 0.3416547 0.6260613
vt 0.3457197 0.6264623
vt 0.3515652 0.6267327
vt 0.3574184 0.62646
vt 0.3614708 0.6260582
vt 0.338372 0.6276611
vt 0.3440038 0.629258
vt 0.3515652 0.6298507
vt 0.3591253 0.6292502
vt 0.3645879 0.6276175
vt 0.3325238 0.6306807
vt 0.3404915 0.6334182
vt 0.3515625 0.6346058
vt 0.3626336 0.633418
vt 0.3706006 0.6306814
vt 0.3679372 0.62489
vt 0.3761865 0.6266514
vt 0.3785781 0.6210936
vt 0.3691121 0.6210939
vt 0.3762008 0.6155514
vt 0.3679429 0.6173049
vt 0.3706046 0.6115078
vt 0.364743 0.6145335
vt 0.359115 0.6129342
vt 0.3626269 0.6087676
vt 0.3515635 0.6123365
vt 0.3515625 0.6075817
vt 0.3439889 0.6129316
vt 0.3404834 0.608771
vt 0.3383676 0.6145283
vt 0.3325206 0.6115078
vt 0.3269323 0.615544
vt 0.3351614 0.6172978
vt 0.3245469 0.6210936
vt 0.3339961 0.6210936
vt 0.3269325 0.626644
vt 0.3351644 0.624894
vt 0.4661449 0.6276155
vt 0.4606732 0.6292503
vt 0.4641953 0.6334178
vt 0.4721633 0.6306806
vt 0.4531251 0.6346054
vt 0.4531254 0.629849
vt 0.4420538 0.6334178
vt 0.4455584 0.629256
vt 0.4340872 0.6306808
vt 0.4399331 0.6276593
vt 0.4630257 0.6260571
vt 0.4589655 0.6264603
vt 0.4531258 0.6267323
vt 0.4471332 0.6264741
vt 0.4432106 0.6260598
vt 0.4638716 0.6240451
vt 0.4587795 0.6239607
vt 0.4531261 0.6240139
vt 0.4474581 0.6239603
vt 0.4423667 0.6240466
vt 0.4643283 0.6210938
vt 0.4588999 0.6210938
vt 0.4531261 0.6210938
vt 0.4473523 0.6210938
vt 0.4419129 0.6210938
vt 0.4638742 0.6181512
vt 0.4587803 0.6182361
vt 0.4531258 0.6181827
vt 0.4474567 0.6182361
vt 0.4423655 0.6181502
vt 0.4630274 0.6161327
vt 0.4589666 0.6157298
vt 0.4531254 0.615458
vt 0.4471327 0.6157169
vt 0.4432111 0.6161325
vt 0.4661459 0.6145732
vt 0.4606746 0.6129382
vt 0.4531265 0.61234
vt 0.445558 0.6129353
vt 0.4399375 0.6145344
vt 0.4721662 0.6115079
vt 0.464204 0.6087713
vt 0.4531251 0.6075821
vt 0.4420601 0.6087677
vt 0.4340826 0.6115079
vt 0.4367348 0.6173058
vt 0.4284874 0.6155515
vt 0.4355828 0.621094
vt 0.4261097 0.6210935
vt 0.4367385 0.6248944
vt 0.4285011 0.626651
vt 0.4694899 0.6173081
vt 0.4777555 0.6155441
vt 0.4706477 0.621094
vt 0.4801403 0.6210935
vt 0.4694861 0.6248865
vt 0.4777551 0.6266439
vn -0.6766976 -0.2944742 0.6748076
vn -0.338217 -0.3405877 0.8772738
vn -0.2986846 -0.6748599 0.6747975
vn -0.5799295 -0.575893 0.5762196
vn -0.002307415 -0.7086915 0.7055148
vn -0.001468957 -0.3697015 0.9291494
vn 0.296109 -0.6745548 0.6762361
vn 0.3388412 -0.3390774 0.8776178
vn 0.5769899 -0.5775348 0.5775259
vn 0.6753939 -0.2953173 0.6757446
vn -0.7076283 0.0004819631 0.7065847
vn -0.3687258 0.0005553961 0.9295381
vn -0.0001932382 0.0005456209 0.9999998
vn 0.3686547 0.000418067 0.9295663
vn 0.7070227 0.0002444983 0.7071908
vn -0.6759744 0.2953876 0.6751332
vn -0.3391337 0.3391689 0.8774695
vn -9.22084E-05 0.3686328 0.9295751
vn 0.3387665 0.3391414 0.877622
vn 0.6752933 0.2944503 0.6762233
vn -0.5773516 0.578041 0.5766574
vn -0.2963025 0.6750907 0.6756163
vn 5.125999E-05 0.7094707 0.7047348
vn 0.2950365 0.6745241 0.6767353
vn 0.5764792 0.5760396 0.5795257
vn -0.675832 0.6749758 0.2960721
vn -0.339763 0.8769965 0.339762
vn 0.0002347231 0.929986 0.3675948
vn 0.3401546 0.8770921 0.3391228
vn 0.6746408 0.6750841 0.298532
vn -0.7052264 0.7089781 -0.00243181
vn -0.3681459 0.9297677 -0.0007972718
vn 0.0001397133 1 -1.782179E-05
vn 0.3679866 0.9298307 0.0007330179
vn 0.7051604 0.7090444 0.002224922
vn 0.8773157 0.3406492 0.3380463
vn 0.9291207 0.369774 0.001368523
vn 0.9999998 0.0005472899 7.843972E-05
vn 0.9296182 0.0004183055 0.368524
vn 0.9296343 -0.3684833 0.0001318455
vn 0.8774976 -0.3391168 0.3391134
vn 0.705138 -0.70907 0.0002024174
vn 0.6759901 -0.6746933 0.2963551
vn 0.3398698 -0.8768762 0.3399658
vn 0.3676327 -0.929971 -3.319979E-05
vn -0.0008189082 -0.9297654 0.3681517
vn -0.0001968742 -0.9999999 -0.0001654625
vn -0.3390959 -0.8771347 0.3400716
vn -0.3681877 -0.9297512 -0.0008093716
vn -0.6770884 -0.674204 0.2949582
vn -0.7054976 -0.7087076 -0.002577603
vn -0.9291173 -0.3697792 -0.002116919
vn -0.8776708 -0.3390947 0.3386869
vn -0.9999994 0.000158906 -0.001067758
vn -0.9296579 0.0002268553 0.368424
vn -0.9291498 0.3696976 -0.002104521
vn -0.8775836 0.3392288 0.3387783
vn -0.6745933 0.67512 -0.2985581
vn -0.3400823 0.8771575 -0.3390261
vn -0.3681459 0.9297677 -0.0007972718
vn -0.7052264 0.7089781 -0.00243181
vn 0.0001397133 1 -1.782179E-05
vn 0.000641942 0.9298131 -0.3680314
vn 0.3679866 0.9298307 0.0007330179
vn 0.339013 0.8772049 -0.3399732
vn 0.7051604 0.7090444 0.002224922
vn 0.6767614 0.6746094 -0.2947817
vn -0.5759518 0.5763593 -0.5797323
vn -0.294761 0.6745679 -0.6768116
vn 0.00229454 0.7090989 -0.7051053
vn 0.2986441 0.6752956 -0.6743793
vn 0.5795899 0.5764282 -0.5760262
vn -0.6747573 0.2947452 -0.6766298
vn -0.3386291 0.3391323 -0.8776785
vn 0.001475572 0.3697965 -0.9291117
vn 0.3381503 0.3407464 -0.8772379
vn 0.6762908 0.2946819 -0.6751248
vn -0.7065532 0.0004876852 -0.7076598
vn -0.3685356 0.0005609989 -0.9296134
vn 0.000215888 0.0005794764 -0.9999998
vn 0.3685815 0.0005807877 -0.9295952
vn 0.7072122 0.0005981922 -0.7070011
vn -0.6748407 -0.2945876 -0.6766152
vn -0.338673 -0.3389888 -0.877717
vn 0.001451612 -0.3696566 -0.9291673
vn 0.3381382 -0.3405437 -0.8773212
vn 0.6762607 -0.2944405 -0.6752601
vn -0.5761859 -0.5758113 -0.5800442
vn -0.2948697 -0.6740524 -0.6772778
vn 0.002224445 -0.70856 -0.705647
vn 0.2986907 -0.6746818 -0.6749728
vn 0.5798099 -0.5757002 -0.5765325
vn -0.6748209 -0.674791 -0.2987873
vn -0.340088 -0.8771172 -0.3391249
vn 0.0005472899 -0.9297531 -0.3681832
vn 0.3391659 -0.8770578 -0.3402
vn 0.6771519 -0.6741133 -0.2950196
vn -0.7054976 -0.7087076 -0.002577603
vn -0.3681877 -0.9297512 -0.0008093716
vn -0.0001968742 -0.9999999 -0.0001654625
vn 0.3676327 -0.929971 -3.319979E-05
vn 0.705138 -0.70907 0.0002024174
vn 0.8776824 -0.3389963 -0.3387552
vn 0.9296343 -0.3684833 0.0001318455
vn 0.9295737 0.0005828142 -0.368636
vn 0.9999998 0.0005472899 7.843972E-05
vn 0.8776553 0.3391137 -0.3387081
vn 0.9291207 0.369774 0.001368523
vn -0.8773408 -0.3405051 -0.3381264
vn -0.9291173 -0.3697792 -0.002116919
vn -0.929502 0.0002931356 -0.368817
vn -0.9999994 0.000158906 -0.001067758
vn -0.8772618 0.3406531 -0.3381824
vn -0.9291498 0.3696976 -0.002104521
g pm0891_00_TubuCSkin_0
f 3/3/3 2/2/2 1/1/1
f 4/4/4 3/3/3 1/1/1
f 3/3/3 5/5/5 2/2/2
f 5/5/5 6/6/6 2/2/2
f 5/5/5 7/7/7 6/6/6
f 7/7/7 8/8/8 6/6/6
f 7/7/7 9/9/9 8/8/8
f 9/9/9 10/10/10 8/8/8
f 1/1/1 2/2/2 11/11/11
f 2/2/2 12/12/12 11/11/11
f 2/2/2 6/6/6 12/12/12
f 6/6/6 13/13/13 12/12/12
f 6/6/6 8/8/8 13/13/13
f 8/8/8 14/14/14 13/13/13
f 8/8/8 10/10/10 14/14/14
f 10/10/10 15/15/15 14/14/14
f 11/11/11 12/12/12 16/16/16
f 12/12/12 17/17/17 16/16/16
f 12/12/12 13/13/13 17/17/17
f 13/13/13 18/18/18 17/17/17
f 13/13/13 14/14/14 18/18/18
f 14/14/14 19/19/19 18/18/18
f 14/14/14 15/15/15 19/19/19
f 15/15/15 20/20/20 19/19/19
f 16/16/16 17/17/17 21/21/21
f 17/17/17 22/22/22 21/21/21
f 17/17/17 18/18/18 22/22/22
f 18/18/18 23/23/23 22/22/22
f 18/18/18 19/19/19 23/23/23
f 19/19/19 24/24/24 23/23/23
f 19/19/19 20/20/20 24/24/24
f 20/20/20 25/25/25 24/24/24
f 21/21/21 22/22/22 26/26/26
f 22/22/22 27/27/27 26/26/26
f 22/22/22 23/23/23 27/27/27
f 23/23/23 28/28/28 27/27/27
f 23/23/23 24/24/24 28/28/28
f 24/24/24 29/29/29 28/28/28
f 24/24/24 25/25/25 29/29/29
f 25/25/25 30/30/30 29/29/29
f 25/25/25 20/20/20 30/30/30
f 26/26/26 27/27/27 31/31/31
f 27/27/27 32/32/32 31/31/31
f 27/27/27 28/28/28 32/32/32
f 28/28/28 33/33/33 32/32/32
f 28/28/28 29/29/29 33/33/33
f 29/29/29 34/34/34 33/33/33
f 29/29/29 30/30/30 34/34/34
f 30/30/30 35/35/35 34/34/34
f 30/30/30 36/36/36 35/35/35
f 36/36/36 37/37/37 35/35/35
f 38/38/38 37/37/37 36/36/36
f 39/39/39 38/38/38 36/36/36
f 40/40/40 38/38/38 39/39/39
f 41/41/41 40/40/40 39/39/39
f 42/42/42 40/40/40 41/41/41
f 43/43/43 42/42/42 41/41/41
f 42/42/42 43/43/43 44/44/44
f 45/45/45 42/42/42 44/44/44
f 45/45/45 44/44/44 46/46/46
f 47/47/47 45/45/45 46/46/46
f 47/47/47 46/46/46 48/48/48
f 49/49/49 47/47/47 48/48/48
f 49/49/49 48/48/48 50/50/50
f 51/51/51 49/49/49 50/50/50
f 50/50/50 48/48/48 3/3/3
f 4/4/4 50/50/50 3/3/3
f 48/48/48 46/46/46 5/5/5
f 3/3/3 48/48/48 5/5/5
f 46/46/46 44/44/44 7/7/7
f 5/5/5 46/46/46 7/7/7
f 44/44/44 43/43/43 9/9/9
f 7/7/7 44/44/44 9/9/9
f 43/43/43 41/41/41 10/10/10
f 9/9/9 43/43/43 10/10/10
f 10/10/10 41/41/41 15/15/15
f 41/41/41 39/39/39 15/15/15
f 15/15/15 39/39/39 20/20/20
f 39/39/39 36/36/36 20/20/20
f 20/20/20 36/36/36 30/30/30
f 51/51/51 50/50/50 52/52/52
f 50/50/50 53/53/53 52/52/52
f 50/50/50 4/4/4 53/53/53
f 4/4/4 1/1/1 53/53/53
f 52/52/52 53/53/53 54/54/54
f 53/53/53 55/55/55 54/54/54
f 53/53/53 1/1/1 55/55/55
f 1/1/1 11/11/11 55/55/55
f 54/54/54 55/55/55 56/56/56
f 55/55/55 57/57/57 56/56/56
f 55/55/55 11/11/11 57/57/57
f 11/11/11 16/16/16 57/57/57
f 56/56/56 57/57/57 26/26/26
f 31/31/31 56/56/56 26/26/26
f 57/57/57 16/16/16 21/21/21
f 26/26/26 57/57/57 21/21/21
f 60/60/60 59/59/59 58/58/58
f 61/61/61 60/60/60 58/58/58
f 60/60/60 62/62/62 59/59/59
f 62/62/62 63/63/63 59/59/59
f 62/62/62 64/64/64 63/63/63
f 64/64/64 65/65/65 63/63/63
f 64/64/64 66/66/66 65/65/65
f 66/66/66 67/67/67 65/65/65
f 58/58/58 59/59/59 68/68/68
f 59/59/59 69/69/69 68/68/68
f 59/59/59 63/63/63 69/69/69
f 63/63/63 70/70/70 69/69/69
f 63/63/63 65/65/65 70/70/70
f 65/65/65 71/71/71 70/70/70
f 65/65/65 67/67/67 71/71/71
f 67/67/67 72/72/72 71/71/71
f 68/68/68 69/69/69 73/73/73
f 68/68/68 73/73/73 58/58/58
f 69/69/69 74/74/74 73/73/73
f 69/69/69 70/70/70 74/74/74
f 70/70/70 75/75/75 74/74/74
f 70/70/70 71/71/71 75/75/75
f 71/71/71 76/76/76 75/75/75
f 71/71/71 72/72/72 76/76/76
f 72/72/72 77/77/77 76/76/76
f 73/73/73 74/74/74 78/78/78
f 74/74/74 79/79/79 78/78/78
f 74/74/74 75/75/75 79/79/79
f 75/75/75 80/80/80 79/79/79
f 75/75/75 76/76/76 80/80/80
f 76/76/76 81/81/81 80/80/80
f 76/76/76 77/77/77 81/81/81
f 77/77/77 82/82/82 81/81/81
f 78/78/78 79/79/79 83/83/83
f 79/79/79 84/84/84 83/83/83
f 79/79/79 80/80/80 84/84/84
f 80/80/80 85/85/85 84/84/84
f 80/80/80 81/81/81 85/85/85
f 81/81/81 86/86/86 85/85/85
f 81/81/81 82/82/82 86/86/86
f 82/82/82 87/87/87 86/86/86
f 83/83/83 84/84/84 88/88/88
f 84/84/84 89/89/89 88/88/88
f 84/84/84 85/85/85 89/89/89
f 85/85/85 90/90/90 89/89/89
f 85/85/85 86/86/86 90/90/90
f 86/86/86 91/91/91 90/90/90
f 86/86/86 87/87/87 91/91/91
f 87/87/87 92/92/92 91/91/91
f 88/88/88 89/89/89 93/93/93
f 88/88/88 93/93/93 83/83/83
f 89/89/89 94/94/94 93/93/93
f 89/89/89 90/90/90 94/94/94
f 90/90/90 95/95/95 94/94/94
f 90/90/90 91/91/91 95/95/95
f 91/91/91 96/96/96 95/95/95
f 91/91/91 92/92/92 96/96/96
f 92/92/92 97/97/97 96/96/96
f 93/93/93 94/94/94 98/98/98
f 94/94/94 99/99/99 98/98/98
f 94/94/94 95/95/95 99/99/99
f 95/95/95 100/100/100 99/99/99
f 95/95/95 96/96/96 100/100/100
f 96/96/96 101/101/101 100/100/100
f 96/96/96 97/97/97 101/101/101
f 97/97/97 102/102/102 101/101/101
f 92/92/92 87/87/87 103/103/103
f 97/97/97 92/92/92 103/103/103
f 97/97/97 103/103/103 104/104/104
f 102/102/102 97/97/97 104/104/104
f 103/103/103 87/87/87 105/105/105
f 87/87/87 82/82/82 105/105/105
f 103/103/103 105/105/105 106/106/106
f 104/104/104 103/103/103 106/106/106
f 105/105/105 82/82/82 107/107/107
f 82/82/82 77/77/77 107/107/107
f 105/105/105 107/107/107 108/108/108
f 106/106/106 105/105/105 108/108/108
f 107/107/107 77/77/77 72/72/72
f 67/67/67 107/107/107 72/72/72
f 108/108/108 107/107/107 67/67/67
f 66/66/66 108/108/108 67/67/67
f 93/93/93 109/109/109 83/83/83
f 93/93/93 98/98/98 109/109/109
f 98/98/98 110/110/110 109/109/109
f 83/83/83 109/109/109 78/78/78
f 109/109/109 111/111/111 78/78/78
f 109/109/109 110/110/110 111/111/111
f 110/110/110 112/112/112 111/111/111
f 78/78/78 111/111/111 73/73/73
f 111/111/111 113/113/113 73/73/73
f 111/111/111 112/112/112 113/113/113
f 112/112/112 114/114/114 113/113/113
f 73/73/73 113/113/113 58/58/58
f 113/113/113 114/114/114 61/61/61
f 58/58/58 113/113/113 61/61/61
