g pm0892_00_EyeDSkin
v 0.07305446 2.149817 0.003859768
v 0.07987906 2.151791 0.02191217
v 0.08908199 2.147711 0.01336696
v 0.08527711 2.146748 0.003859768
v 0.09826794 2.15008 0.01730496
v 0.09719447 2.157012 0.02921319
v 0.1074537 2.152507 0.01336696
v 0.1145244 2.162428 0.02211312
v 0.1214778 2.164627 0.003859768
v 0.1112586 2.153522 0.003859768
v 0.09877712 2.147002 0.003859768
v 0.09404016 2.168975 0.03710577
v 0.1161066 2.177932 0.02774926
v 0.111369 2.194448 0.02957175
v 0.08865808 2.182432 0.04011874
v 0.06604844 2.171027 0.0293461
v 0.07224397 2.160454 0.02727373
v 0.05743534 2.166494 0.003859768
v 0.06354141 2.157224 0.003859768
v 0.125179 2.181722 0.003859768
v 0.1208539 2.199594 0.003859768
v 0.06047441 2.180463 0.02928281
v 0.08078014 2.195144 0.03991432
v 0.05086263 2.190382 0.02913952
v 0.04411459 2.182835 0.003859768
v 0.05226815 2.174591 0.003859768
v 0.0670624 2.208917 0.03963542
v 0.08302761 2.227849 0.02914452
v 0.10093 2.210361 0.02936057
v 0.1092802 2.216829 0.003859768
v 0.08962295 2.235715 0.003859768
v 0.03583675 2.19912 0.02904099
v 0.04690868 2.22104 0.03946889
v 0.01910289 2.203951 0.02900877
v 0.02450014 2.228199 0.03942473
v 5.615926E-16 2.205481 0.02901789
v 5.594739E-16 2.230639 0.03943872
v 5.661833E-16 2.19506 0.003859768
v 0.01680782 2.194028 0.003859768
v 0.02982161 2.252501 0.0290091
v 5.57002E-16 2.255797 0.02901789
v 0.03201806 2.262568 0.003859768
v 5.577083E-16 2.266218 0.003859768
v 0.03117669 2.190132 0.003859768
v 0.06230441 2.252299 0.003859768
v 0.05780723 2.243122 0.02903113
v -0.02982161 2.252501 0.0290091
v -0.02450014 2.228199 0.03942473
v -0.03201806 2.262568 0.003859768
v -0.05780723 2.243122 0.02903113
v -0.04690868 2.22104 0.03946889
v -0.06230441 2.252299 0.003859768
v -0.01910289 2.203951 0.02900877
v -0.01680782 2.194028 0.003859768
v -0.03583675 2.19912 0.02904099
v -0.03117669 2.190132 0.003859768
v -0.08302761 2.227849 0.02914452
v -0.0670624 2.208917 0.03963542
v -0.10093 2.210361 0.02936057
v -0.08078014 2.195144 0.03991432
v -0.05086263 2.190382 0.02913952
v -0.06047441 2.180463 0.02928281
v -0.04411459 2.182835 0.003859768
v -0.05226815 2.174591 0.003859768
v -0.1092802 2.216829 0.003859768
v -0.08962295 2.235715 0.003859768
v -0.08865808 2.182432 0.04011874
v -0.06604844 2.171027 0.0293461
v -0.09404016 2.168975 0.03710577
v -0.07224397 2.160454 0.02727373
v -0.05743534 2.166494 0.003859768
v -0.06354141 2.157224 0.003859768
v -0.111369 2.194448 0.02957175
v -0.1161066 2.177932 0.02774926
v -0.125179 2.181722 0.003859768
v -0.1208539 2.199594 0.003859768
v -0.1145244 2.162428 0.02211312
v -0.09719447 2.157012 0.02921319
v -0.1074537 2.152507 0.01336696
v -0.09826794 2.15008 0.01730496
v -0.07987906 2.151791 0.02191217
v -0.08908199 2.147711 0.01336696
v -0.07305446 2.149817 0.003859768
v -0.08527711 2.146748 0.003859768
v -0.1214778 2.164627 0.003859768
v -0.1112586 2.153522 0.003859768
v -0.09877712 2.147002 0.003859768
v 0.1214778 2.164627 0.003859768
v 0.1145244 2.162428 -0.01439358
v 0.1074537 2.152507 -0.00564743
v 0.1112586 2.153522 0.003859768
v 0.09826794 2.15008 -0.009585427
v 0.09719447 2.157012 -0.02149372
v 0.08908199 2.147711 -0.00564743
v 0.07987906 2.151791 -0.01419263
v 0.08527711 2.146748 0.003859768
v 0.07305446 2.149817 0.003859768
v 0.09877712 2.147002 0.003859768
v 0.07224397 2.160454 -0.01955419
v 0.06354141 2.157224 0.003859768
v 0.06604844 2.171027 -0.02162657
v 0.08865808 2.182432 -0.03239921
v 0.09404016 2.168975 -0.02938624
v 0.111369 2.194448 -0.02185221
v 0.1161066 2.177932 -0.02002972
v 0.1208539 2.199594 0.003859768
v 0.125179 2.181722 0.003859768
v 0.05743534 2.166494 0.003859768
v 0.06047441 2.180463 -0.02156327
v 0.05226815 2.174591 0.003859768
v 0.05086263 2.190382 -0.02141998
v 0.0670624 2.208917 -0.03191588
v 0.08078014 2.195144 -0.03219478
v 0.08302761 2.227849 -0.02142498
v 0.10093 2.210361 -0.02164103
v 0.08962295 2.235715 0.003859768
v 0.1092802 2.216829 0.003859768
v 0.04411459 2.182835 0.003859768
v 0.03583675 2.19912 -0.02132145
v 0.03117669 2.190132 0.003859768
v 0.01910289 2.203951 -0.02128923
v 0.01680782 2.194028 0.003859768
v 5.622989E-16 2.205481 -0.02129835
v 5.661833E-16 2.19506 0.003859768
v 5.615926E-16 2.230639 -0.03171919
v 0.02450014 2.228199 -0.03170519
v 5.608864E-16 2.255797 -0.02129835
v 0.02982161 2.252501 -0.02128957
v 5.577083E-16 2.266218 0.003859768
v 0.03201806 2.262568 0.003859768
v 0.04690868 2.22104 -0.03174936
v 0.05780723 2.243122 -0.02131159
v 0.06230441 2.252299 0.003859768
v -0.02982161 2.252501 -0.02128957
v -0.03201806 2.262568 0.003859768
v -0.02450014 2.228199 -0.03170519
v -0.01910289 2.203951 -0.02128923
v -0.05780723 2.243122 -0.02131159
v -0.06230441 2.252299 0.003859768
v -0.04690868 2.22104 -0.03174936
v -0.03583675 2.19912 -0.02132145
v -0.03117669 2.190132 0.003859768
v -0.01680782 2.194028 0.003859768
v -0.08302761 2.227849 -0.02142498
v -0.08962295 2.235715 0.003859768
v -0.10093 2.210361 -0.02164103
v -0.1092802 2.216829 0.003859768
v -0.08078014 2.195144 -0.03219478
v -0.0670624 2.208917 -0.03191588
v -0.06047441 2.180463 -0.02156327
v -0.05086263 2.190382 -0.02141998
v -0.05226815 2.174591 0.003859768
v -0.04411459 2.182835 0.003859768
v -0.05743534 2.166494 0.003859768
v -0.06604844 2.171027 -0.02162657
v -0.06354141 2.157224 0.003859768
v -0.07224397 2.160454 -0.01955419
v -0.08865808 2.182432 -0.03239921
v -0.09404016 2.168975 -0.02938624
v -0.111369 2.194448 -0.02185221
v -0.1161066 2.177932 -0.02002972
v -0.1208539 2.199594 0.003859768
v -0.125179 2.181722 0.003859768
v -0.07305446 2.149817 0.003859768
v -0.07987906 2.151791 -0.01419263
v -0.08527711 2.146748 0.003859768
v -0.08908199 2.147711 -0.00564743
v -0.09719447 2.157012 -0.02149372
v -0.09826794 2.15008 -0.009585427
v -0.1145244 2.162428 -0.01439358
v -0.1074537 2.152507 -0.00564743
v -0.1214778 2.164627 0.003859768
v -0.1112586 2.153522 0.003859768
v -0.09877712 2.147002 0.003859768
vt 0.3813307 1.265327
vt 0.390625 1.277755
vt 0.4077757 1.273319
vt 0.4042993 1.266214
vt 0.4189474 1.278805
vt 0.4095984 1.286647
vt 0.4341122 1.281412
vt 0.4337822 1.292124
vt 0.461445 1.293282
vt 0.4494229 1.280232
vt 0.429286 1.27042
vt 0.3991507 1.294796
vt 0.4284121 1.303257
vt 0.417638 1.313825
vt 0.387262 1.302597
vt 0.3613617 1.288831
vt 0.3755854 1.283131
vt 0.3435635 1.271457
vt 0.3606274 1.26743
vt 0.4622151 1.309019
vt 0.4507935 1.323913
vt 0.3484853 1.293612
vt 0.3725366 1.309593
vt 0.3305943 1.298819
vt 0.3149777 1.280154
vt 0.3305142 1.275691
vt 0.3499238 1.316606
vt 0.3712341 1.333506
vt 0.4003648 1.323718
vt 0.4280363 1.337135
vt 0.3923435 1.350397
vt 0.3058253 1.303582
vt 0.318998 1.322677
vt 0.2795288 1.306342
vt 0.2858485 1.326273
vt 0.2500176 1.307403
vt 0.2501098 1.327584
vt 0.2499246 1.287054
vt 0.2737436 1.286461
vt 0.29235 1.346024
vt 0.250202 1.347764
vt 0.2988938 1.366013
vt 0.2502925 1.367586
vt 0.2946039 1.284216
vt 0.346414 1.360286
vt 0.3328494 1.34144
vt 0.2080385 1.34612
vt 0.2143594 1.326355
vt 0.2016774 1.366124
vt 0.1674976 1.341629
vt 0.1811773 1.322834
vt 0.1541053 1.360506
vt 0.2204969 1.30641
vt 0.2261004 1.286516
vt 0.1941755 1.303709
vt 0.2052198 1.284318
vt 0.1290408 1.333782
vt 0.1501964 1.316834
vt 0.09982093 1.324061
vt 0.1275198 1.309873
vt 0.1693632 1.299003
vt 0.1514248 1.293837
vt 0.1848091 1.280302
vt 0.169232 1.275875
vt 0.07227239 1.337542
vt 0.108086 1.350722
vt 0.1127306 1.30291
vt 0.1385049 1.289086
vt 0.1007708 1.295137
vt 0.1242292 1.283419
vt 0.1561441 1.271671
vt 0.1390437 1.267683
vt 0.08245761 1.314208
vt 0.07158703 1.303664
vt 0.03783702 1.309504
vt 0.0493946 1.324372
vt 0.06611522 1.292544
vt 0.09024875 1.287012
vt 0.06568731 1.281832
vt 0.08082809 1.279192
vt 0.1091407 1.278076
vt 0.0919496 1.273679
vt 0.1183213 1.265628
vt 0.09536102 1.266567
vt 0.03846331 1.293765
vt 0.05036601 1.280688
vt 0.07041304 1.27083
vt 0.5387356 1.293365
vt 0.5663752 1.292205
vt 0.5660415 1.281502
vt 0.5507429 1.280325
vt 0.5811927 1.278897
vt 0.5905371 1.286731
vt 0.5923532 1.273413
vt 0.6094916 1.277844
vt 0.5958241 1.266314
vt 0.6187736 1.265426
vt 0.5708596 1.270519
vt 0.6245208 1.283215
vt 0.6394607 1.267525
vt 0.6387349 1.288909
vt 0.6128611 1.302665
vt 0.6009792 1.294873
vt 0.5825143 1.313887
vt 0.5717452 1.303329
vt 0.5493899 1.32397
vt 0.5379721 1.30909
vt 0.656512 1.271547
vt 0.6516026 1.293684
vt 0.6695521 1.275776
vt 0.6694809 1.298885
vt 0.6501738 1.31666
vt 0.6275771 1.309655
vt 0.6288875 1.333547
vt 0.599777 1.32377
vt 0.6078018 1.350427
vt 0.5721334 1.337179
vt 0.6850776 1.280234
vt 0.6942313 1.303642
vt 0.7054361 1.284291
vt 0.7205071 1.306397
vt 0.7262801 1.286532
vt 0.7499945 1.307455
vt 0.7500798 1.287123
vt 0.74991 1.32762
vt 0.7142001 1.326312
vt 0.7498254 1.347783
vt 0.7077115 1.346048
vt 0.7497424 1.367588
vt 0.7011805 1.366021
vt 0.6810765 1.322722
vt 0.6672436 1.341472
vt 0.6536972 1.360303
vt 0.7919536 1.346136
vt 0.798317 1.366123
vt 0.7856305 1.326387
vt 0.7794905 1.306459
vt 0.8324594 1.341645
vt 0.8458478 1.360505
vt 0.8187838 1.322867
vt 0.8057893 1.303759
vt 0.7947468 1.284384
vt 0.7738842 1.286582
vt 0.8708817 1.333801
vt 0.8918256 1.350725
vt 0.9000738 1.324085
vt 0.9276049 1.337552
vt 0.8723924 1.309912
vt 0.8497371 1.316869
vt 0.8485011 1.29389
vt 0.8305794 1.299054
vt 0.8307019 1.275945
vt 0.8151393 1.28037
vt 0.8437775 1.271743
vt 0.8614087 1.289142
vt 0.8608624 1.267757
vt 0.8756705 1.283478
vt 0.887167 1.302953
vt 0.899114 1.295185
vt 0.9174193 1.314238
vt 0.928277 1.303702
vt 0.9504589 1.324391
vt 0.9620014 1.309534
vt 0.8815669 1.265702
vt 0.8907446 1.278139
vt 0.9045087 1.266638
vt 0.9079199 1.273744
vt 0.9096243 1.287065
vt 0.9190343 1.279251
vt 0.9337402 1.292591
vt 0.9341636 1.281888
vt 0.9613698 1.293808
vt 0.949472 1.280744
vt 0.9294378 1.270895
vn -0.3118994 -0.9501151 1.516354E-07
vn -0.1586763 -0.887059 0.4335297
vn -0.01266631 -0.9566839 0.2908529
vn -0.04953773 -0.9987723 4.20405E-07
vn 0.2731026 -0.9010195 0.3370146
vn 0.2553204 -0.751965 0.6077501
vn 0.5514027 -0.780467 0.2946631
vn 0.6718085 -0.5936089 0.4430595
vn 0.8391185 -0.5439486 1.269898E-06
vn 0.6005039 -0.7996218 1.005754E-06
vn 0.2832937 -0.9590332 9.956298E-07
vn 0.2025274 -0.4837747 0.8514368
vn 0.7574791 -0.2312069 0.610548
vn 0.7054492 0.1645039 0.6894054
vn 0.124588 -0.1903281 0.9737828
vn -0.4603586 -0.5509074 0.6961114
vn -0.3423798 -0.7248837 0.5977622
vn -0.7088866 -0.7053224 -2.654142E-07
vn -0.5620527 -0.8271014 -2.5102E-07
vn 0.991537 -0.1298243 1.414115E-06
vn 0.949832 0.3127604 1.262691E-06
vn -0.469511 -0.4874905 0.736147
vn 0.06802123 -0.01324008 0.997596
vn -0.3898796 -0.5312951 0.7521431
vn -0.5931379 -0.8051009 9.394393E-07
vn -0.7116122 -0.7025726 0
vn 0.04448792 0.04998435 0.9977587
vn 0.4435942 0.5788745 0.6841992
vn 0.5772297 0.4319935 0.6929556
vn 0.7882465 0.6153597 8.75976E-07
vn 0.6073567 0.7944292 5.146819E-07
vn -0.2619287 -0.602182 0.7541686
vn 0.03485369 0.06177036 0.9974816
vn -0.1264348 -0.6491238 0.7501016
vn 0.02149963 0.0621838 0.9978331
vn 0 -0.6638233 0.7478894
vn 1.733203E-07 0.06195386 0.998079
vn 0 -1 1.113394E-06
vn -0.1945958 -0.9808835 1.306034E-06
vn 0.1590495 0.7116442 0.6842995
vn 0 0.7279829 0.6855952
vn 0.215837 0.9764294 3.428333E-07
vn 0 1 0
vn -0.4008692 -0.9161353 1.318248E-06
vn 0.4193713 0.9078148 3.418885E-07
vn 0.3074968 0.6632328 0.6823254
vn -0.1590492 0.7116443 0.6842995
vn -0.02149946 0.06218346 0.9978332
vn -0.2158367 0.9764295 0
vn -0.3074968 0.663233 0.6823253
vn -0.03485353 0.06177004 0.9974816
vn -0.4193712 0.9078149 0
vn 0.1264351 -0.6491241 0.7501014
vn 0.1945961 -0.9808835 1.119457E-06
vn 0.261929 -0.6021823 0.7541682
vn 0.4008695 -0.9161351 7.532839E-07
vn -0.4435943 0.5788748 0.6841988
vn -0.04448803 0.04998455 0.9977587
vn -0.5772302 0.4319938 0.6929551
vn -0.06802153 -0.01323982 0.997596
vn 0.3898799 -0.5312954 0.7521428
vn 0.469511 -0.4874906 0.736147
vn 0.5931379 -0.8051009 1.878878E-07
vn 0.7116122 -0.7025725 0
vn -0.7882465 0.6153597 0
vn -0.6073567 0.7944293 0
vn -0.1245885 -0.1903283 0.9737828
vn 0.4603584 -0.5509074 0.6961114
vn -0.2025278 -0.4837753 0.8514364
vn 0.3423798 -0.724884 0.5977619
vn 0.7088866 -0.7053224 0
vn 0.5620528 -0.8271013 1.673466E-07
vn -0.7054501 0.164504 0.6894046
vn -0.7574797 -0.2312072 0.610547
vn -0.991537 -0.1298243 3.535288E-07
vn -0.949832 0.3127604 0
vn -0.6718089 -0.5936094 0.4430584
vn -0.2553205 -0.7519659 0.607749
vn -0.5514027 -0.7804673 0.2946621
vn -0.2731026 -0.9010198 0.3370137
vn 0.1586763 -0.8870594 0.433529
vn 0.01266617 -0.9566842 0.290852
vn 0.3118994 -0.9501151 1.516354E-07
vn 0.04953771 -0.9987723 4.204049E-07
vn -0.8391184 -0.5439488 1.111161E-06
vn -0.6005038 -0.7996219 1.436791E-06
vn -0.2832935 -0.9590333 9.956291E-07
vn 0.8391185 -0.5439486 1.269898E-06
vn 0.6718093 -0.5936099 -0.443057
vn 0.551403 -0.7804677 -0.2946607
vn 0.6005039 -0.7996218 1.005754E-06
vn 0.273103 -0.9010201 -0.3370126
vn 0.2553211 -0.7519665 -0.607748
vn -0.01266617 -0.9566844 -0.2908516
vn -0.1586761 -0.8870595 -0.4335289
vn -0.04953773 -0.9987723 4.20405E-07
vn -0.3118994 -0.9501151 1.516354E-07
vn 0.2832937 -0.9590332 9.956298E-07
vn -0.3423797 -0.7248842 -0.5977618
vn -0.5620527 -0.8271014 -2.5102E-07
vn -0.4603585 -0.5509073 -0.6961116
vn 0.1245884 -0.1903284 -0.9737828
vn 0.2025281 -0.4837758 -0.8514361
vn 0.7054502 0.164504 -0.6894042
vn 0.7574806 -0.2312076 -0.6105459
vn 0.949832 0.3127604 1.262691E-06
vn 0.991537 -0.1298243 1.414115E-06
vn -0.7088866 -0.7053224 -2.654142E-07
vn -0.4695112 -0.4874905 -0.7361469
vn -0.7116122 -0.7025726 0
vn -0.38988 -0.5312957 -0.7521425
vn 0.04448778 0.04998456 -0.9977587
vn 0.0680211 -0.01323983 -0.997596
vn 0.4435944 0.578875 -0.6841986
vn 0.5772302 0.4319938 -0.692955
vn 0.6073567 0.7944292 5.146819E-07
vn 0.7882465 0.6153597 8.75976E-07
vn -0.5931379 -0.8051009 9.394393E-07
vn -0.261929 -0.6021832 -0.7541675
vn -0.4008692 -0.9161353 1.318248E-06
vn -0.126435 -0.649125 -0.7501006
vn -0.1945958 -0.9808835 1.306034E-06
vn 0 -0.6638244 -0.7478884
vn 0 -1 1.113394E-06
vn 1.733204E-07 0.06195373 -0.998079
vn 0.02149966 0.06218334 -0.9978332
vn 1.712399E-07 0.7279832 -0.6855949
vn 0.1590495 0.7116444 -0.6842993
vn 0 1 0
vn 0.215837 0.9764294 3.428333E-07
vn 0.03485356 0.06177026 -0.9974816
vn 0.307497 0.6632331 -0.6823251
vn 0.4193713 0.9078148 3.418885E-07
vn -0.1590492 0.7116444 -0.6842994
vn -0.2158367 0.9764295 0
vn -0.02149931 0.06218334 -0.9978332
vn 0.1264354 -0.6491249 -0.7501006
vn -0.3074966 0.6632329 -0.6823254
vn -0.4193712 0.9078149 0
vn -0.03485347 0.06176991 -0.9974817
vn 0.2619294 -0.602183 -0.7541676
vn 0.4008695 -0.9161351 7.532839E-07
vn 0.1945961 -0.9808835 1.119457E-06
vn -0.443594 0.5788749 -0.6841989
vn -0.6073567 0.7944293 0
vn -0.5772297 0.4319937 -0.6929555
vn -0.7882465 0.6153597 0
vn -0.06802066 -0.01324026 -0.9975961
vn -0.04448752 0.04998403 -0.9977587
vn 0.4695116 -0.4874905 -0.7361467
vn 0.3898803 -0.5312957 -0.7521424
vn 0.7116122 -0.7025725 0
vn 0.5931379 -0.8051009 1.878878E-07
vn 0.7088866 -0.7053224 0
vn 0.4603588 -0.5509073 -0.6961113
vn 0.5620528 -0.8271013 1.673466E-07
vn 0.3423802 -0.724884 -0.5977616
vn -0.1245877 -0.1903285 -0.9737828
vn -0.2025274 -0.4837757 -0.8514363
vn -0.7054497 0.164504 -0.689405
vn -0.7574801 -0.2312074 -0.6105465
vn -0.949832 0.3127604 0
vn -0.991537 -0.1298243 3.535288E-07
vn 0.3118994 -0.9501151 1.516354E-07
vn 0.1586765 -0.8870596 -0.4335286
vn 0.04953771 -0.9987723 4.204049E-07
vn 0.01266603 -0.9566845 -0.2908512
vn -0.2553208 -0.7519667 -0.6077479
vn -0.2731029 -0.9010204 -0.3370118
vn -0.6718093 -0.59361 -0.4430568
vn -0.5514032 -0.7804679 -0.2946597
vn -0.8391184 -0.5439488 1.111161E-06
vn -0.6005038 -0.7996219 1.436791E-06
vn -0.2832935 -0.9590333 9.956291E-07
g pm0892_00_EyeDSkin_0
f 3/3/3 2/2/2 1/1/1
f 4/4/4 3/3/3 1/1/1
f 3/3/3 5/5/5 2/2/2
f 5/5/5 6/6/6 2/2/2
f 5/5/5 7/7/7 6/6/6
f 7/7/7 8/8/8 6/6/6
f 8/8/8 7/7/7 9/9/9
f 7/7/7 10/10/10 9/9/9
f 10/10/10 7/7/7 5/5/5
f 11/11/11 10/10/10 5/5/5
f 11/11/11 5/5/5 3/3/3
f 4/4/4 11/11/11 3/3/3
f 6/6/6 8/8/8 12/12/12
f 8/8/8 13/13/13 12/12/12
f 8/8/8 9/9/9 13/13/13
f 12/12/12 13/13/13 14/14/14
f 15/15/15 12/12/12 14/14/14
f 12/12/12 15/15/15 16/16/16
f 17/17/17 12/12/12 16/16/16
f 6/6/6 12/12/12 17/17/17
f 2/2/2 6/6/6 17/17/17
f 17/17/17 16/16/16 18/18/18
f 19/19/19 17/17/17 18/18/18
f 13/13/13 20/20/20 14/14/14
f 9/9/9 20/20/20 13/13/13
f 20/20/20 21/21/21 14/14/14
f 2/2/2 17/17/17 19/19/19
f 1/1/1 2/2/2 19/19/19
f 16/16/16 15/15/15 22/22/22
f 15/15/15 23/23/23 22/22/22
f 22/22/22 23/23/23 24/24/24
f 22/22/22 24/24/24 25/25/25
f 26/26/26 22/22/22 25/25/25
f 16/16/16 22/22/22 26/26/26
f 18/18/18 16/16/16 26/26/26
f 23/23/23 27/27/27 24/24/24
f 27/27/27 23/23/23 28/28/28
f 23/23/23 29/29/29 28/28/28
f 29/29/29 30/30/30 28/28/28
f 21/21/21 30/30/30 29/29/29
f 30/30/30 31/31/31 28/28/28
f 14/14/14 21/21/21 29/29/29
f 15/15/15 14/14/14 29/29/29
f 23/23/23 15/15/15 29/29/29
f 24/24/24 27/27/27 32/32/32
f 27/27/27 33/33/33 32/32/32
f 27/27/27 28/28/28 33/33/33
f 32/32/32 33/33/33 34/34/34
f 33/33/33 35/35/35 34/34/34
f 34/34/34 35/35/35 36/36/36
f 35/35/35 37/37/37 36/36/36
f 34/34/34 36/36/36 38/38/38
f 39/39/39 34/34/34 38/38/38
f 32/32/32 34/34/34 39/39/39
f 35/35/35 40/40/40 37/37/37
f 40/40/40 41/41/41 37/37/37
f 40/40/40 42/42/42 41/41/41
f 42/42/42 43/43/43 41/41/41
f 44/44/44 32/32/32 39/39/39
f 45/45/45 42/42/42 40/40/40
f 46/46/46 45/45/45 40/40/40
f 46/46/46 40/40/40 35/35/35
f 33/33/33 46/46/46 35/35/35
f 24/24/24 32/32/32 44/44/44
f 25/25/25 24/24/24 44/44/44
f 31/31/31 45/45/45 46/46/46
f 28/28/28 31/31/31 46/46/46
f 28/28/28 46/46/46 33/33/33
f 41/41/41 47/47/47 37/37/37
f 47/47/47 48/48/48 37/37/37
f 49/49/49 47/47/47 41/41/41
f 43/43/43 49/49/49 41/41/41
f 47/47/47 50/50/50 48/48/48
f 50/50/50 51/51/51 48/48/48
f 52/52/52 50/50/50 47/47/47
f 49/49/49 52/52/52 47/47/47
f 48/48/48 51/51/51 53/53/53
f 48/48/48 53/53/53 36/36/36
f 36/36/36 53/53/53 38/38/38
f 53/53/53 54/54/54 38/38/38
f 37/37/37 48/48/48 36/36/36
f 53/53/53 55/55/55 54/54/54
f 51/51/51 55/55/55 53/53/53
f 55/55/55 56/56/56 54/54/54
f 50/50/50 57/57/57 51/51/51
f 57/57/57 58/58/58 51/51/51
f 51/51/51 58/58/58 55/55/55
f 57/57/57 59/59/59 58/58/58
f 59/59/59 60/60/60 58/58/58
f 58/58/58 60/60/60 61/61/61
f 55/55/55 61/61/61 56/56/56
f 58/58/58 61/61/61 55/55/55
f 60/60/60 62/62/62 61/61/61
f 61/61/61 62/62/62 63/63/63
f 61/61/61 63/63/63 56/56/56
f 62/62/62 64/64/64 63/63/63
f 65/65/65 59/59/59 57/57/57
f 66/66/66 65/65/65 57/57/57
f 60/60/60 67/67/67 62/62/62
f 67/67/67 68/68/68 62/62/62
f 62/62/62 68/68/68 64/64/64
f 67/67/67 69/69/69 68/68/68
f 69/69/69 70/70/70 68/68/68
f 68/68/68 70/70/70 71/71/71
f 68/68/68 71/71/71 64/64/64
f 70/70/70 72/72/72 71/71/71
f 69/69/69 67/67/67 73/73/73
f 73/73/73 67/67/67 60/60/60
f 59/59/59 73/73/73 60/60/60
f 74/74/74 69/69/69 73/73/73
f 75/75/75 74/74/74 73/73/73
f 76/76/76 75/75/75 73/73/73
f 74/74/74 77/77/77 69/69/69
f 77/77/77 78/78/78 69/69/69
f 69/69/69 78/78/78 70/70/70
f 77/77/77 79/79/79 78/78/78
f 79/79/79 80/80/80 78/78/78
f 78/78/78 80/80/80 81/81/81
f 78/78/78 81/81/81 70/70/70
f 70/70/70 81/81/81 72/72/72
f 80/80/80 82/82/82 81/81/81
f 81/81/81 82/82/82 83/83/83
f 81/81/81 83/83/83 72/72/72
f 82/82/82 84/84/84 83/83/83
f 79/79/79 77/77/77 85/85/85
f 85/85/85 77/77/77 74/74/74
f 75/75/75 85/85/85 74/74/74
f 86/86/86 79/79/79 85/85/85
f 79/79/79 86/86/86 80/80/80
f 86/86/86 87/87/87 80/80/80
f 87/87/87 84/84/84 82/82/82
f 80/80/80 87/87/87 82/82/82
f 76/76/76 73/73/73 59/59/59
f 65/65/65 76/76/76 59/59/59
f 90/90/90 89/89/89 88/88/88
f 91/91/91 90/90/90 88/88/88
f 90/90/90 92/92/92 89/89/89
f 92/92/92 90/90/90 91/91/91
f 92/92/92 93/93/93 89/89/89
f 92/92/92 94/94/94 93/93/93
f 94/94/94 95/95/95 93/93/93
f 94/94/94 96/96/96 95/95/95
f 96/96/96 97/97/97 95/95/95
f 94/94/94 92/92/92 98/98/98
f 96/96/96 94/94/94 98/98/98
f 98/98/98 92/92/92 91/91/91
f 95/95/95 97/97/97 99/99/99
f 97/97/97 100/100/100 99/99/99
f 99/99/99 100/100/100 101/101/101
f 99/99/99 101/101/101 102/102/102
f 103/103/103 99/99/99 102/102/102
f 95/95/95 99/99/99 103/103/103
f 93/93/93 95/95/95 103/103/103
f 103/103/103 102/102/102 104/104/104
f 105/105/105 103/103/103 104/104/104
f 93/93/93 103/103/103 105/105/105
f 105/105/105 104/104/104 106/106/106
f 107/107/107 105/105/105 106/106/106
f 100/100/100 108/108/108 101/101/101
f 89/89/89 93/93/93 105/105/105
f 89/89/89 105/105/105 107/107/107
f 88/88/88 89/89/89 107/107/107
f 101/101/101 108/108/108 109/109/109
f 108/108/108 110/110/110 109/109/109
f 109/109/109 110/110/110 111/111/111
f 109/109/109 111/111/111 112/112/112
f 113/113/113 109/109/109 112/112/112
f 101/101/101 109/109/109 113/113/113
f 102/102/102 101/101/101 113/113/113
f 113/113/113 112/112/112 114/114/114
f 115/115/115 113/113/113 114/114/114
f 102/102/102 113/113/113 115/115/115
f 104/104/104 102/102/102 115/115/115
f 115/115/115 114/114/114 116/116/116
f 117/117/117 115/115/115 116/116/116
f 104/104/104 115/115/115 117/117/117
f 106/106/106 104/104/104 117/117/117
f 110/110/110 118/118/118 111/111/111
f 111/111/111 118/118/118 119/119/119
f 118/118/118 120/120/120 119/119/119
f 119/119/119 120/120/120 121/121/121
f 120/120/120 122/122/122 121/121/121
f 121/121/121 122/122/122 123/123/123
f 122/122/122 124/124/124 123/123/123
f 121/121/121 123/123/123 125/125/125
f 126/126/126 121/121/121 125/125/125
f 119/119/119 121/121/121 126/126/126
f 126/126/126 125/125/125 127/127/127
f 128/128/128 126/126/126 127/127/127
f 128/128/128 127/127/127 129/129/129
f 130/130/130 128/128/128 129/129/129
f 131/131/131 119/119/119 126/126/126
f 131/131/131 126/126/126 128/128/128
f 132/132/132 131/131/131 128/128/128
f 132/132/132 128/128/128 130/130/130
f 133/133/133 132/132/132 130/130/130
f 111/111/111 119/119/119 131/131/131
f 112/112/112 111/111/111 131/131/131
f 112/112/112 131/131/131 132/132/132
f 114/114/114 112/112/112 132/132/132
f 114/114/114 132/132/132 133/133/133
f 116/116/116 114/114/114 133/133/133
f 127/127/127 134/134/134 129/129/129
f 134/134/134 135/135/135 129/129/129
f 136/136/136 134/134/134 127/127/127
f 125/125/125 136/136/136 127/127/127
f 137/137/137 136/136/136 125/125/125
f 134/134/134 138/138/138 135/135/135
f 138/138/138 139/139/139 135/135/135
f 140/140/140 138/138/138 134/134/134
f 136/136/136 140/140/140 134/134/134
f 141/141/141 140/140/140 136/136/136
f 137/137/137 141/141/141 136/136/136
f 142/142/142 141/141/141 137/137/137
f 143/143/143 142/142/142 137/137/137
f 143/143/143 137/137/137 123/123/123
f 123/123/123 137/137/137 125/125/125
f 124/124/124 143/143/143 123/123/123
f 138/138/138 144/144/144 139/139/139
f 144/144/144 145/145/145 139/139/139
f 144/144/144 146/146/146 145/145/145
f 146/146/146 147/147/147 145/145/145
f 148/148/148 146/146/146 144/144/144
f 149/149/149 148/148/148 144/144/144
f 149/149/149 144/144/144 138/138/138
f 140/140/140 149/149/149 138/138/138
f 150/150/150 148/148/148 149/149/149
f 151/151/151 150/150/150 149/149/149
f 151/151/151 149/149/149 140/140/140
f 141/141/141 151/151/151 140/140/140
f 152/152/152 150/150/150 151/151/151
f 153/153/153 152/152/152 151/151/151
f 153/153/153 151/151/151 141/141/141
f 142/142/142 153/153/153 141/141/141
f 152/152/152 154/154/154 150/150/150
f 154/154/154 155/155/155 150/150/150
f 150/150/150 155/155/155 148/148/148
f 154/154/154 156/156/156 155/155/155
f 156/156/156 157/157/157 155/155/155
f 155/155/155 157/157/157 158/158/158
f 155/155/155 158/158/158 148/148/148
f 148/148/148 158/158/158 146/146/146
f 157/157/157 159/159/159 158/158/158
f 158/158/158 159/159/159 160/160/160
f 158/158/158 160/160/160 146/146/146
f 146/146/146 160/160/160 147/147/147
f 159/159/159 161/161/161 160/160/160
f 160/160/160 161/161/161 162/162/162
f 160/160/160 162/162/162 147/147/147
f 161/161/161 163/163/163 162/162/162
f 156/156/156 164/164/164 157/157/157
f 164/164/164 165/165/165 157/157/157
f 157/157/157 165/165/165 159/159/159
f 164/164/164 166/166/166 165/165/165
f 166/166/166 167/167/167 165/165/165
f 165/165/165 167/167/167 168/168/168
f 165/165/165 168/168/168 159/159/159
f 159/159/159 168/168/168 161/161/161
f 167/167/167 169/169/169 168/168/168
f 168/168/168 169/169/169 170/170/170
f 168/168/168 170/170/170 161/161/161
f 161/161/161 170/170/170 163/163/163
f 169/169/169 171/171/171 170/170/170
f 170/170/170 171/171/171 172/172/172
f 170/170/170 172/172/172 163/163/163
f 171/171/171 173/173/173 172/172/172
f 171/171/171 169/169/169 173/173/173
f 167/167/167 166/166/166 174/174/174
f 169/169/169 167/167/167 174/174/174
f 169/169/169 174/174/174 173/173/173
f 66/66/66 57/57/57 50/50/50
f 52/52/52 66/66/66 50/50/50
