g arc_half_ring
v -0.09135401 -0.04067258 0.02000124
v -0.08631601 -0.01834851 0.01618008
v -0.08061694 -0.03589248 0.01618008
v -0.09781585 -0.02078941 0.02000124
v -0.1020947 -0.04545631 0.01618008
v -0.09999887 -1.79559E-06 0.02000124
v -0.08824476 -1.79559E-06 0.01618008
v -0.1093121 -0.02323394 0.01618008
v -0.1087309 -0.04840937 0.006180368
v -0.09781585 0.02078945 0.02000124
v -0.08631601 0.01834855 0.01618008
v -0.1117566 -1.79559E-06 0.01618008
v -0.1164205 -0.02474497 0.006180368
v -0.1087309 -0.04840937 -0.006180324
v -0.09135401 0.04067262 0.02000124
v -0.08061694 0.03589252 0.01618008
v -0.1093121 0.02323399 0.01618008
v -0.1190212 -1.79559E-06 0.006180368
v -0.1164205 -0.02474497 -0.006180324
v -0.1020947 -0.04545631 -0.01618003
v -0.08090026 0.0587796 0.02000124
v -0.07139092 0.05186734 0.01618008
v -0.1020947 0.04545636 0.01618008
v -0.1164205 0.02474501 0.006180368
v -0.1190212 -1.79559E-06 -0.006180324
v -0.1093121 -0.02323394 -0.01618003
v -0.09135401 -0.04067258 -0.0200012
v -0.0669123 0.07431491 0.02000124
v -0.05904839 0.06557926 0.01618008
v -0.1087309 0.04840941 0.006180368
v -0.1164205 0.02474501 -0.006180324
v -0.1117566 -1.79559E-06 -0.01618003
v -0.09781585 -0.02078941 -0.0200012
v -0.08061694 -0.03589248 -0.01618003
v -0.08631601 -0.01834851 -0.01618003
v -0.08824476 -1.79559E-06 -0.01618003
v -0.09999887 -1.79559E-06 -0.0200012
v -0.08631601 0.01834855 -0.01618003
v -0.09781585 0.02078945 -0.0200012
v -0.08061694 0.03589252 -0.01618003
v -0.1093121 0.02323399 -0.01618003
v -0.09135401 0.04067262 -0.0200012
v -0.07139092 0.05186734 -0.01618003
v -0.1020947 0.04545636 -0.01618003
v -0.08090026 0.0587796 -0.0200012
v -0.05904839 0.06557926 -0.01618003
v -0.1087309 0.04840941 -0.006180324
v -0.09041324 0.06568823 -0.01618003
v -0.0669123 0.07431491 -0.0200012
v -0.0441233 0.07642166 -0.01618003
v -0.0962903 0.0699598 -0.006180324
v -0.07477985 0.08305059 -0.01618003
v -0.05000035 0.08660296 -0.0200012
v -0.02726946 0.08392597 -0.01618003
v -0.0962903 0.0699598 0.006180368
v -0.07963986 0.08845181 -0.006180324
v -0.05587739 0.09678429 -0.01618003
v -0.03090175 0.09510616 -0.0200012
v -0.009224229 0.08776166 -0.01618003
v -0.09041324 0.06568823 0.01618008
v -0.07963986 0.08845181 0.006180368
v -0.07477985 0.08305059 0.01618008
v -0.05950969 0.1030754 -0.006180324
v -0.03453404 0.1062864 -0.01618003
v -0.01045195 0.09945402 -0.0200012
v 0.009224184 0.08776166 -0.01618003
v -0.05950969 0.1030754 0.006180368
v -0.05587739 0.09678429 0.01618008
v -0.0367788 0.113195 -0.006180324
v -0.01168329 0.1111427 -0.01618003
v 0.01045191 0.09945402 -0.0200012
v 0.02726942 0.08392597 -0.01618003
v -0.0367788 0.113195 0.006180368
v -0.05000035 0.08660296 0.02000124
v -0.0441233 0.07642166 0.01618008
v -0.01244245 0.118371 -0.006180324
v 0.01168325 0.1111427 -0.01618003
v 0.03090172 0.09510616 -0.0200012
v 0.04412326 0.07642166 -0.01618003
v -0.03453404 0.1062864 0.01618008
v -0.03090175 0.09510616 0.02000124
v -0.02726946 0.08392597 0.01618008
v -0.01244245 0.118371 0.006180368
v 0.0124424 0.118371 -0.006180324
v 0.03453401 0.1062864 -0.01618003
v 0.05000031 0.08660296 -0.0200012
v 0.05904835 0.06557926 -0.01618003
v -0.01045195 0.09945402 0.02000124
v -0.009224229 0.08776166 0.01618008
v -0.01168329 0.1111427 0.01618008
v 0.0124424 0.118371 0.006180368
v 0.03677876 0.113195 -0.006180324
v 0.05587736 0.09678429 -0.01618003
v 0.06691226 0.07431491 -0.0200012
v 0.07139088 0.05186734 -0.01618003
v 0.01045191 0.09945402 0.02000124
v 0.009224184 0.08776166 0.01618008
v 0.01168325 0.1111427 0.01618008
v 0.03677876 0.113195 0.006180368
v 0.05950965 0.1030754 -0.006180324
v 0.07477981 0.08305059 -0.01618003
v 0.08090022 0.0587796 -0.0200012
v 0.08061691 0.03589252 -0.01618003
v 0.03090172 0.09510616 0.02000124
v 0.02726942 0.08392597 0.01618008
v 0.03453401 0.1062864 0.01618008
v 0.05950965 0.1030754 0.006180368
v 0.07963982 0.08845181 -0.006180324
v 0.0904132 0.06568823 -0.01618003
v 0.09135397 0.04067262 -0.0200012
v 0.08631597 0.01834855 -0.01618003
v 0.05000031 0.08660296 0.02000124
v 0.04412326 0.07642166 0.01618008
v 0.05587736 0.09678429 0.01618008
v 0.07963982 0.08845181 0.006180368
v 0.09629025 0.0699598 -0.006180324
v 0.1020947 0.04545636 -0.01618003
v 0.09781581 0.02078945 -0.0200012
v 0.08824472 -1.79559E-06 -0.01618003
v 0.06691226 0.07431491 0.02000124
v 0.05904835 0.06557926 0.01618008
v 0.07477981 0.08305059 0.01618008
v 0.09629025 0.0699598 0.006180368
v 0.1087309 0.04840941 -0.006180324
v 0.109312 0.02323399 -0.01618003
v 0.09999882 -1.79559E-06 -0.0200012
v 0.08631597 -0.01834851 -0.01618003
v 0.08090022 0.0587796 0.02000124
v 0.07139088 0.05186734 0.01618008
v 0.0904132 0.06568823 0.01618008
v 0.1087309 0.04840941 0.006180368
v 0.1164204 0.02474501 -0.006180324
v 0.1117566 -1.79559E-06 -0.01618003
v 0.09781581 -0.02078941 -0.0200012
v 0.08061691 -0.03589248 -0.01618003
v 0.09135397 -0.04067258 -0.0200012
v 0.109312 -0.02323394 -0.01618003
v 0.1020947 -0.04545631 -0.01618003
v 0.1020947 0.04545636 0.01618008
v 0.1164204 0.02474501 0.006180368
v 0.1190211 -1.79559E-06 -0.006180324
v 0.1164204 -0.02474497 -0.006180324
v 0.1087309 -0.04840937 -0.006180324
v 0.09135397 0.04067262 0.02000124
v 0.08061691 0.03589252 0.01618008
v 0.109312 0.02323399 0.01618008
v 0.1190211 -1.79559E-06 0.006180368
v 0.1164204 -0.02474497 0.006180368
v 0.1087309 -0.04840937 0.006180368
v 0.09781581 0.02078945 0.02000124
v 0.08631597 0.01834855 0.01618008
v 0.1117566 -1.79559E-06 0.01618008
v 0.109312 -0.02323394 0.01618008
v 0.1020947 -0.04545631 0.01618008
v 0.09999882 -1.79559E-06 0.02000124
v 0.08824472 -1.79559E-06 0.01618008
v 0.09781581 -0.02078941 0.02000124
v 0.09135397 -0.04067258 0.02000124
v 0.08631597 -0.01834851 0.01618008
v 0.08061691 -0.03589248 0.01618008
vt 0.9999999 0.8533724
vt 0.9462365 0.9999999
vt 0.9999999 0.9999999
vt 0.9462365 0.8533724
vt 0.9999999 0.7116324
vt 0.8934506 0.8533724
vt 0.8934506 0.9999999
vt 0.9462365 0.7116324
vt 0.9999999 0.5689149
vt 0.8406646 0.8533724
vt 0.8406646 0.9999999
vt 0.8934506 0.7116324
vt 0.9462365 0.5689149
vt 0.9999999 0.4271749
vt 0.7878788 0.8533724
vt 0.7878788 0.9999999
vt 0.8406646 0.7116324
vt 0.8934506 0.5689149
vt 0.9462365 0.4271749
vt 0.9999999 0.2844574
vt 0.7360703 0.8533724
vt 0.7360703 0.9999999
vt 0.7878788 0.7116324
vt 0.8406646 0.5689149
vt 0.8934506 0.4271749
vt 0.9462365 0.2844574
vt 0.9999999 0.1427175
vt 0.6832844 0.8533724
vt 0.6832844 0.9999999
vt 0.7878788 0.5689149
vt 0.8406646 0.4271749
vt 0.8934506 0.2844574
vt 0.9462365 0.1427175
vt 0.9999999 -4.470348E-08
vt 0.9462365 -4.470348E-08
vt 0.8934506 -4.470348E-08
vt 0.8934506 0.1427175
vt 0.8406646 -4.470348E-08
vt 0.8406646 0.1427175
vt 0.7878788 -4.470348E-08
vt 0.8406646 0.2844574
vt 0.7878788 0.1427175
vt 0.7360703 -4.470348E-08
vt 0.7878788 0.2844574
vt 0.7360703 0.1427175
vt 0.6832844 -4.470348E-08
vt 0.7878788 0.4271749
vt 0.7360703 0.2844574
vt 0.6832844 0.1427175
vt 0.6304985 -4.470348E-08
vt 0.7360703 0.4271749
vt 0.6832844 0.2844574
vt 0.6304985 0.1427175
vt 0.5777125 -4.470348E-08
vt 0.7360703 0.5689149
vt 0.6832844 0.4271749
vt 0.6304985 0.2844574
vt 0.5777125 0.1427175
vt 0.5259041 -4.470348E-08
vt 0.7360703 0.7116324
vt 0.6832844 0.5689149
vt 0.6832844 0.7116324
vt 0.6304985 0.4271749
vt 0.5777125 0.2844574
vt 0.5259041 0.1427175
vt 0.4731182 -4.470348E-08
vt 0.6304985 0.5689149
vt 0.6304985 0.7116324
vt 0.5777125 0.4271749
vt 0.5259041 0.2844574
vt 0.4731182 0.1427175
vt 0.4203323 -4.470348E-08
vt 0.5777125 0.5689149
vt 0.6304985 0.8533724
vt 0.6304985 0.9999999
vt 0.5259041 0.4271749
vt 0.4731182 0.2844574
vt 0.4203323 0.1427175
vt 0.3675464 -4.470348E-08
vt 0.5777125 0.7116324
vt 0.5777125 0.8533724
vt 0.5777125 0.9999999
vt 0.5259041 0.5689149
vt 0.4731182 0.4271749
vt 0.4203323 0.2844574
vt 0.3675464 0.1427175
vt 0.315738 -4.470348E-08
vt 0.5259041 0.8533724
vt 0.5259041 0.9999999
vt 0.5259041 0.7116324
vt 0.4731182 0.5689149
vt 0.4203323 0.4271749
vt 0.3675464 0.2844574
vt 0.315738 0.1427175
vt 0.262952 -4.470348E-08
vt 0.4731182 0.8533724
vt 0.4731182 0.9999999
vt 0.4731182 0.7116324
vt 0.4203323 0.5689149
vt 0.3675464 0.4271749
vt 0.315738 0.2844574
vt 0.262952 0.1427175
vt 0.2101661 -4.470348E-08
vt 0.4203323 0.8533724
vt 0.4203323 0.9999999
vt 0.4203323 0.7116324
vt 0.3675464 0.5689149
vt 0.315738 0.4271749
vt 0.262952 0.2844574
vt 0.2101661 0.1427175
vt 0.1573802 -4.470348E-08
vt 0.3675464 0.8533724
vt 0.3675464 0.9999999
vt 0.3675464 0.7116324
vt 0.315738 0.5689149
vt 0.262952 0.4271749
vt 0.2101661 0.2844574
vt 0.1573802 0.1427175
vt 0.1055718 -4.470348E-08
vt 0.315738 0.8533724
vt 0.315738 0.9999999
vt 0.315738 0.7116324
vt 0.262952 0.5689149
vt 0.2101661 0.4271749
vt 0.1573802 0.2844574
vt 0.1055718 0.1427175
vt 0.05278588 -4.470348E-08
vt 0.262952 0.8533724
vt 0.262952 0.9999999
vt 0.262952 0.7116324
vt 0.2101661 0.5689149
vt 0.1573802 0.4271749
vt 0.1055718 0.2844574
vt 0.05278588 0.1427175
vt -4.470348E-08 -4.470348E-08
vt -4.470348E-08 0.1427175
vt 0.05278588 0.2844574
vt -4.470348E-08 0.2844574
vt 0.2101661 0.7116324
vt 0.1573802 0.5689149
vt 0.1055718 0.4271749
vt 0.05278588 0.4271749
vt -4.470348E-08 0.4271749
vt 0.2101661 0.8533724
vt 0.2101661 0.9999999
vt 0.1573802 0.7116324
vt 0.1055718 0.5689149
vt 0.05278588 0.5689149
vt -4.470348E-08 0.5689149
vt 0.1573802 0.8533724
vt 0.1573802 0.9999999
vt 0.1055718 0.7116324
vt 0.05278588 0.7116324
vt -4.470348E-08 0.7116324
vt 0.1055718 0.8533724
vt 0.1055718 0.9999999
vt 0.05278588 0.8533724
vt -4.470348E-08 0.8533724
vt 0.05278588 0.9999999
vt -4.470348E-08 0.9999999
vn -0.04117674 -0.01123005 0.9990888
vn 0.3032107 0.06363684 0.9507963
vn 0.295724 0.09358352 0.9506784
vn -0.04117674 -0.01123005 0.9990888
vn -0.5877047 -0.1909105 0.7862292
vn -0.04117674 0.003743351 0.9991449
vn 0.3106974 0.003743351 0.9505015
vn -0.6026781 -0.131017 0.7871554
vn -0.9096321 -0.295724 0.2917475
vn -0.04117674 0.01123005 0.9990888
vn 0.3032107 -0.06363684 0.9507963
vn -0.6101647 -0.003743351 0.7922658
vn -0.9320921 -0.1983972 0.3030558
vn -0.9096321 -0.295724 -0.2917475
vn -0.03369009 0.01871669 0.999257
vn 0.2807506 -0.1235303 0.951798
vn -0.6026781 0.131017 0.7871554
vn -0.9545522 0.003743351 0.2980202
vn -0.9320921 -0.1983972 -0.3030558
vn -0.5877047 -0.1909105 -0.7862292
vn -0.03369009 0.02620339 0.9990888
vn 0.2508039 -0.1834238 0.9505015
vn -0.5577579 0.2508039 0.7912039
vn -0.9320921 0.1983971 0.3030558
vn -0.9545522 0.003743351 -0.2980202
vn -0.6026781 -0.131017 -0.7871554
vn -0.04117674 -0.01123005 -0.9990888
vn -0.02620339 0.02620339 0.9993131
vn 0.2058838 -0.2283438 0.9515624
vn -0.8721988 0.3855643 0.3010141
vn -0.9320921 0.1983971 -0.3030558
vn -0.6101647 0.003743351 -0.7922658
vn -0.04117674 -0.01123005 -0.9990888
vn 0.295724 0.09358352 -0.9506784
vn 0.3032107 0.06363684 -0.9507963
vn 0.3106974 0.003743351 -0.9505015
vn -0.04117674 0.003743351 -0.9991449
vn 0.3032107 -0.06363684 -0.9507963
vn -0.04117674 0.01123005 -0.9990888
vn 0.2807506 -0.1235303 -0.951798
vn -0.6026781 0.131017 -0.7871554
vn -0.03369009 0.01871669 -0.999257
vn 0.2508039 -0.1834238 -0.9505015
vn -0.5577579 0.2508039 -0.7912039
vn -0.03369009 0.02620339 -0.9990888
vn 0.2058838 -0.2283438 -0.9515624
vn -0.8721988 0.3855643 -0.3010141
vn -0.4978645 0.3631042 -0.7875825
vn -0.02620339 0.02620339 -0.9993131
vn 0.153477 -0.2657773 -0.951739
vn -0.7748718 0.5577579 -0.2974556
vn -0.4080243 0.4529443 -0.7926902
vn -0.01871669 0.03369009 -0.999257
vn 0.09358358 -0.295724 -0.9506784
vn -0.7748718 0.5577579 0.2974556
vn -0.6401115 0.7074917 -0.2995209
vn -0.3032107 0.5278112 -0.7933968
vn -0.01123005 0.04117674 -0.9990888
vn 0.03369009 -0.3106974 -0.9499116
vn -0.4978645 0.3631042 0.7875825
vn -0.6401115 0.7074917 0.2995209
vn -0.4080243 0.4529443 0.7926902
vn -0.4754044 0.8272786 -0.2993339
vn -0.1909104 0.580218 -0.7917703
vn -0.003743351 0.04117674 -0.9991449
vn -0.03369009 -0.3106974 -0.9499116
vn -0.4754044 0.8272786 0.2993339
vn -0.3032107 0.5278112 0.7933968
vn -0.295724 0.9096321 -0.2917476
vn -0.06363684 0.6101647 -0.7897148
vn 0.003743351 0.04117674 -0.9991449
vn -0.09358352 -0.295724 -0.9506784
vn -0.295724 0.9096321 0.2917476
vn -0.01871669 0.03369009 0.999257
vn 0.153477 -0.2657773 0.951739
vn -0.1010702 0.9470655 -0.3047158
vn 0.06363684 0.6101647 -0.7897148
vn 0.01123005 0.04117674 -0.9990888
vn -0.153477 -0.2657773 -0.951739
vn -0.1909104 0.580218 0.7917703
vn -0.01123005 0.04117674 0.9990888
vn 0.09358358 -0.295724 0.9506784
vn -0.1010702 0.9470655 0.3047158
vn 0.1010702 0.9470655 -0.3047158
vn 0.1909105 0.580218 -0.7917703
vn 0.01871669 0.03369009 -0.999257
vn -0.2058838 -0.2283438 -0.9515624
vn -0.003743351 0.04117674 0.9991449
vn 0.03369009 -0.3106974 0.9499116
vn -0.06363684 0.6101647 0.7897148
vn 0.1010702 0.9470655 0.3047158
vn 0.295724 0.9096321 -0.2917475
vn 0.3032107 0.5278112 -0.7933968
vn 0.02620339 0.02620339 -0.9993131
vn -0.2508039 -0.1834238 -0.9505016
vn 0.003743351 0.04117674 0.9991449
vn -0.03369009 -0.3106974 0.9499116
vn 0.06363684 0.6101647 0.7897148
vn 0.295724 0.9096321 0.2917475
vn 0.4754044 0.8272786 -0.2993339
vn 0.4080243 0.4529443 -0.7926901
vn 0.03369009 0.02620339 -0.9990888
vn -0.2807507 -0.1235303 -0.951798
vn 0.01123005 0.04117674 0.9990888
vn -0.09358352 -0.295724 0.9506784
vn 0.1909105 0.580218 0.7917703
vn 0.4754044 0.8272786 0.2993339
vn 0.6401115 0.7074917 -0.2995209
vn 0.4978645 0.3631042 -0.7875826
vn 0.03369009 0.01871669 -0.999257
vn -0.3032107 -0.06363684 -0.9507963
vn 0.01871669 0.03369009 0.999257
vn -0.153477 -0.2657773 0.951739
vn 0.3032107 0.5278112 0.7933968
vn 0.6401115 0.7074917 0.2995209
vn 0.7748718 0.5577579 -0.2974554
vn 0.557758 0.2508039 -0.7912039
vn 0.04117674 0.01123005 -0.9990888
vn -0.3106974 0.003743351 -0.9505015
vn 0.02620339 0.02620339 0.9993131
vn -0.2058838 -0.2283438 0.9515624
vn 0.4080243 0.4529443 0.7926901
vn 0.7748718 0.5577579 0.2974554
vn 0.8721987 0.3855643 -0.3010143
vn 0.6026781 0.131017 -0.7871554
vn 0.04117674 -0.003743351 -0.9991449
vn -0.3032107 0.06363684 -0.9507963
vn 0.03369009 0.02620339 0.9990888
vn -0.2508039 -0.1834238 0.9505016
vn 0.4978645 0.3631042 0.7875826
vn 0.8721987 0.3855643 0.3010143
vn 0.9320922 0.1983971 -0.3030556
vn 0.6101648 -0.003743351 -0.7922657
vn 0.04117674 -0.01123005 -0.9990888
vn -0.295724 0.09358352 -0.9506784
vn 0.04117674 -0.01123005 -0.9990888
vn 0.6026781 -0.131017 -0.7871555
vn 0.5877047 -0.1909105 -0.7862292
vn 0.557758 0.2508039 0.7912039
vn 0.9320922 0.1983971 0.3030556
vn 0.9545522 -0.003743351 -0.2980202
vn 0.9320922 -0.1983972 -0.3030556
vn 0.9096321 -0.295724 -0.2917475
vn 0.03369009 0.01871669 0.999257
vn -0.2807507 -0.1235303 0.951798
vn 0.6026781 0.131017 0.7871554
vn 0.9545522 -0.003743351 0.2980202
vn 0.9320922 -0.1983972 0.3030556
vn 0.9096321 -0.295724 0.2917475
vn 0.04117674 0.01123005 0.9990888
vn -0.3032107 -0.06363684 0.9507963
vn 0.6101648 -0.003743351 0.7922657
vn 0.6026781 -0.131017 0.7871555
vn 0.5877047 -0.1909105 0.7862292
vn 0.04117674 -0.003743351 0.9991449
vn -0.3106974 0.003743351 0.9505015
vn 0.04117674 -0.01123005 0.9990888
vn 0.04117674 -0.01123005 0.9990888
vn -0.3032107 0.06363684 0.9507963
vn -0.295724 0.09358352 0.9506784
g arc_half_ring_0
f 3/3/3 2/2/2 1/1/1
f 2/2/2 4/4/4 1/1/1
f 1/1/1 4/4/4 5/5/5
f 6/6/6 4/4/4 2/2/2
f 7/7/7 6/6/6 2/2/2
f 4/4/4 8/8/8 5/5/5
f 5/5/5 8/8/8 9/9/9
f 10/10/10 6/6/6 7/7/7
f 11/11/11 10/10/10 7/7/7
f 6/6/6 12/12/12 4/4/4
f 12/12/12 8/8/8 4/4/4
f 8/8/8 13/13/13 9/9/9
f 9/9/9 13/13/13 14/14/14
f 15/15/15 10/10/10 11/11/11
f 16/16/16 15/15/15 11/11/11
f 10/10/10 17/17/17 6/6/6
f 17/17/17 12/12/12 6/6/6
f 12/12/12 18/18/18 8/8/8
f 18/18/18 13/13/13 8/8/8
f 13/13/13 19/19/19 14/14/14
f 14/14/14 19/19/19 20/20/20
f 21/21/21 15/15/15 16/16/16
f 22/22/22 21/21/21 16/16/16
f 15/15/15 23/23/23 10/10/10
f 23/23/23 17/17/17 10/10/10
f 17/17/17 24/24/24 12/12/12
f 24/24/24 18/18/18 12/12/12
f 18/18/18 25/25/25 13/13/13
f 25/25/25 19/19/19 13/13/13
f 19/19/19 26/26/26 20/20/20
f 20/20/20 26/26/26 27/27/27
f 28/28/28 21/21/21 22/22/22
f 29/29/29 28/28/28 22/22/22
f 23/23/23 30/30/30 17/17/17
f 30/30/30 24/24/24 17/17/17
f 24/24/24 31/31/31 18/18/18
f 31/31/31 25/25/25 18/18/18
f 25/25/25 32/32/32 19/19/19
f 32/32/32 26/26/26 19/19/19
f 26/26/26 33/33/33 27/27/27
f 27/27/27 33/33/33 34/34/34
f 33/33/33 35/35/35 34/34/34
f 36/36/36 35/35/35 33/33/33
f 37/37/37 33/33/33 26/26/26
f 37/37/37 36/36/36 33/33/33
f 32/32/32 37/37/37 26/26/26
f 38/38/38 36/36/36 37/37/37
f 39/39/39 38/38/38 37/37/37
f 39/39/39 37/37/37 32/32/32
f 40/40/40 38/38/38 39/39/39
f 41/41/41 32/32/32 25/25/25
f 41/41/41 39/39/39 32/32/32
f 31/31/31 41/41/41 25/25/25
f 42/42/42 40/40/40 39/39/39
f 42/42/42 39/39/39 41/41/41
f 43/43/43 40/40/40 42/42/42
f 44/44/44 41/41/41 31/31/31
f 44/44/44 42/42/42 41/41/41
f 45/45/45 43/43/43 42/42/42
f 45/45/45 42/42/42 44/44/44
f 46/46/46 43/43/43 45/45/45
f 47/47/47 44/44/44 31/31/31
f 47/47/47 31/31/31 24/24/24
f 30/30/30 47/47/47 24/24/24
f 48/48/48 45/45/45 44/44/44
f 48/48/48 44/44/44 47/47/47
f 49/49/49 46/46/46 45/45/45
f 49/49/49 45/45/45 48/48/48
f 50/50/50 46/46/46 49/49/49
f 51/51/51 47/47/47 30/30/30
f 51/51/51 48/48/48 47/47/47
f 52/52/52 49/49/49 48/48/48
f 52/52/52 48/48/48 51/51/51
f 53/53/53 50/50/50 49/49/49
f 53/53/53 49/49/49 52/52/52
f 54/54/54 50/50/50 53/53/53
f 55/55/55 51/51/51 30/30/30
f 55/55/55 30/30/30 23/23/23
f 56/56/56 52/52/52 51/51/51
f 56/56/56 51/51/51 55/55/55
f 57/57/57 53/53/53 52/52/52
f 57/57/57 52/52/52 56/56/56
f 58/58/58 54/54/54 53/53/53
f 58/58/58 53/53/53 57/57/57
f 59/59/59 54/54/54 58/58/58
f 60/60/60 55/55/55 23/23/23
f 60/60/60 23/23/23 15/15/15
f 21/21/21 60/60/60 15/15/15
f 61/61/61 56/56/56 55/55/55
f 61/61/61 55/55/55 60/60/60
f 62/62/62 60/60/60 21/21/21
f 62/62/62 61/61/61 60/60/60
f 28/28/28 62/62/62 21/21/21
f 63/63/63 57/57/57 56/56/56
f 63/63/63 56/56/56 61/61/61
f 64/64/64 58/58/58 57/57/57
f 64/64/64 57/57/57 63/63/63
f 65/65/65 59/59/59 58/58/58
f 65/65/65 58/58/58 64/64/64
f 66/66/66 59/59/59 65/65/65
f 67/67/67 61/61/61 62/62/62
f 67/67/67 63/63/63 61/61/61
f 68/68/68 62/62/62 28/28/28
f 68/68/68 67/67/67 62/62/62
f 69/69/69 64/64/64 63/63/63
f 69/69/69 63/63/63 67/67/67
f 70/70/70 65/65/65 64/64/64
f 70/70/70 64/64/64 69/69/69
f 71/71/71 66/66/66 65/65/65
f 71/71/71 65/65/65 70/70/70
f 72/72/72 66/66/66 71/71/71
f 73/73/73 69/69/69 67/67/67
f 73/73/73 67/67/67 68/68/68
f 74/74/74 68/68/68 28/28/28
f 74/74/74 28/28/28 29/29/29
f 75/75/75 74/74/74 29/29/29
f 76/76/76 70/70/70 69/69/69
f 76/76/76 69/69/69 73/73/73
f 77/77/77 71/71/71 70/70/70
f 77/77/77 70/70/70 76/76/76
f 78/78/78 72/72/72 71/71/71
f 78/78/78 71/71/71 77/77/77
f 79/79/79 72/72/72 78/78/78
f 80/80/80 68/68/68 74/74/74
f 80/80/80 73/73/73 68/68/68
f 81/81/81 74/74/74 75/75/75
f 81/81/81 80/80/80 74/74/74
f 82/82/82 81/81/81 75/75/75
f 83/83/83 76/76/76 73/73/73
f 83/83/83 73/73/73 80/80/80
f 84/84/84 77/77/77 76/76/76
f 84/84/84 76/76/76 83/83/83
f 85/85/85 78/78/78 77/77/77
f 85/85/85 77/77/77 84/84/84
f 86/86/86 79/79/79 78/78/78
f 86/86/86 78/78/78 85/85/85
f 87/87/87 79/79/79 86/86/86
f 88/88/88 81/81/81 82/82/82
f 89/89/89 88/88/88 82/82/82
f 90/90/90 80/80/80 81/81/81
f 90/90/90 83/83/83 80/80/80
f 88/88/88 90/90/90 81/81/81
f 91/91/91 84/84/84 83/83/83
f 91/91/91 83/83/83 90/90/90
f 92/92/92 85/85/85 84/84/84
f 92/92/92 84/84/84 91/91/91
f 93/93/93 86/86/86 85/85/85
f 93/93/93 85/85/85 92/92/92
f 94/94/94 87/87/87 86/86/86
f 94/94/94 86/86/86 93/93/93
f 95/95/95 87/87/87 94/94/94
f 96/96/96 88/88/88 89/89/89
f 97/97/97 96/96/96 89/89/89
f 98/98/98 90/90/90 88/88/88
f 98/98/98 91/91/91 90/90/90
f 96/96/96 98/98/98 88/88/88
f 99/99/99 92/92/92 91/91/91
f 99/99/99 91/91/91 98/98/98
f 100/100/100 93/93/93 92/92/92
f 100/100/100 92/92/92 99/99/99
f 101/101/101 94/94/94 93/93/93
f 101/101/101 93/93/93 100/100/100
f 102/102/102 95/95/95 94/94/94
f 102/102/102 94/94/94 101/101/101
f 103/103/103 95/95/95 102/102/102
f 104/104/104 96/96/96 97/97/97
f 105/105/105 104/104/104 97/97/97
f 106/106/106 98/98/98 96/96/96
f 106/106/106 99/99/99 98/98/98
f 104/104/104 106/106/106 96/96/96
f 107/107/107 100/100/100 99/99/99
f 107/107/107 99/99/99 106/106/106
f 108/108/108 101/101/101 100/100/100
f 108/108/108 100/100/100 107/107/107
f 109/109/109 102/102/102 101/101/101
f 109/109/109 101/101/101 108/108/108
f 110/110/110 103/103/103 102/102/102
f 110/110/110 102/102/102 109/109/109
f 111/111/111 103/103/103 110/110/110
f 112/112/112 104/104/104 105/105/105
f 113/113/113 112/112/112 105/105/105
f 114/114/114 106/106/106 104/104/104
f 114/114/114 107/107/107 106/106/106
f 112/112/112 114/114/114 104/104/104
f 115/115/115 108/108/108 107/107/107
f 115/115/115 107/107/107 114/114/114
f 116/116/116 109/109/109 108/108/108
f 116/116/116 108/108/108 115/115/115
f 117/117/117 110/110/110 109/109/109
f 117/117/117 109/109/109 116/116/116
f 118/118/118 111/111/111 110/110/110
f 118/118/118 110/110/110 117/117/117
f 119/119/119 111/111/111 118/118/118
f 120/120/120 112/112/112 113/113/113
f 121/121/121 120/120/120 113/113/113
f 122/122/122 114/114/114 112/112/112
f 122/122/122 115/115/115 114/114/114
f 120/120/120 122/122/122 112/112/112
f 123/123/123 116/116/116 115/115/115
f 123/123/123 115/115/115 122/122/122
f 124/124/124 117/117/117 116/116/116
f 124/124/124 116/116/116 123/123/123
f 125/125/125 118/118/118 117/117/117
f 125/125/125 117/117/117 124/124/124
f 126/126/126 119/119/119 118/118/118
f 126/126/126 118/118/118 125/125/125
f 127/127/127 119/119/119 126/126/126
f 128/128/128 120/120/120 121/121/121
f 129/129/129 128/128/128 121/121/121
f 130/130/130 122/122/122 120/120/120
f 130/130/130 123/123/123 122/122/122
f 128/128/128 130/130/130 120/120/120
f 131/131/131 124/124/124 123/123/123
f 131/131/131 123/123/123 130/130/130
f 132/132/132 125/125/125 124/124/124
f 132/132/132 124/124/124 131/131/131
f 133/133/133 126/126/126 125/125/125
f 133/133/133 125/125/125 132/132/132
f 134/134/134 127/127/127 126/126/126
f 134/134/134 126/126/126 133/133/133
f 135/135/135 127/127/127 134/134/134
f 136/136/136 135/135/135 134/134/134
f 136/136/136 134/134/134 137/137/137
f 137/137/137 134/134/134 133/133/133
f 138/138/138 136/136/136 137/137/137
f 139/139/139 130/130/130 128/128/128
f 139/139/139 131/131/131 130/130/130
f 140/140/140 132/132/132 131/131/131
f 140/140/140 131/131/131 139/139/139
f 141/141/141 133/133/133 132/132/132
f 137/137/137 133/133/133 141/141/141
f 141/141/141 132/132/132 140/140/140
f 138/138/138 137/137/137 142/142/142
f 142/142/142 137/137/137 141/141/141
f 143/143/143 138/138/138 142/142/142
f 144/144/144 139/139/139 128/128/128
f 144/144/144 128/128/128 129/129/129
f 145/145/145 144/144/144 129/129/129
f 146/146/146 140/140/140 139/139/139
f 146/146/146 139/139/139 144/144/144
f 147/147/147 141/141/141 140/140/140
f 142/142/142 141/141/141 147/147/147
f 147/147/147 140/140/140 146/146/146
f 143/143/143 142/142/142 148/148/148
f 148/148/148 142/142/142 147/147/147
f 149/149/149 143/143/143 148/148/148
f 150/150/150 144/144/144 145/145/145
f 150/150/150 146/146/146 144/144/144
f 151/151/151 150/150/150 145/145/145
f 152/152/152 147/147/147 146/146/146
f 148/148/148 147/147/147 152/152/152
f 152/152/152 146/146/146 150/150/150
f 149/149/149 148/148/148 153/153/153
f 153/153/153 148/148/148 152/152/152
f 154/154/154 149/149/149 153/153/153
f 155/155/155 150/150/150 151/151/151
f 155/155/155 152/152/152 150/150/150
f 153/153/153 152/152/152 155/155/155
f 156/156/156 155/155/155 151/151/151
f 154/154/154 153/153/153 157/157/157
f 157/157/157 153/153/153 155/155/155
f 157/157/157 155/155/155 156/156/156
f 158/158/158 154/154/154 157/157/157
f 159/159/159 157/157/157 156/156/156
f 158/158/158 157/157/157 159/159/159
f 160/160/160 158/158/158 159/159/159
