g arch
v -0.8542182 3.759865 -0.08602636
v -0.9264613 3.759865 -0.08602636
v -0.9262038 3.772785 -0.08602636
v -0.8531882 3.772785 -0.08602636
v -0.8570236 3.906242 -0.08602636
v -0.8010061 3.871993 -0.08602636
v -0.763465 4.035007 -0.08602636
v -0.7134844 3.992431 -0.08602636
v -0.6508109 4.147552 -0.08602636
v -0.6077825 4.097687 -0.08602636
v -0.519556 4.2411 -0.08602636
v -0.484288 4.185175 -0.08602636
v -0.3741576 4.313354 -0.08602636
v -0.3482846 4.252741 -0.08602636
v -0.288527 4.343273 -0.0853681
v -0.2642019 4.282168 -0.0853681
v -0.8531882 3.759877 -0.09894575
v -0.9264613 3.759865 -0.08602636
v -0.8542182 3.759865 -0.08602636
v -0.9254314 3.759882 -0.09894575
v -0.9505424 3.759865 -0.08602636
v -0.9495124 3.759884 -0.09894575
v -0.9495124 3.759884 -0.09894575
v -0.9495124 3.772803 -0.09894575
v -0.9505424 3.772785 -0.08602636
v -0.9505424 3.759865 -0.08602636
v -0.8531882 3.772803 -0.09894575
v -0.9254314 3.759882 -0.09894575
v -0.8531882 3.759877 -0.09894575
v -0.9254314 3.772803 -0.09894575
v -0.8010061 3.872011 -0.09894575
v -0.8570236 3.90626 -0.09894575
v -0.7134844 3.992449 -0.09894575
v -0.763465 4.035026 -0.09894575
v -0.6077825 4.097705 -0.09894575
v -0.6508109 4.14757 -0.09894575
v -0.484288 4.185194 -0.09894575
v -0.519556 4.241118 -0.09894575
v -0.3482846 4.252759 -0.09894575
v -0.3741576 4.313372 -0.09894575
v -0.2963529 4.341205 -0.09894575
v -0.2718403 4.279634 -0.09894575
v -0.8531881 3.772785 0.08602636
v -0.9264615 3.759865 0.08602635
v -0.8542181 3.759865 0.08602635
v -0.9262038 3.772785 0.08602635
v -0.801006 3.871993 0.08602642
v -0.8570237 3.906242 0.08602636
v -0.7134844 3.992431 0.08602635
v -0.763465 4.035007 0.08602635
v -0.6077825 4.097687 0.08602635
v -0.6508109 4.147552 0.08602635
v -0.4842879 4.185175 0.08602635
v -0.519556 4.2411 0.08602635
v -0.3482846 4.252741 0.08602635
v -0.3741576 4.313354 0.08602635
v -0.288527 4.343273 0.0853681
v -0.2642019 4.282168 0.0853681
v -0.8542181 3.759865 0.08602635
v -0.9254314 3.759882 0.09894575
v -0.8531881 3.759877 0.09894575
v -0.9264615 3.759865 0.08602635
v -0.9505425 3.759865 0.08602635
v -0.9495124 3.759884 0.09894575
v -0.9495124 3.759884 0.09894575
v -0.9505425 3.759865 0.08602635
v -0.9505425 3.772785 0.08602635
v -0.9495124 3.772803 0.09894575
v -0.8531881 3.759877 0.09894575
v -0.9254314 3.759882 0.09894575
v -0.9254314 3.772803 0.09894575
v -0.8531881 3.772803 0.09894575
v -0.8570236 3.90626 0.09894575
v -0.8010061 3.872011 0.09894575
v -0.763465 4.035026 0.09894575
v -0.7134844 3.992449 0.09894575
v -0.6508109 4.14757 0.09894575
v -0.6077825 4.097705 0.09894575
v -0.519556 4.241118 0.09894575
v -0.484288 4.185194 0.09894575
v -0.3741576 4.313372 0.09894575
v -0.3482846 4.252759 0.09894575
v -0.2963529 4.341205 0.09894575
v -0.2718403 4.279634 0.09894575
v -0.8010061 3.871993 -0.08602636
v -0.8531882 3.772803 -0.09894575
v -0.8531882 3.772785 -0.08602636
v -0.8010061 3.872011 -0.09894575
v -0.7134844 3.992449 -0.09894575
v -0.7134844 3.992431 -0.08602636
v -0.6077825 4.097687 -0.08602636
v -0.6077825 4.097705 -0.09894575
v -0.484288 4.185194 -0.09894575
v -0.484288 4.185175 -0.08602636
v -0.3482846 4.252759 -0.09894575
v -0.3482846 4.252741 -0.08602636
v -0.2718403 4.279634 -0.09894575
v -0.2642019 4.282168 -0.0853681
v -0.9495124 3.772803 -0.09894575
v -0.8756961 3.917658 -0.08602636
v -0.9505424 3.772785 -0.08602636
v -0.8756961 3.917676 -0.09894575
v -0.7801253 4.049218 -0.09894575
v -0.7801253 4.0492 -0.08602636
v -0.6651537 4.164173 -0.08602636
v -0.6651537 4.164191 -0.09894575
v -0.5313119 4.25976 -0.09894575
v -0.5313119 4.259742 -0.08602636
v -0.382782 4.333576 -0.09894575
v -0.382782 4.333558 -0.08602636
v -0.2966353 4.363641 -0.0853681
v -0.3045238 4.361728 -0.09894575
v -0.8531881 3.772803 0.09894575
v -0.801006 3.871993 0.08602642
v -0.8531881 3.772785 0.08602636
v -0.8010061 3.872011 0.09894575
v -0.7134844 3.992449 0.09894575
v -0.7134844 3.992431 0.08602635
v -0.6077825 4.097687 0.08602635
v -0.6077825 4.097705 0.09894575
v -0.484288 4.185194 0.09894575
v -0.4842879 4.185175 0.08602635
v -0.3482846 4.252759 0.09894575
v -0.3482846 4.252741 0.08602635
v -0.2718403 4.279634 0.09894575
v -0.2642019 4.282168 0.0853681
v -0.8756962 3.917658 0.08602635
v -0.9495124 3.772803 0.09894575
v -0.9505425 3.772785 0.08602635
v -0.8756961 3.917676 0.09894575
v -0.7801253 4.049218 0.09894575
v -0.7801253 4.0492 0.08602635
v -0.6651537 4.164173 0.08602635
v -0.6651537 4.164191 0.09894575
v -0.5313119 4.25976 0.09894575
v -0.531312 4.259742 0.08602635
v -0.382782 4.333576 0.09894575
v -0.382782 4.333558 0.08602635
v -0.2966353 4.363641 0.0853681
v -0.3045238 4.361728 0.09894575
v -0.288527 4.343273 -0.0853681
v -0.382782 4.333558 -0.08602636
v -0.2966353 4.363641 -0.0853681
v -0.3741576 4.313354 -0.08602636
v -0.519556 4.2411 -0.08602636
v -0.5313119 4.259742 -0.08602636
v -0.6508109 4.147552 -0.08602636
v -0.6651537 4.164173 -0.08602636
v -0.7801253 4.0492 -0.08602636
v -0.763465 4.035007 -0.08602636
v -0.8570236 3.906242 -0.08602636
v -0.8756961 3.917658 -0.08602636
v -0.9505424 3.772785 -0.08602636
v -0.9262038 3.772785 -0.08602636
v -0.9264613 3.759865 -0.08602636
v -0.9505424 3.759865 -0.08602636
v -0.9495124 3.772803 -0.09894575
v -0.9495124 3.759884 -0.09894575
v -0.9254314 3.759882 -0.09894575
v -0.9254314 3.772803 -0.09894575
v -0.8570236 3.90626 -0.09894575
v -0.8756961 3.917676 -0.09894575
v -0.763465 4.035026 -0.09894575
v -0.7801253 4.049218 -0.09894575
v -0.6508109 4.14757 -0.09894575
v -0.6651537 4.164191 -0.09894575
v -0.519556 4.241118 -0.09894575
v -0.5313119 4.25976 -0.09894575
v -0.3741576 4.313372 -0.09894575
v -0.382782 4.333576 -0.09894575
v -0.3045238 4.361728 -0.09894575
v -0.2963529 4.341205 -0.09894575
v -0.3741576 4.313372 0.09894575
v -0.3045238 4.361728 0.09894575
v -0.2963529 4.341205 0.09894575
v -0.382782 4.333576 0.09894575
v -0.519556 4.241118 0.09894575
v -0.5313119 4.25976 0.09894575
v -0.6508109 4.14757 0.09894575
v -0.6651537 4.164191 0.09894575
v -0.763465 4.035026 0.09894575
v -0.7801253 4.049218 0.09894575
v -0.8570236 3.90626 0.09894575
v -0.8756961 3.917676 0.09894575
v -0.9495124 3.772803 0.09894575
v -0.9254314 3.772803 0.09894575
v -0.9254314 3.759882 0.09894575
v -0.9495124 3.759884 0.09894575
v -0.9505425 3.772785 0.08602635
v -0.9505425 3.759865 0.08602635
v -0.9264615 3.759865 0.08602635
v -0.9262038 3.772785 0.08602635
v -0.8570237 3.906242 0.08602636
v -0.8756962 3.917658 0.08602635
v -0.7801253 4.0492 0.08602635
v -0.763465 4.035007 0.08602635
v -0.6508109 4.147552 0.08602635
v -0.6651537 4.164173 0.08602635
v -0.531312 4.259742 0.08602635
v -0.519556 4.2411 0.08602635
v -0.382782 4.333558 0.08602635
v -0.3741576 4.313354 0.08602635
v -0.288527 4.343273 0.0853681
v -0.2966353 4.363641 0.0853681
vt 0.5295762 0.02660685
vt 0.529496 0.02660685
vt 0.5294962 0.02660685
vt 0.5295773 0.02660685
vt 0.5295731 0.02660685
vt 0.5296354 0.02660685
vt 0.5296772 0.02660685
vt 0.5297326 0.02660685
vt 0.5298023 0.02660685
vt 0.5298501 0.02660685
vt 0.5299481 0.02660685
vt 0.5299874 0.02660685
vt 0.5301098 0.02660685
vt 0.5301386 0.02660685
vt 0.5302024 0.02660685
vt 0.5302296 0.02660685
vt 0.5295773 0.02662121
vt 0.529496 0.02660685
vt 0.5295762 0.02660685
vt 0.529497 0.02662121
vt 0.5294692 0.02660685
vt 0.5294703 0.02662121
vt 0.5889057 0.0270573
vt 0.5889057 0.02706331
vt 0.5889118 0.02706329
vt 0.5889118 0.02705728
vt 0.5295773 0.02662121
vt 0.529497 0.02662121
vt 0.5295773 0.02662121
vt 0.529497 0.02662121
vt 0.5296354 0.02662121
vt 0.5295731 0.02662121
vt 0.5297326 0.02662121
vt 0.5296772 0.02662121
vt 0.5298501 0.02662121
vt 0.5298023 0.02662121
vt 0.5299874 0.02662121
vt 0.5299481 0.02662121
vt 0.5301386 0.02662121
vt 0.5301098 0.02662121
vt 0.5301962 0.02662121
vt 0.5302233 0.02662121
vt 0.5295773 0.02641563
vt 0.529496 0.02641563
vt 0.5295762 0.02641563
vt 0.5294962 0.02641563
vt 0.5296354 0.02641563
vt 0.5295731 0.02641563
vt 0.5297326 0.02641563
vt 0.5296772 0.02641563
vt 0.5298501 0.02641563
vt 0.5298023 0.02641563
vt 0.5299874 0.02641563
vt 0.5299481 0.02641563
vt 0.5301386 0.02641563
vt 0.5301098 0.02641563
vt 0.5302024 0.02641563
vt 0.5302296 0.02641563
vt 0.5295762 0.02641563
vt 0.529497 0.02640127
vt 0.5295773 0.02640127
vt 0.529496 0.02641563
vt 0.5294692 0.02641563
vt 0.5294703 0.02640127
vt 0.5889019 0.0270573
vt 0.5888959 0.02705728
vt 0.5888959 0.02706329
vt 0.5889019 0.02706331
vt 0.5295773 0.02640127
vt 0.529497 0.02640127
vt 0.529497 0.02640127
vt 0.5295773 0.02640127
vt 0.5295731 0.02640127
vt 0.5296354 0.02640127
vt 0.5296772 0.02640127
vt 0.5297326 0.02640127
vt 0.5298023 0.02640127
vt 0.5298501 0.02640127
vt 0.5299481 0.02640127
vt 0.5299874 0.02640127
vt 0.5301098 0.02640127
vt 0.5301386 0.02640127
vt 0.5301962 0.02640127
vt 0.5302233 0.02640127
vt 0.5296354 0.02660685
vt 0.5295773 0.02662121
vt 0.5295773 0.02660685
vt 0.5296354 0.02662121
vt 0.5297326 0.02662121
vt 0.5297326 0.02660685
vt 0.5298501 0.02660685
vt 0.5298501 0.02662121
vt 0.5299874 0.02662121
vt 0.5299874 0.02660685
vt 0.5301386 0.02662121
vt 0.5301386 0.02660685
vt 0.5302233 0.02662121
vt 0.5302296 0.02660685
vt 0.5889057 0.02706331
vt 0.5889118 0.02713066
vt 0.5889118 0.02706329
vt 0.5889057 0.02713068
vt 0.5889057 0.02719187
vt 0.5889118 0.02719187
vt 0.5889118 0.02724535
vt 0.5889057 0.02724537
vt 0.5888921 0.02716644
vt 0.588886 0.02716644
vt 0.5888921 0.02709736
vt 0.588886 0.02709736
vt 0.5888858 0.02705728
vt 0.5888921 0.02706095
vt 0.5295773 0.02640127
vt 0.5296354 0.02641563
vt 0.5295773 0.02641563
vt 0.5296354 0.02640127
vt 0.5297326 0.02640127
vt 0.5297326 0.02641563
vt 0.5298501 0.02641563
vt 0.5298501 0.02640127
vt 0.5299874 0.02640127
vt 0.5299874 0.02641563
vt 0.5301386 0.02640127
vt 0.5301386 0.02641563
vt 0.5302233 0.02640127
vt 0.5302296 0.02641563
vt 0.5888959 0.02713066
vt 0.5889019 0.02706331
vt 0.5888959 0.02706329
vt 0.5889019 0.02713068
vt 0.5889019 0.02719187
vt 0.5888959 0.02719187
vt 0.5888959 0.02724535
vt 0.5889019 0.02724537
vt 0.5888757 0.02716644
vt 0.5888816 0.02716644
vt 0.5888757 0.02709736
vt 0.5888816 0.02709736
vt 0.588882 0.02705728
vt 0.5888757 0.02706095
vt 0.5891297 0.02674686
vt 0.5891253 0.0267907
vt 0.5891392 0.02675063
vt 0.5891159 0.02678669
vt 0.5890822 0.02685432
vt 0.5890909 0.02685979
vt 0.5890387 0.02691538
vt 0.5890464 0.02692206
vt 0.588993 0.02697553
vt 0.5889863 0.02696778
vt 0.5889264 0.0270113
vt 0.5889318 0.02701998
vt 0.5888643 0.0270548
vt 0.5888643 0.02704348
vt 0.5888584 0.0270436
vt 0.5888584 0.0270548
vt 0.5894732 0.02736112
vt 0.5894793 0.02736112
vt 0.5894793 0.02734991
vt 0.5894732 0.02734991
vt 0.5894111 0.02731808
vt 0.5894059 0.02732677
vt 0.5893513 0.02727457
vt 0.5893447 0.02728231
vt 0.589299 0.02722214
vt 0.5892912 0.02722884
vt 0.5892555 0.02716111
vt 0.5892467 0.02716656
vt 0.5892218 0.02709347
vt 0.5892124 0.02709749
vt 0.5891993 0.02706108
vt 0.5892088 0.02705729
vt 0.589173 0.02709347
vt 0.5891955 0.02706108
vt 0.589186 0.02705728
vt 0.5891824 0.02709748
vt 0.5891393 0.0271611
vt 0.589148 0.02716656
vt 0.5890958 0.02722214
vt 0.5891036 0.02722884
vt 0.5890436 0.02727456
vt 0.5890502 0.02728232
vt 0.5889837 0.02731807
vt 0.5889889 0.02732678
vt 0.5889215 0.02736112
vt 0.5889215 0.02734991
vt 0.5889156 0.02734991
vt 0.5889156 0.02736112
vt 0.5894189 0.0270548
vt 0.5894248 0.0270548
vt 0.5894248 0.02704359
vt 0.5894189 0.02704347
vt 0.5893568 0.0270113
vt 0.5893514 0.02701999
vt 0.5892903 0.02697553
vt 0.5892969 0.02696778
vt 0.5892445 0.02691537
vt 0.5892369 0.02692205
vt 0.5891923 0.02685979
vt 0.589201 0.02685431
vt 0.5891579 0.0267907
vt 0.5891674 0.02678669
vt 0.5891535 0.02674686
vt 0.589144 0.02675063
vn 0 0 1
vn 0 0 1
vn 0 0 1
vn 0 0 1
vn 0 0 1
vn 0 0 1
vn 0 0 1
vn 0 0 1
vn 0 0 1
vn 0 0 1
vn 0 0 1
vn 0 0 1
vn 0 0 1
vn 0 0 1
vn -0.00675986 -0.002787857 0.9999733
vn 0 0 1
vn 0 -1 0
vn -3.168214E-05 -0.9999993 -0.001192806
vn 0 -1 0
vn -3.168214E-05 -0.9999993 -0.001183097
vn 0 -1 0
vn 0 -1 0
vn -0.9968373 0 -0.07946953
vn -0.9968373 0 -0.07946953
vn -0.9968373 0 -0.07946953
vn -0.9968373 0 -0.07946953
vn 0 0 -1
vn 0 0 -1
vn 0 0 -1
vn 0 0 -1
vn 0 0 -1
vn 0 0 -1
vn 0 0 -1
vn 0 0 -1
vn 0 0 -1
vn 0 0 -1
vn 0 0 -1
vn 0 0 -1
vn 0 0 -1
vn 0 0 -1
vn 0 0 -1
vn 0 0 -1
vn 0 0 -1
vn 0 0 -1
vn 0 0 -1
vn 0 0 -1
vn 0 0 -1
vn 0 0 -1
vn 0 0 -1
vn 0 0 -1
vn 0 0 -1
vn 0 0 -1
vn 0 0 -1
vn 0 0 -1
vn 0 0 -1
vn 0 0 -1
vn -0.006759909 -0.002787856 -0.9999733
vn 0 0 -1
vn 0 -1 7.387189E-06
vn -3.168203E-05 -0.9999993 0.001183538
vn 0 -1 7.38719E-06
vn -3.168201E-05 -0.9999993 0.001193321
vn 0 -1 7.387189E-06
vn 0 -1 7.38719E-06
vn -0.9968373 0 0.07946953
vn -0.9968373 0 0.07946953
vn -0.9968373 0 0.07946953
vn -0.9968373 0 0.07946953
vn 0 0 1
vn 0 0 1
vn 0 0 1
vn 0 0 1
vn 0 0 1
vn 0 0 1
vn 0 0 1
vn 0 0 1
vn 0 0 1
vn 0 0 1
vn 0 0 1
vn 0 0 1
vn 0 0 1
vn 0 0 1
vn 0 0 1
vn 0 0 1
vn 0.8525913 -0.5225782 0
vn 0.9081109 -0.4187298 0
vn 0.9081109 -0.4187298 0
vn 0.8525913 -0.5225782 0
vn 0.7603281 -0.6495393 0
vn 0.7603281 -0.6495393 0
vn 0.643101 -0.7657815 0
vn 0.643101 -0.7657815 0
vn 0.5129239 -0.8584341 0
vn 0.5129239 -0.8584341 0
vn 0.3698977 -0.9290599 0.004840034
vn 0.3698977 -0.9290599 0.004840034
vn 0.3164998 -0.9478273 0.03809435
vn 0.3207761 -0.9466577 0.03069139
vn -0.9051377 0.423584 -0.03608818
vn -0.8526417 0.522496 0
vn -0.9051378 0.4235839 -0.03608818
vn -0.8526417 0.522496 0
vn -0.7604044 0.6494499 0
vn -0.7604044 0.6494499 0
vn -0.6476524 0.7619359 0
vn -0.6476524 0.7619359 0
vn -0.5130508 0.8583583 0
vn -0.5130508 0.8583583 0
vn -0.374508 0.9272159 -0.003820382
vn -0.374508 0.9272159 -0.003820382
vn -0.3396727 0.9405139 -0.007496631
vn -0.3396726 0.9405139 -0.00749663
vn 0.9081109 -0.4187298 0
vn 0.8525913 -0.5225782 0
vn 0.9081109 -0.4187298 0
vn 0.8525913 -0.5225782 0
vn 0.7603281 -0.6495393 0
vn 0.7603281 -0.6495393 0
vn 0.643101 -0.7657815 0
vn 0.643101 -0.7657815 0
vn 0.5129239 -0.8584341 0
vn 0.5129239 -0.8584341 0
vn 0.3698977 -0.9290599 -0.004834474
vn 0.3698977 -0.9290599 -0.004834474
vn 0.3165 -0.9478274 -0.03809051
vn 0.3207763 -0.9466578 -0.03068583
vn -0.8526417 0.522496 0
vn -0.9051379 0.423584 0.03608382
vn -0.9051379 0.423584 0.03608382
vn -0.8526417 0.522496 0
vn -0.7604044 0.6494499 0
vn -0.7604044 0.6494499 0
vn -0.6476524 0.7619359 0
vn -0.6476524 0.7619359 0
vn -0.5130508 0.8583583 0
vn -0.5130508 0.8583583 0
vn -0.3745081 0.9272159 0.003820381
vn -0.3745081 0.9272159 0.003820381
vn -0.3396727 0.9405138 0.007496629
vn -0.3396727 0.9405138 0.00749663
vn -0.00675986 -0.002787857 0.9999733
vn 0 0 1
vn 0 0 1
vn -0.006757718 -0.002786973 0.9999733
vn 0 0 1
vn 0 0 1
vn 0 0 1
vn 0 0 1
vn 0 0 1
vn 0 0 1
vn 0 0 1
vn 0 0 1
vn 0 0 1
vn 0 0 1
vn 0 0 1
vn 0 0 1
vn 0 0 -1
vn 0 0 -1
vn 0 0 -1
vn 0 0 -1
vn 0 0 -1
vn 0 0 -1
vn 0 0 -1
vn 0 0 -1
vn 0 0 -1
vn 0 0 -1
vn 0 0 -1
vn 0 0 -1
vn 0 0 -1
vn 0 0 -1
vn 0 0 -1
vn 0 0 -1
vn 0 0 1
vn 0 0 1
vn 0 0 1
vn 0 0 1
vn 0 0 1
vn 0 0 1
vn 0 0 1
vn 0 0 1
vn 0 0 1
vn 0 0 1
vn 0 0 1
vn 0 0 1
vn 0 0 1
vn 0 0 1
vn 0 0 1
vn 0 0 1
vn 0 0 -1
vn 0 0 -1
vn 0 0 -1
vn 0 0 -1
vn 0 0 -1
vn 0 0 -1
vn 0 0 -1
vn 0 0 -1
vn 0 0 -1
vn 0 0 -1
vn 0 0 -1
vn 0 0 -1
vn 0 0 -1
vn 0 0 -1
vn -0.006759909 -0.002787856 -0.9999733
vn 0 0 -1
g arch_0
f 3/3/3 2/2/2 1/1/1
f 4/4/4 3/3/3 1/1/1
f 5/5/5 3/3/3 4/4/4
f 6/6/6 5/5/5 4/4/4
f 7/7/7 5/5/5 6/6/6
f 8/8/8 7/7/7 6/6/6
f 9/9/9 7/7/7 8/8/8
f 10/10/10 9/9/9 8/8/8
f 11/11/11 9/9/9 10/10/10
f 12/12/12 11/11/11 10/10/10
f 13/13/13 11/11/11 12/12/12
f 14/14/14 13/13/13 12/12/12
f 15/15/15 13/13/13 14/14/14
f 16/16/16 15/15/15 14/14/14
f 19/19/19 18/18/18 17/17/17
f 18/18/18 20/20/20 17/17/17
f 20/20/20 18/18/18 21/21/21
f 22/22/22 20/20/20 21/21/21
f 25/25/25 24/24/24 23/23/23
f 26/26/26 25/25/25 23/23/23
f 29/29/29 28/28/28 27/27/27
f 28/28/28 30/30/30 27/27/27
f 27/27/27 30/30/30 31/31/31
f 30/30/30 32/32/32 31/31/31
f 31/31/31 32/32/32 33/33/33
f 32/32/32 34/34/34 33/33/33
f 33/33/33 34/34/34 35/35/35
f 34/34/34 36/36/36 35/35/35
f 35/35/35 36/36/36 37/37/37
f 36/36/36 38/38/38 37/37/37
f 37/37/37 38/38/38 39/39/39
f 38/38/38 40/40/40 39/39/39
f 39/39/39 40/40/40 41/41/41
f 42/42/42 39/39/39 41/41/41
f 45/45/45 44/44/44 43/43/43
f 44/44/44 46/46/46 43/43/43
f 43/43/43 46/46/46 47/47/47
f 46/46/46 48/48/48 47/47/47
f 47/47/47 48/48/48 49/49/49
f 48/48/48 50/50/50 49/49/49
f 49/49/49 50/50/50 51/51/51
f 50/50/50 52/52/52 51/51/51
f 51/51/51 52/52/52 53/53/53
f 52/52/52 54/54/54 53/53/53
f 53/53/53 54/54/54 55/55/55
f 54/54/54 56/56/56 55/55/55
f 55/55/55 56/56/56 57/57/57
f 58/58/58 55/55/55 57/57/57
f 61/61/61 60/60/60 59/59/59
f 60/60/60 62/62/62 59/59/59
f 62/62/62 60/60/60 63/63/63
f 60/60/60 64/64/64 63/63/63
f 67/67/67 66/66/66 65/65/65
f 68/68/68 67/67/67 65/65/65
f 71/71/71 70/70/70 69/69/69
f 72/72/72 71/71/71 69/69/69
f 73/73/73 71/71/71 72/72/72
f 74/74/74 73/73/73 72/72/72
f 75/75/75 73/73/73 74/74/74
f 76/76/76 75/75/75 74/74/74
f 77/77/77 75/75/75 76/76/76
f 78/78/78 77/77/77 76/76/76
f 79/79/79 77/77/77 78/78/78
f 80/80/80 79/79/79 78/78/78
f 81/81/81 79/79/79 80/80/80
f 82/82/82 81/81/81 80/80/80
f 83/83/83 81/81/81 82/82/82
f 84/84/84 83/83/83 82/82/82
f 87/87/87 86/86/86 85/85/85
f 86/86/86 88/88/88 85/85/85
f 85/85/85 88/88/88 89/89/89
f 90/90/90 85/85/85 89/89/89
f 90/90/90 89/89/89 91/91/91
f 89/89/89 92/92/92 91/91/91
f 91/91/91 92/92/92 93/93/93
f 94/94/94 91/91/91 93/93/93
f 94/94/94 93/93/93 95/95/95
f 96/96/96 94/94/94 95/95/95
f 96/96/96 95/95/95 97/97/97
f 98/98/98 96/96/96 97/97/97
f 101/101/101 100/100/100 99/99/99
f 100/100/100 102/102/102 99/99/99
f 103/103/103 102/102/102 100/100/100
f 104/104/104 103/103/103 100/100/100
f 104/104/104 105/105/105 103/103/103
f 105/105/105 106/106/106 103/103/103
f 107/107/107 106/106/106 105/105/105
f 108/108/108 107/107/107 105/105/105
f 109/109/109 107/107/107 108/108/108
f 110/110/110 109/109/109 108/108/108
f 110/110/110 111/111/111 109/109/109
f 111/111/111 112/112/112 109/109/109
f 115/115/115 114/114/114 113/113/113
f 114/114/114 116/116/116 113/113/113
f 117/117/117 116/116/116 114/114/114
f 118/118/118 117/117/117 114/114/114
f 118/118/118 119/119/119 117/117/117
f 119/119/119 120/120/120 117/117/117
f 121/121/121 120/120/120 119/119/119
f 122/122/122 121/121/121 119/119/119
f 123/123/123 121/121/121 122/122/122
f 124/124/124 123/123/123 122/122/122
f 123/123/123 124/124/124 125/125/125
f 124/124/124 126/126/126 125/125/125
f 129/129/129 128/128/128 127/127/127
f 128/128/128 130/130/130 127/127/127
f 127/127/127 130/130/130 131/131/131
f 132/132/132 127/127/127 131/131/131
f 132/132/132 131/131/131 133/133/133
f 131/131/131 134/134/134 133/133/133
f 133/133/133 134/134/134 135/135/135
f 136/136/136 133/133/133 135/135/135
f 136/136/136 135/135/135 137/137/137
f 138/138/138 136/136/136 137/137/137
f 139/139/139 138/138/138 137/137/137
f 140/140/140 139/139/139 137/137/137
f 143/143/143 142/142/142 141/141/141
f 142/142/142 144/144/144 141/141/141
f 144/144/144 142/142/142 145/145/145
f 142/142/142 146/146/146 145/145/145
f 145/145/145 146/146/146 147/147/147
f 146/146/146 148/148/148 147/147/147
f 147/147/147 148/148/148 149/149/149
f 150/150/150 147/147/147 149/149/149
f 150/150/150 149/149/149 151/151/151
f 149/149/149 152/152/152 151/151/151
f 151/151/151 152/152/152 153/153/153
f 154/154/154 151/151/151 153/153/153
f 155/155/155 154/154/154 153/153/153
f 156/156/156 155/155/155 153/153/153
f 159/159/159 158/158/158 157/157/157
f 160/160/160 159/159/159 157/157/157
f 160/160/160 157/157/157 161/161/161
f 157/157/157 162/162/162 161/161/161
f 161/161/161 162/162/162 163/163/163
f 162/162/162 164/164/164 163/163/163
f 163/163/163 164/164/164 165/165/165
f 164/164/164 166/166/166 165/165/165
f 165/165/165 166/166/166 167/167/167
f 166/166/166 168/168/168 167/167/167
f 167/167/167 168/168/168 169/169/169
f 168/168/168 170/170/170 169/169/169
f 169/169/169 170/170/170 171/171/171
f 172/172/172 169/169/169 171/171/171
f 175/175/175 174/174/174 173/173/173
f 174/174/174 176/176/176 173/173/173
f 173/173/173 176/176/176 177/177/177
f 176/176/176 178/178/178 177/177/177
f 177/177/177 178/178/178 179/179/179
f 178/178/178 180/180/180 179/179/179
f 179/179/179 180/180/180 181/181/181
f 180/180/180 182/182/182 181/181/181
f 181/181/181 182/182/182 183/183/183
f 182/182/182 184/184/184 183/183/183
f 183/183/183 184/184/184 185/185/185
f 186/186/186 183/183/183 185/185/185
f 186/186/186 185/185/185 187/187/187
f 185/185/185 188/188/188 187/187/187
f 191/191/191 190/190/190 189/189/189
f 192/192/192 191/191/191 189/189/189
f 192/192/192 189/189/189 193/193/193
f 189/189/189 194/194/194 193/193/193
f 193/193/193 194/194/194 195/195/195
f 196/196/196 193/193/193 195/195/195
f 196/196/196 195/195/195 197/197/197
f 195/195/195 198/198/198 197/197/197
f 197/197/197 198/198/198 199/199/199
f 200/200/200 197/197/197 199/199/199
f 200/200/200 199/199/199 201/201/201
f 202/202/202 200/200/200 201/201/201
f 202/202/202 201/201/201 203/203/203
f 201/201/201 204/204/204 203/203/203
