g arch
v -0.85421824 3.7598653 -0.086026356
v -0.92646134 3.7598653 -0.086026356
v -0.92620385 3.772785 -0.086026356
v -0.85318816 3.772785 -0.086026356
v -0.8570236 3.9062417 -0.086026356
v -0.8010061 3.871993 -0.086026356
v -0.76346505 4.035007 -0.086026356
v -0.7134844 3.9924307 -0.086026356
v -0.6508109 4.1475515 -0.086026356
v -0.60778254 4.0976872 -0.086026356
v -0.519556 4.2411 -0.086026356
v -0.484288 4.185175 -0.086026356
v -0.3741576 4.3133535 -0.086026356
v -0.34828457 4.252741 -0.086026356
v -0.28852695 4.3432727 -0.085368104
v -0.2642019 4.2821684 -0.085368104
v -0.85318816 3.7598774 -0.09894575
v -0.92646134 3.7598653 -0.086026356
v -0.85421824 3.7598653 -0.086026356
v -0.9254314 3.7598822 -0.09894575
v -0.9505424 3.7598653 -0.086026356
v -0.9495124 3.7598836 -0.09894575
v -0.9495124 3.7598836 -0.09894575
v -0.9495124 3.7728033 -0.09894575
v -0.9505424 3.772785 -0.086026356
v -0.9505424 3.7598653 -0.086026356
v -0.85318816 3.7728033 -0.09894575
v -0.9254314 3.7598822 -0.09894575
v -0.85318816 3.7598774 -0.09894575
v -0.9254314 3.7728033 -0.09894575
v -0.8010061 3.8720114 -0.09894575
v -0.8570236 3.90626 -0.09894575
v -0.7134844 3.992449 -0.09894575
v -0.76346505 4.0350256 -0.09894575
v -0.60778254 4.0977054 -0.09894575
v -0.6508109 4.1475697 -0.09894575
v -0.484288 4.1851935 -0.09894575
v -0.519556 4.2411184 -0.09894575
v -0.34828457 4.2527595 -0.09894575
v -0.3741576 4.3133717 -0.09894575
v -0.2963529 4.341205 -0.09894575
v -0.27184027 4.2796345 -0.09894575
v -0.8531881 3.772785 0.086026356
v -0.92646146 3.7598653 0.08602635
v -0.8542181 3.7598653 0.08602635
v -0.92620385 3.772785 0.08602635
v -0.80100596 3.871993 0.08602642
v -0.85702366 3.9062417 0.086026356
v -0.7134844 3.9924307 0.08602635
v -0.76346505 4.035007 0.08602635
v -0.6077825 4.0976872 0.08602635
v -0.6508109 4.1475515 0.08602635
v -0.48428795 4.185175 0.08602635
v -0.519556 4.2411 0.08602635
v -0.34828457 4.252741 0.08602635
v -0.37415764 4.3133535 0.08602635
v -0.28852695 4.3432727 0.0853681
v -0.2642019 4.2821684 0.0853681
v -0.8542181 3.7598653 0.08602635
v -0.9254314 3.7598822 0.09894575
v -0.8531881 3.7598774 0.09894575
v -0.92646146 3.7598653 0.08602635
v -0.9505425 3.7598653 0.08602635
v -0.9495124 3.7598836 0.09894575
v -0.9495124 3.7598836 0.09894575
v -0.9505425 3.7598653 0.08602635
v -0.9505425 3.772785 0.08602635
v -0.9495124 3.7728033 0.09894575
v -0.8531881 3.7598774 0.09894575
v -0.9254314 3.7598822 0.09894575
v -0.9254314 3.7728033 0.09894575
v -0.8531881 3.7728033 0.09894575
v -0.8570236 3.90626 0.09894575
v -0.8010061 3.8720114 0.09894575
v -0.76346505 4.0350256 0.09894575
v -0.7134844 3.992449 0.09894575
v -0.6508109 4.1475697 0.09894575
v -0.60778254 4.0977054 0.09894575
v -0.519556 4.2411184 0.09894575
v -0.484288 4.1851935 0.09894575
v -0.3741576 4.3133717 0.09894575
v -0.34828457 4.2527595 0.09894575
v -0.2963529 4.341205 0.09894575
v -0.27184027 4.2796345 0.09894575
v -0.8010061 3.871993 -0.086026356
v -0.85318816 3.7728033 -0.09894575
v -0.85318816 3.772785 -0.086026356
v -0.8010061 3.8720114 -0.09894575
v -0.7134844 3.992449 -0.09894575
v -0.7134844 3.9924307 -0.086026356
v -0.60778254 4.0976872 -0.086026356
v -0.60778254 4.0977054 -0.09894575
v -0.484288 4.1851935 -0.09894575
v -0.484288 4.185175 -0.086026356
v -0.34828457 4.2527595 -0.09894575
v -0.34828457 4.252741 -0.086026356
v -0.27184027 4.2796345 -0.09894575
v -0.2642019 4.2821684 -0.085368104
v -0.9495124 3.7728033 -0.09894575
v -0.8756961 3.917658 -0.086026356
v -0.9505424 3.772785 -0.086026356
v -0.8756961 3.9176762 -0.09894575
v -0.7801253 4.0492177 -0.09894575
v -0.7801253 4.0491996 -0.086026356
v -0.6651537 4.1641726 -0.086026356
v -0.6651537 4.1641912 -0.09894575
v -0.5313119 4.25976 -0.09894575
v -0.5313119 4.259742 -0.086026356
v -0.38278195 4.3335757 -0.09894575
v -0.38278195 4.3335576 -0.086026356
v -0.29663527 4.3636413 -0.085368104
v -0.30452377 4.361728 -0.09894575
v -0.8531881 3.7728033 0.09894575
v -0.80100596 3.871993 0.08602642
v -0.8531881 3.772785 0.086026356
v -0.8010061 3.8720114 0.09894575
v -0.7134844 3.992449 0.09894575
v -0.7134844 3.9924307 0.08602635
v -0.6077825 4.0976872 0.08602635
v -0.60778254 4.0977054 0.09894575
v -0.484288 4.1851935 0.09894575
v -0.48428795 4.185175 0.08602635
v -0.34828457 4.2527595 0.09894575
v -0.34828457 4.252741 0.08602635
v -0.27184027 4.2796345 0.09894575
v -0.2642019 4.2821684 0.0853681
v -0.87569624 3.917658 0.08602635
v -0.9495124 3.7728033 0.09894575
v -0.9505425 3.772785 0.08602635
v -0.8756961 3.9176762 0.09894575
v -0.78012526 4.0492177 0.09894575
v -0.78012526 4.0491996 0.08602635
v -0.6651537 4.1641726 0.08602635
v -0.6651537 4.1641912 0.09894575
v -0.5313119 4.25976 0.09894575
v -0.531312 4.259742 0.08602635
v -0.38278195 4.3335757 0.09894575
v -0.38278198 4.3335576 0.08602635
v -0.2966353 4.3636413 0.0853681
v -0.30452377 4.361728 0.09894575
v -0.28852695 4.3432727 -0.085368104
v -0.38278195 4.3335576 -0.086026356
v -0.29663527 4.3636413 -0.085368104
v -0.3741576 4.3133535 -0.086026356
v -0.519556 4.2411 -0.086026356
v -0.5313119 4.259742 -0.086026356
v -0.6508109 4.1475515 -0.086026356
v -0.6651537 4.1641726 -0.086026356
v -0.7801253 4.0491996 -0.086026356
v -0.76346505 4.035007 -0.086026356
v -0.8570236 3.9062417 -0.086026356
v -0.8756961 3.917658 -0.086026356
v -0.9505424 3.772785 -0.086026356
v -0.92620385 3.772785 -0.086026356
v -0.92646134 3.7598653 -0.086026356
v -0.9505424 3.7598653 -0.086026356
v -0.9495124 3.7728033 -0.09894575
v -0.9495124 3.7598836 -0.09894575
v -0.9254314 3.7598822 -0.09894575
v -0.9254314 3.7728033 -0.09894575
v -0.8570236 3.90626 -0.09894575
v -0.8756961 3.9176762 -0.09894575
v -0.76346505 4.0350256 -0.09894575
v -0.7801253 4.0492177 -0.09894575
v -0.6508109 4.1475697 -0.09894575
v -0.6651537 4.1641912 -0.09894575
v -0.519556 4.2411184 -0.09894575
v -0.5313119 4.25976 -0.09894575
v -0.3741576 4.3133717 -0.09894575
v -0.38278195 4.3335757 -0.09894575
v -0.30452377 4.361728 -0.09894575
v -0.2963529 4.341205 -0.09894575
v -0.3741576 4.3133717 0.09894575
v -0.30452377 4.361728 0.09894575
v -0.2963529 4.341205 0.09894575
v -0.38278195 4.3335757 0.09894575
v -0.519556 4.2411184 0.09894575
v -0.5313119 4.25976 0.09894575
v -0.6508109 4.1475697 0.09894575
v -0.6651537 4.1641912 0.09894575
v -0.76346505 4.0350256 0.09894575
v -0.78012526 4.0492177 0.09894575
v -0.8570236 3.90626 0.09894575
v -0.8756961 3.9176762 0.09894575
v -0.9495124 3.7728033 0.09894575
v -0.9254314 3.7728033 0.09894575
v -0.9254314 3.7598822 0.09894575
v -0.9495124 3.7598836 0.09894575
v -0.9505425 3.772785 0.08602635
v -0.9505425 3.7598653 0.08602635
v -0.92646146 3.7598653 0.08602635
v -0.92620385 3.772785 0.08602635
v -0.85702366 3.9062417 0.086026356
v -0.87569624 3.917658 0.08602635
v -0.78012526 4.0491996 0.08602635
v -0.76346505 4.035007 0.08602635
v -0.6508109 4.1475515 0.08602635
v -0.6651537 4.1641726 0.08602635
v -0.531312 4.259742 0.08602635
v -0.519556 4.2411 0.08602635
v -0.38278198 4.3335576 0.08602635
v -0.37415764 4.3133535 0.08602635
v -0.28852695 4.3432727 0.0853681
v -0.2966353 4.3636413 0.0853681
vt 0.52957624 0.02660685
vt 0.52949595 0.02660685
vt 0.5294962 0.02660685
vt 0.5295773 0.02660685
vt 0.52957314 0.02660685
vt 0.52963537 0.02660685
vt 0.52967715 0.02660685
vt 0.52973264 0.02660685
vt 0.5298023 0.02660685
vt 0.52985007 0.02660685
vt 0.5299481 0.02660685
vt 0.5299874 0.02660685
vt 0.53010976 0.02660685
vt 0.53013855 0.02660685
vt 0.53020245 0.02660685
vt 0.5302296 0.02660685
vt 0.5295773 0.026621208
vt 0.52949595 0.02660685
vt 0.52957624 0.02660685
vt 0.529497 0.026621208
vt 0.5294692 0.02660685
vt 0.52947026 0.026621208
vt 0.5889057 0.027057301
vt 0.5889057 0.027063306
vt 0.5889118 0.027063292
vt 0.5889118 0.027057283
vt 0.5295773 0.026621208
vt 0.529497 0.026621208
vt 0.5295773 0.026621208
vt 0.529497 0.026621208
vt 0.52963537 0.026621208
vt 0.52957314 0.026621208
vt 0.52973264 0.026621208
vt 0.52967715 0.026621208
vt 0.52985007 0.026621208
vt 0.5298023 0.026621208
vt 0.5299874 0.026621208
vt 0.5299481 0.026621208
vt 0.53013855 0.026621208
vt 0.53010976 0.026621208
vt 0.53019625 0.026621208
vt 0.5302233 0.026621208
vt 0.5295773 0.026415631
vt 0.52949595 0.026415631
vt 0.52957624 0.026415631
vt 0.5294962 0.026415631
vt 0.52963537 0.026415631
vt 0.52957314 0.026415631
vt 0.52973264 0.026415631
vt 0.52967715 0.026415631
vt 0.52985007 0.026415631
vt 0.5298023 0.026415631
vt 0.5299874 0.026415631
vt 0.5299481 0.026415631
vt 0.53013855 0.026415631
vt 0.53010976 0.026415631
vt 0.53020245 0.026415631
vt 0.5302296 0.026415631
vt 0.52957624 0.026415631
vt 0.529497 0.026401274
vt 0.5295773 0.026401274
vt 0.52949595 0.026415631
vt 0.5294692 0.026415631
vt 0.52947026 0.026401274
vt 0.5889019 0.027057301
vt 0.5888959 0.027057283
vt 0.5888959 0.027063292
vt 0.5889019 0.027063306
vt 0.5295773 0.026401274
vt 0.529497 0.026401274
vt 0.529497 0.026401274
vt 0.5295773 0.026401274
vt 0.52957314 0.026401274
vt 0.52963537 0.026401274
vt 0.52967715 0.026401274
vt 0.52973264 0.026401274
vt 0.5298023 0.026401274
vt 0.52985007 0.026401274
vt 0.5299481 0.026401274
vt 0.5299874 0.026401274
vt 0.53010976 0.026401274
vt 0.53013855 0.026401274
vt 0.53019625 0.026401274
vt 0.5302233 0.026401274
vt 0.52963537 0.02660685
vt 0.5295773 0.026621208
vt 0.5295773 0.02660685
vt 0.52963537 0.026621208
vt 0.52973264 0.026621208
vt 0.52973264 0.02660685
vt 0.52985007 0.02660685
vt 0.52985007 0.026621208
vt 0.5299874 0.026621208
vt 0.5299874 0.02660685
vt 0.53013855 0.026621208
vt 0.53013855 0.02660685
vt 0.5302233 0.026621208
vt 0.5302296 0.02660685
vt 0.5889057 0.027063306
vt 0.5889118 0.027130663
vt 0.5889118 0.027063292
vt 0.5889057 0.027130678
vt 0.5889057 0.027191874
vt 0.5889118 0.027191874
vt 0.5889118 0.027245354
vt 0.5889057 0.027245369
vt 0.5888921 0.027166437
vt 0.588886 0.027166437
vt 0.5888921 0.02709736
vt 0.588886 0.02709736
vt 0.5888858 0.027057283
vt 0.5888921 0.027060948
vt 0.5295773 0.026401274
vt 0.52963537 0.026415631
vt 0.5295773 0.026415631
vt 0.52963537 0.026401274
vt 0.52973264 0.026401274
vt 0.52973264 0.026415631
vt 0.52985007 0.026415631
vt 0.52985007 0.026401274
vt 0.5299874 0.026401274
vt 0.5299874 0.026415631
vt 0.53013855 0.026401274
vt 0.53013855 0.026415631
vt 0.5302233 0.026401274
vt 0.5302296 0.026415631
vt 0.5888959 0.027130663
vt 0.5889019 0.027063306
vt 0.5888959 0.027063292
vt 0.5889019 0.027130678
vt 0.5889019 0.027191874
vt 0.5888959 0.027191874
vt 0.5888959 0.027245354
vt 0.5889019 0.027245369
vt 0.58887565 0.027166437
vt 0.5888816 0.027166437
vt 0.58887565 0.02709736
vt 0.5888816 0.02709736
vt 0.58888197 0.027057283
vt 0.58887565 0.027060948
vt 0.5891297 0.026746858
vt 0.5891253 0.026790697
vt 0.5891392 0.026750628
vt 0.58911586 0.026786692
vt 0.58908224 0.026854321
vt 0.58909094 0.02685979
vt 0.5890387 0.026915379
vt 0.58904636 0.026922058
vt 0.58899295 0.026975527
vt 0.5889863 0.026967775
vt 0.58892643 0.027011298
vt 0.5889318 0.027019978
vt 0.5888643 0.027054802
vt 0.5888643 0.02704348
vt 0.58885837 0.027043596
vt 0.58885837 0.027054802
vt 0.58947325 0.027361117
vt 0.5894793 0.027361117
vt 0.5894793 0.027349912
vt 0.58947325 0.027349912
vt 0.58941114 0.027318079
vt 0.5894059 0.027326766
vt 0.5893513 0.027274571
vt 0.58934474 0.027282309
vt 0.58929896 0.027222142
vt 0.5892912 0.027228836
vt 0.58925545 0.027161114
vt 0.58924675 0.02716656
vt 0.58922184 0.02709347
vt 0.5892124 0.027097493
vt 0.5891993 0.027061082
vt 0.58920884 0.02705729
vt 0.58917296 0.02709347
vt 0.5891955 0.027061082
vt 0.58918595 0.027057283
vt 0.5891824 0.027097479
vt 0.58913934 0.027161099
vt 0.58914804 0.02716656
vt 0.58909583 0.027222142
vt 0.5891036 0.027228836
vt 0.5890436 0.027274556
vt 0.5890502 0.02728232
vt 0.58898365 0.027318068
vt 0.5889889 0.027326781
vt 0.58892155 0.027361117
vt 0.58892155 0.027349912
vt 0.5889156 0.027349912
vt 0.5889156 0.027361117
vt 0.5894189 0.027054798
vt 0.58942485 0.027054798
vt 0.58942485 0.027043588
vt 0.5894189 0.027043473
vt 0.5893568 0.027011298
vt 0.5893514 0.027019985
vt 0.58929026 0.026975527
vt 0.58929694 0.026967775
vt 0.5892445 0.026915368
vt 0.58923686 0.02692205
vt 0.5891923 0.026859794
vt 0.589201 0.026854314
vt 0.58915794 0.026790697
vt 0.58916736 0.026786692
vt 0.5891535 0.026746858
vt 0.589144 0.026750628
vn -0 0 1
vn -0 0 1
vn -0 0 1
vn -0 0 1
vn -0 0 1
vn -0 0 1
vn -0 0 1
vn -0 0 1
vn -0 0 1
vn -0 0 1
vn -0 0 1
vn -0 0 1
vn -0 0 1
vn -0 0 1
vn -0.0067598596 -0.0027878569 0.9999733
vn -0 0 1
vn -0 -1 0
vn -3.1682142E-05 -0.9999993 -0.0011928059
vn -0 -1 0
vn -3.168214E-05 -0.9999993 -0.001183097
vn -0 -1 0
vn -0 -1 0
vn -0.99683726 0 -0.07946953
vn -0.99683726 0 -0.07946953
vn -0.99683726 0 -0.07946953
vn -0.99683726 0 -0.07946953
vn -0 0 -1
vn -0 0 -1
vn -0 0 -1
vn -0 0 -1
vn -0 0 -1
vn -0 0 -1
vn -0 0 -1
vn -0 0 -1
vn -0 0 -1
vn -0 0 -1
vn -0 0 -1
vn -0 0 -1
vn -0 0 -1
vn -0 0 -1
vn -0 0 -1
vn -0 0 -1
vn -0 0 -1
vn -0 0 -1
vn -0 0 -1
vn -0 0 -1
vn -0 0 -1
vn -0 0 -1
vn -0 0 -1
vn -0 0 -1
vn -0 0 -1
vn -0 0 -1
vn -0 0 -1
vn -0 0 -1
vn -0 0 -1
vn -0 0 -1
vn -0.0067599085 -0.002787856 -0.9999733
vn -0 0 -1
vn -0 -1 7.387189E-06
vn -3.1682026E-05 -0.9999993 0.0011835376
vn -0 -1 7.3871897E-06
vn -3.168201E-05 -0.9999993 0.0011933207
vn -0 -1 7.387189E-06
vn -0 -1 7.3871897E-06
vn -0.99683726 0 0.07946953
vn -0.99683726 0 0.07946953
vn -0.99683726 0 0.07946953
vn -0.99683726 0 0.07946953
vn -0 0 1
vn -0 0 1
vn -0 0 1
vn -0 0 1
vn -0 0 1
vn -0 0 1
vn -0 0 1
vn -0 0 1
vn -0 0 1
vn -0 0 1
vn -0 0 1
vn -0 0 1
vn -0 0 1
vn -0 0 1
vn -0 0 1
vn -0 0 1
vn 0.85259134 -0.52257824 0
vn 0.90811086 -0.4187298 0
vn 0.90811086 -0.4187298 0
vn 0.85259134 -0.52257824 0
vn 0.76032805 -0.6495393 0
vn 0.76032805 -0.6495393 0
vn 0.643101 -0.76578146 0
vn 0.643101 -0.76578146 0
vn 0.5129239 -0.85843414 0
vn 0.5129239 -0.85843414 0
vn 0.36989766 -0.92905986 0.0048400336
vn 0.36989766 -0.92905986 0.0048400336
vn 0.31649983 -0.9478273 0.038094345
vn 0.32077613 -0.94665766 0.030691395
vn -0.9051377 0.42358395 -0.036088176
vn -0.8526417 0.522496 0
vn -0.9051378 0.42358387 -0.036088176
vn -0.8526417 0.522496 0
vn -0.7604044 0.64944994 0
vn -0.7604044 0.64944994 0
vn -0.64765245 0.7619359 0
vn -0.64765245 0.7619359 0
vn -0.5130508 0.85835826 0
vn -0.5130508 0.85835826 0
vn -0.37450802 0.9272159 -0.0038203818
vn -0.37450802 0.9272159 -0.0038203818
vn -0.33967265 0.9405139 -0.0074966312
vn -0.33967263 0.9405139 -0.0074966303
vn 0.90811086 -0.4187298 0
vn 0.85259134 -0.52257824 0
vn 0.90811086 -0.4187298 0
vn 0.85259134 -0.52257824 0
vn 0.76032805 -0.6495393 0
vn 0.76032805 -0.6495393 0
vn 0.643101 -0.76578146 0
vn 0.643101 -0.76578146 0
vn 0.5129239 -0.85843414 0
vn 0.5129239 -0.85843414 0
vn 0.3698977 -0.92905986 -0.0048344736
vn 0.3698977 -0.92905986 -0.0048344736
vn 0.31649998 -0.9478274 -0.038090512
vn 0.3207763 -0.9466578 -0.030685825
vn -0.8526417 0.522496 0
vn -0.9051379 0.42358398 0.036083825
vn -0.9051379 0.42358404 0.036083825
vn -0.8526417 0.522496 0
vn -0.7604044 0.64944994 0
vn -0.7604044 0.64944994 0
vn -0.64765245 0.7619359 0
vn -0.64765245 0.7619359 0
vn -0.5130508 0.85835826 0
vn -0.5130508 0.85835826 0
vn -0.37450808 0.9272159 0.0038203814
vn -0.37450808 0.9272159 0.0038203814
vn -0.33967268 0.9405138 0.0074966294
vn -0.3396727 0.9405138 0.0074966303
vn -0.0067598596 -0.0027878569 0.9999733
vn -0 0 1
vn -0 0 1
vn -0.006757718 -0.002786973 0.9999733
vn -0 0 1
vn -0 0 1
vn -0 0 1
vn -0 0 1
vn -0 0 1
vn -0 0 1
vn -0 0 1
vn -0 0 1
vn -0 0 1
vn -0 0 1
vn -0 0 1
vn -0 0 1
vn -0 0 -1
vn -0 0 -1
vn -0 0 -1
vn -0 0 -1
vn -0 0 -1
vn -0 0 -1
vn -0 0 -1
vn -0 0 -1
vn -0 0 -1
vn -0 0 -1
vn -0 0 -1
vn -0 0 -1
vn -0 0 -1
vn -0 0 -1
vn -0 0 -1
vn -0 0 -1
vn -0 0 1
vn -0 0 1
vn -0 0 1
vn -0 0 1
vn -0 0 1
vn -0 0 1
vn -0 0 1
vn -0 0 1
vn -0 0 1
vn -0 0 1
vn -0 0 1
vn -0 0 1
vn -0 0 1
vn -0 0 1
vn -0 0 1
vn -0 0 1
vn -0 0 -1
vn -0 0 -1
vn -0 0 -1
vn -0 0 -1
vn -0 0 -1
vn -0 0 -1
vn -0 0 -1
vn -0 0 -1
vn -0 0 -1
vn -0 0 -1
vn -0 0 -1
vn -0 0 -1
vn -0 0 -1
vn -0 0 -1
vn -0.0067599085 -0.002787856 -0.9999733
vn -0 0 -1
g arch_0
f 3/3/3 2/2/2 1/1/1
f 4/4/4 3/3/3 1/1/1
f 5/5/5 3/3/3 4/4/4
f 6/6/6 5/5/5 4/4/4
f 7/7/7 5/5/5 6/6/6
f 8/8/8 7/7/7 6/6/6
f 9/9/9 7/7/7 8/8/8
f 10/10/10 9/9/9 8/8/8
f 11/11/11 9/9/9 10/10/10
f 12/12/12 11/11/11 10/10/10
f 13/13/13 11/11/11 12/12/12
f 14/14/14 13/13/13 12/12/12
f 15/15/15 13/13/13 14/14/14
f 16/16/16 15/15/15 14/14/14
f 19/19/19 18/18/18 17/17/17
f 18/18/18 20/20/20 17/17/17
f 20/20/20 18/18/18 21/21/21
f 22/22/22 20/20/20 21/21/21
f 25/25/25 24/24/24 23/23/23
f 26/26/26 25/25/25 23/23/23
f 29/29/29 28/28/28 27/27/27
f 28/28/28 30/30/30 27/27/27
f 27/27/27 30/30/30 31/31/31
f 30/30/30 32/32/32 31/31/31
f 31/31/31 32/32/32 33/33/33
f 32/32/32 34/34/34 33/33/33
f 33/33/33 34/34/34 35/35/35
f 34/34/34 36/36/36 35/35/35
f 35/35/35 36/36/36 37/37/37
f 36/36/36 38/38/38 37/37/37
f 37/37/37 38/38/38 39/39/39
f 38/38/38 40/40/40 39/39/39
f 39/39/39 40/40/40 41/41/41
f 42/42/42 39/39/39 41/41/41
f 45/45/45 44/44/44 43/43/43
f 44/44/44 46/46/46 43/43/43
f 43/43/43 46/46/46 47/47/47
f 46/46/46 48/48/48 47/47/47
f 47/47/47 48/48/48 49/49/49
f 48/48/48 50/50/50 49/49/49
f 49/49/49 50/50/50 51/51/51
f 50/50/50 52/52/52 51/51/51
f 51/51/51 52/52/52 53/53/53
f 52/52/52 54/54/54 53/53/53
f 53/53/53 54/54/54 55/55/55
f 54/54/54 56/56/56 55/55/55
f 55/55/55 56/56/56 57/57/57
f 58/58/58 55/55/55 57/57/57
f 61/61/61 60/60/60 59/59/59
f 60/60/60 62/62/62 59/59/59
f 62/62/62 60/60/60 63/63/63
f 60/60/60 64/64/64 63/63/63
f 67/67/67 66/66/66 65/65/65
f 68/68/68 67/67/67 65/65/65
f 71/71/71 70/70/70 69/69/69
f 72/72/72 71/71/71 69/69/69
f 73/73/73 71/71/71 72/72/72
f 74/74/74 73/73/73 72/72/72
f 75/75/75 73/73/73 74/74/74
f 76/76/76 75/75/75 74/74/74
f 77/77/77 75/75/75 76/76/76
f 78/78/78 77/77/77 76/76/76
f 79/79/79 77/77/77 78/78/78
f 80/80/80 79/79/79 78/78/78
f 81/81/81 79/79/79 80/80/80
f 82/82/82 81/81/81 80/80/80
f 83/83/83 81/81/81 82/82/82
f 84/84/84 83/83/83 82/82/82
f 87/87/87 86/86/86 85/85/85
f 86/86/86 88/88/88 85/85/85
f 85/85/85 88/88/88 89/89/89
f 90/90/90 85/85/85 89/89/89
f 90/90/90 89/89/89 91/91/91
f 89/89/89 92/92/92 91/91/91
f 91/91/91 92/92/92 93/93/93
f 94/94/94 91/91/91 93/93/93
f 94/94/94 93/93/93 95/95/95
f 96/96/96 94/94/94 95/95/95
f 96/96/96 95/95/95 97/97/97
f 98/98/98 96/96/96 97/97/97
f 101/101/101 100/100/100 99/99/99
f 100/100/100 102/102/102 99/99/99
f 103/103/103 102/102/102 100/100/100
f 104/104/104 103/103/103 100/100/100
f 104/104/104 105/105/105 103/103/103
f 105/105/105 106/106/106 103/103/103
f 107/107/107 106/106/106 105/105/105
f 108/108/108 107/107/107 105/105/105
f 109/109/109 107/107/107 108/108/108
f 110/110/110 109/109/109 108/108/108
f 110/110/110 111/111/111 109/109/109
f 111/111/111 112/112/112 109/109/109
f 115/115/115 114/114/114 113/113/113
f 114/114/114 116/116/116 113/113/113
f 117/117/117 116/116/116 114/114/114
f 118/118/118 117/117/117 114/114/114
f 118/118/118 119/119/119 117/117/117
f 119/119/119 120/120/120 117/117/117
f 121/121/121 120/120/120 119/119/119
f 122/122/122 121/121/121 119/119/119
f 123/123/123 121/121/121 122/122/122
f 124/124/124 123/123/123 122/122/122
f 123/123/123 124/124/124 125/125/125
f 124/124/124 126/126/126 125/125/125
f 129/129/129 128/128/128 127/127/127
f 128/128/128 130/130/130 127/127/127
f 127/127/127 130/130/130 131/131/131
f 132/132/132 127/127/127 131/131/131
f 132/132/132 131/131/131 133/133/133
f 131/131/131 134/134/134 133/133/133
f 133/133/133 134/134/134 135/135/135
f 136/136/136 133/133/133 135/135/135
f 136/136/136 135/135/135 137/137/137
f 138/138/138 136/136/136 137/137/137
f 139/139/139 138/138/138 137/137/137
f 140/140/140 139/139/139 137/137/137
f 143/143/143 142/142/142 141/141/141
f 142/142/142 144/144/144 141/141/141
f 144/144/144 142/142/142 145/145/145
f 142/142/142 146/146/146 145/145/145
f 145/145/145 146/146/146 147/147/147
f 146/146/146 148/148/148 147/147/147
f 147/147/147 148/148/148 149/149/149
f 150/150/150 147/147/147 149/149/149
f 150/150/150 149/149/149 151/151/151
f 149/149/149 152/152/152 151/151/151
f 151/151/151 152/152/152 153/153/153
f 154/154/154 151/151/151 153/153/153
f 155/155/155 154/154/154 153/153/153
f 156/156/156 155/155/155 153/153/153
f 159/159/159 158/158/158 157/157/157
f 160/160/160 159/159/159 157/157/157
f 160/160/160 157/157/157 161/161/161
f 157/157/157 162/162/162 161/161/161
f 161/161/161 162/162/162 163/163/163
f 162/162/162 164/164/164 163/163/163
f 163/163/163 164/164/164 165/165/165
f 164/164/164 166/166/166 165/165/165
f 165/165/165 166/166/166 167/167/167
f 166/166/166 168/168/168 167/167/167
f 167/167/167 168/168/168 169/169/169
f 168/168/168 170/170/170 169/169/169
f 169/169/169 170/170/170 171/171/171
f 172/172/172 169/169/169 171/171/171
f 175/175/175 174/174/174 173/173/173
f 174/174/174 176/176/176 173/173/173
f 173/173/173 176/176/176 177/177/177
f 176/176/176 178/178/178 177/177/177
f 177/177/177 178/178/178 179/179/179
f 178/178/178 180/180/180 179/179/179
f 179/179/179 180/180/180 181/181/181
f 180/180/180 182/182/182 181/181/181
f 181/181/181 182/182/182 183/183/183
f 182/182/182 184/184/184 183/183/183
f 183/183/183 184/184/184 185/185/185
f 186/186/186 183/183/183 185/185/185
f 186/186/186 185/185/185 187/187/187
f 185/185/185 188/188/188 187/187/187
f 191/191/191 190/190/190 189/189/189
f 192/192/192 191/191/191 189/189/189
f 192/192/192 189/189/189 193/193/193
f 189/189/189 194/194/194 193/193/193
f 193/193/193 194/194/194 195/195/195
f 196/196/196 193/193/193 195/195/195
f 196/196/196 195/195/195 197/197/197
f 195/195/195 198/198/198 197/197/197
f 197/197/197 198/198/198 199/199/199
f 200/200/200 197/197/197 199/199/199
f 200/200/200 199/199/199 201/201/201
f 202/202/202 200/200/200 201/201/201
f 202/202/202 201/201/201 203/203/203
f 201/201/201 204/204/204 203/203/203
