g Box_Geo05_mBox_rays_geo_blue
v 0.000760673 0.05510106 -0.0296705
v -0.004754039 0.05510106 0.02684632
v -0.02864561 0.05510106 0.02407665
v -0.03012465 0.05510106 0.02677994
v -0.005034609 0.05510106 0.02972171
v -0.0670692 0.05510106 0.0844292
v -0.01228794 0.05510106 0.101899
v 0.02071514 0.05510106 -0.004831224
v -0.02451753 0.05510106 -0.01087422
v -0.02197183 0.05510106 -0.03019759
v -0.02563703 0.05510106 -0.03237561
v -0.02838658 0.05510106 -0.01139112
v -0.0887389 0.05510106 -0.06951611
v -0.1053589 0.05510106 -0.0214709
v 0.0176066 0.05510106 0.008946262
v -0.02786426 0.05510105 0.02388621
v -0.02580796 0.05510106 0.00520714
v -0.03045324 0.05510106 0.004807061
v -0.03270646 0.05510105 0.02547717
v -0.1085849 0.05510107 -0.002156763
v -0.1031853 0.05510104 0.04465372
v -0.0213194 0.05510105 -0.03247554
v -0.03960335 0.05510104 -0.09860166
v 0.01115645 0.05510107 -0.1032522
v 0.002060463 0.05510106 -0.02986484
v -0.02033618 0.05510105 -0.02902811
v 0.00164777 0.05510106 -0.02659467
v -0.004882968 0.05510106 0.02515489
vt 0.5 1.067265
vt 0.294779 0.5262865
vt 0.7217048 0.4828339
vt 0.7267697 0.4694824
vt 0.2897246 0.5129628
vt 0.9048686 0
vt 0.09513137 0
vt 0.5 1.067265
vt 0.3262314 0.6091976
vt 0.6889216 0.5692531
vt 0.6936863 0.556693
vt 0.3222242 0.5986342
vt 0.9048686 0
vt 0.09513137 0
vt 0.5 1.067265
vt 0.3169067 0.5846168
vt 0.6662742 0.6289531
vt 0.6726667 0.6121021
vt 0.3106847 0.5682151
vt 0.9048686 0
vt 0.09513137 0
vt 0.2884594 0.5096276
vt 0.09513137 0
vt 0.9048686 0
vt 0.6957965 0.5511303
vt 0.2937489 0.5235713
vt 0.6910822 0.5635573
vt 0.5 1.067265
vn 0 1 0
vn 0 1 -1.05537E-07
vn 0 1 -1.241972E-07
vn 0 1 0
vn 0 1 0
vn 0 1 0
vn 0 1 0
vn 0 1 4.288918E-07
vn 0 1 4.093755E-07
vn 0 1 3.989033E-07
vn 0 1 0
vn 0 1 0
vn 0 1 0
vn 0 1 0
vn 0 1 4.659842E-07
vn 0 1 4.806633E-07
vn 0 1 4.753061E-07
vn 0 1 8.95282E-07
vn 0 1 9.012082E-07
vn 0 1 9.094567E-07
vn 0 1 9.094567E-07
vn -6.419056E-07 1 0
vn -6.419974E-07 1 0
vn -6.419974E-07 1 0
vn -6.418497E-07 1 0
vn -6.491113E-07 1 1.780989E-07
vn -6.500235E-07 1 1.737742E-07
vn -6.518015E-07 1 1.653457E-07
g Box_Geo05_mBox_rays_geo_blue_0
f 3/3/3 2/2/2 1/1/1
f 3/3/3 4/4/4 2/2/2
f 4/4/4 5/5/5 2/2/2
f 4/4/4 6/6/6 5/5/5
f 6/6/6 7/7/7 5/5/5
f 10/10/10 9/9/9 8/8/8
f 10/10/10 11/11/11 9/9/9
f 11/11/11 12/12/12 9/9/9
f 11/11/11 13/13/13 12/12/12
f 13/13/13 14/14/14 12/12/12
f 17/17/17 16/16/16 15/15/15
f 17/17/17 18/18/18 16/16/16
f 18/18/18 19/19/19 16/16/16
f 18/18/18 20/20/20 19/19/19
f 20/20/20 21/21/21 19/19/19
f 24/24/24 23/23/23 22/22/22
f 25/25/25 24/24/24 22/22/22
f 25/25/25 22/22/22 26/26/26
f 27/27/27 25/25/25 26/26/26
f 27/27/27 26/26/26 28/28/28
