g Box_Geo05_mBox_centerHole_on_geo
v 0.001569975 0.06019263 -0.008962682
v 0.002275555 0.06019263 -0.007003435
v 0.001569975 0.06019263 -0.007115189
v 0.002846461 0.06019263 -0.008760506
v 0.00541429 0.06019263 -0.007452131
v 0.004328362 0.06019263 -0.005957478
v 0.007452132 0.06019263 -0.00541429
v 0.005957479 0.06019263 -0.004328361
v 0.008760507 0.06019263 -0.00284646
v 0.007003437 0.06019263 -0.002275554
v 0.009211337 0.06019263 8.721915E-10
v 0.007363844 0.06019263 5.418341E-10
v 0.008760503 0.06019263 0.00284646
v 0.007003432 0.06019263 0.002275554
v 0.007452128 0.06019263 0.00541429
v 0.005957474 0.06019263 0.00432836
v 0.005414288 0.06019263 0.007452129
v 0.004328359 0.06019263 0.005957476
v 0.00284646 0.06019263 0.008760503
v 0.002275554 0.06019263 0.007003434
v 0.001569975 0.06019263 0.008962679
v 0.001569975 0.06019263 0.007115186
v -0.002275554 0.06019263 -0.007003435
v -0.001569974 0.06019263 -0.008962681
v -0.001569974 0.06019263 -0.007115189
v -0.00284646 0.06019263 -0.008760504
v -0.00432836 0.06019263 -0.005957476
v -0.00541429 0.06019263 -0.007452129
v -0.005957478 0.06019263 -0.00432836
v -0.007452129 0.06019263 -0.005414288
v -0.007003434 0.06019263 -0.002275553
v -0.008760504 0.06019263 -0.00284646
v -0.007363846 0.06019263 5.418341E-10
v -0.009211338 0.06019263 8.721915E-10
v -0.007003434 0.06019263 0.002275554
v -0.008760504 0.06019263 0.002846461
v -0.005957478 0.06019263 0.00432836
v -0.007452129 0.06019263 0.00541429
v -0.004328359 0.06019263 0.005957478
v -0.00541429 0.06019263 0.007452129
v -0.002275553 0.06019263 0.007003434
v -0.00284646 0.06019263 0.008760503
v -0.001569974 0.06019263 0.008962679
v -0.001569975 0.06019263 0.007115186
v 0.004121585 0.06019263 -0.001339184
v 2.646978E-25 0.06019263 2.646978E-25
v 0.003506029 0.06019263 -0.002547279
v 0.004333688 0.06019263 2.646978E-25
v 0.002547279 0.06019263 -0.003506029
v 0.004121582 0.06019263 0.001339183
v 0.001339184 0.06019263 -0.004121584
v 0.003506027 0.06019263 0.002547278
v 2.646978E-25 0.06019263 -0.00433369
v 0.002547278 0.06019263 0.003506027
v -0.001339184 0.06019263 -0.004121584
v 0.001339183 0.06019263 0.004121582
v -0.002547279 0.06019263 -0.003506029
v -1.29154E-10 0.06019263 0.004333688
v -0.003506028 0.06019263 -0.002547279
v -0.001339184 0.06019263 0.004121582
v -0.004121583 0.06019263 -0.001339184
v -0.002547278 0.06019263 0.003506028
v -0.004333689 0.06019263 2.646978E-25
v -0.003506028 0.06019263 0.002547278
v -0.004121583 0.06019263 0.001339184
vt 0.7329797 0.9044635
vt 0.7409452 0.9014795
vt 0.7387315 0.899578
vt 0.7369844 0.9079034
vt 0.747848 0.9124379
vt 0.7496297 0.9051051
vt 0.7595811 0.9133935
vt 0.7590097 0.9058686
vt 0.7710354 0.9106768
vt 0.7681667 0.903697
vt 0.7810895 0.9045536
vt 0.7762043 0.8988018
vt 0.7710354 0.9106768
vt 0.7681666 0.903697
vt 0.7595811 0.9133935
vt 0.7590096 0.9058686
vt 0.747848 0.9124379
vt 0.7496299 0.9051048
vt 0.7369845 0.9079034
vt 0.7409452 0.9014795
vt 0.7329795 0.9044635
vt 0.7387315 0.899578
vt 0.7409452 0.9014795
vt 0.7329795 0.9044635
vt 0.7387315 0.899578
vt 0.7369845 0.9079034
vt 0.7496299 0.9051048
vt 0.747848 0.9124379
vt 0.7590096 0.9058686
vt 0.7595811 0.9133935
vt 0.7681666 0.903697
vt 0.7710354 0.9106768
vt 0.7762043 0.8988018
vt 0.7810895 0.9045536
vt 0.7681667 0.903697
vt 0.7710354 0.9106768
vt 0.7590097 0.9058686
vt 0.7595811 0.9133935
vt 0.7496297 0.9051048
vt 0.7478481 0.9124381
vt 0.7409452 0.9014795
vt 0.7369844 0.9079034
vt 0.7329797 0.9044635
vt 0.7387315 0.899578
vt 0.7480537 0.9239355
vt 0.7569833 0.8964528
vt 0.7399981 0.919831
vt 0.7569833 0.9253497
vt 0.7336052 0.9134383
vt 0.765913 0.9239355
vt 0.7295006 0.9053826
vt 0.7739686 0.919831
vt 0.7280863 0.8964528
vt 0.7803615 0.9134383
vt 0.7295006 0.9053823
vt 0.7844659 0.9053826
vt 0.7336052 0.913438
vt 0.7858803 0.8964528
vt 0.7399981 0.9198308
vt 0.7844659 0.9053823
vt 0.7480537 0.9239355
vt 0.7803615 0.913438
vt 0.7569833 0.9253497
vt 0.7739686 0.9198308
vt 0.765913 0.9239355
vn 0 1 0
vn 0 1 6.29878E-07
vn 0 1 0
vn 0 1 6.29878E-07
vn 0 1 0
vn 0 1 0
vn 0 1 0
vn 0 1 0
vn 0 1 0
vn 0 1 0
vn 0 1 0
vn 0 1 0
vn 0 1 0
vn 0 1 0
vn 0 1 0
vn 0 1 0
vn 0 1 -1.259757E-06
vn 0 1 -1.259757E-06
vn 0 1 1.62772E-06
vn 0 1 1.62772E-06
vn 0 1 1.627721E-06
vn 0 1 1.62772E-06
vn 0 1 0
vn 0 1 0
vn 0 1 0
vn 0 1 0
vn 0 1 -1.259756E-06
vn 0 1 -1.259756E-06
vn 0 1 1.259757E-06
vn 0 1 1.259757E-06
vn 0 1 0
vn 0 1 0
vn 0 1 0
vn 0 1 0
vn 0 1 0
vn 0 1 0
vn 0 1 0
vn 0 1 0
vn 0 1 0
vn 0 1 0
vn 0 1 1.259757E-06
vn 0 1 1.259757E-06
vn 0 1 3.25544E-06
vn 0 1 3.25544E-06
vn 0 1 4.108108E-06
vn 0 1 4.420619E-07
vn 0 1 -4.108108E-06
vn 0 1 4.108115E-06
vn 0 1 -4.10811E-06
vn 0 1 0
vn 0 1 0
vn 0 1 2.054057E-06
vn 0 1 0
vn 0 1 2.054057E-06
vn 0 1 0
vn 0 1 -7.145238E-07
vn 0 1 -2.054055E-06
vn 0 1 3.125047E-07
vn 0 1 2.054055E-06
vn 0 1 1.027028E-06
vn 0 1 4.108111E-06
vn 0 1 0
vn 0 1 0
vn 0 1 0
vn 0 1 0
g Box_Geo05_mBox_centerHole_on_geo_0
f 3/3/3 2/2/2 1/1/1
f 2/2/2 4/4/4 1/1/1
f 5/5/5 4/4/4 2/2/2
f 6/6/6 5/5/5 2/2/2
f 7/7/7 5/5/5 6/6/6
f 8/8/8 7/7/7 6/6/6
f 9/9/9 7/7/7 8/8/8
f 10/10/10 9/9/9 8/8/8
f 11/11/11 9/9/9 10/10/10
f 12/12/12 11/11/11 10/10/10
f 13/13/13 11/11/11 12/12/12
f 14/14/14 13/13/13 12/12/12
f 15/15/15 13/13/13 14/14/14
f 16/16/16 15/15/15 14/14/14
f 17/17/17 15/15/15 16/16/16
f 18/18/18 17/17/17 16/16/16
f 19/19/19 17/17/17 18/18/18
f 20/20/20 19/19/19 18/18/18
f 21/21/21 19/19/19 20/20/20
f 22/22/22 21/21/21 20/20/20
f 25/25/25 24/24/24 23/23/23
f 24/24/24 26/26/26 23/23/23
f 23/23/23 26/26/26 27/27/27
f 26/26/26 28/28/28 27/27/27
f 27/27/27 28/28/28 29/29/29
f 28/28/28 30/30/30 29/29/29
f 29/29/29 30/30/30 31/31/31
f 30/30/30 32/32/32 31/31/31
f 31/31/31 32/32/32 33/33/33
f 32/32/32 34/34/34 33/33/33
f 33/33/33 34/34/34 35/35/35
f 34/34/34 36/36/36 35/35/35
f 35/35/35 36/36/36 37/37/37
f 36/36/36 38/38/38 37/37/37
f 37/37/37 38/38/38 39/39/39
f 38/38/38 40/40/40 39/39/39
f 39/39/39 40/40/40 41/41/41
f 40/40/40 42/42/42 41/41/41
f 41/41/41 42/42/42 43/43/43
f 44/44/44 41/41/41 43/43/43
f 47/47/47 46/46/46 45/45/45
f 45/45/45 46/46/46 48/48/48
f 49/49/49 46/46/46 47/47/47
f 48/48/48 46/46/46 50/50/50
f 51/51/51 46/46/46 49/49/49
f 50/50/50 46/46/46 52/52/52
f 53/53/53 46/46/46 51/51/51
f 52/52/52 46/46/46 54/54/54
f 55/55/55 46/46/46 53/53/53
f 54/54/54 46/46/46 56/56/56
f 57/57/57 46/46/46 55/55/55
f 56/56/56 46/46/46 58/58/58
f 59/59/59 46/46/46 57/57/57
f 58/58/58 46/46/46 60/60/60
f 61/61/61 46/46/46 59/59/59
f 60/60/60 46/46/46 62/62/62
f 63/63/63 46/46/46 61/61/61
f 62/62/62 46/46/46 64/64/64
f 65/65/65 46/46/46 63/63/63
f 64/64/64 46/46/46 65/65/65
