g breadStationShieldSimplifiedGeo1
v -8.829149 63.26793 -71.483
v -8.423518 65.95427 -69.40749
v -6.466798 65.98906 -69.58933
v 8.444777 65.96618 -69.39503
v 8.366193 63.25579 -71.54919
v 6.153792 65.97601 -69.62749
v -3.310068 44.56885 -83.16828
v 2.895087 48.98586 -81.01794
v 3.318086 44.59415 -83.15615
v -3.379586 48.9687 -81.00156
v -3.436594 53.46037 -78.50962
v 2.823499 53.47102 -78.53545
v -3.344458 58.1485 -75.58385
v 2.802595 58.15254 -75.60957
v -3.151116 62.56737 -72.48617
v 2.776237 62.56556 -72.50713
v -3.187724 65.92822 -69.86701
v 3.055914 65.92834 -69.87382
v 2.776237 62.56556 -72.50713
v 8.923835 58.03416 -75.20398
v 2.802595 58.15254 -75.60957
v 8.366193 63.25579 -71.54919
v 15.44962 63.29432 -70.33321
v 15.42789 57.34914 -74.61084
v 21.75027 56.30979 -73.70813
v 15.42789 57.34914 -74.61084
v 15.44962 63.29432 -70.33321
v 21.02751 61.26934 -70.43124
v 15.41749 51.22719 -78.35338
v 15.42789 57.34914 -74.61084
v 21.75027 56.30979 -73.70813
v 22.70679 51.48947 -76.41241
v 15.41749 51.22719 -78.35338
v 9.006841 52.92343 -78.38412
v 8.923835 58.03416 -75.20398
v 15.42789 57.34914 -74.61084
v 9.006841 52.92343 -78.38412
v 2.823499 53.47102 -78.53545
v 2.802595 58.15254 -75.60957
v 8.923835 58.03416 -75.20398
v -3.344458 58.1485 -75.58385
v -9.561808 58.02586 -75.13119
v -8.829149 63.26793 -71.483
v -3.151116 62.56737 -72.48617
v -9.561808 58.02586 -75.13119
v -16.46935 63.27999 -70.10905
v -8.829149 63.26793 -71.483
v -16.1728 57.31731 -74.4748
v -21.90061 56.22633 -73.7178
v -21.05273 61.68456 -70.1116
v -3.436594 53.46037 -78.50962
v -9.819383 52.90641 -78.2941
v -9.561808 58.02586 -75.13119
v -3.344458 58.1485 -75.58385
v -9.819383 52.90641 -78.2941
v -16.55949 51.21096 -78.14044
v -16.1728 57.31731 -74.4748
v -9.561808 58.02586 -75.13119
v -16.55949 51.21096 -78.14044
v -22.83454 51.77129 -76.20628
v -21.90061 56.22633 -73.7178
v -16.1728 57.31731 -74.4748
v 15.44962 63.29432 -70.33321
v 8.366193 63.25579 -71.54919
v 8.444777 65.96618 -69.39503
v 12.11592 65.99165 -68.8382
v -8.829149 63.26793 -71.483
v -16.46935 63.27999 -70.10905
v -13.43699 66.04326 -68.53902
v -8.423518 65.95427 -69.40749
v 14.08518 65.69548 -68.70382
v 12.11592 65.99165 -68.8382
v 14.01981 65.9186 -68.52996
v 15.44962 63.29432 -70.33321
v -16.46935 63.27999 -70.10905
v -14.65256 65.79008 -68.5113
v -14.12764 66.01466 -68.42868
v -13.43699 66.04326 -68.53902
v 6.153792 65.97601 -69.62749
v 8.366193 63.25579 -71.54919
v 2.776237 62.56556 -72.50713
v 3.055914 65.92834 -69.87382
v -3.187724 65.92822 -69.86701
v -3.151116 62.56737 -72.48617
v -8.829149 63.26793 -71.483
v -6.466798 65.98906 -69.58933
v -15.51499 65.78461 -68.3168
v -14.65256 65.79008 -68.5113
v -16.46935 63.27999 -70.10905
v -17.09845 65.45314 -68.22236
v -19.79958 63.62342 -68.97962
v -18.65269 64.69195 -68.43031
v -17.09845 65.45314 -68.22236
v -16.46935 63.27999 -70.10905
v -20.5376 62.40564 -69.71265
v -16.46935 63.27999 -70.10905
v -21.05273 61.68456 -70.1116
v -19.79958 63.62342 -68.97962
v 14.08518 65.69548 -68.70382
v 15.48359 65.73291 -68.3676
v 17.10545 65.41034 -68.25561
v 15.44962 63.29432 -70.33321
v 18.63849 64.68587 -68.43912
v 19.80832 63.64663 -68.9584
v 15.44962 63.29432 -70.33321
v 17.10545 65.41034 -68.25561
v 19.80832 63.64663 -68.9584
v 20.70676 62.36717 -69.69063
v 21.02751 61.26934 -70.43124
v 15.44962 63.29432 -70.33321
v -9.64483 48.55598 -80.71026
v -3.310068 44.56885 -83.16828
v -10.04134 44.5821 -82.61346
v -3.379586 48.9687 -81.00156
v -9.819383 52.90641 -78.2941
v -3.436594 53.46037 -78.50962
v 3.318086 44.59415 -83.15615
v 8.777106 48.61773 -80.78414
v 9.927715 44.58189 -82.62753
v 2.895087 48.98586 -81.01794
v 2.823499 53.47102 -78.53545
v 9.006841 52.92343 -78.38412
v -17.24061 44.5392 -81.44802
v -9.64483 48.55598 -80.71026
v -10.04134 44.5821 -82.61346
v -15.2841 47.48155 -80.38736
v -16.55949 51.21096 -78.14044
v -9.819383 52.90641 -78.2941
v 15.10713 44.56832 -81.84901
v 9.927715 44.58189 -82.62753
v 8.777106 48.61773 -80.78414
v 13.21222 47.72452 -80.63021
v 9.006841 52.92343 -78.38412
v 15.41749 51.22719 -78.35338
v 15.41749 51.22719 -78.35338
v 22.70679 51.48947 -76.41241
v 19.89064 46.20095 -80.03315
v 16.54182 46.16145 -80.80367
v 15.10713 44.56832 -81.84901
v 13.21222 47.72452 -80.63021
v 15.35064 45.37466 -81.42172
v 15.54748 44.62671 -81.7359
v -17.6374 44.75914 -81.25451
v -17.63287 45.44966 -80.92676
v -15.2841 47.48155 -80.38736
v -17.24061 44.5392 -81.44802
v 15.41749 51.22719 -78.35338
v 16.54182 46.16145 -80.80367
v 15.35064 45.37466 -81.42172
v 13.21222 47.72452 -80.63021
v -18.51 46.07652 -80.41356
v -16.55949 51.21096 -78.14044
v -15.2841 47.48155 -80.38736
v -17.63287 45.44966 -80.92676
v 23.73627 47.48248 -78.30827
v 23.6652 46.48388 -78.84585
v 22.71273 45.87663 -79.44137
v 23.45069 48.54858 -77.83263
v 23.45069 48.54858 -77.83263
v 22.71273 45.87663 -79.44137
v 19.89064 46.20095 -80.03315
v 22.70679 51.48947 -76.41241
v -20.26292 46.07129 -80.00047
v -22.83454 51.77129 -76.20628
v -16.55949 51.21096 -78.14044
v -18.51 46.07652 -80.41356
v -23.30861 49.39023 -77.41411
v -22.83454 51.77129 -76.20628
v -20.26292 46.07129 -80.00047
v -22.18204 45.91751 -79.56311
v -23.48484 46.08649 -79.10165
v -23.75148 47.29489 -78.40241
v -23.30861 49.39023 -77.41411
v -22.18204 45.91751 -79.56311
vt 0 0
vt 1.324376 0.1318653
vt 1.355696 1.088705
vt -0.3056962 0.118543
vt 1 0
vt 0.7464631 1.150731
vt -0.02328884 -0.182105
vt 0.05265683 1
vt -0.02395178 0.7884029
vt 0.05265683 0
vt 0.2665764 0
vt 0.2665764 1
vt 0.515952 0
vt 0.515952 1
vt 0.7764018 0
vt 0.7764018 1
vt 1.088845 0.9420716
vt 1.094803 2.097965
vt 0 0
vt 0.473378 1
vt 0 1
vt 0.473378 0
vt 1 0
vt 1 1
vt 0.03682843 0.002889579
vt 1 0
vt 1 1
vt 0.0844824 1.000912
vt 0 0
vt 1 0
vt 0.3590335 0.4849199
vt -0.715014 0.4098797
vt 0 0
vt 1 0
vt 1 1
vt 0 1
vt 0 0
vt 1 0
vt 1 1
vt 0 1
vt 0 0
vt 1 0
vt 1 1
vt 0 1
vt 0 0
vt 0.500324 1
vt 0 1
vt 0.500324 0
vt 1.092044 -0.02786899
vt 1.088914 0.9986923
vt 0 0
vt 1 0
vt 1 1
vt 0 1
vt 0 0
vt 1 0
vt 1 1
vt 0 1
vt 0 0
vt 1.178965 -0.4014694
vt 1.181071 0.7270945
vt 0 1
vt 0 0
vt 1 0
vt 1.477035 1.53705
vt 0.4502105 1.500002
vt 0 0
vt 1 0
vt 0.4868679 1.35571
vt -0.4049097 1.341548
vt -2.424376 5.097329
vt -1.686064 7.331603
vt -3.148381 6.95679
vt 1 0
vt 0 0.5
vt 0.8826547 0.7829652
vt 0.8326399 1.320399
vt 0.8203131 1.679093
vt -0.3446524 0.6352922
vt 1 0
vt 1 1
vt -0.3298421 1.57346
vt -0.3062576 -0.7027592
vt 1 0
vt 1 1
vt -0.29472 0.3180084
vt 1.505471 1.421391
vt 1.322185 0.5917918
vt 1 1
vt 1.333592 2.449381
vt -3.508807 4.140344
vt -3.306654 5.33027
vt -2.600429 5.832376
vt 0 1
vt 5.990025 6.268205
vt 1 1
vt 7.970601 9.263653
vt 6.213245 5.103894
vt -1.989229 2.051444
vt -1.529677 2.701524
vt -1.56058 4.074608
vt 0 1
vt 2.562016 3.037765
vt 3.138784 2.301182
vt 1 1
vt 1.711023 3.419699
vt -4.190463 4.303332
vt -4.136331 5.683396
vt -4.032259 6.744564
vt 0 1
vt 0 0.80247
vt 1.199396 1.123687
vt 0.1700712 1.122909
vt 1 0.80247
vt 0 0
vt 1 0
vt -0.09250508 -0.1188212
vt 0.19753 1
vt -0.07868779 0.893842
vt 0.19753 0
vt 1 0
vt 1 1
vt -0.1394037 -0.09357929
vt 0.19753 1
vt -0.1272243 1.13974
vt 0.19753 0
vt 1 0
vt 1 1
vt -1.056289 -0.2030663
vt 0.9056337 -0.1387476
vt 1 0.19753
vt 0 0.19753
vt 1 1
vt 0 1
vt 0 0
vt 0.8414521 0.01053503
vt 0.795857 1.231839
vt -0.08259892 1.234897
vt -26.18149 30.50838
vt 1 0
vt -21.59088 26.41672
vt -33.03821 38.55782
vt -12.975 -17.26312
vt -8.310505 -11.76202
vt 1 1
vt -10.73424 -13.69949
vt 0 0
vt 4.511702 2.926934
vt 6.036275 4.852996
vt 0 1
vt 4.801314 -12.9965
vt 1 0
vt 1 1
vt 5.691931 -14.58071
vt 33.27726 1.554803
vt 36.92466 1.259475
vt 20.7489 0.3747689
vt 28.07464 2.298584
vt 0.9071064 -0.7330449
vt 2.428895 -0.9986957
vt 2.005833 0.6234382
vt 0.6356427 0.3061498
vt -0.3214893 1.429554
vt 0.8999473 0.9993147
vt 1 1
vt -0.3254298 2.16154
vt -1.034359 0.4862176
vt -0.07473016 0.2979869
vt 0.4780572 1.836413
vt -1.046709 1.907792
vt -5.285227 -2.498893
vt -3.651194 -2.360103
vt -1.951794 -0.7785736
vt -3.464242 -0.7966928
vn 0.1116953 -0.5878222 0.8012422
vn 0.1269899 -0.6093084 0.7826983
vn 0.06299156 -0.6103549 0.7896195
vn -0.1189408 -0.6079764 0.7849954
vn -0.1040159 -0.5863432 0.8033569
vn -0.06022041 -0.6109825 0.7893503
vn 0.03538511 -0.4392825 0.8976518
vn -0.0297376 -0.4622314 0.8862606
vn -0.03330266 -0.4383808 0.8981721
vn 0.03706137 -0.4624082 0.8858923
vn 0.03924339 -0.508186 0.8603528
vn -0.03074691 -0.5087764 0.8603495
vn 0.03957041 -0.5519093 0.8329648
vn -0.03247399 -0.5520656 0.8331681
vn 0.03427154 -0.5896104 0.8069603
vn -0.02899003 -0.5897428 0.8070707
vn 0.02666211 -0.6134432 0.7892886
vn -0.0236771 -0.6135419 0.7893071
vn -0.02899003 -0.5897428 0.8070707
vn -0.1063118 -0.5523712 0.8267913
vn -0.03247399 -0.5520656 0.8331681
vn -0.1040159 -0.5863432 0.8033569
vn -0.1609448 -0.5800508 0.7985224
vn -0.1676902 -0.5447202 0.8216813
vn -0.2022827 -0.5334787 0.8212687
vn -0.1676902 -0.5447202 0.8216813
vn -0.1609448 -0.5800508 0.7985224
vn -0.1999243 -0.5684923 0.7980268
vn -0.1724409 -0.4971459 0.8503588
vn -0.1676902 -0.5447202 0.8216813
vn -0.2022827 -0.5334787 0.8212687
vn -0.2057641 -0.4950844 0.8441283
vn -0.1724409 -0.4971459 0.8503588
vn -0.1021057 -0.5076514 0.8554907
vn -0.1063118 -0.5523712 0.8267913
vn -0.1676902 -0.5447202 0.8216813
vn -0.1021057 -0.5076514 0.8554907
vn -0.03074691 -0.5087764 0.8603495
vn -0.03247399 -0.5520656 0.8331681
vn -0.1063118 -0.5523712 0.8267913
vn 0.03957041 -0.5519093 0.8329648
vn 0.1136353 -0.5530267 0.8253778
vn 0.1116953 -0.5878222 0.8012422
vn 0.03427154 -0.5896104 0.8069603
vn 0.1136353 -0.5530267 0.8253778
vn 0.1653977 -0.5814633 0.7965828
vn 0.1116953 -0.5878222 0.8012422
vn 0.1710608 -0.5470234 0.8194533
vn 0.2081343 -0.5348446 0.8189147
vn 0.2059585 -0.566975 0.7975715
vn 0.03924339 -0.508186 0.8603528
vn 0.1105545 -0.5058495 0.855508
vn 0.1136353 -0.5530267 0.8253778
vn 0.03957041 -0.5519093 0.8329648
vn 0.1105545 -0.5058495 0.855508
vn 0.1760792 -0.4967431 0.8498485
vn 0.1710608 -0.5470234 0.8194533
vn 0.1136353 -0.5530267 0.8253778
vn 0.1760792 -0.4967431 0.8498485
vn 0.2124129 -0.4972298 0.8412154
vn 0.2081343 -0.5348446 0.8189147
vn 0.1710608 -0.5470234 0.8194533
vn -0.1609448 -0.5800508 0.7985224
vn -0.1040159 -0.5863432 0.8033569
vn -0.1189408 -0.6079764 0.7849954
vn -0.1266866 -0.6060936 0.7852395
vn 0.1116953 -0.5878222 0.8012422
vn 0.1653977 -0.5814633 0.7965828
vn 0.134129 -0.6078596 0.7826341
vn 0.1269899 -0.6093084 0.7826983
vn -0.1587213 -0.6144561 0.7728204
vn -0.1266866 -0.6060936 0.7852395
vn -0.1471932 -0.6343961 0.7588648
vn -0.1609448 -0.5800508 0.7985224
vn 0.1653977 -0.5814633 0.7965828
vn 0.159563 -0.6104541 0.7758128
vn 0.1437759 -0.6045403 0.7834919
vn 0.134129 -0.6078596 0.7826341
vn -0.06022041 -0.6109825 0.7893503
vn -0.1040159 -0.5863432 0.8033569
vn -0.02899003 -0.5897428 0.8070707
vn -0.0236771 -0.6135419 0.7893071
vn 0.02666211 -0.6134432 0.7892886
vn 0.03427154 -0.5896104 0.8069603
vn 0.1116953 -0.5878222 0.8012422
vn 0.06299156 -0.6103549 0.7896195
vn 0.1755899 -0.6162632 0.7677159
vn 0.159563 -0.6104541 0.7758128
vn 0.1653977 -0.5814633 0.7965828
vn 0.1874739 -0.6122205 0.7681404
vn 0.2000232 -0.6010818 0.7737515
vn 0.1970371 -0.6088896 0.7683943
vn 0.1874739 -0.6122205 0.7681404
vn 0.1653977 -0.5814633 0.7965828
vn 0.2023515 -0.5856642 0.7848894
vn 0.1653977 -0.5814633 0.7965828
vn 0.2059585 -0.566975 0.7975715
vn 0.2000232 -0.6010818 0.7737515
vn -0.1587213 -0.6144561 0.7728204
vn -0.1722135 -0.6167299 0.7681059
vn -0.1865115 -0.6094192 0.7705983
vn -0.1609448 -0.5800508 0.7985224
vn -0.1943083 -0.6053539 0.771875
vn -0.1979094 -0.5933897 0.7802054
vn -0.1609448 -0.5800508 0.7985224
vn -0.1865115 -0.6094192 0.7705983
vn -0.1979094 -0.5933897 0.7802054
vn -0.1995115 -0.5879754 0.7838879
vn -0.1999243 -0.5684923 0.7980268
vn -0.1609448 -0.5800508 0.7985224
vn 0.1025132 -0.4596263 0.8821762
vn 0.03538511 -0.4392825 0.8976518
vn 0.1033034 -0.4347914 0.8945864
vn 0.03706137 -0.4624082 0.8858923
vn 0.1105545 -0.5058495 0.855508
vn 0.03924339 -0.508186 0.8603528
vn -0.03330266 -0.4383808 0.8981721
vn -0.09075817 -0.4613245 0.8825772
vn -0.09507578 -0.4354615 0.8951725
vn -0.0297376 -0.4622314 0.8862606
vn -0.03074691 -0.5087764 0.8603495
vn -0.1021057 -0.5076514 0.8554907
vn 0.1439947 -0.4302587 0.891147
vn 0.1025132 -0.4596263 0.8821762
vn 0.1033034 -0.4347914 0.8945864
vn 0.1484715 -0.4529546 0.8790837
vn 0.1760792 -0.4967431 0.8498485
vn 0.1105545 -0.5058495 0.855508
vn -0.1296059 -0.433123 0.891968
vn -0.09507578 -0.4354615 0.8951725
vn -0.09075817 -0.4613245 0.8825772
vn -0.1361475 -0.458279 0.8783189
vn -0.1021057 -0.5076514 0.8554907
vn -0.1724409 -0.4971459 0.8503588
vn -0.1724409 -0.4971459 0.8503588
vn -0.2057641 -0.4950844 0.8441283
vn -0.2086771 -0.4686814 0.8583657
vn -0.1943413 -0.46575 0.8633124
vn -0.1296059 -0.433123 0.891968
vn -0.1361475 -0.458279 0.8783189
vn -0.1646185 -0.4512532 0.8770812
vn -0.1461107 -0.4284023 0.8916968
vn 0.1735737 -0.4319332 0.8850458
vn 0.1880028 -0.4512726 0.8723578
vn 0.1484715 -0.4529546 0.8790837
vn 0.1439947 -0.4302587 0.891147
vn -0.1724409 -0.4971459 0.8503588
vn -0.1943413 -0.46575 0.8633124
vn -0.1646185 -0.4512532 0.8770812
vn -0.1361475 -0.458279 0.8783189
vn 0.2103268 -0.4639911 0.8605085
vn 0.1760792 -0.4967431 0.8498485
vn 0.1484715 -0.4529546 0.8790837
vn 0.1880028 -0.4512726 0.8723578
vn -0.2489813 -0.447397 0.8589786
vn -0.2489813 -0.4473971 0.8589786
vn -0.2257199 -0.4623084 0.8575089
vn -0.2252379 -0.4626125 0.8574716
vn -0.2252379 -0.4626125 0.8574716
vn -0.2257199 -0.4623084 0.8575089
vn -0.2086771 -0.4686814 0.8583657
vn -0.2057641 -0.4950844 0.8441283
vn 0.2182888 -0.4672237 0.8567684
vn 0.2124129 -0.4972298 0.8412154
vn 0.1760792 -0.4967431 0.8498485
vn 0.2103268 -0.4639911 0.8605085
vn 0.2199122 -0.4660901 0.8569707
vn 0.2124129 -0.4972298 0.8412154
vn 0.2182888 -0.4672237 0.8567684
vn 0.22199 -0.4645614 0.8572649
vn 0.2391426 -0.451779 0.8594804
vn 0.2391426 -0.4517791 0.8594804
vn 0.2199122 -0.4660901 0.8569707
vn 0.22199 -0.4645614 0.8572649
g breadStationShieldSimplifiedGeo1_0
f 3/3/3 2/2/2 1/1/1
f 6/6/6 5/5/5 4/4/4
f 9/9/9 8/8/8 7/7/7
f 8/8/8 10/10/10 7/7/7
f 11/11/11 10/10/10 8/8/8
f 12/12/12 11/11/11 8/8/8
f 13/13/13 11/11/11 12/12/12
f 14/14/14 13/13/13 12/12/12
f 15/15/15 13/13/13 14/14/14
f 16/16/16 15/15/15 14/14/14
f 17/17/17 15/15/15 16/16/16
f 18/18/18 17/17/17 16/16/16
f 21/21/21 20/20/20 19/19/19
f 20/20/20 22/22/22 19/19/19
f 23/23/23 22/22/22 20/20/20
f 24/24/24 23/23/23 20/20/20
f 27/27/27 26/26/26 25/25/25
f 28/28/28 27/27/27 25/25/25
f 31/31/31 30/30/30 29/29/29
f 32/32/32 31/31/31 29/29/29
f 35/35/35 34/34/34 33/33/33
f 36/36/36 35/35/35 33/33/33
f 39/39/39 38/38/38 37/37/37
f 40/40/40 39/39/39 37/37/37
f 43/43/43 42/42/42 41/41/41
f 44/44/44 43/43/43 41/41/41
f 47/47/47 46/46/46 45/45/45
f 46/46/46 48/48/48 45/45/45
f 49/49/49 48/48/48 46/46/46
f 50/50/50 49/49/49 46/46/46
f 53/53/53 52/52/52 51/51/51
f 54/54/54 53/53/53 51/51/51
f 57/57/57 56/56/56 55/55/55
f 58/58/58 57/57/57 55/55/55
f 61/61/61 60/60/60 59/59/59
f 62/62/62 61/61/61 59/59/59
f 65/65/65 64/64/64 63/63/63
f 66/66/66 65/65/65 63/63/63
f 69/69/69 68/68/68 67/67/67
f 70/70/70 69/69/69 67/67/67
f 73/73/73 72/72/72 71/71/71
f 72/72/72 74/74/74 71/71/71
f 77/77/77 76/76/76 75/75/75
f 78/78/78 77/77/77 75/75/75
f 81/81/81 80/80/80 79/79/79
f 82/82/82 81/81/81 79/79/79
f 85/85/85 84/84/84 83/83/83
f 86/86/86 85/85/85 83/83/83
f 89/89/89 88/88/88 87/87/87
f 90/90/90 89/89/89 87/87/87
f 93/93/93 92/92/92 91/91/91
f 94/94/94 93/93/93 91/91/91
f 97/97/97 96/96/96 95/95/95
f 96/96/96 98/98/98 95/95/95
f 101/101/101 100/100/100 99/99/99
f 102/102/102 101/101/101 99/99/99
f 105/105/105 104/104/104 103/103/103
f 106/106/106 105/105/105 103/103/103
f 109/109/109 108/108/108 107/107/107
f 110/110/110 109/109/109 107/107/107
f 113/113/113 112/112/112 111/111/111
f 112/112/112 114/114/114 111/111/111
f 111/111/111 114/114/114 115/115/115
f 114/114/114 116/116/116 115/115/115
f 119/119/119 118/118/118 117/117/117
f 118/118/118 120/120/120 117/117/117
f 121/121/121 120/120/120 118/118/118
f 122/122/122 121/121/121 118/118/118
f 125/125/125 124/124/124 123/123/123
f 124/124/124 126/126/126 123/123/123
f 127/127/127 126/126/126 124/124/124
f 128/128/128 127/127/127 124/124/124
f 131/131/131 130/130/130 129/129/129
f 132/132/132 131/131/131 129/129/129
f 133/133/133 131/131/131 132/132/132
f 134/134/134 133/133/133 132/132/132
f 137/137/137 136/136/136 135/135/135
f 138/138/138 137/137/137 135/135/135
f 141/141/141 140/140/140 139/139/139
f 142/142/142 141/141/141 139/139/139
f 145/145/145 144/144/144 143/143/143
f 146/146/146 145/145/145 143/143/143
f 149/149/149 148/148/148 147/147/147
f 150/150/150 149/149/149 147/147/147
f 153/153/153 152/152/152 151/151/151
f 154/154/154 153/153/153 151/151/151
f 157/157/157 156/156/156 155/155/155
f 158/158/158 157/157/157 155/155/155
f 161/161/161 160/160/160 159/159/159
f 162/162/162 161/161/161 159/159/159
f 165/165/165 164/164/164 163/163/163
f 166/166/166 165/165/165 163/163/163
f 169/169/169 168/168/168 167/167/167
f 170/170/170 169/169/169 167/167/167
f 173/173/173 172/172/172 171/171/171
f 174/174/174 173/173/173 171/171/171
