g breadStationShieldSimplifiedGeo5
v 29.86947 66.00914 -63.1665
v 29.96085 55.6981 -71.18317
v 27.48966 65.61041 -64.59225
v 29.96085 55.6981 -71.18317
v 35.06822 45.7643 -74.86059
v 29.67117 45.70288 -77.19064
v 29.86947 66.00914 63.1665
v 27.48966 65.61041 64.59225
v 29.96085 55.6981 71.18317
v 29.96085 55.6981 71.18317
v 29.67117 45.70288 77.19064
v 35.06822 45.7643 74.86059
v 70.07428 65.77364 1.819728E-15
v 76.62453 56.25545 -6.289672
v 69.86601 65.72788 -5.764434
v 76.86441 56.29968 1.210595E-16
v 82.65105 45.82183 -1.04492E-15
v 82.40312 45.72069 -6.869932
v 69.86601 65.72788 -5.764434
v 75.86212 56.27536 -12.40322
v 69.19096 65.7131 -11.35038
v 76.62453 56.25545 -6.289672
v 82.40312 45.72069 -6.869932
v 81.58916 45.76868 -13.29931
v 75.86212 56.27536 -12.40322
v 67.86472 66.06044 -16.46692
v 69.19096 65.7131 -11.35038
v 74.55803 56.39034 -18.43959
v 80.20683 45.80994 -19.97802
v 81.58916 45.76868 -13.29931
v 67.86472 66.06044 -16.46692
v 72.75031 56.4026 -24.5741
v 66.11724 66.05746 -22.47445
v 74.55803 56.39034 -18.43959
v 80.20683 45.80994 -19.97802
v 78.28965 45.6813 -26.6703
v 66.11724 66.05746 -22.47445
v 70.56499 56.47266 -30.16707
v 64.25027 66.01665 -27.44305
v 72.75031 56.4026 -24.5741
v 78.28965 45.6813 -26.6703
v 75.94318 46.00766 -32.35892
v 64.25027 66.01665 -27.44305
v 67.92992 56.47795 -35.71278
v 61.88658 65.99481 -32.47229
v 70.56499 56.47266 -30.16707
v 75.94318 46.00766 -32.35892
v 73.07462 46.01774 -38.4036
v 61.88658 65.99481 -32.47229
v 64.84471 56.4266 -41.10734
v 59.18937 65.8164 -37.43676
v 67.92992 56.47795 -35.71278
v 73.07462 46.01774 -38.4036
v 69.72751 45.94665 -44.25088
v 64.84471 56.4266 -41.10734
v 55.93871 65.7878 -42.17032
v 59.18937 65.8164 -37.43676
v 61.3109 56.41452 -46.21793
v 65.94435 45.97611 -49.68209
v 69.72751 45.94665 -44.25088
v 55.93871 65.7878 -42.17032
v 57.35789 56.42254 -51.04121
v 52.24148 65.98837 -46.43118
v 61.3109 56.41452 -46.21793
v 65.94435 45.97611 -49.68209
v 61.59346 45.75923 -55.15432
v 52.24148 65.98837 -46.43118
v 53.13275 56.50616 -55.35603
v 48.41578 65.99454 -50.40542
v 57.35789 56.42254 -51.04121
v 61.59346 45.75923 -55.15432
v 57.26518 46.08318 -59.42194
v 53.13275 56.50616 -55.35603
v 44.31623 66.02003 -54.00998
v 48.41578 65.99454 -50.40542
v 48.48137 56.50758 -59.46124
v 52.1608 46.01401 -63.97866
v 57.26518 46.08318 -59.42194
v 44.31623 66.02003 -54.00998
v 43.34781 56.45927 -63.34344
v 39.41182 65.99226 -57.71803
v 48.48137 56.50758 -59.46124
v 52.1608 46.01401 -63.97866
v 46.91302 45.96092 -67.95326
v 39.41182 65.99226 -57.71803
v 37.57848 56.29974 -67.03999
v 34.91107 65.98213 -60.56189
v 43.34781 56.45927 -63.34344
v 46.91302 45.96092 -67.95326
v 41.21738 45.9258 -71.58154
v 29.96085 55.6981 -71.18317
v 29.86947 66.00914 -63.1665
v 34.91107 65.98213 -60.56189
v 37.57848 56.29974 -67.03999
v 37.57848 56.29974 -67.03999
v 41.21738 45.9258 -71.58154
v 35.06822 45.7643 -74.86059
v 29.96085 55.6981 -71.18317
v 25.28183 63.03352 -67.63779
v 25.95045 64.65494 -66.04232
v 27.48966 65.61041 -64.59225
v 29.96085 55.6981 -71.18317
v 27.90434 48.24174 -76.52679
v 29.96085 55.6981 -71.18317
v 29.67117 45.70288 -77.19064
v 28.26534 46.72958 -77.19917
v 26.6589 56.36678 -72.04153
v 25.42342 61.22211 -69.00773
v 25.28183 63.03352 -67.63779
v 29.96085 55.6981 -71.18317
v 27.52462 51.53672 -74.78951
v 26.6589 56.36678 -72.04153
v 29.96085 55.6981 -71.18317
v 27.90434 48.24174 -76.52679
v 70.07428 65.77364 1.819728E-15
v 69.86601 65.72788 5.764434
v 76.62453 56.25545 6.289672
v 76.86441 56.29968 1.210595E-16
v 82.65105 45.82183 -1.04492E-15
v 82.40312 45.72069 6.869932
v 69.86601 65.72788 5.764434
v 69.19096 65.7131 11.35038
v 75.86212 56.27536 12.40322
v 76.62453 56.25545 6.289672
v 82.40312 45.72069 6.869932
v 81.58916 45.76868 13.29931
v 75.86212 56.27536 12.40322
v 69.19096 65.7131 11.35038
v 67.86472 66.06044 16.46692
v 74.55803 56.39034 18.43959
v 80.20683 45.80994 19.97802
v 81.58916 45.76868 13.29931
v 67.86472 66.06044 16.46692
v 66.11724 66.05746 22.47445
v 72.75031 56.4026 24.5741
v 74.55803 56.39034 18.43959
v 80.20683 45.80994 19.97802
v 78.28965 45.6813 26.6703
v 66.11724 66.05746 22.47445
v 64.25027 66.01665 27.44305
v 70.56499 56.47266 30.16707
v 72.75031 56.4026 24.5741
v 78.28965 45.6813 26.6703
v 75.94318 46.00766 32.35892
v 64.25027 66.01665 27.44305
v 61.88658 65.99481 32.47229
v 67.92992 56.47795 35.71278
v 70.56499 56.47266 30.16707
v 75.94318 46.00766 32.35892
v 73.07462 46.01774 38.4036
v 61.88658 65.99481 32.47229
v 59.18937 65.8164 37.43676
v 64.84471 56.4266 41.10734
v 67.92992 56.47795 35.71278
v 73.07462 46.01774 38.4036
v 69.72751 45.94665 44.25088
v 64.84471 56.4266 41.10734
v 59.18937 65.8164 37.43676
v 55.93871 65.7878 42.17032
v 61.3109 56.41452 46.21793
v 65.94435 45.97611 49.68209
v 69.72751 45.94665 44.25088
v 55.93871 65.7878 42.17032
v 52.24148 65.98837 46.43118
v 57.35789 56.42254 51.04121
v 61.3109 56.41452 46.21793
v 65.94435 45.97611 49.68209
v 61.59346 45.75923 55.15432
v 52.24148 65.98837 46.43118
v 48.41578 65.99454 50.40542
v 53.13275 56.50616 55.35603
v 57.35789 56.42254 51.04121
v 61.59346 45.75923 55.15432
v 57.26518 46.08318 59.42194
v 53.13275 56.50616 55.35603
v 48.41578 65.99454 50.40542
v 44.31623 66.02003 54.00998
v 48.48137 56.50758 59.46124
v 52.1608 46.01401 63.97866
v 57.26518 46.08318 59.42194
v 44.31623 66.02003 54.00998
v 39.41182 65.99226 57.71803
v 43.34781 56.45927 63.34344
v 48.48137 56.50758 59.46124
v 52.1608 46.01401 63.97866
v 46.91302 45.96092 67.95326
v 39.41182 65.99226 57.71803
v 34.91107 65.98213 60.56189
v 37.57848 56.29974 67.03999
v 43.34781 56.45927 63.34344
v 46.91302 45.96092 67.95326
v 41.21738 45.9258 71.58154
v 29.96085 55.6981 71.18317
v 37.57848 56.29974 67.03999
v 34.91107 65.98213 60.56189
v 29.86947 66.00914 63.1665
v 37.57848 56.29974 67.03999
v 29.96085 55.6981 71.18317
v 35.06822 45.7643 74.86059
v 41.21738 45.9258 71.58154
v 25.28183 63.03352 67.63779
v 29.96085 55.6981 71.18317
v 27.48966 65.61041 64.59225
v 25.95045 64.65494 66.04232
v 27.90434 48.24174 76.52679
v 28.26534 46.72958 77.19917
v 29.67117 45.70288 77.19064
v 29.96085 55.6981 71.18317
v 26.6589 56.36678 72.04153
v 29.96085 55.6981 71.18317
v 25.28183 63.03352 67.63779
v 25.42342 61.22211 69.00773
v 27.52462 51.53672 74.78951
v 29.96085 55.6981 71.18317
v 26.6589 56.36678 72.04153
v 27.90434 48.24174 76.52679
vt -0.06972791 0.08097941
vt 0.39917 0.5
vt -0.06348819 1.287158
vt 0.39917 0.5
vt 1.113084 -0.1264325
vt 1.111501 1.351658
vt -0.06972791 0.08097941
vt -0.06348819 1.287158
vt 0.39917 0.5
vt 0.39917 0.5
vt 1.111501 1.351658
vt 1.113084 -0.1264325
vt 0.2217941 6.899796
vt 0.485103 1
vt 0.1968163 7.16988
vt 0.485103 0
vt 1.022961 -1.331753
vt 1.023147 -0.3442826
vt -0.04502867 -0.3896369
vt 0.485103 1
vt -0.05046808 0.5682053
vt 0.485103 0
vt 1.171435 -1.124037
vt 1.163035 -0.04764259
vt 0.514897 1
vt 1.093383 -1.97326
vt 1.075813 -0.5793009
vt 0.514897 0
vt -0.09184368 -1.75209
vt -0.08930629 -0.7563851
vt -0.0978633 -0.9056051
vt 0.485103 1
vt -0.0975647 0.1460673
vt 0.485103 0
vt 1.089376 -0.4970021
vt 1.095099 0.4630063
vt -0.2342793 1.093078
vt 0.485103 1
vt -0.2315945 2.080508
vt 0.485103 0
vt 1.058486 0.265893
vt 1.059755 1.272068
vt -0.1294819 -2.34945
vt 0.485103 1
vt -0.1302819 -1.411426
vt 0.485103 0
vt 1.078798 -1.201151
vt 1.074039 -0.1722516
vt -0.04635784 0.7296537
vt 0.485103 1
vt -0.04285295 1.477045
vt 0.485103 0
vt 1.402209 3.771014
vt 1.415871 4.931692
vt 0.514897 1
vt 1.105862 -0.6853032
vt 1.114109 0.2648181
vt 0.514897 0
vt -0.07935301 -0.465809
vt -0.07109236 0.5812024
vt -0.1037726 -0.8491631
vt 0.485103 1
vt -0.1254547 -0.08538067
vt 0.485103 0
vt 1.080454 -0.6105552
vt 1.081919 0.3678523
vt -0.1064937 0.456893
vt 0.485103 1
vt -0.100796 1.395294
vt 0.485103 0
vt 1.088922 0.285493
vt 1.082214 1.245629
vt 0.514897 1
vt 1.108082 0.9069325
vt 1.101957 1.86223
vt 0.514897 0
vt -0.07798504 0.5728642
vt -0.08349859 1.622002
vt -0.1000604 0.07251315
vt 0.485103 1
vt -0.09709688 1.026786
vt 0.485103 0
vt 1.081894 -0.04800677
vt 1.086254 0.9717441
vt -0.08924202 0.6361379
vt 0.485103 1
vt -0.08460608 1.59203
vt 0.485103 0
vt 1.095737 0.5224615
vt 1.103872 1.606475
vt 0 0
vt 1.138643 -0.05796921
vt 1.141956 1.008474
vt 0 1
vt 0 0
vt 1.160202 -0.522193
vt 1.144899 0.4922889
vt 0 1
vt 9.673939 -7.126088
vt 10.21766 -6.391021
vt 8.89226 -4.260168
vt 0 1
vt -16.81631 14.26202
vt 1 0
vt -14.49856 15.3122
vt -19.36552 17.90985
vt -0.3302813 0.8894439
vt 0.6411173 0.9751011
vt 0.6756657 2.166359
vt 0 1
vt 0.5607176 0.6114627
vt 1.585186 0.6342184
vt 1 1
vt 0.7599956 2.325509
vt 0.2217941 6.899796
vt 0.1968163 7.16988
vt 0.485103 1
vt 0.485103 0
vt 1.022961 -1.331753
vt 1.023147 -0.3442826
vt -0.04502867 -0.3896369
vt -0.05046808 0.5682053
vt 0.485103 1
vt 0.485103 0
vt 1.171435 -1.124037
vt 1.163035 -0.04764259
vt 0.514897 1
vt 1.075813 -0.5793009
vt 1.093383 -1.97326
vt 0.514897 0
vt -0.09184368 -1.75209
vt -0.08930629 -0.7563851
vt -0.0978633 -0.9056051
vt -0.0975647 0.1460673
vt 0.485103 1
vt 0.485103 0
vt 1.089376 -0.4970021
vt 1.095099 0.4630063
vt -0.2342793 1.093078
vt -0.2315945 2.080508
vt 0.485103 1
vt 0.485103 0
vt 1.058486 0.265893
vt 1.059755 1.272068
vt -0.1294819 -2.34945
vt -0.1302819 -1.411426
vt 0.485103 1
vt 0.485103 0
vt 1.078798 -1.201151
vt 1.074039 -0.1722516
vt -0.04635784 0.7296537
vt -0.04285295 1.477045
vt 0.485103 1
vt 0.485103 0
vt 1.402209 3.771014
vt 1.415871 4.931692
vt 0.514897 1
vt 1.114109 0.2648181
vt 1.105862 -0.6853032
vt 0.514897 0
vt -0.07935301 -0.465809
vt -0.07109236 0.5812024
vt -0.1037726 -0.8491631
vt -0.1254547 -0.08538067
vt 0.485103 1
vt 0.485103 0
vt 1.080454 -0.6105552
vt 1.081919 0.3678523
vt -0.1064937 0.456893
vt -0.100796 1.395294
vt 0.485103 1
vt 0.485103 0
vt 1.088922 0.285493
vt 1.082214 1.245629
vt 0.514897 1
vt 1.101957 1.86223
vt 1.108082 0.9069325
vt 0.514897 0
vt -0.07798504 0.5728642
vt -0.08349859 1.622002
vt -0.1000604 0.07251315
vt -0.09709688 1.026786
vt 0.485103 1
vt 0.485103 0
vt 1.081894 -0.04800677
vt 1.086254 0.9717441
vt -0.08924202 0.6361379
vt -0.08460608 1.59203
vt 0.485103 1
vt 0.485103 0
vt 1.095737 0.5224615
vt 1.103872 1.606475
vt 0 0
vt 0 1
vt 1.141956 1.008474
vt 1.138643 -0.05796921
vt 0 0
vt 0 1
vt 1.144899 0.4922889
vt 1.160202 -0.522193
vt 9.673939 -7.126088
vt 0 1
vt 8.89226 -4.260168
vt 10.21766 -6.391021
vt -16.81631 14.26202
vt -19.36552 17.90985
vt -14.49856 15.3122
vt 1 0
vt -0.3302813 0.8894439
vt 0 1
vt 0.6756657 2.166359
vt 0.6411173 0.9751011
vt 0.5607176 0.6114627
vt 1 1
vt 1.585186 0.6342184
vt 0.7599956 2.325509
vn -0.3610407 -0.579116 0.7309406
vn -0.3717437 -0.5283725 0.7633014
vn -0.3454269 -0.5781063 0.7392383
vn -0.3717437 -0.5283725 0.7633014
vn -0.383535 -0.4837374 0.7867013
vn -0.3502294 -0.4744547 0.8076088
vn -0.3610409 -0.579116 -0.7309406
vn -0.3454262 -0.5781064 -0.7392386
vn -0.3717437 -0.5283725 -0.7633014
vn -0.3717437 -0.5283725 -0.7633014
vn -0.3502296 -0.4744547 -0.8076088
vn -0.3835348 -0.4837373 -0.7867014
vn -0.8129646 -0.5823132 0
vn -0.8452495 -0.5298793 0.06914569
vn -0.8103982 -0.5821162 0.06629754
vn -0.8478684 -0.5302066 0
vn -0.8756287 -0.4829848 0
vn -0.8726692 -0.4829985 0.07184114
vn -0.8103982 -0.5821162 0.06629754
vn -0.8370664 -0.5296654 0.1370194
vn -0.802058 -0.582494 0.131923
vn -0.8452495 -0.5298793 0.06914569
vn -0.8726692 -0.4829985 0.07184114
vn -0.8640253 -0.4832019 0.1413373
vn -0.8370664 -0.5296654 0.1370194
vn -0.7871737 -0.584159 0.1977772
vn -0.802058 -0.582494 0.131923
vn -0.8215677 -0.5315914 0.206003
vn -0.8490323 -0.4835094 0.2129856
vn -0.8640253 -0.4832019 0.1413373
vn -0.7871737 -0.584159 0.1977772
vn -0.8028189 -0.5323933 0.2684011
vn -0.7694341 -0.5848155 0.2568309
vn -0.8215677 -0.5315914 0.206003
vn -0.8490323 -0.4835094 0.2129856
vn -0.829584 -0.4840597 0.2783462
vn -0.7694341 -0.5848155 0.2568309
vn -0.7781703 -0.5325708 0.3328952
vn -0.7461412 -0.5844803 0.3188353
vn -0.8028189 -0.5323933 0.2684011
vn -0.829584 -0.4840597 0.2783462
vn -0.8044685 -0.484877 0.3431104
vn -0.7461412 -0.5844803 0.3188353
vn -0.7495291 -0.5322204 0.3936339
vn -0.7190483 -0.5842255 0.3763644
vn -0.7781703 -0.5325708 0.3328952
vn -0.8044685 -0.484877 0.3431104
vn -0.7739979 -0.4850431 0.4070139
vn -0.7190483 -0.5842255 0.3763644
vn -0.7154067 -0.5315856 0.4534425
vn -0.6864283 -0.5835694 0.4338928
vn -0.7495291 -0.5322204 0.3936339
vn -0.7739979 -0.4850431 0.4070139
vn -0.7384671 -0.4848596 0.4685909
vn -0.7154067 -0.5315856 0.4534425
vn -0.6479623 -0.5834137 0.4896666
vn -0.6864283 -0.5835694 0.4338928
vn -0.6760157 -0.5310397 0.5108813
vn -0.6975884 -0.4844089 0.5279378
vn -0.7384671 -0.4848596 0.4685909
vn -0.6479623 -0.5834137 0.4896666
vn -0.633999 -0.5316712 0.561579
vn -0.6068677 -0.584029 0.5390936
vn -0.6760157 -0.5310397 0.5108813
vn -0.6975884 -0.4844089 0.5279378
vn -0.6548253 -0.4847192 0.5798718
vn -0.6068677 -0.584029 0.5390936
vn -0.5851256 -0.5328833 0.6112801
vn -0.5616632 -0.5845023 0.5855694
vn -0.633999 -0.5316712 0.561579
vn -0.6548253 -0.4847192 0.5798718
vn -0.6048855 -0.4854901 0.6311997
vn -0.5851256 -0.5328833 0.6112801
vn -0.5116054 -0.5846925 0.6295987
vn -0.5616632 -0.5845023 0.5855694
vn -0.5336022 -0.5331445 0.6565254
vn -0.5518044 -0.4854712 0.6781073
vn -0.6048855 -0.4854901 0.6311997
vn -0.5116054 -0.5846925 0.6295987
vn -0.4782436 -0.5329211 0.6980531
vn -0.4588235 -0.5838268 0.6697964
vn -0.5336022 -0.5331445 0.6565254
vn -0.5518044 -0.4854712 0.6781073
vn -0.4948897 -0.48551 0.7206693
vn -0.4588235 -0.5838268 0.6697964
vn -0.4102325 -0.532389 0.7404534
vn -0.3949364 -0.5811681 0.7115259
vn -0.4782436 -0.5329211 0.6980531
vn -0.4948897 -0.48551 0.7206693
vn -0.4289524 -0.4857481 0.7616093
vn -0.3717437 -0.5283725 0.7633014
vn -0.3610407 -0.579116 0.7309406
vn -0.3949364 -0.5811681 0.7115259
vn -0.4102325 -0.532389 0.7404534
vn -0.4102325 -0.532389 0.7404534
vn -0.4289524 -0.4857481 0.7616093
vn -0.383535 -0.4837374 0.7867013
vn -0.3717437 -0.5283725 0.7633014
vn -0.342226 -0.5769914 0.7415944
vn -0.3445131 -0.5785787 0.7392952
vn -0.3454269 -0.5781063 0.7392383
vn -0.3717437 -0.5283725 0.7633014
vn -0.3718954 -0.4677309 0.8018239
vn -0.3717437 -0.5283725 0.7633014
vn -0.3502294 -0.4744547 0.8076088
vn -0.3710039 -0.4679207 0.802126
vn -0.32275 -0.5490181 0.7709809
vn -0.3278544 -0.5669166 0.7557229
vn -0.342226 -0.5769914 0.7415944
vn -0.3717437 -0.5283725 0.7633014
vn -0.366132 -0.47772 0.7985806
vn -0.32275 -0.5490181 0.7709809
vn -0.3717437 -0.5283725 0.7633014
vn -0.3718954 -0.4677309 0.8018239
vn -0.8129646 -0.5823132 0
vn -0.8103982 -0.5821162 -0.06629737
vn -0.8452496 -0.5298792 -0.0691456
vn -0.8478684 -0.5302066 0
vn -0.8756287 -0.4829848 0
vn -0.8726692 -0.4829983 -0.07184112
vn -0.8103982 -0.5821162 -0.06629737
vn -0.802058 -0.582494 -0.1319232
vn -0.8370665 -0.5296654 -0.1370194
vn -0.8452496 -0.5298792 -0.0691456
vn -0.8726692 -0.4829983 -0.07184112
vn -0.8640254 -0.4832019 -0.1413371
vn -0.8370665 -0.5296654 -0.1370194
vn -0.802058 -0.582494 -0.1319232
vn -0.7871736 -0.584159 -0.1977775
vn -0.8215676 -0.5315914 -0.206003
vn -0.8490323 -0.4835095 -0.2129855
vn -0.8640254 -0.4832019 -0.1413371
vn -0.7871736 -0.584159 -0.1977775
vn -0.7694341 -0.5848155 -0.2568309
vn -0.8028188 -0.5323933 -0.2684011
vn -0.8215676 -0.5315914 -0.206003
vn -0.8490323 -0.4835095 -0.2129855
vn -0.829584 -0.4840597 -0.2783462
vn -0.7694341 -0.5848155 -0.2568309
vn -0.7461413 -0.5844803 -0.3188353
vn -0.7781703 -0.532571 -0.3328951
vn -0.8028188 -0.5323933 -0.2684011
vn -0.829584 -0.4840597 -0.2783462
vn -0.8044686 -0.484877 -0.3431104
vn -0.7461413 -0.5844803 -0.3188353
vn -0.7190482 -0.5842258 -0.3763642
vn -0.7495291 -0.5322204 -0.3936337
vn -0.7781703 -0.532571 -0.3328951
vn -0.8044686 -0.484877 -0.3431104
vn -0.773998 -0.4850431 -0.4070138
vn -0.7190482 -0.5842258 -0.3763642
vn -0.6864283 -0.5835695 -0.4338928
vn -0.7154067 -0.5315856 -0.4534425
vn -0.7495291 -0.5322204 -0.3936337
vn -0.773998 -0.4850431 -0.4070138
vn -0.7384671 -0.4848595 -0.4685912
vn -0.7154067 -0.5315856 -0.4534425
vn -0.6864283 -0.5835695 -0.4338928
vn -0.6479624 -0.5834136 -0.4896665
vn -0.6760158 -0.5310395 -0.5108814
vn -0.6975884 -0.4844088 -0.5279378
vn -0.7384671 -0.4848595 -0.4685912
vn -0.6479624 -0.5834136 -0.4896665
vn -0.6068677 -0.584029 -0.5390936
vn -0.633999 -0.5316712 -0.561579
vn -0.6760158 -0.5310395 -0.5108814
vn -0.6975884 -0.4844088 -0.5279378
vn -0.6548252 -0.4847193 -0.5798717
vn -0.6068677 -0.584029 -0.5390936
vn -0.5616631 -0.5845025 -0.5855694
vn -0.5851254 -0.5328833 -0.6112801
vn -0.633999 -0.5316712 -0.561579
vn -0.6548252 -0.4847193 -0.5798717
vn -0.6048853 -0.4854901 -0.6311997
vn -0.5851254 -0.5328833 -0.6112801
vn -0.5616631 -0.5845025 -0.5855694
vn -0.5116054 -0.5846924 -0.6295988
vn -0.5336021 -0.5331444 -0.6565254
vn -0.5518045 -0.4854711 -0.6781073
vn -0.6048853 -0.4854901 -0.6311997
vn -0.5116054 -0.5846924 -0.6295988
vn -0.4588237 -0.5838267 -0.6697964
vn -0.4782437 -0.532921 -0.6980531
vn -0.5336021 -0.5331444 -0.6565254
vn -0.5518045 -0.4854711 -0.6781073
vn -0.4948899 -0.4855099 -0.7206692
vn -0.4588237 -0.5838267 -0.6697964
vn -0.3949365 -0.5811681 -0.7115257
vn -0.4102327 -0.5323889 -0.7404534
vn -0.4782437 -0.532921 -0.6980531
vn -0.4948899 -0.4855099 -0.7206692
vn -0.4289525 -0.4857479 -0.7616093
vn -0.3717437 -0.5283725 -0.7633014
vn -0.4102327 -0.5323889 -0.7404534
vn -0.3949365 -0.5811681 -0.7115257
vn -0.3610409 -0.579116 -0.7309406
vn -0.4102327 -0.5323889 -0.7404534
vn -0.3717437 -0.5283725 -0.7633014
vn -0.3835348 -0.4837373 -0.7867014
vn -0.4289525 -0.4857479 -0.7616093
vn -0.3422253 -0.5769914 -0.7415947
vn -0.3717437 -0.5283725 -0.7633014
vn -0.3454262 -0.5781064 -0.7392386
vn -0.3445119 -0.5785789 -0.7392957
vn -0.3718961 -0.4677309 -0.8018236
vn -0.3710047 -0.4679206 -0.8021258
vn -0.3502296 -0.4744547 -0.8076088
vn -0.3717437 -0.5283725 -0.7633014
vn -0.3227513 -0.5490179 -0.7709804
vn -0.3717437 -0.5283725 -0.7633014
vn -0.3422253 -0.5769914 -0.7415947
vn -0.3278566 -0.5669163 -0.7557221
vn -0.3661318 -0.4777205 -0.7985805
vn -0.3717437 -0.5283725 -0.7633014
vn -0.3227513 -0.5490179 -0.7709804
vn -0.3718961 -0.4677309 -0.8018236
g breadStationShieldSimplifiedGeo5_0
f 3/3/3 2/2/2 1/1/1
f 6/6/6 5/5/5 4/4/4
f 9/9/9 8/8/8 7/7/7
f 12/12/12 11/11/11 10/10/10
f 15/15/15 14/14/14 13/13/13
f 14/14/14 16/16/16 13/13/13
f 17/17/17 16/16/16 14/14/14
f 18/18/18 17/17/17 14/14/14
f 21/21/21 20/20/20 19/19/19
f 20/20/20 22/22/22 19/19/19
f 23/23/23 22/22/22 20/20/20
f 24/24/24 23/23/23 20/20/20
f 27/27/27 26/26/26 25/25/25
f 26/26/26 28/28/28 25/25/25
f 25/25/25 28/28/28 29/29/29
f 30/30/30 25/25/25 29/29/29
f 33/33/33 32/32/32 31/31/31
f 32/32/32 34/34/34 31/31/31
f 35/35/35 34/34/34 32/32/32
f 36/36/36 35/35/35 32/32/32
f 39/39/39 38/38/38 37/37/37
f 38/38/38 40/40/40 37/37/37
f 41/41/41 40/40/40 38/38/38
f 42/42/42 41/41/41 38/38/38
f 45/45/45 44/44/44 43/43/43
f 44/44/44 46/46/46 43/43/43
f 47/47/47 46/46/46 44/44/44
f 48/48/48 47/47/47 44/44/44
f 51/51/51 50/50/50 49/49/49
f 50/50/50 52/52/52 49/49/49
f 53/53/53 52/52/52 50/50/50
f 54/54/54 53/53/53 50/50/50
f 57/57/57 56/56/56 55/55/55
f 56/56/56 58/58/58 55/55/55
f 55/55/55 58/58/58 59/59/59
f 60/60/60 55/55/55 59/59/59
f 63/63/63 62/62/62 61/61/61
f 62/62/62 64/64/64 61/61/61
f 65/65/65 64/64/64 62/62/62
f 66/66/66 65/65/65 62/62/62
f 69/69/69 68/68/68 67/67/67
f 68/68/68 70/70/70 67/67/67
f 71/71/71 70/70/70 68/68/68
f 72/72/72 71/71/71 68/68/68
f 75/75/75 74/74/74 73/73/73
f 74/74/74 76/76/76 73/73/73
f 73/73/73 76/76/76 77/77/77
f 78/78/78 73/73/73 77/77/77
f 81/81/81 80/80/80 79/79/79
f 80/80/80 82/82/82 79/79/79
f 83/83/83 82/82/82 80/80/80
f 84/84/84 83/83/83 80/80/80
f 87/87/87 86/86/86 85/85/85
f 86/86/86 88/88/88 85/85/85
f 89/89/89 88/88/88 86/86/86
f 90/90/90 89/89/89 86/86/86
f 93/93/93 92/92/92 91/91/91
f 94/94/94 93/93/93 91/91/91
f 97/97/97 96/96/96 95/95/95
f 98/98/98 97/97/97 95/95/95
f 101/101/101 100/100/100 99/99/99
f 102/102/102 101/101/101 99/99/99
f 105/105/105 104/104/104 103/103/103
f 106/106/106 105/105/105 103/103/103
f 109/109/109 108/108/108 107/107/107
f 110/110/110 109/109/109 107/107/107
f 113/113/113 112/112/112 111/111/111
f 114/114/114 113/113/113 111/111/111
f 117/117/117 116/116/116 115/115/115
f 118/118/118 117/117/117 115/115/115
f 118/118/118 119/119/119 117/117/117
f 119/119/119 120/120/120 117/117/117
f 123/123/123 122/122/122 121/121/121
f 124/124/124 123/123/123 121/121/121
f 124/124/124 125/125/125 123/123/123
f 125/125/125 126/126/126 123/123/123
f 129/129/129 128/128/128 127/127/127
f 130/130/130 129/129/129 127/127/127
f 130/130/130 127/127/127 131/131/131
f 127/127/127 132/132/132 131/131/131
f 135/135/135 134/134/134 133/133/133
f 136/136/136 135/135/135 133/133/133
f 136/136/136 137/137/137 135/135/135
f 137/137/137 138/138/138 135/135/135
f 141/141/141 140/140/140 139/139/139
f 142/142/142 141/141/141 139/139/139
f 142/142/142 143/143/143 141/141/141
f 143/143/143 144/144/144 141/141/141
f 147/147/147 146/146/146 145/145/145
f 148/148/148 147/147/147 145/145/145
f 148/148/148 149/149/149 147/147/147
f 149/149/149 150/150/150 147/147/147
f 153/153/153 152/152/152 151/151/151
f 154/154/154 153/153/153 151/151/151
f 154/154/154 155/155/155 153/153/153
f 155/155/155 156/156/156 153/153/153
f 159/159/159 158/158/158 157/157/157
f 160/160/160 159/159/159 157/157/157
f 160/160/160 157/157/157 161/161/161
f 157/157/157 162/162/162 161/161/161
f 165/165/165 164/164/164 163/163/163
f 166/166/166 165/165/165 163/163/163
f 166/166/166 167/167/167 165/165/165
f 167/167/167 168/168/168 165/165/165
f 171/171/171 170/170/170 169/169/169
f 172/172/172 171/171/171 169/169/169
f 172/172/172 173/173/173 171/171/171
f 173/173/173 174/174/174 171/171/171
f 177/177/177 176/176/176 175/175/175
f 178/178/178 177/177/177 175/175/175
f 178/178/178 175/175/175 179/179/179
f 175/175/175 180/180/180 179/179/179
f 183/183/183 182/182/182 181/181/181
f 184/184/184 183/183/183 181/181/181
f 184/184/184 185/185/185 183/183/183
f 185/185/185 186/186/186 183/183/183
f 189/189/189 188/188/188 187/187/187
f 190/190/190 189/189/189 187/187/187
f 190/190/190 191/191/191 189/189/189
f 191/191/191 192/192/192 189/189/189
f 195/195/195 194/194/194 193/193/193
f 196/196/196 195/195/195 193/193/193
f 199/199/199 198/198/198 197/197/197
f 200/200/200 199/199/199 197/197/197
f 203/203/203 202/202/202 201/201/201
f 204/204/204 203/203/203 201/201/201
f 207/207/207 206/206/206 205/205/205
f 208/208/208 207/207/207 205/205/205
f 211/211/211 210/210/210 209/209/209
f 212/212/212 211/211/211 209/209/209
f 215/215/215 214/214/214 213/213/213
f 214/214/214 216/216/216 213/213/213
