g breadStationGroundGeo
v -3.351743 -0.004970891 83.86852
v -3.351743 -0.004970891 -83.86852
v -3.248257 -0.004970891 -83.86852
v -3.248257 -0.004970891 83.86852
v 3.248257 -0.004970891 83.86852
v 3.248257 -0.004970891 -83.86852
v 3.351743 -0.004970891 -83.86852
v 3.351743 -0.004970891 83.86852
v -0.05174334 -0.004970891 83.86852
v -0.05174334 -0.004970891 -83.86852
v 0.05174334 -0.004970891 -83.86852
v 0.05174334 -0.004970891 83.86852
v -1.701743 -0.004970891 83.86852
v -1.701743 -0.004970891 -83.86852
v -1.598257 -0.004970891 -83.86852
v -1.598257 -0.004970891 83.86852
v 1.598257 -0.004970891 83.86852
v 1.598257 -0.004970891 -83.86852
v 1.701743 -0.004970891 -83.86852
v 1.701743 -0.004970891 83.86852
v -3.248257 -0.004970891 -83.86852
v -3.248257 -0.03404703 -83.86852
v -3.248257 -0.03404703 83.86852
v -3.248257 -0.004970891 83.86852
v -1.701743 -0.004970891 83.86852
v -1.701743 -0.03404703 83.86852
v -1.701743 -0.03404703 -83.86852
v -1.701743 -0.004970891 -83.86852
v -1.598257 -0.004970891 -83.86852
v -1.598257 -0.03404703 -83.86852
v -1.598257 -0.03404703 83.86852
v -1.598257 -0.004970891 83.86852
v -0.05174334 -0.004970891 83.86852
v -0.05174334 -0.03404703 83.86852
v -0.05174334 -0.03404703 -83.86852
v -0.05174334 -0.004970891 -83.86852
v 0.05174334 -0.004970891 -83.86852
v 0.05174334 -0.03404703 -83.86852
v 0.05174334 -0.03404703 83.86852
v 0.05174334 -0.004970891 83.86852
v 1.598257 -0.004970891 83.86852
v 1.598257 -0.03404703 83.86852
v 1.598257 -0.03404703 -83.86852
v 1.598257 -0.004970891 -83.86852
v 1.701743 -0.004970891 -83.86852
v 1.701743 -0.03404703 -83.86852
v 1.701743 -0.03404703 83.86852
v 1.701743 -0.004970891 83.86852
v 3.248257 -0.004970891 83.86852
v 3.248257 -0.03404703 83.86852
v 3.248257 -0.03404703 -83.86852
v 3.248257 -0.004970891 -83.86852
v -3.351743 -0.004970891 83.86852
v -3.351743 -0.03404703 83.86852
v -3.351743 -0.03404703 -83.86852
v -3.351743 -0.004970891 -83.86852
v 3.351743 -0.004970891 -83.86852
v 3.351743 -0.03404703 -83.86852
v 3.351743 -0.03404703 83.86852
v 3.351743 -0.004970891 83.86852
v -3.248257 -0.03404703 -83.86852
v -1.701743 -0.03404703 -83.86852
v -1.701743 -0.03404703 83.86852
v -3.248257 -0.03404703 83.86852
v -1.598257 -0.03404703 -83.86852
v -0.05174334 -0.03404703 -83.86852
v -0.05174334 -0.03404703 83.86852
v -1.598257 -0.03404703 83.86852
v 0.05174334 -0.03404703 -83.86852
v 1.598257 -0.03404703 -83.86852
v 1.598257 -0.03404703 83.86852
v 0.05174334 -0.03404703 83.86852
v 1.701743 -0.03404703 -83.86852
v 3.248257 -0.03404703 -83.86852
v 3.248257 -0.03404703 83.86852
v 1.701743 -0.03404703 83.86852
v -70.05767 -0.03404703 45.91917
v -83.39886 -0.03404703 22.18957
v -83.39886 -0.03404703 -22.18957
v -70.05767 -0.03404703 -45.91917
v -56.71649 -0.03404703 63.58708
v -56.71649 -0.03404703 -63.58708
v -30.03411 -0.03404703 79.06338
v -30.03411 -0.03404703 -79.06338
v -3.351743 -0.03404703 83.86852
v -3.351743 -0.03404703 -83.86852
v 3.351743 -0.03404703 -83.86852
v 30.03411 -0.03404703 79.06338
v 3.351743 -0.03404703 83.86852
v 30.03411 -0.03404703 -79.06338
v 56.71649 -0.03404703 63.58708
v 56.71649 -0.03404703 -63.58708
v 70.05767 -0.03404703 45.91917
v 70.05767 -0.03404703 -45.91917
v 83.39886 -0.03404703 22.18957
v 83.39886 -0.03404703 -22.18957
vt 0.9747516 0.4481853
vt 0.6168483 0.4481856
vt 0.6168483 0.4488025
vt 0.9747516 0.4488023
vt 0.9747517 0.48128
vt 0.6168483 0.4812799
vt 0.6168483 0.4818968
vt 0.9747517 0.4818969
vt 0.9747517 0.4647327
vt 0.6168482 0.4647327
vt 0.6168483 0.4653496
vt 0.9747517 0.4653496
vt 0.9747517 0.456459
vt 0.6168483 0.4564591
vt 0.6168482 0.457076
vt 0.9747517 0.457076
vt 0.9747517 0.4730063
vt 0.6168483 0.4730063
vt 0.6168483 0.4736232
vt 0.9747517 0.4736232
vt 0.6168483 0.4488024
vt 0.6168483 0.4489759
vt 0.9747516 0.4489758
vt 0.9747516 0.4488024
vt 0.9747517 0.4564591
vt 0.9747517 0.4562857
vt 0.6168483 0.4562857
vt 0.6168483 0.4564591
vt 0.6168483 0.457076
vt 0.6168483 0.4572494
vt 0.9747517 0.4572496
vt 0.9747517 0.4570761
vt 0.9747517 0.4647327
vt 0.9747517 0.4645594
vt 0.6168483 0.4645593
vt 0.6168483 0.4647327
vt 0.6168483 0.4653495
vt 0.6168483 0.4655229
vt 0.9747517 0.4655232
vt 0.9747517 0.4653497
vt 0.9747517 0.4730062
vt 0.9747517 0.4728329
vt 0.6168483 0.4728329
vt 0.6168483 0.4730062
vt 0.6168483 0.4736232
vt 0.6168483 0.4737967
vt 0.9747517 0.4737967
vt 0.9747517 0.4736234
vt 0.9747517 0.48128
vt 0.9747517 0.4811067
vt 0.6168483 0.4811066
vt 0.6168483 0.4812799
vt 0.9747516 0.4481853
vt 0.9747516 0.448012
vt 0.6168483 0.4480123
vt 0.6168483 0.4481856
vt 0.6168483 0.4818968
vt 0.6168483 0.4820702
vt 0.9747517 0.4820704
vt 0.9747517 0.481897
vt 1.513996 0.9980081
vt 1.523179 0.9980081
vt 1.523179 0.001992032
vt 1.513996 0.001992032
vt 1.530861 0.9980081
vt 1.540044 0.9980081
vt 1.540044 0.001992032
vt 1.530861 0.001992032
vt 1.547541 0.9980081
vt 1.556724 0.9980081
vt 1.556724 0.001992032
vt 1.547541 0.001992032
vt 1.56422 0.9980081
vt 1.573403 0.9980081
vt 1.573403 0.001992032
vt 1.56422 0.001992032
vt 1.109843 0.2273338
vt 1.030624 0.3682393
vt 1.030624 0.6317609
vt 1.109843 0.7726663
vt 1.189062 0.1224224
vt 1.189062 0.8775777
vt 1.347501 0.03052473
vt 1.347501 0.9694754
vt 1.50594 0.001992032
vt 1.50594 0.9980081
vt 1.593796 0.9980081
vt 1.752235 0.03052473
vt 1.593796 0.001992032
vt 1.752235 0.9694754
vt 1.910674 0.1224224
vt 1.910674 0.8775777
vt 1.989894 0.2273338
vt 1.989894 0.7726663
vt 2.069113 0.3682393
vt 2.069113 0.6317609
vn 0 1 0
vn 0 1 0
vn 0 1 0
vn 0 1 0
vn 0 1 0
vn 0 1 0
vn 0 1 0
vn 0 1 0
vn 0 1 0
vn 0 1 0
vn 0 1 0
vn 0 1 0
vn 0 1 0
vn 0 1 0
vn 0 1 0
vn 0 1 0
vn 0 1 0
vn 0 1 0
vn 0 1 0
vn 0 1 0
vn 1 0 0
vn 1 0 0
vn 1 0 0
vn 1 0 0
vn -1 0 0
vn -1 0 0
vn -1 0 0
vn -1 0 0
vn 1 0 0
vn 1 0 0
vn 1 0 0
vn 1 0 0
vn -1 0 0
vn -1 0 0
vn -1 0 0
vn -1 0 0
vn 1 0 0
vn 1 0 0
vn 1 0 0
vn 1 0 0
vn -1 0 0
vn -1 0 0
vn -1 0 0
vn -1 0 0
vn 1 0 0
vn 1 0 0
vn 1 0 0
vn 1 0 0
vn -1 0 0
vn -1 0 0
vn -1 0 0
vn -1 0 0
vn -1 0 0
vn -1 0 0
vn -1 0 0
vn -1 0 0
vn 1 0 0
vn 1 0 0
vn 1 0 0
vn 1 0 0
vn 0 1 0
vn 0 1 0
vn 0 1 0
vn 0 1 0
vn 0 1 0
vn 0 1 0
vn 0 1 0
vn 0 1 0
vn 0 1 0
vn 0 1 0
vn 0 1 0
vn 0 1 0
vn 0 1 0
vn 0 1 0
vn 0 1 0
vn 0 1 0
vn 0 1 0
vn 0 1 0
vn 0 1 0
vn 0 1 0
vn 0 1 0
vn 0 1 0
vn 0 1 0
vn 0 1 0
vn 0 1 0
vn 0 1 0
vn 0 1 0
vn 0 1 0
vn 0 1 0
vn 0 1 0
vn 0 1 0
vn 0 1 0
vn 0 1 0
vn 0 1 0
vn 0 1 0
vn 0 1 0
g breadStationGroundGeo_0
f 3/3/3 2/2/2 1/1/1
f 4/4/4 3/3/3 1/1/1
f 7/7/7 6/6/6 5/5/5
f 8/8/8 7/7/7 5/5/5
f 11/11/11 10/10/10 9/9/9
f 12/12/12 11/11/11 9/9/9
f 15/15/15 14/14/14 13/13/13
f 16/16/16 15/15/15 13/13/13
f 19/19/19 18/18/18 17/17/17
f 20/20/20 19/19/19 17/17/17
f 23/23/23 22/22/22 21/21/21
f 24/24/24 23/23/23 21/21/21
f 27/27/27 26/26/26 25/25/25
f 28/28/28 27/27/27 25/25/25
f 31/31/31 30/30/30 29/29/29
f 32/32/32 31/31/31 29/29/29
f 35/35/35 34/34/34 33/33/33
f 36/36/36 35/35/35 33/33/33
f 39/39/39 38/38/38 37/37/37
f 40/40/40 39/39/39 37/37/37
f 43/43/43 42/42/42 41/41/41
f 44/44/44 43/43/43 41/41/41
f 47/47/47 46/46/46 45/45/45
f 48/48/48 47/47/47 45/45/45
f 51/51/51 50/50/50 49/49/49
f 52/52/52 51/51/51 49/49/49
f 55/55/55 54/54/54 53/53/53
f 56/56/56 55/55/55 53/53/53
f 59/59/59 58/58/58 57/57/57
f 60/60/60 59/59/59 57/57/57
g breadStationGroundGeo_1
f 63/63/63 62/62/62 61/61/61
f 64/64/64 63/63/63 61/61/61
f 67/67/67 66/66/66 65/65/65
f 68/68/68 67/67/67 65/65/65
f 71/71/71 70/70/70 69/69/69
f 72/72/72 71/71/71 69/69/69
f 75/75/75 74/74/74 73/73/73
f 76/76/76 75/75/75 73/73/73
f 79/79/79 78/78/78 77/77/77
f 80/80/80 79/79/79 77/77/77
f 80/80/80 77/77/77 81/81/81
f 82/82/82 80/80/80 81/81/81
f 82/82/82 81/81/81 83/83/83
f 84/84/84 82/82/82 83/83/83
f 84/84/84 83/83/83 85/85/85
f 86/86/86 84/84/84 85/85/85
f 89/89/89 88/88/88 87/87/87
f 88/88/88 90/90/90 87/87/87
f 88/88/88 91/91/91 90/90/90
f 91/91/91 92/92/92 90/90/90
f 91/91/91 93/93/93 92/92/92
f 93/93/93 94/94/94 92/92/92
f 93/93/93 95/95/95 94/94/94
f 95/95/95 96/96/96 94/94/94
