g curvedSwoosh
v 0.8910065 -1.008061E-16 0.4539905
v 0.9393481 -0.1487779 0.309017
v 0.8800374 -0.139384 0.4539905
v 0.9510565 -6.861555E-17 0.309017
v 0.8800368 0.1393841 0.4539905
v 0.975529 -0.1545084 0.1564344
v 0.9393475 0.148778 0.309017
v 0.8473976 0.2753362 0.4539905
v 0.9876884 -3.473541E-17 0.1564344
v 0.987689 -0.1564343 -3.47354E-17
v 0.9045085 0.2938927 0.309017
v 0.7938927 0.4045086 0.4539905
v 0.9755283 0.1545085 0.1564344
v 1 0 0
v 0.975529 -0.1545084 -0.1564344
v 0.8473976 0.4317707 0.309017
v 0.7208395 0.5237206 0.4539905
v 0.9393475 0.3052125 0.1564344
v 0.9876884 0.1564345 3.473543E-17
v 0.9876884 3.473541E-17 -0.1564344
v 0.9393481 -0.1487779 -0.309017
v 0.769421 0.5590171 0.309017
v 0.6300368 0.6300369 0.4539905
v 0.8800368 0.4484012 0.1564344
v 0.9510565 0.309017 6.861556E-17
v 0.9755283 0.1545085 -0.1564344
v 0.9510565 6.861555E-17 -0.309017
v 0.8800374 -0.139384 -0.4539905
v 0.8910065 1.008061E-16 -0.4539905
v 0.9393475 0.148778 -0.309017
v 0.8800368 0.1393841 -0.4539905
v 0.6724986 0.6724987 0.309017
v 0.5237206 0.7208396 0.4539905
v 0.7990567 0.5805488 0.1564344
v 0.8910066 0.4539906 1.008062E-16
v 0.9393475 0.3052125 -0.1564344
v 0.9045085 0.2938927 -0.309017
v 0.8473976 0.2753362 -0.4539905
v 0.5590171 0.7694212 0.309017
v 0.4045085 0.7938929 0.4539905
v 0.6984012 0.6984013 0.1564344
v 0.8090171 0.5877854 1.305146E-16
v 0.8800368 0.4484012 -0.1564344
v 0.8473976 0.4317707 -0.309017
v 0.7938927 0.4045086 -0.4539905
v 0.4317707 0.8473978 0.309017
v 0.2753361 0.8473978 0.4539905
v 0.5805487 0.7990569 0.1564344
v 0.7071068 0.7071069 1.570093E-16
v 0.7990567 0.5805488 -0.1564344
v 0.769421 0.5590171 -0.309017
v 0.7208395 0.5237206 -0.4539905
v 0.2938926 0.9045088 0.309017
v 0.1393841 0.880037 0.4539905
v 0.4484012 0.880037 0.1564344
v 0.5877853 0.8090172 1.796379E-16
v 0.6984012 0.6984013 -0.1564344
v 0.6724986 0.6724987 -0.309017
v 0.6300368 0.6300369 -0.4539905
v 0.148778 0.9393477 0.309017
v -9.293922E-08 0.8910068 0.4539905
v 0.3052125 0.9393477 0.1564344
v 0.4539905 0.8910068 1.978432E-16
v 0.5805487 0.7990569 -0.1564344
v 0.5590171 0.7694212 -0.309017
v 0.5237206 0.7208396 -0.4539905
v -9.920293E-08 0.9510568 0.309017
v -0.1393843 0.880037 0.4539905
v 0.1545084 0.9755285 0.1564344
v 0.309017 0.9510568 2.11177E-16
v 0.4484012 0.880037 -0.1564344
v 0.4317707 0.8473978 -0.309017
v 0.4045085 0.7938929 -0.4539905
v -0.1487782 0.9393477 0.309017
v -0.2753364 0.8473978 0.4539905
v -1.030239E-07 0.9876886 0.1564344
v 0.1564344 0.9876886 2.193109E-16
v 0.3052125 0.9393477 -0.1564344
v 0.2938926 0.9045088 -0.309017
v 0.2753361 0.8473978 -0.4539905
v -0.2938928 0.9045088 0.309017
v -0.4045087 0.7938928 0.4539905
v -0.1545087 0.9755285 0.1564344
v -1.043081E-07 1 2.220447E-16
v 0.1545084 0.9755285 -0.1564344
v 0.148778 0.9393477 -0.309017
v 0.1393841 0.880037 -0.4539905
v -0.4317709 0.8473977 0.309017
v -0.5237207 0.7208396 0.4539905
v -0.3052127 0.9393477 0.1564344
v -0.1564346 0.9876886 2.193109E-16
v -1.030239E-07 0.9876886 -0.1564344
v -9.920293E-08 0.9510568 -0.309017
v -9.293922E-08 0.8910068 -0.4539905
v -0.5590173 0.769421 0.309017
v -0.6300371 0.6300368 0.4539905
v -0.4484014 0.880037 0.1564344
v -0.3090172 0.9510568 2.11177E-16
v -0.1545087 0.9755285 -0.1564344
v -0.1487782 0.9393477 -0.309017
v -0.1393843 0.880037 -0.4539905
v -0.6724989 0.6724986 0.309017
v -0.7208397 0.5237206 0.4539905
v -0.5805489 0.7990568 0.1564344
v -0.4539908 0.8910067 1.978432E-16
v -0.3052127 0.9393477 -0.1564344
v -0.2938928 0.9045088 -0.309017
v -0.2753364 0.8473978 -0.4539905
v -0.7694213 0.5590171 0.309017
v -0.793893 0.4045085 0.4539905
v -0.6984015 0.6984012 0.1564344
v -0.5877855 0.8090171 1.796379E-16
v -0.4484014 0.880037 -0.1564344
v -0.4317709 0.8473977 -0.309017
v -0.4045087 0.7938928 -0.4539905
v -0.8473979 0.4317706 0.309017
v -0.8473979 0.2753361 0.4539905
v -0.799057 0.5805487 0.1564344
v -0.7071071 0.7071068 1.570093E-16
v -0.5805489 0.7990568 -0.1564344
v -0.5590173 0.769421 -0.309017
v -0.5237207 0.7208396 -0.4539905
v -0.9045089 0.2938926 0.309017
v -0.8800371 0.139384 0.4539905
v -0.8800371 0.4484011 0.1564344
v -0.8090174 0.5877853 1.305146E-16
v -0.6984015 0.6984012 -0.1564344
v -0.6724989 0.6724986 -0.309017
v -0.6300371 0.6300368 -0.4539905
v -0.9393478 0.1487779 0.309017
v -0.8910068 -1.460474E-07 0.4539905
v -0.9393478 0.3052124 0.1564344
v -0.8910069 0.4539905 1.008061E-16
v -0.799057 0.5805487 -0.1564344
v -0.7694213 0.5590171 -0.309017
v -0.7208397 0.5237206 -0.4539905
v -0.9510569 -1.558903E-07 0.309017
v -0.8800371 -0.1393843 0.4539905
v -0.9393478 -0.1487782 0.309017
v -0.9755287 0.1545084 0.1564344
v -0.9876887 -1.618947E-07 0.1564344
v -0.9755287 -0.1545087 0.1564344
v -0.9510569 0.3090169 6.861555E-17
v -0.8800371 0.4484011 -0.1564344
v -0.8473979 0.4317706 -0.309017
v -0.793893 0.4045085 -0.4539905
v -1 -1.639128E-07 -3.639595E-23
v -0.9876887 -0.1564347 -3.473548E-17
v -0.9876887 0.1564344 3.473541E-17
v -0.9393478 0.3052124 -0.1564344
v -0.9045089 0.2938926 -0.309017
v -0.8473979 0.2753361 -0.4539905
v -0.9755287 0.1545084 -0.1564344
v -0.9876887 -1.618947E-07 -0.1564344
v -0.9755287 -0.1545087 -0.1564344
v -0.9393478 0.1487779 -0.309017
v -0.8800371 0.139384 -0.4539905
v -0.9510569 -1.558903E-07 -0.309017
v -0.9393478 -0.1487782 -0.309017
v -0.8910068 -1.460474E-07 -0.4539905
v -0.8800371 -0.1393843 -0.4539905
vt 0.9545454 0
vt 1 0.1666667
vt 1 0
vt 0.9545454 0.1666667
vt 0.9090909 0
vt 1 0.3333333
vt 0.9090909 0.1666667
vt 0.8636364 0
vt 0.9545454 0.3333333
vt 1 0.5
vt 0.8636364 0.1666667
vt 0.8181818 0
vt 0.9090909 0.3333333
vt 0.9545454 0.5
vt 1 0.6666667
vt 0.8181818 0.1666667
vt 0.7727273 0
vt 0.8636364 0.3333333
vt 0.9090909 0.5
vt 0.9545454 0.6666667
vt 1 0.8333334
vt 0.7727273 0.1666667
vt 0.7272727 0
vt 0.8181818 0.3333333
vt 0.8636364 0.5
vt 0.9090909 0.6666667
vt 0.9545454 0.8333334
vt 1 1
vt 0.9545454 1
vt 0.9090909 0.8333334
vt 0.9090909 1
vt 0.7272727 0.1666667
vt 0.6818182 0
vt 0.7727273 0.3333333
vt 0.8181818 0.5
vt 0.8636364 0.6666667
vt 0.8636364 0.8333334
vt 0.8636364 1
vt 0.6818182 0.1666667
vt 0.6363636 0
vt 0.7272727 0.3333333
vt 0.7727273 0.5
vt 0.8181818 0.6666667
vt 0.8181818 0.8333334
vt 0.8181818 1
vt 0.6363636 0.1666667
vt 0.5909091 0
vt 0.6818182 0.3333333
vt 0.7272727 0.5
vt 0.7727273 0.6666667
vt 0.7727273 0.8333334
vt 0.7727273 1
vt 0.5909091 0.1666667
vt 0.5454546 0
vt 0.6363636 0.3333333
vt 0.6818182 0.5
vt 0.7272727 0.6666667
vt 0.7272727 0.8333334
vt 0.7272727 1
vt 0.5454546 0.1666667
vt 0.5 0
vt 0.5909091 0.3333333
vt 0.6363636 0.5
vt 0.6818182 0.6666667
vt 0.6818182 0.8333334
vt 0.6818182 1
vt 0.5 0.1666667
vt 0.4545454 0
vt 0.5454546 0.3333333
vt 0.5909091 0.5
vt 0.6363636 0.6666667
vt 0.6363636 0.8333334
vt 0.6363636 1
vt 0.4545454 0.1666667
vt 0.4090909 0
vt 0.5 0.3333333
vt 0.5454546 0.5
vt 0.5909091 0.6666667
vt 0.5909091 0.8333334
vt 0.5909091 1
vt 0.4090909 0.1666667
vt 0.3636364 0
vt 0.4545454 0.3333333
vt 0.5 0.5
vt 0.5454546 0.6666667
vt 0.5454546 0.8333334
vt 0.5454546 1
vt 0.3636364 0.1666667
vt 0.3181818 0
vt 0.4090909 0.3333333
vt 0.4545454 0.5
vt 0.5 0.6666667
vt 0.5 0.8333334
vt 0.5 1
vt 0.3181818 0.1666667
vt 0.2727273 0
vt 0.3636364 0.3333333
vt 0.4090909 0.5
vt 0.4545454 0.6666667
vt 0.4545454 0.8333334
vt 0.4545454 1
vt 0.2727273 0.1666667
vt 0.2272727 0
vt 0.3181818 0.3333333
vt 0.3636364 0.5
vt 0.4090909 0.6666667
vt 0.4090909 0.8333334
vt 0.4090909 1
vt 0.2272727 0.1666667
vt 0.1818182 0
vt 0.2727273 0.3333333
vt 0.3181818 0.5
vt 0.3636364 0.6666667
vt 0.3636364 0.8333334
vt 0.3636364 1
vt 0.1818182 0.1666667
vt 0.1363636 0
vt 0.2272727 0.3333333
vt 0.2727273 0.5
vt 0.3181818 0.6666667
vt 0.3181818 0.8333334
vt 0.3181818 1
vt 0.1363636 0.1666667
vt 0.09090909 0
vt 0.1818182 0.3333333
vt 0.2272727 0.5
vt 0.2727273 0.6666667
vt 0.2727273 0.8333334
vt 0.2727273 1
vt 0.09090909 0.1666667
vt 0.04545456 0
vt 0.1363636 0.3333333
vt 0.1818182 0.5
vt 0.2272727 0.6666667
vt 0.2272727 0.8333334
vt 0.2272727 1
vt 0.04545456 0.1666667
vt -5.960464E-08 0
vt -5.960464E-08 0.1666667
vt 0.09090909 0.3333333
vt 0.04545456 0.3333333
vt -5.960464E-08 0.3333333
vt 0.1363636 0.5
vt 0.1818182 0.6666667
vt 0.1818182 0.8333334
vt 0.1818182 1
vt 0.04545456 0.5
vt -5.960464E-08 0.5
vt 0.09090909 0.5
vt 0.1363636 0.6666667
vt 0.1363636 0.8333334
vt 0.1363636 1
vt 0.09090909 0.6666667
vt 0.04545456 0.6666667
vt -5.960464E-08 0.6666667
vt 0.09090909 0.8333334
vt 0.09090909 1
vt 0.04545456 0.8333334
vt -5.960464E-08 0.8333334
vt 0.04545456 1
vt -5.960464E-08 1
vn 0.9238795 0 0.3826835
vn 0.9493878 -0.07471423 0.3050911
vn 0.9214473 -0.07251532 0.3816758
vn 0.9520487 0 0.3059463
vn 0.9125051 0.1445265 0.3826835
vn 0.9849644 -0.0775139 0.1543916
vn 0.9403275 0.1489332 0.3059464
vn 0.8786616 0.2854944 0.3826835
vn 0.9879368 0 0.1548575
vn 0.9969177 -0.07845443 0
vn 0.9054522 0.2941992 0.3059464
vn 0.8231828 0.4194323 0.3826834
vn 0.9757736 0.1545472 0.1548575
vn 1 0 0
vn 0.9849644 -0.0775139 -0.1543916
vn 0.8482817 0.432221 0.3059463
vn 0.7474344 0.5430426 0.3826834
vn 0.9395838 0.3052892 0.1548575
vn 0.9876884 0.1564344 0
vn 0.9879368 0 -0.1548575
vn 0.9493878 -0.07471424 -0.3050911
vn 0.7702239 0.5596 0.3059463
vn 0.6532817 0.6532812 0.3826836
vn 0.8802582 0.4485138 0.1548575
vn 0.9510565 0.3090168 0
vn 0.9757736 0.1545472 -0.1548575
vn 0.9520487 0 -0.3059463
vn 0.9214473 -0.07251532 -0.3816758
vn 0.9238795 0 -0.3826835
vn 0.9403275 0.1489331 -0.3059464
vn 0.912505 0.1445265 -0.3826835
vn 0.6732003 0.6731999 0.3059464
vn 0.5430429 0.7474342 0.3826834
vn 0.7992578 0.5806945 0.1548575
vn 0.8910066 0.4539903 0
vn 0.9395838 0.3052892 -0.1548575
vn 0.9054522 0.2941993 -0.3059464
vn 0.8786616 0.2854944 -0.3826836
vn 0.5596003 0.7702236 0.3059463
vn 0.4194324 0.8231828 0.3826834
vn 0.698577 0.6985766 0.1548575
vn 0.8090171 0.5877852 0
vn 0.8802582 0.4485138 -0.1548575
vn 0.8482817 0.432221 -0.3059463
vn 0.8231828 0.4194323 -0.3826835
vn 0.432221 0.8482816 0.3059464
vn 0.2854945 0.8786616 0.3826836
vn 0.5806948 0.7992576 0.1548576
vn 0.7071069 0.7071065 0
vn 0.7992578 0.5806945 -0.1548575
vn 0.7702239 0.5596 -0.3059463
vn 0.7474343 0.5430425 -0.3826835
vn 0.2941992 0.9054522 0.3059463
vn 0.1445265 0.912505 0.3826837
vn 0.4485139 0.8802582 0.1548576
vn 0.5877853 0.809017 0
vn 0.698577 0.6985766 -0.1548574
vn 0.6732003 0.6731999 -0.3059463
vn 0.6532817 0.6532812 -0.3826836
vn 0.1489332 0.9403275 0.3059464
vn 0 0.9238795 0.3826835
vn 0.3052893 0.9395838 0.1548574
vn 0.4539904 0.8910066 0
vn 0.5806948 0.7992576 -0.1548575
vn 0.5596002 0.7702236 -0.3059462
vn 0.5430429 0.7474342 -0.3826834
vn 0 0.9520487 0.3059464
vn -0.1445265 0.9125051 0.3826833
vn 0.1545473 0.9757736 0.1548575
vn 0.3090169 0.9510565 0
vn 0.4485139 0.8802582 -0.1548574
vn 0.4322211 0.8482817 -0.3059462
vn 0.4194324 0.8231828 -0.3826834
vn -0.1489332 0.9403275 0.3059462
vn -0.2854946 0.8786616 0.3826834
vn 0 0.9879368 0.1548577
vn 0.1564344 0.9876884 0
vn 0.3052893 0.9395838 -0.1548573
vn 0.2941992 0.9054522 -0.3059462
vn 0.2854944 0.8786616 -0.3826836
vn -0.2941994 0.9054522 0.3059461
vn -0.4194327 0.8231826 0.3826833
vn -0.1545473 0.9757736 0.1548575
vn 0 1 0
vn 0.1545473 0.9757736 -0.1548575
vn 0.1489332 0.9403275 -0.3059464
vn 0.1445265 0.912505 -0.3826835
vn -0.4322213 0.8482816 0.3059461
vn -0.5430428 0.7474343 0.3826833
vn -0.3052894 0.9395837 0.1548574
vn -0.1564344 0.9876884 0
vn 0 0.9879368 -0.1548576
vn 0 0.9520487 -0.3059462
vn 0 0.9238796 -0.3826832
vn -0.5596003 0.7702236 0.3059462
vn -0.6532815 0.6532815 0.3826835
vn -0.4485142 0.880258 0.1548575
vn -0.3090171 0.9510565 0
vn -0.1545473 0.9757736 -0.1548575
vn -0.1489331 0.9403276 -0.3059461
vn -0.1445265 0.9125051 -0.3826832
vn -0.6732001 0.6732001 0.3059464
vn -0.7474342 0.5430426 0.3826837
vn -0.5806949 0.7992575 0.1548576
vn -0.4539907 0.8910064 0
vn -0.3052894 0.9395837 -0.1548575
vn -0.2941994 0.9054522 -0.3059463
vn -0.2854945 0.8786615 -0.3826835
vn -0.7702236 0.5596001 0.3059464
vn -0.8231827 0.4194325 0.3826834
vn -0.6985767 0.6985769 0.1548576
vn -0.5877855 0.8090168 0
vn -0.4485142 0.880258 -0.1548576
vn -0.4322213 0.8482816 -0.3059463
vn -0.4194327 0.8231825 -0.3826834
vn -0.8482817 0.432221 0.3059463
vn -0.8786616 0.2854943 0.3826835
vn -0.7992578 0.5806947 0.1548574
vn -0.7071066 0.7071069 0
vn -0.5806948 0.7992576 -0.1548576
vn -0.5596002 0.7702237 -0.3059462
vn -0.5430428 0.7474343 -0.3826833
vn -0.9054522 0.2941992 0.3059464
vn -0.9125051 0.1445262 0.3826837
vn -0.8802583 0.4485137 0.1548575
vn -0.809017 0.5877854 0
vn -0.6985767 0.698577 -0.1548575
vn -0.6732001 0.6732002 -0.3059464
vn -0.6532814 0.6532815 -0.3826836
vn -0.9403275 0.1489329 0.3059465
vn -0.9238794 0 0.3826837
vn -0.9395837 0.3052893 0.1548575
vn -0.8910066 0.4539903 0
vn -0.7992576 0.5806947 -0.1548574
vn -0.7702236 0.5596001 -0.3059464
vn -0.7474342 0.5430426 -0.3826837
vn -0.9520487 0 0.3059465
vn -0.9214467 -0.07251917 0.3816762
vn -0.9493874 -0.07471798 0.3050914
vn -0.9757736 0.1545472 0.1548576
vn -0.9879368 0 0.1548576
vn -0.9849641 -0.07751779 0.1543916
vn -0.9510565 0.309017 0
vn -0.8802582 0.4485137 -0.1548575
vn -0.8482817 0.432221 -0.3059463
vn -0.8231827 0.4194325 -0.3826834
vn -1 0 0
vn -0.9969174 -0.07845857 0
vn -0.9876884 0.1564343 0
vn -0.9395837 0.3052893 -0.1548575
vn -0.9054522 0.2941992 -0.3059464
vn -0.8786617 0.2854943 -0.3826835
vn -0.9757736 0.1545472 -0.1548576
vn -0.9879368 0 -0.1548576
vn -0.9849641 -0.07751779 -0.1543916
vn -0.9403275 0.1489329 -0.3059465
vn -0.9125051 0.1445262 -0.3826836
vn -0.9520487 0 -0.3059465
vn -0.9493874 -0.07471797 -0.3050913
vn -0.9238794 0 -0.3826837
vn -0.9214469 -0.07251916 -0.3816761
g curvedSwoosh_0
f 3/3/3 2/2/2 1/1/1
f 2/2/2 4/4/4 1/1/1
f 1/1/1 4/4/4 5/5/5
f 2/2/2 6/6/6 4/4/4
f 4/4/4 7/7/7 5/5/5
f 5/5/5 7/7/7 8/8/8
f 6/6/6 9/9/9 4/4/4
f 4/4/4 9/9/9 7/7/7
f 6/6/6 10/10/10 9/9/9
f 7/7/7 11/11/11 8/8/8
f 8/8/8 11/11/11 12/12/12
f 9/9/9 13/13/13 7/7/7
f 7/7/7 13/13/13 11/11/11
f 10/10/10 14/14/14 9/9/9
f 9/9/9 14/14/14 13/13/13
f 10/10/10 15/15/15 14/14/14
f 11/11/11 16/16/16 12/12/12
f 12/12/12 16/16/16 17/17/17
f 13/13/13 18/18/18 11/11/11
f 11/11/11 18/18/18 16/16/16
f 14/14/14 19/19/19 13/13/13
f 13/13/13 19/19/19 18/18/18
f 15/15/15 20/20/20 14/14/14
f 14/14/14 20/20/20 19/19/19
f 15/15/15 21/21/21 20/20/20
f 16/16/16 22/22/22 17/17/17
f 17/17/17 22/22/22 23/23/23
f 18/18/18 24/24/24 16/16/16
f 16/16/16 24/24/24 22/22/22
f 19/19/19 25/25/25 18/18/18
f 18/18/18 25/25/25 24/24/24
f 20/20/20 26/26/26 19/19/19
f 19/19/19 26/26/26 25/25/25
f 21/21/21 27/27/27 20/20/20
f 20/20/20 27/27/27 26/26/26
f 21/21/21 28/28/28 27/27/27
f 28/28/28 29/29/29 27/27/27
f 27/27/27 29/29/29 30/30/30
f 27/27/27 30/30/30 26/26/26
f 29/29/29 31/31/31 30/30/30
f 22/22/22 32/32/32 23/23/23
f 23/23/23 32/32/32 33/33/33
f 24/24/24 34/34/34 22/22/22
f 22/22/22 34/34/34 32/32/32
f 25/25/25 35/35/35 24/24/24
f 24/24/24 35/35/35 34/34/34
f 26/26/26 36/36/36 25/25/25
f 26/26/26 30/30/30 36/36/36
f 25/25/25 36/36/36 35/35/35
f 30/30/30 31/31/31 37/37/37
f 30/30/30 37/37/37 36/36/36
f 31/31/31 38/38/38 37/37/37
f 32/32/32 39/39/39 33/33/33
f 33/33/33 39/39/39 40/40/40
f 34/34/34 41/41/41 32/32/32
f 32/32/32 41/41/41 39/39/39
f 35/35/35 42/42/42 34/34/34
f 34/34/34 42/42/42 41/41/41
f 36/36/36 43/43/43 35/35/35
f 36/36/36 37/37/37 43/43/43
f 35/35/35 43/43/43 42/42/42
f 37/37/37 38/38/38 44/44/44
f 37/37/37 44/44/44 43/43/43
f 38/38/38 45/45/45 44/44/44
f 39/39/39 46/46/46 40/40/40
f 40/40/40 46/46/46 47/47/47
f 41/41/41 48/48/48 39/39/39
f 39/39/39 48/48/48 46/46/46
f 42/42/42 49/49/49 41/41/41
f 41/41/41 49/49/49 48/48/48
f 43/43/43 50/50/50 42/42/42
f 43/43/43 44/44/44 50/50/50
f 42/42/42 50/50/50 49/49/49
f 44/44/44 45/45/45 51/51/51
f 44/44/44 51/51/51 50/50/50
f 45/45/45 52/52/52 51/51/51
f 46/46/46 53/53/53 47/47/47
f 47/47/47 53/53/53 54/54/54
f 48/48/48 55/55/55 46/46/46
f 46/46/46 55/55/55 53/53/53
f 49/49/49 56/56/56 48/48/48
f 48/48/48 56/56/56 55/55/55
f 50/50/50 57/57/57 49/49/49
f 50/50/50 51/51/51 57/57/57
f 49/49/49 57/57/57 56/56/56
f 51/51/51 52/52/52 58/58/58
f 51/51/51 58/58/58 57/57/57
f 52/52/52 59/59/59 58/58/58
f 53/53/53 60/60/60 54/54/54
f 54/54/54 60/60/60 61/61/61
f 55/55/55 62/62/62 53/53/53
f 53/53/53 62/62/62 60/60/60
f 56/56/56 63/63/63 55/55/55
f 55/55/55 63/63/63 62/62/62
f 57/57/57 64/64/64 56/56/56
f 57/57/57 58/58/58 64/64/64
f 56/56/56 64/64/64 63/63/63
f 58/58/58 59/59/59 65/65/65
f 58/58/58 65/65/65 64/64/64
f 59/59/59 66/66/66 65/65/65
f 60/60/60 67/67/67 61/61/61
f 61/61/61 67/67/67 68/68/68
f 62/62/62 69/69/69 60/60/60
f 60/60/60 69/69/69 67/67/67
f 63/63/63 70/70/70 62/62/62
f 62/62/62 70/70/70 69/69/69
f 64/64/64 71/71/71 63/63/63
f 64/64/64 65/65/65 71/71/71
f 63/63/63 71/71/71 70/70/70
f 65/65/65 66/66/66 72/72/72
f 65/65/65 72/72/72 71/71/71
f 66/66/66 73/73/73 72/72/72
f 67/67/67 74/74/74 68/68/68
f 68/68/68 74/74/74 75/75/75
f 69/69/69 76/76/76 67/67/67
f 67/67/67 76/76/76 74/74/74
f 70/70/70 77/77/77 69/69/69
f 69/69/69 77/77/77 76/76/76
f 71/71/71 78/78/78 70/70/70
f 71/71/71 72/72/72 78/78/78
f 70/70/70 78/78/78 77/77/77
f 72/72/72 73/73/73 79/79/79
f 72/72/72 79/79/79 78/78/78
f 73/73/73 80/80/80 79/79/79
f 74/74/74 81/81/81 75/75/75
f 75/75/75 81/81/81 82/82/82
f 76/76/76 83/83/83 74/74/74
f 74/74/74 83/83/83 81/81/81
f 77/77/77 84/84/84 76/76/76
f 76/76/76 84/84/84 83/83/83
f 78/78/78 85/85/85 77/77/77
f 78/78/78 79/79/79 85/85/85
f 77/77/77 85/85/85 84/84/84
f 79/79/79 80/80/80 86/86/86
f 79/79/79 86/86/86 85/85/85
f 80/80/80 87/87/87 86/86/86
f 81/81/81 88/88/88 82/82/82
f 82/82/82 88/88/88 89/89/89
f 83/83/83 90/90/90 81/81/81
f 81/81/81 90/90/90 88/88/88
f 84/84/84 91/91/91 83/83/83
f 83/83/83 91/91/91 90/90/90
f 85/85/85 92/92/92 84/84/84
f 85/85/85 86/86/86 92/92/92
f 84/84/84 92/92/92 91/91/91
f 86/86/86 87/87/87 93/93/93
f 86/86/86 93/93/93 92/92/92
f 87/87/87 94/94/94 93/93/93
f 88/88/88 95/95/95 89/89/89
f 89/89/89 95/95/95 96/96/96
f 90/90/90 97/97/97 88/88/88
f 88/88/88 97/97/97 95/95/95
f 91/91/91 98/98/98 90/90/90
f 90/90/90 98/98/98 97/97/97
f 92/92/92 99/99/99 91/91/91
f 92/92/92 93/93/93 99/99/99
f 91/91/91 99/99/99 98/98/98
f 93/93/93 94/94/94 100/100/100
f 93/93/93 100/100/100 99/99/99
f 94/94/94 101/101/101 100/100/100
f 95/95/95 102/102/102 96/96/96
f 96/96/96 102/102/102 103/103/103
f 97/97/97 104/104/104 95/95/95
f 95/95/95 104/104/104 102/102/102
f 98/98/98 105/105/105 97/97/97
f 97/97/97 105/105/105 104/104/104
f 99/99/99 106/106/106 98/98/98
f 99/99/99 100/100/100 106/106/106
f 98/98/98 106/106/106 105/105/105
f 100/100/100 101/101/101 107/107/107
f 100/100/100 107/107/107 106/106/106
f 101/101/101 108/108/108 107/107/107
f 102/102/102 109/109/109 103/103/103
f 103/103/103 109/109/109 110/110/110
f 104/104/104 111/111/111 102/102/102
f 102/102/102 111/111/111 109/109/109
f 105/105/105 112/112/112 104/104/104
f 104/104/104 112/112/112 111/111/111
f 106/106/106 113/113/113 105/105/105
f 106/106/106 107/107/107 113/113/113
f 105/105/105 113/113/113 112/112/112
f 107/107/107 108/108/108 114/114/114
f 107/107/107 114/114/114 113/113/113
f 108/108/108 115/115/115 114/114/114
f 109/109/109 116/116/116 110/110/110
f 110/110/110 116/116/116 117/117/117
f 111/111/111 118/118/118 109/109/109
f 109/109/109 118/118/118 116/116/116
f 112/112/112 119/119/119 111/111/111
f 111/111/111 119/119/119 118/118/118
f 113/113/113 120/120/120 112/112/112
f 113/113/113 114/114/114 120/120/120
f 112/112/112 120/120/120 119/119/119
f 114/114/114 115/115/115 121/121/121
f 114/114/114 121/121/121 120/120/120
f 115/115/115 122/122/122 121/121/121
f 116/116/116 123/123/123 117/117/117
f 117/117/117 123/123/123 124/124/124
f 118/118/118 125/125/125 116/116/116
f 116/116/116 125/125/125 123/123/123
f 119/119/119 126/126/126 118/118/118
f 118/118/118 126/126/126 125/125/125
f 120/120/120 127/127/127 119/119/119
f 120/120/120 121/121/121 127/127/127
f 119/119/119 127/127/127 126/126/126
f 121/121/121 122/122/122 128/128/128
f 121/121/121 128/128/128 127/127/127
f 122/122/122 129/129/129 128/128/128
f 123/123/123 130/130/130 124/124/124
f 124/124/124 130/130/130 131/131/131
f 125/125/125 132/132/132 123/123/123
f 123/123/123 132/132/132 130/130/130
f 126/126/126 133/133/133 125/125/125
f 125/125/125 133/133/133 132/132/132
f 127/127/127 134/134/134 126/126/126
f 127/127/127 128/128/128 134/134/134
f 126/126/126 134/134/134 133/133/133
f 128/128/128 129/129/129 135/135/135
f 128/128/128 135/135/135 134/134/134
f 129/129/129 136/136/136 135/135/135
f 130/130/130 137/137/137 131/131/131
f 131/131/131 137/137/137 138/138/138
f 137/137/137 139/139/139 138/138/138
f 132/132/132 140/140/140 130/130/130
f 130/130/130 140/140/140 137/137/137
f 137/137/137 141/141/141 139/139/139
f 140/140/140 141/141/141 137/137/137
f 141/141/141 142/142/142 139/139/139
f 133/133/133 143/143/143 132/132/132
f 132/132/132 143/143/143 140/140/140
f 134/134/134 144/144/144 133/133/133
f 134/134/134 135/135/135 144/144/144
f 133/133/133 144/144/144 143/143/143
f 135/135/135 136/136/136 145/145/145
f 135/135/135 145/145/145 144/144/144
f 136/136/136 146/146/146 145/145/145
f 141/141/141 147/147/147 142/142/142
f 147/147/147 148/148/148 142/142/142
f 140/140/140 149/149/149 141/141/141
f 143/143/143 149/149/149 140/140/140
f 149/149/149 147/147/147 141/141/141
f 144/144/144 150/150/150 143/143/143
f 144/144/144 145/145/145 150/150/150
f 143/143/143 150/150/150 149/149/149
f 145/145/145 146/146/146 151/151/151
f 145/145/145 151/151/151 150/150/150
f 146/146/146 152/152/152 151/151/151
f 150/150/150 153/153/153 149/149/149
f 149/149/149 153/153/153 147/147/147
f 150/150/150 151/151/151 153/153/153
f 147/147/147 154/154/154 148/148/148
f 153/153/153 154/154/154 147/147/147
f 154/154/154 155/155/155 148/148/148
f 151/151/151 152/152/152 156/156/156
f 151/151/151 156/156/156 153/153/153
f 153/153/153 156/156/156 154/154/154
f 152/152/152 157/157/157 156/156/156
f 154/154/154 158/158/158 155/155/155
f 156/156/156 158/158/158 154/154/154
f 156/156/156 157/157/157 158/158/158
f 158/158/158 159/159/159 155/155/155
f 157/157/157 160/160/160 158/158/158
f 158/158/158 160/160/160 159/159/159
f 160/160/160 161/161/161 159/159/159
