g curvedSwoosh
v 0.8910065 -1.00806145E-16 0.45399052
v 0.9393481 -0.14877789 0.30901697
v 0.88003737 -0.139384 0.45399052
v 0.95105654 -6.861555E-17 0.30901697
v 0.8800368 0.13938414 0.45399052
v 0.97552896 -0.15450837 0.15643437
v 0.9393475 0.14877804 0.30901697
v 0.84739757 0.2753362 0.45399052
v 0.98768836 -3.4735408E-17 0.15643437
v 0.987689 -0.15643433 -3.47354E-17
v 0.90450853 0.29389268 0.30901697
v 0.7938927 0.40450856 0.45399052
v 0.9755283 0.15450852 0.15643437
v 1 0 0
v 0.97552896 -0.15450837 -0.15643437
v 0.8473976 0.4317707 0.30901697
v 0.7208395 0.5237206 0.45399052
v 0.9393475 0.30521253 0.15643437
v 0.98768836 0.15643448 3.473543E-17
v 0.98768836 3.4735408E-17 -0.15643437
v 0.9393481 -0.14877789 -0.30901697
v 0.769421 0.5590171 0.30901697
v 0.63003683 0.6300369 0.45399052
v 0.88003683 0.4484012 0.15643437
v 0.95105654 0.30901703 6.8615565E-17
v 0.9755283 0.15450852 -0.15643437
v 0.95105654 6.861555E-17 -0.30901697
v 0.88003737 -0.139384 -0.45399052
v 0.8910065 1.00806145E-16 -0.45399052
v 0.9393475 0.14877804 -0.30901697
v 0.8800368 0.13938414 -0.45399052
v 0.6724986 0.6724987 0.30901697
v 0.52372056 0.7208396 0.45399052
v 0.7990567 0.58054876 0.15643437
v 0.8910066 0.45399058 1.0080616E-16
v 0.9393475 0.30521253 -0.15643437
v 0.90450853 0.29389268 -0.30901697
v 0.84739757 0.2753362 -0.45399052
v 0.55901706 0.76942116 0.30901697
v 0.40450853 0.79389286 0.45399052
v 0.6984012 0.69840133 0.15643437
v 0.80901706 0.58778536 1.3051457E-16
v 0.88003683 0.4484012 -0.15643437
v 0.8473976 0.4317707 -0.30901697
v 0.7938927 0.40450856 -0.45399052
v 0.43177065 0.8473978 0.30901697
v 0.27533615 0.8473978 0.45399052
v 0.5805487 0.7990569 0.15643437
v 0.7071068 0.70710695 1.5700928E-16
v 0.7990567 0.58054876 -0.15643437
v 0.769421 0.5590171 -0.30901697
v 0.7208395 0.5237206 -0.45399052
v 0.29389262 0.90450877 0.30901697
v 0.13938408 0.880037 0.45399052
v 0.44840115 0.880037 0.15643437
v 0.5877853 0.80901724 1.7963791E-16
v 0.6984012 0.69840133 -0.15643437
v 0.6724986 0.6724987 -0.30901697
v 0.63003683 0.6300369 -0.45399052
v 0.14877796 0.9393477 0.30901697
v -9.2939224E-08 0.89100677 0.45399052
v 0.30521247 0.9393477 0.15643437
v 0.45399052 0.89100677 1.9784325E-16
v 0.5805487 0.7990569 -0.15643437
v 0.55901706 0.76942116 -0.30901697
v 0.52372056 0.7208396 -0.45399052
v -9.920293E-08 0.9510568 0.30901697
v -0.13938427 0.880037 0.45399052
v 0.15450844 0.97552854 0.15643437
v 0.30901697 0.9510568 2.1117703E-16
v 0.44840115 0.880037 -0.15643437
v 0.43177065 0.8473978 -0.30901697
v 0.40450853 0.79389286 -0.45399052
v -0.14877817 0.9393477 0.30901697
v -0.27533635 0.8473978 0.45399052
v -1.0302392E-07 0.9876886 0.15643437
v 0.1564344 0.9876886 2.1931093E-16
v 0.30521247 0.9393477 -0.15643437
v 0.29389262 0.90450877 -0.30901697
v 0.27533615 0.8473978 -0.45399052
v -0.29389283 0.90450877 0.30901697
v -0.40450874 0.7938928 0.45399052
v -0.15450867 0.97552854 0.15643437
v -1.0430813E-07 1.0000002 2.2204466E-16
v 0.15450844 0.97552854 -0.15643437
v 0.14877796 0.9393477 -0.30901697
v 0.13938408 0.880037 -0.45399052
v -0.4317709 0.84739774 0.30901697
v -0.52372074 0.72083956 0.45399052
v -0.3052127 0.9393477 0.15643437
v -0.15643463 0.9876886 2.1931093E-16
v -1.0302392E-07 0.9876886 -0.15643437
v -9.920293E-08 0.9510568 -0.30901697
v -9.2939224E-08 0.89100677 -0.45399052
v -0.5590173 0.76942104 0.30901697
v -0.63003707 0.63003683 0.45399052
v -0.4484014 0.88003695 0.15643437
v -0.3090172 0.9510568 2.1117703E-16
v -0.15450867 0.97552854 -0.15643437
v -0.14877817 0.9393477 -0.30901697
v -0.13938427 0.880037 -0.45399052
v -0.6724989 0.6724986 0.30901697
v -0.72083974 0.52372056 0.45399052
v -0.58054894 0.79905677 0.15643437
v -0.45399076 0.8910067 1.9784323E-16
v -0.3052127 0.9393477 -0.15643437
v -0.29389283 0.90450877 -0.30901697
v -0.27533635 0.8473978 -0.45399052
v -0.7694213 0.55901706 0.30901697
v -0.793893 0.4045085 0.45399052
v -0.69840145 0.6984012 0.15643437
v -0.58778554 0.8090171 1.7963789E-16
v -0.4484014 0.88003695 -0.15643437
v -0.4317709 0.84739774 -0.30901697
v -0.40450874 0.7938928 -0.45399052
v -0.8473979 0.43177062 0.30901697
v -0.8473979 0.27533612 0.45399052
v -0.799057 0.5805487 0.15643437
v -0.7071071 0.7071068 1.5700926E-16
v -0.58054894 0.79905677 -0.15643437
v -0.5590173 0.76942104 -0.30901697
v -0.52372074 0.72083956 -0.45399052
v -0.9045089 0.2938926 0.30901697
v -0.88003707 0.13938403 0.45399052
v -0.8800371 0.44840112 0.15643437
v -0.80901736 0.5877853 1.3051456E-16
v -0.69840145 0.6984012 -0.15643437
v -0.6724989 0.6724986 -0.30901697
v -0.63003707 0.63003683 -0.45399052
v -0.9393478 0.14877792 0.30901697
v -0.8910068 -1.4604736E-07 0.45399052
v -0.9393478 0.30521244 0.15643437
v -0.8910069 0.4539905 1.0080614E-16
v -0.799057 0.5805487 -0.15643437
v -0.7694213 0.55901706 -0.30901697
v -0.72083974 0.52372056 -0.45399052
v -0.9510569 -1.5589032E-07 0.30901697
v -0.88003707 -0.13938434 0.45399052
v -0.9393478 -0.14877824 0.30901697
v -0.97552866 0.1545084 0.15643437
v -0.9876887 -1.6189473E-07 0.15643437
v -0.97552866 -0.15450874 0.15643437
v -0.9510569 0.30901694 6.8615545E-17
v -0.8800371 0.44840112 -0.15643437
v -0.8473979 0.43177062 -0.30901697
v -0.793893 0.4045085 -0.45399052
v -1.0000004 -1.6391277E-07 -3.6395947E-23
v -0.9876887 -0.1564347 -3.473548E-17
v -0.9876887 0.15643436 3.4735405E-17
v -0.9393478 0.30521244 -0.15643437
v -0.9045089 0.2938926 -0.30901697
v -0.8473979 0.27533612 -0.45399052
v -0.97552866 0.1545084 -0.15643437
v -0.9876887 -1.6189473E-07 -0.15643437
v -0.97552866 -0.15450874 -0.15643437
v -0.9393478 0.14877792 -0.30901697
v -0.88003707 0.13938403 -0.45399052
v -0.9510569 -1.5589032E-07 -0.30901697
v -0.9393478 -0.14877824 -0.30901697
v -0.8910068 -1.4604736E-07 -0.45399052
v -0.88003707 -0.13938434 -0.45399052
vt 0.95454544 0
vt 1 0.16666666
vt 1 0
vt 0.95454544 0.16666666
vt 0.9090909 0
vt 1 0.3333333
vt 0.9090909 0.16666666
vt 0.8636364 0
vt 0.95454544 0.3333333
vt 1 0.5
vt 0.8636364 0.16666666
vt 0.8181818 0
vt 0.9090909 0.3333333
vt 0.95454544 0.5
vt 1 0.6666667
vt 0.8181818 0.16666666
vt 0.77272725 0
vt 0.8636364 0.3333333
vt 0.9090909 0.5
vt 0.95454544 0.6666667
vt 1 0.8333334
vt 0.77272725 0.16666666
vt 0.72727275 0
vt 0.8181818 0.3333333
vt 0.8636364 0.5
vt 0.9090909 0.6666667
vt 0.95454544 0.8333334
vt 1 1
vt 0.95454544 1
vt 0.9090909 0.8333334
vt 0.9090909 1
vt 0.72727275 0.16666666
vt 0.6818182 0
vt 0.77272725 0.3333333
vt 0.8181818 0.5
vt 0.8636364 0.6666667
vt 0.8636364 0.8333334
vt 0.8636364 1
vt 0.6818182 0.16666666
vt 0.6363636 0
vt 0.72727275 0.3333333
vt 0.77272725 0.5
vt 0.8181818 0.6666667
vt 0.8181818 0.8333334
vt 0.8181818 1
vt 0.6363636 0.16666666
vt 0.5909091 0
vt 0.6818182 0.3333333
vt 0.72727275 0.5
vt 0.77272725 0.6666667
vt 0.77272725 0.8333334
vt 0.77272725 1
vt 0.5909091 0.16666666
vt 0.54545456 0
vt 0.6363636 0.3333333
vt 0.6818182 0.5
vt 0.72727275 0.6666667
vt 0.72727275 0.8333334
vt 0.72727275 1
vt 0.54545456 0.16666666
vt 0.5 0
vt 0.5909091 0.3333333
vt 0.6363636 0.5
vt 0.6818182 0.6666667
vt 0.6818182 0.8333334
vt 0.6818182 1
vt 0.5 0.16666666
vt 0.45454544 0
vt 0.54545456 0.3333333
vt 0.5909091 0.5
vt 0.6363636 0.6666667
vt 0.6363636 0.8333334
vt 0.6363636 1
vt 0.45454544 0.16666666
vt 0.4090909 0
vt 0.5 0.3333333
vt 0.54545456 0.5
vt 0.5909091 0.6666667
vt 0.5909091 0.8333334
vt 0.5909091 1
vt 0.4090909 0.16666666
vt 0.36363637 0
vt 0.45454544 0.3333333
vt 0.5 0.5
vt 0.54545456 0.6666667
vt 0.54545456 0.8333334
vt 0.54545456 1
vt 0.36363637 0.16666666
vt 0.3181818 0
vt 0.4090909 0.3333333
vt 0.45454544 0.5
vt 0.5 0.6666667
vt 0.5 0.8333334
vt 0.5 1
vt 0.3181818 0.16666666
vt 0.27272728 0
vt 0.36363637 0.3333333
vt 0.4090909 0.5
vt 0.45454544 0.6666667
vt 0.45454544 0.8333334
vt 0.45454544 1
vt 0.27272728 0.16666666
vt 0.22727272 0
vt 0.3181818 0.3333333
vt 0.36363637 0.5
vt 0.4090909 0.6666667
vt 0.4090909 0.8333334
vt 0.4090909 1
vt 0.22727272 0.16666666
vt 0.18181819 0
vt 0.27272728 0.3333333
vt 0.3181818 0.5
vt 0.36363637 0.6666667
vt 0.36363637 0.8333334
vt 0.36363637 1
vt 0.18181819 0.16666666
vt 0.13636363 0
vt 0.22727272 0.3333333
vt 0.27272728 0.5
vt 0.3181818 0.6666667
vt 0.3181818 0.8333334
vt 0.3181818 1
vt 0.13636363 0.16666666
vt 0.09090909 0
vt 0.18181819 0.3333333
vt 0.22727272 0.5
vt 0.27272728 0.6666667
vt 0.27272728 0.8333334
vt 0.27272728 1
vt 0.09090909 0.16666666
vt 0.04545456 0
vt 0.13636363 0.3333333
vt 0.18181819 0.5
vt 0.22727272 0.6666667
vt 0.22727272 0.8333334
vt 0.22727272 1
vt 0.04545456 0.16666666
vt -5.9604645E-08 0
vt -5.9604645E-08 0.16666666
vt 0.09090909 0.3333333
vt 0.04545456 0.3333333
vt -5.9604645E-08 0.3333333
vt 0.13636363 0.5
vt 0.18181819 0.6666667
vt 0.18181819 0.8333334
vt 0.18181819 1
vt 0.04545456 0.5
vt -5.9604645E-08 0.5
vt 0.09090909 0.5
vt 0.13636363 0.6666667
vt 0.13636363 0.8333334
vt 0.13636363 1
vt 0.09090909 0.6666667
vt 0.04545456 0.6666667
vt -5.9604645E-08 0.6666667
vt 0.09090909 0.8333334
vt 0.09090909 1
vt 0.04545456 0.8333334
vt -5.9604645E-08 0.8333334
vt 0.04545456 1
vt -5.9604645E-08 1
vn 0.9238795 0 0.3826835
vn 0.9493878 -0.07471423 0.30509108
vn 0.9214473 -0.07251532 0.38167584
vn 0.9520487 0 0.30594632
vn 0.9125051 0.14452651 0.38268355
vn 0.98496443 -0.077513896 0.15439156
vn 0.9403275 0.14893316 0.3059464
vn 0.87866163 0.28549436 0.38268355
vn 0.9879368 0 0.15485752
vn 0.9969177 -0.07845443 0
vn 0.9054522 0.29419923 0.30594638
vn 0.82318276 0.41943228 0.3826834
vn 0.97577363 0.15454721 0.1548575
vn 1 0 0
vn 0.98496443 -0.0775139 -0.15439157
vn 0.84828174 0.432221 0.30594626
vn 0.7474344 0.5430426 0.38268343
vn 0.93958384 0.30528918 0.15485755
vn 0.98768836 0.15643437 0
vn 0.9879368 0 -0.1548575
vn 0.9493878 -0.074714236 -0.3050911
vn 0.77022386 0.5596 0.30594626
vn 0.6532817 0.65328115 0.3826836
vn 0.8802582 0.44851378 0.1548575
vn 0.95105654 0.30901676 0
vn 0.97577363 0.15454721 -0.15485749
vn 0.9520487 0 -0.30594632
vn 0.9214473 -0.07251532 -0.38167584
vn 0.9238795 0 -0.3826835
vn 0.9403275 0.14893311 -0.30594635
vn 0.912505 0.14452653 -0.38268355
vn 0.6732003 0.6731999 0.30594635
vn 0.5430429 0.7474342 0.3826834
vn 0.7992578 0.5806945 0.15485752
vn 0.8910066 0.45399034 0
vn 0.93958384 0.3052892 -0.15485752
vn 0.9054522 0.29419926 -0.3059464
vn 0.87866163 0.28549436 -0.38268363
vn 0.5596003 0.77022356 0.30594632
vn 0.4194324 0.82318276 0.38268337
vn 0.69857705 0.6985766 0.1548575
vn 0.80901706 0.5877852 0
vn 0.8802582 0.44851378 -0.1548575
vn 0.84828174 0.432221 -0.3059463
vn 0.82318276 0.41943228 -0.38268346
vn 0.432221 0.8482816 0.30594638
vn 0.28549448 0.87866163 0.3826836
vn 0.5806948 0.7992576 0.1548576
vn 0.70710695 0.70710653 0
vn 0.7992578 0.5806945 -0.15485747
vn 0.77022386 0.5596 -0.30594626
vn 0.7474343 0.54304254 -0.38268346
vn 0.29419923 0.9054522 0.3059463
vn 0.14452653 0.912505 0.38268366
vn 0.44851387 0.8802582 0.15485756
vn 0.5877853 0.809017 0
vn 0.69857705 0.6985766 -0.15485744
vn 0.6732003 0.6731999 -0.3059463
vn 0.6532817 0.65328115 -0.3826836
vn 0.1489332 0.9403275 0.30594638
vn -0 0.9238795 0.38268352
vn 0.30528927 0.93958384 0.15485743
vn 0.4539904 0.8910066 0
vn 0.5806948 0.7992576 -0.15485753
vn 0.55960023 0.7702236 -0.30594617
vn 0.5430429 0.7474342 -0.3826834
vn -0 0.9520487 0.3059464
vn -0.14452648 0.91250515 0.3826833
vn 0.15454727 0.97577363 0.15485749
vn 0.30901694 0.95105654 0
vn 0.44851387 0.8802582 -0.15485743
vn 0.4322211 0.84828174 -0.3059462
vn 0.4194324 0.82318276 -0.3826834
vn -0.14893316 0.9403275 0.3059462
vn -0.2854946 0.87866163 0.3826834
vn -0 0.9879368 0.15485765
vn 0.15643439 0.98768836 0
vn 0.3052893 0.93958384 -0.15485734
vn 0.2941992 0.9054522 -0.3059462
vn 0.28549445 0.87866163 -0.38268358
vn -0.29419938 0.9054522 0.3059461
vn -0.41943273 0.82318264 0.3826833
vn -0.15454729 0.97577363 0.1548575
vn -0 1 0
vn 0.15454729 0.97577363 -0.15485749
vn 0.1489332 0.9403275 -0.30594635
vn 0.1445265 0.912505 -0.38268355
vn -0.4322213 0.8482816 0.3059461
vn -0.54304284 0.74743426 0.38268334
vn -0.30528942 0.9395837 0.15485743
vn -0.15643437 0.98768836 0
vn -0 0.9879368 -0.15485764
vn -0 0.9520487 -0.3059462
vn -0 0.9238796 -0.38268322
vn -0.5596003 0.7702236 0.30594623
vn -0.65328145 0.6532815 0.38268355
vn -0.4485142 0.880258 0.15485749
vn -0.3090171 0.9510565 0
vn -0.1545473 0.97577363 -0.15485753
vn -0.14893314 0.9403276 -0.3059461
vn -0.1445265 0.91250515 -0.38268316
vn -0.6732001 0.67320013 0.30594644
vn -0.7474342 0.5430426 0.38268366
vn -0.58069485 0.7992575 0.15485764
vn -0.45399073 0.8910064 0
vn -0.3052894 0.9395837 -0.15485749
vn -0.29419938 0.9054522 -0.30594626
vn -0.28549454 0.8786615 -0.38268355
vn -0.7702236 0.5596001 0.30594644
vn -0.8231827 0.41943252 0.38268343
vn -0.69857675 0.6985769 0.15485756
vn -0.5877855 0.8090168 0
vn -0.4485142 0.880258 -0.15485756
vn -0.43222132 0.84828156 -0.30594626
vn -0.41943267 0.8231825 -0.38268343
vn -0.84828174 0.432221 0.30594632
vn -0.87866163 0.28549433 0.38268352
vn -0.79925776 0.5806947 0.15485744
vn -0.70710665 0.7071069 0
vn -0.5806948 0.7992576 -0.15485762
vn -0.55960023 0.7702237 -0.30594623
vn -0.54304284 0.74743426 -0.38268334
vn -0.9054522 0.29419923 0.3059464
vn -0.9125051 0.14452617 0.3826837
vn -0.88025826 0.4485137 0.1548575
vn -0.809017 0.58778536 0
vn -0.6985767 0.698577 -0.15485752
vn -0.6732001 0.6732002 -0.3059464
vn -0.6532814 0.6532815 -0.38268358
vn -0.9403275 0.14893292 0.3059465
vn -0.92387944 0 0.38268372
vn -0.9395837 0.3052893 0.15485753
vn -0.8910066 0.45399025 0
vn -0.79925764 0.5806947 -0.15485738
vn -0.7702236 0.5596001 -0.3059464
vn -0.7474342 0.5430426 -0.38268366
vn -0.9520487 0 0.3059465
vn -0.92144674 -0.07251917 0.3816762
vn -0.94938743 -0.074717976 0.30509135
vn -0.97577363 0.1545472 0.15485756
vn -0.9879368 0 0.15485758
vn -0.9849641 -0.077517785 0.15439159
vn -0.95105654 0.30901697 0
vn -0.8802582 0.44851372 -0.15485752
vn -0.84828174 0.432221 -0.3059463
vn -0.8231827 0.41943252 -0.3826834
vn -1 0 0
vn -0.99691737 -0.07845857 0
vn -0.98768836 0.15643433 0
vn -0.9395837 0.3052893 -0.15485753
vn -0.9054522 0.2941992 -0.30594638
vn -0.8786617 0.2854943 -0.3826835
vn -0.97577363 0.15454721 -0.15485758
vn -0.9879368 0 -0.15485756
vn -0.9849641 -0.07751779 -0.15439159
vn -0.9403275 0.14893293 -0.30594647
vn -0.9125051 0.14452617 -0.38268363
vn -0.9520487 0 -0.3059465
vn -0.94938743 -0.07471797 -0.30509132
vn -0.92387944 0 -0.38268366
vn -0.92144686 -0.07251916 -0.38167614
g curvedSwoosh_0
f 3/3/3 2/2/2 1/1/1
f 2/2/2 4/4/4 1/1/1
f 1/1/1 4/4/4 5/5/5
f 2/2/2 6/6/6 4/4/4
f 4/4/4 7/7/7 5/5/5
f 5/5/5 7/7/7 8/8/8
f 6/6/6 9/9/9 4/4/4
f 4/4/4 9/9/9 7/7/7
f 6/6/6 10/10/10 9/9/9
f 7/7/7 11/11/11 8/8/8
f 8/8/8 11/11/11 12/12/12
f 9/9/9 13/13/13 7/7/7
f 7/7/7 13/13/13 11/11/11
f 10/10/10 14/14/14 9/9/9
f 9/9/9 14/14/14 13/13/13
f 10/10/10 15/15/15 14/14/14
f 11/11/11 16/16/16 12/12/12
f 12/12/12 16/16/16 17/17/17
f 13/13/13 18/18/18 11/11/11
f 11/11/11 18/18/18 16/16/16
f 14/14/14 19/19/19 13/13/13
f 13/13/13 19/19/19 18/18/18
f 15/15/15 20/20/20 14/14/14
f 14/14/14 20/20/20 19/19/19
f 15/15/15 21/21/21 20/20/20
f 16/16/16 22/22/22 17/17/17
f 17/17/17 22/22/22 23/23/23
f 18/18/18 24/24/24 16/16/16
f 16/16/16 24/24/24 22/22/22
f 19/19/19 25/25/25 18/18/18
f 18/18/18 25/25/25 24/24/24
f 20/20/20 26/26/26 19/19/19
f 19/19/19 26/26/26 25/25/25
f 21/21/21 27/27/27 20/20/20
f 20/20/20 27/27/27 26/26/26
f 21/21/21 28/28/28 27/27/27
f 28/28/28 29/29/29 27/27/27
f 27/27/27 29/29/29 30/30/30
f 27/27/27 30/30/30 26/26/26
f 29/29/29 31/31/31 30/30/30
f 22/22/22 32/32/32 23/23/23
f 23/23/23 32/32/32 33/33/33
f 24/24/24 34/34/34 22/22/22
f 22/22/22 34/34/34 32/32/32
f 25/25/25 35/35/35 24/24/24
f 24/24/24 35/35/35 34/34/34
f 26/26/26 36/36/36 25/25/25
f 26/26/26 30/30/30 36/36/36
f 25/25/25 36/36/36 35/35/35
f 30/30/30 31/31/31 37/37/37
f 30/30/30 37/37/37 36/36/36
f 31/31/31 38/38/38 37/37/37
f 32/32/32 39/39/39 33/33/33
f 33/33/33 39/39/39 40/40/40
f 34/34/34 41/41/41 32/32/32
f 32/32/32 41/41/41 39/39/39
f 35/35/35 42/42/42 34/34/34
f 34/34/34 42/42/42 41/41/41
f 36/36/36 43/43/43 35/35/35
f 36/36/36 37/37/37 43/43/43
f 35/35/35 43/43/43 42/42/42
f 37/37/37 38/38/38 44/44/44
f 37/37/37 44/44/44 43/43/43
f 38/38/38 45/45/45 44/44/44
f 39/39/39 46/46/46 40/40/40
f 40/40/40 46/46/46 47/47/47
f 41/41/41 48/48/48 39/39/39
f 39/39/39 48/48/48 46/46/46
f 42/42/42 49/49/49 41/41/41
f 41/41/41 49/49/49 48/48/48
f 43/43/43 50/50/50 42/42/42
f 43/43/43 44/44/44 50/50/50
f 42/42/42 50/50/50 49/49/49
f 44/44/44 45/45/45 51/51/51
f 44/44/44 51/51/51 50/50/50
f 45/45/45 52/52/52 51/51/51
f 46/46/46 53/53/53 47/47/47
f 47/47/47 53/53/53 54/54/54
f 48/48/48 55/55/55 46/46/46
f 46/46/46 55/55/55 53/53/53
f 49/49/49 56/56/56 48/48/48
f 48/48/48 56/56/56 55/55/55
f 50/50/50 57/57/57 49/49/49
f 50/50/50 51/51/51 57/57/57
f 49/49/49 57/57/57 56/56/56
f 51/51/51 52/52/52 58/58/58
f 51/51/51 58/58/58 57/57/57
f 52/52/52 59/59/59 58/58/58
f 53/53/53 60/60/60 54/54/54
f 54/54/54 60/60/60 61/61/61
f 55/55/55 62/62/62 53/53/53
f 53/53/53 62/62/62 60/60/60
f 56/56/56 63/63/63 55/55/55
f 55/55/55 63/63/63 62/62/62
f 57/57/57 64/64/64 56/56/56
f 57/57/57 58/58/58 64/64/64
f 56/56/56 64/64/64 63/63/63
f 58/58/58 59/59/59 65/65/65
f 58/58/58 65/65/65 64/64/64
f 59/59/59 66/66/66 65/65/65
f 60/60/60 67/67/67 61/61/61
f 61/61/61 67/67/67 68/68/68
f 62/62/62 69/69/69 60/60/60
f 60/60/60 69/69/69 67/67/67
f 63/63/63 70/70/70 62/62/62
f 62/62/62 70/70/70 69/69/69
f 64/64/64 71/71/71 63/63/63
f 64/64/64 65/65/65 71/71/71
f 63/63/63 71/71/71 70/70/70
f 65/65/65 66/66/66 72/72/72
f 65/65/65 72/72/72 71/71/71
f 66/66/66 73/73/73 72/72/72
f 67/67/67 74/74/74 68/68/68
f 68/68/68 74/74/74 75/75/75
f 69/69/69 76/76/76 67/67/67
f 67/67/67 76/76/76 74/74/74
f 70/70/70 77/77/77 69/69/69
f 69/69/69 77/77/77 76/76/76
f 71/71/71 78/78/78 70/70/70
f 71/71/71 72/72/72 78/78/78
f 70/70/70 78/78/78 77/77/77
f 72/72/72 73/73/73 79/79/79
f 72/72/72 79/79/79 78/78/78
f 73/73/73 80/80/80 79/79/79
f 74/74/74 81/81/81 75/75/75
f 75/75/75 81/81/81 82/82/82
f 76/76/76 83/83/83 74/74/74
f 74/74/74 83/83/83 81/81/81
f 77/77/77 84/84/84 76/76/76
f 76/76/76 84/84/84 83/83/83
f 78/78/78 85/85/85 77/77/77
f 78/78/78 79/79/79 85/85/85
f 77/77/77 85/85/85 84/84/84
f 79/79/79 80/80/80 86/86/86
f 79/79/79 86/86/86 85/85/85
f 80/80/80 87/87/87 86/86/86
f 81/81/81 88/88/88 82/82/82
f 82/82/82 88/88/88 89/89/89
f 83/83/83 90/90/90 81/81/81
f 81/81/81 90/90/90 88/88/88
f 84/84/84 91/91/91 83/83/83
f 83/83/83 91/91/91 90/90/90
f 85/85/85 92/92/92 84/84/84
f 85/85/85 86/86/86 92/92/92
f 84/84/84 92/92/92 91/91/91
f 86/86/86 87/87/87 93/93/93
f 86/86/86 93/93/93 92/92/92
f 87/87/87 94/94/94 93/93/93
f 88/88/88 95/95/95 89/89/89
f 89/89/89 95/95/95 96/96/96
f 90/90/90 97/97/97 88/88/88
f 88/88/88 97/97/97 95/95/95
f 91/91/91 98/98/98 90/90/90
f 90/90/90 98/98/98 97/97/97
f 92/92/92 99/99/99 91/91/91
f 92/92/92 93/93/93 99/99/99
f 91/91/91 99/99/99 98/98/98
f 93/93/93 94/94/94 100/100/100
f 93/93/93 100/100/100 99/99/99
f 94/94/94 101/101/101 100/100/100
f 95/95/95 102/102/102 96/96/96
f 96/96/96 102/102/102 103/103/103
f 97/97/97 104/104/104 95/95/95
f 95/95/95 104/104/104 102/102/102
f 98/98/98 105/105/105 97/97/97
f 97/97/97 105/105/105 104/104/104
f 99/99/99 106/106/106 98/98/98
f 99/99/99 100/100/100 106/106/106
f 98/98/98 106/106/106 105/105/105
f 100/100/100 101/101/101 107/107/107
f 100/100/100 107/107/107 106/106/106
f 101/101/101 108/108/108 107/107/107
f 102/102/102 109/109/109 103/103/103
f 103/103/103 109/109/109 110/110/110
f 104/104/104 111/111/111 102/102/102
f 102/102/102 111/111/111 109/109/109
f 105/105/105 112/112/112 104/104/104
f 104/104/104 112/112/112 111/111/111
f 106/106/106 113/113/113 105/105/105
f 106/106/106 107/107/107 113/113/113
f 105/105/105 113/113/113 112/112/112
f 107/107/107 108/108/108 114/114/114
f 107/107/107 114/114/114 113/113/113
f 108/108/108 115/115/115 114/114/114
f 109/109/109 116/116/116 110/110/110
f 110/110/110 116/116/116 117/117/117
f 111/111/111 118/118/118 109/109/109
f 109/109/109 118/118/118 116/116/116
f 112/112/112 119/119/119 111/111/111
f 111/111/111 119/119/119 118/118/118
f 113/113/113 120/120/120 112/112/112
f 113/113/113 114/114/114 120/120/120
f 112/112/112 120/120/120 119/119/119
f 114/114/114 115/115/115 121/121/121
f 114/114/114 121/121/121 120/120/120
f 115/115/115 122/122/122 121/121/121
f 116/116/116 123/123/123 117/117/117
f 117/117/117 123/123/123 124/124/124
f 118/118/118 125/125/125 116/116/116
f 116/116/116 125/125/125 123/123/123
f 119/119/119 126/126/126 118/118/118
f 118/118/118 126/126/126 125/125/125
f 120/120/120 127/127/127 119/119/119
f 120/120/120 121/121/121 127/127/127
f 119/119/119 127/127/127 126/126/126
f 121/121/121 122/122/122 128/128/128
f 121/121/121 128/128/128 127/127/127
f 122/122/122 129/129/129 128/128/128
f 123/123/123 130/130/130 124/124/124
f 124/124/124 130/130/130 131/131/131
f 125/125/125 132/132/132 123/123/123
f 123/123/123 132/132/132 130/130/130
f 126/126/126 133/133/133 125/125/125
f 125/125/125 133/133/133 132/132/132
f 127/127/127 134/134/134 126/126/126
f 127/127/127 128/128/128 134/134/134
f 126/126/126 134/134/134 133/133/133
f 128/128/128 129/129/129 135/135/135
f 128/128/128 135/135/135 134/134/134
f 129/129/129 136/136/136 135/135/135
f 130/130/130 137/137/137 131/131/131
f 131/131/131 137/137/137 138/138/138
f 137/137/137 139/139/139 138/138/138
f 132/132/132 140/140/140 130/130/130
f 130/130/130 140/140/140 137/137/137
f 137/137/137 141/141/141 139/139/139
f 140/140/140 141/141/141 137/137/137
f 141/141/141 142/142/142 139/139/139
f 133/133/133 143/143/143 132/132/132
f 132/132/132 143/143/143 140/140/140
f 134/134/134 144/144/144 133/133/133
f 134/134/134 135/135/135 144/144/144
f 133/133/133 144/144/144 143/143/143
f 135/135/135 136/136/136 145/145/145
f 135/135/135 145/145/145 144/144/144
f 136/136/136 146/146/146 145/145/145
f 141/141/141 147/147/147 142/142/142
f 147/147/147 148/148/148 142/142/142
f 140/140/140 149/149/149 141/141/141
f 143/143/143 149/149/149 140/140/140
f 149/149/149 147/147/147 141/141/141
f 144/144/144 150/150/150 143/143/143
f 144/144/144 145/145/145 150/150/150
f 143/143/143 150/150/150 149/149/149
f 145/145/145 146/146/146 151/151/151
f 145/145/145 151/151/151 150/150/150
f 146/146/146 152/152/152 151/151/151
f 150/150/150 153/153/153 149/149/149
f 149/149/149 153/153/153 147/147/147
f 150/150/150 151/151/151 153/153/153
f 147/147/147 154/154/154 148/148/148
f 153/153/153 154/154/154 147/147/147
f 154/154/154 155/155/155 148/148/148
f 151/151/151 152/152/152 156/156/156
f 151/151/151 156/156/156 153/153/153
f 153/153/153 156/156/156 154/154/154
f 152/152/152 157/157/157 156/156/156
f 154/154/154 158/158/158 155/155/155
f 156/156/156 158/158/158 154/154/154
f 156/156/156 157/157/157 158/158/158
f 158/158/158 159/159/159 155/155/155
f 157/157/157 160/160/160 158/158/158
f 158/158/158 160/160/160 159/159/159
f 160/160/160 161/161/161 159/159/159
