g curvedSwoosh
v -0.8800371 -0.1393843 0.4539905
v -0.9393478 -0.1487782 0.309017
v -0.9510569 -1.558903E-07 0.309017
v -0.8910068 -1.460474E-07 0.4539905
v -0.9393478 0.1487779 0.309017
v -0.8800371 0.139384 0.4539905
v -0.9045089 0.2938926 0.309017
v -0.8473979 0.2753361 0.4539905
v -0.8473979 0.4317706 0.309017
v -0.793893 0.4045085 0.4539905
v -0.7694213 0.5590171 0.309017
v -0.7208397 0.5237206 0.4539905
v -0.6724989 0.6724986 0.309017
v -0.6300371 0.6300368 0.4539905
v -0.5590173 0.769421 0.309017
v -0.5237207 0.7208396 0.4539905
v -0.4317709 0.8473977 0.309017
v -0.4045087 0.7938928 0.4539905
v -0.2938928 0.9045088 0.309017
v -0.2753364 0.8473978 0.4539905
v -0.1487782 0.9393477 0.309017
v -0.1393843 0.880037 0.4539905
v -9.920293E-08 0.9510568 0.309017
v -9.293922E-08 0.8910068 0.4539905
v 0.148778 0.9393477 0.309017
v 0.1393841 0.880037 0.4539905
v 0.2938926 0.9045088 0.309017
v 0.2753361 0.8473978 0.4539905
v 0.4317707 0.8473978 0.309017
v 0.4045085 0.7938929 0.4539905
v 0.5590171 0.7694212 0.309017
v 0.5237206 0.7208396 0.4539905
v 0.6724986 0.6724987 0.309017
v 0.6300368 0.6300369 0.4539905
v 0.769421 0.5590171 0.309017
v 0.7208395 0.5237206 0.4539905
v 0.8473976 0.4317707 0.309017
v 0.7938927 0.4045086 0.4539905
v 0.9045085 0.2938927 0.309017
v 0.8473976 0.2753362 0.4539905
v 0.9393475 0.148778 0.309017
v 0.8800368 0.1393841 0.4539905
v 0.9510565 -6.861555E-17 0.309017
v 0.8910065 -1.008061E-16 0.4539905
v 0.9393481 -0.1487779 0.309017
v 0.8800374 -0.139384 0.4539905
v 0.6984012 0.6984013 0.1564344
v 0.7990567 0.5805488 0.1564344
v 0.8800368 0.4484012 0.1564344
v 0.9393475 0.3052125 0.1564344
v 0.9755283 0.1545085 0.1564344
v 0.9876884 -3.473541E-17 0.1564344
v 0.975529 -0.1545084 0.1564344
v 0.8090171 0.5877854 1.305146E-16
v 0.7071068 0.7071069 1.570093E-16
v 0.5805487 0.7990569 0.1564344
v 0.4484012 0.880037 0.1564344
v 0.3052125 0.9393477 0.1564344
v 0.1545084 0.9755285 0.1564344
v -1.030239E-07 0.9876886 0.1564344
v -0.1545087 0.9755285 0.1564344
v -0.3052127 0.9393477 0.1564344
v -0.4484014 0.880037 0.1564344
v -0.5805489 0.7990568 0.1564344
v -0.6984015 0.6984012 0.1564344
v -0.799057 0.5805487 0.1564344
v -0.8800371 0.4484011 0.1564344
v -0.9393478 0.3052124 0.1564344
v -0.9755287 0.1545084 0.1564344
v -0.9876887 -1.618947E-07 0.1564344
v -0.9755287 -0.1545087 0.1564344
v -1 -1.639128E-07 -3.639595E-23
v -0.9876887 -0.1564347 -3.473548E-17
v -0.9876887 0.1564344 3.473541E-17
v -0.9510569 0.3090169 6.861555E-17
v -0.8910069 0.4539905 1.008061E-16
v -0.8090174 0.5877853 1.305146E-16
v -0.7071071 0.7071068 1.570093E-16
v -0.5877855 0.8090171 1.796379E-16
v -0.4539908 0.8910067 1.978432E-16
v -0.3090172 0.9510568 2.11177E-16
v -0.1564346 0.9876886 2.193109E-16
v -1.043081E-07 1 2.220447E-16
v 0.1564344 0.9876886 2.193109E-16
v 0.309017 0.9510568 2.11177E-16
v 0.4539905 0.8910068 1.978432E-16
v 0.5877853 0.8090172 1.796379E-16
v -0.1545087 0.9755285 -0.1564344
v -0.3052127 0.9393477 -0.1564344
v -1.030239E-07 0.9876886 -0.1564344
v 0.1545084 0.9755285 -0.1564344
v 0.3052125 0.9393477 -0.1564344
v 0.4484012 0.880037 -0.1564344
v 0.5805487 0.7990569 -0.1564344
v 0.6984012 0.6984013 -0.1564344
v 0.7990567 0.5805488 -0.1564344
v 0.8800368 0.4484012 -0.1564344
v 0.8910066 0.4539906 1.008062E-16
v 0.9510565 0.309017 6.861556E-17
v 0.9876884 0.1564345 3.473543E-17
v 1 0 0
v 0.987689 -0.1564343 -3.47354E-17
v 0.9393475 0.3052125 -0.1564344
v 0.9755283 0.1545085 -0.1564344
v 0.9876884 3.473541E-17 -0.1564344
v 0.975529 -0.1545084 -0.1564344
v 0.9045085 0.2938927 -0.309017
v 0.9393475 0.148778 -0.309017
v 0.9510565 6.861555E-17 -0.309017
v 0.9393481 -0.1487779 -0.309017
v 0.8800368 0.1393841 -0.4539905
v 0.8473976 0.2753362 -0.4539905
v 0.8473976 0.4317707 -0.309017
v 0.769421 0.5590171 -0.309017
v 0.6724986 0.6724987 -0.309017
v 0.5590171 0.7694212 -0.309017
v 0.4317707 0.8473978 -0.309017
v 0.2938926 0.9045088 -0.309017
v 0.148778 0.9393477 -0.309017
v -9.920293E-08 0.9510568 -0.309017
v -0.1487782 0.9393477 -0.309017
v -0.2938928 0.9045088 -0.309017
v -0.4484014 0.880037 -0.1564344
v -0.5805489 0.7990568 -0.1564344
v -0.6984015 0.6984012 -0.1564344
v -0.799057 0.5805487 -0.1564344
v -0.8800371 0.4484011 -0.1564344
v -0.9393478 0.3052124 -0.1564344
v -0.9755287 0.1545084 -0.1564344
v -0.9876887 -1.618947E-07 -0.1564344
v -0.9755287 -0.1545087 -0.1564344
v -0.9510569 -1.558903E-07 -0.309017
v -0.9393478 -0.1487782 -0.309017
v -0.9393478 0.1487779 -0.309017
v -0.9045089 0.2938926 -0.309017
v -0.8473979 0.4317706 -0.309017
v -0.7694213 0.5590171 -0.309017
v -0.6724989 0.6724986 -0.309017
v -0.5590173 0.769421 -0.309017
v -0.4317709 0.8473977 -0.309017
v -0.8910068 -1.460474E-07 -0.4539905
v -0.8800371 -0.1393843 -0.4539905
v -0.8800371 0.139384 -0.4539905
v -0.8473979 0.2753361 -0.4539905
v -0.793893 0.4045085 -0.4539905
v -0.7208397 0.5237206 -0.4539905
v -0.6300371 0.6300368 -0.4539905
v -0.5237207 0.7208396 -0.4539905
v -0.4045087 0.7938928 -0.4539905
v -0.2753364 0.8473978 -0.4539905
v -0.1393843 0.880037 -0.4539905
v -9.293922E-08 0.8910068 -0.4539905
v 0.1393841 0.880037 -0.4539905
v 0.2753361 0.8473978 -0.4539905
v 0.4045085 0.7938929 -0.4539905
v 0.5237206 0.7208396 -0.4539905
v 0.6300368 0.6300369 -0.4539905
v 0.7208395 0.5237206 -0.4539905
v 0.7938927 0.4045086 -0.4539905
v 0.8910065 1.008061E-16 -0.4539905
v 0.8800374 -0.139384 -0.4539905
vt -5.960464E-08 0
vt -5.960464E-08 0.1666667
vt 0.04545456 0.1666667
vt 0.04545456 0
vt 0.09090909 0.1666667
vt 0.09090909 0
vt 0.1363636 0.1666667
vt 0.1363636 0
vt 0.1818182 0.1666667
vt 0.1818182 0
vt 0.2272727 0.1666667
vt 0.2272727 0
vt 0.2727273 0.1666667
vt 0.2727273 0
vt 0.3181818 0.1666667
vt 0.3181818 0
vt 0.3636364 0.1666667
vt 0.3636364 0
vt 0.4090909 0.1666667
vt 0.4090909 0
vt 0.4545454 0.1666667
vt 0.4545454 0
vt 0.5 0.1666667
vt 0.5 0
vt 0.5454546 0.1666667
vt 0.5454546 0
vt 0.5909091 0.1666667
vt 0.5909091 0
vt 0.6363636 0.1666667
vt 0.6363636 0
vt 0.6818182 0.1666667
vt 0.6818182 0
vt 0.7272727 0.1666667
vt 0.7272727 0
vt 0.7727273 0.1666667
vt 0.7727273 0
vt 0.8181818 0.1666667
vt 0.8181818 0
vt 0.8636364 0.1666667
vt 0.8636364 0
vt 0.9090909 0.1666667
vt 0.9090909 0
vt 0.9545454 0.1666667
vt 0.9545454 0
vt 1 0.1666667
vt 1 0
vt 0.7272727 0.3333333
vt 0.7727273 0.3333333
vt 0.8181818 0.3333333
vt 0.8636364 0.3333333
vt 0.9090909 0.3333333
vt 0.9545454 0.3333333
vt 1 0.3333333
vt 0.7727273 0.5
vt 0.7272727 0.5
vt 0.6818182 0.3333333
vt 0.6363636 0.3333333
vt 0.5909091 0.3333333
vt 0.5454546 0.3333333
vt 0.5 0.3333333
vt 0.4545454 0.3333333
vt 0.4090909 0.3333333
vt 0.3636364 0.3333333
vt 0.3181818 0.3333333
vt 0.2727273 0.3333333
vt 0.2272727 0.3333333
vt 0.1818182 0.3333333
vt 0.1363636 0.3333333
vt 0.09090909 0.3333333
vt 0.04545456 0.3333333
vt -5.960464E-08 0.3333333
vt 0.04545456 0.5
vt -5.960464E-08 0.5
vt 0.09090909 0.5
vt 0.1363636 0.5
vt 0.1818182 0.5
vt 0.2272727 0.5
vt 0.2727273 0.5
vt 0.3181818 0.5
vt 0.3636364 0.5
vt 0.4090909 0.5
vt 0.4545454 0.5
vt 0.5 0.5
vt 0.5454546 0.5
vt 0.5909091 0.5
vt 0.6363636 0.5
vt 0.6818182 0.5
vt 0.4545454 0.6666667
vt 0.4090909 0.6666667
vt 0.5 0.6666667
vt 0.5454546 0.6666667
vt 0.5909091 0.6666667
vt 0.6363636 0.6666667
vt 0.6818182 0.6666667
vt 0.7272727 0.6666667
vt 0.7727273 0.6666667
vt 0.8181818 0.6666667
vt 0.8181818 0.5
vt 0.8636364 0.5
vt 0.9090909 0.5
vt 0.9545454 0.5
vt 1 0.5
vt 0.8636364 0.6666667
vt 0.9090909 0.6666667
vt 0.9545454 0.6666667
vt 1 0.6666667
vt 0.8636364 0.8333334
vt 0.9090909 0.8333334
vt 0.9545454 0.8333334
vt 1 0.8333334
vt 0.9090909 1
vt 0.8636364 1
vt 0.8181818 0.8333334
vt 0.7727273 0.8333334
vt 0.7272727 0.8333334
vt 0.6818182 0.8333334
vt 0.6363636 0.8333334
vt 0.5909091 0.8333334
vt 0.5454546 0.8333334
vt 0.5 0.8333334
vt 0.4545454 0.8333334
vt 0.4090909 0.8333334
vt 0.3636364 0.6666667
vt 0.3181818 0.6666667
vt 0.2727273 0.6666667
vt 0.2272727 0.6666667
vt 0.1818182 0.6666667
vt 0.1363636 0.6666667
vt 0.09090909 0.6666667
vt 0.04545456 0.6666667
vt -5.960464E-08 0.6666667
vt 0.04545456 0.8333334
vt -5.960464E-08 0.8333334
vt 0.09090909 0.8333334
vt 0.1363636 0.8333334
vt 0.1818182 0.8333334
vt 0.2272727 0.8333334
vt 0.2727273 0.8333334
vt 0.3181818 0.8333334
vt 0.3636364 0.8333334
vt 0.04545456 1
vt -5.960464E-08 1
vt 0.09090909 1
vt 0.1363636 1
vt 0.1818182 1
vt 0.2272727 1
vt 0.2727273 1
vt 0.3181818 1
vt 0.3636364 1
vt 0.4090909 1
vt 0.4545454 1
vt 0.5 1
vt 0.5454546 1
vt 0.5909091 1
vt 0.6363636 1
vt 0.6818182 1
vt 0.7272727 1
vt 0.7727273 1
vt 0.8181818 1
vt 0.9545454 1
vt 1 1
vn -0.9214468 -0.07251918 0.3816762
vn -0.9493874 -0.07471798 0.3050914
vn -0.9520487 0 0.3059465
vn -0.9238794 0 0.3826837
vn -0.9403275 0.1489329 0.3059465
vn -0.912505 0.1445262 0.3826837
vn -0.9054522 0.2941992 0.3059464
vn -0.8786616 0.2854943 0.3826835
vn -0.8482817 0.432221 0.3059463
vn -0.8231827 0.4194325 0.3826834
vn -0.7702236 0.5596001 0.3059464
vn -0.7474343 0.5430427 0.3826837
vn -0.6732001 0.6732001 0.3059464
vn -0.6532815 0.6532815 0.3826835
vn -0.5596003 0.7702236 0.3059462
vn -0.5430428 0.7474343 0.3826833
vn -0.4322213 0.8482816 0.3059461
vn -0.4194327 0.8231826 0.3826833
vn -0.2941994 0.9054522 0.3059461
vn -0.2854946 0.8786616 0.3826834
vn -0.1489332 0.9403275 0.3059462
vn -0.1445265 0.9125051 0.3826833
vn 0 0.9520487 0.3059464
vn 0 0.9238795 0.3826835
vn 0.1489332 0.9403275 0.3059464
vn 0.1445265 0.912505 0.3826837
vn 0.2941992 0.9054522 0.3059463
vn 0.2854945 0.8786616 0.3826836
vn 0.432221 0.8482817 0.3059464
vn 0.4194324 0.8231828 0.3826834
vn 0.5596003 0.7702236 0.3059463
vn 0.5430429 0.7474342 0.3826834
vn 0.6732003 0.6731999 0.3059464
vn 0.6532817 0.6532812 0.3826836
vn 0.7702239 0.5596 0.3059463
vn 0.7474344 0.5430426 0.3826834
vn 0.8482817 0.432221 0.3059463
vn 0.8231828 0.4194323 0.3826834
vn 0.9054522 0.2941992 0.3059464
vn 0.8786616 0.2854944 0.3826835
vn 0.9403275 0.1489331 0.3059464
vn 0.912505 0.1445265 0.3826835
vn 0.9520488 0 0.3059463
vn 0.9238795 0 0.3826835
vn 0.9493878 -0.07471423 0.3050911
vn 0.9214473 -0.07251532 0.3816758
vn 0.698577 0.6985766 0.1548575
vn 0.7992578 0.5806945 0.1548575
vn 0.8802583 0.4485138 0.1548575
vn 0.9395838 0.3052892 0.1548575
vn 0.9757737 0.1545472 0.1548575
vn 0.9879368 0 0.1548575
vn 0.9849644 -0.07751389 0.1543915
vn 0.8090171 0.5877852 0
vn 0.707107 0.7071066 0
vn 0.5806948 0.7992576 0.1548576
vn 0.4485138 0.8802581 0.1548575
vn 0.3052892 0.9395838 0.1548574
vn 0.1545473 0.9757737 0.1548575
vn 0 0.9879368 0.1548577
vn -0.1545473 0.9757737 0.1548575
vn -0.3052894 0.9395837 0.1548574
vn -0.4485142 0.880258 0.1548575
vn -0.5806949 0.7992575 0.1548576
vn -0.6985767 0.6985769 0.1548576
vn -0.7992578 0.5806947 0.1548574
vn -0.8802583 0.4485137 0.1548575
vn -0.9395837 0.3052893 0.1548575
vn -0.9757737 0.1545472 0.1548576
vn -0.9879368 0 0.1548576
vn -0.9849641 -0.07751779 0.1543916
vn -1 0 0
vn -0.9969174 -0.07845857 0
vn -0.9876884 0.1564343 0
vn -0.9510565 0.309017 0
vn -0.8910066 0.4539903 0
vn -0.8090169 0.5877853 0
vn -0.7071066 0.7071069 0
vn -0.5877855 0.8090168 0
vn -0.4539907 0.8910064 0
vn -0.3090171 0.9510565 0
vn -0.1564344 0.9876884 0
vn 0 1 0
vn 0.1564344 0.9876884 0
vn 0.3090169 0.9510565 0
vn 0.4539904 0.8910066 0
vn 0.5877852 0.8090169 0
vn -0.1545473 0.9757737 -0.1548575
vn -0.3052894 0.9395837 -0.1548575
vn 0 0.9879368 -0.1548576
vn 0.1545473 0.9757737 -0.1548575
vn 0.3052893 0.9395838 -0.1548573
vn 0.4485139 0.8802582 -0.1548574
vn 0.5806948 0.7992576 -0.1548575
vn 0.698577 0.6985766 -0.1548574
vn 0.7992578 0.5806945 -0.1548575
vn 0.8802583 0.4485138 -0.1548575
vn 0.8910066 0.4539904 0
vn 0.9510565 0.3090168 0
vn 0.9876884 0.1564344 0
vn 1 0 0
vn 0.9969177 -0.07845443 0
vn 0.9395838 0.3052892 -0.1548575
vn 0.9757737 0.1545472 -0.1548575
vn 0.9879368 0 -0.1548575
vn 0.9849644 -0.0775139 -0.1543916
vn 0.9054522 0.2941993 -0.3059464
vn 0.9403275 0.1489331 -0.3059464
vn 0.9520488 0 -0.3059463
vn 0.9493878 -0.07471424 -0.3050911
vn 0.912505 0.1445265 -0.3826835
vn 0.8786616 0.2854944 -0.3826836
vn 0.8482817 0.432221 -0.3059463
vn 0.7702239 0.5596 -0.3059463
vn 0.6732003 0.6731999 -0.3059463
vn 0.5596002 0.7702236 -0.3059462
vn 0.4322211 0.8482817 -0.3059462
vn 0.2941992 0.9054522 -0.3059462
vn 0.1489332 0.9403275 -0.3059463
vn 0 0.9520488 -0.3059462
vn -0.1489331 0.9403276 -0.3059461
vn -0.2941994 0.9054522 -0.3059463
vn -0.4485142 0.880258 -0.1548575
vn -0.5806948 0.7992576 -0.1548576
vn -0.6985767 0.698577 -0.1548575
vn -0.7992577 0.5806947 -0.1548574
vn -0.8802583 0.4485137 -0.1548575
vn -0.9395837 0.3052893 -0.1548575
vn -0.9757737 0.1545472 -0.1548576
vn -0.9879368 0 -0.1548576
vn -0.9849641 -0.07751779 -0.1543916
vn -0.9520487 0 -0.3059465
vn -0.9493874 -0.07471797 -0.3050913
vn -0.9403275 0.1489329 -0.3059465
vn -0.9054522 0.2941992 -0.3059464
vn -0.8482817 0.432221 -0.3059463
vn -0.7702237 0.5596002 -0.3059464
vn -0.6732001 0.6732002 -0.3059464
vn -0.5596002 0.7702237 -0.3059462
vn -0.4322213 0.8482816 -0.3059463
vn -0.9238794 0 -0.3826837
vn -0.9214468 -0.07251915 -0.3816761
vn -0.912505 0.1445262 -0.3826836
vn -0.8786617 0.2854943 -0.3826835
vn -0.8231827 0.4194325 -0.3826834
vn -0.7474343 0.5430427 -0.3826837
vn -0.6532814 0.6532815 -0.3826836
vn -0.5430428 0.7474343 -0.3826833
vn -0.4194327 0.8231826 -0.3826835
vn -0.2854946 0.8786616 -0.3826836
vn -0.1445265 0.9125051 -0.3826832
vn 0 0.9238796 -0.3826832
vn 0.1445265 0.912505 -0.3826835
vn 0.2854944 0.8786616 -0.3826836
vn 0.4194324 0.8231828 -0.3826834
vn 0.5430429 0.7474342 -0.3826834
vn 0.6532817 0.6532812 -0.3826836
vn 0.7474344 0.5430426 -0.3826835
vn 0.8231828 0.4194323 -0.3826835
vn 0.9238795 0 -0.3826835
vn 0.9214473 -0.07251532 -0.3816758
g curvedSwoosh_0
f 3/3/3 2/2/2 1/1/1
f 4/4/4 3/3/3 1/1/1
f 5/5/5 3/3/3 4/4/4
f 6/6/6 5/5/5 4/4/4
f 7/7/7 5/5/5 6/6/6
f 8/8/8 7/7/7 6/6/6
f 9/9/9 7/7/7 8/8/8
f 10/10/10 9/9/9 8/8/8
f 11/11/11 9/9/9 10/10/10
f 12/12/12 11/11/11 10/10/10
f 13/13/13 11/11/11 12/12/12
f 14/14/14 13/13/13 12/12/12
f 15/15/15 13/13/13 14/14/14
f 16/16/16 15/15/15 14/14/14
f 17/17/17 15/15/15 16/16/16
f 18/18/18 17/17/17 16/16/16
f 19/19/19 17/17/17 18/18/18
f 20/20/20 19/19/19 18/18/18
f 21/21/21 19/19/19 20/20/20
f 22/22/22 21/21/21 20/20/20
f 23/23/23 21/21/21 22/22/22
f 24/24/24 23/23/23 22/22/22
f 25/25/25 23/23/23 24/24/24
f 26/26/26 25/25/25 24/24/24
f 27/27/27 25/25/25 26/26/26
f 28/28/28 27/27/27 26/26/26
f 29/29/29 27/27/27 28/28/28
f 30/30/30 29/29/29 28/28/28
f 31/31/31 29/29/29 30/30/30
f 32/32/32 31/31/31 30/30/30
f 33/33/33 31/31/31 32/32/32
f 34/34/34 33/33/33 32/32/32
f 35/35/35 33/33/33 34/34/34
f 36/36/36 35/35/35 34/34/34
f 37/37/37 35/35/35 36/36/36
f 38/38/38 37/37/37 36/36/36
f 39/39/39 37/37/37 38/38/38
f 40/40/40 39/39/39 38/38/38
f 41/41/41 39/39/39 40/40/40
f 42/42/42 41/41/41 40/40/40
f 43/43/43 41/41/41 42/42/42
f 44/44/44 43/43/43 42/42/42
f 45/45/45 43/43/43 44/44/44
f 46/46/46 45/45/45 44/44/44
f 33/33/33 47/47/47 31/31/31
f 48/48/48 47/47/47 33/33/33
f 35/35/35 48/48/48 33/33/33
f 49/49/49 48/48/48 35/35/35
f 37/37/37 49/49/49 35/35/35
f 50/50/50 49/49/49 37/37/37
f 39/39/39 50/50/50 37/37/37
f 51/51/51 50/50/50 39/39/39
f 41/41/41 51/51/51 39/39/39
f 52/52/52 51/51/51 41/41/41
f 43/43/43 52/52/52 41/41/41
f 53/53/53 52/52/52 43/43/43
f 45/45/45 53/53/53 43/43/43
f 48/48/48 54/54/54 47/47/47
f 54/54/54 55/55/55 47/47/47
f 47/47/47 55/55/55 56/56/56
f 47/47/47 56/56/56 31/31/31
f 31/31/31 56/56/56 29/29/29
f 56/56/56 57/57/57 29/29/29
f 29/29/29 57/57/57 27/27/27
f 57/57/57 58/58/58 27/27/27
f 27/27/27 58/58/58 25/25/25
f 58/58/58 59/59/59 25/25/25
f 25/25/25 59/59/59 23/23/23
f 59/59/59 60/60/60 23/23/23
f 23/23/23 60/60/60 21/21/21
f 60/60/60 61/61/61 21/21/21
f 21/21/21 61/61/61 19/19/19
f 61/61/61 62/62/62 19/19/19
f 19/19/19 62/62/62 17/17/17
f 62/62/62 63/63/63 17/17/17
f 17/17/17 63/63/63 15/15/15
f 63/63/63 64/64/64 15/15/15
f 15/15/15 64/64/64 13/13/13
f 64/64/64 65/65/65 13/13/13
f 13/13/13 65/65/65 11/11/11
f 65/65/65 66/66/66 11/11/11
f 11/11/11 66/66/66 9/9/9
f 66/66/66 67/67/67 9/9/9
f 9/9/9 67/67/67 7/7/7
f 67/67/67 68/68/68 7/7/7
f 7/7/7 68/68/68 5/5/5
f 68/68/68 69/69/69 5/5/5
f 5/5/5 69/69/69 3/3/3
f 69/69/69 70/70/70 3/3/3
f 3/3/3 70/70/70 2/2/2
f 70/70/70 71/71/71 2/2/2
f 70/70/70 72/72/72 71/71/71
f 72/72/72 73/73/73 71/71/71
f 74/74/74 72/72/72 70/70/70
f 69/69/69 74/74/74 70/70/70
f 75/75/75 74/74/74 69/69/69
f 68/68/68 75/75/75 69/69/69
f 76/76/76 75/75/75 68/68/68
f 67/67/67 76/76/76 68/68/68
f 77/77/77 76/76/76 67/67/67
f 66/66/66 77/77/77 67/67/67
f 78/78/78 77/77/77 66/66/66
f 65/65/65 78/78/78 66/66/66
f 79/79/79 78/78/78 65/65/65
f 64/64/64 79/79/79 65/65/65
f 80/80/80 79/79/79 64/64/64
f 63/63/63 80/80/80 64/64/64
f 81/81/81 80/80/80 63/63/63
f 62/62/62 81/81/81 63/63/63
f 82/82/82 81/81/81 62/62/62
f 61/61/61 82/82/82 62/62/62
f 83/83/83 82/82/82 61/61/61
f 60/60/60 83/83/83 61/61/61
f 84/84/84 83/83/83 60/60/60
f 59/59/59 84/84/84 60/60/60
f 85/85/85 84/84/84 59/59/59
f 58/58/58 85/85/85 59/59/59
f 86/86/86 85/85/85 58/58/58
f 57/57/57 86/86/86 58/58/58
f 87/87/87 86/86/86 57/57/57
f 56/56/56 87/87/87 57/57/57
f 55/55/55 87/87/87 56/56/56
f 82/82/82 88/88/88 81/81/81
f 88/88/88 89/89/89 81/81/81
f 90/90/90 88/88/88 82/82/82
f 83/83/83 90/90/90 82/82/82
f 91/91/91 90/90/90 83/83/83
f 84/84/84 91/91/91 83/83/83
f 92/92/92 91/91/91 84/84/84
f 85/85/85 92/92/92 84/84/84
f 93/93/93 92/92/92 85/85/85
f 86/86/86 93/93/93 85/85/85
f 94/94/94 93/93/93 86/86/86
f 87/87/87 94/94/94 86/86/86
f 95/95/95 94/94/94 87/87/87
f 55/55/55 95/95/95 87/87/87
f 96/96/96 95/95/95 55/55/55
f 54/54/54 96/96/96 55/55/55
f 97/97/97 96/96/96 54/54/54
f 98/98/98 97/97/97 54/54/54
f 98/98/98 54/54/54 48/48/48
f 49/49/49 98/98/98 48/48/48
f 99/99/99 98/98/98 49/49/49
f 50/50/50 99/99/99 49/49/49
f 100/100/100 99/99/99 50/50/50
f 51/51/51 100/100/100 50/50/50
f 101/101/101 100/100/100 51/51/51
f 52/52/52 101/101/101 51/51/51
f 102/102/102 101/101/101 52/52/52
f 53/53/53 102/102/102 52/52/52
f 103/103/103 97/97/97 98/98/98
f 99/99/99 103/103/103 98/98/98
f 104/104/104 103/103/103 99/99/99
f 100/100/100 104/104/104 99/99/99
f 105/105/105 104/104/104 100/100/100
f 101/101/101 105/105/105 100/100/100
f 106/106/106 105/105/105 101/101/101
f 102/102/102 106/106/106 101/101/101
f 103/103/103 107/107/107 97/97/97
f 108/108/108 107/107/107 103/103/103
f 104/104/104 108/108/108 103/103/103
f 109/109/109 108/108/108 104/104/104
f 105/105/105 109/109/109 104/104/104
f 110/110/110 109/109/109 105/105/105
f 106/106/106 110/110/110 105/105/105
f 108/108/108 111/111/111 107/107/107
f 111/111/111 112/112/112 107/107/107
f 107/107/107 112/112/112 113/113/113
f 107/107/107 113/113/113 97/97/97
f 97/97/97 113/113/113 96/96/96
f 113/113/113 114/114/114 96/96/96
f 96/96/96 114/114/114 95/95/95
f 114/114/114 115/115/115 95/95/95
f 95/95/95 115/115/115 94/94/94
f 115/115/115 116/116/116 94/94/94
f 94/94/94 116/116/116 93/93/93
f 116/116/116 117/117/117 93/93/93
f 93/93/93 117/117/117 92/92/92
f 117/117/117 118/118/118 92/92/92
f 92/92/92 118/118/118 91/91/91
f 118/118/118 119/119/119 91/91/91
f 91/91/91 119/119/119 90/90/90
f 119/119/119 120/120/120 90/90/90
f 90/90/90 120/120/120 88/88/88
f 120/120/120 121/121/121 88/88/88
f 88/88/88 121/121/121 89/89/89
f 121/121/121 122/122/122 89/89/89
f 89/89/89 122/122/122 123/123/123
f 89/89/89 123/123/123 80/80/80
f 80/80/80 123/123/123 79/79/79
f 123/123/123 124/124/124 79/79/79
f 79/79/79 124/124/124 78/78/78
f 124/124/124 125/125/125 78/78/78
f 78/78/78 125/125/125 77/77/77
f 125/125/125 126/126/126 77/77/77
f 77/77/77 126/126/126 76/76/76
f 126/126/126 127/127/127 76/76/76
f 76/76/76 127/127/127 75/75/75
f 127/127/127 128/128/128 75/75/75
f 75/75/75 128/128/128 74/74/74
f 128/128/128 129/129/129 74/74/74
f 74/74/74 129/129/129 72/72/72
f 129/129/129 130/130/130 72/72/72
f 72/72/72 130/130/130 73/73/73
f 130/130/130 131/131/131 73/73/73
f 130/130/130 132/132/132 131/131/131
f 132/132/132 133/133/133 131/131/131
f 134/134/134 132/132/132 130/130/130
f 129/129/129 134/134/134 130/130/130
f 135/135/135 134/134/134 129/129/129
f 128/128/128 135/135/135 129/129/129
f 136/136/136 135/135/135 128/128/128
f 127/127/127 136/136/136 128/128/128
f 137/137/137 136/136/136 127/127/127
f 126/126/126 137/137/137 127/127/127
f 138/138/138 137/137/137 126/126/126
f 125/125/125 138/138/138 126/126/126
f 139/139/139 138/138/138 125/125/125
f 124/124/124 139/139/139 125/125/125
f 140/140/140 139/139/139 124/124/124
f 123/123/123 140/140/140 124/124/124
f 122/122/122 140/140/140 123/123/123
f 132/132/132 141/141/141 133/133/133
f 141/141/141 142/142/142 133/133/133
f 143/143/143 141/141/141 132/132/132
f 134/134/134 143/143/143 132/132/132
f 144/144/144 143/143/143 134/134/134
f 135/135/135 144/144/144 134/134/134
f 145/145/145 144/144/144 135/135/135
f 136/136/136 145/145/145 135/135/135
f 146/146/146 145/145/145 136/136/136
f 137/137/137 146/146/146 136/136/136
f 147/147/147 146/146/146 137/137/137
f 138/138/138 147/147/147 137/137/137
f 148/148/148 147/147/147 138/138/138
f 139/139/139 148/148/148 138/138/138
f 149/149/149 148/148/148 139/139/139
f 140/140/140 149/149/149 139/139/139
f 150/150/150 149/149/149 140/140/140
f 122/122/122 150/150/150 140/140/140
f 151/151/151 150/150/150 122/122/122
f 121/121/121 151/151/151 122/122/122
f 152/152/152 151/151/151 121/121/121
f 120/120/120 152/152/152 121/121/121
f 153/153/153 152/152/152 120/120/120
f 119/119/119 153/153/153 120/120/120
f 154/154/154 153/153/153 119/119/119
f 118/118/118 154/154/154 119/119/119
f 155/155/155 154/154/154 118/118/118
f 117/117/117 155/155/155 118/118/118
f 156/156/156 155/155/155 117/117/117
f 116/116/116 156/156/156 117/117/117
f 157/157/157 156/156/156 116/116/116
f 115/115/115 157/157/157 116/116/116
f 158/158/158 157/157/157 115/115/115
f 114/114/114 158/158/158 115/115/115
f 159/159/159 158/158/158 114/114/114
f 113/113/113 159/159/159 114/114/114
f 112/112/112 159/159/159 113/113/113
f 81/81/81 89/89/89 80/80/80
f 160/160/160 111/111/111 108/108/108
f 109/109/109 160/160/160 108/108/108
f 161/161/161 160/160/160 109/109/109
f 110/110/110 161/161/161 109/109/109
