g Dent
v 0.6002337 1.957787 -0.2818484
v 0.2125722 1.374535 0.1334933
v 0.1731384 1.988211 -0.2846739
v 0.6585182 1.339947 -0.08953398
v -0.1499408 1.988144 -0.2980005
v 0.6547449 0.680065 0.005259424
v -0.2234251 1.374445 0.1155091
v -0.5831621 1.957541 -0.3306618
v -0.6494738 1.339676 -0.1434864
v 0.2119623 0.7102309 0.2508907
v 0.5999868 0.05865408 -0.05839711
v 0.1902364 0.01229453 0.01234894
v -0.2320627 0.7101387 0.2325754
v -0.6676473 0.6625147 -0.06593488
v -0.170938 0.01841279 -0.01314595
v -0.6194 0.0372964 -0.04586037
vt 0 1
vt 0.3333333 0.6666667
vt 0.3333333 1
vt 0 0.6666666
vt 0.6666666 1
vt 0 0.3333333
vt 0.6666666 0.6666667
vt 1 1
vt 1 0.6666667
vt 0.3333333 0.3333333
vt 0 0
vt 0.3333333 0
vt 0.6666666 0.3333333
vt 1 0.3333333
vt 0.6666667 0
vt 1 0
vn 0.1908368 0.482081 0.8550903
vn 0.1815278 0.3299985 0.9263631
vn -0.001872964 0.5630255 0.8264374
vn 0.4590808 0.2216029 0.8603122
vn -0.06589153 0.562988 0.8238342
vn 0.4763053 0.002905731 0.8792752
vn -0.2590675 0.3278689 0.9085075
vn -0.2606833 0.4800807 0.8375958
vn -0.5325687 0.2146592 0.8187137
vn 0.1928027 -0.05357942 0.9797736
vn 0.3045332 -0.2543562 0.917912
vn 0.06718988 -0.3289971 0.9419376
vn -0.2690876 -0.03976635 0.9622944
vn -0.5573469 0.05576029 0.8284053
vn -0.06740665 -0.3347692 0.9398862
vn -0.2820045 -0.2237356 0.9329608
g Dent_0
f 3/3/3 2/2/2 1/1/1
f 1/1/1 2/2/2 4/4/4
f 3/3/3 5/5/5 2/2/2
f 4/4/4 2/2/2 6/6/6
f 5/5/5 7/7/7 2/2/2
f 7/7/7 5/5/5 8/8/8
f 9/9/9 7/7/7 8/8/8
f 2/2/2 10/10/10 6/6/6
f 2/2/2 7/7/7 10/10/10
f 10/10/10 11/11/11 6/6/6
f 10/10/10 12/12/12 11/11/11
f 7/7/7 9/9/9 13/13/13
f 7/7/7 13/13/13 10/10/10
f 10/10/10 13/13/13 12/12/12
f 9/9/9 14/14/14 13/13/13
f 13/13/13 15/15/15 12/12/12
f 13/13/13 14/14/14 16/16/16
f 16/16/16 15/15/15 13/13/13
