g f_belt_default
v 4.12063 54.993572 5.8872275
v 4.071662 55.009983 5.507733
v 0.17114018 55.3712 5.811991
v 0.19156778 55.356117 6.2344437
v 3.7197971 58.261936 5.5580115
v -2.5167227 55.78894 5.7199707
v 0.62747604 58.724884 6.4385304
v 3.6828763 58.275234 5.2451406
v 0.6194895 58.7388 6.018581
v -2.5988438 55.791115 6.171452
v -4.9655633 56.128563 5.4323163
v -2.0495048 59.11953 6.1877637
v -1.9808685 59.11763 5.757288
v -5.1130805 56.167473 5.8243527
v -7.0875144 56.421307 4.5730658
v -4.5590725 59.47625 5.5482435
v -4.4233346 59.438946 5.1613026
v -7.321717 56.49662 4.899747
v -8.401961 56.55529 3.4635158
v -6.4828744 59.732887 4.551696
v -6.2508597 59.660217 4.2350574
v -8.725589 56.65976 3.6721246
v -9.105119 56.650013 1.8297077
v -7.71341 59.90762 3.2174075
v -7.3906302 59.80643 3.0096395
v -9.495811 56.759964 1.8910758
v -9.108916 56.653393 -1.1981618
v -8.371981 59.9005 1.5249289
v -7.9449 59.79575 1.4197097
v -9.455179 56.772076 -1.2786386
v -7.8426986 56.484676 -4.218054
v -8.380774 59.93023 -0.8046972
v -7.98128 59.81484 -0.72809607
v -8.1146 56.608253 -4.46856
v -5.9885564 56.26141 -6.0023828
v -6.934211 59.75523 -3.7920213
v -6.65721 59.634293 -3.5740411
v -6.1795154 56.383602 -6.3233776
v -3.2027786 55.831493 -6.96552
v -5.039606 59.49729 -5.29869
v -4.873233 59.376717 -4.996385
v -3.2330742 55.947033 -7.3551683
v -0.12300999 55.455597 -7.135788
v -2.4944594 59.144463 -5.8302355
v -2.4311867 59.029247 -5.4912744
v -0.09901389 55.555824 -7.53807
v 2.8523593 55.06873 -7.0435123
v 0.5446235 58.801895 -6.082171
v 0.5457903 58.700535 -5.735224
v 2.9183128 55.14778 -7.420771
v 4.437496 54.908886 -6.853066
v 3.5074553 58.428818 -6.113223
v 3.460651 58.347267 -5.766088
v 4.5628004 54.97537 -7.2298436
v 6.2571816 54.748795 -6.1832495
v 4.930573 58.24283 -5.967895
v 4.8381963 58.171837 -5.6355467
v 6.496781 54.808075 -6.504051
v 7.970074 54.53703 -4.5616384
v 6.3717766 58.06144 -5.180548
v 6.204241 57.995655 -4.8943667
v 8.29274 54.60182 -4.833296
v 9.330069 54.429688 -2.8572817
v 7.9375405 57.78911 -3.4028935
v 7.6688857 57.727688 -3.1756294
v 9.717266 54.48429 -3.029068
v 9.915635 54.40041 -0.84133536
v 8.691121 57.73041 -2.204023
v 8.382369 57.670403 -2.0457234
v 10.341536 54.447666 -0.88994545
v 9.648274 54.48084 2.1606243
v 9.210808 57.651833 -0.7486574
v 8.8265085 57.598934 -0.69486034
v 10.048528 54.516853 2.2604675
v 8.078357 54.574963 4.279274
v 9.111026 57.663486 1.8104838
v 8.753372 57.62219 1.7021368
v 8.353033 54.61917 4.6142006
v 7.9729548 57.78369 4.084897
v 7.7136517 57.757305 3.7517426
v 5.9553113 57.921448 4.4731455
v 6.1386337 57.9682 4.85362
v 6.0272665 54.637512 5.3819327
v 5.8476562 54.631428 4.991113
v 4.909082 54.38049 5.4669914
v 6.1556687 54.744156 5.746362
v 5.943226 54.631042 5.0894265
v 5.1215234 54.493603 6.1239276
v 3.8653328 54.706345 5.748414
v 4.077774 54.819458 6.4053516
v 3.0916562 55.521286 5.858289
v 3.3040962 55.634403 6.515226
v 2.7953517 56.606968 5.7671747
v 3.0077937 56.72008 6.4241114
v 3.055821 57.672466 5.499487
v 3.2682614 57.78558 6.1564226
v 3.8032649 58.43229 5.126949
v 4.015706 58.545403 5.7838845
v 4.8374104 58.682842 4.7493834
v 5.049852 58.795956 5.406321
v 5.881158 58.356987 4.467961
v 6.093599 58.4701 5.124897
v 6.6548367 57.54204 4.3580832
v 6.867277 57.655155 5.015022
v 6.951139 56.456367 4.4491997
v 7.163581 56.56948 5.106136
v 6.690669 55.390865 4.7168894
v 6.9031134 55.50398 5.373826
v 5.943226 54.631042 5.0894265
v 6.1556687 54.744156 5.746362
v 3.3040962 55.634403 6.515226
v 3.0077937 56.72008 6.4241114
v 3.2682614 57.78558 6.1564226
v 4.077774 54.819458 6.4053516
v 4.015706 58.545403 5.7838845
v 5.1215234 54.493603 6.1239276
v 5.049852 58.795956 5.406321
v 6.1556687 54.744156 5.746362
v 6.093599 58.4701 5.124897
v 6.9031134 55.50398 5.373826
v 6.867277 57.655155 5.015022
v 7.163581 56.56948 5.106136
v 3.6828763 58.275234 5.2451406
v 0.17114018 55.3712 5.811991
v 4.071662 55.009983 5.507733
v 0.6194895 58.7388 6.018581
v -2.5167227 55.78894 5.7199707
v -1.9808685 59.11763 5.757288
v -4.9655633 56.128563 5.4323163
v -4.4233346 59.438946 5.1613026
v -7.0875144 56.421307 4.5730658
v -6.2508597 59.660217 4.2350574
v -8.401961 56.55529 3.4635158
v -7.3906302 59.80643 3.0096395
v -9.105119 56.650013 1.8297077
v -7.9449 59.79575 1.4197097
v -9.108916 56.653393 -1.1981618
v -7.98128 59.81484 -0.72809607
v -7.8426986 56.484676 -4.218054
v -6.65721 59.634293 -3.5740411
v -5.9885564 56.26141 -6.0023828
v -4.873233 59.376717 -4.996385
v -3.2027786 55.831493 -6.96552
v -2.4311867 59.029247 -5.4912744
v -0.12300999 55.455597 -7.135788
v 0.5457903 58.700535 -5.735224
v 2.8523593 55.06873 -7.0435123
v 3.460651 58.347267 -5.766088
v 4.437496 54.908886 -6.853066
v 4.8381963 58.171837 -5.6355467
v 6.2571816 54.748795 -6.1832495
v 6.204241 57.995655 -4.8943667
v 7.970074 54.53703 -4.5616384
v 7.6688857 57.727688 -3.1756294
v 9.330069 54.429688 -2.8572817
v 8.382369 57.670403 -2.0457234
v 9.915635 54.40041 -0.84133536
v 8.8265085 57.598934 -0.69486034
v 9.648274 54.48084 2.1606243
v 8.753372 57.62219 1.7021368
v 8.078357 54.574963 4.279274
v 7.7136517 57.757305 3.7517426
v 5.9553113 57.921448 4.4731455
v 5.8476562 54.631428 4.991113
vt 0.98820025 0.92124975
vt 0.9882002 0.9157154
vt 0.9151865 0.91571534
vt 0.9151865 0.92124975
vt 0.98820025 0.9822776
vt 0.8634539 0.91571534
vt 0.9151865 0.9822775
vt 0.9882002 0.98751426
vt 0.9151865 0.9875144
vt 0.863454 0.92124975
vt 0.81653386 0.91571534
vt 0.863454 0.9822775
vt 0.863454 0.9875144
vt 0.8165339 0.92124975
vt 0.77270967 0.91571534
vt 0.8165339 0.9822775
vt 0.8165339 0.9875144
vt 0.7727097 0.92124975
vt 0.7393108 0.9157154
vt 0.77270967 0.9822775
vt 0.7727097 0.9875144
vt 0.7393108 0.92124975
vt 0.7046286 0.91571534
vt 0.73931074 0.9822776
vt 0.73931086 0.9875144
vt 0.7046286 0.92124975
vt 0.64712197 0.9157154
vt 0.7046286 0.9822775
vt 0.7046286 0.9875144
vt 0.64712197 0.92124975
vt 0.58428836 0.91571534
vt 0.64712197 0.9822776
vt 0.64712197 0.9875144
vt 0.58428836 0.92124975
vt 0.53583777 0.91571534
vt 0.5842883 0.98227745
vt 0.58428836 0.9875143
vt 0.53583777 0.92124975
vt 0.47842655 0.9157154
vt 0.5358377 0.98227745
vt 0.53583777 0.9875144
vt 0.47842655 0.92124975
vt 0.42023587 0.91571534
vt 0.47842652 0.9822776
vt 0.47842655 0.9875144
vt 0.42023587 0.92124975
vt 0.36403817 0.9157154
vt 0.42023587 0.9822775
vt 0.42023587 0.9875144
vt 0.36403826 0.92124975
vt 0.33381334 0.9157153
vt 0.3640383 0.9822776
vt 0.36403823 0.9875143
vt 0.33381334 0.9212497
vt 0.29649055 0.91571534
vt 0.33381325 0.9822776
vt 0.33381334 0.9875143
vt 0.29649055 0.92124975
vt 0.25167757 0.91571534
vt 0.29649055 0.9822775
vt 0.29649055 0.9875144
vt 0.25167763 0.92124975
vt 0.20971316 0.9157153
vt 0.25167757 0.9822775
vt 0.25167757 0.98751444
vt 0.20971322 0.92124975
vt 0.16948855 0.91571534
vt 0.20971328 0.9822774
vt 0.2097131 0.9875144
vt 0.16948855 0.92124975
vt 0.11216563 0.91571546
vt 0.16948855 0.9822775
vt 0.16948849 0.98751444
vt 0.11216563 0.92124987
vt 0.06019181 0.9157153
vt 0.11216575 0.9822776
vt 0.11216557 0.9875144
vt 0.06019181 0.9212497
vt 0.06019175 0.9822774
vt 0.06019181 0.9875143
vt 0.01583904 0.9875143
vt 0.01583898 0.9822775
vt 0.015838861 0.9212497
vt 0.01583904 0.91571534
vt 0.82630026 0.87355435
vt 0.8871645 0.9011796
vt 0.8871665 0.8735588
vt 0.82629824 0.90117514
vt 0.76543385 0.8735498
vt 0.76543146 0.9011706
vt 0.6956295 0.8735429
vt 0.69562674 0.9011637
vt 0.6168872 0.8735351
vt 0.61688447 0.9011559
vt 0.5381452 0.8735273
vt 0.53814244 0.9011481
vt 0.46834004 0.8735204
vt 0.468338 0.90114117
vt 0.40747324 0.87351733
vt 0.40747198 0.9011381
vt 0.34660643 0.8735143
vt 0.34660572 0.9011351
vt 0.27680176 0.8735143
vt 0.27680176 0.9011351
vt 0.19805916 0.8735143
vt 0.19805916 0.9011351
vt 0.11931701 0.8735143
vt 0.11931689 0.9011351
vt 0.04951258 0.8735143
vt 0.04951258 0.9011351
vt 0.071998194 0.61740315
vt 0.052166417 0.68991864
vt 0.07206267 0.7623681
vt 0.12633945 0.56425637
vt 0.12643397 0.8154503
vt 0.20072842 0.5447392
vt 0.2007284 0.8348757
vt 0.27508157 0.56418335
vt 0.27509466 0.8154365
vt 0.32949078 0.6172889
vt 0.3295024 0.7623235
vt 0.34940082 0.6897985
vt 0.98820025 0.9822776
vt 0.9151865 0.92124975
vt 0.98820025 0.92124975
vt 0.9151865 0.9822775
vt 0.863454 0.92124975
vt 0.863454 0.9822775
vt 0.8165339 0.92124975
vt 0.8165339 0.9822775
vt 0.7727097 0.92124975
vt 0.77270967 0.9822775
vt 0.7393108 0.92124975
vt 0.73931074 0.9822776
vt 0.7046286 0.92124975
vt 0.7046286 0.9822775
vt 0.64712197 0.92124975
vt 0.64712197 0.9822776
vt 0.58428836 0.92124975
vt 0.5842883 0.98227745
vt 0.53583777 0.92124975
vt 0.5358377 0.98227745
vt 0.47842655 0.92124975
vt 0.47842652 0.9822776
vt 0.42023587 0.92124975
vt 0.42023587 0.9822775
vt 0.36403826 0.92124975
vt 0.3640383 0.9822776
vt 0.33381334 0.9212497
vt 0.33381325 0.9822776
vt 0.29649055 0.92124975
vt 0.29649055 0.9822775
vt 0.25167763 0.92124975
vt 0.25167757 0.9822775
vt 0.20971322 0.92124975
vt 0.20971328 0.9822774
vt 0.16948855 0.92124975
vt 0.16948855 0.9822775
vt 0.11216563 0.92124987
vt 0.11216575 0.9822776
vt 0.06019181 0.9212497
vt 0.06019175 0.9822774
vt 0.01583898 0.9822775
vt 0.015838861 0.9212497
vn 0.15981214 -0.13123417 0.97838527
vn -0.09455137 -0.9950407 -0.030889459
vn -0.12048116 -0.9923074 -0.028464017
vn 0.05471069 -0.13009106 0.9899914
vn 0.18678634 0.1090042 0.97633445
vn -0.14903426 -0.9887798 -0.010167265
vn 0.08287724 0.09447902 0.9920711
vn 0.15590236 0.9874001 0.027115561
vn 0.14953531 0.98842245 0.025692657
vn -0.13767417 -0.09965239 0.98545176
vn -0.15472837 -0.98737013 0.03404824
vn -0.10166631 0.13551907 0.98554474
vn 0.14078826 0.9900214 0.006027303
vn -0.3018854 0.002532138 0.9533408
vn -0.1828417 -0.97942275 0.08544007
vn -0.26594397 0.22369346 0.93767536
vn 0.14869775 0.9881571 -0.037875034
vn -0.54155105 0.11450633 0.83283293
vn -0.23454997 -0.9681465 0.08762715
vn -0.49227592 0.31079373 0.8130632
vn 0.18903992 0.9789716 -0.07667111
vn -0.8034617 0.21182798 0.55639756
vn -0.28448218 -0.95844644 0.021217626
vn -0.74510854 0.40388405 0.5307457
vn 0.22628991 0.9701085 -0.08764885
vn -0.9601553 0.22837225 0.16108334
vn -0.31031892 -0.9495582 -0.04518101
vn -0.8953153 0.4227565 0.14031243
vn 0.24592681 0.9687366 -0.03270034
vn -0.93422633 0.25955635 -0.24464588
vn -0.30646393 -0.94377106 -0.124000356
vn -0.8719301 0.44200027 -0.21065046
vn 0.28007838 0.9586274 0.050887574
vn -0.76973206 0.29915088 -0.56393373
vn -0.2523725 -0.94362223 -0.21420832
vn -0.70597106 0.47281572 -0.5273046
vn 0.29215327 0.94770306 0.12847334
vn -0.41137674 0.32156298 -0.8528578
vn -0.18072595 -0.95063484 -0.25225294
vn -0.34865874 0.48792407 -0.8002295
vn 0.23350291 0.9422915 0.23992307
vn -0.12025801 0.3183336 -0.94032
vn -0.12662198 -0.96038985 -0.24823004
vn -0.08228554 0.4971433 -0.86375785
vn 0.15540445 0.94624484 0.28367284
vn 0.008580025 0.2993095 -0.95411754
vn -0.105428025 -0.9682862 -0.22650999
vn 0.036437962 0.48317355 -0.874766
vn 0.1254473 0.95345026 0.2742182
vn 0.07716464 0.26469365 -0.96124035
vn -0.04428515 -0.97960037 -0.19601484
vn 0.09985402 0.44761267 -0.8886349
vn 0.11508066 0.96047336 0.2534708
vn 0.2823424 0.22417787 -0.93275243
vn 0.0139082605 -0.98423034 -0.1763442
vn 0.3000857 0.40113887 -0.8654688
vn 0.05012765 0.97249323 0.22747368
vn 0.586656 0.22006866 -0.7793616
vn 0.061439633 -0.9867437 -0.15020706
vn 0.58270353 0.39717582 -0.709019
vn -0.03183854 0.97824246 0.20500739
vn 0.7470638 0.21462844 -0.62915033
vn 0.09745714 -0.9910479 -0.0912484
vn 0.71560156 0.4113892 -0.5645115
vn -0.08140859 0.982284 0.16879204
vn 0.8729656 0.2215128 -0.43458408
vn 0.103677586 -0.9946109 -0.00038406384
vn 0.82089794 0.41605878 -0.39118
vn -0.12709884 0.98567766 0.110839374
vn 0.97569203 0.20437905 -0.07908422
vn 0.07990037 -0.99496067 0.060573895
vn 0.913999 0.39866316 -0.07532262
vn -0.1274086 0.9914253 0.029032554
vn 0.94122463 0.17477527 0.2890498
vn 0.0338108 -0.9964205 0.07747945
vn 0.8920913 0.36706433 0.26350892
vn -0.088728435 0.99498194 -0.04624075
vn 0.6613661 0.11159039 0.7417159
vn 0.63147897 0.3000458 0.71498734
vn -0.007941886 0.99457127 -0.10375336
vn 0.042978164 0.9908172 -0.12819603
vn 0.349059 0.27425712 0.89606977
vn 0.35090542 0.011758851 0.93633705
vn 0.0050457674 -0.99780744 0.06599092
vn 0.016428921 -0.98624086 0.16449608
vn 0.4096038 -0.045843024 0.9111109
vn 0.4905497 -0.8713707 -0.008601566
vn 0.30070394 -0.040901702 0.9528401
vn -0.46209246 -0.83684844 0.2935222
vn 0.18759863 -0.037797943 0.9815183
vn -0.8167983 -0.46322447 0.34389472
vn -0.037375815 -0.030900357 0.99882334
vn -0.95264417 0.03452217 0.30212125
vn -0.79988873 0.085749425 0.5939909
vn -0.83322895 0.5230168 0.17939661
vn -0.04375544 0.35208973 0.9349429
vn -0.4905516 0.87136966 0.008599204
vn 0.18096654 0.36028594 0.91512024
vn -0.016429 0.98623973 -0.16450329
vn 0.29406598 0.3575801 0.8863756
vn 0.46209362 0.836847 -0.2935243
vn 0.4029724 0.35224086 0.8447128
vn 0.8167985 0.46322235 -0.34389713
vn 0.59700626 0.32887027 0.7317293
vn 0.95264304 -0.03452408 -0.30212465
vn 0.99951684 0.020540904 0.023326252
vn 0.833228 -0.5230186 -0.17939506
vn 0.60338634 -0.05412151 0.79561037
vn 0.4905497 -0.8713707 -0.008601566
vn 0.4096038 -0.045843024 0.9111109
vn -0.037375815 -0.030900357 0.99882334
vn -0.79988873 0.085749425 0.5939909
vn -0.04375544 0.35208973 0.9349429
vn 0.18759863 -0.037797943 0.9815183
vn 0.18096654 0.36028594 0.91512024
vn 0.30070394 -0.040901702 0.9528401
vn 0.29406598 0.3575801 0.8863756
vn 0.4096038 -0.045843024 0.9111109
vn 0.4029724 0.35224086 0.8447128
vn 0.60338634 -0.05412151 0.79561037
vn 0.59700626 0.32887027 0.7317293
vn 0.99951684 0.020540904 0.023326252
vn -0.15373626 -0.0069621406 -0.9880874
vn -0.0555727 0.007545488 -0.9984261
vn -0.15373626 -0.0069621406 -0.9880874
vn -0.05476434 0.0076643075 -0.9984699
vn 0.11882364 -0.016908996 -0.9927713
vn 0.11763767 -0.015851866 -0.9929301
vn 0.27357662 -0.11146578 -0.95536965
vn 0.2728374 -0.11111502 -0.95562184
vn 0.51454806 -0.21748196 -0.82942265
vn 0.5060929 -0.21404488 -0.8354968
vn 0.779616 -0.31516635 -0.54117376
vn 0.7792462 -0.3150481 -0.5417749
vn 0.924673 -0.34702656 -0.15669182
vn 0.9270728 -0.3467689 -0.14243366
vn 0.8997166 -0.36980873 0.2318437
vn 0.90612626 -0.3679481 0.208685
vn 0.73851436 -0.39527273 0.54621977
vn 0.74163973 -0.394941 0.54221034
vn 0.37930807 -0.41314894 0.827909
vn 0.37124607 -0.4132511 0.83150464
vn 0.097033635 -0.41044736 0.906707
vn 0.09404353 -0.4104864 0.9070043
vn -0.018641278 -0.3915005 0.91998905
vn -0.021574736 -0.3898258 0.92063594
vn -0.081584185 -0.35912395 0.9297171
vn -0.085366406 -0.35752088 0.9299954
vn -0.27842546 -0.3244174 0.9040091
vn -0.29585147 -0.32269835 0.899076
vn -0.58314455 -0.31054184 0.75067043
vn -0.60246813 -0.30997613 0.7354909
vn -0.73469156 -0.3152572 0.6007006
vn -0.741318 -0.31900108 0.5904965
vn -0.84560055 -0.3350141 0.41560224
vn -0.850181 -0.3347287 0.40638533
vn -0.9458535 -0.31523538 0.07738188
vn -0.94582564 -0.31525767 0.077629685
vn -0.9192978 -0.2816297 -0.2749114
vn -0.92061543 -0.28224617 -0.269823
vn -0.6406245 -0.2186472 -0.7360663
vn -0.6294016 -0.21682677 -0.74621695
vn -0.3415803 -0.16308004 -0.925596
vn -0.3415803 -0.16308004 -0.925596
g f_belt_default_0
f 3/3/3 2/2/2 1/1/1
f 4/4/4 3/3/3 1/1/1
f 4/4/4 1/1/1 5/5/5
f 6/6/6 3/3/3 4/4/4
f 7/7/7 4/4/4 5/5/5
f 7/7/7 5/5/5 8/8/8
f 9/9/9 7/7/7 8/8/8
f 10/10/10 6/6/6 4/4/4
f 10/10/10 4/4/4 7/7/7
f 11/11/11 6/6/6 10/10/10
f 12/12/12 7/7/7 9/9/9
f 12/12/12 10/10/10 7/7/7
f 13/13/13 12/12/12 9/9/9
f 14/14/14 11/11/11 10/10/10
f 14/14/14 10/10/10 12/12/12
f 15/15/15 11/11/11 14/14/14
f 16/16/16 12/12/12 13/13/13
f 16/16/16 14/14/14 12/12/12
f 17/17/17 16/16/16 13/13/13
f 18/18/18 15/15/15 14/14/14
f 18/18/18 14/14/14 16/16/16
f 19/19/19 15/15/15 18/18/18
f 20/20/20 16/16/16 17/17/17
f 20/20/20 18/18/18 16/16/16
f 21/21/21 20/20/20 17/17/17
f 22/22/22 19/19/19 18/18/18
f 22/22/22 18/18/18 20/20/20
f 23/23/23 19/19/19 22/22/22
f 24/24/24 20/20/20 21/21/21
f 24/24/24 22/22/22 20/20/20
f 25/25/25 24/24/24 21/21/21
f 26/26/26 23/23/23 22/22/22
f 26/26/26 22/22/22 24/24/24
f 27/27/27 23/23/23 26/26/26
f 28/28/28 24/24/24 25/25/25
f 28/28/28 26/26/26 24/24/24
f 29/29/29 28/28/28 25/25/25
f 30/30/30 27/27/27 26/26/26
f 30/30/30 26/26/26 28/28/28
f 31/31/31 27/27/27 30/30/30
f 32/32/32 28/28/28 29/29/29
f 32/32/32 30/30/30 28/28/28
f 33/33/33 32/32/32 29/29/29
f 34/34/34 31/31/31 30/30/30
f 34/34/34 30/30/30 32/32/32
f 35/35/35 31/31/31 34/34/34
f 36/36/36 32/32/32 33/33/33
f 36/36/36 34/34/34 32/32/32
f 37/37/37 36/36/36 33/33/33
f 38/38/38 35/35/35 34/34/34
f 38/38/38 34/34/34 36/36/36
f 39/39/39 35/35/35 38/38/38
f 40/40/40 36/36/36 37/37/37
f 40/40/40 38/38/38 36/36/36
f 41/41/41 40/40/40 37/37/37
f 42/42/42 39/39/39 38/38/38
f 42/42/42 38/38/38 40/40/40
f 43/43/43 39/39/39 42/42/42
f 44/44/44 40/40/40 41/41/41
f 44/44/44 42/42/42 40/40/40
f 45/45/45 44/44/44 41/41/41
f 46/46/46 43/43/43 42/42/42
f 46/46/46 42/42/42 44/44/44
f 47/47/47 43/43/43 46/46/46
f 48/48/48 44/44/44 45/45/45
f 48/48/48 46/46/46 44/44/44
f 49/49/49 48/48/48 45/45/45
f 50/50/50 47/47/47 46/46/46
f 50/50/50 46/46/46 48/48/48
f 51/51/51 47/47/47 50/50/50
f 52/52/52 48/48/48 49/49/49
f 52/52/52 50/50/50 48/48/48
f 53/53/53 52/52/52 49/49/49
f 54/54/54 51/51/51 50/50/50
f 54/54/54 50/50/50 52/52/52
f 55/55/55 51/51/51 54/54/54
f 56/56/56 52/52/52 53/53/53
f 56/56/56 54/54/54 52/52/52
f 57/57/57 56/56/56 53/53/53
f 58/58/58 55/55/55 54/54/54
f 58/58/58 54/54/54 56/56/56
f 55/55/55 58/58/58 59/59/59
f 60/60/60 56/56/56 57/57/57
f 60/60/60 58/58/58 56/56/56
f 61/61/61 60/60/60 57/57/57
f 58/58/58 62/62/62 59/59/59
f 62/62/62 58/58/58 60/60/60
f 63/63/63 59/59/59 62/62/62
f 64/64/64 60/60/60 61/61/61
f 64/64/64 62/62/62 60/60/60
f 65/65/65 64/64/64 61/61/61
f 66/66/66 63/63/63 62/62/62
f 66/66/66 62/62/62 64/64/64
f 67/67/67 63/63/63 66/66/66
f 68/68/68 64/64/64 65/65/65
f 68/68/68 66/66/66 64/64/64
f 69/69/69 68/68/68 65/65/65
f 70/70/70 67/67/67 66/66/66
f 70/70/70 66/66/66 68/68/68
f 71/71/71 67/67/67 70/70/70
f 72/72/72 68/68/68 69/69/69
f 72/72/72 70/70/70 68/68/68
f 73/73/73 72/72/72 69/69/69
f 74/74/74 71/71/71 70/70/70
f 74/74/74 70/70/70 72/72/72
f 75/75/75 71/71/71 74/74/74
f 76/76/76 72/72/72 73/73/73
f 76/76/76 74/74/74 72/72/72
f 77/77/77 76/76/76 73/73/73
f 78/78/78 75/75/75 74/74/74
f 78/78/78 74/74/74 76/76/76
f 79/79/79 76/76/76 77/77/77
f 79/79/79 78/78/78 76/76/76
f 80/80/80 79/79/79 77/77/77
f 80/80/80 81/81/81 79/79/79
f 81/81/81 82/82/82 79/79/79
f 79/79/79 82/82/82 78/78/78
f 82/82/82 83/83/83 78/78/78
f 78/78/78 83/83/83 75/75/75
f 83/83/83 84/84/84 75/75/75
f 87/87/87 86/86/86 85/85/85
f 86/86/86 88/88/88 85/85/85
f 85/85/85 88/88/88 89/89/89
f 88/88/88 90/90/90 89/89/89
f 89/89/89 90/90/90 91/91/91
f 90/90/90 92/92/92 91/91/91
f 91/91/91 92/92/92 93/93/93
f 92/92/92 94/94/94 93/93/93
f 93/93/93 94/94/94 95/95/95
f 94/94/94 96/96/96 95/95/95
f 95/95/95 96/96/96 97/97/97
f 96/96/96 98/98/98 97/97/97
f 97/97/97 98/98/98 99/99/99
f 98/98/98 100/100/100 99/99/99
f 99/99/99 100/100/100 101/101/101
f 100/100/100 102/102/102 101/101/101
f 101/101/101 102/102/102 103/103/103
f 102/102/102 104/104/104 103/103/103
f 103/103/103 104/104/104 105/105/105
f 104/104/104 106/106/106 105/105/105
f 105/105/105 106/106/106 107/107/107
f 106/106/106 108/108/108 107/107/107
f 107/107/107 108/108/108 109/109/109
f 108/108/108 110/110/110 109/109/109
f 113/113/113 112/112/112 111/111/111
f 113/113/113 111/111/111 114/114/114
f 115/115/115 113/113/113 114/114/114
f 115/115/115 114/114/114 116/116/116
f 117/117/117 115/115/115 116/116/116
f 117/117/117 116/116/116 118/118/118
f 119/119/119 117/117/117 118/118/118
f 119/119/119 118/118/118 120/120/120
f 121/121/121 119/119/119 120/120/120
f 121/121/121 120/120/120 122/122/122
f 125/125/125 124/124/124 123/123/123
f 124/124/124 126/126/126 123/123/123
f 124/124/124 127/127/127 126/126/126
f 127/127/127 128/128/128 126/126/126
f 127/127/127 129/129/129 128/128/128
f 129/129/129 130/130/130 128/128/128
f 129/129/129 131/131/131 130/130/130
f 131/131/131 132/132/132 130/130/130
f 131/131/131 133/133/133 132/132/132
f 133/133/133 134/134/134 132/132/132
f 133/133/133 135/135/135 134/134/134
f 135/135/135 136/136/136 134/134/134
f 135/135/135 137/137/137 136/136/136
f 137/137/137 138/138/138 136/136/136
f 137/137/137 139/139/139 138/138/138
f 139/139/139 140/140/140 138/138/138
f 139/139/139 141/141/141 140/140/140
f 141/141/141 142/142/142 140/140/140
f 141/141/141 143/143/143 142/142/142
f 143/143/143 144/144/144 142/142/142
f 143/143/143 145/145/145 144/144/144
f 145/145/145 146/146/146 144/144/144
f 145/145/145 147/147/147 146/146/146
f 147/147/147 148/148/148 146/146/146
f 147/147/147 149/149/149 148/148/148
f 149/149/149 150/150/150 148/148/148
f 149/149/149 151/151/151 150/150/150
f 151/151/151 152/152/152 150/150/150
f 151/151/151 153/153/153 152/152/152
f 153/153/153 154/154/154 152/152/152
f 153/153/153 155/155/155 154/154/154
f 155/155/155 156/156/156 154/154/154
f 155/155/155 157/157/157 156/156/156
f 157/157/157 158/158/158 156/156/156
f 157/157/157 159/159/159 158/158/158
f 159/159/159 160/160/160 158/158/158
f 159/159/159 161/161/161 160/160/160
f 161/161/161 162/162/162 160/160/160
f 163/163/163 162/162/162 161/161/161
f 164/164/164 163/163/163 161/161/161
