g f_necklace_default
v 5.629455E-16 84.22985 1.7356822
v -0.8488201 83.29827 1.2786261
v -0.9621094 84.29039 1.4732778
v 1.0793457E-15 83.22724 1.5075717
v 0.8488201 83.29827 1.2786261
v 0.9621094 84.29039 1.4732778
v -0.985309 85.45714 -2.8137238
v -0.99760646 84.50197 -3.0693378
v 1.2124856E-15 84.55448 -3.291069
v 7.8957394E-16 85.499565 -3.0277812
v -0.8488201 83.29827 1.2786261
v -1.7110175 84.49044 0.82855266
v -0.9621094 84.29039 1.4732778
v -1.6135195 83.47428 0.71579415
v -2.0605369 84.75292 0.009262384
v -1.9996064 83.759094 -0.15250316
v -2.1783667 85.0184 -0.9156552
v -2.36113 84.05028 -1.1551615
v -2.1456218 84.246346 -1.9908812
v -2.0084374 85.2197 -1.7159973
v -1.6284649 84.401825 -2.5979517
v -1.5368706 85.370026 -2.4006174
v -0.99760646 84.50197 -3.0693378
v -0.985309 85.45714 -2.8137238
v 0.985309 85.45714 -2.8137238
v 7.8957394E-16 85.499565 -3.0277812
v 1.2124856E-15 84.55448 -3.291069
v 0.99760646 84.50197 -3.0693378
v 0.8488201 83.29827 1.2786261
v 0.9621094 84.29039 1.4732778
v 1.7110175 84.49044 0.82855266
v 1.6135195 83.47428 0.71579415
v 2.0605369 84.75292 0.009262384
v 1.9996064 83.759094 -0.15250316
v 2.1783667 85.0184 -0.9156552
v 2.36113 84.05028 -1.1551615
v 2.1456218 84.246346 -1.9908812
v 2.0084374 85.2197 -1.7159973
v 1.6284649 84.401825 -2.5979517
v 1.5368706 85.370026 -2.4006174
v 0.99760646 84.50197 -3.0693378
v 0.985309 85.45714 -2.8137238
vt 0.49722165 0.98331225
vt 0.43043226 0.9131275
vt 0.43043226 0.98331225
vt 0.49722165 0.9131275
vt 0.5640108 0.9131275
vt 0.5640108 0.98331225
vt 0.076909885 0.98331225
vt 0.076909885 0.9131275
vt 0.009445593 0.9131275
vt 0.009445652 0.98331225
vt 0.43043226 0.9131275
vt 0.36303097 0.98331225
vt 0.43043226 0.98331225
vt 0.36303097 0.9131275
vt 0.3009537 0.98331225
vt 0.3009537 0.9131275
vt 0.23614569 0.98331225
vt 0.23614569 0.9131275
vt 0.17981876 0.9131275
vt 0.17981876 0.98331225
vt 0.12334396 0.9131275
vt 0.12334396 0.98331225
vt 0.076909885 0.9131275
vt 0.076909885 0.98331225
vt 0.91753316 0.98331225
vt 0.98499775 0.98331225
vt 0.98499775 0.9131275
vt 0.91753316 0.9131275
vt 0.5640108 0.9131275
vt 0.5640108 0.98331225
vt 0.63141227 0.98331225
vt 0.63141227 0.9131275
vt 0.6934894 0.98331225
vt 0.6934894 0.9131275
vt 0.7582977 0.98331225
vt 0.7582977 0.9131275
vt 0.8146244 0.9131275
vt 0.8146244 0.98331225
vt 0.8710991 0.9131275
vt 0.8710991 0.98331225
vt 0.91753316 0.9131275
vt 0.91753316 0.98331225
vn -0 -0.22256638 0.9749176
vn -0.4511687 -0.20359924 0.86890405
vn -0.48489574 -0.20058186 0.85125965
vn -0 -0.22256638 0.9749176
vn 0.4511687 -0.20359935 0.86890405
vn 0.48489574 -0.20058198 0.85125965
vn -0.39374575 0.24454229 -0.8860944
vn -0.3911904 0.24481376 -0.88715065
vn -0 0.26477572 -0.96431
vn -0 0.26477566 -0.96431
vn -0.4511687 -0.20359924 0.86890405
vn -0.82217616 -0.15291929 0.54830843
vn -0.48489574 -0.20058186 0.85125965
vn -0.78298527 -0.16099529 0.60084486
vn -0.9536378 -0.04772791 0.29714802
vn -0.9493909 -0.060144406 0.3082851
vn -0.99334794 0.104497105 0.048375987
vn -0.9933374 0.10243294 0.05280414
vn -0.9038301 0.22173342 -0.36595815
vn -0.90164167 0.22206719 -0.37111786
vn -0.7207791 0.22449723 -0.65580374
vn -0.7111992 0.22370183 -0.66644806
vn -0.3911904 0.24481376 -0.88715065
vn -0.39374575 0.24454229 -0.8860944
vn 0.3937452 0.24454175 -0.8860948
vn -0 0.26477566 -0.96431
vn -0 0.26477572 -0.96431
vn 0.39118978 0.24481317 -0.8871511
vn 0.4511687 -0.20359935 0.86890405
vn 0.48489574 -0.20058198 0.85125965
vn 0.8221764 -0.15291929 0.5483081
vn 0.78298557 -0.16099532 0.6008445
vn 0.9536378 -0.047727913 0.29714802
vn 0.9493909 -0.060144406 0.3082851
vn 0.99334794 0.104497075 0.048376027
vn 0.9933374 0.10243292 0.052804165
vn 0.9038303 0.22173345 -0.36595768
vn 0.90164185 0.22206724 -0.3711174
vn 0.7207792 0.22449715 -0.6558036
vn 0.71119916 0.22370173 -0.6664481
vn 0.39118978 0.24481317 -0.8871511
vn 0.3937452 0.24454175 -0.8860948
g f_necklace_default_0
f 3/3/3 2/2/2 1/1/1
f 2/2/2 4/4/4 1/1/1
f 4/4/4 5/5/5 1/1/1
f 5/5/5 6/6/6 1/1/1
f 9/9/9 8/8/8 7/7/7
f 10/10/10 9/9/9 7/7/7
f 13/13/13 12/12/12 11/11/11
f 12/12/12 14/14/14 11/11/11
f 14/14/14 12/12/12 15/15/15
f 16/16/16 14/14/14 15/15/15
f 16/16/16 15/15/15 17/17/17
f 18/18/18 16/16/16 17/17/17
f 19/19/19 18/18/18 17/17/17
f 20/20/20 19/19/19 17/17/17
f 19/19/19 20/20/20 21/21/21
f 20/20/20 22/22/22 21/21/21
f 23/23/23 21/21/21 22/22/22
f 24/24/24 23/23/23 22/22/22
f 27/27/27 26/26/26 25/25/25
f 28/28/28 27/27/27 25/25/25
f 31/31/31 30/30/30 29/29/29
f 32/32/32 31/31/31 29/29/29
f 31/31/31 32/32/32 33/33/33
f 32/32/32 34/34/34 33/33/33
f 33/33/33 34/34/34 35/35/35
f 34/34/34 36/36/36 35/35/35
f 36/36/36 37/37/37 35/35/35
f 37/37/37 38/38/38 35/35/35
f 38/38/38 37/37/37 39/39/39
f 40/40/40 38/38/38 39/39/39
f 39/39/39 41/41/41 40/40/40
f 41/41/41 42/42/42 40/40/40
