g flight_ring
v 1.518056E-07 0.009807735 3.79961E-05
v 1.518056E-07 0.009999999 0.001988709
v 0.001950865 0.009807735 0.001988709
v 0.001913328 0.009619438 3.79961E-05
v 0.001913328 0.009619438 3.79961E-05
v 0.001950865 0.009807735 0.001988709
v 0.003826809 0.009238879 0.001988709
v 0.00375326 0.009061263 3.79961E-05
v 0.00375326 0.009061263 3.79961E-05
v 0.003826809 0.009238879 0.001988709
v 0.005555655 0.008314793 0.001988709
v 0.005448842 0.008154877 3.79961E-05
v 0.005448842 0.008154877 3.79961E-05
v 0.005555655 0.008314793 0.001988709
v 0.007071181 0.007071183 0.001988709
v 0.00693507 0.006935072 3.79961E-05
v 0.00693507 0.006935072 3.79961E-05
v 0.007071181 0.007071183 0.001988709
v 0.008314791 0.005555657 0.001988709
v 0.008154877 0.005448843 3.79961E-05
v 0.008154877 0.005448843 3.79961E-05
v 0.008314791 0.005555657 0.001988709
v 0.009238877 0.00382681 0.001988709
v 0.009061262 0.003753262 3.79961E-05
v 0.009061262 0.003753262 3.79961E-05
v 0.009238877 0.00382681 0.001988709
v 0.009807734 0.001950867 0.001988709
v 0.009619437 0.001913329 3.79961E-05
v 0.009619437 0.001913329 3.79961E-05
v 0.009807734 0.001950867 0.001988709
v 0.009999997 -1.518056E-07 0.001988709
v 0.009807734 -1.518056E-07 3.79961E-05
v 0.009807734 -1.518056E-07 3.79961E-05
v 0.009999997 -1.518056E-07 0.001988709
v 0.009807734 -0.001950865 0.001988709
v 0.009619437 -0.001913328 3.79961E-05
v 0.009619437 -0.001913328 3.79961E-05
v 0.009807734 -0.001950865 0.001988709
v 0.009238877 -0.003826809 0.001988709
v 0.009061262 -0.00375326 3.79961E-05
v 0.009061262 -0.00375326 3.79961E-05
v 0.009238877 -0.003826809 0.001988709
v 0.008314791 -0.005555655 0.001988709
v 0.008154877 -0.005448842 3.79961E-05
v 0.008154877 -0.005448842 3.79961E-05
v 0.008314791 -0.005555655 0.001988709
v 0.007071181 -0.007071181 0.001988709
v 0.00693507 -0.00693507 3.79961E-05
v 0.00693507 -0.00693507 3.79961E-05
v 0.007071181 -0.007071181 0.001988709
v 0.005555655 -0.008314791 0.001988709
v 0.005448842 -0.008154877 3.79961E-05
v 0.005448842 -0.008154877 3.79961E-05
v 0.005555655 -0.008314791 0.001988709
v 0.003826809 -0.009238877 0.001988709
v 0.00375326 -0.009061262 3.79961E-05
v 0.00375326 -0.009061262 3.79961E-05
v 0.003826809 -0.009238877 0.001988709
v 0.001950865 -0.009807734 0.001988709
v 0.001913328 -0.009619437 3.79961E-05
v 0.001913328 -0.009619437 3.79961E-05
v 0.001950865 -0.009807734 0.001988709
v -1.536682E-07 -0.009999997 0.001988709
v -1.536682E-07 -0.009807734 3.79961E-05
v -1.536682E-07 -0.009807734 3.79961E-05
v -1.536682E-07 -0.009999997 0.001988709
v -0.001950867 -0.009807734 0.001988709
v -0.001913329 -0.009619437 3.79961E-05
v -0.001913329 -0.009619437 3.79961E-05
v -0.001950867 -0.009807734 0.001988709
v -0.00382681 -0.009238877 0.001988709
v -0.003753262 -0.009061262 3.79961E-05
v -0.003753262 -0.009061262 3.79961E-05
v -0.00382681 -0.009238877 0.001988709
v -0.005555657 -0.008314791 0.001988709
v -0.005448843 -0.008154877 3.79961E-05
v -0.005448843 -0.008154877 3.79961E-05
v -0.005555657 -0.008314791 0.001988709
v -0.007071183 -0.007071181 0.001988709
v -0.006935072 -0.00693507 3.79961E-05
v -0.006935072 -0.00693507 3.79961E-05
v -0.007071183 -0.007071181 0.001988709
v -0.008314793 -0.005555655 0.001988709
v -0.008154877 -0.005448842 3.79961E-05
v -0.008154877 -0.005448842 3.79961E-05
v -0.008314793 -0.005555655 0.001988709
v -0.009238879 -0.003826809 0.001988709
v -0.009061263 -0.00375326 3.79961E-05
v -0.009061263 -0.00375326 3.79961E-05
v -0.009238879 -0.003826809 0.001988709
v -0.009807735 -0.001950865 0.001988709
v -0.009619438 -0.001913328 3.79961E-05
v -0.009619438 -0.001913328 3.79961E-05
v -0.009807735 -0.001950865 0.001988709
v -0.009999999 1.536682E-07 0.001988709
v -0.009807735 1.536682E-07 3.79961E-05
v -0.009807735 1.536682E-07 3.79961E-05
v -0.009999999 1.536682E-07 0.001988709
v -0.009807735 0.001950867 0.001988709
v -0.009619438 0.001913329 3.79961E-05
v -0.009619438 0.001913329 3.79961E-05
v -0.009807735 0.001950867 0.001988709
v -0.009238879 0.00382681 0.001988709
v -0.009061263 0.003753262 3.79961E-05
v -0.009061263 0.003753262 3.79961E-05
v -0.009238879 0.00382681 0.001988709
v -0.008314793 0.005555657 0.001988709
v -0.008154877 0.005448843 3.79961E-05
v -0.008154877 0.005448843 3.79961E-05
v -0.008314793 0.005555657 0.001988709
v -0.007071183 0.007071183 0.001988709
v -0.006935072 0.006935072 3.79961E-05
v -0.006935072 0.006935072 3.79961E-05
v -0.007071183 0.007071183 0.001988709
v -0.005555657 0.008314793 0.001988709
v -0.005448843 0.008154877 3.79961E-05
v -0.005448843 0.008154877 3.79961E-05
v -0.005555657 0.008314793 0.001988709
v -0.00382681 0.009238879 0.001988709
v -0.003753262 0.009061263 3.79961E-05
v -0.003753262 0.009061263 3.79961E-05
v -0.00382681 0.009238879 0.001988709
v -0.001950867 0.009807735 0.001988709
v -0.001913329 0.009619438 3.79961E-05
v -0.001913329 0.009619438 3.79961E-05
v -0.001950867 0.009807735 0.001988709
v 1.518056E-07 0.009999999 0.001988709
v 1.518056E-07 0.009807735 3.79961E-05
vt 2.999847 0.1560459
vt 2.999847 0.7810841
vt 2.687328 0.7810841
vt 2.687328 0.1560459
vt 2.687328 0.1560459
vt 2.687328 0.7810841
vt 2.374809 0.7810841
vt 2.374809 0.1560459
vt 2.374809 0.1560459
vt 2.374809 0.7810841
vt 2.06229 0.7810841
vt 2.06229 0.1560459
vt 2.06229 0.1560459
vt 2.06229 0.7810841
vt 1.749771 0.7810841
vt 1.749771 0.1560459
vt 1.749771 0.1560459
vt 1.749771 0.7810841
vt 1.437252 0.7810841
vt 1.437252 0.1560459
vt 1.437252 0.1560459
vt 1.437252 0.7810841
vt 1.124733 0.7810841
vt 1.124733 0.1560459
vt 1.124733 0.1560459
vt 1.124733 0.7810841
vt 0.8122139 0.7810841
vt 0.8122139 0.1560459
vt 0.8122139 0.1560459
vt 0.8122139 0.7810841
vt 0.4996948 0.7810841
vt 0.5003052 0.1560459
vt 0.5003052 0.1560459
vt 0.4996948 0.7810841
vt 0.1877861 0.7810841
vt 0.1877861 0.1560459
vt 0.1877861 0.1560459
vt 0.1877861 0.7810841
vt -0.124733 0.7810841
vt -0.124733 0.1560459
vt -0.124733 0.1560459
vt -0.124733 0.7810841
vt -0.437252 0.7810841
vt -0.437252 0.1560459
vt -0.437252 0.1560459
vt -0.437252 0.7810841
vt -0.7497711 0.7810841
vt -0.7497711 0.1560459
vt -0.7497711 0.1560459
vt -0.7497711 0.7810841
vt -1.06229 0.7810841
vt -1.06229 0.1560459
vt -1.06229 0.1560459
vt -1.06229 0.7810841
vt -1.374809 0.7810841
vt -1.374809 0.1560459
vt -1.374809 0.1560459
vt -1.374809 0.7810841
vt -1.687328 0.7810841
vt -1.687328 0.1560459
vt -1.687328 0.1560459
vt -1.687328 0.7810841
vt -1.999847 0.7810841
vt -1.999847 0.1560459
vt -1.999847 0.1560459
vt -1.999847 0.7810841
vt -2.312366 0.7810841
vt -2.312366 0.1560459
vt -2.312366 0.1560459
vt -2.312366 0.7810841
vt -2.624886 0.7810841
vt -2.624886 0.1560459
vt -2.624886 0.1560459
vt -2.624886 0.7810841
vt -2.937405 0.7810841
vt -2.937405 0.1560459
vt -2.937405 0.1560459
vt -2.937405 0.7810841
vt -3.249924 0.7810841
vt -3.249924 0.1560459
vt -3.249924 0.1560459
vt -3.249924 0.7810841
vt -3.562443 0.7810841
vt -3.562443 0.1560459
vt -3.562443 0.1560459
vt -3.562443 0.7810841
vt -3.874962 0.7810841
vt -3.874962 0.1560459
vt -3.874962 0.1560459
vt -3.874962 0.7810841
vt -4.187481 0.7810841
vt -4.187481 0.1560459
vt -4.187481 0.1560459
vt -4.187481 0.7810841
vt -4.5 0.7810841
vt -4.5 0.1560459
vt 5.5 0.1560459
vt 5.5 0.7810841
vt 5.187481 0.7810841
vt 5.187481 0.1560459
vt 5.187481 0.1560459
vt 5.187481 0.7810841
vt 4.874962 0.7810841
vt 4.874962 0.1560459
vt 4.874962 0.1560459
vt 4.874962 0.7810841
vt 4.562443 0.7810841
vt 4.562443 0.1560459
vt 4.562443 0.1560459
vt 4.562443 0.7810841
vt 4.249924 0.7810841
vt 4.249924 0.1560459
vt 4.249924 0.1560459
vt 4.249924 0.7810841
vt 3.937405 0.7810841
vt 3.937405 0.1560459
vt 3.937405 0.1560459
vt 3.937405 0.7810841
vt 3.624886 0.7810841
vt 3.624886 0.1560459
vt 3.624886 0.1560459
vt 3.624886 0.7810841
vt 3.312366 0.7810841
vt 3.312366 0.1560459
vt 3.312366 0.1560459
vt 3.312366 0.7810841
vt 2.999847 0.7810841
vt 2.999847 0.1560459
vn -0.09710175 -0.9904386 0.09799258
vn -0.09710175 -0.9904386 0.09799258
vn -0.09710175 -0.9904386 0.09799258
vn -0.09710175 -0.9904386 0.09799258
vn -0.2913054 -0.9515979 0.09799258
vn -0.2913054 -0.9515979 0.09799258
vn -0.2913054 -0.9515979 0.09799258
vn -0.2913054 -0.9515979 0.09799258
vn -0.4699728 -0.8739164 0.1240792
vn -0.4699728 -0.8739164 0.1240792
vn -0.4699728 -0.8739164 0.1240792
vn -0.4699728 -0.8739164 0.1240792
vn -0.6331038 -0.7729306 0.04192827
vn -0.6331038 -0.7729306 0.04192827
vn -0.6331038 -0.7729306 0.04192827
vn -0.6331038 -0.7729306 0.04192827
vn -0.7729304 -0.633104 0.0419272
vn -0.7729304 -0.633104 0.0419272
vn -0.7729304 -0.633104 0.0419272
vn -0.7729304 -0.633104 0.0419272
vn -0.8739163 -0.4699728 0.1240797
vn -0.8739163 -0.4699728 0.1240797
vn -0.8739163 -0.4699728 0.1240797
vn -0.8739163 -0.4699728 0.1240797
vn -0.9515978 -0.2913055 0.09799399
vn -0.9515978 -0.2913055 0.09799399
vn -0.9515978 -0.2913055 0.09799399
vn -0.9515978 -0.2913055 0.09799399
vn -0.9904385 -0.09710187 0.09799363
vn -0.9904385 -0.09710187 0.09799363
vn -0.9904385 -0.09710187 0.09799363
vn -0.9904385 -0.09710187 0.09799363
vn -0.9904385 0.09710175 0.09799375
vn -0.9904385 0.09710175 0.09799375
vn -0.9904385 0.09710175 0.09799375
vn -0.9904385 0.09710175 0.09799375
vn -0.9515978 0.2913054 0.09799452
vn -0.9515978 0.2913054 0.09799452
vn -0.9515978 0.2913054 0.09799452
vn -0.9515978 0.2913054 0.09799452
vn -0.8739163 0.4699728 0.1240799
vn -0.8739163 0.4699728 0.1240799
vn -0.8739163 0.4699728 0.1240799
vn -0.8739163 0.4699728 0.1240799
vn -0.7729304 0.6331038 0.04193004
vn -0.7729304 0.6331038 0.04193004
vn -0.7729304 0.6331038 0.04193004
vn -0.7729304 0.6331038 0.04193004
vn -0.6331038 0.7729304 0.0419304
vn -0.6331038 0.7729304 0.0419304
vn -0.6331038 0.7729304 0.0419304
vn -0.6331038 0.7729304 0.0419304
vn -0.4699728 0.8739163 0.1240799
vn -0.4699728 0.8739163 0.1240799
vn -0.4699728 0.8739163 0.1240799
vn -0.4699728 0.8739163 0.1240799
vn -0.2913054 0.9515978 0.09799441
vn -0.2913054 0.9515978 0.09799441
vn -0.2913054 0.9515978 0.09799441
vn -0.2913054 0.9515978 0.09799441
vn -0.09710175 0.9904385 0.0979938
vn -0.09710175 0.9904385 0.0979938
vn -0.09710175 0.9904385 0.0979938
vn -0.09710175 0.9904385 0.0979938
vn 0.09710187 0.9904385 0.0979935
vn 0.09710187 0.9904385 0.0979935
vn 0.09710187 0.9904385 0.0979935
vn 0.09710187 0.9904385 0.0979935
vn 0.2913055 0.9515978 0.0979941
vn 0.2913055 0.9515978 0.0979941
vn 0.2913055 0.9515978 0.0979941
vn 0.2913055 0.9515978 0.0979941
vn 0.4699728 0.8739163 0.1240797
vn 0.4699728 0.8739163 0.1240797
vn 0.4699728 0.8739163 0.1240797
vn 0.4699728 0.8739163 0.1240797
vn 0.633104 0.7729304 0.04192755
vn 0.633104 0.7729304 0.04192755
vn 0.633104 0.7729304 0.04192755
vn 0.633104 0.7729304 0.04192755
vn 0.7729306 0.6331038 0.04192791
vn 0.7729306 0.6331038 0.04192791
vn 0.7729306 0.6331038 0.04192791
vn 0.7729306 0.6331038 0.04192791
vn 0.8739164 0.4699728 0.1240792
vn 0.8739164 0.4699728 0.1240792
vn 0.8739164 0.4699728 0.1240792
vn 0.8739164 0.4699728 0.1240792
vn 0.9515979 0.2913054 0.0979927
vn 0.9515979 0.2913054 0.0979927
vn 0.9515979 0.2913054 0.0979927
vn 0.9515979 0.2913054 0.0979927
vn 0.9904386 0.09710175 0.09799253
vn 0.9904386 0.09710175 0.09799253
vn 0.9904386 0.09710175 0.09799253
vn 0.9904386 0.09710175 0.09799253
vn 0.9904386 -0.09710187 0.09799241
vn 0.9904386 -0.09710187 0.09799241
vn 0.9904386 -0.09710187 0.09799241
vn 0.9904386 -0.09710187 0.09799241
vn 0.9515979 -0.2913055 0.09799217
vn 0.9515979 -0.2913055 0.09799217
vn 0.9515979 -0.2913055 0.09799217
vn 0.9515979 -0.2913055 0.09799217
vn 0.8739164 -0.4699728 0.124079
vn 0.8739164 -0.4699728 0.124079
vn 0.8739164 -0.4699728 0.124079
vn 0.8739164 -0.4699728 0.124079
vn 0.7729306 -0.633104 0.04192507
vn 0.7729306 -0.633104 0.04192507
vn 0.7729306 -0.633104 0.04192507
vn 0.7729306 -0.633104 0.04192507
vn 0.633104 -0.7729306 0.04192542
vn 0.633104 -0.7729306 0.04192542
vn 0.633104 -0.7729306 0.04192542
vn 0.633104 -0.7729306 0.04192542
vn 0.4699728 -0.8739164 0.1240789
vn 0.4699728 -0.8739164 0.1240789
vn 0.4699728 -0.8739164 0.1240789
vn 0.4699728 -0.8739164 0.1240789
vn 0.2913055 -0.9515979 0.09799228
vn 0.2913055 -0.9515979 0.09799228
vn 0.2913055 -0.9515979 0.09799228
vn 0.2913055 -0.9515979 0.09799228
vn 0.09710187 -0.9904386 0.09799228
vn 0.09710187 -0.9904386 0.09799228
vn 0.09710187 -0.9904386 0.09799228
vn 0.09710187 -0.9904386 0.09799228
g flight_ring_0
f 3/3/3 2/2/2 1/1/1
f 4/4/4 3/3/3 1/1/1
f 7/7/7 6/6/6 5/5/5
f 8/8/8 7/7/7 5/5/5
f 11/11/11 10/10/10 9/9/9
f 12/12/12 11/11/11 9/9/9
f 15/15/15 14/14/14 13/13/13
f 16/16/16 15/15/15 13/13/13
f 19/19/19 18/18/18 17/17/17
f 20/20/20 19/19/19 17/17/17
f 23/23/23 22/22/22 21/21/21
f 24/24/24 23/23/23 21/21/21
f 27/27/27 26/26/26 25/25/25
f 28/28/28 27/27/27 25/25/25
f 31/31/31 30/30/30 29/29/29
f 32/32/32 31/31/31 29/29/29
f 35/35/35 34/34/34 33/33/33
f 36/36/36 35/35/35 33/33/33
f 39/39/39 38/38/38 37/37/37
f 40/40/40 39/39/39 37/37/37
f 43/43/43 42/42/42 41/41/41
f 44/44/44 43/43/43 41/41/41
f 47/47/47 46/46/46 45/45/45
f 48/48/48 47/47/47 45/45/45
f 51/51/51 50/50/50 49/49/49
f 52/52/52 51/51/51 49/49/49
f 55/55/55 54/54/54 53/53/53
f 56/56/56 55/55/55 53/53/53
f 59/59/59 58/58/58 57/57/57
f 60/60/60 59/59/59 57/57/57
f 63/63/63 62/62/62 61/61/61
f 64/64/64 63/63/63 61/61/61
f 67/67/67 66/66/66 65/65/65
f 68/68/68 67/67/67 65/65/65
f 71/71/71 70/70/70 69/69/69
f 72/72/72 71/71/71 69/69/69
f 75/75/75 74/74/74 73/73/73
f 76/76/76 75/75/75 73/73/73
f 79/79/79 78/78/78 77/77/77
f 80/80/80 79/79/79 77/77/77
f 83/83/83 82/82/82 81/81/81
f 84/84/84 83/83/83 81/81/81
f 87/87/87 86/86/86 85/85/85
f 88/88/88 87/87/87 85/85/85
f 91/91/91 90/90/90 89/89/89
f 92/92/92 91/91/91 89/89/89
f 95/95/95 94/94/94 93/93/93
f 96/96/96 95/95/95 93/93/93
f 99/99/99 98/98/98 97/97/97
f 100/100/100 99/99/99 97/97/97
f 103/103/103 102/102/102 101/101/101
f 104/104/104 103/103/103 101/101/101
f 107/107/107 106/106/106 105/105/105
f 108/108/108 107/107/107 105/105/105
f 111/111/111 110/110/110 109/109/109
f 112/112/112 111/111/111 109/109/109
f 115/115/115 114/114/114 113/113/113
f 116/116/116 115/115/115 113/113/113
f 119/119/119 118/118/118 117/117/117
f 120/120/120 119/119/119 117/117/117
f 123/123/123 122/122/122 121/121/121
f 124/124/124 123/123/123 121/121/121
f 127/127/127 126/126/126 125/125/125
f 128/128/128 127/127/127 125/125/125
