g frenzyplantroot2
v -0.006121522 0.016619246 -0.018096063
v -0.00800197 0.015740428 -0.015463088
v -0.0064019095 0.016627356 -0.018390935
v -0.007007871 0.016105976 -0.015151418
v -0.0056123063 0.01648195 -0.017826684
v -0.007435983 0.015575904 -0.010164695
v -0.006382212 0.015679602 -0.015443391
v -0.0054292437 0.01616912 -0.017823208
v -0.0064187087 0.016052678 -0.01065711
v -0.0062756184 0.015018027 -0.015644412
v -0.0055984017 0.015928704 -0.018105913
v -0.0052201115 0.016078167 -0.007440187
v -0.0059477277 0.015619934 -0.005991906
v -0.0057403333 0.015352868 -0.011206299
v -0.006882159 0.014661748 -0.015786344
v -0.006121522 0.01586556 -0.018384561
v -0.00445484 0.015366774 -0.008268025
v -0.0029463097 0.01528335 -0.00439474
v -0.0035777595 0.014478106 -0.002577437
v -0.0060386807 0.014312424 -0.011447293
v -0.007949833 0.014888838 -0.015687283
v -0.0064019095 0.016627356 -0.018390935
v -0.00800197 0.015740428 -0.015463088
v -0.00673791 0.013960201 -0.011015705
v -0.007766191 0.014491431 -0.010521552
v -0.007435983 0.015575904 -0.010164695
v -0.0059477277 0.015619934 -0.005991906
v -0.006502131 0.013851289 -0.006159327
v -0.0035777595 0.014478106 -0.002577437
v -0.0047531854 0.014322851 -0.008409377
v -0.005948307 0.013735428 -0.0078874165
v -0.0051291585 0.012940031 -0.0046461616
v -0.0012970064 0.013322957 -0.0008099545
v -0.004529571 0.01295799 -0.0061628027
v -0.0021416433 0.011927392 -0.0021139868
v 0.00046004914 0.012021244 0.00044947118
v -0.0033298135 0.013733689 -0.0068730405
v -0.0014690626 0.011856716 -0.004436452
v -0.0006551277 0.010302421 -0.0012635551
v 0.0021151453 0.009054583 0.0014829654
v -0.0029167645 0.014801364 -0.006411328
v -0.0007124804 0.012966681 -0.0051559573
v 0.00011477806 0.010074172 -0.003488116
v 0.0009710025 0.008413862 0.0003509894
v 0.0025635324 0.0061499085 0.0023924857
v -6.7126006E-05 0.013816532 -0.0044289194
v 0.0012629759 0.011105347 -0.004079595
v 0.0011164099 0.008090027 -0.0029731076
v 0.00094377436 0.0054164976 0.0009639021
v 0.001920497 0.0035088211 0.0027667228
v -0.00037242286 0.014347762 -0.0018220134
v -0.0012970064 0.013322957 -0.0008099545
v 0.0024210233 0.01227672 -0.0029991772
v 0.0022391174 0.01288268 -0.00037199445
v 0.00046004914 0.012021244 0.00044947118
v 0.0031214114 0.008826911 -0.0034301858
v 0.0018984824 0.0056557544 -0.0026573818
v -0.0007964801 0.0024845973 0.00035562366
v 0.00067844987 0.0008138586 0.003076654
v 0.00416765 0.009514555 0.0006360095
v 0.0021151453 0.009054583 0.0014829654
v 0.0049265493 0.009405645 -0.0018498208
v 0.0038976911 0.0062263776 -0.0032685567
v 0.00063963607 0.0024660584 -0.002424499
v -0.0027001016 -7.075071E-05 0.0006053075
v -0.0018977541 -0.0020942893 0.0030245166
v -0.0034352485 -0.0020925514 0.000786053
v -0.000951156 4.8007816E-05 -0.0025988705
v -0.004070176 -0.0020977668 -0.0024436153
v 0.004855294 0.0066521727 0.0012871586
v 0.0025635324 0.0061499085 0.0023924857
v 0.005574221 0.0066000335 -0.0015543699
v 0.00355242 0.003267249 -0.0035657436
v 0.0028363895 0.00090770796 -0.003986325
v 0.00213716 -0.0021052975 -0.0042684507
v 0.005840705 0.0038778447 -0.0014130194
v 0.004855294 0.004048161 0.0016544424
v 0.001920497 0.0035088211 0.0027667228
v 0.0052990476 0.0011579711 -0.0015595853
v 0.0047828797 -0.0021174625 -0.002143532
v 0.0040981323 0.0012576133 0.0018461943
v 0.00067844987 0.0008138586 0.003076654
v 0.0031486396 -0.0021215174 0.0017367043
v -0.0018977541 -0.0020942893 0.0030245166
v -0.006121522 0.016619246 -0.018096063
v -0.0064019095 0.016627356 -0.018390935
v -0.0034566838 0.017580904 -0.020384349
v -0.0056123063 0.01648195 -0.017826684
v -0.006121522 0.01586556 -0.018384561
v -0.0054292437 0.01616912 -0.017823208
v -0.0055984017 0.015928704 -0.018105913
vt 0.5969688 0.3080539
vt 0.6970879 0.4129405
vt 0.6970879 0.3080539
vt 0.5969688 0.4129405
vt 0.49684978 0.3080539
vt 0.6970879 0.51782715
vt 0.49684978 0.4129405
vt 0.39673075 0.3080539
vt 0.5969688 0.51782715
vt 0.39673075 0.4129405
vt 0.29756525 0.3080539
vt 0.5969688 0.5702704
vt 0.6970879 0.5702704
vt 0.49684978 0.51782715
vt 0.29756525 0.4129405
vt 0.19839975 0.3080539
vt 0.49684978 0.5702704
vt 0.5969688 0.62271374
vt 0.6970879 0.62271374
vt 0.39673075 0.51782715
vt 0.19839975 0.4129405
vt 0.09828072 0.3080539
vt 0.09828072 0.4129405
vt 0.29756525 0.51782715
vt 0.19839975 0.51782715
vt 0.09828072 0.51782715
vt 0.09828072 0.5702704
vt 0.19839975 0.5702704
vt 0.09828072 0.62271374
vt 0.39673075 0.5702704
vt 0.29756525 0.5702704
vt 0.19839975 0.62271374
vt 0.09828072 0.675157
vt 0.29756525 0.62271374
vt 0.19839975 0.675157
vt 0.09828072 0.72760034
vt 0.39673075 0.62271374
vt 0.29756525 0.675157
vt 0.19839975 0.72760034
vt 0.09828072 0.7800436
vt 0.49684978 0.62271374
vt 0.39673075 0.675157
vt 0.29756525 0.72760034
vt 0.19839975 0.7800436
vt 0.09828072 0.8324869
vt 0.49684978 0.675157
vt 0.39673075 0.72760034
vt 0.29756525 0.7800436
vt 0.19839975 0.8324869
vt 0.09828072 0.88493025
vt 0.5969688 0.675157
vt 0.6970879 0.675157
vt 0.49684978 0.72760034
vt 0.5969688 0.72760034
vt 0.6970879 0.72760034
vt 0.39673075 0.7800436
vt 0.29756525 0.8324869
vt 0.19839975 0.88493025
vt 0.09828072 0.9373735
vt 0.5969688 0.7800436
vt 0.6970879 0.7800436
vt 0.49684978 0.7800436
vt 0.39673075 0.8324869
vt 0.29756525 0.88493025
vt 0.19839975 0.9373735
vt 0.09828072 0.98981684
vt 0.19839975 0.98981684
vt 0.29756525 0.9373735
vt 0.29756525 0.98981684
vt 0.5969688 0.8324869
vt 0.6970879 0.8324869
vt 0.49684978 0.8324869
vt 0.39673075 0.88493025
vt 0.39673075 0.9373735
vt 0.39673075 0.98981684
vt 0.49684978 0.88493025
vt 0.5969688 0.88493025
vt 0.6970879 0.88493025
vt 0.49684978 0.9373735
vt 0.49684978 0.98981684
vt 0.5969688 0.9373735
vt 0.6970879 0.9373735
vt 0.5969688 0.98981684
vt 0.6961343 0.98981684
vt 0.13737482 0.014371438
vt 0.25751764 0.083978
vt 0.13737482 0.15263104
vt 0.017231982 0.083978
vt 0.25751764 0.2222376
vt 0.017231982 0.2222376
vt 0.13737482 0.29089063
vn -0.070634305 0.9685363 0.23863819
vn -0.8592265 0.50006574 -0.10800015
vn -0.7733403 0.3985638 -0.49304333
vn 0.0074440837 0.9997677 0.020225396
vn 0.53056955 0.7108775 0.46168083
vn -0.79676384 0.57814413 0.1758316
vn 0.88192254 0.46883434 0.049060877
vn 0.90534604 -0.32756567 0.27027637
vn 0.0152519345 0.9997677 -0.015227018
vn 0.84275585 -0.538296 -0
vn 0.31194997 -0.90534604 -0.28815928
vn 0.06975276 0.9975643 -0
vn -0.6171834 0.6327991 0.46760023
vn 0.8897304 0.3985638 -0.22254597
vn -0.008171618 -0.97561663 -0.21932948
vn -0.4922579 -0.56180096 -0.6648773
vn 0.75699705 0.5234893 -0.3910427
vn 0.21044803 0.9685363 0.13284951
vn -0.539105 0.39075595 0.746107
vn 0.75699705 -0.61645585 -0.21665098
vn -0.79676384 -0.5696088 -0.2017751
vn -0.7733403 0.3985638 -0.49304333
vn -0.8592265 0.50006574 -0.10800015
vn -0.07844216 -0.99123234 -0.10632625
vn -0.90607363 -0.40564406 0.1203474
vn -0.79676384 0.57814413 0.1758316
vn -0.6171834 0.6327991 0.46760023
vn -0.8982658 -0.22606367 0.37684718
vn -0.539105 0.39075595 0.746107
vn 0.63207155 -0.608648 -0.4796177
vn -0.12528926 -0.97561663 -0.18020754
vn -0.7030696 -0.59303236 0.3924356
vn -0.4610265 0.3204853 0.8274925
vn -0.13309711 -0.93657744 -0.3242034
vn -0.7030696 -0.5852245 0.4039868
vn -0.26583046 0.28144616 0.92202073
vn 0.4290676 -0.4837225 -0.7628326
vn -0.2424069 -0.858499 -0.45190528
vn -0.8279951 -0.4837225 0.28361353
vn -0.14871281 0.2580226 0.95462495
vn 0.6242637 0.6484148 -0.43572134
vn 0.40564406 -0.23387152 -0.8836045
vn -0.5547207 -0.63987935 -0.53182644
vn -0.9294972 -0.17140877 0.32657924
vn -0.10967356 0.21898335 0.96954525
vn 0.5852245 0.7030696 -0.4039869
vn 0.3431813 -0.06209898 -0.93721414
vn -0.74991673 -0.37441272 -0.5453806
vn -0.94511276 0.2424069 0.21909076
vn -0.17213637 0.20336765 0.963852
vn 0.30414212 0.9294972 0.20864455
vn -0.4610265 0.3204853 0.8274925
vn 0.7257657 0.59375983 -0.34743837
vn 0.56180096 0.7264932 0.3957112
vn -0.26583046 0.28144616 0.92202073
vn 0.358797 0.02378732 -0.93311244
vn -0.7577246 0.09405786 -0.6457604
vn -0.8514187 0.5234893 0.03232905
vn -0.10186571 0.11748141 0.9878368
vn 0.70234215 0.46883434 0.5356397
vn -0.14871281 0.2580226 0.95462495
vn 0.8897304 0.39075595 -0.23598641
vn 0.32756567 0.02378732 -0.94452894
vn -0.6796462 0.3985638 -0.61581486
vn -0.78114814 0.59375983 0.1930203
vn -0.32829314 0.23459905 0.91497916
vn -0.74991673 0.60937554 0.2574613
vn -0.54691285 0.42198735 -0.7230581
vn -0.6484148 0.57814413 -0.4952854
vn 0.75699705 0.20336765 0.6209646
vn -0.10967356 0.21898335 0.96954525
vn 0.9678088 0.14090496 -0.2085472
vn 0.23387152 0.062826574 -0.97023547
vn 0.16360092 0.14871281 -0.9752534
vn 0.06990683 0.17213637 -0.9825895
vn 0.9834245 -0.07771468 -0.16381906
vn 0.75699705 -0.038675427 0.6522727
vn -0.17213637 0.20336765 0.963852
vn 0.97561663 -0.18702447 -0.11486523
vn 0.960001 -0.16360092 -0.22722863
vn 0.68672645 -0.18702447 0.70244473
vn -0.10186571 0.11748141 0.9878368
vn 0.61645585 -0.22606367 0.7542396
vn -0.32829314 0.23459905 0.91497916
vn -0.070634305 0.9685363 0.23863819
vn -0.7733403 0.3985638 -0.49304333
vn -0.15652066 -0.0074440837 -0.98764664
vn 0.53056955 0.7108775 0.46168083
vn -0.4922579 -0.56180096 -0.6648773
vn 0.90534604 -0.32756567 0.27027637
vn 0.31194997 -0.90534604 -0.28815928
g frenzyplantroot2_0
f 3/3/3 2/2/2 1/1/1
f 2/2/2 4/4/4 1/1/1
f 1/1/1 4/4/4 5/5/5
f 2/2/2 6/6/6 4/4/4
f 4/4/4 7/7/7 5/5/5
f 5/5/5 7/7/7 8/8/8
f 6/6/6 9/9/9 4/4/4
f 4/4/4 9/9/9 7/7/7
f 7/7/7 10/10/10 8/8/8
f 8/8/8 10/10/10 11/11/11
f 12/12/12 9/9/9 6/6/6
f 13/13/13 12/12/12 6/6/6
f 9/9/9 14/14/14 7/7/7
f 7/7/7 14/14/14 10/10/10
f 10/10/10 15/15/15 11/11/11
f 11/11/11 15/15/15 16/16/16
f 12/12/12 17/17/17 9/9/9
f 17/17/17 14/14/14 9/9/9
f 18/18/18 12/12/12 13/13/13
f 19/19/19 18/18/18 13/13/13
f 14/14/14 20/20/20 10/10/10
f 10/10/10 20/20/20 15/15/15
f 15/15/15 21/21/21 16/16/16
f 16/16/16 21/21/21 22/22/22
f 21/21/21 23/23/23 22/22/22
f 15/15/15 24/24/24 21/21/21
f 20/20/20 24/24/24 15/15/15
f 21/21/21 25/25/25 23/23/23
f 24/24/24 25/25/25 21/21/21
f 25/25/25 26/26/26 23/23/23
f 27/27/27 26/26/26 25/25/25
f 28/28/28 27/27/27 25/25/25
f 28/28/28 25/25/25 24/24/24
f 29/29/29 27/27/27 28/28/28
f 30/30/30 20/20/20 14/14/14
f 17/17/17 30/30/30 14/14/14
f 31/31/31 24/24/24 20/20/20
f 31/31/31 28/28/28 24/24/24
f 30/30/30 31/31/31 20/20/20
f 32/32/32 29/29/29 28/28/28
f 32/32/32 28/28/28 31/31/31
f 33/33/33 29/29/29 32/32/32
f 34/34/34 31/31/31 30/30/30
f 34/34/34 32/32/32 31/31/31
f 35/35/35 33/33/33 32/32/32
f 35/35/35 32/32/32 34/34/34
f 36/36/36 33/33/33 35/35/35
f 37/37/37 30/30/30 17/17/17
f 37/37/37 34/34/34 30/30/30
f 38/38/38 35/35/35 34/34/34
f 38/38/38 34/34/34 37/37/37
f 39/39/39 36/36/36 35/35/35
f 39/39/39 35/35/35 38/38/38
f 40/40/40 36/36/36 39/39/39
f 41/41/41 37/37/37 17/17/17
f 41/41/41 17/17/17 12/12/12
f 18/18/18 41/41/41 12/12/12
f 42/42/42 38/38/38 37/37/37
f 42/42/42 37/37/37 41/41/41
f 43/43/43 39/39/39 38/38/38
f 43/43/43 38/38/38 42/42/42
f 44/44/44 40/40/40 39/39/39
f 44/44/44 39/39/39 43/43/43
f 45/45/45 40/40/40 44/44/44
f 46/46/46 41/41/41 18/18/18
f 46/46/46 42/42/42 41/41/41
f 47/47/47 43/43/43 42/42/42
f 47/47/47 42/42/42 46/46/46
f 48/48/48 44/44/44 43/43/43
f 48/48/48 43/43/43 47/47/47
f 49/49/49 45/45/45 44/44/44
f 49/49/49 44/44/44 48/48/48
f 50/50/50 45/45/45 49/49/49
f 51/51/51 46/46/46 18/18/18
f 51/51/51 18/18/18 19/19/19
f 52/52/52 51/51/51 19/19/19
f 53/53/53 47/47/47 46/46/46
f 53/53/53 46/46/46 51/51/51
f 54/54/54 51/51/51 52/52/52
f 54/54/54 53/53/53 51/51/51
f 55/55/55 54/54/54 52/52/52
f 56/56/56 48/48/48 47/47/47
f 56/56/56 47/47/47 53/53/53
f 57/57/57 49/49/49 48/48/48
f 57/57/57 48/48/48 56/56/56
f 58/58/58 50/50/50 49/49/49
f 58/58/58 49/49/49 57/57/57
f 59/59/59 50/50/50 58/58/58
f 60/60/60 54/54/54 55/55/55
f 61/61/61 60/60/60 55/55/55
f 62/62/62 53/53/53 54/54/54
f 62/62/62 56/56/56 53/53/53
f 60/60/60 62/62/62 54/54/54
f 63/63/63 57/57/57 56/56/56
f 63/63/63 56/56/56 62/62/62
f 64/64/64 58/58/58 57/57/57
f 64/64/64 57/57/57 63/63/63
f 65/65/65 59/59/59 58/58/58
f 65/65/65 58/58/58 64/64/64
f 66/66/66 59/59/59 65/65/65
f 67/67/67 66/66/66 65/65/65
f 67/67/67 65/65/65 68/68/68
f 68/68/68 65/65/65 64/64/64
f 69/69/69 67/67/67 68/68/68
f 70/70/70 60/60/60 61/61/61
f 71/71/71 70/70/70 61/61/61
f 72/72/72 62/62/62 60/60/60
f 72/72/72 63/63/63 62/62/62
f 70/70/70 72/72/72 60/60/60
f 73/73/73 64/64/64 63/63/63
f 68/68/68 64/64/64 73/73/73
f 73/73/73 63/63/63 72/72/72
f 69/69/69 68/68/68 74/74/74
f 74/74/74 68/68/68 73/73/73
f 75/75/75 69/69/69 74/74/74
f 76/76/76 73/73/73 72/72/72
f 76/76/76 72/72/72 70/70/70
f 74/74/74 73/73/73 76/76/76
f 77/77/77 70/70/70 71/71/71
f 77/77/77 76/76/76 70/70/70
f 78/78/78 77/77/77 71/71/71
f 75/75/75 74/74/74 79/79/79
f 79/79/79 74/74/74 76/76/76
f 79/79/79 76/76/76 77/77/77
f 80/80/80 75/75/75 79/79/79
f 81/81/81 77/77/77 78/78/78
f 81/81/81 79/79/79 77/77/77
f 80/80/80 79/79/79 81/81/81
f 82/82/82 81/81/81 78/78/78
f 83/83/83 80/80/80 81/81/81
f 83/83/83 81/81/81 82/82/82
f 84/84/84 83/83/83 82/82/82
f 87/87/87 86/86/86 85/85/85
f 87/87/87 85/85/85 88/88/88
f 87/87/87 89/89/89 86/86/86
f 87/87/87 88/88/88 90/90/90
f 87/87/87 91/91/91 89/89/89
f 87/87/87 90/90/90 91/91/91
