g frenzyplantroot2
v -0.006121522 0.01661925 -0.01809606
v -0.00800197 0.01574043 -0.01546309
v -0.00640191 0.01662736 -0.01839093
v -0.007007871 0.01610598 -0.01515142
v -0.005612306 0.01648195 -0.01782668
v -0.007435983 0.0155759 -0.01016469
v -0.006382212 0.0156796 -0.01544339
v -0.005429244 0.01616912 -0.01782321
v -0.006418709 0.01605268 -0.01065711
v -0.006275618 0.01501803 -0.01564441
v -0.005598402 0.0159287 -0.01810591
v -0.005220111 0.01607817 -0.007440187
v -0.005947728 0.01561993 -0.005991906
v -0.005740333 0.01535287 -0.0112063
v -0.006882159 0.01466175 -0.01578634
v -0.006121522 0.01586556 -0.01838456
v -0.00445484 0.01536677 -0.008268025
v -0.00294631 0.01528335 -0.00439474
v -0.003577759 0.01447811 -0.002577437
v -0.006038681 0.01431242 -0.01144729
v -0.007949833 0.01488884 -0.01568728
v -0.00640191 0.01662736 -0.01839093
v -0.00800197 0.01574043 -0.01546309
v -0.00673791 0.0139602 -0.0110157
v -0.007766191 0.01449143 -0.01052155
v -0.007435983 0.0155759 -0.01016469
v -0.005947728 0.01561993 -0.005991906
v -0.006502131 0.01385129 -0.006159327
v -0.003577759 0.01447811 -0.002577437
v -0.004753185 0.01432285 -0.008409377
v -0.005948307 0.01373543 -0.007887417
v -0.005129158 0.01294003 -0.004646162
v -0.001297006 0.01332296 -0.0008099545
v -0.004529571 0.01295799 -0.006162803
v -0.002141643 0.01192739 -0.002113987
v 0.0004600491 0.01202124 0.0004494712
v -0.003329813 0.01373369 -0.00687304
v -0.001469063 0.01185672 -0.004436452
v -0.0006551277 0.01030242 -0.001263555
v 0.002115145 0.009054583 0.001482965
v -0.002916764 0.01480136 -0.006411328
v -0.0007124804 0.01296668 -0.005155957
v 0.0001147781 0.01007417 -0.003488116
v 0.0009710025 0.008413862 0.0003509894
v 0.002563532 0.006149909 0.002392486
v -6.712601E-05 0.01381653 -0.004428919
v 0.001262976 0.01110535 -0.004079595
v 0.00111641 0.008090027 -0.002973108
v 0.0009437744 0.005416498 0.0009639021
v 0.001920497 0.003508821 0.002766723
v -0.0003724229 0.01434776 -0.001822013
v -0.001297006 0.01332296 -0.0008099545
v 0.002421023 0.01227672 -0.002999177
v 0.002239117 0.01288268 -0.0003719945
v 0.0004600491 0.01202124 0.0004494712
v 0.003121411 0.008826911 -0.003430186
v 0.001898482 0.005655754 -0.002657382
v -0.0007964801 0.002484597 0.0003556237
v 0.0006784499 0.0008138586 0.003076654
v 0.00416765 0.009514555 0.0006360095
v 0.002115145 0.009054583 0.001482965
v 0.004926549 0.009405645 -0.001849821
v 0.003897691 0.006226378 -0.003268557
v 0.0006396361 0.002466058 -0.002424499
v -0.002700102 -7.075071E-05 0.0006053075
v -0.001897754 -0.002094289 0.003024517
v -0.003435249 -0.002092551 0.000786053
v -0.000951156 4.800782E-05 -0.002598871
v -0.004070176 -0.002097767 -0.002443615
v 0.004855294 0.006652173 0.001287159
v 0.002563532 0.006149909 0.002392486
v 0.005574221 0.006600033 -0.00155437
v 0.00355242 0.003267249 -0.003565744
v 0.002836389 0.000907708 -0.003986325
v 0.00213716 -0.002105298 -0.004268451
v 0.005840705 0.003877845 -0.001413019
v 0.004855294 0.004048161 0.001654442
v 0.001920497 0.003508821 0.002766723
v 0.005299048 0.001157971 -0.001559585
v 0.00478288 -0.002117462 -0.002143532
v 0.004098132 0.001257613 0.001846194
v 0.0006784499 0.0008138586 0.003076654
v 0.00314864 -0.002121517 0.001736704
v -0.001897754 -0.002094289 0.003024517
v -0.005429244 0.01616912 -0.01782321
v -0.005612306 0.01648195 -0.01782668
v -0.003456684 0.0175809 -0.02038435
v -0.005598402 0.0159287 -0.01810591
v -0.006121522 0.01661925 -0.01809606
v -0.006121522 0.01586556 -0.01838456
v -0.00640191 0.01662736 -0.01839093
vt 0.5969688 0.3080539
vt 0.6970879 0.4129405
vt 0.6970879 0.3080539
vt 0.5969688 0.4129405
vt 0.4968498 0.3080539
vt 0.6970879 0.5178272
vt 0.4968498 0.4129405
vt 0.3967308 0.3080539
vt 0.5969688 0.5178272
vt 0.3967308 0.4129405
vt 0.2975653 0.3080539
vt 0.5969688 0.5702704
vt 0.6970879 0.5702704
vt 0.4968498 0.5178272
vt 0.2975653 0.4129405
vt 0.1983998 0.3080539
vt 0.4968498 0.5702704
vt 0.5969688 0.6227137
vt 0.6970879 0.6227137
vt 0.3967308 0.5178272
vt 0.1983998 0.4129405
vt 0.09828072 0.3080539
vt 0.09828072 0.4129405
vt 0.2975653 0.5178272
vt 0.1983998 0.5178272
vt 0.09828072 0.5178272
vt 0.09828072 0.5702704
vt 0.1983998 0.5702704
vt 0.09828072 0.6227137
vt 0.3967308 0.5702704
vt 0.2975653 0.5702704
vt 0.1983998 0.6227137
vt 0.09828072 0.675157
vt 0.2975653 0.6227137
vt 0.1983998 0.675157
vt 0.09828072 0.7276003
vt 0.3967308 0.6227137
vt 0.2975653 0.675157
vt 0.1983998 0.7276003
vt 0.09828072 0.7800436
vt 0.4968498 0.6227137
vt 0.3967308 0.675157
vt 0.2975653 0.7276003
vt 0.1983998 0.7800436
vt 0.09828072 0.8324869
vt 0.4968498 0.675157
vt 0.3967308 0.7276003
vt 0.2975653 0.7800436
vt 0.1983998 0.8324869
vt 0.09828072 0.8849303
vt 0.5969688 0.675157
vt 0.6970879 0.675157
vt 0.4968498 0.7276003
vt 0.5969688 0.7276003
vt 0.6970879 0.7276003
vt 0.3967308 0.7800436
vt 0.2975653 0.8324869
vt 0.1983998 0.8849303
vt 0.09828072 0.9373735
vt 0.5969688 0.7800436
vt 0.6970879 0.7800436
vt 0.4968498 0.7800436
vt 0.3967308 0.8324869
vt 0.2975653 0.8849303
vt 0.1983998 0.9373735
vt 0.09828072 0.9898168
vt 0.1983998 0.9898168
vt 0.2975653 0.9373735
vt 0.2975653 0.9898168
vt 0.5969688 0.8324869
vt 0.6970879 0.8324869
vt 0.4968498 0.8324869
vt 0.3967308 0.8849303
vt 0.3967308 0.9373735
vt 0.3967308 0.9898168
vt 0.4968498 0.8849303
vt 0.5969688 0.8849303
vt 0.6970879 0.8849303
vt 0.4968498 0.9373735
vt 0.4968498 0.9898168
vt 0.5969688 0.9373735
vt 0.6970879 0.9373735
vt 0.5969688 0.9898168
vt 0.6961343 0.9898168
vt 0.01723198 0.2222376
vt 0.01723198 0.083978
vt 0.1373748 0.152631
vt 0.1373748 0.2908906
vt 0.1373748 0.01437144
vt 0.2575176 0.2222376
vt 0.2575176 0.083978
vn -0.07063431 0.9685363 0.2386382
vn -0.8592265 0.5000657 -0.1080002
vn -0.7733403 0.3985638 -0.4930433
vn 0.007444084 0.9997677 0.0202254
vn 0.5305696 0.7108775 0.4616808
vn -0.7967638 0.5781441 0.1758316
vn 0.8819225 0.4688343 0.04906088
vn 0.905346 -0.3275657 0.2702764
vn 0.01525193 0.9997677 -0.01522702
vn 0.8427559 -0.538296 0
vn 0.31195 -0.905346 -0.2881593
vn 0.06975276 0.9975643 0
vn -0.6171834 0.6327991 0.4676002
vn 0.8897304 0.3985638 -0.222546
vn -0.008171618 -0.9756166 -0.2193295
vn -0.4922579 -0.561801 -0.6648773
vn 0.756997 0.5234893 -0.3910427
vn 0.210448 0.9685363 0.1328495
vn -0.539105 0.390756 0.746107
vn 0.756997 -0.6164559 -0.216651
vn -0.7967638 -0.5696088 -0.2017751
vn -0.7733403 0.3985638 -0.4930433
vn -0.8592265 0.5000657 -0.1080002
vn -0.07844216 -0.9912323 -0.1063263
vn -0.9060736 -0.4056441 0.1203474
vn -0.7967638 0.5781441 0.1758316
vn -0.6171834 0.6327991 0.4676002
vn -0.8982658 -0.2260637 0.3768472
vn -0.539105 0.390756 0.746107
vn 0.6320716 -0.608648 -0.4796177
vn -0.1252893 -0.9756166 -0.1802075
vn -0.7030696 -0.5930324 0.3924356
vn -0.4610265 0.3204853 0.8274925
vn -0.1330971 -0.9365774 -0.3242034
vn -0.7030696 -0.5852245 0.4039868
vn -0.2658305 0.2814462 0.9220207
vn 0.4290676 -0.4837225 -0.7628326
vn -0.2424069 -0.858499 -0.4519053
vn -0.8279951 -0.4837225 0.2836135
vn -0.1487128 0.2580226 0.954625
vn 0.6242637 0.6484148 -0.4357213
vn 0.4056441 -0.2338715 -0.8836045
vn -0.5547207 -0.6398793 -0.5318264
vn -0.9294972 -0.1714088 0.3265792
vn -0.1096736 0.2189834 0.9695452
vn 0.5852245 0.7030696 -0.4039869
vn 0.3431813 -0.06209898 -0.9372141
vn -0.7499167 -0.3744127 -0.5453806
vn -0.9451128 0.2424069 0.2190908
vn -0.1721364 0.2033677 0.963852
vn 0.3041421 0.9294972 0.2086446
vn -0.4610265 0.3204853 0.8274925
vn 0.7257657 0.5937598 -0.3474384
vn 0.561801 0.7264932 0.3957112
vn -0.2658305 0.2814462 0.9220207
vn 0.358797 0.02378732 -0.9331124
vn -0.7577246 0.09405786 -0.6457604
vn -0.8514187 0.5234893 0.03232905
vn -0.1018657 0.1174814 0.9878368
vn 0.7023422 0.4688343 0.5356397
vn -0.1487128 0.2580226 0.954625
vn 0.8897304 0.390756 -0.2359864
vn 0.3275657 0.02378732 -0.9445289
vn -0.6796462 0.3985638 -0.6158149
vn -0.7811481 0.5937598 0.1930203
vn -0.3282931 0.2345991 0.9149792
vn -0.7499167 0.6093755 0.2574613
vn -0.5469128 0.4219874 -0.7230581
vn -0.6484148 0.5781441 -0.4952854
vn 0.756997 0.2033677 0.6209646
vn -0.1096736 0.2189834 0.9695452
vn 0.9678088 0.140905 -0.2085472
vn 0.2338715 0.06282657 -0.9702355
vn 0.1636009 0.1487128 -0.9752534
vn 0.06990683 0.1721364 -0.9825895
vn 0.9834245 -0.07771468 -0.1638191
vn 0.756997 -0.03867543 0.6522727
vn -0.1721364 0.2033677 0.963852
vn 0.9756166 -0.1870245 -0.1148652
vn 0.960001 -0.1636009 -0.2272286
vn 0.6867265 -0.1870245 0.7024447
vn -0.1018657 0.1174814 0.9878368
vn 0.6164559 -0.2260637 0.7542396
vn -0.3282931 0.2345991 0.9149792
vn 0.905346 -0.3275657 0.2702764
vn 0.5305696 0.7108775 0.4616808
vn -0.1565207 -0.007444084 -0.9876466
vn 0.31195 -0.905346 -0.2881593
vn -0.07063431 0.9685363 0.2386382
vn -0.4922579 -0.561801 -0.6648773
vn -0.7733403 0.3985638 -0.4930433
g frenzyplantroot2_0
f 3/3/3 2/2/2 1/1/1
f 2/2/2 4/4/4 1/1/1
f 1/1/1 4/4/4 5/5/5
f 2/2/2 6/6/6 4/4/4
f 4/4/4 7/7/7 5/5/5
f 5/5/5 7/7/7 8/8/8
f 6/6/6 9/9/9 4/4/4
f 4/4/4 9/9/9 7/7/7
f 7/7/7 10/10/10 8/8/8
f 8/8/8 10/10/10 11/11/11
f 12/12/12 9/9/9 6/6/6
f 13/13/13 12/12/12 6/6/6
f 9/9/9 14/14/14 7/7/7
f 7/7/7 14/14/14 10/10/10
f 10/10/10 15/15/15 11/11/11
f 11/11/11 15/15/15 16/16/16
f 12/12/12 17/17/17 9/9/9
f 17/17/17 14/14/14 9/9/9
f 18/18/18 12/12/12 13/13/13
f 19/19/19 18/18/18 13/13/13
f 14/14/14 20/20/20 10/10/10
f 10/10/10 20/20/20 15/15/15
f 15/15/15 21/21/21 16/16/16
f 16/16/16 21/21/21 22/22/22
f 21/21/21 23/23/23 22/22/22
f 15/15/15 24/24/24 21/21/21
f 20/20/20 24/24/24 15/15/15
f 21/21/21 25/25/25 23/23/23
f 24/24/24 25/25/25 21/21/21
f 25/25/25 26/26/26 23/23/23
f 27/27/27 26/26/26 25/25/25
f 28/28/28 27/27/27 25/25/25
f 28/28/28 25/25/25 24/24/24
f 29/29/29 27/27/27 28/28/28
f 30/30/30 20/20/20 14/14/14
f 17/17/17 30/30/30 14/14/14
f 31/31/31 24/24/24 20/20/20
f 31/31/31 28/28/28 24/24/24
f 30/30/30 31/31/31 20/20/20
f 32/32/32 29/29/29 28/28/28
f 32/32/32 28/28/28 31/31/31
f 33/33/33 29/29/29 32/32/32
f 34/34/34 31/31/31 30/30/30
f 34/34/34 32/32/32 31/31/31
f 35/35/35 33/33/33 32/32/32
f 35/35/35 32/32/32 34/34/34
f 36/36/36 33/33/33 35/35/35
f 37/37/37 30/30/30 17/17/17
f 37/37/37 34/34/34 30/30/30
f 38/38/38 35/35/35 34/34/34
f 38/38/38 34/34/34 37/37/37
f 39/39/39 36/36/36 35/35/35
f 39/39/39 35/35/35 38/38/38
f 40/40/40 36/36/36 39/39/39
f 41/41/41 37/37/37 17/17/17
f 41/41/41 17/17/17 12/12/12
f 18/18/18 41/41/41 12/12/12
f 42/42/42 38/38/38 37/37/37
f 42/42/42 37/37/37 41/41/41
f 43/43/43 39/39/39 38/38/38
f 43/43/43 38/38/38 42/42/42
f 44/44/44 40/40/40 39/39/39
f 44/44/44 39/39/39 43/43/43
f 45/45/45 40/40/40 44/44/44
f 46/46/46 41/41/41 18/18/18
f 46/46/46 42/42/42 41/41/41
f 47/47/47 43/43/43 42/42/42
f 47/47/47 42/42/42 46/46/46
f 48/48/48 44/44/44 43/43/43
f 48/48/48 43/43/43 47/47/47
f 49/49/49 45/45/45 44/44/44
f 49/49/49 44/44/44 48/48/48
f 50/50/50 45/45/45 49/49/49
f 51/51/51 46/46/46 18/18/18
f 51/51/51 18/18/18 19/19/19
f 52/52/52 51/51/51 19/19/19
f 53/53/53 47/47/47 46/46/46
f 53/53/53 46/46/46 51/51/51
f 54/54/54 51/51/51 52/52/52
f 54/54/54 53/53/53 51/51/51
f 55/55/55 54/54/54 52/52/52
f 56/56/56 48/48/48 47/47/47
f 56/56/56 47/47/47 53/53/53
f 57/57/57 49/49/49 48/48/48
f 57/57/57 48/48/48 56/56/56
f 58/58/58 50/50/50 49/49/49
f 58/58/58 49/49/49 57/57/57
f 59/59/59 50/50/50 58/58/58
f 60/60/60 54/54/54 55/55/55
f 61/61/61 60/60/60 55/55/55
f 62/62/62 53/53/53 54/54/54
f 62/62/62 56/56/56 53/53/53
f 60/60/60 62/62/62 54/54/54
f 63/63/63 57/57/57 56/56/56
f 63/63/63 56/56/56 62/62/62
f 64/64/64 58/58/58 57/57/57
f 64/64/64 57/57/57 63/63/63
f 65/65/65 59/59/59 58/58/58
f 65/65/65 58/58/58 64/64/64
f 66/66/66 59/59/59 65/65/65
f 67/67/67 66/66/66 65/65/65
f 67/67/67 65/65/65 68/68/68
f 68/68/68 65/65/65 64/64/64
f 69/69/69 67/67/67 68/68/68
f 70/70/70 60/60/60 61/61/61
f 71/71/71 70/70/70 61/61/61
f 72/72/72 62/62/62 60/60/60
f 72/72/72 63/63/63 62/62/62
f 70/70/70 72/72/72 60/60/60
f 73/73/73 64/64/64 63/63/63
f 68/68/68 64/64/64 73/73/73
f 73/73/73 63/63/63 72/72/72
f 69/69/69 68/68/68 74/74/74
f 74/74/74 68/68/68 73/73/73
f 75/75/75 69/69/69 74/74/74
f 76/76/76 73/73/73 72/72/72
f 76/76/76 72/72/72 70/70/70
f 74/74/74 73/73/73 76/76/76
f 77/77/77 70/70/70 71/71/71
f 77/77/77 76/76/76 70/70/70
f 78/78/78 77/77/77 71/71/71
f 75/75/75 74/74/74 79/79/79
f 79/79/79 74/74/74 76/76/76
f 79/79/79 76/76/76 77/77/77
f 80/80/80 75/75/75 79/79/79
f 81/81/81 77/77/77 78/78/78
f 81/81/81 79/79/79 77/77/77
f 80/80/80 79/79/79 81/81/81
f 82/82/82 81/81/81 78/78/78
f 83/83/83 80/80/80 81/81/81
f 83/83/83 81/81/81 82/82/82
f 84/84/84 83/83/83 82/82/82
f 87/87/87 86/86/86 85/85/85
f 87/87/87 85/85/85 88/88/88
f 87/87/87 89/89/89 86/86/86
f 87/87/87 88/88/88 90/90/90
f 87/87/87 91/91/91 89/89/89
f 87/87/87 90/90/90 91/91/91
