g hex18_3
v 0.571979 0.49236706 0.028456291
v 0.29323143 0.49236694 0.028456291
v 0.28823027 0.50102955 0.00054382323
v 0.5769804 0.50102955 0.00054382323
v 0.29323143 0.49236694 0.028456291
v 0.15385795 0.25096482 0.028456291
v 0.14385544 0.25096476 0.00054382323
v 0.28823027 0.50102955 0.00054382323
v 0.5943571 0.4686916 0.0041534076
v 0.5878252 0.46492052 0.028456291
v 0.571979 0.49236706 0.028456291
v 0.5953272 0.46925157 0.00054382323
v 0.5769804 0.50102955 0.00054382323
v 0.5402864 0.43747404 0.02845628
v 0.571979 0.49236706 0.028456291
v 0.5878252 0.46492052 0.028456291
v 0.29323143 0.49236694 0.028456291
v 0.43457943 0.37644398 0.028456267
v 0.41096047 0.33257622 0.028456261
v 0.3918553 0.32154587 0.028456258
v 0.2696051 0.25096476 0.028456273
v 0.15385795 0.25096482 0.028456291
v 0.18279465 0.2008447 0.028456282
v 0.18126464 0.19996147 0.022763219
v 0.1752928 0.19651346 0.0005438073
v 0.14385544 0.25096476 0.00054382323
v 0.18279465 0.2008447 0.028456282
v 0.15385795 0.25096482 0.028456291
vt 0.06306555 0.27162445
vt 0.06306562 0.27162442
vt 0.08611851 0.27550444
vt 0.08611851 0.27550444
vt 0.06306562 0.27162442
vt 0.0630656 0.16349994
vt 0.08611854 0.16349995
vt 0.08611851 0.27550444
vt 0.08313735 0.26102024
vt 0.06306554 0.2593311
vt 0.06306555 0.27162445
vt 0.08611853 0.26127112
vt 0.08611851 0.27550444
vt 0.6781242 0.84914535
vt 0.73054934 0.95190513
vt 0.7567618 0.90052533
vt 0.26945072 0.95190537
vt 0.5032655 0.7348972
vt 0.46419555 0.65277684
vt 0.43259203 0.63212794
vt 0.23036851 0.5
vt 0.038901478 0.5
vt 0.08676826 0.4061752
vt 0.06776751 0.14065534
vt 0.08611852 0.13911106
vt 0.08611854 0.16349995
vt 0.0630656 0.14105105
vt 0.0630656 0.16349994
vn -1.928853E-07 0.9550632 0.29640186
vn -1.9288527E-07 0.9550632 0.29640186
vn -1.9288527E-07 0.9550632 0.29640186
vn -1.9288528E-07 0.9550632 0.2964019
vn -0.82711065 0.47753215 0.2963968
vn -0.8271107 0.47753215 0.2963968
vn -0.82711065 0.4775322 0.29639682
vn -0.82711065 0.4775322 0.2963968
vn 0.82711035 0.4775299 0.29640105
vn 0.82711035 0.47752997 0.29640102
vn 0.82711035 0.4775299 0.29640105
vn 0.82711035 0.47752997 0.29640102
vn 0.82711035 0.4775299 0.296401
vn -0 -2.0098356E-07 1
vn -0 -1.984724E-07 1
vn -1.0963682E-07 -1.0858203E-07 1
vn -0 -1.4538857E-07 1
vn -0 -2.0163344E-07 1
vn -0 -2.0163344E-07 1
vn -0 -1.4538868E-07 1
vn 1.4932526E-07 0 1
vn 1.5293818E-07 0 1
vn 1.972692E-07 0 1
vn -0.82711035 -0.47753182 0.29639804
vn -0.82711035 -0.47753182 0.29639804
vn -0.8271103 -0.47753185 0.29639804
vn -0.8271103 -0.47753185 0.29639804
vn -0.8271103 -0.47753185 0.29639804
g hex18_3_0
f 3/3/3 2/2/2 1/1/1
f 4/4/4 3/3/3 1/1/1
f 7/7/7 6/6/6 5/5/5
f 8/8/8 7/7/7 5/5/5
f 11/11/11 10/10/10 9/9/9
f 9/9/9 12/12/12 11/11/11
f 12/12/12 13/13/13 11/11/11
f 16/16/16 15/15/15 14/14/14
f 14/14/14 15/15/15 17/17/17
f 17/17/17 18/18/18 14/14/14
f 17/17/17 19/19/19 18/18/18
f 17/17/17 20/20/20 19/19/19
f 20/20/20 17/17/17 21/21/21
f 17/17/17 22/22/22 21/21/21
f 21/21/21 22/22/22 23/23/23
f 26/26/26 25/25/25 24/24/24
f 24/24/24 27/27/27 26/26/26
f 27/27/27 28/28/28 26/26/26
