g hex19_1
v 0.5402863 0.018742675 0.00054380944
v 0.5419224 0.017798156 0.005815672
v 0.5489487 0.013741379 0.028456284
v 0.7591333 -0.16085167 0.0041534076
v 0.7585733 -0.16182166 0.00054382323
v 0.5402863 -0.035793837 0.00054382323
v 0.5489487 -0.030792616 0.028456291
v 0.7629046 -0.15431999 0.028456291
v 0.5489487 -0.030792616 0.028456291
v 0.5402863 -0.035793837 0.00054382323
v 0.5402863 0.018742675 0.00054380944
v 0.5489487 0.013741379 0.028456284
v 0.58751637 -0.008525543 0.028456284
v 0.5489487 -0.030792616 0.028456291
v 0.5489487 0.013741379 0.028456284
v 0.7629046 -0.15431999 0.028456291
v 0.7827014 -0.120030895 0.028456282
vt 0.08611854 0.14234552
vt 0.0817645 0.14307834
vt 0.06306556 0.14622547
vt 0.08313735 0.26102024
vt 0.08611853 0.26127112
vt 0.08611854 0.16349995
vt 0.063065566 0.16349994
vt 0.06306554 0.2593311
vt 0.063065566 0.16349994
vt 0.08611854 0.16349995
vt 0.08611854 0.14234552
vt 0.06306556 0.14622547
vt 0.8874314 0.5000002
vt 0.96109855 0.50000024
vt 0.924265 0.42780185
vt 0.7567618 0.90052533
vt 0.7000416 0.8634657
vn -0.95506465 -5.269991E-07 0.2963975
vn -0.95506465 -5.269991E-07 0.2963975
vn -0.95506465 -5.269991E-07 0.2963975
vn -0.4775326 -0.8271112 0.29639435
vn -0.47753266 -0.8271112 0.29639435
vn -0.47753266 -0.8271112 0.29639438
vn -0.4775326 -0.82711124 0.29639435
vn -0.47753266 -0.8271112 0.29639438
vn -0.95506465 -5.269991E-07 0.2963975
vn -0.95506465 -5.269991E-07 0.29639748
vn -0.95506465 -5.269991E-07 0.2963975
vn -0.95506465 -5.269991E-07 0.2963975
vn 1.186813E-07 1.8056082E-07 1
vn 1.1361116E-07 1.7970842E-07 1
vn -0 1.606087E-07 1
vn 1.2419991E-07 1.8148855E-07 1
vn 1.2419993E-07 1.8148855E-07 1
g hex19_1_0
f 3/3/3 2/2/2 1/1/1
f 6/6/6 5/5/5 4/4/4
f 4/4/4 7/7/7 6/6/6
f 4/4/4 8/8/8 7/7/7
f 11/11/11 10/10/10 9/9/9
f 9/9/9 12/12/12 11/11/11
f 15/15/15 14/14/14 13/13/13
f 13/13/13 14/14/14 16/16/16
f 17/17/17 13/13/13 16/16/16
