g hex10_3
v 0.71135265 0.25096482 0.028456291
v 0.5719787 0.4923672 0.028456291
v 0.57698005 0.5010295 0.00054382323
v 0.72135514 0.25096467 0.00054382323
v 0.5719787 0.4923672 0.028456291
v 0.29323158 0.4923672 0.028456291
v 0.28823036 0.5010295 0.00054382323
v 0.57698005 0.5010295 0.00054382323
v 0.72135514 0.25096467 0.00054382323
v 0.7030081 0.219187 0.00054382323
v 0.7020381 0.2197471 0.0041534076
v 0.6955062 0.22351837 0.028456291
v 0.71135265 0.25096482 0.028456291
v 0.6479675 0.25096482 0.02845628
v 0.71135265 0.25096482 0.028456291
v 0.6955062 0.22351837 0.028456291
v 0.5719787 0.4923672 0.028456291
v 0.5422604 0.3119948 0.028456267
v 0.47335517 0.321546 0.028456258
v 0.49246046 0.31051546 0.028456261
v 0.35110518 0.39212707 0.028456273
v 0.29323158 0.4923672 0.028456291
v 0.2642946 0.44224706 0.028456282
v 0.29323158 0.4923672 0.028456291
v 0.2642946 0.44224706 0.028456282
v 0.26276466 0.4431305 0.022763219
v 0.25679266 0.4465783 0.0005438073
v 0.28823036 0.5010295 0.00054382323
vt 0.06306555 0.27162445
vt 0.06306562 0.27162442
vt 0.08611851 0.27550444
vt 0.08611851 0.27550444
vt 0.06306562 0.27162442
vt 0.0630656 0.16349994
vt 0.08611854 0.16349995
vt 0.08611851 0.27550444
vt 0.08611851 0.27550444
vt 0.08611853 0.26127112
vt 0.08313735 0.26102024
vt 0.06306554 0.2593311
vt 0.06306555 0.27162445
vt 0.6781242 0.84914535
vt 0.73054934 0.95190513
vt 0.7567618 0.90052533
vt 0.26945072 0.95190537
vt 0.5032655 0.7348972
vt 0.43259203 0.63212794
vt 0.46419555 0.65277684
vt 0.23036851 0.5
vt 0.038901478 0.5
vt 0.08676826 0.4061752
vt 0.0630656 0.16349994
vt 0.0630656 0.14105105
vt 0.06776751 0.14065534
vt 0.08611852 0.13911106
vt 0.08611854 0.16349995
vn 0.8271107 0.47753307 0.2963952
vn 0.8271107 0.47753307 0.2963952
vn 0.8271107 0.47753307 0.29639515
vn 0.8271107 0.47753313 0.29639518
vn -0 0.9550661 0.29639286
vn -0 0.9550661 0.29639286
vn -0 0.9550661 0.29639286
vn -0 0.9550661 0.29639283
vn 0.8271081 -0.47753552 0.29639843
vn 0.8271081 -0.47753552 0.29639846
vn 0.8271081 -0.47753552 0.29639846
vn 0.8271081 -0.47753546 0.29639846
vn 0.8271081 -0.47753552 0.29639846
vn -1.5428877E-07 -1.03714186E-07 1
vn -1.5456507E-07 0 1
vn -1.6445553E-07 1.085839E-07 1
vn -0 -1.521304E-07 1
vn -1.5421725E-07 -1.0520727E-07 1
vn -0 -1.5213033E-07 1
vn -1.5421728E-07 -1.0520727E-07 1
vn -0 -1.9367216E-07 1
vn -0 -1.9341637E-07 1
vn -0 -1.902778E-07 1
vn -0.8271096 0.4775336 0.29639745
vn -0.8271096 0.4775336 0.29639748
vn -0.8271096 0.4775336 0.2963975
vn -0.8271096 0.47753355 0.2963975
vn -0.8271096 0.47753352 0.29639745
g hex10_3_0
f 3/3/3 2/2/2 1/1/1
f 4/4/4 3/3/3 1/1/1
f 7/7/7 6/6/6 5/5/5
f 8/8/8 7/7/7 5/5/5
f 11/11/11 10/10/10 9/9/9
f 9/9/9 12/12/12 11/11/11
f 9/9/9 13/13/13 12/12/12
f 16/16/16 15/15/15 14/14/14
f 14/14/14 15/15/15 17/17/17
f 17/17/17 18/18/18 14/14/14
f 17/17/17 19/19/19 18/18/18
f 19/19/19 20/20/20 18/18/18
f 19/19/19 17/17/17 21/21/21
f 17/17/17 22/22/22 21/21/21
f 21/21/21 22/22/22 23/23/23
f 26/26/26 25/25/25 24/24/24
f 24/24/24 27/27/27 26/26/26
f 24/24/24 28/28/28 27/27/27
