g hex12_2
v 0.2293287 -0.5145531 0.02844566
v 0.1869438 -0.5407245 0.02934425
v 0.06492359 -0.5406985 0.03245759
v 0.2514145 -0.4330598 0.02845136
v 0.2513824 -0.5145578 0.02788295
v 0.3924986 -0.5145881 0.0242824
v 0.04869135 -0.3159126 0.0344418
v 0.04962902 -0.5406951 0.03284784
v 0.04870886 -0.2713796 0.0347524
v 0.2515236 -0.1543192 0.0303955
v 0.4927927 -0.2937411 0.02326608
v 0.4927062 -0.5146094 0.02172562
v 0.4943272 -0.5145702 0.01598948
v 0.4927062 -0.5146094 0.02172562
v 0.4927927 -0.2937411 0.02326608
v 0.500654 -0.5144164 -0.006398044
v 0.5007425 -0.288547 -0.004822732
v 0.4927927 -0.2937411 0.02326608
v 0.2515236 -0.1543192 0.0303955
v 0.2508156 -0.144122 0.002562523
v 0.5007425 -0.288547 -0.004822732
v 0.04800092 -0.2611825 0.006919447
v 0.2508156 -0.144122 0.002562523
v 0.2515236 -0.1543192 0.0303955
v 0.04813459 -0.2631084 0.01217629
v 0.04870886 -0.2713796 0.0347524
vt 0.4641955 0.6527768
vt 0.5032655 0.7348972
vt 0.6781242 0.8491454
vt 0.4999999 0.5
vt 0.432592 0.6321279
vt 0.2303685 0.5
vt 0.8874314 0.5000002
vt 0.7000416 0.8634657
vt 0.924265 0.4278018
vt 0.7305496 0.04809493
vt 0.2694508 0.04809472
vt 0.08676826 0.4061752
vt 0.06776751 0.1406553
vt 0.0630656 0.1410511
vt 0.0630656 0.05537532
vt 0.08611852 0.1391111
vt 0.08611851 0.05149529
vt 0.0630656 0.05537532
vt 0.06306559 0.0553753
vt 0.08611851 0.05149529
vt 0.08611851 0.05149529
vt 0.08611854 0.1423455
vt 0.08611851 0.05149529
vt 0.06306559 0.0553753
vt 0.0817645 0.1430783
vt 0.06306556 0.1462255
vn 0.02550459 -0.006982123 0.9996504
vn 0.02550459 -0.006982123 0.9996504
vn 0.02550469 -0.006982243 0.9996504
vn 0.02550456 -0.006982206 0.9996504
vn 0.02550452 -0.006982121 0.9996504
vn 0.02550443 -0.006982096 0.9996504
vn 0.02550468 -0.006982258 0.9996504
vn 0.02550469 -0.006982251 0.9996504
vn 0.02550468 -0.00698226 0.9996504
vn 0.02550459 -0.006982259 0.9996504
vn 0.02550446 -0.006982181 0.9996504
vn 0.02550443 -0.006982096 0.9996504
vn 0.9623126 -0.002273612 0.2719363
vn 0.9623126 -0.002273612 0.2719362
vn 0.9623126 -0.002273611 0.2719363
vn 0.9623126 -0.002273611 0.2719362
vn 0.9623126 -0.002273611 0.2719362
vn 0.4852606 0.8249184 0.2898826
vn 0.4852606 0.8249184 0.2898825
vn 0.4852606 0.8249184 0.2898826
vn 0.4852605 0.8249184 0.2898826
vn -0.4694933 0.825123 0.3142421
vn -0.4694934 0.8251229 0.3142421
vn -0.4694933 0.825123 0.3142421
vn -0.4694933 0.825123 0.3142421
vn -0.4694934 0.8251229 0.3142421
g hex12_2_0
f 3/3/3 2/2/2 1/1/1
f 4/4/4 3/3/3 1/1/1
f 1/1/1 5/5/5 4/4/4
f 6/6/6 4/4/4 5/5/5
f 3/3/3 4/4/4 7/7/7
f 8/8/8 3/3/3 7/7/7
f 7/7/7 4/4/4 9/9/9
f 4/4/4 10/10/10 9/9/9
f 10/10/10 4/4/4 11/11/11
f 11/11/11 4/4/4 6/6/6
f 12/12/12 11/11/11 6/6/6
f 15/15/15 14/14/14 13/13/13
f 13/13/13 16/16/16 15/15/15
f 16/16/16 17/17/17 15/15/15
f 20/20/20 19/19/19 18/18/18
f 21/21/21 20/20/20 18/18/18
f 24/24/24 23/23/23 22/22/22
f 22/22/22 25/25/25 24/24/24
f 25/25/25 26/26/26 24/24/24
