g hex12_3
v 0.5723785 0.01003601 0.033636704
v 0.71180016 0.25130537 0.026507279
v 0.72160774 0.25058934 -0.0014651886
v 0.57718277 0.00066234585 0.0059200665
v 0.71180016 0.25130537 0.026507279
v 0.5724818 0.49268344 0.021321993
v 0.5772897 0.5006292 -0.0068365466
v 0.72160774 0.25058934 -0.0014651886
v 0.5723785 0.01003601 0.033636704
v 0.57718277 0.00066234585 0.0059200665
v 0.54048985 0.00067695614 0.0061759846
v 0.54051524 0.0018888091 0.009755735
v 0.5406866 0.010048523 0.03385774
v 0.54069847 0.06492359 0.032457594
v 0.5723785 0.01003601 0.033636704
v 0.5406866 0.010048523 0.03385774
v 0.54072446 0.1869439 0.029344246
v 0.71180016 0.25130537 0.026507279
v 0.51455784 0.25138247 0.027882952
v 0.51455307 0.22932884 0.028445654
v 0.514588 0.3924987 0.024282398
v 0.5724818 0.49268344 0.021321993
v 0.51460946 0.49270624 0.021725621
v 0.5144163 0.500654 -0.0063980427
v 0.5772897 0.5006292 -0.0068365466
v 0.5724818 0.49268344 0.021321993
v 0.51457006 0.4943272 0.015989486
v 0.51460946 0.49270624 0.021725621
vt 0.06306555 0.27162445
vt 0.06306562 0.27162442
vt 0.08611851 0.27550444
vt 0.08611851 0.27550444
vt 0.06306562 0.27162442
vt 0.0630656 0.16349994
vt 0.08611854 0.16349995
vt 0.08611851 0.27550444
vt 0.06306555 0.27162445
vt 0.08611851 0.27550444
vt 0.08611853 0.26127112
vt 0.08313735 0.26102024
vt 0.06306554 0.2593311
vt 0.6781242 0.84914535
vt 0.73054934 0.95190513
vt 0.7567618 0.90052533
vt 0.5032655 0.7348972
vt 0.26945072 0.95190537
vt 0.43259203 0.63212794
vt 0.46419555 0.65277684
vt 0.23036851 0.5
vt 0.038901478 0.5
vt 0.08676826 0.4061752
vt 0.08611852 0.13911106
vt 0.08611854 0.16349995
vt 0.0630656 0.16349994
vt 0.06776751 0.14065534
vt 0.0630656 0.14105105
vn 0.8290567 -0.4701404 0.30270946
vn 0.8290567 -0.4701404 0.30270946
vn 0.8290567 -0.4701404 0.30270943
vn 0.8290567 -0.4701404 0.30270946
vn 0.8292622 0.48461244 0.2783435
vn 0.8292622 0.48461244 0.2783435
vn 0.8292622 0.48461244 0.2783435
vn 0.8292622 0.48461244 0.2783435
vn 0.0018616171 -0.9471931 0.32065865
vn 0.0018616171 -0.94719297 0.32065862
vn 0.0018616173 -0.9471931 0.32065865
vn 0.0018616176 -0.9471931 0.32065865
vn 0.0018616176 -0.9471931 0.32065865
vn 0.0069820536 0.025504619 0.99965036
vn 0.006982061 0.025504623 0.99965036
vn 0.006982306 0.025504723 0.99965036
vn 0.0069820536 0.025504623 0.99965036
vn 0.0069820485 0.0255045 0.99965036
vn 0.0069820476 0.0255045 0.99965036
vn 0.006982053 0.02550462 0.99965036
vn 0.006982044 0.025504394 0.99965036
vn 0.006982045 0.025504401 0.99965036
vn 0.0069820452 0.02550446 0.99965036
vn 0.0022752977 0.9623132 0.27193427
vn 0.0022752974 0.9623132 0.27193427
vn 0.0022752977 0.9623132 0.2719343
vn 0.0022752974 0.9623132 0.27193427
vn 0.0022752974 0.9623132 0.27193427
g hex12_3_0
f 3/3/3 2/2/2 1/1/1
f 4/4/4 3/3/3 1/1/1
f 7/7/7 6/6/6 5/5/5
f 8/8/8 7/7/7 5/5/5
f 11/11/11 10/10/10 9/9/9
f 9/9/9 12/12/12 11/11/11
f 9/9/9 13/13/13 12/12/12
f 16/16/16 15/15/15 14/14/14
f 15/15/15 17/17/17 14/14/14
f 17/17/17 15/15/15 18/18/18
f 18/18/18 19/19/19 17/17/17
f 19/19/19 20/20/20 17/17/17
f 19/19/19 18/18/18 21/21/21
f 18/18/18 22/22/22 21/21/21
f 21/21/21 22/22/22 23/23/23
f 26/26/26 25/25/25 24/24/24
f 24/24/24 27/27/27 26/26/26
f 27/27/27 28/28/28 26/26/26
