g hex16_1
v 0.5726242 0.27033293 0.0041534076
v 0.57206416 0.27130303 0.00054382323
v 0.79035103 0.39733115 0.00054382323
v 0.7903509 0.38732862 0.028456291
v 0.5763953 0.2638011 0.028456291
v 0.79035103 0.39733115 0.00054382323
v 0.837581 0.37006277 0.00054380944
v 0.83594495 0.36911827 0.005815672
v 0.7903509 0.38732862 0.028456291
v 0.8289185 0.3650616 0.028456284
v 0.7903509 0.34279463 0.028456284
v 0.7903509 0.38732862 0.028456291
v 0.8289185 0.3650616 0.028456284
v 0.5763953 0.2638011 0.028456291
v 0.59619194 0.22951205 0.028456282
vt 0.08313735 0.26102024
vt 0.08611853 0.26127112
vt 0.08611854 0.16349995
vt 0.063065566 0.16349994
vt 0.06306554 0.2593311
vt 0.08611854 0.16349995
vt 0.08611854 0.14234552
vt 0.0817645 0.14307834
vt 0.063065566 0.16349994
vt 0.06306556 0.14622547
vt 0.8874314 0.5000002
vt 0.96109855 0.50000024
vt 0.924265 0.42780185
vt 0.7567618 0.90052533
vt 0.7000416 0.8634657
vn -0.477533 0.8271105 0.29639566
vn -0.47753298 0.8271105 0.29639566
vn -0.477533 0.8271105 0.29639572
vn -0.477533 0.8271105 0.2963957
vn -0.477533 0.8271105 0.2963957
vn 0.4775325 0.82711047 0.29639664
vn 0.47753248 0.8271105 0.29639664
vn 0.47753248 0.8271105 0.29639664
vn 0.47753248 0.8271105 0.29639664
vn 0.4775325 0.82711047 0.29639664
vn 1.1868158E-07 -1.8494855E-07 1
vn 1.1361142E-07 -1.8390874E-07 1
vn -0 -1.6060858E-07 1
vn 1.2420023E-07 -1.8608034E-07 1
vn 1.2420023E-07 -1.8608036E-07 1
g hex16_1_0
f 3/3/3 2/2/2 1/1/1
f 1/1/1 4/4/4 3/3/3
f 1/1/1 5/5/5 4/4/4
f 8/8/8 7/7/7 6/6/6
f 6/6/6 9/9/9 8/8/8
f 9/9/9 10/10/10 8/8/8
f 13/13/13 12/12/12 11/11/11
f 11/11/11 12/12/12 14/14/14
f 15/15/15 11/11/11 14/14/14
