g hex10_1
v 0.75913346 -0.16085151 0.0041534076
v 0.7585733 -0.16182159 0.00054382323
v 0.5402863 -0.035793763 0.00054382323
v 0.5489487 -0.03079254 0.028456291
v 0.7629044 -0.15431984 0.028456291
v 0.5489487 -0.03079254 0.028456291
v 0.5402863 -0.035793763 0.00054382323
v 0.5402863 0.01874279 0.00054380944
v 0.5419224 0.017798156 0.005815672
v 0.54894865 0.013741493 0.028456284
v 0.58751637 -0.008525467 0.028456284
v 0.5489487 -0.03079254 0.028456291
v 0.54894865 0.013741493 0.028456284
v 0.7629044 -0.15431984 0.028456291
v 0.7827014 -0.12003082 0.028456282
vt 0.08313735 0.26102024
vt 0.08611853 0.26127112
vt 0.08611854 0.16349995
vt 0.063065566 0.16349994
vt 0.06306554 0.2593311
vt 0.063065566 0.16349994
vt 0.08611854 0.16349995
vt 0.08611854 0.14234552
vt 0.0817645 0.14307834
vt 0.06306556 0.14622547
vt 0.8874314 0.5000002
vt 0.96109855 0.50000024
vt 0.924265 0.42780185
vt 0.7567618 0.90052533
vt 0.7000416 0.8634657
vn -0.47753245 -0.82711124 0.2963944
vn -0.47753242 -0.82711136 0.29639444
vn -0.47753242 -0.82711136 0.2963944
vn -0.4775324 -0.82711124 0.29639444
vn -0.4775324 -0.82711124 0.29639438
vn -0.9550651 -5.269994E-07 0.29639637
vn -0.9550651 -5.2699943E-07 0.29639632
vn -0.9550651 -5.2699943E-07 0.29639634
vn -0.9550651 -5.269995E-07 0.29639634
vn -0.9550651 -5.269994E-07 0.29639632
vn -0 1.8056069E-07 1
vn -0 1.7970831E-07 1
vn 1.1104892E-07 1.6060883E-07 1
vn -0 1.8148842E-07 1
vn -0 1.8148839E-07 1
g hex10_1_0
f 3/3/3 2/2/2 1/1/1
f 1/1/1 4/4/4 3/3/3
f 1/1/1 5/5/5 4/4/4
f 8/8/8 7/7/7 6/6/6
f 6/6/6 9/9/9 8/8/8
f 6/6/6 10/10/10 9/9/9
f 13/13/13 12/12/12 11/11/11
f 11/11/11 12/12/12 14/14/14
f 15/15/15 11/11/11 14/14/14
