g hex11_2
v 0.25057885 -0.26920405 0.0242824
v 0.009172611 -0.29277036 0.023266077
v 0.20049354 -0.18241115 0.021725621
v 0.25051537 -0.43215072 0.028451363
v 0.32111076 -0.3914295 0.027882954
v 0.009064312 -0.57142663 0.0303955
v 0.33213347 -0.4105308 0.028445655
v 0.21184896 -0.688539 0.034752402
v 0.37599078 -0.4341516 0.029344248
v 0.25042444 -0.66628784 0.034441795
v 0.43697834 -0.53983724 0.032457594
v 0.4446229 -0.5530843 0.032847837
v 0.0006994438 -0.28848282 -0.004822732
v 0.19635245 -0.17562465 -0.006398044
v 0.19964889 -0.1810269 0.015989484
v 0.009172611 -0.29277036 0.023266077
v 0.20049354 -0.18241115 0.021725621
v 0.009172611 -0.29277036 0.023266077
v 0.009064312 -0.57142663 0.0303955
v 0.00058725354 -0.5771383 0.0025625231
v 0.0006994438 -0.28848282 -0.004822732
v 0.203372 -0.6942507 0.006919447
v 0.00058725354 -0.5771383 0.0025625231
v 0.009064312 -0.57142663 0.0303955
v 0.20497303 -0.693172 0.012176292
v 0.21184896 -0.688539 0.034752402
vt 0.23036851 0.5
vt 0.26945078 0.04809472
vt 0.08676826 0.4061752
vt 0.4999999 0.5
vt 0.43259203 0.63212794
vt 0.7305496 0.04809493
vt 0.46419555 0.65277684
vt 0.924265 0.42780185
vt 0.5032655 0.7348972
vt 0.8874314 0.5000002
vt 0.6781242 0.8491454
vt 0.7000416 0.8634657
vt 0.08611851 0.05149529
vt 0.08611852 0.13911106
vt 0.06776751 0.14065534
vt 0.0630656 0.055375315
vt 0.0630656 0.14105105
vt 0.0630656 0.055375315
vt 0.06306559 0.0553753
vt 0.08611851 0.05149529
vt 0.08611851 0.05149529
vt 0.08611854 0.14234552
vt 0.08611851 0.05149529
vt 0.06306559 0.0553753
vt 0.0817645 0.14307834
vt 0.06306556 0.14622547
vn -0.006705534 0.02557852 0.99965036
vn -0.0067054974 0.025578601 0.99965036
vn -0.0067055374 0.025578521 0.99965036
vn -0.0067055123 0.025578696 0.99965036
vn -0.006705573 0.025578601 0.99965036
vn -0.006705489 0.025578754 0.99965036
vn -0.0067056376 0.025578668 0.99965036
vn -0.006705519 0.025578829 0.99965036
vn -0.0067056376 0.025578668 0.99965036
vn -0.0067055146 0.025578825 0.99965036
vn -0.0067055128 0.02557881 0.99965036
vn -0.006705504 0.025578821 0.99965036
vn -0.47918746 0.8345243 0.27193496
vn -0.47918746 0.8345242 0.27193502
vn -0.47918746 0.8345242 0.27193502
vn -0.4791875 0.8345243 0.27193496
vn -0.47918746 0.8345242 0.271935
vn -0.9570303 0.007788621 0.2898832
vn -0.9570303 0.007788621 0.28988323
vn -0.9570303 0.007788622 0.28988323
vn -0.9570303 0.007788622 0.28988323
vn -0.47983092 -0.81915486 0.3142413
vn -0.47983077 -0.81915486 0.3142413
vn -0.4798309 -0.81915486 0.3142413
vn -0.47983083 -0.81915486 0.3142413
vn -0.4798309 -0.81915486 0.3142413
g hex11_2_0
f 3/3/3 2/2/2 1/1/1
f 2/2/2 4/4/4 1/1/1
f 1/1/1 4/4/4 5/5/5
f 6/6/6 4/4/4 2/2/2
f 7/7/7 5/5/5 4/4/4
f 4/4/4 6/6/6 8/8/8
f 9/9/9 7/7/7 4/4/4
f 10/10/10 4/4/4 8/8/8
f 4/4/4 11/11/11 9/9/9
f 11/11/11 4/4/4 10/10/10
f 12/12/12 11/11/11 10/10/10
f 15/15/15 14/14/14 13/13/13
f 13/13/13 16/16/16 15/15/15
f 16/16/16 17/17/17 15/15/15
f 20/20/20 19/19/19 18/18/18
f 21/21/21 20/20/20 18/18/18
f 24/24/24 23/23/23 22/22/22
f 22/22/22 25/25/25 24/24/24
f 25/25/25 26/26/26 24/24/24
