g hex11_1
v 1.0077236 -0.053332098 0.009755734
v 1.0083075 -0.054394186 0.0061759846
v 0.78997666 -0.18033378 0.0079339575
v 0.7897934 -0.16962051 0.03558083
v 1.003792 -0.046180077 0.033857744
v 0.78997666 -0.18033378 0.0079339575
v 0.74275815 -0.15306407 0.0069194455
v 0.74435925 -0.15198544 0.012176292
v 0.7897934 -0.16962051 0.03558083
v 0.7512353 -0.14735249 0.0347524
v 0.7898106 -0.12510112 0.034441795
v 0.7897934 -0.16962051 0.03558083
v 0.7512353 -0.14735249 0.0347524
v 1.003792 -0.046180077 0.033857744
v 0.9840092 -0.011897888 0.032847837
vt 0.08313735 0.26102024
vt 0.08611853 0.26127112
vt 0.08611854 0.16349995
vt 0.063065566 0.16349994
vt 0.06306554 0.2593311
vt 0.08611854 0.16349995
vt 0.08611854 0.14234552
vt 0.0817645 0.14307834
vt 0.063065566 0.16349994
vt 0.06306556 0.14622547
vt 0.8874314 0.5000002
vt 0.96109855 0.50000024
vt 0.924265 0.42780185
vt 0.7567618 0.90052533
vt 0.7000416 0.8634657
vn 0.47521326 -0.8193619 0.32065293
vn 0.47521314 -0.8193619 0.32065293
vn 0.47521326 -0.8193619 0.320653
vn 0.4752132 -0.8193619 0.32065293
vn 0.4752132 -0.8193619 0.32065293
vn -0.47982982 -0.8191548 0.31424326
vn -0.47982985 -0.81915474 0.31424326
vn -0.47982976 -0.8191548 0.31424326
vn -0.47982976 -0.8191548 0.31424326
vn -0.47982982 -0.8191548 0.31424326
vn -0.006705536 0.025578814 0.99965036
vn -0.006705534 0.025578808 0.99965036
vn -0.0067055062 0.025578829 0.99965036
vn -0.006705537 0.02557881 0.99965036
vn -0.006705537 0.02557881 0.99965036
g hex11_1_0
f 3/3/3 2/2/2 1/1/1
f 1/1/1 4/4/4 3/3/3
f 1/1/1 5/5/5 4/4/4
f 8/8/8 7/7/7 6/6/6
f 6/6/6 9/9/9 8/8/8
f 9/9/9 10/10/10 8/8/8
f 13/13/13 12/12/12 11/11/11
f 11/11/11 12/12/12 14/14/14
f 15/15/15 11/11/11 14/14/14
