g hex19_3
v 0.71135265 0.25096473 0.028456291
v 0.5719788 0.49236715 0.028456291
v 0.5769802 0.5010296 0.00054382323
v 0.72135526 0.25096464 0.00054382323
v 0.5719788 0.49236715 0.028456291
v 0.29323167 0.49236712 0.028456291
v 0.28823042 0.5010295 0.00054382323
v 0.5769802 0.5010296 0.00054382323
v 0.72135526 0.25096464 0.00054382323
v 0.70300823 0.219187 0.00054382323
v 0.7020381 0.21974714 0.0041534076
v 0.69550633 0.22351834 0.028456291
v 0.71135265 0.25096473 0.028456291
v 0.6479677 0.25096476 0.02845628
v 0.71135265 0.25096473 0.028456291
v 0.69550633 0.22351834 0.028456291
v 0.5719788 0.49236715 0.028456291
v 0.54226047 0.31199482 0.028456267
v 0.47335523 0.321546 0.028456258
v 0.49246046 0.3105155 0.028456261
v 0.35110527 0.39212707 0.028456273
v 0.29323167 0.49236712 0.028456291
v 0.26429474 0.44224712 0.028456282
v 0.29323167 0.49236712 0.028456291
v 0.26429474 0.44224712 0.028456282
v 0.2627648 0.44313052 0.022763219
v 0.25679275 0.44657835 0.0005438073
v 0.28823042 0.5010295 0.00054382323
vt 0.06306555 0.27162445
vt 0.06306562 0.27162442
vt 0.08611851 0.27550444
vt 0.08611851 0.27550444
vt 0.06306562 0.27162442
vt 0.0630656 0.16349994
vt 0.08611854 0.16349995
vt 0.08611851 0.27550444
vt 0.08611851 0.27550444
vt 0.08611853 0.26127112
vt 0.08313735 0.26102024
vt 0.06306554 0.2593311
vt 0.06306555 0.27162445
vt 0.6781242 0.84914535
vt 0.73054934 0.95190513
vt 0.7567618 0.90052533
vt 0.26945072 0.95190537
vt 0.5032655 0.7348972
vt 0.43259203 0.63212794
vt 0.46419555 0.65277684
vt 0.23036851 0.5
vt 0.038901478 0.5
vt 0.08676826 0.4061752
vt 0.0630656 0.16349994
vt 0.0630656 0.14105105
vt 0.06776751 0.14065534
vt 0.08611852 0.13911106
vt 0.08611854 0.16349995
vn 0.8271098 0.47753212 0.29639915
vn 0.8271098 0.47753212 0.2963991
vn 0.8271098 0.47753218 0.29639915
vn 0.8271098 0.47753206 0.29639915
vn -2.559634E-07 0.9550649 0.2963968
vn -2.5596336E-07 0.9550649 0.29639682
vn -2.559634E-07 0.9550649 0.29639682
vn -2.5596336E-07 0.9550649 0.29639682
vn 0.82710713 -0.47753608 0.29640022
vn 0.82710713 -0.47753614 0.29640025
vn 0.82710713 -0.47753614 0.29640022
vn 0.82710713 -0.47753608 0.29640022
vn 0.82710713 -0.47753608 0.29640022
vn -1.6936652E-07 -1.0371417E-07 1
vn -1.6831318E-07 0 1
vn -1.3060638E-07 1.08583464E-07 1
vn -0 -1.5213043E-07 1
vn -1.6963915E-07 -1.05207256E-07 1
vn -0 -1.5213037E-07 1
vn -1.6963915E-07 -1.0520727E-07 1
vn -0 -1.9367218E-07 1
vn -0 -1.9341644E-07 1
vn -0 -1.9027829E-07 1
vn -0.82710916 0.47753337 0.29639876
vn -0.82710916 0.47753337 0.29639873
vn -0.82710916 0.47753337 0.29639876
vn -0.8271092 0.47753334 0.29639873
vn -0.82710916 0.47753337 0.29639873
g hex19_3_0
f 3/3/3 2/2/2 1/1/1
f 4/4/4 3/3/3 1/1/1
f 7/7/7 6/6/6 5/5/5
f 8/8/8 7/7/7 5/5/5
f 11/11/11 10/10/10 9/9/9
f 9/9/9 12/12/12 11/11/11
f 9/9/9 13/13/13 12/12/12
f 16/16/16 15/15/15 14/14/14
f 14/14/14 15/15/15 17/17/17
f 17/17/17 18/18/18 14/14/14
f 17/17/17 19/19/19 18/18/18
f 19/19/19 20/20/20 18/18/18
f 19/19/19 17/17/17 21/21/21
f 17/17/17 22/22/22 21/21/21
f 21/21/21 22/22/22 23/23/23
f 26/26/26 25/25/25 24/24/24
f 24/24/24 27/27/27 26/26/26
f 24/24/24 28/28/28 27/27/27
