g hex19_1
v 0.5402863 0.01874267 0.0005438094
v 0.5419224 0.01779816 0.005815672
v 0.5489487 0.01374138 0.02845628
v 0.7591333 -0.1608517 0.004153408
v 0.7585733 -0.1618217 0.0005438232
v 0.5402863 -0.03579384 0.0005438232
v 0.5489487 -0.03079262 0.02845629
v 0.7629046 -0.15432 0.02845629
v 0.5489487 -0.03079262 0.02845629
v 0.5402863 -0.03579384 0.0005438232
v 0.5402863 0.01874267 0.0005438094
v 0.5489487 0.01374138 0.02845628
v 0.5875164 -0.008525543 0.02845628
v 0.5489487 -0.03079262 0.02845629
v 0.5489487 0.01374138 0.02845628
v 0.7629046 -0.15432 0.02845629
v 0.7827014 -0.1200309 0.02845628
vt 0.08611854 0.1423455
vt 0.0817645 0.1430783
vt 0.06306556 0.1462255
vt 0.08313735 0.2610202
vt 0.08611853 0.2612711
vt 0.08611854 0.1635
vt 0.06306557 0.1634999
vt 0.06306554 0.2593311
vt 0.06306557 0.1634999
vt 0.08611854 0.1635
vt 0.08611854 0.1423455
vt 0.06306556 0.1462255
vt 0.8874314 0.5000002
vt 0.9610986 0.5000002
vt 0.924265 0.4278018
vt 0.7567618 0.9005253
vt 0.7000416 0.8634657
vn -0.9550647 -5.269991E-07 0.2963975
vn -0.9550647 -5.269991E-07 0.2963975
vn -0.9550647 -5.269991E-07 0.2963975
vn -0.4775326 -0.8271112 0.2963943
vn -0.4775327 -0.8271112 0.2963943
vn -0.4775327 -0.8271112 0.2963944
vn -0.4775326 -0.8271112 0.2963943
vn -0.4775327 -0.8271112 0.2963944
vn -0.9550647 -5.269991E-07 0.2963975
vn -0.9550647 -5.269991E-07 0.2963975
vn -0.9550647 -5.269991E-07 0.2963975
vn -0.9550647 -5.269991E-07 0.2963975
vn 1.186813E-07 1.805608E-07 1
vn 1.136112E-07 1.797084E-07 1
vn 0 1.606087E-07 1
vn 1.241999E-07 1.814885E-07 1
vn 1.241999E-07 1.814885E-07 1
g hex19_1_0
f 3/3/3 2/2/2 1/1/1
f 6/6/6 5/5/5 4/4/4
f 4/4/4 7/7/7 6/6/6
f 4/4/4 8/8/8 7/7/7
f 11/11/11 10/10/10 9/9/9
f 9/9/9 12/12/12 11/11/11
f 15/15/15 14/14/14 13/13/13
f 13/13/13 14/14/14 16/16/16
f 17/17/17 13/13/13 16/16/16
