g hex18_2
v 0.25096497 -0.26960522 0.028456273
v 0.009562549 -0.2932315 0.02845625
v 0.20084472 -0.18279476 0.028456282
v 0.25096482 -0.43260536 0.028456245
v 0.32154602 -0.39185524 0.028456258
v 0.009562492 -0.5719789 0.02845625
v 0.33257622 -0.4109605 0.028456261
v 0.21239732 -0.68908584 0.028456284
v 0.37644398 -0.43457937 0.028456267
v 0.2509648 -0.66681886 0.028456284
v 0.437474 -0.5402866 0.02845628
v 0.4451238 -0.55353624 0.028456282
v 0.009562549 -0.2932315 0.02845625
v 0.0009000206 -0.28823033 0.00054375
v 0.19651352 -0.1752927 0.0005438073
v 0.1999614 -0.18126468 0.022763219
v 0.20084472 -0.18279476 0.028456282
v 0.009562549 -0.2932315 0.02845625
v 0.009562492 -0.5719789 0.02845625
v 0.0009000587 -0.57698023 0.00054375
v 0.0009000206 -0.28823033 0.00054375
v 0.20373482 -0.69408697 0.00054380944
v 0.0009000587 -0.57698023 0.00054375
v 0.009562492 -0.5719789 0.02845625
v 0.2053709 -0.69314253 0.005815672
v 0.21239732 -0.68908584 0.028456284
vt 0.23036851 0.5
vt 0.26945078 0.04809472
vt 0.08676826 0.4061752
vt 0.4999999 0.5
vt 0.43259203 0.63212794
vt 0.7305496 0.04809493
vt 0.46419555 0.65277684
vt 0.924265 0.42780185
vt 0.5032655 0.7348972
vt 0.8874314 0.5000002
vt 0.6781242 0.8491454
vt 0.7000416 0.8634657
vt 0.0630656 0.055375315
vt 0.08611851 0.05149529
vt 0.08611852 0.13911106
vt 0.06776751 0.14065534
vt 0.0630656 0.14105105
vt 0.0630656 0.055375315
vt 0.06306559 0.0553753
vt 0.08611851 0.05149529
vt 0.08611851 0.05149529
vt 0.08611854 0.14234552
vt 0.08611851 0.05149529
vt 0.06306559 0.0553753
vt 0.0817645 0.14307834
vt 0.06306556 0.14622547
vn -0 -1.6755138E-07 1
vn -0 0 1
vn -0 -1.6725309E-07 1
vn -0 0 1
vn -1.3009061E-07 0 1
vn -0 0 1
vn -1.4985936E-07 0 1
vn -0 1.6884533E-07 1
vn -1.4985936E-07 0 1
vn -0 1.6931635E-07 1
vn -1.0085056E-07 1.5825249E-07 1
vn -0 1.7063302E-07 1
vn -0.477532 0.8271097 0.2963994
vn -0.47753203 0.8271098 0.29639935
vn -0.47753203 0.8271098 0.29639938
vn -0.47753203 0.8271098 0.29639944
vn -0.47753203 0.8271098 0.29639938
vn -0.95506436 0 0.29639867
vn -0.95506436 0 0.2963986
vn -0.95506436 0 0.29639864
vn -0.95506436 0 0.29639864
vn -0.47753328 -0.82711047 0.29639542
vn -0.47753328 -0.82711047 0.29639542
vn -0.47753334 -0.82711047 0.29639542
vn -0.47753322 -0.82711047 0.29639545
vn -0.47753328 -0.82711047 0.29639542
g hex18_2_0
f 3/3/3 2/2/2 1/1/1
f 2/2/2 4/4/4 1/1/1
f 1/1/1 4/4/4 5/5/5
f 6/6/6 4/4/4 2/2/2
f 7/7/7 5/5/5 4/4/4
f 4/4/4 6/6/6 8/8/8
f 9/9/9 7/7/7 4/4/4
f 10/10/10 4/4/4 8/8/8
f 4/4/4 11/11/11 9/9/9
f 11/11/11 4/4/4 10/10/10
f 12/12/12 11/11/11 10/10/10
f 15/15/15 14/14/14 13/13/13
f 13/13/13 16/16/16 15/15/15
f 13/13/13 17/17/17 16/16/16
f 20/20/20 19/19/19 18/18/18
f 21/21/21 20/20/20 18/18/18
f 24/24/24 23/23/23 22/22/22
f 22/22/22 25/25/25 24/24/24
f 25/25/25 26/26/26 24/24/24
