g hex17_1
v 0.7591333 -0.16085167 0.0041534076
v 0.7585733 -0.16182174 0.00054382323
v 0.5402863 -0.035793837 0.00054382323
v 0.5489487 -0.030792616 0.028456291
v 0.7629046 -0.15431999 0.028456291
v 0.5489487 -0.030792616 0.028456291
v 0.5402863 -0.035793837 0.00054382323
v 0.5402863 0.018742675 0.00054380944
v 0.54192233 0.017798042 0.005815672
v 0.54894865 0.013741417 0.028456284
v 0.5875163 -0.008525581 0.028456284
v 0.5489487 -0.030792616 0.028456291
v 0.54894865 0.013741417 0.028456284
v 0.7629046 -0.15431999 0.028456291
v 0.7827014 -0.12003093 0.028456282
vt 0.08313735 0.26102024
vt 0.08611853 0.26127112
vt 0.08611854 0.16349995
vt 0.063065566 0.16349994
vt 0.06306554 0.2593311
vt 0.063065566 0.16349994
vt 0.08611854 0.16349995
vt 0.08611854 0.14234552
vt 0.0817645 0.14307834
vt 0.06306556 0.14622547
vt 0.8874314 0.5000002
vt 0.96109855 0.50000024
vt 0.924265 0.42780185
vt 0.7567618 0.90052533
vt 0.7000416 0.8634657
vn -0.47753248 -0.8271109 0.2963955
vn -0.47753245 -0.8271109 0.2963955
vn -0.47753245 -0.8271109 0.2963955
vn -0.47753248 -0.8271109 0.29639554
vn -0.47753248 -0.8271109 0.29639554
vn -0.9550651 -2.634998E-06 0.29639614
vn -0.9550651 -2.6349985E-06 0.29639617
vn -0.9550651 -2.634998E-06 0.29639614
vn -0.9550651 -2.6349983E-06 0.29639617
vn -0.9550651 -2.6349985E-06 0.29639614
vn 1.2361573E-07 1.8056106E-07 1
vn 1.2307888E-07 1.7970866E-07 1
vn 1.1104915E-07 1.6060875E-07 1
vn 1.2420008E-07 1.8148882E-07 1
vn 1.2420008E-07 1.8148883E-07 1
g hex17_1_0
f 3/3/3 2/2/2 1/1/1
f 1/1/1 4/4/4 3/3/3
f 1/1/1 5/5/5 4/4/4
f 8/8/8 7/7/7 6/6/6
f 6/6/6 9/9/9 8/8/8
f 6/6/6 10/10/10 9/9/9
f 13/13/13 12/12/12 11/11/11
f 11/11/11 12/12/12 14/14/14
f 15/15/15 11/11/11 14/14/14
