g hex2_3
v 0.5719789 0.009562492 0.028456291
v 0.7113526 0.250965 0.028456291
v 0.7213552 0.25096485 0.00054382323
v 0.5769802 0.0008999634 0.00054382323
v 0.7113526 0.250965 0.028456291
v 0.57197905 0.49236706 0.028456291
v 0.5769801 0.5010295 0.00054382323
v 0.7213552 0.25096485 0.00054382323
v 0.5719789 0.009562492 0.028456291
v 0.5769802 0.0008999634 0.00054382323
v 0.54028636 0.00090011593 0.00054382323
v 0.54028636 0.0020202636 0.0041534076
v 0.5402864 0.009562569 0.028456291
v 0.5402864 0.06445556 0.02845628
v 0.5719789 0.009562492 0.028456291
v 0.5402864 0.009562569 0.028456291
v 0.54028636 0.18651561 0.028456267
v 0.7113526 0.250965 0.028456291
v 0.5141054 0.25096485 0.028456258
v 0.5141054 0.228904 0.028456261
v 0.5141054 0.39212704 0.028456273
v 0.57197905 0.49236706 0.028456291
v 0.5141054 0.4923672 0.028456282
v 0.5141054 0.49413386 0.022763219
v 0.5141054 0.5010296 0.0005438073
v 0.5769801 0.5010295 0.00054382323
v 0.57197905 0.49236706 0.028456291
v 0.5141054 0.4923672 0.028456282
vt 0.06306555 0.27162445
vt 0.06306562 0.27162442
vt 0.08611851 0.27550444
vt 0.08611851 0.27550444
vt 0.06306562 0.27162442
vt 0.0630656 0.16349994
vt 0.08611854 0.16349995
vt 0.08611851 0.27550444
vt 0.06306555 0.27162445
vt 0.08611851 0.27550444
vt 0.08611853 0.26127112
vt 0.08313735 0.26102024
vt 0.06306554 0.2593311
vt 0.6781242 0.84914535
vt 0.73054934 0.95190513
vt 0.7567618 0.90052533
vt 0.5032655 0.7348972
vt 0.26945072 0.95190537
vt 0.43259203 0.63212794
vt 0.46419555 0.65277684
vt 0.23036851 0.5
vt 0.038901478 0.5
vt 0.08676826 0.4061752
vt 0.06776751 0.14065534
vt 0.08611852 0.13911106
vt 0.08611854 0.16349995
vt 0.0630656 0.16349994
vt 0.0630656 0.14105105
vn 0.82710963 -0.47753167 0.2964004
vn 0.82710963 -0.47753167 0.29640034
vn 0.82710963 -0.47753167 0.29640034
vn 0.82710963 -0.4775317 0.29640034
vn 0.8271111 0.477533 0.29639417
vn 0.8271111 0.47753307 0.2963942
vn 0.8271111 0.47753298 0.29639414
vn 0.8271111 0.477533 0.29639417
vn -2.3023022E-06 -0.95506424 0.29639882
vn -2.302302E-06 -0.95506424 0.2963988
vn -2.3023022E-06 -0.95506424 0.29639885
vn -2.3023022E-06 -0.95506424 0.29639882
vn -2.3023022E-06 -0.95506424 0.29639888
vn -1.9322475E-07 0 1
vn -1.8797354E-07 1.005279E-07 1
vn -0 2.171675E-07 1
vn -1.945837E-07 0 1
vn -1.8206006E-07 0 1
vn -1.8206006E-07 0 1
vn -1.9458372E-07 0 1
vn -1.7117517E-07 0 1
vn -1.7197722E-07 0 1
vn -1.8181801E-07 0 1
vn 9.84893E-07 0.95506454 0.296398
vn 9.84893E-07 0.95506454 0.296398
vn 9.84893E-07 0.95506454 0.296398
vn 9.84893E-07 0.95506454 0.296398
vn 9.84893E-07 0.95506454 0.296398
g hex2_3_0
f 3/3/3 2/2/2 1/1/1
f 4/4/4 3/3/3 1/1/1
f 7/7/7 6/6/6 5/5/5
f 8/8/8 7/7/7 5/5/5
f 11/11/11 10/10/10 9/9/9
f 9/9/9 12/12/12 11/11/11
f 9/9/9 13/13/13 12/12/12
f 16/16/16 15/15/15 14/14/14
f 17/17/17 14/14/14 15/15/15
f 17/17/17 15/15/15 18/18/18
f 18/18/18 19/19/19 17/17/17
f 19/19/19 20/20/20 17/17/17
f 19/19/19 18/18/18 21/21/21
f 18/18/18 22/22/22 21/21/21
f 21/21/21 22/22/22 23/23/23
f 26/26/26 25/25/25 24/24/24
f 24/24/24 27/27/27 26/26/26
f 24/24/24 28/28/28 27/27/27
