g hex5_1
v 0.5489487 0.0009000015 0.028456291
v 0.5414054 0.0008999634 0.0041534076
v 0.5402848 0.0008999634 0.00054382306
v 0.5402845 0.25295576 0.00054382306
v 0.54894865 0.2479548 0.028456291
v 0.5402845 0.25295576 0.00054382306
v 0.5875167 0.28022423 0.0005438088
v 0.5875167 0.27833518 0.0058156718
v 0.54894865 0.2479548 0.028456291
v 0.58751625 0.27022183 0.028456284
v 0.58751625 0.22568785 0.028456284
v 0.54894865 0.2479548 0.028456291
v 0.58751625 0.27022183 0.028456284
v 0.5489487 0.0009000015 0.028456291
v 0.5885423 0.0008999634 0.028456282
vt 0.06306554 0.2593311
vt 0.08313735 0.26102024
vt 0.08611853 0.26127112
vt 0.08611854 0.16349995
vt 0.063065566 0.16349994
vt 0.08611854 0.16349995
vt 0.08611854 0.14234552
vt 0.0817645 0.14307834
vt 0.063065566 0.16349994
vt 0.06306556 0.14622547
vt 0.8874314 0.5000002
vt 0.96109855 0.50000024
vt 0.924265 0.42780185
vt 0.7567618 0.90052533
vt 0.7000416 0.8634657
vn -0.9550492 -1.2552551E-06 0.29644737
vn -0.9550492 -1.2552547E-06 0.29644737
vn -0.9550492 -1.2552549E-06 0.29644737
vn -0.9550491 -1.2552549E-06 0.29644737
vn -0.9550491 -1.255255E-06 0.29644737
vn -0.4775246 0.8271132 0.29640165
vn -0.47752467 0.8271132 0.29640168
vn -0.47752467 0.8271132 0.2964017
vn -0.47752467 0.82711315 0.29640165
vn -0.4775246 0.8271132 0.29640168
vn 2.4229743E-07 0 1
vn 2.3669045E-07 0 1
vn 1.11049324E-07 0 1
vn 2.4840045E-07 0 1
vn 2.4840048E-07 0 1
g hex5_1_0
f 3/3/3 2/2/2 1/1/1
f 1/1/1 4/4/4 3/3/3
f 1/1/1 5/5/5 4/4/4
f 8/8/8 7/7/7 6/6/6
f 6/6/6 9/9/9 8/8/8
f 9/9/9 10/10/10 8/8/8
f 13/13/13 12/12/12 11/11/11
f 11/11/11 12/12/12 14/14/14
f 15/15/15 11/11/11 14/14/14
