g hex5_2
v 0.22890395 -0.5141053 0.028456261
v 0.18651554 -0.5402864 0.028456267
v 0.06445556 -0.5402864 0.02845628
v 0.25096482 -0.43260536 0.028456245
v 0.25096482 -0.5141054 0.028456258
v 0.39212692 -0.5141054 0.028456273
v 0.04812994 -0.31549865 0.028456284
v 0.049156073 -0.5402865 0.028456282
v 0.04812994 -0.27096465 0.028456284
v 0.2509648 -0.15385793 0.02845625
v 0.49236715 -0.2932317 0.02845625
v 0.492367 -0.5141053 0.028456282
v 0.50103134 -0.28823075 0.00054375076
v 0.5010311 -0.5141056 0.0005438071
v 0.4941339 -0.5141054 0.022763219
v 0.492367 -0.5141053 0.028456282
v 0.49236715 -0.2932317 0.02845625
v 0.49236715 -0.2932317 0.02845625
v 0.2509648 -0.15385793 0.02845625
v 0.25096476 -0.143856 0.00054375076
v 0.50103134 -0.28823075 0.00054375076
v 0.048130378 -0.26096374 0.0005438088
v 0.25096476 -0.143856 0.00054375076
v 0.2509648 -0.15385793 0.02845625
v 0.048130322 -0.2628504 0.0058156718
v 0.04812994 -0.27096465 0.028456284
vt 0.46419555 0.65277684
vt 0.5032655 0.7348972
vt 0.6781242 0.8491454
vt 0.4999999 0.5
vt 0.43259203 0.63212794
vt 0.23036851 0.5
vt 0.8874314 0.5000002
vt 0.7000416 0.8634657
vt 0.924265 0.42780185
vt 0.7305496 0.04809493
vt 0.26945078 0.04809472
vt 0.08676826 0.4061752
vt 0.08611851 0.05149529
vt 0.08611852 0.13911106
vt 0.06776751 0.14065534
vt 0.0630656 0.14105105
vt 0.0630656 0.055375315
vt 0.0630656 0.055375315
vt 0.06306559 0.0553753
vt 0.08611851 0.05149529
vt 0.08611851 0.05149529
vt 0.08611854 0.14234552
vt 0.08611851 0.05149529
vt 0.06306559 0.0553753
vt 0.0817645 0.14307834
vt 0.06306556 0.14622547
vn 1.2845123E-07 1.6876017E-07 1
vn 1.2845123E-07 1.6876017E-07 1
vn 1.7460702E-07 0 1
vn -0 0 1
vn -0 1.7141352E-07 1
vn -1.1720985E-07 1.4747877E-07 1
vn 1.7546645E-07 0 1
vn 1.7809764E-07 0 1
vn 1.7452514E-07 0 1
vn -0 0 1
vn -0 0 1
vn -1.1787356E-07 1.4642934E-07 1
vn 0.9550484 -1.0225671E-06 0.2964502
vn 0.9550484 -1.0225671E-06 0.29645017
vn 0.9550484 -1.0225671E-06 0.29645017
vn 0.9550484 -1.022567E-06 0.29645014
vn 0.9550484 -1.0225671E-06 0.29645014
vn 0.47753084 0.8271111 0.29639766
vn 0.4775308 0.8271111 0.29639763
vn 0.47753084 0.8271111 0.29639766
vn 0.47753084 0.8271111 0.29639766
vn -0.47753578 0.8271198 0.29636514
vn -0.47753587 0.8271198 0.29636514
vn -0.4775358 0.8271198 0.29636514
vn -0.4775358 0.8271198 0.29636514
vn -0.4775358 0.8271198 0.2963651
g hex5_2_0
f 3/3/3 2/2/2 1/1/1
f 4/4/4 3/3/3 1/1/1
f 1/1/1 5/5/5 4/4/4
f 6/6/6 4/4/4 5/5/5
f 3/3/3 4/4/4 7/7/7
f 8/8/8 3/3/3 7/7/7
f 7/7/7 4/4/4 9/9/9
f 4/4/4 10/10/10 9/9/9
f 10/10/10 4/4/4 11/11/11
f 11/11/11 4/4/4 6/6/6
f 12/12/12 11/11/11 6/6/6
f 15/15/15 14/14/14 13/13/13
f 13/13/13 16/16/16 15/15/15
f 13/13/13 17/17/17 16/16/16
f 20/20/20 19/19/19 18/18/18
f 21/21/21 20/20/20 18/18/18
f 24/24/24 23/23/23 22/22/22
f 22/22/22 25/25/25 24/24/24
f 25/25/25 26/26/26 24/24/24
