g hex9_2
v 0.25096485 -0.6479675 0.02845628
v 0.31051543 -0.49246043 0.028456261
v 0.31199482 -0.5422605 0.028456267
v 0.25096482 -0.43260536 0.028456245
v 0.32154593 -0.47335523 0.028456258
v 0.39212707 -0.35110527 0.028456273
v 0.048130054 -0.5497121 0.028456284
v 0.24331509 -0.66121733 0.028456282
v 0.009562473 -0.52744496 0.028456284
v 0.009562511 -0.29323152 0.02845625
v 0.2509649 -0.15385783 0.02845625
v 0.44224715 -0.26429468 0.028456282
v 0.2509649 -0.15385783 0.02845625
v 0.25096485 -0.14385523 0.00054375
v 0.4465783 -0.25679272 0.0005438073
v 0.4431305 -0.26276466 0.022763219
v 0.44224715 -0.26429468 0.028456282
v 0.2509649 -0.15385783 0.02845625
v 0.009562511 -0.29323152 0.02845625
v 0.00090001104 -0.28823033 0.00054375
v 0.25096485 -0.14385523 0.00054375
v 0.009562511 -0.29323152 0.02845625
v 0.009562473 -0.52744496 0.028456284
v 0.002536125 -0.5233883 0.005815672
v 0.0009000969 -0.5224438 0.00054380944
v 0.00090001104 -0.28823033 0.00054375
vt 0.6781242 0.8491454
vt 0.46419555 0.65277684
vt 0.5032655 0.7348972
vt 0.4999999 0.5
vt 0.43259203 0.63212794
vt 0.23036851 0.5
vt 0.8874314 0.5000002
vt 0.7000416 0.8634657
vt 0.924265 0.42780185
vt 0.7305496 0.04809493
vt 0.26945078 0.04809472
vt 0.08676826 0.4061752
vt 0.0630656 0.055375315
vt 0.08611851 0.05149529
vt 0.08611852 0.13911106
vt 0.06776751 0.14065534
vt 0.0630656 0.14105105
vt 0.0630656 0.055375315
vt 0.06306559 0.0553753
vt 0.08611851 0.05149529
vt 0.08611851 0.05149529
vt 0.06306559 0.0553753
vt 0.06306556 0.14622547
vt 0.0817645 0.14307834
vt 0.08611854 0.14234552
vt 0.08611851 0.05149529
vn -0 1.6341929E-07 1
vn -0 1.6330833E-07 1
vn -0 1.6330833E-07 1
vn -0 0 1
vn -1.3009117E-07 0 1
vn -1.8059865E-07 0 1
vn 1.07023595E-07 1.5112249E-07 1
vn -0 1.6342769E-07 1
vn 1.1635006E-07 1.4672035E-07 1
vn -0 0 1
vn -0 0 1
vn -1.7991209E-07 0 1
vn 0.47753233 0.8271097 0.29639903
vn 0.4775323 0.8271097 0.29639903
vn 0.4775323 0.8271097 0.29639903
vn 0.47753233 0.8271097 0.29639906
vn 0.4775323 0.8271097 0.29639903
vn -0.4775322 0.82711005 0.29639822
vn -0.47753224 0.82711005 0.29639822
vn -0.47753224 0.82711005 0.29639825
vn -0.47753224 0.82711005 0.29639822
vn -0.95506465 0 0.29639736
vn -0.95506465 0 0.29639736
vn -0.95506465 0 0.2963974
vn -0.95506465 0 0.2963974
vn -0.95506465 0 0.2963974
g hex9_2_0
f 3/3/3 2/2/2 1/1/1
f 4/4/4 1/1/1 2/2/2
f 2/2/2 5/5/5 4/4/4
f 6/6/6 4/4/4 5/5/5
f 1/1/1 4/4/4 7/7/7
f 8/8/8 1/1/1 7/7/7
f 7/7/7 4/4/4 9/9/9
f 4/4/4 10/10/10 9/9/9
f 10/10/10 4/4/4 11/11/11
f 11/11/11 4/4/4 6/6/6
f 12/12/12 11/11/11 6/6/6
f 15/15/15 14/14/14 13/13/13
f 13/13/13 16/16/16 15/15/15
f 13/13/13 17/17/17 16/16/16
f 20/20/20 19/19/19 18/18/18
f 21/21/21 20/20/20 18/18/18
f 24/24/24 23/23/23 22/22/22
f 22/22/22 25/25/25 24/24/24
f 22/22/22 26/26/26 25/25/25
