g LegacyNecklace
v -2.469867E-06 0.6079966 0.004074741
v 0.006865688 0.6002066 0.001511846
v -2.469867E-06 0.5993658 0.002352636
v 0.006247755 0.6089184 0.003264338
v 0.01093796 0.6101543 0.001592886
v 0.01178888 0.6013817 -0.000190001
v 0.01533439 0.6031038 -0.003117576
v 0.01443282 0.6120283 -0.001334693
v 0.01770482 0.6139226 -0.004515521
v 0.01864691 0.6048563 -0.006298406
v 0.02175683 0.608736 -0.01397697
v 0.02047031 0.6174985 -0.0114242
v 0.02213164 0.6121904 -0.0210376
v 0.0213415 0.6205679 -0.01763391
v 0.02098694 0.6228067 -0.02254697
v 0.0214428 0.6142164 -0.02537325
v 0.01881912 0.624782 -0.02760185
v 0.01946744 0.6163842 -0.03039774
v 0.013045 0.6261495 -0.03259595
v 0.01361229 0.6174783 -0.03467261
v 0.0076457 0.6264535 -0.03418637
v 0.00786856 0.6179037 -0.0363238
v -2.469867E-06 0.6181468 -0.03725577
v 0.00786856 0.6179037 -0.0363238
v 0.0076457 0.6264535 -0.03418637
v -2.469867E-06 0.6266155 -0.03504742
v -0.006252699 0.6089184 0.003264338
v -2.469867E-06 0.6079966 0.004074741
v -2.469867E-06 0.5993658 0.002352636
v -0.006860498 0.6002066 0.001511846
v -0.01093277 0.6101543 0.001592886
v -0.01179382 0.6013817 -0.000190001
v -0.01533933 0.6031038 -0.003117576
v -0.01443776 0.6120283 -0.001334693
v -0.01770976 0.6139226 -0.004515521
v -0.01865185 0.6048563 -0.006298406
v -0.02175164 0.608736 -0.01397697
v -0.02047525 0.6174985 -0.0114242
v -0.02213658 0.6121904 -0.0210376
v -0.02133631 0.6205679 -0.01763391
v -0.02099189 0.6228067 -0.02254697
v -0.02144774 0.6142164 -0.02537325
v -0.01881393 0.624782 -0.02760185
v -0.01947238 0.6163842 -0.03039774
v -0.01303982 0.6261495 -0.03259595
v -0.0136071 0.6174783 -0.03467261
v -0.00765064 0.6264535 -0.03418637
v -0.007863373 0.6179037 -0.0363238
v -0.007863373 0.6179037 -0.0363238
v -2.469867E-06 0.6181468 -0.03725577
v -2.469867E-06 0.6266155 -0.03504742
v -0.00765064 0.6264535 -0.03418637
vt 0.4886223 0.9831884
vt 0.530713 0.9132126
vt 0.4865178 0.9132126
vt 0.530713 0.9831884
vt 0.5638595 0.9831884
vt 0.5638595 0.9132126
vt 0.5975321 0.9132126
vt 0.5975321 0.9831884
vt 0.6312047 0.9831884
vt 0.6312047 0.9132126
vt 0.6932885 0.9132126
vt 0.6932885 0.9831884
vt 0.7585291 0.9132126
vt 0.7585291 0.9831884
vt 0.8148255 0.9831884
vt 0.8148255 0.9132126
vt 0.8711218 0.9831884
vt 0.8711218 0.9132126
vt 0.9174216 0.9831884
vt 0.9174216 0.9132126
vt 0.9510943 0.9831884
vt 0.9510943 0.9132126
vt 0.02088904 0.9132126
vt 0.9510943 0.9132126
vt 0.9510943 0.9831884
vt 0.02246743 0.9831884
vt 0.530713 0.9831884
vt 0.4886223 0.9831884
vt 0.4865178 0.9132126
vt 0.530713 0.9132126
vt 0.5638595 0.9831884
vt 0.5638595 0.9132126
vt 0.5975321 0.9132126
vt 0.5975321 0.9831884
vt 0.6312047 0.9831884
vt 0.6312047 0.9132126
vt 0.6932885 0.9132126
vt 0.6932885 0.9831884
vt 0.7585291 0.9132126
vt 0.7585291 0.9831884
vt 0.8148255 0.9831884
vt 0.8148255 0.9132126
vt 0.8711218 0.9831884
vt 0.8711218 0.9132126
vt 0.9174216 0.9831884
vt 0.9174216 0.9132126
vt 0.9510943 0.9831884
vt 0.9510943 0.9132126
vt 0.9510943 0.9132126
vt 0.02088904 0.9132126
vt 0.02246743 0.9831884
vt 0.9510943 0.9831884
vn -0.003903031 -0.1912466 0.9815342
vn 0.2380826 -0.1756347 0.9552325
vn -0.003903031 -0.1912466 0.9815342
vn 0.2458885 -0.1756347 0.953253
vn 0.526904 -0.1209928 0.8412686
vn 0.5034861 -0.1287988 0.8543493
vn 0.6830238 -0.07415682 0.7266218
vn 0.6908298 -0.07415682 0.7192044
vn 0.8703674 -0.003902972 0.4923874
vn 0.8469495 -0.01170897 0.5315445
vn 0.9562333 0.04293299 0.2894386
vn 0.9640393 0.05073893 0.2608713
vn 0.9952632 0.08196282 0.05228046
vn 0.9952632 0.08196282 0.05228046
vn 0.9718453 0.1366048 -0.1919789
vn 0.9718453 0.1366048 -0.1919789
vn 0.7845016 0.2224706 -0.5788472
vn 0.8001136 0.2224706 -0.5570683
vn 0.4878741 0.2536945 -0.8352352
vn 0.5034861 0.2536945 -0.8259182
vn 0.1912466 0.2458886 -0.9502439
vn 0.1912466 0.2458886 -0.9502439
vn -0.003903031 0.2458886 -0.9692902
vn 0.1912466 0.2458886 -0.9502439
vn 0.1912466 0.2458886 -0.9502439
vn -0.003903031 0.2458886 -0.9692902
vn -0.2458886 -0.1756347 0.953253
vn -0.003903031 -0.1912466 0.9815342
vn -0.003903031 -0.1912466 0.9815342
vn -0.2380826 -0.1756347 0.9552325
vn -0.5269041 -0.1209928 0.8412685
vn -0.5034862 -0.1287988 0.8543492
vn -0.6830238 -0.07415682 0.7266218
vn -0.6908298 -0.07415682 0.7192044
vn -0.8703675 -0.003902972 0.4923872
vn -0.8469496 -0.01170897 0.5315443
vn -0.9562334 0.04293299 0.2894382
vn -0.9640393 0.05073893 0.2608711
vn -0.9952632 0.08196282 0.05228046
vn -0.9952632 0.08196282 0.05228046
vn -0.9718453 0.1366048 -0.1919789
vn -0.9718453 0.1366048 -0.1919789
vn -0.7845017 0.2224706 -0.5788471
vn -0.8001136 0.2224706 -0.5570683
vn -0.4878742 0.2536945 -0.8352352
vn -0.5034862 0.2536945 -0.8259181
vn -0.1912466 0.2458886 -0.9502439
vn -0.1912466 0.2458886 -0.9502439
vn -0.1912466 0.2458886 -0.9502439
vn -0.003903031 0.2458886 -0.9692902
vn -0.003903031 0.2458886 -0.9692902
vn -0.1912466 0.2458886 -0.9502439
g LegacyNecklace_0
f 3/3/3 2/2/2 1/1/1
f 2/2/2 4/4/4 1/1/1
f 5/5/5 4/4/4 2/2/2
f 6/6/6 5/5/5 2/2/2
f 5/5/5 6/6/6 7/7/7
f 8/8/8 5/5/5 7/7/7
f 9/9/9 8/8/8 7/7/7
f 10/10/10 9/9/9 7/7/7
f 10/10/10 11/11/11 9/9/9
f 11/11/11 12/12/12 9/9/9
f 11/11/11 13/13/13 12/12/12
f 13/13/13 14/14/14 12/12/12
f 15/15/15 14/14/14 13/13/13
f 16/16/16 15/15/15 13/13/13
f 15/15/15 16/16/16 17/17/17
f 16/16/16 18/18/18 17/17/17
f 19/19/19 17/17/17 18/18/18
f 20/20/20 19/19/19 18/18/18
f 21/21/21 19/19/19 20/20/20
f 22/22/22 21/21/21 20/20/20
f 25/25/25 24/24/24 23/23/23
f 26/26/26 25/25/25 23/23/23
f 29/29/29 28/28/28 27/27/27
f 30/30/30 29/29/29 27/27/27
f 30/30/30 27/27/27 31/31/31
f 32/32/32 30/30/30 31/31/31
f 33/33/33 32/32/32 31/31/31
f 34/34/34 33/33/33 31/31/31
f 33/33/33 34/34/34 35/35/35
f 36/36/36 33/33/33 35/35/35
f 36/36/36 35/35/35 37/37/37
f 35/35/35 38/38/38 37/37/37
f 37/37/37 38/38/38 39/39/39
f 38/38/38 40/40/40 39/39/39
f 39/39/39 40/40/40 41/41/41
f 42/42/42 39/39/39 41/41/41
f 41/41/41 43/43/43 42/42/42
f 43/43/43 44/44/44 42/42/42
f 44/44/44 43/43/43 45/45/45
f 46/46/46 44/44/44 45/45/45
f 46/46/46 45/45/45 47/47/47
f 48/48/48 46/46/46 47/47/47
f 51/51/51 50/50/50 49/49/49
f 52/52/52 51/51/51 49/49/49
