g m_gym_visit_field
v 0.28486443 -0.45 -0.876724
v 5.0287326E-08 -0.32366964 -0.92184085
v 5.0287326E-08 -0.45 -0.92184085
v 0.28486443 -0.32366964 -0.876724
v 0.5418462 -0.45 -0.745783
v 5.0287326E-08 0.33811572 -0.92184085
v 0.5418462 -0.32366964 -0.745783
v 0.7457831 -0.45 -0.5418462
v 0.28486443 0.33811572 -0.876724
v 5.0287326E-08 0.45 -0.92184085
v 0.28486443 0.45 -0.876724
v 0.5418462 0.33811572 -0.745783
v 0.5418462 0.45 -0.745783
v 0.7457831 -0.32366964 -0.5418462
v 0.87672406 -0.45 -0.28486443
v 0.7457831 0.33811572 -0.5418462
v 0.7457831 0.45 -0.5418462
v 0.87672406 -0.32366964 -0.28486443
v 0.92184067 -0.45 7.543122E-08
v 0.87672406 0.33811572 -0.28486443
v 0.87672406 0.45 -0.28486443
v 0.92184067 -0.32366964 7.543122E-08
v 0.87672377 -0.45 0.28486434
v 0.92184067 0.33811572 7.543122E-08
v 0.92184067 0.45 7.543122E-08
v 0.87672377 -0.32366964 0.28486434
v 0.7457865 -0.45 0.541846
v 0.87672377 0.33811572 0.28486434
v 0.87672377 0.45 0.28486434
v 0.7457865 -0.32366964 0.541846
v 0.541846 -0.45 0.74578655
v 0.7457865 0.33811572 0.541846
v 0.7457865 0.45 0.541846
v 0.541846 -0.32366964 0.74578655
v 0.2848643 -0.45 0.8767238
v 0.541846 0.33811572 0.74578655
v 0.541846 0.45 0.74578655
v 0.2848643 -0.32366964 0.8767238
v 2.2814334E-08 -0.45 0.9218407
v 0.2848643 0.33811572 0.8767238
v 0.2848643 0.45 0.8767238
v 2.2814334E-08 -0.32366964 0.9218407
v -0.28486437 -0.45 0.8767238
v 2.2814334E-08 0.33811572 0.9218407
v 2.2814334E-08 0.45 0.9218407
v -0.28486437 -0.32366964 0.8767238
v -0.5418461 -0.45 0.74578667
v -0.2848644 0.33811572 0.8767238
v -0.28486437 0.45 0.8767238
v -0.5418461 -0.32366964 0.74578655
v -0.7457867 -0.45 0.5418461
v -0.5418461 0.33811572 0.74578655
v -0.5418461 0.45 0.74578667
v -0.7457867 -0.32366964 0.5418461
v -0.8767238 -0.45 0.28486437
v -0.7457867 0.33811572 0.5418461
v -0.7457867 0.45 0.5418461
v -0.8767238 -0.32366964 0.28486437
v -0.9218408 -0.45 7.543122E-08
v -0.8767238 0.33811572 0.2848644
v -0.8767238 0.45 0.28486437
v -0.9218408 -0.32366964 7.543122E-08
v -0.8767238 -0.45 -0.28486437
v -0.9218408 0.33811572 7.543122E-08
v -0.9218408 0.45 7.543122E-08
v -0.8767238 -0.32366964 -0.28486437
v -0.74578285 -0.45 -0.5418461
v -0.8767238 0.33811572 -0.2848644
v -0.8767238 0.45 -0.28486437
v -0.74578285 -0.32366964 -0.5418461
v -0.5418461 -0.45 -0.7457829
v -0.74578285 0.33811572 -0.5418461
v -0.74578285 0.45 -0.5418461
v -0.5418461 -0.32366964 -0.7457829
v -0.28486443 -0.45 -0.876724
v -0.5418461 0.33811572 -0.7457829
v -0.5418461 0.45 -0.7457829
v -0.28486443 -0.32366964 -0.876724
v 5.0287326E-08 -0.45 -0.92184085
v 5.0287326E-08 -0.32366964 -0.92184085
v -0.28486443 0.33811572 -0.876724
v -0.28486443 0.45 -0.876724
v 5.0287326E-08 0.33811572 -0.92184085
v 5.0287326E-08 0.45 -0.92184085
vt 0.950032 -0.040911198
vt 1.0000318 0.07871607
vt 1.0000318 -0.040911198
vt 0.950032 0.07871607
vt 0.90003145 -0.040911198
vt 1.0000318 0.93864846
vt 0.90003145 0.07871607
vt 0.8500323 -0.040911198
vt 0.950032 0.93864846
vt 1.0000318 1.0409112
vt 0.950032 1.0409112
vt 0.90003145 0.93864846
vt 0.90003145 1.0409112
vt 0.8500323 0.07871607
vt 0.8000318 -0.040911198
vt 0.8500323 0.93864846
vt 0.8500323 1.0409112
vt 0.8000318 0.07871607
vt 0.7500318 -0.040911198
vt 0.8000318 0.93864846
vt 0.8000318 1.0409112
vt 0.7500318 0.07871607
vt 0.700032 -0.040911198
vt 0.7500318 0.93864846
vt 0.7500318 1.0409112
vt 0.700032 0.07871607
vt 0.65003186 -0.040911198
vt 0.700032 0.93864846
vt 0.700032 1.0409112
vt 0.65003186 0.07871607
vt 0.600032 -0.040911198
vt 0.65003186 0.93864846
vt 0.65003186 1.0409112
vt 0.600032 0.07871607
vt 0.55003184 -0.040911198
vt 0.600032 0.93864846
vt 0.600032 1.0409112
vt 0.55003184 0.07871607
vt 0.50003195 -0.040911198
vt 0.55003184 0.93864846
vt 0.55003184 1.0409112
vt 0.50003195 0.07871607
vt 0.450032 -0.040911198
vt 0.50003195 0.93864846
vt 0.50003195 1.0409112
vt 0.450032 0.07871607
vt 0.4000319 -0.040911198
vt 0.450032 0.93864846
vt 0.450032 1.0409112
vt 0.4000319 0.07871607
vt 0.35003197 -0.040911198
vt 0.4000319 0.93864846
vt 0.4000319 1.0409112
vt 0.35003197 0.07871607
vt 0.30003184 -0.040911198
vt 0.35003197 0.93864846
vt 0.35003197 1.0409112
vt 0.30003184 0.07871607
vt 0.25003195 -0.040911198
vt 0.30003184 0.93864846
vt 0.30003184 1.0409112
vt 0.25003195 0.07871607
vt 0.200032 -0.040911198
vt 0.25003195 0.93864846
vt 0.25003195 1.0409112
vt 0.200032 0.07871607
vt 0.15003148 -0.040911198
vt 0.200032 0.93864846
vt 0.200032 1.0409112
vt 0.15003148 0.07871607
vt 0.10003236 -0.040911198
vt 0.15003148 0.93864846
vt 0.15003148 1.0409112
vt 0.10003236 0.07871607
vt 0.05003184 -0.040911198
vt 0.10003236 0.93864846
vt 0.10003236 1.0409112
vt 0.05003184 0.07871607
vt 3.1888485E-05 -0.040911198
vt 3.1888485E-05 0.07871607
vt 0.05003184 0.93864846
vt 0.05003184 1.0409112
vt 3.1888485E-05 0.93864846
vt 3.1888485E-05 1.0409112
vn 0.30901915 0 -0.9510558
vn -0 0 -1
vn -0 0 -1
vn 0.30901927 0 -0.9510558
vn 0.5877862 0 -0.80901635
vn -0 0 -1
vn 0.58778626 0 -0.80901635
vn 0.8090163 0 -0.5877863
vn 0.3090192 0 -0.9510558
vn -0 0 -1
vn 0.30901915 0 -0.9510558
vn 0.58778626 0 -0.80901635
vn 0.58778626 0 -0.8090163
vn 0.8090163 0 -0.5877863
vn 0.95105594 0 -0.3090187
vn 0.8090163 0 -0.58778626
vn 0.80901617 0 -0.5877863
vn 0.95105594 0 -0.30901864
vn 1 0 5.2636744E-07
vn 0.95105594 0 -0.30901864
vn 0.95105594 0 -0.30901864
vn 1 0 5.278759E-07
vn 0.9510576 0 0.30901337
vn 1 0 5.2891716E-07
vn 1 0 5.486124E-07
vn 0.9510576 0 0.3090134
vn 0.80901855 0 0.5877831
vn 0.9510576 0 0.3090134
vn 0.9510576 0 0.3090134
vn 0.80901855 0 0.58778316
vn 0.5877834 0 0.8090183
vn 0.80901855 0 0.58778316
vn 0.80901855 0 0.5877831
vn 0.58778334 0 0.8090184
vn 0.3090135 0 0.9510576
vn 0.58778334 0 0.8090184
vn 0.5877832 0 0.80901843
vn 0.3090135 0 0.9510576
vn -0 0 1
vn 0.30901346 0 0.9510576
vn 0.3090133 0 0.9510576
vn -0 0 1
vn -0.30901328 1.503594E-07 0.9510576
vn -0 0 1
vn -0 0 1
vn -0.3090134 0 0.9510576
vn -0.587783 3.1996223E-07 0.8090187
vn -0.30901337 0 0.9510576
vn -0.30901325 0 0.95105773
vn -0.5877831 0 0.80901855
vn -0.80901855 1.6960287E-07 0.58778316
vn -0.5877831 0 0.80901855
vn -0.5877829 -2.6552382E-07 0.8090187
vn -0.80901855 0 0.5877832
vn -0.95105773 0 0.30901325
vn -0.80901855 0 0.5877832
vn -0.80901843 0 0.5877832
vn -0.95105773 0 0.3090132
vn -1 0 0
vn -0.95105773 0 0.30901328
vn -0.95105773 2.6233414E-07 0.30901328
vn -1 0 0
vn -0.9510557 0 -0.30901933
vn -1 0 0
vn -1 -2.6233468E-07 0
vn -0.9510557 0 -0.3090193
vn -0.8090163 0 -0.58778626
vn -0.9510557 0 -0.30901933
vn -0.9510558 -2.6233354E-07 -0.3090193
vn -0.80901635 0 -0.5877862
vn -0.5877864 0 -0.80901617
vn -0.80901635 0 -0.5877862
vn -0.80901635 0 -0.5877862
vn -0.58778644 0 -0.8090161
vn -0.3090193 0 -0.9510557
vn -0.5877865 0 -0.8090161
vn -0.5877865 0 -0.80901605
vn -0.30901936 0 -0.9510557
vn -0 0 -1
vn -0 0 -1
vn -0.30901933 0 -0.9510557
vn -0.30901933 0 -0.9510557
vn -0 0 -1
vn -0 0 -1
g m_gym_visit_field_0
f 3/3/3 2/2/2 1/1/1
f 2/2/2 4/4/4 1/1/1
f 1/1/1 4/4/4 5/5/5
f 2/2/2 6/6/6 4/4/4
f 4/4/4 7/7/7 5/5/5
f 5/5/5 7/7/7 8/8/8
f 6/6/6 9/9/9 4/4/4
f 4/4/4 9/9/9 7/7/7
f 6/6/6 10/10/10 9/9/9
f 10/10/10 11/11/11 9/9/9
f 9/9/9 11/11/11 12/12/12
f 9/9/9 12/12/12 7/7/7
f 11/11/11 13/13/13 12/12/12
f 7/7/7 14/14/14 8/8/8
f 7/7/7 12/12/12 14/14/14
f 8/8/8 14/14/14 15/15/15
f 12/12/12 13/13/13 16/16/16
f 12/12/12 16/16/16 14/14/14
f 13/13/13 17/17/17 16/16/16
f 14/14/14 18/18/18 15/15/15
f 14/14/14 16/16/16 18/18/18
f 15/15/15 18/18/18 19/19/19
f 16/16/16 17/17/17 20/20/20
f 16/16/16 20/20/20 18/18/18
f 17/17/17 21/21/21 20/20/20
f 18/18/18 22/22/22 19/19/19
f 18/18/18 20/20/20 22/22/22
f 19/19/19 22/22/22 23/23/23
f 20/20/20 21/21/21 24/24/24
f 20/20/20 24/24/24 22/22/22
f 21/21/21 25/25/25 24/24/24
f 22/22/22 26/26/26 23/23/23
f 22/22/22 24/24/24 26/26/26
f 23/23/23 26/26/26 27/27/27
f 24/24/24 25/25/25 28/28/28
f 24/24/24 28/28/28 26/26/26
f 25/25/25 29/29/29 28/28/28
f 26/26/26 30/30/30 27/27/27
f 26/26/26 28/28/28 30/30/30
f 27/27/27 30/30/30 31/31/31
f 28/28/28 29/29/29 32/32/32
f 28/28/28 32/32/32 30/30/30
f 29/29/29 33/33/33 32/32/32
f 30/30/30 34/34/34 31/31/31
f 30/30/30 32/32/32 34/34/34
f 31/31/31 34/34/34 35/35/35
f 32/32/32 33/33/33 36/36/36
f 32/32/32 36/36/36 34/34/34
f 33/33/33 37/37/37 36/36/36
f 34/34/34 38/38/38 35/35/35
f 34/34/34 36/36/36 38/38/38
f 35/35/35 38/38/38 39/39/39
f 36/36/36 37/37/37 40/40/40
f 36/36/36 40/40/40 38/38/38
f 37/37/37 41/41/41 40/40/40
f 38/38/38 42/42/42 39/39/39
f 38/38/38 40/40/40 42/42/42
f 39/39/39 42/42/42 43/43/43
f 40/40/40 41/41/41 44/44/44
f 40/40/40 44/44/44 42/42/42
f 41/41/41 45/45/45 44/44/44
f 42/42/42 46/46/46 43/43/43
f 42/42/42 44/44/44 46/46/46
f 43/43/43 46/46/46 47/47/47
f 44/44/44 45/45/45 48/48/48
f 44/44/44 48/48/48 46/46/46
f 45/45/45 49/49/49 48/48/48
f 46/46/46 50/50/50 47/47/47
f 46/46/46 48/48/48 50/50/50
f 47/47/47 50/50/50 51/51/51
f 48/48/48 49/49/49 52/52/52
f 48/48/48 52/52/52 50/50/50
f 49/49/49 53/53/53 52/52/52
f 50/50/50 54/54/54 51/51/51
f 50/50/50 52/52/52 54/54/54
f 51/51/51 54/54/54 55/55/55
f 52/52/52 53/53/53 56/56/56
f 52/52/52 56/56/56 54/54/54
f 53/53/53 57/57/57 56/56/56
f 54/54/54 58/58/58 55/55/55
f 54/54/54 56/56/56 58/58/58
f 55/55/55 58/58/58 59/59/59
f 56/56/56 57/57/57 60/60/60
f 56/56/56 60/60/60 58/58/58
f 57/57/57 61/61/61 60/60/60
f 58/58/58 62/62/62 59/59/59
f 58/58/58 60/60/60 62/62/62
f 59/59/59 62/62/62 63/63/63
f 60/60/60 61/61/61 64/64/64
f 60/60/60 64/64/64 62/62/62
f 61/61/61 65/65/65 64/64/64
f 62/62/62 66/66/66 63/63/63
f 62/62/62 64/64/64 66/66/66
f 63/63/63 66/66/66 67/67/67
f 64/64/64 65/65/65 68/68/68
f 64/64/64 68/68/68 66/66/66
f 65/65/65 69/69/69 68/68/68
f 66/66/66 70/70/70 67/67/67
f 66/66/66 68/68/68 70/70/70
f 67/67/67 70/70/70 71/71/71
f 68/68/68 69/69/69 72/72/72
f 68/68/68 72/72/72 70/70/70
f 69/69/69 73/73/73 72/72/72
f 70/70/70 74/74/74 71/71/71
f 70/70/70 72/72/72 74/74/74
f 71/71/71 74/74/74 75/75/75
f 72/72/72 73/73/73 76/76/76
f 72/72/72 76/76/76 74/74/74
f 73/73/73 77/77/77 76/76/76
f 74/74/74 78/78/78 75/75/75
f 74/74/74 76/76/76 78/78/78
f 75/75/75 78/78/78 79/79/79
f 78/78/78 80/80/80 79/79/79
f 76/76/76 77/77/77 81/81/81
f 76/76/76 81/81/81 78/78/78
f 78/78/78 81/81/81 80/80/80
f 77/77/77 82/82/82 81/81/81
f 81/81/81 83/83/83 80/80/80
f 81/81/81 82/82/82 83/83/83
f 82/82/82 84/84/84 83/83/83
