g mesh_ring_ghost
v 0.05327345 0.1988245 -0.02717225
v 3.144145E-06 0.2058413 0.02717224
v 3.144145E-06 0.2058413 -0.02717225
v 0.05327345 0.1988245 0.02717224
v 0.1029191 0.1782639 -0.02717225
v 0.1029191 0.1782639 0.02717224
v 0.1455542 0.1455542 -0.02717225
v 0.1455542 0.1455542 0.02717224
v 0.1782639 0.1029191 -0.02717225
v 0.1782639 0.1029191 0.02717224
v 0.1988245 0.05327342 -0.02717225
v 0.1988245 0.05327342 0.02717224
v 0.2058413 3.129244E-06 -0.02717225
v 0.2058413 3.129244E-06 0.02717224
v 0.1988245 -0.05327345 -0.02717225
v 0.1988245 -0.05327345 0.02717224
v 0.1782639 -0.1029191 -0.02717225
v 0.1782639 -0.1029191 0.02717224
v 0.1455542 -0.1455542 -0.02717225
v 0.1455542 -0.1455542 0.02717224
v 0.1029191 -0.1782639 -0.02717225
v 0.1029191 -0.1782639 0.02717224
v 0.05327345 -0.1988245 -0.02717225
v 0.05327345 -0.1988245 0.02717224
v -3.129244E-06 -0.2058413 -0.02717225
v -3.129244E-06 -0.2058413 0.02717224
v -0.05327342 -0.1988245 -0.02717225
v -0.05327342 -0.1988245 0.02717224
v -0.1029191 -0.1782639 -0.02717225
v -0.1029191 -0.1782639 0.02717224
v -0.1455542 -0.1455542 -0.02717225
v -0.1455542 -0.1455542 0.02717224
v -0.1782639 -0.1029191 -0.02717225
v -0.1782639 -0.1029191 0.02717224
v -0.1988245 -0.05327345 -0.02717225
v -0.1988245 -0.05327345 0.02717224
v -0.2058413 3.129244E-06 -0.02717225
v -0.2058413 3.129244E-06 0.02717224
v -0.1988245 0.05327342 -0.02717225
v -0.1988245 0.05327342 0.02717224
v -0.1782639 0.1029191 -0.02717225
v -0.1782639 0.1029191 0.02717224
v -0.1455542 0.1455542 -0.02717225
v -0.1455542 0.1455542 0.02717224
v -0.1029191 0.1782639 -0.02717225
v -0.1029191 0.1782639 0.02717224
v -0.05327342 0.1988245 -0.02717225
v -0.05327342 0.1988245 0.02717224
v 3.144145E-06 0.2058413 -0.02717225
v 3.144145E-06 0.2058413 0.02717224
vt 0.9584576 0.0004885213
vt 1.000002 1.000491
vt 1.000002 0.0004885213
vt 0.9584576 1.000491
vt 0.9164242 0.0004885213
vt 0.9164242 1.000491
vt 0.8748797 0.0004885213
vt 0.8748797 1.000491
vt 0.8333351 0.0004885213
vt 0.8333351 1.000491
vt 0.7917905 0.0004885213
vt 0.7917905 1.000491
vt 0.7497572 0.0004885213
vt 0.7497572 1.000491
vt 0.7082126 0.0004885213
vt 0.7082126 1.000491
vt 0.666668 0.0004885213
vt 0.666668 1.000491
vt 0.6251234 0.0004885213
vt 0.6251234 1.000491
vt 0.5830901 0.0004885213
vt 0.5830901 1.000491
vt 0.5415455 0.0004885213
vt 0.5415455 1.000491
vt 0.500001 0.0004885213
vt 0.500001 1.000491
vt 0.4584564 0.0004885213
vt 0.4584564 1.000491
vt 0.4164231 0.0004885213
vt 0.4164231 1.000491
vt 0.3748785 0.0004885213
vt 0.3748785 1.000491
vt 0.3333339 0.0004885213
vt 0.3333339 1.000491
vt 0.2917893 0.0004885213
vt 0.2917893 1.000491
vt 0.249756 0.0004885213
vt 0.249756 1.000491
vt 0.2082114 0.0004885213
vt 0.2082114 1.000491
vt 0.1666668 0.0004885213
vt 0.1666668 1.000491
vt 0.1251222 0.0004885213
vt 0.1251222 1.000491
vt 0.08308891 0.0004885213
vt 0.08308891 1.000491
vt 0.04154434 0.0004885213
vt 0.04154434 1.000491
vt -2.384186E-07 0.0004885213
vt -2.384186E-07 1.000491
vn 0.2544934 0.9670746 0
vn 0.003921568 0.9999923 -0.000345267
vn 0.003921568 0.9999923 -0.000345267
vn 0.2544934 0.9670746 0
vn 0.4980354 0.86666 -0.02934566
vn 0.4980354 0.86666 -0.02934566
vn 0.7071068 0.7071068 0
vn 0.7071068 0.7071068 0
vn 0.8666601 0.4980353 -0.02934592
vn 0.8666601 0.4980353 -0.02934592
vn 0.9670746 0.2544933 0
vn 0.9670746 0.2544933 0
vn 0.9999924 -0.003921568 0
vn 0.9999924 -0.003921568 0
vn 0.9670746 -0.2544933 0
vn 0.9670746 -0.2544933 0
vn 0.8666601 -0.4980354 -0.02934388
vn 0.8666601 -0.4980354 -0.02934388
vn 0.7071068 -0.7071068 0
vn 0.7071068 -0.7071068 0
vn 0.4980354 -0.8666601 -0.02934363
vn 0.4980354 -0.8666601 -0.02934363
vn 0.2544933 -0.9670746 0
vn 0.2544933 -0.9670746 0
vn -0.003921509 -0.9999924 0
vn -0.003921509 -0.9999924 0
vn -0.2544933 -0.9670746 0
vn -0.2544933 -0.9670746 0
vn -0.4980353 -0.8666601 -0.02934566
vn -0.4980353 -0.8666601 -0.02934566
vn -0.7071068 -0.7071068 0
vn -0.7071068 -0.7071068 0
vn -0.86666 -0.4980354 -0.02934592
vn -0.86666 -0.4980354 -0.02934592
vn -0.9670746 -0.2544934 0
vn -0.9670746 -0.2544934 0
vn -0.9999923 0.003921509 -0.0003449296
vn -0.9999923 0.003921509 -0.0003449296
vn -0.9670746 0.2544933 0
vn -0.9670746 0.2544933 0
vn -0.86666 0.4980353 -0.02934795
vn -0.86666 0.4980353 -0.02934795
vn -0.7071068 0.7071068 0
vn -0.7071068 0.7071068 0
vn -0.4980353 0.86666 -0.02934769
vn -0.4980353 0.86666 -0.02934769
vn -0.2544933 0.9670746 0
vn -0.2544933 0.9670746 0
vn 0.003921568 0.9999923 -0.000345267
vn 0.003921568 0.9999923 -0.000345267
g mesh_ring_ghost_0
f 3/3/3 2/2/2 1/1/1
f 2/2/2 4/4/4 1/1/1
f 1/1/1 4/4/4 5/5/5
f 4/4/4 6/6/6 5/5/5
f 5/5/5 6/6/6 7/7/7
f 6/6/6 8/8/8 7/7/7
f 7/7/7 8/8/8 9/9/9
f 8/8/8 10/10/10 9/9/9
f 9/9/9 10/10/10 11/11/11
f 10/10/10 12/12/12 11/11/11
f 11/11/11 12/12/12 13/13/13
f 12/12/12 14/14/14 13/13/13
f 13/13/13 14/14/14 15/15/15
f 14/14/14 16/16/16 15/15/15
f 15/15/15 16/16/16 17/17/17
f 16/16/16 18/18/18 17/17/17
f 17/17/17 18/18/18 19/19/19
f 18/18/18 20/20/20 19/19/19
f 19/19/19 20/20/20 21/21/21
f 20/20/20 22/22/22 21/21/21
f 21/21/21 22/22/22 23/23/23
f 22/22/22 24/24/24 23/23/23
f 23/23/23 24/24/24 25/25/25
f 24/24/24 26/26/26 25/25/25
f 25/25/25 26/26/26 27/27/27
f 26/26/26 28/28/28 27/27/27
f 27/27/27 28/28/28 29/29/29
f 28/28/28 30/30/30 29/29/29
f 29/29/29 30/30/30 31/31/31
f 30/30/30 32/32/32 31/31/31
f 31/31/31 32/32/32 33/33/33
f 32/32/32 34/34/34 33/33/33
f 33/33/33 34/34/34 35/35/35
f 34/34/34 36/36/36 35/35/35
f 35/35/35 36/36/36 37/37/37
f 36/36/36 38/38/38 37/37/37
f 37/37/37 38/38/38 39/39/39
f 38/38/38 40/40/40 39/39/39
f 39/39/39 40/40/40 41/41/41
f 40/40/40 42/42/42 41/41/41
f 41/41/41 42/42/42 43/43/43
f 42/42/42 44/44/44 43/43/43
f 43/43/43 44/44/44 45/45/45
f 44/44/44 46/46/46 45/45/45
f 45/45/45 46/46/46 47/47/47
f 46/46/46 48/48/48 47/47/47
f 47/47/47 48/48/48 49/49/49
f 48/48/48 50/50/50 49/49/49
