g mesh_slash
v -0.219293 0.10801 0.01066442
v -0.276717 0.09680309 0
v -0.2240172 0.1795038 0
v -0.1922658 0.1580984 0.01066442
v -0.1405716 0.09816408 0
v -0.1264342 0.1221066 0
v -0.1574384 0.1935012 0.01066441
v -0.1770516 0.2251488 0
v -0.1079134 0.1417101 0
v -0.1163733 0.2214293 0.01066436
v -0.1304181 0.2535163 0
v -0.07829173 0.16602 0
v -0.07064887 0.2408093 0.01066436
v -0.07914656 0.272241 0
v -0.04449642 0.1840838 0
v -0.02520701 0.2806035 0
v -0.02202212 0.2508966 0.01066436
v -0.007826498 0.1952076 0
v 0.02932741 0.278282 0
v 0.0276382 0.2513034 0.01066437
v 0.030309 0.1989637 0
v 0.08236106 0.2653661 -4.768371E-09
v 0.07642369 0.2420142 0.01066436
v 0.06844449 0.1952076 -2.384186E-09
v 0.131856 0.2423521 0
v 0.1224595 0.2233858 0.01066436
v 0.1051145 0.1840839 0
v 0.1389097 0.1660201 9.536743E-09
v 0.17591 0.2101241 0
v 0.1639766 0.1961343 0.01066438
v 0.1685316 0.1417102 -9.536743E-09
v 0.1993794 0.1613068 0.01066442
v 0.2128302 0.169921 0
v 0.1928415 0.1120885 9.536743E-09
v 0.2273075 0.1202418 0.01066442
v 0.2411978 0.1232876 0
v 0.2109053 0.07829317 9.536743E-09
v 0.2466875 0.07451727 0.01066442
v 0.2599227 0.07201593 0
v 0.222029 0.04162322 0
v 0.2567748 0.02589051 0.01066442
v 0.2682848 0.01807651 0
v 0.2257851 0.003487723 0
v 0.2571816 -0.02376983 0.01066442
v 0.222029 -0.03464777 0
v 0.2659637 -0.03645797 0
v 0.2478923 -0.07255533 0.01066442
v 0.2530475 -0.08949164 0
v -0.2240172 0.1795038 0
v -0.276717 0.09680309 0
v -0.2190623 0.1080657 -0.01066442
v -0.1922658 0.1580984 -0.01066442
v -0.1405716 0.09816408 0
v -0.1264342 0.1221066 0
v -0.1574384 0.1935012 -0.01066441
v -0.1770516 0.2251488 0
v -0.1079134 0.1417101 0
v -0.1163733 0.2214293 -0.01066436
v -0.1304181 0.2535163 0
v -0.07829173 0.16602 0
v -0.07064886 0.2408093 -0.01066436
v -0.07914656 0.272241 0
v -0.04449642 0.1840838 0
v -0.02520701 0.2806035 0
v -0.02202212 0.2508966 -0.01066436
v -0.007826498 0.1952076 0
v 0.02932741 0.278282 0
v 0.0276382 0.2513034 -0.01066438
v 0.030309 0.1989637 0
v 0.08236106 0.2653661 -4.768371E-09
v 0.07642369 0.2420142 -0.01066436
v 0.06844449 0.1952076 -2.384186E-09
v 0.131856 0.2423521 0
v 0.1224595 0.2233858 -0.01066436
v 0.1051145 0.1840839 0
v 0.1389097 0.1660201 9.536743E-09
v 0.17591 0.2101241 0
v 0.1639766 0.1961343 -0.01066435
v 0.1685316 0.1417102 -9.536743E-09
v 0.1993794 0.1613068 -0.01066442
v 0.2128302 0.169921 0
v 0.1928415 0.1120885 9.536743E-09
v 0.2273075 0.1202418 -0.01066442
v 0.2411978 0.1232876 0
v 0.2109053 0.07829317 9.536743E-09
v 0.2466875 0.07451727 -0.01066442
v 0.2599227 0.07201593 0
v 0.222029 0.04162322 0
v 0.2567748 0.02589051 -0.01066442
v 0.2682848 0.01807651 0
v 0.2257851 0.003487723 0
v 0.2571816 -0.02376983 -0.01066442
v 0.222029 -0.03464777 0
v 0.2659637 -0.03645797 0
v 0.2478923 -0.07255533 -0.01066442
v 0.2530475 -0.08949164 0
vt 0.06848639 0.7348839
vt 0.02630258 0.9447453
vt 0.1446581 0.9447453
vt 0.1499966 0.7348839
vt 0.07506818 0.0118638
vt 0.1553352 0.0118638
vt 0.2083309 0.7348839
vt 0.2038822 0.9447453
vt 0.2127797 0.0118638
vt 0.2666653 0.7348839
vt 0.2631063 0.9447453
vt 0.2702243 0.0118638
vt 0.3249996 0.7348839
vt 0.3223304 0.9447453
vt 0.3276689 0.0118638
vt 0.3815545 0.9447453
vt 0.3833339 0.7348839
vt 0.3851134 0.0118638
vt 0.4407786 0.9447453
vt 0.4416683 0.7348839
vt 0.4425581 0.0118638
vt 0.5000027 0.9447453
vt 0.5000027 0.7348839
vt 0.5000027 0.0118638
vt 0.5592268 0.9447453
vt 0.558337 0.7348839
vt 0.5574473 0.0118638
vt 0.6148919 0.0118638
vt 0.6184509 0.9447453
vt 0.6166714 0.7348839
vt 0.6723364 0.0118638
vt 0.6750057 0.7348839
vt 0.6776749 0.9447453
vt 0.729781 0.0118638
vt 0.73334 0.7348839
vt 0.736899 0.9447453
vt 0.7872255 0.0118638
vt 0.7916743 0.7348839
vt 0.796123 0.9447453
vt 0.8446702 0.0118638
vt 0.8500087 0.7348839
vt 0.8553472 0.9447453
vt 0.9021145 0.0118638
vt 0.9083428 0.7348839
vt 0.9595595 0.0118638
vt 0.914571 0.9447453
vt 0.9666775 0.7348839
vt 0.9737955 0.9447453
vt 0.1446581 0.9447453
vt 0.02630258 0.9447453
vt 0.06848639 0.7348839
vt 0.1499966 0.7348839
vt 0.07506818 0.0118638
vt 0.1553352 0.0118638
vt 0.2083309 0.7348839
vt 0.2038822 0.9447453
vt 0.2127797 0.0118638
vt 0.2666653 0.7348839
vt 0.2631063 0.9447453
vt 0.2702243 0.0118638
vt 0.3249996 0.7348839
vt 0.3223304 0.9447453
vt 0.3276689 0.0118638
vt 0.3815545 0.9447453
vt 0.3833339 0.7348839
vt 0.3851134 0.0118638
vt 0.4407786 0.9447453
vt 0.4416683 0.7348839
vt 0.4425581 0.0118638
vt 0.5000027 0.9447453
vt 0.5000027 0.7348839
vt 0.5000027 0.0118638
vt 0.5592268 0.9447453
vt 0.558337 0.7348839
vt 0.5574473 0.0118638
vt 0.6148919 0.0118638
vt 0.6184509 0.9447453
vt 0.6166714 0.7348839
vt 0.6723364 0.0118638
vt 0.6750057 0.7348839
vt 0.6776749 0.9447453
vt 0.729781 0.0118638
vt 0.73334 0.7348839
vt 0.736899 0.9447453
vt 0.7872255 0.0118638
vt 0.7916743 0.7348839
vt 0.796123 0.9447453
vt 0.8446702 0.0118638
vt 0.8500087 0.7348839
vt 0.8553472 0.9447453
vt 0.9021145 0.0118638
vt 0.9083428 0.7348839
vt 0.9595595 0.0118638
vt 0.914571 0.9447453
vt 0.9666775 0.7348839
vt 0.9737955 0.9447453
vn -0.04712533 0.03110342 0.9984047
vn -0.2165534 0.1300194 0.9675741
vn -0.2060701 0.1636749 0.9647516
vn -0.04661598 0.0398612 0.9981172
vn 0.1241614 -0.06903927 0.9898573
vn 0.1147177 -0.08556528 0.9897063
vn -0.03924857 0.05429433 0.9977533
vn -0.1746384 0.2184512 0.960094
vn 0.09792397 -0.112337 0.9888333
vn -0.02668594 0.06420293 0.9975799
vn -0.1321427 0.2603863 0.9564189
vn 0.08010565 -0.1352102 0.9875734
vn -0.01431159 0.07234956 0.9972766
vn -0.08392707 0.3001646 0.950188
vn 0.05612096 -0.1596429 0.9855783
vn -0.02547581 0.3358998 0.9415531
vn 0.000216338 0.07969311 0.9968194
vn 0.02588154 -0.1819177 0.982973
vn 0.04451695 0.3655707 0.9297184
vn 0.0174269 0.08602679 0.9961404
vn -0.01109733 -0.2005105 0.9796287
vn 0.1270745 0.3861191 0.9136543
vn 0.03800125 0.09090418 0.9951343
vn -0.05486451 -0.2133198 0.9754406
vn 0.222296 0.3932149 0.8921697
vn 0.06269307 0.09347278 0.993646
vn -0.1046114 -0.2176895 0.9703957
vn -0.1581548 -0.2106844 0.9646756
vn 0.3283108 0.3812824 0.8641965
vn 0.09206817 0.09227018 0.9914684
vn -0.2115283 -0.1897618 0.9587733
vn 0.1259563 0.08511125 0.988378
vn 0.4399631 0.3441972 0.829434
vn -0.259064 -0.153835 0.9535306
vn 0.162632 0.06933638 0.9842476
vn 0.5478591 0.2770439 0.7893649
vn -0.2943441 -0.1043673 0.9499837
vn 0.1981078 0.04272111 0.9792488
vn 0.6389242 0.1787606 0.7482116
vn -0.3119703 -0.0457977 0.9489875
vn 0.2262888 0.004980311 0.9740475
vn 0.6991842 0.05440272 0.7128688
vn -0.3094159 0.01525056 0.9508045
vn 0.2405515 -0.04092754 0.9697731
vn -0.3028642 0.04545449 0.9519491
vn 0.7178205 -0.08465847 0.691062
vn 0.2433306 -0.06526019 0.9677454
vn 0.7138897 -0.1556897 0.6827316
vn -0.2058826 0.1634018 -0.964838
vn -0.2161755 0.1294712 -0.967732
vn -0.0468103 0.03092689 -0.9984249
vn -0.04645828 0.03977261 -0.9981281
vn 0.1243963 -0.06883397 -0.9898421
vn 0.1148355 -0.08546283 -0.9897014
vn -0.03924859 0.05429433 -0.9977533
vn -0.1746384 0.2184512 -0.960094
vn 0.09792396 -0.112337 -0.9888333
vn -0.02668592 0.0642029 -0.9975799
vn -0.1321426 0.2603863 -0.9564191
vn 0.08010565 -0.1352102 -0.9875734
vn -0.01431155 0.07234956 -0.9972766
vn -0.08392702 0.3001646 -0.9501882
vn 0.05612097 -0.1596429 -0.9855783
vn -0.02547584 0.3358997 -0.9415532
vn 0.0002163144 0.079693 -0.9968194
vn 0.02588152 -0.1819177 -0.982973
vn 0.04451689 0.3655705 -0.9297185
vn 0.01742684 0.08602671 -0.9961404
vn -0.01109737 -0.2005105 -0.9796286
vn 0.1270745 0.3861192 -0.9136543
vn 0.03800129 0.09090427 -0.9951343
vn -0.05486447 -0.2133197 -0.9754407
vn 0.2222959 0.3932146 -0.8921697
vn 0.06269322 0.09347259 -0.993646
vn -0.1046111 -0.2176896 -0.9703957
vn -0.1581547 -0.2106841 -0.9646757
vn 0.3283105 0.381282 -0.8641968
vn 0.09206809 0.09227013 -0.9914685
vn -0.2115283 -0.1897615 -0.9587733
vn 0.1259561 0.08511128 -0.988378
vn 0.4399629 0.3441969 -0.8294342
vn -0.2590643 -0.1538353 -0.9535306
vn 0.1626318 0.06933621 -0.9842476
vn 0.5478591 0.2770438 -0.789365
vn -0.2943445 -0.1043673 -0.9499836
vn 0.1981077 0.04272109 -0.9792489
vn 0.6389242 0.1787606 -0.7482116
vn -0.3119703 -0.04579763 -0.9489874
vn 0.2262888 0.004980352 -0.9740476
vn 0.6991842 0.05440272 -0.7128688
vn -0.3094159 0.01525056 -0.9508045
vn 0.2405515 -0.04092754 -0.9697731
vn -0.3028642 0.04545449 -0.9519491
vn 0.7178205 -0.08465847 -0.691062
vn 0.2433306 -0.06526019 -0.9677454
vn 0.7138897 -0.1556897 -0.6827316
g mesh_slash_0
f 3/3/3 2/2/2 1/1/1
f 1/1/1 4/4/4 3/3/3
f 4/4/4 1/1/1 5/5/5
f 5/5/5 6/6/6 4/4/4
f 3/3/3 4/4/4 7/7/7
f 7/7/7 4/4/4 6/6/6
f 7/7/7 8/8/8 3/3/3
f 6/6/6 9/9/9 7/7/7
f 8/8/8 7/7/7 10/10/10
f 10/10/10 7/7/7 9/9/9
f 10/10/10 11/11/11 8/8/8
f 9/9/9 12/12/12 10/10/10
f 13/13/13 11/11/11 10/10/10
f 13/13/13 10/10/10 12/12/12
f 13/13/13 14/14/14 11/11/11
f 12/12/12 15/15/15 13/13/13
f 16/16/16 14/14/14 13/13/13
f 17/17/17 13/13/13 15/15/15
f 13/13/13 17/17/17 16/16/16
f 15/15/15 18/18/18 17/17/17
f 19/19/19 16/16/16 17/17/17
f 20/20/20 17/17/17 18/18/18
f 17/17/17 20/20/20 19/19/19
f 18/18/18 21/21/21 20/20/20
f 22/22/22 19/19/19 20/20/20
f 23/23/23 20/20/20 21/21/21
f 20/20/20 23/23/23 22/22/22
f 21/21/21 24/24/24 23/23/23
f 25/25/25 22/22/22 23/23/23
f 26/26/26 23/23/23 24/24/24
f 23/23/23 26/26/26 25/25/25
f 24/24/24 27/27/27 26/26/26
f 26/26/26 27/27/27 28/28/28
f 29/29/29 25/25/25 26/26/26
f 30/30/30 26/26/26 28/28/28
f 26/26/26 30/30/30 29/29/29
f 30/30/30 28/28/28 31/31/31
f 29/29/29 30/30/30 32/32/32
f 31/31/31 32/32/32 30/30/30
f 32/32/32 33/33/33 29/29/29
f 32/32/32 31/31/31 34/34/34
f 33/33/33 32/32/32 35/35/35
f 34/34/34 35/35/35 32/32/32
f 35/35/35 36/36/36 33/33/33
f 35/35/35 34/34/34 37/37/37
f 36/36/36 35/35/35 38/38/38
f 37/37/37 38/38/38 35/35/35
f 38/38/38 39/39/39 36/36/36
f 40/40/40 38/38/38 37/37/37
f 41/41/41 39/39/39 38/38/38
f 38/38/38 40/40/40 41/41/41
f 39/39/39 41/41/41 42/42/42
f 43/43/43 41/41/41 40/40/40
f 44/44/44 42/42/42 41/41/41
f 41/41/41 43/43/43 44/44/44
f 43/43/43 45/45/45 44/44/44
f 44/44/44 46/46/46 42/42/42
f 44/44/44 45/45/45 47/47/47
f 47/47/47 46/46/46 44/44/44
f 46/46/46 47/47/47 48/48/48
f 51/51/51 50/50/50 49/49/49
f 49/49/49 52/52/52 51/51/51
f 53/53/53 51/51/51 52/52/52
f 52/52/52 54/54/54 53/53/53
f 55/55/55 52/52/52 49/49/49
f 54/54/54 52/52/52 55/55/55
f 49/49/49 56/56/56 55/55/55
f 55/55/55 57/57/57 54/54/54
f 58/58/58 55/55/55 56/56/56
f 57/57/57 55/55/55 58/58/58
f 56/56/56 59/59/59 58/58/58
f 58/58/58 60/60/60 57/57/57
f 61/61/61 58/58/58 59/59/59
f 60/60/60 58/58/58 61/61/61
f 59/59/59 62/62/62 61/61/61
f 61/61/61 63/63/63 60/60/60
f 61/61/61 62/62/62 64/64/64
f 63/63/63 61/61/61 65/65/65
f 64/64/64 65/65/65 61/61/61
f 65/65/65 66/66/66 63/63/63
f 65/65/65 64/64/64 67/67/67
f 66/66/66 65/65/65 68/68/68
f 67/67/67 68/68/68 65/65/65
f 68/68/68 69/69/69 66/66/66
f 68/68/68 67/67/67 70/70/70
f 69/69/69 68/68/68 71/71/71
f 70/70/70 71/71/71 68/68/68
f 71/71/71 72/72/72 69/69/69
f 71/71/71 70/70/70 73/73/73
f 72/72/72 71/71/71 74/74/74
f 73/73/73 74/74/74 71/71/71
f 74/74/74 75/75/75 72/72/72
f 74/74/74 76/76/76 75/75/75
f 74/74/74 73/73/73 77/77/77
f 78/78/78 76/76/76 74/74/74
f 77/77/77 78/78/78 74/74/74
f 79/79/79 76/76/76 78/78/78
f 80/80/80 78/78/78 77/77/77
f 80/80/80 79/79/79 78/78/78
f 81/81/81 80/80/80 77/77/77
f 82/82/82 79/79/79 80/80/80
f 83/83/83 80/80/80 81/81/81
f 82/82/82 80/80/80 83/83/83
f 84/84/84 83/83/83 81/81/81
f 85/85/85 82/82/82 83/83/83
f 86/86/86 83/83/83 84/84/84
f 83/83/83 86/86/86 85/85/85
f 84/84/84 87/87/87 86/86/86
f 88/88/88 85/85/85 86/86/86
f 89/89/89 86/86/86 87/87/87
f 86/86/86 89/89/89 88/88/88
f 87/87/87 90/90/90 89/89/89
f 88/88/88 89/89/89 91/91/91
f 92/92/92 89/89/89 90/90/90
f 92/92/92 91/91/91 89/89/89
f 91/91/91 92/92/92 93/93/93
f 94/94/94 92/92/92 90/90/90
f 95/95/95 93/93/93 92/92/92
f 95/95/95 92/92/92 94/94/94
f 96/96/96 95/95/95 94/94/94
