g mesh_ground_b
v -0.1027822 -0.0008383095 0.003180876
v -0.1222491 -0.0008383095 0.0149316
v -0.1007572 -0.0008383095 -0.02878466
v -0.1123776 -0.0008383095 0.04301219
v -0.09899692 -0.0008383095 0.05960281
v -0.05227394 -0.0008383095 -0.02853921
v -0.1007572 -0.0008383095 -0.02878466
v -0.08822797 -0.0008383095 -0.04340788
v -0.07857886 -0.0008383095 -0.04980865
v -0.07170637 -0.0008383095 -0.06236476
v -0.0561167 -0.0008383095 -0.06993524
v -0.01106583 -0.0008383095 -0.05318738
v -0.01650016 -0.0008383095 -0.0673082
v 0.01450276 -0.0008383095 -0.07592949
v -0.02607256 -0.0008383095 0.02836978
v 0.05310684 -0.0008383095 -0.06899948
v 0.04581632 -0.0008383095 -0.07873678
v 0.05653542 -0.0008383095 -0.07915865
v 0.03557277 -0.0008383095 0.01102749
v 0.08540218 -0.0008383095 -0.06387195
v 0.09939262 -0.0008383095 -0.083546
v 0.1195384 -0.0008383095 -0.07409249
v 0.1272469 -0.0008383095 -0.05466389
v 0.121548 -0.0008383095 -0.03287671
v 0.08397937 -0.0008383095 -0.01545386
v 0.09502828 -0.0008383095 0.001374543
v 0.1151395 -0.0008383095 -0.01123142
v 0.01863699 -0.0008383095 0.08485308
v 0.05661212 -0.0008383095 0.04511765
v 0.06198508 -0.0301883 0.0515261
v 0.07577226 -0.0008383095 0.02929021
v 0.09157669 -0.0008383095 0.008197173
v 0.07577226 -0.0008383095 0.02929021
v 0.09227468 -0.0301883 0.008423448
v 0.07854886 -0.0301883 0.03498149
v 0.09617497 -0.0301883 0.0001741499
v 0.1151395 -0.0008383095 -0.01123142
v 0.09297267 -0.0712967 0.008653551
v 0.08132547 -0.0712967 0.04067278
v 0.06735805 -0.0712967 0.05793838
v 0.09732166 -0.0712967 -0.001026228
v 0.03188725 -0.0712967 0.08899882
v 0.1148097 -0.0301883 -0.01662356
v 0.1151395 -0.0008383095 -0.01123142
v 0.121548 -0.0008383095 -0.03287671
v 0.1144799 -0.0712967 -0.02201571
v 0.1250149 -0.0301883 -0.03674248
v 0.121548 -0.0008383095 -0.03287671
v 0.1284818 -0.0712967 -0.04061209
v 0.0252602 -0.0301883 0.08692403
v 0.01745962 -0.0301883 0.1010832
v 0.0184414 -0.0712967 0.1039864
v 0.1281635 -0.0301883 -0.05560732
v 0.1272469 -0.0008383095 -0.05466389
v 0.1290839 -0.0712967 -0.05655459
v 0.1226678 -0.0301883 -0.07467542
v 0.1258011 -0.0712967 -0.07525451
v 0.1052872 -0.0712967 -0.08748847
v 0.102338 -0.0301883 -0.08551724
v 0.1195384 -0.0008383095 -0.07409249
v 0.1272469 -0.0008383095 -0.05466389
v 0.102338 -0.0301883 -0.08551724
v 0.09939262 -0.0008383095 -0.083546
v 0.05680004 -0.0301883 -0.08078857
v 0.05653542 -0.0008383095 -0.07915865
v 0.0460771 -0.0301883 -0.08124878
v 0.04581632 -0.0008383095 -0.07873678
v 0.01789298 -0.0301883 -0.07789306
v 0.01450276 -0.0008383095 -0.07592949
v -0.01511186 -0.0301883 -0.07167637
v -0.01650016 -0.0008383095 -0.0673082
v -0.0560285 -0.0301883 -0.07535423
v -0.0561167 -0.0008383095 -0.06993524
v -0.07170637 -0.0008383095 -0.06236476
v 0.0463379 -0.0712967 -0.0837646
v 0.05706849 -0.0712967 -0.08241464
v 0.102338 -0.0301883 -0.08551724
v 0.1052872 -0.0712967 -0.08748847
v 0.02127937 -0.0712967 -0.07986047
v -0.01372355 -0.0712967 -0.07604839
v -0.0559403 -0.0712967 -0.08076939
v -0.07312536 -0.0301883 -0.06735805
v -0.07454051 -0.0712967 -0.07235135
v -0.08021645 -0.0712967 -0.05152678
v -0.07939957 -0.0301883 -0.05066772
v -0.07857886 -0.0008383095 -0.04980865
v -0.08514455 -0.0712967 -0.04191603
v -0.08668625 -0.0301883 -0.04266004
v -0.08822797 -0.0008383095 -0.04340788
v -0.1007572 -0.0008383095 -0.02878466
v -0.09857506 -0.0301883 -0.0252602
v -0.1007572 -0.0008383095 -0.02878466
v -0.1222491 -0.0008383095 0.0149316
v -0.09639673 -0.0712967 -0.02173575
v -0.1192194 -0.0301883 0.01657303
v -0.1222491 -0.0008383095 0.0149316
v -0.1161935 -0.0712967 0.01821828
v -0.1123776 -0.0008383095 0.04301219
v -0.1112462 -0.0301883 0.04203039
v -0.1101149 -0.0712967 0.04104477
v -0.09850986 -0.0301883 0.06717329
v -0.09899692 -0.0008383095 0.05960281
v -0.0980228 -0.0712967 0.07474378
v -0.09012634 -0.0008383095 0.06444654
v -0.08963929 -0.0301883 0.07201701
v -0.08125576 -0.0008383095 0.06928642
v -0.07483965 -0.0301883 0.08785596
v -0.08361818 -0.0712967 0.09579845
v -0.03525762 -0.0712967 0.1003392
v -0.06606111 -0.0008383095 0.07991348
v -0.03495081 -0.0301883 0.09504677
v -0.01165643 -0.0712967 0.0976508
v -0.03464784 -0.0008383095 0.0897505
v -0.0106248 -0.0008383095 0.09653096
v 0.002782702 -0.0008383095 0.09973709
v 0.01648167 -0.0008383095 0.09818004
v 0.01745962 -0.0301883 0.1010832
v -0.03464784 -0.0008383095 0.0897505
v -0.01114254 -0.0301883 0.09709087
v -0.0106248 -0.0008383095 0.09653096
v 0.00245288 -0.0712967 0.1081053
v 0.002617791 -0.0301883 0.1039212
v 0.01745962 -0.0301883 0.1010832
v 0.002782702 -0.0008383095 0.09973709
v 0.01745962 -0.0301883 0.1010832
v 0.0184414 -0.0712967 0.1039864
vt -0.3457082 0.5941259
vt -0.536321 0.5769756
vt -0.4304795 0.8146293
vt -0.4956505 0.3912628
vt -0.4157793 0.2516108
vt -0.1261849 0.8312895
vt -0.4304795 0.8146293
vt -0.3653085 0.9425212
vt -0.330518 1.011122
vt -0.2957275 1.079723
vt -0.1805757 1.110594
vt 0.2932614 0.9846618
vt 0.07667816 1.143914
vt 0.3162917 1.175275
vt 0.1776196 0.3412821
vt 0.5710955 1.063553
vt 0.4936745 1.198305
vt 0.5647255 1.207615
vt 0.5255249 0.604906
vt 0.7710186 1.120884
vt 0.7808188 1.226235
vt 0.9709416 1.161554
vt 1.027292 1.047383
vt 0.9552613 0.9454612
vt 0.732798 0.7925789
vt 0.8180593 0.6803672
vt 0.9376211 0.8405996
vt 0.3667625 0.1281289
vt 0.5931459 0.3780326
vt 0.6396967 0.2775812
vt 0.7225079 0.4985744
vt 0.8249194 0.6352865
vt 0.7225079 0.4985744
vt 0.9003806 0.6147062
vt 0.7876788 0.4574139
vt 0.9214508 0.6720371
vt 0.9376211 0.8405996
vt 0.9410512 0.6078461
vt 0.8254094 0.4304635
vt 0.5853058 0.1163687
vt 0.9836817 0.6749771
vt 0.4775042 -0.02818346
vt 1.051793 0.8543199
vt 0.9376211 0.8405996
vt 0.9552613 0.9454612
vt 1.095403 0.8641199
vt 1.087073 0.9817217
vt 0.9552613 0.9454612
vt 1.164495 1.017492
vt 0.4373235 0.02424735
vt 0.3804827 -0.07326412
vt 0.397633 -0.1448052
vt 1.121374 1.087563
vt 1.027292 1.047383
vt 1.176255 1.111574
vt 1.056693 1.220845
vt 1.116474 1.256126
vt 0.8763701 1.342367
vt 0.8420697 1.297776
vt 0.9709416 1.161554
vt 1.027292 1.047383
vt 0.8420697 1.297776
vt 0.7808188 1.226235
vt 0.600006 1.279156
vt 0.5647255 1.207615
vt 0.5206248 1.269356
vt 0.4936745 1.198305
vt 0.3221718 1.244856
vt 0.3162917 1.175275
vt 0.05364782 1.212025
vt 0.07667816 1.143914
vt -0.2344765 1.176745
vt -0.1805757 1.110594
vt -0.2957275 1.079723
vt 0.538265 1.308557
vt 0.6107861 1.315907
vt 0.8420697 1.297776
vt 0.8763701 1.342367
vt 0.332462 1.284056
vt 0.05462778 1.250736
vt -0.262407 1.217905
vt -0.3633485 1.142444
vt -0.4049991 1.186545
vt -0.4427297 1.084623
vt -0.4010791 1.064043
vt -0.330518 1.011122
vt -0.4775202 1.010142
vt -0.4392996 0.9851518
vt -0.3653085 0.9425212
vt -0.4304795 0.8146293
vt -0.5103507 0.8376595
vt -0.4304795 0.8146293
vt -0.536321 0.5769756
vt -0.5461212 0.8523598
vt -0.6255024 0.5647255
vt -0.536321 0.5769756
vt -0.664213 0.5461052
vt -0.4956505 0.3912628
vt -0.5774817 0.3496123
vt -0.6137422 0.3491222
vt -0.4775202 0.1751696
vt -0.4157793 0.2516108
vt -0.5005505 0.1060786
vt -0.3403181 0.2427906
vt -0.401569 0.1663495
vt -0.264367 0.2344605
vt -0.2790672 0.04923773
vt -0.3506083 -0.02720344
vt -0.02475339 -0.06836402
vt -0.1825358 0.1491992
vt -0.00319308 -0.01397324
vt 0.1834998 -0.09776449
vt 0.01248717 0.08304822
vt 0.1776196 0.06001788
vt 0.265331 0.0477677
vt 0.3535323 0.03551751
vt 0.3804827 -0.07326412
vt 0.01248717 0.08304822
vt 0.1825197 -0.04239362
vt 0.1776196 0.06001788
vt 0.2913014 -0.1154047
vt 0.2815012 -0.05807388
vt 0.3804827 -0.07326412
vt 0.265331 0.0477677
vt 0.3804827 -0.07326412
vt 0.397633 -0.1448052
vn 0.002375841 0.9999973 0
vn 0.002375841 0.9999973 0
vn 0.002375841 0.9999973 0
vn 0.002375841 0.9999973 0
vn -0.5771211 0.5379659 0.6144297
vn 0.002375841 0.9999973 0
vn 0.002375841 0.9999973 0
vn 0.002375841 0.9999973 0
vn 0.002375841 0.9999973 0
vn 0.002375841 0.9999973 0
vn 0.002375841 0.9999973 0
vn 0.002375841 0.9999973 0
vn 0.002375841 0.9999973 0
vn 0.002375841 0.9999973 0
vn 0.002375841 0.9999973 0
vn 0.002375841 0.9999973 0
vn 0.002375841 0.9999973 0
vn 0.002375841 0.9999973 0
vn 0.002375841 0.9999973 0
vn 0.002375841 0.9999973 0
vn 0.002375841 0.9999973 0
vn 0.002375841 0.9999973 0
vn 0.002375841 0.9999973 0
vn 0.5270555 0.8355454 0.1551655
vn 0.002375841 0.9999973 0
vn 0.425252 0.8355454 0.3478859
vn 0.7228315 0.4283314 0.5422609
vn 0.2842932 0.9451799 0.1606618
vn 0.3391106 0.8747005 0.3462701
vn 0.6836762 0.2090622 0.6991994
vn 0.002375841 0.9999973 0
vn 0.7619867 0.4909797 0.4222739
vn 0.7541556 0.1699071 0.634335
vn 0.8951143 0.05244148 0.4427418
vn 0.8011419 0.1464139 0.5802884
vn 0.8011419 -0.02586895 0.5979151
vn 0.7228315 0.4283314 0.5422609
vn 0.9107764 0.04461038 0.410483
vn 0.832466 0.1229208 0.5402692
vn 0.6993383 0.1699071 0.6943036
vn 0.824635 -0.01803792 0.5653776
vn 0.7384936 0.1385828 0.6598652
vn 0.7933108 -0.04153103 0.6073986
vn 0.7228315 0.4283314 0.5422609
vn 0.5270555 0.8355454 0.1551655
vn 0.7933108 -0.04153103 0.6073986
vn 0.9499316 0.01328623 0.3121752
vn 0.5270555 0.8355454 0.1551655
vn 0.9421006 0.01328623 0.3350671
vn 0.7854798 0.1699071 0.5951077
vn 0.5818728 0.1307518 0.8027005
vn 0.5427176 0.1072587 0.8330386
vn 0.9969178 0.06027246 -0.05022018
vn 0.9969178 0.06810355 -0.03894536
vn 0.9969178 0.05244148 -0.05835004
vn 0.7776487 0.07593453 -0.6240965
vn 0.8011419 0.06027246 -0.5954317
vn 0.2059829 0.05244148 -0.9771494
vn 0.1903208 0.06027246 -0.97987
vn 0.7541556 0.08376563 -0.6513314
vn 0.9969178 0.06810355 -0.03894536
vn 0.1903208 0.06027246 -0.97987
vn 0.1824898 0.07593453 -0.9802711
vn -0.02894831 0.05244148 -0.9982044
vn -0.05244148 0.06027246 -0.9968035
vn -0.0367794 0.06027246 -0.9975041
vn -0.05244148 0.06810355 -0.9962991
vn -0.154245 0.06810355 -0.9856827
vn -0.162076 0.07593453 -0.9838523
vn -0.05244148 0.1072587 -0.9928471
vn -0.07593453 0.1307518 -0.9885029
vn -0.1699071 0.1464139 -0.9745227
vn -0.1777381 0.1699071 -0.9692991
vn -0.7102487 0.1307518 -0.6917013
vn -0.02894831 0.05244148 -0.9982044
vn -0.01328623 0.04461038 -0.9989161
vn 0.1903208 0.06027246 -0.97987
vn 0.2059829 0.05244148 -0.9771494
vn -0.1385828 0.06027246 -0.9885151
vn -0.02111733 0.0915966 -0.9955723
vn -0.162076 0.1229208 -0.9790924
vn -0.7259109 0.1072587 -0.6793739
vn -0.749404 0.0915966 -0.6557467
vn -0.8981937 0.02111733 -0.4390923
vn -0.8512075 0.02894831 -0.5240303
vn -0.7963902 0.0367794 -0.6036638
vn -0.8355454 -0.03369999 -0.5483869
vn -0.7807281 -0.04153103 -0.6234892
vn -0.7259109 -0.04936206 -0.6860151
vn -0.8433764 -0.1041793 -0.5271271
vn -0.8590385 -0.08851725 -0.5042
vn -0.8433764 -0.1041793 -0.5271271
vn -0.9921662 -0.09634829 -0.07951913
vn -0.8747005 -0.07285517 -0.4791566
vn -0.9921662 -0.08068621 -0.09537305
vn -0.9921662 -0.09634829 -0.07951913
vn -0.9921662 -0.07285517 -0.1014811
vn -0.9060247 -0.01020688 0.4231017
vn -0.9216869 -0.01803792 0.387515
vn -0.9451799 -0.01803792 0.3260514
vn -0.7807281 0.08376563 0.6192309
vn -0.5771211 0.5379659 0.6144297
vn -0.749404 0.154245 0.6438961
vn -0.3030347 0.7728971 0.5574944
vn -0.6319383 0.2482175 0.7341948
vn -0.2717105 0.8747005 0.4013382
vn -0.4596555 0.2560484 0.8503858
vn -0.4831486 0.2168933 0.8482481
vn -0.06027246 0.1229208 0.9905845
vn -0.2717105 0.8120522 0.5164732
vn -0.1307518 0.1464139 0.9805442
vn -0.2638795 0.06810355 0.9621484
vn 0.002375841 0.9999973 0
vn 0.002375841 0.9999973 0
vn 0.002375841 0.9999973 0
vn 0.5113934 0.6006142 0.614605
vn 0.5818728 0.1307518 0.8027005
vn -0.2012312 0.1777381 0.9632835
vn -0.2638795 0.07593453 0.961562
vn -0.2638795 0.0915966 0.9601967
vn -0.162076 0.07593453 0.9838523
vn -0.1307518 0.0915966 0.9871747
vn 0.5818728 0.1307518 0.8027005
vn -0.0994277 0.1072587 0.9892471
vn 0.5818728 0.1307518 0.8027005
vn 0.5427176 0.1072587 0.8330386
g mesh_ground_b_0
f 3/3/3 2/2/2 1/1/1
f 2/2/2 4/4/4 1/1/1
f 1/1/1 4/4/4 5/5/5
f 7/7/7 1/1/1 6/6/6
f 6/6/6 8/8/8 7/7/7
f 9/9/9 8/8/8 6/6/6
f 10/10/10 9/9/9 6/6/6
f 11/11/11 10/10/10 6/6/6
f 11/11/11 6/6/6 12/12/12
f 12/12/12 13/13/13 11/11/11
f 14/14/14 13/13/13 12/12/12
f 15/15/15 6/6/6 1/1/1
f 12/12/12 6/6/6 15/15/15
f 14/14/14 12/12/12 16/16/16
f 16/16/16 17/17/17 14/14/14
f 18/18/18 17/17/17 16/16/16
f 15/15/15 19/19/19 12/12/12
f 16/16/16 12/12/12 19/19/19
f 18/18/18 16/16/16 20/20/20
f 20/20/20 21/21/21 18/18/18
f 22/22/22 21/21/21 20/20/20
f 23/23/23 22/22/22 20/20/20
f 24/24/24 23/23/23 20/20/20
f 20/20/20 16/16/16 25/25/25
f 25/25/25 24/24/24 20/20/20
f 19/19/19 25/25/25 16/16/16
f 19/19/19 26/26/26 25/25/25
f 27/27/27 24/24/24 25/25/25
f 25/25/25 26/26/26 27/27/27
f 19/19/19 15/15/15 28/28/28
f 28/28/28 29/29/29 19/19/19
f 29/29/29 26/26/26 19/19/19
f 30/30/30 29/29/29 28/28/28
f 26/26/26 29/29/29 31/31/31
f 31/31/31 32/32/32 26/26/26
f 30/30/30 33/33/33 29/29/29
f 26/26/26 32/32/32 34/34/34
f 34/34/34 32/32/32 33/33/33
f 30/30/30 35/35/35 33/33/33
f 33/33/33 35/35/35 34/34/34
f 34/34/34 36/36/36 26/26/26
f 36/36/36 37/37/37 26/26/26
f 38/38/38 34/34/34 35/35/35
f 36/36/36 34/34/34 38/38/38
f 35/35/35 39/39/39 38/38/38
f 39/39/39 35/35/35 30/30/30
f 30/30/30 40/40/40 39/39/39
f 38/38/38 41/41/41 36/36/36
f 42/42/42 40/40/40 30/30/30
f 43/43/43 36/36/36 41/41/41
f 36/36/36 43/43/43 44/44/44
f 45/45/45 44/44/44 43/43/43
f 41/41/41 46/46/46 43/43/43
f 47/47/47 43/43/43 46/46/46
f 43/43/43 47/47/47 48/48/48
f 46/46/46 49/49/49 47/47/47
f 42/42/42 30/30/30 50/50/50
f 28/28/28 50/50/50 30/30/30
f 42/42/42 50/50/50 51/51/51
f 51/51/51 52/52/52 42/42/42
f 53/53/53 47/47/47 49/49/49
f 47/47/47 53/53/53 54/54/54
f 49/49/49 55/55/55 53/53/53
f 56/56/56 53/53/53 55/55/55
f 55/55/55 57/57/57 56/56/56
f 56/56/56 57/57/57 58/58/58
f 58/58/58 59/59/59 56/56/56
f 53/53/53 56/56/56 60/60/60
f 60/60/60 61/61/61 53/53/53
f 61/61/61 24/24/24 47/47/47
f 60/60/60 56/56/56 62/62/62
f 62/62/62 63/63/63 60/60/60
f 63/63/63 62/62/62 64/64/64
f 64/64/64 65/65/65 63/63/63
f 65/65/65 64/64/64 66/66/66
f 66/66/66 67/67/67 65/65/65
f 67/67/67 66/66/66 68/68/68
f 68/68/68 69/69/69 67/67/67
f 69/69/69 68/68/68 70/70/70
f 70/70/70 71/71/71 69/69/69
f 71/71/71 70/70/70 72/72/72
f 72/72/72 73/73/73 71/71/71
f 74/74/74 73/73/73 72/72/72
f 75/75/75 66/66/66 64/64/64
f 64/64/64 76/76/76 75/75/75
f 76/76/76 64/64/64 77/77/77
f 77/77/77 78/78/78 76/76/76
f 66/66/66 75/75/75 79/79/79
f 79/79/79 68/68/68 66/66/66
f 68/68/68 79/79/79 80/80/80
f 80/80/80 70/70/70 68/68/68
f 70/70/70 80/80/80 81/81/81
f 81/81/81 72/72/72 70/70/70
f 82/82/82 72/72/72 81/81/81
f 74/74/74 72/72/72 82/82/82
f 82/82/82 81/81/81 83/83/83
f 82/82/82 83/83/83 84/84/84
f 74/74/74 82/82/82 85/85/85
f 84/84/84 85/85/85 82/82/82
f 85/85/85 86/86/86 74/74/74
f 85/85/85 84/84/84 87/87/87
f 86/86/86 85/85/85 88/88/88
f 87/87/87 88/88/88 85/85/85
f 88/88/88 89/89/89 86/86/86
f 88/88/88 90/90/90 89/89/89
f 87/87/87 91/91/91 88/88/88
f 92/92/92 88/88/88 91/91/91
f 92/92/92 91/91/91 93/93/93
f 91/91/91 87/87/87 94/94/94
f 91/91/91 94/94/94 95/95/95
f 96/96/96 91/91/91 95/95/95
f 95/95/95 94/94/94 97/97/97
f 96/96/96 95/95/95 98/98/98
f 97/97/97 99/99/99 95/95/95
f 98/98/98 95/95/95 99/99/99
f 98/98/98 99/99/99 5/5/5
f 99/99/99 97/97/97 100/100/100
f 99/99/99 100/100/100 101/101/101
f 102/102/102 99/99/99 101/101/101
f 101/101/101 100/100/100 103/103/103
f 104/104/104 102/102/102 101/101/101
f 1/1/1 102/102/102 104/104/104
f 103/103/103 105/105/105 101/101/101
f 101/101/101 105/105/105 104/104/104
f 104/104/104 106/106/106 1/1/1
f 105/105/105 106/106/106 104/104/104
f 1/1/1 106/106/106 15/15/15
f 103/103/103 107/107/107 105/105/105
f 106/106/106 105/105/105 107/107/107
f 107/107/107 103/103/103 108/108/108
f 107/107/107 108/108/108 109/109/109
f 106/106/106 110/110/110 15/15/15
f 107/107/107 110/110/110 106/106/106
f 28/28/28 15/15/15 110/110/110
f 109/109/109 111/111/111 107/107/107
f 110/110/110 107/107/107 111/111/111
f 111/111/111 109/109/109 112/112/112
f 110/110/110 113/113/113 28/28/28
f 113/113/113 114/114/114 28/28/28
f 114/114/114 115/115/115 28/28/28
f 115/115/115 116/116/116 28/28/28
f 50/50/50 28/28/28 116/116/116
f 116/116/116 117/117/117 50/50/50
f 111/111/111 118/118/118 110/110/110
f 112/112/112 119/119/119 111/111/111
f 118/118/118 111/111/111 119/119/119
f 119/119/119 120/120/120 118/118/118
f 119/119/119 112/112/112 121/121/121
f 120/120/120 119/119/119 122/122/122
f 121/121/121 122/122/122 119/119/119
f 122/122/122 123/123/123 116/116/116
f 122/122/122 124/124/124 120/120/120
f 122/122/122 116/116/116 124/124/124
f 121/121/121 125/125/125 122/122/122
f 121/121/121 126/126/126 125/125/125
