g mesh_ring_thick_taper
v 0.4817008 -7.580672E-08 -0.2781102
v 0.393307 -5.703876E-08 -0.3933071
v 0.5506395 0.004482201 -0.5506395
v 0.6743928 0.004482181 -0.389361
v 0.5372675 -9.76625E-08 -0.1439604
v 0.8670848 0.008964438 -0.5006117
v 0.7079718 0.008964459 -0.7079718
v 0.8653041 0.03442713 -0.8653041
v 0.7521875 0.004482151 -0.201548
v 0.5562202 -1.230545E-07 -1.518597E-08
v 0.9671074 0.008964399 -0.2591357
v 1.059777 0.03442709 -0.6118624
v 0.7787218 0.004482116 -1.052309E-08
v 0.5372674 -1.445708E-07 0.1439608
v 0.7521873 0.004482084 0.2015486
v 0.9671074 0.008964314 0.2591364
v 1.001223 0.008964355 -5.860216E-09
v 1.252469 0.05988975 -0.7231132
v 1.022637 0.0598898 -1.022636
v 1.396948 0.0598897 -0.3743109
v 1.182028 0.03442705 -0.3167233
v 1.446226 0.05988964 1.278518E-08
v 1.223725 0.034427 3.46248E-09
v 1.182027 0.03442695 0.3167242
v 1.396947 0.05988958 0.374312
v 0.1439603 -3.358463E-08 -0.5372676
v -5.63235E-08 -3.049683E-08 -0.5562204
v -1.014679E-08 0.004482238 -0.7787218
v 0.201548 0.004482234 -0.7521875
v 0.2591356 0.008964501 -0.9671074
v 3.602994E-08 0.008964508 -1.001223
v 8.220668E-08 0.0344272 -1.223725
v 0.3167233 0.03442719 -1.182027
v 0.374311 0.05988989 -1.396948
v 1.283834E-07 0.05988989 -1.446226
v -0.2781101 -4.263757E-08 -0.481701
v -0.3933072 -5.703875E-08 -0.3933073
v -0.5506395 0.004482201 -0.5506396
v -0.3893609 0.004482221 -0.674393
v -0.1439604 -3.358462E-08 -0.5372676
v -0.5006115 0.008964485 -0.8670849
v -0.7079717 0.008964459 -0.7079719
v -0.8653039 0.03442713 -0.8653043
v -0.201548 0.004482234 -0.7521876
v -5.63235E-08 -3.049683E-08 -0.5562204
v -1.014679E-08 0.004482238 -0.7787218
v 3.602994E-08 0.008964508 -1.001223
v -0.2591356 0.008964501 -0.9671076
v -0.6118623 0.03442718 -1.059777
v -0.3167232 0.03442719 -1.182028
v 8.220668E-08 0.0344272 -1.223725
v 1.283834E-07 0.05988989 -1.446226
v -0.3743108 0.05988989 -1.396948
v -0.723113 0.05988986 -1.252469
v -1.022636 0.0598898 -1.022637
v -0.5562204 -1.230545E-07 -2.317862E-07
v -0.5372678 -1.445707E-07 0.1439602
v -0.7521877 0.004482084 0.2015477
v -0.7787218 0.004482116 -3.137686E-07
v -0.5372677 -9.766248E-08 -0.1439606
v -1.001223 0.008964355 -3.95751E-07
v -0.9671076 0.008964314 0.2591352
v -1.182028 0.03442694 0.3167228
v -0.7521876 0.004482151 -0.2015483
v -0.481701 -7.580671E-08 -0.2781104
v -0.6743928 0.004482181 -0.3893611
v -0.8670846 0.008964438 -0.500612
v -0.9671074 0.008964399 -0.259136
v -1.223725 0.034427 -4.730791E-07
v -1.182027 0.03442705 -0.3167237
v -1.059777 0.0344271 -0.6118627
v -1.252468 0.05988975 -0.7231135
v -1.396947 0.0598897 -0.3743114
v -1.446226 0.05988964 -5.504072E-07
v -1.396948 0.05988957 0.3743103
v -0.1439607 -2.086486E-07 0.5372675
v -3.569106E-07 -2.117364E-07 0.5562204
v -4.309759E-07 0.004481984 0.7787218
v -0.2015484 0.004481989 0.7521875
v -0.2781104 -1.995957E-07 0.4817009
v -0.2591361 0.008964187 0.9671074
v -5.050413E-07 0.008964181 1.001223
v -5.791067E-07 0.0344268 1.223725
v -0.3893612 0.004482002 0.6743928
v -0.3933075 -1.851945E-07 0.3933069
v -0.5506399 0.004482022 0.5506392
v -0.7079722 0.008964228 0.7079714
v -0.500612 0.008964203 0.8670848
v -0.3167238 0.03442681 1.182027
v -0.6118628 0.03442683 1.059777
v -0.8653047 0.03442686 0.8653036
v -1.022637 0.05988949 1.022636
v -0.7231136 0.05988945 1.252468
v -0.3743115 0.05988943 1.396947
v -6.531721E-07 0.05988942 1.446226
v 0.3933069 -1.851946E-07 0.3933074
v 0.4817006 -1.664266E-07 0.2781104
v 0.6743927 0.004482055 0.3893613
v 0.5506392 0.004482022 0.5506399
v 0.2781098 -1.995957E-07 0.4817011
v 0.7079714 0.008964228 0.7079723
v 0.8670846 0.008964275 0.5006123
v 1.059777 0.03442689 0.6118631
v 0.3893605 0.004482002 0.6743931
v 0.14396 -2.086486E-07 0.5372676
v 0.2015476 0.004481989 0.7521876
v 0.2591351 0.008964187 0.9671076
v 0.5006111 0.008964203 0.8670851
v 0.8653036 0.03442686 0.8653047
v 0.6118618 0.03442683 1.059777
v 0.3167227 0.03442681 1.182028
v 0.3743102 0.05988943 1.396948
v 0.7231125 0.05988945 1.252469
v 1.022636 0.05988949 1.022637
v 1.252468 0.05988951 0.7231141
v 0.2682503 -4.542847E-08 -0.4717631
v 0.1439603 -3.644711E-08 -0.5372675
v 0.2599265 0.004525634 -0.970059
v 0.5021394 0.004525619 -0.8697314
v 0.393307 -5.971584E-08 -0.3933071
v 0.7101325 0.004525592 -0.7101325
v 0.9130363 0.009051222 -0.9130363
v 0.6456141 0.009051256 -1.118237
v 0.3341945 0.009051277 -1.247231
v 0.4084624 0.03476033 -1.524402
v 0.7890887 0.03476031 -1.366742
v 1.11594 0.03476026 -1.11594
v 1.318844 0.06046928 -1.318844
v 0.9325633 0.06046936 -1.615247
v 0.4827304 0.06046939 -1.801574
v -0.4855554 -1.68239E-07 0.2820425
v -0.3933075 -1.868586E-07 0.3933069
v -0.7101331 0.00452536 0.7101322
v -0.8697315 0.0045254 0.502139
v -0.5372677 -1.465559E-07 0.1439602
v -0.9700593 0.00452544 0.2599261
v -1.247231 0.009051031 0.3341939
v -1.118237 0.00905098 0.6456136
v -0.9130369 0.009050926 0.9130359
v -1.115941 0.0347599 1.115939
v -1.366742 0.03475995 0.7890881
v -1.524403 0.03476001 0.4084617
v -1.801574 0.06046899 0.4827296
v -1.615247 0.06046892 0.9325625
v -1.318845 0.06046888 1.318843
v -1.429497 0.05616084 -1.09632
v -1.282381 0.05584933 -1.282382
v -1.11594 0.03476026 -1.11594
v -1.241341 0.03476023 -0.9525147
v -0.9130362 0.009051222 -0.9130366
v -1.366742 0.03476021 -0.7890892
v -1.576613 0.05647236 -0.9102585
v -1.118236 0.009051192 -0.6456145
v -1.015636 0.009051207 -0.7793255
v -0.7101325 0.004525592 -0.7101327
v -0.8697312 0.004525564 -0.5021398
v -0.7899318 0.004525578 -0.6061363
v -0.3933071 -5.971583E-08 -0.3933073
v -0.481701 -7.833544E-08 -0.2781104
v -0.437504 -6.902563E-08 -0.3357088
v 0.2310764 0.05346749 1.75656
v -8.168022E-07 0.05358883 1.788336
v -7.468454E-07 0.03475983 1.578178
v 0.2042304 0.03475983 1.55129
v -6.513268E-07 0.009050864 1.291228
v 0.4084616 0.03475984 1.524403
v 0.4621535 0.05334614 1.724784
v 0.3341938 0.009050871 1.247231
v 0.1670966 0.009050868 1.26923
v -5.558084E-07 0.004525312 1.004279
v 0.259926 0.004525319 0.9700593
v 0.1299627 0.004525315 0.9871691
v -3.573033E-07 -2.131908E-07 0.5562205
v 0.14396 -2.101274E-07 0.5372676
v 0.07197983 -2.116591E-07 0.546744
v 1.70841 0.06046896 0.7076482
v 1.615247 0.06046892 0.9325645
v 1.366742 0.03475995 0.7890898
v 1.445572 0.03475998 0.5987767
v 1.118236 0.00905098 0.6456149
v 1.524402 0.03476002 0.4084635
v 1.801574 0.060469 0.4827317
v 1.247231 0.009051031 0.3341954
v 1.182733 0.009051007 0.4899051
v 0.8697309 0.004525401 0.5021401
v 0.9700589 0.00452544 0.2599273
v 0.9198949 0.00452542 0.3810337
v 0.4817006 -1.682391E-07 0.2781104
v 0.5372674 -1.465561E-07 0.1439608
v 0.509484 -1.573976E-07 0.2110356
vt 0.1666666 -2.384186E-07
vt 0.1249999 -2.384186E-07
vt 0.1249999 0.2499997
vt 0.1666666 0.2499997
vt 0.2083333 -2.384186E-07
vt 0.1666665 0.4999997
vt 0.1249998 0.4999997
vt 0.1249997 0.7499997
vt 0.2083332 0.2499998
vt 0.2499999 -2.384186E-07
vt 0.2083332 0.4999998
vt 0.1666664 0.7499997
vt 0.2499999 0.2499998
vt 0.2916667 -2.384186E-07
vt 0.2916666 0.2499998
vt 0.2916665 0.4999998
vt 0.2499998 0.4999998
vt 0.1666663 0.9999997
vt 0.1249996 0.9999997
vt 0.208333 0.9999998
vt 0.2083331 0.7499998
vt 0.2499996 0.9999998
vt 0.2499997 0.7499998
vt 0.2916664 0.7499998
vt 0.2916664 0.9999998
vt 0.04166663 -3.576279E-07
vt 0 -3.576279E-07
vt -7.450581E-08 0.2499997
vt 0.04166655 0.2499997
vt 0.04166648 0.4999997
vt -1.490116E-07 0.4999997
vt -2.235174E-07 0.7499997
vt 0.0416664 0.7499997
vt 0.04166633 0.9999997
vt -2.980232E-07 0.9999997
vt 0.9166666 0
vt 0.875 0
vt 0.8749999 0.25
vt 0.9166666 0.25
vt 0.9583333 0
vt 0.9166665 0.5
vt 0.8749998 0.5
vt 0.8749998 0.7499999
vt 0.9583333 0.25
vt 1 0
vt 0.9999999 0.25
vt 0.9999999 0.5
vt 0.9583331 0.5
vt 0.9166664 0.75
vt 0.9583331 0.75
vt 0.9999998 0.75
vt 0.9999997 1
vt 0.958333 1
vt 0.9166663 1
vt 0.8749996 0.9999999
vt 0.75 -1.192093E-07
vt 0.7083334 -1.192093E-07
vt 0.7083333 0.2499999
vt 0.7499999 0.2499999
vt 0.7916667 -1.192093E-07
vt 0.7499999 0.4999999
vt 0.7083332 0.4999999
vt 0.7083331 0.7499999
vt 0.7916666 0.2499999
vt 0.8333334 0
vt 0.8333333 0.25
vt 0.8333332 0.5
vt 0.7916665 0.4999999
vt 0.7499998 0.7499999
vt 0.7916664 0.7499999
vt 0.8333331 0.7499999
vt 0.833333 0.9999999
vt 0.7916664 0.9999999
vt 0.7499997 0.9999999
vt 0.708333 0.9999999
vt 0.5416667 -1.192093E-07
vt 0.5000001 -1.192093E-07
vt 0.5 0.2499999
vt 0.5416666 0.2499999
vt 0.5833334 -1.192093E-07
vt 0.5416666 0.4999999
vt 0.4999999 0.4999999
vt 0.4999998 0.7499998
vt 0.5833333 0.2499999
vt 0.6250001 -1.192093E-07
vt 0.625 0.2499999
vt 0.6249999 0.4999999
vt 0.5833332 0.4999999
vt 0.5416665 0.7499998
vt 0.5833331 0.7499999
vt 0.6249998 0.7499999
vt 0.6249998 0.9999999
vt 0.583333 0.9999999
vt 0.5416664 0.9999998
vt 0.4999997 0.9999998
vt 0.3750001 -2.384186E-07
vt 0.3333334 -2.384186E-07
vt 0.3333333 0.2499998
vt 0.375 0.2499998
vt 0.4166667 -2.384186E-07
vt 0.3749999 0.4999998
vt 0.3333332 0.4999998
vt 0.3333331 0.7499998
vt 0.4166666 0.2499998
vt 0.4583334 -1.192093E-07
vt 0.4583333 0.2499999
vt 0.4583332 0.4999999
vt 0.4166665 0.4999998
vt 0.3749998 0.7499998
vt 0.4166664 0.7499998
vt 0.4583331 0.7499998
vt 0.4583331 0.9999998
vt 0.4166664 0.9999998
vt 0.3749998 0.9999998
vt 0.3333331 0.9999998
vt 0.08333325 -3.576279E-07
vt 0.04166663 -3.576279E-07
vt 0.04166655 0.2499997
vt 0.08333318 0.2499997
vt 0.1249999 -2.384186E-07
vt 0.1249999 0.2499997
vt 0.1249998 0.4999997
vt 0.0833331 0.4999997
vt 0.04166648 0.4999997
vt 0.0416664 0.7499997
vt 0.08333303 0.7499997
vt 0.1249997 0.7499997
vt 0.1249996 0.9999997
vt 0.08333296 0.9999997
vt 0.04166633 0.9999997
vt 0.6666667 -1.192093E-07
vt 0.6250001 -1.192093E-07
vt 0.625 0.2499999
vt 0.6666666 0.2499999
vt 0.7083334 -1.192093E-07
vt 0.7083333 0.2499999
vt 0.7083332 0.4999999
vt 0.6666666 0.4999999
vt 0.6249999 0.4999999
vt 0.6249998 0.7499999
vt 0.6666665 0.7499999
vt 0.7083331 0.7499999
vt 0.708333 0.9999999
vt 0.6666664 0.9999999
vt 0.6249998 0.9999999
vt 0.8541663 0.9999999
vt 0.8749996 0.9999999
vt 0.8749998 0.7499999
vt 0.8541664 0.7499999
vt 0.8749998 0.5
vt 0.8333331 0.7499999
vt 0.833333 0.9999999
vt 0.8333332 0.5
vt 0.8541665 0.5
vt 0.8749999 0.25
vt 0.8333333 0.25
vt 0.8541666 0.25
vt 0.875 0
vt 0.8333334 0
vt 0.8541667 0
vt 0.4791664 0.9999998
vt 0.4999997 0.9999998
vt 0.4999998 0.7499998
vt 0.4791665 0.7499998
vt 0.4999999 0.4999999
vt 0.4583331 0.7499998
vt 0.4583331 0.9999998
vt 0.4583332 0.4999999
vt 0.4791666 0.4999999
vt 0.5 0.2499999
vt 0.4583333 0.2499999
vt 0.4791666 0.2499999
vt 0.5000001 -1.192093E-07
vt 0.4583334 -1.192093E-07
vt 0.4791667 -1.192093E-07
vt 0.3124997 0.9999998
vt 0.3333331 0.9999998
vt 0.3333331 0.7499998
vt 0.3124998 0.7499998
vt 0.3333332 0.4999998
vt 0.2916664 0.7499998
vt 0.2916664 0.9999998
vt 0.2916665 0.4999998
vt 0.3124999 0.4999998
vt 0.3333333 0.2499998
vt 0.2916666 0.2499998
vt 0.3125 0.2499998
vt 0.3333334 -2.384186E-07
vt 0.2916667 -2.384186E-07
vt 0.3125 -2.384186E-07
vn -0.01744233 0.9997972 0.01007049
vn -0.01611649 0.9997937 0.01236676
vn -0.01611649 0.9997937 0.01236675
vn -0.01744233 0.9997972 0.01007048
vn -0.01945439 0.9997972 0.005212956
vn -0.06138324 0.9974849 0.03543978
vn -0.05671506 0.9974415 0.04351913
vn -0.09096923 0.9934043 0.0698033
vn -0.01945439 0.9997972 0.005212956
vn -0.02014067 0.9997972 1.583724E-07
vn -0.06846407 0.9974849 0.01834506
vn -0.09846359 0.9935156 0.05684814
vn -0.02014066 0.9997972 1.60516E-07
vn -0.0201406 0.9997937 -0.002651415
vn -0.0201406 0.9997937 -0.002651411
vn -0.0708762 0.9974415 -0.009330898
vn -0.07087927 0.9974849 1.501908E-07
vn -0.0984636 0.9935156 0.05684815
vn -0.09096923 0.9934043 0.06980333
vn -0.1098218 0.9935156 0.02942682
vn -0.1098218 0.9935156 0.02942682
vn -0.113696 0.9935156 1.133777E-07
vn -0.113696 0.9935156 1.23025E-07
vn -0.1136833 0.9934043 -0.01496657
vn -0.1136833 0.9934043 -0.01496657
vn -0.002651563 0.9997937 0.02014074
vn 0 0.9997972 0.02014081
vn 0 0.9997972 0.02014081
vn -0.002651563 0.9997937 0.02014074
vn -0.009331044 0.9974415 0.07087635
vn 0 0.9974849 0.07087944
vn 0 0.9935156 0.1136962
vn -0.0149667 0.9934043 0.1136835
vn -0.01496669 0.9934043 0.1136835
vn 0 0.9935156 0.1136962
vn 0.01007032 0.9997972 0.01744247
vn 0.0123666 0.9997937 0.01611663
vn 0.0123666 0.9997937 0.01611664
vn 0.01007032 0.9997972 0.01744247
vn 0.005212781 0.9997972 0.01945453
vn 0.03543965 0.9974849 0.06138342
vn 0.043519 0.9974415 0.05671524
vn 0.06980316 0.9934043 0.09096949
vn 0.00521278 0.9997972 0.01945453
vn 0 0.9997972 0.02014081
vn 0 0.9997972 0.02014081
vn 0 0.9974849 0.07087944
vn 0.01834491 0.9974849 0.06846431
vn 0.05684802 0.9935156 0.09846385
vn 0.02942669 0.9935156 0.1098221
vn 0 0.9935156 0.1136962
vn 0 0.9935156 0.1136962
vn 0.02942669 0.9935156 0.1098222
vn 0.05684801 0.9935156 0.09846387
vn 0.06980313 0.9934043 0.09096948
vn 0.02014068 0.9997972 1.705499E-07
vn 0.02014061 0.9997937 -0.002651391
vn 0.02014061 0.9997937 -0.002651388
vn 0.02014068 0.9997972 1.708918E-07
vn 0.0194544 0.9997972 0.005212961
vn 0.07087928 0.9974849 1.973931E-07
vn 0.07087623 0.9974415 -0.009330818
vn 0.1136833 0.9934043 -0.01496645
vn 0.0194544 0.9997972 0.005212961
vn 0.01876806 0.9997937 0.007774155
vn 0.01876805 0.9997937 0.007774155
vn 0.0660461 0.9974415 0.02735738
vn 0.06846414 0.9974849 0.01834509
vn 0.113696 0.9935156 2.178994E-07
vn 0.1098219 0.9935156 0.02942688
vn 0.1059359 0.9934043 0.04388029
vn 0.1059359 0.9934043 0.04388028
vn 0.1098219 0.9935156 0.02942688
vn 0.113696 0.9935156 2.168157E-07
vn 0.1136833 0.9934043 -0.01496646
vn 0.005212791 0.9997972 -0.0194542
vn 0.002651567 0.9997937 -0.02014041
vn 0.002651565 0.9997937 -0.02014041
vn 0.00521279 0.9997972 -0.0194542
vn 0.01007033 0.9997972 -0.01744214
vn 0.01834494 0.9974849 -0.06846397
vn 0.009331044 0.9974415 -0.07087602
vn 0.01496671 0.9934043 -0.1136832
vn 0.01007033 0.9997972 -0.01744214
vn 0.01236661 0.9997937 -0.0161163
vn 0.01236661 0.9997937 -0.0161163
vn 0.04351905 0.9974415 -0.05671491
vn 0.03543968 0.9974849 -0.0613831
vn 0.02942675 0.9935156 -0.1098218
vn 0.05684809 0.9935156 -0.09846351
vn 0.06980324 0.9934043 -0.09096912
vn 0.06980324 0.9934043 -0.09096912
vn 0.05684809 0.9935156 -0.09846349
vn 0.02942675 0.9935156 -0.1098218
vn 0.0149667 0.9934043 -0.1136832
vn -0.01424158 0.9997972 -0.01424143
vn -0.01611648 0.9997937 -0.01236644
vn -0.01611649 0.9997937 -0.01236643
vn -0.01424158 0.9997972 -0.01424142
vn -0.01007031 0.9997972 -0.01744215
vn -0.05011918 0.9974849 -0.05011911
vn -0.05671504 0.9974415 -0.04351887
vn -0.09096918 0.9934043 -0.06980311
vn -0.01007031 0.9997972 -0.01744215
vn -0.007773958 0.9997937 -0.01876787
vn -0.007773958 0.9997937 -0.01876787
vn -0.02735716 0.9974415 -0.06604595
vn -0.0354396 0.9974849 -0.06138314
vn -0.08039518 0.9935156 -0.08039518
vn -0.05684796 0.9935156 -0.09846357
vn -0.04388008 0.9934043 -0.1059359
vn -0.04388008 0.9934043 -0.1059359
vn -0.05684796 0.9935156 -0.09846356
vn -0.08039515 0.9935156 -0.08039518
vn -0.09096917 0.9934043 -0.06980313
vn -0.00498388 0.9999501 0.008660939
vn -0.004140508 0.9999496 0.009151021
vn -0.005194745 0.9999126 0.012154
vn -0.006559371 0.9999139 0.01136469
vn -0.005836384 0.9999497 0.008165542
vn -0.007919804 0.9999127 0.01057778
vn -0.03413496 0.9984267 0.0444857
vn -0.02779728 0.9984534 0.04814648
vn -0.0214581 0.9984267 0.05180467
vn -0.03444173 0.9959417 0.0831499
vn -0.04461838 0.9960104 0.0772815
vn -0.05478888 0.9959417 0.07140245
vn -0.05478888 0.9959417 0.07140247
vn -0.04461838 0.9960104 0.0772815
vn -0.03444174 0.9959417 0.08314989
vn 0.008778959 0.9999486 -0.005079755
vn 0.008048306 0.9999474 -0.006348718
vn 0.01052397 0.9999114 -0.008154519
vn 0.01142289 0.999913 -0.006595999
vn 0.009513828 0.9999475 -0.003803423
vn 0.01232021 0.9999114 -0.005040166
vn 0.05180454 0.9984267 -0.02145797
vn 0.04814636 0.9984535 -0.0277971
vn 0.04448561 0.9984267 -0.03413475
vn 0.07140236 0.9959417 -0.05478868
vn 0.07728137 0.9960104 -0.0446182
vn 0.08314973 0.9959417 -0.03444159
vn 0.08314972 0.9959417 -0.03444159
vn 0.07728134 0.9960104 -0.04461822
vn 0.07140234 0.9959417 -0.05478868
vn 0.07140226 0.9959417 0.05478905
vn 0.07140225 0.9959417 0.05478906
vn 0.0714023 0.9959417 0.05478906
vn 0.07140227 0.9959417 0.05478905
vn 0.0444856 0.9984267 0.03413512
vn 0.07140227 0.9959417 0.05478904
vn 0.07140226 0.9959417 0.05478904
vn 0.04448556 0.9984267 0.0341351
vn 0.04203945 0.9985951 0.03225813
vn 0.0105394 0.9999118 0.008087301
vn 0.01053941 0.9999118 0.008087304
vn 0.01035038 0.9999149 0.007942266
vn 0.008081971 0.9999481 0.006201663
vn 0.008081974 0.9999481 0.006201665
vn 0.008081974 0.9999481 0.006201664
vn -0.01174742 0.9959417 -0.08923055
vn -0.01174745 0.9959417 -0.08923054
vn -0.01174744 0.9959417 -0.08923052
vn -0.01174741 0.9959417 -0.08923054
vn -0.007318967 0.9984267 -0.05559296
vn -0.01174738 0.9959417 -0.08923054
vn -0.01174738 0.9959417 -0.08923056
vn -0.007318937 0.9984267 -0.05559296
vn -0.006916504 0.9985951 -0.05253606
vn -0.001733991 0.9999118 -0.01317078
vn -0.001733984 0.9999118 -0.01317078
vn -0.00170289 0.9999149 -0.01293457
vn -0.001329686 0.9999481 -0.01009977
vn -0.001329683 0.9999481 -0.01009977
vn -0.001329685 0.9999481 -0.01009977
vn -0.08314969 0.9959417 -0.03444158
vn -0.08314968 0.9959417 -0.03444158
vn -0.08314967 0.9959417 -0.03444158
vn -0.08314967 0.9959417 -0.03444158
vn -0.0518045 0.9984267 -0.02145797
vn -0.08314967 0.9959417 -0.03444158
vn -0.08314966 0.9959417 -0.03444157
vn -0.05180449 0.9984267 -0.02145799
vn -0.04895592 0.9985951 -0.02027806
vn -0.01227337 0.9999118 -0.005083644
vn -0.01227338 0.9999118 -0.005083644
vn -0.01205326 0.9999149 -0.00499247
vn -0.009411648 0.9999481 -0.00389828
vn -0.009411652 0.9999481 -0.003898275
vn -0.00941165 0.9999481 -0.003898277
g mesh_ring_thick_taper_0
f 3/3/3 2/2/2 1/1/1
f 4/4/4 3/3/3 1/1/1
f 4/4/4 1/1/1 5/5/5
f 3/3/3 4/4/4 6/6/6
f 7/7/7 3/3/3 6/6/6
f 8/8/8 7/7/7 6/6/6
f 9/9/9 4/4/4 5/5/5
f 9/9/9 5/5/5 10/10/10
f 6/6/6 4/4/4 11/11/11
f 4/4/4 9/9/9 11/11/11
f 12/12/12 8/8/8 6/6/6
f 12/12/12 6/6/6 11/11/11
f 13/13/13 9/9/9 10/10/10
f 13/13/13 10/10/10 14/14/14
f 15/15/15 13/13/13 14/14/14
f 13/13/13 15/15/15 16/16/16
f 9/9/9 13/13/13 17/17/17
f 11/11/11 9/9/9 17/17/17
f 17/17/17 13/13/13 16/16/16
f 8/8/8 12/12/12 18/18/18
f 19/19/19 8/8/8 18/18/18
f 18/18/18 12/12/12 20/20/20
f 21/21/21 12/12/12 11/11/11
f 12/12/12 21/21/21 20/20/20
f 21/21/21 11/11/11 17/17/17
f 20/20/20 21/21/21 22/22/22
f 23/23/23 17/17/17 16/16/16
f 23/23/23 21/21/21 17/17/17
f 21/21/21 23/23/23 22/22/22
f 24/24/24 23/23/23 16/16/16
f 22/22/22 23/23/23 25/25/25
f 23/23/23 24/24/24 25/25/25
f 28/28/28 27/27/27 26/26/26
f 29/29/29 28/28/28 26/26/26
f 28/28/28 29/29/29 30/30/30
f 31/31/31 28/28/28 30/30/30
f 32/32/32 31/31/31 30/30/30
f 33/33/33 32/32/32 30/30/30
f 32/32/32 33/33/33 34/34/34
f 35/35/35 32/32/32 34/34/34
f 38/38/38 37/37/37 36/36/36
f 39/39/39 38/38/38 36/36/36
f 39/39/39 36/36/36 40/40/40
f 38/38/38 39/39/39 41/41/41
f 42/42/42 38/38/38 41/41/41
f 43/43/43 42/42/42 41/41/41
f 44/44/44 39/39/39 40/40/40
f 44/44/44 40/40/40 45/45/45
f 46/46/46 44/44/44 45/45/45
f 44/44/44 46/46/46 47/47/47
f 39/39/39 44/44/44 48/48/48
f 41/41/41 39/39/39 48/48/48
f 48/48/48 44/44/44 47/47/47
f 49/49/49 43/43/43 41/41/41
f 49/49/49 41/41/41 48/48/48
f 50/50/50 48/48/48 47/47/47
f 50/50/50 49/49/49 48/48/48
f 51/51/51 50/50/50 47/47/47
f 50/50/50 51/51/51 52/52/52
f 53/53/53 50/50/50 52/52/52
f 49/49/49 50/50/50 53/53/53
f 54/54/54 49/49/49 53/53/53
f 43/43/43 49/49/49 54/54/54
f 55/55/55 43/43/43 54/54/54
f 58/58/58 57/57/57 56/56/56
f 59/59/59 58/58/58 56/56/56
f 59/59/59 56/56/56 60/60/60
f 58/58/58 59/59/59 61/61/61
f 62/62/62 58/58/58 61/61/61
f 63/63/63 62/62/62 61/61/61
f 64/64/64 59/59/59 60/60/60
f 64/64/64 60/60/60 65/65/65
f 66/66/66 64/64/64 65/65/65
f 64/64/64 66/66/66 67/67/67
f 59/59/59 64/64/64 68/68/68
f 61/61/61 59/59/59 68/68/68
f 68/68/68 64/64/64 67/67/67
f 69/69/69 63/63/63 61/61/61
f 69/69/69 61/61/61 68/68/68
f 70/70/70 68/68/68 67/67/67
f 70/70/70 69/69/69 68/68/68
f 71/71/71 70/70/70 67/67/67
f 70/70/70 71/71/71 72/72/72
f 73/73/73 70/70/70 72/72/72
f 69/69/69 70/70/70 73/73/73
f 74/74/74 69/69/69 73/73/73
f 63/63/63 69/69/69 74/74/74
f 75/75/75 63/63/63 74/74/74
f 78/78/78 77/77/77 76/76/76
f 79/79/79 78/78/78 76/76/76
f 79/79/79 76/76/76 80/80/80
f 78/78/78 79/79/79 81/81/81
f 82/82/82 78/78/78 81/81/81
f 83/83/83 82/82/82 81/81/81
f 84/84/84 79/79/79 80/80/80
f 84/84/84 80/80/80 85/85/85
f 86/86/86 84/84/84 85/85/85
f 84/84/84 86/86/86 87/87/87
f 79/79/79 84/84/84 88/88/88
f 81/81/81 79/79/79 88/88/88
f 88/88/88 84/84/84 87/87/87
f 89/89/89 83/83/83 81/81/81
f 89/89/89 81/81/81 88/88/88
f 90/90/90 88/88/88 87/87/87
f 90/90/90 89/89/89 88/88/88
f 91/91/91 90/90/90 87/87/87
f 90/90/90 91/91/91 92/92/92
f 93/93/93 90/90/90 92/92/92
f 89/89/89 90/90/90 93/93/93
f 94/94/94 89/89/89 93/93/93
f 83/83/83 89/89/89 94/94/94
f 95/95/95 83/83/83 94/94/94
f 98/98/98 97/97/97 96/96/96
f 99/99/99 98/98/98 96/96/96
f 99/99/99 96/96/96 100/100/100
f 98/98/98 99/99/99 101/101/101
f 102/102/102 98/98/98 101/101/101
f 103/103/103 102/102/102 101/101/101
f 104/104/104 99/99/99 100/100/100
f 104/104/104 100/100/100 105/105/105
f 106/106/106 104/104/104 105/105/105
f 104/104/104 106/106/106 107/107/107
f 99/99/99 104/104/104 108/108/108
f 101/101/101 99/99/99 108/108/108
f 108/108/108 104/104/104 107/107/107
f 109/109/109 103/103/103 101/101/101
f 109/109/109 101/101/101 108/108/108
f 110/110/110 108/108/108 107/107/107
f 110/110/110 109/109/109 108/108/108
f 111/111/111 110/110/110 107/107/107
f 110/110/110 111/111/111 112/112/112
f 113/113/113 110/110/110 112/112/112
f 109/109/109 110/110/110 113/113/113
f 114/114/114 109/109/109 113/113/113
f 103/103/103 109/109/109 114/114/114
f 115/115/115 103/103/103 114/114/114
f 118/118/118 117/117/117 116/116/116
f 119/119/119 118/118/118 116/116/116
f 119/119/119 116/116/116 120/120/120
f 121/121/121 119/119/119 120/120/120
f 119/119/119 121/121/121 122/122/122
f 118/118/118 119/119/119 123/123/123
f 123/123/123 119/119/119 122/122/122
f 124/124/124 118/118/118 123/123/123
f 125/125/125 124/124/124 123/123/123
f 126/126/126 123/123/123 122/122/122
f 126/126/126 125/125/125 123/123/123
f 127/127/127 126/126/126 122/122/122
f 126/126/126 127/127/127 128/128/128
f 129/129/129 126/126/126 128/128/128
f 125/125/125 126/126/126 129/129/129
f 130/130/130 125/125/125 129/129/129
f 133/133/133 132/132/132 131/131/131
f 134/134/134 133/133/133 131/131/131
f 134/134/134 131/131/131 135/135/135
f 136/136/136 134/134/134 135/135/135
f 134/134/134 136/136/136 137/137/137
f 133/133/133 134/134/134 138/138/138
f 138/138/138 134/134/134 137/137/137
f 139/139/139 133/133/133 138/138/138
f 140/140/140 139/139/139 138/138/138
f 141/141/141 138/138/138 137/137/137
f 141/141/141 140/140/140 138/138/138
f 142/142/142 141/141/141 137/137/137
f 141/141/141 142/142/142 143/143/143
f 144/144/144 141/141/141 143/143/143
f 140/140/140 141/141/141 144/144/144
f 145/145/145 140/140/140 144/144/144
f 148/148/148 147/147/147 146/146/146
f 149/149/149 148/148/148 146/146/146
f 148/148/148 149/149/149 150/150/150
f 151/151/151 149/149/149 146/146/146
f 152/152/152 151/151/151 146/146/146
f 151/151/151 153/153/153 149/149/149
f 149/149/149 154/154/154 150/150/150
f 153/153/153 154/154/154 149/149/149
f 155/155/155 150/150/150 154/154/154
f 153/153/153 156/156/156 154/154/154
f 157/157/157 155/155/155 154/154/154
f 156/156/156 157/157/157 154/154/154
f 155/155/155 157/157/157 158/158/158
f 156/156/156 159/159/159 157/157/157
f 157/157/157 160/160/160 158/158/158
f 159/159/159 160/160/160 157/157/157
f 163/163/163 162/162/162 161/161/161
f 164/164/164 163/163/163 161/161/161
f 163/163/163 164/164/164 165/165/165
f 166/166/166 164/164/164 161/161/161
f 167/167/167 166/166/166 161/161/161
f 166/166/166 168/168/168 164/164/164
f 164/164/164 169/169/169 165/165/165
f 168/168/168 169/169/169 164/164/164
f 170/170/170 165/165/165 169/169/169
f 168/168/168 171/171/171 169/169/169
f 172/172/172 170/170/170 169/169/169
f 171/171/171 172/172/172 169/169/169
f 170/170/170 172/172/172 173/173/173
f 171/171/171 174/174/174 172/172/172
f 172/172/172 175/175/175 173/173/173
f 174/174/174 175/175/175 172/172/172
f 178/178/178 177/177/177 176/176/176
f 179/179/179 178/178/178 176/176/176
f 178/178/178 179/179/179 180/180/180
f 181/181/181 179/179/179 176/176/176
f 182/182/182 181/181/181 176/176/176
f 181/181/181 183/183/183 179/179/179
f 179/179/179 184/184/184 180/180/180
f 183/183/183 184/184/184 179/179/179
f 185/185/185 180/180/180 184/184/184
f 183/183/183 186/186/186 184/184/184
f 187/187/187 185/185/185 184/184/184
f 186/186/186 187/187/187 184/184/184
f 185/185/185 187/187/187 188/188/188
f 186/186/186 189/189/189 187/187/187
f 187/187/187 190/190/190 188/188/188
f 189/189/189 190/190/190 187/187/187
