g mesh_slash_thin
v -0.24193382 0.097154945 -8.34465E-07
v -0.24089521 0.11331126 0.011272579
v -0.27671725 0.09680316 -8.34465E-07
v -0.24089521 0.11331126 0.011272579
v -0.21945396 0.096233636 -8.34465E-07
v -0.21524945 0.114919364 -8.34465E-07
v -0.2123264 0.16626117 0.011272579
v -0.19805455 0.14580822 -8.34465E-07
v -0.1751476 0.17132837 -8.34465E-07
v -0.2240186 0.17950284 -8.34465E-07
v -0.27671725 0.09680316 -8.34465E-07
v -0.1755161 0.2036829 0.011272579
v -0.13829538 0.20318037 -8.34465E-07
v -0.1770488 0.2251493 -8.34465E-07
v -0.13211426 0.23319817 0.011272579
v -0.09592375 0.22723481 -8.34465E-07
v -0.13041404 0.2535171 -8.34465E-07
v -0.083779275 0.25368464 0.011272579
v -0.049682617 0.24256194 -8.34465E-07
v -0.07914761 0.27224475 -8.34465E-07
v -0.032387197 0.26434666 0.011272579
v -0.0013308525 0.24856722 -8.34465E-07
v -0.025209397 0.28060347 -8.34465E-07
v 0.020110413 0.2647738 0.011272579
v 0.047255397 0.24503273 -8.34465E-07
v 0.029323459 0.27828348 -8.34465E-07
v 0.07166998 0.25495768 0.011272579
v 0.09421682 0.23208421 -8.34465E-07
v 0.08235711 0.26536846 -8.34465E-07
v 0.120331615 0.23526692 0.011272579
v 0.13775265 0.21022415 -8.34465E-07
v 0.1318563 0.2423526 -8.34465E-07
v 0.16421923 0.20646358 0.011272579
v 0.17618781 0.18028176 -8.34465E-07
v 0.17591143 0.21012366 -8.34465E-07
v 0.20164096 0.16965324 0.011272579
v 0.20804821 0.1434212 -8.34465E-07
v 0.21283063 0.16992128 -8.34465E-07
v 0.23115622 0.12624305 0.011272579
v 0.23210265 0.10105792 -8.34465E-07
v 0.24119844 0.123286486 -8.34465E-07
v 0.25164267 0.07791641 0.011272579
v 0.2474298 0.054816782 -8.34465E-07
v 0.25992605 0.07202008 -8.34465E-07
v 0.2623047 0.02651599 0.011272579
v 0.25343505 0.0064650476 -8.34465E-07
v 0.2682848 0.0180735 -8.34465E-07
v 0.26273185 -0.02597326 0.011272579
v 0.24990058 -0.042121217 -8.34465E-07
v 0.26596478 -0.036459386 -8.34465E-07
v 0.25291577 -0.0775412 0.011272579
v 0.25304976 -0.089493036 -8.34465E-07
v -0.24193382 0.097154945 -8.34465E-07
v -0.27671725 0.09680316 -8.34465E-07
v -0.24065232 0.11336991 -0.011274248
v -0.21945396 0.096233636 -8.34465E-07
v -0.24065232 0.11336991 -0.011274248
v -0.21524945 0.114919364 -8.34465E-07
v -0.2123264 0.16626117 -0.011274248
v -0.19805455 0.14580822 -8.34465E-07
v -0.1751476 0.17132837 -8.34465E-07
v -0.2240186 0.17950284 -8.34465E-07
v -0.27671725 0.09680316 -8.34465E-07
v -0.1755161 0.2036829 -0.011274248
v -0.13829538 0.20318037 -8.34465E-07
v -0.1770488 0.2251493 -8.34465E-07
v -0.13211426 0.23319817 -0.011274248
v -0.09592375 0.22723481 -8.34465E-07
v -0.13041404 0.2535171 -8.34465E-07
v -0.083779275 0.25368464 -0.011274248
v -0.049682617 0.24256194 -8.34465E-07
v -0.07914761 0.27224475 -8.34465E-07
v -0.032387197 0.26434666 -0.011274248
v -0.0013308525 0.24856722 -8.34465E-07
v -0.025209397 0.28060347 -8.34465E-07
v 0.020110413 0.2647738 -0.011274248
v 0.047255397 0.24503273 -8.34465E-07
v 0.029323459 0.27828348 -8.34465E-07
v 0.07166998 0.25495768 -0.011274248
v 0.09421682 0.23208421 -8.34465E-07
v 0.08235711 0.26536846 -8.34465E-07
v 0.120331615 0.23526692 -0.011274248
v 0.13775265 0.21022415 -8.34465E-07
v 0.1318563 0.2423526 -8.34465E-07
v 0.16421923 0.20646358 -0.011274248
v 0.17618781 0.18028176 -8.34465E-07
v 0.17591143 0.21012366 -8.34465E-07
v 0.20164096 0.16965324 -0.011274248
v 0.20804821 0.1434212 -8.34465E-07
v 0.21283063 0.16992128 -8.34465E-07
v 0.23115622 0.12624305 -0.011274248
v 0.23210265 0.10105792 -8.34465E-07
v 0.24119844 0.123286486 -8.34465E-07
v 0.25164267 0.07791641 -0.011274248
v 0.2474298 0.054816782 -8.34465E-07
v 0.25992605 0.07202008 -8.34465E-07
v 0.2623047 0.02651599 -0.011274248
v 0.25343505 0.0064650476 -8.34465E-07
v 0.2682848 0.0180735 -8.34465E-07
v 0.26273185 -0.02597326 -0.011274248
v 0.24990058 -0.042121217 -8.34465E-07
v 0.26596478 -0.036459386 -8.34465E-07
v 0.25291577 -0.0775412 -0.011274248
v 0.25304976 -0.089493036 -8.34465E-07
vt -1.9754908 0.043344975
vt -1.6660166 0.07900715
vt -1.6660166 0.026420593
vt -1.6660166 0.07900715
vt -1.9754908 0.9657233
vt -1.6660166 0.9657233
vt -1.3565423 0.07900715
vt -1.3565423 0.9657233
vt -1.0470681 0.9657233
vt -1.3565423 0.026420593
vt -1.6660166 0.026420593
vt -1.0470681 0.07900715
vt -0.7375939 0.9657233
vt -1.0470681 0.026420593
vt -0.7375939 0.07900715
vt -0.42811966 0.9657233
vt -0.7375939 0.026420593
vt -0.42811966 0.07900715
vt -0.11864543 0.9657233
vt -0.42811966 0.026420593
vt -0.11864543 0.07900715
vt 0.1908288 0.9657233
vt -0.11864543 0.026420593
vt 0.1908288 0.07900715
vt 0.49969864 0.9657233
vt 0.1908288 0.026420593
vt 0.49969864 0.13159347
vt 0.80917287 0.9657233
vt 0.49969864 0.07961154
vt 0.80917287 0.21500659
vt 1.1186471 0.9657233
vt 0.80917287 0.16242003
vt 1.1186471 0.344357
vt 1.4281213 0.9657233
vt 1.1186471 0.2917707
vt 1.4281213 0.47552085
vt 1.7375956 0.9657233
vt 1.4281213 0.42293453
vt 1.7375956 0.6139381
vt 2.0470698 0.9657233
vt 1.7375956 0.56195617
vt 2.0470698 0.7559819
vt 2.3565443 0.9657233
vt 2.0470698 0.704
vt 2.3565443 0.8629682
vt 2.6660182 0.9657233
vt 2.3565443 0.81038165
vt 2.6660182 0.9294567
vt 2.9754927 0.9657233
vt 2.6660182 0.8774748
vt 2.9754927 0.9512167
vt 2.9754927 0.8986304
vt -1.9754908 0.043344975
vt -1.6660166 0.026420593
vt -1.6660166 0.07900715
vt -1.9754908 0.9657233
vt -1.6660166 0.07900715
vt -1.6660166 0.9657233
vt -1.3565423 0.07900715
vt -1.3565423 0.9657233
vt -1.0470681 0.9657233
vt -1.3565423 0.026420593
vt -1.6660166 0.026420593
vt -1.0470681 0.07900715
vt -0.7375939 0.9657233
vt -1.0470681 0.026420593
vt -0.7375939 0.07900715
vt -0.42811966 0.9657233
vt -0.7375939 0.026420593
vt -0.42811966 0.07900715
vt -0.11864543 0.9657233
vt -0.42811966 0.026420593
vt -0.11864543 0.07900715
vt 0.1908288 0.9657233
vt -0.11864543 0.026420593
vt 0.1908288 0.07900715
vt 0.49969864 0.9657233
vt 0.1908288 0.026420593
vt 0.49969864 0.13159347
vt 0.80917287 0.9657233
vt 0.49969864 0.07961154
vt 0.80917287 0.21500659
vt 1.1186471 0.9657233
vt 0.80917287 0.16242003
vt 1.1186471 0.344357
vt 1.4281213 0.9657233
vt 1.1186471 0.2917707
vt 1.4281213 0.47552085
vt 1.7375956 0.9657233
vt 1.4281213 0.42293453
vt 1.7375956 0.6139381
vt 2.0470698 0.9657233
vt 1.7375956 0.56195617
vt 2.0470698 0.7559819
vt 2.3565443 0.9657233
vt 2.0470698 0.704
vt 2.3565443 0.8629682
vt 2.6660182 0.9657233
vt 2.3565443 0.81038165
vt 2.6660182 0.9294567
vt 2.9754927 0.9657233
vt 2.6660182 0.8774748
vt 2.9754927 0.9512167
vt 2.9754927 0.8986304
vn -0.11147845 0.45631647 -0.8828068
vn -0.052921057 0.241606 -0.9689303
vn 0.23986596 0.17654222 -0.9546189
vn -0.052921057 0.241606 -0.9689303
vn -0.2220869 0.33269536 -0.91651034
vn -0.31317616 0.27413785 -0.90926844
vn 0.031661868 -0.03816825 -0.9987696
vn -0.35872078 0.26112515 -0.89617693
vn -0.29365706 0.32618892 -0.89853567
vn 0.40903178 -0.32444885 -0.8528927
vn 0.23986596 0.17654222 -0.9546189
vn 0.031661868 -0.057687342 -0.9978325
vn -0.23509961 0.3847463 -0.8925797
vn 0.343968 -0.42204455 -0.83878744
vn 0.0056363344 -0.057687342 -0.9983188
vn -0.17003584 0.44981015 -0.87678885
vn 0.24637234 -0.48710832 -0.83787
vn -0.0073764324 -0.05118102 -0.9986621
vn -0.07894659 0.50836754 -0.8575138
vn 0.15528303 -0.53915936 -0.8277647
vn -0.02038914 -0.044674635 -0.9987935
vn 0.018649101 0.55391216 -0.8323662
vn 0.044674635 -0.584704 -0.8100157
vn -0.033401906 -0.031661868 -0.99894035
vn 0.13576388 0.5799377 -0.8032686
vn -0.07244021 -0.6107295 -0.7885188
vn -0.03990829 -0.025155485 -0.99888664
vn 0.26589146 0.5799377 -0.7700481
vn -0.20256776 -0.6172359 -0.76025397
vn -0.046414673 -0.018649101 -0.9987481
vn 0.396019 0.54740584 -0.73723525
vn -0.3392017 -0.60422313 -0.72101086
vn -0.05942744 -0.012142718 -0.99815875
vn 0.5196402 0.482342 -0.7052094
vn -0.482342 -0.5586785 -0.6747033
vn -0.07244021 -0.0056363344 -0.99735683
vn 0.6172359 0.3847463 -0.6862872
vn -0.618976 -0.48710832 -0.6161122
vn -0.09846568 0.0073764324 -0.99511313
vn 0.69531244 0.26112515 -0.6695926
vn -0.7425971 -0.3764999 -0.5538929
vn -0.124491215 0.02038914 -0.9920112
vn 0.7343507 0.11798483 -0.6684375
vn -0.8401928 -0.23335958 -0.48950934
vn -0.15051675 0.046414673 -0.98751724
vn 0.7343507 -0.025155485 -0.67830396
vn -0.9052566 -0.07070011 -0.41894147
vn -0.17654222 0.07894659 -0.98112196
vn 0.7213379 -0.09672564 -0.6857957
vn -0.9247757 0.11147845 -0.36381647
vn -0.18955499 0.09846568 -0.97692037
vn -0.9182693 0.20256776 -0.34021735
vn -0.11147845 0.45631647 0.8828068
vn 0.23986596 0.17654222 0.9546189
vn -0.052921057 0.241606 0.9689303
vn -0.2220869 0.33269536 0.91651034
vn -0.052921057 0.241606 0.9689303
vn -0.31317616 0.27413785 0.90926844
vn 0.031661868 -0.03816825 0.9987696
vn -0.35872078 0.26112515 0.89617693
vn -0.29365706 0.32618892 0.89853567
vn 0.40903178 -0.32444885 0.8528927
vn 0.23986596 0.17654222 0.9546189
vn 0.031661868 -0.057687342 0.9978325
vn -0.23509961 0.3847463 0.8925797
vn 0.343968 -0.42204455 0.83878744
vn 0.0056363344 -0.057687342 0.9983188
vn -0.17003584 0.44981015 0.87678885
vn 0.24637234 -0.48710832 0.83787
vn -0.0073764324 -0.05118102 0.9986621
vn -0.07894659 0.50836754 0.8575138
vn 0.15528303 -0.53915936 0.8277647
vn -0.02038914 -0.044674635 0.9987935
vn 0.018649101 0.55391216 0.8323662
vn 0.044674635 -0.584704 0.8100157
vn -0.033401906 -0.031661868 0.99894035
vn 0.13576388 0.5799377 0.8032686
vn -0.07244021 -0.6107295 0.7885188
vn -0.03990829 -0.025155485 0.99888664
vn 0.26589146 0.5799377 0.7700481
vn -0.20256776 -0.6172359 0.76025397
vn -0.046414673 -0.018649101 0.9987481
vn 0.396019 0.54740584 0.73723525
vn -0.3392017 -0.60422313 0.72101086
vn -0.05942744 -0.012142718 0.99815875
vn 0.5196402 0.482342 0.7052094
vn -0.482342 -0.5586785 0.6747033
vn -0.07244021 -0.0056363344 0.99735683
vn 0.6172359 0.3847463 0.6862872
vn -0.618976 -0.48710832 0.6161122
vn -0.09846568 0.0073764324 0.99511313
vn 0.69531244 0.26112515 0.6695926
vn -0.7425971 -0.3764999 0.5538929
vn -0.124491215 0.02038914 0.9920112
vn 0.7343507 0.11798483 0.6684375
vn -0.8401928 -0.23335958 0.48950934
vn -0.15051675 0.046414673 0.98751724
vn 0.7343507 -0.025155485 0.67830396
vn -0.9052566 -0.07070011 0.41894147
vn -0.17654222 0.07894659 0.98112196
vn 0.7213379 -0.09672564 0.6857957
vn -0.9247757 0.11147845 0.36381647
vn -0.18955499 0.09846568 0.97692037
vn -0.9182693 0.20256776 0.34021735
g mesh_slash_thin_0
f 3/3/3 2/2/2 1/1/1
f 5/5/5 1/1/1 4/4/4
f 4/4/4 6/6/6 5/5/5
f 6/6/6 4/4/4 7/7/7
f 7/7/7 8/8/8 6/6/6
f 9/9/9 8/8/8 7/7/7
f 10/10/10 7/7/7 4/4/4
f 4/4/4 11/11/11 10/10/10
f 7/7/7 12/12/12 9/9/9
f 12/12/12 7/7/7 10/10/10
f 9/9/9 12/12/12 13/13/13
f 10/10/10 14/14/14 12/12/12
f 15/15/15 13/13/13 12/12/12
f 12/12/12 14/14/14 15/15/15
f 13/13/13 15/15/15 16/16/16
f 14/14/14 17/17/17 15/15/15
f 18/18/18 16/16/16 15/15/15
f 15/15/15 17/17/17 18/18/18
f 16/16/16 18/18/18 19/19/19
f 20/20/20 18/18/18 17/17/17
f 21/21/21 19/19/19 18/18/18
f 18/18/18 20/20/20 21/21/21
f 19/19/19 21/21/21 22/22/22
f 23/23/23 21/21/21 20/20/20
f 24/24/24 22/22/22 21/21/21
f 21/21/21 23/23/23 24/24/24
f 22/22/22 24/24/24 25/25/25
f 26/26/26 24/24/24 23/23/23
f 27/27/27 25/25/25 24/24/24
f 24/24/24 26/26/26 27/27/27
f 25/25/25 27/27/27 28/28/28
f 29/29/29 27/27/27 26/26/26
f 30/30/30 28/28/28 27/27/27
f 27/27/27 29/29/29 30/30/30
f 28/28/28 30/30/30 31/31/31
f 32/32/32 30/30/30 29/29/29
f 33/33/33 31/31/31 30/30/30
f 30/30/30 32/32/32 33/33/33
f 34/34/34 31/31/31 33/33/33
f 35/35/35 33/33/33 32/32/32
f 36/36/36 34/34/34 33/33/33
f 33/33/33 35/35/35 36/36/36
f 37/37/37 34/34/34 36/36/36
f 38/38/38 36/36/36 35/35/35
f 39/39/39 37/37/37 36/36/36
f 36/36/36 38/38/38 39/39/39
f 37/37/37 39/39/39 40/40/40
f 41/41/41 39/39/39 38/38/38
f 42/42/42 40/40/40 39/39/39
f 39/39/39 41/41/41 42/42/42
f 40/40/40 42/42/42 43/43/43
f 44/44/44 42/42/42 41/41/41
f 45/45/45 43/43/43 42/42/42
f 42/42/42 44/44/44 45/45/45
f 43/43/43 45/45/45 46/46/46
f 47/47/47 45/45/45 44/44/44
f 48/48/48 46/46/46 45/45/45
f 45/45/45 47/47/47 48/48/48
f 46/46/46 48/48/48 49/49/49
f 50/50/50 48/48/48 47/47/47
f 49/49/49 48/48/48 51/51/51
f 48/48/48 50/50/50 51/51/51
f 52/52/52 51/51/51 50/50/50
f 55/55/55 54/54/54 53/53/53
f 57/57/57 53/53/53 56/56/56
f 56/56/56 58/58/58 57/57/57
f 59/59/59 57/57/57 58/58/58
f 58/58/58 60/60/60 59/59/59
f 59/59/59 60/60/60 61/61/61
f 57/57/57 59/59/59 62/62/62
f 62/62/62 63/63/63 57/57/57
f 59/59/59 61/61/61 64/64/64
f 62/62/62 59/59/59 64/64/64
f 65/65/65 64/64/64 61/61/61
f 62/62/62 64/64/64 66/66/66
f 64/64/64 65/65/65 67/67/67
f 67/67/67 66/66/66 64/64/64
f 68/68/68 67/67/67 65/65/65
f 66/66/66 67/67/67 69/69/69
f 67/67/67 68/68/68 70/70/70
f 70/70/70 69/69/69 67/67/67
f 71/71/71 70/70/70 68/68/68
f 69/69/69 70/70/70 72/72/72
f 70/70/70 71/71/71 73/73/73
f 73/73/73 72/72/72 70/70/70
f 74/74/74 73/73/73 71/71/71
f 72/72/72 73/73/73 75/75/75
f 73/73/73 74/74/74 76/76/76
f 76/76/76 75/75/75 73/73/73
f 74/74/74 77/77/77 76/76/76
f 75/75/75 76/76/76 78/78/78
f 76/76/76 77/77/77 79/79/79
f 79/79/79 78/78/78 76/76/76
f 77/77/77 80/80/80 79/79/79
f 78/78/78 79/79/79 81/81/81
f 79/79/79 80/80/80 82/82/82
f 79/79/79 82/82/82 81/81/81
f 83/83/83 82/82/82 80/80/80
f 81/81/81 82/82/82 84/84/84
f 82/82/82 83/83/83 85/85/85
f 84/84/84 82/82/82 85/85/85
f 86/86/86 85/85/85 83/83/83
f 84/84/84 85/85/85 87/87/87
f 86/86/86 88/88/88 85/85/85
f 87/87/87 85/85/85 88/88/88
f 89/89/89 88/88/88 86/86/86
f 87/87/87 88/88/88 90/90/90
f 88/88/88 89/89/89 91/91/91
f 91/91/91 90/90/90 88/88/88
f 92/92/92 91/91/91 89/89/89
f 90/90/90 91/91/91 93/93/93
f 91/91/91 92/92/92 94/94/94
f 94/94/94 93/93/93 91/91/91
f 95/95/95 94/94/94 92/92/92
f 93/93/93 94/94/94 96/96/96
f 94/94/94 95/95/95 97/97/97
f 97/97/97 96/96/96 94/94/94
f 98/98/98 97/97/97 95/95/95
f 96/96/96 97/97/97 99/99/99
f 97/97/97 98/98/98 100/100/100
f 100/100/100 99/99/99 97/97/97
f 101/101/101 100/100/100 98/98/98
f 99/99/99 100/100/100 102/102/102
f 100/100/100 101/101/101 103/103/103
f 103/103/103 102/102/102 100/100/100
f 102/102/102 103/103/103 104/104/104
