g mesh_backdrop
v -5.638383E-08 -2.145767E-09 8.526513E-17
v -0.6796283 -0.96 4.577637E-08
v -0.6796282 2.145767E-09 -8.526513E-17
v 0.0008419987 -0.96 4.577637E-08
v 0.6796282 2.145767E-09 -8.526513E-17
v 0.6796283 -0.96 4.577637E-08
v 0.6796282 0.07474136 1.039811
v -5.638383E-08 0.07470801 0.0746125
v -5.638383E-08 0.07474136 1.039811
v 0.6796283 0.07470802 0.07461251
v -0.6796282 0.07474136 1.039811
v -0.6796283 0.07470802 0.07461251
v 0.6796283 0.0500726 0.02443393
v -0.6796283 0.0500726 0.02443393
v -5.638383E-08 0.0500726 0.02443393
v 0.6796282 2.145767E-09 -8.526513E-17
v -0.6796282 2.145767E-09 -8.526513E-17
v -5.638383E-08 -2.145767E-09 8.526513E-17
vt 0.5000001 0.5351807
vt 0.9999999 0.9999998
vt 0.9999999 0.5351807
vt 0.4993805 0.9999999
vt 5.960464E-08 0.5351807
vt 0 0.9999999
vt 2.980232E-08 0
vt 0.5 0.4559622
vt 0.5 2.980232E-08
vt 5.960464E-08 0.4559621
vt 0.9999999 0
vt 0.9999999 0.4559621
vt 5.960464E-08 0.4957125
vt 0.9999999 0.4957125
vt 0.5 0.4957125
vt 5.960464E-08 0.5351807
vt 0.9999999 0.5351807
vt 0.5000001 0.5351807
vn 0 0 1
vn 0 0 1
vn 0 0 1
vn 0 0 1
vn 0 0 1
vn 0 0 1
vn 0 -1 3.455218E-05
vn 0 -0.9740729 0.2262342
vn 0 -1 3.454955E-05
vn 0 -0.9740729 0.2262342
vn 0 -1 3.454692E-05
vn 0 -0.9740729 0.2262342
vn 0 -0.7062551 0.7079576
vn 0 -0.706255 0.7079576
vn 0 -0.7062551 0.7079576
vn 0 -0.4385436 0.89871
vn 0 -0.4385436 0.89871
vn 0 -0.4385436 0.89871
g mesh_backdrop_0
f 3/3/3 2/2/2 1/1/1
f 2/2/2 4/4/4 1/1/1
f 5/5/5 1/1/1 4/4/4
f 4/4/4 6/6/6 5/5/5
f 9/9/9 8/8/8 7/7/7
f 8/8/8 10/10/10 7/7/7
f 8/8/8 9/9/9 11/11/11
f 11/11/11 12/12/12 8/8/8
f 13/13/13 10/10/10 8/8/8
f 12/12/12 14/14/14 8/8/8
f 8/8/8 15/15/15 13/13/13
f 14/14/14 15/15/15 8/8/8
f 16/16/16 13/13/13 15/15/15
f 14/14/14 17/17/17 15/15/15
f 15/15/15 18/18/18 16/16/16
f 17/17/17 18/18/18 15/15/15
