g mesh_rock
v -0.08612271 -0.1016191 0.07721623
v -0.116784 -0.02220918 -0.05393964
v -0.07711288 0.02673548 0.1140967
v -0.09304047 0.08440129 0.03444444
v -0.116784 -0.02220918 -0.05393964
v -0.09829383 -0.0264575 -0.1082446
v 0.002453834 0.03833992 -0.114895
v -0.09304047 0.08440129 0.03444444
v -0.0001229569 0.1013553 -0.03122615
v -0.03649732 0.1123289 0.02247291
v -0.03591282 -0.1123289 -0.1014836
v -0.09829383 -0.0264575 -0.1082446
v -0.116784 -0.02220918 -0.05393964
v -0.08612271 -0.1016191 0.07721623
v 0.002453834 0.03833992 -0.114895
v -0.03591282 -0.1123289 -0.1014836
v 0.06483484 -0.04753153 -0.1081341
v -0.09829383 -0.0264575 -0.1082446
v -0.09304047 0.08440129 0.03444444
v -0.03649732 0.1123289 0.02247291
v -0.007065661 0.07740156 0.07422245
v -0.07711288 0.02673548 0.1140967
v 0.05487698 0.06732251 0.04403522
v -0.03649732 0.1123289 0.02247291
v -0.0001229569 0.1013553 -0.03122615
v -0.007065661 0.07740156 0.07422245
v 0.002453834 0.03833992 -0.114895
v 0.05487698 0.06732251 0.04403522
v -0.0001229569 0.1013553 -0.03122615
v 0.06483484 -0.04753153 -0.1081341
v 0.08451535 -0.05861919 -0.07566233
v 0.116784 -0.01117498 0.04595623
v -0.03591282 -0.1123289 -0.1014836
v 0.06204065 -0.1103367 0.0008571446
v 0.08451535 -0.05861919 -0.07566233
v 0.06483484 -0.04753153 -0.1081341
v 0.116784 -0.01117498 0.04595623
v 0.08451535 -0.05861919 -0.07566233
v 0.06204065 -0.1103367 0.0008571446
v 0.09540343 -0.05297022 0.07731246
v 0.05487698 0.06732251 0.04403522
v 0.116784 -0.01117498 0.04595623
v 0.09540343 -0.05297022 0.07731246
v -0.007065661 0.07740156 0.07422245
v 0.03047414 -0.05583213 0.114895
v -0.07711288 0.02673548 0.1140967
v 0.03047414 -0.05583213 0.114895
v 0.09540343 -0.05297022 0.07731246
v 0.06204065 -0.1103367 0.0008571446
v -0.04441657 -0.1044988 0.09180375
v -0.03591282 -0.1123289 -0.1014836
v -0.08612271 -0.1016191 0.07721623
v 0.06204065 -0.1103367 0.0008571446
v -0.04441657 -0.1044988 0.09180375
v -0.07711288 0.02673548 0.1140967
v 0.03047414 -0.05583213 0.114895
v -0.04441657 -0.1044988 0.09180375
v -0.08612271 -0.1016191 0.07721623
vt 0.8124179 0.7459849
vt 0.8956693 0.7535532
vt 0.8225089 0.6660971
vt 0.8889419 0.6921657
vt 0.8796918 0.9259426
vt 0.877169 0.9578977
vt 0.9393974 0.9814436
vt 0.9427611 0.8788509
vt 0.9747162 0.9343519
vt 0.9730343 0.8981921
vt 0.202748 0.8561459
vt 0.2414305 0.9049195
vt 0.2994542 0.8418502
vt 0.246476 0.7585987
vt 0.699734 0.9225789
vt 0.7796218 0.8536232
vt 0.7232799 0.8300773
vt 0.7905539 0.9049195
vt 0.909965 0.4693209
vt 0.910806 0.4104562
vt 0.8586687 0.4205473
vt 0.8376456 0.4995941
vt 0.6080734 0.2590899
vt 0.6820747 0.2977724
vt 0.6787109 0.2414305
vt 0.6240509 0.3120681
vt 0.8914647 0.7871901
vt 0.788031 0.8603505
vt 0.8704416 0.8628733
vt 0.8410093 0.7426212
vt 0.8199862 0.7367347
vt 0.7426212 0.8056905
vt 0.1211783 0.744303
vt 0.1430424 0.8199862
vt 0.1951796 0.7804627
vt 0.1817249 0.7518713
vt 0.5979823 0.6047096
vt 0.6888021 0.5382767
vt 0.6164826 0.5046397
vt 0.5744364 0.5769591
vt 0.3759783 0.6198462
vt 0.3759783 0.7123479
vt 0.4314793 0.7308483
vt 0.4314793 0.5778
vt 0.5004351 0.6963704
vt 0.5315492 0.5752773
vt 0.6686199 0.8283954
vt 0.700575 0.8309182
vt 0.7274845 0.7846674
vt 0.6417103 0.7636443
vt 0.7400984 0.8914647
vt 0.6745063 0.8292363
vt 0.6618925 0.9023967
vt 0.6383466 0.8326001
vt 0.7501895 0.7173935
vt 0.7485076 0.6248918
vt 0.67787 0.6719835
vt 0.6703017 0.7064614
vn -0.9741331 0.01489329 0.2254835
vn -0.9741331 0.01489329 0.2254835
vn -0.9741331 0.01489329 0.2254835
vn -0.9741331 0.01489329 0.2254835
vn -0.5796071 0.6569651 -0.4821332
vn -0.5796071 0.6569651 -0.4821332
vn -0.5409281 0.6801726 -0.4947343
vn -0.5409281 0.6801726 -0.4947343
vn -0.4945133 0.70338 -0.5106009
vn -0.4945133 0.70338 -0.5106009
vn -0.780738 -0.5962353 -0.1869536
vn -0.780738 -0.5962353 -0.1869536
vn -0.780738 -0.5962353 -0.1869536
vn -0.780738 -0.5962353 -0.1869536
vn -0.007157564 -0.08567214 -0.9962977
vn -0.007157564 -0.08567214 -0.9962977
vn -0.007157564 -0.08567214 -0.9962977
vn -0.007157564 -0.08567214 -0.9962977
vn -0.2237601 0.7575306 0.6132527
vn -0.2237601 0.7575306 0.6132527
vn -0.2237601 0.7575306 0.6132527
vn -0.2237601 0.7575306 0.6132527
vn 0.3873685 0.8967751 0.2138691
vn 0.3873685 0.8967751 0.2138691
vn 0.3873685 0.8967751 0.2138691
vn 0.3873685 0.8967751 0.2138691
vn 0.7741588 0.5177207 -0.3642025
vn 0.766423 0.5331923 -0.3581924
vn 0.7741588 0.5177207 -0.3642025
vn 0.766423 0.5331923 -0.3581924
vn 0.7509513 0.5409281 -0.3787728
vn 0.7509513 0.5409281 -0.3787728
vn 0.4415191 -0.7818946 -0.4401156
vn 0.4415191 -0.7818946 -0.4401156
vn 0.4415191 -0.7818946 -0.4401156
vn 0.4415191 -0.7818946 -0.4401156
vn 0.8824601 -0.4647266 -0.07275616
vn 0.8824601 -0.4647266 -0.07275616
vn 0.8824601 -0.4647266 -0.07275616
vn 0.8824601 -0.4647266 -0.07275616
vn 0.4569908 0.3784761 0.8049318
vn 0.4569908 0.3784761 0.8049318
vn 0.4028401 0.3707404 0.8368222
vn 0.4028401 0.3707404 0.8368222
vn 0.3486895 0.3630046 0.8640853
vn 0.3486895 0.3630046 0.8640853
vn 0.3486895 -0.805102 0.4798192
vn 0.3486895 -0.805102 0.4798192
vn 0.3486895 -0.805102 0.4798192
vn 0.3486895 -0.805102 0.4798192
vn -0.03810072 -0.9984971 0.03939298
vn -0.03810072 -0.9984971 0.03939298
vn -0.03810072 -0.9984971 0.03939298
vn -0.03810072 -0.9984971 0.03939298
vn -0.2237601 -0.2171808 0.9501389
vn -0.2237601 -0.2171808 0.9501389
vn -0.2237601 -0.2171808 0.9501389
vn -0.2237601 -0.2171808 0.9501389
g mesh_rock_0
f 3/3/3 2/2/2 1/1/1
f 3/3/3 4/4/4 2/2/2
f 7/7/7 6/6/6 5/5/5
f 7/7/7 5/5/5 8/8/8
f 9/9/9 7/7/7 8/8/8
f 8/8/8 10/10/10 9/9/9
f 13/13/13 12/12/12 11/11/11
f 11/11/11 14/14/14 13/13/13
f 17/17/17 16/16/16 15/15/15
f 16/16/16 18/18/18 15/15/15
f 21/21/21 20/20/20 19/19/19
f 19/19/19 22/22/22 21/21/21
f 25/25/25 24/24/24 23/23/23
f 24/24/24 26/26/26 23/23/23
f 29/29/29 28/28/28 27/27/27
f 28/28/28 30/30/30 27/27/27
f 31/31/31 30/30/30 28/28/28
f 28/28/28 32/32/32 31/31/31
f 35/35/35 34/34/34 33/33/33
f 33/33/33 36/36/36 35/35/35
f 39/39/39 38/38/38 37/37/37
f 37/37/37 40/40/40 39/39/39
f 43/43/43 42/42/42 41/41/41
f 41/41/41 44/44/44 43/43/43
f 45/45/45 43/43/43 44/44/44
f 44/44/44 46/46/46 45/45/45
f 49/49/49 48/48/48 47/47/47
f 49/49/49 47/47/47 50/50/50
f 53/53/53 52/52/52 51/51/51
f 53/53/53 54/54/54 52/52/52
f 57/57/57 56/56/56 55/55/55
f 55/55/55 58/58/58 57/57/57
