g mesh_stripe_curved
v 0.0003534698 0.09702408 6.826326E-12
v -0.0847853 0.09362785 2.248771E-10
v -0.001303558 0.1091314 2.08712E-10
v -0.08055374 0.08039875 9.593151E-11
v 0.002010536 0.08491676 -1.950605E-10
v -0.1648691 0.0637171 5.478761E-11
v -0.07632218 0.06716967 -3.301409E-11
v 0.003667564 0.07280945 -3.969467E-10
v -0.1576411 0.04993938 2.72825E-11
v -0.2390716 0.02011355 -1.919295E-10
v -0.07209068 0.05394054 -1.6196E-10
v 0.005324592 0.06070209 -5.988335E-10
v -0.06785911 0.04071144 -2.909056E-10
v -0.1504131 0.03616166 -2.22613E-13
v -0.2285538 0.00646904 -9.198772E-11
v -0.3050552 -0.03604084 -4.01825E-10
v -0.1431852 0.02238395 -2.772772E-11
v -0.1359571 0.008606234 -5.523283E-11
v -0.2180361 -0.007175446 7.954099E-12
v -0.2911071 -0.04879015 -1.52462E-10
v -0.3607019 -0.1032058 -4.610615E-10
v -0.2075183 -0.02081993 1.078959E-10
v -0.1970005 -0.03446445 2.078377E-10
v -0.277159 -0.0615395 9.690097E-11
v -0.3433536 -0.1142513 -4.574531E-11
v -0.404181 -0.1794848 -2.588797E-10
v -0.2632109 -0.07428879 3.46264E-10
v -0.2492628 -0.08703811 5.956264E-10
v -0.3260053 -0.1252968 3.695703E-10
v -0.3836441 -0.1880082 3.322589E-10
v -0.4340085 -0.2626779 3.089656E-10
v -0.308657 -0.1363423 7.848859E-10
v -0.2913087 -0.1473878 1.200202E-09
v -0.3631073 -0.1965317 9.233975E-10
v -0.4106793 -0.2678907 1.078167E-09
v -0.4490979 -0.3503457 1.336931E-09
v -0.3425705 -0.2050552 1.514536E-09
v -0.3220337 -0.2135786 2.105675E-09
v -0.3873501 -0.2731036 1.847369E-09
v -0.4235516 -0.3515286 2.278139E-09
v -0.4487975 -0.4398804 2.906679E-09
v -0.3640208 -0.2783164 2.616572E-09
v -0.3406916 -0.2835293 3.385772E-09
v -0.3980052 -0.3527116 3.219346E-09
v -0.421775 -0.436422 4.005206E-09
v -0.4329166 -0.5285836 5.084403E-09
v -0.3724588 -0.3538945 4.160555E-09
v -0.3469125 -0.3550774 5.101763E-09
v -0.3947524 -0.4329636 5.103734E-09
v -0.4053031 -0.5200158 6.316971E-09
v -0.4017371 -0.6137472 7.918611E-09
v -0.3677299 -0.4295051 6.202261E-09
v -0.3407074 -0.4260467 7.300791E-09
v -0.3776896 -0.5114482 7.549536E-09
v -0.3745333 -0.599777 9.253744E-09
v -0.356011 -0.6927367 1.143842E-08
v -0.3500761 -0.5028805 8.782103E-09
v -0.3224626 -0.4943127 1.001467E-08
v -0.3473293 -0.5858068 1.058888E-08
v -0.3302975 -0.673271 1.283725E-08
v -0.2969429 -0.7630723 1.565244E-08
v -0.3201255 -0.5718367 1.192402E-08
v -0.2929216 -0.5578666 1.325915E-08
v -0.304584 -0.6538054 1.423607E-08
v -0.2738404 -0.7382364 1.70698E-08
v -0.2261594 -0.8225065 2.05482E-08
v -0.2788706 -0.6343397 1.563489E-08
v -0.2531571 -0.6148739 1.703372E-08
v -0.2507381 -0.7134005 1.848715E-08
v -0.2067844 -0.7926539 2.19341E-08
v -0.1456648 -0.8690957 2.609232E-08
v -0.2276356 -0.6885645 1.99045E-08
v -0.2045332 -0.6637286 2.132185E-08
v -0.1874094 -0.7628013 2.331999E-08
v -0.1310829 -0.8348096 2.739367E-08
v -0.05778378 -0.9012634 3.223124E-08
v -0.1680343 -0.7329487 2.470589E-08
v -0.1486592 -0.7030962 2.609178E-08
v -0.116501 -0.8005236 2.869502E-08
v -0.04896377 -0.8633485 3.339378E-08
v 0.03490509 -0.9178531 3.889263E-08
v -0.1019191 -0.7662376 2.999636E-08
v -0.08733719 -0.7319514 3.129771E-08
v -0.04014366 -0.8254336 3.455632E-08
v 0.03713676 -0.8773181 3.986303E-08
v 0.1296447 -0.9181687 4.598734E-08
v 0.1246452 -0.8761996 4.671534E-08
v -0.03132362 -0.7875187 3.571886E-08
v -0.02250355 -0.7496039 3.68814E-08
v 0.03936836 -0.8367831 4.083344E-08
v 0.1196458 -0.8342308 4.744334E-08
v 0.04159996 -0.796248 4.180384E-08
v 0.04383164 -0.7557129 4.277424E-08
v 0.1146462 -0.7922619 4.817135E-08
v 0.1096468 -0.7502929 4.889936E-08
vt 0.2500002 1
vt 2.384186E-07 0.9444448
vt 2.384186E-07 1
vt 0.2500002 0.9444448
vt 0.5000002 1
vt 2.384186E-07 0.8888892
vt 0.5000002 0.9444447
vt 0.7500002 1
vt 0.2500002 0.8888892
vt 2.384186E-07 0.8333337
vt 0.7500002 0.9444447
vt 1 1
vt 1 0.9444447
vt 0.5000002 0.8888892
vt 0.2500002 0.8333336
vt 2.384186E-07 0.7777781
vt 0.7500002 0.8888891
vt 1 0.8888891
vt 0.5000002 0.8333336
vt 0.2500002 0.7777781
vt 2.384186E-07 0.7222226
vt 0.7500002 0.8333336
vt 1 0.8333336
vt 0.5000002 0.777778
vt 0.2500002 0.7222225
vt 2.384186E-07 0.666667
vt 0.7500002 0.777778
vt 1 0.777778
vt 0.5000002 0.7222224
vt 0.2500002 0.666667
vt 2.384186E-07 0.6111114
vt 0.7500002 0.7222224
vt 1 0.7222224
vt 0.5000002 0.6666669
vt 0.2500002 0.6111114
vt 2.384186E-07 0.5555559
vt 0.7500002 0.6666669
vt 1 0.6666669
vt 0.5000002 0.6111114
vt 0.2500002 0.5555558
vt 2.384186E-07 0.5000004
vt 0.7500002 0.6111114
vt 1 0.6111113
vt 0.5000002 0.5555558
vt 0.2500002 0.5000003
vt 2.384186E-07 0.4444447
vt 0.7500002 0.5555558
vt 1 0.5555558
vt 0.5000002 0.5000002
vt 0.2500002 0.4444447
vt 2.384186E-07 0.3888891
vt 0.7500002 0.5000002
vt 1 0.5000002
vt 0.5000002 0.4444447
vt 0.2500002 0.3888891
vt 2.384186E-07 0.3333336
vt 0.7500002 0.4444447
vt 1 0.4444447
vt 0.5000002 0.3888891
vt 0.2500002 0.3333336
vt 1.192093E-07 0.277778
vt 0.7500002 0.3888891
vt 1 0.3888891
vt 0.5000002 0.3333336
vt 0.2500002 0.277778
vt 1.192093E-07 0.2222224
vt 0.7500002 0.3333335
vt 1 0.3333335
vt 0.5000002 0.277778
vt 0.2500002 0.2222224
vt 1.192093E-07 0.1666668
vt 0.7500002 0.2777779
vt 1 0.2777779
vt 0.5000002 0.2222224
vt 0.2500002 0.1666668
vt 1.192093E-07 0.1111112
vt 0.7500002 0.2222223
vt 1 0.2222223
vt 0.5000002 0.1666668
vt 0.2500002 0.1111112
vt 1.192093E-07 0.05555564
vt 0.7500002 0.1666667
vt 1 0.1666667
vt 0.5000002 0.1111112
vt 0.2500002 0.05555564
vt 1.192093E-07 1.192093E-07
vt 0.2500002 1.192093E-07
vt 0.7500001 0.1111112
vt 1 0.1111112
vt 0.5000002 0.05555564
vt 0.5000002 0
vt 0.7500001 0.05555558
vt 1 0.05555558
vt 0.7500001 0
vt 1 0
vn 0 0 1
vn 0 0 1
vn 0 0 1
vn 0 0 1
vn 0 0 1
vn 0 0 1
vn 0 0 1
vn 0 0 1
vn 0 0 1
vn 0 0 1
vn 0 0 1
vn 0 0 1
vn 0 0 1
vn 0 0 1
vn 0 0 1
vn 0 0 1
vn 0 0 1
vn 0 0 1
vn 0 0 1
vn 0 0 1
vn 0 0 1
vn 0 0 1
vn 0 0 1
vn 0 0 1
vn 0 0 1
vn 0 0 1
vn 0 0 1
vn 0 0 1
vn 0 0 1
vn 0 0 1
vn 0 0 1
vn 0 0 1
vn 0 0 1
vn 0 0 1
vn 0 0 1
vn 0 0 1
vn 0 0 1
vn 0 0 1
vn 0 0 1
vn 0 0 1
vn 0 0 1
vn 0 0 1
vn 0 0 1
vn 0 0 1
vn 0 0 1
vn 0 0 1
vn 0 0 1
vn 0 0 1
vn 0 0 1
vn 0 0 1
vn 0 0 1
vn 0 0 1
vn 0 0 1
vn 0 0 1
vn 0 0 1
vn 0 0 1
vn 0 0 1
vn 0 0 1
vn 0 0 1
vn 0 0 1
vn 0 0 1
vn 0 0 1
vn 0 0 1
vn 0 0 1
vn 0 0 1
vn 0 0 1
vn 0 0 1
vn 0 0 1
vn 0 0 1
vn 0 0 1
vn 0 0 1
vn 0 0 1
vn 0 0 1
vn 0 0 1
vn 0 0 1
vn 0 0 1
vn 0 0 1
vn 0 0 1
vn 0 0 1
vn 0 0 1
vn 0 0 1
vn 0 0 1
vn 0 0 1
vn 0 0 1
vn 0 0 1
vn 0 0 1
vn 0 0 1
vn 0 0 1
vn 0 0 1
vn 0 0 1
vn 0 0 1
vn 0 0 1
vn 0 0 1
vn 0 0 1
vn 0 0 1
g mesh_stripe_curved_0
f 3/3/3 2/2/2 1/1/1
f 2/2/2 4/4/4 1/1/1
f 1/1/1 4/4/4 5/5/5
f 2/2/2 6/6/6 4/4/4
f 4/4/4 7/7/7 5/5/5
f 5/5/5 7/7/7 8/8/8
f 6/6/6 9/9/9 4/4/4
f 4/4/4 9/9/9 7/7/7
f 6/6/6 10/10/10 9/9/9
f 7/7/7 11/11/11 8/8/8
f 8/8/8 11/11/11 12/12/12
f 11/11/11 13/13/13 12/12/12
f 9/9/9 14/14/14 7/7/7
f 7/7/7 14/14/14 11/11/11
f 10/10/10 15/15/15 9/9/9
f 9/9/9 15/15/15 14/14/14
f 10/10/10 16/16/16 15/15/15
f 11/11/11 17/17/17 13/13/13
f 14/14/14 17/17/17 11/11/11
f 17/17/17 18/18/18 13/13/13
f 15/15/15 19/19/19 14/14/14
f 14/14/14 19/19/19 17/17/17
f 16/16/16 20/20/20 15/15/15
f 15/15/15 20/20/20 19/19/19
f 16/16/16 21/21/21 20/20/20
f 17/17/17 22/22/22 18/18/18
f 19/19/19 22/22/22 17/17/17
f 22/22/22 23/23/23 18/18/18
f 20/20/20 24/24/24 19/19/19
f 19/19/19 24/24/24 22/22/22
f 21/21/21 25/25/25 20/20/20
f 20/20/20 25/25/25 24/24/24
f 21/21/21 26/26/26 25/25/25
f 22/22/22 27/27/27 23/23/23
f 24/24/24 27/27/27 22/22/22
f 27/27/27 28/28/28 23/23/23
f 25/25/25 29/29/29 24/24/24
f 24/24/24 29/29/29 27/27/27
f 26/26/26 30/30/30 25/25/25
f 25/25/25 30/30/30 29/29/29
f 26/26/26 31/31/31 30/30/30
f 27/27/27 32/32/32 28/28/28
f 29/29/29 32/32/32 27/27/27
f 32/32/32 33/33/33 28/28/28
f 30/30/30 34/34/34 29/29/29
f 29/29/29 34/34/34 32/32/32
f 31/31/31 35/35/35 30/30/30
f 30/30/30 35/35/35 34/34/34
f 31/31/31 36/36/36 35/35/35
f 32/32/32 37/37/37 33/33/33
f 34/34/34 37/37/37 32/32/32
f 37/37/37 38/38/38 33/33/33
f 35/35/35 39/39/39 34/34/34
f 34/34/34 39/39/39 37/37/37
f 36/36/36 40/40/40 35/35/35
f 35/35/35 40/40/40 39/39/39
f 36/36/36 41/41/41 40/40/40
f 37/37/37 42/42/42 38/38/38
f 39/39/39 42/42/42 37/37/37
f 42/42/42 43/43/43 38/38/38
f 40/40/40 44/44/44 39/39/39
f 39/39/39 44/44/44 42/42/42
f 41/41/41 45/45/45 40/40/40
f 40/40/40 45/45/45 44/44/44
f 41/41/41 46/46/46 45/45/45
f 42/42/42 47/47/47 43/43/43
f 44/44/44 47/47/47 42/42/42
f 47/47/47 48/48/48 43/43/43
f 45/45/45 49/49/49 44/44/44
f 44/44/44 49/49/49 47/47/47
f 46/46/46 50/50/50 45/45/45
f 45/45/45 50/50/50 49/49/49
f 46/46/46 51/51/51 50/50/50
f 47/47/47 52/52/52 48/48/48
f 49/49/49 52/52/52 47/47/47
f 52/52/52 53/53/53 48/48/48
f 50/50/50 54/54/54 49/49/49
f 49/49/49 54/54/54 52/52/52
f 51/51/51 55/55/55 50/50/50
f 50/50/50 55/55/55 54/54/54
f 51/51/51 56/56/56 55/55/55
f 52/52/52 57/57/57 53/53/53
f 54/54/54 57/57/57 52/52/52
f 57/57/57 58/58/58 53/53/53
f 55/55/55 59/59/59 54/54/54
f 54/54/54 59/59/59 57/57/57
f 56/56/56 60/60/60 55/55/55
f 55/55/55 60/60/60 59/59/59
f 56/56/56 61/61/61 60/60/60
f 57/57/57 62/62/62 58/58/58
f 59/59/59 62/62/62 57/57/57
f 62/62/62 63/63/63 58/58/58
f 60/60/60 64/64/64 59/59/59
f 59/59/59 64/64/64 62/62/62
f 61/61/61 65/65/65 60/60/60
f 60/60/60 65/65/65 64/64/64
f 61/61/61 66/66/66 65/65/65
f 62/62/62 67/67/67 63/63/63
f 64/64/64 67/67/67 62/62/62
f 67/67/67 68/68/68 63/63/63
f 65/65/65 69/69/69 64/64/64
f 64/64/64 69/69/69 67/67/67
f 66/66/66 70/70/70 65/65/65
f 65/65/65 70/70/70 69/69/69
f 66/66/66 71/71/71 70/70/70
f 67/67/67 72/72/72 68/68/68
f 69/69/69 72/72/72 67/67/67
f 72/72/72 73/73/73 68/68/68
f 70/70/70 74/74/74 69/69/69
f 69/69/69 74/74/74 72/72/72
f 71/71/71 75/75/75 70/70/70
f 70/70/70 75/75/75 74/74/74
f 71/71/71 76/76/76 75/75/75
f 72/72/72 77/77/77 73/73/73
f 74/74/74 77/77/77 72/72/72
f 77/77/77 78/78/78 73/73/73
f 75/75/75 79/79/79 74/74/74
f 74/74/74 79/79/79 77/77/77
f 76/76/76 80/80/80 75/75/75
f 75/75/75 80/80/80 79/79/79
f 76/76/76 81/81/81 80/80/80
f 77/77/77 82/82/82 78/78/78
f 79/79/79 82/82/82 77/77/77
f 82/82/82 83/83/83 78/78/78
f 80/80/80 84/84/84 79/79/79
f 79/79/79 84/84/84 82/82/82
f 81/81/81 85/85/85 80/80/80
f 80/80/80 85/85/85 84/84/84
f 81/81/81 86/86/86 85/85/85
f 86/86/86 87/87/87 85/85/85
f 82/82/82 88/88/88 83/83/83
f 84/84/84 88/88/88 82/82/82
f 88/88/88 89/89/89 83/83/83
f 85/85/85 90/90/90 84/84/84
f 85/85/85 87/87/87 90/90/90
f 84/84/84 90/90/90 88/88/88
f 87/87/87 91/91/91 90/90/90
f 88/88/88 92/92/92 89/89/89
f 90/90/90 92/92/92 88/88/88
f 90/90/90 91/91/91 92/92/92
f 92/92/92 93/93/93 89/89/89
f 91/91/91 94/94/94 92/92/92
f 92/92/92 94/94/94 93/93/93
f 94/94/94 95/95/95 93/93/93
