g mesh_screen_glow
v 0.2602701 0.1078019 1.215935E-05
v 0.5663538 0.8 1.215935E-05
v 0.2763104 0.05496907 1.215935E-05
v 0.2342443 0.1565087 1.215935E-05
v 0.2602701 0.1078019 1.215935E-05
v 0.1992096 0.1992095 1.215935E-05
v 0.2342443 0.1565087 1.215935E-05
v 0.1565087 0.2342442 1.215935E-05
v 0.1992096 0.1992095 1.215935E-05
v 0.107802 0.26027 1.215935E-05
v 0.1565087 0.2342442 1.215935E-05
v 0.05496913 0.2763103 1.215935E-05
v 0.107802 0.26027 1.215935E-05
v -0.1078019 0.26027 1.215935E-05
v -0.5663538 0.8 1.215935E-05
v -0.05496907 0.2763103 1.215935E-05
v -0.1565087 0.2342442 1.215935E-05
v -0.1078019 0.26027 1.215935E-05
v -0.1992095 0.1992095 1.215935E-05
v -0.1565087 0.2342442 1.215935E-05
v -0.2342442 0.1565087 1.215935E-05
v -0.1992095 0.1992095 1.215935E-05
v -0.26027 0.1078019 1.215935E-05
v -0.2342442 0.1565087 1.215935E-05
v -0.2763103 0.05496907 1.215935E-05
v -0.26027 0.1078019 1.215935E-05
v -0.26027 -0.107802 1.215935E-05
v -0.5663538 -0.8 1.215935E-05
v -0.2763103 -0.05496913 1.215935E-05
v -0.2342442 -0.1565087 1.215935E-05
v -0.26027 -0.107802 1.215935E-05
v -0.1992095 -0.1992096 1.215935E-05
v -0.2342442 -0.1565087 1.215935E-05
v -0.1565087 -0.2342443 1.215935E-05
v -0.1992095 -0.1992096 1.215935E-05
v -0.1078019 -0.2602701 1.215935E-05
v -0.1565087 -0.2342443 1.215935E-05
v -0.05496907 -0.2763104 1.215935E-05
v -0.1078019 -0.2602701 1.215935E-05
v 0.107802 -0.2602701 1.215935E-05
v 0.5663538 -0.8 1.215935E-05
v 0.05496913 -0.2763104 1.215935E-05
v 0.1565087 -0.2342443 1.215935E-05
v 0.107802 -0.2602701 1.215935E-05
v 0.1992096 -0.1992096 1.215935E-05
v 0.1565087 -0.2342443 1.215935E-05
v 0.2342443 -0.1565087 1.215935E-05
v 0.1992096 -0.1992096 1.215935E-05
v 0.2602701 -0.107802 1.215935E-05
v 0.2342443 -0.1565087 1.215935E-05
v 0.2763104 -0.05496913 1.215935E-05
v 0.2602701 -0.107802 1.215935E-05
v 0.2763104 0.05496907 1.215935E-05
v 0.1421775 0.02828407 0.0005981326
v 0.1339254 0.05548179 0.0005981326
v 0.2602701 0.1078019 1.215935E-05
v 0.2342443 0.1565087 1.215935E-05
v 0.1205219 0.080531 0.0005981326
v 0.102504 0.102504 0.0005981326
v 0.1992096 0.1992095 1.215935E-05
v 0.08053106 0.1205218 0.0005981326
v 0.1565087 0.2342442 1.215935E-05
v 0.05548185 0.1339253 0.0005981326
v 0.107802 0.26027 1.215935E-05
v 0.02828413 0.1421774 0.0005981326
v 0.05496913 0.2763103 1.215935E-05
v 1.221895E-05 0.1449606 0.0005981326
v 1.221895E-05 0.2817303 1.215935E-05
v -0.05496907 0.2763103 1.215935E-05
v -0.02828407 0.1421774 0.0005981326
v -0.05548179 0.1339253 0.0005981326
v -0.1078019 0.26027 1.215935E-05
v -0.080531 0.1205218 0.0005981326
v -0.1565087 0.2342442 1.215935E-05
v -0.102504 0.102504 0.0005981326
v -0.1992095 0.1992095 1.215935E-05
v -0.1205218 0.080531 0.0005981326
v -0.2342442 0.1565087 1.215935E-05
v -0.26027 0.1078019 1.215935E-05
v -0.1339253 0.05548179 0.0005981326
v -0.2763103 0.05496907 1.215935E-05
v -0.1421774 0.02828407 0.0005981326
v -0.1449606 1.215935E-05 0.0005981326
v -0.2817303 1.215935E-05 1.215935E-05
v -0.2763103 -0.05496913 1.215935E-05
v -0.1421774 -0.02828413 0.0005981326
v -0.1339253 -0.05548185 0.0005981326
v -0.26027 -0.107802 1.215935E-05
v -0.2342442 -0.1565087 1.215935E-05
v -0.1205218 -0.08053106 0.0005981326
v -0.1992095 -0.1992096 1.215935E-05
v -0.102504 -0.102504 0.0005981326
v -0.080531 -0.1205219 0.0005981326
v -0.1565087 -0.2342443 1.215935E-05
v -0.1078019 -0.2602701 1.215935E-05
v -0.05548179 -0.1339254 0.0005981326
v -0.05496907 -0.2763104 1.215935E-05
v -0.02828407 -0.1421775 0.0005981326
v -1.215935E-05 -0.1449607 0.0005981326
v -1.215935E-05 -0.2817304 1.215935E-05
v 0.05496913 -0.2763104 1.215935E-05
v 0.02828413 -0.1421775 0.0005981326
v 0.05548185 -0.1339254 0.0005981326
v 0.107802 -0.2602701 1.215935E-05
v 0.1565087 -0.2342443 1.215935E-05
v 0.08053106 -0.1205219 0.0005981326
v 0.1992096 -0.1992096 1.215935E-05
v 0.102504 -0.102504 0.0005981326
v 0.1205219 -0.08053106 0.0005981326
v 0.2342443 -0.1565087 1.215935E-05
v 0.1339254 -0.05548185 0.0005981326
v 0.2602701 -0.107802 1.215935E-05
v 0.2763104 -0.05496913 1.215935E-05
v 0.1421775 -0.02828413 0.0005981326
v 0.1449607 -1.221895E-05 0.0005981326
v 0.2817304 1.215935E-05 1.215935E-05
v 0.2763104 0.05496907 1.215935E-05
v 0.1421775 0.02828407 0.0005981326
v 0.001403868 0.8 1.215935E-05
v 0.5663538 0.8 1.215935E-05
v 0.05496913 0.2763103 1.215935E-05
v 1.221895E-05 0.2817303 1.215935E-05
v -0.5663538 0.8 1.215935E-05
v 0.001403868 0.8 1.215935E-05
v -0.05496907 0.2763103 1.215935E-05
v 1.221895E-05 0.2817303 1.215935E-05
v -0.5663538 -0.0005249381 1.215935E-05
v -0.2763103 0.05496907 1.215935E-05
v -0.2817303 1.215935E-05 1.215935E-05
v -0.5663538 0.8 1.215935E-05
v -0.5663538 -0.0005249381 1.215935E-05
v -0.2817303 1.215935E-05 1.215935E-05
v -0.2763103 -0.05496913 1.215935E-05
v -0.5663538 -0.8 1.215935E-05
v -0.05496907 -0.2763104 1.215935E-05
v -1.215935E-05 -0.2817304 1.215935E-05
v 0.0006958246 -0.8 1.215935E-05
v -0.5663538 -0.8 1.215935E-05
v -1.215935E-05 -0.2817304 1.215935E-05
v 0.05496913 -0.2763104 1.215935E-05
v 0.0006958246 -0.8 1.215935E-05
v 0.5663538 -0.8 1.215935E-05
v 0.5663538 0.0007202029 1.215935E-05
v 0.5663538 -0.8 1.215935E-05
v 0.2763104 -0.05496913 1.215935E-05
v 0.2817304 1.215935E-05 1.215935E-05
v 0.2817304 1.215935E-05 1.215935E-05
v 0.2763104 0.05496907 1.215935E-05
v 0.5663538 0.0007202029 1.215935E-05
v 0.5663538 0.8 1.215935E-05
vt 0 0.08993158
vt 0.5004888 0.07917888
vt 1 0.08993158
vt 0 0.08993158
vt 1 0.08993158
vt 0 0.08993158
vt 1 0.08993158
vt 0 0.08993158
vt 1 0.08993158
vt 0 0.08993158
vt 1 0.08993158
vt 0 0.08993158
vt 1 0.08993158
vt 0 0.08993158
vt 0.5004888 0.07917888
vt 1 0.08993158
vt 0 0.08993158
vt 1 0.08993158
vt 0 0.08993158
vt 1 0.08993158
vt 0 0.08993158
vt 1 0.08993158
vt 0 0.08993158
vt 1 0.08993158
vt 0 0.08993158
vt 1 0.08993158
vt 0 0.08993158
vt 0.5004888 0.07917888
vt 1 0.08993158
vt 0 0.08993158
vt 1 0.08993158
vt 0 0.08993158
vt 1 0.08993158
vt 0 0.08993158
vt 1 0.08993158
vt 0 0.08993158
vt 1 0.08993158
vt 0 0.08993158
vt 1 0.08993158
vt 0 0.08993158
vt 0.5004888 0.07917888
vt 1 0.08993158
vt 0 0.08993158
vt 1 0.08993158
vt 0 0.08993158
vt 1 0.08993158
vt 0 0.08993158
vt 1 0.08993158
vt 0 0.08993158
vt 1 0.08993158
vt 0 0.08993158
vt 1 0.08993158
vt 0 0.08993158
vt 0 0.9423265
vt 0.03128055 0.9423265
vt 0.03128055 0.08993158
vt 0.06256109 0.08993158
vt 0.06256109 0.9423265
vt 0.09384164 0.9423265
vt 0.09384164 0.08993158
vt 0.1251222 0.9423265
vt 0.1251222 0.08993158
vt 0.1564027 0.9423265
vt 0.1564027 0.08993158
vt 0.1876833 0.9423265
vt 0.1876833 0.08993158
vt 0.2189638 0.9423265
vt 0.2189638 0.08993158
vt 0.2502444 0.08993158
vt 0.2502444 0.9423265
vt 0.2815249 0.9423265
vt 0.2815249 0.08993158
vt 0.3128055 0.9423265
vt 0.3128055 0.08993158
vt 0.344086 0.9423265
vt 0.344086 0.08993158
vt 0.3753666 0.9423265
vt 0.3753666 0.08993158
vt 0.4066471 0.08993158
vt 0.4066471 0.9423265
vt 0.4379277 0.08993158
vt 0.4379277 0.9423265
vt 0.4692082 0.9423265
vt 0.4692082 0.08993158
vt 0.5004888 0.08993158
vt 0.5004888 0.9423265
vt 0.5307918 0.9423265
vt 0.5307918 0.08993158
vt 0.5620723 0.08993158
vt 0.5620723 0.9423265
vt 0.5933529 0.08993158
vt 0.5933529 0.9423265
vt 0.6246334 0.9423265
vt 0.6246334 0.08993158
vt 0.6559139 0.08993158
vt 0.6559139 0.9423265
vt 0.6871945 0.08993158
vt 0.6871945 0.9423265
vt 0.718475 0.9423265
vt 0.718475 0.08993158
vt 0.7497556 0.08993158
vt 0.7497556 0.9423265
vt 0.7810361 0.9423265
vt 0.7810361 0.08993158
vt 0.8123167 0.08993158
vt 0.8123167 0.9423265
vt 0.8435972 0.08993158
vt 0.8435972 0.9423265
vt 0.8748778 0.9423265
vt 0.8748778 0.08993158
vt 0.9061583 0.9423265
vt 0.9061583 0.08993158
vt 0.9374389 0.08993158
vt 0.9374389 0.9423265
vt 0.9687194 0.9423265
vt 0.9687194 0.08993158
vt 1 0.08993158
vt 1 0.9423265
vt 0 0.07917888
vt 1 0.07917888
vt 1 0.08993158
vt 0 0.08993158
vt 0 0.07917888
vt 1 0.07917888
vt 0 0.08993158
vt 1 0.08993158
vt 0 0.07917888
vt 1 0.08993158
vt 0 0.08993158
vt 1 0.07917888
vt 1 0.07917888
vt 1 0.08993158
vt 0 0.08993158
vt 0 0.07917888
vt 1 0.08993158
vt 0 0.08993158
vt 0 0.07917888
vt 1 0.07917888
vt 1 0.08993158
vt 0 0.08993158
vt 1 0.07917888
vt 0 0.07917888
vt 0 0.07917888
vt 1 0.07917888
vt 1 0.08993158
vt 0 0.08993158
vt 1 0.08993158
vt 0 0.08993158
vt 1 0.07917888
vt 0 0.07917888
vn -1.720572E-05 1.720572E-05 1
vn -1.720572E-05 1.720572E-05 1
vn -1.720572E-05 1.720572E-05 1
vn -1.720572E-05 1.720572E-05 1
vn -1.720572E-05 1.720572E-05 1
vn -1.720572E-05 1.720572E-05 1
vn -1.720572E-05 1.720572E-05 1
vn -1.720572E-05 1.720572E-05 1
vn -1.720572E-05 1.720572E-05 1
vn -1.720572E-05 1.720572E-05 1
vn -1.720572E-05 1.720572E-05 1
vn -1.720572E-05 1.720572E-05 1
vn -1.720572E-05 1.720572E-05 1
vn -1.720572E-05 1.720572E-05 1
vn -1.720572E-05 1.720572E-05 1
vn -1.720572E-05 1.720572E-05 1
vn -1.720572E-05 1.720572E-05 1
vn -1.720572E-05 1.720572E-05 1
vn -1.720572E-05 1.720572E-05 1
vn -1.720572E-05 1.720572E-05 1
vn -1.720572E-05 1.720572E-05 1
vn -1.720572E-05 1.720572E-05 1
vn -1.720572E-05 1.720572E-05 1
vn -1.720572E-05 1.720572E-05 1
vn -1.720572E-05 1.720572E-05 1
vn -1.720572E-05 1.720572E-05 1
vn -1.720572E-05 1.720572E-05 1
vn -1.720572E-05 1.720572E-05 1
vn -1.720572E-05 1.720572E-05 1
vn -1.720572E-05 1.720572E-05 1
vn -1.720572E-05 1.720572E-05 1
vn -1.720572E-05 1.720572E-05 1
vn -1.720572E-05 1.720572E-05 1
vn -1.720572E-05 1.720572E-05 1
vn -1.720572E-05 1.720572E-05 1
vn -1.720572E-05 1.720572E-05 1
vn -1.720572E-05 1.720572E-05 1
vn -1.720572E-05 1.720572E-05 1
vn -1.720572E-05 1.720572E-05 1
vn -1.720572E-05 1.720572E-05 1
vn -1.720572E-05 1.720572E-05 1
vn -1.720572E-05 1.720572E-05 1
vn -1.720572E-05 1.720572E-05 1
vn -1.720572E-05 1.720572E-05 1
vn -1.720572E-05 1.720572E-05 1
vn -1.720572E-05 1.720572E-05 1
vn -1.720572E-05 1.720572E-05 1
vn -1.720572E-05 1.720572E-05 1
vn -1.720572E-05 1.720572E-05 1
vn -1.720572E-05 1.720572E-05 1
vn -1.720572E-05 1.720572E-05 1
vn -1.720572E-05 1.720572E-05 1
vn 0.004318818 0.0008431147 0.9999903
vn 0.004318818 0.0008431147 0.9999903
vn 0.004043514 0.001669024 0.9999904
vn 0.004043514 0.001669024 0.9999904
vn 0.003664973 0.002426107 0.9999903
vn 0.003664973 0.002426107 0.9999903
vn 0.003114366 0.003114365 0.9999903
vn 0.003114366 0.003114365 0.9999903
vn 0.002426109 0.003664971 0.9999903
vn 0.002426109 0.003664971 0.9999903
vn 0.001669026 0.004043513 0.9999904
vn 0.001669026 0.004043513 0.9999904
vn 0.0008431165 0.004318816 0.9999903
vn 0.0008431165 0.004318816 0.9999903
vn -1.720572E-05 0.004387641 0.9999903
vn -1.720572E-05 0.004387641 0.9999903
vn -0.0008431147 0.004318816 0.9999903
vn -0.0008431147 0.004318816 0.9999903
vn -0.001669024 0.004043513 0.9999904
vn -0.001669024 0.004043513 0.9999904
vn -0.002426107 0.003664971 0.9999903
vn -0.002426107 0.003664971 0.9999903
vn -0.003114365 0.003114365 0.9999903
vn -0.003114365 0.003114365 0.9999903
vn -0.003664971 0.002426107 0.9999903
vn -0.003664971 0.002426107 0.9999903
vn -0.004043513 0.001669024 0.9999904
vn -0.004043513 0.001669024 0.9999904
vn -0.004318816 0.0008431147 0.9999903
vn -0.004318816 0.0008431147 0.9999903
vn -0.004387641 1.720572E-05 0.9999903
vn -0.004387641 1.720572E-05 0.9999903
vn -0.004318816 -0.0008431165 0.9999903
vn -0.004318816 -0.0008431165 0.9999903
vn -0.004043513 -0.001669026 0.9999904
vn -0.004043513 -0.001669026 0.9999904
vn -0.003664971 -0.002426109 0.9999903
vn -0.003664971 -0.002426109 0.9999903
vn -0.003114365 -0.003114366 0.9999903
vn -0.003114365 -0.003114366 0.9999903
vn -0.002426107 -0.003664973 0.9999903
vn -0.002426107 -0.003664973 0.9999903
vn -0.001669024 -0.004043514 0.9999904
vn -0.001669024 -0.004043514 0.9999904
vn -0.0008431147 -0.004318818 0.9999903
vn -0.0008431147 -0.004318818 0.9999903
vn -1.720572E-05 -0.004387643 0.9999903
vn -1.720572E-05 -0.004387643 0.9999903
vn 0.0008431165 -0.004318818 0.9999903
vn 0.0008431165 -0.004318818 0.9999903
vn 0.001669026 -0.004043514 0.9999904
vn 0.001669026 -0.004043514 0.9999904
vn 0.002426109 -0.003664973 0.9999903
vn 0.002426109 -0.003664973 0.9999903
vn 0.003114366 -0.003114366 0.9999903
vn 0.003114366 -0.003114366 0.9999903
vn 0.003664973 -0.002426109 0.9999903
vn 0.003664973 -0.002426109 0.9999903
vn 0.004043514 -0.001669026 0.9999904
vn 0.004043514 -0.001669026 0.9999904
vn 0.004318818 -0.0008431165 0.9999903
vn 0.004318818 -0.0008431165 0.9999903
vn 0.004387643 1.720572E-05 0.9999903
vn 0.004387643 1.720572E-05 0.9999903
vn 0.004318818 0.0008431147 0.9999903
vn 0.004318818 0.0008431147 0.9999903
vn -1.720572E-05 1.720572E-05 1
vn -1.720572E-05 1.720572E-05 1
vn -1.720572E-05 1.720572E-05 1
vn -1.720572E-05 1.720572E-05 1
vn -1.720572E-05 1.720572E-05 1
vn -1.720572E-05 1.720572E-05 1
vn -1.720572E-05 1.720572E-05 1
vn -1.720572E-05 1.720572E-05 1
vn -1.720572E-05 1.720572E-05 1
vn -1.720572E-05 1.720572E-05 1
vn -1.720572E-05 1.720572E-05 1
vn -1.720572E-05 1.720572E-05 1
vn -1.720572E-05 1.720572E-05 1
vn -1.720572E-05 1.720572E-05 1
vn -1.720572E-05 1.720572E-05 1
vn -1.720572E-05 1.720572E-05 1
vn -1.720572E-05 1.720572E-05 1
vn -1.720572E-05 1.720572E-05 1
vn -1.720572E-05 1.720572E-05 1
vn -1.720572E-05 1.720572E-05 1
vn -1.720572E-05 1.720572E-05 1
vn -1.720572E-05 1.720572E-05 1
vn -1.720572E-05 1.720572E-05 1
vn -1.720572E-05 1.720572E-05 1
vn -1.720572E-05 1.720572E-05 1
vn -1.720572E-05 1.720572E-05 1
vn -1.720572E-05 1.720572E-05 1
vn -1.720572E-05 1.720572E-05 1
vn -1.720572E-05 1.720572E-05 1
vn -1.720572E-05 1.720572E-05 1
vn -1.720572E-05 1.720572E-05 1
vn -1.720572E-05 1.720572E-05 1
g mesh_screen_glow_0
f 3/3/3 2/2/2 1/1/1
f 5/5/5 2/2/2 4/4/4
f 7/7/7 2/2/2 6/6/6
f 9/9/9 2/2/2 8/8/8
f 11/11/11 2/2/2 10/10/10
f 13/13/13 2/2/2 12/12/12
f 16/16/16 15/15/15 14/14/14
f 18/18/18 15/15/15 17/17/17
f 20/20/20 15/15/15 19/19/19
f 22/22/22 15/15/15 21/21/21
f 24/24/24 15/15/15 23/23/23
f 26/26/26 15/15/15 25/25/25
f 29/29/29 28/28/28 27/27/27
f 31/31/31 28/28/28 30/30/30
f 33/33/33 28/28/28 32/32/32
f 35/35/35 28/28/28 34/34/34
f 37/37/37 28/28/28 36/36/36
f 39/39/39 28/28/28 38/38/38
f 42/42/42 41/41/41 40/40/40
f 44/44/44 41/41/41 43/43/43
f 46/46/46 41/41/41 45/45/45
f 48/48/48 41/41/41 47/47/47
f 50/50/50 41/41/41 49/49/49
f 52/52/52 41/41/41 51/51/51
f 55/55/55 54/54/54 53/53/53
f 53/53/53 56/56/56 55/55/55
f 55/55/55 56/56/56 57/57/57
f 57/57/57 58/58/58 55/55/55
f 57/57/57 59/59/59 58/58/58
f 60/60/60 59/59/59 57/57/57
f 60/60/60 61/61/61 59/59/59
f 61/61/61 60/60/60 62/62/62
f 62/62/62 63/63/63 61/61/61
f 63/63/63 62/62/62 64/64/64
f 65/65/65 63/63/63 64/64/64
f 65/65/65 64/64/64 66/66/66
f 67/67/67 65/65/65 66/66/66
f 67/67/67 66/66/66 68/68/68
f 67/67/67 68/68/68 69/69/69
f 69/69/69 70/70/70 67/67/67
f 71/71/71 70/70/70 69/69/69
f 69/69/69 72/72/72 71/71/71
f 73/73/73 71/71/71 72/72/72
f 72/72/72 74/74/74 73/73/73
f 75/75/75 73/73/73 74/74/74
f 74/74/74 76/76/76 75/75/75
f 76/76/76 77/77/77 75/75/75
f 76/76/76 78/78/78 77/77/77
f 77/77/77 78/78/78 79/79/79
f 79/79/79 80/80/80 77/77/77
f 80/80/80 79/79/79 81/81/81
f 81/81/81 82/82/82 80/80/80
f 81/81/81 83/83/83 82/82/82
f 83/83/83 81/81/81 84/84/84
f 83/83/83 84/84/84 85/85/85
f 85/85/85 86/86/86 83/83/83
f 87/87/87 86/86/86 85/85/85
f 87/87/87 85/85/85 88/88/88
f 87/87/87 88/88/88 89/89/89
f 89/89/89 90/90/90 87/87/87
f 90/90/90 89/89/89 91/91/91
f 91/91/91 92/92/92 90/90/90
f 93/93/93 92/92/92 91/91/91
f 91/91/91 94/94/94 93/93/93
f 93/93/93 94/94/94 95/95/95
f 95/95/95 96/96/96 93/93/93
f 96/96/96 95/95/95 97/97/97
f 97/97/97 98/98/98 96/96/96
f 97/97/97 99/99/99 98/98/98
f 97/97/97 100/100/100 99/99/99
f 99/99/99 100/100/100 101/101/101
f 101/101/101 102/102/102 99/99/99
f 101/101/101 103/103/103 102/102/102
f 103/103/103 101/101/101 104/104/104
f 103/103/103 104/104/104 105/105/105
f 105/105/105 106/106/106 103/103/103
f 106/106/106 105/105/105 107/107/107
f 107/107/107 108/108/108 106/106/106
f 109/109/109 108/108/108 107/107/107
f 109/109/109 107/107/107 110/110/110
f 111/111/111 109/109/109 110/110/110
f 110/110/110 112/112/112 111/111/111
f 111/111/111 112/112/112 113/113/113
f 113/113/113 114/114/114 111/111/111
f 115/115/115 114/114/114 113/113/113
f 113/113/113 116/116/116 115/115/115
f 115/115/115 116/116/116 117/117/117
f 117/117/117 118/118/118 115/115/115
f 121/121/121 120/120/120 119/119/119
f 119/119/119 122/122/122 121/121/121
f 125/125/125 124/124/124 123/123/123
f 125/125/125 126/126/126 124/124/124
f 129/129/129 128/128/128 127/127/127
f 130/130/130 127/127/127 128/128/128
f 133/133/133 132/132/132 131/131/131
f 134/134/134 133/133/133 131/131/131
f 137/137/137 136/136/136 135/135/135
f 135/135/135 138/138/138 137/137/137
f 141/141/141 140/140/140 139/139/139
f 141/141/141 142/142/142 140/140/140
f 145/145/145 144/144/144 143/143/143
f 143/143/143 146/146/146 145/145/145
f 149/149/149 148/148/148 147/147/147
f 148/148/148 149/149/149 150/150/150
