g mesh_bite
v 0.1877069 -0.07781318 0.1099446
v 0.1844405 0.1144489 0.1099446
v 0.1789271 0.0620299 0.1397482
v 0.1943439 0.06626379 0.0791631
v 0.1877069 -0.07781318 0.1099446
v 0.1947808 0.1196815 0.04769501
v 0.1988066 -0.02617434 0.04769501
v 0.2010224 0.06368393 0.01581085
v 0.1969445 0.1200872 -0.01621896
v 0.2010016 -0.02617434 -0.01621896
v 0.1987234 0.06626379 -0.04809275
v 0.1908694 0.1155308 -0.07955042
v 0.1942294 -0.07781318 -0.07955042
v 0.1665167 0.1727143 0.1099446
v 0.1738506 0.1806307 0.04733092
v 0.1724462 0.1754294 -0.07955042
v 0.1766385 0.1824304 -0.01621896
v 0.1528684 0.1548009 0.1683348
v 0.1662879 0.1033077 0.1683348
v 0.1789271 0.0620299 0.1397482
v 0.1179779 0.2419544 0.1099446
v 0.1209634 0.2529397 0.04733092
v 0.1140665 0.2176226 0.1683348
v 0.1055675 0.1844277 0.220837
v 0.1321671 0.131218 0.220837
v 0.05534342 0.2639769 0.1683348
v 0.04690683 0.2898067 0.1099446
v 0.04436859 0.3016761 0.04733092
v 0.06291655 0.2270162 0.220837
v 0.04491994 0.3050154 -0.01621896
v 0.06391519 0.1809948 0.2656101
v 0.1228047 0.255738 -0.01621896
v 0.0494971 0.2957883 -0.07955042
v 0.08927691 0.1456465 0.2656101
v 0.05180651 0.130958 0.3010624
v 0.1225446 0.246594 -0.07955042
v 0.06036788 0.2733289 -0.1401043
v 0.1220037 0.2246756 -0.1401043
v 0.0712699 0.2386568 -0.1957274
v 0.06204271 0.1066886 0.3010624
v 0.02086896 0.08145168 0.3259768
v 0.103487 0.1051281 0.2656101
v 0.1627197 0.1587435 -0.1401043
v 0.1171977 0.1927914 -0.1957274
v 0.07656485 0.1931555 -0.2444951
v 0.0222213 0.06456813 0.3259768
v -0.03686583 0.01391757 0.3410191
v -0.03686583 0.01026621 0.3410191
v 0.1048497 0.1537294 -0.2444951
v 0.06933498 0.1409133 -0.2846806
v 0.1458466 0.1354935 -0.1957274
v 0.1768154 0.1046912 -0.1401043
v 0.1875301 0.0620299 -0.1103111
v 0.06631821 0.08104599 0.3010624
v 0.02226293 0.05280274 0.3259768
v -0.03686583 0.000269264 0.3410191
v 0.08140209 0.1122852 -0.2846806
v 0.04246491 0.08765167 -0.3148796
v 0.1207034 0.1085506 -0.2444951
v 0.02226293 0.04275376 0.3259768
v -0.0009558201 0.000269264 0.3341949
v 0.02226293 -0.004724026 0.3259768
v 0.0447951 0.009954154 0.3149084
v 0.06645346 0.06046951 0.3010624
v 0.06645346 -0.01943341 0.3010624
v 0.08705074 0.007519931 0.2845846
v 0.1063997 0.07453391 0.2656101
v 0.1063997 -0.01943341 0.2656101
v 0.1243235 0.03512859 0.244295
v 0.1401876 0.08910805 0.220837
v 0.1406765 -0.02412501 0.220837
v 0.155313 0.05581951 0.1954441
v 0.1681083 -0.04473269 0.1683348
v 0.1789271 0.0620299 0.1397482
v 0.1875301 0.0620299 -0.1103111
v 0.1942294 -0.07781318 -0.07955042
v 0.178719 -0.04472229 -0.1401043
v 0.1875301 0.0620299 -0.1103111
v 0.1678379 0.05581951 -0.1686597
v 0.1544808 0.0901587 -0.1957274
v 0.1550114 -0.02412501 -0.1957274
v 0.1403332 0.03512859 -0.2210787
v 0.123949 0.07453391 -0.2444951
v 0.123949 -0.01943341 -0.2444951
v 0.1059836 0.007519931 -0.2657478
v 0.08644739 0.08203423 -0.2846806
v 0.08661383 0.06046951 -0.2846806
v 0.08660343 -0.01943341 -0.2846806
v 0.06598532 0.009954154 -0.3011064
v 0.04426455 0.07243258 -0.3148796
v -0.00147596 0.0429306 -0.3340413
v 0.04430619 0.04275376 -0.3148796
v 0.04430619 -0.004724026 -0.3148796
v 0.02175319 0.000269264 -0.325896
v 0.04430619 0.0582017 -0.3148796
v -0.00147596 0.03245512 -0.3340413
v -0.03686583 0.01391757 -0.3407198
v -0.03686583 0.01026621 -0.3407198
v -0.00147596 0.02607828 -0.3340413
v -0.03686583 0.0066773 -0.3407198
v -0.00147596 0.01865077 -0.3340413
v -0.00147596 0.000269264 -0.3340413
v -0.03686583 0.004087031 -0.3407198
v -0.03686583 0.000269264 -0.3407198
vt -0.03517187 0.000166893
vt -0.03517187 0.08042777
vt -0.1885061 0.04029727
vt 0.1181623 0.04029727
vt -0.03517187 0.000166893
vt 0.2714967 0.08042777
vt 0.2714967 0.000166893
vt 0.4248308 0.04029727
vt 0.5781652 0.08042777
vt 0.5781652 0.000166893
vt 0.7314993 0.04029727
vt 0.8848335 0.08042777
vt 0.8848335 0.000166893
vt -0.03517187 0.296054
vt 0.2726945 0.296054
vt 0.8848335 0.296054
vt 0.5781652 0.296054
vt -0.3412415 0.296054
vt -0.3412415 0.08042777
vt -0.1885061 0.04029727
vt -0.03517187 0.5961338
vt 0.2726945 0.5961338
vt -0.3412415 0.5961338
vt -0.6479099 0.5961338
vt -0.6479099 0.296054
vt -0.3412415 0.9004065
vt -0.03517187 0.9004065
vt 0.2726945 0.9004065
vt -0.6479099 0.9004065
vt 0.5781652 0.9004065
vt -0.9545784 0.9004065
vt 0.5781652 0.5961338
vt 0.8848335 0.9004065
vt -0.9545784 0.5961338
vt -1.261247 0.9004065
vt 0.8848335 0.5961338
vt 1.191502 0.9004065
vt 1.191502 0.5961338
vt 1.49817 0.9004065
vt -1.261247 0.5961338
vt -1.567915 0.9004065
vt -0.9545784 0.296054
vt 1.191502 0.296054
vt 1.49817 0.5961338
vt 1.804839 0.9004065
vt -1.567915 0.5961338
vt -1.953048 0.9004065
vt -1.953048 0.5961338
vt 1.804839 0.5961338
vt 2.111507 0.9004065
vt 1.49817 0.296054
vt 1.191502 0.08042777
vt 1.038168 0.04029727
vt -1.261247 0.296054
vt -1.567915 0.296054
vt -1.953048 0.1481105
vt 2.111507 0.5961338
vt 2.418176 0.9004065
vt 1.804839 0.296054
vt -1.567915 0.08042777
vt -1.72125 0.04029727
vt -1.567915 0.000166893
vt -1.414581 0.04029727
vt -1.261247 0.08042777
vt -1.261247 0.000166893
vt -1.107913 0.04029727
vt -0.9545784 0.08042777
vt -0.9545784 0.000166893
vt -0.8012441 0.04029727
vt -0.6479099 0.08042777
vt -0.6479099 0.000166893
vt -0.4945756 0.04029727
vt -0.3418404 0.000166893
vt -0.1885061 0.04029727
vt 1.038168 0.04029727
vt 0.8848335 0.000166893
vt 1.191502 0.000166893
vt 1.038168 0.04029727
vt 1.344836 0.04029727
vt 1.49817 0.08042777
vt 1.49817 0.000166893
vt 1.651505 0.04029727
vt 1.804839 0.08042777
vt 1.804839 0.000166893
vt 1.958173 0.04029727
vt 2.111507 0.296054
vt 2.111507 0.08042777
vt 2.111507 0.000166893
vt 2.264842 0.04029727
vt 2.418176 0.5961338
vt 2.724844 0.9004065
vt 2.418176 0.08042777
vt 2.418176 0.000166893
vt 2.57151 0.04029727
vt 2.418176 0.296054
vt 2.724844 0.5961338
vt 2.953049 0.9004065
vt 2.953049 0.5961338
vt 2.724844 0.296054
vt 2.953049 0.296054
vt 2.724844 0.08042777
vt 2.724844 0.000166893
vt 2.953049 0.08042777
vt 2.953049 0.000166893
vn -0.9701789 -0.01748055 -0.2417588
vn -0.9629697 -0.1184093 -0.2422159
vn -0.9485514 -0.07515413 -0.3075746
vn -0.9773881 -0.09678167 -0.1880049
vn -0.9701789 -0.01748055 -0.2417588
vn -0.9845973 -0.1400368 -0.1046801
vn -0.9918064 -0.02468973 -0.1253412
vn -0.9918064 -0.1039909 -0.0742017
vn -0.9901788 -0.139807 0
vn -0.9990156 -0.02468973 0.03685383
vn -0.9918064 -0.09678167 0.08338644
vn -0.9773881 -0.1256185 0.1700957
vn -0.9845973 -0.01748055 0.1739617
vn -0.8836686 -0.3923586 -0.2553126
vn -0.898087 -0.4211954 -0.1266263
vn -0.898087 -0.3995678 0.1838079
vn -0.9052961 -0.4211954 0.05507563
vn -0.8548319 -0.3346851 -0.3965456
vn -0.9125053 -0.09678167 -0.397451
vn -0.9485514 -0.07515413 -0.3075746
vn -0.6890203 -0.6879355 -0.2280256
vn -0.6818112 -0.7239815 -0.104806
vn -0.6890203 -0.6086344 -0.3934655
vn -0.6818112 -0.4932873 -0.5401862
vn -0.8043675 -0.2553839 -0.5364438
vn -0.5736733 -0.7239815 -0.3830792
vn -0.5520458 -0.8032826 -0.2235678
vn -0.5376273 -0.8321194 -0.1361405
vn -0.5953009 -0.6014252 -0.532827
vn -0.5444774 -0.8387755 0
vn -0.5880917 -0.4356138 -0.6814608
vn -0.6890203 -0.7239815 -0.03319235
vn -0.5592549 -0.8104918 0.1741751
vn -0.6457652 -0.3418943 -0.6827119
vn -0.5159997 -0.2337564 -0.8240766
vn -0.6962295 -0.6951447 0.1789924
vn -0.5953009 -0.7383999 0.316832
vn -0.710648 -0.630262 0.3126487
vn -0.6313469 -0.630262 0.4518527
vn -0.5448365 -0.1760828 -0.8198464
vn -0.3501883 -0.07515413 -0.9336595
vn -0.7178572 -0.1544552 -0.6788406
vn -0.8836686 -0.3491035 0.3118599
vn -0.7178572 -0.5149149 0.468555
vn -0.6385561 -0.4716597 0.6080981
vn -0.3573975 -0.04631734 -0.9328032
vn -0.2348412 -0.01748055 -0.9718766
vn -0.2420503 -0.01027137 -0.9702093
vn -0.6962295 -0.370731 0.614673
vn -0.5880917 -0.2770115 0.7598768
vn -0.8476226 -0.2625932 0.4610649
vn -0.9413422 -0.09678167 0.3232773
vn -0.9701789 -0.08236331 0.2279675
vn -0.5736733 -0.06794488 -0.8162612
vn -0.3573975 -0.03189898 -0.9334074
vn -0.227632 -0.03189898 -0.9732246
vn -0.6169284 -0.2049196 0.7598732
vn -0.4583262 -0.09678167 0.883499
vn -0.7755306 -0.1688736 0.6083041
vn -0.3718159 -0.01748055 -0.9281419
vn -0.2708872 -0.03189898 -0.9620824
vn -0.3862342 0.004146993 -0.9223914
vn -0.487163 -0.003062189 -0.8733057
vn -0.5808825 -0.01027137 -0.8139226
vn -0.5808825 0.004146993 -0.8139768
vn -0.6601836 -0.01027137 -0.751034
vn -0.7322755 -0.02468973 -0.6805608
vn -0.7322755 0.004146993 -0.6809958
vn -0.7971583 -0.03189898 -0.6029271
vn -0.8404134 -0.0607357 -0.5385318
vn -0.8404134 -0.003062189 -0.5419372
vn -0.8908778 -0.05352652 -0.4510784
vn -0.9197145 -0.01027137 -0.3924535
vn -0.9485514 -0.07515413 -0.3075746
vn -0.9701789 -0.08236331 0.2279675
vn -0.9845973 -0.01748055 0.1739617
vn -0.9485514 -0.01027137 0.3164566
vn -0.9701789 -0.08236331 0.2279675
vn -0.9197145 -0.0607357 0.3878613
vn -0.8836686 -0.06794488 0.4631558
vn -0.8836686 -0.003062189 0.468103
vn -0.8476226 -0.03189898 0.5296399
vn -0.7899491 -0.03189898 0.6123421
vn -0.7899491 0.004146993 0.6131583
vn -0.7322755 -0.01027137 0.680931
vn -0.6529744 -0.07515413 0.753642
vn -0.6601836 -0.01027137 0.751034
vn -0.6601836 0.004146993 0.7510928
vn -0.5808825 -0.003062189 0.8139817
vn -0.4727445 -0.06794488 0.8785762
vn -0.2780964 -0.01027137 0.9604983
vn -0.487163 -0.01027137 0.8732507
vn -0.487163 0.004146993 0.8733012
vn -0.379025 -0.01027137 0.9253294
vn -0.4799538 -0.02468973 0.8769463
vn -0.2853056 -0.003062189 0.9584317
vn -0.1843769 0.004146993 0.9828469
vn -0.1843769 0.004146993 0.9828469
vn -0.2853056 -0.003062189 0.9584317
vn -0.1843769 0.004146993 0.9828469
vn -0.2708872 -0.003062189 0.9626063
vn -0.2564688 0.004146993 0.9665436
vn -0.1843769 0.004146993 0.9828469
vn -0.1843769 0.004146993 0.9828469
g mesh_bite_0
f 3/3/3 2/2/2 1/1/1
f 5/5/5 2/2/2 4/4/4
f 6/6/6 4/4/4 2/2/2
f 4/4/4 6/6/6 7/7/7
f 7/7/7 6/6/6 8/8/8
f 9/9/9 8/8/8 6/6/6
f 8/8/8 9/9/9 10/10/10
f 10/10/10 9/9/9 11/11/11
f 12/12/12 11/11/11 9/9/9
f 11/11/11 12/12/12 13/13/13
f 2/2/2 14/14/14 6/6/6
f 9/9/9 6/6/6 15/15/15
f 15/15/15 6/6/6 14/14/14
f 16/16/16 12/12/12 9/9/9
f 15/15/15 17/17/17 9/9/9
f 9/9/9 17/17/17 16/16/16
f 18/18/18 14/14/14 2/2/2
f 2/2/2 19/19/19 18/18/18
f 2/2/2 20/20/20 19/19/19
f 21/21/21 15/15/15 14/14/14
f 17/17/17 15/15/15 22/22/22
f 22/22/22 15/15/15 21/21/21
f 14/14/14 18/18/18 23/23/23
f 23/23/23 21/21/21 14/14/14
f 23/23/23 18/18/18 24/24/24
f 18/18/18 19/19/19 25/25/25
f 25/25/25 24/24/24 18/18/18
f 21/21/21 23/23/23 26/26/26
f 26/26/26 23/23/23 24/24/24
f 26/26/26 27/27/27 21/21/21
f 21/21/21 27/27/27 28/28/28
f 28/28/28 22/22/22 21/21/21
f 24/24/24 29/29/29 26/26/26
f 22/22/22 28/28/28 30/30/30
f 31/31/31 29/29/29 24/24/24
f 30/30/30 32/32/32 22/22/22
f 22/22/22 32/32/32 17/17/17
f 32/32/32 30/30/30 33/33/33
f 24/24/24 34/34/34 31/31/31
f 34/34/34 24/24/24 25/25/25
f 34/34/34 35/35/35 31/31/31
f 17/17/17 32/32/32 36/36/36
f 33/33/33 36/36/36 32/32/32
f 37/37/37 36/36/36 33/33/33
f 36/36/36 16/16/16 17/17/17
f 37/37/37 38/38/38 36/36/36
f 16/16/16 36/36/36 38/38/38
f 38/38/38 37/37/37 39/39/39
f 34/34/34 40/40/40 35/35/35
f 41/41/41 35/35/35 40/40/40
f 34/34/34 25/25/25 42/42/42
f 40/40/40 34/34/34 42/42/42
f 38/38/38 43/43/43 16/16/16
f 12/12/12 16/16/16 43/43/43
f 39/39/39 44/44/44 38/38/38
f 43/43/43 38/38/38 44/44/44
f 45/45/45 44/44/44 39/39/39
f 40/40/40 46/46/46 41/41/41
f 47/47/47 41/41/41 46/46/46
f 46/46/46 48/48/48 47/47/47
f 45/45/45 49/49/49 44/44/44
f 49/49/49 45/45/45 50/50/50
f 44/44/44 51/51/51 43/43/43
f 51/51/51 44/44/44 49/49/49
f 12/12/12 43/43/43 52/52/52
f 52/52/52 43/43/43 51/51/51
f 52/52/52 53/53/53 12/12/12
f 40/40/40 54/54/54 46/46/46
f 42/42/42 54/54/54 40/40/40
f 46/46/46 55/55/55 48/48/48
f 55/55/55 46/46/46 54/54/54
f 56/56/56 48/48/48 55/55/55
f 50/50/50 57/57/57 49/49/49
f 58/58/58 57/57/57 50/50/50
f 49/49/49 59/59/59 51/51/51
f 59/59/59 49/49/49 57/57/57
f 56/56/56 55/55/55 60/60/60
f 60/60/60 61/61/61 56/56/56
f 61/61/61 60/60/60 62/62/62
f 62/62/62 60/60/60 63/63/63
f 64/64/64 60/60/60 55/55/55
f 64/64/64 63/63/63 60/60/60
f 55/55/55 54/54/54 64/64/64
f 63/63/63 64/64/64 65/65/65
f 65/65/65 64/64/64 66/66/66
f 64/64/64 54/54/54 67/67/67
f 67/67/67 66/66/66 64/64/64
f 66/66/66 67/67/67 68/68/68
f 54/54/54 42/42/42 67/67/67
f 68/68/68 67/67/67 69/69/69
f 70/70/70 67/67/67 42/42/42
f 70/70/70 69/69/69 67/67/67
f 42/42/42 25/25/25 70/70/70
f 69/69/69 70/70/70 71/71/71
f 71/71/71 70/70/70 72/72/72
f 70/70/70 25/25/25 19/19/19
f 19/19/19 72/72/72 70/70/70
f 72/72/72 19/19/19 73/73/73
f 73/73/73 19/19/19 74/74/74
f 76/76/76 12/12/12 75/75/75
f 78/78/78 52/52/52 77/77/77
f 77/77/77 52/52/52 79/79/79
f 80/80/80 79/79/79 52/52/52
f 51/51/51 80/80/80 52/52/52
f 79/79/79 80/80/80 81/81/81
f 81/81/81 80/80/80 82/82/82
f 80/80/80 51/51/51 59/59/59
f 83/83/83 82/82/82 80/80/80
f 80/80/80 59/59/59 83/83/83
f 82/82/82 83/83/83 84/84/84
f 84/84/84 83/83/83 85/85/85
f 83/83/83 59/59/59 86/86/86
f 57/57/57 86/86/86 59/59/59
f 87/87/87 85/85/85 83/83/83
f 86/86/86 87/87/87 83/83/83
f 85/85/85 87/87/87 88/88/88
f 88/88/88 87/87/87 89/89/89
f 86/86/86 57/57/57 90/90/90
f 57/57/57 58/58/58 90/90/90
f 90/90/90 58/58/58 91/91/91
f 92/92/92 89/89/89 87/87/87
f 89/89/89 92/92/92 93/93/93
f 93/93/93 92/92/92 94/94/94
f 87/87/87 86/86/86 95/95/95
f 90/90/90 95/95/95 86/86/86
f 87/87/87 95/95/95 92/92/92
f 91/91/91 96/96/96 90/90/90
f 95/95/95 90/90/90 96/96/96
f 96/96/96 91/91/91 97/97/97
f 97/97/97 98/98/98 96/96/96
f 92/92/92 95/95/95 99/99/99
f 96/96/96 99/99/99 95/95/95
f 99/99/99 96/96/96 98/98/98
f 99/99/99 94/94/94 92/92/92
f 98/98/98 100/100/100 99/99/99
f 99/99/99 101/101/101 94/94/94
f 101/101/101 99/99/99 100/100/100
f 94/94/94 101/101/101 102/102/102
f 100/100/100 103/103/103 101/101/101
f 103/103/103 102/102/102 101/101/101
f 102/102/102 103/103/103 104/104/104
