g mesh_ring_outward_short
v 0.273087 0.020890892 0.05431989
v 0.16741267 0.00024208426 0.03329718
v 0.15770008 0.00024208426 0.06532407
v 0.25724775 0.020890892 0.10655373
v 0.23151745 0.020890892 0.15469179
v 0.1419288 0.00024208426 0.09483573
v 0.19689032 0.020890892 0.19689015
v 0.12070216 0.00024208426 0.12070197
v 0.09483592 0.00024208426 0.14192861
v 0.15469198 0.020890892 0.23151729
v 0.1065539 0.020890892 0.25724754
v 0.06532426 0.00024208426 0.15769988
v 0.054320067 0.020890892 0.27308682
v 0.03329736 0.00024208426 0.16741249
v -4.172325E-06 0.00024208426 0.1706925
v 4.351139E-06 0.020890892 0.2784402
v -0.05431989 0.020890892 0.27308682
v -0.03329718 0.00024208426 0.16741249
v -0.06532407 0.00024208426 0.15769988
v -0.10655373 0.020890892 0.25724754
v -0.09483573 0.00024208426 0.14192861
v -0.15469179 0.020890892 0.23151729
v -0.19689015 0.020890892 0.19689015
v -0.12070197 0.00024208426 0.12070197
v -0.14192861 0.00024208426 0.09483573
v -0.23151729 0.020890892 0.15469179
v -0.15769988 0.00024208426 0.06532407
v -0.25724754 0.020890892 0.10655373
v -0.27308682 0.020890892 0.05431989
v -0.16741249 0.00024208426 0.03329718
v -0.1706925 0.00024208426 4.172325E-06
v -0.2784402 0.020890892 4.172325E-06
v -0.27308682 0.020890892 -0.054320067
v -0.16741249 0.00024208426 -0.03329736
v -0.15769988 0.00024208426 -0.06532426
v -0.25724754 0.020890892 -0.1065539
v -0.23151729 0.020890892 -0.15469198
v -0.14192861 0.00024208426 -0.09482741
v -0.19689015 0.020890892 -0.19689032
v -0.12070197 0.00024208426 -0.12069367
v -0.09483573 0.00024208426 -0.1419288
v -0.15469179 0.020890892 -0.23151745
v -0.10655373 0.020890892 -0.25724775
v -0.06532407 0.00024208426 -0.15770008
v -0.05431989 0.020890892 -0.273087
v -0.03329718 0.00024208426 -0.16741267
v -4.172325E-06 0.00024208426 -0.17069268
v -4.172325E-06 0.020890892 -0.2784404
v 0.054320067 0.020890892 -0.273087
v 0.03329736 0.00024208426 -0.16741267
v 0.06532426 0.00024208426 -0.15770008
v 0.1065539 0.020890892 -0.25724775
v 0.09483592 0.00024208426 -0.1419288
v 0.15469198 0.020890892 -0.23151745
v 0.19689032 0.020890892 -0.19689032
v 0.12070216 0.00024208426 -0.12069367
v 0.1419288 0.00024208426 -0.09482741
v 0.23151745 0.020890892 -0.15469198
v 0.15770008 0.00024208426 -0.06532426
v 0.25724775 0.020890892 -0.1065539
v 0.273087 0.020890892 -0.054320067
v 0.16741267 0.00024208426 -0.03329736
v 0.17069268 0.00024208426 4.172325E-06
v 0.2784404 0.020890892 4.172325E-06
v 0.273087 0.020890892 0.05431989
v 0.16741267 0.00024208426 0.03329718
vt -4.450982 0.99833155
vt -4.450982 0.008316517
vt -4.1366916 0.002272606
vt -4.1415267 0.99833155
vt -3.8320715 0.99833155
vt -3.8278408 0.002272606
vt -3.5226164 0.99833155
vt -3.5189898 0.002272606
vt -3.2004685 0.0016679764
vt -3.213161 0.99833155
vt -2.9037058 0.99833155
vt -2.899475 0.0016679764
vt -2.5942507 0.99833155
vt -2.5924373 0.0028767586
vt -2.27996 0.002272606
vt -2.2847953 0.99833155
vt -1.9753399 0.99833155
vt -1.9729223 0.003481388
vt -1.6689067 0.0016679764
vt -1.6658847 0.99833155
vt -1.372144 0.0028767586
vt -1.3564296 0.99833155
vt -1.0469742 0.99833155
vt -1.048183 0.002272606
vt -0.72603536 0.0028767586
vt -0.737519 0.99833155
vt -0.41899776 0.0028767586
vt -0.42806387 0.99833155
vt -0.118608475 0.99833155
vt -0.118608475 0.0046901703
vt 0.19084692 0.002272606
vt 0.19084692 0.99833155
vt 0.5003023 0.99833155
vt 0.5003023 0.002272606
vt 0.80733967 0.002272606
vt 0.8091531 0.99833155
vt 1.118608 0.99833155
vt 1.1288829 0.002272606
vt 1.4280634 0.99833155
vt 1.4341073 0.002272606
vt 1.7568598 0.0016679764
vt 1.7375188 0.99833155
vt 2.0469742 0.99833155
vt 2.0512047 0.002272606
vt 2.356429 0.99833155
vt 2.3594513 0.0016679764
vt 2.6658845 0.0016679764
vt 2.6658845 0.99833155
vt 2.97534 0.99833155
vt 2.9771528 0.002272606
vt 3.298092 0.002272606
vt 3.2847948 0.99833155
vt 3.595459 0.0016679764
vt 3.5942507 0.99833155
vt 3.9037056 0.99833155
vt 3.901288 0.003481388
vt 4.2149744 0.0016679764
vt 4.2131605 0.99833155
vt 4.5226164 0.0028767586
vt 4.5226164 0.99833155
vt 4.8320713 0.99833155
vt 4.8320713 0.002272606
vt 5.141526 0.0016679764
vt 5.141526 0.99833155
vt 5.450982 0.99833155
vt 5.450982 0.008316517
vn 0.2014398 -0.9791729 0.025347158
vn 0.13049142 -0.9914494 -0
vn 0.12122562 -0.99262506 -0
vn 0.18729919 -0.9791729 0.07835507
vn 0.16844505 -0.9791729 0.11334358
vn 0.11188263 -0.9933135 0.028470399
vn 0.14487737 -0.9791729 0.14223576
vn 0.093028486 -0.9933135 0.06836679
vn 0.074174404 -0.9933135 0.08846721
vn 0.11188263 -0.9791729 0.16941881
vn 0.07888794 -0.9791729 0.18707529
vn 0.022325516 -0.998027 0.05868269
vn 0.041179657 -0.9791729 0.19880828
vn 0.027039051 -0.9933135 0.11223726
vn -0.0012421608 -0.9933135 0.115441605
vn -0.0012421608 -0.9791729 0.20302448
vn -0.038950384 -0.9791729 0.19925705
vn -0.024809778 -0.9933135 0.11275095
vn -0.05309099 -0.9933135 0.10251668
vn -0.076658666 -0.9791729 0.18799986
vn -0.03423685 -0.998027 0.05262972
vn -0.11436695 -0.9791729 0.16775179
vn -0.14264816 -0.9791729 0.14447144
vn -0.09551281 -0.9933135 0.06485094
vn -0.05309099 -0.998027 0.033517584
vn -0.17092937 -0.9791729 0.10956122
vn -0.12367062 -0.9923234 -0
vn -0.18978351 -0.9791729 0.072129816
vn -0.19921058 -0.9791729 0.039187424
vn -0.06251806 -0.998027 0.0057928762
vn -0.13292767 -0.9911257 -0
vn -0.20388696 -0.9789945 -0
vn -0.19921058 -0.9791729 -0.039187424
vn -0.13292767 -0.9911257 -0
vn -0.12367062 -0.9923234 -0
vn -0.18978351 -0.9791729 -0.072129816
vn -0.17092937 -0.9791729 -0.10956122
vn -0.05309099 -0.998027 -0.033517584
vn -0.14264816 -0.9791729 -0.14447144
vn -0.09551281 -0.9933135 -0.06485094
vn -0.03423685 -0.998027 -0.05262972
vn -0.11436695 -0.9791729 -0.16775179
vn -0.076658666 -0.9791729 -0.18799986
vn -0.05309099 -0.9933135 -0.10251668
vn -0.038950384 -0.9791729 -0.19925705
vn -0.010669291 -0.998027 -0.061872672
vn -0.0012421608 -0.998027 -0.062773585
vn -0.0012421608 -0.9791729 -0.20302448
vn 0.041179657 -0.9791729 -0.19880828
vn 0.027039051 -0.9933135 -0.11223726
vn 0.050606728 -0.9933135 -0.10376551
vn 0.07888794 -0.9791729 -0.18707529
vn 0.074174404 -0.9933135 -0.08846721
vn 0.11188263 -0.9791729 -0.16941881
vn 0.14487737 -0.9791729 -0.14223576
vn 0.045893192 -0.998027 -0.0428472
vn 0.11188263 -0.9933135 -0.028470399
vn 0.16844505 -0.9791729 -0.11334358
vn 0.12122562 -0.99262506 -0
vn 0.18729919 -0.9791729 -0.07835507
vn 0.2014398 -0.9791729 -0.025347158
vn 0.13049142 -0.9914494 -0
vn 0.1354503 -0.98859996 -0.06575229
vn 0.20602165 -0.9785474 -0
vn 0.2014398 -0.9791729 0.025347158
vn 0.13049142 -0.9914494 -0
g mesh_ring_outward_short_0
f 3/3/3 2/2/2 1/1/1
f 1/1/1 4/4/4 3/3/3
f 3/3/3 4/4/4 5/5/5
f 5/5/5 6/6/6 3/3/3
f 6/6/6 5/5/5 7/7/7
f 7/7/7 8/8/8 6/6/6
f 7/7/7 9/9/9 8/8/8
f 10/10/10 9/9/9 7/7/7
f 9/9/9 10/10/10 11/11/11
f 11/11/11 12/12/12 9/9/9
f 12/12/12 11/11/11 13/13/13
f 13/13/13 14/14/14 12/12/12
f 15/15/15 14/14/14 13/13/13
f 15/15/15 13/13/13 16/16/16
f 15/15/15 16/16/16 17/17/17
f 17/17/17 18/18/18 15/15/15
f 19/19/19 18/18/18 17/17/17
f 17/17/17 20/20/20 19/19/19
f 21/21/21 19/19/19 20/20/20
f 20/20/20 22/22/22 21/21/21
f 21/21/21 22/22/22 23/23/23
f 23/23/23 24/24/24 21/21/21
f 25/25/25 24/24/24 23/23/23
f 23/23/23 26/26/26 25/25/25
f 26/26/26 27/27/27 25/25/25
f 28/28/28 27/27/27 26/26/26
f 27/27/27 28/28/28 29/29/29
f 29/29/29 30/30/30 27/27/27
f 29/29/29 31/31/31 30/30/30
f 32/32/32 31/31/31 29/29/29
f 31/31/31 32/32/32 33/33/33
f 33/33/33 34/34/34 31/31/31
f 35/35/35 34/34/34 33/33/33
f 35/35/35 33/33/33 36/36/36
f 35/35/35 36/36/36 37/37/37
f 37/37/37 38/38/38 35/35/35
f 38/38/38 37/37/37 39/39/39
f 39/39/39 40/40/40 38/38/38
f 41/41/41 40/40/40 39/39/39
f 39/39/39 42/42/42 41/41/41
f 41/41/41 42/42/42 43/43/43
f 43/43/43 44/44/44 41/41/41
f 44/44/44 43/43/43 45/45/45
f 45/45/45 46/46/46 44/44/44
f 47/47/47 46/46/46 45/45/45
f 45/45/45 48/48/48 47/47/47
f 47/47/47 48/48/48 49/49/49
f 49/49/49 50/50/50 47/47/47
f 49/49/49 51/51/51 50/50/50
f 52/52/52 51/51/51 49/49/49
f 52/52/52 53/53/53 51/51/51
f 53/53/53 52/52/52 54/54/54
f 53/53/53 54/54/54 55/55/55
f 55/55/55 56/56/56 53/53/53
f 57/57/57 56/56/56 55/55/55
f 57/57/57 55/55/55 58/58/58
f 59/59/59 57/57/57 58/58/58
f 58/58/58 60/60/60 59/59/59
f 59/59/59 60/60/60 61/61/61
f 61/61/61 62/62/62 59/59/59
f 63/63/63 62/62/62 61/61/61
f 61/61/61 64/64/64 63/63/63
f 63/63/63 64/64/64 65/65/65
f 65/65/65 66/66/66 63/63/63
