g mesh_horn_solid
v 0.022459537 0.02245693 -0.10093618
v 0.017576016 0.017576918 -0.10781942
v 0.02296473 0.009511389 -0.10781942
v 0.009510487 0.022962123 -0.10781942
v 0.017576016 0.017576918 -0.10781942
v 0.022459537 0.02245693 -0.10093618
v -4.4703484E-07 0.031760886 -0.10093618
v -4.4703484E-07 0.024856597 -0.10781942
v 0.022459537 0.02245693 -0.10093618
v 0.012155727 0.02934368 -0.10093618
v -4.4703484E-07 0.031760886 -0.10093618
v -0.009511389 0.022962123 -0.10781942
v -0.02245693 0.02245693 -0.10093618
v -0.017576918 0.017576918 -0.10781942
v -0.022962123 0.009511389 -0.10781942
v -0.017576918 0.017576918 -0.10781942
v -0.02245693 0.02245693 -0.10093618
v -0.022962123 -0.009510487 -0.10781942
v -0.02245693 -0.022459537 -0.10093618
v -0.017576918 -0.017576016 -0.10781942
v -0.009511389 -0.02296473 -0.10781942
v -0.017576918 -0.017576016 -0.10781942
v -0.02245693 -0.022459537 -0.10093618
v 0.022459537 -0.022459537 -0.10093618
v 0.017576016 -0.017576016 -0.10781942
v 0.009510487 -0.02296473 -0.10781942
v 0.02296473 -0.009510487 -0.10781942
v 0.017576016 -0.017576016 -0.10781942
v 0.022459537 -0.022459537 -0.10093618
v -0.022962123 -0.009510487 -0.10781942
v -0.017576918 -0.017576016 -0.10781942
v -4.4703484E-07 4.4703484E-07 -0.10781942
v -0.024856597 4.4703484E-07 -0.10781942
v -4.4703484E-07 4.4703484E-07 -0.10781942
v 0.017576016 0.017576918 -0.10781942
v -4.4703484E-07 4.4703484E-07 -0.10781942
v 0.02296473 0.009511389 -0.10781942
v -4.4703484E-07 4.4703484E-07 -0.10781942
v 0.024855696 4.4703484E-07 -0.10781942
v -4.4703484E-07 4.4703484E-07 -0.10781942
v 0.02296473 -0.009510487 -0.10781942
v 0.024855696 4.4703484E-07 -0.10781942
v -4.4703484E-07 4.4703484E-07 -0.10781942
v 0.017576016 -0.017576016 -0.10781942
v -4.4703484E-07 4.4703484E-07 -0.10781942
v 0.009510487 -0.02296473 -0.10781942
v 0.017576016 -0.017576016 -0.10781942
v -4.4703484E-07 4.4703484E-07 -0.10781942
v -4.4703484E-07 -0.024855696 -0.10781942
v -4.4703484E-07 4.4703484E-07 -0.10781942
v -0.009511389 -0.02296473 -0.10781942
v -4.4703484E-07 -0.024855696 -0.10781942
v -4.4703484E-07 4.4703484E-07 -0.10781942
v -0.017576918 -0.017576016 -0.10781942
v -0.022962123 0.009511389 -0.10781942
v -0.024856597 4.4703484E-07 -0.10781942
v -4.4703484E-07 4.4703484E-07 -0.10781942
v -0.017576918 0.017576918 -0.10781942
v -4.4703484E-07 4.4703484E-07 -0.10781942
v -0.009511389 0.022962123 -0.10781942
v -0.017576918 0.017576918 -0.10781942
v -4.4703484E-07 4.4703484E-07 -0.10781942
v -4.4703484E-07 0.024856597 -0.10781942
v -4.4703484E-07 4.4703484E-07 -0.10781942
v 0.009510487 0.022962123 -0.10781942
v -4.4703484E-07 0.024856597 -0.10781942
v -4.4703484E-07 4.4703484E-07 -0.10781942
v 0.017576016 0.017576918 -0.10781942
v -4.4703484E-07 4.4703484E-07 -0.10781942
v 0.022459537 0.02245693 -0.10093618
v 0.02296473 0.009511389 -0.10781942
v 0.029342778 0.012153119 -0.10093618
v 0.029342778 0.012153119 -0.10093618
v 0.024855696 4.4703484E-07 -0.10781942
v 0.031759977 4.4703484E-07 -0.10093618
v -4.4703484E-07 0.024856597 -0.10781942
v -0.012153119 0.02934368 -0.10093618
v -0.009511389 0.022962123 -0.10781942
v -4.4703484E-07 0.031760886 -0.10093618
v -0.012153119 0.02934368 -0.10093618
v -0.02245693 0.02245693 -0.10093618
v -0.02245693 0.02245693 -0.10093618
v -0.02934368 0.012153119 -0.10093618
v -0.022962123 0.009511389 -0.10781942
v -0.031760886 4.4703484E-07 -0.10093618
v -0.024856597 4.4703484E-07 -0.10781942
v -0.02934368 0.012153119 -0.10093618
v -0.02934368 -0.012155727 -0.10093618
v -0.022962123 -0.009510487 -0.10781942
v -0.024856597 4.4703484E-07 -0.10781942
v -0.02934368 -0.012155727 -0.10093618
v -0.02245693 -0.022459537 -0.10093618
v -0.031760886 4.4703484E-07 -0.10093618
v -0.02245693 -0.022459537 -0.10093618
v -0.012153119 -0.029342778 -0.10093618
v -0.009511389 -0.02296473 -0.10781942
v -4.4703484E-07 -0.031759977 -0.10093618
v -4.4703484E-07 -0.024855696 -0.10781942
v -0.012153119 -0.029342778 -0.10093618
v 0.012155727 -0.029342778 -0.10093618
v -4.4703484E-07 -0.024855696 -0.10781942
v -4.4703484E-07 -0.031759977 -0.10093618
v 0.009510487 -0.02296473 -0.10781942
v 0.022459537 -0.022459537 -0.10093618
v 0.012155727 -0.029342778 -0.10093618
v 0.022459537 -0.022459537 -0.10093618
v 0.029342778 -0.012155727 -0.10093618
v 0.02296473 -0.009510487 -0.10781942
v 0.031759977 4.4703484E-07 -0.10093618
v 0.024855696 4.4703484E-07 -0.10781942
v 0.029342778 -0.012155727 -0.10093618
v 0.029342778 0.012153119 -0.10093618
v -4.4703484E-07 4.4703484E-07 0.122095495
v 0.022459537 0.02245693 -0.10093618
v 0.031759977 4.4703484E-07 -0.10093618
v -0.02245693 0.02245693 -0.10093618
v -0.02934368 0.012153119 -0.10093618
v -0.031760886 4.4703484E-07 -0.10093618
v -0.02245693 -0.022459537 -0.10093618
v -0.012153119 -0.029342778 -0.10093618
v -4.4703484E-07 -0.031759977 -0.10093618
v -4.4703484E-07 -0.031759977 -0.10093618
v 0.012155727 -0.029342778 -0.10093618
v 0.022459537 -0.022459537 -0.10093618
v 0.022459537 0.02245693 -0.10093618
v -4.4703484E-07 4.4703484E-07 0.122095495
v 0.012155727 0.02934368 -0.10093618
v -4.4703484E-07 0.031760886 -0.10093618
v -4.4703484E-07 0.031760886 -0.10093618
v -0.012153119 0.02934368 -0.10093618
v -0.02245693 0.02245693 -0.10093618
v -0.031760886 4.4703484E-07 -0.10093618
v -0.02934368 -0.012155727 -0.10093618
v -0.02245693 -0.022459537 -0.10093618
v 0.022459537 -0.022459537 -0.10093618
v 0.029342778 -0.012155727 -0.10093618
v 0.031759977 4.4703484E-07 -0.10093618
vt 0.012171477 0.9016068
vt 0.17603976 0.89687073
vt 0.5767119 0.89687073
vt 0.5767119 0.89687073
vt 0.17603976 0.89687073
vt 0.012171477 0.9016068
vt 0.012171477 0.09552644
vt 0.9811729 0.89687073
vt 0.012171477 0.9016068
vt 0.012171477 0.49998745
vt 0.012171477 0.09552644
vt 0.5767119 0.89687073
vt 0.012171477 0.9016068
vt 0.17603976 0.89687073
vt 0.5767119 0.89687073
vt 0.17603976 0.89687073
vt 0.012171477 0.9016068
vt 0.5767119 0.89687073
vt 0.012171477 0.9016068
vt 0.17603976 0.89687073
vt 0.5767119 0.89687073
vt 0.17603976 0.89687073
vt 0.012171477 0.9016068
vt 0.012171477 0.9016068
vt 0.17603976 0.89687073
vt 0.5767119 0.89687073
vt 0.5767119 0.89687073
vt 0.17603976 0.89687073
vt 0.012171477 0.9016068
vt 0.5918673 0.8987652
vt 0.972648 0.8987652
vt 0.2091923 0.10878746
vt 0.2091923 0.8987652
vt 0.2091923 0.10878746
vt 0.972648 0.8987652
vt 0.2091923 0.10878746
vt 0.5918673 0.8987652
vt 0.2091923 0.10878746
vt 0.2091923 0.8987652
vt 0.2091923 0.10878746
vt 0.5918673 0.8987652
vt 0.2091923 0.8987652
vt 0.2091923 0.10878746
vt 0.972648 0.8987652
vt 0.2091923 0.10878746
vt 0.5918673 0.8987652
vt 0.972648 0.8987652
vt 0.2091923 0.10878746
vt 0.2091923 0.8987652
vt 0.2091923 0.10878746
vt 0.5918673 0.8987652
vt 0.2091923 0.8987652
vt 0.2091923 0.10878746
vt 0.972648 0.8987652
vt 0.5918673 0.8987652
vt 0.2091923 0.8987652
vt 0.2091923 0.10878746
vt 0.972648 0.8987652
vt 0.2091923 0.10878746
vt 0.5918673 0.8987652
vt 0.972648 0.8987652
vt 0.2091923 0.10878746
vt 0.2091923 0.8987652
vt 0.2091923 0.10878746
vt 0.5918673 0.8987652
vt 0.2091923 0.8987652
vt 0.2091923 0.10878746
vt 0.972648 0.8987652
vt 0.2091923 0.10878746
vt 0.012171477 0.9016068
vt 0.5767119 0.89687073
vt 0.012171477 0.49998745
vt 0.012171477 0.49998745
vt 0.9811729 0.89687073
vt 0.012171477 0.09552644
vt 0.9811729 0.89687073
vt 0.012171477 0.49998745
vt 0.5767119 0.89687073
vt 0.012171477 0.09552644
vt 0.012171477 0.49998745
vt 0.012171477 0.9016068
vt 0.012171477 0.9016068
vt 0.012171477 0.49998745
vt 0.5767119 0.89687073
vt 0.012171477 0.09552644
vt 0.9811729 0.89687073
vt 0.012171477 0.49998745
vt 0.012171477 0.49998745
vt 0.5767119 0.89687073
vt 0.9811729 0.89687073
vt 0.012171477 0.49998745
vt 0.012171477 0.9016068
vt 0.012171477 0.09552644
vt 0.012171477 0.9016068
vt 0.012171477 0.49998745
vt 0.5767119 0.89687073
vt 0.012171477 0.09552644
vt 0.9811729 0.89687073
vt 0.012171477 0.49998745
vt 0.012171477 0.49998745
vt 0.9811729 0.89687073
vt 0.012171477 0.09552644
vt 0.5767119 0.89687073
vt 0.012171477 0.9016068
vt 0.012171477 0.49998745
vt 0.012171477 0.9016068
vt 0.012171477 0.49998745
vt 0.5767119 0.89687073
vt 0.012171477 0.09552644
vt 0.9811729 0.89687073
vt 0.012171477 0.49998745
vt 0.012171477 0.49998745
vt 0.6951139 0.49998745
vt 0.012171477 0.9016068
vt 0.012171477 0.09552644
vt 0.012171477 0.9016068
vt 0.012171477 0.49998745
vt 0.012171477 0.09552644
vt 0.012171477 0.9016068
vt 0.012171477 0.49998745
vt 0.012171477 0.09552644
vt 0.012171477 0.09552644
vt 0.012171477 0.49998745
vt 0.012171477 0.9016068
vt 0.012171477 0.9016068
vt 0.6951139 0.49998745
vt 0.012171477 0.49998745
vt 0.012171477 0.09552644
vt 0.012171477 0.09552644
vt 0.012171477 0.49998745
vt 0.012171477 0.9016068
vt 0.012171477 0.09552644
vt 0.012171477 0.49998745
vt 0.012171477 0.9016068
vt 0.012171477 0.9016068
vt 0.012171477 0.49998745
vt 0.012171477 0.09552644
vn 0.67262137 0.6726208 -0.308483
vn 0.27127838 0.2712779 -0.9234806
vn 0.35303342 0.14492917 -0.92431754
vn 0.1449297 0.35303295 -0.92431766
vn 0.27127838 0.2712779 -0.9234806
vn 0.67262137 0.6726208 -0.308483
vn -0.0037158728 0.947615 -0.31939304
vn -0.0037158728 0.38276196 -0.9238395
vn 0.67262137 0.6726208 -0.308483
vn 0.3604657 0.8732923 -0.3277576
vn -0.0037158728 0.947615 -0.31939304
vn -0.14492917 0.35303295 -0.9243178
vn -0.6726208 0.6726208 -0.30848435
vn -0.2712779 0.2712779 -0.9234807
vn -0.35303295 0.14492917 -0.9243178
vn -0.2712779 0.2712779 -0.9234807
vn -0.6726208 0.6726208 -0.30848435
vn -0.35303295 -0.1449297 -0.92431766
vn -0.6726208 -0.67262137 -0.30848306
vn -0.2712779 -0.27127838 -0.9234806
vn -0.14492917 -0.35303342 -0.92431754
vn -0.2712779 -0.27127838 -0.9234806
vn -0.6726208 -0.67262137 -0.30848306
vn 0.67262137 -0.67262137 -0.3084817
vn 0.27127838 -0.27127838 -0.92348045
vn 0.1449297 -0.35303342 -0.9243175
vn 0.35303342 -0.1449297 -0.9243175
vn 0.27127838 -0.27127838 -0.92348045
vn 0.67262137 -0.67262137 -0.3084817
vn -0.35303295 -0.1449297 -0.92431766
vn -0.2712779 -0.27127838 -0.9234806
vn -0.0037158728 0.0037158728 -0.9999862
vn -0.38276196 0.0037158728 -0.9238395
vn -0.0037158728 0.0037158728 -0.9999862
vn 0.27127838 0.2712779 -0.9234806
vn -0.0037158728 0.0037158728 -0.9999862
vn 0.35303342 0.14492917 -0.92431754
vn -0.0037158728 0.0037158728 -0.9999862
vn 0.38276255 0.0037158728 -0.9238393
vn -0.0037158728 0.0037158728 -0.9999862
vn 0.35303342 -0.1449297 -0.9243175
vn 0.38276255 0.0037158728 -0.9238393
vn -0.0037158728 0.0037158728 -0.9999862
vn 0.27127838 -0.27127838 -0.92348045
vn -0.0037158728 0.0037158728 -0.9999862
vn 0.1449297 -0.35303342 -0.9243175
vn 0.27127838 -0.27127838 -0.92348045
vn -0.0037158728 0.0037158728 -0.9999862
vn 0.0037164092 -0.38276255 -0.9238393
vn -0.0037158728 0.0037158728 -0.9999862
vn -0.14492917 -0.35303342 -0.92431754
vn 0.0037164092 -0.38276255 -0.9238393
vn -0.0037158728 0.0037158728 -0.9999862
vn -0.2712779 -0.27127838 -0.9234806
vn -0.35303295 0.14492917 -0.9243178
vn -0.38276196 0.0037158728 -0.9238395
vn -0.0037158728 0.0037158728 -0.9999862
vn -0.2712779 0.2712779 -0.9234807
vn -0.0037158728 0.0037158728 -0.9999862
vn -0.14492917 0.35303295 -0.9243178
vn -0.2712779 0.2712779 -0.9234807
vn -0.0037158728 0.0037158728 -0.9999862
vn -0.0037158728 0.38276196 -0.9238395
vn -0.0037158728 0.0037158728 -0.9999862
vn 0.1449297 0.35303295 -0.92431766
vn -0.0037158728 0.38276196 -0.9238395
vn -0.0037158728 0.0037158728 -0.9999862
vn 0.27127838 0.2712779 -0.9234806
vn -0.0037158728 0.0037158728 -0.9999862
vn 0.67262137 0.6726208 -0.308483
vn 0.35303342 0.14492917 -0.92431754
vn 0.87329286 0.36046517 -0.32775667
vn 0.87329286 0.36046517 -0.32775667
vn 0.38276255 0.0037158728 -0.9238393
vn 0.9476156 0.0037158728 -0.3193913
vn -0.0037158728 0.38276196 -0.9238395
vn -0.36046517 0.8732923 -0.32775813
vn -0.14492917 0.35303295 -0.9243178
vn -0.0037158728 0.947615 -0.31939304
vn -0.36046517 0.8732923 -0.32775813
vn -0.6726208 0.6726208 -0.30848435
vn -0.6726208 0.6726208 -0.30848435
vn -0.8732923 0.36046517 -0.32775813
vn -0.35303295 0.14492917 -0.9243178
vn -0.947615 0.0037158728 -0.31939307
vn -0.38276196 0.0037158728 -0.9238395
vn -0.8732923 0.36046517 -0.32775813
vn -0.8732923 -0.3604657 -0.32775757
vn -0.35303295 -0.1449297 -0.92431766
vn -0.38276196 0.0037158728 -0.9238395
vn -0.8732923 -0.3604657 -0.32775757
vn -0.6726208 -0.67262137 -0.30848306
vn -0.947615 0.0037158728 -0.31939307
vn -0.6726208 -0.67262137 -0.30848306
vn -0.36046517 -0.87329286 -0.32775667
vn -0.14492917 -0.35303342 -0.92431754
vn 0.0037164092 -0.9476156 -0.31939128
vn 0.0037164092 -0.38276255 -0.9238393
vn -0.36046517 -0.87329286 -0.32775667
vn 0.3604657 -0.87329286 -0.32775614
vn 0.0037164092 -0.38276255 -0.9238393
vn 0.0037164092 -0.9476156 -0.31939128
vn 0.1449297 -0.35303342 -0.9243175
vn 0.67262137 -0.67262137 -0.3084817
vn 0.3604657 -0.87329286 -0.32775614
vn 0.67262137 -0.67262137 -0.3084817
vn 0.87329286 -0.3604657 -0.3277561
vn 0.35303342 -0.1449297 -0.9243175
vn 0.9476156 0.0037158728 -0.3193913
vn 0.38276255 0.0037158728 -0.9238393
vn 0.87329286 -0.3604657 -0.3277561
vn 0.87329286 0.36046517 -0.32775667
vn 0.0037164092 0.0037158728 0.9999862
vn 0.67262137 0.6726208 -0.308483
vn 0.9476156 0.0037158728 -0.3193913
vn -0.6726208 0.6726208 -0.30848435
vn -0.8732923 0.36046517 -0.32775813
vn -0.947615 0.0037158728 -0.31939307
vn -0.6726208 -0.67262137 -0.30848306
vn -0.36046517 -0.87329286 -0.32775667
vn 0.0037164092 -0.9476156 -0.31939128
vn 0.0037164092 -0.9476156 -0.31939128
vn 0.3604657 -0.87329286 -0.32775614
vn 0.67262137 -0.67262137 -0.3084817
vn 0.67262137 0.6726208 -0.308483
vn 0.0037164092 0.0037158728 0.9999862
vn 0.3604657 0.8732923 -0.3277576
vn -0.0037158728 0.947615 -0.31939304
vn -0.0037158728 0.947615 -0.31939304
vn -0.36046517 0.8732923 -0.32775813
vn -0.6726208 0.6726208 -0.30848435
vn -0.947615 0.0037158728 -0.31939307
vn -0.8732923 -0.3604657 -0.32775757
vn -0.6726208 -0.67262137 -0.30848306
vn 0.67262137 -0.67262137 -0.3084817
vn 0.87329286 -0.3604657 -0.3277561
vn 0.9476156 0.0037158728 -0.3193913
g mesh_horn_solid_0
f 3/3/3 2/2/2 1/1/1
f 6/6/6 5/5/5 4/4/4
f 4/4/4 8/8/8 7/7/7
f 4/4/4 10/10/10 9/9/9
f 11/11/11 10/10/10 4/4/4
f 14/14/14 13/13/13 12/12/12
f 17/17/17 16/16/16 15/15/15
f 20/20/20 19/19/19 18/18/18
f 23/23/23 22/22/22 21/21/21
f 26/26/26 25/25/25 24/24/24
f 29/29/29 28/28/28 27/27/27
f 32/32/32 31/31/31 30/30/30
f 34/34/34 30/30/30 33/33/33
f 37/37/37 36/36/36 35/35/35
f 37/37/37 39/39/39 38/38/38
f 42/42/42 41/41/41 40/40/40
f 41/41/41 44/44/44 43/43/43
f 47/47/47 46/46/46 45/45/45
f 46/46/46 49/49/49 48/48/48
f 52/52/52 51/51/51 50/50/50
f 51/51/51 54/54/54 53/53/53
f 57/57/57 56/56/56 55/55/55
f 59/59/59 55/55/55 58/58/58
f 62/62/62 61/61/61 60/60/60
f 64/64/64 60/60/60 63/63/63
f 67/67/67 66/66/66 65/65/65
f 69/69/69 65/65/65 68/68/68
f 72/72/72 71/71/71 70/70/70
f 74/74/74 71/71/71 73/73/73
f 75/75/75 74/74/74 72/72/72
f 78/78/78 77/77/77 76/76/76
f 80/80/80 79/79/79 76/76/76
f 80/80/80 78/78/78 81/81/81
f 84/84/84 83/83/83 82/82/82
f 86/86/86 85/85/85 83/83/83
f 87/87/87 84/84/84 86/86/86
f 90/90/90 89/89/89 88/88/88
f 92/92/92 91/91/91 89/89/89
f 91/91/91 93/93/93 90/90/90
f 96/96/96 95/95/95 94/94/94
f 98/98/98 97/97/97 95/95/95
f 99/99/99 96/96/96 98/98/98
f 102/102/102 101/101/101 100/100/100
f 104/104/104 100/100/100 103/103/103
f 101/101/101 103/103/103 105/105/105
f 108/108/108 107/107/107 106/106/106
f 110/110/110 109/109/109 107/107/107
f 111/111/111 108/108/108 110/110/110
f 114/114/114 113/113/113 112/112/112
f 112/112/112 113/113/113 115/115/115
f 117/117/117 113/113/113 116/116/116
f 118/118/118 113/113/113 117/117/117
f 120/120/120 113/113/113 119/119/119
f 121/121/121 113/113/113 120/120/120
f 123/123/123 113/113/113 122/122/122
f 124/124/124 113/113/113 123/123/123
f 127/127/127 126/126/126 125/125/125
f 128/128/128 126/126/126 127/127/127
f 130/130/130 126/126/126 129/129/129
f 131/131/131 126/126/126 130/130/130
f 133/133/133 126/126/126 132/132/132
f 134/134/134 126/126/126 133/133/133
f 136/136/136 126/126/126 135/135/135
f 137/137/137 126/126/126 136/136/136
