g mesh_firebird_wing
v -0.02126999 -1.490116E-09 0.009313125
v -0.01859977 1.490116E-09 -0.00908875
v -0.002239218 7.45058E-10 -0.004475445
v -0.002239218 -5.960464E-10 0.003970332
v -0.02126999 -1.490116E-09 0.009313125
v -0.03856397 2.980232E-09 -0.01882198
v -0.01859977 1.490116E-09 -0.00908875
v -0.04523025 -1.788139E-09 0.01159002
v -0.05832643 5.960464E-09 -0.0356708
v -0.07107818 -1.192093E-09 0.007922906
v -0.07816717 9.536743E-09 -0.06137095
v -0.09698841 2.980232E-10 -0.001945887
v -0.1042153 1.430511E-08 -0.08313686
v -0.1233721 3.576279E-09 -0.0201931
v -0.1509031 8.34465E-09 -0.04827106
v -0.1346207 1.66893E-08 -0.09873746
v -0.1346207 1.66893E-08 -0.09873746
v -0.1509031 8.34465E-09 -0.04827106
v -0.1734288 1.192093E-08 -0.07866544
v -0.1621921 1.907349E-08 -0.1148505
v -0.1621921 1.907349E-08 -0.1148505
v -0.1734288 1.192093E-08 -0.07866544
v -0.1962645 1.907349E-08 -0.1118271
v -0.1900221 2.384186E-08 -0.1325771
v -0.2167432 2.384186E-08 -0.1426416
v -0.2154951 2.384186E-08 -0.150868
v 0.02126999 -1.490116E-09 0.009313125
v 0.002239218 -5.960464E-10 0.003970332
v 0.002239218 7.45058E-10 -0.004475445
v 0.01859977 1.490116E-09 -0.00908875
v 0.02126999 -1.490116E-09 0.009313125
v 0.01859977 1.490116E-09 -0.00908875
v 0.03856397 2.980232E-09 -0.01882198
v 0.04523025 -1.788139E-09 0.01159002
v 0.05832643 5.960464E-09 -0.0356708
v 0.07107818 -1.192093E-09 0.007922906
v 0.07816717 9.536743E-09 -0.06137095
v 0.09698841 2.980232E-10 -0.001945887
v 0.1042153 1.430511E-08 -0.08313686
v 0.1233721 3.576279E-09 -0.0201931
v 0.1509031 8.34465E-09 -0.04827106
v 0.1346207 1.66893E-08 -0.09873746
v 0.1346207 1.66893E-08 -0.09873746
v 0.1621921 1.907349E-08 -0.1148505
v 0.1734288 1.192093E-08 -0.07866544
v 0.1509031 8.34465E-09 -0.04827106
v 0.1621921 1.907349E-08 -0.1148505
v 0.1962645 1.907349E-08 -0.1118271
v 0.1734288 1.192093E-08 -0.07866544
v 0.1900221 2.384186E-08 -0.1325771
v 0.2167432 2.384186E-08 -0.1426416
v 0.2154951 2.384186E-08 -0.150868
vt 0.5017151 0.023417
vt 0.5651112 0.07189814
vt 0.5797502 0.03057219
vt 0.552827 0.004572815
vt 0.5017151 0.023417
vt 0.5501726 0.1527233
vt 0.5651112 0.07189814
vt 0.4373331 0.0755612
vt 0.5567668 0.2533804
vt 0.3873988 0.1506637
vt 0.5913906 0.3814785
vt 0.3570856 0.2450112
vt 0.5986738 0.5127903
vt 0.3523518 0.3663197
vt 0.3762211 0.5207235
vt 0.575915 0.6358804
vt 0.575915 0.6358804
vt 0.3762211 0.5207235
vt 0.437319 0.7317712
vt 0.5566782 0.7934232
vt 0.5566782 0.7934232
vt 0.437319 0.7317712
vt 0.4787008 0.8527755
vt 0.5529801 0.8947227
vt 0.5200827 0.9737797
vt 0.5492819 0.9960222
vt 0.5017151 0.023417
vt 0.552827 0.004572815
vt 0.5797502 0.03057219
vt 0.5651112 0.07189814
vt 0.5017151 0.023417
vt 0.5651112 0.07189814
vt 0.5501726 0.1527233
vt 0.4373331 0.0755612
vt 0.5567668 0.2533804
vt 0.3873988 0.1506637
vt 0.5913906 0.3814785
vt 0.3570856 0.2450112
vt 0.5986738 0.5127903
vt 0.3523518 0.3663197
vt 0.3762211 0.5207235
vt 0.575915 0.6358804
vt 0.575915 0.6358804
vt 0.5566782 0.7934232
vt 0.437319 0.7317712
vt 0.3762211 0.5207235
vt 0.5566782 0.7934232
vt 0.4787008 0.8527755
vt 0.437319 0.7317712
vt 0.5529801 0.8947227
vt 0.5200827 0.9737797
vt 0.5492819 0.9960222
vn 0 1 1.629207E-07
vn 0 1 1.629207E-07
vn 0 1 1.629207E-07
vn 0 1 1.629207E-07
vn 0 1 1.629207E-07
vn 0 1 1.629207E-07
vn 0 1 1.629207E-07
vn 0 1 1.629207E-07
vn 0 1 1.629207E-07
vn 0 1 1.629207E-07
vn 0 1 1.629207E-07
vn 0 1 1.629207E-07
vn 0 1 1.629207E-07
vn 0 1 1.629207E-07
vn 0 1 1.629207E-07
vn 0 1 1.629207E-07
vn 0 1 1.629207E-07
vn 0 1 1.629207E-07
vn 0 1 1.629207E-07
vn 0 1 1.629207E-07
vn 0 1 1.629207E-07
vn 0 1 1.629207E-07
vn 0 1 1.629207E-07
vn 0 1 1.629207E-07
vn 0 1 1.629207E-07
vn 0 1 1.629207E-07
vn 0 1 1.629207E-07
vn 0 1 1.629207E-07
vn 0 1 1.629207E-07
vn 0 1 1.629207E-07
vn 0 1 1.629207E-07
vn 0 1 1.629207E-07
vn 0 1 1.629207E-07
vn 0 1 1.629207E-07
vn 0 1 1.629207E-07
vn 0 1 1.629207E-07
vn 0 1 1.629207E-07
vn 0 1 1.629207E-07
vn 0 1 1.629207E-07
vn 0 1 1.629207E-07
vn 0 1 1.629207E-07
vn 0 1 1.629207E-07
vn 0 1 1.629207E-07
vn 0 1 1.629207E-07
vn 0 1 1.629207E-07
vn 0 1 1.629207E-07
vn 0 1 1.629207E-07
vn 0 1 1.629207E-07
vn 0 1 1.629207E-07
vn 0 1 1.629207E-07
vn 0 1 1.629207E-07
vn 0 1 1.629207E-07
g mesh_firebird_wing_0
f 3/3/3 2/2/2 1/1/1
f 4/4/4 3/3/3 1/1/1
f 7/7/7 6/6/6 5/5/5
f 6/6/6 8/8/8 5/5/5
f 6/6/6 9/9/9 8/8/8
f 9/9/9 10/10/10 8/8/8
f 9/9/9 11/11/11 10/10/10
f 11/11/11 12/12/12 10/10/10
f 11/11/11 13/13/13 12/12/12
f 13/13/13 14/14/14 12/12/12
f 14/14/14 13/13/13 15/15/15
f 13/13/13 16/16/16 15/15/15
f 19/19/19 18/18/18 17/17/17
f 20/20/20 19/19/19 17/17/17
f 23/23/23 22/22/22 21/21/21
f 24/24/24 23/23/23 21/21/21
f 25/25/25 23/23/23 24/24/24
f 26/26/26 25/25/25 24/24/24
f 29/29/29 28/28/28 27/27/27
f 30/30/30 29/29/29 27/27/27
f 33/33/33 32/32/32 31/31/31
f 34/34/34 33/33/33 31/31/31
f 35/35/35 33/33/33 34/34/34
f 36/36/36 35/35/35 34/34/34
f 37/37/37 35/35/35 36/36/36
f 38/38/38 37/37/37 36/36/36
f 39/39/39 37/37/37 38/38/38
f 40/40/40 39/39/39 38/38/38
f 39/39/39 40/40/40 41/41/41
f 42/42/42 39/39/39 41/41/41
f 45/45/45 44/44/44 43/43/43
f 46/46/46 45/45/45 43/43/43
f 49/49/49 48/48/48 47/47/47
f 48/48/48 50/50/50 47/47/47
f 48/48/48 51/51/51 50/50/50
f 51/51/51 52/52/52 50/50/50
