g mesh_fire_blast_core
v 0.2178862 0.5333129 -0.3267792
v 0.02894139 0.6812694 -0.1688993
v 0.02781296 0.7365623 -0.3004272
v 0.09073925 0.5067618 -0.1328893
v 0.02688372 0.6536894 -0.07484174
v 0.2515398 0.3117102 -0.3024517
v 0.02396309 0.5067618 -0.03883171
v 0.1187508 0.3001604 -0.1009283
v 0.2546596 0.2547911 -0.2748053
v 0.02167308 0.3001604 -0.006870747
v 0.1292716 0.125852 -0.08074939
v 0.0001333952 0.001857996 0.02246833
v -0.1691303 0.5355034 -0.3265469
v 0.02781296 0.7365623 -0.3004272
v 0.02894139 0.6812694 -0.1688993
v -0.04277992 0.5067618 -0.1328893
v 0.02688372 0.6536894 -0.07484174
v -0.2066339 0.3173523 -0.3007259
v 0.02396309 0.5067618 -0.03883171
v -0.07540476 0.3001604 -0.1009283
v -0.2412832 0.1982703 -0.2774605
v 0.02167308 0.3001604 -0.006870747
v -0.1098548 0.07865727 -0.08443344
v 0.0001333952 0.001857996 0.02246833
v -0.8416386 -0.9549469 -0.6539561
v -0.8790092 -1.18415 -0.5843921
v -0.9204955 -1.214983 -0.6765578
v -0.7447931 -1.035364 -0.4738064
v -0.8515289 -1.17041 -0.4903013
v -0.7026099 -0.7954075 -0.540118
v -0.7097787 -1.083256 -0.3797157
v -0.5938164 -0.8823626 -0.3397229
v -0.6025784 -0.6779518 -0.4423432
v -0.5310229 -0.9494044 -0.2456322
v -0.4876449 -0.7575721 -0.2431431
v -0.5046709 -0.5595335 -0.3827358
v -0.4077591 -0.8259746 -0.1490855
v -0.38685 -0.6354367 -0.1840335
v -0.4041747 -0.4191442 -0.3280404
v -0.3017535 -0.6945794 -0.08994269
v -0.279716 -0.4837631 -0.1292385
v -0.3511055 -0.3281732 -0.2996638
v -0.1862891 -0.5313229 -0.03514779
v -0.1915661 -0.3163911 -0.1009614
v -0.3637837 -0.3056379 -0.2670723
v -0.08917809 -0.3514718 -0.006903887
v -0.1374348 -0.1276454 -0.08456612
v 0.0001333952 0.001857996 0.02246833
v -0.628333 -1.254544 -0.6534251
v -0.9204955 -1.214983 -0.6765578
v -0.8790092 -1.18415 -0.5843921
v -0.6709808 -1.136822 -0.4738064
v -0.8515289 -1.17041 -0.4903013
v -0.4002584 -1.134566 -0.5400516
v -0.7097787 -1.083256 -0.3797157
v -0.4739379 -1.016446 -0.3397229
v -0.5310229 -0.9494044 -0.2456322
v -0.4077591 -0.8259746 -0.1490855
v -0.234413 -0.9978603 -0.4421441
v -0.3278732 -0.8943771 -0.2431431
v -0.3017535 -0.6945794 -0.08994269
v -0.2166238 -0.7537554 -0.1840335
v -0.1082618 -0.8422704 -0.3828686
v -0.1862891 -0.5313229 -0.03514779
v -0.09286213 -0.5789159 -0.1292385
v 0.02572215 -0.6531264 -0.3282396
v 0.07082593 -0.5700544 -0.299332
v -0.08917809 -0.3514718 -0.006903887
v 0.01324308 -0.3865526 -0.1009614
v 0.07530642 -0.564545 -0.2627245
v 0.06681001 -0.2465283 -0.08781862
v 0.0001333952 0.001857996 0.02246833
v -0.644828 0.08791697 -0.3976377
v -0.7758579 -0.1037494 -0.2885123
v -0.8277323 -0.1030192 -0.3833001
v -0.6054658 -0.03597748 -0.2119454
v -0.7455564 -0.1007291 -0.1944216
v -0.4454949 0.1455994 -0.3291357
v -0.6026447 -0.09624863 -0.1178547
v -0.413202 0.008230209 -0.1310639
v -0.2412832 0.1982703 -0.2774605
v -0.4056017 -0.07547235 -0.03697312
v -0.1098548 0.07865727 -0.08443344
v 0.0001333952 0.001857996 0.02246833
v -0.6232883 -0.2850939 -0.3979032
v -0.8277323 -0.1030192 -0.3833001
v -0.7758579 -0.1037494 -0.2885123
v -0.5998569 -0.1565198 -0.2119454
v -0.7455564 -0.1007291 -0.1944216
v -0.3983666 -0.3006927 -0.328671
v -0.6026447 -0.09624863 -0.1178547
v -0.3980016 -0.1591418 -0.1310639
v -0.3637837 -0.3056379 -0.2670723
v -0.4056017 -0.07547235 -0.03697312
v -0.1374348 -0.1276454 -0.08456612
v 0.0001333952 0.001857996 0.02246833
v 0.6582043 -0.1323251 -0.3427764
v 0.8153541 0.05515945 -0.2163264
v 0.8725387 0.05429649 -0.3352425
v 0.6290644 -0.007368565 -0.1519729
v 0.7900641 0.05515945 -0.1222357
v 0.411909 -0.1583784 -0.3039784
v 0.6234555 0.06186366 -0.05788219
v 0.3914977 -0.02648544 -0.1023222
v 0.3452655 -0.1640869 -0.2669727
v 0.3810764 0.05907571 -0.008231521
v 0.09946799 -0.08214331 -0.08224297
v 0.0001333952 0.001857996 0.02246833
v 0.6388884 0.2564174 -0.3434733
v 0.8725387 0.05429649 -0.3352425
v 0.8153541 0.05515945 -0.2163264
v 0.6178797 0.1310958 -0.1519729
v 0.7900641 0.05515945 -0.1222357
v 0.3667056 0.2779902 -0.3048413
v 0.6234555 0.06186366 -0.05788219
v 0.3706551 0.1446369 -0.1023222
v 0.2546596 0.2547911 -0.2748053
v 0.3810764 0.05907571 -0.008231521
v 0.1292716 0.125852 -0.08074939
v 0.0001333952 0.001857996 0.02246833
v 0.1883481 -0.3214027 -0.0006312132
v 0.06681001 -0.2465283 -0.08781862
v 0.0001333952 0.001857996 0.02246833
v 0.1230654 -0.374339 -0.09468877
v 0.07530642 -0.564545 -0.2627245
v 0.2895744 -0.4631528 -0.02419543
v 0.08055031 -0.569457 -0.2955152
v 0.220309 -0.521167 -0.1182861
v 0.1105863 -0.6108105 -0.3170881
v 0.2549251 -0.7874753 -0.3529654
v 0.4193765 -0.6140962 -0.06143343
v 0.3524011 -0.6810383 -0.1555241
v 0.4369999 -0.9413726 -0.4176506
v 0.520968 -0.8282979 -0.2187823
v 0.5849563 -0.7617208 -0.1246916
v 0.7152894 -0.9644058 -0.3030159
v 0.7628492 -0.8925185 -0.2089252
v 0.6638464 -1.088699 -0.5049708
v 0.9413726 -0.9797723 -0.3355411
v 0.9237161 -1.02315 -0.4295987
v 1.041072 -1.01565 -0.4301961
v 0.9128301 -1.142099 -0.6116402
v 1.065566 -1.023018 -0.5242537
v 1.118967 -1.044922 -0.6083545
v 0.1883481 -0.3214027 -0.0006312132
v 0.0001333952 0.001857996 0.02246833
v 0.09946799 -0.08214331 -0.08224297
v 0.2536308 -0.2684662 -0.09468877
v 0.3452655 -0.1640869 -0.2669727
v 0.3554877 -0.1883481 -0.2960131
v 0.4691932 -0.3162584 -0.3171545
v 0.3588066 -0.4051052 -0.1182861
v 0.2895744 -0.4631528 -0.02419543
v 0.5930876 -0.4499435 -0.3529654
v 0.486385 -0.547154 -0.1555241
v 0.4193765 -0.6140962 -0.06143343
v 0.5849563 -0.7617208 -0.1246916
v 0.7504365 -0.5964065 -0.4175179
v 0.6489446 -0.6951768 -0.2187823
v 0.7628492 -0.8925185 -0.2089252
v 0.8104421 -0.8206643 -0.3030159
v 0.9020769 -0.7213629 -0.5052032
v 0.9413726 -0.9797723 -0.3355411
v 0.958996 -0.9399123 -0.4295987
v 1.041072 -1.01565 -0.4301961
v 1.038284 -0.8509659 -0.6118726
v 1.065566 -1.023018 -0.5242537
v 1.118967 -1.044922 -0.6083545
vt 0.7027467 0.01219976
vt 0.7458162 0.3244534
vt 0.7458162 0.01219976
vt 0.7027467 0.3244534
vt 0.7458162 0.6008157
vt 0.6496277 0.01219976
vt 0.7027467 0.6008157
vt 0.6496277 0.3244534
vt 0.6223505 0.01219976
vt 0.6496277 0.6008157
vt 0.6151722 0.3244534
vt 0.6087118 0.6008157
vt 0.3007651 0.01219976
vt 0.2627204 0.01219976
vt 0.2627204 0.3244534
vt 0.3007651 0.3244534
vt 0.2627204 0.6008157
vt 0.350295 0.01219976
vt 0.3007651 0.6008157
vt 0.350295 0.3244534
vt 0.4019784 0.01219976
vt 0.350295 0.6008157
vt 0.4091566 0.3244534
vt 0.4141814 0.6008157
vt 0.7063359 0.01219976
vt 0.746534 0.3244534
vt 0.746534 0.01219976
vt 0.7063359 0.3244534
vt 0.746534 0.6008157
vt 0.6625486 0.01219976
vt 0.7063359 0.6008157
vt 0.6625486 0.3244534
vt 0.6230683 0.01219976
vt 0.6625486 0.6008157
vt 0.6230683 0.3244534
vt 0.5864592 0.01219976
vt 0.6230683 0.6008157
vt 0.5864592 0.3244534
vt 0.5491323 0.01219976
vt 0.5864592 0.6008157
vt 0.5491323 0.3244534
vt 0.5089342 0.01219976
vt 0.5491323 0.6008157
vt 0.5089342 0.3244534
vt 0.4917064 0.01219976
vt 0.5089342 0.6008157
vt 0.4744786 0.3244534
vt 0.4644291 0.6008157
vt 0.2993295 0.01219976
vt 0.2620026 0.01219976
vt 0.2620026 0.3244534
vt 0.2993295 0.3244534
vt 0.2620026 0.6008157
vt 0.3431168 0.01219976
vt 0.2993295 0.6008157
vt 0.3431168 0.3244534
vt 0.3431168 0.6008157
vt 0.3825971 0.6008157
vt 0.3825971 0.01219976
vt 0.3825971 0.3244534
vt 0.4192061 0.6008157
vt 0.4192061 0.3244534
vt 0.4192061 0.01219976
vt 0.4572508 0.6008157
vt 0.4572508 0.3244534
vt 0.4572508 0.01219976
vt 0.497449 0.01219976
vt 0.497449 0.6008157
vt 0.497449 0.3244534
vt 0.5082164 0.01219976
vt 0.5232907 0.3244534
vt 0.5369294 0.6008157
vt 0.7120785 0.01219976
vt 0.7458162 0.3244534
vt 0.7458162 0.01219976
vt 0.7120785 0.3244534
vt 0.7458162 0.6008157
vt 0.6675734 0.01219976
vt 0.7120785 0.6008157
vt 0.6675734 0.3244534
vt 0.5685136 0.01219976
vt 0.6675734 0.6008157
vt 0.5606176 0.3244534
vt 0.5555928 0.6008157
vt 0.297176 0.01219976
vt 0.2620026 0.01219976
vt 0.2620026 0.3244534
vt 0.297176 0.3244534
vt 0.2620026 0.6008157
vt 0.3431168 0.01219976
vt 0.297176 0.6008157
vt 0.3431168 0.3244534
vt 0.362498 0.01219976
vt 0.3431168 0.6008157
vt 0.3797258 0.3244534
vt 0.3897754 0.6008157
vt 0.6819298 0.01219976
vt 0.7458162 0.3244534
vt 0.7458162 0.01219976
vt 0.6819298 0.3244534
vt 0.7458162 0.6008157
vt 0.5922018 0.01219976
vt 0.6819298 0.6008157
vt 0.5922018 0.3244534
vt 0.5476967 0.01219976
vt 0.5922018 0.6008157
vt 0.534058 0.3244534
vt 0.5204194 0.6008157
vt 0.3273246 0.01219976
vt 0.2620026 0.01219976
vt 0.2620026 0.3244534
vt 0.3273246 0.3244534
vt 0.2620026 0.6008157
vt 0.4192061 0.01219976
vt 0.3273246 0.6008157
vt 0.4192061 0.3244534
vt 0.4780678 0.01219976
vt 0.4192061 0.6008157
vt 0.4859638 0.3244534
vt 0.4924242 0.6008157
vt 0.3431168 0.6008157
vt 0.3108147 0.3244534
vt 0.297176 0.6008157
vt 0.3431168 0.3244534
vt 0.3251712 0.01219976
vt 0.3955179 0.6008157
vt 0.3431168 0.01219976
vt 0.3955179 0.3244534
vt 0.3955179 0.01219976
vt 0.4464835 0.01219976
vt 0.4464835 0.6008157
vt 0.4464835 0.3244534
vt 0.5204194 0.01219976
vt 0.5204194 0.3244534
vt 0.5204194 0.6008157
vt 0.5922018 0.3244534
vt 0.5922018 0.6008157
vt 0.5922018 0.01219976
vt 0.6819298 0.6008157
vt 0.6819298 0.3244534
vt 0.7458162 0.6008157
vt 0.6819298 0.01219976
vt 0.7458162 0.3244534
vt 0.7458162 0.01219976
vt 0.6675734 0.6008157
vt 0.7120785 0.6008157
vt 0.6984398 0.3244534
vt 0.6675734 0.3244534
vt 0.6848012 0.01219976
vt 0.6675734 0.01219976
vt 0.6166078 0.01219976
vt 0.6166078 0.3244534
vt 0.6166078 0.6008157
vt 0.5677958 0.01219976
vt 0.5677958 0.3244534
vt 0.5677958 0.6008157
vt 0.4924242 0.6008157
vt 0.4924242 0.01219976
vt 0.4924242 0.3244534
vt 0.4192061 0.6008157
vt 0.4192061 0.3244534
vt 0.4192061 0.01219976
vt 0.3273246 0.6008157
vt 0.3273246 0.3244534
vt 0.2620026 0.6008157
vt 0.3273246 0.01219976
vt 0.2620026 0.3244534
vt 0.2620026 0.01219976
vn 0.7956761 0.3541479 0.491405
vn 0.8320629 0.3832574 0.4009801
vn 0.7520118 0.51425 0.412341
vn 0.8175082 0.2813742 0.5025027
vn 0.8975592 0.2449874 0.3665634
vn 0.8029534 0.1794912 0.5683737
vn 0.8320629 0.2013232 0.5168562
vn 0.7520118 0.1431043 0.6434278
vn 0.7956761 0.1649364 0.5828341
vn 0.6937929 0.1067175 0.7122238
vn 0.7229024 0.1139948 0.6814817
vn 0.635574 0.06305325 0.7694609
vn -0.7835126 0.37598 0.4947192
vn -0.732571 0.536082 0.4194708
vn -0.8198994 0.4123669 0.3971379
vn -0.8126221 0.3032063 0.497706
vn -0.892673 0.2886516 0.3461432
vn -0.79079 0.2158779 0.5727547
vn -0.8344542 0.2304326 0.5005867
vn -0.7471257 0.1867685 0.6379033
vn -0.7689579 0.2231553 0.5990872
vn -0.7034615 0.1503817 0.6946418
vn -0.7180163 0.1794912 0.6724846
vn -0.6670747 0.1358269 0.7325042
vn -0.8126221 0.2886516 0.5062861
vn -0.8053447 0.4196442 0.4187107
vn -0.8344542 0.2813742 0.4738299
vn -0.79079 0.3614253 0.4939869
vn -0.7544031 0.5506368 0.3573166
vn -0.79079 0.2668195 0.5508708
vn -0.7616805 0.4414763 0.47428
vn -0.7689579 0.2522647 0.5874234
vn -0.7762352 0.2886516 0.5604811
vn -0.7398484 0.23771 0.6293793
vn -0.7398484 0.23771 0.6293793
vn -0.7544031 0.3323158 0.5660761
vn -0.6961842 0.1794912 0.6950616
vn -0.7107389 0.2668195 0.6508899
vn -0.7544031 0.3032063 0.5821871
vn -0.6597973 0.2013232 0.7239727
vn -0.7034615 0.2595421 0.6616493
vn -0.7398484 0.1285496 0.6603782
vn -0.6379652 0.2086005 0.7412734
vn -0.6961842 0.1503817 0.7019352
vn -0.6961842 -0.03155255 0.7171695
vn -0.6452426 0.1649364 0.7459611
vn -0.6816294 0.04122114 0.7305355
vn -0.6670747 0.1139948 0.7362177
vn 0.01699781 -0.853895 0.5201676
vn -0.1139948 -0.8684497 0.4824937
vn 0.01699781 -0.9121139 0.4095843
vn 0.07521671 -0.8684497 0.4900382
vn 0.140713 -0.9266686 0.3485471
vn 0.220764 -0.8029534 0.5536507
vn 0.1334357 -0.8757271 0.4640011
vn 0.1916546 -0.7883987 0.5845477
vn 0.1625451 -0.7665666 0.6212525
vn 0.2717056 -0.6646835 0.6959684
vn 0.4099756 -0.715625 0.5655093
vn 0.3444793 -0.6937929 0.632444
vn 0.3954208 -0.5700777 0.7201762
vn 0.4754719 -0.5919098 0.650822
vn 0.5482455 -0.6137419 0.5681089
vn 0.4900267 -0.4754719 0.7306164
vn 0.5555229 -0.5045814 0.6609024
vn 0.6137419 -0.5336908 0.5818033
vn 0.5919098 -0.4681945 0.6560767
vn 0.5555229 -0.3226472 0.7663505
vn 0.577355 -0.3954208 0.7143553
vn 0.5409682 -0.4536398 0.7082121
vn 0.5555229 -0.3444793 0.7567882
vn 0.5700777 -0.2353188 0.7871699
vn -0.4924179 0.6961842 0.5223526
vn -0.4705858 0.7762352 0.4195328
vn -0.5724689 0.6670747 0.4767502
vn -0.4269216 0.7544031 0.498612
vn -0.3614253 0.8708409 0.3331784
vn -0.3468705 0.732571 0.5856796
vn -0.3687027 0.8126221 0.4513355
vn -0.3250384 0.7180163 0.6154695
vn -0.295929 0.7398484 0.604194
vn -0.3032063 0.7107389 0.6347567
vn -0.2740968 0.7107389 0.6478589
vn -0.2449874 0.6816294 0.6894654
vn -0.3832574 -0.7592892 0.5259218
vn -0.5215274 -0.715625 0.4646396
vn -0.4123669 -0.8102308 0.4165089
vn -0.3177611 -0.8029534 0.5042754
vn -0.295929 -0.8902818 0.3461565
vn -0.2158779 -0.7447345 0.6314802
vn -0.2522647 -0.8466176 0.4686162
vn -0.1576591 -0.7447345 0.6484706
vn -0.1940459 -0.6937929 0.6935399
vn -0.1067175 -0.7374571 0.6669096
vn -0.0994401 -0.6937929 0.7132763
vn -0.004834294 -0.6865156 0.727099
vn 0.3517567 -0.7883987 0.5046729
vn 0.4026982 -0.8175082 0.4117214
vn 0.5191361 -0.7301798 0.4442242
vn 0.2862604 -0.8102308 0.5114499
vn 0.278983 -0.8830044 0.3774542
vn 0.198932 -0.7956761 0.5721238
vn 0.220764 -0.8320629 0.5088561
vn 0.1843773 -0.7665666 0.6151266
vn 0.2280414 -0.7811213 0.5812457
vn 0.1698225 -0.7301798 0.661814
vn 0.198932 -0.7447345 0.6370217
vn 0.1698225 -0.7010703 0.6925755
vn 0.3444793 0.7980673 0.4943911
vn 0.5264134 0.732571 0.4315422
vn 0.4318077 0.8126221 0.3913918
vn 0.2935377 0.8198994 0.4915287
vn 0.3226472 0.8781183 0.3532804
vn 0.06793934 0.8344542 0.5468733
vn 0.2353188 0.8344542 0.4983084
vn 0.06066197 0.7835126 0.6184078
vn -0.01938903 0.8344542 0.5507361
vn 0.06066197 0.732571 0.6779822
vn -0.01938903 0.7689579 0.6390054
vn -0.0266664 0.6889068 0.7243593
vn -0.6161331 -0.4536398 0.6438874
vn -0.6234105 -0.4390851 0.646965
vn -0.6816294 -0.4099756 0.6060539
vn -0.594301 -0.4754719 0.6486392
vn -0.5579141 -0.4681945 0.6852194
vn -0.4996953 -0.5191361 0.6933991
vn -0.5724689 -0.5045814 0.6462793
vn -0.536082 -0.5409682 0.6480505
vn -0.5724689 -0.5628003 0.5962677
vn -0.4851406 -0.6501287 0.5847831
vn -0.3905348 -0.6064645 0.6925918
vn -0.434199 -0.6282966 0.6455343
vn -0.3468705 -0.7447345 0.5701328
vn -0.3104837 -0.715625 0.6256841
vn -0.2668195 -0.6865156 0.6763902
vn -0.1067175 -0.8102308 0.5763137
vn -0.0994401 -0.7956761 0.5975042
vn -0.1212722 -0.8247855 0.5522879
vn 0.03882992 -0.9193913 0.391423
vn 0.1261583 -0.8830044 0.4520921
vn 0.06066197 -0.9630555 0.2623819
vn 0.2062094 -0.8320629 0.5149262
vn 0.2134867 -0.8975592 0.3857603
vn 0.3517567 -0.8029534 0.4811788
vn 0.6865156 0.4050895 0.6038202
vn 0.7229024 0.4487537 0.5253877
vn 0.7010703 0.4269216 0.5711728
vn 0.6865156 0.4269216 0.5885867
vn 0.6792382 0.4123669 0.6071153
vn 0.6792382 0.4414763 0.5862885
vn 0.6792382 0.4633085 0.5691931
vn 0.6574061 0.4196442 0.6258721
vn 0.6282966 0.3687027 0.685056
vn 0.6646835 0.4633085 0.5861238
vn 0.6428514 0.4196442 0.6408127
vn 0.6137419 0.37598 0.6942334
vn 0.6210192 0.3905348 0.6795717
vn 0.6719608 0.4705858 0.5718545
vn 0.6501287 0.4269216 0.6285464
vn 0.6719608 0.434199 0.5999499
vn 0.7010703 0.434199 0.5656604
vn 0.7229024 0.4269216 0.5432771
vn 0.6937929 0.6015784 0.3959228
vn 0.7374571 0.4924179 0.4622571
vn 0.6574061 0.7034615 0.2701094
vn 0.7738439 0.37598 0.5097103
vn 0.7374571 0.5506368 0.3910961
vn 0.7883987 0.37598 0.4868948
g mesh_fire_blast_core_0
f 3/3/3 2/2/2 1/1/1
f 4/4/4 1/1/1 2/2/2
f 2/2/2 5/5/5 4/4/4
f 6/6/6 1/1/1 4/4/4
f 7/7/7 4/4/4 5/5/5
f 8/8/8 6/6/6 4/4/4
f 8/8/8 4/4/4 7/7/7
f 9/9/9 6/6/6 8/8/8
f 10/10/10 8/8/8 7/7/7
f 9/9/9 8/8/8 11/11/11
f 11/11/11 8/8/8 10/10/10
f 12/12/12 11/11/11 10/10/10
f 15/15/15 14/14/14 13/13/13
f 13/13/13 16/16/16 15/15/15
f 17/17/17 15/15/15 16/16/16
f 16/16/16 13/13/13 18/18/18
f 16/16/16 19/19/19 17/17/17
f 18/18/18 20/20/20 16/16/16
f 20/20/20 19/19/19 16/16/16
f 20/20/20 18/18/18 21/21/21
f 19/19/19 20/20/20 22/22/22
f 21/21/21 23/23/23 20/20/20
f 22/22/22 20/20/20 23/23/23
f 22/22/22 23/23/23 24/24/24
f 27/27/27 26/26/26 25/25/25
f 26/26/26 28/28/28 25/25/25
f 28/28/28 26/26/26 29/29/29
f 30/30/30 25/25/25 28/28/28
f 29/29/29 31/31/31 28/28/28
f 28/28/28 32/32/32 30/30/30
f 32/32/32 28/28/28 31/31/31
f 33/33/33 30/30/30 32/32/32
f 31/31/31 34/34/34 32/32/32
f 32/32/32 35/35/35 33/33/33
f 35/35/35 32/32/32 34/34/34
f 36/36/36 33/33/33 35/35/35
f 34/34/34 37/37/37 35/35/35
f 35/35/35 38/38/38 36/36/36
f 38/38/38 35/35/35 37/37/37
f 39/39/39 36/36/36 38/38/38
f 37/37/37 40/40/40 38/38/38
f 38/38/38 41/41/41 39/39/39
f 41/41/41 38/38/38 40/40/40
f 42/42/42 39/39/39 41/41/41
f 40/40/40 43/43/43 41/41/41
f 44/44/44 42/42/42 41/41/41
f 44/44/44 41/41/41 43/43/43
f 44/44/44 45/45/45 42/42/42
f 46/46/46 44/44/44 43/43/43
f 45/45/45 44/44/44 47/47/47
f 47/47/47 44/44/44 46/46/46
f 46/46/46 48/48/48 47/47/47
f 51/51/51 50/50/50 49/49/49
f 49/49/49 52/52/52 51/51/51
f 53/53/53 51/51/51 52/52/52
f 52/52/52 49/49/49 54/54/54
f 52/52/52 55/55/55 53/53/53
f 54/54/54 56/56/56 52/52/52
f 55/55/55 52/52/52 56/56/56
f 56/56/56 57/57/57 55/55/55
f 58/58/58 57/57/57 56/56/56
f 56/56/56 54/54/54 59/59/59
f 56/56/56 60/60/60 58/58/58
f 59/59/59 60/60/60 56/56/56
f 61/61/61 58/58/58 60/60/60
f 59/59/59 62/62/62 60/60/60
f 60/60/60 62/62/62 61/61/61
f 63/63/63 62/62/62 59/59/59
f 64/64/64 61/61/61 62/62/62
f 63/63/63 65/65/65 62/62/62
f 65/65/65 64/64/64 62/62/62
f 66/66/66 65/65/65 63/63/63
f 65/65/65 66/66/66 67/67/67
f 68/68/68 64/64/64 65/65/65
f 67/67/67 69/69/69 65/65/65
f 65/65/65 69/69/69 68/68/68
f 69/69/69 67/67/67 70/70/70
f 70/70/70 71/71/71 69/69/69
f 68/68/68 69/69/69 71/71/71
f 71/71/71 72/72/72 68/68/68
f 75/75/75 74/74/74 73/73/73
f 76/76/76 73/73/73 74/74/74
f 74/74/74 77/77/77 76/76/76
f 73/73/73 76/76/76 78/78/78
f 79/79/79 76/76/76 77/77/77
f 80/80/80 78/78/78 76/76/76
f 80/80/80 76/76/76 79/79/79
f 81/81/81 78/78/78 80/80/80
f 82/82/82 80/80/80 79/79/79
f 83/83/83 81/81/81 80/80/80
f 83/83/83 80/80/80 82/82/82
f 84/84/84 83/83/83 82/82/82
f 87/87/87 86/86/86 85/85/85
f 85/85/85 88/88/88 87/87/87
f 89/89/89 87/87/87 88/88/88
f 88/88/88 85/85/85 90/90/90
f 88/88/88 91/91/91 89/89/89
f 90/90/90 92/92/92 88/88/88
f 92/92/92 91/91/91 88/88/88
f 92/92/92 90/90/90 93/93/93
f 91/91/91 92/92/92 94/94/94
f 93/93/93 95/95/95 92/92/92
f 95/95/95 94/94/94 92/92/92
f 94/94/94 95/95/95 96/96/96
f 99/99/99 98/98/98 97/97/97
f 100/100/100 97/97/97 98/98/98
f 100/100/100 98/98/98 101/101/101
f 102/102/102 97/97/97 100/100/100
f 101/101/101 103/103/103 100/100/100
f 104/104/104 102/102/102 100/100/100
f 104/104/104 100/100/100 103/103/103
f 105/105/105 102/102/102 104/104/104
f 103/103/103 106/106/106 104/104/104
f 105/105/105 104/104/104 107/107/107
f 107/107/107 104/104/104 106/106/106
f 106/106/106 108/108/108 107/107/107
f 111/111/111 110/110/110 109/109/109
f 109/109/109 112/112/112 111/111/111
f 113/113/113 111/111/111 112/112/112
f 112/112/112 109/109/109 114/114/114
f 112/112/112 115/115/115 113/113/113
f 114/114/114 116/116/116 112/112/112
f 115/115/115 112/112/112 116/116/116
f 116/116/116 114/114/114 117/117/117
f 116/116/116 118/118/118 115/115/115
f 117/117/117 119/119/119 116/116/116
f 118/118/118 116/116/116 119/119/119
f 119/119/119 120/120/120 118/118/118
f 123/123/123 122/122/122 121/121/121
f 124/124/124 121/121/121 122/122/122
f 125/125/125 124/124/124 122/122/122
f 126/126/126 121/121/121 124/124/124
f 125/125/125 127/127/127 124/124/124
f 124/124/124 128/128/128 126/126/126
f 128/128/128 124/124/124 127/127/127
f 128/128/128 127/127/127 129/129/129
f 128/128/128 129/129/129 130/130/130
f 131/131/131 126/126/126 128/128/128
f 130/130/130 132/132/132 128/128/128
f 128/128/128 132/132/132 131/131/131
f 132/132/132 130/130/130 133/133/133
f 131/131/131 132/132/132 134/134/134
f 133/133/133 134/134/134 132/132/132
f 134/134/134 135/135/135 131/131/131
f 136/136/136 134/134/134 133/133/133
f 134/134/134 136/136/136 135/135/135
f 135/135/135 136/136/136 137/137/137
f 133/133/133 138/138/138 136/136/136
f 139/139/139 137/137/137 136/136/136
f 140/140/140 136/136/136 138/138/138
f 136/136/136 140/140/140 139/139/139
f 141/141/141 139/139/139 140/140/140
f 138/138/138 142/142/142 140/140/140
f 140/140/140 143/143/143 141/141/141
f 140/140/140 142/142/142 143/143/143
f 144/144/144 143/143/143 142/142/142
f 147/147/147 146/146/146 145/145/145
f 145/145/145 148/148/148 147/147/147
f 149/149/149 147/147/147 148/148/148
f 148/148/148 150/150/150 149/149/149
f 150/150/150 148/148/148 151/151/151
f 152/152/152 148/148/148 145/145/145
f 151/151/151 148/148/148 152/152/152
f 153/153/153 152/152/152 145/145/145
f 151/151/151 152/152/152 154/154/154
f 152/152/152 153/153/153 155/155/155
f 154/154/154 152/152/152 155/155/155
f 156/156/156 155/155/155 153/153/153
f 155/155/155 156/156/156 157/157/157
f 154/154/154 155/155/155 158/158/158
f 157/157/157 159/159/159 155/155/155
f 158/158/158 155/155/155 159/159/159
f 159/159/159 157/157/157 160/160/160
f 158/158/158 159/159/159 161/161/161
f 160/160/160 161/161/161 159/159/159
f 161/161/161 162/162/162 158/158/158
f 161/161/161 160/160/160 163/163/163
f 162/162/162 161/161/161 164/164/164
f 163/163/163 164/164/164 161/161/161
f 164/164/164 163/163/163 165/165/165
f 164/164/164 166/166/166 162/162/162
f 165/165/165 167/167/167 164/164/164
f 166/166/166 164/164/164 167/167/167
f 167/167/167 168/168/168 166/166/166
