g mesh_whirl_cylinder
v 0.04311126 -0.2167364 3.33786E-06
v 3.397465E-06 -0.2209851 3.33786E-06
v 3.397465E-06 -0.1669857 0.0003742576
v 0.03257708 -0.1637755 0.0003742576
v 3.397465E-06 -0.1706409 0.03215215
v 0.03329195 -0.1673633 0.03215215
v 0.06390312 -0.1542732 0.0003742576
v 0.08456683 -0.2041655 3.33786E-06
v 0.06529914 -0.1576519 0.03215215
v 0.09277433 -0.1388428 0.0003742576
v 0.1227718 -0.1837446 3.33786E-06
v 0.09480429 -0.1418844 0.03215215
v 0.1562627 -0.1562627 3.33786E-06
v 0.1180779 -0.1180779 0.0003742576
v 0.1206609 -0.1206609 0.03215215
v 0.1837446 -0.1227718 3.33786E-06
v 0.1418844 -0.09480429 0.03215215
v 0.1388428 -0.09277433 0.0003742576
v 0.1576519 -0.06529914 0.03215215
v 0.2041655 -0.08456683 3.33786E-06
v 0.1542732 -0.06390312 0.0003742576
v 0.1673633 -0.03329195 0.03215215
v 0.1637755 -0.03257708 0.0003742576
v 0.2167364 -0.04311126 3.33786E-06
v 0.1706409 3.33786E-06 0.03215215
v 0.1669857 3.33786E-06 0.0003742576
v 0.2209851 3.33786E-06 3.33786E-06
v 0.2167364 0.04311121 3.33786E-06
v 0.1637755 0.03257701 0.0003742576
v 0.1673633 0.03329188 0.03215215
v 0.2041655 0.08456677 3.33786E-06
v 0.1542732 0.06390306 0.0003742576
v 0.1576519 0.06529906 0.03215215
v 0.1388428 0.09277427 0.0003742576
v 0.1837446 0.1227717 3.33786E-06
v 0.1418844 0.09480423 0.03215215
v 0.1562627 0.1562626 3.33786E-06
v 0.1180779 0.1180779 0.0003742576
v 0.1206609 0.1206608 0.03215215
v 0.09480429 0.1418843 0.03215215
v 0.09277433 0.1388428 0.0003742576
v 0.1227718 0.1837445 3.33786E-06
v 0.06529914 0.1576519 0.03215215
v 0.08456683 0.2041655 3.33786E-06
v 0.06390312 0.1542731 0.0003742576
v 0.03329195 0.1673633 0.03215215
v 0.03257708 0.1637754 0.0003742576
v 0.04311126 0.2167363 3.33786E-06
v -3.33786E-06 0.1706409 0.03215215
v -3.33786E-06 0.1669856 0.0003742576
v -3.33786E-06 0.2209851 3.33786E-06
v -0.04311121 0.2167363 3.33786E-06
v -0.03257701 0.1637754 0.0003742576
v -0.03329188 0.1673633 0.03215215
v -0.08456677 0.2041655 3.33786E-06
v -0.06390306 0.1542731 0.0003742576
v -0.06529906 0.1576519 0.03215215
v -0.09277427 0.1388428 0.0003742576
v -0.1227717 0.1837445 3.33786E-06
v -0.1180779 0.1180779 0.0003742576
v -0.09480423 0.1418843 0.03215215
v -0.1562626 0.1562626 3.33786E-06
v -0.1206608 0.1206608 0.03215215
v -0.1837445 0.1227717 3.33786E-06
v -0.1418843 0.09480423 0.03215215
v -0.1388428 0.09277427 0.0003742576
v -0.1576519 0.06529906 0.03215215
v -0.2041655 0.08456677 3.33786E-06
v -0.1542731 0.06390306 0.0003742576
v -0.1673633 0.03329188 0.03215215
v -0.1637754 0.03257701 0.0003742576
v -0.2167363 0.04311121 3.33786E-06
v -0.1706409 -3.397465E-06 0.03215215
v -0.1669856 3.33786E-06 0.0003742576
v -0.2209851 -3.397465E-06 3.33786E-06
v -0.2167363 -0.04311126 3.33786E-06
v -0.1637754 -0.03257708 0.0003742576
v -0.1673633 -0.03329195 0.03215215
v -0.2041655 -0.08456683 3.33786E-06
v -0.1542731 -0.06390312 0.0003742576
v -0.1576519 -0.06529914 0.03215215
v -0.1388428 -0.09277433 0.0003742576
v -0.1837445 -0.1227718 3.33786E-06
v -0.1418843 -0.09480429 0.03215215
v -0.1562626 -0.1562627 3.33786E-06
v -0.1180779 -0.1180779 0.0003742576
v -0.1206608 -0.1206609 0.03215215
v -0.09480423 -0.1418844 0.03215215
v -0.09277427 -0.1388428 0.0003742576
v -0.1227717 -0.1837446 3.33786E-06
v -0.06529906 -0.1576519 0.03215215
v -0.08456677 -0.2041655 3.33786E-06
v -0.06390306 -0.1542732 0.0003742576
v -0.03329188 -0.1673633 0.03215215
v -0.04311121 -0.2167364 3.33786E-06
v -0.03257701 -0.1637755 0.0003742576
v 3.397465E-06 -0.1706409 0.03215215
v 3.397465E-06 -0.1669857 0.0003742576
v 3.397465E-06 -0.2209851 3.33786E-06
vt 1.428679 0.9499885
vt 1.495812 0.9499885
vt 1.495812 0.4051375
vt 1.428679 0.4051375
vt 1.495812 0.9480425
vt 1.428679 0.9480425
vt 1.36641 0.4051375
vt 1.36641 0.9499885
vt 1.36641 0.9480425
vt 1.305115 0.4051375
vt 1.305115 0.9499885
vt 1.305115 0.9480425
vt 1.242846 0.9499885
vt 1.242846 0.4051375
vt 1.242846 0.9480425
vt 1.18155 0.9499885
vt 1.18155 0.9480425
vt 1.18155 0.4051375
vt 1.119281 0.9480425
vt 1.119281 0.9499885
vt 1.119281 0.4051375
vt 1.057013 0.9480425
vt 1.057013 0.4051375
vt 1.057013 0.9499885
vt 0.9957169 0.9480425
vt 0.9957169 0.4051375
vt 0.9957169 0.9499885
vt 0.9334483 0.9499885
vt 0.9334483 0.4051375
vt 0.9334483 0.9480425
vt 0.8711796 0.9499885
vt 0.8711796 0.4051375
vt 0.8711796 0.9480425
vt 0.809884 0.4051375
vt 0.809884 0.9499885
vt 0.809884 0.9480425
vt 0.7476152 0.9499885
vt 0.7476152 0.4051375
vt 0.7476152 0.9480425
vt 0.6853466 0.9480425
vt 0.6853466 0.4051375
vt 0.6853466 0.9499885
vt 0.6240509 0.9480425
vt 0.6240509 0.9499885
vt 0.6240509 0.4051375
vt 0.5617821 0.9480425
vt 0.5617821 0.4051375
vt 0.5617821 0.9499885
vt 0.5004864 0.9480425
vt 0.5004864 0.4051375
vt 0.5004864 0.9499885
vt 0.4382178 0.9499885
vt 0.4382178 0.4051375
vt 0.4382178 0.9480425
vt 0.3759491 0.9499885
vt 0.3759491 0.4051375
vt 0.3759491 0.9480425
vt 0.3146533 0.4051375
vt 0.3146533 0.9499885
vt 0.2523847 0.4051375
vt 0.3146533 0.9480425
vt 0.2523847 0.9499885
vt 0.2523847 0.9480425
vt 0.190116 0.9499885
vt 0.190116 0.9480425
vt 0.190116 0.4051375
vt 0.1288202 0.9480425
vt 0.1288202 0.9499885
vt 0.1288202 0.4051375
vt 0.06655157 0.9480425
vt 0.06655157 0.4051375
vt 0.06655157 0.9499885
vt 0.005255818 0.9480425
vt 0.005255818 0.4051375
vt 0.005255818 0.9499885
vt -0.05701283 0.9499885
vt -0.05701283 0.4051375
vt -0.05701283 0.9480425
vt -0.1192815 0.9499885
vt -0.1192815 0.4051375
vt -0.1192815 0.9480425
vt -0.1805772 0.4051375
vt -0.1805772 0.9499885
vt -0.1805772 0.9480425
vt -0.2428459 0.9499885
vt -0.2428459 0.4051375
vt -0.2428459 0.9480425
vt -0.3051146 0.9480425
vt -0.3051146 0.4051375
vt -0.3051146 0.9499885
vt -0.3664103 0.9480425
vt -0.3664103 0.9499885
vt -0.3664103 0.4051375
vt -0.428679 0.9480425
vt -0.428679 0.9499885
vt -0.428679 0.4051375
vt -0.4958124 0.9480425
vt -0.4958124 0.4051375
vt -0.4958124 0.9499885
vn 0.003895879 -0.003895879 0.9999848
vn -0.00389576 -0.003895879 0.9999848
vn 0.003895879 -0.7441061 0.6680501
vn 0.1441463 -0.7363144 0.6611074
vn 0.003895879 -0.99344 -0.1142883
vn 0.1908963 -0.9778566 -0.0857622
vn 0.2843966 -0.6895642 0.6660479
vn 0.003895879 -0.003895879 0.9999848
vn 0.3778968 -0.9155231 -0.137882
vn 0.4168552 -0.6194391 0.665227
vn 0.003895879 -0.003895879 0.9999848
vn 0.5493139 -0.8298146 -0.09829564
vn 0.003895879 -0.003895879 0.9999848
vn 0.5259389 -0.5259389 0.6684135
vn 0.7051476 -0.7051476 -0.07438861
vn 0.003895879 -0.003895879 0.9999848
vn 0.8298146 -0.5493139 -0.09829564
vn 0.6194391 -0.4168552 0.665227
vn 0.9155231 -0.3778968 -0.137882
vn 0.003895879 -0.003895879 0.9999848
vn 0.6895642 -0.2843966 0.6660479
vn 0.9778566 -0.1908963 -0.08576206
vn 0.7363144 -0.1441463 0.6611074
vn 0.003895879 -0.003895879 0.9999848
vn 0.99344 -0.003895879 -0.1142884
vn 0.7441061 -0.003895879 0.6680502
vn 0.003895879 0.00389576 0.9999848
vn 0.003895879 0.00389576 0.9999848
vn 0.7363144 0.1441461 0.6611074
vn 0.9778566 0.1908962 -0.08576232
vn 0.003895879 0.00389576 0.9999848
vn 0.6895642 0.2843965 0.6660479
vn 0.9155231 0.3778967 -0.1378822
vn 0.6194391 0.4168552 0.6652271
vn 0.003895879 0.00389576 0.9999848
vn 0.8298146 0.5493137 -0.09829669
vn 0.003895879 0.00389576 0.9999848
vn 0.5259389 0.5259387 0.6684136
vn 0.7051476 0.7051474 -0.07439041
vn 0.5493139 0.8298145 -0.09829624
vn 0.4168552 0.6194389 0.6652271
vn 0.003895879 0.00389576 0.9999848
vn 0.3778968 0.915523 -0.1378828
vn 0.003895879 0.00389576 0.9999848
vn 0.2843966 0.6895642 0.6660479
vn 0.1908963 0.9778565 -0.08576358
vn 0.1441463 0.7363142 0.6611075
vn 0.003895879 0.00389576 0.9999848
vn -0.00389576 0.9934399 -0.1142894
vn -0.00389576 0.7441059 0.6680503
vn -0.00389576 0.00389576 0.9999848
vn -0.00389576 0.00389576 0.9999848
vn -0.1441461 0.7363142 0.6611075
vn -0.1908962 0.9778565 -0.08576358
vn -0.00389576 0.00389576 0.9999848
vn -0.2843965 0.6895642 0.666048
vn -0.3778967 0.915523 -0.1378831
vn -0.4168552 0.6194389 0.6652272
vn -0.00389576 0.00389576 0.9999848
vn -0.5259387 0.5259387 0.6684138
vn -0.5493137 0.8298145 -0.09829745
vn -0.00389576 0.00389576 0.9999848
vn -0.7051474 0.7051474 -0.07439201
vn -0.00389576 0.00389576 0.9999848
vn -0.8298145 0.5493137 -0.09829731
vn -0.6194389 0.4168552 0.6652272
vn -0.915523 0.3778967 -0.1378831
vn -0.00389576 0.00389576 0.9999848
vn -0.6895642 0.2843965 0.666048
vn -0.9778565 0.1908962 -0.08576372
vn -0.7363142 0.1441461 0.6611075
vn -0.00389576 0.00389576 0.9999848
vn -0.9934399 0.00389576 -0.1142895
vn -0.7441059 0.00389576 0.6680503
vn -0.00389576 0.00389576 0.9999848
vn -0.00389576 -0.003895879 0.9999848
vn -0.7363142 -0.1441463 0.6611075
vn -0.9778565 -0.1908963 -0.08576345
vn -0.00389576 -0.003895879 0.9999848
vn -0.6895642 -0.2843966 0.6660479
vn -0.915523 -0.3778968 -0.1378829
vn -0.6194389 -0.4168552 0.6652271
vn -0.00389576 -0.003895879 0.9999848
vn -0.8298145 -0.5493139 -0.09829624
vn -0.00389576 -0.003895879 0.9999848
vn -0.5259387 -0.5259389 0.6684136
vn -0.7051474 -0.7051476 -0.07439021
vn -0.5493137 -0.8298146 -0.09829685
vn -0.4168552 -0.6194391 0.6652271
vn -0.00389576 -0.003895879 0.9999848
vn -0.3778967 -0.9155231 -0.1378822
vn -0.00389576 -0.003895879 0.9999848
vn -0.2843965 -0.6895642 0.6660479
vn -0.1908962 -0.9778566 -0.0857622
vn -0.00389576 -0.003895879 0.9999848
vn -0.1441461 -0.7363144 0.6611074
vn 0.003895879 -0.99344 -0.1142883
vn 0.003895879 -0.7441061 0.6680501
vn -0.00389576 -0.003895879 0.9999848
g mesh_whirl_cylinder_0
f 3/3/3 2/2/2 1/1/1
f 1/1/1 4/4/4 3/3/3
f 5/5/5 3/3/3 4/4/4
f 4/4/4 6/6/6 5/5/5
f 7/7/7 4/4/4 1/1/1
f 6/6/6 4/4/4 7/7/7
f 1/1/1 8/8/8 7/7/7
f 7/7/7 9/9/9 6/6/6
f 10/10/10 7/7/7 8/8/8
f 9/9/9 7/7/7 10/10/10
f 8/8/8 11/11/11 10/10/10
f 10/10/10 12/12/12 9/9/9
f 10/10/10 11/11/11 13/13/13
f 12/12/12 10/10/10 14/14/14
f 13/13/13 14/14/14 10/10/10
f 14/14/14 15/15/15 12/12/12
f 14/14/14 13/13/13 16/16/16
f 14/14/14 17/17/17 15/15/15
f 16/16/16 18/18/18 14/14/14
f 14/14/14 18/18/18 17/17/17
f 18/18/18 19/19/19 17/17/17
f 18/18/18 16/16/16 20/20/20
f 18/18/18 21/21/21 19/19/19
f 20/20/20 21/21/21 18/18/18
f 21/21/21 22/22/22 19/19/19
f 21/21/21 20/20/20 23/23/23
f 21/21/21 23/23/23 22/22/22
f 23/23/23 20/20/20 24/24/24
f 23/23/23 25/25/25 22/22/22
f 23/23/23 24/24/24 26/26/26
f 23/23/23 26/26/26 25/25/25
f 26/26/26 24/24/24 27/27/27
f 26/26/26 27/27/27 28/28/28
f 25/25/25 26/26/26 29/29/29
f 28/28/28 29/29/29 26/26/26
f 29/29/29 30/30/30 25/25/25
f 29/29/29 28/28/28 31/31/31
f 30/30/30 29/29/29 32/32/32
f 31/31/31 32/32/32 29/29/29
f 32/32/32 33/33/33 30/30/30
f 31/31/31 34/34/34 32/32/32
f 33/33/33 32/32/32 34/34/34
f 31/31/31 35/35/35 34/34/34
f 34/34/34 36/36/36 33/33/33
f 34/34/34 35/35/35 37/37/37
f 36/36/36 34/34/34 38/38/38
f 37/37/37 38/38/38 34/34/34
f 38/38/38 39/39/39 36/36/36
f 38/38/38 40/40/40 39/39/39
f 41/41/41 38/38/38 37/37/37
f 38/38/38 41/41/41 40/40/40
f 37/37/37 42/42/42 41/41/41
f 41/41/41 43/43/43 40/40/40
f 41/41/41 42/42/42 44/44/44
f 41/41/41 45/45/45 43/43/43
f 44/44/44 45/45/45 41/41/41
f 45/45/45 46/46/46 43/43/43
f 47/47/47 45/45/45 44/44/44
f 45/45/45 47/47/47 46/46/46
f 44/44/44 48/48/48 47/47/47
f 47/47/47 49/49/49 46/46/46
f 50/50/50 47/47/47 48/48/48
f 47/47/47 50/50/50 49/49/49
f 51/51/51 50/50/50 48/48/48
f 50/50/50 51/51/51 52/52/52
f 49/49/49 50/50/50 53/53/53
f 52/52/52 53/53/53 50/50/50
f 53/53/53 54/54/54 49/49/49
f 53/53/53 52/52/52 55/55/55
f 54/54/54 53/53/53 56/56/56
f 55/55/55 56/56/56 53/53/53
f 56/56/56 57/57/57 54/54/54
f 56/56/56 55/55/55 58/58/58
f 57/57/57 56/56/56 58/58/58
f 58/58/58 55/55/55 59/59/59
f 59/59/59 60/60/60 58/58/58
f 58/58/58 61/61/61 57/57/57
f 61/61/61 58/58/58 60/60/60
f 59/59/59 62/62/62 60/60/60
f 60/60/60 63/63/63 61/61/61
f 60/60/60 62/62/62 64/64/64
f 60/60/60 65/65/65 63/63/63
f 64/64/64 66/66/66 60/60/60
f 60/60/60 66/66/66 65/65/65
f 66/66/66 67/67/67 65/65/65
f 66/66/66 64/64/64 68/68/68
f 66/66/66 69/69/69 67/67/67
f 68/68/68 69/69/69 66/66/66
f 69/69/69 70/70/70 67/67/67
f 71/71/71 69/69/69 68/68/68
f 69/69/69 71/71/71 70/70/70
f 68/68/68 72/72/72 71/71/71
f 73/73/73 70/70/70 71/71/71
f 74/74/74 71/71/71 72/72/72
f 71/71/71 74/74/74 73/73/73
f 72/72/72 75/75/75 74/74/74
f 74/74/74 75/75/75 76/76/76
f 73/73/73 74/74/74 77/77/77
f 76/76/76 77/77/77 74/74/74
f 77/77/77 78/78/78 73/73/73
f 77/77/77 76/76/76 79/79/79
f 78/78/78 77/77/77 80/80/80
f 79/79/79 80/80/80 77/77/77
f 80/80/80 81/81/81 78/78/78
f 82/82/82 80/80/80 79/79/79
f 81/81/81 80/80/80 82/82/82
f 83/83/83 82/82/82 79/79/79
f 82/82/82 84/84/84 81/81/81
f 82/82/82 83/83/83 85/85/85
f 84/84/84 82/82/82 86/86/86
f 85/85/85 86/86/86 82/82/82
f 86/86/86 87/87/87 84/84/84
f 86/86/86 88/88/88 87/87/87
f 86/86/86 85/85/85 89/89/89
f 86/86/86 89/89/89 88/88/88
f 89/89/89 85/85/85 90/90/90
f 89/89/89 91/91/91 88/88/88
f 89/89/89 90/90/90 92/92/92
f 89/89/89 93/93/93 91/91/91
f 92/92/92 93/93/93 89/89/89
f 93/93/93 94/94/94 91/91/91
f 93/93/93 92/92/92 95/95/95
f 93/93/93 96/96/96 94/94/94
f 95/95/95 96/96/96 93/93/93
f 96/96/96 97/97/97 94/94/94
f 96/96/96 98/98/98 97/97/97
f 95/95/95 98/98/98 96/96/96
f 95/95/95 99/99/99 98/98/98
