g mesh_razorshell
v -3.397465E-06 -0.3323964 0.02748603
v -3.397465E-06 -0.3704641 3.397465E-06
v -0.06504631 -0.3574027 3.397465E-06
v 0.06504965 -0.3574027 3.397465E-06
v -0.0631485 -0.328073 0.02206665
v -0.09989688 -0.3288443 3.397465E-06
v -0.06279331 -0.2856516 0.0263494
v -0.1104617 -0.2842612 3.397465E-06
v 0.06315184 -0.328073 0.02206665
v 0.09990022 -0.3288443 3.397465E-06
v 0.06279665 -0.2856516 0.0263494
v 0.110465 -0.2842612 3.397465E-06
v -0.0620423 -0.2438593 0.02455306
v -0.1019165 -0.2501109 3.397465E-06
v -3.397465E-06 -0.2874479 0.03325048
v -3.397465E-06 -0.2421137 0.03246903
v 0.0620355 -0.2438593 0.02455306
v 0.1019097 -0.2501109 3.397465E-06
v -0.1156476 -0.2191371 0.03035811
v -0.1649094 -0.2127028 3.397465E-06
v -3.397465E-06 -0.1546929 0.0657973
v 0.115651 -0.2191371 0.03035811
v 0.1649025 -0.2127028 3.397465E-06
v -0.1586781 -0.1850578 0.03455967
v -0.2210011 -0.1568445 3.397465E-06
v -0.1249032 -0.1411546 0.0596675
v -3.397465E-06 -0.06536424 0.08581051
v 0.1249066 -0.1411546 0.0596675
v 0.1586712 -0.1850578 0.03455967
v 0.2209943 -0.1568445 3.397465E-06
v -0.1980245 -0.1386073 0.03589928
v -0.2691059 -0.07347307 3.397465E-06
v 0.1980278 -0.1386073 0.03589928
v 0.2691092 -0.07347307 3.397465E-06
v -0.1320987 -0.05773243 0.07569227
v -0.1390607 0.03105837 0.08588156
v -0.2414101 -0.05917355 0.03803051
v -0.2946298 0.02220872 3.397465E-06
v -0.2573435 0.02794272 0.04606828
v -0.2768797 0.128912 3.397465E-06
v -0.2406591 0.1222138 0.05196467
v -0.2209098 0.1958121 3.397465E-06
v 0.2414033 -0.05917355 0.03803051
v 0.2946332 0.02220872 3.397465E-06
v 0.1320918 -0.05773243 0.07569227
v 0.139064 0.03105837 0.08588156
v 0.2573469 0.02794272 0.04606828
v 0.2768831 0.128912 3.397465E-06
v 0.2406624 0.1222138 0.05196467
v 0.2209131 0.1958121 3.397465E-06
v -3.397465E-06 0.03239802 0.09850651
v -3.397465E-06 0.1297746 0.09761342
v 0.1458636 0.1272171 0.08512041
v 0.197358 0.1682178 0.05883533
v 0.1419665 0.1948885 0.06603074
v 0.130326 0.2408824 3.397465E-06
v -3.397465E-06 0.2191845 0.07088181
v -3.397465E-06 0.25778 3.397465E-06
v -0.1303226 0.2408824 3.397465E-06
v -0.1419733 0.1948885 0.06603074
v -0.1458603 0.1272171 0.08512041
v -0.1973648 0.1682178 0.05883533
v -3.397465E-06 -0.3323964 -0.02748936
v -0.06504631 -0.3574027 3.397465E-06
v -3.397465E-06 -0.3704641 3.397465E-06
v 0.06504965 -0.3574027 3.397465E-06
v -0.0631485 -0.328073 -0.02206999
v -0.09989688 -0.3288443 3.397465E-06
v -0.06279331 -0.2856516 -0.02635273
v -0.1104617 -0.2842612 3.397465E-06
v 0.06315184 -0.328073 -0.02206999
v 0.09990022 -0.3288443 3.397465E-06
v 0.06279665 -0.2856516 -0.02635273
v 0.110465 -0.2842612 3.397465E-06
v -3.397465E-06 -0.2874479 -0.03325382
v -0.0620423 -0.2438593 -0.0245564
v -0.1019165 -0.2501109 3.397465E-06
v -3.397465E-06 -0.2421137 -0.03247237
v 0.0620355 -0.2438593 -0.0245564
v 0.1019097 -0.2501109 3.397465E-06
v -0.1156476 -0.2191371 -0.03036144
v -0.1649094 -0.2127028 3.397465E-06
v -3.397465E-06 -0.1546929 -0.0657905
v 0.115651 -0.2191371 -0.03036144
v 0.1649025 -0.2127028 3.397465E-06
v -0.1586781 -0.1850578 -0.034563
v -0.2210011 -0.1568445 3.397465E-06
v -0.1249032 -0.1411546 -0.05967084
v -3.397465E-06 -0.06536424 -0.08580369
v 0.1249066 -0.1411546 -0.05967084
v 0.1586712 -0.1850578 -0.034563
v 0.2209943 -0.1568445 3.397465E-06
v -0.1980245 -0.1386073 -0.03590262
v -0.2691059 -0.07347307 3.397465E-06
v 0.1980278 -0.1386073 -0.03590262
v 0.2691092 -0.07347307 3.397465E-06
v -0.1320987 -0.05773243 -0.0756956
v -0.1390607 0.03105837 -0.0858849
v -0.2414101 -0.05917355 -0.03803384
v -0.2946298 0.02220872 3.397465E-06
v -0.2573435 0.02794272 -0.04607162
v -0.2768797 0.128912 3.397465E-06
v -0.2406591 0.1222138 -0.05195785
v -0.2209098 0.1958121 3.397465E-06
v 0.2414033 -0.05917355 -0.03803384
v 0.2946332 0.02220872 3.397465E-06
v 0.1320918 -0.05773243 -0.0756956
v 0.139064 0.03105837 -0.0858849
v 0.2573469 0.02794272 -0.04607162
v 0.2768831 0.128912 3.397465E-06
v 0.2406624 0.1222138 -0.05195785
v 0.2209131 0.1958121 3.397465E-06
v -3.397465E-06 0.03239802 -0.09850985
v -3.397465E-06 0.1297746 -0.09761676
v 0.1458636 0.1272171 -0.08511358
v 0.197358 0.1682178 -0.0588285
v 0.1419665 0.1948885 -0.06603408
v 0.130326 0.2408824 3.397465E-06
v -3.397465E-06 0.2191845 -0.07088515
v -3.397465E-06 0.25778 3.397465E-06
v -0.1303226 0.2408824 3.397465E-06
v -0.1419632 0.1948885 -0.06603408
v -0.1458603 0.1272171 -0.08511358
v -0.1973648 0.1682178 -0.0588285
vt 0.693533 0.6026714
vt 0.693533 0.6462093
vt 0.7550538 0.6339051
vt 0.6320122 0.635798
vt 0.7503214 0.6007785
vt 0.7891269 0.6064574
vt 0.7512679 0.5610266
vt 0.8014311 0.5657589
vt 0.635798 0.601725
vt 0.5979391 0.6092968
vt 0.6339051 0.5629196
vt 0.583742 0.5685984
vt 0.7531608 0.5231676
vt 0.7976452 0.5335789
vt 0.6925865 0.5610266
vt 0.69164 0.5193818
vt 0.6310657 0.5250606
vt 0.5865814 0.5364183
vt 0.8023775 0.4938269
vt 0.857273 0.4957199
vt 0.6906936 0.4370385
vt 0.5809026 0.4966663
vt 0.5260071 0.4995058
vt 0.8411829 0.4597539
vt 0.911222 0.4398779
vt 0.8052169 0.418109
vt 0.6897471 0.3528023
vt 0.5761702 0.4209484
vt 0.5420971 0.4635397
vt 0.4711116 0.4455568
vt 0.877149 0.4152696
vt 0.9575993 0.3575346
vt 0.5042382 0.420002
vt 0.4228414 0.3651064
vt 0.8108958 0.3414446
vt 0.8146817 0.2591013
vt 0.9169009 0.3404981
vt 0.9803147 0.2628872
vt 0.9273121 0.2581549
vt 0.9632781 0.1559356
vt 0.9083826 0.1710792
vt 0.9093291 0.08400361
vt 0.4625933 0.3471234
vt 0.3972866 0.2714055
vt 0.5685984 0.3452305
vt 0.5619731 0.2628872
vt 0.4493426 0.2647802
vt 0.4114837 0.1635074
vt 0.4663792 0.1777046
vt 0.4635397 0.08968246
vt 0.6888006 0.2600478
vt 0.6869076 0.1729722
vt 0.5553477 0.1758116
vt 0.5051847 0.1341667
vt 0.5562942 0.1105049
vt 0.5553477 0.03762638
vt 0.6859612 0.08684304
vt 0.6850147 0.01680395
vt 0.8156282 0.03478696
vt 0.8165746 0.106719
vt 0.8184676 0.1720257
vt 0.8686307 0.1294344
vt 0.308318 0.3963401
vt 0.3707853 0.3651064
vt 0.3092645 0.3528023
vt 0.2467972 0.36416
vt 0.3660529 0.3991795
vt 0.4039119 0.3916077
vt 0.3669994 0.4379849
vt 0.4171625 0.4332526
vt 0.2515295 0.398233
vt 0.2127241 0.3906612
vt 0.2496366 0.4370385
vt 0.1994735 0.4313596
vt 0.308318 0.4389314
vt 0.3688923 0.4758439
vt 0.4143231 0.4654327
vt 0.308318 0.4796298
vt 0.2467972 0.4748974
vt 0.2023129 0.4635397
vt 0.418109 0.5051847
vt 0.473951 0.5032917
vt 0.3073715 0.5629196
vt 0.1975805 0.5032917
vt 0.1417385 0.5004523
vt 0.4578609 0.5392577
vt 0.5279 0.5581872
vt 0.4218949 0.5809026
vt 0.3073715 0.6462093
vt 0.1928481 0.5790096
vt 0.1578286 0.5373647
vt 0.08778951 0.5553477
vt 0.4938269 0.5827955
vt 0.5742772 0.6395839
vt 0.1209161 0.5809026
vt 0.03951933 0.6367446
vt 0.4285202 0.6566205
vt 0.4332526 0.7399102
vt 0.5335789 0.657567
vt 0.5979391 0.7342314
vt 0.545883 0.7399102
vt 0.581849 0.8411829
vt 0.5269535 0.8269858
vt 0.5279 0.9140615
vt 0.08021772 0.6547275
vt 0.014911 0.7304455
vt 0.1862228 0.6547275
vt 0.180544 0.7380173
vt 0.06696709 0.7361243
vt 0.03005459 0.837397
vt 0.08495009 0.8241464
vt 0.08211067 0.911222
vt 0.306425 0.7389637
vt 0.3054786 0.8260394
vt 0.1739187 0.8250929
vt 0.1237555 0.8667378
vt 0.1758116 0.8903996
vt 0.1748651 0.9623317
vt 0.3054786 0.9121685
vt 0.3045321 0.9831541
vt 0.4351455 0.9642246
vt 0.436092 0.8913461
vt 0.4370385 0.8269858
vt 0.4872016 0.8686307
vn -0.003921509 -0.3725462 0.9280053
vn -0.003921509 -0.9999924 0
vn -0.3882322 -0.9215616 0
vn 0.3882324 -0.9215616 0
vn -0.2862723 -0.3333308 0.8982977
vn -0.8901892 -0.450977 -0.06467608
vn -0.3098015 -0.0274508 0.9504049
vn -0.9998079 -0.01960411 0
vn 0.2862723 -0.3333308 0.8982977
vn 0.8901893 -0.450977 -0.06467469
vn 0.3098016 -0.0274508 0.9504049
vn 0.9998079 -0.01960411 0
vn -0.2235277 -0.2313708 0.9468384
vn -0.7568569 -0.6470539 -0.09213487
vn -0.003921509 -0.04313695 0.9990615
vn -0.003921509 -0.1686262 0.9856722
vn 0.2235277 -0.2313708 0.9468383
vn 0.756857 -0.6470539 -0.09213454
vn -0.2705861 -0.56078 0.7825016
vn -0.6155679 -0.7880839 0
vn -0.003921509 -0.2941154 0.9557618
vn 0.2705862 -0.56078 0.7825016
vn 0.615568 -0.7880839 0
vn -0.4117615 -0.4901924 0.7682213
vn -0.8014051 -0.5981219 0
vn -0.1843122 -0.2705862 0.9448873
vn -0.003921509 -0.1686262 0.9856722
vn 0.1843123 -0.2705862 0.9448873
vn 0.4117616 -0.4901924 0.7682212
vn 0.8014051 -0.5981219 0
vn -0.4980353 -0.3647031 0.7867353
vn -0.9215615 -0.3803893 -0.07764286
vn 0.4980354 -0.3647031 0.7867352
vn 0.9215616 -0.3803893 -0.07764171
vn -0.1999984 -0.1686262 0.9651766
vn -0.2078415 -0.06666619 0.9758881
vn -0.5529369 -0.2392139 0.7981463
vn -0.9982743 -0.05872206 0
vn -0.5921522 -0.05098003 0.8042119
vn -0.9215615 0.3882322 -0.0003860202
vn -0.5921522 0.2392138 0.7695014
vn -0.6289734 0.7774267 0
vn 0.552937 -0.2392139 0.7981462
vn 0.9982743 -0.05872205 0
vn 0.1999985 -0.1686262 0.9651765
vn 0.2078416 -0.06666619 0.9758881
vn 0.5921524 -0.05098003 0.8042118
vn 0.9215616 0.3882322 0
vn 0.5921524 0.2392138 0.7695013
vn 0.6289735 0.7774267 0
vn -0.003921509 -0.05882311 0.9982607
vn -0.003921509 0.1450969 0.9894097
vn 0.1999985 0.1294107 0.9712124
vn 0.450977 0.4901923 0.7458762
vn 0.2392139 0.5999954 0.7634017
vn 0.2855531 0.9583629 0
vn -0.003921509 0.6313677 0.7754737
vn -0.003921509 0.9999923 -0.000345267
vn -0.285553 0.9583629 0
vn -0.2392138 0.5999954 0.7634017
vn -0.1999984 0.1294107 0.9712124
vn -0.4509768 0.4901923 0.7458763
vn -0.003921509 -0.3725462 -0.9280053
vn -0.3882322 -0.9215616 0
vn -0.003921509 -0.9999924 0
vn 0.3882324 -0.9215616 0
vn -0.2862723 -0.3333308 -0.8982977
vn -0.8901892 -0.450977 -0.06467608
vn -0.3098015 -0.0274508 -0.9504049
vn -0.9998079 -0.01960411 0
vn 0.2862723 -0.3333308 -0.8982977
vn 0.8901893 -0.450977 -0.06467469
vn 0.3098016 -0.0274508 -0.9504049
vn 0.9998079 -0.01960411 0
vn -0.003921509 -0.04313695 -0.9990615
vn -0.2235277 -0.2313708 -0.9468384
vn -0.7568569 -0.6470539 -0.09213487
vn -0.003921509 -0.1686262 -0.9856722
vn 0.2235277 -0.2313708 -0.9468383
vn 0.756857 -0.6470539 -0.09213454
vn -0.2705861 -0.56078 -0.7825016
vn -0.6155679 -0.7880839 0
vn -0.003921509 -0.2941154 -0.9557618
vn 0.2705862 -0.56078 -0.7825016
vn 0.615568 -0.7880839 0
vn -0.4117615 -0.4901924 -0.7682213
vn -0.8014051 -0.5981219 0
vn -0.1843122 -0.2705862 -0.9448873
vn -0.003921509 -0.1686262 -0.9856722
vn 0.1843123 -0.2705862 -0.9448873
vn 0.4117616 -0.4901924 -0.7682212
vn 0.8014051 -0.5981219 0
vn -0.4980353 -0.3647031 -0.7867353
vn -0.9215615 -0.3803893 -0.07764286
vn 0.4980354 -0.3647031 -0.7867352
vn 0.9215616 -0.3803893 -0.07764171
vn -0.1999984 -0.1686262 -0.9651766
vn -0.2078415 -0.06666619 -0.9758881
vn -0.5529369 -0.2392139 -0.7981463
vn -0.9982743 -0.05872206 0
vn -0.5921522 -0.05098003 -0.8042119
vn -0.9215615 0.3882322 -0.0003860202
vn -0.5921522 0.2392138 -0.7695014
vn -0.6289734 0.7774267 0
vn 0.552937 -0.2392139 -0.7981462
vn 0.9982743 -0.05872205 0
vn 0.1999985 -0.1686262 -0.9651765
vn 0.2078416 -0.06666619 -0.9758881
vn 0.5921524 -0.05098003 -0.8042118
vn 0.9215616 0.3882322 0
vn 0.5921524 0.2392138 -0.7695013
vn 0.6289735 0.7774267 0
vn -0.003921509 -0.05882311 -0.9982607
vn -0.003921509 0.1450969 -0.9894097
vn 0.1999985 0.1294107 -0.9712124
vn 0.450977 0.4901923 -0.7458762
vn 0.2392139 0.5999954 -0.7634017
vn 0.2855531 0.9583629 0
vn -0.003921509 0.6313677 -0.7754737
vn -0.003921509 0.9999923 -0.000345267
vn -0.285553 0.9583629 0
vn -0.2392138 0.5999954 -0.7634017
vn -0.1999984 0.1294107 -0.9712124
vn -0.4509768 0.4901923 -0.7458763
g mesh_razorshell_0
f 3/3/3 2/2/2 1/1/1
f 2/2/2 4/4/4 1/1/1
f 5/5/5 3/3/3 1/1/1
f 5/5/5 6/6/6 3/3/3
f 5/5/5 7/7/7 6/6/6
f 7/7/7 5/5/5 1/1/1
f 7/7/7 8/8/8 6/6/6
f 4/4/4 9/9/9 1/1/1
f 10/10/10 9/9/9 4/4/4
f 11/11/11 9/9/9 10/10/10
f 9/9/9 11/11/11 1/1/1
f 12/12/12 11/11/11 10/10/10
f 8/8/8 7/7/7 13/13/13
f 14/14/14 8/8/8 13/13/13
f 15/15/15 7/7/7 1/1/1
f 11/11/11 15/15/15 1/1/1
f 15/15/15 16/16/16 7/7/7
f 16/16/16 15/15/15 11/11/11
f 16/16/16 13/13/13 7/7/7
f 11/11/11 12/12/12 17/17/17
f 17/17/17 16/16/16 11/11/11
f 12/12/12 18/18/18 17/17/17
f 13/13/13 19/19/19 14/14/14
f 20/20/20 14/14/14 19/19/19
f 21/21/21 13/13/13 16/16/16
f 17/17/17 21/21/21 16/16/16
f 22/22/22 17/17/17 18/18/18
f 18/18/18 23/23/23 22/22/22
f 24/24/24 20/20/20 19/19/19
f 25/25/25 20/20/20 24/24/24
f 26/26/26 19/19/19 13/13/13
f 24/24/24 19/19/19 26/26/26
f 21/21/21 26/26/26 13/13/13
f 21/21/21 27/27/27 26/26/26
f 17/17/17 28/28/28 21/21/21
f 22/22/22 28/28/28 17/17/17
f 27/27/27 21/21/21 28/28/28
f 23/23/23 29/29/29 22/22/22
f 22/22/22 29/29/29 28/28/28
f 23/23/23 30/30/30 29/29/29
f 31/31/31 25/25/25 24/24/24
f 31/31/31 24/24/24 26/26/26
f 32/32/32 25/25/25 31/31/31
f 30/30/30 33/33/33 29/29/29
f 29/29/29 33/33/33 28/28/28
f 30/30/30 34/34/34 33/33/33
f 26/26/26 35/35/35 31/31/31
f 27/27/27 35/35/35 26/26/26
f 36/36/36 35/35/35 27/27/27
f 37/37/37 32/32/32 31/31/31
f 35/35/35 37/37/37 31/31/31
f 35/35/35 36/36/36 37/37/37
f 38/38/38 32/32/32 37/37/37
f 39/39/39 38/38/38 37/37/37
f 36/36/36 39/39/39 37/37/37
f 40/40/40 38/38/38 39/39/39
f 41/41/41 40/40/40 39/39/39
f 41/41/41 39/39/39 36/36/36
f 42/42/42 40/40/40 41/41/41
f 34/34/34 43/43/43 33/33/33
f 34/34/34 44/44/44 43/43/43
f 43/43/43 45/45/45 33/33/33
f 46/46/46 45/45/45 43/43/43
f 45/45/45 28/28/28 33/33/33
f 45/45/45 27/27/27 28/28/28
f 45/45/45 46/46/46 27/27/27
f 44/44/44 47/47/47 43/43/43
f 47/47/47 46/46/46 43/43/43
f 44/44/44 48/48/48 47/47/47
f 48/48/48 49/49/49 47/47/47
f 47/47/47 49/49/49 46/46/46
f 48/48/48 50/50/50 49/49/49
f 46/46/46 51/51/51 27/27/27
f 52/52/52 51/51/51 46/46/46
f 51/51/51 36/36/36 27/27/27
f 51/51/51 52/52/52 36/36/36
f 49/49/49 53/53/53 46/46/46
f 53/53/53 52/52/52 46/46/46
f 50/50/50 54/54/54 49/49/49
f 54/54/54 53/53/53 49/49/49
f 54/54/54 50/50/50 55/55/55
f 55/55/55 53/53/53 54/54/54
f 53/53/53 55/55/55 52/52/52
f 50/50/50 56/56/56 55/55/55
f 57/57/57 55/55/55 56/56/56
f 55/55/55 57/57/57 52/52/52
f 58/58/58 57/57/57 56/56/56
f 57/57/57 58/58/58 59/59/59
f 60/60/60 57/57/57 59/59/59
f 57/57/57 60/60/60 52/52/52
f 59/59/59 42/42/42 60/60/60
f 52/52/52 61/61/61 36/36/36
f 60/60/60 61/61/61 52/52/52
f 61/61/61 41/41/41 36/36/36
f 42/42/42 62/62/62 60/60/60
f 62/62/62 42/42/42 41/41/41
f 61/61/61 62/62/62 41/41/41
f 61/61/61 60/60/60 62/62/62
f 65/65/65 64/64/64 63/63/63
f 66/66/66 65/65/65 63/63/63
f 64/64/64 67/67/67 63/63/63
f 68/68/68 67/67/67 64/64/64
f 69/69/69 67/67/67 68/68/68
f 67/67/67 69/69/69 63/63/63
f 70/70/70 69/69/69 68/68/68
f 71/71/71 66/66/66 63/63/63
f 71/71/71 72/72/72 66/66/66
f 71/71/71 73/73/73 72/72/72
f 73/73/73 71/71/71 63/63/63
f 73/73/73 74/74/74 72/72/72
f 69/69/69 75/75/75 63/63/63
f 75/75/75 73/73/73 63/63/63
f 69/69/69 70/70/70 76/76/76
f 70/70/70 77/77/77 76/76/76
f 78/78/78 75/75/75 69/69/69
f 75/75/75 78/78/78 73/73/73
f 76/76/76 78/78/78 69/69/69
f 74/74/74 73/73/73 79/79/79
f 78/78/78 79/79/79 73/73/73
f 80/80/80 74/74/74 79/79/79
f 81/81/81 76/76/76 77/77/77
f 77/77/77 82/82/82 81/81/81
f 76/76/76 83/83/83 78/78/78
f 83/83/83 79/79/79 78/78/78
f 79/79/79 84/84/84 80/80/80
f 85/85/85 80/80/80 84/84/84
f 82/82/82 86/86/86 81/81/81
f 82/82/82 87/87/87 86/86/86
f 81/81/81 88/88/88 76/76/76
f 81/81/81 86/86/86 88/88/88
f 88/88/88 83/83/83 76/76/76
f 89/89/89 83/83/83 88/88/88
f 90/90/90 79/79/79 83/83/83
f 90/90/90 84/84/84 79/79/79
f 83/83/83 89/89/89 90/90/90
f 91/91/91 85/85/85 84/84/84
f 91/91/91 84/84/84 90/90/90
f 92/92/92 85/85/85 91/91/91
f 87/87/87 93/93/93 86/86/86
f 86/86/86 93/93/93 88/88/88
f 87/87/87 94/94/94 93/93/93
f 95/95/95 92/92/92 91/91/91
f 95/95/95 91/91/91 90/90/90
f 96/96/96 92/92/92 95/95/95
f 97/97/97 88/88/88 93/93/93
f 97/97/97 89/89/89 88/88/88
f 97/97/97 98/98/98 89/89/89
f 94/94/94 99/99/99 93/93/93
f 99/99/99 97/97/97 93/93/93
f 98/98/98 97/97/97 99/99/99
f 94/94/94 100/100/100 99/99/99
f 100/100/100 101/101/101 99/99/99
f 101/101/101 98/98/98 99/99/99
f 100/100/100 102/102/102 101/101/101
f 102/102/102 103/103/103 101/101/101
f 101/101/101 103/103/103 98/98/98
f 102/102/102 104/104/104 103/103/103
f 105/105/105 96/96/96 95/95/95
f 106/106/106 96/96/96 105/105/105
f 107/107/107 105/105/105 95/95/95
f 107/107/107 108/108/108 105/105/105
f 90/90/90 107/107/107 95/95/95
f 89/89/89 107/107/107 90/90/90
f 108/108/108 107/107/107 89/89/89
f 109/109/109 106/106/106 105/105/105
f 108/108/108 109/109/109 105/105/105
f 110/110/110 106/106/106 109/109/109
f 111/111/111 110/110/110 109/109/109
f 111/111/111 109/109/109 108/108/108
f 112/112/112 110/110/110 111/111/111
f 113/113/113 108/108/108 89/89/89
f 113/113/113 114/114/114 108/108/108
f 98/98/98 113/113/113 89/89/89
f 114/114/114 113/113/113 98/98/98
f 115/115/115 111/111/111 108/108/108
f 114/114/114 115/115/115 108/108/108
f 116/116/116 112/112/112 111/111/111
f 115/115/115 116/116/116 111/111/111
f 112/112/112 116/116/116 117/117/117
f 115/115/115 117/117/117 116/116/116
f 117/117/117 115/115/115 114/114/114
f 118/118/118 112/112/112 117/117/117
f 117/117/117 119/119/119 118/118/118
f 119/119/119 117/117/117 114/114/114
f 119/119/119 120/120/120 118/118/118
f 120/120/120 119/119/119 121/121/121
f 119/119/119 122/122/122 121/121/121
f 122/122/122 119/119/119 114/114/114
f 104/104/104 121/121/121 122/122/122
f 123/123/123 114/114/114 98/98/98
f 123/123/123 122/122/122 114/114/114
f 103/103/103 123/123/123 98/98/98
f 124/124/124 104/104/104 122/122/122
f 122/122/122 123/123/123 124/124/124
f 124/124/124 123/123/123 103/103/103
f 104/104/104 124/124/124 103/103/103
