g mesh_wrap
v 0.2271007 -0.09294602 -0.4040833
v 0.2229296 -0.1183778 -0.3984451
v 0.2261701 -0.1190237 -0.393858
v 0.1703909 -0.195768 -0.3767356
v 0.1654644 -0.1894073 -0.3791003
v 0.2179811 -0.1156408 -0.3997151
v 0.2271007 -0.09294602 -0.4040833
v 0.2112811 -0.1152796 -0.3978539
v 0.158622 -0.1819519 -0.3758926
v 0.0836294 -0.2252833 -0.3534605
v 0.08547959 -0.2355415 -0.3561318
v -0.004270703 -0.2360998 -0.3329662
v -0.007883489 -0.2469381 -0.3350572
v -0.09010166 -0.210876 -0.3181975
v 0.08743924 -0.2439494 -0.3527927
v -0.09915549 -0.2206524 -0.3201244
v -0.159905 -0.1535641 -0.3047208
v -0.009230047 -0.256189 -0.3308204
v -0.173535 -0.1610087 -0.3064505
v -0.2033898 -0.07159775 -0.2888026
v -0.104301 -0.229137 -0.3146724
v -0.2201619 -0.07491493 -0.2902259
v -0.2135603 0.02385634 -0.2732348
v -0.1825232 -0.1667234 -0.2997614
v -0.1012575 -0.2300456 -0.2997504
v -0.005693913 -0.25747 -0.3171684
v 0.09131479 -0.2450332 -0.3406734
v -0.2313177 0.0265933 -0.2747018
v -0.1851617 0.1181828 -0.25747
v -0.2315148 -0.07628343 -0.2825733
v -0.2010908 0.1271491 -0.2592216
v -0.1255836 0.1917851 -0.240041
v -0.1801475 -0.166384 -0.2835586
v -0.2429552 0.02997619 -0.2660859
v 0.1747591 -0.1963482 -0.36616
v 0.2112811 -0.1152796 -0.3978539
v 0.2271007 -0.09294602 -0.4040833
v 0.158622 -0.1819519 -0.3758926
v 0.0836294 -0.2252833 -0.3534605
v -0.004270703 -0.2360998 -0.3329662
v -0.09010166 -0.210876 -0.3181975
v -0.159905 -0.1535641 -0.3047208
v -0.2033898 -0.07159775 -0.2888026
v -0.2289529 -0.07510105 -0.2651444
v -0.2135603 0.02385634 -0.2732348
v -0.2396052 0.03049073 -0.2476279
v -0.1851617 0.1181828 -0.25747
v -0.2110423 0.1350206 -0.249686
v -0.2071887 0.1338054 -0.2301661
v -0.1255836 0.1917851 -0.240041
v -0.1360278 0.205853 -0.2420226
v -0.1421148 0.2171512 -0.2315893
v -0.04641983 0.2445098 -0.227451
v -0.04253334 0.2263145 -0.2256994
v 0.06567496 0.2275845 -0.2068253
v -0.1389399 0.2138997 -0.2109855
v 0.0703716 0.2466009 -0.2082595
v 0.1664497 0.1853259 -0.1846231
v -0.04782113 0.2575815 -0.2160105
v -0.04635414 0.2525455 -0.1946404
v -0.04253334 0.2263145 -0.2256994
v 0.06567496 0.2275845 -0.2068253
v 0.07433471 0.2595412 -0.1956914
v 0.07251737 0.2534871 -0.1736643
v 0.1664497 0.1853259 -0.1846231
v 0.1788317 0.2016929 -0.1856194
v 0.1872944 0.2126954 -0.1717594
v 0.1814045 0.2075281 -0.1494587
v 0.2571087 0.1118659 -0.1641507
v 0.2390229 0.1011152 -0.1645557
v 0.268582 0.1198688 -0.1490865
v 0.3049616 -0.0007652938 -0.1251655
v 0.2589589 0.1192338 -0.1270923
v 0.2390229 0.1011152 -0.1645557
v 0.2916053 -0.004980206 -0.1416638
v 0.2697972 -0.007979929 -0.1440943
v 0.2934883 0.005376428 -0.1042004
v 0.2697972 -0.007979929 -0.1440943
v 0.2750303 -0.124421 -0.1253516
v 0.2533973 -0.118969 -0.1306941
v 0.2791576 -0.1119077 -0.08775675
v 0.2533973 -0.118969 -0.1306941
v 0.202895 -0.2036285 -0.116878
v 0.2216049 -0.2153427 -0.1088094
v 0.202895 -0.2036285 -0.116878
v 0.2887807 -0.1247823 -0.1073424
v 0.228086 -0.2030045 -0.07098466
v 0.1470502 -0.268571 -0.05260327
v 0.1258004 -0.2633271 -0.1016824
v 0.2340854 -0.2198313 -0.08930039
v 0.1386203 -0.2800006 -0.0907017
v 0.1258004 -0.2633271 -0.1016824
v 0.148134 -0.2879159 -0.06962714
v 0.04798329 -0.300265 -0.03221843
v 0.03284243 -0.2916819 -0.08430818
v 0.03792223 -0.3109391 -0.07057959
v 0.03284243 -0.2916819 -0.08430818
v 0.04333046 -0.3206718 -0.0478957
v -0.05482775 -0.2928314 -0.01274222
v -0.06381592 -0.2841608 -0.06766748
v -0.1511467 -0.2424933 -0.04922038
v -0.06702363 -0.3026516 -0.05135521
v -0.06381592 -0.2841608 -0.06766748
v -0.06583032 -0.3122529 -0.02728096
v -0.147731 -0.2481862 0.0082995
v -0.2172497 -0.1722959 -0.02702916
v -0.1621822 -0.2573386 -0.0305872
v -0.1511467 -0.2424933 -0.04922038
v -0.2172497 -0.1722959 -0.02702916
v -0.164744 -0.2646627 -0.005242974
v -0.2168556 -0.1726462 0.03266937
v -0.2568918 -0.07927218 -0.005045921
v -0.2339671 -0.1806819 -0.006830394
v -0.2568918 -0.07927218 -0.005045921
v -0.2390797 -0.1845027 0.01948819
v -0.256629 -0.0750463 0.05632761
v -0.2665368 0.02266303 0.01344496
v -0.2764008 -0.07952398 0.01617098
v -0.2665368 0.02266303 0.01344496
v -0.2649385 0.03148699 0.07632929
v -0.2400759 0.1201097 0.03564715
v -0.2823236 -0.07948017 0.04323402
v -0.2858378 0.03164026 0.03535157
v -0.2400759 0.1201097 0.03564715
v -0.2347772 0.1322836 0.09996563
v -0.1814175 0.2062581 0.05661225
v -0.2909614 0.03577855 0.06322473
v -0.2553481 0.1375933 0.0576742
v -0.1814175 0.2062581 0.05661225
v -0.1725826 0.2180161 0.1220584
v -0.09003597 0.262508 0.07851887
v -0.2584136 0.1451364 0.08630276
v -0.1906027 0.22915 0.07840937
v -0.09003597 0.262508 0.07851887
v -0.1910187 0.2382805 0.1078043
v -0.09168908 0.2878742 0.1002393
v 0.02407324 0.280145 0.1007977
v -0.07960269 0.270905 0.1455634
v 0.02407324 0.280145 0.1007977
v -0.0893572 0.2969499 0.1303568
v 0.03060907 0.3054235 0.1220584
v 0.1359381 0.2558408 0.1266236
v 0.03331318 0.2843161 0.1688932
v 0.1359381 0.2558408 0.1266236
v 0.03496632 0.3133826 0.1528765
v 0.150236 0.27847 0.1475011
v 0.2303741 0.1927595 0.151103
v 0.1419047 0.2578005 0.1951132
v 0.2303741 0.1927595 0.151103
v 0.2517661 0.2105058 0.17186
v 0.2901164 0.1075416 0.180465
v 0.1556771 0.2848526 0.1789871
v 0.2323118 0.1955511 0.2197458
v 0.2901164 0.1075416 0.180465
v 0.309921 0.1147014 0.1964051
v 0.3216242 0.007347018 0.2342298
v 0.2577108 0.2157499 0.2037839
v 0.290609 0.1114937 0.2326205
v 0.3216242 0.007347018 0.2342298
v 0.3158 0.1179529 0.2209939
vt 1.014753 0.663583
vt 0.9817071 0.3523641
vt 0.9817071 0.6334969
vt 0.9486616 0.3523641
vt 0.9486616 0.1629693
vt 0.9817071 0.1629693
vt 1.014753 0.08405479
vt 0.9817071 0.005140305
vt 0.9486616 0.005140305
vt 0.9156162 0.005140305
vt 0.9156162 0.1629693
vt 0.8820776 0.005140305
vt 0.8820776 0.1629693
vt 0.8490321 0.005140305
vt 0.9156162 0.3523641
vt 0.8490321 0.1629693
vt 0.8159867 0.005140305
vt 0.8820776 0.3523641
vt 0.8159867 0.1629693
vt 0.7829412 0.005140305
vt 0.8490321 0.3523641
vt 0.7829412 0.1629693
vt 0.7498958 0.005140305
vt 0.8159867 0.3523641
vt 0.8490321 0.6334969
vt 0.8820776 0.6334969
vt 0.9156162 0.6334969
vt 0.7498958 0.1629693
vt 0.7168503 0.005140305
vt 0.7829412 0.3523641
vt 0.7168503 0.1629693
vt 0.6833117 0.005140305
vt 0.8159867 0.6334969
vt 0.7498958 0.3523641
vt 0.9486616 0.6334969
vt 0.9817071 1.005381
vt 1.014753 0.663583
vt 0.9486616 1.005381
vt 0.9156162 1.005381
vt 0.8820776 1.005381
vt 0.8490321 1.005381
vt 0.8159867 1.005381
vt 0.7829412 1.005381
vt 0.7829412 0.6334969
vt 0.7498958 1.005381
vt 0.7498958 0.6334969
vt 0.7168503 1.005381
vt 0.7168503 0.3523641
vt 0.7168503 0.6334969
vt 0.6833117 1.005381
vt 0.6833117 0.1629693
vt 0.6833117 0.3523641
vt 0.6502662 0.1629693
vt 0.6502662 0.005140305
vt 0.6172208 0.005140305
vt 0.6833117 0.6334969
vt 0.6172208 0.1629693
vt 0.5841753 0.005140305
vt 0.6502662 0.3523641
vt 0.6502662 0.6334969
vt 0.6502662 1.005381
vt 0.6172208 1.005381
vt 0.6172208 0.3523641
vt 0.6172208 0.6334969
vt 0.5841753 1.005381
vt 0.5841753 0.1629693
vt 0.5841753 0.3523641
vt 0.5841753 0.6334969
vt 0.5511299 0.1629693
vt 0.5511299 0.005140305
vt 0.5511299 0.3523641
vt 0.5180845 0.3523641
vt 0.5511299 0.6334969
vt 0.5511299 1.005381
vt 0.5180845 0.1629693
vt 0.5180845 0.005140305
vt 0.5180845 0.6334969
vt 0.5180845 1.005381
vt 0.485039 0.1629693
vt 0.485039 0.005140305
vt 0.485039 0.6334969
vt 0.485039 1.005381
vt 0.4554461 1.005381
vt 0.4554461 0.1629693
vt 0.4554461 0.005140305
vt 0.485039 0.3523641
vt 0.4554461 0.6334969
vt 0.4258532 0.6334969
vt 0.4258532 1.005381
vt 0.4554461 0.3523641
vt 0.4258532 0.1629693
vt 0.4258532 0.005140305
vt 0.4258532 0.3523641
vt 0.3967535 0.6334969
vt 0.3967535 1.005381
vt 0.3967535 0.1629693
vt 0.3967535 0.005140305
vt 0.3967535 0.3523641
vt 0.3671605 0.6334969
vt 0.3671605 1.005381
vt 0.3380608 1.005381
vt 0.3671605 0.1629693
vt 0.3671605 0.005140305
vt 0.3671605 0.3523641
vt 0.3380608 0.6334969
vt 0.3084679 1.005381
vt 0.3380608 0.1629693
vt 0.3380608 0.005140305
vt 0.3084679 0.005140305
vt 0.3380608 0.3523641
vt 0.3084679 0.6334969
vt 0.2793682 1.005381
vt 0.3084679 0.1629693
vt 0.2793682 0.005140305
vt 0.3084679 0.3523641
vt 0.2793682 0.6334969
vt 0.2497752 1.005381
vt 0.2793682 0.1629693
vt 0.2497752 0.005140305
vt 0.2497752 0.6334969
vt 0.2201823 1.005381
vt 0.2793682 0.3523641
vt 0.2497752 0.1629693
vt 0.2201823 0.005140305
vt 0.2201823 0.6334969
vt 0.1910826 1.005381
vt 0.2497752 0.3523641
vt 0.2201823 0.1629693
vt 0.1910826 0.005140305
vt 0.1910826 0.6334969
vt 0.1614896 1.005381
vt 0.2201823 0.3523641
vt 0.1910826 0.1629693
vt 0.1614896 0.005140305
vt 0.1910826 0.3523641
vt 0.1614896 0.1629693
vt 0.1323899 0.005140305
vt 0.1614896 0.6334969
vt 0.1323899 1.005381
vt 0.1614896 0.3523641
vt 0.1323899 0.1629693
vt 0.102797 0.005140305
vt 0.1323899 0.6334969
vt 0.102797 1.005381
vt 0.1323899 0.3523641
vt 0.102797 0.1629693
vt 0.07369727 0.005140305
vt 0.102797 0.6334969
vt 0.07369727 1.005381
vt 0.07369727 0.1629693
vt 0.04410433 0.005140305
vt 0.102797 0.3523641
vt 0.07369727 0.6334969
vt 0.04410433 1.005381
vt 0.04410433 0.1629693
vt 0.0145114 0.288246
vt 0.07369727 0.3523641
vt 0.04410433 0.6334969
vt 0.0145114 1.005381
vt 0.04410433 0.3523641
vn 0.2826509 -0.119927 -0.9516964
vn 0.4608723 -0.3833847 -0.8003829
vn 0.8095664 -0.05018812 0.584879
vn 0.3291434 -0.6158475 -0.7158188
vn -0.1822746 -0.150922 -0.9715959
vn -0.1125357 -0.1664195 -0.9796123
vn 0.2826509 -0.119927 -0.9516964
vn -0.3140035 -0.0424394 -0.9484729
vn -0.3527472 0.05829442 -0.9339011
vn -0.2985059 0.1822746 -0.9368405
vn -0.2132696 -0.1044294 -0.9713962
vn -0.166777 0.2365159 -0.9572073
vn -0.1977721 -0.0811832 -0.9768805
vn -0.05054569 0.2287672 -0.972168
vn 0.0966807 -0.7708226 -0.6296709
vn -0.2055209 -0.06568569 -0.9764459
vn 0.01144439 0.2132696 -0.9769264
vn -0.1745259 -0.8018177 -0.5715148
vn -0.2442646 -0.01144439 -0.9696411
vn 0.05793691 0.1822746 -0.9815392
vn -0.4689786 -0.7320788 -0.4940847
vn -0.2675109 0.0815407 -0.9600984
vn 0.1044294 0.1435308 -0.9841206
vn -0.7324364 -0.5228623 -0.4360641
vn -0.05054569 -0.4221285 0.9051257
vn 0.1431732 -0.4841186 0.8632095
vn 0.375636 -0.4608723 0.8040488
vn -0.2365159 0.166777 -0.9572073
vn 0.1664195 0.08928943 -0.982004
vn -0.8874115 -0.2051633 -0.4128061
vn -0.1590283 0.2597622 -0.9524881
vn 0.1896658 0.01180196 -0.9817778
vn -0.1745259 -0.3446409 0.9223683
vn -0.9106578 0.1435308 -0.3874291
vn 0.6003499 -0.3368922 0.7253162
vn -0.1512796 0.3914911 0.9076614
vn 0.2826509 -0.119927 -0.9516964
vn -0.09703827 0.4767274 0.8736788
vn 0.03469062 0.554215 0.8316504
vn 0.2129121 0.5697124 0.793786
vn 0.406631 0.4999737 0.7646421
vn 0.5771037 0.3217522 0.7506177
vn 0.6700888 0.07379198 0.7386039
vn -0.2597622 -0.2439071 0.9343623
vn 0.6700888 -0.181917 0.7196438
vn -0.3217522 -0.119927 0.9391981
vn 0.5616062 -0.4453748 0.697309
vn -0.7944264 0.4922249 -0.3558107
vn -0.3217522 -0.003695607 0.9468167
vn 0.3446409 -0.6545912 0.6728544
vn -0.04279697 0.3140035 -0.9484568
vn -0.5154711 0.7866777 -0.3397465
vn 0.0811832 0.3217522 -0.9433371
vn 0.1741683 -0.05793691 -0.9830101
vn 0.1586708 -0.1121782 -0.9809381
vn -0.2752596 0.104787 0.9556421
vn 0.2284096 0.2830085 -0.9315231
vn 0.1276757 -0.1431732 -0.9814277
vn -0.1512796 0.9416528 -0.3006735
vn -0.2055209 0.1900233 0.9600273
vn 0.0424394 -0.7630739 0.6449164
vn -0.2675109 -0.7320788 0.6264971
vn 0.2284096 0.9339041 -0.2750496
vn -0.1435308 0.2365159 0.9609678
vn -0.5619637 -0.5693549 0.6000265
vn 0.3523897 0.1900233 -0.9163584
vn 0.6003499 0.7634314 -0.2382277
vn -0.05829442 0.2442646 0.9679548
vn 0.437626 0.05054569 -0.8977352
vn 0.1121782 -0.1431732 -0.9833196
vn 0.8793052 0.4457324 -0.1677649
vn 0.9877878 0.06604326 -0.1411155
vn 0.01144439 0.2210183 0.9752025
vn -0.7711802 -0.2981484 0.5624844
vn 0.4918673 -0.1044294 -0.8643848
vn 0.1431732 -0.150922 -0.9781227
vn 0.01919311 0.1745259 0.9844655
vn -0.8641652 0.01955068 0.5028283
vn 0.4918673 -0.2981484 -0.8180306
vn 0.181917 -0.2129121 -0.9599868
vn 0.003695607 0.166777 0.9859877
vn -0.8254215 0.3527472 0.4407367
vn -0.6704463 0.6549488 0.3486314
vn 0.3988822 -0.5151136 -0.7586507
vn 0.1741683 -0.3523897 -0.9195036
vn 0.9471616 -0.3207572 0
vn 0.003695607 0.2287672 0.9734741
vn 0.05018812 0.2985059 0.9530873
vn -0.4069885 0.871914 0.2722615
vn 0.7630739 -0.6390938 0.09631959
vn 0.2206608 -0.6933351 -0.6859995
vn 0.0811832 -0.4996161 -0.8624343
vn 0.4918673 -0.8638077 0.1091
vn 0.1431732 0.3449985 0.9276192
vn -0.0815407 0.9803966 0.1793699
vn -0.03504813 -0.7863201 -0.6168244
vn -0.08928943 -0.5926012 -0.8005319
vn 0.1586708 -0.9645416 0.2109104
vn 0.2749021 0.3449985 0.8974435
vn 0.2749021 0.9571503 0.09106053
vn 0.5991811 0.8006135 0
vn -0.3140035 -0.7708226 -0.5542873
vn -0.3062547 -0.5926012 -0.7450047
vn -0.1900233 -0.9335465 0.3039443
vn 0.4298773 0.2597622 0.8647133
vn 0.8405614 0.5387174 -0.05692221
vn -0.5929587 -0.631345 -0.4998035
vn -0.5309687 -0.4763698 -0.7008168
vn -0.6859438 -0.2671534 -0.6768383
vn -0.4844761 -0.7940689 0.3670661
vn 0.5306112 0.1202846 0.8390372
vn 0.9698621 0.2436546 0
vn -0.7944264 -0.3911335 -0.4646517
vn -0.7324364 -0.05018812 -0.6789831
vn -0.7169389 -0.5693549 0.4022856
vn 0.5461086 -0.0269419 0.837281
vn 0.9953175 -0.09665943 0
vn -0.8796628 -0.1276757 -0.4581401
vn -0.6936926 0.1977721 -0.692587
vn 0.4996161 -0.2051633 0.8416007
vn 0.9025515 -0.4298773 0.02462464
vn -0.8564165 -0.2903996 0.4268711
vn -0.8641652 0.1745259 -0.4719738
vn -0.5619637 0.4147373 -0.7156743
vn 0.3911335 -0.3678872 0.8436075
vn 0.6700888 -0.7398276 0.06030076
vn -0.902909 0.01180196 0.4296696
vn -0.7401851 0.4612298 -0.4892781
vn -0.3449985 0.5697124 -0.7459248
vn 0.2129121 -0.4686211 0.857358
vn 0.3136459 -0.949044 0.030688
vn -0.8486677 0.3217522 0.4198078
vn -0.5077224 0.6936926 -0.5108901
vn -0.0815407 0.6394513 -0.7644954
vn -0.6704463 0.616205 0.4132714
vn -0.1822746 0.8254215 -0.5342802
vn 0.1741683 0.6084563 -0.7742392
vn 0.003695607 -0.4996161 0.8662391
vn -0.05829442 -0.9955366 0.07422075
vn -0.3682448 0.840919 0.3965489
vn 0.1431732 0.8254215 -0.5460594
vn 0.3833847 0.4844761 -0.78632
vn -0.1900233 -0.4608723 0.866884
vn -0.4146019 -0.9100029 0
vn -0.03504813 0.9184065 0.3940827
vn 0.4298773 0.7091901 -0.5587977
vn 0.5383599 0.2830085 -0.7937725
vn -0.360496 -0.3678872 0.8571474
vn -0.7091901 -0.7010838 0.07436978
vn 0.6778375 0.4844761 -0.5530093
vn 0.6390938 -0.01144439 -0.7690437
vn 0.2903996 0.871914 0.3942512
vn -0.4534811 -0.2516558 0.8549995
vn -0.9028914 -0.4298689 0
vn 0.8328127 0.1202846 -0.5403283
vn 0.9567928 -0.2903996 -0.01468476
vn 0.6080987 0.678195 0.4126349
vn -0.4922249 -0.1741683 0.8528658
vn 0.9567928 -0.2903996 -0.01468476
vn 0.8405614 0.3217522 0.435812
g mesh_wrap_0
f 3/3/3 2/2/2 1/1/1
f 2/2/2 3/3/3 4/4/4
f 2/2/2 4/4/4 5/5/5
f 5/5/5 6/6/6 2/2/2
f 2/2/2 6/6/6 7/7/7
f 6/6/6 8/8/8 7/7/7
f 8/8/8 6/6/6 5/5/5
f 5/5/5 9/9/9 8/8/8
f 10/10/10 9/9/9 5/5/5
f 5/5/5 11/11/11 10/10/10
f 11/11/11 5/5/5 4/4/4
f 12/12/12 10/10/10 11/11/11
f 13/13/13 12/12/12 11/11/11
f 14/14/14 12/12/12 13/13/13
f 4/4/4 15/15/15 11/11/11
f 13/13/13 11/11/11 15/15/15
f 13/13/13 16/16/16 14/14/14
f 17/17/17 14/14/14 16/16/16
f 15/15/15 18/18/18 13/13/13
f 16/16/16 13/13/13 18/18/18
f 16/16/16 19/19/19 17/17/17
f 20/20/20 17/17/17 19/19/19
f 18/18/18 21/21/21 16/16/16
f 19/19/19 16/16/16 21/21/21
f 19/19/19 22/22/22 20/20/20
f 23/23/23 20/20/20 22/22/22
f 21/21/21 24/24/24 19/19/19
f 22/22/22 19/19/19 24/24/24
f 25/25/25 21/21/21 18/18/18
f 24/24/24 21/21/21 25/25/25
f 26/26/26 18/18/18 15/15/15
f 18/18/18 26/26/26 25/25/25
f 27/27/27 15/15/15 4/4/4
f 15/15/15 27/27/27 26/26/26
f 22/22/22 28/28/28 23/23/23
f 29/29/29 23/23/23 28/28/28
f 24/24/24 30/30/30 22/22/22
f 28/28/28 22/22/22 30/30/30
f 28/28/28 31/31/31 29/29/29
f 32/32/32 29/29/29 31/31/31
f 33/33/33 24/24/24 25/25/25
f 30/30/30 24/24/24 33/33/33
f 30/30/30 34/34/34 28/28/28
f 31/31/31 28/28/28 34/34/34
f 4/4/4 35/35/35 27/27/27
f 35/35/35 4/4/4 3/3/3
f 35/35/35 3/3/3 36/36/36
f 36/36/36 3/3/3 37/37/37
f 36/36/36 38/38/38 35/35/35
f 27/27/27 35/35/35 38/38/38
f 38/38/38 39/39/39 27/27/27
f 26/26/26 27/27/27 39/39/39
f 39/39/39 40/40/40 26/26/26
f 26/26/26 40/40/40 41/41/41
f 41/41/41 25/25/25 26/26/26
f 25/25/25 41/41/41 42/42/42
f 25/25/25 42/42/42 33/33/33
f 43/43/43 33/33/33 42/42/42
f 33/33/33 43/43/43 44/44/44
f 33/33/33 44/44/44 30/30/30
f 43/43/43 45/45/45 44/44/44
f 34/34/34 30/30/30 44/44/44
f 44/44/44 45/45/45 46/46/46
f 46/46/46 34/34/34 44/44/44
f 46/46/46 45/45/45 47/47/47
f 48/48/48 34/34/34 46/46/46
f 34/34/34 48/48/48 31/31/31
f 47/47/47 49/49/49 46/46/46
f 46/46/46 49/49/49 48/48/48
f 49/49/49 47/47/47 50/50/50
f 51/51/51 31/31/31 48/48/48
f 31/31/31 51/51/51 32/32/32
f 52/52/52 48/48/48 49/49/49
f 48/48/48 52/52/52 51/51/51
f 51/51/51 53/53/53 32/32/32
f 53/53/53 51/51/51 52/52/52
f 32/32/32 53/53/53 54/54/54
f 54/54/54 53/53/53 55/55/55
f 50/50/50 56/56/56 49/49/49
f 56/56/56 52/52/52 49/49/49
f 57/57/57 55/55/55 53/53/53
f 58/58/58 55/55/55 57/57/57
f 52/52/52 59/59/59 53/53/53
f 59/59/59 52/52/52 56/56/56
f 57/57/57 53/53/53 59/59/59
f 60/60/60 56/56/56 50/50/50
f 56/56/56 60/60/60 59/59/59
f 50/50/50 61/61/61 60/60/60
f 62/62/62 60/60/60 61/61/61
f 59/59/59 63/63/63 57/57/57
f 63/63/63 59/59/59 60/60/60
f 60/60/60 62/62/62 64/64/64
f 64/64/64 63/63/63 60/60/60
f 65/65/65 64/64/64 62/62/62
f 57/57/57 66/66/66 58/58/58
f 66/66/66 57/57/57 63/63/63
f 67/67/67 63/63/63 64/64/64
f 63/63/63 67/67/67 66/66/66
f 64/64/64 65/65/65 68/68/68
f 64/64/64 68/68/68 67/67/67
f 58/58/58 66/66/66 69/69/69
f 69/69/69 70/70/70 58/58/58
f 66/66/66 67/67/67 71/71/71
f 67/67/67 68/68/68 71/71/71
f 71/71/71 69/69/69 66/66/66
f 72/72/72 69/69/69 71/71/71
f 73/73/73 68/68/68 65/65/65
f 73/73/73 71/71/71 68/68/68
f 72/72/72 71/71/71 73/73/73
f 65/65/65 74/74/74 73/73/73
f 70/70/70 69/69/69 75/75/75
f 72/72/72 75/75/75 69/69/69
f 70/70/70 75/75/75 76/76/76
f 77/77/77 73/73/73 74/74/74
f 73/73/73 77/77/77 72/72/72
f 74/74/74 78/78/78 77/77/77
f 76/76/76 75/75/75 79/79/79
f 79/79/79 75/75/75 72/72/72
f 79/79/79 80/80/80 76/76/76
f 81/81/81 77/77/77 78/78/78
f 72/72/72 77/77/77 81/81/81
f 78/78/78 82/82/82 81/81/81
f 83/83/83 81/81/81 82/82/82
f 84/84/84 80/80/80 79/79/79
f 80/80/80 84/84/84 85/85/85
f 72/72/72 86/86/86 79/79/79
f 81/81/81 86/86/86 72/72/72
f 84/84/84 79/79/79 86/86/86
f 81/81/81 83/83/83 87/87/87
f 87/87/87 86/86/86 81/81/81
f 88/88/88 87/87/87 83/83/83
f 83/83/83 89/89/89 88/88/88
f 87/87/87 90/90/90 86/86/86
f 86/86/86 90/90/90 84/84/84
f 90/90/90 87/87/87 88/88/88
f 85/85/85 84/84/84 91/91/91
f 91/91/91 92/92/92 85/85/85
f 93/93/93 84/84/84 90/90/90
f 88/88/88 93/93/93 90/90/90
f 93/93/93 91/91/91 84/84/84
f 94/94/94 88/88/88 89/89/89
f 93/93/93 88/88/88 94/94/94
f 89/89/89 95/95/95 94/94/94
f 96/96/96 92/92/92 91/91/91
f 96/96/96 97/97/97 92/92/92
f 91/91/91 93/93/93 98/98/98
f 93/93/93 94/94/94 98/98/98
f 98/98/98 96/96/96 91/91/91
f 99/99/99 94/94/94 95/95/95
f 98/98/98 94/94/94 99/99/99
f 95/95/95 100/100/100 99/99/99
f 101/101/101 99/99/99 100/100/100
f 97/97/97 96/96/96 102/102/102
f 102/102/102 96/96/96 98/98/98
f 102/102/102 103/103/103 97/97/97
f 99/99/99 104/104/104 98/98/98
f 98/98/98 104/104/104 102/102/102
f 99/99/99 101/101/101 105/105/105
f 105/105/105 104/104/104 99/99/99
f 106/106/106 105/105/105 101/101/101
f 103/103/103 102/102/102 107/107/107
f 107/107/107 102/102/102 104/104/104
f 103/103/103 107/107/107 108/108/108
f 109/109/109 108/108/108 107/107/107
f 105/105/105 110/110/110 104/104/104
f 104/104/104 110/110/110 107/107/107
f 105/105/105 106/106/106 111/111/111
f 110/110/110 105/105/105 111/111/111
f 112/112/112 111/111/111 106/106/106
f 107/107/107 113/113/113 109/109/109
f 113/113/113 107/107/107 110/110/110
f 114/114/114 109/109/109 113/113/113
f 111/111/111 115/115/115 110/110/110
f 110/110/110 115/115/115 113/113/113
f 111/111/111 112/112/112 116/116/116
f 116/116/116 115/115/115 111/111/111
f 116/116/116 112/112/112 117/117/117
f 113/113/113 118/118/118 114/114/114
f 118/118/118 113/113/113 115/115/115
f 119/119/119 114/114/114 118/118/118
f 117/117/117 120/120/120 116/116/116
f 120/120/120 117/117/117 121/121/121
f 115/115/115 116/116/116 122/122/122
f 115/115/115 122/122/122 118/118/118
f 122/122/122 116/116/116 120/120/120
f 123/123/123 119/119/119 118/118/118
f 123/123/123 118/118/118 122/122/122
f 124/124/124 119/119/119 123/123/123
f 121/121/121 125/125/125 120/120/120
f 121/121/121 126/126/126 125/125/125
f 120/120/120 127/127/127 122/122/122
f 122/122/122 127/127/127 123/123/123
f 127/127/127 120/120/120 125/125/125
f 123/123/123 128/128/128 124/124/124
f 128/128/128 123/123/123 127/127/127
f 129/129/129 124/124/124 128/128/128
f 125/125/125 126/126/126 130/130/130
f 131/131/131 130/130/130 126/126/126
f 127/127/127 125/125/125 132/132/132
f 127/127/127 132/132/132 128/128/128
f 132/132/132 125/125/125 130/130/130
f 128/128/128 133/133/133 129/129/129
f 133/133/133 128/128/128 132/132/132
f 134/134/134 129/129/129 133/133/133
f 132/132/132 135/135/135 133/133/133
f 130/130/130 135/135/135 132/132/132
f 133/133/133 136/136/136 134/134/134
f 136/136/136 133/133/133 135/135/135
f 134/134/134 136/136/136 137/137/137
f 130/130/130 131/131/131 138/138/138
f 139/139/139 138/138/138 131/131/131
f 140/140/140 135/135/135 130/130/130
f 135/135/135 140/140/140 136/136/136
f 130/130/130 138/138/138 140/140/140
f 141/141/141 137/137/137 136/136/136
f 141/141/141 136/136/136 140/140/140
f 142/142/142 137/137/137 141/141/141
f 138/138/138 139/139/139 143/143/143
f 144/144/144 143/143/143 139/139/139
f 140/140/140 138/138/138 145/145/145
f 140/140/140 145/145/145 141/141/141
f 138/138/138 143/143/143 145/145/145
f 141/141/141 146/146/146 142/142/142
f 146/146/146 141/141/141 145/145/145
f 142/142/142 146/146/146 147/147/147
f 143/143/143 144/144/144 148/148/148
f 148/148/148 145/145/145 143/143/143
f 149/149/149 148/148/148 144/144/144
f 150/150/150 147/147/147 146/146/146
f 151/151/151 147/147/147 150/150/150
f 145/145/145 152/152/152 146/146/146
f 145/145/145 148/148/148 152/152/152
f 150/150/150 146/146/146 152/152/152
f 148/148/148 149/149/149 153/153/153
f 152/152/152 148/148/148 153/153/153
f 154/154/154 153/153/153 149/149/149
f 150/150/150 155/155/155 151/151/151
f 151/151/151 155/155/155 156/156/156
f 152/152/152 157/157/157 150/150/150
f 153/153/153 157/157/157 152/152/152
f 155/155/155 150/150/150 157/157/157
f 153/153/153 154/154/154 158/158/158
f 157/157/157 153/153/153 158/158/158
f 154/154/154 159/159/159 158/158/158
f 160/160/160 156/156/156 155/155/155
f 157/157/157 160/160/160 155/155/155
f 156/156/156 160/160/160 158/158/158
f 158/158/158 160/160/160 157/157/157
