g mesh_claw
v 0.050984688 0.29926738 3.2484531E-06
v 0.084344015 0.25451353 0.042339668
v 0.1147456 0.28412548 3.2484531E-06
v 0.050984688 0.29926738 3.2484531E-06
v 0.028742835 0.26668388 0.035904706
v 0.01486852 0.22627309 3.2484531E-06
v -0.013053283 0.29949597 3.2484531E-06
v -0.022993207 0.22758225 3.2484531E-06
v -0.027357072 0.26709256 0.029663682
v -0.07433441 0.28515062 3.2484531E-06
v -0.061831594 0.22366863 3.2484531E-06
v -0.08162831 0.25594738 0.02341573
v -0.12965158 0.25840637 3.2484531E-06
v -0.100739256 0.21433133 3.2484531E-06
v -0.1316742 0.23414192 0.017770424
v -0.17688522 0.22051 3.2484531E-06
v -0.13905814 0.19828895 3.2484531E-06
v -0.17561764 0.20274284 0.012312129
v -0.21737912 0.17089358 3.2484531E-06
v -0.17531285 0.17597088 3.2484531E-06
v -0.21167147 0.16441706 0.007276356
v -0.24597976 0.10586506 3.2484531E-06
v -0.2046893 0.15442172 3.2484531E-06
v 0.1147456 0.28412548 3.2484531E-06
v 0.084344015 0.25451353 -0.042340085
v 0.050984688 0.29926738 3.2484531E-06
v 0.050984688 0.29926738 3.2484531E-06
v 0.028742835 0.26668388 -0.035905115
v 0.01486852 0.22627309 3.2484531E-06
v -0.013053283 0.29949597 3.2484531E-06
v -0.022993207 0.22758225 3.2484531E-06
v -0.027357072 0.26709256 -0.0296641
v -0.07433441 0.28515062 3.2484531E-06
v -0.061831594 0.22366863 3.2484531E-06
v -0.08162831 0.25594738 -0.023416154
v -0.12965158 0.25840637 3.2484531E-06
v -0.100739256 0.21433133 3.2484531E-06
v -0.1316742 0.23414192 -0.017770834
v -0.17688522 0.22051 3.2484531E-06
v -0.13905814 0.19828895 3.2484531E-06
v -0.17561764 0.20274284 -0.012312539
v -0.21737912 0.17089358 3.2484531E-06
v -0.17531285 0.17597088 3.2484531E-06
v -0.21167147 0.16441706 -0.0072767735
v -0.24597976 0.10586506 3.2484531E-06
v -0.2046893 0.15442172 3.2484531E-06
v 0.06455423 0.31906408 3.2484531E-06
v 0.08428167 0.25443733 0.054357618
v 0.1346462 0.30348578 3.2484531E-06
v 0.028659716 0.26678082 0.04801269
v -0.016932279 0.21342394 3.2484531E-06
v -0.0040346384 0.3192996 3.2484531E-06
v -0.041307583 0.21360403 3.2484531E-06
v -0.027391702 0.26723108 0.040885046
v -0.069367915 0.30401915 3.2484531E-06
v -0.07294907 0.20960727 3.2484531E-06
v -0.08184996 0.255982 0.03307858
v -0.1284394 0.2740955 3.2484531E-06
v -0.106744766 0.20110121 3.2484531E-06
v -0.1317504 0.2342943 0.026484296
v -0.17773029 0.23249334 3.2484531E-06
v -0.14113617 0.18791264 3.2484531E-06
v -0.17563841 0.20278442 0.019827664
v -0.22100183 0.17627567 3.2484531E-06
v -0.17513275 0.16828218 3.2484531E-06
v -0.21182385 0.1641469 0.012665391
v -0.24597976 0.10586506 3.2484531E-06
v -0.20117742 0.14974615 3.2484531E-06
v 0.08428167 0.25443733 -0.054358028
v 0.06455423 0.31906408 3.2484531E-06
v 0.1346462 0.30348578 3.2484531E-06
v 0.028659716 0.26678082 -0.048013106
v -0.016932279 0.21342394 3.2484531E-06
v -0.0040346384 0.3192996 3.2484531E-06
v -0.041307583 0.21360403 3.2484531E-06
v -0.027391702 0.26723108 -0.040885463
v -0.069367915 0.30401915 3.2484531E-06
v -0.07294907 0.20960727 3.2484531E-06
v -0.08184996 0.255982 -0.03307899
v -0.1284394 0.2740955 3.2484531E-06
v -0.106744766 0.20110121 3.2484531E-06
v -0.1317504 0.2342943 -0.026484706
v -0.17773029 0.23249334 3.2484531E-06
v -0.14113617 0.18791264 3.2484531E-06
v -0.17563841 0.20278442 -0.019828081
v -0.22100183 0.17627567 3.2484531E-06
v -0.17513275 0.16828218 3.2484531E-06
v -0.21182385 0.1641469 -0.012665808
v -0.24597976 0.10586506 3.2484531E-06
v -0.20117742 0.14974615 3.2484531E-06
vt 0.9734622 0.60140824
vt 0.92150456 0.9836682
vt 0.97439003 0.9836682
vt 0.9734622 0.60140824
vt 0.92150456 0.60140824
vt 0.034512997 0.9836682
vt 0.9734622 0.40007228
vt 0.034512997 0.60140824
vt 0.92150456 0.40007228
vt 0.9734622 0.24883837
vt 0.034512997 0.40007228
vt 0.92150456 0.24883837
vt 0.9734622 0.14677867
vt 0.034512997 0.24883837
vt 0.92150456 0.14677867
vt 0.9734622 0.10131571
vt 0.034512997 0.14677867
vt 0.92150456 0.10131571
vt 0.9734622 0.08090377
vt 0.034512997 0.10131571
vt 0.92150456 0.08090377
vt 0.6431599 0.06049183
vt 0.034512997 0.08090377
vt 0.97439003 0.9836682
vt 0.92150456 0.9836682
vt 0.9734622 0.60140824
vt 0.9734622 0.60140824
vt 0.92150456 0.60140824
vt 0.034512997 0.9836682
vt 0.9734622 0.40007228
vt 0.034512997 0.60140824
vt 0.92150456 0.40007228
vt 0.9734622 0.24883837
vt 0.034512997 0.40007228
vt 0.92150456 0.24883837
vt 0.9734622 0.14677867
vt 0.034512997 0.24883837
vt 0.92150456 0.14677867
vt 0.9734622 0.10131571
vt 0.034512997 0.14677867
vt 0.92150456 0.10131571
vt 0.9734622 0.08090377
vt 0.034512997 0.10131571
vt 0.92150456 0.08090377
vt 0.6431599 0.06049183
vt 0.034512997 0.08090377
vt 0.9734622 0.60140824
vt 0.92150456 0.9836682
vt 0.97439003 0.9836682
vt 0.92150456 0.60140824
vt 0.034512997 0.9836682
vt 0.9734622 0.40007228
vt 0.034512997 0.60140824
vt 0.92150456 0.40007228
vt 0.9734622 0.24883837
vt 0.034512997 0.40007228
vt 0.92150456 0.24883837
vt 0.9734622 0.14677867
vt 0.034512997 0.24883837
vt 0.92150456 0.14677867
vt 0.9734622 0.10131571
vt 0.034512997 0.14677867
vt 0.92150456 0.10131571
vt 0.9734622 0.08090377
vt 0.034512997 0.10131571
vt 0.92150456 0.08090377
vt 0.6431599 0.06049183
vt 0.034512997 0.08090377
vt 0.92150456 0.9836682
vt 0.9734622 0.60140824
vt 0.97439003 0.9836682
vt 0.92150456 0.60140824
vt 0.034512997 0.9836682
vt 0.9734622 0.40007228
vt 0.034512997 0.60140824
vt 0.92150456 0.40007228
vt 0.9734622 0.24883837
vt 0.034512997 0.40007228
vt 0.92150456 0.24883837
vt 0.9734622 0.14677867
vt 0.034512997 0.24883837
vt 0.92150456 0.14677867
vt 0.9734622 0.10131571
vt 0.034512997 0.14677867
vt 0.92150456 0.10131571
vt 0.9734622 0.08090377
vt 0.034512997 0.10131571
vt 0.92150456 0.08090377
vt 0.6431599 0.06049183
vt 0.034512997 0.08090377
vn -0.047822237 -0.72580266 -0.6862387
vn 0.010866523 -0.06955534 -0.9975189
vn -0.13318777 -0.731138 -0.66910255
vn -0.047822237 -0.72580266 -0.6862387
vn 0.026872575 -0.07489067 -0.9968296
vn 0.14425015 0.62937474 -0.7635963
vn 0.11223805 -0.69912595 -0.7061342
vn 0.085561335 0.6187041 -0.780951
vn 0.05888462 -0.080226004 -0.9950359
vn 0.25629237 -0.64577246 -0.71923023
vn -0.021145523 0.58135664 -0.813374
vn 0.090896726 -0.07489067 -0.9930404
vn 0.3843406 -0.5710777 -0.72536373
vn -0.11718172 0.53333855 -0.8377461
vn 0.11223805 -0.05888462 -0.9919351
vn 0.4910475 -0.4803768 -0.7267121
vn -0.2025472 0.4746498 -0.85655254
vn 0.13891482 -0.037543237 -0.98959243
vn 0.58174837 -0.35232857 -0.7330985
vn -0.27190673 0.42129636 -0.86520296
vn 0.14425015 0.010474861 -0.9894858
vn 0.13891482 0.042486906 -0.9893925
vn -0.35193682 0.37327826 -0.8583728
vn -0.13318777 -0.731138 0.66910255
vn 0.010866523 -0.06955534 0.9975189
vn -0.047822237 -0.72580266 0.6862387
vn -0.047822237 -0.72580266 0.6862387
vn 0.026872575 -0.07489067 0.9968296
vn 0.14425015 0.62937474 0.7635963
vn 0.11223805 -0.69912595 0.7061342
vn 0.085561335 0.6187041 0.780951
vn 0.05888462 -0.080226004 0.9950359
vn 0.25629237 -0.64577246 0.71923023
vn -0.021145523 0.58135664 0.813374
vn 0.090896726 -0.07489067 0.9930404
vn 0.3843406 -0.5710777 0.72536373
vn -0.11718172 0.53333855 0.8377461
vn 0.11223805 -0.05888462 0.9919351
vn 0.4910475 -0.4803768 0.7267121
vn -0.2025472 0.4746498 0.85655254
vn 0.13891482 -0.037543237 0.98959243
vn 0.58174837 -0.35232857 0.7330985
vn -0.27190673 0.42129636 0.86520296
vn 0.14425015 0.010474861 0.9894858
vn 0.13891482 0.042486906 0.9893925
vn -0.35193682 0.37327826 0.8583728
vn -0.037151575 -0.6617785 -0.7487783
vn 0.032207906 -0.04821396 -0.9983176
vn -0.10651106 -0.6617785 -0.74209476
vn 0.042878628 -0.042878628 -0.99815977
vn 0.15492082 0.586692 -0.7948535
vn 0.11223805 -0.64577246 -0.75523543
vn 0.09623206 0.5920273 -0.8001519
vn 0.06955534 -0.037543237 -0.9968714
vn 0.250957 -0.59775436 -0.7613871
vn -0.00513947 0.586692 -0.8097939
vn 0.090896726 -0.026872575 -0.9954977
vn 0.3843406 -0.5390656 -0.74946016
vn -0.10651106 0.55468 -0.82521844
vn 0.10690272 -0.010866523 -0.9942101
vn 0.50171816 -0.45903546 -0.73318845
vn -0.20788258 0.5226679 -0.82680297
vn 0.1282441 0.015810192 -0.9916166
vn 0.6137604 -0.32565185 -0.7192003
vn -0.2985834 0.48532045 -0.8217737
vn 0.15492082 0.07449895 -0.9851139
vn 0.16559154 0.11718172 -0.97920775
vn -0.37327826 0.44263768 -0.815313
vn 0.032207906 -0.04821396 0.9983176
vn -0.037151575 -0.6617785 0.7487783
vn -0.10651106 -0.6617785 0.74209476
vn 0.042878628 -0.042878628 0.99815977
vn 0.15492082 0.586692 0.7948535
vn 0.11223805 -0.64577246 0.75523543
vn 0.09623206 0.5920273 0.8001519
vn 0.06955534 -0.037543237 0.9968714
vn 0.250957 -0.59775436 0.7613871
vn -0.00513947 0.586692 0.8097939
vn 0.090896726 -0.026872575 0.9954977
vn 0.3843406 -0.5390656 0.74946016
vn -0.10651106 0.55468 0.82521844
vn 0.10690272 -0.010866523 0.9942101
vn 0.50171816 -0.45903546 0.73318845
vn -0.20788258 0.5226679 0.82680297
vn 0.1282441 0.015810192 0.9916166
vn 0.6137604 -0.32565185 0.7192003
vn -0.2985834 0.48532045 0.8217737
vn 0.15492082 0.07449895 0.9851139
vn 0.16559154 0.11718172 0.97920775
vn -0.37327826 0.44263768 0.815313
g mesh_claw_0
f 3/3/3 2/2/2 1/1/1
f 5/5/5 4/4/4 2/2/2
f 6/6/6 5/5/5 2/2/2
f 4/4/4 5/5/5 7/7/7
f 5/5/5 6/6/6 8/8/8
f 9/9/9 7/7/7 5/5/5
f 5/5/5 8/8/8 9/9/9
f 7/7/7 9/9/9 10/10/10
f 9/9/9 8/8/8 11/11/11
f 12/12/12 10/10/10 9/9/9
f 9/9/9 11/11/11 12/12/12
f 10/10/10 12/12/12 13/13/13
f 14/14/14 12/12/12 11/11/11
f 15/15/15 13/13/13 12/12/12
f 12/12/12 14/14/14 15/15/15
f 16/16/16 13/13/13 15/15/15
f 17/17/17 15/15/15 14/14/14
f 18/18/18 16/16/16 15/15/15
f 15/15/15 17/17/17 18/18/18
f 19/19/19 16/16/16 18/18/18
f 20/20/20 18/18/18 17/17/17
f 18/18/18 21/21/21 19/19/19
f 21/21/21 18/18/18 20/20/20
f 19/19/19 21/21/21 22/22/22
f 20/20/20 23/23/23 21/21/21
f 21/21/21 23/23/23 22/22/22
f 26/26/26 25/25/25 24/24/24
f 28/28/28 25/25/25 27/27/27
f 25/25/25 28/28/28 29/29/29
f 30/30/30 28/28/28 27/27/27
f 31/31/31 29/29/29 28/28/28
f 32/32/32 28/28/28 30/30/30
f 28/28/28 32/32/32 31/31/31
f 33/33/33 32/32/32 30/30/30
f 34/34/34 31/31/31 32/32/32
f 32/32/32 33/33/33 35/35/35
f 35/35/35 34/34/34 32/32/32
f 36/36/36 35/35/35 33/33/33
f 37/37/37 34/34/34 35/35/35
f 35/35/35 36/36/36 38/38/38
f 38/38/38 37/37/37 35/35/35
f 39/39/39 38/38/38 36/36/36
f 40/40/40 37/37/37 38/38/38
f 38/38/38 39/39/39 41/41/41
f 41/41/41 40/40/40 38/38/38
f 42/42/42 41/41/41 39/39/39
f 40/40/40 41/41/41 43/43/43
f 42/42/42 44/44/44 41/41/41
f 44/44/44 43/43/43 41/41/41
f 44/44/44 42/42/42 45/45/45
f 43/43/43 44/44/44 46/46/46
f 46/46/46 44/44/44 45/45/45
f 49/49/49 48/48/48 47/47/47
f 47/47/47 48/48/48 50/50/50
f 51/51/51 50/50/50 48/48/48
f 47/47/47 50/50/50 52/52/52
f 50/50/50 51/51/51 53/53/53
f 54/54/54 52/52/52 50/50/50
f 53/53/53 54/54/54 50/50/50
f 52/52/52 54/54/54 55/55/55
f 54/54/54 53/53/53 56/56/56
f 57/57/57 55/55/55 54/54/54
f 54/54/54 56/56/56 57/57/57
f 55/55/55 57/57/57 58/58/58
f 57/57/57 56/56/56 59/59/59
f 60/60/60 58/58/58 57/57/57
f 57/57/57 59/59/59 60/60/60
f 61/61/61 58/58/58 60/60/60
f 62/62/62 60/60/60 59/59/59
f 63/63/63 61/61/61 60/60/60
f 60/60/60 62/62/62 63/63/63
f 64/64/64 61/61/61 63/63/63
f 65/65/65 63/63/63 62/62/62
f 63/63/63 66/66/66 64/64/64
f 66/66/66 63/63/63 65/65/65
f 64/64/64 66/66/66 67/67/67
f 65/65/65 68/68/68 66/66/66
f 66/66/66 68/68/68 67/67/67
f 71/71/71 70/70/70 69/69/69
f 72/72/72 69/69/69 70/70/70
f 69/69/69 72/72/72 73/73/73
f 74/74/74 72/72/72 70/70/70
f 75/75/75 73/73/73 72/72/72
f 76/76/76 72/72/72 74/74/74
f 72/72/72 76/76/76 75/75/75
f 77/77/77 76/76/76 74/74/74
f 78/78/78 75/75/75 76/76/76
f 79/79/79 76/76/76 77/77/77
f 76/76/76 79/79/79 78/78/78
f 80/80/80 79/79/79 77/77/77
f 81/81/81 78/78/78 79/79/79
f 79/79/79 80/80/80 82/82/82
f 82/82/82 81/81/81 79/79/79
f 83/83/83 82/82/82 80/80/80
f 84/84/84 81/81/81 82/82/82
f 82/82/82 83/83/83 85/85/85
f 85/85/85 84/84/84 82/82/82
f 86/86/86 85/85/85 83/83/83
f 84/84/84 85/85/85 87/87/87
f 86/86/86 88/88/88 85/85/85
f 88/88/88 87/87/87 85/85/85
f 88/88/88 86/86/86 89/89/89
f 88/88/88 90/90/90 87/87/87
f 90/90/90 88/88/88 89/89/89
