g mesh_ring_quarter
v -0.9134681 0.723916 2.2279909
v -0 0 2.3426476
v -0.9134681 -7.6293944E-08 2.3426476
v -3.8146972E-08 0.7239162 2.2279909
v 0.9134681 7.6293944E-08 2.3426476
v -0.9134681 1.3769727 1.8952427
v 0.9134681 0.7239162 2.2279909
v -7.6293944E-08 1.3769727 1.8952427
v -0.91346824 1.895241 1.3769749
v 0.91346806 1.3769727 1.8952427
v -7.6293944E-08 1.895241 1.3769749
v -0.91346824 2.22799 0.7239189
v 0.913468 1.895241 1.3769749
v -7.6293944E-08 2.2279902 0.723919
v -0.91346824 2.3426476 7.629394E-07
v 0.913468 2.2279902 0.723919
v -7.6293944E-08 2.3426476 7.633315E-07
v 0.913468 2.3426476 7.629394E-07
vt -2.9802322E-08 0.20059833
vt 0.50000006 8.195639E-08
vt -2.9802322E-08 8.195639E-08
vt 0.50000006 0.20059833
vt 0.99950004 -8.195639E-08
vt -2.9802322E-08 0.4001997
vt 0.99950004 0.20059833
vt 0.50000006 0.40019935
vt -2.9802322E-08 0.59980077
vt 0.99950004 0.40019935
vt 0.50000006 0.59980047
vt 2.9802322E-08 0.79940194
vt 0.99950004 0.59980047
vt 0.50000006 0.79940194
vt 2.9802322E-08 1.0000001
vt 0.99950004 0.79940194
vt 0.50000006 0.9999999
vt 0.99950004 0.9999999
vn -0 0.3090164 0.95105666
vn -0 0.15643398 0.9876885
vn -0 0.15643398 0.9876885
vn -0 0.3090164 0.95105666
vn -0 0.15643395 0.9876885
vn -0 0.58778477 0.80901736
vn -0 0.30901635 0.95105666
vn -0 0.58778477 0.80901736
vn -0 0.80901664 0.58778566
vn -0 0.58778477 0.80901736
vn -0 0.80901664 0.58778566
vn -0 0.95105636 0.3090174
vn -0 0.80901664 0.5877858
vn -0 0.95105636 0.3090174
vn -0 0.98768824 0.15643485
vn -0 0.95105636 0.30901742
vn -0 0.98768824 0.15643485
vn -0 0.98768824 0.15643485
g mesh_ring_quarter_0
f 3/3/3 2/2/2 1/1/1
f 2/2/2 4/4/4 1/1/1
f 2/2/2 5/5/5 4/4/4
f 1/1/1 4/4/4 6/6/6
f 5/5/5 7/7/7 4/4/4
f 4/4/4 8/8/8 6/6/6
f 4/4/4 7/7/7 8/8/8
f 6/6/6 8/8/8 9/9/9
f 7/7/7 10/10/10 8/8/8
f 8/8/8 11/11/11 9/9/9
f 8/8/8 10/10/10 11/11/11
f 9/9/9 11/11/11 12/12/12
f 10/10/10 13/13/13 11/11/11
f 11/11/11 14/14/14 12/12/12
f 11/11/11 13/13/13 14/14/14
f 12/12/12 14/14/14 15/15/15
f 13/13/13 16/16/16 14/14/14
f 14/14/14 17/17/17 15/15/15
f 14/14/14 16/16/16 17/17/17
f 16/16/16 18/18/18 17/17/17
