g mesh_razorshell
v -0.0001161098 0.1294941 -0.09740502
v -0.0001161098 0.2192135 -0.07074922
v -0.1418468 0.1951583 -0.06619826
v -0.1457476 0.1268935 -0.08505234
v -0.1392462 0.03132284 -0.08570248
v -0.0001161098 0.03262314 -0.09870529
v -0.0001161098 -0.06554812 -0.08570248
v -0.1320947 -0.05774641 -0.07595035
v -0.1249431 -0.1409644 -0.05969685
v -0.0001161098 -0.1546174 -0.06554812
v -0.1301442 0.2406681 0.0001161098
v -0.0001161098 0.2575718 0.0001161098
v -0.2406681 0.1223426 -0.05189517
v -0.1971087 0.1685025 -0.05904672
v -0.2575718 0.02807215 -0.0460439
v -0.2413183 -0.05904672 -0.03824219
v -0.1977589 -0.1383639 -0.03564164
v -0.1587504 -0.185174 -0.03434137
v -0.2211639 -0.1565678 0.0001161098
v -0.1646017 -0.2124799 0.0001161098
v -0.1158411 -0.2189813 -0.03044051
v -0.1021882 -0.2501881 0.0001161098
v -0.06187946 -0.2436867 -0.02458924
v -0.0001161098 -0.2423864 -0.03239095
v -0.2692744 -0.0733498 0.0001161098
v -0.2946298 0.02222088 0.0001161098
v -0.277076 0.128844 0.0001161098
v -0.2211639 0.1958084 0.0001161098
v -0.06252959 -0.2859458 -0.02653968
v -0.0001161098 -0.2872461 -0.03304109
v -0.0001161098 -0.3321058 -0.02718982
v -0.06317973 -0.3282049 -0.02198869
v -0.11064 -0.2839954 0.0001161098
v -0.09958762 -0.3288551 0.0001161098
v -0.06513017 -0.3574613 0.0001161098
v -0.0001161098 -0.3704641 0.0001161098
v 0.06294754 -0.2859458 -0.02653968
v 0.0622974 -0.2436867 -0.02458924
v 0.06294754 -0.3282049 -0.02198869
v 0.1104078 -0.2839954 0.0001161098
v 0.101956 -0.2501881 0.0001161098
v 0.1156089 -0.2189813 -0.03044051
v 0.1650196 -0.2124799 0.0001161098
v 0.1585182 -0.185174 -0.03434137
v 0.2209317 -0.1565678 0.0001161098
v 0.1981768 -0.1383639 -0.03564164
v 0.1247109 -0.1409644 -0.05969685
v 0.1318625 -0.05774641 -0.07595035
v 0.139014 0.03132284 -0.08570248
v 0.1461655 0.1268935 -0.08505234
v 0.1422647 0.1951583 -0.06619826
v 0.1305622 0.2406681 0.0001161098
v 0.240436 0.1223426 -0.05189517
v 0.1975267 0.1685025 -0.05904672
v 0.2573396 0.02807215 -0.0460439
v 0.2410861 -0.05904672 -0.03824219
v 0.2690421 -0.0733498 0.0001161098
v 0.2943976 0.02222088 0.0001161098
v 0.2768438 0.128844 0.0001161098
v 0.2209317 0.1958084 0.0001161098
v 0.1000056 -0.3288551 0.0001161098
v 0.06489798 -0.3574613 0.0001161098
v -0.0001161098 0.1294941 0.09763721
v -0.1457476 0.1268935 0.08528453
v -0.1418468 0.1951583 0.06578031
v -0.0001161098 0.2192135 0.07098144
v -0.1392462 0.03132284 0.08593467
v -0.0001161098 0.03262314 0.09828734
v -0.0001161098 -0.06554812 0.08593467
v -0.1320947 -0.05774641 0.07553241
v -0.1249431 -0.1409644 0.05992904
v -0.0001161098 -0.1546174 0.06578031
v -0.1301442 0.2406681 0.0001161098
v -0.0001161098 0.2575718 0.0001161098
v -0.2406681 0.1223426 0.05212736
v -0.1971087 0.1685025 0.05862877
v -0.2575718 0.02807215 0.04627609
v -0.2413183 -0.05904672 0.03782424
v -0.1977589 -0.1383639 0.03587383
v -0.1587504 -0.185174 0.03457355
v -0.2211639 -0.1565678 0.0001161098
v -0.1646017 -0.2124799 0.0001161098
v -0.1158411 -0.2189813 0.0306727
v -0.1021882 -0.2501881 0.0001161098
v -0.06187946 -0.2436867 0.02482143
v -0.0001161098 -0.2423864 0.03262314
v -0.2692744 -0.0733498 0.0001161098
v -0.2946298 0.02222088 0.0001161098
v -0.277076 0.128844 0.0001161098
v -0.2211639 0.1958084 0.0001161098
v -0.06252959 -0.2859458 0.02612174
v -0.0001161098 -0.2872461 0.03327328
v -0.0001161098 -0.3321058 0.02742201
v -0.06317973 -0.3282049 0.02222088
v -0.11064 -0.2839954 0.0001161098
v -0.09958762 -0.3288551 0.0001161098
v -0.06513017 -0.3574613 0.0001161098
v -0.0001161098 -0.3704641 0.0001161098
v 0.06294754 -0.2859458 0.02612174
v 0.0622974 -0.2436867 0.02482143
v 0.06294754 -0.3282049 0.02222088
v 0.1104078 -0.2839954 0.0001161098
v 0.101956 -0.2501881 0.0001161098
v 0.1156089 -0.2189813 0.0306727
v 0.1650196 -0.2124799 0.0001161098
v 0.1585182 -0.185174 0.03457355
v 0.2209317 -0.1565678 0.0001161098
v 0.1981768 -0.1383639 0.03587383
v 0.1247109 -0.1409644 0.05992904
v 0.1318625 -0.05774641 0.07553241
v 0.139014 0.03132284 0.08593467
v 0.1461655 0.1268935 0.08528453
v 0.1422647 0.1951583 0.06578031
v 0.1305622 0.2406681 0.0001161098
v 0.240436 0.1223426 0.05212736
v 0.1975267 0.1685025 0.05862877
v 0.2573396 0.02807215 0.04627609
v 0.2410861 -0.05904672 0.03782424
v 0.2690421 -0.0733498 0.0001161098
v 0.2943976 0.02222088 0.0001161098
v 0.2768438 0.128844 0.0001161098
v 0.2209317 0.1958084 0.0001161098
v 0.1000056 -0.3288551 0.0001161098
v 0.06489798 -0.3574613 0.0001161098
vt 0.3072824 0.8274758
vt 0.3034854 0.9110105
vt 0.4363815 0.8920253
vt 0.4363815 0.8274758
vt 0.4325845 0.7401441
vt 0.3072824 0.7401441
vt 0.3072824 0.6452183
vt 0.4287874 0.6566094
vt 0.4211934 0.5806687
vt 0.3072824 0.5616835
vt 0.4363815 0.9641689
vt 0.3034854 0.9831541
vt 0.5275103 0.8274758
vt 0.4857429 0.8692431
vt 0.5464954 0.7401441
vt 0.5351043 0.6566094
vt 0.493337 0.5844657
vt 0.4591637 0.5389014
vt 0.5275103 0.5578865
vt 0.4743518 0.5047281
vt 0.4173964 0.5047281
vt 0.4135993 0.4667578
vt 0.3680349 0.4743518
vt 0.3072824 0.4781488
vt 0.5730746 0.6414212
vt 0.5996539 0.73255
vt 0.5806687 0.8426639
vt 0.5275103 0.9148075
vt 0.3680349 0.4363815
vt 0.3072824 0.4401785
vt 0.3072824 0.3946142
vt 0.3642379 0.3984112
vt 0.4173964 0.4325845
vt 0.4060053 0.3908171
vt 0.371832 0.3642379
vt 0.3072824 0.3528468
vt 0.250327 0.4363815
vt 0.2465299 0.4743518
vt 0.250327 0.3984112
vt 0.2009656 0.4325845
vt 0.2009656 0.4629607
vt 0.1971685 0.5047281
vt 0.140213 0.5009311
vt 0.1591982 0.5389014
vt 0.0870546 0.5540895
vt 0.1212279 0.5806687
vt 0.1933715 0.5806687
vt 0.1857774 0.6566094
vt 0.1819804 0.736347
vt 0.1743863 0.8236787
vt 0.1743863 0.8882283
vt 0.1743863 0.9641689
vt 0.08325757 0.8236787
vt 0.1250249 0.8654461
vt 0.06806944 0.736347
vt 0.07946053 0.6528123
vt 0.04149022 0.6376242
vt 0.014911 0.728753
vt 0.03009913 0.8388669
vt 0.08325757 0.9110105
vt 0.2123566 0.3908171
vt 0.2465299 0.3642379
vt 0.6869856 0.1743863
vt 0.8198817 0.1705893
vt 0.8160847 0.1060398
vt 0.6869856 0.0870546
vt 0.8160847 0.257921
vt 0.6869856 0.2617181
vt 0.6907827 0.3528468
vt 0.8122876 0.3414557
vt 0.8046936 0.4173964
vt 0.6907827 0.4363815
vt 0.8160847 0.03389616
vt 0.6869856 0.014911
vt 0.9072134 0.1705893
vt 0.8692431 0.128822
vt 0.9261986 0.257921
vt 0.9148075 0.3414557
vt 0.8768372 0.4135993
vt 0.8426639 0.4591637
vt 0.9110105 0.4401785
vt 0.857852 0.497134
vt 0.8008966 0.493337
vt 0.7970995 0.5351043
vt 0.7515351 0.5237132
vt 0.6907827 0.5199162
vt 0.9565749 0.3566439
vt 0.9793571 0.2617181
vt 0.9641689 0.1554012
vt 0.9072134 0.08325757
vt 0.7515351 0.5616835
vt 0.6907827 0.5616835
vt 0.6945797 0.6034509
vt 0.7515351 0.5996539
vt 0.8008966 0.5654806
vt 0.7895055 0.6072479
vt 0.7553322 0.6338271
vt 0.6945797 0.6452183
vt 0.6338271 0.5616835
vt 0.6300302 0.5237132
vt 0.6376242 0.6034509
vt 0.5844657 0.5692776
vt 0.5882628 0.5351043
vt 0.5806687 0.497134
vt 0.5275103 0.5009311
vt 0.5426984 0.4629607
vt 0.4705548 0.4439756
vt 0.5047281 0.4211934
vt 0.5768717 0.4211934
vt 0.5692776 0.3452528
vt 0.5616835 0.2617181
vt 0.5540895 0.1743863
vt 0.5578865 0.1098368
vt 0.5540895 0.03769319
vt 0.4667578 0.1781834
vt 0.5047281 0.132619
vt 0.4477726 0.2655151
vt 0.4629607 0.3452528
vt 0.4211934 0.3642379
vt 0.3984112 0.2693121
vt 0.4098023 0.1629952
vt 0.4629607 0.09085163
vt 0.5958568 0.6110449
vt 0.6300302 0.6338271
vn -0.01587105 0.1428392 -0.9896187
vn -0.01587105 0.6189697 -0.7852545
vn -0.2380652 0.5872276 -0.7736205
vn -0.2063233 0.1428392 -0.9680019
vn -0.2063233 -0.07935506 -0.9752607
vn -0.01587105 -0.04761302 -0.9987398
vn -0.01587105 -0.1745812 -0.9845148
vn -0.2063233 -0.1745812 -0.9627835
vn -0.1745812 -0.2698073 -0.9469559
vn -0.01587105 -0.3015493 -0.9533185
vn -0.2684583 0.9632913 0
vn -0.01587105 0.999874 -0.000345267
vn -0.5872276 0.2380652 -0.7736205
vn -0.4602594 0.4920015 -0.7389829
vn -0.5872276 -0.04761302 -0.8080203
vn -0.5554856 -0.2380652 -0.7967187
vn -0.4920015 -0.3650333 -0.7903703
vn -0.3967754 -0.4920015 -0.7749218
vn -0.8094218 -0.5872276 -0.000422864
vn -0.6189697 -0.7776798 -0.1099576
vn -0.2698073 -0.5554855 -0.7865366
vn -0.7459378 -0.6507117 -0.1419546
vn -0.2380652 -0.2380652 -0.9416209
vn -0.01587105 -0.1745812 -0.9845148
vn -0.9207517 -0.390149 0
vn -0.9988682 -0.04756513 0
vn -0.9046479 0.3967754 -0.1555036
vn -0.6189697 0.7776798 -0.1099576
vn -0.3015493 -0.01587099 -0.9533185
vn -0.01587105 -0.04761302 -0.9987398
vn -0.01587105 -0.3650333 -0.9308591
vn -0.3015493 -0.3332914 -0.8933
vn -0.999874 -0.01587099 -0.000346655
vn -0.891278 -0.4534572 0
vn -0.390149 -0.9207517 0
vn -0.01587105 -0.999874 -0.000345267
vn 0.3015493 -0.01587099 -0.9533185
vn 0.2380652 -0.2380652 -0.9416209
vn 0.3015493 -0.3332914 -0.8933
vn 0.999874 -0.01587099 -0.000346655
vn 0.7459377 -0.6507117 -0.1419552
vn 0.2698073 -0.5554855 -0.7865366
vn 0.6189696 -0.7776798 -0.1099579
vn 0.3967754 -0.4920015 -0.7749218
vn 0.8094218 -0.5872276 -0.000422864
vn 0.4920015 -0.3650333 -0.7903703
vn 0.1745812 -0.2698073 -0.9469559
vn 0.2063232 -0.1745812 -0.9627835
vn 0.2063232 -0.07935506 -0.9752607
vn 0.2063232 0.1428392 -0.9680019
vn 0.2380652 0.5872276 -0.7736205
vn 0.2684582 0.9632913 0
vn 0.5872276 0.2380652 -0.7736205
vn 0.4602594 0.4920015 -0.7389829
vn 0.5872276 -0.04761302 -0.8080203
vn 0.5554855 -0.2380652 -0.7967187
vn 0.9207517 -0.390149 0
vn 0.9988682 -0.04756513 0
vn 0.9046479 0.3967754 -0.155504
vn 0.6189696 0.7776798 0.1099579
vn 0.891278 -0.4534572 0
vn 0.390149 -0.9207517 0
vn -0.01587105 0.1428392 0.9896187
vn -0.2063233 0.1428392 0.9680019
vn -0.2380652 0.5872276 0.7736205
vn -0.01587105 0.6189697 0.7852545
vn -0.2063233 -0.07935506 0.9752607
vn -0.01587105 -0.04761302 0.9987398
vn -0.01587105 -0.1745812 0.9845148
vn -0.2063233 -0.1745812 0.9627835
vn -0.1745812 -0.2698073 0.9469559
vn -0.01587105 -0.3015493 0.9533185
vn -0.2684583 0.9632913 0
vn -0.01587105 0.999874 -0.000345267
vn -0.5872276 0.2380652 0.7736205
vn -0.4602594 0.4920015 0.7389829
vn -0.5872276 -0.04761302 0.8080203
vn -0.5554856 -0.2380652 0.7967187
vn -0.4920015 -0.3650333 0.7903703
vn -0.3967754 -0.4920015 0.7749218
vn -0.8094218 -0.5872276 -0.000422864
vn -0.6189697 -0.7776798 -0.1099576
vn -0.2698073 -0.5554855 0.7865366
vn -0.7459378 -0.6507117 -0.1419546
vn -0.2380652 -0.2380652 0.9416209
vn -0.01587105 -0.1745812 0.9845148
vn -0.9207517 -0.390149 0
vn -0.9988682 -0.04756513 0
vn -0.9046479 0.3967754 -0.1555036
vn -0.6189697 0.7776798 -0.1099576
vn -0.3015493 -0.01587099 0.9533185
vn -0.01587105 -0.04761302 0.9987398
vn -0.01587105 -0.3650333 0.9308591
vn -0.3015493 -0.3332914 0.8933
vn -0.999874 -0.01587099 -0.000346655
vn -0.891278 -0.4534572 0
vn -0.390149 -0.9207517 0
vn -0.01587105 -0.999874 -0.000345267
vn 0.3015493 -0.01587099 0.9533185
vn 0.2380652 -0.2380652 0.9416209
vn 0.3015493 -0.3332914 0.8933
vn 0.999874 -0.01587099 -0.000346655
vn 0.7459377 -0.6507117 -0.1419552
vn 0.2698073 -0.5554855 0.7865366
vn 0.6189696 -0.7776798 -0.1099579
vn 0.3967754 -0.4920015 0.7749218
vn 0.8094218 -0.5872276 -0.000422864
vn 0.4920015 -0.3650333 0.7903703
vn 0.1745812 -0.2698073 0.9469559
vn 0.2063232 -0.1745812 0.9627835
vn 0.2063232 -0.07935506 0.9752607
vn 0.2063232 0.1428392 0.9680019
vn 0.2380652 0.5872276 0.7736205
vn 0.2684582 0.9632913 0
vn 0.5872276 0.2380652 0.7736205
vn 0.4602594 0.4920015 0.7389829
vn 0.5872276 -0.04761302 0.8080203
vn 0.5554855 -0.2380652 0.7967187
vn 0.9207517 -0.390149 0
vn 0.9988682 -0.04756513 0
vn 0.9046479 0.3967754 -0.155504
vn 0.6189696 0.7776798 0.1099579
vn 0.891278 -0.4534572 0
vn 0.390149 -0.9207517 0
g mesh_razorshell_0
f 3/3/3 2/2/2 1/1/1
f 4/4/4 3/3/3 1/1/1
f 4/4/4 1/1/1 5/5/5
f 1/1/1 6/6/6 5/5/5
f 5/5/5 6/6/6 7/7/7
f 8/8/8 5/5/5 7/7/7
f 8/8/8 7/7/7 9/9/9
f 7/7/7 10/10/10 9/9/9
f 2/2/2 3/3/3 11/11/11
f 12/12/12 2/2/2 11/11/11
f 13/13/13 4/4/4 5/5/5
f 14/14/14 4/4/4 13/13/13
f 3/3/3 4/4/4 14/14/14
f 15/15/15 13/13/13 5/5/5
f 5/5/5 8/8/8 16/16/16
f 15/15/15 5/5/5 16/16/16
f 8/8/8 9/9/9 17/17/17
f 16/16/16 8/8/8 17/17/17
f 18/18/18 17/17/17 9/9/9
f 19/19/19 17/17/17 18/18/18
f 20/20/20 19/19/19 18/18/18
f 20/20/20 18/18/18 21/21/21
f 21/21/21 18/18/18 9/9/9
f 22/22/22 20/20/20 21/21/21
f 21/21/21 23/23/23 22/22/22
f 21/21/21 9/9/9 23/23/23
f 9/9/9 10/10/10 23/23/23
f 23/23/23 10/10/10 24/24/24
f 25/25/25 16/16/16 17/17/17
f 19/19/19 25/25/25 17/17/17
f 26/26/26 15/15/15 16/16/16
f 25/25/25 26/26/26 16/16/16
f 27/27/27 13/13/13 15/15/15
f 26/26/26 27/27/27 15/15/15
f 28/28/28 14/14/14 13/13/13
f 27/27/27 28/28/28 13/13/13
f 14/14/14 28/28/28 3/3/3
f 28/28/28 11/11/11 3/3/3
f 23/23/23 24/24/24 29/29/29
f 24/24/24 30/30/30 29/29/29
f 29/29/29 30/30/30 31/31/31
f 32/32/32 29/29/29 31/31/31
f 33/33/33 22/22/22 23/23/23
f 29/29/29 33/33/33 23/23/23
f 29/29/29 32/32/32 34/34/34
f 33/33/33 29/29/29 34/34/34
f 34/34/34 32/32/32 35/35/35
f 35/35/35 32/32/32 31/31/31
f 36/36/36 35/35/35 31/31/31
f 30/30/30 24/24/24 37/37/37
f 30/30/30 37/37/37 31/31/31
f 24/24/24 38/38/38 37/37/37
f 10/10/10 38/38/38 24/24/24
f 37/37/37 39/39/39 31/31/31
f 40/40/40 37/37/37 38/38/38
f 41/41/41 40/40/40 38/38/38
f 38/38/38 42/42/42 41/41/41
f 43/43/43 41/41/41 42/42/42
f 44/44/44 43/43/43 42/42/42
f 45/45/45 43/43/43 44/44/44
f 46/46/46 45/45/45 44/44/44
f 46/46/46 44/44/44 47/47/47
f 44/44/44 42/42/42 47/47/47
f 47/47/47 42/42/42 38/38/38
f 47/47/47 38/38/38 10/10/10
f 10/10/10 7/7/7 47/47/47
f 7/7/7 48/48/48 47/47/47
f 47/47/47 48/48/48 46/46/46
f 49/49/49 48/48/48 7/7/7
f 6/6/6 49/49/49 7/7/7
f 6/6/6 1/1/1 49/49/49
f 1/1/1 50/50/50 49/49/49
f 51/51/51 50/50/50 1/1/1
f 2/2/2 51/51/51 1/1/1
f 51/51/51 2/2/2 52/52/52
f 2/2/2 12/12/12 52/52/52
f 50/50/50 53/53/53 49/49/49
f 50/50/50 54/54/54 53/53/53
f 50/50/50 51/51/51 54/54/54
f 53/53/53 55/55/55 49/49/49
f 49/49/49 55/55/55 56/56/56
f 48/48/48 49/49/49 56/56/56
f 48/48/48 56/56/56 46/46/46
f 56/56/56 57/57/57 46/46/46
f 58/58/58 57/57/57 56/56/56
f 55/55/55 58/58/58 56/56/56
f 59/59/59 58/58/58 55/55/55
f 53/53/53 59/59/59 55/55/55
f 60/60/60 54/54/54 51/51/51
f 52/52/52 60/60/60 51/51/51
f 60/60/60 59/59/59 53/53/53
f 54/54/54 60/60/60 53/53/53
f 57/57/57 45/45/45 46/46/46
f 37/37/37 40/40/40 61/61/61
f 39/39/39 37/37/37 61/61/61
f 39/39/39 61/61/61 62/62/62
f 39/39/39 62/62/62 31/31/31
f 62/62/62 36/36/36 31/31/31
f 65/65/65 64/64/64 63/63/63
f 66/66/66 65/65/65 63/63/63
f 63/63/63 64/64/64 67/67/67
f 68/68/68 63/63/63 67/67/67
f 68/68/68 67/67/67 69/69/69
f 67/67/67 70/70/70 69/69/69
f 69/69/69 70/70/70 71/71/71
f 72/72/72 69/69/69 71/71/71
f 65/65/65 66/66/66 73/73/73
f 66/66/66 74/74/74 73/73/73
f 64/64/64 75/75/75 67/67/67
f 64/64/64 76/76/76 75/75/75
f 64/64/64 65/65/65 76/76/76
f 75/75/75 77/77/77 67/67/67
f 67/67/67 77/77/77 78/78/78
f 70/70/70 67/67/67 78/78/78
f 70/70/70 78/78/78 79/79/79
f 71/71/71 70/70/70 79/79/79
f 79/79/79 80/80/80 71/71/71
f 79/79/79 81/81/81 80/80/80
f 81/81/81 82/82/82 80/80/80
f 80/80/80 82/82/82 83/83/83
f 80/80/80 83/83/83 71/71/71
f 82/82/82 84/84/84 83/83/83
f 85/85/85 83/83/83 84/84/84
f 71/71/71 83/83/83 85/85/85
f 72/72/72 71/71/71 85/85/85
f 72/72/72 85/85/85 86/86/86
f 87/87/87 81/81/81 79/79/79
f 78/78/78 87/87/87 79/79/79
f 88/88/88 87/87/87 78/78/78
f 77/77/77 88/88/88 78/78/78
f 89/89/89 88/88/88 77/77/77
f 75/75/75 89/89/89 77/77/77
f 90/90/90 89/89/89 75/75/75
f 76/76/76 90/90/90 75/75/75
f 90/90/90 76/76/76 65/65/65
f 73/73/73 90/90/90 65/65/65
f 86/86/86 85/85/85 91/91/91
f 92/92/92 86/86/86 91/91/91
f 92/92/92 91/91/91 93/93/93
f 91/91/91 94/94/94 93/93/93
f 95/95/95 91/91/91 85/85/85
f 84/84/84 95/95/95 85/85/85
f 91/91/91 95/95/95 96/96/96
f 94/94/94 91/91/91 96/96/96
f 94/94/94 96/96/96 97/97/97
f 94/94/94 97/97/97 93/93/93
f 97/97/97 98/98/98 93/93/93
f 86/86/86 92/92/92 99/99/99
f 99/99/99 92/92/92 93/93/93
f 100/100/100 86/86/86 99/99/99
f 101/101/101 99/99/99 93/93/93
f 99/99/99 102/102/102 100/100/100
f 102/102/102 103/103/103 100/100/100
f 104/104/104 100/100/100 103/103/103
f 103/103/103 105/105/105 104/104/104
f 105/105/105 106/106/106 104/104/104
f 105/105/105 107/107/107 106/106/106
f 107/107/107 108/108/108 106/106/106
f 106/106/106 108/108/108 109/109/109
f 104/104/104 106/106/106 109/109/109
f 104/104/104 109/109/109 100/100/100
f 110/110/110 109/109/109 108/108/108
f 110/110/110 69/69/69 109/109/109
f 110/110/110 111/111/111 69/69/69
f 111/111/111 68/68/68 69/69/69
f 63/63/63 68/68/68 111/111/111
f 112/112/112 63/63/63 111/111/111
f 112/112/112 113/113/113 63/63/63
f 113/113/113 66/66/66 63/63/63
f 69/69/69 72/72/72 109/109/109
f 66/66/66 113/113/113 114/114/114
f 74/74/74 66/66/66 114/114/114
f 115/115/115 112/112/112 111/111/111
f 116/116/116 112/112/112 115/115/115
f 113/113/113 112/112/112 116/116/116
f 117/117/117 115/115/115 111/111/111
f 111/111/111 110/110/110 118/118/118
f 117/117/117 111/111/111 118/118/118
f 118/118/118 110/110/110 108/108/108
f 119/119/119 118/118/118 108/108/108
f 107/107/107 119/119/119 108/108/108
f 120/120/120 117/117/117 118/118/118
f 119/119/119 120/120/120 118/118/118
f 121/121/121 115/115/115 117/117/117
f 120/120/120 121/121/121 117/117/117
f 122/122/122 114/114/114 113/113/113
f 116/116/116 122/122/122 113/113/113
f 122/122/122 116/116/116 115/115/115
f 121/121/121 122/122/122 115/115/115
f 100/100/100 72/72/72 86/86/86
f 100/100/100 109/109/109 72/72/72
f 99/99/99 101/101/101 123/123/123
f 102/102/102 99/99/99 123/123/123
f 123/123/123 101/101/101 124/124/124
f 124/124/124 101/101/101 93/93/93
f 98/98/98 124/124/124 93/93/93
