g mesh_ring_8_sided
v 3.3974648E-06 -0.0017150193 0.21823148
v -0.1526105 -0.0049784184 0.1526105
v -0.15431546 -0.0017150193 0.15431546
v -0.21823148 -0.0017150193 3.2633543E-06
v -0.21582057 -0.0049784184 3.2633543E-06
v -0.1526105 -0.0049784184 -0.15261063
v -0.15431546 -0.0017150193 -0.15431559
v -3.2633543E-06 -0.0017150193 -0.2182316
v -3.2633543E-06 -0.0049784184 -0.21582069
v 0.15261063 -0.0049784184 -0.15261063
v 3.3974648E-06 -0.0017150193 0.21823148
v 3.3974648E-06 -0.0049784184 0.21582057
v -0.1526105 -0.0049784184 0.1526105
v 0.15261063 -0.0049784184 0.1526105
v 0.15431559 -0.0017150193 0.15431546
v 0.2182316 -0.0017150193 3.2633543E-06
v 0.21582069 -0.0049784184 3.2633543E-06
v 0.15261063 -0.0049784184 -0.15261063
v 0.15431559 -0.0017150193 -0.15431559
v -3.2633543E-06 -0.0017150193 -0.2182316
vt 0.009607196 0.5973119
vt 0.21573529 0.30969134
vt 0.08438855 0.22244643
vt 0.40268865 0.009607196
vt 0.4333682 0.16492231
vt 0.6903092 0.21573529
vt 0.77755415 0.08438855
vt 0.9903934 0.40268865
vt 0.8350783 0.4333682
vt 0.78426534 0.6903092
vt 0.009607196 0.5973119
vt 0.16492231 0.5666324
vt 0.21573529 0.30969134
vt 0.30969134 0.78426534
vt 0.22244643 0.91561204
vt 0.5973119 0.9903934
vt 0.5666324 0.8350783
vt 0.78426534 0.6903092
vt 0.91561204 0.77755415
vt 0.9903934 0.40268865
vn 0.0031504035 -0.59545356 0.8033835
vn -0.57024944 -0.59545356 0.5659069
vn -0.57024944 -0.59545356 0.5659069
vn -0.80338985 -0.59545344 -0
vn -0.80338985 -0.59545344 -0
vn -0.57024944 -0.59545356 -0.5659069
vn -0.57024944 -0.59545356 -0.5659069
vn -0.0031507015 -0.59545356 -0.8033835
vn -0.0031507015 -0.59545356 -0.8033835
vn 0.5702492 -0.59545356 -0.5659072
vn 0.0031504035 -0.59545356 0.8033835
vn 0.0031504035 -0.59545356 0.8033835
vn -0.57024944 -0.59545356 0.5659069
vn 0.5702492 -0.59545356 0.5659072
vn 0.5702492 -0.59545356 0.5659072
vn 0.8033898 -0.59545356 -0
vn 0.8033898 -0.59545356 -0
vn 0.5702492 -0.59545356 -0.5659072
vn 0.5702492 -0.59545356 -0.5659072
vn -0.0031507015 -0.59545356 -0.8033835
g mesh_ring_8_sided_0
f 3/3/3 2/2/2 1/1/1
f 2/2/2 3/3/3 4/4/4
f 4/4/4 5/5/5 2/2/2
f 6/6/6 5/5/5 4/4/4
f 7/7/7 6/6/6 4/4/4
f 6/6/6 7/7/7 8/8/8
f 8/8/8 9/9/9 6/6/6
f 9/9/9 8/8/8 10/10/10
f 13/13/13 12/12/12 11/11/11
f 11/11/11 12/12/12 14/14/14
f 14/14/14 15/15/15 11/11/11
f 15/15/15 14/14/14 16/16/16
f 17/17/17 16/16/16 14/14/14
f 16/16/16 17/17/17 18/18/18
f 18/18/18 19/19/19 16/16/16
f 20/20/20 19/19/19 18/18/18
