g mesh_moon
v 0.8974132 -0.3717151 1.460314E-05
v 0.8076526 -0.5396456 1.460314E-05
v 0.6952147 -0.3715965 0.2646422
v 0.5001011 -0.6093671 0.2646422
v 0.6868553 -0.6868553 1.460314E-05
v 0.5396456 -0.8076526 1.460314E-05
v 0.9526687 -0.1894964 1.460314E-05
v 0.3717151 -0.8974132 1.460314E-05
v 0.7845011 -0.07726604 0.2646422
v 0.9713441 1.460314E-05 1.460314E-05
v 0.3471999 -0.1053088 0.4486988
v 0.7543536 0.2288328 0.2646422
v 0.9526687 0.1894959 1.460314E-05
v 0.8974132 0.3717146 1.460314E-05
v 0.2288334 -0.7543536 0.2646422
v 0.1894964 -0.9526687 1.460314E-05
v -1.460314E-05 -0.9713441 1.460314E-05
v 0.6093671 0.5001006 0.2646422
v 0.8076526 0.5396451 1.460314E-05
v 0.6868553 0.6868548 1.460314E-05
v 0.5396456 0.8076521 1.460314E-05
v 0.1710285 -0.3199872 0.4486988
v -1.460314E-05 1.460314E-05 0.4856642
v -0.07726562 -0.7845011 0.2646422
v -0.1894959 -0.9526687 1.460314E-05
v 0.3199872 0.171028 0.4486988
v 0.3715965 0.6952143 0.2646422
v 0.3717151 0.8974127 1.460314E-05
v 0.1894964 0.9526682 1.460314E-05
v -0.1053083 -0.3471999 0.4486988
v -0.371596 -0.6952147 0.2646422
v -0.6093667 -0.5001011 0.2646422
v -0.3717146 -0.8974132 1.460314E-05
v -0.5396451 -0.8076526 1.460314E-05
v -0.6868548 -0.6868553 1.460314E-05
v -0.8076521 -0.5396456 1.460314E-05
v -0.8974127 -0.3717151 1.460314E-05
v 0.07726604 0.7845006 0.2646422
v 1.507998E-05 0.9713436 1.460314E-05
v -0.3199867 -0.1710285 0.4486988
v -0.754353 -0.2288334 0.2646422
v -0.9526682 -0.1894964 1.460314E-05
v -0.9713436 1.460314E-05 1.460314E-05
v -0.7845006 0.07726562 0.2646422
v -0.9526682 0.1894959 1.460314E-05
v -0.3471994 0.1053083 0.4486988
v -0.6952143 0.371596 0.2646422
v -0.5001006 0.6093667 0.2646422
v -0.8974127 0.3717146 1.460314E-05
v -0.8076521 0.5396451 1.460314E-05
v -0.6868548 0.6868548 1.460314E-05
v -0.5396451 0.8076521 1.460314E-05
v -0.3717146 0.8974127 1.460314E-05
v -0.171028 0.3199867 0.4486988
v -0.2288328 0.754353 0.2646422
v -0.1894959 0.9526682 1.460314E-05
v 0.1053088 0.3471994 0.4486988
vt 0.05798786 0.6828855
vt 0.1019552 0.7661428
vt 0.2282444 0.6454666
vt 0.3049534 0.7380786
vt 0.1618257 0.8381745
vt 0.2338573 0.8980449
vt 0.03085907 0.5930799
vt 0.3171146 0.9420123
vt 0.1936318 0.530403
vt 0.02150431 0.4995323
vt 0.3582755 0.5425643
vt 0.205793 0.4106622
vt 0.03085907 0.4069203
vt 0.05798786 0.3171146
vt 0.4106622 0.7942071
vt 0.4069203 0.9691411
vt 0.4995323 0.9784958
vt 0.2619215 0.3049534
vt 0.1019552 0.2338573
vt 0.1618257 0.1618257
vt 0.2338573 0.1019552
vt 0.4303071 0.6304989
vt 0.4995323 0.5004678
vt 0.530403 0.8063684
vt 0.5930799 0.9691411
vt 0.3695012 0.4303071
vt 0.3545336 0.2282444
vt 0.3171146 0.05798786
vt 0.4069203 0.03085907
vt 0.5425643 0.6417246
vt 0.6454666 0.7717557
vt 0.7380786 0.6950468
vt 0.6828855 0.9420123
vt 0.7661428 0.8980449
vt 0.8381745 0.8381745
vt 0.8980449 0.7661428
vt 0.9420123 0.6828855
vt 0.4695971 0.1936318
vt 0.5004678 0.02150431
vt 0.6304989 0.569693
vt 0.7942071 0.5893379
vt 0.9691411 0.5930799
vt 0.9784958 0.5004678
vt 0.8063684 0.4695971
vt 0.9691411 0.4069203
vt 0.6417246 0.4574359
vt 0.7717557 0.3545336
vt 0.6950468 0.2619215
vt 0.9420123 0.3171146
vt 0.8980449 0.2338573
vt 0.8381745 0.1618257
vt 0.7661428 0.1019552
vt 0.6828855 0.05798786
vt 0.569693 0.3695012
vt 0.5893379 0.205793
vt 0.5930799 0.03085907
vt 0.4574359 0.3582755
vn 0.7529954 -0.3108107 0.5799953
vn 0.6825022 -0.4517972 0.5745173
vn 0.5863751 -0.3108107 0.7480381
vn 0.4197548 -0.5158819 0.7467743
vn 0.5799667 -0.5799667 0.5720816
vn 0.4517972 -0.6760937 0.5820452
vn 0.8042632 -0.1570074 0.5731574
vn 0.3108107 -0.7529954 0.5799953
vn 0.6632768 -0.06728882 0.7453429
vn 0.8170801 -0.003204048 0.5765152
vn 0.259543 -0.08010572 0.9624035
vn 0.6376429 0.1954587 0.7451225
vn 0.8042632 0.1634163 0.5713632
vn 0.7529954 0.3108112 0.5799951
vn 0.1954582 -0.6376429 0.7451226
vn 0.1634159 -0.8042632 0.5713632
vn -0.003204405 -0.8170801 0.5765152
vn 0.5158819 0.4197552 0.746774
vn 0.6760937 0.4517975 0.582045
vn 0.5799667 0.579967 0.5720813
vn 0.4517972 0.6825025 0.5745169
vn 0.1249651 -0.2403176 0.9626168
vn 0.003204048 0.003204405 0.9999897
vn -0.06728917 -0.6632768 0.7453429
vn -0.1570078 -0.8042632 0.5731573
vn 0.2403176 0.1249654 0.9626168
vn 0.3108107 0.5863755 0.7480378
vn 0.3108107 0.7529957 0.5799949
vn 0.1570074 0.8042636 0.5731568
vn -0.08010608 -0.259543 0.9624035
vn -0.3108112 -0.5863751 0.7480379
vn -0.5158823 -0.4197548 0.746774
vn -0.3108112 -0.7529954 0.5799951
vn -0.4517975 -0.6825022 0.574517
vn -0.579967 -0.5799667 0.5720812
vn -0.6760941 -0.4517972 0.5820448
vn -0.7529957 -0.3108107 0.5799949
vn 0.06728882 0.6632771 0.7453426
vn 0.003204048 0.8170805 0.5765147
vn -0.2403179 -0.1249651 0.9626167
vn -0.6376432 -0.1954582 0.7451223
vn -0.8042636 -0.1634159 0.5713627
vn -0.8170805 0.003204405 0.5765147
vn -0.6632771 0.06728917 0.7453426
vn -0.8042636 0.1570078 0.5731567
vn -0.2595433 0.08010608 0.9624034
vn -0.5863755 0.3108112 0.7480376
vn -0.4197552 0.5158823 0.7467738
vn -0.7529957 0.3108112 0.5799947
vn -0.6825025 0.4517975 0.5745166
vn -0.579967 0.579967 0.5720809
vn -0.4517975 0.6760941 0.5820445
vn -0.3108112 0.7529957 0.5799947
vn -0.1249654 0.2403179 0.9626167
vn -0.1954587 0.6376432 0.7451221
vn -0.1634163 0.8042636 0.5713626
vn 0.08010572 0.2595433 0.9624034
g mesh_moon_0
f 3/3/3 2/2/2 1/1/1
f 4/4/4 2/2/2 3/3/3
f 4/4/4 5/5/5 2/2/2
f 4/4/4 6/6/6 5/5/5
f 3/3/3 1/1/1 7/7/7
f 8/8/8 6/6/6 4/4/4
f 7/7/7 9/9/9 3/3/3
f 9/9/9 7/7/7 10/10/10
f 11/11/11 3/3/3 9/9/9
f 4/4/4 3/3/3 11/11/11
f 12/12/12 9/9/9 10/10/10
f 11/11/11 9/9/9 12/12/12
f 10/10/10 13/13/13 12/12/12
f 12/12/12 13/13/13 14/14/14
f 4/4/4 15/15/15 8/8/8
f 15/15/15 16/16/16 8/8/8
f 17/17/17 16/16/16 15/15/15
f 18/18/18 12/12/12 14/14/14
f 14/14/14 19/19/19 18/18/18
f 18/18/18 19/19/19 20/20/20
f 18/18/18 20/20/20 21/21/21
f 22/22/22 15/15/15 4/4/4
f 11/11/11 22/22/22 4/4/4
f 23/23/23 22/22/22 11/11/11
f 15/15/15 24/24/24 17/17/17
f 24/24/24 15/15/15 22/22/22
f 24/24/24 25/25/25 17/17/17
f 12/12/12 26/26/26 11/11/11
f 26/26/26 12/12/12 18/18/18
f 23/23/23 11/11/11 26/26/26
f 18/18/18 21/21/21 27/27/27
f 26/26/26 18/18/18 27/27/27
f 27/27/27 21/21/21 28/28/28
f 27/27/27 28/28/28 29/29/29
f 22/22/22 30/30/30 24/24/24
f 23/23/23 30/30/30 22/22/22
f 25/25/25 24/24/24 31/31/31
f 30/30/30 31/31/31 24/24/24
f 32/32/32 31/31/31 30/30/30
f 31/31/31 33/33/33 25/25/25
f 31/31/31 34/34/34 33/33/33
f 32/32/32 34/34/34 31/31/31
f 32/32/32 35/35/35 34/34/34
f 32/32/32 36/36/36 35/35/35
f 37/37/37 36/36/36 32/32/32
f 29/29/29 38/38/38 27/27/27
f 38/38/38 29/29/29 39/39/39
f 30/30/30 40/40/40 32/32/32
f 23/23/23 40/40/40 30/30/30
f 32/32/32 41/41/41 37/37/37
f 40/40/40 41/41/41 32/32/32
f 41/41/41 42/42/42 37/37/37
f 43/43/43 42/42/42 41/41/41
f 41/41/41 44/44/44 43/43/43
f 44/44/44 41/41/41 40/40/40
f 44/44/44 45/45/45 43/43/43
f 40/40/40 46/46/46 44/44/44
f 23/23/23 46/46/46 40/40/40
f 45/45/45 44/44/44 47/47/47
f 46/46/46 47/47/47 44/44/44
f 48/48/48 47/47/47 46/46/46
f 47/47/47 49/49/49 45/45/45
f 47/47/47 50/50/50 49/49/49
f 48/48/48 50/50/50 47/47/47
f 48/48/48 51/51/51 50/50/50
f 48/48/48 52/52/52 51/51/51
f 53/53/53 52/52/52 48/48/48
f 23/23/23 54/54/54 46/46/46
f 46/46/46 54/54/54 48/48/48
f 48/48/48 55/55/55 53/53/53
f 54/54/54 55/55/55 48/48/48
f 55/55/55 56/56/56 53/53/53
f 39/39/39 56/56/56 55/55/55
f 55/55/55 38/38/38 39/39/39
f 38/38/38 55/55/55 54/54/54
f 23/23/23 57/57/57 54/54/54
f 54/54/54 57/57/57 38/38/38
f 23/23/23 26/26/26 57/57/57
f 57/57/57 27/27/27 38/38/38
f 27/27/27 57/57/57 26/26/26
