g mesh_fire_blast_core
v 0.21788621 0.5333129 -0.32677925
v 0.028941393 0.6812694 -0.1688993
v 0.027812958 0.73656225 -0.3004272
v 0.09073925 0.5067618 -0.13288927
v 0.026883721 0.6536894 -0.07484174
v 0.25153983 0.31171024 -0.30245173
v 0.023963094 0.5067618 -0.03883171
v 0.11875081 0.3001604 -0.10092831
v 0.2546596 0.25479114 -0.2748053
v 0.021673083 0.3001604 -0.0068707466
v 0.12927163 0.12585199 -0.08074939
v 0.0001333952 0.001857996 0.022468328
v -0.16913033 0.5355034 -0.3265469
v 0.027812958 0.73656225 -0.3004272
v 0.028941393 0.6812694 -0.1688993
v -0.042779922 0.5067618 -0.13288927
v 0.026883721 0.6536894 -0.07484174
v -0.20663393 0.3173523 -0.30072594
v 0.023963094 0.5067618 -0.03883171
v -0.07540476 0.3001604 -0.10092831
v -0.24128318 0.19827032 -0.27746046
v 0.021673083 0.3001604 -0.0068707466
v -0.10985482 0.07865727 -0.08443344
v 0.0001333952 0.001857996 0.022468328
v -0.84163857 -0.95494694 -0.6539561
v -0.87900925 -1.18415 -0.5843921
v -0.9204955 -1.2149825 -0.67655784
v -0.74479306 -1.0353638 -0.47380638
v -0.8515289 -1.1704097 -0.4903013
v -0.7026099 -0.79540753 -0.540118
v -0.70977867 -1.0832555 -0.37971568
v -0.5938164 -0.8823626 -0.33972293
v -0.6025784 -0.67795175 -0.44234324
v -0.5310229 -0.94940436 -0.24563217
v -0.4876449 -0.7575721 -0.24314308
v -0.50467086 -0.55953354 -0.38273585
v -0.40775907 -0.8259746 -0.14908552
v -0.38685 -0.6354367 -0.18403351
v -0.4041747 -0.41914415 -0.32804042
v -0.30175352 -0.6945794 -0.08994269
v -0.279716 -0.4837631 -0.12923849
v -0.35110545 -0.32817322 -0.29966384
v -0.18628907 -0.5313229 -0.035147786
v -0.19156611 -0.3163911 -0.10096145
v -0.36378372 -0.3056379 -0.26707232
v -0.089178085 -0.35147184 -0.006903887
v -0.13743484 -0.12764537 -0.08456612
v 0.0001333952 0.001857996 0.022468328
v -0.628333 -1.2545438 -0.6534251
v -0.9204955 -1.2149825 -0.67655784
v -0.87900925 -1.18415 -0.5843921
v -0.6709808 -1.1368225 -0.47380638
v -0.8515289 -1.1704097 -0.4903013
v -0.40025842 -1.1345656 -0.5400516
v -0.70977867 -1.0832555 -0.37971568
v -0.47393787 -1.0164461 -0.33972293
v -0.5310229 -0.94940436 -0.24563217
v -0.40775907 -0.8259746 -0.14908552
v -0.23441303 -0.9978603 -0.4421441
v -0.32787323 -0.89437705 -0.24314308
v -0.30175352 -0.6945794 -0.08994269
v -0.21662378 -0.7537554 -0.18403351
v -0.10826182 -0.8422704 -0.38286865
v -0.18628907 -0.5313229 -0.035147786
v -0.09286213 -0.5789159 -0.12923849
v 0.025722146 -0.6531264 -0.32823956
v 0.070825934 -0.5700544 -0.29933196
v -0.089178085 -0.35147184 -0.006903887
v 0.013243079 -0.38655257 -0.10096145
v 0.075306416 -0.56454504 -0.26272452
v 0.06681001 -0.24652827 -0.08781862
v 0.0001333952 0.001857996 0.022468328
v -0.64482796 0.08791697 -0.39763772
v -0.7758579 -0.103749394 -0.28851235
v -0.8277323 -0.10301924 -0.38330007
v -0.60546577 -0.035977483 -0.21194541
v -0.74555635 -0.10072911 -0.19442165
v -0.4454949 0.14559937 -0.32913566
v -0.6026447 -0.09624863 -0.117854714
v -0.41320205 0.008230209 -0.13106394
v -0.24128318 0.19827032 -0.27746046
v -0.40560174 -0.075472355 -0.03697312
v -0.10985482 0.07865727 -0.08443344
v 0.0001333952 0.001857996 0.022468328
v -0.6232883 -0.2850939 -0.3979032
v -0.8277323 -0.10301924 -0.38330007
v -0.7758579 -0.103749394 -0.28851235
v -0.59985685 -0.15651977 -0.21194541
v -0.74555635 -0.10072911 -0.19442165
v -0.39836657 -0.30069274 -0.32867104
v -0.6026447 -0.09624863 -0.117854714
v -0.39800155 -0.15914178 -0.13106394
v -0.36378372 -0.3056379 -0.26707232
v -0.40560174 -0.075472355 -0.03697312
v -0.13743484 -0.12764537 -0.08456612
v 0.0001333952 0.001857996 0.022468328
v 0.6582043 -0.13232505 -0.34277636
v 0.8153541 0.05515945 -0.21632636
v 0.8725387 0.054296494 -0.33524245
v 0.62906444 -0.0073685646 -0.15197289
v 0.7900641 0.05515945 -0.122235656
v 0.41190898 -0.15837836 -0.30397844
v 0.62345546 0.06186366 -0.05788219
v 0.39149773 -0.026485443 -0.10232222
v 0.3452655 -0.16408694 -0.26697272
v 0.3810764 0.059075713 -0.008231521
v 0.09946799 -0.08214331 -0.082242966
v 0.0001333952 0.001857996 0.022468328
v 0.63888836 0.2564174 -0.34347332
v 0.8725387 0.054296494 -0.33524245
v 0.8153541 0.05515945 -0.21632636
v 0.61787975 0.13109577 -0.15197289
v 0.7900641 0.05515945 -0.122235656
v 0.3667056 0.27799022 -0.30484134
v 0.62345546 0.06186366 -0.05788219
v 0.37065506 0.14463687 -0.10232222
v 0.2546596 0.25479114 -0.2748053
v 0.3810764 0.059075713 -0.008231521
v 0.12927163 0.12585199 -0.08074939
v 0.0001333952 0.001857996 0.022468328
v 0.18834805 -0.32140267 -0.0006312132
v 0.06681001 -0.24652827 -0.08781862
v 0.0001333952 0.001857996 0.022468328
v 0.12306535 -0.37433904 -0.09468877
v 0.075306416 -0.56454504 -0.26272452
v 0.28957444 -0.46315277 -0.024195433
v 0.08055031 -0.569457 -0.29551524
v 0.22030902 -0.52116704 -0.11828613
v 0.110586286 -0.61081046 -0.31708807
v 0.25492513 -0.78747535 -0.35296535
v 0.4193765 -0.61409616 -0.061433434
v 0.35240114 -0.6810383 -0.15552413
v 0.43699986 -0.94137263 -0.41765064
v 0.52096796 -0.82829785 -0.2187823
v 0.5849563 -0.7617208 -0.124691606
v 0.71528935 -0.9644058 -0.30301595
v 0.76284915 -0.89251846 -0.20892525
v 0.66384643 -1.0886985 -0.50497085
v 0.94137263 -0.97977227 -0.33554113
v 0.92371607 -1.0231502 -0.4295987
v 1.0410724 -1.0156496 -0.4301961
v 0.9128301 -1.1420995 -0.6116402
v 1.0655658 -1.0230175 -0.52425367
v 1.1189668 -1.0449222 -0.6083545
v 0.18834805 -0.32140267 -0.0006312132
v 0.0001333952 0.001857996 0.022468328
v 0.09946799 -0.08214331 -0.082242966
v 0.25363076 -0.26846623 -0.09468877
v 0.3452655 -0.16408694 -0.26697272
v 0.3554877 -0.18834805 -0.29601306
v 0.46919316 -0.31625837 -0.31715447
v 0.3588066 -0.40510523 -0.11828613
v 0.28957444 -0.46315277 -0.024195433
v 0.59308755 -0.44994354 -0.35296535
v 0.48638505 -0.547154 -0.15552413
v 0.4193765 -0.61409616 -0.061433434
v 0.5849563 -0.7617208 -0.124691606
v 0.7504365 -0.59640646 -0.4175179
v 0.6489446 -0.69517684 -0.2187823
v 0.76284915 -0.89251846 -0.20892525
v 0.81044215 -0.82066435 -0.30301595
v 0.9020769 -0.72136295 -0.5052032
v 0.94137263 -0.97977227 -0.33554113
v 0.958996 -0.9399123 -0.4295987
v 1.0410724 -1.0156496 -0.4301961
v 1.0382844 -0.85096586 -0.61187255
v 1.0655658 -1.0230175 -0.52425367
v 1.1189668 -1.0449222 -0.6083545
vt 0.70274675 0.0121997595
vt 0.74581623 0.32445335
vt 0.74581623 0.0121997595
vt 0.70274675 0.32445335
vt 0.74581623 0.6008157
vt 0.64962775 0.0121997595
vt 0.70274675 0.6008157
vt 0.64962775 0.32445335
vt 0.62235045 0.0121997595
vt 0.64962775 0.6008157
vt 0.6151722 0.32445335
vt 0.6087118 0.6008157
vt 0.30076513 0.0121997595
vt 0.26272044 0.0121997595
vt 0.26272044 0.32445335
vt 0.30076513 0.32445335
vt 0.26272044 0.6008157
vt 0.350295 0.0121997595
vt 0.30076513 0.6008157
vt 0.350295 0.32445335
vt 0.40197837 0.0121997595
vt 0.350295 0.6008157
vt 0.40915662 0.32445335
vt 0.41418138 0.6008157
vt 0.7063359 0.0121997595
vt 0.74653405 0.32445335
vt 0.74653405 0.0121997595
vt 0.7063359 0.32445335
vt 0.74653405 0.6008157
vt 0.6625486 0.0121997595
vt 0.7063359 0.6008157
vt 0.6625486 0.32445335
vt 0.6230683 0.0121997595
vt 0.6625486 0.6008157
vt 0.6230683 0.32445335
vt 0.5864592 0.0121997595
vt 0.6230683 0.6008157
vt 0.5864592 0.32445335
vt 0.54913235 0.0121997595
vt 0.5864592 0.6008157
vt 0.54913235 0.32445335
vt 0.5089342 0.0121997595
vt 0.54913235 0.6008157
vt 0.5089342 0.32445335
vt 0.4917064 0.0121997595
vt 0.5089342 0.6008157
vt 0.47447863 0.32445335
vt 0.46442908 0.6008157
vt 0.2993295 0.0121997595
vt 0.26200265 0.0121997595
vt 0.26200265 0.32445335
vt 0.2993295 0.32445335
vt 0.26200265 0.6008157
vt 0.34311676 0.0121997595
vt 0.2993295 0.6008157
vt 0.34311676 0.32445335
vt 0.34311676 0.6008157
vt 0.38259712 0.6008157
vt 0.38259712 0.0121997595
vt 0.38259712 0.32445335
vt 0.41920614 0.6008157
vt 0.41920614 0.32445335
vt 0.41920614 0.0121997595
vt 0.45725083 0.6008157
vt 0.45725083 0.32445335
vt 0.45725083 0.0121997595
vt 0.497449 0.0121997595
vt 0.497449 0.6008157
vt 0.497449 0.32445335
vt 0.5082164 0.0121997595
vt 0.5232907 0.32445335
vt 0.53692937 0.6008157
vt 0.71207845 0.0121997595
vt 0.74581623 0.32445335
vt 0.74581623 0.0121997595
vt 0.71207845 0.32445335
vt 0.74581623 0.6008157
vt 0.6675734 0.0121997595
vt 0.71207845 0.6008157
vt 0.6675734 0.32445335
vt 0.56851363 0.0121997595
vt 0.6675734 0.6008157
vt 0.56061757 0.32445335
vt 0.5555928 0.6008157
vt 0.297176 0.0121997595
vt 0.26200265 0.0121997595
vt 0.26200265 0.32445335
vt 0.297176 0.32445335
vt 0.26200265 0.6008157
vt 0.34311676 0.0121997595
vt 0.297176 0.6008157
vt 0.34311676 0.32445335
vt 0.36249804 0.0121997595
vt 0.34311676 0.6008157
vt 0.3797258 0.32445335
vt 0.38977537 0.6008157
vt 0.6819298 0.0121997595
vt 0.74581623 0.32445335
vt 0.74581623 0.0121997595
vt 0.6819298 0.32445335
vt 0.74581623 0.6008157
vt 0.5922018 0.0121997595
vt 0.6819298 0.6008157
vt 0.5922018 0.32445335
vt 0.5476967 0.0121997595
vt 0.5922018 0.6008157
vt 0.53405803 0.32445335
vt 0.52041936 0.6008157
vt 0.32732463 0.0121997595
vt 0.26200265 0.0121997595
vt 0.26200265 0.32445335
vt 0.32732463 0.32445335
vt 0.26200265 0.6008157
vt 0.41920614 0.0121997595
vt 0.32732463 0.6008157
vt 0.41920614 0.32445335
vt 0.47806776 0.0121997595
vt 0.41920614 0.6008157
vt 0.48596382 0.32445335
vt 0.49242422 0.6008157
vt 0.34311676 0.6008157
vt 0.31081468 0.32445335
vt 0.297176 0.6008157
vt 0.34311676 0.32445335
vt 0.32517117 0.0121997595
vt 0.39551795 0.6008157
vt 0.34311676 0.0121997595
vt 0.39551795 0.32445335
vt 0.39551795 0.0121997595
vt 0.44648346 0.0121997595
vt 0.44648346 0.6008157
vt 0.44648346 0.32445335
vt 0.52041936 0.0121997595
vt 0.52041936 0.32445335
vt 0.52041936 0.6008157
vt 0.5922018 0.32445335
vt 0.5922018 0.6008157
vt 0.5922018 0.0121997595
vt 0.6819298 0.6008157
vt 0.6819298 0.32445335
vt 0.74581623 0.6008157
vt 0.6819298 0.0121997595
vt 0.74581623 0.32445335
vt 0.74581623 0.0121997595
vt 0.6675734 0.6008157
vt 0.71207845 0.6008157
vt 0.69843984 0.32445335
vt 0.6675734 0.32445335
vt 0.68480116 0.0121997595
vt 0.6675734 0.0121997595
vt 0.61660784 0.0121997595
vt 0.61660784 0.32445335
vt 0.61660784 0.6008157
vt 0.5677958 0.0121997595
vt 0.5677958 0.32445335
vt 0.5677958 0.6008157
vt 0.49242422 0.6008157
vt 0.49242422 0.0121997595
vt 0.49242422 0.32445335
vt 0.41920614 0.6008157
vt 0.41920614 0.32445335
vt 0.41920614 0.0121997595
vt 0.32732463 0.6008157
vt 0.32732463 0.32445335
vt 0.26200265 0.6008157
vt 0.32732463 0.0121997595
vt 0.26200265 0.32445335
vt 0.26200265 0.0121997595
vn 0.79567605 0.3541479 0.49140498
vn 0.8320629 0.3832574 0.40098014
vn 0.75201184 0.51425004 0.412341
vn 0.81750816 0.28137422 0.5025027
vn 0.89755917 0.24498737 0.36656344
vn 0.8029534 0.17949116 0.56837374
vn 0.8320629 0.20132315 0.5168562
vn 0.75201184 0.14310431 0.64342785
vn 0.79567605 0.16493642 0.58283406
vn 0.69379294 0.10671747 0.7122238
vn 0.7229024 0.11399484 0.68148166
vn 0.635574 0.06305325 0.76946086
vn -0.7835126 0.37598002 0.49471918
vn -0.732571 0.536082 0.41947085
vn -0.81989944 0.41236687 0.39713788
vn -0.8126221 0.30320632 0.49770603
vn -0.892673 0.2886516 0.34614325
vn -0.79078996 0.21587789 0.57275474
vn -0.8344542 0.23043263 0.5005867
vn -0.74712574 0.18676853 0.6379033
vn -0.76895785 0.22315526 0.59908724
vn -0.7034615 0.15038168 0.69464177
vn -0.71801627 0.17949116 0.67248464
vn -0.6670747 0.13582695 0.73250425
vn -0.8126221 0.2886516 0.50628614
vn -0.8053447 0.41964424 0.41871068
vn -0.8344542 0.28137422 0.47382987
vn -0.79078996 0.36142528 0.49398687
vn -0.7544031 0.55063677 0.35731655
vn -0.79078996 0.26681948 0.5508708
vn -0.7616805 0.44147635 0.47427997
vn -0.76895785 0.25226474 0.58742344
vn -0.7762352 0.2886516 0.56048113
vn -0.7398484 0.23771 0.62937933
vn -0.7398484 0.23771 0.62937933
vn -0.7544031 0.3323158 0.5660761
vn -0.69618416 0.17949116 0.69506156
vn -0.7107389 0.26681948 0.6508899
vn -0.7544031 0.30320632 0.5821871
vn -0.6597973 0.20132315 0.72397274
vn -0.7034615 0.2595421 0.6616493
vn -0.7398484 0.12854958 0.6603782
vn -0.6379652 0.20860052 0.7412734
vn -0.69618416 0.15038168 0.7019352
vn -0.69618416 -0.031552553 0.71716946
vn -0.6452426 0.16493642 0.7459611
vn -0.6816294 0.04122114 0.7305355
vn -0.6670747 0.11399484 0.73621774
vn 0.016997814 -0.853895 0.52016765
vn -0.11399484 -0.86844975 0.48249373
vn 0.016997814 -0.9121139 0.4095843
vn 0.07521671 -0.86844975 0.49003822
vn 0.14071304 -0.92666864 0.34854707
vn 0.22076404 -0.8029534 0.5536507
vn 0.13343567 -0.87572706 0.46400112
vn 0.19165462 -0.7883987 0.5845477
vn 0.16254514 -0.7665666 0.62125254
vn 0.27170563 -0.66468346 0.6959684
vn 0.4099756 -0.71562505 0.5655093
vn 0.34447932 -0.69379294 0.63244396
vn 0.39542085 -0.57007766 0.7201762
vn 0.4754719 -0.59190977 0.650822
vn 0.54824555 -0.6137419 0.5681089
vn 0.49002665 -0.4754719 0.7306164
vn 0.5555229 -0.5045814 0.6609024
vn 0.6137419 -0.5336908 0.58180326
vn 0.59190977 -0.46819454 0.6560767
vn 0.5555229 -0.3226472 0.7663505
vn 0.577355 -0.39542085 0.7143553
vn 0.5409682 -0.4536398 0.7082121
vn 0.5555229 -0.34447932 0.7567882
vn 0.57007766 -0.23531878 0.78716993
vn -0.49241793 0.69618416 0.5223526
vn -0.47058582 0.7762352 0.41953284
vn -0.5724689 0.6670747 0.47675017
vn -0.4269216 0.7544031 0.49861196
vn -0.36142528 0.8708409 0.33317843
vn -0.34687054 0.732571 0.5856796
vn -0.36870265 0.8126221 0.45133552
vn -0.32503843 0.71801627 0.61546946
vn -0.29592896 0.7398484 0.60419405
vn -0.30320632 0.7107389 0.63475674
vn -0.27409685 0.7107389 0.64785886
vn -0.24498737 0.6816294 0.6894654
vn -0.3832574 -0.7592892 0.52592176
vn -0.5215274 -0.71562505 0.46463957
vn -0.41236687 -0.8102308 0.41650885
vn -0.31776106 -0.8029534 0.5042754
vn -0.29592896 -0.8902818 0.34615654
vn -0.21587789 -0.74473447 0.6314802
vn -0.25226474 -0.84661764 0.46861616
vn -0.15765905 -0.74473447 0.64847064
vn -0.1940459 -0.69379294 0.69353986
vn -0.10671747 -0.7374571 0.66690964
vn -0.0994401 -0.69379294 0.71327627
vn -0.0048342943 -0.68651557 0.727099
vn 0.3517567 -0.7883987 0.50467294
vn 0.40269822 -0.81750816 0.41172144
vn 0.5191361 -0.7301798 0.44422424
vn 0.28626037 -0.8102308 0.51144993
vn 0.278983 -0.8830044 0.3774542
vn 0.19893199 -0.79567605 0.5721238
vn 0.22076404 -0.8320629 0.5088561
vn 0.18437725 -0.7665666 0.6151266
vn 0.22804141 -0.7811213 0.5812457
vn 0.16982251 -0.7301798 0.661814
vn 0.19893199 -0.74473447 0.6370217
vn 0.16982251 -0.7010703 0.69257545
vn 0.34447932 0.79806733 0.49439108
vn 0.52641344 0.732571 0.43154216
vn 0.4318077 0.8126221 0.39139175
vn 0.29353774 0.81989944 0.49152875
vn 0.3226472 0.8781183 0.35328043
vn 0.06793934 0.8344542 0.54687333
vn 0.23531878 0.8344542 0.49830842
vn 0.06066197 0.7835126 0.6184078
vn -0.019389033 0.8344542 0.5507361
vn 0.06066197 0.732571 0.6779822
vn -0.019389033 0.76895785 0.63900536
vn -0.026666403 0.6889068 0.7243593
vn -0.6161331 -0.4536398 0.6438874
vn -0.62341046 -0.43908507 0.64696497
vn -0.6816294 -0.4099756 0.6060539
vn -0.594301 -0.4754719 0.6486392
vn -0.55791414 -0.46819454 0.6852194
vn -0.4996953 -0.5191361 0.69339913
vn -0.5724689 -0.5045814 0.64627934
vn -0.536082 -0.5409682 0.64805055
vn -0.5724689 -0.5628003 0.5962677
vn -0.48514056 -0.6501287 0.58478314
vn -0.39053476 -0.6064645 0.69259185
vn -0.43419898 -0.6282966 0.64553434
vn -0.34687054 -0.74473447 0.5701328
vn -0.3104837 -0.71562505 0.62568414
vn -0.26681948 -0.68651557 0.67639023
vn -0.10671747 -0.8102308 0.5763137
vn -0.0994401 -0.79567605 0.5975042
vn -0.12127221 -0.82478553 0.5522879
vn 0.038829923 -0.9193913 0.391423
vn 0.1261583 -0.8830044 0.45209208
vn 0.06066197 -0.9630555 0.26238188
vn 0.20620936 -0.8320629 0.5149262
vn 0.21348673 -0.89755917 0.38576028
vn 0.3517567 -0.8029534 0.48117882
vn 0.68651557 0.4050895 0.6038202
vn 0.7229024 0.4487537 0.5253877
vn 0.7010703 0.4269216 0.57117283
vn 0.68651557 0.4269216 0.5885867
vn 0.6792382 0.41236687 0.6071153
vn 0.6792382 0.44147635 0.58628845
vn 0.6792382 0.46330845 0.56919307
vn 0.6574061 0.41964424 0.62587214
vn 0.6282966 0.36870265 0.685056
vn 0.66468346 0.46330845 0.5861238
vn 0.64285135 0.41964424 0.6408127
vn 0.6137419 0.37598002 0.69423336
vn 0.62101924 0.39053476 0.6795717
vn 0.67196083 0.47058582 0.57185453
vn 0.6501287 0.4269216 0.62854636
vn 0.67196083 0.43419898 0.5999499
vn 0.7010703 0.43419898 0.5656604
vn 0.7229024 0.4269216 0.54327714
vn 0.69379294 0.60157835 0.39592278
vn 0.7374571 0.49241793 0.4622571
vn 0.6574061 0.7034615 0.27010942
vn 0.77384394 0.37598002 0.5097103
vn 0.7374571 0.55063677 0.39109614
vn 0.7883987 0.37598002 0.4868948
g mesh_fire_blast_core_0
f 3/3/3 2/2/2 1/1/1
f 4/4/4 1/1/1 2/2/2
f 2/2/2 5/5/5 4/4/4
f 6/6/6 1/1/1 4/4/4
f 7/7/7 4/4/4 5/5/5
f 8/8/8 6/6/6 4/4/4
f 8/8/8 4/4/4 7/7/7
f 9/9/9 6/6/6 8/8/8
f 10/10/10 8/8/8 7/7/7
f 9/9/9 8/8/8 11/11/11
f 11/11/11 8/8/8 10/10/10
f 12/12/12 11/11/11 10/10/10
f 15/15/15 14/14/14 13/13/13
f 13/13/13 16/16/16 15/15/15
f 17/17/17 15/15/15 16/16/16
f 16/16/16 13/13/13 18/18/18
f 16/16/16 19/19/19 17/17/17
f 18/18/18 20/20/20 16/16/16
f 20/20/20 19/19/19 16/16/16
f 20/20/20 18/18/18 21/21/21
f 19/19/19 20/20/20 22/22/22
f 21/21/21 23/23/23 20/20/20
f 22/22/22 20/20/20 23/23/23
f 22/22/22 23/23/23 24/24/24
f 27/27/27 26/26/26 25/25/25
f 26/26/26 28/28/28 25/25/25
f 28/28/28 26/26/26 29/29/29
f 30/30/30 25/25/25 28/28/28
f 29/29/29 31/31/31 28/28/28
f 28/28/28 32/32/32 30/30/30
f 32/32/32 28/28/28 31/31/31
f 33/33/33 30/30/30 32/32/32
f 31/31/31 34/34/34 32/32/32
f 32/32/32 35/35/35 33/33/33
f 35/35/35 32/32/32 34/34/34
f 36/36/36 33/33/33 35/35/35
f 34/34/34 37/37/37 35/35/35
f 35/35/35 38/38/38 36/36/36
f 38/38/38 35/35/35 37/37/37
f 39/39/39 36/36/36 38/38/38
f 37/37/37 40/40/40 38/38/38
f 38/38/38 41/41/41 39/39/39
f 41/41/41 38/38/38 40/40/40
f 42/42/42 39/39/39 41/41/41
f 40/40/40 43/43/43 41/41/41
f 44/44/44 42/42/42 41/41/41
f 44/44/44 41/41/41 43/43/43
f 44/44/44 45/45/45 42/42/42
f 46/46/46 44/44/44 43/43/43
f 45/45/45 44/44/44 47/47/47
f 47/47/47 44/44/44 46/46/46
f 46/46/46 48/48/48 47/47/47
f 51/51/51 50/50/50 49/49/49
f 49/49/49 52/52/52 51/51/51
f 53/53/53 51/51/51 52/52/52
f 52/52/52 49/49/49 54/54/54
f 52/52/52 55/55/55 53/53/53
f 54/54/54 56/56/56 52/52/52
f 55/55/55 52/52/52 56/56/56
f 56/56/56 57/57/57 55/55/55
f 58/58/58 57/57/57 56/56/56
f 56/56/56 54/54/54 59/59/59
f 56/56/56 60/60/60 58/58/58
f 59/59/59 60/60/60 56/56/56
f 61/61/61 58/58/58 60/60/60
f 59/59/59 62/62/62 60/60/60
f 60/60/60 62/62/62 61/61/61
f 63/63/63 62/62/62 59/59/59
f 64/64/64 61/61/61 62/62/62
f 63/63/63 65/65/65 62/62/62
f 65/65/65 64/64/64 62/62/62
f 66/66/66 65/65/65 63/63/63
f 65/65/65 66/66/66 67/67/67
f 68/68/68 64/64/64 65/65/65
f 67/67/67 69/69/69 65/65/65
f 65/65/65 69/69/69 68/68/68
f 69/69/69 67/67/67 70/70/70
f 70/70/70 71/71/71 69/69/69
f 68/68/68 69/69/69 71/71/71
f 71/71/71 72/72/72 68/68/68
f 75/75/75 74/74/74 73/73/73
f 76/76/76 73/73/73 74/74/74
f 74/74/74 77/77/77 76/76/76
f 73/73/73 76/76/76 78/78/78
f 79/79/79 76/76/76 77/77/77
f 80/80/80 78/78/78 76/76/76
f 80/80/80 76/76/76 79/79/79
f 81/81/81 78/78/78 80/80/80
f 82/82/82 80/80/80 79/79/79
f 83/83/83 81/81/81 80/80/80
f 83/83/83 80/80/80 82/82/82
f 84/84/84 83/83/83 82/82/82
f 87/87/87 86/86/86 85/85/85
f 85/85/85 88/88/88 87/87/87
f 89/89/89 87/87/87 88/88/88
f 88/88/88 85/85/85 90/90/90
f 88/88/88 91/91/91 89/89/89
f 90/90/90 92/92/92 88/88/88
f 92/92/92 91/91/91 88/88/88
f 92/92/92 90/90/90 93/93/93
f 91/91/91 92/92/92 94/94/94
f 93/93/93 95/95/95 92/92/92
f 95/95/95 94/94/94 92/92/92
f 94/94/94 95/95/95 96/96/96
f 99/99/99 98/98/98 97/97/97
f 100/100/100 97/97/97 98/98/98
f 100/100/100 98/98/98 101/101/101
f 102/102/102 97/97/97 100/100/100
f 101/101/101 103/103/103 100/100/100
f 104/104/104 102/102/102 100/100/100
f 104/104/104 100/100/100 103/103/103
f 105/105/105 102/102/102 104/104/104
f 103/103/103 106/106/106 104/104/104
f 105/105/105 104/104/104 107/107/107
f 107/107/107 104/104/104 106/106/106
f 106/106/106 108/108/108 107/107/107
f 111/111/111 110/110/110 109/109/109
f 109/109/109 112/112/112 111/111/111
f 113/113/113 111/111/111 112/112/112
f 112/112/112 109/109/109 114/114/114
f 112/112/112 115/115/115 113/113/113
f 114/114/114 116/116/116 112/112/112
f 115/115/115 112/112/112 116/116/116
f 116/116/116 114/114/114 117/117/117
f 116/116/116 118/118/118 115/115/115
f 117/117/117 119/119/119 116/116/116
f 118/118/118 116/116/116 119/119/119
f 119/119/119 120/120/120 118/118/118
f 123/123/123 122/122/122 121/121/121
f 124/124/124 121/121/121 122/122/122
f 125/125/125 124/124/124 122/122/122
f 126/126/126 121/121/121 124/124/124
f 125/125/125 127/127/127 124/124/124
f 124/124/124 128/128/128 126/126/126
f 128/128/128 124/124/124 127/127/127
f 128/128/128 127/127/127 129/129/129
f 128/128/128 129/129/129 130/130/130
f 131/131/131 126/126/126 128/128/128
f 130/130/130 132/132/132 128/128/128
f 128/128/128 132/132/132 131/131/131
f 132/132/132 130/130/130 133/133/133
f 131/131/131 132/132/132 134/134/134
f 133/133/133 134/134/134 132/132/132
f 134/134/134 135/135/135 131/131/131
f 136/136/136 134/134/134 133/133/133
f 134/134/134 136/136/136 135/135/135
f 135/135/135 136/136/136 137/137/137
f 133/133/133 138/138/138 136/136/136
f 139/139/139 137/137/137 136/136/136
f 140/140/140 136/136/136 138/138/138
f 136/136/136 140/140/140 139/139/139
f 141/141/141 139/139/139 140/140/140
f 138/138/138 142/142/142 140/140/140
f 140/140/140 143/143/143 141/141/141
f 140/140/140 142/142/142 143/143/143
f 144/144/144 143/143/143 142/142/142
f 147/147/147 146/146/146 145/145/145
f 145/145/145 148/148/148 147/147/147
f 149/149/149 147/147/147 148/148/148
f 148/148/148 150/150/150 149/149/149
f 150/150/150 148/148/148 151/151/151
f 152/152/152 148/148/148 145/145/145
f 151/151/151 148/148/148 152/152/152
f 153/153/153 152/152/152 145/145/145
f 151/151/151 152/152/152 154/154/154
f 152/152/152 153/153/153 155/155/155
f 154/154/154 152/152/152 155/155/155
f 156/156/156 155/155/155 153/153/153
f 155/155/155 156/156/156 157/157/157
f 154/154/154 155/155/155 158/158/158
f 157/157/157 159/159/159 155/155/155
f 158/158/158 155/155/155 159/159/159
f 159/159/159 157/157/157 160/160/160
f 158/158/158 159/159/159 161/161/161
f 160/160/160 161/161/161 159/159/159
f 161/161/161 162/162/162 158/158/158
f 161/161/161 160/160/160 163/163/163
f 162/162/162 161/161/161 164/164/164
f 163/163/163 164/164/164 161/161/161
f 164/164/164 163/163/163 165/165/165
f 164/164/164 166/166/166 162/162/162
f 165/165/165 167/167/167 164/164/164
f 166/166/166 164/164/164 167/167/167
f 167/167/167 168/168/168 166/166/166
