g mesh_vignette
v -9.953976E-06 0.7120834 9.953976E-06
v 0.713981 0.7120834 9.953976E-06
v 0.713981 0.4491305 0.0002931952
v -9.953976E-06 0.4491305 0.0002931952
v 0.713981 0.1861993 0.0005982518
v -9.953976E-06 0.1861993 0.0005982518
v -0.7139791 0.4491305 0.0002931952
v -0.7139791 0.7120834 9.953976E-06
v -0.7139791 0.1861993 0.0005982518
v 0.713981 -0.4491324 0.0002931952
v 0.713981 -0.7120853 9.953976E-06
v -9.953976E-06 -0.7120853 9.953976E-06
v -9.953976E-06 -0.4491324 0.0002931952
v 0.713981 -0.1862012 0.0005982518
v -0.7139791 -0.7120853 9.953976E-06
v -9.953976E-06 -0.1862012 0.0005982518
v -0.7139791 -0.4491324 0.0002931952
v -0.7139791 -0.1862012 0.0005982518
v 0.713981 0.1861993 0.0005982518
v -9.953976E-06 0.1721452 0.0005982518
v -9.953976E-06 0.1861993 0.0005982518
v 0.713981 0.1721452 0.0005982518
v -0.7139791 0.1861993 0.0005982518
v -9.953976E-06 0.1861993 0.0005982518
v -9.953976E-06 0.1721452 0.0005982518
v -0.7139791 0.1721452 0.0005982518
v -9.953976E-06 -0.1721471 0.0005982518
v -0.7139791 -0.1862012 0.0005982518
v -0.7139791 -0.1721471 0.0005982518
v -9.953976E-06 -0.1862012 0.0005982518
v -9.953976E-06 -0.1721471 0.0005982518
v 0.713981 -0.1721471 0.0005982518
v 0.713981 -0.1862012 0.0005982518
v -9.953976E-06 -0.1862012 0.0005982518
vt 0.4995541 0.9266893
vt 0.9999962 0.9266893
vt 0.9999962 0.251288
vt 0.4995541 0.251288
vt 0.9999962 0.07339644
vt 0.4995541 0.07339644
vt 8.949637E-05 0.251288
vt 8.949637E-05 0.9266893
vt 8.949637E-05 0.07339644
vt 8.949637E-05 0.251288
vt 8.949637E-05 0.9266893
vt 0.4995541 0.9266893
vt 0.4995541 0.251288
vt 8.949637E-05 0.07339644
vt 0.9999962 0.9266893
vt 0.4995541 0.07339644
vt 0.9999962 0.251288
vt 0.9999962 0.07339644
vt 8.949637E-05 0.07339644
vt 0.9999962 0.9266893
vt 0.9999962 0.07339644
vt 8.949637E-05 0.9266893
vt 0.9999962 0.07339644
vt 8.949637E-05 0.07339644
vt 8.949637E-05 0.9266893
vt 0.9999962 0.9266893
vt 0.9999962 0.9266893
vt 8.949637E-05 0.07339644
vt 8.949637E-05 0.9266893
vt 0.9999962 0.07339644
vt 8.949637E-05 0.9266893
vt 0.9999962 0.9266893
vt 0.9999962 0.07339644
vt 8.949637E-05 0.07339644
vn 4.474772E-06 0.001141092 0.9999993
vn 4.474772E-06 0.001141092 0.9999993
vn 4.474772E-06 0.001141092 0.9999993
vn 4.474772E-06 0.001141092 0.9999993
vn 4.474772E-06 0.001141092 0.9999993
vn 4.474772E-06 0.001141092 0.9999993
vn 4.474772E-06 0.001141092 0.9999993
vn 4.474772E-06 0.001141092 0.9999993
vn 4.474772E-06 0.001141092 0.9999993
vn 4.474772E-06 -0.001141092 0.9999993
vn 4.474772E-06 -0.001141092 0.9999993
vn 4.474772E-06 -0.001141092 0.9999993
vn 4.474772E-06 -0.001141092 0.9999993
vn 4.474772E-06 -0.001141092 0.9999993
vn 4.474772E-06 -0.001141092 0.9999993
vn 4.474772E-06 -0.001141092 0.9999993
vn 4.474772E-06 -0.001141092 0.9999993
vn 4.474772E-06 -0.001141092 0.9999993
vn 4.474772E-06 -4.474772E-06 1
vn 4.474772E-06 -4.474772E-06 1
vn 4.474772E-06 -4.474772E-06 1
vn 4.474772E-06 -4.474772E-06 1
vn 4.474772E-06 -4.474772E-06 1
vn 4.474772E-06 -4.474772E-06 1
vn 4.474772E-06 -4.474772E-06 1
vn 4.474772E-06 -4.474772E-06 1
vn 4.474772E-06 -4.474772E-06 1
vn 4.474772E-06 -4.474772E-06 1
vn 4.474772E-06 -4.474772E-06 1
vn 4.474772E-06 -4.474772E-06 1
vn 4.474772E-06 -4.474772E-06 1
vn 4.474772E-06 -4.474772E-06 1
vn 4.474772E-06 -4.474772E-06 1
vn 4.474772E-06 -4.474772E-06 1
g mesh_vignette_0
f 3/3/3 2/2/2 1/1/1
f 1/1/1 4/4/4 3/3/3
f 5/5/5 3/3/3 4/4/4
f 4/4/4 6/6/6 5/5/5
f 7/7/7 4/4/4 1/1/1
f 6/6/6 4/4/4 7/7/7
f 8/8/8 7/7/7 1/1/1
f 7/7/7 9/9/9 6/6/6
f 12/12/12 11/11/11 10/10/10
f 13/13/13 12/12/12 10/10/10
f 13/13/13 10/10/10 14/14/14
f 15/15/15 12/12/12 13/13/13
f 16/16/16 13/13/13 14/14/14
f 17/17/17 15/15/15 13/13/13
f 17/17/17 13/13/13 16/16/16
f 18/18/18 17/17/17 16/16/16
f 21/21/21 20/20/20 19/19/19
f 20/20/20 22/22/22 19/19/19
f 25/25/25 24/24/24 23/23/23
f 23/23/23 26/26/26 25/25/25
f 29/29/29 28/28/28 27/27/27
f 28/28/28 30/30/30 27/27/27
f 33/33/33 32/32/32 31/31/31
f 31/31/31 34/34/34 33/33/33
