g mesh_slash_thin
v -0.2419338 0.09715495 -8.34465E-07
v -0.2408952 0.1133113 0.01127258
v -0.2767172 0.09680316 -8.34465E-07
v -0.2408952 0.1133113 0.01127258
v -0.219454 0.09623364 -8.34465E-07
v -0.2152494 0.1149194 -8.34465E-07
v -0.2123264 0.1662612 0.01127258
v -0.1980546 0.1458082 -8.34465E-07
v -0.1751476 0.1713284 -8.34465E-07
v -0.2240186 0.1795028 -8.34465E-07
v -0.2767172 0.09680316 -8.34465E-07
v -0.1755161 0.2036829 0.01127258
v -0.1382954 0.2031804 -8.34465E-07
v -0.1770488 0.2251493 -8.34465E-07
v -0.1321143 0.2331982 0.01127258
v -0.09592375 0.2272348 -8.34465E-07
v -0.130414 0.2535171 -8.34465E-07
v -0.08377928 0.2536846 0.01127258
v -0.04968262 0.2425619 -8.34465E-07
v -0.07914761 0.2722448 -8.34465E-07
v -0.0323872 0.2643467 0.01127258
v -0.001330853 0.2485672 -8.34465E-07
v -0.0252094 0.2806035 -8.34465E-07
v 0.02011041 0.2647738 0.01127258
v 0.0472554 0.2450327 -8.34465E-07
v 0.02932346 0.2782835 -8.34465E-07
v 0.07166998 0.2549577 0.01127258
v 0.09421682 0.2320842 -8.34465E-07
v 0.08235711 0.2653685 -8.34465E-07
v 0.1203316 0.2352669 0.01127258
v 0.1377527 0.2102242 -8.34465E-07
v 0.1318563 0.2423526 -8.34465E-07
v 0.1642192 0.2064636 0.01127258
v 0.1761878 0.1802818 -8.34465E-07
v 0.1759114 0.2101237 -8.34465E-07
v 0.201641 0.1696532 0.01127258
v 0.2080482 0.1434212 -8.34465E-07
v 0.2128306 0.1699213 -8.34465E-07
v 0.2311562 0.1262431 0.01127258
v 0.2321026 0.1010579 -8.34465E-07
v 0.2411984 0.1232865 -8.34465E-07
v 0.2516427 0.07791641 0.01127258
v 0.2474298 0.05481678 -8.34465E-07
v 0.2599261 0.07202008 -8.34465E-07
v 0.2623047 0.02651599 0.01127258
v 0.253435 0.006465048 -8.34465E-07
v 0.2682848 0.0180735 -8.34465E-07
v 0.2627319 -0.02597326 0.01127258
v 0.2499006 -0.04212122 -8.34465E-07
v 0.2659648 -0.03645939 -8.34465E-07
v 0.2529158 -0.0775412 0.01127258
v 0.2530498 -0.08949304 -8.34465E-07
v -0.2419338 0.09715495 -8.34465E-07
v -0.2767172 0.09680316 -8.34465E-07
v -0.2406523 0.1133699 -0.01127425
v -0.219454 0.09623364 -8.34465E-07
v -0.2406523 0.1133699 -0.01127425
v -0.2152494 0.1149194 -8.34465E-07
v -0.2123264 0.1662612 -0.01127425
v -0.1980546 0.1458082 -8.34465E-07
v -0.1751476 0.1713284 -8.34465E-07
v -0.2240186 0.1795028 -8.34465E-07
v -0.2767172 0.09680316 -8.34465E-07
v -0.1755161 0.2036829 -0.01127425
v -0.1382954 0.2031804 -8.34465E-07
v -0.1770488 0.2251493 -8.34465E-07
v -0.1321143 0.2331982 -0.01127425
v -0.09592375 0.2272348 -8.34465E-07
v -0.130414 0.2535171 -8.34465E-07
v -0.08377928 0.2536846 -0.01127425
v -0.04968262 0.2425619 -8.34465E-07
v -0.07914761 0.2722448 -8.34465E-07
v -0.0323872 0.2643467 -0.01127425
v -0.001330853 0.2485672 -8.34465E-07
v -0.0252094 0.2806035 -8.34465E-07
v 0.02011041 0.2647738 -0.01127425
v 0.0472554 0.2450327 -8.34465E-07
v 0.02932346 0.2782835 -8.34465E-07
v 0.07166998 0.2549577 -0.01127425
v 0.09421682 0.2320842 -8.34465E-07
v 0.08235711 0.2653685 -8.34465E-07
v 0.1203316 0.2352669 -0.01127425
v 0.1377527 0.2102242 -8.34465E-07
v 0.1318563 0.2423526 -8.34465E-07
v 0.1642192 0.2064636 -0.01127425
v 0.1761878 0.1802818 -8.34465E-07
v 0.1759114 0.2101237 -8.34465E-07
v 0.201641 0.1696532 -0.01127425
v 0.2080482 0.1434212 -8.34465E-07
v 0.2128306 0.1699213 -8.34465E-07
v 0.2311562 0.1262431 -0.01127425
v 0.2321026 0.1010579 -8.34465E-07
v 0.2411984 0.1232865 -8.34465E-07
v 0.2516427 0.07791641 -0.01127425
v 0.2474298 0.05481678 -8.34465E-07
v 0.2599261 0.07202008 -8.34465E-07
v 0.2623047 0.02651599 -0.01127425
v 0.253435 0.006465048 -8.34465E-07
v 0.2682848 0.0180735 -8.34465E-07
v 0.2627319 -0.02597326 -0.01127425
v 0.2499006 -0.04212122 -8.34465E-07
v 0.2659648 -0.03645939 -8.34465E-07
v 0.2529158 -0.0775412 -0.01127425
v 0.2530498 -0.08949304 -8.34465E-07
vt -1.975491 0.04334497
vt -1.666017 0.07900715
vt -1.666017 0.02642059
vt -1.666017 0.07900715
vt -1.975491 0.9657233
vt -1.666017 0.9657233
vt -1.356542 0.07900715
vt -1.356542 0.9657233
vt -1.047068 0.9657233
vt -1.356542 0.02642059
vt -1.666017 0.02642059
vt -1.047068 0.07900715
vt -0.7375939 0.9657233
vt -1.047068 0.02642059
vt -0.7375939 0.07900715
vt -0.4281197 0.9657233
vt -0.7375939 0.02642059
vt -0.4281197 0.07900715
vt -0.1186454 0.9657233
vt -0.4281197 0.02642059
vt -0.1186454 0.07900715
vt 0.1908288 0.9657233
vt -0.1186454 0.02642059
vt 0.1908288 0.07900715
vt 0.4996986 0.9657233
vt 0.1908288 0.02642059
vt 0.4996986 0.1315935
vt 0.8091729 0.9657233
vt 0.4996986 0.07961154
vt 0.8091729 0.2150066
vt 1.118647 0.9657233
vt 0.8091729 0.16242
vt 1.118647 0.344357
vt 1.428121 0.9657233
vt 1.118647 0.2917707
vt 1.428121 0.4755208
vt 1.737596 0.9657233
vt 1.428121 0.4229345
vt 1.737596 0.6139381
vt 2.04707 0.9657233
vt 1.737596 0.5619562
vt 2.04707 0.7559819
vt 2.356544 0.9657233
vt 2.04707 0.704
vt 2.356544 0.8629682
vt 2.666018 0.9657233
vt 2.356544 0.8103817
vt 2.666018 0.9294567
vt 2.975493 0.9657233
vt 2.666018 0.8774748
vt 2.975493 0.9512167
vt 2.975493 0.8986304
vt -1.975491 0.04334497
vt -1.666017 0.02642059
vt -1.666017 0.07900715
vt -1.975491 0.9657233
vt -1.666017 0.07900715
vt -1.666017 0.9657233
vt -1.356542 0.07900715
vt -1.356542 0.9657233
vt -1.047068 0.9657233
vt -1.356542 0.02642059
vt -1.666017 0.02642059
vt -1.047068 0.07900715
vt -0.7375939 0.9657233
vt -1.047068 0.02642059
vt -0.7375939 0.07900715
vt -0.4281197 0.9657233
vt -0.7375939 0.02642059
vt -0.4281197 0.07900715
vt -0.1186454 0.9657233
vt -0.4281197 0.02642059
vt -0.1186454 0.07900715
vt 0.1908288 0.9657233
vt -0.1186454 0.02642059
vt 0.1908288 0.07900715
vt 0.4996986 0.9657233
vt 0.1908288 0.02642059
vt 0.4996986 0.1315935
vt 0.8091729 0.9657233
vt 0.4996986 0.07961154
vt 0.8091729 0.2150066
vt 1.118647 0.9657233
vt 0.8091729 0.16242
vt 1.118647 0.344357
vt 1.428121 0.9657233
vt 1.118647 0.2917707
vt 1.428121 0.4755208
vt 1.737596 0.9657233
vt 1.428121 0.4229345
vt 1.737596 0.6139381
vt 2.04707 0.9657233
vt 1.737596 0.5619562
vt 2.04707 0.7559819
vt 2.356544 0.9657233
vt 2.04707 0.704
vt 2.356544 0.8629682
vt 2.666018 0.9657233
vt 2.356544 0.8103817
vt 2.666018 0.9294567
vt 2.975493 0.9657233
vt 2.666018 0.8774748
vt 2.975493 0.9512167
vt 2.975493 0.8986304
vn -0.1114784 0.4563165 -0.8828068
vn -0.05292106 0.241606 -0.9689303
vn 0.239866 0.1765422 -0.9546189
vn -0.05292106 0.241606 -0.9689303
vn -0.2220869 0.3326954 -0.9165103
vn -0.3131762 0.2741379 -0.9092684
vn 0.03166187 -0.03816825 -0.9987696
vn -0.3587208 0.2611251 -0.8961769
vn -0.2936571 0.3261889 -0.8985357
vn 0.4090318 -0.3244489 -0.8528927
vn 0.239866 0.1765422 -0.9546189
vn 0.03166187 -0.05768734 -0.9978325
vn -0.2350996 0.3847463 -0.8925797
vn 0.343968 -0.4220445 -0.8387874
vn 0.005636334 -0.05768734 -0.9983188
vn -0.1700358 0.4498101 -0.8767889
vn 0.2463723 -0.4871083 -0.83787
vn -0.007376432 -0.05118102 -0.9986621
vn -0.07894659 0.5083675 -0.8575138
vn 0.155283 -0.5391594 -0.8277647
vn -0.02038914 -0.04467463 -0.9987935
vn 0.0186491 0.5539122 -0.8323662
vn 0.04467463 -0.584704 -0.8100157
vn -0.03340191 -0.03166187 -0.9989403
vn 0.1357639 0.5799377 -0.8032686
vn -0.07244021 -0.6107295 -0.7885188
vn -0.03990829 -0.02515548 -0.9988866
vn 0.2658915 0.5799377 -0.7700481
vn -0.2025678 -0.6172359 -0.760254
vn -0.04641467 -0.0186491 -0.9987481
vn 0.396019 0.5474058 -0.7372352
vn -0.3392017 -0.6042231 -0.7210109
vn -0.05942744 -0.01214272 -0.9981588
vn 0.5196402 0.482342 -0.7052094
vn -0.482342 -0.5586785 -0.6747033
vn -0.07244021 -0.005636334 -0.9973568
vn 0.6172359 0.3847463 -0.6862872
vn -0.618976 -0.4871083 -0.6161122
vn -0.09846568 0.007376432 -0.9951131
vn 0.6953124 0.2611251 -0.6695926
vn -0.7425971 -0.3764999 -0.5538929
vn -0.1244912 0.02038914 -0.9920112
vn 0.7343507 0.1179848 -0.6684375
vn -0.8401928 -0.2333596 -0.4895093
vn -0.1505167 0.04641467 -0.9875172
vn 0.7343507 -0.02515548 -0.678304
vn -0.9052566 -0.07070011 -0.4189415
vn -0.1765422 0.07894659 -0.981122
vn 0.7213379 -0.09672564 -0.6857957
vn -0.9247757 0.1114784 -0.3638165
vn -0.189555 0.09846568 -0.9769204
vn -0.9182693 0.2025678 -0.3402174
vn -0.1114784 0.4563165 0.8828068
vn 0.239866 0.1765422 0.9546189
vn -0.05292106 0.241606 0.9689303
vn -0.2220869 0.3326954 0.9165103
vn -0.05292106 0.241606 0.9689303
vn -0.3131762 0.2741379 0.9092684
vn 0.03166187 -0.03816825 0.9987696
vn -0.3587208 0.2611251 0.8961769
vn -0.2936571 0.3261889 0.8985357
vn 0.4090318 -0.3244489 0.8528927
vn 0.239866 0.1765422 0.9546189
vn 0.03166187 -0.05768734 0.9978325
vn -0.2350996 0.3847463 0.8925797
vn 0.343968 -0.4220445 0.8387874
vn 0.005636334 -0.05768734 0.9983188
vn -0.1700358 0.4498101 0.8767889
vn 0.2463723 -0.4871083 0.83787
vn -0.007376432 -0.05118102 0.9986621
vn -0.07894659 0.5083675 0.8575138
vn 0.155283 -0.5391594 0.8277647
vn -0.02038914 -0.04467463 0.9987935
vn 0.0186491 0.5539122 0.8323662
vn 0.04467463 -0.584704 0.8100157
vn -0.03340191 -0.03166187 0.9989403
vn 0.1357639 0.5799377 0.8032686
vn -0.07244021 -0.6107295 0.7885188
vn -0.03990829 -0.02515548 0.9988866
vn 0.2658915 0.5799377 0.7700481
vn -0.2025678 -0.6172359 0.760254
vn -0.04641467 -0.0186491 0.9987481
vn 0.396019 0.5474058 0.7372352
vn -0.3392017 -0.6042231 0.7210109
vn -0.05942744 -0.01214272 0.9981588
vn 0.5196402 0.482342 0.7052094
vn -0.482342 -0.5586785 0.6747033
vn -0.07244021 -0.005636334 0.9973568
vn 0.6172359 0.3847463 0.6862872
vn -0.618976 -0.4871083 0.6161122
vn -0.09846568 0.007376432 0.9951131
vn 0.6953124 0.2611251 0.6695926
vn -0.7425971 -0.3764999 0.5538929
vn -0.1244912 0.02038914 0.9920112
vn 0.7343507 0.1179848 0.6684375
vn -0.8401928 -0.2333596 0.4895093
vn -0.1505167 0.04641467 0.9875172
vn 0.7343507 -0.02515548 0.678304
vn -0.9052566 -0.07070011 0.4189415
vn -0.1765422 0.07894659 0.981122
vn 0.7213379 -0.09672564 0.6857957
vn -0.9247757 0.1114784 0.3638165
vn -0.189555 0.09846568 0.9769204
vn -0.9182693 0.2025678 0.3402174
g mesh_slash_thin_0
f 3/3/3 2/2/2 1/1/1
f 5/5/5 1/1/1 4/4/4
f 4/4/4 6/6/6 5/5/5
f 6/6/6 4/4/4 7/7/7
f 7/7/7 8/8/8 6/6/6
f 9/9/9 8/8/8 7/7/7
f 10/10/10 7/7/7 4/4/4
f 4/4/4 11/11/11 10/10/10
f 7/7/7 12/12/12 9/9/9
f 12/12/12 7/7/7 10/10/10
f 9/9/9 12/12/12 13/13/13
f 10/10/10 14/14/14 12/12/12
f 15/15/15 13/13/13 12/12/12
f 12/12/12 14/14/14 15/15/15
f 13/13/13 15/15/15 16/16/16
f 14/14/14 17/17/17 15/15/15
f 18/18/18 16/16/16 15/15/15
f 15/15/15 17/17/17 18/18/18
f 16/16/16 18/18/18 19/19/19
f 20/20/20 18/18/18 17/17/17
f 21/21/21 19/19/19 18/18/18
f 18/18/18 20/20/20 21/21/21
f 19/19/19 21/21/21 22/22/22
f 23/23/23 21/21/21 20/20/20
f 24/24/24 22/22/22 21/21/21
f 21/21/21 23/23/23 24/24/24
f 22/22/22 24/24/24 25/25/25
f 26/26/26 24/24/24 23/23/23
f 27/27/27 25/25/25 24/24/24
f 24/24/24 26/26/26 27/27/27
f 25/25/25 27/27/27 28/28/28
f 29/29/29 27/27/27 26/26/26
f 30/30/30 28/28/28 27/27/27
f 27/27/27 29/29/29 30/30/30
f 28/28/28 30/30/30 31/31/31
f 32/32/32 30/30/30 29/29/29
f 33/33/33 31/31/31 30/30/30
f 30/30/30 32/32/32 33/33/33
f 34/34/34 31/31/31 33/33/33
f 35/35/35 33/33/33 32/32/32
f 36/36/36 34/34/34 33/33/33
f 33/33/33 35/35/35 36/36/36
f 37/37/37 34/34/34 36/36/36
f 38/38/38 36/36/36 35/35/35
f 39/39/39 37/37/37 36/36/36
f 36/36/36 38/38/38 39/39/39
f 37/37/37 39/39/39 40/40/40
f 41/41/41 39/39/39 38/38/38
f 42/42/42 40/40/40 39/39/39
f 39/39/39 41/41/41 42/42/42
f 40/40/40 42/42/42 43/43/43
f 44/44/44 42/42/42 41/41/41
f 45/45/45 43/43/43 42/42/42
f 42/42/42 44/44/44 45/45/45
f 43/43/43 45/45/45 46/46/46
f 47/47/47 45/45/45 44/44/44
f 48/48/48 46/46/46 45/45/45
f 45/45/45 47/47/47 48/48/48
f 46/46/46 48/48/48 49/49/49
f 50/50/50 48/48/48 47/47/47
f 49/49/49 48/48/48 51/51/51
f 48/48/48 50/50/50 51/51/51
f 52/52/52 51/51/51 50/50/50
f 55/55/55 54/54/54 53/53/53
f 57/57/57 53/53/53 56/56/56
f 56/56/56 58/58/58 57/57/57
f 59/59/59 57/57/57 58/58/58
f 58/58/58 60/60/60 59/59/59
f 59/59/59 60/60/60 61/61/61
f 57/57/57 59/59/59 62/62/62
f 62/62/62 63/63/63 57/57/57
f 59/59/59 61/61/61 64/64/64
f 62/62/62 59/59/59 64/64/64
f 65/65/65 64/64/64 61/61/61
f 62/62/62 64/64/64 66/66/66
f 64/64/64 65/65/65 67/67/67
f 67/67/67 66/66/66 64/64/64
f 68/68/68 67/67/67 65/65/65
f 66/66/66 67/67/67 69/69/69
f 67/67/67 68/68/68 70/70/70
f 70/70/70 69/69/69 67/67/67
f 71/71/71 70/70/70 68/68/68
f 69/69/69 70/70/70 72/72/72
f 70/70/70 71/71/71 73/73/73
f 73/73/73 72/72/72 70/70/70
f 74/74/74 73/73/73 71/71/71
f 72/72/72 73/73/73 75/75/75
f 73/73/73 74/74/74 76/76/76
f 76/76/76 75/75/75 73/73/73
f 74/74/74 77/77/77 76/76/76
f 75/75/75 76/76/76 78/78/78
f 76/76/76 77/77/77 79/79/79
f 79/79/79 78/78/78 76/76/76
f 77/77/77 80/80/80 79/79/79
f 78/78/78 79/79/79 81/81/81
f 79/79/79 80/80/80 82/82/82
f 79/79/79 82/82/82 81/81/81
f 83/83/83 82/82/82 80/80/80
f 81/81/81 82/82/82 84/84/84
f 82/82/82 83/83/83 85/85/85
f 84/84/84 82/82/82 85/85/85
f 86/86/86 85/85/85 83/83/83
f 84/84/84 85/85/85 87/87/87
f 86/86/86 88/88/88 85/85/85
f 87/87/87 85/85/85 88/88/88
f 89/89/89 88/88/88 86/86/86
f 87/87/87 88/88/88 90/90/90
f 88/88/88 89/89/89 91/91/91
f 91/91/91 90/90/90 88/88/88
f 92/92/92 91/91/91 89/89/89
f 90/90/90 91/91/91 93/93/93
f 91/91/91 92/92/92 94/94/94
f 94/94/94 93/93/93 91/91/91
f 95/95/95 94/94/94 92/92/92
f 93/93/93 94/94/94 96/96/96
f 94/94/94 95/95/95 97/97/97
f 97/97/97 96/96/96 94/94/94
f 98/98/98 97/97/97 95/95/95
f 96/96/96 97/97/97 99/99/99
f 97/97/97 98/98/98 100/100/100
f 100/100/100 99/99/99 97/97/97
f 101/101/101 100/100/100 98/98/98
f 99/99/99 100/100/100 102/102/102
f 100/100/100 101/101/101 103/103/103
f 103/103/103 102/102/102 100/100/100
f 102/102/102 103/103/103 104/104/104
