g mesh_backdrop
v -6.79493E-06 6.79493E-06 6.79493E-06
v -0.6796404 -0.96 6.79493E-06
v -0.6796404 6.79493E-06 6.79493E-06
v 0.0008476377 -0.96 6.79493E-06
v 0.6796267 6.79493E-06 6.79493E-06
v 0.6796267 -0.96 6.79493E-06
v -6.79493E-06 0.05008215 0.02441895
v -0.6796404 6.79493E-06 6.79493E-06
v -0.6796404 0.05008215 0.02441895
v -6.79493E-06 0.07470793 0.07461637
v -6.79493E-06 6.79493E-06 6.79493E-06
v 0.6796267 6.79493E-06 6.79493E-06
v 0.6796267 0.05008215 0.02441895
v -0.6796404 0.07470793 0.07461637
v 0.6796267 0.07470793 0.07461637
v -0.6796404 0.07473844 1.039811
v 0.6796267 0.07473844 1.039811
v -6.79493E-06 0.07473844 1.039811
vt 0.5004887 0.5347018
vt 0.9999999 0.9999999
vt 0.9999999 0.5347018
vt 0.4995112 0.9999999
vt 0 0.5347018
vt 0 0.9999999
vt 0.5004887 0.4956011
vt 0.9999999 0.5347018
vt 0.9999999 0.4956011
vt 0.5004887 0.4555229
vt 0.5004887 0.5347018
vt 0 0.5347018
vt 0 0.4956011
vt 0.9999999 0.4555229
vt 0 0.4555229
vt 0.9999999 0
vt 0 0
vt 0.5004887 0
vn 0 0 1
vn 0 0 1
vn 0 0 1
vn 0 0 1
vn 0 0 1
vn 0 0 1
vn 0 -0.7058823 0.7083291
vn 0 -0.4392157 0.8983817
vn 0 -0.7058823 0.7083291
vn 0 -0.972549 0.232698
vn 0 -0.4392157 0.8983817
vn 0 -0.4392157 0.8983817
vn 0 -0.7058823 0.7083291
vn 0 -0.972549 0.232698
vn 0 -0.972549 0.232698
vn 0 -1 0
vn 0 -1 0
vn 0 -1 0
g mesh_backdrop_0
f 3/3/3 2/2/2 1/1/1
f 2/2/2 4/4/4 1/1/1
f 5/5/5 1/1/1 4/4/4
f 4/4/4 6/6/6 5/5/5
f 9/9/9 8/8/8 7/7/7
f 9/9/9 7/7/7 10/10/10
f 8/8/8 11/11/11 7/7/7
f 7/7/7 11/11/11 12/12/12
f 12/12/12 13/13/13 7/7/7
f 10/10/10 7/7/7 13/13/13
f 14/14/14 9/9/9 10/10/10
f 13/13/13 15/15/15 10/10/10
f 16/16/16 14/14/14 10/10/10
f 10/10/10 15/15/15 17/17/17
f 10/10/10 18/18/18 16/16/16
f 18/18/18 10/10/10 17/17/17
