g mesh_ring
v 0.273087 0.02089089 0.05431989
v 0.2390632 0.0005649924 0.04755589
v 0.2251953 0.0005649924 0.0932807
v 0.2572477 0.02089089 0.1065537
v 0.2026686 0.0005649924 0.1354196
v 0.2315174 0.02089089 0.1546918
v 0.1723582 0.0005649924 0.172358
v 0.1968903 0.02089089 0.1968901
v 0.1354198 0.0005649924 0.2026684
v 0.154692 0.02089089 0.2315173
v 0.09328088 0.0005649924 0.2251951
v 0.1065539 0.02089089 0.2572475
v 0.05432007 0.02089089 0.2730868
v 0.04755609 0.0005649924 0.239063
v 4.351139E-06 0.02089089 0.2784402
v 4.351139E-06 0.0005649924 0.2437451
v -0.04755589 0.0005649924 0.239063
v -0.05431989 0.02089089 0.2730868
v -0.0932807 0.0005649924 0.2251951
v -0.1065537 0.02089089 0.2572475
v -0.1546918 0.02089089 0.2315173
v -0.1354196 0.0005649924 0.2026684
v -0.172358 0.0005649924 0.172358
v -0.1968901 0.02089089 0.1968901
v -0.2315173 0.02089089 0.1546918
v -0.2026684 0.0005649924 0.1354196
v -0.2572475 0.02089089 0.1065537
v -0.2251951 0.0005649924 0.0932807
v -0.2730868 0.02089089 0.05431989
v -0.239063 0.0005649924 0.04755589
v -0.2437451 0.0005649924 4.172325E-06
v -0.2784402 0.02089089 4.172325E-06
v -0.2730868 0.02089089 -0.05432007
v -0.239063 0.0005649924 -0.04755609
v -0.2572475 0.02089089 -0.1065539
v -0.2251951 0.0005649924 -0.09328088
v -0.2315173 0.02089089 -0.154692
v -0.2026684 0.0005649924 -0.1354198
v -0.172358 0.0005649924 -0.1723582
v -0.1968901 0.02089089 -0.1968903
v -0.1354196 0.0005649924 -0.2026686
v -0.1546918 0.02089089 -0.2315174
v -0.0932807 0.0005649924 -0.2251953
v -0.1065537 0.02089089 -0.2572477
v -0.05431989 0.02089089 -0.273087
v -0.04755589 0.0005649924 -0.2390632
v -4.172325E-06 0.0005649924 -0.2437453
v -4.172325E-06 0.02089089 -0.2784404
v 0.05432007 0.02089089 -0.273087
v 0.04755609 0.0005649924 -0.2390632
v 0.09328088 0.0005649924 -0.2251953
v 0.1065539 0.02089089 -0.2572477
v 0.154692 0.02089089 -0.2315174
v 0.1354198 0.0005649924 -0.2026686
v 0.1723582 0.0005649924 -0.1723582
v 0.1968903 0.02089089 -0.1968903
v 0.2315174 0.02089089 -0.154692
v 0.2026686 0.0005649924 -0.1354198
v 0.2251953 0.0005649924 -0.09328088
v 0.2572477 0.02089089 -0.1065539
v 0.2390632 0.0005649924 -0.04755609
v 0.273087 0.02089089 -0.05432007
v 0.2437453 0.0005649924 4.172325E-06
v 0.2784404 0.02089089 4.172325E-06
v 0.273087 0.02089089 0.05431989
v 0.2390632 0.0005649924 0.04755589
v 0.2251953 0.0005649924 0.0932807
v 0.2390632 0.0005649924 0.04755589
v 0.1674127 -0.004975349 0.03329718
v 0.1577001 -0.004975349 0.06532407
v 0.1419288 -0.004975349 0.09483573
v 0.2026686 0.0005649924 0.1354196
v 0.1207022 -0.004975349 0.120702
v 0.1723582 0.0005649924 0.172358
v 0.1354198 0.0005649924 0.2026684
v 0.09483592 -0.004975349 0.1419286
v 0.06532426 -0.004975349 0.1576999
v 0.09328088 0.0005649924 0.2251951
v 0.03329736 -0.004975349 0.1674125
v 0.04755609 0.0005649924 0.239063
v -4.172325E-06 -0.004975349 0.1706925
v 4.351139E-06 0.0005649924 0.2437451
v -0.04755589 0.0005649924 0.239063
v -0.03329718 -0.004975349 0.1674125
v -0.06532407 -0.004975349 0.1576999
v -0.0932807 0.0005649924 0.2251951
v -0.09483573 -0.004975349 0.1419286
v -0.1354196 0.0005649924 0.2026684
v -0.120702 -0.004975349 0.120702
v -0.172358 0.0005649924 0.172358
v -0.1419286 -0.004975349 0.09483573
v -0.2026684 0.0005649924 0.1354196
v -0.2251951 0.0005649924 0.0932807
v -0.1576999 -0.004975349 0.06532407
v -0.1674125 -0.004975349 0.03329718
v -0.239063 0.0005649924 0.04755589
v -0.1706925 -0.004975349 4.172325E-06
v -0.2437451 0.0005649924 4.172325E-06
v -0.239063 0.0005649924 -0.04755609
v -0.1674125 -0.004975349 -0.03329736
v -0.2251951 0.0005649924 -0.09328088
v -0.1576999 -0.004975349 -0.06532426
v -0.2026684 0.0005649924 -0.1354198
v -0.1419286 -0.004975349 -0.09483592
v -0.120702 -0.004975349 -0.1207022
v -0.172358 0.0005649924 -0.1723582
v -0.1354196 0.0005649924 -0.2026686
v -0.09483573 -0.004975349 -0.1419288
v -0.0932807 0.0005649924 -0.2251953
v -0.06532407 -0.004975349 -0.1577001
v -0.03329718 -0.004975349 -0.1674127
v -0.04755589 0.0005649924 -0.2390632
v -4.172325E-06 -0.004975349 -0.1706927
v -4.172325E-06 0.0005649924 -0.2437453
v 0.04755609 0.0005649924 -0.2390632
v 0.03329736 -0.004975349 -0.1674127
v 0.09328088 0.0005649924 -0.2251953
v 0.06532426 -0.004975349 -0.1577001
v 0.1354198 0.0005649924 -0.2026686
v 0.09483592 -0.004975349 -0.1419288
v 0.1207022 -0.004975349 -0.1207022
v 0.1723582 0.0005649924 -0.1723582
v 0.2026686 0.0005649924 -0.1354198
v 0.1419288 -0.004975349 -0.09483592
v 0.1577001 -0.004975349 -0.06532426
v 0.2251953 0.0005649924 -0.09328088
v 0.1674127 -0.004975349 -0.03329736
v 0.2390632 0.0005649924 -0.04755609
v 0.1706927 -0.004975349 4.172325E-06
v 0.2437453 0.0005649924 4.172325E-06
v 0.2390632 0.0005649924 0.04755589
v 0.1674127 -0.004975349 0.03329718
vt -4.450982 0.9638805
vt -4.450982 0.009525299
vt -4.141527 0.009525299
vt -4.141527 0.9638805
vt -3.832072 0.009525299
vt -3.832072 0.9638805
vt -3.522616 0.009525299
vt -3.522616 0.9638805
vt -3.213161 0.009525299
vt -3.213161 0.9638805
vt -2.903706 0.009525299
vt -2.903706 0.9638805
vt -2.594251 0.9638805
vt -2.594251 0.009525299
vt -2.284795 0.9638805
vt -2.284795 0.009525299
vt -1.97534 0.009525299
vt -1.97534 0.9638805
vt -1.665885 0.009525299
vt -1.665885 0.9638805
vt -1.35643 0.9638805
vt -1.35643 0.009525299
vt -1.046974 0.009525299
vt -1.046974 0.9638805
vt -0.737519 0.9638805
vt -0.737519 0.009525299
vt -0.4280639 0.9638805
vt -0.4280639 0.009525299
vt -0.1186085 0.9638805
vt -0.1186085 0.009525299
vt 0.1908469 0.009525299
vt 0.1908469 0.9638805
vt 0.5003023 0.9638805
vt 0.5003023 0.009525299
vt 0.8091531 0.9638805
vt 0.8091531 0.009525299
vt 1.118608 0.9638805
vt 1.118608 0.009525299
vt 1.428063 0.009525299
vt 1.428063 0.9638805
vt 1.737519 0.009525299
vt 1.737519 0.9638805
vt 2.046974 0.009525299
vt 2.046974 0.9638805
vt 2.356429 0.9638805
vt 2.356429 0.009525299
vt 2.665884 0.009525299
vt 2.665884 0.9638805
vt 2.97534 0.9638805
vt 2.97534 0.009525299
vt 3.284795 0.009525299
vt 3.284795 0.9638805
vt 3.594251 0.9638805
vt 3.594251 0.009525299
vt 3.903706 0.009525299
vt 3.903706 0.9638805
vt 4.213161 0.9638805
vt 4.213161 0.009525299
vt 4.522616 0.009525299
vt 4.522616 0.9638805
vt 4.832071 0.009525299
vt 4.832071 0.9638805
vt 5.141526 0.009525299
vt 5.141526 0.9638805
vt 5.450982 0.9638805
vt 5.450982 0.009525299
vt -4.141527 0.009525299
vt -4.450982 0.009525299
vt -4.450982 0.965694
vt -4.141527 0.965694
vt -3.832072 0.965694
vt -3.832072 0.009525299
vt -3.522616 0.965694
vt -3.522616 0.009525299
vt -3.213161 0.009525299
vt -3.213161 0.965694
vt -2.903706 0.965694
vt -2.903706 0.009525299
vt -2.594251 0.965694
vt -2.594251 0.009525299
vt -2.284795 0.965694
vt -2.284795 0.009525299
vt -1.97534 0.009525299
vt -1.97534 0.965694
vt -1.665885 0.965694
vt -1.665885 0.009525299
vt -1.35643 0.965694
vt -1.35643 0.009525299
vt -1.046974 0.965694
vt -1.046974 0.009525299
vt -0.737519 0.965694
vt -0.737519 0.009525299
vt -0.4280639 0.009525299
vt -0.4280639 0.965694
vt -0.1186085 0.965694
vt -0.1186085 0.009525299
vt 0.1908469 0.965694
vt 0.1908469 0.009525299
vt 0.5003023 0.009525299
vt 0.5003023 0.965694
vt 0.8091531 0.009525299
vt 0.8091531 0.965694
vt 1.118608 0.009525299
vt 1.118608 0.965694
vt 1.428063 0.965694
vt 1.428063 0.009525299
vt 1.737519 0.009525299
vt 1.737519 0.965694
vt 2.046974 0.009525299
vt 2.046974 0.965694
vt 2.356429 0.965694
vt 2.356429 0.009525299
vt 2.665884 0.965694
vt 2.665884 0.009525299
vt 2.97534 0.009525299
vt 2.97534 0.965694
vt 3.284795 0.009525299
vt 3.284795 0.965694
vt 3.594251 0.009525299
vt 3.594251 0.965694
vt 3.903706 0.965694
vt 3.903706 0.009525299
vt 4.213161 0.009525299
vt 4.213161 0.965694
vt 4.522616 0.965694
vt 4.522616 0.009525299
vt 4.832071 0.965694
vt 4.832071 0.009525299
vt 5.141526 0.965694
vt 5.141526 0.009525299
vt 5.450982 0.009525299
vt 5.450982 0.965694
vn 0.4962342 -0.8615983 0.106771
vn 0.2899804 -0.9558857 0.04683875
vn 0.2781944 -0.9558857 0.09428855
vn 0.4667694 -0.8615983 0.1994361
vn 0.2487296 -0.9558857 0.1562565
vn 0.4196256 -0.8615983 0.2855919
vn 0.2133718 -0.9558857 0.2018786
vn 0.354803 -0.8615983 0.3629921
vn 0.1662281 -0.9558857 0.2421791
vn 0.2781944 -0.8615983 0.424566
vn 0.1131913 -0.9558857 0.2710539
vn 0.1956929 -0.8615983 0.4683511
vn 0.1014054 -0.8615983 0.4973584
vn 0.06015462 -0.9558857 0.2875133
vn 0.001224935 -0.8615983 0.5075894
vn 0.001224935 -0.9558857 0.2937363
vn -0.05770469 -0.9558857 0.2880151
vn -0.09895551 -0.8615983 0.4978516
vn -0.1166344 -0.9558857 0.2695903
vn -0.193243 -0.8615983 0.4693673
vn -0.2816375 -0.8615983 0.4222899
vn -0.1637782 -0.9558857 0.2438426
vn -0.2109219 -0.9558857 0.2044368
vn -0.3582461 -0.8615983 0.3595945
vn -0.4230688 -0.8615983 0.2804663
vn -0.2462797 -0.9558857 0.16009
vn -0.4643195 -0.8615983 0.2050754
vn -0.2757446 -0.9558857 0.1012295
vn -0.4937843 -0.8615983 0.117582
vn -0.2934234 -0.9558857 0.01360851
vn -0.2988226 -0.9543086 0
vn -0.5055703 -0.8615983 0.04524579
vn -0.4937843 -0.8615983 -0.117582
vn -0.2934234 -0.9558857 -0.01360851
vn -0.4643195 -0.8615983 -0.2050754
vn -0.2757446 -0.9558857 -0.1012295
vn -0.4230688 -0.8615983 -0.2804663
vn -0.2462797 -0.9558857 -0.16009
vn -0.2109219 -0.9558857 -0.2044368
vn -0.3582461 -0.8615983 -0.3595945
vn -0.1637782 -0.9558857 -0.2438426
vn -0.2816375 -0.8615983 -0.4222899
vn -0.1166344 -0.9558857 -0.2695903
vn -0.193243 -0.8615983 -0.4693673
vn -0.09895551 -0.8615983 -0.4978516
vn -0.05770469 -0.9558857 -0.2880151
vn 0.001224935 -0.9558857 -0.2937363
vn 0.001224935 -0.8615983 -0.5075894
vn 0.1014054 -0.8615983 -0.4973584
vn 0.06015462 -0.9558857 -0.2875133
vn 0.1131913 -0.9558857 -0.2710539
vn 0.1956929 -0.8615983 -0.4683511
vn 0.2781944 -0.8615983 -0.424566
vn 0.1662281 -0.9558857 -0.2421791
vn 0.2133718 -0.9558857 -0.2018786
vn 0.354803 -0.8615983 -0.3629921
vn 0.4196256 -0.8615983 -0.2855919
vn 0.2487296 -0.9558857 -0.1562565
vn 0.2781944 -0.9558857 -0.09428855
vn 0.4667694 -0.8615983 -0.1994361
vn 0.2899804 -0.9558857 -0.04683875
vn 0.4962342 -0.8615983 -0.106771
vn 0.2956873 -0.9552848 0
vn 0.5079094 -0.8614104 0
vn 0.4962342 -0.8615983 0.106771
vn 0.2899804 -0.9558857 0.04683875
vn 0.2781944 -0.9558857 0.09428855
vn 0.2899804 -0.9558857 0.04683875
vn 0.07194054 -0.9971365 0.02331
vn 0.07194054 -0.9971365 0.02331
vn 0.06015462 -0.9971365 0.04582826
vn 0.2487296 -0.9558857 0.1562565
vn 0.05426162 -0.9971365 0.05267331
vn 0.2133718 -0.9558857 0.2018786
vn 0.1662281 -0.9558857 0.2421791
vn 0.0424757 -0.9971365 0.0625672
vn 0.03068978 -0.9971365 0.06911552
vn 0.1131913 -0.9558857 0.2710539
vn 0.01301086 -0.9971365 0.0744953
vn 0.06015462 -0.9558857 0.2875133
vn 0.001224935 -0.9971365 0.07561307
vn 0.001224935 -0.9558857 0.2937363
vn -0.05770469 -0.9558857 0.2880151
vn -0.01645398 -0.9971365 0.07381126
vn -0.02823985 -0.9971365 0.0701521
vn -0.1166344 -0.9558857 0.2695903
vn -0.04002583 -0.9971365 0.06416209
vn -0.1637782 -0.9558857 0.2438426
vn -0.05181181 -0.9971365 0.05508496
vn -0.2109219 -0.9558857 0.2044368
vn -0.06359768 -0.9971365 0.04091669
vn -0.2462797 -0.9558857 0.16009
vn -0.2757446 -0.9558857 0.1012295
vn -0.06949067 -0.9971365 0.02983115
vn -0.07538366 -0.9971365 0.006010026
vn -0.2934234 -0.9558857 0.01360851
vn -0.07538366 -0.9971365 -0.006010026
vn -0.2988226 -0.9543086 0
vn -0.2934234 -0.9558857 -0.01360851
vn -0.07538366 -0.9971365 -0.006010026
vn -0.2757446 -0.9558857 -0.1012295
vn -0.06949067 -0.9971365 -0.02983115
vn -0.2462797 -0.9558857 -0.16009
vn -0.06359768 -0.9971365 -0.04091669
vn -0.05181181 -0.9971365 -0.05508496
vn -0.2109219 -0.9558857 -0.2044368
vn -0.1637782 -0.9558857 -0.2438426
vn -0.04002583 -0.9971365 -0.06416209
vn -0.1166344 -0.9558857 -0.2695903
vn -0.02823985 -0.9971365 -0.0701521
vn -0.01645398 -0.9971365 -0.07381126
vn -0.05770469 -0.9558857 -0.2880151
vn 0.001224935 -0.9971365 -0.07561307
vn 0.001224935 -0.9558857 -0.2937363
vn 0.06015462 -0.9558857 -0.2875133
vn 0.01301086 -0.9971365 -0.0744953
vn 0.1131913 -0.9558857 -0.2710539
vn 0.03068978 -0.9971365 -0.06911552
vn 0.1662281 -0.9558857 -0.2421791
vn 0.0424757 -0.9971365 -0.0625672
vn 0.05426162 -0.9971365 -0.05267331
vn 0.2133718 -0.9558857 -0.2018786
vn 0.2487296 -0.9558857 -0.1562565
vn 0.06015462 -0.9971365 -0.04582826
vn 0.07194054 -0.9971365 -0.02331
vn 0.2781944 -0.9558857 -0.09428855
vn 0.07194054 -0.9971365 -0.02331
vn 0.2899804 -0.9558857 -0.04683875
vn 0.07782033 -0.9969673 0
vn 0.2956873 -0.9552848 0
vn 0.2899804 -0.9558857 0.04683875
vn 0.07194054 -0.9971365 0.02331
g mesh_ring_0
f 3/3/3 2/2/2 1/1/1
f 1/1/1 4/4/4 3/3/3
f 3/3/3 4/4/4 5/5/5
f 4/4/4 6/6/6 5/5/5
f 5/5/5 6/6/6 7/7/7
f 8/8/8 7/7/7 6/6/6
f 7/7/7 8/8/8 9/9/9
f 10/10/10 9/9/9 8/8/8
f 10/10/10 11/11/11 9/9/9
f 12/12/12 11/11/11 10/10/10
f 11/11/11 12/12/12 13/13/13
f 13/13/13 14/14/14 11/11/11
f 14/14/14 13/13/13 15/15/15
f 15/15/15 16/16/16 14/14/14
f 17/17/17 16/16/16 15/15/15
f 15/15/15 18/18/18 17/17/17
f 19/19/19 17/17/17 18/18/18
f 18/18/18 20/20/20 19/19/19
f 19/19/19 20/20/20 21/21/21
f 21/21/21 22/22/22 19/19/19
f 23/23/23 22/22/22 21/21/21
f 21/21/21 24/24/24 23/23/23
f 23/23/23 24/24/24 25/25/25
f 25/25/25 26/26/26 23/23/23
f 26/26/26 25/25/25 27/27/27
f 27/27/27 28/28/28 26/26/26
f 28/28/28 27/27/27 29/29/29
f 29/29/29 30/30/30 28/28/28
f 30/30/30 29/29/29 31/31/31
f 32/32/32 31/31/31 29/29/29
f 31/31/31 32/32/32 33/33/33
f 33/33/33 34/34/34 31/31/31
f 34/34/34 33/33/33 35/35/35
f 35/35/35 36/36/36 34/34/34
f 36/36/36 35/35/35 37/37/37
f 37/37/37 38/38/38 36/36/36
f 39/39/39 38/38/38 37/37/37
f 37/37/37 40/40/40 39/39/39
f 41/41/41 39/39/39 40/40/40
f 40/40/40 42/42/42 41/41/41
f 43/43/43 41/41/41 42/42/42
f 42/42/42 44/44/44 43/43/43
f 43/43/43 44/44/44 45/45/45
f 45/45/45 46/46/46 43/43/43
f 47/47/47 46/46/46 45/45/45
f 45/45/45 48/48/48 47/47/47
f 47/47/47 48/48/48 49/49/49
f 49/49/49 50/50/50 47/47/47
f 50/50/50 49/49/49 51/51/51
f 52/52/52 51/51/51 49/49/49
f 51/51/51 52/52/52 53/53/53
f 53/53/53 54/54/54 51/51/51
f 55/55/55 54/54/54 53/53/53
f 56/56/56 55/55/55 53/53/53
f 55/55/55 56/56/56 57/57/57
f 57/57/57 58/58/58 55/55/55
f 59/59/59 58/58/58 57/57/57
f 57/57/57 60/60/60 59/59/59
f 61/61/61 59/59/59 60/60/60
f 60/60/60 62/62/62 61/61/61
f 63/63/63 61/61/61 62/62/62
f 62/62/62 64/64/64 63/63/63
f 63/63/63 64/64/64 65/65/65
f 65/65/65 66/66/66 63/63/63
f 69/69/69 68/68/68 67/67/67
f 67/67/67 70/70/70 69/69/69
f 71/71/71 70/70/70 67/67/67
f 67/67/67 72/72/72 71/71/71
f 72/72/72 73/73/73 71/71/71
f 74/74/74 73/73/73 72/72/72
f 73/73/73 74/74/74 75/75/75
f 75/75/75 76/76/76 73/73/73
f 75/75/75 77/77/77 76/76/76
f 77/77/77 75/75/75 78/78/78
f 79/79/79 77/77/77 78/78/78
f 79/79/79 78/78/78 80/80/80
f 81/81/81 79/79/79 80/80/80
f 81/81/81 80/80/80 82/82/82
f 81/81/81 82/82/82 83/83/83
f 83/83/83 84/84/84 81/81/81
f 85/85/85 84/84/84 83/83/83
f 83/83/83 86/86/86 85/85/85
f 87/87/87 85/85/85 86/86/86
f 86/86/86 88/88/88 87/87/87
f 89/89/89 87/87/87 88/88/88
f 88/88/88 90/90/90 89/89/89
f 91/91/91 89/89/89 90/90/90
f 90/90/90 92/92/92 91/91/91
f 91/91/91 92/92/92 93/93/93
f 93/93/93 94/94/94 91/91/91
f 93/93/93 95/95/95 94/94/94
f 96/96/96 95/95/95 93/93/93
f 96/96/96 97/97/97 95/95/95
f 98/98/98 97/97/97 96/96/96
f 97/97/97 98/98/98 99/99/99
f 99/99/99 100/100/100 97/97/97
f 100/100/100 99/99/99 101/101/101
f 101/101/101 102/102/102 100/100/100
f 102/102/102 101/101/101 103/103/103
f 103/103/103 104/104/104 102/102/102
f 105/105/105 104/104/104 103/103/103
f 103/103/103 106/106/106 105/105/105
f 105/105/105 106/106/106 107/107/107
f 107/107/107 108/108/108 105/105/105
f 108/108/108 107/107/107 109/109/109
f 109/109/109 110/110/110 108/108/108
f 111/111/111 110/110/110 109/109/109
f 109/109/109 112/112/112 111/111/111
f 113/113/113 111/111/111 112/112/112
f 112/112/112 114/114/114 113/113/113
f 113/113/113 114/114/114 115/115/115
f 115/115/115 116/116/116 113/113/113
f 116/116/116 115/115/115 117/117/117
f 117/117/117 118/118/118 116/116/116
f 118/118/118 117/117/117 119/119/119
f 119/119/119 120/120/120 118/118/118
f 119/119/119 121/121/121 120/120/120
f 121/121/121 119/119/119 122/122/122
f 121/121/121 122/122/122 123/123/123
f 123/123/123 124/124/124 121/121/121
f 125/125/125 124/124/124 123/123/123
f 123/123/123 126/126/126 125/125/125
f 127/127/127 125/125/125 126/126/126
f 126/126/126 128/128/128 127/127/127
f 129/129/129 127/127/127 128/128/128
f 128/128/128 130/130/130 129/129/129
f 129/129/129 130/130/130 131/131/131
f 131/131/131 132/132/132 129/129/129
