g mesh_ice
v -0.03055129 -0.08177943 -0.2435815
v 0.1100794 0.07904915 -0.2128119
v 0.03695449 0.1788569 -0.1777934
v -0.1666332 0.05166088 -0.1727393
v -0.0364893 0.2460423 -0.1148942
v -0.2641241 0.1687753 -0.07874478
v -0.2958161 0.007545643 0.09274872
v -0.2084772 -0.1018285 0.02120532
v -0.03836189 -0.2556266 -0.09712912
v 0.07291871 -0.23447 0.08160814
v 0.1573446 0.001197335 0.2005735
v 0.2135493 -0.0736414 0.1123777
v -0.04624304 -0.1259987 0.2056277
v 0.08004232 0.07407672 0.2513461
v -0.1475925 -0.003190365 0.2874956
v -0.2084772 -0.1018285 0.02120532
v -0.2958161 0.007545643 0.09274872
v -0.03836189 -0.2556266 -0.09712912
v 0.1961112 -0.2601725 -0.1231733
v 0.1711294 -0.2789189 -0.18529
v 0.07291871 -0.23447 0.08160814
v 0.2197194 -0.2427364 -0.1868673
v 0.2135493 -0.0736414 0.1123777
v 0.2376641 -0.2109849 -0.113299
v 0.2343667 0.07862218 -0.04760021
v 0.03695449 0.1788569 -0.1777934
v 0.1100794 0.07904915 -0.2128119
v 0.1943967 0.1589108 -0.004853336
v 0.1257232 0.2118555 0.03774638
v -0.0364893 0.2460423 -0.1148942
v 0.2066231 -0.1651777 -0.2108559
v 0.2517682 -0.1769032 -0.1692385
v 0.1100794 0.07904915 -0.2128119
v 0.2197194 -0.2427364 -0.1868673
v 0.2376641 -0.2109849 -0.113299
v 0.2343667 0.07862218 -0.04760021
v 0.1100794 0.07904915 -0.2128119
v 0.2135493 -0.0736414 0.1123777
v 0.2343667 0.07862218 -0.04760021
v 0.1573446 0.001197335 0.2005735
v 0.1943967 0.1589108 -0.004853336
v 0.1257232 0.2118555 0.03774638
v 0.08004232 0.07407672 0.2513461
v 0.2066231 -0.1651777 -0.2108559
v -0.03055129 -0.08177943 -0.2435815
v 0.1650702 -0.2143653 -0.2207302
v -0.03836189 -0.2556266 -0.09712912
v 0.2197194 -0.2427364 -0.1868673
v 0.1711294 -0.2789189 -0.18529
v -0.0364893 0.2460423 -0.1148942
v 0.1257232 0.2118555 0.03774638
v -0.1036343 0.2476098 0.1679978
v -0.1950987 0.2563623 0.1180751
v -0.2641241 0.1687753 -0.07874478
v -0.2428383 0.2376582 0.1979714
v -0.2954503 0.2151607 0.08044197
v -0.2641241 0.1687753 -0.07874478
v -0.2958161 0.007545643 0.09274872
v -0.2641241 0.1687753 -0.07874478
v -0.2954503 0.2151607 0.08044197
v -0.3217923 0.152837 0.172374
v -0.2428383 0.2376582 0.1979714
v -0.1475925 -0.003190365 0.2874956
v -0.2359929 0.1274196 0.2673069
v 0.1257232 0.2118555 0.03774638
v 0.08004232 0.07407672 0.2513461
v -0.1036343 0.2476098 0.1679978
v -0.1479874 0.1924288 0.2397396
v -0.1475925 -0.003190365 0.2874956
v -0.2428383 0.2376582 0.1979714
v -0.2359929 0.1274196 0.2673069
vt 2.980232E-08 0.5
vt 0 1
vt 0.5 1
vt 0.5 0.5
vt 1 1
vt 1 0.5
vt 1 0
vt 0.5 0
vt 2.980232E-08 2.980232E-08
vt 2.980232E-08 0.5
vt 0.5 0
vt 2.980232E-08 2.980232E-08
vt 0.5 0.5
vt 1 0
vt 1 0.5
vt 0.5 1
vt 1 1
vt 0 1
vt 0.5 0.05
vt 0 0
vt 0.5 1
vt 0.5 0
vt 1 1
vt 1 0
vt 1 1
vt 1.192093E-07 0.5
vt 0 1
vt 1 0.5
vt 1 0
vt 0 0
vt 1 1
vt 0.95 0.5000001
vt 1.192093E-07 0.9999999
vt 1 0.5
vt 1 2.980232E-08
vt 1.192093E-07 0.5
vt 0 1
vt 0 0
vt 1 0
vt 0 0.5
vt 1 0.5
vt 1 1
vt 0 1
vt 0 0
vt 0.5 1
vt 0.5 0.05
vt 1 1
vt 0.5 0
vt 1 0
vt 0.5 0
vt 0 0
vt 0 1
vt 0.5 0.95
vt 1 0
vt 0.5 1
vt 1 1
vt 1 0
vt 1 0.5
vt 1 0
vt 0 0
vt 0.05 0.5
vt 0 0.5
vt 1 1
vt 0 1
vt -0.001899004 0.008382529
vt -0.001899004 0.5007866
vt 0.998101 0.0007866025
vt 0.9481009 0.5007866
vt -0.001899004 1.000787
vt 0.998101 0.5007866
vt 0.998101 1.000787
vn -0.3134466 -0.1933215 -0.9297193
vn 0.3858704 0.3547103 -0.8516365
vn 0.1847138 0.6289597 -0.7551758
vn -0.5875314 -0.01275173 -0.8091009
vn -0.002661673 0.9122747 -0.4095705
vn -0.759121 0.314185 -0.5701079
vn -0.8984366 -0.4328536 0.07381991
vn -0.7424568 -0.6661782 -0.0704591
vn -0.465346 -0.8536478 -0.2339628
vn 0.1575205 -0.8536909 0.496386
vn 0.670749 -0.04462697 0.7403407
vn 0.8294519 -0.2637035 0.4924126
vn -0.1125672 -0.7083156 0.6968628
vn 0.4249708 0.3050488 0.8522587
vn -0.295073 -0.3959602 0.8695674
vn -0.7424568 -0.6661782 -0.0704591
vn -0.8984366 -0.4328536 0.07381991
vn -0.465346 -0.8536478 -0.2339628
vn 0.5301433 -0.8256213 0.1931259
vn 0.1740631 -0.8764892 -0.4488527
vn 0.1575205 -0.8536909 0.496386
vn 0.714445 -0.5174126 -0.4710123
vn 0.8294519 -0.2637035 0.4924126
vn 0.8693834 -0.461836 0.1757273
vn 0.9301112 0.3281123 -0.1650318
vn 0.1847138 0.6289597 -0.7551758
vn 0.3858704 0.3547103 -0.8516365
vn 0.7812834 0.6240789 0.01103138
vn 0.4860986 0.8448655 0.2234065
vn -0.002661673 0.9122747 -0.4095705
vn 0.52943 0.01347011 -0.8482468
vn 0.9342937 -0.07363116 -0.3488176
vn 0.3858704 0.3547103 -0.8516365
vn 0.714445 -0.5174126 -0.4710123
vn 0.8693834 -0.461836 0.1757273
vn 0.9301112 0.3281123 -0.1650318
vn 0.3858704 0.3547103 -0.8516365
vn 0.8294519 -0.2637035 0.4924126
vn 0.9301112 0.3281123 -0.1650318
vn 0.670749 -0.04462697 0.7403407
vn 0.7812834 0.6240789 0.01103138
vn 0.4860986 0.8448655 0.2234065
vn 0.4249708 0.3050488 0.8522587
vn 0.52943 0.01347011 -0.8482468
vn -0.3134466 -0.1933215 -0.9297193
vn 0.1505815 -0.3112051 -0.9383371
vn -0.465346 -0.8536478 -0.2339628
vn 0.714445 -0.5174126 -0.4710123
vn 0.1740631 -0.8764892 -0.4488527
vn -0.002661673 0.9122747 -0.4095705
vn 0.4860986 0.8448655 0.2234065
vn 0.1572028 0.9068126 0.391124
vn -0.1512722 0.9883972 -0.01370143
vn -0.759121 0.314185 -0.5701079
vn -0.3458399 0.8000999 0.4901377
vn -0.7008227 0.7077869 -0.08879842
vn -0.759121 0.314185 -0.5701079
vn -0.8984366 -0.4328536 0.07381991
vn -0.759121 0.314185 -0.5701079
vn -0.7008227 0.7077869 -0.08879842
vn -0.9176346 0.173837 0.35739
vn -0.3458399 0.8000999 0.4901377
vn -0.295073 -0.3959602 0.8695674
vn -0.4096033 0.2126734 0.8871275
vn 0.4860986 0.8448655 0.2234065
vn 0.4249708 0.3050488 0.8522587
vn 0.1572028 0.9068126 0.391124
vn 0.1159876 0.585574 0.802278
vn -0.295073 -0.3959602 0.8695674
vn -0.3458399 0.8000999 0.4901377
vn -0.4096033 0.2126734 0.8871275
g mesh_ice_0
f 3/3/3 2/2/2 1/1/1
f 1/1/1 4/4/4 3/3/3
f 5/5/5 3/3/3 4/4/4
f 4/4/4 6/6/6 5/5/5
f 7/7/7 6/6/6 4/4/4
f 8/8/8 7/7/7 4/4/4
f 8/8/8 4/4/4 1/1/1
f 9/9/9 8/8/8 1/1/1
f 12/12/12 11/11/11 10/10/10
f 10/10/10 11/11/11 13/13/13
f 11/11/11 14/14/14 13/13/13
f 15/15/15 13/13/13 14/14/14
f 10/10/10 13/13/13 16/16/16
f 13/13/13 15/15/15 16/16/16
f 15/15/15 17/17/17 16/16/16
f 16/16/16 18/18/18 10/10/10
f 18/18/18 20/20/20 19/19/19
f 19/19/19 21/21/21 18/18/18
f 22/22/22 19/19/19 20/20/20
f 19/19/19 23/23/23 21/21/21
f 22/22/22 24/24/24 19/19/19
f 19/19/19 24/24/24 23/23/23
f 27/27/27 26/26/26 25/25/25
f 26/26/26 28/28/28 25/25/25
f 29/29/29 28/28/28 26/26/26
f 26/26/26 30/30/30 29/29/29
f 33/33/33 32/32/32 31/31/31
f 31/31/31 32/32/32 34/34/34
f 34/34/34 32/32/32 35/35/35
f 36/36/36 35/35/35 32/32/32
f 32/32/32 37/37/37 36/36/36
f 36/36/36 38/38/38 35/35/35
f 40/40/40 38/38/38 39/39/39
f 39/39/39 41/41/41 40/40/40
f 40/40/40 41/41/41 42/42/42
f 42/42/42 43/43/43 40/40/40
f 45/45/45 37/37/37 44/44/44
f 44/44/44 46/46/46 45/45/45
f 45/45/45 46/46/46 47/47/47
f 46/46/46 44/44/44 48/48/48
f 46/46/46 49/49/49 47/47/47
f 46/46/46 48/48/48 49/49/49
f 52/52/52 51/51/51 50/50/50
f 50/50/50 53/53/53 52/52/52
f 50/50/50 54/54/54 53/53/53
f 55/55/55 52/52/52 53/53/53
f 55/55/55 53/53/53 56/56/56
f 56/56/56 53/53/53 57/57/57
f 60/60/60 59/59/59 58/58/58
f 58/58/58 61/61/61 60/60/60
f 62/62/62 60/60/60 61/61/61
f 61/61/61 58/58/58 63/63/63
f 64/64/64 62/62/62 61/61/61
f 63/63/63 64/64/64 61/61/61
f 67/67/67 66/66/66 65/65/65
f 66/66/66 67/67/67 68/68/68
f 68/68/68 69/69/69 66/66/66
f 68/68/68 67/67/67 70/70/70
f 69/69/69 68/68/68 71/71/71
f 71/71/71 68/68/68 70/70/70
