g mesh_wrap
v 0.22710069 -0.09294602 -0.40408325
v 0.22292957 -0.118377805 -0.39844513
v 0.22617012 -0.11902374 -0.393858
v 0.17039093 -0.195768 -0.37673557
v 0.16546442 -0.18940732 -0.37910032
v 0.21798114 -0.11564085 -0.39971507
v 0.22710069 -0.09294602 -0.40408325
v 0.21128108 -0.115279585 -0.39785394
v 0.15862203 -0.18195185 -0.3758926
v 0.0836294 -0.22528334 -0.3534605
v 0.08547959 -0.23554146 -0.35613176
v -0.0042707026 -0.2360998 -0.33296618
v -0.007883489 -0.24693814 -0.3350572
v -0.09010166 -0.210876 -0.31819755
v 0.08743924 -0.24394938 -0.35279268
v -0.099155486 -0.22065242 -0.32012436
v -0.15990502 -0.15356413 -0.30472076
v -0.009230047 -0.25618905 -0.33082038
v -0.17353505 -0.16100866 -0.30645055
v -0.20338976 -0.071597755 -0.28880262
v -0.104300976 -0.22913697 -0.31467235
v -0.22016186 -0.07491493 -0.29022586
v -0.21356028 0.023856342 -0.27323484
v -0.18252319 -0.16672342 -0.2997614
v -0.1012575 -0.23004565 -0.29975045
v -0.0056939125 -0.25746995 -0.31716844
v 0.09131479 -0.24503322 -0.34067345
v -0.2313177 0.026593298 -0.27470183
v -0.18516165 0.11818284 -0.25746995
v -0.23151475 -0.076283425 -0.2825733
v -0.20109075 0.1271491 -0.2592216
v -0.12558359 0.1917851 -0.24004102
v -0.18014753 -0.16638403 -0.2835586
v -0.24295521 0.02997619 -0.2660859
v 0.17475912 -0.19634824 -0.36615998
v 0.21128108 -0.115279585 -0.39785394
v 0.22710069 -0.09294602 -0.40408325
v 0.15862203 -0.18195185 -0.3758926
v 0.0836294 -0.22528334 -0.3534605
v -0.0042707026 -0.2360998 -0.33296618
v -0.09010166 -0.210876 -0.31819755
v -0.15990502 -0.15356413 -0.30472076
v -0.20338976 -0.071597755 -0.28880262
v -0.22895294 -0.07510105 -0.26514438
v -0.21356028 0.023856342 -0.27323484
v -0.23960519 0.030490726 -0.24762785
v -0.18516165 0.11818284 -0.25746995
v -0.21104228 0.13502061 -0.24968605
v -0.20718867 0.1338054 -0.23016608
v -0.12558359 0.1917851 -0.24004102
v -0.13602781 0.20585304 -0.24202257
v -0.14211476 0.21715117 -0.23158929
v -0.04641983 0.24450982 -0.22745101
v -0.042533338 0.22631454 -0.22569937
v 0.06567496 0.22758448 -0.2068253
v -0.13893992 0.21389967 -0.21098548
v 0.0703716 0.24660087 -0.20825948
v 0.16644973 0.18532586 -0.1846231
v -0.047821134 0.25758153 -0.21601053
v -0.046354145 0.25254554 -0.19464037
v -0.042533338 0.22631454 -0.22569937
v 0.06567496 0.22758448 -0.2068253
v 0.07433471 0.25954115 -0.19569136
v 0.072517365 0.25348705 -0.17366433
v 0.16644973 0.18532586 -0.1846231
v 0.17883171 0.20169288 -0.18561937
v 0.18729438 0.21269542 -0.17175941
v 0.18140446 0.20752805 -0.1494587
v 0.2571087 0.11186594 -0.16415067
v 0.23902287 0.10111517 -0.16455574
v 0.268582 0.119868815 -0.14908648
v 0.30496162 -0.00076529384 -0.12516546
v 0.25895888 0.11923385 -0.12709227
v 0.23902287 0.10111517 -0.16455574
v 0.2916053 -0.0049802065 -0.14166385
v 0.2697972 -0.007979929 -0.14409426
v 0.2934883 0.0053764284 -0.10420036
v 0.2697972 -0.007979929 -0.14409426
v 0.27503026 -0.124421 -0.12535158
v 0.25339735 -0.11896899 -0.13069412
v 0.2791576 -0.11190766 -0.08775675
v 0.25339735 -0.11896899 -0.13069412
v 0.20289503 -0.20362854 -0.11687797
v 0.22160487 -0.21534272 -0.10880941
v 0.20289503 -0.20362854 -0.11687797
v 0.28878075 -0.124782294 -0.10734239
v 0.22808598 -0.20300451 -0.07098466
v 0.14705017 -0.26857105 -0.052603275
v 0.12580043 -0.26332706 -0.101682365
v 0.2340854 -0.21983132 -0.089300394
v 0.13862035 -0.28000057 -0.0907017
v 0.12580043 -0.26332706 -0.101682365
v 0.148134 -0.28791586 -0.069627136
v 0.04798329 -0.300265 -0.032218426
v 0.032842427 -0.29168192 -0.08430818
v 0.037922233 -0.31093913 -0.07057959
v 0.032842427 -0.29168192 -0.08430818
v 0.04333046 -0.32067177 -0.0478957
v -0.05482775 -0.29283142 -0.012742221
v -0.06381592 -0.28416076 -0.067667484
v -0.15114671 -0.24249333 -0.049220383
v -0.067023635 -0.30265164 -0.051355213
v -0.06381592 -0.28416076 -0.067667484
v -0.06583032 -0.31225288 -0.027280957
v -0.147731 -0.2481862 0.0082995
v -0.21724969 -0.17229585 -0.027029157
v -0.16218215 -0.25733858 -0.030587196
v -0.15114671 -0.24249333 -0.049220383
v -0.21724969 -0.17229585 -0.027029157
v -0.16474396 -0.26466268 -0.0052429736
v -0.21685559 -0.1726462 0.032669365
v -0.2568918 -0.07927218 -0.0050459206
v -0.23396707 -0.1806819 -0.0068303943
v -0.2568918 -0.07927218 -0.0050459206
v -0.23907971 -0.18450269 0.019488186
v -0.25662905 -0.0750463 0.05632761
v -0.26653683 0.022663027 0.01344496
v -0.2764008 -0.07952398 0.016170979
v -0.26653683 0.022663027 0.01344496
v -0.26493847 0.031486988 0.07632929
v -0.24007595 0.12010968 0.035647154
v -0.2823236 -0.07948017 0.04323402
v -0.28583783 0.03164026 0.035351574
v -0.24007595 0.12010968 0.035647154
v -0.23477721 0.13228363 0.09996563
v -0.18141747 0.20625812 0.056612253
v -0.29096144 0.035778552 0.06322473
v -0.25534815 0.13759333 0.0576742
v -0.18141747 0.20625812 0.056612253
v -0.17258257 0.21801609 0.12205839
v -0.090035975 0.26250803 0.07851887
v -0.25841355 0.14513636 0.08630276
v -0.19060272 0.22915 0.078409374
v -0.090035975 0.26250803 0.07851887
v -0.1910187 0.23828048 0.1078043
v -0.09168908 0.28787416 0.10023934
v 0.024073243 0.280145 0.10079765
v -0.07960269 0.27090502 0.14556336
v 0.024073243 0.280145 0.10079765
v -0.0893572 0.29694992 0.13035679
v 0.030609071 0.3054235 0.12205839
v 0.13593814 0.25584078 0.12662363
v 0.033313185 0.28431612 0.16889316
v 0.13593814 0.25584078 0.12662363
v 0.03496632 0.31338257 0.1528765
v 0.15023598 0.27846998 0.14750111
v 0.23037408 0.19275945 0.15110296
v 0.14190468 0.25780046 0.19511318
v 0.23037408 0.19275945 0.15110296
v 0.25176615 0.21050584 0.17186004
v 0.29011637 0.10754156 0.18046504
v 0.15567707 0.28485256 0.17898709
v 0.23231184 0.1955511 0.21974581
v 0.29011637 0.10754156 0.18046504
v 0.309921 0.11470145 0.19640505
v 0.32162422 0.0073470175 0.2342298
v 0.2577108 0.21574986 0.20378387
v 0.29060903 0.11149371 0.23262048
v 0.32162422 0.0073470175 0.2342298
v 0.31579998 0.11795294 0.22099388
vt 1.0147525 0.66358304
vt 0.9817071 0.35236406
vt 0.9817071 0.63349694
vt 0.9486616 0.35236406
vt 0.9486616 0.16296928
vt 0.9817071 0.16296928
vt 1.0147525 0.08405479
vt 0.9817071 0.0051403046
vt 0.9486616 0.0051403046
vt 0.9156162 0.0051403046
vt 0.9156162 0.16296928
vt 0.8820776 0.0051403046
vt 0.8820776 0.16296928
vt 0.8490321 0.0051403046
vt 0.9156162 0.35236406
vt 0.8490321 0.16296928
vt 0.8159867 0.0051403046
vt 0.8820776 0.35236406
vt 0.8159867 0.16296928
vt 0.7829412 0.0051403046
vt 0.8490321 0.35236406
vt 0.7829412 0.16296928
vt 0.74989575 0.0051403046
vt 0.8159867 0.35236406
vt 0.8490321 0.63349694
vt 0.8820776 0.63349694
vt 0.9156162 0.63349694
vt 0.74989575 0.16296928
vt 0.71685034 0.0051403046
vt 0.7829412 0.35236406
vt 0.71685034 0.16296928
vt 0.6833117 0.0051403046
vt 0.8159867 0.63349694
vt 0.74989575 0.35236406
vt 0.9486616 0.63349694
vt 0.9817071 1.0053815
vt 1.0147525 0.66358304
vt 0.9486616 1.0053815
vt 0.9156162 1.0053815
vt 0.8820776 1.0053815
vt 0.8490321 1.0053815
vt 0.8159867 1.0053815
vt 0.7829412 1.0053815
vt 0.7829412 0.63349694
vt 0.74989575 1.0053815
vt 0.74989575 0.63349694
vt 0.71685034 1.0053815
vt 0.71685034 0.35236406
vt 0.71685034 0.63349694
vt 0.6833117 1.0053815
vt 0.6833117 0.16296928
vt 0.6833117 0.35236406
vt 0.65026623 0.16296928
vt 0.65026623 0.0051403046
vt 0.6172208 0.0051403046
vt 0.6833117 0.63349694
vt 0.6172208 0.16296928
vt 0.58417535 0.0051403046
vt 0.65026623 0.35236406
vt 0.65026623 0.63349694
vt 0.65026623 1.0053815
vt 0.6172208 1.0053815
vt 0.6172208 0.35236406
vt 0.6172208 0.63349694
vt 0.58417535 1.0053815
vt 0.58417535 0.16296928
vt 0.58417535 0.35236406
vt 0.58417535 0.63349694
vt 0.55112994 0.16296928
vt 0.55112994 0.0051403046
vt 0.55112994 0.35236406
vt 0.51808447 0.35236406
vt 0.55112994 0.63349694
vt 0.55112994 1.0053815
vt 0.51808447 0.16296928
vt 0.51808447 0.0051403046
vt 0.51808447 0.63349694
vt 0.51808447 1.0053815
vt 0.48503903 0.16296928
vt 0.48503903 0.0051403046
vt 0.48503903 0.63349694
vt 0.48503903 1.0053815
vt 0.4554461 1.0053815
vt 0.4554461 0.16296928
vt 0.4554461 0.0051403046
vt 0.48503903 0.35236406
vt 0.4554461 0.63349694
vt 0.42585316 0.63349694
vt 0.42585316 1.0053815
vt 0.4554461 0.35236406
vt 0.42585316 0.16296928
vt 0.42585316 0.0051403046
vt 0.42585316 0.35236406
vt 0.39675346 0.63349694
vt 0.39675346 1.0053815
vt 0.39675346 0.16296928
vt 0.39675346 0.0051403046
vt 0.39675346 0.35236406
vt 0.36716053 0.63349694
vt 0.36716053 1.0053815
vt 0.3380608 1.0053815
vt 0.36716053 0.16296928
vt 0.36716053 0.0051403046
vt 0.36716053 0.35236406
vt 0.3380608 0.63349694
vt 0.30846786 1.0053815
vt 0.3380608 0.16296928
vt 0.3380608 0.0051403046
vt 0.30846786 0.0051403046
vt 0.3380608 0.35236406
vt 0.30846786 0.63349694
vt 0.27936816 1.0053815
vt 0.30846786 0.16296928
vt 0.27936816 0.0051403046
vt 0.30846786 0.35236406
vt 0.27936816 0.63349694
vt 0.24977522 1.0053815
vt 0.27936816 0.16296928
vt 0.24977522 0.0051403046
vt 0.24977522 0.63349694
vt 0.22018228 1.0053815
vt 0.27936816 0.35236406
vt 0.24977522 0.16296928
vt 0.22018228 0.0051403046
vt 0.22018228 0.63349694
vt 0.19108257 1.0053815
vt 0.24977522 0.35236406
vt 0.22018228 0.16296928
vt 0.19108257 0.0051403046
vt 0.19108257 0.63349694
vt 0.16148964 1.0053815
vt 0.22018228 0.35236406
vt 0.19108257 0.16296928
vt 0.16148964 0.0051403046
vt 0.19108257 0.35236406
vt 0.16148964 0.16296928
vt 0.13238992 0.0051403046
vt 0.16148964 0.63349694
vt 0.13238992 1.0053815
vt 0.16148964 0.35236406
vt 0.13238992 0.16296928
vt 0.10279698 0.0051403046
vt 0.13238992 0.63349694
vt 0.10279698 1.0053815
vt 0.13238992 0.35236406
vt 0.10279698 0.16296928
vt 0.07369727 0.0051403046
vt 0.10279698 0.63349694
vt 0.07369727 1.0053815
vt 0.07369727 0.16296928
vt 0.044104334 0.0051403046
vt 0.10279698 0.35236406
vt 0.07369727 0.63349694
vt 0.044104334 1.0053815
vt 0.044104334 0.16296928
vt 0.0145114 0.28824604
vt 0.07369727 0.35236406
vt 0.044104334 0.63349694
vt 0.0145114 1.0053815
vt 0.044104334 0.35236406
vn 0.2826509 -0.11992699 -0.9516964
vn 0.4608723 -0.3833847 -0.8003829
vn 0.8095664 -0.050188124 0.584879
vn 0.3291434 -0.61584747 -0.71581876
vn -0.18227458 -0.150922 -0.9715959
vn -0.112535715 -0.1664195 -0.9796123
vn 0.2826509 -0.11992699 -0.9516964
vn -0.31400347 -0.0424394 -0.94847286
vn -0.3527472 0.058294415 -0.9339011
vn -0.2985059 0.18227458 -0.93684053
vn -0.21326959 -0.104429424 -0.9713962
vn -0.16677701 0.23651588 -0.95720726
vn -0.19777215 -0.081183195 -0.9768805
vn -0.050545692 0.22876716 -0.972168
vn 0.0966807 -0.7708226 -0.62967086
vn -0.20552087 -0.06568569 -0.9764459
vn 0.01144439 0.21326959 -0.9769264
vn -0.17452586 -0.80181766 -0.5715148
vn -0.2442646 -0.01144439 -0.9696411
vn 0.057936907 0.18227458 -0.98153925
vn -0.46897864 -0.7320788 -0.49408472
vn -0.2675109 0.081540704 -0.96009845
vn 0.104429424 0.14353085 -0.9841206
vn -0.7324364 -0.5228623 -0.43606412
vn -0.050545692 -0.4221285 0.90512574
vn 0.14317322 -0.48411858 0.8632095
vn 0.37563598 -0.4608723 0.8040488
vn -0.23651588 0.16677701 -0.95720726
vn 0.1664195 0.08928943 -0.98200405
vn -0.8874115 -0.2051633 -0.41280612
vn -0.15902829 0.25976217 -0.9524881
vn 0.1896658 0.011801958 -0.9817778
vn -0.17452586 -0.3446409 0.92236835
vn -0.91065776 0.14353085 -0.38742915
vn 0.6003499 -0.3368922 0.7253162
vn -0.15127957 0.39149106 0.90766144
vn 0.2826509 -0.11992699 -0.9516964
vn -0.09703827 0.47672737 0.8736788
vn 0.03469062 0.55421495 0.83165044
vn 0.21291208 0.5697124 0.79378605
vn 0.406631 0.49997365 0.7646421
vn 0.5771037 0.3217522 0.7506177
vn 0.67008877 0.07379198 0.73860395
vn -0.25976217 -0.2439071 0.9343623
vn 0.67008877 -0.18191701 0.71964383
vn -0.3217522 -0.11992699 0.9391981
vn 0.56160617 -0.4453748 0.69730896
vn -0.79442644 0.49222493 -0.3558107
vn -0.3217522 -0.0036956072 0.94681674
vn 0.3446409 -0.6545912 0.67285436
vn -0.04279697 0.31400347 -0.94845676
vn -0.5154711 0.7866777 -0.33974648
vn 0.081183195 0.3217522 -0.9433371
vn 0.17416829 -0.057936907 -0.98301005
vn 0.15867078 -0.11217821 -0.98093814
vn -0.2752596 0.10478699 0.9556421
vn 0.22840959 0.28300846 -0.9315231
vn 0.12767571 -0.14317322 -0.9814277
vn -0.15127957 0.9416528 -0.3006735
vn -0.20552087 0.1900233 0.9600273
vn 0.0424394 -0.76307386 0.6449164
vn -0.2675109 -0.7320788 0.6264971
vn 0.22840959 0.93390405 -0.27504963
vn -0.14353085 0.23651588 0.96096784
vn -0.5619637 -0.5693549 0.60002655
vn 0.3523897 0.1900233 -0.91635835
vn 0.6003499 0.76343143 -0.23822771
vn -0.058294415 0.2442646 0.9679548
vn 0.437626 0.050545692 -0.89773524
vn 0.11217821 -0.14317322 -0.9833196
vn 0.8793052 0.44573236 -0.16776486
vn 0.9877878 0.06604326 -0.14111553
vn 0.01144439 0.22101831 0.9752025
vn -0.77118015 -0.2981484 0.56248444
vn 0.4918673 -0.104429424 -0.8643848
vn 0.14317322 -0.150922 -0.9781227
vn 0.019193113 0.17452586 0.98446554
vn -0.8641652 0.019550681 0.5028283
vn 0.4918673 -0.2981484 -0.8180306
vn 0.18191701 -0.21291208 -0.9599868
vn 0.0036956072 0.16677701 0.9859877
vn -0.82542145 0.3527472 0.4407367
vn -0.6704463 0.65494883 0.3486314
vn 0.3988822 -0.5151136 -0.7586507
vn 0.17416829 -0.3523897 -0.9195036
vn 0.94716156 -0.32075718 -0
vn 0.0036956072 0.22876716 0.97347414
vn 0.050188124 0.2985059 0.9530873
vn -0.4069885 0.871914 0.27226147
vn 0.76307386 -0.63909376 0.096319586
vn 0.2206608 -0.69333506 -0.6859995
vn 0.081183195 -0.4996161 -0.8624343
vn 0.4918673 -0.8638077 0.1091
vn 0.14317322 0.34499848 0.9276192
vn -0.081540704 0.9803966 0.17936994
vn -0.035048127 -0.7863201 -0.6168244
vn -0.08928943 -0.5926012 -0.80053186
vn 0.15867078 -0.96454155 0.21091036
vn 0.2749021 0.34499848 0.89744353
vn 0.2749021 0.95715034 0.09106053
vn 0.5991811 0.80061346 -0
vn -0.31400347 -0.7708226 -0.55428725
vn -0.30625474 -0.5926012 -0.74500465
vn -0.1900233 -0.9335465 0.3039443
vn 0.42987728 0.25976217 0.8647133
vn 0.8405614 0.5387174 -0.056922212
vn -0.5929587 -0.631345 -0.49980345
vn -0.53096867 -0.4763698 -0.70081675
vn -0.68594384 -0.26715338 -0.67683834
vn -0.4844761 -0.7940689 0.36706614
vn 0.53061116 0.12028456 0.8390372
vn 0.9698621 0.24365458 -0
vn -0.79442644 -0.3911335 -0.46465173
vn -0.7324364 -0.050188124 -0.6789831
vn -0.71693885 -0.5693549 0.4022856
vn 0.5461086 -0.026941895 0.83728105
vn 0.9953175 -0.09665943 -0
vn -0.87966275 -0.12767571 -0.45814008
vn -0.69369256 0.19777215 -0.692587
vn 0.4996161 -0.2051633 0.8416007
vn 0.9025515 -0.42987728 0.024624642
vn -0.85641646 -0.2903996 0.42687106
vn -0.8641652 0.17452586 -0.4719738
vn -0.5619637 0.41473734 -0.71567434
vn 0.3911335 -0.3678872 0.8436075
vn 0.67008877 -0.7398276 0.060300756
vn -0.90290904 0.011801958 0.42966962
vn -0.74018514 0.4612298 -0.48927808
vn -0.34499848 0.5697124 -0.74592483
vn 0.21291208 -0.46862108 0.857358
vn 0.3136459 -0.949044 0.030688
vn -0.84866774 0.3217522 0.41980776
vn -0.5077224 0.69369256 -0.51089007
vn -0.081540704 0.63945127 -0.76449543
vn -0.6704463 0.616205 0.41327137
vn -0.18227458 0.82542145 -0.53428024
vn 0.17416829 0.60845625 -0.77423924
vn 0.0036956072 -0.4996161 0.8662391
vn -0.058294415 -0.99553657 0.074220754
vn -0.36824477 0.840919 0.39654887
vn 0.14317322 0.82542145 -0.5460594
vn 0.3833847 0.4844761 -0.78632
vn -0.1900233 -0.4608723 0.866884
vn -0.41460186 -0.91000295 -0
vn -0.035048127 0.9184065 0.39408267
vn 0.42987728 0.70919013 -0.55879766
vn 0.5383599 0.28300846 -0.7937725
vn -0.36049604 -0.3678872 0.8571474
vn -0.70919013 -0.7010838 0.07436978
vn 0.6778375 0.4844761 -0.5530093
vn 0.63909376 -0.01144439 -0.7690437
vn 0.2903996 0.871914 0.3942512
vn -0.45348108 -0.25165582 0.85499954
vn -0.9028914 -0.42986888 -0
vn 0.83281267 0.12028456 -0.5403283
vn 0.9567928 -0.2903996 -0.014684759
vn 0.6080987 0.678195 0.41263488
vn -0.49222493 -0.17416829 0.85286576
vn 0.9567928 -0.2903996 -0.014684759
vn 0.8405614 0.3217522 0.43581197
g mesh_wrap_0
f 3/3/3 2/2/2 1/1/1
f 2/2/2 3/3/3 4/4/4
f 2/2/2 4/4/4 5/5/5
f 5/5/5 6/6/6 2/2/2
f 2/2/2 6/6/6 7/7/7
f 6/6/6 8/8/8 7/7/7
f 8/8/8 6/6/6 5/5/5
f 5/5/5 9/9/9 8/8/8
f 10/10/10 9/9/9 5/5/5
f 5/5/5 11/11/11 10/10/10
f 11/11/11 5/5/5 4/4/4
f 12/12/12 10/10/10 11/11/11
f 13/13/13 12/12/12 11/11/11
f 14/14/14 12/12/12 13/13/13
f 4/4/4 15/15/15 11/11/11
f 13/13/13 11/11/11 15/15/15
f 13/13/13 16/16/16 14/14/14
f 17/17/17 14/14/14 16/16/16
f 15/15/15 18/18/18 13/13/13
f 16/16/16 13/13/13 18/18/18
f 16/16/16 19/19/19 17/17/17
f 20/20/20 17/17/17 19/19/19
f 18/18/18 21/21/21 16/16/16
f 19/19/19 16/16/16 21/21/21
f 19/19/19 22/22/22 20/20/20
f 23/23/23 20/20/20 22/22/22
f 21/21/21 24/24/24 19/19/19
f 22/22/22 19/19/19 24/24/24
f 25/25/25 21/21/21 18/18/18
f 24/24/24 21/21/21 25/25/25
f 26/26/26 18/18/18 15/15/15
f 18/18/18 26/26/26 25/25/25
f 27/27/27 15/15/15 4/4/4
f 15/15/15 27/27/27 26/26/26
f 22/22/22 28/28/28 23/23/23
f 29/29/29 23/23/23 28/28/28
f 24/24/24 30/30/30 22/22/22
f 28/28/28 22/22/22 30/30/30
f 28/28/28 31/31/31 29/29/29
f 32/32/32 29/29/29 31/31/31
f 33/33/33 24/24/24 25/25/25
f 30/30/30 24/24/24 33/33/33
f 30/30/30 34/34/34 28/28/28
f 31/31/31 28/28/28 34/34/34
f 4/4/4 35/35/35 27/27/27
f 35/35/35 4/4/4 3/3/3
f 35/35/35 3/3/3 36/36/36
f 36/36/36 3/3/3 37/37/37
f 36/36/36 38/38/38 35/35/35
f 27/27/27 35/35/35 38/38/38
f 38/38/38 39/39/39 27/27/27
f 26/26/26 27/27/27 39/39/39
f 39/39/39 40/40/40 26/26/26
f 26/26/26 40/40/40 41/41/41
f 41/41/41 25/25/25 26/26/26
f 25/25/25 41/41/41 42/42/42
f 25/25/25 42/42/42 33/33/33
f 43/43/43 33/33/33 42/42/42
f 33/33/33 43/43/43 44/44/44
f 33/33/33 44/44/44 30/30/30
f 43/43/43 45/45/45 44/44/44
f 34/34/34 30/30/30 44/44/44
f 44/44/44 45/45/45 46/46/46
f 46/46/46 34/34/34 44/44/44
f 46/46/46 45/45/45 47/47/47
f 48/48/48 34/34/34 46/46/46
f 34/34/34 48/48/48 31/31/31
f 47/47/47 49/49/49 46/46/46
f 46/46/46 49/49/49 48/48/48
f 49/49/49 47/47/47 50/50/50
f 51/51/51 31/31/31 48/48/48
f 31/31/31 51/51/51 32/32/32
f 52/52/52 48/48/48 49/49/49
f 48/48/48 52/52/52 51/51/51
f 51/51/51 53/53/53 32/32/32
f 53/53/53 51/51/51 52/52/52
f 32/32/32 53/53/53 54/54/54
f 54/54/54 53/53/53 55/55/55
f 50/50/50 56/56/56 49/49/49
f 56/56/56 52/52/52 49/49/49
f 57/57/57 55/55/55 53/53/53
f 58/58/58 55/55/55 57/57/57
f 52/52/52 59/59/59 53/53/53
f 59/59/59 52/52/52 56/56/56
f 57/57/57 53/53/53 59/59/59
f 60/60/60 56/56/56 50/50/50
f 56/56/56 60/60/60 59/59/59
f 50/50/50 61/61/61 60/60/60
f 62/62/62 60/60/60 61/61/61
f 59/59/59 63/63/63 57/57/57
f 63/63/63 59/59/59 60/60/60
f 60/60/60 62/62/62 64/64/64
f 64/64/64 63/63/63 60/60/60
f 65/65/65 64/64/64 62/62/62
f 57/57/57 66/66/66 58/58/58
f 66/66/66 57/57/57 63/63/63
f 67/67/67 63/63/63 64/64/64
f 63/63/63 67/67/67 66/66/66
f 64/64/64 65/65/65 68/68/68
f 64/64/64 68/68/68 67/67/67
f 58/58/58 66/66/66 69/69/69
f 69/69/69 70/70/70 58/58/58
f 66/66/66 67/67/67 71/71/71
f 67/67/67 68/68/68 71/71/71
f 71/71/71 69/69/69 66/66/66
f 72/72/72 69/69/69 71/71/71
f 73/73/73 68/68/68 65/65/65
f 73/73/73 71/71/71 68/68/68
f 72/72/72 71/71/71 73/73/73
f 65/65/65 74/74/74 73/73/73
f 70/70/70 69/69/69 75/75/75
f 72/72/72 75/75/75 69/69/69
f 70/70/70 75/75/75 76/76/76
f 77/77/77 73/73/73 74/74/74
f 73/73/73 77/77/77 72/72/72
f 74/74/74 78/78/78 77/77/77
f 76/76/76 75/75/75 79/79/79
f 79/79/79 75/75/75 72/72/72
f 79/79/79 80/80/80 76/76/76
f 81/81/81 77/77/77 78/78/78
f 72/72/72 77/77/77 81/81/81
f 78/78/78 82/82/82 81/81/81
f 83/83/83 81/81/81 82/82/82
f 84/84/84 80/80/80 79/79/79
f 80/80/80 84/84/84 85/85/85
f 72/72/72 86/86/86 79/79/79
f 81/81/81 86/86/86 72/72/72
f 84/84/84 79/79/79 86/86/86
f 81/81/81 83/83/83 87/87/87
f 87/87/87 86/86/86 81/81/81
f 88/88/88 87/87/87 83/83/83
f 83/83/83 89/89/89 88/88/88
f 87/87/87 90/90/90 86/86/86
f 86/86/86 90/90/90 84/84/84
f 90/90/90 87/87/87 88/88/88
f 85/85/85 84/84/84 91/91/91
f 91/91/91 92/92/92 85/85/85
f 93/93/93 84/84/84 90/90/90
f 88/88/88 93/93/93 90/90/90
f 93/93/93 91/91/91 84/84/84
f 94/94/94 88/88/88 89/89/89
f 93/93/93 88/88/88 94/94/94
f 89/89/89 95/95/95 94/94/94
f 96/96/96 92/92/92 91/91/91
f 96/96/96 97/97/97 92/92/92
f 91/91/91 93/93/93 98/98/98
f 93/93/93 94/94/94 98/98/98
f 98/98/98 96/96/96 91/91/91
f 99/99/99 94/94/94 95/95/95
f 98/98/98 94/94/94 99/99/99
f 95/95/95 100/100/100 99/99/99
f 101/101/101 99/99/99 100/100/100
f 97/97/97 96/96/96 102/102/102
f 102/102/102 96/96/96 98/98/98
f 102/102/102 103/103/103 97/97/97
f 99/99/99 104/104/104 98/98/98
f 98/98/98 104/104/104 102/102/102
f 99/99/99 101/101/101 105/105/105
f 105/105/105 104/104/104 99/99/99
f 106/106/106 105/105/105 101/101/101
f 103/103/103 102/102/102 107/107/107
f 107/107/107 102/102/102 104/104/104
f 103/103/103 107/107/107 108/108/108
f 109/109/109 108/108/108 107/107/107
f 105/105/105 110/110/110 104/104/104
f 104/104/104 110/110/110 107/107/107
f 105/105/105 106/106/106 111/111/111
f 110/110/110 105/105/105 111/111/111
f 112/112/112 111/111/111 106/106/106
f 107/107/107 113/113/113 109/109/109
f 113/113/113 107/107/107 110/110/110
f 114/114/114 109/109/109 113/113/113
f 111/111/111 115/115/115 110/110/110
f 110/110/110 115/115/115 113/113/113
f 111/111/111 112/112/112 116/116/116
f 116/116/116 115/115/115 111/111/111
f 116/116/116 112/112/112 117/117/117
f 113/113/113 118/118/118 114/114/114
f 118/118/118 113/113/113 115/115/115
f 119/119/119 114/114/114 118/118/118
f 117/117/117 120/120/120 116/116/116
f 120/120/120 117/117/117 121/121/121
f 115/115/115 116/116/116 122/122/122
f 115/115/115 122/122/122 118/118/118
f 122/122/122 116/116/116 120/120/120
f 123/123/123 119/119/119 118/118/118
f 123/123/123 118/118/118 122/122/122
f 124/124/124 119/119/119 123/123/123
f 121/121/121 125/125/125 120/120/120
f 121/121/121 126/126/126 125/125/125
f 120/120/120 127/127/127 122/122/122
f 122/122/122 127/127/127 123/123/123
f 127/127/127 120/120/120 125/125/125
f 123/123/123 128/128/128 124/124/124
f 128/128/128 123/123/123 127/127/127
f 129/129/129 124/124/124 128/128/128
f 125/125/125 126/126/126 130/130/130
f 131/131/131 130/130/130 126/126/126
f 127/127/127 125/125/125 132/132/132
f 127/127/127 132/132/132 128/128/128
f 132/132/132 125/125/125 130/130/130
f 128/128/128 133/133/133 129/129/129
f 133/133/133 128/128/128 132/132/132
f 134/134/134 129/129/129 133/133/133
f 132/132/132 135/135/135 133/133/133
f 130/130/130 135/135/135 132/132/132
f 133/133/133 136/136/136 134/134/134
f 136/136/136 133/133/133 135/135/135
f 134/134/134 136/136/136 137/137/137
f 130/130/130 131/131/131 138/138/138
f 139/139/139 138/138/138 131/131/131
f 140/140/140 135/135/135 130/130/130
f 135/135/135 140/140/140 136/136/136
f 130/130/130 138/138/138 140/140/140
f 141/141/141 137/137/137 136/136/136
f 141/141/141 136/136/136 140/140/140
f 142/142/142 137/137/137 141/141/141
f 138/138/138 139/139/139 143/143/143
f 144/144/144 143/143/143 139/139/139
f 140/140/140 138/138/138 145/145/145
f 140/140/140 145/145/145 141/141/141
f 138/138/138 143/143/143 145/145/145
f 141/141/141 146/146/146 142/142/142
f 146/146/146 141/141/141 145/145/145
f 142/142/142 146/146/146 147/147/147
f 143/143/143 144/144/144 148/148/148
f 148/148/148 145/145/145 143/143/143
f 149/149/149 148/148/148 144/144/144
f 150/150/150 147/147/147 146/146/146
f 151/151/151 147/147/147 150/150/150
f 145/145/145 152/152/152 146/146/146
f 145/145/145 148/148/148 152/152/152
f 150/150/150 146/146/146 152/152/152
f 148/148/148 149/149/149 153/153/153
f 152/152/152 148/148/148 153/153/153
f 154/154/154 153/153/153 149/149/149
f 150/150/150 155/155/155 151/151/151
f 151/151/151 155/155/155 156/156/156
f 152/152/152 157/157/157 150/150/150
f 153/153/153 157/157/157 152/152/152
f 155/155/155 150/150/150 157/157/157
f 153/153/153 154/154/154 158/158/158
f 157/157/157 153/153/153 158/158/158
f 154/154/154 159/159/159 158/158/158
f 160/160/160 156/156/156 155/155/155
f 157/157/157 160/160/160 155/155/155
f 156/156/156 160/160/160 158/158/158
f 158/158/158 160/160/160 157/157/157
