g mesh_gem
v -0.0958818 1.192093E-07 0.0786853
v -0.07783106 0.06520167 0.03541487
v -0.004433244 0.1069144 0.08633439
v -0.004796147 1.192093E-07 0.2366642
v -0.0958818 1.192093E-07 0.0786853
v -0.004433244 0.1069144 0.08633439
v 0.06823875 -0.06520145 0.03541487
v 0.03631913 -0.09673023 -0.0003683865
v -0.004433244 -0.1069141 0.08633439
v 0.03631913 -0.09673023 -0.0003683865
v -0.004796147 -0.1292361 -0.0003683865
v -0.004433244 0.1069144 0.08633439
v -0.004796147 0.1292363 -0.0003683865
v 0.0362633 0.09673047 -0.0003683865
v 0.06823875 0.06520167 0.03541487
v -0.004433244 0.1069144 0.08633439
v -0.004433244 0.1069144 0.08633439
v -0.04567136 0.09673047 -0.0003683865
v -0.004796147 0.1292363 -0.0003683865
v -0.004433244 0.1069144 0.08633439
v -0.07783106 0.06520167 0.03541487
v -0.04567136 0.09673047 -0.0003683865
v -0.004796147 1.192093E-07 -0.07913174
v -0.04567136 -0.09673023 -0.0003683865
v -0.004796147 -0.1292361 -0.0003683865
v -0.004796147 1.192093E-07 -0.07913174
v -0.004796147 0.1292363 -0.0003683865
v -0.04567136 0.09673047 -0.0003683865
v -0.04567136 0.09673047 -0.0003683865
v -0.06299628 1.192093E-07 -0.0003683865
v -0.004796147 1.192093E-07 -0.07913174
v -0.04567136 0.09673047 -0.0003683865
v -0.07783106 0.06520167 0.03541487
v -0.004796147 -0.1292361 -0.0003683865
v 0.03631913 -0.09673023 -0.0003683865
v -0.004796147 1.192093E-07 -0.07913174
v 0.03631913 -0.09673023 -0.0003683865
v 0.06823875 -0.06520145 0.03541487
v 0.05176249 1.192093E-07 -0.0003683865
v -0.004796147 1.192093E-07 -0.07913174
v 0.03631913 -0.09673023 -0.0003683865
v 0.05176249 1.192093E-07 -0.0003683865
v 0.0362633 0.09673047 -0.0003683865
v 0.06823875 0.06520167 0.03541487
v 0.0362633 0.09673047 -0.0003683865
v -0.004796147 1.192093E-07 -0.07913174
v 0.0362633 0.09673047 -0.0003683865
v -0.004796147 0.1292363 -0.0003683865
v -0.004433244 0.1069144 0.08633439
v 0.06823875 0.06520167 0.03541487
v 0.09474817 1.192093E-07 0.0786853
v -0.004796147 1.192093E-07 0.2366642
v 0.09474817 1.192093E-07 0.0786853
v 0.06823875 -0.06520145 0.03541487
v -0.004433244 -0.1069141 0.08633439
v -0.004796147 1.192093E-07 0.2366642
v -0.004433244 -0.1069141 0.08633439
v -0.07783106 -0.06520145 0.03541487
v -0.0958818 1.192093E-07 0.0786853
v -0.004796147 1.192093E-07 0.2366642
v 0.05176249 1.192093E-07 -0.0003683865
v 0.06823875 -0.06520145 0.03541487
v 0.09474817 1.192093E-07 0.0786853
v 0.06823875 0.06520167 0.03541487
v -0.07783106 0.06520167 0.03541487
v -0.0958818 1.192093E-07 0.0786853
v -0.06299628 1.192093E-07 -0.0003683865
v -0.07783106 -0.06520145 0.03541487
v -0.004433244 -0.1069141 0.08633439
v -0.004796147 -0.1292361 -0.0003683865
v -0.04567136 -0.09673023 -0.0003683865
v -0.07783106 -0.06520145 0.03541487
v -0.06299628 1.192093E-07 -0.0003683865
v -0.07783106 -0.06520145 0.03541487
v -0.04567136 -0.09673023 -0.0003683865
v -0.004796147 1.192093E-07 -0.07913174
vt 1 1
vt 1 0
vt 0 0
vt 0 1
vt 1 1
vt 0 0
vt 1 0
vt 0 0
vt 1 1
vt 0 0
vt 0 1
vt 0 0
vt 0 1
vt 1 1
vt 1 0
vt 0 0
vt 0 0
vt 1 1
vt 1 0
vt 0 0
vt 0 1
vt 1 1
vt 0 0
vt 1 1
vt 1 0
vt 0 0
vt 1 1
vt 1 0
vt 1 1
vt 0 0
vt 0 1
vt 1 1
vt 1 0
vt 0 0
vt 1 1
vt 1 0
vt 0 0
vt 0 1
vt 1 1
vt 1 0
vt 0 0
vt 0 0
vt 1 1
vt 0 1
vt 1 1
vt 0 0
vt 1 1
vt 1 0
vt 1 1
vt 1 0
vt 0 0
vt 0 1
vt 1 1
vt 1 0
vt 0 0
vt 0 1
vt 1 1
vt 1 0
vt 0 0
vt 0 1
vt 1 1
vt 1 0
vt 0 0
vt 0 1
vt 0 1
vt 1 1
vt 0 0
vt 1 0
vt 1 0
vt 0 0
vt 0 1
vt 1 1
vt 0 1
vt 1 1
vt 1 0
vt 0 0
vn -0.697189 0.5629359 0.4438814
vn -0.697189 0.5629359 0.4438814
vn -0.697189 0.5629359 0.4438814
vn -0.697189 0.5629359 0.4438814
vn -0.697189 0.5629359 0.4438814
vn -0.697189 0.5629359 0.4438814
vn 0.5958796 -0.7795942 0.1927703
vn 0.5958796 -0.7795942 0.1927703
vn 0.5958796 -0.7795942 0.1927703
vn 0.5958796 -0.7795942 0.1927703
vn 0.5958796 -0.7795942 0.1927703
vn 0.5958796 0.7819804 0.1828502
vn 0.5958796 0.7819804 0.1828502
vn 0.5958796 0.7819804 0.1828502
vn 0.5958796 0.7819804 0.1828502
vn 0.5958796 0.7819804 0.1828502
vn -0.5911998 0.7819804 0.1974577
vn -0.5911998 0.7819804 0.1974577
vn -0.5911998 0.7819804 0.1974577
vn -0.5911998 0.7819804 0.1974577
vn -0.5911998 0.7819804 0.1974577
vn -0.5911998 0.7819804 0.1974577
vn -0.3792213 -0.4828244 -0.789349
vn -0.3792213 -0.4828244 -0.789349
vn -0.3792213 -0.4828244 -0.789349
vn -0.3792213 0.4781445 -0.7921925
vn -0.3792213 0.4781445 -0.7921925
vn -0.3792213 0.4781445 -0.7921925
vn -0.7961123 0.146045 -0.5872615
vn -0.8031782 -0.0023399 -0.5957342
vn -0.8031782 -0.0023399 -0.5957342
vn -0.7961123 0.146045 -0.5872615
vn -0.7961123 0.146045 -0.5872615
vn 0.3839011 -0.4828244 -0.7870836
vn 0.3839011 -0.4828244 -0.7870836
vn 0.3839011 -0.4828244 -0.7870836
vn 0.8007921 -0.129527 -0.584769
vn 0.8007921 -0.129527 -0.584769
vn 0.807858 -0.0023399 -0.5893725
vn 0.807858 -0.0023399 -0.5893725
vn 0.8007921 -0.129527 -0.584769
vn 0.807858 -0.0023399 -0.5893725
vn 0.8007921 0.1319131 -0.5842354
vn 0.8007921 0.1319131 -0.5842354
vn 0.8007921 0.1319131 -0.5842354
vn 0.3839011 0.4781445 -0.7899353
vn 0.3839011 0.4781445 -0.7899353
vn 0.3839011 0.4781445 -0.7899353
vn 0.673605 0.5911998 0.4435529
vn 0.673605 0.5911998 0.4435529
vn 0.673605 0.5911998 0.4435529
vn 0.673605 0.5911998 0.4435529
vn 0.673605 -0.5958796 0.4372458
vn 0.673605 -0.5958796 0.4372458
vn 0.673605 -0.5958796 0.4372458
vn 0.673605 -0.5958796 0.4372458
vn -0.697189 -0.5676157 0.4378812
vn -0.697189 -0.5676157 0.4378812
vn -0.697189 -0.5676157 0.4378812
vn -0.697189 -0.5676157 0.4378812
vn 0.8785175 -0.0023399 -0.4777044
vn 0.8785175 -0.0023399 -0.4777044
vn 0.8785175 -0.0023399 -0.4777044
vn 0.8785175 -0.0023399 -0.4777044
vn -0.9232993 -0.0023399 -0.3840741
vn -0.9232993 -0.0023399 -0.3840741
vn -0.9232993 -0.0023399 -0.3840741
vn -0.9232993 -0.0023399 -0.3840741
vn -0.5911998 -0.7795942 0.2066778
vn -0.5911998 -0.7795942 0.2066778
vn -0.5911998 -0.7795942 0.2066778
vn -0.5911998 -0.7795942 0.2066778
vn -0.8031782 -0.0023399 -0.5957342
vn -0.7961123 -0.1436589 -0.5878497
vn -0.7961123 -0.1436589 -0.5878497
vn -0.8031782 -0.0023399 -0.5957342
g mesh_gem_0
f 3/3/3 2/2/2 1/1/1
f 6/6/6 5/5/5 4/4/4
f 9/9/9 8/8/8 7/7/7
f 9/9/9 11/11/11 10/10/10
f 14/14/14 13/13/13 12/12/12
f 16/16/16 15/15/15 14/14/14
f 19/19/19 18/18/18 17/17/17
f 22/22/22 21/21/21 20/20/20
f 25/25/25 24/24/24 23/23/23
f 28/28/28 27/27/27 26/26/26
f 31/31/31 30/30/30 29/29/29
f 33/33/33 32/32/32 30/30/30
f 36/36/36 35/35/35 34/34/34
f 39/39/39 38/38/38 37/37/37
f 41/41/41 40/40/40 39/39/39
f 43/43/43 42/42/42 40/40/40
f 45/45/45 44/44/44 42/42/42
f 48/48/48 47/47/47 46/46/46
f 51/51/51 50/50/50 49/49/49
f 52/52/52 51/51/51 49/49/49
f 55/55/55 54/54/54 53/53/53
f 55/55/55 53/53/53 56/56/56
f 59/59/59 58/58/58 57/57/57
f 60/60/60 59/59/59 57/57/57
f 63/63/63 62/62/62 61/61/61
f 64/64/64 63/63/63 61/61/61
f 67/67/67 66/66/66 65/65/65
f 68/68/68 66/66/66 67/67/67
f 71/71/71 70/70/70 69/69/69
f 69/69/69 72/72/72 71/71/71
f 75/75/75 74/74/74 73/73/73
f 73/73/73 76/76/76 75/75/75
