g mesh_groundcrack02
v -6.228685E-06 0.05109498 0.05832192
v -6.228685E-06 0.1653508 0.05832192
v 0.09718245 0.1337673 0.05832192
v 0.1572486 0.05109498 0.05832192
v -0.09718242 0.1337673 0.05832192
v 0.1572486 -0.05109504 0.05832192
v -0.1572486 0.05109498 0.05832192
v -6.228685E-06 -0.05109504 0.05832192
v 0.09718245 -0.1337673 0.05832192
v -0.1572486 -0.05109504 0.05832192
v -6.228685E-06 -0.1653508 0.05832192
v -0.09718242 -0.1337673 0.05832192
v -6.228685E-06 0.4097041 -6.258488E-06
v 0.2408211 0.331458 -6.258488E-06
v 0.154798 0.2130511 0.03086454
v -6.228685E-06 0.2633522 0.03086454
v 0.2504612 0.08137816 0.03086454
v -0.2408211 0.331458 -6.258488E-06
v 0.3896487 0.1266028 -6.258488E-06
v -0.1547979 0.2130511 0.03086454
v 0.2504612 -0.08137819 0.03086454
v -0.3896486 0.1266028 -6.258488E-06
v 0.3896487 -0.1266029 -6.258488E-06
v -0.2504612 0.08137816 0.03086454
v 0.154798 -0.2130512 0.03086454
v -0.3896486 -0.1266029 -6.258488E-06
v 0.2408211 -0.331458 -6.258488E-06
v -0.2504612 -0.08137819 0.03086454
v -6.228685E-06 -0.2633522 0.03086454
v -0.2408211 -0.331458 -6.258488E-06
v -6.228685E-06 -0.4097041 -6.258488E-06
v -0.1547979 -0.2130512 0.03086454
v -6.228685E-06 0.2633522 0.03086454
v 0.09718245 0.1337673 0.05832192
v -6.228685E-06 0.1653508 0.05832192
v 0.154798 0.2130511 0.03086454
v -0.1547979 0.2130511 0.03086454
v 0.1572486 0.05109498 0.05832192
v -0.09718242 0.1337673 0.05832192
v 0.2504612 0.08137816 0.03086454
v -0.2504612 0.08137816 0.03086454
v 0.1572486 -0.05109504 0.05832192
v -0.1572486 0.05109498 0.05832192
v 0.2504612 -0.08137819 0.03086454
v -0.2504612 -0.08137819 0.03086454
v 0.09718245 -0.1337673 0.05832192
v -0.1572486 -0.05109504 0.05832192
v 0.154798 -0.2130512 0.03086454
v -0.1547979 -0.2130512 0.03086454
v -6.228685E-06 -0.1653508 0.05832192
v -0.09718242 -0.1337673 0.05832192
v -6.228685E-06 -0.2633522 0.03086454
vt 0.5004667 0.558614
vt 0.5004667 0.6908519
vt 0.6101961 0.6533376
vt 0.6795976 0.558614
vt 0.3897994 0.6533376
vt 0.6795976 0.4413817
vt 0.320398 0.558614
vt 0.5004667 0.4413817
vt 0.6101961 0.346658
vt 0.320398 0.4413817
vt 0.5004667 0.3091437
vt 0.3897994 0.346658
vt 0.5004667 0.9797122
vt 0.7818242 0.8868642
vt 0.6795976 0.7480613
vt 0.5004667 0.8071463
vt 0.789327 0.5942525
vt 0.2181714 0.8868642
vt 0.9534522 0.6467726
vt 0.320398 0.7480613
vt 0.789327 0.405743
vt 0.04654341 0.6467726
vt 0.9534522 0.353223
vt 0.2106686 0.5942525
vt 0.6795976 0.2519343
vt 0.04654341 0.353223
vt 0.7818242 0.1131313
vt 0.2106686 0.405743
vt 0.5004667 0.1928493
vt 0.2181714 0.1131313
vt 0.5004667 0.02028338
vt 0.320398 0.2519343
vt 0.5004667 0.8071463
vt 0.6101961 0.6533376
vt 0.5004667 0.6908519
vt 0.6795976 0.7480613
vt 0.320398 0.7480613
vt 0.6795976 0.558614
vt 0.3897994 0.6533376
vt 0.789327 0.5942525
vt 0.2106686 0.5942525
vt 0.6795976 0.4413817
vt 0.320398 0.558614
vt 0.789327 0.405743
vt 0.2106686 0.405743
vt 0.6101961 0.346658
vt 0.320398 0.4413817
vt 0.6795976 0.2519343
vt 0.320398 0.2519343
vt 0.5004667 0.3091437
vt 0.3897994 0.346658
vt 0.5004667 0.1928493
vn 0.001057714 -0.001057714 0.9999989
vn 0.001057714 -0.001057714 0.9999989
vn 0.001057714 -0.001057714 0.9999989
vn 0.001057714 -0.001057714 0.9999989
vn 0.001057714 -0.001057714 0.9999989
vn 0.001057714 -0.001057714 0.9999989
vn 0.001057714 -0.001057714 0.9999989
vn 0.001057714 -0.001057714 0.9999989
vn 0.001057714 -0.001057714 0.9999989
vn 0.001057714 -0.001057714 0.9999989
vn 0.001057714 -0.001057714 0.9999989
vn 0.001057714 -0.001057714 0.9999989
vn 0.001057714 0.2062757 0.9784933
vn 0.1216496 0.1660784 0.9785802
vn 0.1216496 0.1660784 0.9785802
vn 0.001057714 0.2062757 0.9784933
vn 0.1956972 0.06452736 0.9785391
vn -0.1216498 0.1660784 0.9785802
vn 0.1956972 0.06452736 0.9785391
vn -0.1216498 0.1660784 0.9785802
vn 0.1956972 -0.06452711 0.9785391
vn -0.1956975 0.06452736 0.978539
vn 0.1956972 -0.06452711 0.9785391
vn -0.1956975 0.06452736 0.978539
vn 0.1216496 -0.1660782 0.9785803
vn -0.1956975 -0.06452711 0.9785391
vn 0.1216496 -0.1660782 0.9785803
vn -0.1956975 -0.06452711 0.9785391
vn 0.001057714 -0.2062755 0.9784934
vn -0.1216498 -0.1660782 0.9785802
vn 0.001057714 -0.2062755 0.9784934
vn -0.1216498 -0.1660782 0.9785802
vn 0.001057714 0.2697451 0.9629312
vn 0.1576156 0.2189696 0.9629173
vn 0.001057714 0.2697451 0.9629312
vn 0.1576156 0.2189696 0.9629173
vn -0.1576158 0.2189696 0.9629172
vn 0.257051 0.08356819 0.9627779
vn -0.1576158 0.2189696 0.9629172
vn 0.257051 0.08356819 0.9627779
vn -0.2570512 0.08356819 0.9627778
vn 0.257051 -0.08356793 0.9627779
vn -0.2570512 0.08356819 0.9627778
vn 0.257051 -0.08356793 0.9627779
vn -0.2570512 -0.08356793 0.9627778
vn 0.1576156 -0.2189693 0.9629173
vn -0.2570512 -0.08356793 0.9627778
vn 0.1576156 -0.2189693 0.9629173
vn -0.1576158 -0.2189693 0.9629173
vn 0.001057714 -0.2697449 0.9629312
vn -0.1576158 -0.2189693 0.9629173
vn 0.001057714 -0.2697449 0.9629312
g mesh_groundcrack02_0
f 3/3/3 2/2/2 1/1/1
f 4/4/4 3/3/3 1/1/1
f 1/1/1 2/2/2 5/5/5
f 4/4/4 1/1/1 6/6/6
f 7/7/7 1/1/1 5/5/5
f 1/1/1 8/8/8 6/6/6
f 8/8/8 1/1/1 7/7/7
f 6/6/6 8/8/8 9/9/9
f 10/10/10 8/8/8 7/7/7
f 8/8/8 11/11/11 9/9/9
f 10/10/10 12/12/12 8/8/8
f 12/12/12 11/11/11 8/8/8
f 15/15/15 14/14/14 13/13/13
f 16/16/16 15/15/15 13/13/13
f 15/15/15 17/17/17 14/14/14
f 16/16/16 13/13/13 18/18/18
f 17/17/17 19/19/19 14/14/14
f 20/20/20 16/16/16 18/18/18
f 17/17/17 21/21/21 19/19/19
f 20/20/20 18/18/18 22/22/22
f 21/21/21 23/23/23 19/19/19
f 24/24/24 20/20/20 22/22/22
f 21/21/21 25/25/25 23/23/23
f 24/24/24 22/22/22 26/26/26
f 25/25/25 27/27/27 23/23/23
f 28/28/28 24/24/24 26/26/26
f 25/25/25 29/29/29 27/27/27
f 28/28/28 26/26/26 30/30/30
f 29/29/29 31/31/31 27/27/27
f 32/32/32 28/28/28 30/30/30
f 32/32/32 30/30/30 31/31/31
f 29/29/29 32/32/32 31/31/31
f 35/35/35 34/34/34 33/33/33
f 34/34/34 36/36/36 33/33/33
f 35/35/35 33/33/33 37/37/37
f 34/34/34 38/38/38 36/36/36
f 39/39/39 35/35/35 37/37/37
f 38/38/38 40/40/40 36/36/36
f 39/39/39 37/37/37 41/41/41
f 38/38/38 42/42/42 40/40/40
f 43/43/43 39/39/39 41/41/41
f 42/42/42 44/44/44 40/40/40
f 43/43/43 41/41/41 45/45/45
f 42/42/42 46/46/46 44/44/44
f 47/47/47 43/43/43 45/45/45
f 46/46/46 48/48/48 44/44/44
f 47/47/47 45/45/45 49/49/49
f 46/46/46 50/50/50 48/48/48
f 51/51/51 47/47/47 49/49/49
f 50/50/50 52/52/52 48/48/48
f 51/51/51 49/49/49 52/52/52
f 50/50/50 51/51/51 52/52/52
