g mesh_ring_water
v 0.02651837 -0.1333323 0.003554597
v 0.05202395 -0.1255955 0.003554597
v 0.04871988 -0.2449454 0.01935728
v 0.09652416 -0.2330373 0.01935728
v 0.07552616 -0.1130295 0.003554597
v 0.1401348 -0.2097295 0.01935728
v 0.1674494 -0.1674494 0.01935728
v 0.09612797 -0.09612797 0.003554597
v 0.18237 -0.1218578 0.01935728
v 0.1130295 -0.07552616 0.003554597
v 0.1255955 -0.05202395 0.003554597
v 0.2026429 -0.08393583 0.01935728
v 0.1333323 -0.02651837 0.003554597
v 0.2322001 -0.04618578 0.01935728
v 0.1359412 -3.635883E-06 0.003554597
v 0.2437494 -3.635883E-06 0.01935728
v 0.1333323 0.0265186 0.003554597
v 0.2449454 0.04872011 0.01935728
v 0.1255955 0.05202417 0.003554597
v 0.2330373 0.09652437 0.01935728
v 0.1130295 0.07552637 0.003554597
v 0.2097295 0.140135 0.01935728
v 0.1674494 0.1674496 0.01935728
v 0.09612797 0.09612818 0.003554597
v 0.1218578 0.1823703 0.01935728
v 0.07552616 0.1130298 0.003554597
v 0.05202395 0.1255957 0.003554597
v 0.08393583 0.2026431 0.01935728
v 0.02651837 0.1333251 0.003554597
v 0.04618578 0.2322003 0.01935728
v 3.635883E-06 0.1359414 0.003554597
v 3.635883E-06 0.2437496 0.01935728
v -0.0265186 0.1333251 0.003554597
v -0.04872011 0.2449456 0.01935728
v -0.05202417 0.1255957 0.003554597
v -0.09652437 0.2330375 0.01935728
v -0.140135 0.2097297 0.01935728
v -0.07552637 0.1130298 0.003554597
v -0.1674496 0.1674496 0.01935728
v -0.09612818 0.09612818 0.003554597
v -0.1823703 0.121858 0.01935728
v -0.1130298 0.07552637 0.003554597
v -0.2026431 0.08393605 0.01935728
v -0.1255957 0.05202417 0.003554597
v -0.1333251 0.0265186 0.003554597
v -0.2322003 0.04618599 0.01935728
v -0.1359414 -3.635883E-06 0.003554597
v -0.2437496 -3.635883E-06 0.01935728
v -0.1333326 -0.02651837 0.003554597
v -0.2449456 -0.04871988 0.01935728
v -0.1255957 -0.05202395 0.003554597
v -0.2330375 -0.09652416 0.01935728
v -0.1130298 -0.07552616 0.003554597
v -0.2097297 -0.1401348 0.01935728
v -0.1674496 -0.1674494 0.01935728
v -0.09612818 -0.09612797 0.003554597
v -0.121858 -0.18237 0.01935728
v -0.07552637 -0.1130295 0.003554597
v -0.05202417 -0.1255955 0.003554597
v -0.08393605 -0.2026429 0.01935728
v -0.0265186 -0.1333323 0.003554597
v -0.04618599 -0.2322001 0.01935728
v 3.635883E-06 -0.1359412 0.003554597
v 3.635883E-06 -0.2437494 0.01935728
v 0.02651837 -0.1333323 0.003554597
v 0.04871988 -0.2449454 0.01935728
vt 5.450982 0.009525299
vt 5.141526 0.009525299
vt 5.450982 0.9910789
vt 5.141526 0.9910789
vt 4.832071 0.009525299
vt 4.832071 0.9910789
vt 4.522616 0.9910789
vt 4.522616 0.009525299
vt 4.213161 0.9910789
vt 4.213161 0.009525299
vt 3.903706 0.009525299
vt 3.903706 0.9910789
vt 3.594251 0.009525299
vt 3.594251 0.9910789
vt 3.284795 0.009525299
vt 3.284795 0.9910789
vt 2.97534 0.009525299
vt 2.97534 0.9910789
vt 2.665884 0.009525299
vt 2.665884 0.9910789
vt 2.356429 0.009525299
vt 2.356429 0.9910789
vt 2.046974 0.9910789
vt 2.046974 0.009525299
vt 1.737519 0.9910789
vt 1.737519 0.009525299
vt 1.428063 0.009525299
vt 1.428063 0.9910789
vt 1.118608 0.009525299
vt 1.118608 0.9910789
vt 0.8091531 0.009525299
vt 0.8091531 0.9910789
vt 0.5003023 0.009525299
vt 0.5003023 0.9910789
vt 0.1908469 0.009525299
vt 0.1908469 0.9910789
vt -0.1186085 0.9910789
vt -0.1186085 0.009525299
vt -0.4280639 0.9910789
vt -0.4280639 0.009525299
vt -0.737519 0.9910789
vt -0.737519 0.009525299
vt -1.046974 0.9910789
vt -1.046974 0.009525299
vt -1.35643 0.009525299
vt -1.35643 0.9910789
vt -1.665885 0.009525299
vt -1.665885 0.9910789
vt -1.97534 0.009525299
vt -1.97534 0.9910789
vt -2.284795 0.009525299
vt -2.284795 0.9910789
vt -2.594251 0.009525299
vt -2.594251 0.9910789
vt -2.903706 0.9910789
vt -2.903706 0.009525299
vt -3.213161 0.9910789
vt -3.213161 0.009525299
vt -3.522616 0.009525299
vt -3.522616 0.9910789
vt -3.832072 0.009525299
vt -3.832072 0.9910789
vt -4.141527 0.009525299
vt -4.141527 0.9910789
vt -4.450982 0.009525299
vt -4.450982 0.9910789
vn -0.01961823 0.1373271 0.9903315
vn -0.04999471 0.1259359 0.9907779
vn -0.01961823 0.1373271 0.9903315
vn -0.04999471 0.1259359 0.9907779
vn -0.089231 0.1056849 0.990388
vn -0.089231 0.1056849 0.990388
vn -0.1360614 0.08416824 0.9871185
vn -0.1360614 0.08416824 0.9871185
vn -0.1613751 0.08163688 0.9835108
vn -0.1613751 0.08163688 0.9835108
vn -0.1575781 0.08796529 0.9835809
vn -0.1575781 0.08796529 0.9835809
vn -0.149984 0.05885451 0.9869351
vn -0.149984 0.05885451 0.9869351
vn -0.1449212 0.01328979 0.989354
vn -0.1449212 0.01328979 0.989354
vn -0.1373271 -0.01961806 0.9903315
vn -0.1373271 -0.01961806 0.9903315
vn -0.1259359 -0.04999454 0.9907779
vn -0.1259359 -0.04999454 0.9907779
vn -0.1056849 -0.08923083 0.990388
vn -0.1056849 -0.08923083 0.990388
vn -0.08416824 -0.1360612 0.9871185
vn -0.08416824 -0.1360612 0.9871185
vn -0.08163688 -0.161375 0.9835109
vn -0.08163688 -0.161375 0.9835109
vn -0.08796529 -0.1575779 0.9835809
vn -0.08796529 -0.1575779 0.9835809
vn -0.05885451 -0.1499838 0.9869351
vn -0.05885451 -0.1499838 0.9869351
vn -0.01328979 -0.144921 0.989354
vn -0.01328979 -0.144921 0.989354
vn 0.01961806 -0.1373269 0.9903315
vn 0.01961806 -0.1373269 0.9903315
vn 0.04999454 -0.1259357 0.9907779
vn 0.04999454 -0.1259357 0.9907779
vn 0.08923083 -0.1056848 0.9903881
vn 0.08923083 -0.1056848 0.9903881
vn 0.1360612 -0.08416808 0.9871186
vn 0.1360612 -0.08416808 0.9871186
vn 0.161375 -0.08163671 0.9835109
vn 0.161375 -0.08163671 0.9835109
vn 0.1575779 -0.08796515 0.9835809
vn 0.1575779 -0.08796515 0.9835809
vn 0.1499838 -0.05885435 0.9869352
vn 0.1499838 -0.05885435 0.9869352
vn 0.144921 -0.01328963 0.989354
vn 0.144921 -0.01328963 0.989354
vn 0.1373269 0.01961823 0.9903315
vn 0.1373269 0.01961823 0.9903315
vn 0.1259357 0.04999471 0.9907779
vn 0.1259357 0.04999471 0.9907779
vn 0.1056848 0.089231 0.9903881
vn 0.1056848 0.089231 0.9903881
vn 0.08416808 0.1360614 0.9871185
vn 0.08416808 0.1360614 0.9871185
vn 0.08163671 0.1613751 0.9835108
vn 0.08163671 0.1613751 0.9835108
vn 0.08796515 0.1575781 0.9835809
vn 0.08796515 0.1575781 0.9835809
vn 0.05885435 0.149984 0.9869351
vn 0.05885435 0.149984 0.9869351
vn 0.01328963 0.1449212 0.989354
vn 0.01328963 0.1449212 0.989354
vn -0.01961823 0.1373271 0.9903315
vn -0.01961823 0.1373271 0.9903315
g mesh_ring_water_0
f 3/3/3 2/2/2 1/1/1
f 2/2/2 3/3/3 4/4/4
f 4/4/4 5/5/5 2/2/2
f 5/5/5 4/4/4 6/6/6
f 5/5/5 6/6/6 7/7/7
f 7/7/7 8/8/8 5/5/5
f 8/8/8 7/7/7 9/9/9
f 9/9/9 10/10/10 8/8/8
f 11/11/11 10/10/10 9/9/9
f 9/9/9 12/12/12 11/11/11
f 13/13/13 11/11/11 12/12/12
f 13/13/13 12/12/12 14/14/14
f 15/15/15 13/13/13 14/14/14
f 14/14/14 16/16/16 15/15/15
f 17/17/17 15/15/15 16/16/16
f 16/16/16 18/18/18 17/17/17
f 19/19/19 17/17/17 18/18/18
f 18/18/18 20/20/20 19/19/19
f 20/20/20 21/21/21 19/19/19
f 22/22/22 21/21/21 20/20/20
f 21/21/21 22/22/22 23/23/23
f 23/23/23 24/24/24 21/21/21
f 24/24/24 23/23/23 25/25/25
f 25/25/25 26/26/26 24/24/24
f 25/25/25 27/27/27 26/26/26
f 27/27/27 25/25/25 28/28/28
f 29/29/29 27/27/27 28/28/28
f 29/29/29 28/28/28 30/30/30
f 31/31/31 29/29/29 30/30/30
f 31/31/31 30/30/30 32/32/32
f 33/33/33 31/31/31 32/32/32
f 33/33/33 32/32/32 34/34/34
f 35/35/35 33/33/33 34/34/34
f 34/34/34 36/36/36 35/35/35
f 35/35/35 36/36/36 37/37/37
f 37/37/37 38/38/38 35/35/35
f 38/38/38 37/37/37 39/39/39
f 39/39/39 40/40/40 38/38/38
f 40/40/40 39/39/39 41/41/41
f 41/41/41 42/42/42 40/40/40
f 42/42/42 41/41/41 43/43/43
f 43/43/43 44/44/44 42/42/42
f 43/43/43 45/45/45 44/44/44
f 46/46/46 45/45/45 43/43/43
f 46/46/46 47/47/47 45/45/45
f 47/47/47 46/46/46 48/48/48
f 48/48/48 49/49/49 47/47/47
f 49/49/49 48/48/48 50/50/50
f 51/51/51 49/49/49 50/50/50
f 51/51/51 50/50/50 52/52/52
f 53/53/53 51/51/51 52/52/52
f 53/53/53 52/52/52 54/54/54
f 53/53/53 54/54/54 55/55/55
f 55/55/55 56/56/56 53/53/53
f 56/56/56 55/55/55 57/57/57
f 57/57/57 58/58/58 56/56/56
f 59/59/59 58/58/58 57/57/57
f 57/57/57 60/60/60 59/59/59
f 61/61/61 59/59/59 60/60/60
f 60/60/60 62/62/62 61/61/61
f 62/62/62 63/63/63 61/61/61
f 62/62/62 64/64/64 63/63/63
f 64/64/64 65/65/65 63/63/63
f 66/66/66 65/65/65 64/64/64
