g mesh_storm_tornado_d
v -1.919161 -1.186589 0.5346093
v -2.95069 1.005443 -0.4857898
v -2.997701 1.243568 0.2966171
v -1.72889 -0.948464 1.021076
v -2.839308 1.481693 1.070106
v -1.416674 -0.710339 1.444941
v -2.483417 1.719818 1.781292
v -1.002123 -0.4722141 1.776013
v -1.951669 1.957943 2.380311
v -0.5122163 -0.234089 1.990038
v -1.278139 2.196067 2.824311
v 0.02045154 0.004036026 2.070467
v -0.5071645 2.434192 3.080521
v 0.5598355 0.2421609 2.009717
v 0.3095737 2.672317 3.128642
v 1.06888 0.4802858 1.809833
v 1.116511 2.910442 2.962432
v 1.512065 0.7184108 1.482486
v 1.857982 3.148567 2.590336
v 1.857884 0.9565359 1.04832
v 2.48206 3.386693 2.035095
v 2.081076 1.19466 0.5356482
v 2.944186 3.624817 1.332389
v 2.164468 1.432786 -0.02138016
v 3.210352 3.862942 0.5285383
v 2.100275 1.670911 -0.585062
v 3.259581 4.101068 -0.3225304
v 1.890775 1.909036 -1.116685
v 3.085557 4.339192 -1.162916
v 1.548298 2.147161 -1.57919
v 2.697255 4.577317 -1.934673
v 1.094515 2.385285 -1.939755
v 2.118522 4.815443 -2.58381
v 0.5590807 2.623411 -2.172114
v 1.386638 5.053566 -3.064062
v -0.02230838 2.861536 -2.258468
v 0.5499146 5.291692 -3.340183
v -0.6102864 3.099661 -2.190832
v -0.3354871 5.529817 -3.39052
v -1.164489 3.337785 -1.971717
v -1.209319 5.767941 -3.208683
v -1.646315 3.575911 -1.61411
v -2.011363 6.006067 -2.804173
v -2.021625 3.814035 -1.140711
v -2.685559 6.244192 -2.201949
v -2.26315 4.05216 -0.5825125
v -3.183936 6.482316 -1.440887
v -2.352468 4.290285 0.0232373
v -3.470014 6.720442 -0.5712894
v -2.281387 4.52841 0.6355136
v -3.521461 6.958567 0.3484421
v -2.052659 4.766535 1.212292
v -3.331805 7.196691 1.255726
v -1.67992 5.00466 1.71344
v -2.911093 7.434817 2.088053
v -1.186907 5.242785 2.103495
v -2.285376 7.672941 2.787308
v -0.6059443 5.48091 2.354188
v -1.495135 7.911065 3.303812
v 0.02416676 5.719036 2.446468
v -0.5926624 8.149192 3.599844
v 0.6607401 5.95716 2.371945
v 0.3613979 8.387317 3.6524
v 1.260097 6.195284 2.133602
v 1.30213 8.625441 3.454931
v 1.780565 6.43341 1.745731
v 2.164746 8.863566 3.01801
v 2.185368 6.671535 1.233102
v 2.889059 9.101691 2.368802
v 2.445226 6.909659 0.6293764
v 3.423688 9.339815 1.549384
v 2.540468 7.147784 -0.02509613
v 3.729677 9.577941 0.614039
v 2.462503 7.385911 -0.6859652
v 3.78334 9.816066 -0.3743567
v 2.214544 7.624035 -1.307902
v 3.578055 10.05419 -1.348537
v 1.811543 7.862159 -1.84769
v 3.12493 10.29231 -2.241435
v 1.279299 8.100285 -2.267238
v 2.452231 10.53044 -2.990808
v 0.6528105 8.338408 -2.536263
v 1.603635 10.76857 -3.543563
v -0.02602282 8.576534 -2.634469
v 0.6354118 11.00669 -3.859509
v -0.7111918 8.814659 -2.553059
v -0.3873106 11.24482 -3.914279
v -1.355704 9.052784 -2.295486
v -1.394939 11.48294 -3.701181
v -1.914815 9.290909 -1.877355
v -2.318123 11.72106 -3.23185
v -2.349108 9.529035 -1.325496
v -3.092558 11.95919 -2.535656
v -2.627301 9.767159 -0.6762412
v -3.663438 12.19732 -1.657882
v -2.728468 10.00528 0.02695312
v -3.989338 12.43544 -0.656788
v -2.643615 10.24341 0.7364175
vt 1 5.066395E-07
vt 2.980232E-08 5.066395E-07
vt 2.980232E-08 0.02083382
vt 1 0.02083382
vt 2.980232E-08 0.0416671
vt 1 0.04166713
vt 2.980232E-08 0.06250042
vt 1 0.06250045
vt 2.980232E-08 0.08333373
vt 1 0.08333373
vt 2.980232E-08 0.104167
vt 1 0.104167
vt 2.980232E-08 0.1250004
vt 1 0.1250004
vt 2.980232E-08 0.1458337
vt 1 0.1458337
vt 2.980232E-08 0.166667
vt 1 0.166667
vt 2.980232E-08 0.1875003
vt 1 0.1875003
vt 2.980232E-08 0.2083336
vt 1 0.2083336
vt 2.980232E-08 0.2291669
vt 1 0.2291669
vt 2.980232E-08 0.2500002
vt 1 0.2500002
vt 2.980232E-08 0.2708336
vt 1 0.2708336
vt 2.980232E-08 0.2916669
vt 1 0.2916669
vt 2.980232E-08 0.3125002
vt 1 0.3125002
vt 2.980232E-08 0.3333336
vt 1 0.3333336
vt 2.980232E-08 0.3541668
vt 1 0.3541668
vt 2.980232E-08 0.3750001
vt 1 0.3750001
vt 2.980232E-08 0.3958334
vt 1 0.3958334
vt 2.980232E-08 0.4166667
vt 1 0.4166667
vt 2.980232E-08 0.4375001
vt 1 0.4375001
vt 2.980232E-08 0.4583334
vt 1 0.4583334
vt 2.980232E-08 0.4791667
vt 1 0.4791667
vt 2.980232E-08 0.5
vt 1 0.5
vt 2.980232E-08 0.5208333
vt 1 0.5208333
vt 2.980232E-08 0.5416666
vt 1 0.5416666
vt 2.980232E-08 0.5624999
vt 1 0.5624999
vt 2.980232E-08 0.5833332
vt 1 0.5833332
vt 2.980232E-08 0.6041666
vt 1 0.6041666
vt 2.980232E-08 0.6249998
vt 1 0.6249998
vt 2.980232E-08 0.6458331
vt 1 0.6458331
vt 2.980232E-08 0.6666666
vt 1 0.6666666
vt -2.980232E-08 0.6874998
vt 1 0.6874998
vt -2.980232E-08 0.7083331
vt 1 0.7083331
vt -2.980232E-08 0.7291664
vt 1 0.7291664
vt -2.980232E-08 0.7499997
vt 1 0.7499997
vt -2.980232E-08 0.7708331
vt 1 0.7708331
vt -2.980232E-08 0.7916663
vt 1 0.7916663
vt -2.980232E-08 0.8124996
vt 1 0.8124996
vt -2.980232E-08 0.833333
vt 1 0.833333
vt -2.980232E-08 0.8541663
vt 1 0.8541663
vt -2.980232E-08 0.8749996
vt 1 0.8749996
vt -2.980232E-08 0.8958328
vt 1 0.8958328
vt -2.980232E-08 0.9166662
vt 1 0.9166662
vt -2.980232E-08 0.9374996
vt 1 0.9374996
vt -2.980232E-08 0.9583328
vt 1 0.9583328
vt -2.980232E-08 0.9791661
vt 1 0.9791661
vt -2.980232E-08 0.9999995
vt 1 0.9999995
vn -0.8955367 -0.3738109 0.2414115
vn -0.8955367 -0.3738109 0.2414115
vn -0.8565806 -0.3775238 0.351775
vn -0.8525038 -0.377604 0.3614589
vn -0.7358834 -0.3794757 0.5607798
vn -0.7289735 -0.3795613 0.569676
vn -0.5653993 -0.3814228 0.7313278
vn -0.5558246 -0.3815137 0.738584
vn -0.3567969 -0.3833646 0.8518964
vn -0.3449835 -0.3834607 0.8567055
vn -0.1243157 -0.3853013 0.9143788
vn -0.1109327 -0.3854023 0.9160562
vn 0.1162069 -0.3872329 0.9146292
vn 0.1302862 -0.3873388 0.912685
vn 0.3484144 -0.3891593 0.8527383
vn 0.3621711 -0.38927 0.8469362
vn 0.5565425 -0.3910805 0.7330187
vn 0.5688879 -0.391196 0.7234171
vn 0.7264903 -0.3929968 0.5637068
vn 0.7363523 -0.3931169 0.5506763
vn 0.8467769 -0.394908 0.3563939
vn 0.8531902 -0.3950326 0.3406108
vn 0.9093156 -0.3968141 0.1252341
vn 0.9115089 -0.396943 0.107647
vn 0.9099589 -0.398715 -0.1140229
vn 0.9074302 -0.3988482 -0.1322515
vn 0.8487722 -0.4006107 -0.3451041
vn 0.8413484 -0.400748 -0.3626758
vn 0.7300236 -0.4025012 -0.5523209
vn 0.7178946 -0.4026426 -0.5678963
vn 0.5618854 -0.4043866 -0.7216344
vn 0.5456124 -0.404532 -0.7339354
vn 0.3558722 -0.406267 -0.8416069
vn 0.3363656 -0.4064163 -0.8495199
vn 0.1260517 -0.4081423 -0.9041742
vn 0.1045221 -0.4082952 -0.9068462
vn -0.1119147 -0.4100122 -0.9051879
vn -0.1340335 -0.4101689 -0.9021067
vn -0.3418405 -0.4118769 -0.8446908
vn -0.3629883 -0.4120373 -0.8357421
vn -0.5481148 -0.4137364 -0.7269059
vn -0.5667168 -0.4139003 -0.7124034
vn -0.7167625 -0.4155908 -0.5599428
vn -0.7313474 -0.415758 -0.5406257
vn -0.8363906 -0.4174401 -0.3552386
vn -0.8457063 -0.4176108 -0.332238
vn -0.8989599 -0.4192844 -0.1267748
vn -0.9020772 -0.419458 -0.1015463
vn -0.9003233 -0.4211231 0.1098782
vn -0.8967198 -0.4213001 0.1356459
vn -0.8405015 -0.4229569 0.3386217
vn -0.8301187 -0.4231368 0.3631231
vn -0.7236739 -0.4247848 0.5439247
vn -0.7069412 -0.4249678 0.565364
vn -0.5578874 -0.4266084 0.7118756
vn -0.5357122 -0.4267943 0.7286008
vn -0.3545015 -0.4284268 0.8311313
vn -0.3282202 -0.4286154 0.8417602
vn -0.1274084 -0.4302392 0.8936785
vn -0.09870835 -0.4304306 0.8972102
vn 0.1079104 -0.4320467 0.895372
vn 0.1371018 -0.4322408 0.8912749
vn 0.3354456 -0.4338496 0.8362121
vn 0.3630928 -0.4340463 0.8244801
vn 0.5397487 -0.435647 0.7203354
vn 0.5638491 -0.4358461 0.7015071
vn 0.7069769 -0.4374388 0.5557256
vn 0.7257085 -0.4376403 0.5308655
vn 0.8258341 -0.4392256 0.353665
vn 0.8376924 -0.4394296 0.324304
vn 0.8883349 -0.4410074 0.127959
vn 0.8922524 -0.4412136 0.09600013
vn 0.8903399 -0.4427838 -0.1060063
vn 0.8857765 -0.4429922 -0.1384116
vn 0.8318292 -0.4445551 -0.3323115
vn 0.8188279 -0.4447656 -0.3629109
vn 0.716897 -0.4463212 -0.5355894
vn 0.6960995 -0.4465339 -0.5621861
vn 0.5534654 -0.448082 -0.7020673
vn 0.5260833 -0.4482965 -0.7226802
vn 0.3527373 -0.4498373 -0.8205016
vn 0.3204836 -0.4500537 -0.8335117
vn 0.1284301 -0.4515878 -0.882935
vn 0.09341153 -0.4518062 -0.8872122
vn -0.1041636 -0.4533331 -0.8852339
vn -0.1395858 -0.4535532 -0.8802303
vn -0.3292169 -0.4550728 -0.8273603
vn -0.3625863 -0.4552947 -0.8131654
vn -0.5314459 -0.4568076 -0.7133667
vn -0.5603846 -0.4570311 -0.6907182
vn -0.6971503 -0.458537 -0.5511128
vn -0.7195274 -0.4587621 -0.5213614
vn -0.8151379 -0.4602615 -0.3517236
vn -0.8292273 -0.4604882 -0.3167534
vn -0.8774837 -0.4619806 -0.1288263
vn -0.8820964 -0.4622086 -0.09093457
vn -0.8879678 -0.4598963 0.002913784
vn -0.8879678 -0.4598963 0.002913783
g mesh_storm_tornado_d_0
f 3/3/3 2/2/2 1/1/1
f 4/4/4 3/3/3 1/1/1
f 5/5/5 3/3/3 4/4/4
f 6/6/6 5/5/5 4/4/4
f 7/7/7 5/5/5 6/6/6
f 8/8/8 7/7/7 6/6/6
f 9/9/9 7/7/7 8/8/8
f 10/10/10 9/9/9 8/8/8
f 11/11/11 9/9/9 10/10/10
f 12/12/12 11/11/11 10/10/10
f 13/13/13 11/11/11 12/12/12
f 14/14/14 13/13/13 12/12/12
f 15/15/15 13/13/13 14/14/14
f 16/16/16 15/15/15 14/14/14
f 17/17/17 15/15/15 16/16/16
f 18/18/18 17/17/17 16/16/16
f 19/19/19 17/17/17 18/18/18
f 20/20/20 19/19/19 18/18/18
f 21/21/21 19/19/19 20/20/20
f 22/22/22 21/21/21 20/20/20
f 23/23/23 21/21/21 22/22/22
f 24/24/24 23/23/23 22/22/22
f 25/25/25 23/23/23 24/24/24
f 26/26/26 25/25/25 24/24/24
f 27/27/27 25/25/25 26/26/26
f 28/28/28 27/27/27 26/26/26
f 29/29/29 27/27/27 28/28/28
f 30/30/30 29/29/29 28/28/28
f 31/31/31 29/29/29 30/30/30
f 32/32/32 31/31/31 30/30/30
f 33/33/33 31/31/31 32/32/32
f 34/34/34 33/33/33 32/32/32
f 35/35/35 33/33/33 34/34/34
f 36/36/36 35/35/35 34/34/34
f 37/37/37 35/35/35 36/36/36
f 38/38/38 37/37/37 36/36/36
f 39/39/39 37/37/37 38/38/38
f 40/40/40 39/39/39 38/38/38
f 41/41/41 39/39/39 40/40/40
f 42/42/42 41/41/41 40/40/40
f 43/43/43 41/41/41 42/42/42
f 44/44/44 43/43/43 42/42/42
f 45/45/45 43/43/43 44/44/44
f 46/46/46 45/45/45 44/44/44
f 47/47/47 45/45/45 46/46/46
f 48/48/48 47/47/47 46/46/46
f 49/49/49 47/47/47 48/48/48
f 50/50/50 49/49/49 48/48/48
f 51/51/51 49/49/49 50/50/50
f 52/52/52 51/51/51 50/50/50
f 53/53/53 51/51/51 52/52/52
f 54/54/54 53/53/53 52/52/52
f 55/55/55 53/53/53 54/54/54
f 56/56/56 55/55/55 54/54/54
f 57/57/57 55/55/55 56/56/56
f 58/58/58 57/57/57 56/56/56
f 59/59/59 57/57/57 58/58/58
f 60/60/60 59/59/59 58/58/58
f 61/61/61 59/59/59 60/60/60
f 62/62/62 61/61/61 60/60/60
f 63/63/63 61/61/61 62/62/62
f 64/64/64 63/63/63 62/62/62
f 65/65/65 63/63/63 64/64/64
f 66/66/66 65/65/65 64/64/64
f 67/67/67 65/65/65 66/66/66
f 68/68/68 67/67/67 66/66/66
f 69/69/69 67/67/67 68/68/68
f 70/70/70 69/69/69 68/68/68
f 71/71/71 69/69/69 70/70/70
f 72/72/72 71/71/71 70/70/70
f 73/73/73 71/71/71 72/72/72
f 74/74/74 73/73/73 72/72/72
f 75/75/75 73/73/73 74/74/74
f 76/76/76 75/75/75 74/74/74
f 77/77/77 75/75/75 76/76/76
f 78/78/78 77/77/77 76/76/76
f 79/79/79 77/77/77 78/78/78
f 80/80/80 79/79/79 78/78/78
f 81/81/81 79/79/79 80/80/80
f 82/82/82 81/81/81 80/80/80
f 83/83/83 81/81/81 82/82/82
f 84/84/84 83/83/83 82/82/82
f 85/85/85 83/83/83 84/84/84
f 86/86/86 85/85/85 84/84/84
f 87/87/87 85/85/85 86/86/86
f 88/88/88 87/87/87 86/86/86
f 89/89/89 87/87/87 88/88/88
f 90/90/90 89/89/89 88/88/88
f 91/91/91 89/89/89 90/90/90
f 92/92/92 91/91/91 90/90/90
f 93/93/93 91/91/91 92/92/92
f 94/94/94 93/93/93 92/92/92
f 95/95/95 93/93/93 94/94/94
f 96/96/96 95/95/95 94/94/94
f 97/97/97 95/95/95 96/96/96
f 98/98/98 97/97/97 96/96/96
