g mesh_ring_smooth
v 0.15260786 -0.004980251 -0.15260786
v 0.17944655 -0.004980251 -0.119900085
v 0.20267004 0.016100913 -0.13541713
v 0.19938959 -0.004980251 -0.08258778
v 0.1723575 0.016100913 -0.1723575
v 0.22519429 0.016100913 -0.09327713
v 0.21167082 -0.004980251 -0.0421066
v 0.23905995 0.016100913 -0.04755169
v 0.13541713 0.016100913 -0.20267004
v 0.119900085 -0.004980251 -0.17944655
v 0.08258778 -0.004980251 -0.19938959
v 0.09327713 0.016100913 -0.22519429
v 0.0421066 -0.004980251 -0.21167082
v 0.04755169 0.016100913 -0.23905995
v 0.2158216 -0.004980251 3.6507845E-06
v 0.24374631 0.016100913 3.6507845E-06
v 0.23905995 0.016100913 0.047551543
v 0.21167082 -0.004980251 0.04210645
v -3.6507845E-06 -0.004980251 -0.2158216
v -3.6507845E-06 0.016100913 -0.24374631
v -0.047551543 0.016100913 -0.23905995
v -0.04210645 -0.004980251 -0.21167082
v 0.22519429 0.016100913 0.09327698
v 0.19938959 -0.004980251 0.08258763
v 0.17944655 -0.004980251 0.11989993
v 0.20267004 0.016100913 0.13541698
v -0.09327698 0.016100913 -0.22519429
v -0.08258763 -0.004980251 -0.19938959
v 0.15260786 -0.004980251 0.15260774
v 0.1723575 0.016100913 0.17235735
v -0.11990738 -0.004980251 -0.17944655
v -0.13541698 0.016100913 -0.20267004
v 0.13541713 0.016100913 0.20266989
v 0.119900085 -0.004980251 0.1794464
v 0.08258778 -0.004980251 0.19938946
v 0.09327713 0.016100913 0.22519416
v 0.0421066 -0.004980251 0.21167067
v 0.04755169 0.016100913 0.2390598
v -0.17235735 0.016100913 -0.1723575
v -0.15260774 -0.004980251 -0.15260786
v -0.1794464 -0.004980251 -0.119900085
v -0.20266989 0.016100913 -0.13541713
v -0.19938946 -0.004980251 -0.08258778
v -0.22519416 0.016100913 -0.09327713
v -0.21167067 -0.004980251 -0.0421066
v -0.2390598 0.016100913 -0.04755169
v 3.784895E-06 -0.004980251 0.21582144
v 3.784895E-06 0.016100913 0.24374616
v -0.047551543 0.016100913 0.2390598
v -0.04210645 -0.004980251 0.21167067
v -0.09327698 0.016100913 0.22519416
v -0.08258763 -0.004980251 0.19938946
v -0.21582144 -0.004980251 3.6507845E-06
v -0.24374616 0.016100913 3.6507845E-06
v -0.2390598 0.016100913 0.047551543
v -0.21167067 -0.004980251 0.04210645
v -0.22519416 0.016100913 0.09327698
v -0.19938946 -0.004980251 0.08258763
v -0.20266989 0.016100913 0.13541698
v -0.1794464 -0.004980251 0.11990738
v -0.17235735 0.016100913 0.17235735
v -0.15260774 -0.004980251 0.15260774
v -0.13541698 0.016100913 0.20266989
v -0.11989993 -0.004980251 0.1794464
vt 0.7840743 0.68979
vt 0.7415731 0.7415731
vt 0.8534442 0.8534442
vt 0.68979 0.7840743
vt 0.91597474 0.77772355
vt 0.77772355 0.91597474
vt 0.63067913 0.8158282
vt 0.69125557 0.9618956
vt 0.9618956 0.69125557
vt 0.8158282 0.63067913
vt 0.835369 0.56668305
vt 0.9902297 0.5974598
vt 0.84171975 0.50024426
vt 1.0000001 0.50024426
vt 0.56668305 0.835369
vt 0.5974598 0.9902297
vt 0.49975577 1.0000001
vt 0.49975577 0.84171975
vt 0.835369 0.43331707
vt 0.9902297 0.4025403
vt 0.9618956 0.3087445
vt 0.8158282 0.36932096
vt 0.4025403 0.9902297
vt 0.43331707 0.835369
vt 0.36932096 0.8158282
vt 0.3087445 0.9618956
vt 0.91597474 0.22227646
vt 0.7840743 0.31021005
vt 0.31021005 0.7840743
vt 0.22227646 0.91597474
vt 0.7415731 0.25842693
vt 0.8534442 0.14655589
vt 0.14655589 0.8534442
vt 0.25842693 0.7415731
vt 0.21592571 0.68979
vt 0.08402533 0.77772355
vt 0.18417192 0.63067913
vt 0.038104463 0.69125557
vt 0.77772355 0.08402533
vt 0.68979 0.21592571
vt 0.63067913 0.18417192
vt 0.69125557 0.038104463
vt 0.56668305 0.16463111
vt 0.5974598 0.009770309
vt 0.50024426 0.15828036
vt 0.50024426 -8.940697E-08
vt 0.16463111 0.56668305
vt 0.009770309 0.5974598
vt -8.940697E-08 0.49975577
vt 0.15828036 0.49975577
vt 0.009770309 0.4025403
vt 0.16463111 0.43331707
vt 0.43331707 0.16463111
vt 0.4025403 0.009770309
vt 0.3087445 0.038104463
vt 0.36932096 0.18417192
vt 0.22227646 0.08402533
vt 0.31021005 0.21592571
vt 0.14655589 0.14655589
vt 0.25842693 0.25842693
vt 0.08402533 0.22227646
vt 0.21592571 0.31021005
vt 0.038104463 0.3087445
vt 0.18417192 0.36932096
vn 0.42462778 -0.79812574 -0.4274185
vn 0.50152445 -0.79812574 -0.33386907
vn 0.50152445 -0.79812574 -0.33386907
vn 0.5564506 -0.79812574 -0.23099354
vn 0.42462778 -0.79812574 -0.4274185
vn 0.5564506 -0.79812574 -0.23099354
vn 0.5894063 -0.79812574 -0.12488193
vn 0.5894063 -0.79812574 -0.12488193
vn 0.33674592 -0.79812574 -0.49959734
vn 0.33674592 -0.79812574 -0.49959734
vn 0.23238617 -0.79812574 -0.5558705
vn 0.23238617 -0.79812574 -0.5558705
vn 0.11704123 -0.79812574 -0.59101325
vn 0.11704123 -0.79812574 -0.59101325
vn 0.6003915 -0.79812574 0.05025325
vn 0.6003915 -0.79812574 0.05025325
vn 0.5894063 -0.79812574 0.12488193
vn 0.5894063 -0.79812574 0.12488193
vn 0.0016962886 -0.79812574 -0.6024886
vn 0.0016962886 -0.79812574 -0.6024886
vn -0.11914128 -0.79812574 -0.59059346
vn -0.11914128 -0.79812574 -0.59059346
vn 0.5564506 -0.79812574 0.23099354
vn 0.5564506 -0.79812574 0.23099354
vn 0.50152445 -0.79812574 0.33386907
vn 0.50152445 -0.79812574 0.33386907
vn -0.22899365 -0.79812574 -0.5572766
vn -0.22899365 -0.79812574 -0.5572766
vn 0.42462778 -0.79812574 0.4274185
vn 0.42462778 -0.79812574 0.4274185
vn -0.3333534 -0.79812574 -0.5018673
vn -0.3333534 -0.79812574 -0.5018673
vn 0.33674592 -0.79812574 0.49959734
vn 0.33674592 -0.79812574 0.49959734
vn 0.23238617 -0.79812574 0.5558705
vn 0.23238617 -0.79812574 0.5558705
vn 0.11704123 -0.79812574 0.59101325
vn 0.11704123 -0.79812574 0.59101325
vn -0.4267279 -0.79812574 -0.42532176
vn -0.4267279 -0.79812574 -0.42532176
vn -0.50362444 -0.79812574 -0.33069286
vn -0.50362444 -0.79812574 -0.33069286
vn -0.5585506 -0.79812574 -0.22586848
vn -0.5585506 -0.79812574 -0.22586848
vn -0.59150636 -0.79812574 -0.11452329
vn -0.59150636 -0.79812574 -0.11452329
vn 0.0016962886 -0.79812574 0.6024886
vn 0.0016962886 -0.79812574 0.6024886
vn -0.11914128 -0.79812574 0.59059346
vn -0.11914128 -0.79812574 0.59059346
vn -0.22899365 -0.79812574 0.5572766
vn -0.22899365 -0.79812574 0.5572766
vn -0.6024914 -0.79812545 -0
vn -0.6024914 -0.79812545 -0
vn -0.59150636 -0.79812574 0.11452329
vn -0.59150636 -0.79812574 0.11452329
vn -0.5585506 -0.79812574 0.22586848
vn -0.5585506 -0.79812574 0.22586848
vn -0.50362444 -0.79812574 0.33069286
vn -0.50362444 -0.79812574 0.33069286
vn -0.4267279 -0.79812574 0.42532176
vn -0.4267279 -0.79812574 0.42532176
vn -0.3333534 -0.79812574 0.5018673
vn -0.3333534 -0.79812574 0.5018673
g mesh_ring_smooth_0
f 3/3/3 2/2/2 1/1/1
f 4/4/4 2/2/2 3/3/3
f 1/1/1 5/5/5 3/3/3
f 3/3/3 6/6/6 4/4/4
f 7/7/7 4/4/4 6/6/6
f 6/6/6 8/8/8 7/7/7
f 5/5/5 1/1/1 9/9/9
f 1/1/1 10/10/10 9/9/9
f 9/9/9 10/10/10 11/11/11
f 11/11/11 12/12/12 9/9/9
f 12/12/12 11/11/11 13/13/13
f 13/13/13 14/14/14 12/12/12
f 15/15/15 7/7/7 8/8/8
f 8/8/8 16/16/16 15/15/15
f 15/15/15 16/16/16 17/17/17
f 17/17/17 18/18/18 15/15/15
f 14/14/14 13/13/13 19/19/19
f 19/19/19 20/20/20 14/14/14
f 21/21/21 20/20/20 19/19/19
f 19/19/19 22/22/22 21/21/21
f 18/18/18 17/17/17 23/23/23
f 23/23/23 24/24/24 18/18/18
f 24/24/24 23/23/23 25/25/25
f 23/23/23 26/26/26 25/25/25
f 27/27/27 21/21/21 22/22/22
f 22/22/22 28/28/28 27/27/27
f 25/25/25 26/26/26 29/29/29
f 30/30/30 29/29/29 26/26/26
f 27/27/27 28/28/28 31/31/31
f 31/31/31 32/32/32 27/27/27
f 29/29/29 30/30/30 33/33/33
f 33/33/33 34/34/34 29/29/29
f 33/33/33 35/35/35 34/34/34
f 36/36/36 35/35/35 33/33/33
f 37/37/37 35/35/35 36/36/36
f 38/38/38 37/37/37 36/36/36
f 39/39/39 32/32/32 31/31/31
f 31/31/31 40/40/40 39/39/39
f 39/39/39 40/40/40 41/41/41
f 41/41/41 42/42/42 39/39/39
f 42/42/42 41/41/41 43/43/43
f 43/43/43 44/44/44 42/42/42
f 44/44/44 43/43/43 45/45/45
f 45/45/45 46/46/46 44/44/44
f 47/47/47 37/37/37 38/38/38
f 48/48/48 47/47/47 38/38/38
f 47/47/47 48/48/48 49/49/49
f 49/49/49 50/50/50 47/47/47
f 50/50/50 49/49/49 51/51/51
f 51/51/51 52/52/52 50/50/50
f 46/46/46 45/45/45 53/53/53
f 53/53/53 54/54/54 46/46/46
f 54/54/54 53/53/53 55/55/55
f 56/56/56 55/55/55 53/53/53
f 55/55/55 56/56/56 57/57/57
f 58/58/58 57/57/57 56/56/56
f 59/59/59 57/57/57 58/58/58
f 60/60/60 59/59/59 58/58/58
f 61/61/61 59/59/59 60/60/60
f 60/60/60 62/62/62 61/61/61
f 52/52/52 51/51/51 63/63/63
f 63/63/63 61/61/61 62/62/62
f 63/63/63 64/64/64 52/52/52
f 62/62/62 64/64/64 63/63/63
