g mesh_ring_8_sided
v 3.397465E-06 -0.001715019 0.2182315
v -0.1526105 -0.004978418 0.1526105
v -0.1543155 -0.001715019 0.1543155
v -0.2182315 -0.001715019 3.263354E-06
v -0.2158206 -0.004978418 3.263354E-06
v -0.1526105 -0.004978418 -0.1526106
v -0.1543155 -0.001715019 -0.1543156
v -3.263354E-06 -0.001715019 -0.2182316
v -3.263354E-06 -0.004978418 -0.2158207
v 0.1526106 -0.004978418 -0.1526106
v 3.397465E-06 -0.001715019 0.2182315
v 3.397465E-06 -0.004978418 0.2158206
v -0.1526105 -0.004978418 0.1526105
v 0.1526106 -0.004978418 0.1526105
v 0.1543156 -0.001715019 0.1543155
v 0.2182316 -0.001715019 3.263354E-06
v 0.2158207 -0.004978418 3.263354E-06
v 0.1526106 -0.004978418 -0.1526106
v 0.1543156 -0.001715019 -0.1543156
v -3.263354E-06 -0.001715019 -0.2182316
vt 0.009607196 0.5973119
vt 0.2157353 0.3096913
vt 0.08438855 0.2224464
vt 0.4026887 0.009607196
vt 0.4333682 0.1649223
vt 0.6903092 0.2157353
vt 0.7775542 0.08438855
vt 0.9903934 0.4026887
vt 0.8350783 0.4333682
vt 0.7842653 0.6903092
vt 0.009607196 0.5973119
vt 0.1649223 0.5666324
vt 0.2157353 0.3096913
vt 0.3096913 0.7842653
vt 0.2224464 0.915612
vt 0.5973119 0.9903934
vt 0.5666324 0.8350783
vt 0.7842653 0.6903092
vt 0.915612 0.7775542
vt 0.9903934 0.4026887
vn 0.003150403 -0.5954536 0.8033835
vn -0.5702494 -0.5954536 0.5659069
vn -0.5702494 -0.5954536 0.5659069
vn -0.8033898 -0.5954534 0
vn -0.8033898 -0.5954534 0
vn -0.5702494 -0.5954536 -0.5659069
vn -0.5702494 -0.5954536 -0.5659069
vn -0.003150702 -0.5954536 -0.8033835
vn -0.003150702 -0.5954536 -0.8033835
vn 0.5702492 -0.5954536 -0.5659072
vn 0.003150403 -0.5954536 0.8033835
vn 0.003150403 -0.5954536 0.8033835
vn -0.5702494 -0.5954536 0.5659069
vn 0.5702492 -0.5954536 0.5659072
vn 0.5702492 -0.5954536 0.5659072
vn 0.8033898 -0.5954536 0
vn 0.8033898 -0.5954536 0
vn 0.5702492 -0.5954536 -0.5659072
vn 0.5702492 -0.5954536 -0.5659072
vn -0.003150702 -0.5954536 -0.8033835
g mesh_ring_8_sided_0
f 3/3/3 2/2/2 1/1/1
f 2/2/2 3/3/3 4/4/4
f 4/4/4 5/5/5 2/2/2
f 6/6/6 5/5/5 4/4/4
f 7/7/7 6/6/6 4/4/4
f 6/6/6 7/7/7 8/8/8
f 8/8/8 9/9/9 6/6/6
f 9/9/9 8/8/8 10/10/10
f 13/13/13 12/12/12 11/11/11
f 11/11/11 12/12/12 14/14/14
f 14/14/14 15/15/15 11/11/11
f 15/15/15 14/14/14 16/16/16
f 17/17/17 16/16/16 14/14/14
f 16/16/16 17/17/17 18/18/18
f 18/18/18 19/19/19 16/16/16
f 20/20/20 19/19/19 18/18/18
