g pCylinder2
v 0.95105714 -0.52375805 -0.30901718
v 0.95105714 1 -0.30901718
v 0.80901754 0.9200908 -0.5877856
v 0.80901754 -0.60366726 -0.5877856
v 0.5877856 0.7692254 -0.8090175
v 0.5877856 -0.75453264 -0.8090175
v 0.30901715 0.62095535 -0.951057
v 0.30901715 -0.9028027 -0.951057
v -0 0.4766398 -1.0000005
v -0 -1.0471182 -1.0000005
v -0.30901715 0.33868808 -0.95105696
v -0.30901715 -1.18507 -0.95105696
v -0.5877855 0.21161926 -0.8090173
v -0.5877855 -1.3121388 -0.8090173
v -0.80901724 0.10420227 -0.5877854
v -0.80901724 -1.4195558 -0.5877854
v -0.9510568 -0.054975986 -0.30901706
v -0.9510568 -1.578734 -0.30901706
v -1.0000002 -0.21415412 0
v -1.0000002 -1.7379122 0
v -0.9510568 -0.37333155 0.30901706
v -0.9510568 -1.8970896 0.30901706
vt 0 0
vt 0 1
vt 0.099999994 1
vt 0.099999994 0
vt 0.19999999 1
vt 0.19999999 0
vt 0.3 1
vt 0.3 0
vt 0.4 1
vt 0.4 0
vt 0.5 1
vt 0.5 0
vt 0.6 1
vt 0.6 0
vt 0.7 1
vt 0.7 0
vt 0.8 1
vt 0.8 0
vt 0.9 1
vt 0.9 0
vt 1 1
vt 1 0
vn 0.8910065 0 -0.4539905
vn 0.8910065 0 -0.4539905
vn 0.83055663 0 -0.5569341
vn 0.78909475 0 -0.6142716
vn 0.6234561 0 -0.7818583
vn 0.5507717 0 -0.83465594
vn 0.35048193 0 -0.9365695
vn 0.26667506 0 -0.96378654
vn 0.042457998 0 -0.9990983
vn -0.04291669 0 -0.99907863
vn -0.27074805 0 -0.9626502
vn -0.34750217 0 -0.93767923
vn -0.558713 0 -0.829361
vn -0.61711407 0 -0.7868737
vn -0.7834631 0 -0.62143826
vn -0.83113015 0 -0.55607814
vn -0.9353397 0 -0.353751
vn -0.9646354 0 -0.2635881
vn -0.9988759 0 -0.047401287
vn -0.9988759 0 0.047401343
vn -0.98768836 0 0.15643436
vn -0.98768836 0 0.15643436
g pCylinder2_0
f 3/3/3 2/2/2 1/1/1
f 4/4/4 3/3/3 1/1/1
f 5/5/5 3/3/3 4/4/4
f 6/6/6 5/5/5 4/4/4
f 7/7/7 5/5/5 6/6/6
f 8/8/8 7/7/7 6/6/6
f 9/9/9 7/7/7 8/8/8
f 10/10/10 9/9/9 8/8/8
f 11/11/11 9/9/9 10/10/10
f 12/12/12 11/11/11 10/10/10
f 13/13/13 11/11/11 12/12/12
f 14/14/14 13/13/13 12/12/12
f 15/15/15 13/13/13 14/14/14
f 16/16/16 15/15/15 14/14/14
f 17/17/17 15/15/15 16/16/16
f 18/18/18 17/17/17 16/16/16
f 19/19/19 17/17/17 18/18/18
f 20/20/20 19/19/19 18/18/18
f 21/21/21 19/19/19 20/20/20
f 22/22/22 21/21/21 20/20/20
