g petalMesh
v -0.0005362805 -0.0003965626 -0.0009950515
v -0.001613002 -8.810265E-05 -0.0005973568
v -0.001019056 -0.0002709202 -0.001173845
v -2.384628E-05 -0.0004874846 -0.0006221479
v -0.001787059 3.702054E-05 0.0003283476
v -0.001585486 -0.0001199027 0.001439076
v -0.0009824538 -0.0002388606 0.002276259
v 0.0001751957 -0.0002250373 0.002397035
v 0.001198377 0.0001650641 0.001577763
v 0.001805237 6.349897E-05 0.0006881417
v 0.001856053 -9.381375E-05 -1.035491E-05
v 0.0005529667 -0.0005225944 -0.0008012013
v 0.001346279 -0.0003596357 -0.0006368797
v 0.001618137 -0.0002496337 -0.0004946883
vn 0.2780474 0.9573068 -0.0790782
vn 0.2668169 0.9573068 -0.1112314
vn 0.2612016 0.962922 -0.06748976
vn 0.087129 0.9797679 -0.1801761
vn 0.3229693 0.9404611 -0.1059421
vn 0.45212 0.8843086 0.1165577
vn 0.2102104 0.9776562 0
vn -0.2217095 0.9741525 -0.0432639
vn -0.3620907 0.9292306 -0.07362571
vn -0.1206351 0.9460763 -0.3006439
vn -0.04202166 0.9516916 -0.3041666
vn -0.1150199 0.9460763 -0.3028366
vn -0.1599419 0.9516916 -0.2621102
vn -0.1150199 0.9516916 -0.2846992
g petalMesh_0
f 3/3/3 2/2/2 1/1/1
f 1/1/1 2/2/2 4/4/4
f 2/2/2 5/5/5 4/4/4
f 5/5/5 6/6/6 4/4/4
f 6/6/6 7/7/7 4/4/4
f 7/7/7 8/8/8 4/4/4
f 8/8/8 9/9/9 4/4/4
f 9/9/9 10/10/10 4/4/4
f 4/4/4 10/10/10 11/11/11
f 12/12/12 4/4/4 11/11/11
f 13/13/13 12/12/12 11/11/11
f 14/14/14 13/13/13 11/11/11
