g placeholder_goatee_mesh
v 0.0003041625 85.3452 4.2580743
v 0.62641823 86.192055 4.430657
v 0.37891585 85.66896 4.243358
v 0.0003041625 86.192055 4.540361
v -0.37830752 85.66896 4.243358
v 0.7 86.976036 4.4814954
v -0.62580985 86.192055 4.430657
v 0.0003041625 86.72051 4.624645
v -0.69939166 86.976036 4.4814954
vt 0.9860427 0.6087009
vt 0.9899429 0.61406356
vt 0.9884803 0.6106509
vt 0.9860427 0.61406356
vt 0.9836051 0.6106509
vt 0.99043036 0.6189388
vt 0.9821425 0.61406356
vt 0.9860427 0.6174762
vt 0.981655 0.6189388
vn -0.00043424964 -0.36150834 0.9323688
vn 0.21627022 -0.20243803 0.9551157
vn 0.2254917 -0.35228688 0.9083212
vn -0.00043424964 -0.22318633 0.97477573
vn -0.22636023 -0.35228688 0.9081052
vn 0.20704876 -0.11252873 0.97183746
vn -0.21483335 -0.20243803 0.9554399
vn -0.00043424964 -0.114834085 0.9933846
vn -0.20561191 -0.11252873 0.9721425
g placeholder_goatee_mesh_0
f 3/3/3 2/2/2 1/1/1
f 2/2/2 4/4/4 1/1/1
f 1/1/1 4/4/4 5/5/5
f 2/2/2 6/6/6 4/4/4
f 4/4/4 7/7/7 5/5/5
f 6/6/6 8/8/8 4/4/4
f 4/4/4 8/8/8 7/7/7
f 8/8/8 9/9/9 7/7/7
