g PokestopFar_Cube
v 0.8627339 -0.3577519 0.4952153
v -0.009245265 0.3276553 1.005033
v -0.008510965 1.056779 0.02604355
v 0.8634679 0.3713725 -0.4837746
v -0.009245265 0.3276553 1.005033
v -0.8634679 -0.3713725 0.4837765
v -0.8627338 0.3577519 -0.4952134
v -0.008510965 1.056779 0.02604355
v -0.8634679 -0.3713725 0.4837765
v 0.008510871 -1.056779 -0.02604173
v 0.009245193 -0.3276548 -1.005031
v -0.8627338 0.3577519 -0.4952134
v 0.008510871 -1.056779 -0.02604173
v 0.8627339 -0.3577519 0.4952153
v 0.8634679 0.3713725 -0.4837746
v 0.009245193 -0.3276548 -1.005031
v 0.8634679 0.3713725 -0.4837746
v -0.008510965 1.056779 0.02604355
v -0.8627338 0.3577519 -0.4952134
v 0.009245193 -0.3276548 -1.005031
v 0.008510871 -1.056779 -0.02604173
v -0.8634679 -0.3713725 0.4837765
v -0.009245265 0.3276553 1.005033
v 0.8627339 -0.3577519 0.4952153
vt 0.5614485 0.7787029
vt 0.412238 0.8799496
vt 0.484642 0.9876543
vt 0.6338524 0.8864075
vt 0.412238 0.8799496
vt 0.3414563 0.776691
vt 0.4138602 0.8843955
vt 0.484642 0.9876543
vt 0.3414563 0.776691
vt 0.4906667 0.6754441
vt 0.5630707 0.7831488
vt 0.4138602 0.8843955
vt 0.4906667 0.6754441
vt 0.5614485 0.7787029
vt 0.6338524 0.8864075
vt 0.5630707 0.7831488
vt 0.6338524 0.8864075
vt 0.484642 0.9876543
vt 0.4138602 0.8843955
vt 0.5630707 0.7831488
vt 0.4906667 0.6754441
vt 0.3414563 0.776691
vt 0.412238 0.8799496
vt 0.5614485 0.7787029
vn 0.6997962 0.572657 0.4270236
vn 0.6997962 0.572657 0.4270236
vn 0.6997962 0.572657 0.4270236
vn 0.6997962 0.572657 0.4270236
vn -0.7143425 0.5614988 0.4176528
vn -0.7143425 0.5614988 0.4176528
vn -0.7143425 0.5614988 0.4176528
vn -0.7143425 0.5614988 0.4176528
vn -0.6997962 -0.572657 -0.4270239
vn -0.6997962 -0.572657 -0.4270239
vn -0.6997962 -0.572657 -0.4270239
vn -0.6997962 -0.572657 -0.4270239
vn 0.7143424 -0.5614989 -0.4176531
vn 0.7143424 -0.5614989 -0.4176531
vn 0.7143424 -0.5614989 -0.4176531
vn 0.7143424 -0.5614989 -0.4176531
vn 0.000601496 0.5973134 -0.8020077
vn 0.000601496 0.5973134 -0.8020077
vn 0.000601496 0.5973134 -0.8020077
vn 0.000601496 0.5973134 -0.8020077
vn -0.000601483 -0.5973132 0.8020079
vn -0.000601483 -0.5973132 0.8020079
vn -0.000601483 -0.5973132 0.8020079
vn -0.000601483 -0.5973132 0.8020079
g PokestopFar_Cube_0
f 3/3/3 2/2/2 1/1/1
f 4/4/4 3/3/3 1/1/1
f 7/7/7 6/6/6 5/5/5
f 8/8/8 7/7/7 5/5/5
f 11/11/11 10/10/10 9/9/9
f 12/12/12 11/11/11 9/9/9
f 15/15/15 14/14/14 13/13/13
f 16/16/16 15/15/15 13/13/13
f 19/19/19 18/18/18 17/17/17
f 20/20/20 19/19/19 17/17/17
f 23/23/23 22/22/22 21/21/21
f 24/24/24 23/23/23 21/21/21
