g pokestop_ia_arc_bottom
v 80.96165 -119.0007 -8.148712
v 80.96165 -119.0008 8.149031
v 80.96165 -119.0007 8.149031
v -56.4488 119.0007 -8.149048
v 80.96165 119.0007 -8.148932
v 80.96165 119.0007 8.148884
v -56.44881 119.0007 8.148853
v -56.44867 60.40981 8.149007
v -53.21572 59.73507 -8.148886
v -56.44865 60.40981 -8.148893
v -53.21558 59.73508 8.149014
v -44.41319 57.72596 -8.148865
v -44.4132 57.72595 8.149035
v -36.00844 54.42736 -8.148842
v -36.00845 54.42735 8.148897
v -28.18917 49.91293 -8.148816
v -28.18917 49.91293 8.148922
v -21.13014 44.28352 -8.148951
v -21.13015 44.28352 8.14895
v -14.98896 37.66489 -8.148922
v -14.98897 37.66488 8.148897
v -9.902843 30.20491 -8.148894
v -9.902812 30.2049 8.148926
v -5.98535 22.07016 -8.148906
v -5.985355 22.07019 8.148914
v -3.324044 13.44244 -8.148899
v -3.32405 13.44241 8.148901
v -1.978352 4.514408 -8.148892
v -1.978358 4.51438 8.148896
v -1.978352 -4.514456 -8.148899
v -1.978358 -4.514447 8.148898
v -3.324044 -13.44249 -8.148888
v -3.32405 -13.44248 8.148891
v -5.98535 -22.07021 -8.148911
v -5.985355 -22.07016 8.148908
v -9.902806 -30.20492 -8.148897
v -9.902812 -30.20491 8.148922
v -14.98903 -37.66493 -8.148885
v -14.98904 -37.66493 8.148934
v -21.13022 -44.28353 -8.148879
v -21.13022 -44.28356 8.14886
v -28.18917 -49.91295 -8.148876
v -28.18917 -49.91294 8.148863
v -36.00844 -54.42737 -8.148878
v -36.00845 -54.42736 8.14886
v -44.41319 -57.72602 -8.148884
v -44.4132 -57.72601 8.149015
v -53.21572 -59.7351 -8.148894
v -53.21573 -59.73506 8.149006
v -56.44865 -60.40983 -8.148898
v -56.44867 -60.40978 8.149001
v 80.96165 119.0007 -8.148932
v 80.96165 -119.0008 8.149031
v 80.96165 119.0007 8.148884
v 80.96165 -119.0007 -8.148712
v 80.96165 -119.0007 8.149031
v 80.96165 -119.0007 -8.148712
v -56.4488 -119.0007 -8.148744
v -56.44881 -119.0007 8.148831
v 80.96165 -119.0008 8.149031
v -56.4488 119.0007 -8.149048
v -56.44881 119.0007 8.148853
v -56.44867 60.40981 8.149007
v -56.44865 60.40981 -8.148893
v -56.44867 -60.40978 8.149001
v -56.44881 -119.0007 8.148831
v -56.4488 -119.0007 -8.148744
v -56.44865 -60.40983 -8.148898
v -56.44867 60.40981 8.149007
v -56.44881 119.0007 8.148853
v 80.96165 119.0007 8.148884
v -53.21558 59.73508 8.149014
v -44.4132 57.72595 8.149035
v -36.00845 54.42735 8.148897
v -28.18917 49.91293 8.148922
v -21.13015 44.28352 8.14895
v -14.98897 37.66488 8.148897
v -9.902812 30.2049 8.148926
v -5.985355 22.07019 8.148914
v -3.32405 13.44241 8.148901
v -1.978358 4.51438 8.148896
v 80.96165 -119.0008 8.149031
v -1.978358 -4.514447 8.148898
v 80.96165 -119.0007 8.149031
v -3.32405 -13.44248 8.148891
v 80.96165 -119.0008 8.149031
v -5.985355 -22.07016 8.148908
v -9.902812 -30.20491 8.148922
v -14.98904 -37.66493 8.148934
v -21.13022 -44.28356 8.14886
v -28.18917 -49.91294 8.148863
v -36.00845 -54.42736 8.14886
v -44.4132 -57.72601 8.149015
v -53.21573 -59.73506 8.149006
v -56.44881 -119.0007 8.148831
v -56.44867 -60.40978 8.149001
v -53.21572 59.73507 -8.148886
v 80.96165 119.0007 -8.148932
v -56.4488 119.0007 -8.149048
v -56.44865 60.40981 -8.148893
v -44.41319 57.72596 -8.148865
v 80.96165 119.0007 -8.148932
v -53.21572 59.73507 -8.148886
v -36.00844 54.42736 -8.148842
v -28.18917 49.91293 -8.148816
v -21.13014 44.28352 -8.148951
v -14.98896 37.66489 -8.148922
v -9.902843 30.20491 -8.148894
v -5.98535 22.07016 -8.148906
v -3.324044 13.44244 -8.148899
v -1.978352 4.514408 -8.148892
v -1.978352 -4.514456 -8.148899
v 80.96165 -119.0007 -8.148712
v -3.324044 -13.44249 -8.148888
v -5.98535 -22.07021 -8.148911
v -9.902806 -30.20492 -8.148897
v -14.98903 -37.66493 -8.148885
v -21.13022 -44.28353 -8.148879
v -28.18917 -49.91295 -8.148876
v -36.00844 -54.42737 -8.148878
v -44.41319 -57.72602 -8.148884
v -53.21572 -59.7351 -8.148894
v -56.44865 -60.40983 -8.148898
v -56.4488 -119.0007 -8.148744
vt 0.6988502 0.7244627
vt 0.7390225 0.6912658
vt 0.572068 0.8170711
vt 0.1751042 0.5162486
vt 0.3270284 0.7564242
vt 0.2882647 0.738503
vt 0.1751042 0.5162486
vt 0.3349772 0.5162486
vt 0.3368183 0.5250704
vt 0.3349772 0.5162486
vt 0.3368183 0.5250705
vt 0.3423004 0.5490892
vt 0.3423004 0.5490893
vt 0.3513011 0.5720227
vt 0.3513011 0.5720227
vt 0.3636193 0.5933585
vt 0.3636193 0.5933585
vt 0.3789799 0.6126201
vt 0.3789799 0.6126201
vt 0.3970397 0.6293771
vt 0.3970397 0.6293771
vt 0.4173953 0.6432554
vt 0.4173953 0.6432554
vt 0.439592 0.6539447
vt 0.439592 0.6539447
vt 0.4631339 0.6612064
vt 0.4631339 0.6612064
vt 0.4874952 0.6648783
vt 0.4874952 0.6648783
vt 0.5121317 0.6648783
vt 0.5121317 0.6648783
vt 0.536493 0.6612064
vt 0.536493 0.6612065
vt 0.5600349 0.6539447
vt 0.5600349 0.6539447
vt 0.5822316 0.6432554
vt 0.5822316 0.6432554
vt 0.6025872 0.6293771
vt 0.6025872 0.6293771
vt 0.620647 0.6126201
vt 0.6206471 0.6126201
vt 0.6360077 0.5933585
vt 0.6360077 0.5933585
vt 0.6483259 0.5720227
vt 0.6483259 0.5720227
vt 0.6573266 0.5490893
vt 0.6573266 0.5490893
vt 0.6628087 0.5250705
vt 0.6628087 0.5250705
vt 0.6646498 0.5162487
vt 0.6646498 0.5162488
vt 0.3270284 0.7564242
vt 0.524079 0.8243043
vt 0.2882647 0.738503
vt 0.6988502 0.7244627
vt 0.572068 0.8170711
vt 0.6988502 0.7244627
vt 0.8245229 0.5162487
vt 0.8245229 0.5162488
vt 0.7390225 0.6912658
vt 0.1751042 0.5162486
vt 0.1751042 0.5162486
vt 0.3349772 0.5162486
vt 0.3349772 0.5162486
vt 0.6646498 0.5162488
vt 0.8245229 0.5162488
vt 0.8245229 0.5162487
vt 0.6646498 0.5162487
vt 0.3349772 0.5162486
vt 0.1751042 0.5162486
vt 0.2882647 0.738503
vt 0.3368183 0.5250705
vt 0.3423004 0.5490893
vt 0.3513011 0.5720227
vt 0.3636193 0.5933585
vt 0.3789799 0.6126201
vt 0.3970397 0.6293771
vt 0.4173953 0.6432554
vt 0.439592 0.6539447
vt 0.4631339 0.6612064
vt 0.4874952 0.6648783
vt 0.524079 0.8243043
vt 0.5121317 0.6648783
vt 0.572068 0.8170711
vt 0.536493 0.6612065
vt 0.7390225 0.6912658
vt 0.5600349 0.6539447
vt 0.5822316 0.6432554
vt 0.6025872 0.6293771
vt 0.6206471 0.6126201
vt 0.6360077 0.5933585
vt 0.6483259 0.5720227
vt 0.6573266 0.5490893
vt 0.6628087 0.5250705
vt 0.8245229 0.5162488
vt 0.6646498 0.5162488
vt 0.3368183 0.5250704
vt 0.3270284 0.7564242
vt 0.1751042 0.5162486
vt 0.3349772 0.5162486
vt 0.3423004 0.5490892
vt 0.3270284 0.7564242
vt 0.3368183 0.5250704
vt 0.3513011 0.5720227
vt 0.3636193 0.5933585
vt 0.3789799 0.6126201
vt 0.3970397 0.6293771
vt 0.4173953 0.6432554
vt 0.439592 0.6539447
vt 0.4631339 0.6612064
vt 0.4874952 0.6648783
vt 0.5121317 0.6648783
vt 0.6988502 0.7244627
vt 0.536493 0.6612064
vt 0.5600349 0.6539447
vt 0.5822316 0.6432554
vt 0.6025872 0.6293771
vt 0.620647 0.6126201
vt 0.6360077 0.5933585
vt 0.6483259 0.5720227
vt 0.6573266 0.5490893
vt 0.6628087 0.5250705
vt 0.6646498 0.5162487
vt 0.8245229 0.5162487
vn 0.9749279 -0.222521 0
vn 0.9308736 -0.3653411 0
vn 0.9749279 -0.222521 0
vn 0.1104019 0.993887 0
vn 0.1667309 0.9860024 0
vn 0.1667309 0.9860024 0
vn 0.1104019 0.993887 0
vn -0.2042955 -0.9789093 0
vn -0.2134174 -0.9769611 0
vn -0.2042955 -0.9789093 0
vn -0.2134174 -0.9769611 0
vn -0.2947549 -0.9555728 0
vn -0.2947549 -0.9555728 0
vn -0.4338836 -0.900969 0
vn -0.4338836 -0.900969 0
vn -0.56332 -0.8262388 0
vn -0.56332 -0.8262388 0
vn -0.6801729 -0.7330518 0
vn -0.6801729 -0.7330518 0
vn -0.7818316 -0.6234897 0
vn -0.7818316 -0.6234897 0
vn -0.8660255 -0.4999999 0
vn -0.8660255 -0.4999999 0
vn -0.9308738 -0.3653409 0
vn -0.9308738 -0.3653409 0
vn -0.9749279 -0.2225209 0
vn -0.9749279 -0.2225209 0
vn -0.9972038 -0.07472982 0
vn -0.9972038 -0.07472982 0
vn -0.9972038 0.07473036 0
vn -0.9972038 0.07473036 0
vn -0.9749279 0.222521 0
vn -0.9749279 0.222521 0
vn -0.9308736 0.3653411 0
vn -0.9308736 0.3653411 0
vn -0.8660253 0.5000002 0
vn -0.8660253 0.5000002 0
vn -0.7818313 0.62349 0
vn -0.7818313 0.62349 0
vn -0.6801727 0.7330519 0
vn -0.6801727 0.7330519 0
vn -0.5633199 0.8262389 0
vn -0.5633199 0.8262389 0
vn -0.4338834 0.9009691 0
vn -0.4338834 0.9009691 0
vn -0.2947549 0.9555728 0
vn -0.2947549 0.9555728 0
vn -0.2134174 0.9769611 0
vn -0.2134174 0.9769611 0
vn -0.2042955 0.9789093 0
vn -0.2042955 0.9789093 0
vn 0.9972038 0.07472975 0
vn 0.9972038 -0.07473028 0
vn 0.9972038 0.07472975 0
vn 0.9972038 -0.07473028 0
vn 0.9749279 -0.222521 0
vn 0.1667305 -0.9860026 0
vn 0.1104011 -0.9938871 0
vn 0.1104011 -0.9938871 0
vn 0.1667305 -0.9860026 0
vn -1 0 0
vn -1 0 0
vn -1 0 0
vn -1 0 0
vn -1 0 0
vn -1 0 0
vn -1 0 0
vn -1 0 0
vn 0 0 1
vn 0 0 1
vn 0 0 1
vn 0 0 1
vn 0 0 1
vn 0 0 1
vn 0 0 1
vn 0 0 1
vn 0 0 1
vn 0 0 1
vn 0 0 1
vn 0 0 1
vn 0 0 1
vn 0 0 1
vn 0 0 1
vn 0 0 1
vn 0 0 1
vn 0 0 1
vn 0 0 1
vn 0 0 1
vn 0 0 1
vn 0 0 1
vn 0 0 1
vn 0 0 1
vn 0 0 1
vn 0 0 1
vn 0 0 1
vn 0 0 1
vn 0 0 -1
vn 0 0 -1
vn 0 0 -1
vn 0 0 -1
vn 0 0 -1
vn 0 0 -1
vn 0 0 -1
vn 0 0 -1
vn 0 0 -1
vn 0 0 -1
vn 0 0 -1
vn 0 0 -1
vn 0 0 -1
vn 0 0 -1
vn 0 0 -1
vn 0 0 -1
vn 0 0 -1
vn 0 0 -1
vn 0 0 -1
vn 0 0 -1
vn 0 0 -1
vn 0 0 -1
vn 0 0 -1
vn 0 0 -1
vn 0 0 -1
vn 0 0 -1
vn 0 0 -1
vn 0 0 -1
g pokestop_ia_arc_bottom_0
f 3/3/3 2/2/2 1/1/1
f 6/6/6 5/5/5 4/4/4
f 7/7/7 6/6/6 4/4/4
f 10/10/10 9/9/9 8/8/8
f 9/9/9 11/11/11 8/8/8
f 9/9/9 12/12/12 11/11/11
f 12/12/12 13/13/13 11/11/11
f 12/12/12 14/14/14 13/13/13
f 14/14/14 15/15/15 13/13/13
f 14/14/14 16/16/16 15/15/15
f 16/16/16 17/17/17 15/15/15
f 16/16/16 18/18/18 17/17/17
f 18/18/18 19/19/19 17/17/17
f 18/18/18 20/20/20 19/19/19
f 20/20/20 21/21/21 19/19/19
f 20/20/20 22/22/22 21/21/21
f 22/22/22 23/23/23 21/21/21
f 22/22/22 24/24/24 23/23/23
f 24/24/24 25/25/25 23/23/23
f 24/24/24 26/26/26 25/25/25
f 26/26/26 27/27/27 25/25/25
f 26/26/26 28/28/28 27/27/27
f 28/28/28 29/29/29 27/27/27
f 28/28/28 30/30/30 29/29/29
f 30/30/30 31/31/31 29/29/29
f 30/30/30 32/32/32 31/31/31
f 32/32/32 33/33/33 31/31/31
f 32/32/32 34/34/34 33/33/33
f 34/34/34 35/35/35 33/33/33
f 34/34/34 36/36/36 35/35/35
f 36/36/36 37/37/37 35/35/35
f 36/36/36 38/38/38 37/37/37
f 38/38/38 39/39/39 37/37/37
f 38/38/38 40/40/40 39/39/39
f 40/40/40 41/41/41 39/39/39
f 40/40/40 42/42/42 41/41/41
f 42/42/42 43/43/43 41/41/41
f 42/42/42 44/44/44 43/43/43
f 44/44/44 45/45/45 43/43/43
f 44/44/44 46/46/46 45/45/45
f 46/46/46 47/47/47 45/45/45
f 46/46/46 48/48/48 47/47/47
f 48/48/48 49/49/49 47/47/47
f 48/48/48 50/50/50 49/49/49
f 50/50/50 51/51/51 49/49/49
f 54/54/54 53/53/53 52/52/52
f 53/53/53 55/55/55 52/52/52
f 53/53/53 56/56/56 55/55/55
f 59/59/59 58/58/58 57/57/57
f 60/60/60 59/59/59 57/57/57
f 63/63/63 62/62/62 61/61/61
f 64/64/64 63/63/63 61/61/61
f 67/67/67 66/66/66 65/65/65
f 68/68/68 67/67/67 65/65/65
g pokestop_ia_arc_bottom_1
f 71/71/71 70/70/70 69/69/69
f 72/72/72 71/71/71 69/69/69
f 73/73/73 71/71/71 72/72/72
f 74/74/74 71/71/71 73/73/73
f 75/75/75 71/71/71 74/74/74
f 76/76/76 71/71/71 75/75/75
f 77/77/77 71/71/71 76/76/76
f 78/78/78 71/71/71 77/77/77
f 79/79/79 71/71/71 78/78/78
f 80/80/80 71/71/71 79/79/79
f 81/81/81 71/71/71 80/80/80
f 82/82/82 71/71/71 81/81/81
f 83/83/83 82/82/82 81/81/81
f 84/84/84 82/82/82 83/83/83
f 85/85/85 84/84/84 83/83/83
f 86/86/86 84/84/84 85/85/85
f 87/87/87 86/86/86 85/85/85
f 88/88/88 86/86/86 87/87/87
f 89/89/89 86/86/86 88/88/88
f 90/90/90 86/86/86 89/89/89
f 91/91/91 86/86/86 90/90/90
f 92/92/92 86/86/86 91/91/91
f 93/93/93 86/86/86 92/92/92
f 94/94/94 86/86/86 93/93/93
f 95/95/95 86/86/86 94/94/94
f 96/96/96 95/95/95 94/94/94
f 99/99/99 98/98/98 97/97/97
f 100/100/100 99/99/99 97/97/97
f 103/103/103 102/102/102 101/101/101
f 101/101/101 102/102/102 104/104/104
f 104/104/104 102/102/102 105/105/105
f 105/105/105 102/102/102 106/106/106
f 106/106/106 102/102/102 107/107/107
f 107/107/107 102/102/102 108/108/108
f 108/108/108 102/102/102 109/109/109
f 109/109/109 102/102/102 110/110/110
f 110/110/110 102/102/102 111/111/111
f 111/111/111 102/102/102 112/112/112
f 102/102/102 113/113/113 112/112/112
f 112/112/112 113/113/113 114/114/114
f 114/114/114 113/113/113 115/115/115
f 115/115/115 113/113/113 116/116/116
f 116/116/116 113/113/113 117/117/117
f 117/117/117 113/113/113 118/118/118
f 118/118/118 113/113/113 119/119/119
f 119/119/119 113/113/113 120/120/120
f 120/120/120 113/113/113 121/121/121
f 121/121/121 113/113/113 122/122/122
f 122/122/122 113/113/113 123/123/123
f 113/113/113 124/124/124 123/123/123
