g PokestopFar_Cube
v 0.8627339 -0.35775194 0.49521527
v -0.009245265 0.32765532 1.0050335
v -0.008510965 1.0567793 0.026043553
v 0.8634679 0.37137246 -0.4837746
v -0.009245265 0.32765532 1.0050335
v -0.8634679 -0.37137246 0.48377645
v -0.8627338 0.35775194 -0.49521345
v -0.008510965 1.0567793 0.026043553
v -0.8634679 -0.37137246 0.48377645
v 0.008510871 -1.0567793 -0.026041728
v 0.009245193 -0.32765484 -1.0050315
v -0.8627338 0.35775194 -0.49521345
v 0.008510871 -1.0567793 -0.026041728
v 0.8627339 -0.35775194 0.49521527
v 0.8634679 0.37137246 -0.4837746
v 0.009245193 -0.32765484 -1.0050315
v 0.8634679 0.37137246 -0.4837746
v -0.008510965 1.0567793 0.026043553
v -0.8627338 0.35775194 -0.49521345
v 0.009245193 -0.32765484 -1.0050315
v 0.008510871 -1.0567793 -0.026041728
v -0.8634679 -0.37137246 0.48377645
v -0.009245265 0.32765532 1.0050335
v 0.8627339 -0.35775194 0.49521527
vt 0.56144845 0.7787029
vt 0.41223803 0.8799496
vt 0.484642 0.98765427
vt 0.63385236 0.8864075
vt 0.41223803 0.8799496
vt 0.3414563 0.77669096
vt 0.4138602 0.88439554
vt 0.484642 0.98765427
vt 0.3414563 0.77669096
vt 0.4906667 0.6754441
vt 0.56307065 0.78314877
vt 0.4138602 0.88439554
vt 0.4906667 0.6754441
vt 0.56144845 0.7787029
vt 0.63385236 0.8864075
vt 0.56307065 0.78314877
vt 0.63385236 0.8864075
vt 0.484642 0.98765427
vt 0.4138602 0.88439554
vt 0.56307065 0.78314877
vt 0.4906667 0.6754441
vt 0.3414563 0.77669096
vt 0.41223803 0.8799496
vt 0.56144845 0.7787029
vn 0.69979626 0.5726571 0.42702368
vn 0.69979626 0.5726571 0.42702368
vn 0.69979626 0.5726571 0.42702368
vn 0.69979626 0.5726571 0.42702368
vn -0.7143425 0.5614988 0.4176528
vn -0.7143425 0.5614988 0.4176528
vn -0.7143425 0.5614988 0.4176528
vn -0.7143425 0.5614988 0.4176528
vn -0.6997962 -0.572657 -0.42702386
vn -0.6997962 -0.572657 -0.42702386
vn -0.6997962 -0.572657 -0.42702386
vn -0.6997962 -0.572657 -0.42702386
vn 0.71434236 -0.5614989 -0.41765305
vn 0.71434236 -0.5614989 -0.41765305
vn 0.71434236 -0.5614989 -0.41765305
vn 0.71434236 -0.5614989 -0.41765305
vn 0.000601496 0.5973134 -0.80200773
vn 0.000601496 0.5973134 -0.80200773
vn 0.000601496 0.5973134 -0.80200773
vn 0.000601496 0.5973134 -0.80200773
vn -0.0006014829 -0.5973132 0.8020078
vn -0.0006014829 -0.5973132 0.8020078
vn -0.0006014829 -0.5973132 0.8020078
vn -0.0006014829 -0.5973132 0.8020078
g PokestopFar_Cube_0
f 3/3/3 2/2/2 1/1/1
f 4/4/4 3/3/3 1/1/1
f 7/7/7 6/6/6 5/5/5
f 8/8/8 7/7/7 5/5/5
f 11/11/11 10/10/10 9/9/9
f 12/12/12 11/11/11 9/9/9
f 15/15/15 14/14/14 13/13/13
f 16/16/16 15/15/15 13/13/13
f 19/19/19 18/18/18 17/17/17
f 20/20/20 19/19/19 17/17/17
f 23/23/23 22/22/22 21/21/21
f 24/24/24 23/23/23 21/21/21
