g pokestop_ia_coin_face
v -0.2151288 1.2676144 0.4118719
v -0.21512873 3.5762787E-06 2.8802086E-07
v -0.21512881 1.3164401 0.2085031
v -0.21512873 1.1875772 0.60509896
v -0.21512873 1.3328505 2.895921E-07
v -0.21512878 1.0782993 0.78342676
v -0.21512873 1.3164401 -0.20850234
v -0.21512872 0.94246745 0.94246376
v -0.21512873 1.2676144 -0.41187134
v -0.21512873 0.78343034 1.0782943
v -0.21512873 1.1875772 -0.60509855
v -0.21512873 0.6051028 1.1875738
v -0.21512872 1.0782993 -0.78342605
v -0.21512873 0.41187644 1.2676114
v -0.21512873 0.94246745 -0.9424635
v -0.21512873 0.20850778 1.3164358
v -0.21512872 0.78343034 -1.078294
v -0.21512873 4.7683716E-06 1.3328452
v -0.21512872 0.6051028 -1.1875732
v -0.21512873 -0.20849943 1.3164355
v -0.21512872 0.41187525 -1.2676101
v -0.21512873 -0.4118681 1.267611
v -0.21512872 0.20850778 -1.3164351
v -0.21512873 -0.60509443 1.1875734
v -0.21512872 3.5762787E-06 -1.3328445
v -0.21512873 -0.783422 1.0782943
v -0.21512872 -0.20849943 -1.3164355
v -0.21512872 -0.9424591 0.94246364
v -0.21512872 -0.4118681 -1.2676107
v -0.21512878 -1.0782886 0.7834264
v -0.21512872 -0.6050968 -1.1875734
v -0.21512873 -1.1875701 0.60509896
v -0.21512872 -0.783422 -1.078294
v -0.21512873 -1.2676072 0.4118717
v -0.21512873 -0.9424603 -0.9424638
v -0.21512873 -1.3164294 0.20850292
v -0.21512872 -1.0782897 -0.7834267
v -0.21512873 -1.3328397 6.259705E-08
v -0.21512873 -1.1875701 -0.6050988
v -0.21512873 -1.3164294 -0.20850286
v -0.21512873 -1.2676072 -0.4118716
v 0.21512869 1.1875772 -0.60509855
v 0.21512869 3.5762787E-06 2.8805343E-07
v 0.21512869 1.2676144 -0.41187134
v 0.21512872 1.0782993 -0.78342605
v 0.21512869 1.3164401 -0.20850232
v 0.21512868 0.94246745 -0.9424635
v 0.21512869 1.3328505 2.8962504E-07
v 0.21512869 0.78343034 -1.0782942
v 0.21512869 1.3164401 0.20850313
v 0.21512869 0.6051028 -1.1875732
v 0.21512869 1.2676144 0.4118719
v 0.21512869 0.41187525 -1.2676101
v 0.21512869 1.1875772 0.60509896
v 0.21512869 0.20850778 -1.3164351
v 0.21512868 1.0782993 0.7834267
v 0.21512869 3.5762787E-06 -1.3328446
v 0.21512869 0.94246745 0.94246376
v 0.21512869 -0.20849943 -1.3164355
v 0.21512868 0.78343034 1.0782943
v 0.21512869 -0.4118681 -1.2676107
v 0.21512868 0.6051028 1.1875738
v 0.21512869 -0.6050968 -1.1875734
v 0.21512868 0.41187644 1.2676114
v 0.21512869 -0.7834244 -1.0782942
v 0.21512868 0.20850778 1.3164358
v 0.21512868 -0.9424603 -0.9424638
v 0.21512868 4.7683716E-06 1.3328451
v 0.21512872 -1.0782897 -0.7834267
v 0.21512868 -0.20849943 1.3164355
v 0.21512869 -1.1875701 -0.6050988
v 0.21512868 -0.4118681 1.267611
v 0.21512878 -1.2676072 -0.41187167
v 0.21512868 -0.6050956 1.1875734
v 0.21512878 -1.3164306 -0.20850283
v 0.21512868 -0.783422 1.078294
v 0.21512869 -1.3328409 6.263008E-08
v 0.21512869 -0.9424603 0.94246364
v 0.21512878 -1.3164306 0.20850295
v 0.21512868 -1.0782886 0.7834264
v 0.21512878 -1.2676072 0.41187167
v 0.21512869 -1.1875701 0.60509896
vt 0.65450853 0.97552776
vt 0.5000001 0.49999952
vt 0.5782173 0.99384356
vt 0.7269952 0.94550276
vt 0.5000001 0.9999995
vt 0.7938926 0.9045081
vt 0.42178297 0.99384356
vt 0.8535533 0.85355234
vt 0.34549165 0.97552776
vt 0.9045085 0.7938919
vt 0.273005 0.94550276
vt 0.94550323 0.726995
vt 0.20610762 0.9045081
vt 0.97552824 0.6545081
vt 0.14644682 0.8535528
vt 0.99384415 0.578217
vt 0.09549165 0.7938924
vt 0.9999999 0.49999952
vt 0.054497004 0.72699547
vt 0.99384415 0.42178202
vt 0.024471998 0.6545081
vt 0.97552824 0.34549093
vt 0.0061559677 0.578217
vt 0.9455031 0.27300453
vt 1.1920929E-07 0.5
vt 0.9045084 0.20610714
vt 0.0061559677 0.4217825
vt 0.8535533 0.1464467
vt 0.024471879 0.34549093
vt 0.79389256 0.09549141
vt 0.054496884 0.27300453
vt 0.7269952 0.054496765
vt 0.09549165 0.20610714
vt 0.6545085 0.02447176
vt 0.1464467 0.1464467
vt 0.57821727 0.0061559677
vt 0.20610738 0.09549141
vt 0.50000006 -4.7683716E-07
vt 0.27300477 0.054496765
vt 0.42178285 0.0061559677
vt 0.34549153 0.02447176
vt 0.726995 0.94550276
vt 0.49999988 0.49999952
vt 0.65450835 0.97552776
vt 0.7938924 0.9045081
vt 0.578217 0.99384356
vt 0.8535532 0.8535528
vt 0.49999988 0.9999995
vt 0.90450835 0.7938924
vt 0.42178267 0.99384356
vt 0.945503 0.72699547
vt 0.34549147 0.97552776
vt 0.975528 0.6545081
vt 0.27300477 0.94550276
vt 0.99384403 0.578217
vt 0.20610738 0.9045081
vt 0.9999999 0.5
vt 0.1464467 0.85355234
vt 0.99384403 0.4217825
vt 0.09549153 0.7938919
vt 0.9755281 0.34549093
vt 0.054496765 0.726995
vt 0.9455031 0.27300453
vt 0.02447176 0.6545081
vt 0.90450835 0.20610714
vt 0.0061558485 0.578217
vt 0.8535533 0.1464467
vt 1.1920929E-07 0.49999952
vt 0.7938926 0.09549141
vt 0.0061558485 0.42178202
vt 0.7269952 0.054496765
vt 0.02447176 0.34549093
vt 0.6545085 0.02447176
vt 0.054496884 0.27300453
vt 0.57821715 0.0061559677
vt 0.09549159 0.20610714
vt 0.49999994 -4.7683716E-07
vt 0.1464467 0.1464467
vt 0.42178273 0.0061559677
vt 0.20610744 0.09549141
vt 0.34549153 0.02447176
vt 0.27300477 0.054496765
vn -1 0 0
vn -1 0 0
vn -1 0 0
vn -1 0 0
vn -1 0 0
vn -1 0 0
vn -1 0 0
vn -1 0 0
vn -1 0 0
vn -1 0 0
vn -1 0 0
vn -1 0 0
vn -1 0 0
vn -1 0 0
vn -1 0 0
vn -1 0 0
vn -1 0 0
vn -1 0 0
vn -1 0 0
vn -1 0 0
vn -1 0 0
vn -1 0 0
vn -1 0 0
vn -1 0 0
vn -1 0 0
vn -1 0 0
vn -1 0 0
vn -1 0 0
vn -1 0 0
vn -1 0 0
vn -1 0 0
vn -1 0 0
vn -1 0 0
vn -1 0 0
vn -1 0 0
vn -1 0 0
vn -1 0 0
vn -1 0 0
vn -1 0 0
vn -1 0 0
vn -1 0 0
vn 1 0 0
vn 1 0 0
vn 1 0 0
vn 1 0 0
vn 1 0 0
vn 1 0 0
vn 1 0 0
vn 1 0 0
vn 1 0 0
vn 1 0 0
vn 1 0 0
vn 1 0 0
vn 1 0 0
vn 1 0 0
vn 1 0 0
vn 1 0 0
vn 1 0 0
vn 1 0 0
vn 1 0 0
vn 1 0 0
vn 1 0 0
vn 1 0 0
vn 1 0 0
vn 1 0 0
vn 1 0 0
vn 1 0 0
vn 1 0 0
vn 1 0 0
vn 1 0 0
vn 1 0 0
vn 1 0 0
vn 1 0 0
vn 1 0 0
vn 1 0 0
vn 1 0 0
vn 1 0 0
vn 1 0 0
vn 1 0 0
vn 1 0 0
vn 1 0 0
vn 1 0 0
g pokestop_ia_coin_face_0
f 3/3/3 2/2/2 1/1/1
f 1/1/1 2/2/2 4/4/4
f 5/5/5 2/2/2 3/3/3
f 4/4/4 2/2/2 6/6/6
f 7/7/7 2/2/2 5/5/5
f 6/6/6 2/2/2 8/8/8
f 9/9/9 2/2/2 7/7/7
f 8/8/8 2/2/2 10/10/10
f 11/11/11 2/2/2 9/9/9
f 10/10/10 2/2/2 12/12/12
f 13/13/13 2/2/2 11/11/11
f 12/12/12 2/2/2 14/14/14
f 15/15/15 2/2/2 13/13/13
f 14/14/14 2/2/2 16/16/16
f 17/17/17 2/2/2 15/15/15
f 16/16/16 2/2/2 18/18/18
f 19/19/19 2/2/2 17/17/17
f 18/18/18 2/2/2 20/20/20
f 21/21/21 2/2/2 19/19/19
f 20/20/20 2/2/2 22/22/22
f 23/23/23 2/2/2 21/21/21
f 22/22/22 2/2/2 24/24/24
f 25/25/25 2/2/2 23/23/23
f 24/24/24 2/2/2 26/26/26
f 27/27/27 2/2/2 25/25/25
f 26/26/26 2/2/2 28/28/28
f 29/29/29 2/2/2 27/27/27
f 28/28/28 2/2/2 30/30/30
f 31/31/31 2/2/2 29/29/29
f 30/30/30 2/2/2 32/32/32
f 33/33/33 2/2/2 31/31/31
f 32/32/32 2/2/2 34/34/34
f 35/35/35 2/2/2 33/33/33
f 34/34/34 2/2/2 36/36/36
f 37/37/37 2/2/2 35/35/35
f 36/36/36 2/2/2 38/38/38
f 39/39/39 2/2/2 37/37/37
f 38/38/38 2/2/2 40/40/40
f 41/41/41 2/2/2 39/39/39
f 40/40/40 2/2/2 41/41/41
f 44/44/44 43/43/43 42/42/42
f 42/42/42 43/43/43 45/45/45
f 46/46/46 43/43/43 44/44/44
f 45/45/45 43/43/43 47/47/47
f 48/48/48 43/43/43 46/46/46
f 47/47/47 43/43/43 49/49/49
f 50/50/50 43/43/43 48/48/48
f 49/49/49 43/43/43 51/51/51
f 52/52/52 43/43/43 50/50/50
f 51/51/51 43/43/43 53/53/53
f 54/54/54 43/43/43 52/52/52
f 53/53/53 43/43/43 55/55/55
f 56/56/56 43/43/43 54/54/54
f 55/55/55 43/43/43 57/57/57
f 58/58/58 43/43/43 56/56/56
f 57/57/57 43/43/43 59/59/59
f 60/60/60 43/43/43 58/58/58
f 59/59/59 43/43/43 61/61/61
f 62/62/62 43/43/43 60/60/60
f 61/61/61 43/43/43 63/63/63
f 64/64/64 43/43/43 62/62/62
f 63/63/63 43/43/43 65/65/65
f 66/66/66 43/43/43 64/64/64
f 65/65/65 43/43/43 67/67/67
f 68/68/68 43/43/43 66/66/66
f 67/67/67 43/43/43 69/69/69
f 70/70/70 43/43/43 68/68/68
f 69/69/69 43/43/43 71/71/71
f 72/72/72 43/43/43 70/70/70
f 71/71/71 43/43/43 73/73/73
f 74/74/74 43/43/43 72/72/72
f 73/73/73 43/43/43 75/75/75
f 76/76/76 43/43/43 74/74/74
f 75/75/75 43/43/43 77/77/77
f 78/78/78 43/43/43 76/76/76
f 77/77/77 43/43/43 79/79/79
f 80/80/80 43/43/43 78/78/78
f 79/79/79 43/43/43 81/81/81
f 82/82/82 43/43/43 80/80/80
f 81/81/81 43/43/43 82/82/82
