g Purify_Background_Geo
v 8.627853 0.466878 -6.268503
v 10.66461 -10.66461 0
v 8.627853 -10.66461 -6.268503
v 10.66461 0.466878 0
v 3.295547 -10.66461 -10.14265
v 9.281633 5.516195 -2.472948E-07
v 3.295547 0.466878 -10.14265
v -3.295547 -10.66461 -10.14265
v 7.509004 5.516195 -5.455611
v 6.085314 8.713386 -8.188414E-07
v -3.295547 0.466878 -10.14265
v -8.627851 -10.66461 -6.268501
v 2.868184 5.516195 -8.827363
v 4.923125 8.713386 -3.576861
v -8.627851 0.466878 -6.268501
v -10.66461 -10.66461 0
v -10.66461 0.466878 0
v 1.694405 9.844018 -1.231061
v 2.0944 9.844018 -1.514063E-06
v -1.556516E-06 9.996879 -1.863014E-06
v -2.868184 5.516195 -8.827362
v -7.509001 5.516195 -5.455609
v -9.281636 5.516195 -2.472948E-07
v 1.880466 8.713386 -5.78748
v -4.923125 8.713386 -3.576859
v -6.085317 8.713386 -8.188414E-07
v -1.880467 8.713386 -5.787478
v 0.6472051 9.844018 -1.991896
v -0.6472073 9.844018 -1.991895
v -1.694407 9.844018 -1.231061
v -2.094404 9.844018 -1.514063E-06
vt 0.0387727 0.08896388
vt 0.04157787 0.01624082
vt 0.03940913 0.01624158
vt 0.0408632 0.08896388
vt 0.0368484 0.01624082
vt 0.04068011 0.1939108
vt 0.03658894 0.08896388
vt 0.03413855 0.01624158
vt 0.03863773 0.1939108
vt 0.04057463 0.2562352
vt 0.0343715 0.08896388
vt 0.03156734 0.01624082
vt 0.03655665 0.1939108
vt 0.03856292 0.2562352
vt 0.03219935 0.08896388
vt 0.0293774 0.01624082
vt 0.03013138 0.08896388
vt 0.03855157 0.2998952
vt 0.04056571 0.2998952
vt 0.03352781 0.3112584
vt 0.0344622 0.1939108
vt 0.0323903 0.1939108
vt 0.03036536 0.1939108
vt 0.03653925 0.2562352
vt 0.03249355 0.2562352
vt 0.03049166 0.2562352
vt 0.03451174 0.2562352
vt 0.03654199 0.2998952
vt 0.03453479 0.2998952
vt 0.0325293 0.2998949
vt 0.03052286 0.2998952
vn -0.8086486 -0.03017431 0.5875176
vn -1 0 -7.720383E-07
vn -0.8090169 0 0.5877853
vn -0.9995446 -0.03017428 -7.59022E-07
vn -0.3090168 0 0.9510565
vn -0.890512 -0.4549598 -6.292979E-07
vn -0.308876 -0.03017432 0.9506235
vn 0.3090172 0 0.9510565
vn -0.7204393 -0.4549598 0.5234299
vn -0.5123068 -0.8588026 -3.902973E-07
vn 0.3088765 -0.03017429 0.9506234
vn 0.8090171 0 0.5877851
vn -0.2751832 -0.4549597 0.8469273
vn -0.4144648 -0.8588026 0.3011262
vn 0.8086488 -0.03017429 0.5875174
vn 1 0 0
vn 0.9995446 -0.0301742 0
vn -0.1241494 -0.9881554 0.09019986
vn -0.1534571 -0.9881554 0
vn -0.06305341 -0.9969581 0.04581198
vn 0.2751834 -0.4549598 0.8469272
vn 0.7204396 -0.4549596 0.5234297
vn 0.890512 -0.4549596 0
vn -0.1583113 -0.8588026 0.4872327
vn 0.4144651 -0.8588026 0.3011262
vn 0.5123069 -0.8588024 0
vn 0.1583116 -0.8588026 0.4872327
vn -0.04742092 -0.9881554 0.1459465
vn 0.04742102 -0.9881554 0.1459463
vn 0.1241495 -0.9881552 0.09020001
vn 0.1534572 -0.9881552 0
g Purify_Background_Geo_0
f 3/3/3 2/2/2 1/1/1
f 2/2/2 4/4/4 1/1/1
f 3/3/3 1/1/1 5/5/5
f 4/4/4 6/6/6 1/1/1
f 1/1/1 7/7/7 5/5/5
f 5/5/5 7/7/7 8/8/8
f 6/6/6 9/9/9 1/1/1
f 1/1/1 9/9/9 7/7/7
f 6/6/6 10/10/10 9/9/9
f 7/7/7 11/11/11 8/8/8
f 8/8/8 11/11/11 12/12/12
f 9/9/9 13/13/13 7/7/7
f 7/7/7 13/13/13 11/11/11
f 10/10/10 14/14/14 9/9/9
f 9/9/9 14/14/14 13/13/13
f 11/11/11 15/15/15 12/12/12
f 12/12/12 15/15/15 16/16/16
f 15/15/15 17/17/17 16/16/16
f 14/14/14 10/10/10 18/18/18
f 10/10/10 19/19/19 18/18/18
f 18/18/18 19/19/19 20/20/20
f 13/13/13 21/21/21 11/11/11
f 11/11/11 21/21/21 15/15/15
f 15/15/15 22/22/22 17/17/17
f 21/21/21 22/22/22 15/15/15
f 22/22/22 23/23/23 17/17/17
f 14/14/14 24/24/24 13/13/13
f 14/14/14 18/18/18 24/24/24
f 13/13/13 24/24/24 21/21/21
f 22/22/22 25/25/25 23/23/23
f 25/25/25 26/26/26 23/23/23
f 21/21/21 27/27/27 22/22/22
f 24/24/24 27/27/27 21/21/21
f 27/27/27 25/25/25 22/22/22
f 18/18/18 28/28/28 24/24/24
f 24/24/24 28/28/28 27/27/27
f 18/18/18 20/20/20 28/28/28
f 28/28/28 29/29/29 27/27/27
f 27/27/27 29/29/29 25/25/25
f 28/28/28 20/20/20 29/29/29
f 25/25/25 30/30/30 26/26/26
f 29/29/29 30/30/30 25/25/25
f 29/29/29 20/20/20 30/30/30
f 30/30/30 31/31/31 26/26/26
f 30/30/30 20/20/20 31/31/31
