g Purify_LowerRing_Geo
v -1.254 -1.5294704 -2.6039574
v -1.8019946 -1.2809793 -2.2596295
v -1.8019946 -1.5294704 -2.2596295
v -1.254 -1.2809793 -2.6039574
v -0.6431243 -1.5294704 -2.8177125
v -0.6431243 -1.2809793 -2.8177125
v 1.2920094E-07 -1.5294704 -2.890175
v 1.2920094E-07 -1.2809793 -2.890175
v 0.6431247 -1.5294704 -2.8177123
v 0.6431247 -1.2809793 -2.8177123
v 1.254 -1.5294704 -2.6039574
v 1.254 -1.2809793 -2.6039574
v 1.8019946 -1.5294704 -2.2596295
v 1.8019946 -1.2809793 -2.2596295
v 2.2596295 -1.5294704 -1.8019946
v 2.2596295 -1.2809793 -1.8019946
v 2.6039574 -1.5294704 -1.254
v 2.6039574 -1.2809793 -1.254
v 2.8177125 -1.5294704 -0.6431243
v 2.8177125 -1.2809793 -0.6431243
v 2.890176 -1.5294704 0
v 2.890176 -1.2809793 0
v 2.8177135 -1.5294704 0.64312476
v 2.8177135 -1.2809793 0.64312476
v 2.6039586 -1.5294704 1.2540005
v 2.6039586 -1.2809793 1.2540005
v 2.2596307 -1.5294704 1.8019952
v 2.2596307 -1.2809793 1.8019952
v 1.8019952 -1.5294704 2.25963
v 1.8019952 -1.2809793 2.25963
v -1.8019946 -1.5294704 -2.2596295
v -1.8019946 -1.2809793 -2.2596295
v -2.2596295 -1.2809793 -1.8019946
v -2.2596295 -1.5294704 -1.8019946
v -2.6039574 -1.2809793 -1.254
v -2.6039574 -1.5294704 -1.254
v -2.8177125 -1.2809793 -0.6431247
v -2.8177125 -1.5294704 -0.6431247
v -2.8901753 -1.2809793 -1.2920094E-07
v -2.8901753 -1.5294704 -1.2920094E-07
v -2.817713 -1.2809793 0.6431243
v -2.817713 -1.5294704 0.6431243
v -2.6039581 -1.2809793 1.254
v -2.6039581 -1.5294704 1.254
v -2.25963 -1.2809793 1.8019946
v -2.25963 -1.5294704 1.8019946
v -1.8019952 -1.2809793 2.25963
v -1.8019952 -1.5294704 2.25963
v -1.2540002 -1.2809793 2.6039581
v -1.2540002 -1.5294704 2.6039581
v -0.6431247 -1.2809793 2.817713
v -0.6431247 -1.5294704 2.817713
v -4.306698E-08 -1.2809793 2.8901758
v -4.306698E-08 -1.5294704 2.8901758
v 0.6431247 -1.2809793 2.8177135
v 0.6431247 -1.5294704 2.8177135
v 1.2540002 -1.2809793 2.6039586
v 1.2540002 -1.5294704 2.6039586
v 1.8019952 -1.2809793 2.25963
v 1.8019952 -1.5294704 2.25963
v -1.1206354 -1.2809793 -2.327023
v -1.61035 -1.5294702 -2.0193148
v -1.61035 -1.2809793 -2.0193148
v -1.1206354 -1.5294702 -2.327023
v -0.5747272 -1.2809793 -2.518045
v -0.5747272 -1.5294702 -2.518045
v 1.6126256E-07 -1.2809793 -2.5828009
v 1.6126256E-07 -1.5294702 -2.5828009
v 0.5747274 -1.2809793 -2.5180445
v 0.5747274 -1.5294702 -2.5180445
v 1.1206354 -1.2809793 -2.327023
v 1.1206354 -1.5294702 -2.327023
v 1.61035 -1.2809793 -2.0193148
v 1.61035 -1.5294702 -2.0193148
v 2.0193148 -1.2809793 -1.61035
v 2.0193148 -1.5294702 -1.61035
v 2.327023 -1.2809793 -1.1206354
v 2.327023 -1.5294702 -1.1206354
v 2.518045 -1.2809793 -0.5747272
v 2.518045 -1.5294702 -0.5747272
v 2.5828018 -1.2809793 3.6641865E-08
v 2.5828018 -1.5294702 3.6641865E-08
v 2.5180457 -1.2809793 0.5747276
v 2.5180457 -1.5294702 0.5747276
v 2.327024 -1.2809793 1.1206359
v 2.327024 -1.5294702 1.1206359
v 2.019316 -1.2809793 1.6103506
v 2.019316 -1.5294702 1.6103506
v 1.6103506 -1.2809793 2.0193155
v 1.6103506 -1.5294702 2.0193155
v -1.61035 -1.2809793 -2.0193148
v -1.61035 -1.5294702 -2.0193148
v -2.0193148 -1.5294702 -1.61035
v -2.0193148 -1.2809793 -1.61035
v -2.3270228 -1.5294702 -1.1206354
v -2.3270228 -1.2809793 -1.1206354
v -2.518045 -1.5294702 -0.5747274
v -2.518045 -1.2809793 -0.5747274
v -2.5828009 -1.5294702 -7.8818374E-08
v -2.5828009 -1.2809793 -7.8818374E-08
v -2.5180452 -1.5294702 0.57472724
v -2.5180452 -1.2809793 0.57472724
v -2.327023 -1.5294702 1.1206354
v -2.327023 -1.2809793 1.1206354
v -2.0193155 -1.5294702 1.61035
v -2.0193155 -1.2809793 1.61035
v -1.6103503 -1.5294702 2.0193155
v -1.6103503 -1.2809793 2.0193155
v -1.1206357 -1.5294702 2.3270235
v -1.1206357 -1.2809793 2.3270235
v -0.5747274 -1.5294702 2.5180452
v -0.5747274 -1.2809793 2.5180452
v 7.3155886E-09 -1.5294702 2.5828013
v 7.3155886E-09 -1.2809793 2.5828013
v 0.5747274 -1.5294702 2.5180457
v 0.5747274 -1.2809793 2.5180457
v 1.1206357 -1.5294702 2.327024
v 1.1206357 -1.2809793 2.327024
v 1.6103506 -1.5294702 2.0193155
v 1.6103506 -1.2809793 2.0193155
v 2.8177135 -1.2809793 0.64312476
v 2.5828018 -1.2809793 3.6641865E-08
v 2.890176 -1.2809793 0
v 2.5180457 -1.2809793 0.5747276
v 2.518045 -1.2809793 -0.5747272
v 2.6039586 -1.2809793 1.2540005
v 2.8177125 -1.2809793 -0.6431243
v 2.327024 -1.2809793 1.1206359
v 2.327023 -1.2809793 -1.1206354
v 2.2596307 -1.2809793 1.8019952
v 2.6039574 -1.2809793 -1.254
v 2.019316 -1.2809793 1.6103506
v 2.0193148 -1.2809793 -1.61035
v 1.8019952 -1.2809793 2.25963
v 2.2596295 -1.2809793 -1.8019946
v 1.6103506 -1.2809793 2.0193155
v 1.61035 -1.2809793 -2.0193148
v 1.2540002 -1.2809793 2.6039586
v 1.8019946 -1.2809793 -2.2596295
v 1.1206357 -1.2809793 2.327024
v 1.1206354 -1.2809793 -2.327023
v 0.6431247 -1.2809793 2.8177135
v 1.254 -1.2809793 -2.6039574
v 0.5747274 -1.2809793 2.5180457
v 0.5747274 -1.2809793 -2.5180445
v -4.306698E-08 -1.2809793 2.8901758
v 0.6431247 -1.2809793 -2.8177123
v 7.3155886E-09 -1.2809793 2.5828013
v 1.6126256E-07 -1.2809793 -2.5828009
v -0.6431247 -1.2809793 2.817713
v 1.2920094E-07 -1.2809793 -2.890175
v -0.5747274 -1.2809793 2.5180452
v -0.5747272 -1.2809793 -2.518045
v -1.2540002 -1.2809793 2.6039581
v -0.6431243 -1.2809793 -2.8177125
v -1.1206357 -1.2809793 2.3270235
v -1.1206354 -1.2809793 -2.327023
v -1.8019952 -1.2809793 2.25963
v -1.254 -1.2809793 -2.6039574
v -1.6103503 -1.2809793 2.0193155
v -1.61035 -1.2809793 -2.0193148
v -2.25963 -1.2809793 1.8019946
v -1.8019946 -1.2809793 -2.2596295
v -2.0193155 -1.2809793 1.61035
v -2.0193148 -1.2809793 -1.61035
v -2.6039581 -1.2809793 1.254
v -2.2596295 -1.2809793 -1.8019946
v -2.327023 -1.2809793 1.1206354
v -2.3270228 -1.2809793 -1.1206354
v -2.817713 -1.2809793 0.6431243
v -2.6039574 -1.2809793 -1.254
v -2.5180452 -1.2809793 0.57472724
v -2.518045 -1.2809793 -0.5747274
v -2.8901753 -1.2809793 -1.2920094E-07
v -2.8177125 -1.2809793 -0.6431247
v -2.5828009 -1.2809793 -7.8818374E-08
vt 0.18910795 0.0152131375
vt 0.18957031 0.16270605
vt 0.18957072 0.0152131375
vt 0.18910748 0.16270605
vt 0.18796253 0.0152131375
vt 0.18796217 0.16270605
vt 0.18618071 0.0152131375
vt 0.18618047 0.16270608
vt 0.1838463 0.0152131375
vt 0.18384606 0.16270608
vt 0.18107772 0.0152131375
vt 0.18107754 0.16270605
vt 0.17802209 0.0152131375
vt 0.17802212 0.16270605
vt 0.1748462 0.0152131375
vt 0.17484638 0.16270602
vt 0.17172521 0.0152131375
vt 0.17172553 0.16270605
vt 0.16883057 0.0152131375
vt 0.16883102 0.16270603
vt 0.16631809 0.0152131375
vt 0.16631863 0.16270605
vt 0.16431804 0.0152131375
vt 0.16431868 0.16270605
vt 0.16292796 0.0152131375
vt 0.16292867 0.16270605
vt 0.16220829 0.0152131375
vt 0.16220899 0.16270603
vt 0.16218154 0.0152131375
vt 0.16218224 0.16270605
vt 0.18957072 0.0152131375
vt 0.18957031 0.16270605
vt 0.18934178 0.16270605
vt 0.18934232 0.0152131375
vt 0.18844831 0.16270602
vt 0.18844879 0.0152131375
vt 0.18694669 0.16270608
vt 0.18694705 0.0152131375
vt 0.1849196 0.16270605
vt 0.1849199 0.0152131375
vt 0.1824699 0.16270602
vt 0.18247008 0.0152131375
vt 0.17971554 0.16270603
vt 0.1797156 0.0152131375
vt 0.1767846 0.16270605
vt 0.17678455 0.0152131375
vt 0.17381081 0.16270603
vt 0.17381063 0.0152131375
vt 0.17092924 0.16270602
vt 0.17092891 0.0152131375
vt 0.16827224 0.16270605
vt 0.16827177 0.0152131375
vt 0.16596486 0.16270605
vt 0.16596429 0.0152131375
vt 0.16412027 0.16270603
vt 0.16411963 0.0152131375
vt 0.16283475 0.16270608
vt 0.16283408 0.0152131375
vt 0.16218224 0.16270605
vt 0.16218154 0.0152131375
vt 0.18768531 0.16270608
vt 0.1881085 0.0152131375
vt 0.18810809 0.16270608
vt 0.18768567 0.0152131375
vt 0.1866548 0.16270608
vt 0.18665504 0.0152131375
vt 0.18505913 0.16270608
vt 0.18505943 0.0152131375
vt 0.18297428 0.16270605
vt 0.18297446 0.0152131375
vt 0.18050572 0.16270605
vt 0.18050578 0.0152131375
vt 0.17778388 0.16270603
vt 0.17778385 0.0152131375
vt 0.17495611 0.16270605
vt 0.1749559 0.0152131375
vt 0.17217672 0.16270608
vt 0.17217644 0.0152131375
vt 0.169597 0.16270605
vt 0.16959661 0.0152131375
vt 0.16735478 0.16270603
vt 0.16735427 0.0152131375
vt 0.16556597 0.16270605
vt 0.1655654 0.0152131375
vt 0.16431807 0.16270602
vt 0.16431746 0.0152131375
vt 0.1636664 0.16270603
vt 0.16366574 0.0152131375
vt 0.16363284 0.16270603
vt 0.16363221 0.015213145
vt 0.18810809 0.16270608
vt 0.1881085 0.0152131375
vt 0.1879139 0.0152131375
vt 0.18791348 0.16270605
vt 0.1871233 0.0152131375
vt 0.187123 0.16270603
vt 0.1857863 0.0152131375
vt 0.18578601 0.16270603
vt 0.18397576 0.0152131375
vt 0.18397552 0.16270603
vt 0.18178344 0.0152131375
vt 0.18178332 0.16270605
vt 0.1793156 0.0152131375
vt 0.1793156 0.16270605
vt 0.17668775 0.0152131375
vt 0.1766878 0.16270603
vt 0.17402107 0.0152131375
vt 0.17402121 0.16270605
vt 0.17143802 0.0152131375
vt 0.17143834 0.16270605
vt 0.16905838 0.0152131375
vt 0.16905877 0.16270605
vt 0.16699487 0.0152131375
vt 0.16699538 0.16270605
vt 0.16534904 0.0152131375
vt 0.16534963 0.16270602
vt 0.16420652 0.0152131375
vt 0.16420716 0.16270603
vt 0.16363221 0.015213145
vt 0.16363284 0.16270603
vt 0.16140556 0.25425246
vt 0.16124612 0.2544551
vt 0.16138816 0.25445545
vt 0.16125661 0.25427446
vt 0.16117847 0.25462377
vt 0.16135103 0.2540441
vt 0.16130757 0.25464344
vt 0.16120315 0.25409055
vt 0.161062 0.25477397
vt 0.16121948 0.25384265
vt 0.16117388 0.25480962
vt 0.16108233 0.25391427
vt 0.16090578 0.25490108
vt 0.1610114 0.25366268
vt 0.16099763 0.25494933
vt 0.16089559 0.25375798
vt 0.16071868 0.25500208
vt 0.16073483 0.2535194
vt 0.16078866 0.2550598
vt 0.16065067 0.25363433
vt 0.16050911 0.25507513
vt 0.16040614 0.25342646
vt 0.16055626 0.25513935
vt 0.16036192 0.25355458
vt 0.16028485 0.25511912
vt 0.16004929 0.25339365
vt 0.16030863 0.25518715
vt 0.16004962 0.25352645
vt 0.1600534 0.25513354
vt 0.15969251 0.2534245
vt 0.16005355 0.2552028
vt 0.1597374 0.25355288
vt 0.15982181 0.2551182
vt 0.159364 0.25351566
vt 0.15979834 0.25518614
vt 0.1594488 0.25363117
vt 0.15959726 0.25507328
vt 0.15908769 0.25365758
vt 0.15955035 0.25513735
vt 0.15920413 0.25375357
vt 0.15938713 0.25499937
vt 0.15888005 0.25383666
vt 0.1593173 0.25505683
vt 0.15901779 0.25390905
vt 0.1591993 0.2548975
vt 0.15874916 0.25403765
vt 0.15910755 0.25494543
vt 0.15889758 0.2540849
vt 0.15904222 0.25476965
vt 0.1586955 0.254246
vt 0.1589303 0.25480482
vt 0.15884489 0.25426874
vt 0.15892483 0.25461876
vt 0.15871386 0.2544493
vt 0.15879554 0.2546379
vt 0.15885623 0.2544496
vn -0.43388394 0 -0.90096873
vn -0.62348974 0 -0.7818315
vn -0.62348974 0 -0.7818315
vn -0.43388394 0 -0.90096873
vn -0.2225212 0 -0.9749279
vn -0.2225212 0 -0.9749279
vn 2.0929586E-07 0 -1
vn 2.0929586E-07 0 -1
vn 0.2225213 0 -0.9749278
vn 0.2225213 0 -0.9749278
vn 0.43388402 0 -0.90096873
vn 0.43388402 0 -0.90096873
vn 0.62348974 0 -0.7818315
vn 0.62348974 0 -0.7818315
vn 0.7818317 0 -0.6234897
vn 0.7818317 0 -0.6234897
vn 0.90096873 0 -0.43388397
vn 0.90096873 0 -0.43388397
vn 0.97492766 0 -0.22252181
vn 0.97492766 0 -0.22252181
vn 1 0 -6.3643023E-07
vn 1 0 -6.3643023E-07
vn 0.9749279 0 0.22252102
vn 0.9749279 0 0.22252102
vn 0.9009688 0 0.43388376
vn 0.9009688 0 0.43388376
vn 0.78183144 0 0.6234899
vn 0.78183144 0 0.6234899
vn 0.6234897 0 0.78183156
vn 0.6234897 0 0.78183156
vn -0.62348974 0 -0.7818315
vn -0.62348974 0 -0.7818315
vn -0.7818317 0 -0.6234897
vn -0.7818317 0 -0.6234897
vn -0.90096873 0 -0.43388402
vn -0.90096873 0 -0.43388402
vn -0.9749278 0 -0.22252141
vn -0.9749278 0 -0.22252141
vn -1 0 -1.0251226E-07
vn -1 0 -1.0251226E-07
vn -0.9749279 0 0.222521
vn -0.9749279 0 0.222521
vn -0.9009689 0 0.43388367
vn -0.9009689 0 0.43388367
vn -0.78183174 0 0.62348944
vn -0.78183174 0 0.62348944
vn -0.6234899 0 0.78183144
vn -0.6234899 0 0.78183144
vn -0.4338839 0 0.9009688
vn -0.4338839 0 0.9009688
vn -0.2225212 0 0.9749279
vn -0.2225212 0 0.9749279
vn -2.1783846E-07 0 1
vn -2.1783846E-07 0 1
vn 0.2225207 0 0.97492796
vn 0.2225207 0 0.97492796
vn 0.4338841 0 0.90096873
vn 0.4338841 0 0.90096873
vn 0.6234897 0 0.78183156
vn 0.6234897 0 0.78183156
vn 0.43388402 0 0.90096873
vn 0.62348986 0 0.78183144
vn 0.62348986 0 0.78183144
vn 0.43388402 0 0.90096873
vn 0.22252093 0 0.9749279
vn 0.22252093 0 0.9749279
vn -2.437632E-07 0 1
vn -2.437632E-07 0 1
vn -0.22252095 0 0.9749279
vn -0.22252095 0 0.9749279
vn -0.4338839 0 0.9009688
vn -0.4338839 0 0.9009688
vn -0.62349004 0 0.78183126
vn -0.62349004 0 0.78183126
vn -0.78183144 0 0.6234899
vn -0.78183144 0 0.6234899
vn -0.90096873 0 0.43388402
vn -0.90096873 0 0.43388402
vn -0.9749278 0 0.22252166
vn -0.9749278 0 0.22252166
vn -1 0 5.8789965E-07
vn -1 0 5.8789965E-07
vn -0.9749279 0 -0.22252075
vn -0.9749279 0 -0.22252075
vn -0.9009689 0 -0.43388355
vn -0.9009689 0 -0.43388355
vn -0.78183144 0 -0.62348986
vn -0.78183144 0 -0.62348986
vn -0.6234897 0 -0.7818317
vn -0.6234897 0 -0.7818317
vn 0.62348986 0 0.78183144
vn 0.62348986 0 0.78183144
vn 0.7818315 0 0.62348974
vn 0.7818315 0 0.62348974
vn 0.90096873 0 0.43388394
vn 0.90096873 0 0.43388394
vn 0.9749279 0 0.22252119
vn 0.9749279 0 0.22252119
vn 1 0 1.194918E-07
vn 1 0 1.194918E-07
vn 0.9749279 0 -0.22252105
vn 0.9749279 0 -0.22252105
vn 0.9009689 0 -0.4338837
vn 0.9009689 0 -0.4338837
vn 0.7818318 0 -0.6234893
vn 0.7818318 0 -0.6234893
vn 0.62349 0 -0.7818314
vn 0.62349 0 -0.7818314
vn 0.4338837 0 -0.9009688
vn 0.4338837 0 -0.9009688
vn 0.22252117 0 -0.9749279
vn 0.22252117 0 -0.9749279
vn 2.437632E-07 0 -1
vn 2.437632E-07 0 -1
vn -0.22252083 0 -0.9749279
vn -0.22252083 0 -0.9749279
vn -0.43388364 0 -0.9009689
vn -0.43388364 0 -0.9009689
vn -0.6234897 0 -0.7818317
vn -0.6234897 0 -0.7818317
vn -0 1 0
vn -0 1 0
vn -0 1 0
vn -0 1 0
vn -0 1 -1.833194E-07
vn -0 1 0
vn -0 1 -1.8331916E-07
vn -0 1 0
vn -0 1 -3.6663891E-07
vn -0 1 0
vn -0 1 -3.6663894E-07
vn -0 1 0
vn -0 1 0
vn -0 1 0
vn -0 1 0
vn -0 1 0
vn -0 1 3.666391E-07
vn -0 1 1.374896E-07
vn -0 1 3.666391E-07
vn -0 1 1.3748955E-07
vn -0 1 0
vn -0 1 -1.6262102E-07
vn -0 1 0
vn -0 1 -1.6262102E-07
vn -0 1 1.3748958E-07
vn -0 1 -1.1679119E-07
vn -0 1 1.3748975E-07
vn -0 1 -1.1679121E-07
vn -0 1 4.964683E-07
vn -0 1 0
vn -0 1 4.964681E-07
vn -0 1 0
vn -0 1 2.2148915E-07
vn -0 1 -4.582986E-07
vn -0 1 2.2148917E-07
vn -0 1 -4.582986E-07
vn -0 1 0
vn -0 1 -1.8331919E-07
vn -0 1 0
vn -0 1 -1.8331966E-07
vn -0 1 0
vn -0 1 0
vn -0 1 0
vn -0 1 0
vn -0 1 0
vn -0 1 -1.8331922E-07
vn -0 1 0
vn -0 1 -1.8331939E-07
vn -0 1 0
vn -0 1 0
vn -0 1 0
vn -0 1 0
vn -0 1 1.8331936E-07
vn -0 1 1.8331929E-07
vn -0 1 1.8331943E-07
vn -0 1 1.8331926E-07
g Purify_LowerRing_Geo_0
f 3/3/3 2/2/2 1/1/1
f 2/2/2 4/4/4 1/1/1
f 1/1/1 4/4/4 5/5/5
f 4/4/4 6/6/6 5/5/5
f 5/5/5 6/6/6 7/7/7
f 6/6/6 8/8/8 7/7/7
f 7/7/7 8/8/8 9/9/9
f 8/8/8 10/10/10 9/9/9
f 9/9/9 10/10/10 11/11/11
f 10/10/10 12/12/12 11/11/11
f 11/11/11 12/12/12 13/13/13
f 12/12/12 14/14/14 13/13/13
f 13/13/13 14/14/14 15/15/15
f 14/14/14 16/16/16 15/15/15
f 15/15/15 16/16/16 17/17/17
f 16/16/16 18/18/18 17/17/17
f 17/17/17 18/18/18 19/19/19
f 18/18/18 20/20/20 19/19/19
f 19/19/19 20/20/20 21/21/21
f 20/20/20 22/22/22 21/21/21
f 21/21/21 22/22/22 23/23/23
f 22/22/22 24/24/24 23/23/23
f 23/23/23 24/24/24 25/25/25
f 24/24/24 26/26/26 25/25/25
f 25/25/25 26/26/26 27/27/27
f 26/26/26 28/28/28 27/27/27
f 27/27/27 28/28/28 29/29/29
f 28/28/28 30/30/30 29/29/29
f 33/33/33 32/32/32 31/31/31
f 34/34/34 33/33/33 31/31/31
f 35/35/35 33/33/33 34/34/34
f 36/36/36 35/35/35 34/34/34
f 37/37/37 35/35/35 36/36/36
f 38/38/38 37/37/37 36/36/36
f 39/39/39 37/37/37 38/38/38
f 40/40/40 39/39/39 38/38/38
f 41/41/41 39/39/39 40/40/40
f 42/42/42 41/41/41 40/40/40
f 43/43/43 41/41/41 42/42/42
f 44/44/44 43/43/43 42/42/42
f 45/45/45 43/43/43 44/44/44
f 46/46/46 45/45/45 44/44/44
f 47/47/47 45/45/45 46/46/46
f 48/48/48 47/47/47 46/46/46
f 49/49/49 47/47/47 48/48/48
f 50/50/50 49/49/49 48/48/48
f 51/51/51 49/49/49 50/50/50
f 52/52/52 51/51/51 50/50/50
f 53/53/53 51/51/51 52/52/52
f 54/54/54 53/53/53 52/52/52
f 55/55/55 53/53/53 54/54/54
f 56/56/56 55/55/55 54/54/54
f 57/57/57 55/55/55 56/56/56
f 58/58/58 57/57/57 56/56/56
f 59/59/59 57/57/57 58/58/58
f 60/60/60 59/59/59 58/58/58
f 63/63/63 62/62/62 61/61/61
f 62/62/62 64/64/64 61/61/61
f 61/61/61 64/64/64 65/65/65
f 64/64/64 66/66/66 65/65/65
f 65/65/65 66/66/66 67/67/67
f 66/66/66 68/68/68 67/67/67
f 67/67/67 68/68/68 69/69/69
f 68/68/68 70/70/70 69/69/69
f 69/69/69 70/70/70 71/71/71
f 70/70/70 72/72/72 71/71/71
f 71/71/71 72/72/72 73/73/73
f 72/72/72 74/74/74 73/73/73
f 73/73/73 74/74/74 75/75/75
f 74/74/74 76/76/76 75/75/75
f 75/75/75 76/76/76 77/77/77
f 76/76/76 78/78/78 77/77/77
f 77/77/77 78/78/78 79/79/79
f 78/78/78 80/80/80 79/79/79
f 79/79/79 80/80/80 81/81/81
f 80/80/80 82/82/82 81/81/81
f 81/81/81 82/82/82 83/83/83
f 82/82/82 84/84/84 83/83/83
f 83/83/83 84/84/84 85/85/85
f 84/84/84 86/86/86 85/85/85
f 85/85/85 86/86/86 87/87/87
f 86/86/86 88/88/88 87/87/87
f 87/87/87 88/88/88 89/89/89
f 88/88/88 90/90/90 89/89/89
f 93/93/93 92/92/92 91/91/91
f 94/94/94 93/93/93 91/91/91
f 95/95/95 93/93/93 94/94/94
f 96/96/96 95/95/95 94/94/94
f 97/97/97 95/95/95 96/96/96
f 98/98/98 97/97/97 96/96/96
f 99/99/99 97/97/97 98/98/98
f 100/100/100 99/99/99 98/98/98
f 101/101/101 99/99/99 100/100/100
f 102/102/102 101/101/101 100/100/100
f 103/103/103 101/101/101 102/102/102
f 104/104/104 103/103/103 102/102/102
f 105/105/105 103/103/103 104/104/104
f 106/106/106 105/105/105 104/104/104
f 107/107/107 105/105/105 106/106/106
f 108/108/108 107/107/107 106/106/106
f 109/109/109 107/107/107 108/108/108
f 110/110/110 109/109/109 108/108/108
f 111/111/111 109/109/109 110/110/110
f 112/112/112 111/111/111 110/110/110
f 113/113/113 111/111/111 112/112/112
f 114/114/114 113/113/113 112/112/112
f 115/115/115 113/113/113 114/114/114
f 116/116/116 115/115/115 114/114/114
f 117/117/117 115/115/115 116/116/116
f 118/118/118 117/117/117 116/116/116
f 119/119/119 117/117/117 118/118/118
f 120/120/120 119/119/119 118/118/118
f 123/123/123 122/122/122 121/121/121
f 122/122/122 124/124/124 121/121/121
f 125/125/125 122/122/122 123/123/123
f 121/121/121 124/124/124 126/126/126
f 127/127/127 125/125/125 123/123/123
f 124/124/124 128/128/128 126/126/126
f 129/129/129 125/125/125 127/127/127
f 126/126/126 128/128/128 130/130/130
f 131/131/131 129/129/129 127/127/127
f 128/128/128 132/132/132 130/130/130
f 133/133/133 129/129/129 131/131/131
f 130/130/130 132/132/132 134/134/134
f 135/135/135 133/133/133 131/131/131
f 132/132/132 136/136/136 134/134/134
f 137/137/137 133/133/133 135/135/135
f 134/134/134 136/136/136 138/138/138
f 139/139/139 137/137/137 135/135/135
f 136/136/136 140/140/140 138/138/138
f 141/141/141 137/137/137 139/139/139
f 138/138/138 140/140/140 142/142/142
f 143/143/143 141/141/141 139/139/139
f 140/140/140 144/144/144 142/142/142
f 145/145/145 141/141/141 143/143/143
f 142/142/142 144/144/144 146/146/146
f 147/147/147 145/145/145 143/143/143
f 144/144/144 148/148/148 146/146/146
f 149/149/149 145/145/145 147/147/147
f 146/146/146 148/148/148 150/150/150
f 151/151/151 149/149/149 147/147/147
f 148/148/148 152/152/152 150/150/150
f 153/153/153 149/149/149 151/151/151
f 150/150/150 152/152/152 154/154/154
f 155/155/155 153/153/153 151/151/151
f 152/152/152 156/156/156 154/154/154
f 157/157/157 153/153/153 155/155/155
f 154/154/154 156/156/156 158/158/158
f 159/159/159 157/157/157 155/155/155
f 156/156/156 160/160/160 158/158/158
f 161/161/161 157/157/157 159/159/159
f 158/158/158 160/160/160 162/162/162
f 163/163/163 161/161/161 159/159/159
f 160/160/160 164/164/164 162/162/162
f 165/165/165 161/161/161 163/163/163
f 162/162/162 164/164/164 166/166/166
f 167/167/167 165/165/165 163/163/163
f 164/164/164 168/168/168 166/166/166
f 169/169/169 165/165/165 167/167/167
f 166/166/166 168/168/168 170/170/170
f 171/171/171 169/169/169 167/167/167
f 168/168/168 172/172/172 170/170/170
f 173/173/173 169/169/169 171/171/171
f 170/170/170 172/172/172 174/174/174
f 175/175/175 173/173/173 171/171/171
f 172/172/172 176/176/176 174/174/174
f 176/176/176 173/173/173 175/175/175
f 174/174/174 176/176/176 175/175/175
