g shard43
v 0.1601259 0.2775904 -0.2929754
v 0.09153768 0.3014888 -0.2985929
v 0.0673317 0.2360709 -0.3562144
v 0.08064698 0.1798554 -0.3816783
v 0.2136914 0.1992931 -0.319703
v 0.2381712 0.1583425 -0.3256342
v 0.1621681 0.1009528 -0.3834754
v 0.1647678 0.5426799 -0.5374672
v 0.2882265 0.4996626 -0.5273557
v 0.1211971 0.4249277 -0.641186
v 0.1451646 0.3237397 -0.687021
v 0.3846445 0.3587276 -0.5754654
v 0.4287082 0.2850165 -0.5861415
v 0.2919025 0.1817151 -0.6902558
v 0.09153768 0.3014888 -0.2985929
v 0.1647678 0.5426799 -0.5374672
v 0.0673317 0.2360709 -0.3562144
v 0.1211971 0.4249277 -0.641186
v 0.2882265 0.4996626 -0.5273557
v 0.1601259 0.2775904 -0.2929754
v 0.3846445 0.3587276 -0.5754654
v 0.2136914 0.1992931 -0.319703
v 0.4287082 0.2850165 -0.5861415
v 0.2381712 0.1583425 -0.3256342
v 0.08064698 0.1798554 -0.3816783
v 0.1451646 0.3237397 -0.687021
v 0.2919025 0.1817151 -0.6902558
v 0.1621681 0.1009528 -0.3834754
vt 0 0
vt 0.1218244 0
vt 0.2731232 0
vt 0.3787007 0
vt 0.8351801 0
vt 0.7547821 0
vt 0.5684475 0
vt 0.1218244 1
vt 0 1
vt 0.2731232 1
vt 0.3787007 1
vt 0.8351801 1
vt 0.7547821 1
vt 0.5684475 1
vt 0.1218244 0
vt 0.1218244 1
vt 0.2731232 0
vt 0.2731232 1
vt 1 1
vt 1 0
vt 0.8351801 1
vt 0.8351801 0
vt 0.7547821 1
vt 0.7547821 0
vt 0.3787007 0
vt 0.3787007 1
vt 0.5684475 1
vt 0.5684475 0
vn -0.1726856 -0.6661505 -0.7255502
vn -0.1726856 -0.6661505 -0.7255502
vn 0.9465945 -0.3206721 -0.03359089
vn 0.9603206 0.1117065 0.2555502
vn -0.714954 -0.2687945 -0.645438
vn -0.686341 -0.3153693 -0.6553458
vn -0.5854614 0.8099719 -0.03435484
vn -0.1726856 -0.6661506 -0.7255502
vn -0.1726856 -0.6661505 -0.7255502
vn 0.9465944 -0.3206721 -0.03359089
vn 0.9603206 0.1117065 0.2555502
vn -0.714954 -0.2687946 -0.645438
vn -0.686341 -0.3153693 -0.6553459
vn -0.5854614 0.8099719 -0.03435484
vn 0.9465945 -0.3206721 -0.03359089
vn 0.9465945 -0.3206721 -0.03359089
vn 0.9603206 0.1117065 0.2555502
vn 0.9603206 0.1117065 0.2555502
vn -0.714954 -0.2687945 -0.645438
vn -0.714954 -0.2687946 -0.645438
vn -0.686341 -0.3153693 -0.6553458
vn -0.686341 -0.3153693 -0.6553458
vn -0.5854613 0.809972 -0.03435484
vn -0.5854613 0.809972 -0.03435484
vn 0.6309006 0.6419123 0.4357902
vn 0.6309006 0.6419123 0.4357902
vn 0.6309006 0.6419123 0.4357902
vn 0.6309006 0.6419123 0.4357902
g shard43_0
f 8/8/8 9/9/9 1/1/1
f 2/2/2 8/8/8 1/1/1
f 10/10/10 16/16/16 15/15/15
f 3/3/3 10/10/10 15/15/15
f 11/11/11 18/18/18 17/17/17
f 4/4/4 11/11/11 17/17/17
f 19/19/19 12/12/12 5/5/5
f 20/20/20 19/19/19 5/5/5
f 21/21/21 13/13/13 6/6/6
f 22/22/22 21/21/21 6/6/6
f 23/23/23 14/14/14 7/7/7
f 24/24/24 23/23/23 7/7/7
f 27/27/27 26/26/26 25/25/25
f 28/28/28 27/27/27 25/25/25
