g shard50
v -0.1471252 0.3921757 0.08540479
v -0.09100106 0.4151929 0.008211772
v -0.1779598 0.3896738 -0.0142439
v -0.2478477 0.3241364 0.1450105
v -0.1513136 0.3722539 0.1548772
v -0.2480796 0.3468408 0.07816527
v -0.1739218 0.3847833 -0.08101202
v -0.07324708 0.4114984 -0.08035406
v -0.1638019 0.7473472 0.01478119
v -0.2648253 0.7059163 0.1537286
v -0.2723644 0.6700569 0.2787789
v -0.4461259 0.5834455 0.261019
v -0.4465433 0.6243134 0.1406975
v -0.3203276 0.7014128 -0.02563901
v -0.3130593 0.6926099 -0.1458216
v -0.1318447 0.7406971 -0.1446373
v -0.2478477 0.3241364 0.1450105
v -0.4461259 0.5834455 0.261019
v -0.1471252 0.3921757 0.08540479
v -0.2648253 0.7059163 0.1537286
v -0.2723644 0.6700569 0.2787789
v -0.1513136 0.3722539 0.1548772
v -0.2480796 0.3468408 0.07816527
v -0.4465433 0.6243134 0.1406975
v -0.1779598 0.3896738 -0.0142439
v -0.3203276 0.7014128 -0.02563901
v -0.1638019 0.7473472 0.01478119
v -0.09100106 0.4151929 0.008211772
v -0.1739218 0.3847833 -0.08101202
v -0.3130593 0.6926099 -0.1458216
v -0.1318447 0.7406971 -0.1446373
v -0.07324708 0.4114984 -0.08035406
vt 0.1336147 0
vt 0 0
vt 0.6439238 0
vt 0.3795506 0
vt 0.2321407 0
vt 0.4756304 0
vt 0.7352026 0
vt 0.8769633 0
vt 0 1
vt 0.1336147 1
vt 0.2321407 1
vt 0.3795506 1
vt 0.4756304 1
vt 0.6439238 1
vt 0.7352026 1
vt 0.8769633 1
vt 0.3795506 0
vt 0.3795506 1
vt 0.1336147 0
vt 0.1336147 1
vt 0.2321407 1
vt 0.2321407 0
vt 0.4756304 0
vt 0.4756304 1
vt 0.6439238 0
vt 0.6439238 1
vt 1 1
vt 1 0
vt 0.7352026 0
vt 0.7352026 1
vt 0.8769633 1
vt 0.8769633 0
vn -0.7756757 -0.1579253 -0.6110538
vn -0.7756757 -0.1579253 -0.6110539
vn 0.671549 0.3309225 0.6629573
vn -0.08146488 0.3544477 -0.9315205
vn -0.08146486 0.3544476 -0.9315205
vn 0.8187178 0.5445493 0.1821185
vn 0.9090186 0.4160346 0.02450242
vn -0.9608918 -0.2069672 -0.1839876
vn -0.7756757 -0.1579253 -0.6110538
vn -0.7756757 -0.1579253 -0.6110538
vn -0.08146487 0.3544477 -0.9315205
vn -0.08146488 0.3544477 -0.9315205
vn 0.8187179 0.5445493 0.1821185
vn 0.671549 0.3309226 0.6629572
vn 0.9090186 0.4160346 0.02450242
vn -0.9608918 -0.2069672 -0.1839876
vn 0.8187178 0.5445493 0.1821185
vn 0.8187178 0.5445493 0.1821185
vn -0.9361466 -0.3189856 -0.1479112
vn -0.9361466 -0.3189855 -0.1479112
vn -0.9361466 -0.3189856 -0.1479112
vn -0.9361466 -0.3189856 -0.1479112
vn 0.671549 0.3309226 0.6629571
vn 0.671549 0.3309225 0.6629571
vn 0.9090186 0.4160346 0.02450242
vn 0.9090186 0.4160346 0.02450242
vn -0.9608918 -0.2069673 -0.1839877
vn -0.9608918 -0.2069672 -0.1839877
vn -0.05470585 0.1819763 0.9817799
vn -0.05470585 0.1819763 0.9817799
vn -0.05470586 0.1819763 0.9817799
vn -0.05470585 0.1819763 0.9817799
g shard50_0
f 10/10/10 9/9/9 2/2/2
f 1/1/1 10/10/10 2/2/2
f 12/12/12 11/11/11 5/5/5
f 4/4/4 12/12/12 5/5/5
f 13/13/13 18/18/18 17/17/17
f 6/6/6 13/13/13 17/17/17
f 21/21/21 20/20/20 19/19/19
f 22/22/22 21/21/21 19/19/19
f 14/14/14 24/24/24 23/23/23
f 3/3/3 14/14/14 23/23/23
f 15/15/15 26/26/26 25/25/25
f 7/7/7 15/15/15 25/25/25
f 27/27/27 16/16/16 8/8/8
f 28/28/28 27/27/27 8/8/8
f 31/31/31 30/30/30 29/29/29
f 32/32/32 31/31/31 29/29/29
