g shard40
v 0.1371631 0.3351695 0.2365543
v 0.08282763 0.36344 0.2164669
v 0.0645589 0.384327 0.1781821
v 0.2052485 0.2721172 0.2705351
v 0.2516105 0.2595288 0.2399266
v 0.2657236 0.2774711 0.2023583
v 0.238087 0.3332642 0.1403047
v 0.1773983 0.3809439 0.08784821
v 0.07048284 0.4088376 0.09430829
v 0.2468936 0.603305 0.4257978
v 0.1490897 0.6541921 0.3896404
v 0.116206 0.6917886 0.3207278
v 0.3694474 0.4898109 0.4869632
v 0.4528988 0.4671519 0.4318679
v 0.4783024 0.499448 0.364245
v 0.4285566 0.5998756 0.2525484
v 0.319317 0.685699 0.1581268
v 0.1268691 0.7359077 0.1697549
v 0.08282763 0.36344 0.2164669
v 0.1490897 0.6541921 0.3896404
v 0.2468936 0.603305 0.4257978
v 0.1371631 0.3351695 0.2365543
v 0.3694474 0.4898109 0.4869632
v 0.2052485 0.2721172 0.2705351
v 0.4528988 0.4671519 0.4318679
v 0.2516105 0.2595288 0.2399266
v 0.4783024 0.499448 0.364245
v 0.2657236 0.2774711 0.2023583
v 0.4285566 0.5998756 0.2525484
v 0.238087 0.3332642 0.1403047
v 0.0645589 0.384327 0.1781821
v 0.116206 0.6917886 0.3207278
v 0.07048284 0.4088376 0.09430829
v 0.1268691 0.7359077 0.1697549
v 0.319317 0.685699 0.1581268
v 0.1773983 0.3809439 0.08784821
vt 0 0
vt 0.09328802 0
vt 0.161718 0
vt 0.8569813 0
vt 0.774543 0
vt 0.710923 0
vt 0.5837044 0
vt 0.4486529 0
vt 0.2884696 0
vt 0 1
vt 0.09328802 1
vt 0.161718 1
vt 0.8569813 1
vt 0.774543 1
vt 0.710923 1
vt 0.5837044 1
vt 0.4486529 1
vt 0.2884696 1
vt 0.09328802 0
vt 0.09328802 1
vt 1 1
vt 1 0
vt 0.8569813 1
vt 0.8569813 0
vt 0.774543 1
vt 0.774543 0
vt 0.710923 1
vt 0.710923 0
vt 0.5837044 1
vt 0.5837044 0
vt 0.161718 0
vt 0.161718 1
vt 0.2884696 0
vt 0.2884696 1
vt 0.4486529 1
vt 0.4486529 0
vn 0.4836285 0.363906 -0.7960377
vn 0.4836284 0.363906 -0.7960377
vn 0.909875 0.03867103 -0.4130763
vn 0.6177458 0.2687778 -0.7390187
vn -0.1994045 0.7624186 -0.6155939
vn -0.7375917 0.673766 0.04469708
vn -0.7519296 0.2874076 0.5932949
vn -0.6048212 0.0994449 0.7901278
vn 0.9845606 -0.1740448 0.01867724
vn 0.4836285 0.363906 -0.7960377
vn 0.4836285 0.363906 -0.7960377
vn 0.909875 0.03867102 -0.4130764
vn 0.6177458 0.2687778 -0.7390187
vn -0.1994044 0.7624186 -0.6155938
vn -0.7375917 0.673766 0.04469707
vn -0.7519296 0.2874075 0.5932949
vn -0.6048211 0.09944491 0.7901279
vn 0.9845606 -0.1740448 0.01867724
vn 0.909875 0.03867103 -0.4130763
vn 0.909875 0.03867102 -0.4130763
vn 0.6177458 0.2687778 -0.7390187
vn 0.6177458 0.2687778 -0.7390187
vn -0.1994045 0.7624187 -0.6155938
vn -0.1994045 0.7624187 -0.6155938
vn -0.7375917 0.6737661 0.04469708
vn -0.7375917 0.673766 0.04469707
vn -0.7519295 0.2874076 0.5932949
vn -0.7519296 0.2874076 0.5932949
vn -0.6048212 0.0994449 0.7901279
vn -0.6048211 0.09944491 0.7901279
vn 0.9845606 -0.1740448 0.01867724
vn 0.9845606 -0.1740448 0.01867725
vn 0.0002242174 -0.2248083 0.974403
vn 0.0002242174 -0.2248083 0.974403
vn 0.0002242174 -0.2248083 0.974403
vn 0.0002242174 -0.2248083 0.974403
g shard40_0
f 11/11/11 10/10/10 1/1/1
f 2/2/2 11/11/11 1/1/1
f 12/12/12 20/20/20 19/19/19
f 3/3/3 12/12/12 19/19/19
f 21/21/21 13/13/13 4/4/4
f 22/22/22 21/21/21 4/4/4
f 23/23/23 14/14/14 5/5/5
f 24/24/24 23/23/23 5/5/5
f 25/25/25 15/15/15 6/6/6
f 26/26/26 25/25/25 6/6/6
f 27/27/27 16/16/16 7/7/7
f 28/28/28 27/27/27 7/7/7
f 29/29/29 17/17/17 8/8/8
f 30/30/30 29/29/29 8/8/8
f 18/18/18 32/32/32 31/31/31
f 9/9/9 18/18/18 31/31/31
f 35/35/35 34/34/34 33/33/33
f 36/36/36 35/35/35 33/33/33
