g shard13
v -0.1779598 0.38967377 -0.014243895
v -0.32032764 0.7014128 -0.025639012
v -0.44654334 0.62431335 0.14069748
v -0.24807964 0.34684077 0.07816527
v -0.24807964 0.34684077 0.07816527
v -0.44654334 0.62431335 0.14069748
v -0.55700475 0.5279103 0.14932698
v -0.30944708 0.2932835 0.082959436
v -0.17392181 0.3847833 -0.08101202
v -0.31305927 0.6926099 -0.14582163
v -0.32032764 0.7014128 -0.025639012
v -0.1779598 0.38967377 -0.014243895
v -0.14157584 0.36632285 -0.17503281
v -0.2548365 0.65938115 -0.31505907
v -0.31305927 0.6926099 -0.14582163
v -0.17392181 0.3847833 -0.08101202
v -0.30173832 0.3022575 -0.083783746
v -0.54312897 0.5440635 -0.15081075
v -0.51445514 0.5032675 -0.30536604
v -0.2858084 0.27959305 -0.1696478
v -0.2858084 0.27959305 -0.1696478
v -0.51445514 0.5032675 -0.30536604
v -0.47503188 0.4790674 -0.3965422
v -0.2639066 0.26614854 -0.22030121
v -0.2639066 0.26614854 -0.22030121
v -0.47503188 0.4790674 -0.3965422
v -0.37804466 0.5728575 -0.36961925
v -0.21002482 0.31825417 -0.20534402
v -0.21002482 0.31825417 -0.20534402
v -0.37804466 0.5728575 -0.36961925
v -0.2548365 0.65938115 -0.31505907
v -0.14157584 0.36632285 -0.17503281
v -0.3403452 0.24991032 0.09311729
v -0.61262137 0.44983858 0.16761112
v -0.6506071 0.42567563 -0.021471985
v -0.3614484 0.23648645 -0.01192888
v -0.30944708 0.2932835 0.082959436
v -0.55700475 0.5279103 0.14932698
v -0.61262137 0.44983858 0.16761112
v -0.3403452 0.24991032 0.09311729
v -0.3614484 0.23648645 -0.01192888
v -0.6506071 0.42567563 -0.021471985
v -0.63642776 0.41508767 -0.16652307
v -0.35357097 0.23060426 -0.092512816
v -0.35357097 0.23060426 -0.092512816
v -0.63642776 0.41508767 -0.16652307
v -0.54312897 0.5440635 -0.15081075
v -0.30173832 0.3022575 -0.083783746
vt 0 0
vt 0 1
vt 0.12145712 1
vt 0.12145712 0
vt 0.12145712 0
vt 0.12145712 1
vt 0.20159839 1
vt 0.20159839 0
vt 0.93412423 0
vt 0.93412423 1
vt 1 1
vt 1 0
vt 0.8347944 0
vt 0.8347944 1
vt 0.93412423 1
vt 0.93412423 0
vt 0.5279319 0
vt 0.5279319 1
vt 0.6165496 1
vt 0.6165496 0
vt 0.6165496 0
vt 0.6165496 1
vt 0.6723392 1
vt 0.6723392 0
vt 0.6723392 0
vt 0.6723392 1
vt 0.7474125 1
vt 0.7474125 0
vt 0.7474125 0
vt 0.7474125 1
vt 0.8347944 1
vt 0.8347944 0
vt 0.2548477 0
vt 0.2548477 1
vt 0.3609098 1
vt 0.3609098 0
vt 0.20159839 0
vt 0.20159839 1
vt 0.2548477 1
vt 0.2548477 0
vt 0.3609098 0
vt 0.3609098 1
vt 0.44064736 1
vt 0.44064736 0
vt 0.44064736 0
vt 0.44064736 1
vt 0.5279319 1
vt 0.5279319 0
vn -0.671549 -0.33092257 -0.6629573
vn -0.671549 -0.33092257 -0.6629573
vn -0.671549 -0.3309225 -0.66295725
vn -0.671549 -0.33092257 -0.6629573
vn -0.16594417 0.10234644 -0.98080975
vn -0.16594416 0.10234644 -0.98080975
vn -0.16594417 0.10234644 -0.98080975
vn -0.16594417 0.10234644 -0.98080975
vn -0.9090186 -0.41603458 -0.024502411
vn -0.9090186 -0.41603458 -0.024502411
vn -0.9090186 -0.41603455 -0.02450241
vn -0.9090186 -0.41603458 -0.024502413
vn -0.87246484 -0.43938464 -0.21388358
vn -0.87246484 -0.43938467 -0.21388358
vn -0.87246484 -0.43938464 -0.21388356
vn -0.87246484 -0.43938464 -0.21388356
vn 0.7139145 0.69830877 -0.051874734
vn 0.7139145 0.6983087 -0.051874734
vn 0.7139145 0.6983087 -0.051874734
vn 0.7139145 0.6983087 -0.051874742
vn 0.667651 0.7386908 0.092618085
vn 0.66765094 0.7386908 0.092618085
vn 0.667651 0.7386908 0.092618085
vn 0.6676509 0.7386908 0.092618085
vn -0.46806654 0.23987769 0.850513
vn -0.46806654 0.23987769 0.850513
vn -0.4680666 0.23987772 0.850513
vn -0.4680666 0.23987772 0.850513
vn -0.5114263 0.2014933 0.83537036
vn -0.5114263 0.20149328 0.83537036
vn -0.5114263 0.2014933 0.83537036
vn -0.5114263 0.20149328 0.8353703
vn 0.5398935 0.8144576 -0.21254118
vn 0.5398935 0.8144576 -0.21254121
vn 0.5398935 0.8144577 -0.21254121
vn 0.5398935 0.8144576 -0.21254121
vn -0.28068578 -0.024752615 -0.95948046
vn -0.28068578 -0.024752615 -0.95948046
vn -0.28068575 -0.024752613 -0.95948046
vn -0.28068578 -0.024752615 -0.95948046
vn 0.54765886 0.83666784 -0.007536219
vn 0.5476588 0.8366677 -0.007536218
vn 0.5476588 0.83666784 -0.007536218
vn 0.54765886 0.83666784 -0.00753622
vn -0.2255534 0.044601195 0.9732093
vn -0.22555342 0.04460119 0.9732093
vn -0.22555342 0.04460119 0.9732093
vn -0.2255534 0.044601187 0.9732093
g shard13_0
f 3/3/3 2/2/2 1/1/1
f 4/4/4 3/3/3 1/1/1
f 7/7/7 6/6/6 5/5/5
f 8/8/8 7/7/7 5/5/5
f 11/11/11 10/10/10 9/9/9
f 12/12/12 11/11/11 9/9/9
f 15/15/15 14/14/14 13/13/13
f 16/16/16 15/15/15 13/13/13
f 19/19/19 18/18/18 17/17/17
f 20/20/20 19/19/19 17/17/17
f 23/23/23 22/22/22 21/21/21
f 24/24/24 23/23/23 21/21/21
f 27/27/27 26/26/26 25/25/25
f 28/28/28 27/27/27 25/25/25
f 31/31/31 30/30/30 29/29/29
f 32/32/32 31/31/31 29/29/29
f 35/35/35 34/34/34 33/33/33
f 36/36/36 35/35/35 33/33/33
f 39/39/39 38/38/38 37/37/37
f 40/40/40 39/39/39 37/37/37
f 43/43/43 42/42/42 41/41/41
f 44/44/44 43/43/43 41/41/41
f 47/47/47 46/46/46 45/45/45
f 48/48/48 47/47/47 45/45/45
