g shard47
v 0.08973645 -0.4150107 0.01390675
v 0.01752079 -0.4225048 0.007018576
v -0.009811387 -0.4162674 0.0852804
v 0.1657633 -0.3855946 0.09224028
v 0.06656144 -0.3910078 0.1607909
v 0.2262975 -0.3561819 0.09100351
v 0.2362788 -0.3232526 0.1653467
v 0.2197257 -0.3134168 0.2055535
v 0.1427305 -0.3344187 0.2359573
v 0.1615256 -0.7470193 0.02503216
v 0.03153743 -0.7605085 0.01263344
v -0.0176605 -0.7492813 0.1535047
v 0.298374 -0.6940703 0.1660325
v 0.1198106 -0.7038139 0.2894237
v 0.4073355 -0.6411275 0.1638063
v 0.4253018 -0.5818546 0.2976241
v 0.3955063 -0.5641502 0.3699963
v 0.2569148 -0.6019537 0.4247232
v 0.01752079 -0.4225048 0.007018576
v 0.03153743 -0.7605085 0.01263344
v 0.1615256 -0.7470193 0.02503216
v 0.08973645 -0.4150107 0.01390675
v -0.009811387 -0.4162674 0.0852804
v -0.0176605 -0.7492813 0.1535047
v 0.298374 -0.6940703 0.1660325
v 0.1657633 -0.3855946 0.09224028
v 0.4073355 -0.6411275 0.1638063
v 0.2262975 -0.3561819 0.09100351
v 0.4253018 -0.5818546 0.2976241
v 0.2362788 -0.3232526 0.1653467
v 0.3955063 -0.5641502 0.3699963
v 0.2197257 -0.3134168 0.2055535
v 0.2569148 -0.6019537 0.4247232
v 0.1427305 -0.3344187 0.2359573
vt 0 0
vt 0.09353338 0
vt 0.2001512 0
vt 0.8550043 0
vt 0.3416514 0
vt 0.7686744 0
vt 0.6636105 0
vt 0.6064366 0
vt 0.4969051 0
vt 0 1
vt 0.09353338 1
vt 0.2001512 1
vt 0.8550043 1
vt 0.3416514 1
vt 0.7686744 1
vt 0.6636105 1
vt 0.6064366 1
vt 0.4969051 1
vt 0.09353338 0
vt 0.09353338 1
vt 1 1
vt 1 0
vt 0.2001512 0
vt 0.2001512 1
vt 0.8550043 1
vt 0.8550043 0
vt 0.7686744 1
vt 0.7686744 0
vt 0.6636105 1
vt 0.6636105 0
vt 0.6064366 1
vt 0.6064366 0
vt 0.4969051 1
vt 0.4969051 0
vn -0.0962348 0.01254267 0.9952797
vn -0.0962348 0.01254267 0.9952797
vn 0.9442439 0.04457575 0.3262154
vn -0.6881393 -0.1248432 0.7147576
vn 0.7200605 -0.1555167 -0.6762599
vn -0.07739791 0.2003599 0.9766604
vn -0.8359584 -0.4513634 0.3121612
vn -0.7574219 -0.6338241 -0.1567772
vn -0.141327 -0.6102916 -0.7794683
vn -0.09623479 0.01254267 0.9952797
vn -0.09623479 0.01254267 0.9952797
vn 0.9442439 0.04457575 0.3262154
vn -0.6881394 -0.1248432 0.7147576
vn 0.7200605 -0.1555167 -0.6762599
vn -0.07739793 0.2003599 0.9766604
vn -0.8359584 -0.4513634 0.3121612
vn -0.7574219 -0.6338241 -0.1567772
vn -0.141327 -0.6102915 -0.7794683
vn 0.9442439 0.04457575 0.3262154
vn 0.9442439 0.04457575 0.3262154
vn -0.6881394 -0.1248432 0.7147576
vn -0.6881393 -0.1248432 0.7147576
vn 0.7200605 -0.1555167 -0.6762599
vn 0.7200605 -0.1555167 -0.6762599
vn -0.07739791 0.2003599 0.9766604
vn -0.07739791 0.2003599 0.9766604
vn -0.8359584 -0.4513635 0.3121612
vn -0.8359584 -0.4513635 0.3121612
vn -0.7574218 -0.6338241 -0.1567772
vn -0.7574218 -0.6338241 -0.1567772
vn -0.141327 -0.6102917 -0.7794683
vn -0.141327 -0.6102915 -0.7794684
vn 0.7463542 -0.1404708 -0.6505563
vn 0.7463541 -0.1404707 -0.6505563
g shard47_0
f 11/11/11 10/10/10 1/1/1
f 2/2/2 11/11/11 1/1/1
f 12/12/12 20/20/20 19/19/19
f 3/3/3 12/12/12 19/19/19
f 21/21/21 13/13/13 4/4/4
f 22/22/22 21/21/21 4/4/4
f 14/14/14 24/24/24 23/23/23
f 5/5/5 14/14/14 23/23/23
f 33/33/33 14/14/14 5/5/5
f 34/34/34 33/33/33 5/5/5
f 25/25/25 15/15/15 6/6/6
f 26/26/26 25/25/25 6/6/6
f 27/27/27 16/16/16 7/7/7
f 28/28/28 27/27/27 7/7/7
f 29/29/29 17/17/17 8/8/8
f 30/30/30 29/29/29 8/8/8
f 31/31/31 18/18/18 9/9/9
f 32/32/32 31/31/31 9/9/9
