g shard18
v 0.2657236 0.27747113 0.20235832
v 0.47830245 0.49944803 0.364245
v 0.42855662 0.59987557 0.2525484
v 0.23808701 0.3332642 0.14030465
v 0.23808701 0.3332642 0.14030465
v 0.42855662 0.59987557 0.2525484
v 0.31931698 0.685699 0.15812677
v 0.17739832 0.38094386 0.08784821
v 0.23147507 0.3648019 -0.0029251976
v 0.41665512 0.65664345 -0.0052653556
v 0.5439217 0.5640657 -0.0123119205
v 0.30217874 0.31336984 -0.006839956
v 0.17739832 0.38094386 0.08784821
v 0.31931698 0.685699 0.15812677
v 0.41665512 0.65664345 -0.0052653556
v 0.23147507 0.3648019 -0.0029251976
v 0.34831667 0.24458833 -0.0818159
v 0.62697 0.44025898 -0.14726862
v 0.7099046 0.30367208 -0.02136043
v 0.39439145 0.16870672 -0.011866906
v 0.30829924 0.29727235 -0.07758728
v 0.5549387 0.5350902 -0.1396571
v 0.62697 0.44025898 -0.14726862
v 0.34831667 0.24458833 -0.0818159
v 0.30217874 0.31336984 -0.006839956
v 0.5439217 0.5640657 -0.0123119205
v 0.5549387 0.5350902 -0.1396571
v 0.30829924 0.29727235 -0.07758728
v 0.39358678 0.15133339 0.06793072
v 0.7084562 0.2724001 0.12227529
v 0.64775956 0.3159032 0.28893894
v 0.3598664 0.17550176 0.16052163
v 0.39439145 0.16870672 -0.011866906
v 0.7099046 0.30367208 -0.02136043
v 0.7084562 0.2724001 0.12227529
v 0.39358678 0.15133339 0.06793072
v 0.3598664 0.17550176 0.16052163
v 0.64775956 0.3159032 0.28893894
v 0.6129058 0.24831188 0.41248938
v 0.34050322 0.13795105 0.22916077
v 0.34050322 0.13795105 0.22916077
v 0.6129058 0.24831188 0.41248938
v 0.55917275 0.35961998 0.40911007
v 0.31065154 0.19978887 0.22728337
v 0.31065154 0.19978887 0.22728337
v 0.55917275 0.35961998 0.40911007
v 0.45289883 0.46715188 0.4318679
v 0.25161046 0.25952882 0.2399266
v 0.25161046 0.25952882 0.2399266
v 0.45289883 0.46715188 0.4318679
v 0.47830245 0.49944803 0.364245
v 0.2657236 0.27747113 0.20235832
vt 0 0
vt 0 1
vt 0.08071516 1
vt 0.08071516 0
vt 0.08071516 0
vt 0.08071516 1
vt 0.16639999 1
vt 0.16639999 0
vt 0.2645438 0
vt 0.2645438 1
vt 0.34490454 1
vt 0.34490454 0
vt 0.16639999 0
vt 0.16639999 1
vt 0.2645438 1
vt 0.2645438 0
vt 0.47263387 0
vt 0.47263387 1
vt 0.5764107 1
vt 0.5764107 0
vt 0.41176227 0
vt 0.41176227 1
vt 0.47263387 1
vt 0.47263387 0
vt 0.34490454 0
vt 0.34490454 1
vt 0.41176227 1
vt 0.41176227 0
vt 0.65140164 0
vt 0.65140164 1
vt 0.7445636 1
vt 0.7445636 0
vt 0.5764107 0
vt 0.5764107 1
vt 0.65140164 1
vt 0.65140164 0
vt 0.7445636 0
vt 0.7445636 1
vt 0.8185709 1
vt 0.8185709 0
vt 0.8185709 0
vt 0.8185709 1
vt 0.88164425 1
vt 0.88164425 0
vt 0.88164425 0
vt 0.88164425 1
vt 0.95963556 1
vt 0.95963556 0
vt 0.95963556 0
vt 0.95963556 1
vt 1 1
vt 1 0
vn 0.7519295 -0.2874076 -0.59329486
vn 0.75192946 -0.28740764 -0.5932949
vn 0.75192946 -0.28740764 -0.5932949
vn 0.7519295 -0.28740764 -0.5932949
vn 0.6048212 -0.09944492 -0.79012793
vn 0.6048212 -0.099444896 -0.7901279
vn 0.6048212 -0.09944492 -0.79012793
vn 0.6048212 -0.099444896 -0.79012775
vn 0.04182991 -0.018531842 0.99895287
vn 0.04182991 -0.018531842 0.99895287
vn 0.041829918 -0.018531842 0.99895287
vn 0.041829918 -0.018531842 0.99895287
vn 0.7262235 -0.45668504 0.5138465
vn 0.7262235 -0.45668495 0.5138464
vn 0.7262235 -0.456685 0.51384646
vn 0.7262235 -0.45668504 0.5138464
vn -0.22574098 0.5826408 0.78075004
vn -0.22574095 0.5826408 0.78075004
vn -0.22574095 0.5826408 0.78075004
vn -0.22574095 0.5826408 0.78075004
vn 0.18623702 0.0627621 0.9804982
vn 0.18623702 0.06276209 0.9804982
vn 0.18623702 0.0627621 0.9804982
vn 0.18623702 0.0627621 0.9804982
vn 0.70539004 -0.6755123 0.21472779
vn 0.7053901 -0.6755123 0.2147278
vn 0.7053901 -0.67551225 0.2147278
vn 0.7053901 -0.67551225 0.21472783
vn -0.28629974 0.8964446 -0.33825934
vn -0.2862998 0.8964446 -0.3382594
vn -0.28629977 0.8964446 -0.33825934
vn -0.2862998 0.8964446 -0.33825937
vn -0.38098145 0.9042103 0.19302054
vn -0.38098148 0.90421027 0.19302057
vn -0.38098145 0.9042103 0.19302055
vn -0.38098145 0.9042103 0.19302055
vn -0.5212455 0.8020024 0.2917109
vn -0.5212454 0.80200243 0.2917109
vn -0.5212454 0.80200243 0.29171088
vn -0.5212455 0.80200243 0.2917109
vn 0.48631456 0.20900631 -0.84841883
vn 0.48631465 0.20900631 -0.8484188
vn 0.48631456 0.20900634 -0.84841883
vn 0.48631456 0.20900631 -0.84841883
vn 0.3014185 0.47309574 -0.8278449
vn 0.3014185 0.47309574 -0.8278449
vn 0.30141848 0.47309574 -0.827845
vn 0.3014185 0.47309574 -0.8278449
vn 0.73759174 -0.6737661 -0.04469708
vn 0.73759174 -0.673766 -0.044697072
vn 0.7375917 -0.6737661 -0.044697072
vn 0.73759174 -0.6737661 -0.04469708
g shard18_0
f 3/3/3 2/2/2 1/1/1
f 4/4/4 3/3/3 1/1/1
f 7/7/7 6/6/6 5/5/5
f 8/8/8 7/7/7 5/5/5
f 11/11/11 10/10/10 9/9/9
f 12/12/12 11/11/11 9/9/9
f 15/15/15 14/14/14 13/13/13
f 16/16/16 15/15/15 13/13/13
f 19/19/19 18/18/18 17/17/17
f 20/20/20 19/19/19 17/17/17
f 23/23/23 22/22/22 21/21/21
f 24/24/24 23/23/23 21/21/21
f 27/27/27 26/26/26 25/25/25
f 28/28/28 27/27/27 25/25/25
f 31/31/31 30/30/30 29/29/29
f 32/32/32 31/31/31 29/29/29
f 35/35/35 34/34/34 33/33/33
f 36/36/36 35/35/35 33/33/33
f 39/39/39 38/38/38 37/37/37
f 40/40/40 39/39/39 37/37/37
f 43/43/43 42/42/42 41/41/41
f 44/44/44 43/43/43 41/41/41
f 47/47/47 46/46/46 45/45/45
f 48/48/48 47/47/47 45/45/45
f 51/51/51 50/50/50 49/49/49
f 52/52/52 51/51/51 49/49/49
