g shard46
v -0.09144704 -0.24710023 -0.34310272
v -0.16460466 -0.4447804 -0.61758494
v -0.31056297 -0.31271166 -0.6381558
v -0.17253499 -0.17372869 -0.354531
v -0.13989684 -0.28650582 -0.29539353
v -0.2518143 -0.5157105 -0.53170836
v -0.16460466 -0.4447804 -0.61758494
v -0.09144704 -0.24710023 -0.34310272
v -0.23232931 -0.15448493 -0.33275476
v -0.41819274 -0.27807286 -0.5989586
v -0.5148035 -0.27175283 -0.524755
v -0.28600195 -0.1509738 -0.29153055
v -0.17253499 -0.17372869 -0.354531
v -0.31056297 -0.31271166 -0.6381558
v -0.41819274 -0.27807286 -0.5989586
v -0.23232931 -0.15448493 -0.33275476
v -0.28001723 -0.2505067 -0.21540216
v -0.504031 -0.45091206 -0.38772386
v -0.36064312 -0.57331896 -0.386674
v -0.20035729 -0.31851053 -0.21481888
v -0.20035729 -0.31851053 -0.21481888
v -0.36064312 -0.57331896 -0.386674
v -0.2518143 -0.5157105 -0.53170836
v -0.13989684 -0.28650582 -0.29539353
v -0.32367224 -0.2040524 -0.20041233
v -0.58261 -0.3672943 -0.3607422
v -0.504031 -0.45091206 -0.38772386
v -0.28001723 -0.2505067 -0.21540216
v -0.3289862 -0.16250859 -0.23047945
v -0.5921751 -0.29251546 -0.414863
v -0.58261 -0.3672943 -0.3607422
v -0.32367224 -0.2040524 -0.20041233
v -0.28600195 -0.1509738 -0.29153055
v -0.5148035 -0.27175283 -0.524755
v -0.5921751 -0.29251546 -0.414863
v -0.3289862 -0.16250859 -0.23047945
vt 0 0
vt 0 1
vt 0.1514845 1
vt 0.1514845 0
vt 0.1514845 0
vt 0.1514845 1
vt 0.2597611 1
vt 0.2597611 0
vt 0.81503737 0
vt 0.81503737 1
vt 0.90840447 1
vt 0.90840447 0
vt 0.90840447 0
vt 0.90840447 1
vt 1 1
vt 1 0
vt 0.40538576 0
vt 0.40538576 1
vt 0.5496914 1
vt 0.5496914 0
vt 0.2597611 0
vt 0.2597611 1
vt 0.40538576 1
vt 0.40538576 0
vt 0.5496914 0
vt 0.5496914 1
vt 0.63991475 1
vt 0.63991475 0
vt 0.63991475 0
vt 0.63991475 1
vt 0.7109476 1
vt 0.7109476 0
vt 0.7109476 0
vt 0.7109476 1
vt 0.81503737 1
vt 0.81503737 0
vn -0.59472734 -0.5687808 0.56814426
vn -0.59472734 -0.5687808 0.56814426
vn -0.59472734 -0.56878066 0.5681442
vn -0.59472734 -0.5687807 0.56814426
vn -0.7460012 0.61857814 -0.24666442
vn -0.7460011 0.6185782 -0.2466644
vn -0.7460012 0.61857814 -0.24666442
vn -0.7460011 0.6185782 -0.24666443
vn 0.1770368 -0.9340902 0.31005424
vn 0.1770368 -0.9340902 0.31005424
vn 0.1770368 -0.9340902 0.3100542
vn 0.17703679 -0.9340902 0.31005424
vn -0.106141366 -0.87152624 0.4787235
vn -0.10614136 -0.87152624 0.47872347
vn -0.10614135 -0.87152624 0.4787234
vn -0.10614136 -0.87152624 0.47872347
vn 0.32847542 0.37735087 -0.8658581
vn 0.32847542 0.3773509 -0.8658581
vn 0.3284754 0.37735084 -0.8658581
vn 0.3284754 0.37735087 -0.8658581
vn -0.71476614 0.6399196 -0.28215635
vn -0.71476614 0.63991964 -0.28215635
vn -0.7147662 0.6399195 -0.28215635
vn -0.71476614 0.6399196 -0.28215638
vn 0.2213811 0.48165312 -0.8479391
vn 0.22138104 0.48165312 -0.8479391
vn 0.22138107 0.48165312 -0.8479391
vn 0.22138107 0.48165306 -0.8479391
vn 0.6497266 -0.38939613 -0.6528599
vn 0.6497266 -0.38939613 -0.6528599
vn 0.6497266 -0.38939616 -0.65285987
vn 0.6497267 -0.3893962 -0.65285987
vn 0.3849466 -0.9177605 0.09763049
vn 0.3849466 -0.9177605 0.0976305
vn 0.3849466 -0.9177605 0.097630486
vn 0.3849466 -0.9177605 0.097630486
g shard46_0
f 3/3/3 2/2/2 1/1/1
f 4/4/4 3/3/3 1/1/1
f 7/7/7 6/6/6 5/5/5
f 8/8/8 7/7/7 5/5/5
f 11/11/11 10/10/10 9/9/9
f 12/12/12 11/11/11 9/9/9
f 15/15/15 14/14/14 13/13/13
f 16/16/16 15/15/15 13/13/13
f 19/19/19 18/18/18 17/17/17
f 20/20/20 19/19/19 17/17/17
f 23/23/23 22/22/22 21/21/21
f 24/24/24 23/23/23 21/21/21
f 27/27/27 26/26/26 25/25/25
f 28/28/28 27/27/27 25/25/25
f 31/31/31 30/30/30 29/29/29
f 32/32/32 31/31/31 29/29/29
f 35/35/35 34/34/34 33/33/33
f 36/36/36 35/35/35 33/33/33
