g shard79
v -0.01242045 -0.08345944 0.04058084
v -0.008847654 0.02381158 0.00912407
v 0.02502885 -0.04234253 0.061775
v 0.05587699 0.009529814 0.06540313
v 0.06579089 0.06535457 0.04301262
v 0.007523239 0.08789977 -0.02129063
v -0.07696483 -0.04480063 -0.04445979
v -0.06596538 0.007219747 -0.0537066
v -0.0256424 0.07570902 -0.04837953
v 0.001460552 -0.08789977 0.02691922
v 0.03749266 -0.0476184 0.04708686
v 0.004337996 0.01683871 -0.004199505
v 0.06726404 0.002630278 0.05051556
v 0.07696484 0.05673411 0.02887407
v 0.01976559 0.07866786 -0.03407481
v -0.06219208 -0.04958358 -0.05704598
v -0.05117124 0.0006945878 -0.06540312
v -0.01174834 0.06729135 -0.05999658
v 0.001460552 -0.08789977 0.02691922
v -0.01242045 -0.08345944 0.04058084
v 0.02502885 -0.04234253 0.061775
v 0.03749266 -0.0476184 0.04708686
v 0.05587699 0.009529814 0.06540313
v 0.06726404 0.002630278 0.05051556
v 0.06726404 0.002630278 0.05051556
v 0.05587699 0.009529814 0.06540313
v 0.06579089 0.06535457 0.04301262
v 0.07696484 0.05673411 0.02887407
v 0.07696484 0.05673411 0.02887407
v 0.06579089 0.06535457 0.04301262
v 0.007523239 0.08789977 -0.02129063
v 0.01976559 0.07866786 -0.03407481
v -0.06219208 -0.04958358 -0.05704598
v -0.07696483 -0.04480063 -0.04445979
v -0.01242045 -0.08345944 0.04058084
v 0.001460552 -0.08789977 0.02691922
v -0.05117124 0.0006945878 -0.06540312
v -0.06596538 0.007219747 -0.0537066
v -0.07696483 -0.04480063 -0.04445979
v -0.06219208 -0.04958358 -0.05704598
v -0.01174834 0.06729135 -0.05999658
v -0.0256424 0.07570902 -0.04837953
v 0.01976559 0.07866786 -0.03407481
v 0.007523239 0.08789977 -0.02129063
v -0.0256424 0.07570902 -0.04837953
v -0.01174834 0.06729135 -0.05999658
vt 0.375 0.15625
vt 0.375 0.1875
vt 0.40625 0.15625
vt 0.40625 0.1875
vt 0.40625 0.21875
vt 0.375 0.21875
vt 0.34375 0.15625
vt 0.34375 0.1875
vt 0.34375 0.21875
vt 0.375 0.15625
vt 0.40625 0.15625
vt 0.375 0.1875
vt 0.40625 0.1875
vt 0.40625 0.21875
vt 0.375 0.21875
vt 0.34375 0.15625
vt 0.34375 0.1875
vt 0.34375 0.21875
vt 0.375 0.15625
vt 0.375 0.15625
vt 0.40625 0.15625
vt 0.40625 0.15625
vt 0.40625 0.1875
vt 0.40625 0.1875
vt 0.40625 0.1875
vt 0.40625 0.1875
vt 0.40625 0.21875
vt 0.40625 0.21875
vt 0.40625 0.21875
vt 0.40625 0.21875
vt 0.375 0.21875
vt 0.375 0.21875
vt 0.34375 0.15625
vt 0.34375 0.15625
vt 0.375 0.15625
vt 0.375 0.15625
vt 0.34375 0.1875
vt 0.34375 0.1875
vt 0.34375 0.15625
vt 0.34375 0.15625
vt 0.34375 0.21875
vt 0.34375 0.21875
vt 0.375 0.21875
vt 0.375 0.21875
vt 0.34375 0.21875
vt 0.34375 0.21875
vn -0.7072507 0.2205256 0.6716883
vn -0.6698927 0.328512 0.6658255
vn -0.6317598 0.2581961 0.7308996
vn -0.5709749 0.3460445 0.7444735
vn -0.5600969 0.4273959 0.7096648
vn -0.6036098 0.4624162 0.6494817
vn -0.7336155 0.2285086 0.6399938
vn -0.7419884 0.3167076 0.5908888
vn -0.7059577 0.410807 0.5769415
vn 0.7079744 -0.2189417 -0.6714438
vn 0.6313518 -0.257329 -0.7315578
vn 0.6704199 -0.3276241 -0.6657324
vn 0.570008 -0.3457755 -0.745339
vn 0.5587019 -0.4283037 -0.7102169
vn 0.6026228 -0.4640648 -0.6492223
vn 0.7344093 -0.226597 -0.6397631
vn 0.7427163 -0.3163403 -0.5901706
vn 0.7068187 -0.4112096 -0.5755989
vn 0.407519 -0.678474 0.6112293
vn 0.407519 -0.6784741 0.6112293
vn 0.5215474 -0.5528842 0.6498518
vn 0.5212659 -0.5532394 0.6497754
vn 0.6182176 -0.413182 0.6686461
vn 0.6182175 -0.413182 0.6686462
vn 0.8088312 0.08853457 0.5813378
vn 0.8088312 0.08853457 0.5813378
vn 0.8088312 0.08853458 0.5813379
vn 0.8088312 0.08853457 0.5813379
vn 0.4899155 0.8597919 -0.1440165
vn 0.4899155 0.8597919 -0.1440165
vn 0.4899155 0.8597919 -0.1440165
vn 0.4899155 0.8597919 -0.1440165
vn -0.3971479 -0.9107047 -0.1135364
vn -0.397148 -0.9107047 -0.1135364
vn -0.3971479 -0.9107047 -0.1135364
vn -0.397148 -0.9107046 -0.1135364
vn -0.5498698 0.2108884 -0.8081889
vn -0.5494016 0.2118517 -0.8082554
vn -0.6339001 0.003359092 -0.7734076
vn -0.6339001 0.003359092 -0.7734076
vn -0.4767562 0.3456648 -0.8082199
vn -0.4767562 0.3456648 -0.8082199
vn 0.1040681 0.8554655 -0.5072955
vn 0.1040681 0.8554655 -0.5072955
vn 0.1040681 0.8554655 -0.5072955
vn 0.1040681 0.8554655 -0.5072954
g shard79_0
f 3/3/3 2/2/2 1/1/1
f 3/3/3 4/4/4 2/2/2
f 5/5/5 2/2/2 4/4/4
f 5/5/5 6/6/6 2/2/2
f 2/2/2 7/7/7 1/1/1
f 2/2/2 8/8/8 7/7/7
f 2/2/2 9/9/9 8/8/8
f 2/2/2 6/6/6 9/9/9
f 12/12/12 11/11/11 10/10/10
f 13/13/13 11/11/11 12/12/12
f 12/12/12 14/14/14 13/13/13
f 15/15/15 14/14/14 12/12/12
f 16/16/16 12/12/12 10/10/10
f 17/17/17 12/12/12 16/16/16
f 18/18/18 12/12/12 17/17/17
f 15/15/15 12/12/12 18/18/18
f 21/21/21 20/20/20 19/19/19
f 22/22/22 21/21/21 19/19/19
f 23/23/23 21/21/21 22/22/22
f 24/24/24 23/23/23 22/22/22
f 27/27/27 26/26/26 25/25/25
f 28/28/28 27/27/27 25/25/25
f 31/31/31 30/30/30 29/29/29
f 32/32/32 31/31/31 29/29/29
f 35/35/35 34/34/34 33/33/33
f 36/36/36 35/35/35 33/33/33
f 39/39/39 38/38/38 37/37/37
f 40/40/40 39/39/39 37/37/37
f 37/37/37 38/38/38 41/41/41
f 38/38/38 42/42/42 41/41/41
f 45/45/45 44/44/44 43/43/43
f 46/46/46 45/45/45 43/43/43
