g shard64
v 0.1232607 0.09275705 0.1776871
v 0.002462951 0.1028889 0.1630029
v 0.09445557 0.08923295 0.08604502
v 0.0101468 0.09339213 0.07630971
v -0.06108863 0.09186804 0.0983832
v -0.07743413 0.09607777 0.1886331
v 0.09342729 0.07326317 0.0250814
v 0.1635253 0.0528917 0.01685436
v 0.1097969 0.02902421 -0.06470014
v -0.06621038 0.07095054 0.01827258
v -0.1635253 0.06440938 0.09557678
v -0.1310488 0.04539251 -0.0001483262
v -0.07368745 0.0383974 -0.04914303
v -0.001490273 0.07366765 0.005955383
v -2.609007E-05 0.04125261 -0.0610346
v 0.01860896 -0.02602917 -0.1488196
v 0.1096081 -0.02342698 -0.1307915
v 0.08574661 -0.0903632 -0.189891
v 0.121405 0.07288456 0.1789678
v 0.0910978 0.06992972 0.08920626
v 0.002607822 0.08303031 0.1642722
v 0.01017727 0.07377732 0.08021584
v -0.05753478 0.07253855 0.1013252
v -0.07528877 0.076233 0.189891
v 0.0904263 0.05461946 0.03166975
v 0.1589715 0.03460005 0.0233552
v 0.1066663 0.01231834 -0.05452025
v -0.0626293 0.05235586 0.02470793
v -0.1582095 0.04582343 0.1006672
v -0.1258636 0.02736297 0.006646439
v -0.07025697 0.02059609 -0.04079895
v -0.001146998 0.05500036 0.01312581
v 0.0003654761 0.02431518 -0.05072984
v 0.01656944 -0.04027885 -0.1351636
v 0.10725 -0.03747106 -0.1169137
v 0.083044 -0.1028889 -0.1745352
v 0.121405 0.07288456 0.1789678
v 0.1232607 0.09275705 0.1776871
v 0.09445557 0.08923295 0.08604502
v 0.0910978 0.06992972 0.08920626
v 0.002607822 0.08303031 0.1642722
v 0.1232607 0.09275705 0.1776871
v 0.121405 0.07288456 0.1789678
v 0.002462951 0.1028889 0.1630029
v -0.07528877 0.076233 0.189891
v -0.07743413 0.09607777 0.1886331
v 0.0910978 0.06992972 0.08920626
v 0.09445557 0.08923295 0.08604502
v 0.1635253 0.0528917 0.01685436
v 0.1589715 0.03460005 0.0233552
v 0.1589715 0.03460005 0.0233552
v 0.1635253 0.0528917 0.01685436
v 0.1097969 0.02902421 -0.06470014
v 0.1066663 0.01231834 -0.05452025
v 0.01656944 -0.04027885 -0.1351636
v 0.01860896 -0.02602917 -0.1488196
v -2.609007E-05 0.04125261 -0.0610346
v 0.0003654761 0.02431518 -0.05072984
v 0.1066663 0.01231834 -0.05452025
v 0.1097969 0.02902421 -0.06470014
v 0.1096081 -0.02342698 -0.1307915
v 0.10725 -0.03747106 -0.1169137
v 0.08574661 -0.0903632 -0.189891
v 0.083044 -0.1028889 -0.1745352
v -0.05753478 0.07253855 0.1013252
v -0.06108863 0.09186804 0.0983832
v -0.07743413 0.09607777 0.1886331
v -0.07528877 0.076233 0.189891
v -0.1582095 0.04582343 0.1006672
v -0.1635253 0.06440938 0.09557678
v -0.06108863 0.09186804 0.0983832
v -0.05753478 0.07253855 0.1013252
v -0.1258636 0.02736297 0.006646439
v -0.1635253 0.06440938 0.09557678
v -0.1582095 0.04582343 0.1006672
v -0.1310488 0.04539251 -0.0001483262
v -0.07025697 0.02059609 -0.04079895
v -0.07368745 0.0383974 -0.04914303
v 0.0003654761 0.02431518 -0.05072984
v -2.609007E-05 0.04125261 -0.0610346
v -0.07368745 0.0383974 -0.04914303
v -0.07025697 0.02059609 -0.04079895
v 0.083044 -0.1028889 -0.1745352
v 0.08574661 -0.0903632 -0.189891
v 0.01860896 -0.02602917 -0.1488196
v 0.01656944 -0.04027885 -0.1351636
vt 0.53125 0.375
vt 0.5 0.375
vt 0.53125 0.40625
vt 0.5 0.40625
vt 0.46875 0.40625
vt 0.46875 0.375
vt 0.53125 0.4375
vt 0.5625 0.4375
vt 0.53125 0.46875
vt 0.46875 0.4375
vt 0.4375 0.40625
vt 0.4375 0.4375
vt 0.46875 0.46875
vt 0.5 0.4375
vt 0.5 0.46875
vt 0.5 0.5
vt 0.53125 0.5
vt 0.53125 0.53125
vt 0.53125 0.375
vt 0.53125 0.40625
vt 0.5 0.375
vt 0.5 0.40625
vt 0.46875 0.40625
vt 0.46875 0.375
vt 0.53125 0.4375
vt 0.5625 0.4375
vt 0.53125 0.46875
vt 0.46875 0.4375
vt 0.4375 0.40625
vt 0.4375 0.4375
vt 0.46875 0.46875
vt 0.5 0.4375
vt 0.5 0.46875
vt 0.5 0.5
vt 0.53125 0.5
vt 0.53125 0.53125
vt 0.53125 0.375
vt 0.53125 0.375
vt 0.53125 0.40625
vt 0.53125 0.40625
vt 0.5 0.375
vt 0.53125 0.375
vt 0.53125 0.375
vt 0.5 0.375
vt 0.46875 0.375
vt 0.46875 0.375
vt 0.53125 0.40625
vt 0.53125 0.40625
vt 0.5625 0.4375
vt 0.5625 0.4375
vt 0.5625 0.4375
vt 0.5625 0.4375
vt 0.53125 0.46875
vt 0.53125 0.46875
vt 0.5 0.5
vt 0.5 0.5
vt 0.5 0.46875
vt 0.5 0.46875
vt 0.53125 0.46875
vt 0.53125 0.46875
vt 0.53125 0.5
vt 0.53125 0.5
vt 0.53125 0.53125
vt 0.53125 0.53125
vt 0.46875 0.40625
vt 0.46875 0.40625
vt 0.46875 0.375
vt 0.46875 0.375
vt 0.4375 0.40625
vt 0.4375 0.40625
vt 0.46875 0.40625
vt 0.46875 0.40625
vt 0.4375 0.4375
vt 0.4375 0.40625
vt 0.4375 0.40625
vt 0.4375 0.4375
vt 0.46875 0.46875
vt 0.46875 0.46875
vt 0.5 0.46875
vt 0.5 0.46875
vt 0.46875 0.46875
vt 0.46875 0.46875
vt 0.53125 0.53125
vt 0.53125 0.53125
vt 0.5 0.5
vt 0.5 0.5
vn 0.09147383 0.9935538 -0.06695925
vn 0.002358423 0.9965034 -0.08352019
vn 0.09985063 0.9843915 -0.1449248
vn 0.004042908 0.9819343 -0.1891787
vn -0.1462174 0.9727389 -0.1799989
vn -0.1055705 0.9922586 -0.06540437
vn 0.1380142 0.9266458 -0.3496852
vn 0.2206258 0.9055298 -0.3624088
vn 0.1015199 0.8548068 -0.5089195
vn -0.1901997 0.9323214 -0.3075724
vn -0.2617136 0.9320454 -0.2505939
vn -0.2685917 0.9096872 -0.3167454
vn -0.1559003 0.8941341 -0.4197847
vn -0.001975101 0.9313853 -0.3640293
vn 0.04140304 0.8635242 -0.502605
vn 0.09754771 0.7435881 -0.6614841
vn 0.1144751 0.7222608 -0.6820812
vn 0.1337895 0.6286836 -0.7660661
vn -0.09278098 -0.9936253 0.06403576
vn -0.09937547 -0.9847209 0.1430011
vn -0.002543366 -0.9966733 0.08146021
vn -0.004395949 -0.9819013 0.1893424
vn 0.1472638 -0.9725691 0.180063
vn 0.1072681 -0.9922389 0.06289341
vn -0.1381799 -0.9266249 0.3496753
vn -0.220578 -0.90565 0.3621376
vn -0.1024243 -0.8549144 0.5085574
vn 0.1921929 -0.9317168 0.3081648
vn 0.2635154 -0.9312953 0.2514931
vn 0.2692837 -0.90972 0.316063
vn 0.1586902 -0.8940391 0.4189409
vn 0.002362701 -0.9317844 0.3630046
vn -0.04093557 -0.8638459 0.5020903
vn -0.09842251 -0.7412949 0.663924
vn -0.1154298 -0.719986 0.6843217
vn -0.1351298 -0.626287 0.767792
vn 0.9403232 -0.159234 -0.3007272
vn 0.9403232 -0.159234 -0.3007272
vn 0.9403232 -0.159234 -0.3007272
vn 0.9403232 -0.159234 -0.3007273
vn 0.05534136 0.07395711 0.9957247
vn -0.1157046 0.06858085 0.9909133
vn -0.1157046 0.06858084 0.9909133
vn 0.05589352 0.07397102 0.9956928
vn 0.3018799 0.07789247 0.9501586
vn 0.3018799 0.07789246 0.9501586
vn 0.7100725 0.03135706 0.70343
vn 0.7100725 0.03135706 0.7034299
vn 0.7100725 0.03135706 0.70343
vn 0.7100725 0.03135706 0.70343
vn 0.8160251 -0.3847641 -0.4313462
vn 0.8160251 -0.3847641 -0.4313462
vn 0.8160251 -0.3847641 -0.4313462
vn 0.8160251 -0.3847641 -0.4313462
vn -0.9865123 -0.06371346 -0.1507783
vn -0.9865123 -0.06371347 -0.1507783
vn -0.9865123 -0.06371345 -0.1507783
vn -0.9865123 -0.06371346 -0.1507783
vn 0.9902561 -0.1074696 0.08856154
vn 0.9902561 -0.1074696 0.08856154
vn 0.9802929 -0.1975296 -0.002832363
vn 0.9804007 -0.1970011 -0.002286283
vn 0.9580112 -0.2743123 -0.08347124
vn 0.9580112 -0.2743123 -0.08347125
vn -0.9708706 -0.1603347 -0.178054
vn -0.9708706 -0.1603347 -0.178054
vn -0.9708706 -0.1603346 -0.178054
vn -0.9708706 -0.1603347 -0.178054
vn -0.06779654 0.1915715 0.9791343
vn -0.06779654 0.1915715 0.9791343
vn -0.06779654 0.1915715 0.9791343
vn -0.06779654 0.1915715 0.9791343
vn -0.8126091 -0.3895129 -0.4335274
vn -0.9085686 -0.3395522 -0.2433258
vn -0.9085686 -0.3395522 -0.2433258
vn -0.8118876 -0.3897664 -0.4346501
vn -0.6164994 -0.4275782 -0.6611394
vn -0.6164994 -0.4275782 -0.6611394
vn -0.109836 -0.4794782 -0.870653
vn -0.109836 -0.4794781 -0.870653
vn -0.109836 -0.4794781 -0.870653
vn -0.109836 -0.4794782 -0.870653
vn -0.7310246 -0.4377121 -0.5234607
vn -0.7310246 -0.4377121 -0.5234608
vn -0.7310246 -0.4377121 -0.5234607
vn -0.7310246 -0.4377121 -0.5234608
g shard64_0
f 3/3/3 2/2/2 1/1/1
f 3/3/3 4/4/4 2/2/2
f 2/2/2 4/4/4 5/5/5
f 2/2/2 5/5/5 6/6/6
f 7/7/7 4/4/4 3/3/3
f 8/8/8 7/7/7 3/3/3
f 8/8/8 9/9/9 7/7/7
f 4/4/4 10/10/10 5/5/5
f 10/10/10 11/11/11 5/5/5
f 10/10/10 12/12/12 11/11/11
f 13/13/13 12/12/12 10/10/10
f 4/4/4 14/14/14 10/10/10
f 14/14/14 13/13/13 10/10/10
f 7/7/7 14/14/14 4/4/4
f 14/14/14 15/15/15 13/13/13
f 7/7/7 15/15/15 14/14/14
f 7/7/7 9/9/9 15/15/15
f 9/9/9 16/16/16 15/15/15
f 9/9/9 17/17/17 16/16/16
f 18/18/18 16/16/16 17/17/17
f 21/21/21 20/20/20 19/19/19
f 22/22/22 20/20/20 21/21/21
f 22/22/22 21/21/21 23/23/23
f 23/23/23 21/21/21 24/24/24
f 22/22/22 25/25/25 20/20/20
f 25/25/25 26/26/26 20/20/20
f 27/27/27 26/26/26 25/25/25
f 28/28/28 22/22/22 23/23/23
f 29/29/29 28/28/28 23/23/23
f 30/30/30 28/28/28 29/29/29
f 30/30/30 31/31/31 28/28/28
f 32/32/32 22/22/22 28/28/28
f 31/31/31 32/32/32 28/28/28
f 32/32/32 25/25/25 22/22/22
f 33/33/33 32/32/32 31/31/31
f 33/33/33 25/25/25 32/32/32
f 27/27/27 25/25/25 33/33/33
f 34/34/34 27/27/27 33/33/33
f 35/35/35 27/27/27 34/34/34
f 34/34/34 36/36/36 35/35/35
f 39/39/39 38/38/38 37/37/37
f 40/40/40 39/39/39 37/37/37
f 43/43/43 42/42/42 41/41/41
f 42/42/42 44/44/44 41/41/41
f 41/41/41 44/44/44 45/45/45
f 44/44/44 46/46/46 45/45/45
f 49/49/49 48/48/48 47/47/47
f 50/50/50 49/49/49 47/47/47
f 53/53/53 52/52/52 51/51/51
f 54/54/54 53/53/53 51/51/51
f 57/57/57 56/56/56 55/55/55
f 58/58/58 57/57/57 55/55/55
f 61/61/61 60/60/60 59/59/59
f 62/62/62 61/61/61 59/59/59
f 63/63/63 61/61/61 62/62/62
f 64/64/64 63/63/63 62/62/62
f 67/67/67 66/66/66 65/65/65
f 68/68/68 67/67/67 65/65/65
f 71/71/71 70/70/70 69/69/69
f 72/72/72 71/71/71 69/69/69
f 75/75/75 74/74/74 73/73/73
f 74/74/74 76/76/76 73/73/73
f 73/73/73 76/76/76 77/77/77
f 76/76/76 78/78/78 77/77/77
f 81/81/81 80/80/80 79/79/79
f 82/82/82 81/81/81 79/79/79
f 85/85/85 84/84/84 83/83/83
f 86/86/86 85/85/85 83/83/83
