g shard2
v 0.28746724 -0.08068861 -0.31395674
v 0.51744103 -0.1452395 -0.5651221
v 0.40332496 -0.27394107 -0.6094441
v 0.22406943 -0.15218948 -0.33858004
v 0.22406943 -0.15218948 -0.33858004
v 0.40332496 -0.27394107 -0.6094441
v 0.2691772 -0.30862635 -0.6583048
v 0.1495429 -0.1714591 -0.3657249
v 0.1495429 -0.1714591 -0.3657249
v 0.2691772 -0.30862635 -0.6583048
v 0.16856249 -0.305382 -0.6898571
v 0.093645826 -0.16965668 -0.38325396
v 0.093645826 -0.16965668 -0.38325396
v 0.16856249 -0.305382 -0.6898571
v 0.17099637 -0.4113462 -0.6369812
v 0.09499799 -0.22852567 -0.35387844
v 0.09499799 -0.22852567 -0.35387844
v 0.17099637 -0.4113462 -0.6369812
v 0.25417697 -0.42912573 -0.5981525
v 0.14120942 -0.23840319 -0.33230695
v 0.14120942 -0.23840319 -0.33230695
v 0.25417697 -0.42912573 -0.5981525
v 0.12585087 -0.5444496 -0.5494059
v 0.06991715 -0.30247203 -0.3052255
v 0.06991715 -0.30247203 -0.3052255
v 0.12585087 -0.5444496 -0.5494059
v 0.23697998 -0.6059972 -0.42649597
v 0.13165554 -0.3366651 -0.23694222
v 0.13165554 -0.3366651 -0.23694222
v 0.23697998 -0.6059972 -0.42649597
v 0.36626625 -0.5447848 -0.4220106
v 0.20348124 -0.30265823 -0.23445034
v 0.20348124 -0.30265823 -0.23445034
v 0.36626625 -0.5447848 -0.4220106
v 0.51365244 -0.46680433 -0.35425228
v 0.28536245 -0.25933573 -0.19680683
v 0.28536245 -0.25933573 -0.19680683
v 0.51365244 -0.46680433 -0.35425228
v 0.55365795 -0.36756188 -0.41024053
v 0.30758774 -0.20420104 -0.2279114
v 0.30758774 -0.20420104 -0.2279114
v 0.55365795 -0.36756188 -0.41024053
v 0.6166313 -0.2649125 -0.39499164
v 0.34257296 -0.1471736 -0.21943979
v 0.34257296 -0.1471736 -0.21943979
v 0.6166313 -0.2649125 -0.39499164
v 0.63620716 -0.13677946 -0.43188697
v 0.35344842 -0.07598859 -0.2399372
v 0.35344842 -0.07598859 -0.2399372
v 0.63620716 -0.13677946 -0.43188697
v 0.51744103 -0.1452395 -0.5651221
v 0.28746724 -0.08068861 -0.31395674
vt 0 0
vt 0 1
vt 0.094645455 1
vt 0.094645455 0
vt 0.094645455 0
vt 0.094645455 1
vt 0.1729307 1
vt 0.1729307 0
vt 0.1729307 0
vt 0.1729307 1
vt 0.22914271 1
vt 0.22914271 0
vt 0.22914271 0
vt 0.22914271 1
vt 0.29225662 1
vt 0.29225662 0
vt 0.29225662 0
vt 0.29225662 1
vt 0.34207827 1
vt 0.34207827 0
vt 0.34207827 0
vt 0.34207827 1
vt 0.43760815 1
vt 0.43760815 0
vt 0.43760815 0
vt 0.43760815 1
vt 0.53179294 1
vt 0.53179294 0
vt 0.53179294 0
vt 0.53179294 1
vt 0.6080499 1
vt 0.6080499 0
vt 0.6080499 0
vt 0.6080499 1
vt 0.70395267 1
vt 0.70395267 0
vt 0.70395267 0
vt 0.70395267 1
vt 0.76830053 1
vt 0.76830053 0
vt 0.76830053 0
vt 0.76830053 1
vt 0.83298045 1
vt 0.83298045 0
vt 0.83298045 0
vt 0.83298045 1
vt 0.9047899 1
vt 0.9047899 0
vt 0.9047899 0
vt 0.9047899 1
vt 1 1
vt 1 0
vn 0.48152298 -0.6349882 0.60409075
vn 0.48152298 -0.6349882 0.6040908
vn 0.48152298 -0.6349881 0.60409075
vn 0.481523 -0.6349882 0.60409075
vn 0.06819147 -0.892321 0.44622102
vn 0.06819147 -0.892321 0.44622102
vn 0.068191476 -0.89232093 0.44622105
vn 0.06819147 -0.892321 0.44622102
vn -0.14575642 -0.9173381 0.37046713
vn -0.14575644 -0.9173381 0.37046716
vn -0.14575644 -0.9173381 0.37046716
vn -0.14575644 -0.9173381 0.37046713
vn 0.9754937 0.115772165 0.18710679
vn 0.9754937 0.115772165 0.18710679
vn 0.9754937 0.11577216 0.18710674
vn 0.9754937 0.115772165 0.18710679
vn 0.3759476 0.82116365 -0.4293642
vn 0.3759476 0.82116365 -0.42936423
vn 0.37594762 0.82116365 -0.4293642
vn 0.3759476 0.82116365 -0.4293642
vn 0.6463537 -0.46278974 0.60667336
vn 0.64635366 -0.46278977 0.6066733
vn 0.6463536 -0.4627898 0.6066733
vn 0.6463536 -0.4627898 0.6066733
vn 0.7349362 0.55830604 -0.38491973
vn 0.7349362 0.558306 -0.38491967
vn 0.7349362 0.55830604 -0.38491967
vn 0.7349361 0.55830604 -0.38491967
vn -0.21065317 0.50619936 -0.8362939
vn -0.21065317 0.50619936 -0.8362939
vn -0.21065317 0.5061993 -0.8362939
vn -0.2106532 0.5061993 -0.8362939
vn 0.02872722 0.6241391 -0.780785
vn 0.02872722 0.6241391 -0.780785
vn 0.028727219 0.6241391 -0.780785
vn 0.02872722 0.6241391 -0.780785
vn -0.6526096 -0.15530926 -0.7416061
vn -0.6526096 -0.15530926 -0.7416062
vn -0.6526095 -0.15530924 -0.7416062
vn -0.6526096 -0.15530927 -0.7416062
vn -0.38687032 0.3632473 -0.8475747
vn -0.38687032 0.36324733 -0.84757465
vn -0.38687032 0.36324733 -0.84757465
vn -0.3868703 0.3632473 -0.84757465
vn -0.57677513 -0.14345033 -0.8042092
vn -0.5767751 -0.14345035 -0.8042092
vn -0.57677513 -0.14345035 -0.8042092
vn -0.5767751 -0.14345032 -0.8042092
vn -0.10517223 -0.98212403 0.15611278
vn -0.105172224 -0.98212403 0.15611279
vn -0.105172224 -0.98212403 0.15611278
vn -0.10517223 -0.98212403 0.15611279
g shard2_0
f 3/3/3 2/2/2 1/1/1
f 4/4/4 3/3/3 1/1/1
f 7/7/7 6/6/6 5/5/5
f 8/8/8 7/7/7 5/5/5
f 11/11/11 10/10/10 9/9/9
f 12/12/12 11/11/11 9/9/9
f 15/15/15 14/14/14 13/13/13
f 16/16/16 15/15/15 13/13/13
f 19/19/19 18/18/18 17/17/17
f 20/20/20 19/19/19 17/17/17
f 23/23/23 22/22/22 21/21/21
f 24/24/24 23/23/23 21/21/21
f 27/27/27 26/26/26 25/25/25
f 28/28/28 27/27/27 25/25/25
f 31/31/31 30/30/30 29/29/29
f 32/32/32 31/31/31 29/29/29
f 35/35/35 34/34/34 33/33/33
f 36/36/36 35/35/35 33/33/33
f 39/39/39 38/38/38 37/37/37
f 40/40/40 39/39/39 37/37/37
f 43/43/43 42/42/42 41/41/41
f 44/44/44 43/43/43 41/41/41
f 47/47/47 46/46/46 45/45/45
f 48/48/48 47/47/47 45/45/45
f 51/51/51 50/50/50 49/49/49
f 52/52/52 51/51/51 49/49/49
