g shard26
v 0.2211833 -0.1693198 0.3311838
v 0.1534355 -0.1429129 0.3749974
v 0.153187 -0.08326086 0.3915955
v 0.2765976 -0.1382576 0.3037843
v 0.3156702 -0.0668846 0.2895797
v 0.3147012 0.0003695495 0.301506
v 0.1595781 0.007576574 0.397282
v 0.2569036 0.06239308 0.3418583
v 0.294827 0.09505679 0.3034139
v 0.3981299 -0.3047756 0.5961308
v 0.276184 -0.2572432 0.6749953
v 0.2757365 -0.1498695 0.704872
v 0.4978756 -0.2488637 0.5468118
v 0.5682063 -0.1203923 0.5212435
v 0.5664621 0.0006651891 0.5427108
v 0.2872405 0.01363783 0.7151076
v 0.4624265 0.1123075 0.6153449
v 0.5306885 0.1711022 0.546145
v 0.1534355 -0.1429129 0.3749974
v 0.276184 -0.2572432 0.6749953
v 0.3981299 -0.3047756 0.5961308
v 0.2211833 -0.1693198 0.3311838
v 0.4978756 -0.2488637 0.5468118
v 0.2765976 -0.1382576 0.3037843
v 0.5682063 -0.1203923 0.5212435
v 0.3156702 -0.0668846 0.2895797
v 0.153187 -0.08326086 0.3915955
v 0.2757365 -0.1498695 0.704872
v 0.1595781 0.007576574 0.397282
v 0.2872405 0.01363783 0.7151076
v 0.2569036 0.06239308 0.3418583
v 0.4624265 0.1123075 0.6153449
v 0.5306885 0.1711022 0.546145
v 0.294827 0.09505679 0.3034139
vt 0 0
vt 0.1142995 0
vt 0.1976671 0
vt 0.9068513 0
vt 0.7956401 0
vt 0.7036667 0
vt 0.3205122 0
vt 0.4884024 0
vt 0.5733761 0
vt 0 1
vt 0.1142995 1
vt 0.1976671 1
vt 0.9068513 1
vt 0.7956401 1
vt 0.7036667 1
vt 0.3205122 1
vt 0.4884024 1
vt 0.5733761 1
vt 0.1142995 0
vt 0.1142995 1
vt 1 1
vt 1 0
vt 0.9068513 1
vt 0.9068513 0
vt 0.7956401 1
vt 0.7956401 0
vt 0.1976671 0
vt 0.1976671 1
vt 0.3205122 0
vt 0.3205122 1
vt 0.4884024 0
vt 0.4884024 1
vt 0.5733761 1
vt 0.5733761 0
vn 0.4440315 0.8825613 0.1546656
vn 0.4440315 0.8825613 0.1546656
vn 0.9336513 0.09962235 -0.3440502
vn -0.1891054 0.8173759 0.5441836
vn -0.5531719 0.4432137 0.705381
vn -0.6852254 -0.1367328 0.7153812
vn 0.9273985 -0.04198025 -0.3717117
vn 0.4184416 -0.895604 -0.1509973
vn -0.6830495 -0.1577363 0.7131359
vn 0.4440315 0.8825613 0.1546656
vn 0.4440315 0.8825613 0.1546656
vn 0.9336513 0.09962236 -0.3440502
vn -0.1891054 0.8173759 0.5441836
vn -0.5531719 0.4432137 0.705381
vn -0.6852254 -0.1367328 0.7153811
vn 0.9273985 -0.04198024 -0.3717117
vn 0.4184415 -0.895604 -0.1509972
vn -0.6830494 -0.1577363 0.7131359
vn 0.9336513 0.09962235 -0.3440501
vn 0.9336513 0.09962235 -0.3440502
vn -0.1891054 0.8173759 0.5441836
vn -0.1891054 0.817376 0.5441836
vn -0.5531719 0.4432137 0.705381
vn -0.5531719 0.4432138 0.705381
vn -0.6852254 -0.1367328 0.7153812
vn -0.6852254 -0.1367328 0.7153811
vn 0.9273985 -0.04198025 -0.3717117
vn 0.9273985 -0.04198025 -0.3717117
vn 0.4184415 -0.895604 -0.1509973
vn 0.4184416 -0.895604 -0.1509972
vn 0.4979806 -0.8385044 -0.2211915
vn 0.4979806 -0.8385044 -0.2211915
vn 0.4979806 -0.8385044 -0.2211915
vn 0.4979806 -0.8385044 -0.2211915
g shard26_0
f 11/11/11 10/10/10 1/1/1
f 2/2/2 11/11/11 1/1/1
f 12/12/12 20/20/20 19/19/19
f 3/3/3 12/12/12 19/19/19
f 21/21/21 13/13/13 4/4/4
f 22/22/22 21/21/21 4/4/4
f 23/23/23 14/14/14 5/5/5
f 24/24/24 23/23/23 5/5/5
f 26/26/26 25/25/25 6/6/6
f 25/25/25 15/15/15 6/6/6
f 6/6/6 15/15/15 9/9/9
f 15/15/15 18/18/18 9/9/9
f 16/16/16 28/28/28 27/27/27
f 7/7/7 16/16/16 27/27/27
f 17/17/17 30/30/30 29/29/29
f 8/8/8 17/17/17 29/29/29
f 33/33/33 32/32/32 31/31/31
f 34/34/34 33/33/33 31/31/31
