g shard8
v -0.07261543 0.1604257 0.39087665
v -0.13070777 0.28876626 0.703578
v -0.26977122 0.31705654 0.65394884
v -0.1498729 0.17614251 0.3633049
v 0.01649933 0.23254666 0.36314672
v 0.029698793 0.418584 0.6536641
v -0.13070777 0.28876626 0.703578
v -0.07261543 0.1604257 0.39087665
v -0.010218853 0.31928802 0.29404736
v -0.018393936 0.5747184 0.52928525
v 0.029698793 0.418584 0.6536641
v 0.01649933 0.23254666 0.36314672
v -0.1498729 0.17614251 0.3633049
v -0.26977122 0.31705654 0.65394884
v -0.39948282 0.26517808 0.6138185
v -0.2219349 0.14732116 0.3410103
v -0.2219349 0.14732116 0.3410103
v -0.39948282 0.26517808 0.6138185
v -0.38202137 0.36256498 0.57486385
v -0.2122341 0.201425 0.3193688
v -0.2122341 0.201425 0.3193688
v -0.38202137 0.36256498 0.57486385
v -0.35835862 0.47476077 0.5058165
v -0.19908813 0.26375598 0.28100917
v -0.19908813 0.26375598 0.28100917
v -0.35835862 0.47476077 0.5058165
v -0.37005907 0.56476927 0.3946069
v -0.20558837 0.3137607 0.21922605
v -0.24784772 0.32413644 0.14501053
v -0.4461259 0.58344555 0.26101896
v -0.2723644 0.67005694 0.2787789
v -0.15131356 0.37225387 0.15487717
v -0.20558837 0.3137607 0.21922605
v -0.37005907 0.56476927 0.3946069
v -0.4461259 0.58344555 0.26101896
v -0.24784772 0.32413644 0.14501053
v -0.0011723296 0.35030112 0.2554046
v -0.0021101935 0.63054204 0.45972827
v -0.018393936 0.5747184 0.52928525
v -0.010218853 0.31928802 0.29404736
v -0.060542442 0.35580817 0.23826493
v -0.108976394 0.6404547 0.42887688
v -0.0021101935 0.63054204 0.45972827
v -0.0011723296 0.35030112 0.2554046
v -0.08466657 0.38918042 0.16059752
v -0.15239984 0.70052475 0.28907555
v -0.108976394 0.6404547 0.42887688
v -0.060542442 0.35580817 0.23826493
v -0.14712515 0.39217573 0.08540479
v -0.26482528 0.7059163 0.15372863
v -0.15239984 0.70052475 0.28907555
v -0.08466657 0.38918042 0.16059752
v -0.15131356 0.37225387 0.15487717
v -0.2723644 0.67005694 0.2787789
v -0.26482528 0.7059163 0.15372863
v -0.14712515 0.39217573 0.08540479
vt 0 0
vt 0 1
vt 0.07112345 1
vt 0.07112345 0
vt 0.07112345 0
vt 0.07112345 1
vt 0.17156273 1
vt 0.17156273 0
vt 0.17156273 0
vt 0.17156273 1
vt 0.2687019 1
vt 0.2687019 0
vt 0.9312366 0
vt 0.9312366 1
vt 1 1
vt 1 0
vt 0.8809324 0
vt 0.8809324 1
vt 0.9312366 1
vt 0.9312366 0
vt 0.8176108 0
vt 0.8176108 1
vt 0.8809324 1
vt 0.8809324 0
vt 0.7497005 0
vt 0.7497005 1
vt 0.8176108 1
vt 0.8176108 0
vt 0.5842066 0
vt 0.5842066 1
vt 0.67643994 1
vt 0.67643994 0
vt 0.67643994 0
vt 0.67643994 1
vt 0.7497005 1
vt 0.7497005 0
vt 0.2687019 0
vt 0.2687019 1
vt 0.31159273 1
vt 0.31159273 0
vt 0.31159273 0
vt 0.31159273 1
vt 0.36442268 1
vt 0.36442268 0
vt 0.36442268 0
vt 0.36442268 1
vt 0.43928143 1
vt 0.43928143 0
vt 0.43928143 0
vt 0.43928143 1
vt 0.5225596 1
vt 0.5225596 0
vt 0.5225596 0
vt 0.5225596 1
vt 0.5842066 1
vt 0.5842066 0
vn 0.2959069 0.9017403 -0.31512472
vn 0.29590687 0.9017403 -0.31512466
vn 0.2959069 0.9017403 -0.3151247
vn 0.2959069 0.9017403 -0.31512472
vn -0.64967376 0.6532622 -0.388809
vn -0.64967376 0.6532622 -0.388809
vn -0.6496738 0.6532622 -0.38880906
vn -0.6496738 0.6532622 -0.388809
vn -0.9720995 -0.17498131 0.15621871
vn -0.9720995 -0.17498131 0.1562187
vn -0.97209936 -0.17498131 0.1562187
vn -0.9720995 -0.17498131 0.1562187
vn -0.18860851 0.85087776 -0.4903405
vn -0.1886085 0.8508778 -0.4903404
vn -0.18860851 0.85087776 -0.4903405
vn -0.18860851 0.85087776 -0.4903405
vn 0.8480744 0.05859116 0.5266279
vn 0.8480744 0.058591153 0.5266279
vn 0.8480744 0.058591153 0.5266279
vn 0.8480744 0.058591146 0.52662784
vn 0.86051375 0.12278146 0.4944096
vn 0.86051375 0.12278146 0.4944096
vn 0.86051375 0.12278144 0.49440947
vn 0.86051375 0.12278145 0.4944096
vn 0.88030225 0.409786 0.23904678
vn 0.88030225 0.40978602 0.23904684
vn 0.88030225 0.409786 0.23904678
vn 0.88030225 0.40978602 0.23904681
vn 0.081464864 -0.3544476 0.93152046
vn 0.08146486 -0.35444757 0.93152046
vn 0.08146486 -0.35444757 0.93152046
vn 0.08146486 -0.35444754 0.93152046
vn 0.688448 0.66048115 -0.2996732
vn 0.688448 0.6604812 -0.29967323
vn 0.6884481 0.66048115 -0.2996732
vn 0.68844795 0.6604812 -0.2996732
vn -0.98367864 0.103844814 -0.14694394
vn -0.98367864 0.10384481 -0.14694394
vn -0.98367864 0.10384481 -0.14694396
vn -0.98367864 0.103844814 -0.14694393
vn -0.27661398 -0.5667538 0.77606374
vn -0.27661398 -0.5667538 0.77606374
vn -0.27661398 -0.56675375 0.77606374
vn -0.276614 -0.56675375 0.7760637
vn -0.9448064 -0.2774488 0.17424992
vn -0.9448064 -0.27744883 0.1742499
vn -0.9448064 -0.27744883 0.17424992
vn -0.9448064 -0.27744883 0.17424992
vn -0.7146755 -0.39397225 0.5779488
vn -0.7146755 -0.39397225 0.5779488
vn -0.7146754 -0.39397222 0.5779488
vn -0.7146755 -0.39397225 0.5779488
vn 0.9361467 0.31898558 0.14791131
vn 0.9361467 0.31898558 0.1479113
vn 0.93614656 0.31898555 0.1479113
vn 0.9361467 0.31898558 0.14791131
g shard8_0
f 3/3/3 2/2/2 1/1/1
f 4/4/4 3/3/3 1/1/1
f 7/7/7 6/6/6 5/5/5
f 8/8/8 7/7/7 5/5/5
f 11/11/11 10/10/10 9/9/9
f 12/12/12 11/11/11 9/9/9
f 15/15/15 14/14/14 13/13/13
f 16/16/16 15/15/15 13/13/13
f 19/19/19 18/18/18 17/17/17
f 20/20/20 19/19/19 17/17/17
f 23/23/23 22/22/22 21/21/21
f 24/24/24 23/23/23 21/21/21
f 27/27/27 26/26/26 25/25/25
f 28/28/28 27/27/27 25/25/25
f 31/31/31 30/30/30 29/29/29
f 32/32/32 31/31/31 29/29/29
f 35/35/35 34/34/34 33/33/33
f 36/36/36 35/35/35 33/33/33
f 39/39/39 38/38/38 37/37/37
f 40/40/40 39/39/39 37/37/37
f 43/43/43 42/42/42 41/41/41
f 44/44/44 43/43/43 41/41/41
f 47/47/47 46/46/46 45/45/45
f 48/48/48 47/47/47 45/45/45
f 51/51/51 50/50/50 49/49/49
f 52/52/52 51/51/51 49/49/49
f 55/55/55 54/54/54 53/53/53
f 56/56/56 55/55/55 53/53/53
