g shard59
v 0.1562871 0.05756476 0.05942371
v 0.2407361 0.07926877 0.03991133
v 0.2344632 -0.01337104 0.03387451
v 0.1844996 -0.02386557 0.04487652
v 0.0880248 -0.005775586 0.06021178
v 0.234498 -0.07514811 0.01691693
v 0.1437969 -0.1054183 0.02916557
v 0.06382492 0.0814994 0.06597096
v 0.1613855 0.1522119 0.05404481
v -0.02761018 0.0572807 0.05506194
v 0.07731017 -0.1115394 0.03316972
v 0.08054972 -0.1725131 0.003616184
v -0.009837978 -0.1696561 -0.004321605
v 0.004566155 -0.09305035 0.03336149
v -0.08535224 -0.1022132 0.006251097
v -0.0227977 -0.02390081 0.0471631
v -0.08672261 -0.005220219 0.03366309
v -0.1164016 0.08598746 0.02804202
v -0.1656113 -0.005421743 -0.002537012
v -0.1672108 0.09321237 0.001626194
v -0.2407361 0.08119954 -0.04967326
v -0.2230684 0.132129 -0.04310238
v -0.1869848 0.1725131 -0.02291122
v 0.1529785 0.05779963 0.03981289
v 0.2294281 -0.01001305 0.01490122
v 0.2358192 0.08082438 0.02058768
v 0.1806331 -0.01997241 0.02564389
v 0.08770838 -0.00262212 0.04046449
v 0.2296767 -0.06966509 -0.001696944
v 0.1406188 -0.09821415 0.0108839
v 0.06391484 0.08188332 0.0461095
v 0.1596852 0.151126 0.03414682
v -0.02363361 0.05860872 0.03563008
v 0.07733791 -0.1045157 0.01444364
v 0.08054834 -0.1638286 -0.01430282
v -0.006638907 -0.1613166 -0.02216122
v 0.007526688 -0.08658932 0.01466683
v -0.07907942 -0.09572145 -0.01145363
v -0.01920806 -0.02007455 0.0278635
v -0.08006996 -0.00203751 0.01507244
v -0.1087161 0.08682648 0.009679854
v -0.1559268 -0.002466798 -0.01956233
v -0.156802 0.09255382 -0.01531735
v -0.2292461 0.08062539 -0.06597096
v -0.2114972 0.1300389 -0.05928037
v -0.1754651 0.1703203 -0.03911272
v -0.006638907 -0.1613166 -0.02216122
v -0.009837978 -0.1696561 -0.004321605
v 0.08054972 -0.1725131 0.003616184
v 0.08054834 -0.1638286 -0.01430282
v -0.07907942 -0.09572145 -0.01145363
v -0.009837978 -0.1696561 -0.004321605
v -0.006638907 -0.1613166 -0.02216122
v -0.08535224 -0.1022132 0.006251097
v -0.1559268 -0.002466798 -0.01956233
v -0.1656113 -0.005421743 -0.002537012
v -0.2292461 0.08062539 -0.06597096
v -0.2407361 0.08119954 -0.04967326
v 0.06391484 0.08188332 0.0461095
v -0.02761018 0.0572807 0.05506194
v -0.02363361 0.05860872 0.03563008
v 0.06382492 0.0814994 0.06597096
v 0.1596852 0.151126 0.03414682
v 0.1613855 0.1522119 0.05404481
v -0.02363361 0.05860872 0.03563008
v -0.02761018 0.0572807 0.05506194
v -0.1164016 0.08598746 0.02804202
v -0.1087161 0.08682648 0.009679854
v -0.1672108 0.09321237 0.001626194
v -0.156802 0.09255382 -0.01531735
v 0.08054834 -0.1638286 -0.01430282
v 0.08054972 -0.1725131 0.003616184
v 0.1437969 -0.1054183 0.02916557
v 0.1406188 -0.09821415 0.0108839
v 0.1406188 -0.09821415 0.0108839
v 0.1437969 -0.1054183 0.02916557
v 0.234498 -0.07514811 0.01691693
v 0.2296767 -0.06966509 -0.001696944
v 0.2296767 -0.06966509 -0.001696944
v 0.234498 -0.07514811 0.01691693
v 0.2344632 -0.01337104 0.03387451
v 0.2294281 -0.01001305 0.01490122
v 0.2407361 0.07926877 0.03991133
v 0.2358192 0.08082438 0.02058768
v 0.2358192 0.08082438 0.02058768
v 0.2407361 0.07926877 0.03991133
v 0.1562871 0.05756476 0.05942371
v 0.1529785 0.05779963 0.03981289
v 0.1529785 0.05779963 0.03981289
v 0.1562871 0.05756476 0.05942371
v 0.1613855 0.1522119 0.05404481
v 0.1596852 0.151126 0.03414682
v -0.2114972 0.1300389 -0.05928037
v -0.2407361 0.08119954 -0.04967326
v -0.2292461 0.08062539 -0.06597096
v -0.2230684 0.132129 -0.04310238
v -0.1754651 0.1703203 -0.03911272
v -0.1869848 0.1725131 -0.02291122
v -0.156802 0.09255382 -0.01531735
v -0.1672108 0.09321237 0.001626194
v -0.1869848 0.1725131 -0.02291122
v -0.1754651 0.1703203 -0.03911272
vt 0.53125 0.125
vt 0.5625 0.125
vt 0.5625 0.09375
vt 0.53125 0.09375
vt 0.5 0.09375
vt 0.5625 0.0625
vt 0.53125 0.0625
vt 0.5 0.125
vt 0.53125 0.15625
vt 0.46875 0.125
vt 0.5 0.0625
vt 0.5 0.03125
vt 0.46875 0.03125
vt 0.46875 0.0625
vt 0.4375 0.0625
vt 0.46875 0.09375
vt 0.4375 0.09375
vt 0.4375 0.125
vt 0.40625 0.09375
vt 0.40625 0.125
vt 0.375 0.125
vt 0.375 0.15625
vt 0.40625 0.15625
vt 0.53125 0.125
vt 0.5625 0.09375
vt 0.5625 0.125
vt 0.53125 0.09375
vt 0.5 0.09375
vt 0.5625 0.0625
vt 0.53125 0.0625
vt 0.5 0.125
vt 0.53125 0.15625
vt 0.46875 0.125
vt 0.5 0.0625
vt 0.5 0.03125
vt 0.46875 0.03125
vt 0.46875 0.0625
vt 0.4375 0.0625
vt 0.46875 0.09375
vt 0.4375 0.09375
vt 0.4375 0.125
vt 0.40625 0.09375
vt 0.40625 0.125
vt 0.375 0.125
vt 0.375 0.15625
vt 0.40625 0.15625
vt 0.46875 0.03125
vt 0.46875 0.03125
vt 0.5 0.03125
vt 0.5 0.03125
vt 0.4375 0.0625
vt 0.46875 0.03125
vt 0.46875 0.03125
vt 0.4375 0.0625
vt 0.40625 0.09375
vt 0.40625 0.09375
vt 0.375 0.125
vt 0.375 0.125
vt 0.5 0.125
vt 0.46875 0.125
vt 0.46875 0.125
vt 0.5 0.125
vt 0.53125 0.15625
vt 0.53125 0.15625
vt 0.46875 0.125
vt 0.46875 0.125
vt 0.4375 0.125
vt 0.4375 0.125
vt 0.40625 0.125
vt 0.40625 0.125
vt 0.5 0.03125
vt 0.5 0.03125
vt 0.53125 0.0625
vt 0.53125 0.0625
vt 0.53125 0.0625
vt 0.53125 0.0625
vt 0.5625 0.0625
vt 0.5625 0.0625
vt 0.5625 0.0625
vt 0.5625 0.0625
vt 0.5625 0.09375
vt 0.5625 0.09375
vt 0.5625 0.125
vt 0.5625 0.125
vt 0.5625 0.125
vt 0.5625 0.125
vt 0.53125 0.125
vt 0.53125 0.125
vt 0.53125 0.125
vt 0.53125 0.125
vt 0.53125 0.15625
vt 0.53125 0.15625
vt 0.375 0.15625
vt 0.375 0.125
vt 0.375 0.125
vt 0.375 0.15625
vt 0.40625 0.15625
vt 0.40625 0.15625
vt 0.40625 0.125
vt 0.40625 0.125
vt 0.40625 0.15625
vt 0.40625 0.15625
vn 0.1307815 -0.04400069 0.9904343
vn 0.2437616 -0.07949186 0.966572
vn 0.246125 -0.1351915 0.9597633
vn 0.1751283 -0.200633 0.9638862
vn 0.01165107 -0.1581855 0.9873407
vn 0.2317105 -0.2817309 0.9310951
vn 0.1225849 -0.2826953 0.9513445
vn -0.005839481 -0.04217927 0.9990929
vn 0.08393282 0.05203207 0.995112
vn -0.1786159 -0.08294681 0.9804164
vn -0.008394439 -0.335256 0.9420896
vn -0.04204194 -0.4375828 0.8981946
vn -0.1604085 -0.4143527 0.8958689
vn -0.1456428 -0.3171901 0.9371118
vn -0.2925189 -0.3064727 0.9058185
vn -0.166291 -0.1896303 0.9676712
vn -0.3437308 -0.1619574 0.9249968
vn -0.392577 -0.05483468 0.918083
vn -0.4619609 -0.1196498 0.8787923
vn -0.5400593 -0.01162135 0.8415467
vn -0.5731367 0.008704249 0.8194136
vn -0.577451 0.1021558 0.810009
vn -0.5745909 0.1077622 0.8113154
vn -0.1318021 0.04289661 -0.9903474
vn -0.2468003 0.1352484 -0.9595819
vn -0.2458447 0.0777804 -0.9661835
vn -0.1766206 0.2013999 -0.9634538
vn -0.01126603 0.1582933 -0.9873279
vn -0.232936 0.282155 -0.9306607
vn -0.1231659 0.2820988 -0.9514465
vn 0.005124289 0.04133745 -0.9991321
vn -0.08501861 -0.0542931 -0.9948991
vn 0.1790536 0.08353101 -0.9802869
vn 0.009819018 0.3360238 -0.9418022
vn 0.04396977 0.4376387 -0.8980751
vn 0.1600545 0.4148544 -0.8957
vn 0.145356 0.317536 -0.9370392
vn 0.2908232 0.3072847 -0.9060894
vn 0.1660792 0.1897425 -0.9676856
vn 0.343018 0.161106 -0.9254099
vn 0.3913103 0.0543085 -0.9186549
vn 0.4619282 0.1180493 -0.8790259
vn 0.5411819 0.008948969 -0.8408579
vn 0.5742093 -0.01100648 -0.8186346
vn 0.5786505 -0.1043375 -0.8088741
vn 0.5759817 -0.1096415 -0.8100764
vn 0.0108559 -0.9032217 -0.4290369
vn 0.0108559 -0.9032217 -0.4290369
vn 0.0108559 -0.9032217 -0.4290369
vn 0.0108559 -0.9032217 -0.4290369
vn -0.650494 -0.6107578 -0.4514779
vn -0.6357505 -0.6373923 -0.4353761
vn -0.6357505 -0.6373923 -0.4353761
vn -0.6504893 -0.6107666 -0.4514728
vn -0.6150253 -0.6553919 -0.4384123
vn -0.6149744 -0.6554585 -0.438384
vn -0.5630942 -0.7180218 -0.4091082
vn -0.5630942 -0.7180218 -0.4091082
vn -0.450624 0.8926305 0.01219838
vn -0.2581595 0.96598 0.01536861
vn -0.2581595 0.96598 0.01536862
vn -0.449688 0.8931022 0.01221591
vn -0.5856023 0.8105439 0.009410108
vn -0.5856023 0.8105439 0.00941011
vn 0.2699592 0.9529398 0.1379412
vn 0.2699592 0.9529398 0.1379412
vn 0.2081214 0.9720898 0.1082907
vn 0.2079241 0.9721426 0.108196
vn 0.1006394 0.9933085 0.05665557
vn 0.1006394 0.9933085 0.05665557
vn 0.7519888 -0.5767448 -0.3191838
vn 0.7519887 -0.5767449 -0.3191838
vn 0.7519887 -0.5767449 -0.3191838
vn 0.7519887 -0.5767449 -0.3191838
vn 0.2442852 -0.8994914 -0.3622705
vn 0.2442853 -0.8994914 -0.3622706
vn 0.2442852 -0.8994914 -0.3622705
vn 0.2442852 -0.8994914 -0.3622705
vn 0.9688645 0.06804544 -0.2380576
vn 0.9688645 0.06804544 -0.2380577
vn 0.9682758 -0.002191731 -0.2498742
vn 0.968277 -0.002163688 -0.2498698
vn 0.9650496 -0.05017492 -0.2572192
vn 0.9650496 -0.05017492 -0.2572192
vn -0.2366707 0.9669863 0.09446985
vn -0.2366707 0.9669863 0.09446987
vn -0.2366707 0.9669863 0.09446986
vn -0.2366707 0.9669863 0.09446986
vn 0.9898489 -0.06945061 -0.1239992
vn 0.9898489 -0.0694506 -0.1239992
vn 0.9898489 -0.06945059 -0.1239992
vn 0.9898489 -0.0694506 -0.1239992
vn -0.6523497 0.5441014 -0.5276302
vn -0.7532896 0.3402615 -0.5628291
vn -0.7532897 0.3402615 -0.5628291
vn -0.6522653 0.5442366 -0.527595
vn -0.5280178 0.7072527 -0.4700966
vn -0.5280178 0.7072527 -0.4700966
vn 0.7955205 0.3474371 0.4964218
vn 0.7955205 0.3474371 0.4964218
vn 0.7955204 0.3474371 0.4964218
vn 0.7955205 0.3474371 0.4964218
g shard59_0
f 3/3/3 2/2/2 1/1/1
f 3/3/3 1/1/1 4/4/4
f 1/1/1 5/5/5 4/4/4
f 6/6/6 3/3/3 4/4/4
f 6/6/6 4/4/4 7/7/7
f 7/7/7 4/4/4 5/5/5
f 1/1/1 8/8/8 5/5/5
f 9/9/9 8/8/8 1/1/1
f 5/5/5 8/8/8 10/10/10
f 7/7/7 5/5/5 11/11/11
f 7/7/7 11/11/11 12/12/12
f 11/11/11 13/13/13 12/12/12
f 11/11/11 14/14/14 13/13/13
f 5/5/5 14/14/14 11/11/11
f 13/13/13 14/14/14 15/15/15
f 5/5/5 16/16/16 14/14/14
f 5/5/5 10/10/10 16/16/16
f 16/16/16 15/15/15 14/14/14
f 10/10/10 17/17/17 16/16/16
f 16/16/16 17/17/17 15/15/15
f 10/10/10 18/18/18 17/17/17
f 15/15/15 17/17/17 19/19/19
f 18/18/18 19/19/19 17/17/17
f 18/18/18 20/20/20 19/19/19
f 19/19/19 20/20/20 21/21/21
f 20/20/20 22/22/22 21/21/21
f 20/20/20 23/23/23 22/22/22
f 26/26/26 25/25/25 24/24/24
f 24/24/24 25/25/25 27/27/27
f 28/28/28 24/24/24 27/27/27
f 25/25/25 29/29/29 27/27/27
f 27/27/27 29/29/29 30/30/30
f 27/27/27 30/30/30 28/28/28
f 31/31/31 24/24/24 28/28/28
f 31/31/31 32/32/32 24/24/24
f 31/31/31 28/28/28 33/33/33
f 28/28/28 30/30/30 34/34/34
f 34/34/34 30/30/30 35/35/35
f 36/36/36 34/34/34 35/35/35
f 37/37/37 34/34/34 36/36/36
f 37/37/37 28/28/28 34/34/34
f 37/37/37 36/36/36 38/38/38
f 39/39/39 28/28/28 37/37/37
f 33/33/33 28/28/28 39/39/39
f 38/38/38 39/39/39 37/37/37
f 40/40/40 33/33/33 39/39/39
f 40/40/40 39/39/39 38/38/38
f 41/41/41 33/33/33 40/40/40
f 40/40/40 38/38/38 42/42/42
f 42/42/42 41/41/41 40/40/40
f 43/43/43 41/41/41 42/42/42
f 43/43/43 42/42/42 44/44/44
f 45/45/45 43/43/43 44/44/44
f 46/46/46 43/43/43 45/45/45
f 49/49/49 48/48/48 47/47/47
f 50/50/50 49/49/49 47/47/47
f 53/53/53 52/52/52 51/51/51
f 52/52/52 54/54/54 51/51/51
f 51/51/51 54/54/54 55/55/55
f 54/54/54 56/56/56 55/55/55
f 55/55/55 56/56/56 57/57/57
f 56/56/56 58/58/58 57/57/57
f 61/61/61 60/60/60 59/59/59
f 60/60/60 62/62/62 59/59/59
f 59/59/59 62/62/62 63/63/63
f 62/62/62 64/64/64 63/63/63
f 67/67/67 66/66/66 65/65/65
f 68/68/68 67/67/67 65/65/65
f 69/69/69 67/67/67 68/68/68
f 70/70/70 69/69/69 68/68/68
f 73/73/73 72/72/72 71/71/71
f 74/74/74 73/73/73 71/71/71
f 77/77/77 76/76/76 75/75/75
f 78/78/78 77/77/77 75/75/75
f 81/81/81 80/80/80 79/79/79
f 82/82/82 81/81/81 79/79/79
f 83/83/83 81/81/81 82/82/82
f 84/84/84 83/83/83 82/82/82
f 87/87/87 86/86/86 85/85/85
f 88/88/88 87/87/87 85/85/85
f 91/91/91 90/90/90 89/89/89
f 92/92/92 91/91/91 89/89/89
f 95/95/95 94/94/94 93/93/93
f 94/94/94 96/96/96 93/93/93
f 93/93/93 96/96/96 97/97/97
f 96/96/96 98/98/98 97/97/97
f 101/101/101 100/100/100 99/99/99
f 102/102/102 101/101/101 99/99/99
