g shard43
v 0.16012585 0.27759036 -0.2929754
v 0.28822654 0.49966264 -0.52735573
v 0.16476783 0.5426799 -0.53746724
v 0.091537684 0.30148882 -0.29859293
v 0.091537684 0.30148882 -0.29859293
v 0.16476783 0.5426799 -0.53746724
v 0.12119706 0.42492768 -0.641186
v 0.0673317 0.23607093 -0.35621443
v 0.0673317 0.23607093 -0.35621443
v 0.12119706 0.42492768 -0.641186
v 0.14516458 0.32373974 -0.687021
v 0.080646984 0.1798554 -0.38167834
v 0.2136914 0.19929314 -0.31970304
v 0.3846445 0.35872763 -0.57546544
v 0.28822654 0.49966264 -0.52735573
v 0.16012585 0.27759036 -0.2929754
v 0.23817123 0.15834251 -0.32563418
v 0.42870823 0.28501654 -0.5861415
v 0.3846445 0.35872763 -0.57546544
v 0.2136914 0.19929314 -0.31970304
v 0.16216809 0.10095282 -0.38347542
v 0.29190254 0.18171507 -0.69025576
v 0.42870823 0.28501654 -0.5861415
v 0.23817123 0.15834251 -0.32563418
v 0.080646984 0.1798554 -0.38167834
v 0.14516458 0.32373974 -0.687021
v 0.29190254 0.18171507 -0.69025576
v 0.16216809 0.10095282 -0.38347542
vt 0 0
vt 0 1
vt 0.1218244 1
vt 0.1218244 0
vt 0.1218244 0
vt 0.1218244 1
vt 0.27312323 1
vt 0.27312323 0
vt 0.27312323 0
vt 0.27312323 1
vt 0.3787007 1
vt 0.3787007 0
vt 0.8351801 0
vt 0.8351801 1
vt 1 1
vt 1 0
vt 0.7547821 0
vt 0.7547821 1
vt 0.8351801 1
vt 0.8351801 0
vt 0.5684475 0
vt 0.5684475 1
vt 0.7547821 1
vt 0.7547821 0
vt 0.3787007 0
vt 0.3787007 1
vt 0.5684475 1
vt 0.5684475 0
vn -0.17268561 -0.6661505 -0.72555023
vn -0.17268561 -0.6661505 -0.72555023
vn -0.1726856 -0.66615057 -0.72555023
vn -0.17268561 -0.66615045 -0.72555023
vn 0.94659454 -0.32067207 -0.03359089
vn 0.94659454 -0.32067207 -0.03359089
vn 0.9465944 -0.32067207 -0.033590887
vn 0.94659454 -0.32067207 -0.03359089
vn 0.9603206 0.111706495 0.25555024
vn 0.9603206 0.11170649 0.25555024
vn 0.9603206 0.11170649 0.2555502
vn 0.9603206 0.11170648 0.2555502
vn -0.714954 -0.26879454 -0.645438
vn -0.71495396 -0.26879457 -0.645438
vn -0.71495396 -0.2687945 -0.645438
vn -0.714954 -0.26879457 -0.645438
vn -0.68634105 -0.3153693 -0.6553458
vn -0.686341 -0.3153693 -0.65534586
vn -0.686341 -0.31536928 -0.6553458
vn -0.686341 -0.31536928 -0.6553458
vn -0.5854614 0.8099719 -0.034354836
vn -0.58546144 0.8099719 -0.03435484
vn -0.5854613 0.809972 -0.03435484
vn -0.5854613 0.809972 -0.034354843
vn 0.63090056 0.64191234 0.43579015
vn 0.63090056 0.64191234 0.43579015
vn 0.6309006 0.64191234 0.43579015
vn 0.63090056 0.6419123 0.43579015
g shard43_0
f 3/3/3 2/2/2 1/1/1
f 4/4/4 3/3/3 1/1/1
f 7/7/7 6/6/6 5/5/5
f 8/8/8 7/7/7 5/5/5
f 11/11/11 10/10/10 9/9/9
f 12/12/12 11/11/11 9/9/9
f 15/15/15 14/14/14 13/13/13
f 16/16/16 15/15/15 13/13/13
f 19/19/19 18/18/18 17/17/17
f 20/20/20 19/19/19 17/17/17
f 23/23/23 22/22/22 21/21/21
f 24/24/24 23/23/23 21/21/21
f 27/27/27 26/26/26 25/25/25
f 28/28/28 27/27/27 25/25/25
