g shard111
v 0.041341037 -0.018819094 0.03031689
v -0.036230944 -0.0011150539 0.041073203
v 0.030329332 0.03373021 -0.028762802
v 0.03623092 -0.03373021 0.018006504
v 0.025219217 0.018819094 -0.041073218
v -0.041341044 -0.016026169 0.028762817
v 0.03623092 -0.03373021 0.018006504
v 0.041341037 -0.018819094 0.03031689
v 0.030329332 0.03373021 -0.028762802
v 0.025219217 0.018819094 -0.041073218
v 0.025219217 0.018819094 -0.041073218
v 0.030329332 0.03373021 -0.028762802
v -0.036230944 -0.0011150539 0.041073203
v -0.041341044 -0.016026169 0.028762817
v -0.041341044 -0.016026169 0.028762817
v -0.036230944 -0.0011150539 0.041073203
v 0.041341037 -0.018819094 0.03031689
v 0.03623092 -0.03373021 0.018006504
vt 0.5625 0.25
vt 0.53125 0.25
vt 0.5625 0.28125
vt 0.5625 0.25
vt 0.5625 0.28125
vt 0.53125 0.25
vt 0.5625 0.25
vt 0.5625 0.25
vt 0.5625 0.28125
vt 0.5625 0.28125
vt 0.5625 0.28125
vt 0.5625 0.28125
vt 0.53125 0.25
vt 0.53125 0.25
vt 0.53125 0.25
vt 0.53125 0.25
vt 0.5625 0.25
vt 0.5625 0.25
vn 0.25550535 0.74555403 0.6155211
vn 0.25550538 0.74555403 0.6155211
vn 0.25550535 0.74555403 0.6155211
vn -0.25550538 -0.74555415 -0.61552083
vn -0.25550538 -0.74555415 -0.61552083
vn -0.25550535 -0.74555415 -0.61552083
vn 0.9569171 -0.104185104 -0.2710261
vn 0.9569171 -0.104185104 -0.2710261
vn 0.9569171 -0.10418512 -0.27102613
vn 0.9569171 -0.10418511 -0.2710261
vn -0.7166941 0.5733648 -0.39699158
vn -0.7166942 0.5733648 -0.39699155
vn -0.7166941 0.5733648 -0.39699152
vn -0.7166941 0.5733648 -0.39699152
vn -0.035841726 -0.628909 0.7766523
vn -0.035841726 -0.628909 0.7766523
vn -0.03584173 -0.62890905 0.7766523
vn -0.03584173 -0.62890905 0.7766523
g shard111_0
f 3/3/3 2/2/2 1/1/1
f 6/6/6 5/5/5 4/4/4
f 9/9/9 8/8/8 7/7/7
f 10/10/10 9/9/9 7/7/7
f 13/13/13 12/12/12 11/11/11
f 14/14/14 13/13/13 11/11/11
f 17/17/17 16/16/16 15/15/15
f 18/18/18 17/17/17 15/15/15
