g shard62
v -0.016545922 -0.17818777 0.13052432
v -0.0013466775 -0.10161369 0.1514177
v 0.0006740391 -0.18750943 0.059421115
v 0.03513354 -0.08643861 0.033622988
v 0.011264831 -0.18700992 -0.019220296
v 0.021689922 0.0022269906 0.12399712
v -0.014063567 -0.01568186 0.20233895
v 0.040689945 -0.013141022 0.042674772
v 0.047885627 -0.0034847741 -0.0329409
v 0.028590977 0.10708118 0.042326786
v 0.035616815 -0.10600225 -0.027864827
v 0.015338987 -0.1594736 -0.11367398
v -0.024140596 -0.25089648 -0.09925187
v -0.0184986 -0.25152946 -0.044776805
v 0.02947259 -0.097742155 -0.12952468
v -0.005226791 -0.15609455 -0.19760023
v 0.03753835 -0.016598059 -0.13073266
v 0.034782946 0.07226118 -0.12176888
v 0.03675896 0.10202811 -0.041384745
v 0.016232878 0.15570875 0.034791164
v -0.01785326 0.17994282 0.12934561
v 0.016818464 0.17433211 -0.049249627
v 0.014238507 0.14837325 -0.13011238
v 0.012773544 0.08358892 -0.20233895
v -0.029841155 0.25152946 -0.12147823
v -0.035149544 -0.17301477 0.12531431
v -0.018108666 -0.18201458 0.05552998
v -0.019766271 -0.09804039 0.14482619
v 0.015726268 -0.08282132 0.030417882
v -0.00737831 -0.18022001 -0.019513093
v 0.0028352141 0.00223254 0.117954
v -0.03229913 -0.013708265 0.19436593
v 0.020963132 -0.012975776 0.03938447
v 0.027885675 -0.0034572203 -0.032981522
v 0.009612739 0.10334387 0.037624
v 0.016051173 -0.10185792 -0.027965548
v -0.0030584037 -0.15263379 -0.11045222
v -0.042397976 -0.24293685 -0.09745352
v -0.036823094 -0.24376634 -0.042790163
v 0.010261208 -0.094005406 -0.12618136
v -0.023831308 -0.15057108 -0.19276677
v 0.017699063 -0.016024057 -0.12869659
v 0.01539734 0.069547586 -0.11836885
v 0.017122 0.098236404 -0.04127368
v -0.0026155114 0.15026233 0.03146238
v -0.036335886 0.1744307 0.124053285
v -0.0018108487 0.16763565 -0.048335247
v -0.0042391717 0.14205457 -0.12622483
v -0.0061373413 0.078963764 -0.19775786
v -0.047885627 0.24351726 -0.11828424
v -0.035149544 -0.17301477 0.12531431
v -0.016545922 -0.17818777 0.13052432
v 0.0006740391 -0.18750943 0.059421115
v -0.018108666 -0.18201458 0.05552998
v 0.011264831 -0.18700992 -0.019220296
v -0.00737831 -0.18022001 -0.019513093
v -0.019766271 -0.09804039 0.14482619
v -0.016545922 -0.17818777 0.13052432
v -0.035149544 -0.17301477 0.12531431
v -0.0013466775 -0.10161369 0.1514177
v -0.03229913 -0.013708265 0.19436593
v -0.014063567 -0.01568186 0.20233895
v 0.0028352141 0.00223254 0.117954
v 0.021689922 0.0022269906 0.12399712
v -0.014063567 -0.01568186 0.20233895
v -0.03229913 -0.013708265 0.19436593
v -0.036823094 -0.24376634 -0.042790163
v -0.0184986 -0.25152946 -0.044776805
v -0.024140596 -0.25089648 -0.09925187
v -0.042397976 -0.24293685 -0.09745352
v -0.00737831 -0.18022001 -0.019513093
v 0.011264831 -0.18700992 -0.019220296
v -0.0184986 -0.25152946 -0.044776805
v -0.036823094 -0.24376634 -0.042790163
v -0.042397976 -0.24293685 -0.09745352
v -0.024140596 -0.25089648 -0.09925187
v 0.015338987 -0.1594736 -0.11367398
v -0.0030584037 -0.15263379 -0.11045222
v -0.0030584037 -0.15263379 -0.11045222
v 0.015338987 -0.1594736 -0.11367398
v -0.005226791 -0.15609455 -0.19760023
v -0.023831308 -0.15057108 -0.19276677
v -0.023831308 -0.15057108 -0.19276677
v -0.005226791 -0.15609455 -0.19760023
v 0.02947259 -0.097742155 -0.12952468
v 0.010261208 -0.094005406 -0.12618136
v 0.010261208 -0.094005406 -0.12618136
v 0.02947259 -0.097742155 -0.12952468
v 0.03753835 -0.016598059 -0.13073266
v 0.017699063 -0.016024057 -0.12869659
v 0.034782946 0.07226118 -0.12176888
v 0.01539734 0.069547586 -0.11836885
v 0.01539734 0.069547586 -0.11836885
v 0.034782946 0.07226118 -0.12176888
v 0.012773544 0.08358892 -0.20233895
v -0.0061373413 0.078963764 -0.19775786
v -0.0061373413 0.078963764 -0.19775786
v 0.012773544 0.08358892 -0.20233895
v 0.014238507 0.14837325 -0.13011238
v -0.0042391717 0.14205457 -0.12622483
v -0.0042391717 0.14205457 -0.12622483
v 0.014238507 0.14837325 -0.13011238
v -0.029841155 0.25152946 -0.12147823
v -0.047885627 0.24351726 -0.11828424
v -0.047885627 0.24351726 -0.11828424
v -0.029841155 0.25152946 -0.12147823
v 0.016818464 0.17433211 -0.049249627
v -0.0018108487 0.16763565 -0.048335247
v 0.009612739 0.10334387 0.037624
v 0.028590977 0.10708118 0.042326786
v 0.021689922 0.0022269906 0.12399712
v 0.0028352141 0.00223254 0.117954
v -0.0018108487 0.16763565 -0.048335247
v 0.016818464 0.17433211 -0.049249627
v 0.016232878 0.15570875 0.034791164
v -0.0026155114 0.15026233 0.03146238
v -0.036335886 0.1744307 0.124053285
v -0.01785326 0.17994282 0.12934561
v 0.028590977 0.10708118 0.042326786
v 0.009612739 0.10334387 0.037624
v -0.0026155114 0.15026233 0.03146238
v 0.016232878 0.15570875 0.034791164
v -0.01785326 0.17994282 0.12934561
v -0.036335886 0.1744307 0.124053285
vt 0.6875 0.0625
vt 0.6875 0.09375
vt 0.71875 0.0625
vt 0.71875 0.09375
vt 0.75 0.0625
vt 0.6875 0.125
vt 0.65625 0.125
vt 0.71875 0.125
vt 0.75 0.125
vt 0.71875 0.15625
vt 0.75 0.09375
vt 0.78125 0.0625
vt 0.78125 0.03125
vt 0.75 0.03125
vt 0.78125 0.09375
vt 0.8125 0.0625
vt 0.78125 0.125
vt 0.78125 0.15625
vt 0.75 0.15625
vt 0.71875 0.1875
vt 0.6875 0.1875
vt 0.75 0.1875
vt 0.78125 0.1875
vt 0.8125 0.15625
vt 0.78125 0.21875
vt 0.6875 0.0625
vt 0.71875 0.0625
vt 0.6875 0.09375
vt 0.71875 0.09375
vt 0.75 0.0625
vt 0.6875 0.125
vt 0.65625 0.125
vt 0.71875 0.125
vt 0.75 0.125
vt 0.71875 0.15625
vt 0.75 0.09375
vt 0.78125 0.0625
vt 0.78125 0.03125
vt 0.75 0.03125
vt 0.78125 0.09375
vt 0.8125 0.0625
vt 0.78125 0.125
vt 0.78125 0.15625
vt 0.75 0.15625
vt 0.71875 0.1875
vt 0.6875 0.1875
vt 0.75 0.1875
vt 0.78125 0.1875
vt 0.8125 0.15625
vt 0.78125 0.21875
vt 0.6875 0.0625
vt 0.6875 0.0625
vt 0.71875 0.0625
vt 0.71875 0.0625
vt 0.75 0.0625
vt 0.75 0.0625
vt 0.6875 0.09375
vt 0.6875 0.0625
vt 0.6875 0.0625
vt 0.6875 0.09375
vt 0.65625 0.125
vt 0.65625 0.125
vt 0.6875 0.125
vt 0.6875 0.125
vt 0.65625 0.125
vt 0.65625 0.125
vt 0.75 0.03125
vt 0.75 0.03125
vt 0.78125 0.03125
vt 0.78125 0.03125
vt 0.75 0.0625
vt 0.75 0.0625
vt 0.75 0.03125
vt 0.75 0.03125
vt 0.78125 0.03125
vt 0.78125 0.03125
vt 0.78125 0.0625
vt 0.78125 0.0625
vt 0.78125 0.0625
vt 0.78125 0.0625
vt 0.8125 0.0625
vt 0.8125 0.0625
vt 0.8125 0.0625
vt 0.8125 0.0625
vt 0.78125 0.09375
vt 0.78125 0.09375
vt 0.78125 0.09375
vt 0.78125 0.09375
vt 0.78125 0.125
vt 0.78125 0.125
vt 0.78125 0.15625
vt 0.78125 0.15625
vt 0.78125 0.15625
vt 0.78125 0.15625
vt 0.8125 0.15625
vt 0.8125 0.15625
vt 0.8125 0.15625
vt 0.8125 0.15625
vt 0.78125 0.1875
vt 0.78125 0.1875
vt 0.78125 0.1875
vt 0.78125 0.1875
vt 0.78125 0.21875
vt 0.78125 0.21875
vt 0.78125 0.21875
vt 0.78125 0.21875
vt 0.75 0.1875
vt 0.75 0.1875
vt 0.71875 0.15625
vt 0.71875 0.15625
vt 0.6875 0.125
vt 0.6875 0.125
vt 0.75 0.1875
vt 0.75 0.1875
vt 0.71875 0.1875
vt 0.71875 0.1875
vt 0.6875 0.1875
vt 0.6875 0.1875
vt 0.71875 0.15625
vt 0.71875 0.15625
vt 0.71875 0.1875
vt 0.71875 0.1875
vt 0.6875 0.1875
vt 0.6875 0.1875
vn 0.9314291 -0.2555709 0.2590815
vn 0.93942356 -0.1773445 0.29331243
vn 0.94077116 -0.26842865 0.20711266
vn 0.964214 -0.18878902 0.18614547
vn 0.94425464 -0.32916844 0.0056026992
vn 0.9573996 -0.055115584 0.2834577
vn 0.9136262 -0.0985277 0.3944354
vn 0.9860054 0.016277174 0.16591622
vn 0.9999856 0.0046406295 -0.0027364502
vn 0.9760376 0.16305447 0.14409687
vn 0.98047614 -0.19637588 -0.01014603
vn 0.94320345 -0.3139249 -0.10871261
vn 0.9123929 -0.40064192 -0.083817266
vn 0.91794074 -0.38402843 -0.09953381
vn 0.9770924 -0.18130921 -0.11143336
vn 0.9312961 -0.27465984 -0.2392688
vn 0.9943242 -0.034789797 -0.10054364
vn 0.979806 0.15506302 -0.12623653
vn 0.9845915 0.17484045 -0.0032410005
vn 0.948402 0.27138835 0.1639574
vn 0.9246594 0.2756961 0.2626724
vn 0.9451351 0.31720242 -0.07811652
vn 0.93982804 0.3042193 -0.15547928
vn 0.946399 0.23067023 -0.22609764
vn 0.903352 0.39914846 -0.15695785
vn -0.9301823 0.25864992 -0.26050147
vn -0.94023675 0.26878193 -0.20907171
vn -0.93880904 0.17971432 -0.2938371
vn -0.96387446 0.18985951 -0.18681376
vn -0.9437231 0.33069018 -0.0055406755
vn -0.95709157 0.05675578 -0.2841733
vn -0.9117783 0.09867985 -0.398651
vn -0.9861108 -0.016194101 -0.16529778
vn -0.9999862 -0.004077219 0.00332702
vn -0.9761662 -0.16356406 -0.14264062
vn -0.98050356 0.19625749 0.009785158
vn -0.9427493 0.3151577 0.109084085
vn -0.9112356 0.40298647 0.08515642
vn -0.9162249 0.38815603 0.09933192
vn -0.977201 0.18043381 0.11190111
vn -0.9302273 0.27617297 0.24167271
vn -0.99425936 0.03448232 0.10128812
vn -0.979813 -0.1544574 0.12692313
vn -0.98464173 -0.17453493 0.0042738775
vn -0.9477592 -0.27165052 -0.16720799
vn -0.92413175 -0.2756055 -0.26461703
vn -0.94469666 -0.31796107 0.080305725
vn -0.93908525 -0.305451 0.15753879
vn -0.9455443 -0.23125695 0.22905491
vn -0.9022237 -0.40061003 0.15969941
vn -0.28628537 -0.9565773 0.05477751
vn -0.28628537 -0.9565773 0.054777514
vn -0.29668948 -0.95497113 -0.002315071
vn -0.29669395 -0.95496976 -0.0023406101
vn -0.3056545 -0.9504591 -0.05659213
vn -0.30565453 -0.9504591 -0.05659212
vn -0.3688748 -0.36988622 0.8527107
vn -0.3368567 -0.17850354 0.92448044
vn -0.33685666 -0.17850351 0.92448044
vn -0.36869124 -0.36849317 0.85339296
vn -0.38309172 -0.5108823 0.7695713
vn -0.38309172 -0.51088226 0.7695713
vn -0.024446966 0.9788907 0.2029167
vn -0.024446968 0.9788907 0.2029167
vn -0.024446966 0.9788907 0.20291668
vn -0.024446968 0.9788907 0.2029167
vn -0.39226854 -0.91942465 0.027995575
vn -0.39226857 -0.91942465 0.027995575
vn -0.39226848 -0.91942465 0.027995573
vn -0.39226854 -0.91942465 0.027995573
vn -0.083234176 -0.32122812 0.94333696
vn -0.083234176 -0.32122818 0.94333696
vn -0.083234176 -0.32122815 0.94333696
vn -0.08323417 -0.32122815 0.94333696
vn -0.16556625 -0.07654952 -0.98322326
vn -0.16556625 -0.076549515 -0.98322326
vn -0.16556624 -0.07654953 -0.98322326
vn -0.16556625 -0.07654952 -0.98322326
vn -0.3076729 -0.9504085 0.045397494
vn -0.30767295 -0.9504085 0.045397505
vn -0.3076729 -0.9504085 0.045397498
vn -0.30767292 -0.9504085 0.0453975
vn 0.040743276 0.7496617 -0.66056585
vn 0.040743276 0.7496616 -0.6605659
vn 0.040743276 0.7496617 -0.66056585
vn 0.040743276 0.7496616 -0.6605659
vn -0.13751689 -0.009776132 -0.99045116
vn -0.13751689 -0.009776132 -0.99045116
vn -0.14015992 0.05026921 -0.98885196
vn -0.14015743 0.050206676 -0.98885554
vn -0.14212434 0.10473917 -0.9842918
vn -0.14212433 0.10473917 -0.9842918
vn 0.15173282 -0.97410345 -0.16762902
vn 0.1517328 -0.97410345 -0.167629
vn 0.15173282 -0.97410345 -0.167629
vn 0.15173282 -0.97410345 -0.16762902
vn -0.34651262 0.7048996 -0.61890656
vn -0.34651262 0.7048996 -0.61890656
vn -0.34651262 0.70489967 -0.6189066
vn -0.34651262 0.7048996 -0.6189066
vn -0.18967561 -0.0017871349 -0.98184526
vn -0.18967561 -0.001787135 -0.98184526
vn -0.18967561 -0.0017871349 -0.98184526
vn -0.1896756 -0.0017871349 -0.98184526
vn -0.16135348 0.61736965 0.7699478
vn -0.16135347 0.6173696 0.7699478
vn -0.16135348 0.6173696 0.7699478
vn -0.16135348 0.6173696 0.7699478
vn -0.27208668 0.6059981 0.7474859
vn -0.2720867 0.60599816 0.7474859
vn -0.27208668 0.60599816 0.7474859
vn -0.2720867 0.6059981 0.7474859
vn -0.3136311 0.92797875 0.20122351
vn -0.31363112 0.92797875 0.20122352
vn -0.31363106 0.92797875 0.2012235
vn -0.31363106 0.92797875 0.20122351
vn 0.017060433 -0.7649138 0.64390665
vn 0.017060433 -0.7649138 0.64390665
vn 0.01706043 -0.7649138 0.64390665
vn 0.017060433 -0.7649138 0.64390665
vn -0.20033586 0.9284772 -0.31272277
vn -0.20033585 0.9284772 -0.31272277
vn -0.20033586 0.9284772 -0.3127228
vn -0.20033583 0.9284772 -0.31272274
g shard62_0
f 3/3/3 2/2/2 1/1/1
f 3/3/3 4/4/4 2/2/2
f 5/5/5 4/4/4 3/3/3
f 4/4/4 6/6/6 2/2/2
f 2/2/2 6/6/6 7/7/7
f 4/4/4 8/8/8 6/6/6
f 9/9/9 8/8/8 4/4/4
f 10/10/10 6/6/6 8/8/8
f 9/9/9 10/10/10 8/8/8
f 5/5/5 11/11/11 4/4/4
f 9/9/9 4/4/4 11/11/11
f 12/12/12 11/11/11 5/5/5
f 13/13/13 12/12/12 5/5/5
f 13/13/13 5/5/5 14/14/14
f 12/12/12 15/15/15 11/11/11
f 15/15/15 9/9/9 11/11/11
f 16/16/16 15/15/15 12/12/12
f 15/15/15 17/17/17 9/9/9
f 18/18/18 9/9/9 17/17/17
f 9/9/9 19/19/19 10/10/10
f 18/18/18 19/19/19 9/9/9
f 19/19/19 20/20/20 10/10/10
f 10/10/10 20/20/20 21/21/21
f 19/19/19 22/22/22 20/20/20
f 23/23/23 19/19/19 18/18/18
f 23/23/23 22/22/22 19/19/19
f 24/24/24 23/23/23 18/18/18
f 25/25/25 22/22/22 23/23/23
f 28/28/28 27/27/27 26/26/26
f 29/29/29 27/27/27 28/28/28
f 29/29/29 30/30/30 27/27/27
f 31/31/31 29/29/29 28/28/28
f 31/31/31 28/28/28 32/32/32
f 33/33/33 29/29/29 31/31/31
f 33/33/33 34/34/34 29/29/29
f 31/31/31 35/35/35 33/33/33
f 35/35/35 34/34/34 33/33/33
f 36/36/36 30/30/30 29/29/29
f 29/29/29 34/34/34 36/36/36
f 36/36/36 37/37/37 30/30/30
f 37/37/37 38/38/38 30/30/30
f 30/30/30 38/38/38 39/39/39
f 40/40/40 37/37/37 36/36/36
f 34/34/34 40/40/40 36/36/36
f 40/40/40 41/41/41 37/37/37
f 42/42/42 40/40/40 34/34/34
f 34/34/34 43/43/43 42/42/42
f 44/44/44 34/34/34 35/35/35
f 44/44/44 43/43/43 34/34/34
f 45/45/45 44/44/44 35/35/35
f 45/45/45 35/35/35 46/46/46
f 47/47/47 44/44/44 45/45/45
f 44/44/44 48/48/48 43/43/43
f 47/47/47 48/48/48 44/44/44
f 48/48/48 49/49/49 43/43/43
f 47/47/47 50/50/50 48/48/48
f 53/53/53 52/52/52 51/51/51
f 54/54/54 53/53/53 51/51/51
f 55/55/55 53/53/53 54/54/54
f 56/56/56 55/55/55 54/54/54
f 59/59/59 58/58/58 57/57/57
f 58/58/58 60/60/60 57/57/57
f 57/57/57 60/60/60 61/61/61
f 60/60/60 62/62/62 61/61/61
f 65/65/65 64/64/64 63/63/63
f 66/66/66 65/65/65 63/63/63
f 69/69/69 68/68/68 67/67/67
f 70/70/70 69/69/69 67/67/67
f 73/73/73 72/72/72 71/71/71
f 74/74/74 73/73/73 71/71/71
f 77/77/77 76/76/76 75/75/75
f 78/78/78 77/77/77 75/75/75
f 81/81/81 80/80/80 79/79/79
f 82/82/82 81/81/81 79/79/79
f 85/85/85 84/84/84 83/83/83
f 86/86/86 85/85/85 83/83/83
f 89/89/89 88/88/88 87/87/87
f 90/90/90 89/89/89 87/87/87
f 91/91/91 89/89/89 90/90/90
f 92/92/92 91/91/91 90/90/90
f 95/95/95 94/94/94 93/93/93
f 96/96/96 95/95/95 93/93/93
f 99/99/99 98/98/98 97/97/97
f 100/100/100 99/99/99 97/97/97
f 103/103/103 102/102/102 101/101/101
f 104/104/104 103/103/103 101/101/101
f 107/107/107 106/106/106 105/105/105
f 108/108/108 107/107/107 105/105/105
f 111/111/111 110/110/110 109/109/109
f 112/112/112 111/111/111 109/109/109
f 115/115/115 114/114/114 113/113/113
f 116/116/116 115/115/115 113/113/113
f 119/119/119 118/118/118 117/117/117
f 120/120/120 119/119/119 117/117/117
f 123/123/123 122/122/122 121/121/121
f 124/124/124 123/123/123 121/121/121
