g shard86
v -0.113381326 0.02547104 -0.08138129
v -0.12934154 0.118929 -0.101042226
v -0.09200901 0.044380724 -0.0324056
v -0.07653263 -0.040024385 -0.04530543
v -0.030562222 0.0073674545 0.03782761
v -0.03488955 0.11283658 0.051959276
v 0.04203579 0.02822949 0.100863785
v -0.010571808 -0.060977697 0.029040158
v -0.040400386 -0.11409372 -0.04478933
v 0.0071330667 -0.09479515 0.023509443
v 0.04834844 -0.057501167 0.07780552
v 0.1210731 -0.06795919 0.109395504
v 0.06524618 -0.120233834 0.053645045
v -0.09573421 0.028420016 -0.090143934
v -0.075185746 0.04618579 -0.042782485
v -0.111216426 0.120233834 -0.10939552
v -0.06049332 -0.0341125 -0.055491045
v -0.016501129 0.011540458 0.024230838
v -0.020825118 0.11527577 0.03810346
v 0.052494198 0.032183588 0.084512085
v 0.002687633 -0.05390346 0.015843838
v -0.026242435 -0.106003 -0.056308255
v 0.019400597 -0.086068556 0.010451108
v 0.058423325 -0.05072725 0.06191179
v 0.12934154 -0.061071068 0.09262079
v 0.074924275 -0.11176205 0.038427442
v 0.074924275 -0.11176205 0.038427442
v 0.06524618 -0.120233834 0.053645045
v 0.1210731 -0.06795919 0.109395504
v 0.12934154 -0.061071068 0.09262079
v 0.019400597 -0.086068556 0.010451108
v 0.0071330667 -0.09479515 0.023509443
v 0.06524618 -0.120233834 0.053645045
v 0.074924275 -0.11176205 0.038427442
v 0.12934154 -0.061071068 0.09262079
v 0.1210731 -0.06795919 0.109395504
v 0.04203579 0.02822949 0.100863785
v 0.052494198 0.032183588 0.084512085
v -0.03488955 0.11283658 0.051959276
v -0.020825118 0.11527577 0.03810346
v -0.026242435 -0.106003 -0.056308255
v -0.040400386 -0.11409372 -0.04478933
v 0.0071330667 -0.09479515 0.023509443
v 0.019400597 -0.086068556 0.010451108
v -0.06049332 -0.0341125 -0.055491045
v -0.040400386 -0.11409372 -0.04478933
v -0.026242435 -0.106003 -0.056308255
v -0.07653263 -0.040024385 -0.04530543
v -0.09573421 0.028420016 -0.090143934
v -0.113381326 0.02547104 -0.08138129
v -0.111216426 0.120233834 -0.10939552
v -0.12934154 0.118929 -0.101042226
v -0.020825118 0.11527577 0.03810346
v -0.03488955 0.11283658 0.051959276
v -0.09200901 0.044380724 -0.0324056
v -0.075185746 0.04618579 -0.042782485
v -0.075185746 0.04618579 -0.042782485
v -0.09200901 0.044380724 -0.0324056
v -0.12934154 0.118929 -0.101042226
v -0.111216426 0.120233834 -0.10939552
vt 0.3125 0.09375
vt 0.3125 0.125
vt 0.34375 0.09375
vt 0.34375 0.0625
vt 0.375 0.09375
vt 0.375 0.125
vt 0.40625 0.09375
vt 0.375 0.0625
vt 0.34375 0.03125
vt 0.375 0.03125
vt 0.40625 0.0625
vt 0.4375 0.0625
vt 0.40625 0.03125
vt 0.3125 0.09375
vt 0.34375 0.09375
vt 0.3125 0.125
vt 0.34375 0.0625
vt 0.375 0.09375
vt 0.375 0.125
vt 0.40625 0.09375
vt 0.375 0.0625
vt 0.34375 0.03125
vt 0.375 0.03125
vt 0.40625 0.0625
vt 0.4375 0.0625
vt 0.40625 0.03125
vt 0.40625 0.03125
vt 0.40625 0.03125
vt 0.4375 0.0625
vt 0.4375 0.0625
vt 0.375 0.03125
vt 0.375 0.03125
vt 0.40625 0.03125
vt 0.40625 0.03125
vt 0.4375 0.0625
vt 0.4375 0.0625
vt 0.40625 0.09375
vt 0.40625 0.09375
vt 0.375 0.125
vt 0.375 0.125
vt 0.34375 0.03125
vt 0.34375 0.03125
vt 0.375 0.03125
vt 0.375 0.03125
vt 0.34375 0.0625
vt 0.34375 0.03125
vt 0.34375 0.03125
vt 0.34375 0.0625
vt 0.3125 0.09375
vt 0.3125 0.09375
vt 0.3125 0.125
vt 0.3125 0.125
vt 0.375 0.125
vt 0.375 0.125
vt 0.34375 0.09375
vt 0.34375 0.09375
vt 0.34375 0.09375
vt 0.34375 0.09375
vt 0.3125 0.125
vt 0.3125 0.125
vn -0.88819355 -0.13423449 0.4394239
vn -0.9049217 -0.066093974 0.42041454
vn -0.824993 -0.16238679 0.54131055
vn -0.779183 -0.28606725 0.5577092
vn -0.7056699 -0.194695 0.68126625
vn -0.7083348 -0.1222136 0.69521624
vn -0.5757671 -0.20636761 0.79114145
vn -0.6825888 -0.3362489 0.6488522
vn -0.73642224 -0.37192982 0.56511104
vn -0.60621613 -0.43207228 0.6676942
vn -0.5012514 -0.32084635 0.8036197
vn -0.4155182 -0.33451483 0.8458394
vn -0.48593536 -0.4250163 0.76369363
vn 0.8900903 0.1328218 -0.43600172
vn 0.8251405 0.16236296 -0.5410928
vn 0.9062556 0.06524208 -0.41766536
vn 0.7784427 0.28899166 -0.557235
vn 0.70560676 0.19457103 -0.68136716
vn 0.70828 0.122495905 -0.6952223
vn 0.5763838 0.20632398 -0.79070354
vn 0.6832991 0.33686176 -0.64778584
vn 0.73629266 0.37301096 -0.564567
vn 0.6068034 0.4325197 -0.66687053
vn 0.4997717 0.3221067 -0.804037
vn 0.4151048 0.33603573 -0.8454395
vn 0.48401907 0.42514306 -0.76483923
vn 0.6712547 -0.7409343 0.020818163
vn 0.6712547 -0.7409344 0.020818163
vn 0.6712547 -0.7409343 0.020818159
vn 0.6712547 -0.7409343 0.020818163
vn -0.08175566 -0.8220812 -0.5634701
vn -0.08175566 -0.8220812 -0.5634701
vn -0.08175566 -0.8220812 -0.56347007
vn -0.08175566 -0.82208115 -0.5634701
vn 0.6267802 0.5630613 0.53861713
vn 0.6267802 0.5630613 0.53861713
vn 0.54867905 0.6416819 0.53590643
vn 0.548185 0.6421344 0.5358699
vn 0.4624251 0.7134827 0.526408
vn 0.4624251 0.7134827 0.526408
vn 0.48191154 -0.8726537 -0.07897326
vn 0.48191154 -0.8726537 -0.07897325
vn 0.48191154 -0.8726537 -0.07897326
vn 0.4819116 -0.8726537 -0.07897326
vn -0.39316157 -0.41791585 -0.8190057
vn -0.4926908 -0.23585181 -0.8376333
vn -0.4926908 -0.23585181 -0.8376333
vn -0.3942508 -0.41616985 -0.8193711
vn -0.34633964 -0.4090913 -0.8442116
vn -0.34625533 -0.4093377 -0.8441267
vn -0.39304623 -0.25241104 -0.8841964
vn -0.39304623 -0.252411 -0.88419646
vn -0.42186594 0.8162032 -0.3947677
vn -0.421866 0.8162032 -0.3947677
vn -0.421866 0.8162032 -0.39476767
vn -0.42186594 0.8162032 -0.3947677
vn 0.2780643 0.7180289 0.6380555
vn 0.27806434 0.7180289 0.6380555
vn 0.27806434 0.7180289 0.6380555
vn 0.27806428 0.7180289 0.6380555
g shard86_0
f 3/3/3 2/2/2 1/1/1
f 4/4/4 3/3/3 1/1/1
f 5/5/5 3/3/3 4/4/4
f 6/6/6 3/3/3 5/5/5
f 7/7/7 6/6/6 5/5/5
f 5/5/5 4/4/4 8/8/8
f 8/8/8 4/4/4 9/9/9
f 8/8/8 9/9/9 10/10/10
f 11/11/11 7/7/7 5/5/5
f 11/11/11 5/5/5 8/8/8
f 11/11/11 8/8/8 10/10/10
f 12/12/12 7/7/7 11/11/11
f 11/11/11 10/10/10 13/13/13
f 12/12/12 11/11/11 13/13/13
f 16/16/16 15/15/15 14/14/14
f 15/15/15 17/17/17 14/14/14
f 15/15/15 18/18/18 17/17/17
f 15/15/15 19/19/19 18/18/18
f 19/19/19 20/20/20 18/18/18
f 17/17/17 18/18/18 21/21/21
f 17/17/17 21/21/21 22/22/22
f 22/22/22 21/21/21 23/23/23
f 20/20/20 24/24/24 18/18/18
f 18/18/18 24/24/24 21/21/21
f 21/21/21 24/24/24 23/23/23
f 20/20/20 25/25/25 24/24/24
f 23/23/23 24/24/24 26/26/26
f 24/24/24 25/25/25 26/26/26
f 29/29/29 28/28/28 27/27/27
f 30/30/30 29/29/29 27/27/27
f 33/33/33 32/32/32 31/31/31
f 34/34/34 33/33/33 31/31/31
f 37/37/37 36/36/36 35/35/35
f 38/38/38 37/37/37 35/35/35
f 39/39/39 37/37/37 38/38/38
f 40/40/40 39/39/39 38/38/38
f 43/43/43 42/42/42 41/41/41
f 44/44/44 43/43/43 41/41/41
f 47/47/47 46/46/46 45/45/45
f 46/46/46 48/48/48 45/45/45
f 45/45/45 48/48/48 49/49/49
f 48/48/48 50/50/50 49/49/49
f 49/49/49 50/50/50 51/51/51
f 50/50/50 52/52/52 51/51/51
f 55/55/55 54/54/54 53/53/53
f 56/56/56 55/55/55 53/53/53
f 59/59/59 58/58/58 57/57/57
f 60/60/60 59/59/59 57/57/57
