g shard63
v -0.110080265 -0.123731345 0.11042006
v -0.10076863 -0.068291575 0.087742195
v -0.03611613 -0.09457858 0.13326712
v -0.05765312 -0.04638177 0.0986851
v -0.08757337 -0.003091216 0.04720615
v 0.036728457 -0.017132223 0.113383874
v 0.044371724 -0.10977988 0.16153507
v 0.13532567 -0.03584951 0.13295196
v 0.108485766 0.054238945 0.06106074
v -0.022177897 0.022780538 0.06172301
v 0.028513186 0.034328043 0.069959715
v -0.044311605 0.0692707 -0.006397173
v -0.0939982 0.04973498 -0.018041179
v 0.056126192 0.09322375 0.0018607527
v 0.116899624 0.086973816 0.020623073
v 0.030441977 0.12804848 -0.079367295
v -0.038224094 0.110673845 -0.08586994
v -0.13662061 0.061398745 -0.094580874
v -0.032173343 0.13175339 -0.15649804
v -0.10181361 -0.13175339 0.09407045
v -0.029751606 -0.102932036 0.11636506
v -0.0921128 -0.07764955 0.07242896
v -0.05022926 -0.05640456 0.08305083
v -0.07896683 -0.0153185725 0.034069315
v 0.040030234 -0.02799505 0.096918836
v 0.047505863 -0.11864886 0.1439368
v 0.13662063 -0.046527892 0.11620687
v 0.10990244 0.040213466 0.047107503
v -0.015713789 0.009606361 0.048134163
v 0.032229684 0.020417958 0.05607818
v -0.03752137 0.053492993 -0.01664199
v -0.08546708 0.03468615 -0.027713805
v 0.05957885 0.07673362 -0.00867492
v 0.118948966 0.07122657 0.008464739
v 0.03545472 0.11010587 -0.086342335
v -0.031192265 0.093179315 -0.09206268
v -0.12772644 0.045061886 -0.10192932
v -0.027003862 0.113101184 -0.16153505
v -0.029751606 -0.102932036 0.11636506
v 0.044371724 -0.10977988 0.16153507
v 0.047505863 -0.11864886 0.1439368
v -0.03611613 -0.09457858 0.13326712
v -0.10181361 -0.13175339 0.09407045
v -0.110080265 -0.123731345 0.11042006
v 0.047505863 -0.11864886 0.1439368
v 0.044371724 -0.10977988 0.16153507
v 0.13532567 -0.03584951 0.13295196
v 0.13662063 -0.046527892 0.11620687
v 0.13662063 -0.046527892 0.11620687
v 0.13532567 -0.03584951 0.13295196
v 0.108485766 0.054238945 0.06106074
v 0.10990244 0.040213466 0.047107503
v 0.116899624 0.086973816 0.020623073
v 0.118948966 0.07122657 0.008464739
v -0.0921128 -0.07764955 0.07242896
v -0.110080265 -0.123731345 0.11042006
v -0.10181361 -0.13175339 0.09407045
v -0.10076863 -0.068291575 0.087742195
v -0.07896683 -0.0153185725 0.034069315
v -0.08757337 -0.003091216 0.04720615
v -0.08546708 0.03468615 -0.027713805
v -0.0939982 0.04973498 -0.018041179
v -0.031192265 0.093179315 -0.09206268
v -0.038224094 0.110673845 -0.08586994
v -0.13662061 0.061398745 -0.094580874
v -0.12772644 0.045061886 -0.10192932
v -0.12772644 0.045061886 -0.10192932
v -0.13662061 0.061398745 -0.094580874
v -0.0939982 0.04973498 -0.018041179
v -0.08546708 0.03468615 -0.027713805
v 0.118948966 0.07122657 0.008464739
v 0.116899624 0.086973816 0.020623073
v 0.056126192 0.09322375 0.0018607527
v 0.05957885 0.07673362 -0.00867492
v 0.05957885 0.07673362 -0.00867492
v 0.056126192 0.09322375 0.0018607527
v 0.030441977 0.12804848 -0.079367295
v 0.03545472 0.11010587 -0.086342335
v -0.032173343 0.13175339 -0.15649804
v -0.027003862 0.113101184 -0.16153505
v -0.027003862 0.113101184 -0.16153505
v -0.032173343 0.13175339 -0.15649804
v -0.038224094 0.110673845 -0.08586994
v -0.031192265 0.093179315 -0.09206268
vt 0.40625 0.1875
vt 0.40625 0.21875
vt 0.4375 0.1875
vt 0.4375 0.21875
vt 0.40625 0.25
vt 0.46875 0.21875
vt 0.46875 0.1875
vt 0.5 0.21875
vt 0.5 0.25
vt 0.4375 0.25
vt 0.46875 0.25
vt 0.4375 0.28125
vt 0.40625 0.28125
vt 0.46875 0.28125
vt 0.5 0.28125
vt 0.46875 0.3125
vt 0.4375 0.3125
vt 0.40625 0.3125
vt 0.4375 0.34375
vt 0.40625 0.1875
vt 0.4375 0.1875
vt 0.40625 0.21875
vt 0.4375 0.21875
vt 0.40625 0.25
vt 0.46875 0.21875
vt 0.46875 0.1875
vt 0.5 0.21875
vt 0.5 0.25
vt 0.4375 0.25
vt 0.46875 0.25
vt 0.4375 0.28125
vt 0.40625 0.28125
vt 0.46875 0.28125
vt 0.5 0.28125
vt 0.46875 0.3125
vt 0.4375 0.3125
vt 0.40625 0.3125
vt 0.4375 0.34375
vt 0.4375 0.1875
vt 0.46875 0.1875
vt 0.46875 0.1875
vt 0.4375 0.1875
vt 0.40625 0.1875
vt 0.40625 0.1875
vt 0.46875 0.1875
vt 0.46875 0.1875
vt 0.5 0.21875
vt 0.5 0.21875
vt 0.5 0.21875
vt 0.5 0.21875
vt 0.5 0.25
vt 0.5 0.25
vt 0.5 0.28125
vt 0.5 0.28125
vt 0.40625 0.21875
vt 0.40625 0.1875
vt 0.40625 0.1875
vt 0.40625 0.21875
vt 0.40625 0.25
vt 0.40625 0.25
vt 0.40625 0.28125
vt 0.40625 0.28125
vt 0.4375 0.3125
vt 0.4375 0.3125
vt 0.40625 0.3125
vt 0.40625 0.3125
vt 0.40625 0.3125
vt 0.40625 0.3125
vt 0.40625 0.28125
vt 0.40625 0.28125
vt 0.5 0.28125
vt 0.5 0.28125
vt 0.46875 0.28125
vt 0.46875 0.28125
vt 0.46875 0.28125
vt 0.46875 0.28125
vt 0.46875 0.3125
vt 0.46875 0.3125
vt 0.4375 0.34375
vt 0.4375 0.34375
vt 0.4375 0.34375
vt 0.4375 0.34375
vt 0.4375 0.3125
vt 0.4375 0.3125
vn -0.41146109 0.40342167 0.81728256
vn -0.42675143 0.4483957 0.78538173
vn -0.28915712 0.4414176 0.8494343
vn -0.35095912 0.5117293 0.78419435
vn -0.4081457 0.63052416 0.66019416
vn -0.14656445 0.536536 0.8310523
vn -0.1593275 0.44488814 0.8812997
vn -0.062834054 0.54386395 0.8368177
vn -0.080500975 0.6952686 0.7142278
vn -0.32933125 0.65154743 0.68339354
vn -0.17851757 0.7147712 0.6761905
vn -0.32079563 0.79704016 0.51168066
vn -0.4291855 0.78212214 0.45175737
vn -0.20743392 0.8149789 0.54109204
vn -0.10829071 0.7835768 0.61178476
vn -0.25208342 0.881756 0.39869812
vn -0.32317388 0.87279564 0.36576825
vn -0.44191292 0.8169362 0.37057832
vn -0.2598321 0.93119484 0.25566265
vn 0.41333395 -0.40110183 -0.8174793
vn 0.2891168 -0.44060713 -0.84986883
vn 0.42705604 -0.44645175 -0.786323
vn 0.3514778 -0.51112777 -0.7843544
vn 0.4073825 -0.63000983 -0.66115594
vn 0.14554703 -0.5351261 -0.83213943
vn 0.15775579 -0.44436422 -0.88184667
vn 0.063385 -0.54186743 -0.8380704
vn 0.07994664 -0.6946675 -0.71487445
vn 0.32968473 -0.6510529 -0.6836945
vn 0.17903021 -0.715055 -0.6757548
vn 0.3202945 -0.7969258 -0.5121726
vn 0.42991692 -0.7830917 -0.44937596
vn 0.20729864 -0.8152436 -0.54074496
vn 0.10246631 -0.7873617 -0.60791624
vn 0.2512872 -0.88248754 -0.39758083
vn 0.32225466 -0.8738289 -0.36410844
vn 0.44470945 -0.81684375 -0.3674231
vn 0.25847465 -0.93261003 -0.25185177
vn -0.06509519 -0.8950222 0.44124582
vn -0.3001852 -0.88391006 0.35859707
vn -0.3001852 -0.88391006 0.35859704
vn -0.065678164 -0.89506316 0.4410763
vn 0.18266757 -0.8477863 0.49788645
vn 0.18266758 -0.8477863 0.49788645
vn 0.64476544 -0.62558925 0.43922156
vn 0.64476544 -0.62558925 0.43922156
vn 0.64476544 -0.62558925 0.43922162
vn 0.64476544 -0.62558925 0.43922162
vn 0.9709778 0.22080171 -0.09191737
vn 0.9709778 0.22080171 -0.091917366
vn 0.99003613 0.1406269 -0.007245986
vn 0.98988956 0.14159968 -0.008261653
vn 0.9824615 -0.044447638 0.18109043
vn 0.9824615 -0.04444764 0.18109041
vn -0.8858507 -0.07042284 -0.45859468
vn -0.88849574 -0.031024003 -0.45783484
vn -0.88849574 -0.031024003 -0.45783484
vn -0.8858579 -0.07033849 -0.45859385
vn -0.90631974 -0.25059283 -0.34027606
vn -0.9063442 -0.25111422 -0.33982623
vn -0.89808446 -0.38205525 -0.21789472
vn -0.89808446 -0.38205525 -0.21789473
vn -0.07947255 0.3379492 -0.93780303
vn -0.07947255 0.33794916 -0.93780303
vn -0.07947255 0.33794913 -0.93780303
vn -0.07947256 0.33794916 -0.93780303
vn -0.73819685 -0.5885885 0.32958895
vn -0.73819685 -0.5885885 0.32958895
vn -0.73819697 -0.58858854 0.329589
vn -0.73819685 -0.5885885 0.32958895
vn 0.28437012 0.58384997 -0.76042944
vn 0.28437015 0.58384997 -0.76042944
vn 0.28437015 0.58384997 -0.76042944
vn 0.28437012 0.58384997 -0.76042944
vn 0.9366693 0.31159055 -0.15988126
vn 0.9366693 0.31159058 -0.15988128
vn 0.8463852 0.36275688 -0.3899226
vn 0.8479616 0.36222047 -0.386985
vn 0.7203115 0.38894677 -0.5743447
vn 0.7203115 0.38894677 -0.57434464
vn -0.94996566 -0.2741643 -0.14966376
vn -0.94996566 -0.27416426 -0.14966375
vn -0.94996566 -0.27416426 -0.14966375
vn -0.94996566 -0.2741643 -0.14966375
g shard63_0
f 3/3/3 2/2/2 1/1/1
f 3/3/3 4/4/4 2/2/2
f 4/4/4 5/5/5 2/2/2
f 6/6/6 4/4/4 3/3/3
f 6/6/6 3/3/3 7/7/7
f 8/8/8 6/6/6 7/7/7
f 9/9/9 6/6/6 8/8/8
f 4/4/4 10/10/10 5/5/5
f 6/6/6 10/10/10 4/4/4
f 9/9/9 11/11/11 6/6/6
f 6/6/6 11/11/11 10/10/10
f 12/12/12 5/5/5 10/10/10
f 11/11/11 12/12/12 10/10/10
f 12/12/12 13/13/13 5/5/5
f 9/9/9 14/14/14 11/11/11
f 11/11/11 14/14/14 12/12/12
f 9/9/9 15/15/15 14/14/14
f 16/16/16 12/12/12 14/14/14
f 17/17/17 13/13/13 12/12/12
f 16/16/16 17/17/17 12/12/12
f 17/17/17 18/18/18 13/13/13
f 16/16/16 19/19/19 17/17/17
f 22/22/22 21/21/21 20/20/20
f 23/23/23 21/21/21 22/22/22
f 24/24/24 23/23/23 22/22/22
f 23/23/23 25/25/25 21/21/21
f 21/21/21 25/25/25 26/26/26
f 25/25/25 27/27/27 26/26/26
f 25/25/25 28/28/28 27/27/27
f 29/29/29 23/23/23 24/24/24
f 29/29/29 25/25/25 23/23/23
f 30/30/30 28/28/28 25/25/25
f 30/30/30 25/25/25 29/29/29
f 24/24/24 31/31/31 29/29/29
f 31/31/31 30/30/30 29/29/29
f 32/32/32 31/31/31 24/24/24
f 33/33/33 28/28/28 30/30/30
f 33/33/33 30/30/30 31/31/31
f 34/34/34 28/28/28 33/33/33
f 31/31/31 35/35/35 33/33/33
f 32/32/32 36/36/36 31/31/31
f 36/36/36 35/35/35 31/31/31
f 37/37/37 36/36/36 32/32/32
f 38/38/38 35/35/35 36/36/36
f 41/41/41 40/40/40 39/39/39
f 40/40/40 42/42/42 39/39/39
f 39/39/39 42/42/42 43/43/43
f 42/42/42 44/44/44 43/43/43
f 47/47/47 46/46/46 45/45/45
f 48/48/48 47/47/47 45/45/45
f 51/51/51 50/50/50 49/49/49
f 52/52/52 51/51/51 49/49/49
f 53/53/53 51/51/51 52/52/52
f 54/54/54 53/53/53 52/52/52
f 57/57/57 56/56/56 55/55/55
f 56/56/56 58/58/58 55/55/55
f 55/55/55 58/58/58 59/59/59
f 58/58/58 60/60/60 59/59/59
f 59/59/59 60/60/60 61/61/61
f 60/60/60 62/62/62 61/61/61
f 65/65/65 64/64/64 63/63/63
f 66/66/66 65/65/65 63/63/63
f 69/69/69 68/68/68 67/67/67
f 70/70/70 69/69/69 67/67/67
f 73/73/73 72/72/72 71/71/71
f 74/74/74 73/73/73 71/71/71
f 77/77/77 76/76/76 75/75/75
f 78/78/78 77/77/77 75/75/75
f 79/79/79 77/77/77 78/78/78
f 80/80/80 79/79/79 78/78/78
f 83/83/83 82/82/82 81/81/81
f 84/84/84 83/83/83 81/81/81
