g shard31
v -0.1553206 -0.1689693 0.3652407
v -0.279577 -0.3041447 0.6574333
v -0.3775281 -0.3953884 0.5598852
v -0.2097378 -0.2196602 0.3110473
v -0.2097378 -0.2196602 0.3110473
v -0.3775281 -0.3953884 0.5598852
v -0.4774707 -0.3491401 0.5095278
v -0.2652615 -0.1939667 0.283071
v -0.2321679 -0.0757146 0.357132
v -0.4179022 -0.1362863 0.6428376
v -0.279577 -0.3041447 0.6574333
v -0.1553206 -0.1689693 0.3652407
v -0.3054872 0.00737758 0.3107234
v -0.549877 0.01327964 0.5593021
v -0.4179022 -0.1362863 0.6428376
v -0.2321679 -0.0757146 0.357132
v -0.2652615 -0.1939667 0.283071
v -0.4774707 -0.3491401 0.5095278
v -0.5596281 -0.3850222 0.389361
v -0.3109045 -0.2139012 0.2163116
v -0.3109045 -0.2139012 0.2163116
v -0.5596281 -0.3850222 0.389361
v -0.6212797 -0.2556192 0.3908319
v -0.3451554 -0.1420107 0.2171289
v -0.3451554 -0.1420107 0.2171289
v -0.6212797 -0.2556192 0.3908319
v -0.6847134 -0.1430607 0.3284568
v -0.3803963 -0.07947817 0.182476
v -0.3598478 -0.0617124 0.2298374
v -0.6477261 -0.1110823 0.4137073
v -0.549877 0.01327964 0.5593021
v -0.3054872 0.00737758 0.3107234
v -0.3958785 0.01233564 0.1632244
v -0.7125813 0.02220416 0.2938039
v -0.6477261 -0.1110823 0.4137073
v -0.3598478 -0.0617124 0.2298374
v -0.3803963 -0.07947817 0.182476
v -0.6847134 -0.1430607 0.3284568
v -0.7125813 0.02220416 0.2938039
v -0.3958785 0.01233564 0.1632244
vt 0 0
vt 0 1
vt 0.09549259 1
vt 0.09549259 0
vt 0.09549259 0
vt 0.09549259 1
vt 0.1653045 1
vt 0.1653045 0
vt 0.8743197 0
vt 0.8743197 1
vt 1 1
vt 1 0
vt 0.7496457 0
vt 0.7496457 1
vt 0.8743197 1
vt 0.8743197 0
vt 0.1653045 0
vt 0.1653045 1
vt 0.2517389 1
vt 0.2517389 0
vt 0.2517389 0
vt 0.2517389 1
vt 0.3343809 1
vt 0.3343809 0
vt 0.3343809 0
vt 0.3343809 1
vt 0.4170946 1
vt 0.4170946 0
vt 0.6256765 0
vt 0.6256765 1
vt 0.7496457 1
vt 0.7496457 0
vt 0.5157617 0
vt 0.5157617 1
vt 0.6256765 1
vt 0.6256765 0
vt 0.4170946 0
vt 0.4170946 1
vt 0.5157617 1
vt 0.5157617 0
vn -0.6988238 0.7145149 0.03337345
vn -0.6988237 0.7145149 0.03337346
vn -0.6988238 0.7145149 0.03337346
vn -0.6988237 0.7145149 0.03337345
vn 0.06341173 0.7945563 0.6038702
vn 0.06341175 0.7945563 0.6038702
vn 0.06341175 0.7945563 0.6038702
vn 0.06341174 0.7945563 0.6038702
vn -0.6310795 -0.5661566 -0.5302879
vn -0.6310795 -0.5661567 -0.5302878
vn -0.6310796 -0.5661567 -0.5302879
vn -0.6310796 -0.5661567 -0.5302879
vn -0.5065233 -0.7155949 -0.4809971
vn -0.5065233 -0.7155949 -0.4809971
vn -0.5065233 -0.7155949 -0.4809971
vn -0.5065233 -0.7155949 -0.4809971
vn -0.5163432 0.850638 0.09901945
vn -0.5163432 0.850638 0.09901945
vn -0.5163432 0.850638 0.09901945
vn -0.5163432 0.850638 0.09901945
vn 0.4579379 0.2083519 0.8642236
vn 0.4579379 0.2083519 0.8642236
vn 0.457938 0.2083519 0.8642235
vn 0.4579379 0.2083519 0.8642236
vn 0.2534547 0.5742332 0.7784709
vn 0.2534548 0.5742332 0.7784709
vn 0.2534548 0.5742333 0.7784709
vn 0.2534547 0.5742332 0.7784709
vn 0.4070694 -0.8113789 0.4194745
vn 0.4070694 -0.8113789 0.4194745
vn 0.4070694 -0.8113789 0.4194745
vn 0.4070694 -0.8113789 0.4194745
vn -0.285774 -0.7140225 -0.6391441
vn -0.285774 -0.7140225 -0.6391441
vn -0.285774 -0.7140225 -0.639144
vn -0.285774 -0.7140225 -0.6391441
vn 0.3756922 0.2504419 0.8922635
vn 0.3756923 0.2504419 0.8922635
vn 0.3756923 0.2504419 0.8922635
vn 0.3756922 0.2504419 0.8922635
g shard31_0
f 3/3/3 2/2/2 1/1/1
f 4/4/4 3/3/3 1/1/1
f 7/7/7 6/6/6 5/5/5
f 8/8/8 7/7/7 5/5/5
f 11/11/11 10/10/10 9/9/9
f 12/12/12 11/11/11 9/9/9
f 15/15/15 14/14/14 13/13/13
f 16/16/16 15/15/15 13/13/13
f 19/19/19 18/18/18 17/17/17
f 20/20/20 19/19/19 17/17/17
f 23/23/23 22/22/22 21/21/21
f 24/24/24 23/23/23 21/21/21
f 27/27/27 26/26/26 25/25/25
f 28/28/28 27/27/27 25/25/25
f 31/31/31 30/30/30 29/29/29
f 32/32/32 31/31/31 29/29/29
f 35/35/35 34/34/34 33/33/33
f 36/36/36 35/35/35 33/33/33
f 39/39/39 38/38/38 37/37/37
f 40/40/40 39/39/39 37/37/37
