g shard103
v 0.05536327 -0.1021364 0.02065369
v 0.03953248 -0.1126998 -0.04279623
v 0.007159948 -0.05017322 0.007622793
v -0.01458234 -0.05061176 -0.06452841
v -0.02344266 0.01066145 0.008123338
v -0.05100232 0.02970771 -0.06304286
v 0.03242651 -0.03130962 0.07782705
v -0.003444284 0.04338351 0.07837766
v -0.03981015 0.1073585 0.0422065
v -0.06990513 0.09700722 -0.07269842
v 0.06990513 -0.09036474 0.01371558
v 0.0230101 -0.03990768 0.001035571
v 0.05460358 -0.1006476 -0.04801349
v 0.001957208 -0.04064466 -0.06925145
v -0.005882859 0.0176971 0.001630768
v -0.03287801 0.03590021 -0.06841832
v 0.04778492 -0.02172323 0.06956108
v 0.01353404 0.05016728 0.07037829
v -0.02170685 0.1126998 0.0357254
v -0.05130774 0.101657 -0.07837768
v 0.05460358 -0.1006476 -0.04801349
v 0.03953248 -0.1126998 -0.04279623
v 0.05536327 -0.1021364 0.02065369
v 0.06990513 -0.09036474 0.01371558
v 0.001957208 -0.04064466 -0.06925145
v -0.01458234 -0.05061176 -0.06452841
v 0.03953248 -0.1126998 -0.04279623
v 0.05460358 -0.1006476 -0.04801349
v -0.03287801 0.03590021 -0.06841832
v -0.05100232 0.02970771 -0.06304286
v -0.05130774 0.101657 -0.07837768
v -0.06990513 0.09700722 -0.07269842
v 0.06990513 -0.09036474 0.01371558
v 0.05536327 -0.1021364 0.02065369
v 0.03242651 -0.03130962 0.07782705
v 0.04778492 -0.02172323 0.06956108
v 0.04778492 -0.02172323 0.06956108
v 0.03242651 -0.03130962 0.07782705
v -0.003444284 0.04338351 0.07837766
v 0.01353404 0.05016728 0.07037829
v -0.03981015 0.1073585 0.0422065
v -0.02170685 0.1126998 0.0357254
v -0.02170685 0.1126998 0.0357254
v -0.03981015 0.1073585 0.0422065
v -0.06990513 0.09700722 -0.07269842
v -0.05130774 0.101657 -0.07837768
vt 0.3125 0
vt 0.28125 0
vt 0.3125 0.03125
vt 0.28125 0.03125
vt 0.3125 0.0625
vt 0.28125 0.0625
vt 0.34375 0.03125
vt 0.34375 0.0625
vt 0.3125 0.09375
vt 0.28125 0.09375
vt 0.3125 0
vt 0.3125 0.03125
vt 0.28125 0
vt 0.28125 0.03125
vt 0.3125 0.0625
vt 0.28125 0.0625
vt 0.34375 0.03125
vt 0.34375 0.0625
vt 0.3125 0.09375
vt 0.28125 0.09375
vt 0.28125 0
vt 0.28125 0
vt 0.3125 0
vt 0.3125 0
vt 0.28125 0.03125
vt 0.28125 0.03125
vt 0.28125 0
vt 0.28125 0
vt 0.28125 0.0625
vt 0.28125 0.0625
vt 0.28125 0.09375
vt 0.28125 0.09375
vt 0.3125 0
vt 0.3125 0
vt 0.34375 0.03125
vt 0.34375 0.03125
vt 0.34375 0.03125
vt 0.34375 0.03125
vt 0.34375 0.0625
vt 0.34375 0.0625
vt 0.3125 0.09375
vt 0.3125 0.09375
vt 0.3125 0.09375
vt 0.3125 0.09375
vt 0.28125 0.09375
vt 0.28125 0.09375
vn -0.7301866 -0.5916622 0.3417065
vn -0.7565339 -0.600499 0.2589542
vn -0.7920884 -0.5139579 0.3293072
vn -0.8373585 -0.4896814 0.2429875
vn -0.8861288 -0.3381799 0.3168755
vn -0.9135644 -0.3013188 0.2731429
vn -0.7881289 -0.4564495 0.4129247
vn -0.8517346 -0.3383808 0.4000582
vn -0.917533 -0.261043 0.299983
vn -0.9302275 -0.2438327 0.2742671
vn 0.7297718 0.592542 -0.3410676
vn 0.7912721 0.5152647 -0.3292273
vn 0.7554386 0.6019363 -0.2588149
vn 0.8366927 0.4904759 -0.2436775
vn 0.8871859 0.3356614 -0.3165953
vn 0.9140792 0.2982797 -0.2747515
vn 0.7880896 0.4564423 -0.4130074
vn 0.8524379 0.3368452 -0.3998563
vn 0.9179517 0.2603207 -0.299329
vn 0.930678 0.2424785 -0.2739393
vn 0.6206932 -0.7836905 -0.02385915
vn 0.6206932 -0.7836904 -0.02385915
vn 0.6206932 -0.7836905 -0.02385915
vn 0.6206932 -0.7836905 -0.02385915
vn -0.1422218 -0.2298977 -0.9627669
vn -0.1418654 -0.2303827 -0.9627035
vn -0.04009587 -0.3627382 -0.9310281
vn -0.04009588 -0.3627383 -0.9310281
vn -0.2331578 -0.1434047 -0.961807
vn -0.233136 -0.143617 -0.9617805
vn -0.2264979 -0.203954 -0.9524187
vn -0.2264979 -0.203954 -0.9524187
vn 0.6161264 -0.3660929 0.6973982
vn 0.6161264 -0.3660929 0.6973982
vn 0.6161264 -0.3660929 0.6973982
vn 0.6161264 -0.3660929 0.6973982
vn 0.3728556 0.1698519 0.9122111
vn 0.3728556 0.1698518 0.9122111
vn 0.2688367 0.3672962 0.8904046
vn 0.2687726 0.367405 0.8903791
vn 0.1510517 0.5466121 0.8236496
vn 0.1510517 0.5466121 0.8236496
vn -0.2687556 0.9630027 -0.01990748
vn -0.2687556 0.9630027 -0.01990748
vn -0.2687556 0.9630027 -0.01990748
vn -0.2687556 0.9630027 -0.01990748
g shard103_0
f 3/3/3 2/2/2 1/1/1
f 3/3/3 4/4/4 2/2/2
f 5/5/5 4/4/4 3/3/3
f 5/5/5 6/6/6 4/4/4
f 7/7/7 3/3/3 1/1/1
f 7/7/7 5/5/5 3/3/3
f 7/7/7 8/8/8 5/5/5
f 8/8/8 9/9/9 5/5/5
f 5/5/5 10/10/10 6/6/6
f 5/5/5 9/9/9 10/10/10
f 13/13/13 12/12/12 11/11/11
f 14/14/14 12/12/12 13/13/13
f 14/14/14 15/15/15 12/12/12
f 16/16/16 15/15/15 14/14/14
f 12/12/12 17/17/17 11/11/11
f 15/15/15 17/17/17 12/12/12
f 18/18/18 17/17/17 15/15/15
f 19/19/19 18/18/18 15/15/15
f 20/20/20 15/15/15 16/16/16
f 19/19/19 15/15/15 20/20/20
f 23/23/23 22/22/22 21/21/21
f 24/24/24 23/23/23 21/21/21
f 27/27/27 26/26/26 25/25/25
f 28/28/28 27/27/27 25/25/25
f 25/25/25 26/26/26 29/29/29
f 26/26/26 30/30/30 29/29/29
f 29/29/29 30/30/30 31/31/31
f 30/30/30 32/32/32 31/31/31
f 35/35/35 34/34/34 33/33/33
f 36/36/36 35/35/35 33/33/33
f 39/39/39 38/38/38 37/37/37
f 40/40/40 39/39/39 37/37/37
f 41/41/41 39/39/39 40/40/40
f 42/42/42 41/41/41 40/40/40
f 45/45/45 44/44/44 43/43/43
f 46/46/46 45/45/45 43/43/43
