g shard93
v -0.008405343 0.01754382 -0.115875
v -0.07564059 0.04302612 -0.1052881
v -0.01941244 -0.008216262 -0.05742102
v -0.1175371 0.03113875 -0.03045023
v 0.03850494 -0.02864751 -0.04657992
v 0.03493179 -0.04494482 0.0158567
v -0.0476505 -0.0239546 0.02780627
v 0.1200519 -0.05271709 0.008814864
v 0.05702038 -0.05941728 0.1137031
v -0.02273259 -0.04124063 0.1122428
v -0.1217746 0.01044312 0.04625584
v -0.1221369 0.002850592 0.1111455
v -0.00231117 0.03446305 -0.1072695
v -0.0128205 0.009269178 -0.05029317
v -0.06752139 0.05941731 -0.09723932
v -0.1086226 0.04785624 -0.02416428
v 0.04188962 -0.01030117 -0.03974689
v 0.03870544 -0.02566579 0.01960877
v -0.0403439 -0.005723834 0.03158155
v 0.1221369 -0.033234 0.01259024
v 0.06020084 -0.03983 0.115875
v -0.01649679 -0.02241072 0.1138587
v -0.112783 0.02786949 0.04986245
v -0.1136815 0.02088469 0.1128707
v -0.06752139 0.05941731 -0.09723932
v -0.07564059 0.04302612 -0.1052881
v -0.008405343 0.01754382 -0.115875
v -0.00231117 0.03446305 -0.1072695
v -0.1086226 0.04785624 -0.02416428
v -0.1175371 0.03113875 -0.03045023
v -0.07564059 0.04302612 -0.1052881
v -0.06752139 0.05941731 -0.09723932
v -0.112783 0.02786949 0.04986245
v -0.1217746 0.01044312 0.04625584
v -0.1136815 0.02088469 0.1128707
v -0.1221369 0.002850592 0.1111455
v -0.00231117 0.03446305 -0.1072695
v -0.008405343 0.01754382 -0.115875
v 0.03850494 -0.02864751 -0.04657992
v 0.04188962 -0.01030117 -0.03974689
v 0.1200519 -0.05271709 0.008814864
v 0.1221369 -0.033234 0.01259024
v 0.1221369 -0.033234 0.01259024
v 0.1200519 -0.05271709 0.008814864
v 0.05702038 -0.05941728 0.1137031
v 0.06020084 -0.03983 0.115875
v 0.06020084 -0.03983 0.115875
v 0.05702038 -0.05941728 0.1137031
v -0.02273259 -0.04124063 0.1122428
v -0.01649679 -0.02241072 0.1138587
v -0.1221369 0.002850592 0.1111455
v -0.1136815 0.02088469 0.1128707
vt 0.4375 0.78125
vt 0.40625 0.78125
vt 0.4375 0.8125
vt 0.40625 0.8125
vt 0.46875 0.8125
vt 0.46875 0.84375
vt 0.4375 0.84375
vt 0.5 0.84375
vt 0.46875 0.875
vt 0.4375 0.875
vt 0.40625 0.84375
vt 0.40625 0.875
vt 0.4375 0.78125
vt 0.4375 0.8125
vt 0.40625 0.78125
vt 0.40625 0.8125
vt 0.46875 0.8125
vt 0.46875 0.84375
vt 0.4375 0.84375
vt 0.5 0.84375
vt 0.46875 0.875
vt 0.4375 0.875
vt 0.40625 0.84375
vt 0.40625 0.875
vt 0.40625 0.78125
vt 0.40625 0.78125
vt 0.4375 0.78125
vt 0.4375 0.78125
vt 0.40625 0.8125
vt 0.40625 0.8125
vt 0.40625 0.78125
vt 0.40625 0.78125
vt 0.40625 0.84375
vt 0.40625 0.84375
vt 0.40625 0.875
vt 0.40625 0.875
vt 0.4375 0.78125
vt 0.4375 0.78125
vt 0.46875 0.8125
vt 0.46875 0.8125
vt 0.5 0.84375
vt 0.5 0.84375
vt 0.5 0.84375
vt 0.5 0.84375
vt 0.46875 0.875
vt 0.46875 0.875
vt 0.46875 0.875
vt 0.46875 0.875
vt 0.4375 0.875
vt 0.4375 0.875
vt 0.40625 0.875
vt 0.40625 0.875
vn -0.3343781 -0.8375604 -0.4320693
vn -0.4177211 -0.8213087 -0.3885372
vn -0.3483537 -0.872179 -0.3434437
vn -0.4373671 -0.8435628 -0.3116278
vn -0.2096546 -0.9332799 -0.2916053
vn -0.1858941 -0.9666666 -0.1760655
vn -0.3656073 -0.9115194 -0.1883183
vn -0.1032604 -0.980755 -0.1657017
vn -0.1739068 -0.9790883 -0.1055578
vn -0.3101178 -0.9464969 -0.08927844
vn -0.4507137 -0.8741002 -0.1811243
vn -0.417283 -0.9050835 -0.08184569
vn 0.3374982 0.8363156 0.4320546
vn 0.3503937 0.8710559 0.3442179
vn 0.4185427 0.8206818 0.3889775
vn 0.4381411 0.8428157 0.3125605
vn 0.2099328 0.9337467 0.2899058
vn 0.1843278 0.9672598 0.1744474
vn 0.366677 0.9112003 0.1877818
vn 0.1027241 0.9812643 0.1629974
vn 0.172249 0.9793726 0.1056391
vn 0.3105855 0.9463781 0.08891175
vn 0.4508655 0.8742433 0.180053
vn 0.418127 0.9047639 0.08106884
vn 0.02684659 0.4378428 -0.8986506
vn 0.02684659 0.4378427 -0.8986506
vn 0.02684659 0.4378427 -0.8986506
vn 0.02684659 0.4378427 -0.8986506
vn -0.8470967 0.5099287 -0.1496657
vn -0.8469881 0.5100071 -0.1500128
vn -0.7661195 0.543008 -0.343807
vn -0.7661195 0.543008 -0.343807
vn -0.8950846 0.4421898 0.05737344
vn -0.8950868 0.4421865 0.05736444
vn -0.8989467 0.4361494 0.04084832
vn -0.8989467 0.4361494 0.04084833
vn 0.8367359 0.01474072 -0.5474083
vn 0.8367359 0.01474072 -0.5474083
vn 0.7158898 0.0821743 -0.6933607
vn 0.7165673 0.08184485 -0.6926997
vn 0.5768861 0.1421546 -0.8043597
vn 0.5768861 0.1421546 -0.8043597
vn 0.8471052 -0.1897236 0.4964048
vn 0.8471052 -0.1897236 0.4964047
vn 0.8471052 -0.1897237 0.4964048
vn 0.8471052 -0.1897237 0.4964047
vn -0.0420944 -0.08780883 0.9952475
vn -0.0420944 -0.08780883 0.9952475
vn -0.04266019 -0.07940043 0.9959295
vn -0.04266015 -0.07940116 0.9959295
vn -0.04307947 -0.07313638 0.9963911
vn -0.04307947 -0.07313637 0.9963911
g shard93_0
f 3/3/3 2/2/2 1/1/1
f 3/3/3 4/4/4 2/2/2
f 5/5/5 3/3/3 1/1/1
f 6/6/6 3/3/3 5/5/5
f 6/6/6 7/7/7 3/3/3
f 7/7/7 4/4/4 3/3/3
f 8/8/8 6/6/6 5/5/5
f 8/8/8 9/9/9 6/6/6
f 6/6/6 10/10/10 7/7/7
f 6/6/6 9/9/9 10/10/10
f 7/7/7 11/11/11 4/4/4
f 7/7/7 12/12/12 11/11/11
f 7/7/7 10/10/10 12/12/12
f 15/15/15 14/14/14 13/13/13
f 16/16/16 14/14/14 15/15/15
f 14/14/14 17/17/17 13/13/13
f 14/14/14 18/18/18 17/17/17
f 19/19/19 18/18/18 14/14/14
f 16/16/16 19/19/19 14/14/14
f 18/18/18 20/20/20 17/17/17
f 21/21/21 20/20/20 18/18/18
f 22/22/22 18/18/18 19/19/19
f 21/21/21 18/18/18 22/22/22
f 23/23/23 19/19/19 16/16/16
f 24/24/24 19/19/19 23/23/23
f 22/22/22 19/19/19 24/24/24
f 27/27/27 26/26/26 25/25/25
f 28/28/28 27/27/27 25/25/25
f 31/31/31 30/30/30 29/29/29
f 32/32/32 31/31/31 29/29/29
f 29/29/29 30/30/30 33/33/33
f 30/30/30 34/34/34 33/33/33
f 33/33/33 34/34/34 35/35/35
f 34/34/34 36/36/36 35/35/35
f 39/39/39 38/38/38 37/37/37
f 40/40/40 39/39/39 37/37/37
f 41/41/41 39/39/39 40/40/40
f 42/42/42 41/41/41 40/40/40
f 45/45/45 44/44/44 43/43/43
f 46/46/46 45/45/45 43/43/43
f 49/49/49 48/48/48 47/47/47
f 50/50/50 49/49/49 47/47/47
f 51/51/51 49/49/49 50/50/50
f 52/52/52 51/51/51 50/50/50
