g shard46
v -0.172535 -0.1737287 -0.354531
v -0.09144704 -0.2471002 -0.3431027
v -0.1398968 -0.2865058 -0.2953935
v -0.2323293 -0.1544849 -0.3327548
v -0.286002 -0.1509738 -0.2915305
v -0.2800172 -0.2505067 -0.2154022
v -0.2003573 -0.3185105 -0.2148189
v -0.3236722 -0.2040524 -0.2004123
v -0.3289862 -0.1625086 -0.2304794
v -0.1646047 -0.4447804 -0.6175849
v -0.310563 -0.3127117 -0.6381558
v -0.2518143 -0.5157105 -0.5317084
v -0.4181927 -0.2780729 -0.5989586
v -0.5148035 -0.2717528 -0.524755
v -0.3606431 -0.573319 -0.386674
v -0.504031 -0.4509121 -0.3877239
v -0.58261 -0.3672943 -0.3607422
v -0.5921751 -0.2925155 -0.414863
v -0.1646047 -0.4447804 -0.6175849
v -0.09144704 -0.2471002 -0.3431027
v -0.172535 -0.1737287 -0.354531
v -0.310563 -0.3127117 -0.6381558
v -0.4181927 -0.2780729 -0.5989586
v -0.2323293 -0.1544849 -0.3327548
v -0.2003573 -0.3185105 -0.2148189
v -0.3606431 -0.573319 -0.386674
v -0.2518143 -0.5157105 -0.5317084
v -0.1398968 -0.2865058 -0.2953935
v -0.504031 -0.4509121 -0.3877239
v -0.2800172 -0.2505067 -0.2154022
v -0.58261 -0.3672943 -0.3607422
v -0.3236722 -0.2040524 -0.2004123
v -0.286002 -0.1509738 -0.2915305
v -0.5148035 -0.2717528 -0.524755
v -0.5921751 -0.2925155 -0.414863
v -0.3289862 -0.1625086 -0.2304794
vt 0.1514845 0
vt 0 0
vt 0.1514845 0
vt 0.8150374 0
vt 0.9084045 0
vt 0.4053858 0
vt 0.5496914 0
vt 0.5496914 0
vt 0.6399148 0
vt 0 1
vt 0.1514845 1
vt 0.1514845 1
vt 0.8150374 1
vt 0.9084045 1
vt 0.5496914 1
vt 0.4053858 1
vt 0.5496914 1
vt 0.6399148 1
vt 0.2597611 1
vt 0.2597611 0
vt 0.9084045 0
vt 0.9084045 1
vt 1 1
vt 1 0
vt 0.2597611 0
vt 0.2597611 1
vt 0.4053858 1
vt 0.4053858 0
vt 0.6399148 1
vt 0.6399148 0
vt 0.7109476 1
vt 0.7109476 0
vt 0.7109476 0
vt 0.7109476 1
vt 0.8150374 1
vt 0.8150374 0
vn -0.5947273 -0.5687807 0.5681443
vn -0.5947273 -0.5687808 0.5681443
vn -0.7460012 0.6185781 -0.2466644
vn 0.1770368 -0.9340902 0.3100542
vn 0.1770368 -0.9340902 0.3100542
vn 0.3284754 0.3773509 -0.8658581
vn 0.3284754 0.3773509 -0.8658581
vn 0.2213811 0.4816531 -0.8479391
vn 0.6497266 -0.3893961 -0.6528599
vn -0.5947273 -0.5687808 0.5681443
vn -0.5947273 -0.5687807 0.5681442
vn -0.7460011 0.6185782 -0.2466644
vn 0.1770368 -0.9340902 0.3100542
vn 0.1770368 -0.9340902 0.3100542
vn 0.3284754 0.3773508 -0.8658581
vn 0.3284754 0.3773509 -0.8658581
vn 0.221381 0.4816531 -0.8479391
vn 0.6497266 -0.3893961 -0.6528599
vn -0.7460012 0.6185781 -0.2466644
vn -0.7460011 0.6185782 -0.2466644
vn -0.1061414 -0.8715262 0.4787235
vn -0.1061414 -0.8715262 0.4787235
vn -0.1061414 -0.8715262 0.4787234
vn -0.1061414 -0.8715262 0.4787235
vn -0.7147661 0.6399196 -0.2821563
vn -0.7147661 0.6399196 -0.2821563
vn -0.7147662 0.6399195 -0.2821563
vn -0.7147661 0.6399196 -0.2821564
vn 0.2213811 0.4816531 -0.8479391
vn 0.2213811 0.4816531 -0.8479391
vn 0.6497266 -0.3893962 -0.6528599
vn 0.6497267 -0.3893962 -0.6528599
vn 0.3849466 -0.9177605 0.09763049
vn 0.3849466 -0.9177605 0.0976305
vn 0.3849466 -0.9177605 0.09763049
vn 0.3849466 -0.9177605 0.09763049
g shard46_0
f 11/11/11 10/10/10 2/2/2
f 1/1/1 11/11/11 2/2/2
f 19/19/19 12/12/12 3/3/3
f 20/20/20 19/19/19 3/3/3
f 14/14/14 13/13/13 4/4/4
f 5/5/5 14/14/14 4/4/4
f 23/23/23 22/22/22 21/21/21
f 24/24/24 23/23/23 21/21/21
f 15/15/15 16/16/16 6/6/6
f 7/7/7 15/15/15 6/6/6
f 27/27/27 26/26/26 25/25/25
f 28/28/28 27/27/27 25/25/25
f 29/29/29 17/17/17 8/8/8
f 30/30/30 29/29/29 8/8/8
f 31/31/31 18/18/18 9/9/9
f 32/32/32 31/31/31 9/9/9
f 35/35/35 34/34/34 33/33/33
f 36/36/36 35/35/35 33/33/33
