g shard41
v -0.3054872 0.00737758 0.3107234
v -0.549877 0.01327964 0.5593021
v -0.6477261 -0.1110823 0.4137073
v -0.3598478 -0.0617124 0.2298374
v -0.3598478 -0.0617124 0.2298374
v -0.6477261 -0.1110823 0.4137073
v -0.7125813 0.02220416 0.2938039
v -0.3958785 0.01233564 0.1632244
v -0.3958785 0.01233564 0.1632244
v -0.7125813 0.02220416 0.2938039
v -0.6892226 0.1488275 0.3179779
v -0.3829015 0.08268195 0.1766544
v -0.3829015 0.08268195 0.1766544
v -0.6892226 0.1488275 0.3179779
v -0.6325039 0.1711932 0.4202078
v -0.351391 0.0951073 0.2334488
v -0.2877384 0.05679111 0.317414
v -0.5179291 0.102224 0.5713451
v -0.549877 0.01327964 0.5593021
v -0.3054872 0.00737758 0.3107234
v -0.351391 0.0951073 0.2334488
v -0.6325039 0.1711932 0.4202078
v -0.5179291 0.102224 0.5713451
v -0.2877384 0.05679111 0.317414
vt 0 0
vt 0 1
vt 0.2256821 1
vt 0.2256821 0
vt 0.2256821 0
vt 0.2256821 1
vt 0.4257783 1
vt 0.4257783 0
vt 0.4257783 0
vt 0.4257783 1
vt 0.5632773 1
vt 0.5632773 0
vt 0.5632773 0
vt 0.5632773 1
vt 0.6882036 1
vt 0.6882036 0
vt 0.9000085 0
vt 0.9000085 1
vt 1 1
vt 1 0
vt 0.6882036 0
vt 0.6882036 1
vt 0.9000085 1
vt 0.9000085 0
vn -0.4070695 0.8113788 -0.4194745
vn -0.4070695 0.8113788 -0.4194745
vn -0.4070695 0.8113788 -0.4194745
vn -0.4070695 0.8113788 -0.4194745
vn 0.2857739 0.7140224 0.6391441
vn 0.2857739 0.7140224 0.6391441
vn 0.285774 0.7140225 0.6391441
vn 0.285774 0.7140225 0.6391441
vn 0.3637607 -0.2389856 0.9003133
vn 0.3637607 -0.2389856 0.9003133
vn 0.3637607 -0.2389856 0.9003133
vn 0.3637607 -0.2389856 0.9003133
vn -0.08806366 -0.9617801 0.2592754
vn -0.08806365 -0.9617801 0.2592754
vn -0.08806365 -0.9617801 0.2592754
vn -0.08806367 -0.9617801 0.2592755
vn -0.6690933 0.330462 -0.6656644
vn -0.6690933 0.3304621 -0.6656644
vn -0.6690933 0.3304621 -0.6656644
vn -0.6690933 0.3304621 -0.6656644
vn -0.3522816 -0.9231058 -0.1541858
vn -0.3522816 -0.9231058 -0.1541858
vn -0.3522816 -0.9231058 -0.1541858
vn -0.3522816 -0.9231058 -0.1541858
g shard41_0
f 3/3/3 2/2/2 1/1/1
f 4/4/4 3/3/3 1/1/1
f 7/7/7 6/6/6 5/5/5
f 8/8/8 7/7/7 5/5/5
f 11/11/11 10/10/10 9/9/9
f 12/12/12 11/11/11 9/9/9
f 15/15/15 14/14/14 13/13/13
f 16/16/16 15/15/15 13/13/13
f 19/19/19 18/18/18 17/17/17
f 20/20/20 19/19/19 17/17/17
f 23/23/23 22/22/22 21/21/21
f 24/24/24 23/23/23 21/21/21
