g shard20
v 0.2693203 -0.26961744 0.21107359
v 0.48477656 -0.4853114 0.37993246
v 0.5382687 -0.4903841 0.28234023
v 0.29903814 -0.2724356 0.15685569
v 0.23627877 -0.32325256 0.1653467
v 0.4253018 -0.5818546 0.29762405
v 0.48477656 -0.4853114 0.37993246
v 0.2693203 -0.26961744 0.21107359
v 0.29903814 -0.2724356 0.15685569
v 0.5382687 -0.4903841 0.28234023
v 0.4253018 -0.5818546 0.29762405
v 0.23627877 -0.32325256 0.1653467
vt 0 0
vt 0 1
vt 0.2801409 1
vt 0.2801409 0
vt 0.2801409 0
vt 0.2801409 1
vt 0.63247484 1
vt 0.63247484 0
vt 0.63247484 0
vt 0.63247484 1
vt 1 1
vt 1 0
vn -0.56703264 -0.7780618 -0.27035877
vn -0.56703264 -0.77806175 -0.27035877
vn -0.56703264 -0.77806175 -0.27035877
vn -0.56703264 -0.77806175 -0.27035883
vn 0.70253474 0.15865831 -0.6937381
vn 0.7025348 0.1586583 -0.69373816
vn 0.70253474 0.1586583 -0.6937381
vn 0.70253474 0.1586583 -0.69373816
vn -0.16143301 0.3533382 0.92146164
vn -0.16143304 0.3533382 0.92146164
vn -0.16143301 0.35333815 0.92146164
vn -0.16143301 0.35333815 0.92146164
g shard20_0
f 3/3/3 2/2/2 1/1/1
f 4/4/4 3/3/3 1/1/1
f 7/7/7 6/6/6 5/5/5
f 8/8/8 7/7/7 5/5/5
f 11/11/11 10/10/10 9/9/9
f 12/12/12 11/11/11 9/9/9
