g shard108
v -0.032520086 -0.012592107 -0.0057438314
v 0.02214536 0.011414021 0.017407596
v 0.009035781 -0.052026883 0.056832135
v 0.015608728 0.06252864 -0.04544045
v -0.02214533 -0.024203777 -0.018200427
v 0.019374117 -0.062528655 0.043310642
v 0.032520086 -0.0001976788 0.004951
v 0.026019841 0.049807042 -0.05683212
v -0.02214533 -0.024203777 -0.018200427
v -0.032520086 -0.012592107 -0.0057438314
v 0.009035781 -0.052026883 0.056832135
v 0.019374117 -0.062528655 0.043310642
v 0.019374117 -0.062528655 0.043310642
v 0.009035781 -0.052026883 0.056832135
v 0.02214536 0.011414021 0.017407596
v 0.032520086 -0.0001976788 0.004951
v 0.015608728 0.06252864 -0.04544045
v 0.026019841 0.049807042 -0.05683212
v 0.026019841 0.049807042 -0.05683212
v 0.015608728 0.06252864 -0.04544045
v -0.032520086 -0.012592107 -0.0057438314
v -0.02214533 -0.024203777 -0.018200427
vt 0.375 0.25
vt 0.40625 0.25
vt 0.40625 0.21875
vt 0.40625 0.28125
vt 0.375 0.25
vt 0.40625 0.21875
vt 0.40625 0.25
vt 0.40625 0.28125
vt 0.375 0.25
vt 0.375 0.25
vt 0.40625 0.21875
vt 0.40625 0.21875
vt 0.40625 0.21875
vt 0.40625 0.21875
vt 0.40625 0.25
vt 0.40625 0.25
vt 0.40625 0.28125
vt 0.40625 0.28125
vt 0.40625 0.28125
vt 0.40625 0.28125
vt 0.375 0.25
vt 0.375 0.25
vn -0.52031595 0.5834765 0.62355953
vn -0.5204587 0.588349 0.6188443
vn -0.51701915 0.5263287 0.67503285
vn -0.52058 0.63508904 0.5706649
vn 0.52031666 -0.58349705 -0.62353987
vn 0.5169167 -0.52509 -0.6760752
vn 0.52046406 -0.5885506 -0.61864793
vn 0.5205564 -0.63607824 -0.56958365
vn -0.70935565 -0.70404387 0.033716194
vn -0.70935565 -0.7040438 0.033716194
vn -0.7093557 -0.70404375 0.03371619
vn -0.7093557 -0.7040438 0.03371619
vn 0.83255017 0.15509218 0.5317957
vn 0.83255017 0.15509218 0.5317957
vn 0.85690033 0.31453297 0.40840033
vn 0.85691094 0.3147778 0.4081893
vn 0.84773606 0.45179763 0.2778892
vn 0.84773606 0.45179763 0.2778892
vn -0.70572686 0.08634362 -0.70320296
vn -0.7057269 0.086343616 -0.7032029
vn -0.7057269 0.08634362 -0.7032029
vn -0.7057269 0.086343616 -0.7032029
g shard108_0
f 3/3/3 2/2/2 1/1/1
f 4/4/4 1/1/1 2/2/2
f 7/7/7 6/6/6 5/5/5
f 5/5/5 8/8/8 7/7/7
f 11/11/11 10/10/10 9/9/9
f 12/12/12 11/11/11 9/9/9
f 15/15/15 14/14/14 13/13/13
f 16/16/16 15/15/15 13/13/13
f 17/17/17 15/15/15 16/16/16
f 18/18/18 17/17/17 16/16/16
f 21/21/21 20/20/20 19/19/19
f 22/22/22 21/21/21 19/19/19
