g shard66
v 0.03387457 0.04678726 0.1079705
v 0.05048698 0.06393251 0.1095901
v 0.09183009 0.02399926 0.1724108
v 0.0001223683 0.03491941 0.07976411
v 0.02647254 0.09118304 0.05388749
v -0.03847092 0.0489035 -0.001169845
v 0.02370697 0.1243555 -0.003027827
v -0.04160616 -0.0346998 0.07332867
v -0.04118526 0.07373026 -0.06324437
v -0.007837981 0.1196867 -0.07200535
v -0.08877638 -0.004123926 -0.09745725
v -0.06355754 0.05911784 -0.1701437
v -0.0727194 -0.02517091 0.004059508
v -0.1096976 -0.08313253 -0.07134263
v -0.08585075 -0.1004262 0.0230542
v -0.05345055 -0.08665481 0.08145015
v -0.09971762 -0.1721186 0.008022591
v 0.05048698 0.06393251 0.1095901
v 0.02647254 0.09118304 0.05388749
v 0.09860112 0.1402529 0.06841078
v 0.0555279 0.1516321 -0.008726597
v 0.02370697 0.1243555 -0.003027827
v -0.007837981 0.1196867 -0.07200535
v 0.05470955 0.1746387 -0.07725584
v 0.04585266 0.03638443 0.09593803
v 0.1030519 0.01445068 0.1588869
v 0.06153247 0.05277556 0.09737584
v 0.01433873 0.02500792 0.07001626
v 0.03911406 0.07882053 0.04454079
v -0.02249247 0.03888576 -0.007828236
v 0.03646466 0.1105539 -0.009865761
v -0.02508417 -0.04158884 0.06460972
v -0.02505919 0.06293601 -0.06736461
v 0.005838931 0.1063092 -0.07752246
v -0.07082793 -0.01207693 -0.1007116
v -0.0461624 0.04951213 -0.1724108
v -0.05506635 -0.03192967 -0.002474174
v -0.09088421 -0.0875427 -0.07610354
v -0.06761545 -0.1042924 0.0161725
v -0.03610501 -0.09186701 0.07296686
v -0.08059251 -0.1746387 0.002742484
v 0.06153247 0.05277556 0.09737584
v 0.1096976 0.1267864 0.05874415
v 0.03911406 0.07882053 0.04454079
v 0.06743829 0.1371621 -0.01547137
v 0.03646466 0.1105539 -0.009865761
v 0.005838931 0.1063092 -0.07752246
v 0.06720637 0.1598665 -0.08231663
v 0.04585266 0.03638443 0.09593803
v 0.09183009 0.02399926 0.1724108
v 0.1030519 0.01445068 0.1588869
v 0.03387457 0.04678726 0.1079705
v 0.01433873 0.02500792 0.07001626
v 0.0001223683 0.03491941 0.07976411
v 0.1030519 0.01445068 0.1588869
v 0.09183009 0.02399926 0.1724108
v 0.05048698 0.06393251 0.1095901
v 0.06153247 0.05277556 0.09737584
v 0.06153247 0.05277556 0.09737584
v 0.05048698 0.06393251 0.1095901
v 0.09860112 0.1402529 0.06841078
v 0.1096976 0.1267864 0.05874415
v 0.1096976 0.1267864 0.05874415
v 0.09860112 0.1402529 0.06841078
v 0.0555279 0.1516321 -0.008726597
v 0.06743829 0.1371621 -0.01547137
v 0.05470955 0.1746387 -0.07725584
v 0.06720637 0.1598665 -0.08231663
v 0.06720637 0.1598665 -0.08231663
v 0.05470955 0.1746387 -0.07725584
v -0.007837981 0.1196867 -0.07200535
v 0.005838931 0.1063092 -0.07752246
v -0.09088421 -0.0875427 -0.07610354
v -0.09971762 -0.1721186 0.008022591
v -0.08059251 -0.1746387 0.002742484
v -0.1096976 -0.08313253 -0.07134263
v -0.07082793 -0.01207693 -0.1007116
v -0.08877638 -0.004123926 -0.09745725
v -0.0461624 0.04951213 -0.1724108
v -0.06355754 0.05911784 -0.1701437
v -0.08059251 -0.1746387 0.002742484
v -0.09971762 -0.1721186 0.008022591
v -0.08585075 -0.1004262 0.0230542
v -0.06761545 -0.1042924 0.0161725
v -0.03610501 -0.09186701 0.07296686
v -0.05345055 -0.08665481 0.08145015
v -0.04160616 -0.0346998 0.07332867
v -0.02508417 -0.04158884 0.06460972
v 0.0001223683 0.03491941 0.07976411
v 0.01433873 0.02500792 0.07001626
v -0.06761545 -0.1042924 0.0161725
v -0.08585075 -0.1004262 0.0230542
v -0.05345055 -0.08665481 0.08145015
v -0.03610501 -0.09186701 0.07296686
v -0.02505919 0.06293601 -0.06736461
v -0.04118526 0.07373026 -0.06324437
v -0.06355754 0.05911784 -0.1701437
v -0.0461624 0.04951213 -0.1724108
v 0.005838931 0.1063092 -0.07752246
v -0.007837981 0.1196867 -0.07200535
v -0.04118526 0.07373026 -0.06324437
v -0.02505919 0.06293601 -0.06736461
vt 0.375 0.21875
vt 0.375 0.25
vt 0.40625 0.21875
vt 0.34375 0.21875
vt 0.34375 0.25
vt 0.3125 0.21875
vt 0.3125 0.25
vt 0.34375 0.1875
vt 0.28125 0.21875
vt 0.28125 0.25
vt 0.28125 0.1875
vt 0.25 0.21875
vt 0.3125 0.1875
vt 0.28125 0.15625
vt 0.3125 0.15625
vt 0.34375 0.15625
vt 0.3125 0.125
vt 0.375 0.25
vt 0.375 0.28125
vt 0.40625 0.28125
vt 0.40625 0.3125
vt 0.375 0.3125
vt 0.375 0.34375
vt 0.40625 0.34375
vt 0.375 0.21875
vt 0.40625 0.21875
vt 0.375 0.25
vt 0.34375 0.21875
vt 0.34375 0.25
vt 0.3125 0.21875
vt 0.3125 0.25
vt 0.34375 0.1875
vt 0.28125 0.21875
vt 0.28125 0.25
vt 0.28125 0.1875
vt 0.25 0.21875
vt 0.3125 0.1875
vt 0.28125 0.15625
vt 0.3125 0.15625
vt 0.34375 0.15625
vt 0.3125 0.125
vt 0.375 0.25
vt 0.40625 0.28125
vt 0.375 0.28125
vt 0.40625 0.3125
vt 0.375 0.3125
vt 0.375 0.34375
vt 0.40625 0.34375
vt 0.375 0.21875
vt 0.40625 0.21875
vt 0.40625 0.21875
vt 0.375 0.21875
vt 0.34375 0.21875
vt 0.34375 0.21875
vt 0.40625 0.21875
vt 0.40625 0.21875
vt 0.375 0.25
vt 0.375 0.25
vt 0.375 0.25
vt 0.375 0.25
vt 0.40625 0.28125
vt 0.40625 0.28125
vt 0.40625 0.28125
vt 0.40625 0.28125
vt 0.40625 0.3125
vt 0.40625 0.3125
vt 0.40625 0.34375
vt 0.40625 0.34375
vt 0.40625 0.34375
vt 0.40625 0.34375
vt 0.375 0.34375
vt 0.375 0.34375
vt 0.28125 0.15625
vt 0.3125 0.125
vt 0.3125 0.125
vt 0.28125 0.15625
vt 0.28125 0.1875
vt 0.28125 0.1875
vt 0.25 0.21875
vt 0.25 0.21875
vt 0.3125 0.125
vt 0.3125 0.125
vt 0.3125 0.15625
vt 0.3125 0.15625
vt 0.34375 0.15625
vt 0.34375 0.15625
vt 0.34375 0.1875
vt 0.34375 0.1875
vt 0.34375 0.21875
vt 0.34375 0.21875
vt 0.3125 0.15625
vt 0.3125 0.15625
vt 0.34375 0.15625
vt 0.34375 0.15625
vt 0.28125 0.21875
vt 0.28125 0.21875
vt 0.25 0.21875
vt 0.25 0.21875
vt 0.28125 0.25
vt 0.28125 0.25
vt 0.28125 0.21875
vt 0.28125 0.21875
vn -0.5944665 0.5178849 0.6151462
vn -0.580234 0.5741847 0.5776162
vn -0.5611103 0.4799705 0.6743764
vn -0.73763 0.4904699 0.4640488
vn -0.6340519 0.6203325 0.4616988
vn -0.8047662 0.4949681 0.3276552
vn -0.6651602 0.6671261 0.3354169
vn -0.828936 0.3546654 0.4325246
vn -0.829818 0.5160481 0.2123599
vn -0.6920852 0.6661576 0.2779425
vn -0.8918843 0.4143353 0.1812971
vn -0.8693506 0.4803203 0.1162843
vn -0.8862098 0.341321 0.3132605
vn -0.9376658 0.2468452 0.2446433
vn -0.9283262 0.1991697 0.3139137
vn -0.868528 0.2636121 0.4197235
vn -0.9555289 0.1292443 0.2650672
vn -0.580234 0.5741847 0.5776162
vn -0.6340519 0.6203325 0.4616988
vn -0.5598761 0.6849955 0.4661758
vn -0.5929922 0.7304152 0.3389009
vn -0.6651602 0.6671261 0.3354169
vn -0.6920852 0.6661576 0.2779425
vn -0.6260571 0.7369447 0.2548826
vn 0.5934698 -0.5133374 -0.6199018
vn 0.5610916 -0.4774262 -0.6761956
vn 0.5796666 -0.5747379 -0.5776358
vn 0.7386017 -0.4896303 -0.4633895
vn 0.6330472 -0.6214929 -0.4615168
vn 0.8054515 -0.4938702 -0.3276281
vn 0.6640975 -0.6682946 -0.3351965
vn 0.8292778 -0.3532275 -0.433046
vn 0.8304741 -0.5154189 -0.2113199
vn 0.6894128 -0.6696979 -0.2760701
vn 0.8921657 -0.4144879 -0.1795556
vn 0.8697566 -0.4802858 -0.1133535
vn 0.8862681 -0.3410676 -0.3133717
vn 0.9380051 -0.2457235 -0.2444717
vn 0.9289678 -0.1972122 -0.3132511
vn 0.8672764 -0.2606083 -0.4241639
vn 0.9562555 -0.1260021 -0.2640054
vn 0.5796666 -0.5747379 -0.5776358
vn 0.5596533 -0.6857673 -0.4653078
vn 0.6330472 -0.6214929 -0.4615168
vn 0.5927504 -0.7309908 -0.338082
vn 0.6640975 -0.6682946 -0.3351965
vn 0.6894128 -0.6696979 -0.2760701
vn 0.62484 -0.7386103 -0.2530409
vn -0.4189835 -0.8532372 0.3105464
vn -0.5213106 -0.8345393 0.1782674
vn -0.5213106 -0.8345393 0.1782674
vn -0.4166031 -0.8533767 0.3133528
vn -0.1701621 -0.8143415 0.554881
vn -0.1701621 -0.8143415 0.5548809
vn 0.6834312 0.7300039 0.004004345
vn 0.6834313 0.7300039 0.004004346
vn 0.6834312 0.7300039 0.004004346
vn 0.6834312 0.7300039 0.004004346
vn 0.6771883 -0.04375283 0.7345078
vn 0.6771884 -0.04375283 0.7345077
vn 0.6771883 -0.04375283 0.7345077
vn 0.6771884 -0.04375283 0.7345077
vn 0.6590105 0.7017375 -0.2706841
vn 0.6590104 0.7017375 -0.270684
vn 0.740886 0.6685112 -0.06465784
vn 0.7406572 0.6686918 -0.06540804
vn 0.7901349 0.5825527 0.1905761
vn 0.7901349 0.5825526 0.1905761
vn -0.2176735 0.1594418 -0.9629104
vn -0.2176735 0.1594418 -0.9629104
vn -0.2509033 0.10089 -0.9627402
vn -0.2510175 0.1006844 -0.962732
vn -0.3026106 -0.4945787 -0.8147507
vn -0.302807 -0.6560269 -0.6913295
vn -0.302807 -0.6560269 -0.6913296
vn -0.3026781 -0.4963925 -0.8136218
vn -0.3616266 -0.4520714 -0.815388
vn -0.3617703 -0.4525031 -0.8150849
vn -0.4106189 -0.6147766 -0.6733809
vn -0.4106189 -0.6147765 -0.6733809
vn 0.2638068 -0.2372027 0.934955
vn 0.2638068 -0.2372027 0.934955
vn 0.2638068 -0.2372027 0.934955
vn 0.2638068 -0.2372027 0.934955
vn 0.4635579 0.03900523 0.8852076
vn 0.4635579 0.03900523 0.8852076
vn 0.412533 -0.1632625 0.896193
vn 0.4122822 -0.1640924 0.8961568
vn 0.36792 -0.2958276 0.8815446
vn 0.36792 -0.2958277 0.8815446
vn -0.1204593 -0.9514608 0.2832169
vn -0.1204593 -0.9514608 0.2832169
vn -0.1204593 -0.9514608 0.2832169
vn -0.1204593 -0.9514608 0.2832169
vn 0.4785333 0.852363 -0.2109106
vn 0.4785333 0.852363 -0.2109106
vn 0.4785333 0.852363 -0.2109106
vn 0.4785333 0.852363 -0.2109106
vn -0.2510175 0.1006844 -0.962732
vn -0.2509033 0.10089 -0.9627402
vn -0.2984471 0.01252424 -0.954344
vn -0.2984472 0.01252424 -0.954344
g shard66_0
f 3/3/3 2/2/2 1/1/1
f 2/2/2 4/4/4 1/1/1
f 2/2/2 5/5/5 4/4/4
f 5/5/5 6/6/6 4/4/4
f 5/5/5 7/7/7 6/6/6
f 8/8/8 4/4/4 6/6/6
f 7/7/7 9/9/9 6/6/6
f 7/7/7 10/10/10 9/9/9
f 6/6/6 9/9/9 11/11/11
f 11/11/11 9/9/9 12/12/12
f 6/6/6 11/11/11 13/13/13
f 8/8/8 6/6/6 13/13/13
f 13/13/13 11/11/11 14/14/14
f 8/8/8 13/13/13 15/15/15
f 13/13/13 14/14/14 15/15/15
f 8/8/8 15/15/15 16/16/16
f 17/17/17 15/15/15 14/14/14
f 20/20/20 19/19/19 18/18/18
f 21/21/21 19/19/19 20/20/20
f 21/21/21 22/22/22 19/19/19
f 21/21/21 23/23/23 22/22/22
f 21/21/21 24/24/24 23/23/23
f 27/27/27 26/26/26 25/25/25
f 28/28/28 27/27/27 25/25/25
f 29/29/29 27/27/27 28/28/28
f 30/30/30 29/29/29 28/28/28
f 31/31/31 29/29/29 30/30/30
f 28/28/28 32/32/32 30/30/30
f 33/33/33 31/31/31 30/30/30
f 34/34/34 31/31/31 33/33/33
f 33/33/33 30/30/30 35/35/35
f 33/33/33 35/35/35 36/36/36
f 35/35/35 30/30/30 37/37/37
f 30/30/30 32/32/32 37/37/37
f 35/35/35 37/37/37 38/38/38
f 37/37/37 32/32/32 39/39/39
f 38/38/38 37/37/37 39/39/39
f 39/39/39 32/32/32 40/40/40
f 39/39/39 41/41/41 38/38/38
f 44/44/44 43/43/43 42/42/42
f 44/44/44 45/45/45 43/43/43
f 46/46/46 45/45/45 44/44/44
f 47/47/47 45/45/45 46/46/46
f 48/48/48 45/45/45 47/47/47
f 51/51/51 50/50/50 49/49/49
f 50/50/50 52/52/52 49/49/49
f 49/49/49 52/52/52 53/53/53
f 52/52/52 54/54/54 53/53/53
f 57/57/57 56/56/56 55/55/55
f 58/58/58 57/57/57 55/55/55
f 61/61/61 60/60/60 59/59/59
f 62/62/62 61/61/61 59/59/59
f 65/65/65 64/64/64 63/63/63
f 66/66/66 65/65/65 63/63/63
f 67/67/67 65/65/65 66/66/66
f 68/68/68 67/67/67 66/66/66
f 71/71/71 70/70/70 69/69/69
f 72/72/72 71/71/71 69/69/69
f 75/75/75 74/74/74 73/73/73
f 74/74/74 76/76/76 73/73/73
f 73/73/73 76/76/76 77/77/77
f 76/76/76 78/78/78 77/77/77
f 77/77/77 78/78/78 79/79/79
f 78/78/78 80/80/80 79/79/79
f 83/83/83 82/82/82 81/81/81
f 84/84/84 83/83/83 81/81/81
f 87/87/87 86/86/86 85/85/85
f 88/88/88 87/87/87 85/85/85
f 89/89/89 87/87/87 88/88/88
f 90/90/90 89/89/89 88/88/88
f 93/93/93 92/92/92 91/91/91
f 94/94/94 93/93/93 91/91/91
f 97/97/97 96/96/96 95/95/95
f 98/98/98 97/97/97 95/95/95
f 101/101/101 100/100/100 99/99/99
f 102/102/102 101/101/101 99/99/99
