g shard7
v 0.37809363 -0.18094352 0.091998324
v 0.6805686 -0.32569832 0.16559699
v 0.64989495 -0.30949867 0.29120877
v 0.36105275 -0.17194371 0.16178265
v 0.36105275 -0.17194371 0.16178265
v 0.64989495 -0.30949867 0.29120877
v 0.6775849 -0.17454478 0.32633016
v 0.37643602 -0.09696932 0.18129453
v 0.388824 -0.17914894 0.016955249
v 0.69988316 -0.3224681 0.030519448
v 0.6805686 -0.32569832 0.16559699
v 0.37809363 -0.18094352 0.091998324
v 0.37643602 -0.09696932 0.18129453
v 0.6775849 -0.17454478 0.32633016
v 0.6550257 -0.022746958 0.4155017
v 0.36390316 -0.012637199 0.23083428
v 0.36390316 -0.012637199 0.23083428
v 0.6550257 -0.022746958 0.4155017
v 0.71826756 0.00594649 0.2779602
v 0.3990375 0.0033036056 0.15442234
v 0.35380432 -0.24186578 -0.060985178
v 0.63684773 -0.4353584 -0.10977332
v 0.64688253 -0.4368515 -0.01137928
v 0.3593792 -0.24269527 -0.0063218223
v 0.3593792 -0.24269527 -0.0063218223
v 0.64688253 -0.4368515 -0.01137928
v 0.69988316 -0.3224681 0.030519448
v 0.388824 -0.17914894 0.016955249
v 0.3931439 -0.15156272 -0.07398388
v 0.707659 -0.2728129 -0.13317098
v 0.63684773 -0.4353584 -0.10977332
v 0.35380432 -0.24186578 -0.060985178
v 0.372371 -0.14950001 -0.15629843
v 0.6702678 -0.2691 -0.28133717
v 0.707659 -0.2728129 -0.13317098
v 0.3931439 -0.15156272 -0.07398388
v 0.4064635 -0.09293434 -0.08971302
v 0.7316343 -0.1672818 -0.16148344
v 0.6702678 -0.2691 -0.28133717
v 0.372371 -0.14950001 -0.15629843
v 0.41390136 -0.014952991 -0.09222825
v 0.7450224 -0.026915384 -0.16601086
v 0.7316343 -0.1672818 -0.16148344
v 0.4064635 -0.09293434 -0.08971302
v 0.41159964 0.07061865 -0.08190051
v 0.74087936 0.12711358 -0.14742091
v 0.7450224 -0.026915384 -0.16601086
v 0.41390136 -0.014952991 -0.09222825
v 0.39006495 0.08003483 -0.16128951
v 0.7021169 0.1440627 -0.2903211
v 0.74087936 0.12711358 -0.14742091
v 0.41159964 0.07061865 -0.08190051
v 0.39196312 0.14312564 -0.08975649
v 0.7055336 0.25762615 -0.16156168
v 0.7021169 0.1440627 -0.2903211
v 0.39006495 0.08003483 -0.16128951
v 0.34831667 0.24458833 -0.0818159
v 0.62697 0.44025898 -0.14726862
v 0.7055336 0.25762615 -0.16156168
v 0.39196312 0.14312564 -0.08975649
v 0.39439145 0.16870672 -0.011866906
v 0.7099046 0.30367208 -0.02136043
v 0.62697 0.44025898 -0.14726862
v 0.34831667 0.24458833 -0.0818159
v 0.3990375 0.0033036056 0.15442234
v 0.71826756 0.00594649 0.2779602
v 0.7304671 0.18794689 0.13336623
v 0.40581504 0.10441493 0.07409234
v 0.39358678 0.15133339 0.06793072
v 0.7084562 0.2724001 0.12227529
v 0.7099046 0.30367208 -0.02136043
v 0.39439145 0.16870672 -0.011866906
v 0.40581504 0.10441493 0.07409234
v 0.7304671 0.18794689 0.13336623
v 0.64775956 0.3159032 0.28893894
v 0.3598664 0.17550176 0.16052163
v 0.3598664 0.17550176 0.16052163
v 0.64775956 0.3159032 0.28893894
v 0.7084562 0.2724001 0.12227529
v 0.39358678 0.15133339 0.06793072
vt 0 0
vt 0 1
vt 0.039817594 1
vt 0.039817594 0
vt 0.039817594 0
vt 0.039817594 1
vt 0.08325847 1
vt 0.08325847 0
vt 0.9582953 0
vt 0.9582953 1
vt 1 1
vt 1 0
vt 0.08325847 0
vt 0.08325847 1
vt 0.13749124 1
vt 0.13749124 0
vt 0.13749124 0
vt 0.13749124 1
vt 0.1845706 1
vt 0.1845706 0
vt 0.8874799 0
vt 0.8874799 1
vt 0.9177038 1
vt 0.9177038 0
vt 0.9177038 0
vt 0.9177038 1
vt 0.9582953 1
vt 0.9582953 0
vt 0.8328358 0
vt 0.8328358 1
vt 0.8874799 1
vt 0.8874799 0
vt 0.7861302 0
vt 0.7861302 1
vt 0.8328358 1
vt 0.8328358 0
vt 0.7345491 0
vt 0.7345491 1
vt 0.7861302 1
vt 0.7861302 0
vt 0.69144297 0
vt 0.69144297 1
vt 0.7345491 1
vt 0.7345491 0
vt 0.6440206 0
vt 0.6440206 1
vt 0.69144297 1
vt 0.69144297 0
vt 0.59848386 0
vt 0.59848386 1
vt 0.6440206 1
vt 0.6440206 0
vt 0.5460148 0
vt 0.5460148 1
vt 0.59848386 1
vt 0.59848386 0
vt 0.48510996 0
vt 0.48510996 1
vt 0.5460148 1
vt 0.5460148 0
vt 0.42294905 0
vt 0.42294905 1
vt 0.48510996 1
vt 0.48510996 0
vt 0.1845706 0
vt 0.1845706 1
vt 0.25569302 1
vt 0.25569302 0
vt 0.37803054 0
vt 0.37803054 1
vt 0.42294905 1
vt 0.42294905 0
vt 0.25569302 0
vt 0.25569302 1
vt 0.3222278 1
vt 0.3222278 0
vt 0.3222278 0
vt 0.3222278 1
vt 0.37803054 1
vt 0.37803054 0
vn 0.43369472 0.90100104 -0.010293197
vn 0.43369478 0.90100104 -0.010293198
vn 0.43369472 0.90100104 -0.010293198
vn 0.43369475 0.90100104 -0.010293199
vn 0.45790982 0.13473268 -0.87872964
vn 0.45790982 0.13473266 -0.87872964
vn 0.45790982 0.13473266 -0.8787295
vn 0.45790982 0.13473266 -0.8787295
vn 0.41418046 0.906592 0.08090348
vn 0.41418046 0.906592 0.08090347
vn 0.41418043 0.906592 0.08090347
vn 0.41418046 0.906592 0.08090348
vn 0.47711718 0.49677604 -0.724964
vn 0.47711712 0.49677604 -0.724964
vn 0.47711712 0.49677604 -0.724964
vn 0.47711715 0.49677604 -0.724964
vn 0.07424259 -0.9824997 -0.17082885
vn 0.074242584 -0.9824996 -0.17082885
vn 0.074242584 -0.9824997 -0.17082885
vn 0.07424258 -0.9824996 -0.17082886
vn 0.55856574 0.82827127 -0.0443971
vn 0.55856574 0.82827127 -0.0443971
vn 0.55856574 0.8282712 -0.044397097
vn 0.55856574 0.82827127 -0.0443971
vn 0.16596864 0.2704658 -0.9483157
vn 0.16596866 0.27046576 -0.9483157
vn 0.16596866 0.27046576 -0.9483157
vn 0.16596864 0.27046576 -0.9483157
vn 0.20396557 0.051865894 0.97760314
vn 0.20396557 0.051865887 0.97760314
vn 0.20396559 0.051865898 0.97760314
vn 0.20396556 0.05186589 0.97760314
vn 0.3483737 0.9351352 -0.06448209
vn 0.3483737 0.9351352 -0.06448209
vn 0.34837365 0.9351352 -0.06448208
vn 0.34837368 0.9351352 -0.064482085
vn -0.02789588 -0.75473034 0.6554418
vn -0.027895885 -0.75473034 0.6554419
vn -0.027895885 -0.75473034 0.6554419
vn -0.02789588 -0.7547303 0.6554419
vn 0.21784845 0.010699432 0.97592396
vn 0.21784846 0.010699434 0.97592396
vn 0.21784845 0.010699433 0.97592396
vn 0.21784845 0.010699433 0.97592396
vn 0.21229953 -0.11145999 0.9708273
vn 0.21229951 -0.11145999 0.9708273
vn 0.21229953 -0.11146 0.9708273
vn 0.21229953 -0.11146 0.9708273
vn -0.13738528 0.9785776 0.15333366
vn -0.1373853 0.9785776 0.15333366
vn -0.1373853 0.9785776 0.15333368
vn -0.13738528 0.9785776 0.15333366
vn 0.39184263 -0.6951354 0.602699
vn 0.39184257 -0.6951354 0.602699
vn 0.39184263 -0.6951354 0.602699
vn 0.39184263 -0.6951354 0.6026989
vn 0.2172533 0.017076124 0.975966
vn 0.2172533 0.017076124 0.975966
vn 0.21725331 0.017076124 0.975966
vn 0.2172533 0.017076122 0.975966
vn 0.22574098 -0.5826408 -0.78075004
vn 0.22574097 -0.58264077 -0.7807501
vn 0.22574097 -0.58264077 -0.7807501
vn 0.22574095 -0.58264077 -0.78075004
vn 0.29118133 -0.60698646 -0.7394463
vn 0.29118133 -0.60698646 -0.7394463
vn 0.29118127 -0.60698646 -0.7394463
vn 0.29118133 -0.60698646 -0.7394463
vn 0.38098142 -0.90421027 -0.19302055
vn 0.38098142 -0.90421027 -0.19302055
vn 0.38098148 -0.90421027 -0.19302058
vn 0.38098145 -0.9042103 -0.19302055
vn -0.07331454 0.75077444 -0.65647745
vn -0.07331454 0.75077444 -0.6564775
vn -0.073314525 0.75077444 -0.65647745
vn -0.07331454 0.75077444 -0.6564775
vn 0.2862998 -0.8964446 0.3382595
vn 0.28629977 -0.8964446 0.33825943
vn 0.28629977 -0.89644456 0.3382595
vn 0.28629977 -0.8964446 0.33825946
g shard7_0
f 3/3/3 2/2/2 1/1/1
f 4/4/4 3/3/3 1/1/1
f 7/7/7 6/6/6 5/5/5
f 8/8/8 7/7/7 5/5/5
f 11/11/11 10/10/10 9/9/9
f 12/12/12 11/11/11 9/9/9
f 15/15/15 14/14/14 13/13/13
f 16/16/16 15/15/15 13/13/13
f 19/19/19 18/18/18 17/17/17
f 20/20/20 19/19/19 17/17/17
f 23/23/23 22/22/22 21/21/21
f 24/24/24 23/23/23 21/21/21
f 27/27/27 26/26/26 25/25/25
f 28/28/28 27/27/27 25/25/25
f 31/31/31 30/30/30 29/29/29
f 32/32/32 31/31/31 29/29/29
f 35/35/35 34/34/34 33/33/33
f 36/36/36 35/35/35 33/33/33
f 39/39/39 38/38/38 37/37/37
f 40/40/40 39/39/39 37/37/37
f 43/43/43 42/42/42 41/41/41
f 44/44/44 43/43/43 41/41/41
f 47/47/47 46/46/46 45/45/45
f 48/48/48 47/47/47 45/45/45
f 51/51/51 50/50/50 49/49/49
f 52/52/52 51/51/51 49/49/49
f 55/55/55 54/54/54 53/53/53
f 56/56/56 55/55/55 53/53/53
f 59/59/59 58/58/58 57/57/57
f 60/60/60 59/59/59 57/57/57
f 63/63/63 62/62/62 61/61/61
f 64/64/64 63/63/63 61/61/61
f 67/67/67 66/66/66 65/65/65
f 68/68/68 67/67/67 65/65/65
f 71/71/71 70/70/70 69/69/69
f 72/72/72 71/71/71 69/69/69
f 75/75/75 74/74/74 73/73/73
f 76/76/76 75/75/75 73/73/73
f 79/79/79 78/78/78 77/77/77
f 80/80/80 79/79/79 77/77/77
