g shard49
v -0.40617022 0.09943162 0.08437836
v -0.7311064 0.17897692 0.15188105
v -0.74907196 0.15398926 0.018666655
v -0.4161511 0.085549586 0.010370364
v -0.38611394 0.17489739 0.059770256
v -0.69500506 0.31481528 0.10758646
v -0.7311064 0.17897692 0.15188105
v -0.40617022 0.09943162 0.08437836
v -0.3614484 0.23648645 -0.01192888
v -0.6506071 0.42567563 -0.021471985
v -0.69500506 0.31481528 0.10758646
v -0.38611394 0.17489739 0.059770256
v -0.4161511 0.085549586 0.010370364
v -0.74907196 0.15398926 0.018666655
v -0.7348435 0.17392077 -0.12632562
v -0.4082464 0.096622646 -0.0701809
v -0.4082464 0.096622646 -0.0701809
v -0.7348435 0.17392077 -0.12632562
v -0.70765877 0.276111 -0.11726433
v -0.39314377 0.15339501 -0.06514685
v -0.39314377 0.15339501 -0.06514685
v -0.70765877 0.276111 -0.11726433
v -0.6506071 0.42567563 -0.021471985
v -0.3614484 0.23648645 -0.01192888
vt 0 0
vt 0 1
vt 0.15197349 1
vt 0.15197349 0
vt 0.15197349 0
vt 0.15197349 1
vt 0.3157794 1
vt 0.3157794 0
vt 0.3157794 0
vt 0.3157794 1
vt 0.51122516 1
vt 0.51122516 0
vt 0.83655244 0
vt 0.83655244 1
vt 1 1
vt 1 0
vt 0.71858245 0
vt 0.71858245 1
vt 0.83655244 1
vt 0.83655244 0
vt 0.51122516 0
vt 0.51122516 1
vt 0.71858245 1
vt 0.71858245 0
vn 0.1921229 0.9595294 -0.20589353
vn 0.1921229 0.9595294 -0.20589353
vn 0.19212292 0.9595294 -0.20589353
vn 0.1921229 0.9595294 -0.20589353
vn -0.25314778 -0.23845099 -0.93758065
vn -0.25314778 -0.23845096 -0.93758065
vn -0.25314775 -0.23845096 -0.93758065
vn -0.25314775 -0.23845099 -0.93758065
vn -0.3889435 -0.62844473 -0.673632
vn -0.3889435 -0.62844473 -0.673632
vn -0.3889435 -0.6284448 -0.673632
vn -0.38894355 -0.62844485 -0.673632
vn 0.20264958 0.9672486 0.15285027
vn 0.20264955 0.9672486 0.15285026
vn 0.20264956 0.9672486 0.15285026
vn 0.20264956 0.9672486 0.15285027
vn -0.1784121 -0.039715786 0.983154
vn -0.17841211 -0.039715786 0.983154
vn -0.1784121 -0.039715786 0.983154
vn -0.1784121 -0.039715786 0.983154
vn -0.30757877 -0.42721957 0.85022277
vn -0.3075788 -0.4272196 0.85022277
vn -0.30757877 -0.42721957 0.85022277
vn -0.30757877 -0.4272195 0.85022277
g shard49_0
f 3/3/3 2/2/2 1/1/1
f 4/4/4 3/3/3 1/1/1
f 7/7/7 6/6/6 5/5/5
f 8/8/8 7/7/7 5/5/5
f 11/11/11 10/10/10 9/9/9
f 12/12/12 11/11/11 9/9/9
f 15/15/15 14/14/14 13/13/13
f 16/16/16 15/15/15 13/13/13
f 19/19/19 18/18/18 17/17/17
f 20/20/20 19/19/19 17/17/17
f 23/23/23 22/22/22 21/21/21
f 24/24/24 23/23/23 21/21/21
