g shard35
v 0.07673733 -0.01544818 0.4165072
v 0.1595781 0.007576574 0.397282
v 0.08344403 0.07787821 0.4108411
v 0.159422 0.0977492 0.3859769
v 0.2569036 0.06239308 0.3418583
v 0.294827 0.09505679 0.3034139
v 0.2327299 0.1472818 0.3352983
v 0.2182881 0.2335646 0.2938832
v 0.2516105 0.2595288 0.2399266
v 0.2052485 0.2721172 0.2705351
v 0.3405032 0.137951 0.2291608
v 0.3106515 0.1997889 0.2272834
v 0.2872405 0.01363783 0.7151076
v 0.1381272 -0.02780672 0.7497129
v 0.1501992 0.1401808 0.7395141
v 0.2869596 0.1759486 0.6947585
v 0.4624265 0.1123075 0.6153449
v 0.5306885 0.1711022 0.546145
v 0.4189139 0.2651072 0.603537
v 0.3929185 0.4204163 0.5289898
v 0.3694474 0.4898109 0.4869632
v 0.4528988 0.4671519 0.4318679
v 0.6129058 0.2483119 0.4124894
v 0.5591727 0.35962 0.4091101
v 0.07673733 -0.01544818 0.4165072
v 0.1381272 -0.02780672 0.7497129
v 0.08344403 0.07787821 0.4108411
v 0.1501992 0.1401808 0.7395141
v 0.2872405 0.01363783 0.7151076
v 0.1595781 0.007576574 0.397282
v 0.4624265 0.1123075 0.6153449
v 0.2569036 0.06239308 0.3418583
v 0.159422 0.0977492 0.3859769
v 0.2869596 0.1759486 0.6947585
v 0.2327299 0.1472818 0.3352983
v 0.4189139 0.2651072 0.603537
v 0.2182881 0.2335646 0.2938832
v 0.3929185 0.4204163 0.5289898
v 0.3694474 0.4898109 0.4869632
v 0.2052485 0.2721172 0.2705351
v 0.6129058 0.2483119 0.4124894
v 0.3405032 0.137951 0.2291608
v 0.2516105 0.2595288 0.2399266
v 0.4528988 0.4671519 0.4318679
v 0.5591727 0.35962 0.4091101
v 0.3106515 0.1997889 0.2272834
vt 0.08762676 0
vt 0 0
vt 0.1808573 0
vt 0.2627866 0
vt 0.8759804 0
vt 0.8132108 0
vt 0.3641942 0
vt 0.4604608 0
vt 0.5637807 0
vt 0.5071264 0
vt 0.7165787 0
vt 0.6482591 0
vt 0 1
vt 0.08762676 1
vt 0.1808573 1
vt 0.2627866 1
vt 0.8759804 1
vt 0.8132108 1
vt 0.3641942 1
vt 0.4604608 1
vt 0.5071264 1
vt 0.5637807 1
vt 0.7165787 1
vt 0.6482591 1
vt 0.08762676 0
vt 0.08762676 1
vt 0.1808573 0
vt 0.1808573 1
vt 1 1
vt 1 0
vt 0.8759804 1
vt 0.8759804 0
vt 0.2627866 0
vt 0.2627866 1
vt 0.3641942 0
vt 0.3641942 1
vt 0.4604608 0
vt 0.4604608 1
vt 0.5071264 1
vt 0.5071264 0
vt 0.7165787 1
vt 0.7165787 0
vt 0.5637807 0
vt 0.5637807 1
vt 0.6482591 1
vt 0.6482591 0
vn -0.2492452 0.964987 0.08171216
vn -0.2492452 0.964987 0.08171216
vn 0.9796299 -0.08154039 -0.1835115
vn 0.2881831 -0.9498338 0.121517
vn -0.4184415 0.895604 0.1509972
vn -0.4979806 0.8385044 0.2211915
vn 0.5518034 -0.833806 -0.0167516
vn 0.8389902 -0.1148713 -0.5318836
vn 0.1994045 -0.7624186 0.6155937
vn 0.1994045 -0.7624186 0.6155937
vn -0.4798363 0.8546041 0.1985167
vn -0.4863147 -0.2090063 0.8484188
vn -0.2492452 0.964987 0.08171215
vn -0.2492452 0.964987 0.08171216
vn 0.9796299 -0.08154041 -0.1835115
vn 0.2881831 -0.9498338 0.121517
vn -0.4184415 0.895604 0.1509972
vn -0.4979806 0.8385044 0.2211915
vn 0.5518034 -0.833806 -0.0167516
vn 0.8389901 -0.1148713 -0.5318836
vn 0.1994045 -0.7624186 0.6155937
vn 0.1994045 -0.7624186 0.6155937
vn -0.4798363 0.8546041 0.1985167
vn -0.4863147 -0.2090063 0.8484188
vn 0.9796299 -0.08154039 -0.1835115
vn 0.9796299 -0.08154039 -0.1835115
vn 0.2881831 -0.9498338 0.121517
vn 0.2881831 -0.9498338 0.1215171
vn -0.4184415 0.895604 0.1509972
vn -0.4184415 0.895604 0.1509972
vn -0.4979806 0.8385044 0.2211915
vn -0.4979806 0.8385044 0.2211915
vn 0.5518034 -0.833806 -0.0167516
vn 0.5518034 -0.833806 -0.0167516
vn 0.8389901 -0.1148713 -0.5318836
vn 0.8389901 -0.1148713 -0.5318836
vn 0.8242206 -0.06210003 -0.5628535
vn 0.8242206 -0.06210003 -0.5628535
vn 0.8242206 -0.06210002 -0.5628536
vn 0.8242206 -0.06210002 -0.5628536
vn -0.4863147 -0.2090063 0.8484188
vn -0.4863147 -0.2090063 0.8484188
vn -0.3014185 -0.4730957 0.8278451
vn -0.3014185 -0.4730957 0.827845
vn -0.3014185 -0.4730957 0.827845
vn -0.3014185 -0.4730957 0.827845
g shard35_0
f 14/14/14 13/13/13 2/2/2
f 1/1/1 14/14/14 2/2/2
f 15/15/15 26/26/26 25/25/25
f 3/3/3 15/15/15 25/25/25
f 16/16/16 28/28/28 27/27/27
f 4/4/4 16/16/16 27/27/27
f 29/29/29 17/17/17 5/5/5
f 30/30/30 29/29/29 5/5/5
f 32/32/32 31/31/31 6/6/6
f 31/31/31 18/18/18 6/6/6
f 6/6/6 18/18/18 11/11/11
f 18/18/18 23/23/23 11/11/11
f 19/19/19 34/34/34 33/33/33
f 7/7/7 19/19/19 33/33/33
f 20/20/20 36/36/36 35/35/35
f 8/8/8 20/20/20 35/35/35
f 22/22/22 21/21/21 10/10/10
f 9/9/9 22/22/22 10/10/10
f 39/39/39 38/38/38 37/37/37
f 40/40/40 39/39/39 37/37/37
f 41/41/41 24/24/24 12/12/12
f 42/42/42 41/41/41 12/12/12
f 45/45/45 44/44/44 43/43/43
f 46/46/46 45/45/45 43/43/43
