g shard109
v -0.03958025 0.001651525 0.01950493
v -0.03053373 0.03266463 -0.01913783
v 0.04124144 -0.01731229 0.03184792
v -0.04124144 -0.01370084 0.00679484
v 0.03958026 -0.03266466 0.01913783
v -0.03219492 0.01731226 -0.03184792
v -0.04124144 -0.01370084 0.00679484
v -0.03958025 0.001651525 0.01950493
v 0.04124144 -0.01731229 0.03184792
v 0.03958026 -0.03266466 0.01913783
v 0.03958026 -0.03266466 0.01913783
v 0.04124144 -0.01731229 0.03184792
v -0.03053373 0.03266463 -0.01913783
v -0.03219492 0.01731226 -0.03184792
v -0.03219492 0.01731226 -0.03184792
v -0.03053373 0.03266463 -0.01913783
v -0.03958025 0.001651525 0.01950493
v -0.04124144 -0.01370084 0.00679484
vt 0.5 0.25
vt 0.5 0.28125
vt 0.53125 0.25
vt 0.5 0.25
vt 0.53125 0.25
vt 0.5 0.28125
vt 0.5 0.25
vt 0.5 0.25
vt 0.53125 0.25
vt 0.53125 0.25
vt 0.53125 0.25
vt 0.53125 0.25
vt 0.5 0.28125
vt 0.5 0.28125
vt 0.5 0.28125
vt 0.5 0.28125
vt 0.5 0.25
vt 0.5 0.25
vn 0.0830588 0.7676177 0.6355032
vn 0.08305879 0.7676177 0.6355032
vn 0.0830588 0.7676177 0.6355032
vn -0.08305877 -0.7676177 -0.6355032
vn -0.08305877 -0.7676178 -0.6355032
vn -0.08305877 -0.7676177 -0.6355031
vn -0.2564811 -0.5997586 0.7579625
vn -0.2564811 -0.5997585 0.7579625
vn -0.2564811 -0.5997585 0.7579625
vn -0.2564811 -0.5997586 0.7579625
vn 0.7003182 0.4087299 -0.5852301
vn 0.7003182 0.4087299 -0.5852301
vn 0.7003182 0.4087299 -0.5852301
vn 0.7003182 0.40873 -0.5852301
vn -0.9802253 0.1778665 -0.0867288
vn -0.9802253 0.1778665 -0.0867288
vn -0.9802253 0.1778665 -0.0867288
vn -0.9802253 0.1778665 -0.0867288
g shard109_0
f 3/3/3 2/2/2 1/1/1
f 6/6/6 5/5/5 4/4/4
f 9/9/9 8/8/8 7/7/7
f 10/10/10 9/9/9 7/7/7
f 13/13/13 12/12/12 11/11/11
f 14/14/14 13/13/13 11/11/11
f 17/17/17 16/16/16 15/15/15
f 18/18/18 17/17/17 15/15/15
