g shard85
v -0.0050505996 0.09895918 -0.075682476
v 0.06840502 0.032365054 -0.08519706
v 0.079208925 0.055401415 -0.004696533
v 0.003155008 0.117058426 0.00031362474
v 0.07138203 0.07362938 0.06811382
v -0.092866704 0.13615343 -0.08620836
v -0.0013624132 0.12636152 0.074118175
v -0.09204765 0.1591514 0.01073958
v -0.16247621 0.1723476 -0.018935092
v -0.13249111 0.17555046 0.07446434
v -0.07956062 0.16189724 0.07877873
v -0.05890557 0.1440297 0.16696745
v 0.16525869 -0.17018485 -0.09100662
v 0.14852206 -0.0897184 -0.07076158
v 0.1275964 -0.16401407 -0.16696744
v 0.16744314 -0.10591577 -0.017291486
v 0.12200062 -0.0010369122 -0.009605192
v 0.09802775 -0.00695692 -0.088801235
v 0.06840502 0.032365054 -0.08519706
v 0.079208925 0.055401415 -0.004696533
v -0.015278965 0.08288857 -0.07024518
v 0.06547059 0.04168704 -0.00072446465
v 0.054619476 0.019171178 -0.07951082
v -0.00690563 0.10010183 0.0036688223
v 0.05935009 0.057784528 0.07002286
v -0.099569425 0.11797461 -0.081461236
v -0.011353582 0.1092166 0.07393762
v -0.09833926 0.14041197 0.01378081
v -0.16744316 0.15330428 -0.015610181
v -0.13713592 0.15625912 0.0741514
v -0.0861053 0.14300019 0.078516684
v -0.06543033 0.12535855 0.16471103
v 0.1472363 -0.17555049 -0.0844267
v 0.1102453 -0.16966675 -0.15878285
v 0.13141273 -0.097067446 -0.06376818
v 0.14913447 -0.112459674 -0.012893677
v 0.10548802 -0.010996982 -0.0049530864
v 0.082034186 -0.01741755 -0.08314498
v 0.054619476 0.019171178 -0.07951082
v 0.06547059 0.04168704 -0.00072446465
v -0.06543033 0.12535855 0.16471103
v -0.05890557 0.1440297 0.16696745
v -0.0013624132 0.12636152 0.074118175
v -0.011353582 0.1092166 0.07393762
v -0.13713592 0.15625912 0.0741514
v -0.05890557 0.1440297 0.16696745
v -0.06543033 0.12535855 0.16471103
v -0.13249111 0.17555046 0.07446434
v -0.16744316 0.15330428 -0.015610181
v -0.16247621 0.1723476 -0.018935092
v -0.099569425 0.11797461 -0.081461236
v -0.092866704 0.13615343 -0.08620836
v -0.16247621 0.1723476 -0.018935092
v -0.16744316 0.15330428 -0.015610181
v -0.011353582 0.1092166 0.07393762
v -0.0013624132 0.12636152 0.074118175
v 0.07138203 0.07362938 0.06811382
v 0.05935009 0.057784528 0.07002286
v 0.05935009 0.057784528 0.07002286
v 0.07138203 0.07362938 0.06811382
v 0.079208925 0.055401415 -0.004696533
v 0.06547059 0.04168704 -0.00072446465
v 0.054619476 0.019171178 -0.07951082
v 0.06840502 0.032365054 -0.08519706
v -0.0050505996 0.09895918 -0.075682476
v -0.015278965 0.08288857 -0.07024518
v -0.092866704 0.13615343 -0.08620836
v -0.099569425 0.11797461 -0.081461236
v 0.14913447 -0.112459674 -0.012893677
v 0.16744314 -0.10591577 -0.017291486
v 0.16525869 -0.17018485 -0.09100662
v 0.1472363 -0.17555049 -0.0844267
v 0.1472363 -0.17555049 -0.0844267
v 0.16525869 -0.17018485 -0.09100662
v 0.1275964 -0.16401407 -0.16696744
v 0.1102453 -0.16966675 -0.15878285
v 0.1102453 -0.16966675 -0.15878285
v 0.1275964 -0.16401407 -0.16696744
v 0.14852206 -0.0897184 -0.07076158
v 0.13141273 -0.097067446 -0.06376818
v 0.10548802 -0.010996982 -0.0049530864
v 0.16744314 -0.10591577 -0.017291486
v 0.14913447 -0.112459674 -0.012893677
v 0.12200062 -0.0010369122 -0.009605192
v 0.06547059 0.04168704 -0.00072446465
v 0.079208925 0.055401415 -0.004696533
v 0.13141273 -0.097067446 -0.06376818
v 0.14852206 -0.0897184 -0.07076158
v 0.09802775 -0.00695692 -0.088801235
v 0.082034186 -0.01741755 -0.08314498
v 0.06840502 0.032365054 -0.08519706
v 0.054619476 0.019171178 -0.07951082
vt 0.59375 0.4375
vt 0.625 0.4375
vt 0.625 0.40625
vt 0.59375 0.40625
vt 0.625 0.375
vt 0.5625 0.4375
vt 0.59375 0.375
vt 0.5625 0.40625
vt 0.53125 0.40625
vt 0.53125 0.375
vt 0.5625 0.375
vt 0.5625 0.34375
vt 0.8125 0.15625
vt 0.8125 0.1875
vt 0.84375 0.15625
vt 0.78125 0.1875
vt 0.78125 0.21875
vt 0.8125 0.21875
vt 0.8125 0.25
vt 0.78125 0.25
vt 0.59375 0.4375
vt 0.625 0.40625
vt 0.625 0.4375
vt 0.59375 0.40625
vt 0.625 0.375
vt 0.5625 0.4375
vt 0.59375 0.375
vt 0.5625 0.40625
vt 0.53125 0.40625
vt 0.53125 0.375
vt 0.5625 0.375
vt 0.5625 0.34375
vt 0.8125 0.15625
vt 0.84375 0.15625
vt 0.8125 0.1875
vt 0.78125 0.1875
vt 0.78125 0.21875
vt 0.8125 0.21875
vt 0.8125 0.25
vt 0.78125 0.25
vt 0.5625 0.34375
vt 0.5625 0.34375
vt 0.59375 0.375
vt 0.59375 0.375
vt 0.53125 0.375
vt 0.5625 0.34375
vt 0.5625 0.34375
vt 0.53125 0.375
vt 0.53125 0.40625
vt 0.53125 0.40625
vt 0.5625 0.4375
vt 0.5625 0.4375
vt 0.53125 0.40625
vt 0.53125 0.40625
vt 0.59375 0.375
vt 0.59375 0.375
vt 0.625 0.375
vt 0.625 0.375
vt 0.625 0.375
vt 0.625 0.375
vt 0.625 0.40625
vt 0.625 0.40625
vt 0.625 0.4375
vt 0.625 0.4375
vt 0.59375 0.4375
vt 0.59375 0.4375
vt 0.5625 0.4375
vt 0.5625 0.4375
vt 0.78125 0.1875
vt 0.78125 0.1875
vt 0.8125 0.15625
vt 0.8125 0.15625
vt 0.8125 0.15625
vt 0.8125 0.15625
vt 0.84375 0.15625
vt 0.84375 0.15625
vt 0.84375 0.15625
vt 0.84375 0.15625
vt 0.8125 0.1875
vt 0.8125 0.1875
vt 0.78125 0.21875
vt 0.78125 0.1875
vt 0.78125 0.1875
vt 0.78125 0.21875
vt 0.78125 0.25
vt 0.78125 0.25
vt 0.8125 0.1875
vt 0.8125 0.1875
vt 0.8125 0.21875
vt 0.8125 0.21875
vt 0.8125 0.25
vt 0.8125 0.25
vn 0.5153967 0.81576055 -0.26248968
vn 0.68218076 0.6735092 -0.2846311
vn 0.65651053 0.7180703 -0.23101716
vn 0.4951686 0.8514895 -0.17255084
vn 0.60526705 0.7892626 -0.10351957
vn 0.3520399 0.907729 -0.2282453
vn 0.46479627 0.88447297 -0.04088871
vn 0.32619524 0.9310025 -0.16380161
vn 0.25353992 0.95061815 -0.17900473
vn 0.23942778 0.9705052 -0.028176917
vn 0.34571654 0.93814677 0.018992368
vn 0.3748973 0.9217706 0.09894953
vn 0.8842325 0.27828622 -0.37508622
vn 0.8936887 0.35467595 -0.27481878
vn 0.868224 0.28310606 -0.40747753
vn 0.9124105 0.34643272 -0.21792544
vn 0.8208255 0.50475395 -0.26733676
vn 0.8123115 0.509423 -0.283969
vn 0.68218076 0.6735092 -0.2846311
vn 0.65651053 0.7180703 -0.23101716
vn -0.5137357 -0.8170047 0.26187584
vn -0.6561046 -0.7188537 0.22973044
vn -0.681921 -0.6729411 0.28659064
vn -0.49439624 -0.85187715 0.1728517
vn -0.60558254 -0.789308 0.10130378
vn -0.3498619 -0.90871763 0.22765936
vn -0.46518734 -0.8842522 0.041216135
vn -0.3251336 -0.9310242 0.16577715
vn -0.25434226 -0.9499675 0.1813063
vn -0.24047121 -0.9702008 0.029732049
vn -0.34458324 -0.9385395 -0.0201515
vn -0.37359574 -0.9222771 -0.09915264
vn -0.88344157 -0.27749202 0.3775304
vn -0.86755383 -0.2826327 0.4092297
vn -0.8941789 -0.35387456 0.27425674
vn -0.91421026 -0.343865 0.21442083
vn -0.820875 -0.5040481 0.26851386
vn -0.812643 -0.50805247 0.28547174
vn -0.681921 -0.6729411 0.28659064
vn -0.6561046 -0.7188537 0.22973044
vn 0.75568026 -0.38454136 0.5301652
vn 0.75568044 -0.38454136 0.5301652
vn 0.7556803 -0.3845414 0.53016514
vn 0.7556803 -0.3845414 0.5301652
vn -0.8388651 0.21433374 0.5003663
vn -0.74148536 0.17431135 0.64793134
vn -0.74148536 0.17431134 0.6479313
vn -0.83760077 0.21378228 0.5027147
vn -0.92118347 0.25412515 0.2946886
vn -0.92118347 0.2541252 0.29468864
vn -0.67980725 0.054525703 -0.73136103
vn -0.67980725 0.054525707 -0.7313611
vn -0.67980725 0.054525707 -0.7313611
vn -0.67980725 0.054525707 -0.7313611
vn 0.07200808 0.0041872375 0.9973953
vn 0.07200809 0.0041872375 0.9973953
vn 0.07200808 0.004187237 0.9973953
vn 0.07200808 0.0041872375 0.9973953
vn 0.75650454 -0.6156244 0.2206977
vn 0.7565045 -0.6156244 0.2206977
vn 0.75650454 -0.6156244 0.22069772
vn 0.7565045 -0.6156244 0.2206977
vn -0.2646207 -0.13749355 -0.9545007
vn -0.2646282 -0.13747318 -0.9545014
vn -0.1328934 -0.21868421 -0.9667039
vn -0.13351649 -0.21835828 -0.9666918
vn 0.0011465382 -0.28554636 -0.9583642
vn 0.0011465383 -0.28554636 -0.9583642
vn 0.4069889 -0.69244087 0.5957228
vn 0.4069889 -0.69244087 0.5957228
vn 0.4069889 -0.69244087 0.5957228
vn 0.4069889 -0.69244087 0.5957228
vn 0.22047758 -0.95743924 -0.18627882
vn 0.22047758 -0.95743924 -0.1862788
vn 0.2204776 -0.9574392 -0.18627882
vn 0.22047758 -0.95743924 -0.18627882
vn -0.4841537 0.742122 -0.4635193
vn -0.48415363 0.74212205 -0.4635193
vn -0.48415363 0.742122 -0.46351928
vn -0.48415363 0.742122 -0.4635193
vn 0.22929196 0.04890969 0.9721281
vn 0.23835742 0.029395368 0.97073257
vn 0.23835742 0.029395366 0.97073257
vn 0.22932294 0.04884347 0.97212416
vn 0.21413428 0.080988586 0.97344095
vn 0.21413426 0.080988586 0.97344095
vn -0.18013199 -0.32468125 -0.928512
vn -0.18013199 -0.32468125 -0.928512
vn -0.2119584 -0.25701743 -0.9428763
vn -0.21203749 -0.25684404 -0.9429057
vn -0.2646282 -0.13747318 -0.9545014
vn -0.2646207 -0.13749355 -0.9545007
g shard85_0
f 3/3/3 2/2/2 1/1/1
f 3/3/3 1/1/1 4/4/4
f 5/5/5 3/3/3 4/4/4
f 4/4/4 1/1/1 6/6/6
f 5/5/5 4/4/4 7/7/7
f 4/4/4 6/6/6 8/8/8
f 7/7/7 4/4/4 8/8/8
f 6/6/6 9/9/9 8/8/8
f 8/8/8 9/9/9 10/10/10
f 7/7/7 8/8/8 11/11/11
f 8/8/8 10/10/10 11/11/11
f 7/7/7 11/11/11 12/12/12
f 12/12/12 11/11/11 10/10/10
f 15/15/15 14/14/14 13/13/13
f 13/13/13 14/14/14 16/16/16
f 14/14/14 17/17/17 16/16/16
f 14/14/14 18/18/18 17/17/17
f 19/19/19 17/17/17 18/18/18
f 19/19/19 20/20/20 17/17/17
f 23/23/23 22/22/22 21/21/21
f 21/21/21 22/22/22 24/24/24
f 22/22/22 25/25/25 24/24/24
f 21/21/21 24/24/24 26/26/26
f 24/24/24 25/25/25 27/27/27
f 26/26/26 24/24/24 28/28/28
f 24/24/24 27/27/27 28/28/28
f 29/29/29 26/26/26 28/28/28
f 29/29/29 28/28/28 30/30/30
f 28/28/28 27/27/27 31/31/31
f 30/30/30 28/28/28 31/31/31
f 31/31/31 27/27/27 32/32/32
f 31/31/31 32/32/32 30/30/30
f 35/35/35 34/34/34 33/33/33
f 35/35/35 33/33/33 36/36/36
f 37/37/37 35/35/35 36/36/36
f 38/38/38 35/35/35 37/37/37
f 37/37/37 39/39/39 38/38/38
f 40/40/40 39/39/39 37/37/37
f 43/43/43 42/42/42 41/41/41
f 44/44/44 43/43/43 41/41/41
f 47/47/47 46/46/46 45/45/45
f 46/46/46 48/48/48 45/45/45
f 45/45/45 48/48/48 49/49/49
f 48/48/48 50/50/50 49/49/49
f 53/53/53 52/52/52 51/51/51
f 54/54/54 53/53/53 51/51/51
f 57/57/57 56/56/56 55/55/55
f 58/58/58 57/57/57 55/55/55
f 61/61/61 60/60/60 59/59/59
f 62/62/62 61/61/61 59/59/59
f 65/65/65 64/64/64 63/63/63
f 66/66/66 65/65/65 63/63/63
f 67/67/67 65/65/65 66/66/66
f 68/68/68 67/67/67 66/66/66
f 71/71/71 70/70/70 69/69/69
f 72/72/72 71/71/71 69/69/69
f 75/75/75 74/74/74 73/73/73
f 76/76/76 75/75/75 73/73/73
f 79/79/79 78/78/78 77/77/77
f 80/80/80 79/79/79 77/77/77
f 83/83/83 82/82/82 81/81/81
f 82/82/82 84/84/84 81/81/81
f 81/81/81 84/84/84 85/85/85
f 84/84/84 86/86/86 85/85/85
f 89/89/89 88/88/88 87/87/87
f 90/90/90 89/89/89 87/87/87
f 91/91/91 89/89/89 90/90/90
f 92/92/92 91/91/91 90/90/90
