g shard60
v 0.101422 0.1738564 -0.05198167
v 0.04594713 0.1208361 -0.06618842
v 0.08887456 0.1179008 -0.1122825
v 0.0563885 0.1037673 -0.09560509
v 0.04192349 0.07796417 -0.1047787
v -0.05772865 -0.171965 -0.08040355
v -0.006427586 -0.1500184 -0.1518805
v -0.03539515 -0.0611311 -0.0964859
v 0.0007047653 -0.08822659 -0.1508452
v -0.08635503 -0.09240764 -0.009072021
v -0.06311351 -0.00153403 -0.01130028
v -0.03571969 0.006095007 -0.05925849
v 0.02770197 -0.001078188 -0.1453094
v -0.1054904 -0.05740892 0.08887481
v -0.1116901 -0.1481425 0.06379275
v -0.08974728 0.002267599 0.09504357
v -0.04858112 0.08266242 0.06771076
v -0.02391225 0.09190398 0.01022767
v -0.05773491 0.08685748 0.1495087
v 0.005034506 0.1563663 0.07463866
v 0.02196166 0.1337157 -0.01329859
v 0.04192349 0.07796417 -0.1047787
v 0.003214419 0.07422848 -0.06334189
v 0.04594713 0.1208361 -0.06618842
v 0.0563885 0.1037673 -0.09560509
v 0.1116901 0.1602394 -0.04153465
v 0.09961763 0.1056555 -0.1008155
v 0.05780834 0.1081338 -0.05649184
v 0.06803471 0.09235325 -0.08402556
v 0.05468264 0.06837024 -0.09291451
v -0.0407739 -0.1738564 -0.07002151
v -0.01906472 -0.06519528 -0.08567853
v 0.009839386 -0.1518457 -0.1403933
v 0.01611701 -0.09190616 -0.1387841
v -0.06797034 -0.09476098 -0.002016529
v -0.04549628 -0.007949546 -0.004337952
v -0.01973918 -0.0009395778 -0.04950462
v 0.04220873 -0.007914454 -0.1334675
v -0.08653146 -0.06139213 0.09362847
v -0.09240761 -0.15072 0.068434
v -0.07142884 -0.004619762 0.09866253
v -0.03185603 0.07258949 0.07129656
v -0.008207679 0.08142313 0.01682447
v -0.03973347 0.07847168 0.1518805
v 0.01997662 0.1442427 0.08002563
v 0.03590652 0.1215783 -0.005838424
v 0.05468264 0.06837024 -0.09291451
v 0.01765442 0.06476977 -0.05324142
v 0.05780834 0.1081338 -0.05649184
v 0.06803471 0.09235325 -0.08402556
v 0.1116901 0.1602394 -0.04153465
v 0.101422 0.1738564 -0.05198167
v 0.08887456 0.1179008 -0.1122825
v 0.09961763 0.1056555 -0.1008155
v 0.05780834 0.1081338 -0.05649184
v 0.04594713 0.1208361 -0.06618842
v 0.101422 0.1738564 -0.05198167
v 0.1116901 0.1602394 -0.04153465
v 0.09961763 0.1056555 -0.1008155
v 0.08887456 0.1179008 -0.1122825
v 0.04192349 0.07796417 -0.1047787
v 0.05468264 0.06837024 -0.09291451
v 0.009839386 -0.1518457 -0.1403933
v -0.006427586 -0.1500184 -0.1518805
v -0.05772865 -0.171965 -0.08040355
v -0.0407739 -0.1738564 -0.07002151
v 0.01611701 -0.09190616 -0.1387841
v 0.0007047653 -0.08822659 -0.1508452
v -0.006427586 -0.1500184 -0.1518805
v 0.009839386 -0.1518457 -0.1403933
v 0.04220873 -0.007914454 -0.1334675
v 0.02770197 -0.001078188 -0.1453094
v 0.05468264 0.06837024 -0.09291451
v 0.04192349 0.07796417 -0.1047787
v -0.0407739 -0.1738564 -0.07002151
v -0.05772865 -0.171965 -0.08040355
v -0.08635503 -0.09240764 -0.009072021
v -0.06797034 -0.09476098 -0.002016529
v -0.06797034 -0.09476098 -0.002016529
v -0.08635503 -0.09240764 -0.009072021
v -0.1116901 -0.1481425 0.06379275
v -0.09240761 -0.15072 0.068434
v -0.09240761 -0.15072 0.068434
v -0.1116901 -0.1481425 0.06379275
v -0.1054904 -0.05740892 0.08887481
v -0.08653146 -0.06139213 0.09362847
v -0.08974728 0.002267599 0.09504357
v -0.07142884 -0.004619762 0.09866253
v -0.05773491 0.08685748 0.1495087
v -0.03973347 0.07847168 0.1518805
v -0.03973347 0.07847168 0.1518805
v -0.05773491 0.08685748 0.1495087
v -0.04858112 0.08266242 0.06771076
v -0.03185603 0.07258949 0.07129656
v -0.03185603 0.07258949 0.07129656
v -0.04858112 0.08266242 0.06771076
v 0.005034506 0.1563663 0.07463866
v 0.01997662 0.1442427 0.08002563
v 0.01997662 0.1442427 0.08002563
v 0.005034506 0.1563663 0.07463866
v 0.02196166 0.1337157 -0.01329859
v 0.03590652 0.1215783 -0.005838424
v 0.04594713 0.1208361 -0.06618842
v 0.05780834 0.1081338 -0.05649184
vt 0.40625 0.46875
vt 0.375 0.46875
vt 0.40625 0.5
vt 0.375 0.5
vt 0.375 0.53125
vt 0.15625 0.125
vt 0.125 0.125
vt 0.15625 0.15625
vt 0.125 0.15625
vt 0.1875 0.15625
vt 0.1875 0.1875
vt 0.15625 0.1875
vt 0.125 0.1875
vt 0.21875 0.15625
vt 0.21875 0.125
vt 0.21875 0.1875
vt 0.21875 0.21875
vt 0.1875 0.21875
vt 0.25 0.21875
vt 0.21875 0.25
vt 0.1875 0.25
vt 0.125 0.21875
vt 0.15625 0.21875
vt 0.15625 0.25
vt 0.125 0.25
vt 0.40625 0.46875
vt 0.40625 0.5
vt 0.375 0.46875
vt 0.375 0.5
vt 0.375 0.53125
vt 0.15625 0.125
vt 0.15625 0.15625
vt 0.125 0.125
vt 0.125 0.15625
vt 0.1875 0.15625
vt 0.1875 0.1875
vt 0.15625 0.1875
vt 0.125 0.1875
vt 0.21875 0.15625
vt 0.21875 0.125
vt 0.21875 0.1875
vt 0.21875 0.21875
vt 0.1875 0.21875
vt 0.25 0.21875
vt 0.21875 0.25
vt 0.1875 0.25
vt 0.125 0.21875
vt 0.15625 0.21875
vt 0.15625 0.25
vt 0.125 0.25
vt 0.40625 0.46875
vt 0.40625 0.46875
vt 0.40625 0.5
vt 0.40625 0.5
vt 0.375 0.46875
vt 0.375 0.46875
vt 0.40625 0.46875
vt 0.40625 0.46875
vt 0.40625 0.5
vt 0.40625 0.5
vt 0.375 0.53125
vt 0.375 0.53125
vt 0.125 0.125
vt 0.125 0.125
vt 0.15625 0.125
vt 0.15625 0.125
vt 0.125 0.15625
vt 0.125 0.15625
vt 0.125 0.125
vt 0.125 0.125
vt 0.125 0.1875
vt 0.125 0.1875
vt 0.125 0.21875
vt 0.125 0.21875
vt 0.15625 0.125
vt 0.15625 0.125
vt 0.1875 0.15625
vt 0.1875 0.15625
vt 0.1875 0.15625
vt 0.1875 0.15625
vt 0.21875 0.125
vt 0.21875 0.125
vt 0.21875 0.125
vt 0.21875 0.125
vt 0.21875 0.15625
vt 0.21875 0.15625
vt 0.21875 0.1875
vt 0.21875 0.1875
vt 0.25 0.21875
vt 0.25 0.21875
vt 0.25 0.21875
vt 0.25 0.21875
vt 0.21875 0.21875
vt 0.21875 0.21875
vt 0.21875 0.21875
vt 0.21875 0.21875
vt 0.21875 0.25
vt 0.21875 0.25
vt 0.21875 0.25
vt 0.21875 0.25
vt 0.1875 0.25
vt 0.1875 0.25
vt 0.15625 0.25
vt 0.15625 0.25
vn -0.5151123 0.6790886 -0.5229704
vn -0.601032 0.6188326 -0.5057734
vn -0.5230737 0.6636561 -0.5347472
vn -0.580866 0.5729573 -0.5781994
vn -0.690354 0.4449315 -0.5704798
vn -0.8498916 0.09607513 -0.5181254
vn -0.8182276 0.08745191 -0.5682039
vn -0.8244156 0.1936381 -0.5318301
vn -0.7728321 0.1869836 -0.6064385
vn -0.9165419 0.1757737 -0.3592416
vn -0.8888841 0.3119339 -0.3355328
vn -0.7874012 0.3648856 -0.4968479
vn -0.7304354 0.3593213 -0.5808204
vn -0.9456078 0.2100264 -0.2484243
vn -0.9631881 0.1307457 -0.2348922
vn -0.9121613 0.3492006 -0.2145243
vn -0.8678138 0.4457275 -0.219605
vn -0.7902107 0.5179061 -0.3276285
vn -0.8996655 0.4191363 -0.1221749
vn -0.7478134 0.6062381 -0.2706484
vn -0.7131416 0.5978349 -0.3660908
vn -0.690354 0.4449315 -0.5704798
vn -0.736266 0.4670101 -0.4897079
vn -0.601032 0.6188326 -0.5057734
vn -0.580866 0.5729573 -0.5781994
vn 0.5134082 -0.6808527 0.5223519
vn 0.5215029 -0.6658541 0.5335477
vn 0.598955 -0.6207137 0.5059322
vn 0.5789838 -0.574432 0.5786239
vn 0.6913671 -0.442893 0.5708391
vn 0.8485972 -0.09453686 0.5205244
vn 0.8236078 -0.1927758 0.5333925
vn 0.8182033 -0.08601933 0.5684577
vn 0.7736663 -0.18548 0.6058363
vn 0.9170481 -0.1753112 0.3581742
vn 0.8891265 -0.3118612 0.3349577
vn 0.7864606 -0.3651583 0.4981356
vn 0.7302983 -0.3586682 0.581396
vn 0.9464577 -0.2084177 0.246536
vn 0.9641257 -0.128874 0.2320627
vn 0.9129423 -0.3480663 0.2130404
vn 0.8681341 -0.4456604 0.2184719
vn 0.7889609 -0.5196319 0.3279075
vn 0.9000733 -0.4192897 0.1185921
vn 0.7462637 -0.607826 0.2713631
vn 0.7135536 -0.5990794 0.3632426
vn 0.6913671 -0.442893 0.5708391
vn 0.7371719 -0.4663689 0.4889557
vn 0.598955 -0.6207137 0.5059322
vn 0.5789838 -0.574432 0.5786239
vn 0.8403904 0.3006551 -0.4509439
vn 0.8403904 0.3006551 -0.4509439
vn 0.8403904 0.3006551 -0.4509439
vn 0.8403904 0.3006551 -0.4509439
vn -0.4690438 0.2531947 0.8461031
vn -0.4690438 0.2531947 0.846103
vn -0.4690438 0.2531947 0.8461031
vn -0.4690438 0.2531947 0.846103
vn 0.305321 -0.5221562 -0.796324
vn 0.305321 -0.5221562 -0.7963241
vn 0.305321 -0.5221562 -0.7963241
vn 0.305321 -0.5221562 -0.7963241
vn 0.06030372 -0.9648793 -0.2556784
vn 0.06030371 -0.9648793 -0.2556784
vn 0.06030372 -0.9648793 -0.2556784
vn 0.06030372 -0.9648793 -0.2556784
vn 0.5906562 -0.09808344 -0.8009401
vn 0.5906574 -0.09798989 -0.8009506
vn 0.5905594 -0.0475552 -0.8055918
vn 0.5905594 -0.0475552 -0.8055918
vn 0.664454 0.04592494 -0.7459167
vn 0.6642514 0.04533898 -0.746133
vn 0.7128752 0.2243325 -0.6644425
vn 0.7128753 0.2243325 -0.6644425
vn -0.3880276 -0.6814809 0.6204985
vn -0.3880275 -0.6814809 0.6204985
vn -0.3880275 -0.6814809 0.6204985
vn -0.3880275 -0.6814809 0.6204985
vn 0.08018509 -0.7995192 -0.5952642
vn 0.0801851 -0.7995192 -0.5952642
vn 0.08018509 -0.7995192 -0.5952642
vn 0.0801851 -0.7995192 -0.5952642
vn -0.2704459 -0.2420419 0.9318126
vn -0.2704459 -0.2420419 0.9318126
vn -0.2554006 -0.1614251 0.9532641
vn -0.2553316 -0.1610738 0.953342
vn -0.2910321 -0.2858878 0.9129997
vn -0.2914069 -0.2876239 0.9123347
vn -0.31809 -0.4237727 0.8480775
vn -0.31809 -0.4237727 0.8480775
vn 0.4700833 0.8826051 -0.005469412
vn 0.4700833 0.8826051 -0.005469412
vn 0.4700834 0.8826051 -0.005469412
vn 0.4700834 0.8826051 -0.005469412
vn -0.2309672 0.06297202 0.9709215
vn -0.2309672 0.06297202 0.9709215
vn -0.2309672 0.06297202 0.9709215
vn -0.2309672 0.06297201 0.9709215
vn 0.6597 0.7482274 -0.07036879
vn 0.6597 0.7482274 -0.07036879
vn 0.6600797 0.7511827 -0.004398939
vn 0.6600785 0.7511842 -0.004323712
vn 0.6548188 0.7491769 0.09973145
vn 0.6548188 0.7491769 0.09973145
g shard60_0
f 3/3/3 2/2/2 1/1/1
f 3/3/3 4/4/4 2/2/2
f 3/3/3 5/5/5 4/4/4
f 8/8/8 7/7/7 6/6/6
f 8/8/8 9/9/9 7/7/7
f 10/10/10 8/8/8 6/6/6
f 11/11/11 8/8/8 10/10/10
f 11/11/11 12/12/12 8/8/8
f 8/8/8 13/13/13 9/9/9
f 8/8/8 12/12/12 13/13/13
f 14/14/14 11/11/11 10/10/10
f 15/15/15 14/14/14 10/10/10
f 14/14/14 16/16/16 11/11/11
f 17/17/17 11/11/11 16/16/16
f 17/17/17 18/18/18 11/11/11
f 18/18/18 12/12/12 11/11/11
f 19/19/19 17/17/17 16/16/16
f 20/20/20 18/18/18 17/17/17
f 20/20/20 21/21/21 18/18/18
f 12/12/12 22/22/22 13/13/13
f 12/12/12 23/23/23 22/22/22
f 18/18/18 23/23/23 12/12/12
f 21/21/21 23/23/23 18/18/18
f 21/21/21 24/24/24 23/23/23
f 24/24/24 22/22/22 23/23/23
f 24/24/24 25/25/25 22/22/22
f 28/28/28 27/27/27 26/26/26
f 29/29/29 27/27/27 28/28/28
f 30/30/30 27/27/27 29/29/29
f 33/33/33 32/32/32 31/31/31
f 34/34/34 32/32/32 33/33/33
f 32/32/32 35/35/35 31/31/31
f 32/32/32 36/36/36 35/35/35
f 37/37/37 36/36/36 32/32/32
f 38/38/38 32/32/32 34/34/34
f 37/37/37 32/32/32 38/38/38
f 36/36/36 39/39/39 35/35/35
f 39/39/39 40/40/40 35/35/35
f 41/41/41 39/39/39 36/36/36
f 36/36/36 42/42/42 41/41/41
f 43/43/43 42/42/42 36/36/36
f 37/37/37 43/43/43 36/36/36
f 42/42/42 44/44/44 41/41/41
f 43/43/43 45/45/45 42/42/42
f 46/46/46 45/45/45 43/43/43
f 47/47/47 37/37/37 38/38/38
f 48/48/48 37/37/37 47/47/47
f 48/48/48 43/43/43 37/37/37
f 48/48/48 46/46/46 43/43/43
f 49/49/49 46/46/46 48/48/48
f 47/47/47 49/49/49 48/48/48
f 50/50/50 49/49/49 47/47/47
f 53/53/53 52/52/52 51/51/51
f 54/54/54 53/53/53 51/51/51
f 57/57/57 56/56/56 55/55/55
f 58/58/58 57/57/57 55/55/55
f 61/61/61 60/60/60 59/59/59
f 62/62/62 61/61/61 59/59/59
f 65/65/65 64/64/64 63/63/63
f 66/66/66 65/65/65 63/63/63
f 69/69/69 68/68/68 67/67/67
f 70/70/70 69/69/69 67/67/67
f 67/67/67 68/68/68 71/71/71
f 68/68/68 72/72/72 71/71/71
f 71/71/71 72/72/72 73/73/73
f 72/72/72 74/74/74 73/73/73
f 77/77/77 76/76/76 75/75/75
f 78/78/78 77/77/77 75/75/75
f 81/81/81 80/80/80 79/79/79
f 82/82/82 81/81/81 79/79/79
f 85/85/85 84/84/84 83/83/83
f 86/86/86 85/85/85 83/83/83
f 87/87/87 85/85/85 86/86/86
f 88/88/88 87/87/87 86/86/86
f 89/89/89 87/87/87 88/88/88
f 90/90/90 89/89/89 88/88/88
f 93/93/93 92/92/92 91/91/91
f 94/94/94 93/93/93 91/91/91
f 97/97/97 96/96/96 95/95/95
f 98/98/98 97/97/97 95/95/95
f 101/101/101 100/100/100 99/99/99
f 102/102/102 101/101/101 99/99/99
f 103/103/103 101/101/101 102/102/102
f 104/104/104 103/103/103 102/102/102
