g shard63
v 0.04437172 -0.1097799 0.1615351
v -0.03611613 -0.09457858 0.1332671
v 0.03672846 -0.01713222 0.1133839
v -0.05765312 -0.04638177 0.0986851
v 0.1353257 -0.03584951 0.132952
v 0.1084858 0.05423895 0.06106074
v 0.02851319 0.03432804 0.06995972
v -0.0221779 0.02278054 0.06172301
v -0.1007686 -0.06829157 0.08774219
v -0.1100803 -0.1237313 0.1104201
v -0.08757337 -0.003091216 0.04720615
v -0.04431161 0.0692707 -0.006397173
v -0.0939982 0.04973498 -0.01804118
v -0.03822409 0.1106738 -0.08586994
v -0.1366206 0.06139874 -0.09458087
v 0.05612619 0.09322375 0.001860753
v 0.1168996 0.08697382 0.02062307
v 0.03044198 0.1280485 -0.07936729
v -0.03217334 0.1317534 -0.156498
v 0.04750586 -0.1186489 0.1439368
v 0.04003023 -0.02799505 0.09691884
v -0.02975161 -0.102932 0.1163651
v -0.05022926 -0.05640456 0.08305083
v 0.1366206 -0.04652789 0.1162069
v 0.1099024 0.04021347 0.0471075
v 0.03222968 0.02041796 0.05607818
v -0.01571379 0.009606361 0.04813416
v -0.0921128 -0.07764955 0.07242896
v -0.1018136 -0.1317534 0.09407045
v -0.07896683 -0.01531857 0.03406931
v -0.03752137 0.05349299 -0.01664199
v -0.08546708 0.03468615 -0.02771381
v -0.03119227 0.09317932 -0.09206268
v -0.1277264 0.04506189 -0.1019293
v 0.05957885 0.07673362 -0.00867492
v 0.118949 0.07122657 0.008464739
v 0.03545472 0.1101059 -0.08634233
v -0.02700386 0.1131012 -0.1615351
v -0.02975161 -0.102932 0.1163651
v -0.03611613 -0.09457858 0.1332671
v 0.04437172 -0.1097799 0.1615351
v 0.04750586 -0.1186489 0.1439368
v -0.1018136 -0.1317534 0.09407045
v -0.1100803 -0.1237313 0.1104201
v 0.04750586 -0.1186489 0.1439368
v 0.04437172 -0.1097799 0.1615351
v 0.1353257 -0.03584951 0.132952
v 0.1366206 -0.04652789 0.1162069
v 0.1366206 -0.04652789 0.1162069
v 0.1353257 -0.03584951 0.132952
v 0.1084858 0.05423895 0.06106074
v 0.1099024 0.04021347 0.0471075
v 0.1168996 0.08697382 0.02062307
v 0.118949 0.07122657 0.008464739
v -0.0921128 -0.07764955 0.07242896
v -0.1007686 -0.06829157 0.08774219
v -0.1100803 -0.1237313 0.1104201
v -0.1018136 -0.1317534 0.09407045
v -0.07896683 -0.01531857 0.03406931
v -0.08757337 -0.003091216 0.04720615
v -0.08546708 0.03468615 -0.02771381
v -0.0939982 0.04973498 -0.01804118
v -0.03119227 0.09317932 -0.09206268
v -0.03822409 0.1106738 -0.08586994
v -0.1366206 0.06139874 -0.09458087
v -0.1277264 0.04506189 -0.1019293
v -0.1277264 0.04506189 -0.1019293
v -0.1366206 0.06139874 -0.09458087
v -0.0939982 0.04973498 -0.01804118
v -0.08546708 0.03468615 -0.02771381
v 0.118949 0.07122657 0.008464739
v 0.1168996 0.08697382 0.02062307
v 0.05612619 0.09322375 0.001860753
v 0.05957885 0.07673362 -0.00867492
v 0.05957885 0.07673362 -0.00867492
v 0.05612619 0.09322375 0.001860753
v 0.03044198 0.1280485 -0.07936729
v 0.03545472 0.1101059 -0.08634233
v -0.03217334 0.1317534 -0.156498
v -0.02700386 0.1131012 -0.1615351
v -0.02700386 0.1131012 -0.1615351
v -0.03217334 0.1317534 -0.156498
v -0.03822409 0.1106738 -0.08586994
v -0.03119227 0.09317932 -0.09206268
vt 0.46875 0.1875
vt 0.4375 0.1875
vt 0.46875 0.21875
vt 0.4375 0.21875
vt 0.5 0.21875
vt 0.5 0.25
vt 0.46875 0.25
vt 0.4375 0.25
vt 0.40625 0.21875
vt 0.40625 0.1875
vt 0.40625 0.25
vt 0.4375 0.28125
vt 0.40625 0.28125
vt 0.4375 0.3125
vt 0.40625 0.3125
vt 0.46875 0.28125
vt 0.5 0.28125
vt 0.46875 0.3125
vt 0.4375 0.34375
vt 0.46875 0.1875
vt 0.46875 0.21875
vt 0.4375 0.1875
vt 0.4375 0.21875
vt 0.5 0.21875
vt 0.5 0.25
vt 0.46875 0.25
vt 0.4375 0.25
vt 0.40625 0.21875
vt 0.40625 0.1875
vt 0.40625 0.25
vt 0.4375 0.28125
vt 0.40625 0.28125
vt 0.4375 0.3125
vt 0.40625 0.3125
vt 0.46875 0.28125
vt 0.5 0.28125
vt 0.46875 0.3125
vt 0.4375 0.34375
vt 0.4375 0.1875
vt 0.4375 0.1875
vt 0.46875 0.1875
vt 0.46875 0.1875
vt 0.40625 0.1875
vt 0.40625 0.1875
vt 0.46875 0.1875
vt 0.46875 0.1875
vt 0.5 0.21875
vt 0.5 0.21875
vt 0.5 0.21875
vt 0.5 0.21875
vt 0.5 0.25
vt 0.5 0.25
vt 0.5 0.28125
vt 0.5 0.28125
vt 0.40625 0.21875
vt 0.40625 0.21875
vt 0.40625 0.1875
vt 0.40625 0.1875
vt 0.40625 0.25
vt 0.40625 0.25
vt 0.40625 0.28125
vt 0.40625 0.28125
vt 0.4375 0.3125
vt 0.4375 0.3125
vt 0.40625 0.3125
vt 0.40625 0.3125
vt 0.40625 0.3125
vt 0.40625 0.3125
vt 0.40625 0.28125
vt 0.40625 0.28125
vt 0.5 0.28125
vt 0.5 0.28125
vt 0.46875 0.28125
vt 0.46875 0.28125
vt 0.46875 0.28125
vt 0.46875 0.28125
vt 0.46875 0.3125
vt 0.46875 0.3125
vt 0.4375 0.34375
vt 0.4375 0.34375
vt 0.4375 0.34375
vt 0.4375 0.34375
vt 0.4375 0.3125
vt 0.4375 0.3125
vn -0.1593275 0.4448882 0.8812997
vn -0.2891571 0.4414176 0.8494343
vn -0.1465645 0.536536 0.8310523
vn -0.3509591 0.5117293 0.7841944
vn -0.06283405 0.543864 0.8368177
vn -0.08050097 0.6952685 0.7142277
vn -0.1785176 0.7147712 0.6761905
vn -0.3293313 0.6515475 0.6833936
vn -0.4267514 0.4483957 0.7853817
vn -0.4114611 0.4034217 0.8172826
vn -0.4081457 0.6305242 0.6601942
vn -0.3207956 0.7970402 0.5116807
vn -0.4291855 0.7821222 0.4517574
vn -0.3231739 0.8727956 0.3657683
vn -0.4419129 0.8169362 0.3705783
vn -0.2074339 0.8149789 0.541092
vn -0.1082907 0.7835768 0.6117848
vn -0.2520835 0.8817561 0.3986981
vn -0.2598321 0.9311948 0.2556626
vn 0.1577558 -0.4443642 -0.8818467
vn 0.145547 -0.5351261 -0.8321395
vn 0.2891168 -0.4406071 -0.8498688
vn 0.3514778 -0.5111278 -0.7843544
vn 0.063385 -0.5418674 -0.8380704
vn 0.07994664 -0.6946675 -0.7148744
vn 0.1790302 -0.715055 -0.6757548
vn 0.3296847 -0.6510529 -0.6836945
vn 0.4270561 -0.4464518 -0.7863231
vn 0.413334 -0.4011018 -0.8174793
vn 0.4073825 -0.6300098 -0.6611559
vn 0.3202945 -0.7969258 -0.5121726
vn 0.4299169 -0.7830917 -0.449376
vn 0.3222547 -0.8738289 -0.3641085
vn 0.4447095 -0.8168437 -0.3674231
vn 0.2072986 -0.8152436 -0.540745
vn 0.1024663 -0.7873617 -0.6079162
vn 0.2512872 -0.8824875 -0.3975808
vn 0.2584746 -0.93261 -0.2518518
vn -0.06509519 -0.8950222 0.4412458
vn -0.06567816 -0.8950632 0.4410763
vn -0.3001852 -0.8839101 0.3585971
vn -0.3001852 -0.8839101 0.358597
vn 0.1826676 -0.8477863 0.4978864
vn 0.1826676 -0.8477863 0.4978864
vn 0.6447654 -0.6255893 0.4392216
vn 0.6447654 -0.6255893 0.4392216
vn 0.6447654 -0.6255893 0.4392216
vn 0.6447654 -0.6255893 0.4392216
vn 0.9709778 0.2208017 -0.09191737
vn 0.9709778 0.2208017 -0.09191737
vn 0.9900361 0.1406269 -0.007245986
vn 0.9898896 0.1415997 -0.008261653
vn 0.9824615 -0.04444764 0.1810904
vn 0.9824615 -0.04444764 0.1810904
vn -0.8858507 -0.07042284 -0.4585947
vn -0.8858579 -0.07033849 -0.4585938
vn -0.8884957 -0.031024 -0.4578348
vn -0.8884957 -0.031024 -0.4578348
vn -0.9063197 -0.2505928 -0.3402761
vn -0.9063442 -0.2511142 -0.3398262
vn -0.8980845 -0.3820553 -0.2178947
vn -0.8980845 -0.3820553 -0.2178947
vn -0.07947255 0.3379492 -0.937803
vn -0.07947255 0.3379492 -0.937803
vn -0.07947255 0.3379491 -0.937803
vn -0.07947256 0.3379492 -0.937803
vn -0.7381969 -0.5885885 0.329589
vn -0.7381969 -0.5885885 0.329589
vn -0.7381969 -0.5885885 0.329589
vn -0.7381969 -0.5885885 0.329589
vn 0.2843701 0.5838499 -0.7604294
vn 0.2843701 0.5838499 -0.7604294
vn 0.2843702 0.5838499 -0.7604294
vn 0.2843701 0.5838499 -0.7604294
vn 0.9366693 0.3115906 -0.1598813
vn 0.9366693 0.3115906 -0.1598813
vn 0.8463852 0.3627569 -0.3899226
vn 0.8479616 0.3622205 -0.386985
vn 0.7203115 0.3889468 -0.5743447
vn 0.7203115 0.3889468 -0.5743446
vn -0.9499657 -0.2741643 -0.1496638
vn -0.9499657 -0.2741643 -0.1496637
vn -0.9499657 -0.2741643 -0.1496637
vn -0.9499657 -0.2741643 -0.1496637
g shard63_0
f 3/3/3 2/2/2 1/1/1
f 3/3/3 4/4/4 2/2/2
f 5/5/5 3/3/3 1/1/1
f 6/6/6 3/3/3 5/5/5
f 6/6/6 7/7/7 3/3/3
f 3/3/3 8/8/8 4/4/4
f 3/3/3 7/7/7 8/8/8
f 2/2/2 4/4/4 9/9/9
f 2/2/2 9/9/9 10/10/10
f 4/4/4 11/11/11 9/9/9
f 4/4/4 8/8/8 11/11/11
f 12/12/12 11/11/11 8/8/8
f 7/7/7 12/12/12 8/8/8
f 12/12/12 13/13/13 11/11/11
f 14/14/14 13/13/13 12/12/12
f 14/14/14 15/15/15 13/13/13
f 7/7/7 16/16/16 12/12/12
f 6/6/6 16/16/16 7/7/7
f 6/6/6 17/17/17 16/16/16
f 18/18/18 12/12/12 16/16/16
f 18/18/18 14/14/14 12/12/12
f 18/18/18 19/19/19 14/14/14
f 22/22/22 21/21/21 20/20/20
f 23/23/23 21/21/21 22/22/22
f 21/21/21 24/24/24 20/20/20
f 21/21/21 25/25/25 24/24/24
f 26/26/26 25/25/25 21/21/21
f 27/27/27 21/21/21 23/23/23
f 26/26/26 21/21/21 27/27/27
f 23/23/23 22/22/22 28/28/28
f 28/28/28 22/22/22 29/29/29
f 30/30/30 23/23/23 28/28/28
f 27/27/27 23/23/23 30/30/30
f 30/30/30 31/31/31 27/27/27
f 31/31/31 26/26/26 27/27/27
f 32/32/32 31/31/31 30/30/30
f 32/32/32 33/33/33 31/31/31
f 34/34/34 33/33/33 32/32/32
f 35/35/35 26/26/26 31/31/31
f 35/35/35 25/25/25 26/26/26
f 36/36/36 25/25/25 35/35/35
f 31/31/31 37/37/37 35/35/35
f 33/33/33 37/37/37 31/31/31
f 38/38/38 37/37/37 33/33/33
f 41/41/41 40/40/40 39/39/39
f 42/42/42 41/41/41 39/39/39
f 39/39/39 40/40/40 43/43/43
f 40/40/40 44/44/44 43/43/43
f 47/47/47 46/46/46 45/45/45
f 48/48/48 47/47/47 45/45/45
f 51/51/51 50/50/50 49/49/49
f 52/52/52 51/51/51 49/49/49
f 53/53/53 51/51/51 52/52/52
f 54/54/54 53/53/53 52/52/52
f 57/57/57 56/56/56 55/55/55
f 58/58/58 57/57/57 55/55/55
f 55/55/55 56/56/56 59/59/59
f 56/56/56 60/60/60 59/59/59
f 59/59/59 60/60/60 61/61/61
f 60/60/60 62/62/62 61/61/61
f 65/65/65 64/64/64 63/63/63
f 66/66/66 65/65/65 63/63/63
f 69/69/69 68/68/68 67/67/67
f 70/70/70 69/69/69 67/67/67
f 73/73/73 72/72/72 71/71/71
f 74/74/74 73/73/73 71/71/71
f 77/77/77 76/76/76 75/75/75
f 78/78/78 77/77/77 75/75/75
f 79/79/79 77/77/77 78/78/78
f 80/80/80 79/79/79 78/78/78
f 83/83/83 82/82/82 81/81/81
f 84/84/84 83/83/83 81/81/81
