g shard4
v 0.0043072 -0.23707642 0.3623915
v 0.0077529605 -0.42673755 0.6523047
v -0.14918408 -0.42221588 0.63815963
v -0.08288004 -0.23456438 0.3545331
v -0.08288004 -0.23456438 0.3545331
v -0.14918408 -0.42221588 0.63815963
v -0.27957702 -0.30414468 0.6574333
v -0.15532055 -0.16896926 0.3652407
v -0.41790223 -0.13628629 0.6428376
v -0.2321679 -0.0757146 0.357132
v -0.09987474 -0.014639085 0.4123244
v -0.17977454 -0.026350353 0.7421839
v -0.022187341 0.015543927 0.7610469
v -0.012326301 0.008635515 0.42280382
v -0.18495724 0.0135786785 0.38637418
v -0.33292302 0.024441622 0.69547355
v -0.17977454 -0.026350353 0.7421839
v -0.09987474 -0.014639085 0.4123244
v -0.2330431 0.01930602 0.36137697
v -0.41947758 0.034750838 0.65047854
v -0.33292302 0.024441622 0.69547355
v -0.18495724 0.0135786785 0.38637418
v -0.2321679 -0.0757146 0.357132
v -0.41790223 -0.13628629 0.6428376
v -0.549877 0.013279644 0.5593021
v -0.30548722 0.00737758 0.31072336
v 0.06437768 -0.17146195 0.38757822
v 0.115879826 -0.30863154 0.6976408
v 0.0077529605 -0.42673755 0.6523047
v 0.0043072 -0.23707642 0.3623915
v 0.15343553 -0.1429129 0.37499738
v 0.27618396 -0.25724322 0.6749953
v 0.115879826 -0.30863154 0.6976408
v 0.06437768 -0.17146195 0.38757822
v 0.15318696 -0.08326086 0.39159554
v 0.27573654 -0.14986953 0.704872
v 0.27618396 -0.25724322 0.6749953
v 0.15343553 -0.1429129 0.37499738
v 0.15957806 0.007576574 0.397282
v 0.2872405 0.013637833 0.7151076
v 0.27573654 -0.14986953 0.704872
v 0.15318696 -0.08326086 0.39159554
v 0.07673733 -0.015448175 0.4165072
v 0.1381272 -0.027806716 0.74971294
v 0.2872405 0.013637833 0.7151076
v 0.15957806 0.007576574 0.397282
v 0.08344403 0.077878214 0.41084114
v 0.15019925 0.14018078 0.73951405
v 0.1381272 -0.027806716 0.74971294
v 0.07673733 -0.015448175 0.4165072
v -0.012326301 0.008635515 0.42280382
v -0.022187341 0.015543927 0.7610469
v 0.15019925 0.14018078 0.73951405
v 0.08344403 0.077878214 0.41084114
v -0.30548722 0.00737758 0.31072336
v -0.549877 0.013279644 0.5593021
v -0.5179291 0.102224 0.5713451
v -0.28773838 0.05679111 0.31741396
v -0.25170627 0.09707249 0.3375816
v -0.4530713 0.17473048 0.6076469
v -0.41947758 0.034750838 0.65047854
v -0.2330431 0.01930602 0.36137697
v -0.28773838 0.05679111 0.31741396
v -0.5179291 0.102224 0.5713451
v -0.4530713 0.17473048 0.6076469
v -0.25170627 0.09707249 0.3375816
vt 0 0
vt 0 1
vt 0.058353033 1
vt 0.058353033 0
vt 0.058353033 0
vt 0.058353033 1
vt 0.12385823 1
vt 0.12385823 0
vt 0.20455493 1
vt 0.20455493 0
vt 0.5123972 0
vt 0.5123972 1
vt 0.5731602 1
vt 0.5731602 0
vt 0.45021716 0
vt 0.45021716 1
vt 0.5123972 1
vt 0.5123972 0
vt 0.41390544 0
vt 0.41390544 1
vt 0.45021716 1
vt 0.45021716 0
vt 0.20455493 0
vt 0.20455493 1
vt 0.28460562 1
vt 0.28460562 0
vt 0.9383959 0
vt 0.9383959 1
vt 1 1
vt 1 0
vt 0.8755202 0
vt 0.8755202 1
vt 0.9383959 1
vt 0.9383959 0
vt 0.8342633 0
vt 0.8342633 1
vt 0.8755202 1
vt 0.8755202 0
vt 0.77346987 0
vt 0.77346987 1
vt 0.8342633 1
vt 0.8342633 0
vt 0.7147654 0
vt 0.7147654 1
vt 0.77346987 1
vt 0.77346987 0
vt 0.65230674 0
vt 0.65230674 1
vt 0.7147654 1
vt 0.7147654 0
vt 0.5731602 0
vt 0.5731602 1
vt 0.65230674 1
vt 0.65230674 0
vt 0.28460562 0
vt 0.28460562 1
vt 0.31987262 1
vt 0.31987262 0
vt 0.35830903 0
vt 0.35830903 1
vt 0.41390544 1
vt 0.41390544 0
vt 0.31987262 0
vt 0.31987262 1
vt 0.35830903 1
vt 0.35830903 0
vn -0.025247507 0.8364298 0.54749215
vn -0.025247507 0.8364298 0.5474922
vn -0.025247509 0.8364298 0.54749215
vn -0.025247507 0.8364298 0.54749215
vn 0.6104363 0.587406 0.5313396
vn 0.6104363 0.5874059 0.5313395
vn 0.6104363 0.587406 0.5313396
vn 0.6104363 0.5874059 0.5313395
vn 0.6310796 0.5661567 0.5302879
vn 0.6310795 0.5661566 0.53028786
vn 0.25379324 -0.9668775 0.02714691
vn 0.2537932 -0.9668775 0.02714691
vn 0.2537932 -0.9668775 0.02714691
vn 0.25379324 -0.9668775 0.027146911
vn -0.28473377 -0.95307785 -0.10280714
vn -0.28473377 -0.95307785 -0.10280715
vn -0.2847338 -0.95307785 -0.10280714
vn -0.28473377 -0.95307785 -0.102807134
vn -0.109325856 -0.99385357 -0.017406395
vn -0.10932584 -0.99385357 -0.017406397
vn -0.10932584 -0.99385357 -0.017406397
vn -0.10932585 -0.99385357 -0.017406397
vn 0.5065232 0.71559495 0.480997
vn 0.5065232 0.715595 0.480997
vn 0.5065232 0.715595 0.48099706
vn 0.5065232 0.715595 0.480997
vn -0.7519683 0.5475103 0.36711866
vn -0.7519683 0.5475104 0.36711866
vn -0.7519683 0.5475103 0.36711866
vn -0.7519683 0.5475103 0.36711866
vn -0.22131653 0.8776974 0.4250485
vn -0.22131653 0.8776974 0.42504853
vn -0.22131653 0.8776974 0.4250485
vn -0.22131653 0.8776974 0.42504853
vn -0.9336513 -0.099622354 0.34405023
vn -0.9336513 -0.099622354 0.3440502
vn -0.9336513 -0.09962236 0.3440502
vn -0.9336513 -0.099622354 0.3440502
vn -0.9273985 0.04198025 0.37171176
vn -0.9273985 0.041980248 0.37171173
vn -0.9273985 0.04198025 0.3717118
vn -0.9273985 0.041980248 0.37171173
vn 0.24924517 -0.96498704 -0.08171216
vn 0.24924517 -0.96498704 -0.08171216
vn 0.24924514 -0.96498704 -0.08171214
vn 0.24924514 -0.96498704 -0.08171215
vn -0.9796299 0.08154039 0.18351145
vn -0.9796299 0.081540406 0.18351147
vn -0.9796299 0.08154039 0.18351145
vn -0.9796299 0.08154039 0.18351147
vn 0.5883341 -0.8079173 0.03365334
vn 0.58833414 -0.8079173 0.03365334
vn 0.58833414 -0.80791724 0.033653338
vn 0.58833414 -0.8079173 0.03365334
vn 0.6690932 -0.33046204 0.66566443
vn 0.6690932 -0.33046207 0.6656644
vn 0.6690932 -0.33046204 0.6656644
vn 0.6690933 -0.33046204 0.66566443
vn -0.7976083 -0.34319365 -0.4960233
vn -0.7976083 -0.34319368 -0.4960233
vn -0.7976083 -0.34319365 -0.49602336
vn -0.7976083 -0.34319365 -0.49602336
vn 0.46799144 -0.6931142 0.54824877
vn 0.46799144 -0.6931142 0.5482488
vn 0.4679915 -0.69311416 0.5482488
vn 0.46799147 -0.69311416 0.54824877
g shard4_0
f 3/3/3 2/2/2 1/1/1
f 4/4/4 3/3/3 1/1/1
f 7/7/7 6/6/6 5/5/5
f 8/8/8 7/7/7 5/5/5
f 9/9/9 7/7/7 8/8/8
f 10/10/10 9/9/9 8/8/8
f 13/13/13 12/12/12 11/11/11
f 14/14/14 13/13/13 11/11/11
f 17/17/17 16/16/16 15/15/15
f 18/18/18 17/17/17 15/15/15
f 21/21/21 20/20/20 19/19/19
f 22/22/22 21/21/21 19/19/19
f 25/25/25 24/24/24 23/23/23
f 26/26/26 25/25/25 23/23/23
f 29/29/29 28/28/28 27/27/27
f 30/30/30 29/29/29 27/27/27
f 33/33/33 32/32/32 31/31/31
f 34/34/34 33/33/33 31/31/31
f 37/37/37 36/36/36 35/35/35
f 38/38/38 37/37/37 35/35/35
f 41/41/41 40/40/40 39/39/39
f 42/42/42 41/41/41 39/39/39
f 45/45/45 44/44/44 43/43/43
f 46/46/46 45/45/45 43/43/43
f 49/49/49 48/48/48 47/47/47
f 50/50/50 49/49/49 47/47/47
f 53/53/53 52/52/52 51/51/51
f 54/54/54 53/53/53 51/51/51
f 57/57/57 56/56/56 55/55/55
f 58/58/58 57/57/57 55/55/55
f 61/61/61 60/60/60 59/59/59
f 62/62/62 61/61/61 59/59/59
f 65/65/65 64/64/64 63/63/63
f 66/66/66 65/65/65 63/63/63
