g shard84
v -0.2163812 0.04197106 0.07524458
v -0.1667489 0.03508958 0.02558708
v -0.1697321 0.08069232 0.06714225
v -0.0887177 0.1051375 0.03734538
v -0.086733 0.03569148 -0.01498136
v -0.1203942 -0.03003386 -0.03365165
v -0.185069 -0.03914499 -0.002221346
v -0.2288815 -0.0356255 0.03379413
v -0.03012393 0.06946242 -0.01095858
v -0.005640544 -0.01263465 -0.05954611
v 0.06606796 0.05849546 -0.03172678
v 0.0610195 0.116339 0.01214403
v 0.07629597 -0.006506011 -0.06223124
v -0.02159242 -0.09298514 -0.08150309
v 0.05814757 -0.09244402 -0.08815882
v 0.1330262 -0.1111457 -0.0861975
v 0.1460834 -0.007626981 -0.05519074
v 0.1314911 0.05036014 -0.02929184
v 0.2288815 -0.08830117 -0.05742282
v -0.2047873 0.03208537 0.08815885
v -0.1598523 0.06937066 0.08025786
v -0.1569647 0.02521266 0.03996471
v -0.08155018 0.09349647 0.05184516
v -0.08048613 0.02611428 0.001427591
v -0.1134002 -0.03712621 -0.0164974
v -0.1749831 -0.04730166 0.01294103
v -0.2172612 -0.04419932 0.04760587
v -0.02621295 0.05777371 0.004681051
v -0.002591446 -0.0199763 -0.04119393
v 0.06771906 0.04836981 -0.01469967
v 0.06310211 0.1043814 0.02803987
v 0.07594852 -0.0149473 -0.04417199
v -0.01825856 -0.09877835 -0.06273496
v 0.05803828 -0.09789346 -0.06899539
v 0.1298651 -0.116339 -0.06719029
v 0.1428919 -0.01444423 -0.03679562
v 0.1295767 0.04177129 -0.01133171
v 0.2244131 -0.09334682 -0.0385927
v -0.2047873 0.03208537 0.08815885
v -0.2163812 0.04197106 0.07524458
v -0.1697321 0.08069232 0.06714225
v -0.1598523 0.06937066 0.08025786
v -0.0887177 0.1051375 0.03734538
v -0.08155018 0.09349647 0.05184516
v -0.1134002 -0.03712621 -0.0164974
v -0.1203942 -0.03003386 -0.03365165
v -0.185069 -0.03914499 -0.002221346
v -0.1749831 -0.04730166 0.01294103
v -0.2288815 -0.0356255 0.03379413
v -0.2172612 -0.04419932 0.04760587
v -0.2172612 -0.04419932 0.04760587
v -0.2288815 -0.0356255 0.03379413
v -0.2163812 0.04197106 0.07524458
v -0.2047873 0.03208537 0.08815885
v -0.08155018 0.09349647 0.05184516
v -0.0887177 0.1051375 0.03734538
v -0.03012393 0.06946242 -0.01095858
v -0.02621295 0.05777371 0.004681051
v -0.02621295 0.05777371 0.004681051
v -0.03012393 0.06946242 -0.01095858
v 0.0610195 0.116339 0.01214403
v 0.06310211 0.1043814 0.02803987
v 0.06310211 0.1043814 0.02803987
v 0.0610195 0.116339 0.01214403
v 0.06606796 0.05849546 -0.03172678
v 0.06771906 0.04836981 -0.01469967
v 0.07629597 -0.006506011 -0.06223124
v 0.07594852 -0.0149473 -0.04417199
v -0.01825856 -0.09877835 -0.06273496
v -0.02159242 -0.09298514 -0.08150309
v -0.1203942 -0.03003386 -0.03365165
v -0.1134002 -0.03712621 -0.0164974
v 0.05803828 -0.09789346 -0.06899539
v 0.05814757 -0.09244402 -0.08815882
v -0.02159242 -0.09298514 -0.08150309
v -0.01825856 -0.09877835 -0.06273496
v 0.1298651 -0.116339 -0.06719029
v 0.1330262 -0.1111457 -0.0861975
v 0.07594852 -0.0149473 -0.04417199
v 0.07629597 -0.006506011 -0.06223124
v 0.1314911 0.05036014 -0.02929184
v 0.1295767 0.04177129 -0.01133171
v 0.1295767 0.04177129 -0.01133171
v 0.1314911 0.05036014 -0.02929184
v 0.1460834 -0.007626981 -0.05519074
v 0.1428919 -0.01444423 -0.03679562
v 0.1428919 -0.01444423 -0.03679562
v 0.1460834 -0.007626981 -0.05519074
v 0.2288815 -0.08830117 -0.05742282
v 0.2244131 -0.09334682 -0.0385927
v 0.2244131 -0.09334682 -0.0385927
v 0.2288815 -0.08830117 -0.05742282
v 0.1330262 -0.1111457 -0.0861975
v 0.1298651 -0.116339 -0.06719029
vt 0.375 0.53125
vt 0.40625 0.53125
vt 0.40625 0.5
vt 0.4375 0.5
vt 0.4375 0.53125
vt 0.4375 0.5625
vt 0.40625 0.5625
vt 0.375 0.5625
vt 0.46875 0.53125
vt 0.46875 0.5625
vt 0.5 0.53125
vt 0.5 0.5
vt 0.5 0.5625
vt 0.46875 0.59375
vt 0.5 0.59375
vt 0.53125 0.59375
vt 0.53125 0.5625
vt 0.53125 0.53125
vt 0.5625 0.59375
vt 0.375 0.53125
vt 0.40625 0.5
vt 0.40625 0.53125
vt 0.4375 0.5
vt 0.4375 0.53125
vt 0.4375 0.5625
vt 0.40625 0.5625
vt 0.375 0.5625
vt 0.46875 0.53125
vt 0.46875 0.5625
vt 0.5 0.53125
vt 0.5 0.5
vt 0.5 0.5625
vt 0.46875 0.59375
vt 0.5 0.59375
vt 0.53125 0.59375
vt 0.53125 0.5625
vt 0.53125 0.53125
vt 0.5625 0.59375
vt 0.375 0.53125
vt 0.375 0.53125
vt 0.40625 0.5
vt 0.40625 0.5
vt 0.4375 0.5
vt 0.4375 0.5
vt 0.4375 0.5625
vt 0.4375 0.5625
vt 0.40625 0.5625
vt 0.40625 0.5625
vt 0.375 0.5625
vt 0.375 0.5625
vt 0.375 0.5625
vt 0.375 0.5625
vt 0.375 0.53125
vt 0.375 0.53125
vt 0.4375 0.5
vt 0.4375 0.5
vt 0.46875 0.53125
vt 0.46875 0.53125
vt 0.46875 0.53125
vt 0.46875 0.53125
vt 0.5 0.5
vt 0.5 0.5
vt 0.5 0.5
vt 0.5 0.5
vt 0.5 0.53125
vt 0.5 0.53125
vt 0.5 0.5625
vt 0.5 0.5625
vt 0.46875 0.59375
vt 0.46875 0.59375
vt 0.4375 0.5625
vt 0.4375 0.5625
vt 0.5 0.59375
vt 0.5 0.59375
vt 0.46875 0.59375
vt 0.46875 0.59375
vt 0.53125 0.59375
vt 0.53125 0.59375
vt 0.5 0.5625
vt 0.5 0.5625
vt 0.53125 0.53125
vt 0.53125 0.53125
vt 0.53125 0.53125
vt 0.53125 0.53125
vt 0.53125 0.5625
vt 0.53125 0.5625
vt 0.53125 0.5625
vt 0.53125 0.5625
vt 0.5625 0.59375
vt 0.5625 0.59375
vt 0.5625 0.59375
vt 0.5625 0.59375
vt 0.53125 0.59375
vt 0.53125 0.59375
vn -0.5869163 0.4787208 -0.6529592
vn -0.4774854 0.4931221 -0.7272127
vn -0.4743967 0.5757715 -0.6659091
vn -0.3666082 0.5669361 -0.7376868
vn -0.31346 0.4732536 -0.8232701
vn -0.3339663 0.3838805 -0.860873
vn -0.4982171 0.4092884 -0.7643707
vn -0.5801659 0.4294294 -0.6920968
vn -0.1831963 0.5119402 -0.8392594
vn -0.1616131 0.3655636 -0.9166484
vn -0.1058816 0.5097687 -0.853771
vn -0.1041667 0.5952196 -0.7967829
vn 0.0172957 0.3336607 -0.9425345
vn -0.1752744 0.2917478 -0.9402989
vn 0.009365844 0.2803076 -0.9598645
vn 0.1626822 0.2627871 -0.9510401
vn 0.1447114 0.3029849 -0.9419441
vn 0.09757598 0.4262278 -0.899338
vn 0.2220668 0.2539589 -0.9413773
vn 0.5884209 -0.4780947 0.6520631
vn 0.4747859 -0.5760813 0.6653636
vn 0.4789974 -0.4933614 0.7260551
vn 0.3672749 -0.5673956 0.7370016
vn 0.3138014 -0.4738696 0.8227857
vn 0.3336661 -0.3839622 0.8609529
vn 0.5013277 -0.4087702 0.7626123
vn 0.5813634 -0.4289022 0.6914185
vn 0.1831426 -0.5114644 0.8395612
vn 0.1614557 -0.3646871 0.9170253
vn 0.1052119 -0.5120553 0.8524845
vn 0.1041309 -0.5978814 0.7947921
vn -0.01776642 -0.3320633 0.9430898
vn 0.174715 -0.291797 0.9403878
vn -0.008587477 -0.278613 0.9603651
vn -0.1651264 -0.2607182 0.9511884
vn -0.1468985 -0.3027907 0.941668
vn -0.09572254 -0.4294426 0.8980068
vn -0.2234243 -0.2522826 0.9415068
vn -0.3424936 0.5699484 0.7468982
vn -0.3424937 0.5699484 0.7468982
vn -0.1425211 0.7022851 0.6974836
vn -0.1419849 0.7025771 0.6972988
vn -0.0006641764 0.7687052 0.6396028
vn -0.0006641763 0.7687052 0.6396028
vn -0.05442278 -0.9138279 -0.4024385
vn -0.05442279 -0.9138279 -0.4024385
vn -0.1688186 -0.9188666 -0.3566294
vn -0.1687053 -0.9188685 -0.3566779
vn -0.3088705 -0.9053672 -0.2913918
vn -0.3088705 -0.9053672 -0.2913918
vn -0.8000919 -0.1757898 0.5735423
vn -0.8000919 -0.1757898 0.5735423
vn -0.800092 -0.1757898 0.5735422
vn -0.8000919 -0.1757898 0.5735423
vn 0.6690915 0.6862529 0.2852605
vn 0.6690915 0.6862529 0.2852605
vn 0.6690915 0.6862529 0.2852605
vn 0.6690915 0.6862528 0.2852605
vn -0.4872578 0.6516942 0.5812697
vn -0.4872579 0.6516942 0.5812697
vn -0.4872578 0.6516942 0.5812696
vn -0.4872578 0.6516942 0.5812696
vn 0.992954 0.1125351 -0.03712473
vn 0.992954 0.1125351 -0.03712473
vn 0.9927242 0.120367 -0.003216536
vn 0.9927235 0.1203739 -0.003186347
vn 0.9912761 0.1281134 0.03096375
vn 0.9912761 0.1281134 0.03096375
vn -0.5780214 -0.8066717 -0.1231746
vn -0.5780213 -0.8066717 -0.1231746
vn -0.5780214 -0.8066717 -0.1231746
vn -0.5780213 -0.8066717 -0.1231746
vn -0.12074 -0.9514966 -0.2829773
vn -0.1208493 -0.9514832 -0.2829756
vn -0.01466119 -0.9590086 -0.2829973
vn -0.01466119 -0.9590086 -0.2829973
vn -0.2289213 -0.9324281 -0.2795941
vn -0.2289213 -0.9324281 -0.2795941
vn -0.7662219 0.5981785 0.2347052
vn -0.7662219 0.5981784 0.2347052
vn -0.7662219 0.5981785 0.2347052
vn -0.7662219 0.5981784 0.2347052
vn 0.9689283 0.1474675 0.1985731
vn 0.9689283 0.1474674 0.1985731
vn 0.9689283 0.1474674 0.198573
vn 0.9689283 0.1474674 0.1985731
vn 0.6574539 0.6682004 0.3482276
vn 0.6574538 0.6682005 0.3482276
vn 0.6574539 0.6682005 0.3482276
vn 0.657454 0.6682005 0.3482276
vn 0.2850327 -0.9381804 -0.1964024
vn 0.2850327 -0.9381804 -0.1964024
vn 0.2850327 -0.9381804 -0.1964024
vn 0.2850327 -0.9381804 -0.1964024
g shard84_0
f 3/3/3 2/2/2 1/1/1
f 4/4/4 2/2/2 3/3/3
f 4/4/4 5/5/5 2/2/2
f 6/6/6 2/2/2 5/5/5
f 6/6/6 7/7/7 2/2/2
f 2/2/2 8/8/8 1/1/1
f 2/2/2 7/7/7 8/8/8
f 9/9/9 5/5/5 4/4/4
f 10/10/10 5/5/5 9/9/9
f 10/10/10 6/6/6 5/5/5
f 11/11/11 10/10/10 9/9/9
f 12/12/12 11/11/11 9/9/9
f 11/11/11 13/13/13 10/10/10
f 14/14/14 6/6/6 10/10/10
f 15/15/15 10/10/10 13/13/13
f 15/15/15 14/14/14 10/10/10
f 16/16/16 15/15/15 13/13/13
f 16/16/16 13/13/13 17/17/17
f 18/18/18 17/17/17 13/13/13
f 19/19/19 16/16/16 17/17/17
f 22/22/22 21/21/21 20/20/20
f 22/22/22 23/23/23 21/21/21
f 24/24/24 23/23/23 22/22/22
f 22/22/22 25/25/25 24/24/24
f 26/26/26 25/25/25 22/22/22
f 27/27/27 22/22/22 20/20/20
f 26/26/26 22/22/22 27/27/27
f 24/24/24 28/28/28 23/23/23
f 24/24/24 29/29/29 28/28/28
f 25/25/25 29/29/29 24/24/24
f 29/29/29 30/30/30 28/28/28
f 30/30/30 31/31/31 28/28/28
f 32/32/32 30/30/30 29/29/29
f 25/25/25 33/33/33 29/29/29
f 29/29/29 34/34/34 32/32/32
f 33/33/33 34/34/34 29/29/29
f 34/34/34 35/35/35 32/32/32
f 32/32/32 35/35/35 36/36/36
f 36/36/36 37/37/37 32/32/32
f 35/35/35 38/38/38 36/36/36
f 41/41/41 40/40/40 39/39/39
f 42/42/42 41/41/41 39/39/39
f 43/43/43 41/41/41 42/42/42
f 44/44/44 43/43/43 42/42/42
f 47/47/47 46/46/46 45/45/45
f 48/48/48 47/47/47 45/45/45
f 49/49/49 47/47/47 48/48/48
f 50/50/50 49/49/49 48/48/48
f 53/53/53 52/52/52 51/51/51
f 54/54/54 53/53/53 51/51/51
f 57/57/57 56/56/56 55/55/55
f 58/58/58 57/57/57 55/55/55
f 61/61/61 60/60/60 59/59/59
f 62/62/62 61/61/61 59/59/59
f 65/65/65 64/64/64 63/63/63
f 66/66/66 65/65/65 63/63/63
f 67/67/67 65/65/65 66/66/66
f 68/68/68 67/67/67 66/66/66
f 71/71/71 70/70/70 69/69/69
f 72/72/72 71/71/71 69/69/69
f 75/75/75 74/74/74 73/73/73
f 76/76/76 75/75/75 73/73/73
f 73/73/73 74/74/74 77/77/77
f 74/74/74 78/78/78 77/77/77
f 81/81/81 80/80/80 79/79/79
f 82/82/82 81/81/81 79/79/79
f 85/85/85 84/84/84 83/83/83
f 86/86/86 85/85/85 83/83/83
f 89/89/89 88/88/88 87/87/87
f 90/90/90 89/89/89 87/87/87
f 93/93/93 92/92/92 91/91/91
f 94/94/94 93/93/93 91/91/91
