g shard98
v -0.06539504 0.09423524 0.048484027
v -0.06041424 0.10630074 0.033342183
v 0.009903833 0.081723005 0.03916499
v 0.0031931251 0.07033679 0.054101557
v -0.089601025 0.028817356 -0.009137481
v -0.084794395 0.039262906 -0.025409669
v -0.06041424 0.10630074 0.033342183
v -0.06539504 0.09423524 0.048484027
v -0.07628574 -0.027398169 -0.03460139
v -0.0710334 -0.019924477 -0.052319944
v -0.084794395 0.039262906 -0.025409669
v -0.089601025 0.028817356 -0.009137481
v 0.0031931251 0.07033679 0.054101557
v 0.009903833 0.081723005 0.03916499
v 0.06493576 0.0010318756 0.011589229
v 0.056758672 -0.007960439 0.02737391
v 0.089601025 -0.042094648 0.004615277
v 0.08123851 -0.048911065 0.021442771
v 0.08123851 -0.048911065 0.021442771
v 0.089601025 -0.042094648 0.004615277
v 0.012085944 -0.100207485 -0.054101527
v 0.005235359 -0.10630076 -0.03639847
v 0.005235359 -0.10630076 -0.03639847
v 0.012085944 -0.100207485 -0.054101527
v -0.0710334 -0.019924477 -0.052319944
v -0.07628574 -0.027398169 -0.03460139
v -0.003377542 -0.018951252 -0.032115877
v 0.012085944 -0.100207485 -0.054101527
v 0.089601025 -0.042094648 0.004615277
v 0.06493576 0.0010318756 0.011589229
v -0.0710334 -0.019924477 -0.052319944
v -0.019514412 0.04142192 -0.0047800243
v 0.009903833 0.081723005 0.03916499
v -0.084794395 0.039262906 -0.025409669
v -0.06041424 0.10630074 0.033342183
v -0.01001665 -0.026579857 -0.014861137
v 0.08123851 -0.048911065 0.021442771
v 0.005235359 -0.10630076 -0.03639847
v 0.056758672 -0.007960439 0.02737391
v -0.07628574 -0.027398169 -0.03460139
v -0.025570199 0.03087911 0.011100054
v 0.0031931251 0.07033679 0.054101557
v -0.089601025 0.028817356 -0.009137481
v -0.06539504 0.09423524 0.048484027
vt 0.53125 0.5
vt 0.53125 0.5
vt 0.5625 0.5
vt 0.5625 0.5
vt 0.53125 0.53125
vt 0.53125 0.53125
vt 0.53125 0.5
vt 0.53125 0.5
vt 0.53125 0.5625
vt 0.53125 0.5625
vt 0.53125 0.53125
vt 0.53125 0.53125
vt 0.5625 0.5
vt 0.5625 0.5
vt 0.59375 0.53125
vt 0.59375 0.53125
vt 0.59375 0.5625
vt 0.59375 0.5625
vt 0.59375 0.5625
vt 0.59375 0.5625
vt 0.5625 0.59375
vt 0.5625 0.59375
vt 0.5625 0.59375
vt 0.5625 0.59375
vt 0.53125 0.5625
vt 0.53125 0.5625
vt 0.5625 0.5625
vt 0.5625 0.59375
vt 0.59375 0.5625
vt 0.59375 0.53125
vt 0.53125 0.5625
vt 0.5625 0.53125
vt 0.5625 0.5
vt 0.53125 0.53125
vt 0.53125 0.5
vt 0.5625 0.5625
vt 0.59375 0.5625
vt 0.5625 0.59375
vt 0.59375 0.53125
vt 0.53125 0.5625
vt 0.5625 0.53125
vt 0.5625 0.5
vt 0.53125 0.53125
vt 0.53125 0.5
vn 0.20217364 0.7326826 0.64984775
vn 0.20217364 0.7326826 0.6498477
vn 0.20217365 0.7326825 0.6498478
vn 0.20217364 0.7326826 0.64984775
vn -0.9303236 0.36568397 -0.027807796
vn -0.9303236 0.3656839 -0.027807795
vn -0.9303236 0.365684 -0.027807796
vn -0.9303236 0.36568397 -0.027807796
vn -0.94440174 -0.07645003 -0.31978214
vn -0.94440174 -0.07645003 -0.31978214
vn -0.94440174 -0.07645003 -0.31978217
vn -0.94440174 -0.076450035 -0.31978217
vn 0.7532477 0.31782186 0.57585347
vn 0.7532477 0.31782183 0.57585347
vn 0.75331396 0.3301964 0.56876045
vn 0.75331396 0.33017212 0.5687745
vn 0.75297743 0.3550972 0.55401355
vn 0.75297743 0.35509723 0.55401355
vn 0.61311275 -0.78959703 -0.025082463
vn 0.61311275 -0.78959703 -0.025082463
vn 0.61311275 -0.78959703 -0.025082463
vn 0.61311275 -0.78959703 -0.025082463
vn -0.62365115 -0.63476574 -0.45621443
vn -0.6236512 -0.63476574 -0.45621446
vn -0.62365115 -0.63476574 -0.45621446
vn -0.62365115 -0.63476574 -0.45621446
vn 0.33953527 0.3708042 -0.8644189
vn 0.37110758 0.30768105 -0.87613446
vn 0.41704166 0.33370537 -0.84540933
vn 0.4032199 0.4415496 -0.8015283
vn 0.25976938 0.39250255 -0.8823048
vn 0.3077358 0.5282005 -0.791393
vn 0.34067506 0.56814927 -0.74909735
vn 0.2419106 0.5190209 -0.8198149
vn 0.24852556 0.60237914 -0.7585344
vn -0.34008247 -0.36960912 0.86471564
vn -0.41770464 -0.33194995 0.84577304
vn -0.37188926 -0.30774873 0.8757791
vn -0.40369514 -0.44058788 0.8018183
vn -0.26010036 -0.39142457 0.88268596
vn -0.30731377 -0.52932405 0.7908061
vn -0.3398304 -0.5686529 0.7490989
vn -0.24204293 -0.5204934 0.81884176
vn -0.24803612 -0.6032023 0.75804037
g shard98_0
f 3/3/3 2/2/2 1/1/1
f 4/4/4 3/3/3 1/1/1
f 7/7/7 6/6/6 5/5/5
f 8/8/8 7/7/7 5/5/5
f 11/11/11 10/10/10 9/9/9
f 12/12/12 11/11/11 9/9/9
f 15/15/15 14/14/14 13/13/13
f 16/16/16 15/15/15 13/13/13
f 17/17/17 15/15/15 16/16/16
f 18/18/18 17/17/17 16/16/16
f 21/21/21 20/20/20 19/19/19
f 22/22/22 21/21/21 19/19/19
f 25/25/25 24/24/24 23/23/23
f 26/26/26 25/25/25 23/23/23
f 29/29/29 28/28/28 27/27/27
f 30/30/30 29/29/29 27/27/27
f 28/28/28 31/31/31 27/27/27
f 30/30/30 27/27/27 32/32/32
f 32/32/32 27/27/27 31/31/31
f 30/30/30 32/32/32 33/33/33
f 32/32/32 31/31/31 34/34/34
f 32/32/32 35/35/35 33/33/33
f 32/32/32 34/34/34 35/35/35
f 38/38/38 37/37/37 36/36/36
f 37/37/37 39/39/39 36/36/36
f 40/40/40 38/38/38 36/36/36
f 36/36/36 39/39/39 41/41/41
f 36/36/36 41/41/41 40/40/40
f 41/41/41 39/39/39 42/42/42
f 40/40/40 41/41/41 43/43/43
f 44/44/44 41/41/41 42/42/42
f 43/43/43 41/41/41 44/44/44
