g shard102
v -0.10014673 -0.04462135 -0.118599914
v -0.09851236 -0.064466596 -0.11676361
v -0.024255395 -0.056623876 -0.109951764
v -0.02793108 -0.037127316 -0.11171173
v -0.12747891 -0.03838399 -0.04033809
v -0.12616044 -0.057947725 -0.036728248
v -0.09851236 -0.064466596 -0.11676361
v -0.10014673 -0.04462135 -0.118599914
v -0.02793108 -0.037127316 -0.11171173
v -0.024255395 -0.056623876 -0.109951764
v 0.05508417 -0.025956064 -0.029849164
v 0.048095793 -0.007711202 -0.033378206
v -0.051106088 -0.013124347 0.035172448
v -0.12616044 -0.057947725 -0.036728248
v -0.12747891 -0.03838399 -0.04033809
v -0.04799676 -0.03154251 0.04185617
v 0.025062934 0.04346466 0.11033884
v 0.031420514 0.026463807 0.11859992
v 0.048095793 -0.007711202 -0.033378206
v 0.05508417 -0.025956064 -0.029849164
v 0.11747663 0.0046927333 -0.028960168
v 0.10862994 0.021701485 -0.034614973
v 0.10862994 0.021701485 -0.034614973
v 0.11747663 0.0046927333 -0.028960168
v 0.12747891 0.03808278 0.046579525
v 0.11861125 0.054630846 0.03972821
v 0.11861125 0.054630846 0.03972821
v 0.12747891 0.03808278 0.046579525
v 0.11022943 0.04803434 0.0878661
v 0.1020582 0.064466596 0.079935
v 0.1020582 0.064466596 0.079935
v 0.11022943 0.04803434 0.0878661
v 0.031420514 0.026463807 0.11859992
v 0.025062934 0.04346466 0.11033884
v 0.050563127 -0.012419343 0.023801923
v 0.031420514 0.026463807 0.11859992
v 0.11022943 0.04803434 0.0878661
v 0.12747891 0.03808278 0.046579525
v 0.11747663 0.0046927333 -0.028960168
v -0.04799676 -0.03154251 0.04185617
v 0.05508417 -0.025956064 -0.029849164
v -0.03157898 -0.05125314 -0.035231635
v -0.12616044 -0.057947725 -0.036728248
v -0.024255395 -0.056623876 -0.109951764
v -0.09851236 -0.064466596 -0.11676361
v 0.043765575 0.005169064 0.017135486
v 0.1020582 0.064466596 0.079935
v 0.025062934 0.04346466 0.11033884
v 0.11861125 0.054630846 0.03972821
v 0.10862994 0.021701485 -0.034614973
v -0.051106088 -0.013124347 0.035172448
v 0.048095793 -0.007711202 -0.033378206
v -0.034944303 -0.03187126 -0.038839646
v -0.12747891 -0.03838399 -0.04033809
v -0.02793108 -0.037127316 -0.11171173
v -0.10014673 -0.04462135 -0.118599914
vt 0.5 0.875
vt 0.5 0.875
vt 0.53125 0.875
vt 0.53125 0.875
vt 0.5 0.90625
vt 0.5 0.90625
vt 0.5 0.875
vt 0.5 0.875
vt 0.53125 0.875
vt 0.53125 0.875
vt 0.5625 0.90625
vt 0.5625 0.90625
vt 0.53125 0.9375
vt 0.5 0.90625
vt 0.5 0.90625
vt 0.53125 0.9375
vt 0.5625 0.96875
vt 0.5625 0.96875
vt 0.5625 0.90625
vt 0.5625 0.90625
vt 0.59375 0.90625
vt 0.59375 0.90625
vt 0.59375 0.90625
vt 0.59375 0.90625
vt 0.59375 0.9375
vt 0.59375 0.9375
vt 0.59375 0.9375
vt 0.59375 0.9375
vt 0.59375 0.96875
vt 0.59375 0.96875
vt 0.59375 0.96875
vt 0.59375 0.96875
vt 0.5625 0.96875
vt 0.5625 0.96875
vt 0.5625 0.9375
vt 0.5625 0.96875
vt 0.59375 0.96875
vt 0.59375 0.9375
vt 0.59375 0.90625
vt 0.53125 0.9375
vt 0.5625 0.90625
vt 0.53125 0.90625
vt 0.5 0.90625
vt 0.53125 0.875
vt 0.5 0.875
vt 0.5625 0.9375
vt 0.59375 0.96875
vt 0.5625 0.96875
vt 0.59375 0.9375
vt 0.59375 0.90625
vt 0.53125 0.9375
vt 0.5625 0.90625
vt 0.53125 0.90625
vt 0.5 0.90625
vt 0.53125 0.875
vt 0.5 0.875
vn 0.100845285 -0.077060506 -0.9919132
vn 0.10084529 -0.077060506 -0.9919132
vn 0.10084529 -0.077060506 -0.9919132
vn 0.100845285 -0.077060506 -0.9919132
vn -0.94126076 -0.11443195 -0.31770027
vn -0.9412609 -0.11443197 -0.31770027
vn -0.9412609 -0.11443197 -0.31770027
vn -0.9412609 -0.11443197 -0.31770027
vn 0.6924029 0.09541942 -0.7151737
vn 0.69240284 0.09541943 -0.7151737
vn 0.6924029 0.09541943 -0.7151737
vn 0.69240284 0.09541943 -0.7151737
vn -0.7245578 0.096526936 0.682421
vn -0.7193357 0.10234996 0.6870813
vn -0.71933573 0.10234995 0.68708116
vn -0.72455853 0.09652625 0.6824205
vn -0.7292719 0.0912051 0.6781181
vn -0.7292719 0.0912051 0.6781181
vn 0.09929 -0.20884815 -0.97289467
vn 0.09928999 -0.20884812 -0.97289467
vn 0.09929 -0.20884815 -0.97289467
vn 0.09928999 -0.20884815 -0.97289467
vn 0.8881538 0.3645937 -0.27973953
vn 0.88815385 0.36459368 -0.27973953
vn 0.8881538 0.3645937 -0.2797395
vn 0.88815385 0.36459368 -0.27973953
vn 0.8249151 0.52266544 0.21525776
vn 0.8249151 0.52266544 0.21525773
vn 0.8249151 0.52266544 0.21525776
vn 0.8249151 0.52266544 0.21525776
vn 0.19670114 0.4952905 0.8461655
vn 0.19670112 0.4952905 0.8461655
vn 0.19670114 0.4952905 0.8461655
vn 0.19670112 0.4952905 0.8461655
vn 0.3240515 -0.87917393 0.34934762
vn 0.31908998 -0.8524727 0.41409153
vn 0.4011561 -0.82272387 0.40273964
vn 0.4423664 -0.82854736 0.34325102
vn 0.4484365 -0.8437022 0.29507852
vn 0.19234559 -0.925706 0.32568628
vn 0.31475487 -0.92414457 0.2165324
vn 0.1657499 -0.9686434 0.1850863
vn 0.06706666 -0.9841807 0.1639833
vn 0.1692297 -0.98171586 0.0871506
vn 0.079033464 -0.992246 0.0959258
vn -0.32610515 0.87788385 -0.35067844
vn -0.40195295 0.8221231 -0.40317163
vn -0.32140332 0.85147697 -0.4143511
vn -0.4434961 0.82791626 -0.34331605
vn -0.45082557 0.84208673 -0.29605117
vn -0.19273084 0.9255246 -0.325974
vn -0.31531802 0.9237084 -0.21757123
vn -0.16438898 0.96917814 -0.18349367
vn -0.06669052 0.98465735 -0.16125248
vn -0.16616815 0.98226625 -0.08684012
vn -0.077946745 0.9924281 -0.094924815
g shard102_0
f 3/3/3 2/2/2 1/1/1
f 4/4/4 3/3/3 1/1/1
f 7/7/7 6/6/6 5/5/5
f 8/8/8 7/7/7 5/5/5
f 11/11/11 10/10/10 9/9/9
f 12/12/12 11/11/11 9/9/9
f 15/15/15 14/14/14 13/13/13
f 14/14/14 16/16/16 13/13/13
f 13/13/13 16/16/16 17/17/17
f 16/16/16 18/18/18 17/17/17
f 21/21/21 20/20/20 19/19/19
f 22/22/22 21/21/21 19/19/19
f 25/25/25 24/24/24 23/23/23
f 26/26/26 25/25/25 23/23/23
f 29/29/29 28/28/28 27/27/27
f 30/30/30 29/29/29 27/27/27
f 33/33/33 32/32/32 31/31/31
f 34/34/34 33/33/33 31/31/31
f 37/37/37 36/36/36 35/35/35
f 37/37/37 35/35/35 38/38/38
f 39/39/39 38/38/38 35/35/35
f 36/36/36 40/40/40 35/35/35
f 39/39/39 35/35/35 41/41/41
f 35/35/35 40/40/40 42/42/42
f 35/35/35 42/42/42 41/41/41
f 40/40/40 43/43/43 42/42/42
f 41/41/41 42/42/42 44/44/44
f 42/42/42 43/43/43 45/45/45
f 42/42/42 45/45/45 44/44/44
f 48/48/48 47/47/47 46/46/46
f 46/46/46 47/47/47 49/49/49
f 49/49/49 50/50/50 46/46/46
f 51/51/51 48/48/48 46/46/46
f 46/46/46 50/50/50 52/52/52
f 51/51/51 46/46/46 53/53/53
f 53/53/53 46/46/46 52/52/52
f 54/54/54 51/51/51 53/53/53
f 53/53/53 52/52/52 55/55/55
f 54/54/54 53/53/53 56/56/56
f 56/56/56 53/53/53 55/55/55
