g shard105
v -0.09180623 -0.038207203 0.11215246
v -0.091668755 -0.014907837 0.043474976
v 0.005109638 0.010281831 0.1214145
v 0.010833293 0.031279773 0.049737085
v -0.019642875 0.029094517 -0.052681006
v 0.068533026 0.05510369 -0.030648943
v -0.014016956 0.024787396 -0.1214145
v 0.08670909 0.051511556 -0.12080732
v -0.08279441 -0.05510369 0.10638219
v 0.01373975 -0.0069862604 0.11624883
v -0.083026335 -0.032399356 0.039536934
v 0.017928153 0.012935609 0.046776455
v -0.012906492 0.010433644 -0.052872233
v 0.074052244 0.035952747 -0.030416563
v -0.008868501 0.0055431724 -0.11964035
v 0.091806225 0.032258302 -0.11898239
v -0.08279441 -0.05510369 0.10638219
v -0.09180623 -0.038207203 0.11215246
v 0.005109638 0.010281831 0.1214145
v 0.01373975 -0.0069862604 0.11624883
v -0.083026335 -0.032399356 0.039536934
v -0.091668755 -0.014907837 0.043474976
v -0.09180623 -0.038207203 0.11215246
v -0.08279441 -0.05510369 0.10638219
v 0.01373975 -0.0069862604 0.11624883
v 0.005109638 0.010281831 0.1214145
v 0.010833293 0.031279773 0.049737085
v 0.017928153 0.012935609 0.046776455
v 0.068533026 0.05510369 -0.030648943
v 0.074052244 0.035952747 -0.030416563
v 0.08670909 0.051511556 -0.12080732
v 0.091806225 0.032258302 -0.11898239
v -0.012906492 0.010433644 -0.052872233
v -0.019642875 0.029094517 -0.052681006
v -0.091668755 -0.014907837 0.043474976
v -0.083026335 -0.032399356 0.039536934
v -0.008868501 0.0055431724 -0.11964035
v -0.014016956 0.024787396 -0.1214145
v -0.019642875 0.029094517 -0.052681006
v -0.012906492 0.010433644 -0.052872233
v 0.091806225 0.032258302 -0.11898239
v 0.08670909 0.051511556 -0.12080732
v -0.014016956 0.024787396 -0.1214145
v -0.008868501 0.0055431724 -0.11964035
vt 0.40625 0.3125
vt 0.40625 0.34375
vt 0.4375 0.3125
vt 0.4375 0.34375
vt 0.4375 0.375
vt 0.46875 0.375
vt 0.4375 0.40625
vt 0.46875 0.40625
vt 0.40625 0.3125
vt 0.4375 0.3125
vt 0.40625 0.34375
vt 0.4375 0.34375
vt 0.4375 0.375
vt 0.46875 0.375
vt 0.4375 0.40625
vt 0.46875 0.40625
vt 0.40625 0.3125
vt 0.40625 0.3125
vt 0.4375 0.3125
vt 0.4375 0.3125
vt 0.40625 0.34375
vt 0.40625 0.34375
vt 0.40625 0.3125
vt 0.40625 0.3125
vt 0.4375 0.3125
vt 0.4375 0.3125
vt 0.4375 0.34375
vt 0.4375 0.34375
vt 0.46875 0.375
vt 0.46875 0.375
vt 0.46875 0.40625
vt 0.46875 0.40625
vt 0.4375 0.375
vt 0.4375 0.375
vt 0.40625 0.34375
vt 0.40625 0.34375
vt 0.4375 0.40625
vt 0.4375 0.40625
vt 0.4375 0.375
vt 0.4375 0.375
vt 0.46875 0.40625
vt 0.46875 0.40625
vt 0.4375 0.40625
vt 0.4375 0.40625
vn -0.45047286 0.8457344 0.28602016
vn -0.42749706 0.8830412 0.19360925
vn -0.42542782 0.8706726 0.24686149
vn -0.38678187 0.91171813 0.13845526
vn -0.3286154 0.9440507 0.027929582
vn -0.27624717 0.96091366 -0.018235413
vn -0.25830603 0.96218723 -0.08645118
vn -0.2549026 0.96279275 -0.08974879
vn 0.45059106 -0.8448245 -0.28851226
vn 0.42599666 -0.8697155 -0.24924244
vn 0.4278776 -0.88235277 -0.19589396
vn 0.3864412 -0.9115698 -0.14037006
vn 0.32762808 -0.9444375 -0.026412556
vn 0.2751436 -0.9611868 0.02039491
vn 0.2569428 -0.9623028 0.08918388
vn 0.25485694 -0.9626641 0.091245525
vn 0.04643875 -0.28269842 0.958084
vn 0.046438757 -0.28269845 0.9580841
vn 0.046438757 -0.28269845 0.9580841
vn 0.046438757 -0.28269842 0.9580841
vn -0.8963161 -0.42007348 -0.14197086
vn -0.8963161 -0.42007345 -0.14197083
vn -0.8963161 -0.42007348 -0.14197083
vn -0.8963161 -0.4200735 -0.14197084
vn 0.9152083 0.3652896 0.17016803
vn 0.9152083 0.36528963 0.17016804
vn 0.8528832 0.28588584 0.4368746
vn 0.8520726 0.28512654 0.43894786
vn 0.87445706 0.24703036 0.4174937
vn 0.8747548 0.24712615 0.41681254
vn 0.9457632 0.27103797 0.17908247
vn 0.9457632 0.27103794 0.17908245
vn -0.7220678 -0.23274642 -0.6514962
vn -0.72206783 -0.2327464 -0.6514961
vn -0.7220678 -0.2327464 -0.6514961
vn -0.7220678 -0.2327464 -0.6514961
vn -0.9525498 -0.30064917 -0.04752791
vn -0.9525498 -0.30064917 -0.047527917
vn -0.9525498 -0.30064917 -0.04752791
vn -0.9525498 -0.3006492 -0.047527913
vn 0.028918963 -0.08541138 -0.995926
vn 0.028918961 -0.08541138 -0.995926
vn 0.028918963 -0.085411385 -0.995926
vn 0.028918963 -0.08541138 -0.995926
g shard105_0
f 3/3/3 2/2/2 1/1/1
f 3/3/3 4/4/4 2/2/2
f 5/5/5 2/2/2 4/4/4
f 6/6/6 5/5/5 4/4/4
f 6/6/6 7/7/7 5/5/5
f 6/6/6 8/8/8 7/7/7
f 11/11/11 10/10/10 9/9/9
f 12/12/12 10/10/10 11/11/11
f 11/11/11 13/13/13 12/12/12
f 13/13/13 14/14/14 12/12/12
f 15/15/15 14/14/14 13/13/13
f 16/16/16 14/14/14 15/15/15
f 19/19/19 18/18/18 17/17/17
f 20/20/20 19/19/19 17/17/17
f 23/23/23 22/22/22 21/21/21
f 24/24/24 23/23/23 21/21/21
f 27/27/27 26/26/26 25/25/25
f 28/28/28 27/27/27 25/25/25
f 29/29/29 27/27/27 28/28/28
f 30/30/30 29/29/29 28/28/28
f 31/31/31 29/29/29 30/30/30
f 32/32/32 31/31/31 30/30/30
f 35/35/35 34/34/34 33/33/33
f 36/36/36 35/35/35 33/33/33
f 39/39/39 38/38/38 37/37/37
f 40/40/40 39/39/39 37/37/37
f 43/43/43 42/42/42 41/41/41
f 44/44/44 43/43/43 41/41/41
