g shard61
v -0.067435965 0.02942197 0.04675865
v -0.093131974 0.1180875 -0.023535937
v -0.010175571 0.09879714 -0.011308551
v 0.0029351264 0.027961925 0.039713085
v 0.070959054 0.08205187 -0.024116993
v 0.009399563 -0.028464273 0.06556401
v -0.06766578 -0.035220116 0.07810053
v -0.1575729 -0.044623166 0.0756838
v 0.0036850497 -0.13052559 0.09657928
v 0.06527471 0.022464782 0.023545712
v 0.06505536 -0.06297661 0.062404424
v 0.08229945 -0.110457905 0.07088417
v 0.1575729 -0.059001192 0.018644035
v 0.143329 0.02997534 -0.024361014
v 0.12977552 0.07129204 -0.049791306
v 0.061375313 0.13588649 -0.08513321
v -0.06698699 0.01878196 0.030013114
v -0.012883484 0.086559504 -0.026743263
v -0.09370518 0.10552332 -0.039086252
v -0.0006291792 0.017718524 0.022909254
v 0.06468848 0.068855464 -0.037499577
v 0.0055138245 -0.035713613 0.047333598
v -0.06825984 -0.042386353 0.05962512
v -0.15610176 -0.053339005 0.057743043
v -4.2296946E-05 -0.13588649 0.07770753
v 0.058608197 0.01269646 0.007416934
v 0.05881945 -0.06941505 0.044525385
v 0.075935654 -0.1160155 0.052843332
v 0.14924362 -0.06648295 0.0021647215
v 0.13480175 0.019799903 -0.039250374
v 0.12176221 0.0583525 -0.0625985
v 0.053676777 0.12140477 -0.0965793
v -4.2296946E-05 -0.13588649 0.07770753
v 0.0036850497 -0.13052559 0.09657928
v 0.08229945 -0.110457905 0.07088417
v 0.075935654 -0.1160155 0.052843332
v 0.1575729 -0.059001192 0.018644035
v 0.14924362 -0.06648295 0.0021647215
v -0.06825984 -0.042386353 0.05962512
v -0.06766578 -0.035220116 0.07810053
v 0.0036850497 -0.13052559 0.09657928
v -4.2296946E-05 -0.13588649 0.07770753
v 0.14924362 -0.06648295 0.0021647215
v 0.1575729 -0.059001192 0.018644035
v 0.143329 0.02997534 -0.024361014
v 0.13480175 0.019799903 -0.039250374
v 0.12977552 0.07129204 -0.049791306
v 0.12176221 0.0583525 -0.0625985
v 0.061375313 0.13588649 -0.08513321
v 0.053676777 0.12140477 -0.0965793
v 0.06468848 0.068855464 -0.037499577
v 0.070959054 0.08205187 -0.024116993
v -0.010175571 0.09879714 -0.011308551
v -0.012883484 0.086559504 -0.026743263
v -0.093131974 0.1180875 -0.023535937
v -0.09370518 0.10552332 -0.039086252
v -0.09370518 0.10552332 -0.039086252
v -0.093131974 0.1180875 -0.023535937
v -0.067435965 0.02942197 0.04675865
v -0.06698699 0.01878196 0.030013114
v -0.06698699 0.01878196 0.030013114
v -0.067435965 0.02942197 0.04675865
v -0.1575729 -0.044623166 0.0756838
v -0.15610176 -0.053339005 0.057743043
v -0.15610176 -0.053339005 0.057743043
v -0.1575729 -0.044623166 0.0756838
v -0.06766578 -0.035220116 0.07810053
v -0.06825984 -0.042386353 0.05962512
v 0.053676777 0.12140477 -0.0965793
v 0.061375313 0.13588649 -0.08513321
v 0.070959054 0.08205187 -0.024116993
v 0.06468848 0.068855464 -0.037499577
vt 0.5 0.21875
vt 0.5 0.25
vt 0.53125 0.25
vt 0.53125 0.21875
vt 0.5625 0.25
vt 0.53125 0.1875
vt 0.5 0.1875
vt 0.46875 0.1875
vt 0.53125 0.15625
vt 0.5625 0.21875
vt 0.5625 0.1875
vt 0.5625 0.15625
vt 0.59375 0.1875
vt 0.59375 0.21875
vt 0.59375 0.25
vt 0.5625 0.28125
vt 0.5 0.21875
vt 0.53125 0.25
vt 0.5 0.25
vt 0.53125 0.21875
vt 0.5625 0.25
vt 0.53125 0.1875
vt 0.5 0.1875
vt 0.46875 0.1875
vt 0.53125 0.15625
vt 0.5625 0.21875
vt 0.5625 0.1875
vt 0.5625 0.15625
vt 0.59375 0.1875
vt 0.59375 0.21875
vt 0.59375 0.25
vt 0.5625 0.28125
vt 0.53125 0.15625
vt 0.53125 0.15625
vt 0.5625 0.15625
vt 0.5625 0.15625
vt 0.59375 0.1875
vt 0.59375 0.1875
vt 0.5 0.1875
vt 0.5 0.1875
vt 0.53125 0.15625
vt 0.53125 0.15625
vt 0.59375 0.1875
vt 0.59375 0.1875
vt 0.59375 0.21875
vt 0.59375 0.21875
vt 0.59375 0.25
vt 0.59375 0.25
vt 0.5625 0.28125
vt 0.5625 0.28125
vt 0.5625 0.25
vt 0.5625 0.25
vt 0.53125 0.25
vt 0.53125 0.25
vt 0.5 0.25
vt 0.5 0.25
vt 0.5 0.25
vt 0.5 0.25
vt 0.5 0.21875
vt 0.5 0.21875
vt 0.5 0.21875
vt 0.5 0.21875
vt 0.46875 0.1875
vt 0.46875 0.1875
vt 0.46875 0.1875
vt 0.46875 0.1875
vt 0.5 0.1875
vt 0.5 0.1875
vt 0.5625 0.28125
vt 0.5625 0.28125
vt 0.5625 0.25
vt 0.5625 0.25
vn 0.04672279 0.5233577 0.8508312
vn 0.030867575 0.62643343 0.7788635
vn 0.124087095 0.6120031 0.7810599
vn 0.1744694 0.5286161 0.8307378
vn 0.3424764 0.6230397 0.70322925
vn 0.18654917 0.34912857 0.9183184
vn 0.045548975 0.38858747 0.92028534
vn -0.06966453 0.4354171 0.8975293
vn 0.18280943 0.27351233 0.9443367
vn 0.3521766 0.47706556 0.80522054
vn 0.32062382 0.33121604 0.88740987
vn 0.3197931 0.2779116 0.90581316
vn 0.40753928 0.3980915 0.82184845
vn 0.4241084 0.4909187 0.7610064
vn 0.40161377 0.6457101 0.6494341
vn 0.3835983 0.72155523 0.576377
vn -0.046860166 -0.524869 -0.84989214
vn -0.120626085 -0.6131565 -0.78069735
vn -0.028659979 -0.6282086 -0.77751696
vn -0.17566724 -0.5290479 -0.83021045
vn -0.34369323 -0.6235839 -0.7021524
vn -0.18827583 -0.34716508 -0.91871035
vn -0.045037806 -0.38686052 -0.92103773
vn 0.07355681 -0.43579224 -0.8970365
vn -0.18418394 -0.27292985 -0.9442381
vn -0.3536997 -0.4746244 -0.8059952
vn -0.32042652 -0.3306831 -0.88767993
vn -0.31912515 -0.27888545 -0.9057494
vn -0.40785626 -0.39817473 -0.8216509
vn -0.42548212 -0.48839295 -0.76186436
vn -0.4035 -0.6473139 -0.64666265
vn -0.38492724 -0.7240859 -0.5723029
vn 0.30408287 -0.9329269 0.19282402
vn 0.30408284 -0.9329269 0.19282405
vn 0.4672373 -0.8761671 0.11840812
vn 0.46695408 -0.8762992 0.11854799
vn 0.5871302 -0.8076112 0.05515574
vn 0.58713025 -0.8076112 0.055155743
vn -0.79817307 -0.5372435 0.27256045
vn -0.79817307 -0.5372434 0.27256042
vn -0.79817307 -0.53724355 0.27256042
vn -0.79817307 -0.53724355 0.27256045
vn 0.894122 -0.06694066 -0.44279215
vn 0.894122 -0.06694065 -0.44279212
vn 0.8851584 -0.050874177 -0.46250027
vn 0.88515455 -0.050867554 -0.46250826
vn 0.7217117 0.18716224 -0.66641027
vn 0.7230558 0.18565355 -0.6653745
vn 0.6298225 0.27995276 -0.7245344
vn 0.6298225 0.2799527 -0.7245344
vn 0.060746025 0.7388973 -0.6710744
vn 0.060746018 0.7388973 -0.6710744
vn 0.16645886 0.7429832 -0.6482804
vn 0.166185 0.7429839 -0.6483498
vn 0.2654902 0.7387721 -0.61946005
vn 0.2654902 0.7387721 -0.61946005
vn -0.9736791 -0.18330878 0.13545057
vn -0.9736791 -0.18330881 0.13545059
vn -0.9736791 -0.18330878 0.13545059
vn -0.9736791 -0.1833088 0.13545059
vn -0.65216136 0.64605147 -0.39661455
vn -0.65216136 0.6460514 -0.39661455
vn -0.65216136 0.64605147 -0.39661458
vn -0.65216136 0.6460514 -0.39661455
vn 0.094731554 -0.91165864 0.39988044
vn 0.09473155 -0.91165864 0.39988044
vn 0.09473155 -0.91165864 0.39988047
vn 0.09473154 -0.91165864 0.3998804
vn -0.92966986 0.18175663 0.320435
vn -0.92966986 0.18175665 0.32043496
vn -0.92966986 0.18175668 0.32043502
vn -0.92966986 0.18175663 0.320435
g shard61_0
f 3/3/3 2/2/2 1/1/1
f 3/3/3 1/1/1 4/4/4
f 5/5/5 3/3/3 4/4/4
f 6/6/6 4/4/4 1/1/1
f 6/6/6 1/1/1 7/7/7
f 1/1/1 8/8/8 7/7/7
f 9/9/9 6/6/6 7/7/7
f 10/10/10 4/4/4 6/6/6
f 5/5/5 4/4/4 10/10/10
f 11/11/11 6/6/6 9/9/9
f 10/10/10 6/6/6 11/11/11
f 11/11/11 9/9/9 12/12/12
f 13/13/13 11/11/11 12/12/12
f 13/13/13 10/10/10 11/11/11
f 13/13/13 14/14/14 10/10/10
f 14/14/14 5/5/5 10/10/10
f 14/14/14 15/15/15 5/5/5
f 15/15/15 16/16/16 5/5/5
f 19/19/19 18/18/18 17/17/17
f 17/17/17 18/18/18 20/20/20
f 18/18/18 21/21/21 20/20/20
f 20/20/20 22/22/22 17/17/17
f 17/17/17 22/22/22 23/23/23
f 24/24/24 17/17/17 23/23/23
f 22/22/22 25/25/25 23/23/23
f 20/20/20 26/26/26 22/22/22
f 20/20/20 21/21/21 26/26/26
f 22/22/22 27/27/27 25/25/25
f 22/22/22 26/26/26 27/27/27
f 25/25/25 27/27/27 28/28/28
f 27/27/27 29/29/29 28/28/28
f 26/26/26 29/29/29 27/27/27
f 30/30/30 29/29/29 26/26/26
f 21/21/21 30/30/30 26/26/26
f 31/31/31 30/30/30 21/21/21
f 32/32/32 31/31/31 21/21/21
f 35/35/35 34/34/34 33/33/33
f 36/36/36 35/35/35 33/33/33
f 37/37/37 35/35/35 36/36/36
f 38/38/38 37/37/37 36/36/36
f 41/41/41 40/40/40 39/39/39
f 42/42/42 41/41/41 39/39/39
f 45/45/45 44/44/44 43/43/43
f 46/46/46 45/45/45 43/43/43
f 47/47/47 45/45/45 46/46/46
f 48/48/48 47/47/47 46/46/46
f 49/49/49 47/47/47 48/48/48
f 50/50/50 49/49/49 48/48/48
f 53/53/53 52/52/52 51/51/51
f 54/54/54 53/53/53 51/51/51
f 55/55/55 53/53/53 54/54/54
f 56/56/56 55/55/55 54/54/54
f 59/59/59 58/58/58 57/57/57
f 60/60/60 59/59/59 57/57/57
f 63/63/63 62/62/62 61/61/61
f 64/64/64 63/63/63 61/61/61
f 67/67/67 66/66/66 65/65/65
f 68/68/68 67/67/67 65/65/65
f 71/71/71 70/70/70 69/69/69
f 72/72/72 71/71/71 69/69/69
