g shard48
v -0.28878433 -0.2825427 0.16046615
v -0.51981175 -0.50857687 0.28883907
v -0.5473546 -0.527086 0.17772675
v -0.30408588 -0.29282555 0.098737076
v -0.30408588 -0.29282555 0.098737076
v -0.5473546 -0.527086 0.17772675
v -0.64211804 -0.41908073 0.13949841
v -0.35673225 -0.23282263 0.07749912
v -0.35673225 -0.23282263 0.07749912
v -0.64211804 -0.41908073 0.13949841
v -0.70482147 -0.28129995 0.14099807
v -0.39156747 -0.15627776 0.07833225
v -0.31090453 -0.21390119 0.21631165
v -0.5596281 -0.38502216 0.38936096
v -0.51981175 -0.50857687 0.28883907
v -0.28878433 -0.2825427 0.16046615
v -0.34515542 -0.14201069 0.21712886
v -0.6212797 -0.25561923 0.39083195
v -0.5596281 -0.38502216 0.38936096
v -0.31090453 -0.21390119 0.21631165
v -0.3803963 -0.079478174 0.18247597
v -0.68471336 -0.14306071 0.32845676
v -0.6212797 -0.25561923 0.39083195
v -0.34515542 -0.14201069 0.21712886
v -0.39156747 -0.15627776 0.07833225
v -0.70482147 -0.28129995 0.14099807
v -0.7379949 -0.16293773 0.1230712
v -0.4099972 -0.090520956 0.06837289
v -0.4099972 -0.090520956 0.06837289
v -0.7379949 -0.16293773 0.1230712
v -0.68471336 -0.14306071 0.32845676
v -0.3803963 -0.079478174 0.18247597
vt 0 0
vt 0 1
vt 0.09628451 1
vt 0.09628451 0
vt 0.09628451 0
vt 0.09628451 1
vt 0.21973787 1
vt 0.21973787 0
vt 0.21973787 0
vt 0.21973787 1
vt 0.3454349 1
vt 0.3454349 0
vt 0.8636776 0
vt 0.8636776 1
vt 1 1
vt 1 0
vt 0.7446553 0
vt 0.7446553 1
vt 0.8636776 1
vt 0.8636776 0
vt 0.62552965 0
vt 0.62552965 1
vt 0.7446553 1
vt 0.7446553 0
vt 0.3454349 0
vt 0.3454349 1
vt 0.44857916 1
vt 0.44857916 0
vt 0.44857916 0
vt 0.44857916 1
vt 0.62552965 1
vt 0.62552965 0
vn -0.68460274 0.7272979 0.048547458
vn -0.68460274 0.7272979 0.048547454
vn -0.68460274 0.7272979 0.048547458
vn -0.68460274 0.7272979 0.048547454
vn -0.008266906 0.32719973 0.944919
vn -0.008266906 0.32719973 0.944919
vn -0.008266907 0.32719973 0.9449191
vn -0.008266906 0.32719973 0.9449191
vn 0.1700637 0.06669406 0.98317355
vn 0.17006367 0.06669405 0.98317355
vn 0.17006369 0.06669406 0.98317355
vn 0.17006367 0.06669406 0.98317355
vn -0.6792695 0.31887335 -0.66099375
vn -0.67926955 0.31887332 -0.66099375
vn -0.6792695 0.31887332 -0.66099375
vn -0.67926955 0.31887332 -0.6609937
vn -0.45793805 -0.2083521 -0.8642234
vn -0.457938 -0.20835209 -0.8642234
vn -0.45793805 -0.20835212 -0.8642234
vn -0.457938 -0.20835209 -0.8642234
vn -0.25345474 -0.57423323 -0.7784709
vn -0.25345477 -0.5742333 -0.7784709
vn -0.25345477 -0.57423323 -0.7784709
vn -0.25345474 -0.57423323 -0.7784709
vn 0.12249457 0.18209693 0.9756208
vn 0.12249457 0.18209694 0.9756208
vn 0.12249457 0.18209694 0.9756208
vn 0.12249457 0.18209693 0.9756208
vn 0.22130898 -0.9745054 0.036899183
vn 0.22130899 -0.9745054 0.036899183
vn 0.22130899 -0.9745054 0.036899187
vn 0.22130898 -0.9745054 0.03689918
g shard48_0
f 3/3/3 2/2/2 1/1/1
f 4/4/4 3/3/3 1/1/1
f 7/7/7 6/6/6 5/5/5
f 8/8/8 7/7/7 5/5/5
f 11/11/11 10/10/10 9/9/9
f 12/12/12 11/11/11 9/9/9
f 15/15/15 14/14/14 13/13/13
f 16/16/16 15/15/15 13/13/13
f 19/19/19 18/18/18 17/17/17
f 20/20/20 19/19/19 17/17/17
f 23/23/23 22/22/22 21/21/21
f 24/24/24 23/23/23 21/21/21
f 27/27/27 26/26/26 25/25/25
f 28/28/28 27/27/27 25/25/25
f 31/31/31 30/30/30 29/29/29
f 32/32/32 31/31/31 29/29/29
