g shard89
v 0.09757689 -0.071562916 -0.16211282
v 0.016429245 -0.002116114 -0.1624813
v 0.056465447 -0.08401632 -0.0870976
v 0.0045797527 -0.041900814 -0.08961496
v 0.0002464354 -0.061172485 -0.024997689
v 0.05200684 -0.104991645 -0.009667076
v -0.011415571 -0.06251615 0.051353812
v 0.05082026 -0.11207268 0.05480476
v 0.0045797527 -0.041900814 -0.08961496
v 0.016429245 -0.002116114 -0.1624813
v -0.049734235 0.033889294 -0.09263329
v -0.06189111 0.013290554 -0.019141592
v 0.0002464354 -0.061172485 -0.024997689
v -0.096037924 0.08346723 -0.01593393
v -0.011415571 -0.06251615 0.051353812
v -0.070849776 0.016754165 0.04939833
v -0.10922536 0.104047954 0.057714052
v -0.10018131 0.09619555 0.14107503
v -0.0638921 0.017390355 0.14078489
v -0.009834975 -0.044790387 0.1624813
v 0.10922536 -0.05784306 -0.15339051
v 0.068124175 -0.069404125 -0.08031547
v 0.029565424 0.010160774 -0.15397379
v 0.01788053 -0.02875045 -0.08253278
v 0.013875186 -0.047033995 -0.021208227
v 0.0639638 -0.089390874 -0.006288737
v 0.0023727715 -0.048351526 0.051153243
v 0.063065216 -0.096375674 0.056719482
v 0.01788053 -0.02875045 -0.08253278
v -0.0336923 0.04344012 -0.08589882
v 0.029565424 0.010160774 -0.15397379
v -0.045211464 0.023729056 -0.015560016
v 0.013875186 -0.047033995 -0.021208227
v -0.07814342 0.091569975 -0.0128360465
v 0.0023727715 -0.048351526 0.051153243
v -0.053581864 0.026843771 0.049536724
v -0.09094098 0.11207266 0.057608884
v -0.08198482 0.10438971 0.13976061
v -0.0471496 0.027844846 0.13892749
v 0.00549677 -0.032158077 0.16016544
v 0.10922536 -0.05784306 -0.15339051
v 0.09757689 -0.071562916 -0.16211282
v 0.056465447 -0.08401632 -0.0870976
v 0.068124175 -0.069404125 -0.08031547
v 0.05200684 -0.104991645 -0.009667076
v 0.0639638 -0.089390874 -0.006288737
v 0.05082026 -0.11207268 0.05480476
v 0.063065216 -0.096375674 0.056719482
v 0.029565424 0.010160774 -0.15397379
v 0.016429245 -0.002116114 -0.1624813
v 0.09757689 -0.071562916 -0.16211282
v 0.10922536 -0.05784306 -0.15339051
v 0.063065216 -0.096375674 0.056719482
v 0.05082026 -0.11207268 0.05480476
v -0.011415571 -0.06251615 0.051353812
v 0.0023727715 -0.048351526 0.051153243
v -0.0336923 0.04344012 -0.08589882
v 0.016429245 -0.002116114 -0.1624813
v 0.029565424 0.010160774 -0.15397379
v -0.049734235 0.033889294 -0.09263329
v -0.07814342 0.091569975 -0.0128360465
v -0.096037924 0.08346723 -0.01593393
v -0.09094098 0.11207266 0.057608884
v -0.10922536 0.104047954 0.057714052
v -0.08198482 0.10438971 0.13976061
v -0.10018131 0.09619555 0.14107503
v 0.00549677 -0.032158077 0.16016544
v -0.009834975 -0.044790387 0.1624813
v -0.0638921 0.017390355 0.14078489
v -0.0471496 0.027844846 0.13892749
v -0.10018131 0.09619555 0.14107503
v -0.08198482 0.10438971 0.13976061
v 0.0023727715 -0.048351526 0.051153243
v -0.011415571 -0.06251615 0.051353812
v -0.009834975 -0.044790387 0.1624813
v 0.00549677 -0.032158077 0.16016544
vt 0.40625 0.78125
vt 0.375 0.78125
vt 0.40625 0.8125
vt 0.375 0.8125
vt 0.375 0.84375
vt 0.40625 0.84375
vt 0.375 0.875
vt 0.40625 0.875
vt 0.1875 0
vt 0.15625 0
vt 0.1875 0.03125
vt 0.21875 0.03125
vt 0.21875 0
vt 0.21875 0.0625
vt 0.25 0
vt 0.25 0.03125
vt 0.25 0.0625
vt 0.28125 0.0625
vt 0.28125 0.03125
vt 0.28125 0
vt 0.40625 0.78125
vt 0.40625 0.8125
vt 0.375 0.78125
vt 0.375 0.8125
vt 0.375 0.84375
vt 0.40625 0.84375
vt 0.375 0.875
vt 0.40625 0.875
vt 0.1875 0
vt 0.1875 0.03125
vt 0.15625 0
vt 0.21875 0.03125
vt 0.21875 0
vt 0.21875 0.0625
vt 0.25 0
vt 0.25 0.03125
vt 0.25 0.0625
vt 0.28125 0.0625
vt 0.28125 0.03125
vt 0.28125 0
vt 0.40625 0.78125
vt 0.40625 0.78125
vt 0.40625 0.8125
vt 0.40625 0.8125
vt 0.40625 0.84375
vt 0.40625 0.84375
vt 0.40625 0.875
vt 0.40625 0.875
vt 0.375 0.78125
vt 0.375 0.78125
vt 0.40625 0.78125
vt 0.40625 0.78125
vt 0.40625 0.875
vt 0.40625 0.875
vt 0.375 0.875
vt 0.375 0.875
vt 0.1875 0.03125
vt 0.15625 0
vt 0.15625 0
vt 0.1875 0.03125
vt 0.21875 0.0625
vt 0.21875 0.0625
vt 0.25 0.0625
vt 0.25 0.0625
vt 0.28125 0.0625
vt 0.28125 0.0625
vt 0.28125 0
vt 0.28125 0
vt 0.28125 0.03125
vt 0.28125 0.03125
vt 0.28125 0.0625
vt 0.28125 0.0625
vt 0.25 0
vt 0.25 0
vt 0.28125 0
vt 0.28125 0
vn -0.58458984 -0.685389 -0.4341621
vn -0.64407444 -0.6295206 -0.43459395
vn -0.58228123 -0.7219825 -0.373751
vn -0.678652 -0.64207464 -0.3566116
vn -0.6947647 -0.6953898 -0.18367136
vn -0.6069885 -0.77851474 -0.15962352
vn -0.75043344 -0.66040015 -0.026856652
vn -0.61666524 -0.7812078 -0.09715054
vn -0.678652 -0.64207464 -0.3566116
vn -0.64407444 -0.6295206 -0.43459395
vn -0.7886487 -0.5248905 -0.32019252
vn -0.8275612 -0.53133446 -0.18117997
vn -0.6947647 -0.6953898 -0.18367136
vn -0.90236026 -0.41237986 -0.12525502
vn -0.75043344 -0.66040015 -0.026856652
vn -0.8590056 -0.51195204 0.003808574
vn -0.914765 -0.40366894 0.016010553
vn -0.9088789 -0.41179714 0.06604641
vn -0.8393813 -0.53709453 0.08347769
vn -0.76890284 -0.62959266 0.11136163
vn 0.58242327 0.6859935 0.43611485
vn 0.58110267 0.7217394 0.37604788
vn 0.64132935 0.6315904 0.43564916
vn 0.67744404 0.6428638 0.35748512
vn 0.6932927 0.69637525 0.18549043
vn 0.60506016 0.7800967 0.15922074
vn 0.74964386 0.66131777 0.026321357
vn 0.6122475 0.7848487 0.09573628
vn 0.67744404 0.6428638 0.35748512
vn 0.7884274 0.52498007 0.32059044
vn 0.64132935 0.6315904 0.43564916
vn 0.82846874 0.52984303 0.18139979
vn 0.6932927 0.69637525 0.18549043
vn 0.9029248 0.41182724 0.122984335
vn 0.74964386 0.66131777 0.026321357
vn 0.8609979 0.50858605 -0.004772374
vn 0.9150802 0.40285373 -0.018358506
vn 0.90993 0.40954944 -0.065550216
vn 0.8405505 0.53512406 -0.08436364
vn 0.76658607 0.6316152 -0.11579293
vn 0.6710773 -0.6943176 0.25995857
vn 0.6710773 -0.6943176 0.25995857
vn 0.7486178 -0.657626 0.08425777
vn 0.7492857 -0.65710306 0.082380414
vn 0.79833364 -0.5959634 -0.08655114
vn 0.79833513 -0.59595925 -0.08656527
vn 0.79430974 -0.6051282 -0.053776063
vn 0.7943096 -0.6051282 -0.053776056
vn 0.28432098 0.32639363 -0.9014592
vn 0.28432092 0.32639363 -0.9014593
vn 0.28432095 0.32639366 -0.9014593
vn 0.28432092 0.32639363 -0.9014593
vn -0.07010876 0.0038591924 0.9975319
vn -0.07010875 0.0038591921 0.9975319
vn -0.07010874 0.003859192 0.9975319
vn -0.07010876 0.0038591921 0.9975319
vn -0.22919133 0.7542945 -0.6152326
vn -0.24571303 0.7539156 -0.6092917
vn -0.24571303 0.7539156 -0.60929173
vn -0.22919782 0.7542944 -0.61523026
vn -0.2831568 0.82066494 -0.49631768
vn -0.2825883 0.8201899 -0.49742582
vn -0.39233634 0.9159683 -0.084108934
vn -0.3923036 0.9159407 -0.0845605
vn -0.3986912 0.90802556 0.12858845
vn -0.39869118 0.90802556 0.12858845
vn -0.072325625 0.27384147 0.95905155
vn -0.07232562 0.2738415 0.95905155
vn 0.0024792617 0.15108258 0.988518
vn 0.0023943614 0.15122378 0.98849666
vn 0.07580797 0.027500277 0.99674314
vn 0.075807974 0.027500277 0.99674314
vn 0.67846394 -0.7281097 0.09768803
vn 0.67846394 -0.7281097 0.09768801
vn 0.6784639 -0.7281097 0.09768801
vn 0.67846394 -0.7281097 0.09768801
g shard89_0
f 3/3/3 2/2/2 1/1/1
f 3/3/3 4/4/4 2/2/2
f 3/3/3 5/5/5 4/4/4
f 3/3/3 6/6/6 5/5/5
f 6/6/6 7/7/7 5/5/5
f 6/6/6 8/8/8 7/7/7
f 11/11/11 10/10/10 9/9/9
f 12/12/12 11/11/11 9/9/9
f 12/12/12 9/9/9 13/13/13
f 14/14/14 11/11/11 12/12/12
f 15/15/15 12/12/12 13/13/13
f 16/16/16 14/14/14 12/12/12
f 15/15/15 16/16/16 12/12/12
f 16/16/16 17/17/17 14/14/14
f 18/18/18 17/17/17 16/16/16
f 18/18/18 16/16/16 19/19/19
f 19/19/19 16/16/16 15/15/15
f 19/19/19 15/15/15 20/20/20
f 23/23/23 22/22/22 21/21/21
f 24/24/24 22/22/22 23/23/23
f 25/25/25 22/22/22 24/24/24
f 26/26/26 22/22/22 25/25/25
f 27/27/27 26/26/26 25/25/25
f 28/28/28 26/26/26 27/27/27
f 31/31/31 30/30/30 29/29/29
f 30/30/30 32/32/32 29/29/29
f 29/29/29 32/32/32 33/33/33
f 30/30/30 34/34/34 32/32/32
f 32/32/32 35/35/35 33/33/33
f 34/34/34 36/36/36 32/32/32
f 36/36/36 35/35/35 32/32/32
f 37/37/37 36/36/36 34/34/34
f 37/37/37 38/38/38 36/36/36
f 36/36/36 38/38/38 39/39/39
f 36/36/36 39/39/39 35/35/35
f 35/35/35 39/39/39 40/40/40
f 43/43/43 42/42/42 41/41/41
f 44/44/44 43/43/43 41/41/41
f 45/45/45 43/43/43 44/44/44
f 46/46/46 45/45/45 44/44/44
f 47/47/47 45/45/45 46/46/46
f 48/48/48 47/47/47 46/46/46
f 51/51/51 50/50/50 49/49/49
f 52/52/52 51/51/51 49/49/49
f 55/55/55 54/54/54 53/53/53
f 56/56/56 55/55/55 53/53/53
f 59/59/59 58/58/58 57/57/57
f 58/58/58 60/60/60 57/57/57
f 57/57/57 60/60/60 61/61/61
f 60/60/60 62/62/62 61/61/61
f 61/61/61 62/62/62 63/63/63
f 62/62/62 64/64/64 63/63/63
f 63/63/63 64/64/64 65/65/65
f 64/64/64 66/66/66 65/65/65
f 69/69/69 68/68/68 67/67/67
f 70/70/70 69/69/69 67/67/67
f 71/71/71 69/69/69 70/70/70
f 72/72/72 71/71/71 70/70/70
f 75/75/75 74/74/74 73/73/73
f 76/76/76 75/75/75 73/73/73
