g shard66
v 0.03387457 0.046787262 0.107970506
v 0.050486982 0.06393251 0.10959005
v 0.09183009 0.023999259 0.17241079
v 0.00012236834 0.03491941 0.07976411
v 0.026472539 0.09118304 0.053887486
v -0.038470924 0.048903495 -0.0011698455
v 0.023706973 0.124355495 -0.0030278265
v -0.041606158 -0.034699798 0.073328674
v -0.04118526 0.07373026 -0.063244365
v -0.007837981 0.11968669 -0.072005354
v -0.08877638 -0.004123926 -0.09745725
v -0.063557535 0.05911784 -0.17014371
v -0.072719395 -0.025170907 0.0040595084
v -0.10969764 -0.08313253 -0.07134263
v -0.085850745 -0.10042625 0.023054197
v -0.053450555 -0.08665481 0.08145015
v -0.09971762 -0.17211863 0.0080225915
v 0.050486982 0.06393251 0.10959005
v 0.026472539 0.09118304 0.053887486
v 0.09860112 0.14025292 0.068410784
v 0.055527896 0.1516321 -0.008726597
v 0.023706973 0.124355495 -0.0030278265
v -0.007837981 0.11968669 -0.072005354
v 0.054709554 0.17463869 -0.07725584
v 0.04585266 0.036384434 0.09593803
v 0.103051916 0.014450684 0.15888691
v 0.061532468 0.05277556 0.09737584
v 0.014338732 0.025007918 0.070016265
v 0.039114058 0.07882053 0.044540793
v -0.022492468 0.038885757 -0.007828236
v 0.03646466 0.11055392 -0.009865761
v -0.025084168 -0.041588843 0.06460972
v -0.025059193 0.06293601 -0.06736461
v 0.0058389306 0.106309175 -0.077522464
v -0.07082793 -0.012076929 -0.10071164
v -0.046162397 0.049512133 -0.17241079
v -0.055066347 -0.03192967 -0.002474174
v -0.09088421 -0.0875427 -0.07610354
v -0.06761545 -0.10429237 0.016172498
v -0.036105007 -0.091867015 0.07296686
v -0.08059251 -0.17463867 0.0027424842
v 0.061532468 0.05277556 0.09737584
v 0.10969764 0.12678638 0.058744147
v 0.039114058 0.07882053 0.044540793
v 0.06743829 0.13716212 -0.015471369
v 0.03646466 0.11055392 -0.009865761
v 0.0058389306 0.106309175 -0.077522464
v 0.06720637 0.15986645 -0.08231663
v 0.04585266 0.036384434 0.09593803
v 0.09183009 0.023999259 0.17241079
v 0.103051916 0.014450684 0.15888691
v 0.03387457 0.046787262 0.107970506
v 0.014338732 0.025007918 0.070016265
v 0.00012236834 0.03491941 0.07976411
v 0.103051916 0.014450684 0.15888691
v 0.09183009 0.023999259 0.17241079
v 0.050486982 0.06393251 0.10959005
v 0.061532468 0.05277556 0.09737584
v 0.061532468 0.05277556 0.09737584
v 0.050486982 0.06393251 0.10959005
v 0.09860112 0.14025292 0.068410784
v 0.10969764 0.12678638 0.058744147
v 0.10969764 0.12678638 0.058744147
v 0.09860112 0.14025292 0.068410784
v 0.055527896 0.1516321 -0.008726597
v 0.06743829 0.13716212 -0.015471369
v 0.054709554 0.17463869 -0.07725584
v 0.06720637 0.15986645 -0.08231663
v 0.06720637 0.15986645 -0.08231663
v 0.054709554 0.17463869 -0.07725584
v -0.007837981 0.11968669 -0.072005354
v 0.0058389306 0.106309175 -0.077522464
v -0.09088421 -0.0875427 -0.07610354
v -0.09971762 -0.17211863 0.0080225915
v -0.08059251 -0.17463867 0.0027424842
v -0.10969764 -0.08313253 -0.07134263
v -0.07082793 -0.012076929 -0.10071164
v -0.08877638 -0.004123926 -0.09745725
v -0.046162397 0.049512133 -0.17241079
v -0.063557535 0.05911784 -0.17014371
v -0.08059251 -0.17463867 0.0027424842
v -0.09971762 -0.17211863 0.0080225915
v -0.085850745 -0.10042625 0.023054197
v -0.06761545 -0.10429237 0.016172498
v -0.036105007 -0.091867015 0.07296686
v -0.053450555 -0.08665481 0.08145015
v -0.041606158 -0.034699798 0.073328674
v -0.025084168 -0.041588843 0.06460972
v 0.00012236834 0.03491941 0.07976411
v 0.014338732 0.025007918 0.070016265
v -0.06761545 -0.10429237 0.016172498
v -0.085850745 -0.10042625 0.023054197
v -0.053450555 -0.08665481 0.08145015
v -0.036105007 -0.091867015 0.07296686
v -0.025059193 0.06293601 -0.06736461
v -0.04118526 0.07373026 -0.063244365
v -0.063557535 0.05911784 -0.17014371
v -0.046162397 0.049512133 -0.17241079
v 0.0058389306 0.106309175 -0.077522464
v -0.007837981 0.11968669 -0.072005354
v -0.04118526 0.07373026 -0.063244365
v -0.025059193 0.06293601 -0.06736461
vt 0.375 0.21875
vt 0.375 0.25
vt 0.40625 0.21875
vt 0.34375 0.21875
vt 0.34375 0.25
vt 0.3125 0.21875
vt 0.3125 0.25
vt 0.34375 0.1875
vt 0.28125 0.21875
vt 0.28125 0.25
vt 0.28125 0.1875
vt 0.25 0.21875
vt 0.3125 0.1875
vt 0.28125 0.15625
vt 0.3125 0.15625
vt 0.34375 0.15625
vt 0.3125 0.125
vt 0.375 0.25
vt 0.375 0.28125
vt 0.40625 0.28125
vt 0.40625 0.3125
vt 0.375 0.3125
vt 0.375 0.34375
vt 0.40625 0.34375
vt 0.375 0.21875
vt 0.40625 0.21875
vt 0.375 0.25
vt 0.34375 0.21875
vt 0.34375 0.25
vt 0.3125 0.21875
vt 0.3125 0.25
vt 0.34375 0.1875
vt 0.28125 0.21875
vt 0.28125 0.25
vt 0.28125 0.1875
vt 0.25 0.21875
vt 0.3125 0.1875
vt 0.28125 0.15625
vt 0.3125 0.15625
vt 0.34375 0.15625
vt 0.3125 0.125
vt 0.375 0.25
vt 0.40625 0.28125
vt 0.375 0.28125
vt 0.40625 0.3125
vt 0.375 0.3125
vt 0.375 0.34375
vt 0.40625 0.34375
vt 0.375 0.21875
vt 0.40625 0.21875
vt 0.40625 0.21875
vt 0.375 0.21875
vt 0.34375 0.21875
vt 0.34375 0.21875
vt 0.40625 0.21875
vt 0.40625 0.21875
vt 0.375 0.25
vt 0.375 0.25
vt 0.375 0.25
vt 0.375 0.25
vt 0.40625 0.28125
vt 0.40625 0.28125
vt 0.40625 0.28125
vt 0.40625 0.28125
vt 0.40625 0.3125
vt 0.40625 0.3125
vt 0.40625 0.34375
vt 0.40625 0.34375
vt 0.40625 0.34375
vt 0.40625 0.34375
vt 0.375 0.34375
vt 0.375 0.34375
vt 0.28125 0.15625
vt 0.3125 0.125
vt 0.3125 0.125
vt 0.28125 0.15625
vt 0.28125 0.1875
vt 0.28125 0.1875
vt 0.25 0.21875
vt 0.25 0.21875
vt 0.3125 0.125
vt 0.3125 0.125
vt 0.3125 0.15625
vt 0.3125 0.15625
vt 0.34375 0.15625
vt 0.34375 0.15625
vt 0.34375 0.1875
vt 0.34375 0.1875
vt 0.34375 0.21875
vt 0.34375 0.21875
vt 0.3125 0.15625
vt 0.3125 0.15625
vt 0.34375 0.15625
vt 0.34375 0.15625
vt 0.28125 0.21875
vt 0.28125 0.21875
vt 0.25 0.21875
vt 0.25 0.21875
vt 0.28125 0.25
vt 0.28125 0.25
vt 0.28125 0.21875
vt 0.28125 0.21875
vn -0.5944665 0.5178849 0.61514616
vn -0.580234 0.57418466 0.5776162
vn -0.5611103 0.4799705 0.67437637
vn -0.73763 0.4904699 0.46404877
vn -0.6340519 0.6203325 0.46169877
vn -0.8047662 0.49496806 0.32765523
vn -0.66516024 0.6671261 0.33541694
vn -0.82893604 0.35466537 0.4325246
vn -0.82981795 0.5160481 0.21235986
vn -0.6920852 0.6661576 0.2779425
vn -0.8918843 0.41433525 0.1812971
vn -0.86935055 0.48032033 0.11628426
vn -0.88620985 0.341321 0.31326047
vn -0.9376658 0.24684519 0.24464326
vn -0.9283262 0.19916968 0.3139137
vn -0.868528 0.26361206 0.41972345
vn -0.95552886 0.1292443 0.26506716
vn -0.580234 0.57418466 0.5776162
vn -0.6340519 0.6203325 0.46169877
vn -0.5598761 0.68499553 0.46617582
vn -0.59299225 0.73041517 0.33890092
vn -0.66516024 0.6671261 0.33541694
vn -0.6920852 0.6661576 0.2779425
vn -0.6260571 0.7369447 0.2548826
vn 0.5934698 -0.51333743 -0.61990184
vn 0.5610916 -0.47742617 -0.6761956
vn 0.5796666 -0.5747379 -0.57763577
vn 0.7386017 -0.48963025 -0.4633895
vn 0.63304716 -0.6214929 -0.46151683
vn 0.80545145 -0.4938702 -0.3276281
vn 0.6640975 -0.6682946 -0.33519652
vn 0.82927775 -0.3532275 -0.43304595
vn 0.8304741 -0.51541895 -0.21131991
vn 0.6894128 -0.66969794 -0.27607006
vn 0.89216566 -0.41448793 -0.17955558
vn 0.86975664 -0.4802858 -0.11335349
vn 0.8862681 -0.3410676 -0.31337175
vn 0.93800515 -0.24572349 -0.24447168
vn 0.9289678 -0.19721219 -0.3132511
vn 0.86727643 -0.26060826 -0.42416388
vn 0.9562555 -0.12600215 -0.26400542
vn 0.5796666 -0.5747379 -0.57763577
vn 0.55965334 -0.6857673 -0.46530783
vn 0.63304716 -0.6214929 -0.46151683
vn 0.5927504 -0.73099077 -0.33808202
vn 0.6640975 -0.6682946 -0.33519652
vn 0.6894128 -0.66969794 -0.27607006
vn 0.62484 -0.7386103 -0.25304085
vn -0.41898346 -0.85323715 0.31054643
vn -0.5213106 -0.8345393 0.17826743
vn -0.5213106 -0.8345393 0.17826742
vn -0.41660315 -0.85337675 0.31335282
vn -0.17016214 -0.8143415 0.554881
vn -0.1701621 -0.8143415 0.5548809
vn 0.6834312 0.7300039 0.0040043453
vn 0.68343127 0.7300039 0.0040043457
vn 0.6834312 0.7300039 0.0040043457
vn 0.6834312 0.7300039 0.0040043457
vn 0.67718834 -0.043752834 0.7345078
vn 0.6771884 -0.04375283 0.73450774
vn 0.67718834 -0.04375283 0.73450774
vn 0.6771884 -0.04375283 0.73450774
vn 0.65901047 0.70173746 -0.27068406
vn 0.6590104 0.7017375 -0.27068403
vn 0.740886 0.6685112 -0.064657845
vn 0.7406572 0.6686918 -0.065408036
vn 0.7901349 0.5825527 0.19057614
vn 0.7901349 0.5825526 0.19057614
vn -0.21767351 0.1594418 -0.9629104
vn -0.21767351 0.15944181 -0.9629104
vn -0.25090334 0.100889966 -0.96274024
vn -0.2510175 0.10068436 -0.96273196
vn -0.3026106 -0.49457875 -0.8147507
vn -0.30280697 -0.6560269 -0.69132954
vn -0.302807 -0.6560269 -0.6913296
vn -0.30267808 -0.49639255 -0.81362176
vn -0.36162663 -0.45207137 -0.81538796
vn -0.36177033 -0.45250306 -0.8150849
vn -0.41061893 -0.61477655 -0.6733809
vn -0.41061887 -0.6147765 -0.6733809
vn 0.26380682 -0.23720267 0.934955
vn 0.26380682 -0.23720267 0.934955
vn 0.2638068 -0.2372027 0.934955
vn 0.2638068 -0.23720267 0.934955
vn 0.46355793 0.03900523 0.8852076
vn 0.46355793 0.039005227 0.8852076
vn 0.41253304 -0.1632625 0.89619297
vn 0.4122822 -0.16409242 0.89615685
vn 0.36791995 -0.29582763 0.88154465
vn 0.36792 -0.29582766 0.8815446
vn -0.12045928 -0.95146084 0.28321692
vn -0.12045928 -0.95146084 0.28321692
vn -0.120459266 -0.95146084 0.28321692
vn -0.120459266 -0.95146084 0.28321692
vn 0.4785333 0.852363 -0.21091063
vn 0.4785333 0.852363 -0.21091062
vn 0.4785333 0.852363 -0.21091063
vn 0.4785333 0.852363 -0.21091062
vn -0.2510175 0.10068436 -0.96273196
vn -0.25090334 0.100889966 -0.96274024
vn -0.29844713 0.012524242 -0.954344
vn -0.29844716 0.0125242425 -0.954344
g shard66_0
f 3/3/3 2/2/2 1/1/1
f 2/2/2 4/4/4 1/1/1
f 2/2/2 5/5/5 4/4/4
f 5/5/5 6/6/6 4/4/4
f 5/5/5 7/7/7 6/6/6
f 8/8/8 4/4/4 6/6/6
f 7/7/7 9/9/9 6/6/6
f 7/7/7 10/10/10 9/9/9
f 6/6/6 9/9/9 11/11/11
f 11/11/11 9/9/9 12/12/12
f 6/6/6 11/11/11 13/13/13
f 8/8/8 6/6/6 13/13/13
f 13/13/13 11/11/11 14/14/14
f 8/8/8 13/13/13 15/15/15
f 13/13/13 14/14/14 15/15/15
f 8/8/8 15/15/15 16/16/16
f 17/17/17 15/15/15 14/14/14
f 20/20/20 19/19/19 18/18/18
f 21/21/21 19/19/19 20/20/20
f 21/21/21 22/22/22 19/19/19
f 21/21/21 23/23/23 22/22/22
f 21/21/21 24/24/24 23/23/23
f 27/27/27 26/26/26 25/25/25
f 28/28/28 27/27/27 25/25/25
f 29/29/29 27/27/27 28/28/28
f 30/30/30 29/29/29 28/28/28
f 31/31/31 29/29/29 30/30/30
f 28/28/28 32/32/32 30/30/30
f 33/33/33 31/31/31 30/30/30
f 34/34/34 31/31/31 33/33/33
f 33/33/33 30/30/30 35/35/35
f 33/33/33 35/35/35 36/36/36
f 35/35/35 30/30/30 37/37/37
f 30/30/30 32/32/32 37/37/37
f 35/35/35 37/37/37 38/38/38
f 37/37/37 32/32/32 39/39/39
f 38/38/38 37/37/37 39/39/39
f 39/39/39 32/32/32 40/40/40
f 39/39/39 41/41/41 38/38/38
f 44/44/44 43/43/43 42/42/42
f 44/44/44 45/45/45 43/43/43
f 46/46/46 45/45/45 44/44/44
f 47/47/47 45/45/45 46/46/46
f 48/48/48 45/45/45 47/47/47
f 51/51/51 50/50/50 49/49/49
f 50/50/50 52/52/52 49/49/49
f 49/49/49 52/52/52 53/53/53
f 52/52/52 54/54/54 53/53/53
f 57/57/57 56/56/56 55/55/55
f 58/58/58 57/57/57 55/55/55
f 61/61/61 60/60/60 59/59/59
f 62/62/62 61/61/61 59/59/59
f 65/65/65 64/64/64 63/63/63
f 66/66/66 65/65/65 63/63/63
f 67/67/67 65/65/65 66/66/66
f 68/68/68 67/67/67 66/66/66
f 71/71/71 70/70/70 69/69/69
f 72/72/72 71/71/71 69/69/69
f 75/75/75 74/74/74 73/73/73
f 74/74/74 76/76/76 73/73/73
f 73/73/73 76/76/76 77/77/77
f 76/76/76 78/78/78 77/77/77
f 77/77/77 78/78/78 79/79/79
f 78/78/78 80/80/80 79/79/79
f 83/83/83 82/82/82 81/81/81
f 84/84/84 83/83/83 81/81/81
f 87/87/87 86/86/86 85/85/85
f 88/88/88 87/87/87 85/85/85
f 89/89/89 87/87/87 88/88/88
f 90/90/90 89/89/89 88/88/88
f 93/93/93 92/92/92 91/91/91
f 94/94/94 93/93/93 91/91/91
f 97/97/97 96/96/96 95/95/95
f 98/98/98 97/97/97 95/95/95
f 101/101/101 100/100/100 99/99/99
f 102/102/102 101/101/101 99/99/99
