g shard23
v 0.08424694 -0.08351358 -0.4102857
v 0.09364583 -0.1696567 -0.383254
v 0.013858 -0.07313148 -0.4172259
v 0.09499799 -0.2285257 -0.3538784
v -0.007884398 -0.2444478 -0.3580198
v -0.2382532 -0.08739428 -0.3513472
v -0.172486 -0.09260023 -0.3817764
v -0.2323293 -0.1544849 -0.3327548
v -0.172535 -0.1737287 -0.354531
v -0.2992286 -0.0627687 -0.3082203
v -0.286002 -0.1509738 -0.2915305
v -0.08504402 -0.01926539 -0.4154297
v -0.09144704 -0.2471002 -0.3431027
v 0.1685625 -0.305382 -0.6898571
v 0.1516445 -0.1503244 -0.7385142
v 0.0249444 -0.1316367 -0.7510066
v 0.1709964 -0.4113462 -0.6369812
v -0.01419192 -0.440006 -0.6444357
v -0.3104748 -0.1666804 -0.6871974
v -0.4288557 -0.1573097 -0.632425
v -0.310563 -0.3127117 -0.6381558
v -0.4181927 -0.2780729 -0.5989586
v -0.5386115 -0.1129837 -0.5547966
v -0.5148035 -0.2717528 -0.524755
v -0.1530792 -0.03467771 -0.7477735
v -0.1646047 -0.4447804 -0.6175849
v 0.08424694 -0.08351358 -0.4102857
v 0.1516445 -0.1503244 -0.7385142
v 0.1685625 -0.305382 -0.6898571
v 0.09364583 -0.1696567 -0.383254
v 0.1709964 -0.4113462 -0.6369812
v 0.09499799 -0.2285257 -0.3538784
v -0.2382532 -0.08739428 -0.3513472
v -0.4288557 -0.1573097 -0.632425
v -0.2992286 -0.0627687 -0.3082203
v -0.5386115 -0.1129837 -0.5547966
v -0.286002 -0.1509738 -0.2915305
v -0.5148035 -0.2717528 -0.524755
v -0.4181927 -0.2780729 -0.5989586
v -0.2323293 -0.1544849 -0.3327548
v -0.3104748 -0.1666804 -0.6871974
v -0.172486 -0.09260023 -0.3817764
v 0.013858 -0.07313148 -0.4172259
v 0.0249444 -0.1316367 -0.7510066
v -0.1530792 -0.03467771 -0.7477735
v -0.08504402 -0.01926539 -0.4154297
v -0.172535 -0.1737287 -0.354531
v -0.310563 -0.3127117 -0.6381558
v -0.09144704 -0.2471002 -0.3431027
v -0.1646047 -0.4447804 -0.6175849
vt 0.07997386 0
vt 0 0
vt 0.1429574 0
vt 0.9420235 0
vt 0.850229 0
vt 0.4110278 0
vt 0.3470186 0
vt 0.6199633 0
vt 0.6785364 0
vt 0.4803128 0
vt 0.5602573 0
vt 0.2421917 0
vt 0.7754071 0
vt 0 1
vt 0.07997386 1
vt 0.1429574 1
vt 0.9420235 1
vt 0.850229 1
vt 0.3470186 1
vt 0.4110278 1
vt 0.6785364 1
vt 0.6199633 1
vt 0.4803128 1
vt 0.5602573 1
vt 0.2421917 1
vt 0.7754071 1
vt 0.07997386 0
vt 0.07997386 1
vt 1 1
vt 1 0
vt 0.9420235 1
vt 0.9420235 0
vt 0.4110278 0
vt 0.4110278 1
vt 0.4803128 0
vt 0.4803128 1
vt 0.5602573 0
vt 0.5602573 1
vt 0.6199633 1
vt 0.6199633 0
vt 0.3470186 1
vt 0.3470186 0
vt 0.1429574 0
vt 0.1429574 1
vt 0.2421917 1
vt 0.2421917 0
vt 0.6785364 0
vt 0.6785364 1
vt 0.7754071 0
vt 0.7754071 1
vn -0.9730135 -0.1587212 -0.1674883
vn -0.9730135 -0.1587212 -0.1674883
vn -0.1598403 -0.9732088 0.1652753
vn -0.9754937 -0.1157722 -0.1871068
vn -0.1047629 0.822387 -0.5591998
vn 0.02664267 -0.9741678 0.2242481
vn 0.02664267 -0.9741678 0.2242481
vn 0.1061416 0.8715262 -0.4787234
vn 0.1061416 0.8715262 -0.4787234
vn -0.1437446 -0.9331208 0.3295801
vn 0.7196746 -0.02338232 -0.6939178
vn 0.6192505 -0.7799491 -0.09059898
vn 0.5947273 0.5687807 -0.5681443
vn -0.9730135 -0.1587212 -0.1674883
vn -0.9730135 -0.1587212 -0.1674883
vn -0.1598403 -0.9732088 0.1652753
vn -0.9754937 -0.1157722 -0.1871067
vn -0.1047629 0.822387 -0.5591998
vn 0.02664267 -0.9741678 0.2242481
vn 0.02664267 -0.9741678 0.2242481
vn 0.1061416 0.8715262 -0.4787235
vn 0.1061416 0.8715262 -0.4787233
vn -0.1437446 -0.9331208 0.3295801
vn 0.7196746 -0.02338232 -0.6939178
vn 0.6192505 -0.7799491 -0.09059898
vn 0.5947273 0.5687807 -0.5681443
vn -0.1598403 -0.9732088 0.1652753
vn -0.1598403 -0.9732088 0.1652753
vn -0.9754937 -0.1157722 -0.1871068
vn -0.9754937 -0.1157722 -0.1871068
vn -0.1047629 0.822387 -0.5591998
vn -0.1047629 0.822387 -0.5591998
vn -0.1437446 -0.9331207 0.3295801
vn -0.1437445 -0.9331207 0.3295802
vn 0.7196746 -0.02338232 -0.6939178
vn 0.7196746 -0.02338232 -0.6939178
vn -0.1770368 0.9340902 -0.3100542
vn -0.1770368 0.9340902 -0.3100542
vn -0.1770368 0.9340902 -0.3100542
vn -0.1770368 0.9340902 -0.3100542
vn 0.6192505 -0.7799491 -0.09059898
vn 0.6192505 -0.7799491 -0.09059898
vn -0.4718723 -0.8709596 0.136989
vn -0.4718723 -0.8709596 0.136989
vn -0.4718723 -0.8709596 0.136989
vn -0.4718723 -0.8709596 0.136989
vn 0.5947273 0.5687807 -0.5681443
vn 0.5947273 0.5687807 -0.5681443
vn -0.125574 0.8206069 -0.5575262
vn -0.125574 0.8206069 -0.5575262
g shard23_0
f 15/15/15 14/14/14 2/2/2
f 1/1/1 15/15/15 2/2/2
f 16/16/16 28/28/28 27/27/27
f 3/3/3 16/16/16 27/27/27
f 29/29/29 17/17/17 4/4/4
f 30/30/30 29/29/29 4/4/4
f 32/32/32 31/31/31 5/5/5
f 31/31/31 18/18/18 5/5/5
f 5/5/5 18/18/18 49/49/49
f 18/18/18 50/50/50 49/49/49
f 20/20/20 19/19/19 7/7/7
f 6/6/6 20/20/20 7/7/7
f 21/21/21 22/22/22 8/8/8
f 9/9/9 21/21/21 8/8/8
f 23/23/23 34/34/34 33/33/33
f 10/10/10 23/23/23 33/33/33
f 24/24/24 36/36/36 35/35/35
f 11/11/11 24/24/24 35/35/35
f 39/39/39 38/38/38 37/37/37
f 40/40/40 39/39/39 37/37/37
f 41/41/41 25/25/25 12/12/12
f 42/42/42 41/41/41 12/12/12
f 45/45/45 44/44/44 43/43/43
f 46/46/46 45/45/45 43/43/43
f 26/26/26 48/48/48 47/47/47
f 13/13/13 26/26/26 47/47/47
