g shard92
v -0.0759553 -0.035729855 -0.070847034
v -0.05706325 -0.022128582 -0.036301434
v -0.03172037 -0.07245639 -0.06911403
v -0.026454762 -0.035733372 -0.02130124
v -0.0759553 -0.035729855 -0.070847034
v -0.12039071 0.017219946 -0.071385086
v -0.05706325 -0.022128582 -0.036301434
v -0.073996425 0.03729716 -0.0037526488
v -0.016175434 0.012357548 0.026447922
v -0.026454762 -0.035733372 -0.02130124
v 0.054217696 -0.056976855 0.009901613
v 0.05086595 0.0025224984 0.055245608
v 0.041272953 0.0639029 0.08282775
v 0.115284525 -0.0033821464 0.07167831
v -0.064112246 -0.024104714 -0.08191994
v -0.020752832 -0.059784174 -0.08002834
v -0.04537566 -0.01093024 -0.048048645
v -0.01672937 -0.023460865 -0.03358671
v -0.064112246 -0.024104714 -0.08191994
v -0.04537566 -0.01093024 -0.048048645
v -0.10763377 0.027524471 -0.08282776
v -0.061990738 0.047458917 -0.016068399
v -0.0064670593 0.021765426 0.011907935
v -0.01672937 -0.023460865 -0.03358671
v 0.060931295 -0.04508388 -0.0045877993
v 0.05738166 0.012692004 0.039304256
v 0.04795021 0.072456405 0.06610128
v 0.12039072 0.0068612844 0.055393696
v -0.0064670593 0.021765426 0.011907935
v -0.016175434 0.012357548 0.026447922
v -0.073996425 0.03729716 -0.0037526488
v -0.061990738 0.047458917 -0.016068399
v -0.01672937 -0.023460865 -0.03358671
v -0.026454762 -0.035733372 -0.02130124
v 0.054217696 -0.056976855 0.009901613
v 0.060931295 -0.04508388 -0.0045877993
v 0.04795021 0.072456405 0.06610128
v 0.041272953 0.0639029 0.08282775
v -0.016175434 0.012357548 0.026447922
v -0.0064670593 0.021765426 0.011907935
v 0.060931295 -0.04508388 -0.0045877993
v 0.054217696 -0.056976855 0.009901613
v 0.115284525 -0.0033821464 0.07167831
v 0.12039072 0.0068612844 0.055393696
v 0.12039072 0.0068612844 0.055393696
v 0.115284525 -0.0033821464 0.07167831
v 0.041272953 0.0639029 0.08282775
v 0.04795021 0.072456405 0.06610128
v -0.064112246 -0.024104714 -0.08191994
v -0.0759553 -0.035729855 -0.070847034
v -0.03172037 -0.07245639 -0.06911403
v -0.020752832 -0.059784174 -0.08002834
v -0.020752832 -0.059784174 -0.08002834
v -0.03172037 -0.07245639 -0.06911403
v -0.026454762 -0.035733372 -0.02130124
v -0.01672937 -0.023460865 -0.03358671
v -0.10763377 0.027524471 -0.08282776
v -0.12039071 0.017219946 -0.071385086
v -0.0759553 -0.035729855 -0.070847034
v -0.064112246 -0.024104714 -0.08191994
v -0.061990738 0.047458917 -0.016068399
v -0.073996425 0.03729716 -0.0037526488
v -0.12039071 0.017219946 -0.071385086
v -0.10763377 0.027524471 -0.08282776
vt 0.375 0.96875
vt 0.375 1
vt 0.40625 0.96875
vt 0.40625 1
vt 0.34375 0
vt 0.34375 0.03125
vt 0.375 0
vt 0.375 0.03125
vt 0.40625 0.03125
vt 0.40625 0
vt 0.4375 0
vt 0.4375 0.03125
vt 0.4375 0.0625
vt 0.46875 0.03125
vt 0.375 0.96875
vt 0.40625 0.96875
vt 0.375 1
vt 0.40625 1
vt 0.34375 0
vt 0.375 0
vt 0.34375 0.03125
vt 0.375 0.03125
vt 0.40625 0.03125
vt 0.40625 0
vt 0.4375 0
vt 0.4375 0.03125
vt 0.4375 0.0625
vt 0.46875 0.03125
vt 0.40625 0.03125
vt 0.40625 0.03125
vt 0.375 0.03125
vt 0.375 0.03125
vt 0.40625 0
vt 0.40625 0
vt 0.4375 0
vt 0.4375 0
vt 0.4375 0.0625
vt 0.4375 0.0625
vt 0.40625 0.03125
vt 0.40625 0.03125
vt 0.4375 0
vt 0.4375 0
vt 0.46875 0.03125
vt 0.46875 0.03125
vt 0.46875 0.03125
vt 0.46875 0.03125
vt 0.4375 0.0625
vt 0.4375 0.0625
vt 0.375 0.96875
vt 0.375 0.96875
vt 0.40625 0.96875
vt 0.40625 0.96875
vt 0.40625 0.96875
vt 0.40625 0.96875
vt 0.40625 1
vt 0.40625 1
vt 0.34375 0.03125
vt 0.34375 0.03125
vt 0.34375 0
vt 0.34375 0
vt 0.375 0.03125
vt 0.375 0.03125
vt 0.34375 0.03125
vt 0.34375 0.03125
vn -0.60174453 -0.574203 0.55515254
vn -0.59143627 -0.54451436 0.5947329
vn -0.5477752 -0.6327113 0.5473744
vn -0.48482975 -0.5840777 0.6509941
vn -0.60174453 -0.574203 0.55515254
vn -0.6370096 -0.5091749 0.57875717
vn -0.59143627 -0.54451436 0.5947329
vn -0.5993551 -0.5091198 0.6177139
vn -0.45242834 -0.5380419 0.71120995
vn -0.48482975 -0.5840777 0.6509941
vn -0.3631842 -0.5873842 0.7232407
vn -0.32976446 -0.5122991 0.79297227
vn -0.34659168 -0.42900985 0.83416104
vn -0.25530705 -0.52399045 0.8125591
vn 0.60181564 0.5733793 -0.5559263
vn 0.5479349 0.63365465 -0.546122
vn 0.59356785 0.5439732 -0.5931023
vn 0.48599067 0.58529323 -0.6490337
vn 0.60181564 0.5733793 -0.5559263
vn 0.59356785 0.5439732 -0.5931023
vn 0.63745457 0.50853044 -0.57883376
vn 0.60200953 0.5084984 -0.61564106
vn 0.45292145 0.5381551 -0.7108103
vn 0.48599067 0.58529323 -0.6490337
vn 0.3604937 0.5883215 -0.7238247
vn 0.32803732 0.5120755 -0.7938327
vn 0.34411377 0.428826 -0.8352808
vn 0.25595477 0.5235753 -0.81262296
vn 0.040668633 0.7915839 0.6097056
vn 0.04066864 0.791584 0.6097056
vn 0.040668633 0.7915839 0.60970557
vn 0.04066864 0.7915839 0.60970557
vn 0.044336036 -0.75501233 -0.6542101
vn 0.04433604 -0.75501233 -0.65421003
vn 0.044336032 -0.75501233 -0.65421003
vn 0.04433604 -0.75501233 -0.6542101
vn -0.6978007 0.7148785 0.044978
vn -0.6978007 0.7148785 0.044978
vn -0.6978007 0.7148785 0.044977996
vn -0.69780064 0.7148785 0.044977996
vn 0.7438062 -0.64431685 -0.1777871
vn 0.7438062 -0.64431685 -0.17778711
vn 0.7438061 -0.64431685 -0.17778708
vn 0.7438061 -0.64431685 -0.1777871
vn 0.6062702 0.57842064 0.545771
vn 0.6062702 0.57842064 0.545771
vn 0.6062702 0.5784206 0.545771
vn 0.6062702 0.5784206 0.54577106
vn -0.38380802 -0.40361196 -0.8305352
vn -0.3837732 -0.40363908 -0.83053815
vn -0.33148304 -0.4427234 -0.83313566
vn -0.331483 -0.44272333 -0.83313566
vn 0.84920925 -0.45462 0.2686342
vn 0.84920925 -0.45462 0.26863417
vn 0.84920925 -0.45461994 0.26863417
vn 0.84920925 -0.45462 0.2686342
vn -0.42607626 -0.36977014 -0.82566893
vn -0.4260762 -0.3697701 -0.82566893
vn -0.3837732 -0.40363908 -0.83053815
vn -0.38380802 -0.40361196 -0.8305352
vn -0.55230814 0.8229233 0.13324036
vn -0.55230814 0.82292324 0.13324034
vn -0.55230814 0.82292324 0.13324034
vn -0.55230814 0.82292324 0.13324034
g shard92_0
f 3/3/3 2/2/2 1/1/1
f 3/3/3 4/4/4 2/2/2
f 7/7/7 6/6/6 5/5/5
f 7/7/7 8/8/8 6/6/6
f 9/9/9 8/8/8 7/7/7
f 9/9/9 7/7/7 10/10/10
f 11/11/11 9/9/9 10/10/10
f 11/11/11 12/12/12 9/9/9
f 13/13/13 9/9/9 12/12/12
f 14/14/14 12/12/12 11/11/11
f 14/14/14 13/13/13 12/12/12
f 17/17/17 16/16/16 15/15/15
f 18/18/18 16/16/16 17/17/17
f 21/21/21 20/20/20 19/19/19
f 22/22/22 20/20/20 21/21/21
f 22/22/22 23/23/23 20/20/20
f 20/20/20 23/23/23 24/24/24
f 23/23/23 25/25/25 24/24/24
f 26/26/26 25/25/25 23/23/23
f 23/23/23 27/27/27 26/26/26
f 26/26/26 28/28/28 25/25/25
f 27/27/27 28/28/28 26/26/26
f 31/31/31 30/30/30 29/29/29
f 32/32/32 31/31/31 29/29/29
f 35/35/35 34/34/34 33/33/33
f 36/36/36 35/35/35 33/33/33
f 39/39/39 38/38/38 37/37/37
f 40/40/40 39/39/39 37/37/37
f 43/43/43 42/42/42 41/41/41
f 44/44/44 43/43/43 41/41/41
f 47/47/47 46/46/46 45/45/45
f 48/48/48 47/47/47 45/45/45
f 51/51/51 50/50/50 49/49/49
f 52/52/52 51/51/51 49/49/49
f 55/55/55 54/54/54 53/53/53
f 56/56/56 55/55/55 53/53/53
f 59/59/59 58/58/58 57/57/57
f 60/60/60 59/59/59 57/57/57
f 63/63/63 62/62/62 61/61/61
f 64/64/64 63/63/63 61/61/61
