g shard71
v 0.07477082 -0.07367455 0.0525282
v 0.1005167 0.006580666 0.04544789
v 0.1729025 -0.002503134 0.04028714
v 0.1033653 0.09300697 0.02188462
v 0.004316099 0.01533112 0.0369845
v -0.01621464 -0.09675183 0.04170528
v -0.07126559 0.01454429 0.01676226
v -0.104347 -0.06763251 0.01470858
v -0.1542345 -0.06111303 -0.01109007
v -0.1729025 0.0171096 -0.03498071
v -0.1425205 0.06854445 -0.03156301
v -0.06873371 0.09824497 -0.008826226
v 0.01183224 0.08236249 0.01958135
v 0.07534622 -0.07497037 0.03269401
v 0.1711166 -0.005727671 0.02073133
v 0.1001536 0.003105618 0.02575544
v 0.102899 0.08777246 0.00264892
v 0.007681504 0.01175226 0.01759726
v -0.01220222 -0.09824497 0.02221459
v -0.06459574 0.01074523 -0.001706094
v -0.09728471 -0.07002721 -0.003735632
v -0.1453706 -0.06429987 -0.02873284
v -0.1640337 0.0134666 -0.0525282
v -0.1342624 0.06371528 -0.0490995
v -0.06220037 0.09253663 -0.02680489
v 0.01505709 0.07681981 0.0007668436
v 0.07534622 -0.07497037 0.03269401
v 0.07477082 -0.07367455 0.0525282
v 0.1729025 -0.002503134 0.04028714
v 0.1711166 -0.005727671 0.02073133
v -0.01220222 -0.09824497 0.02221459
v -0.01621464 -0.09675183 0.04170528
v 0.1711166 -0.005727671 0.02073133
v 0.1729025 -0.002503134 0.04028714
v 0.1033653 0.09300697 0.02188462
v 0.102899 0.08777246 0.00264892
v -0.1453706 -0.06429987 -0.02873284
v -0.1542345 -0.06111303 -0.01109007
v -0.104347 -0.06763251 0.01470858
v -0.09728471 -0.07002721 -0.003735632
v -0.01621464 -0.09675183 0.04170528
v -0.01220222 -0.09824497 0.02221459
v -0.1640337 0.0134666 -0.0525282
v -0.1729025 0.0171096 -0.03498071
v -0.1542345 -0.06111303 -0.01109007
v -0.1453706 -0.06429987 -0.02873284
v -0.1342624 0.06371528 -0.0490995
v -0.1425205 0.06854445 -0.03156301
v -0.1729025 0.0171096 -0.03498071
v -0.1640337 0.0134666 -0.0525282
v -0.06220037 0.09253663 -0.02680489
v -0.06873371 0.09824497 -0.008826226
v -0.1425205 0.06854445 -0.03156301
v -0.1342624 0.06371528 -0.0490995
v 0.102899 0.08777246 0.00264892
v 0.1033653 0.09300697 0.02188462
v 0.01183224 0.08236249 0.01958135
v 0.01505709 0.07681981 0.0007668436
v -0.06873371 0.09824497 -0.008826226
v -0.06220037 0.09253663 -0.02680489
vt 0.5 0.125
vt 0.5 0.15625
vt 0.53125 0.15625
vt 0.5 0.1875
vt 0.46875 0.15625
vt 0.46875 0.125
vt 0.4375 0.15625
vt 0.4375 0.125
vt 0.40625 0.125
vt 0.40625 0.15625
vt 0.40625 0.1875
vt 0.4375 0.1875
vt 0.46875 0.1875
vt 0.5 0.125
vt 0.53125 0.15625
vt 0.5 0.15625
vt 0.5 0.1875
vt 0.46875 0.15625
vt 0.46875 0.125
vt 0.4375 0.15625
vt 0.4375 0.125
vt 0.40625 0.125
vt 0.40625 0.15625
vt 0.40625 0.1875
vt 0.4375 0.1875
vt 0.46875 0.1875
vt 0.5 0.125
vt 0.5 0.125
vt 0.53125 0.15625
vt 0.53125 0.15625
vt 0.46875 0.125
vt 0.46875 0.125
vt 0.53125 0.15625
vt 0.53125 0.15625
vt 0.5 0.1875
vt 0.5 0.1875
vt 0.40625 0.125
vt 0.40625 0.125
vt 0.4375 0.125
vt 0.4375 0.125
vt 0.46875 0.125
vt 0.46875 0.125
vt 0.40625 0.15625
vt 0.40625 0.15625
vt 0.40625 0.125
vt 0.40625 0.125
vt 0.40625 0.1875
vt 0.40625 0.1875
vt 0.40625 0.15625
vt 0.40625 0.15625
vt 0.4375 0.1875
vt 0.4375 0.1875
vt 0.40625 0.1875
vt 0.40625 0.1875
vt 0.5 0.1875
vt 0.5 0.1875
vt 0.46875 0.1875
vt 0.46875 0.1875
vt 0.4375 0.1875
vt 0.4375 0.1875
vn -0.07929523 0.08156434 0.9935087
vn 0.0100677 0.1760057 0.9843377
vn 0.09138052 0.1708163 0.9810563
vn -0.01325496 0.2634226 0.9645895
vn -0.165928 0.1616451 0.9727994
vn -0.2018546 0.07643624 0.9764283
vn -0.3292922 0.1812056 0.9266775
vn -0.3378587 0.1126574 0.9344302
vn -0.4425535 0.1605305 0.8822564
vn -0.4428939 0.177767 0.878774
vn -0.4168064 0.2356655 0.8779147
vn -0.3233186 0.2855855 0.9021674
vn -0.1517415 0.2717377 0.9503331
vn 0.08006033 -0.08140873 -0.9934601
vn -0.09085424 -0.1719779 -0.9809022
vn -0.01085746 -0.1763473 -0.9842681
vn 0.01159747 -0.2636147 -0.9645584
vn 0.1661052 -0.1609955 -0.9728769
vn 0.2024172 -0.07613096 -0.9763356
vn 0.330841 -0.1808845 -0.9261884
vn 0.3385271 -0.1135331 -0.9340822
vn 0.4442486 -0.160753 -0.8813635
vn 0.4440389 -0.17728 -0.8782945
vn 0.4176803 -0.2357582 -0.8774744
vn 0.325222 -0.2861062 -0.9013178
vn 0.1516542 -0.2717848 -0.9503336
vn 0.4451756 -0.8913569 0.08544939
vn 0.4471 -0.8904056 0.08532049
vn 0.5909522 -0.803303 0.07402577
vn 0.5909521 -0.8033031 0.07402577
vn 0.2393265 -0.9661377 0.09644058
vn 0.2393265 -0.9661377 0.0964406
vn 0.8117574 0.5589984 -0.1690285
vn 0.8117575 0.5589983 -0.1690285
vn 0.8117575 0.5589983 -0.1690285
vn 0.8117575 0.5589983 -0.1690285
vn -0.1641805 -0.9832122 0.07961478
vn -0.1641805 -0.9832122 0.07961478
vn -0.2604755 -0.9649233 0.03279762
vn -0.2606576 -0.9648771 0.03270725
vn -0.3156477 -0.9488628 0.005096402
vn -0.3156476 -0.9488628 0.005096402
vn -0.8689501 -0.3226693 -0.375247
vn -0.8689501 -0.3226693 -0.375247
vn -0.8689501 -0.3226693 -0.375247
vn -0.8689501 -0.3226694 -0.375247
vn -0.7423959 0.4712456 -0.4762098
vn -0.7423959 0.4712456 -0.4762098
vn -0.7423959 0.4712457 -0.4762098
vn -0.7423959 0.4712456 -0.4762098
vn -0.2459704 0.8965198 -0.3684438
vn -0.2459704 0.8965198 -0.3684438
vn -0.2459704 0.8965198 -0.3684438
vn -0.2459704 0.8965198 -0.3684438
vn -0.10842 0.954391 -0.2781779
vn -0.10842 0.9543909 -0.2781779
vn 0.07410361 0.9646058 -0.2530698
vn 0.07449064 0.9645925 -0.2530069
vn 0.2650702 0.9394966 -0.2169882
vn 0.2650702 0.9394966 -0.2169883
g shard71_0
f 3/3/3 2/2/2 1/1/1
f 3/3/3 4/4/4 2/2/2
f 1/1/1 2/2/2 5/5/5
f 1/1/1 5/5/5 6/6/6
f 6/6/6 5/5/5 7/7/7
f 6/6/6 7/7/7 8/8/8
f 7/7/7 9/9/9 8/8/8
f 7/7/7 10/10/10 9/9/9
f 7/7/7 11/11/11 10/10/10
f 7/7/7 12/12/12 11/11/11
f 2/2/2 13/13/13 5/5/5
f 2/2/2 4/4/4 13/13/13
f 13/13/13 7/7/7 5/5/5
f 13/13/13 12/12/12 7/7/7
f 16/16/16 15/15/15 14/14/14
f 17/17/17 15/15/15 16/16/16
f 16/16/16 14/14/14 18/18/18
f 18/18/18 14/14/14 19/19/19
f 18/18/18 19/19/19 20/20/20
f 20/20/20 19/19/19 21/21/21
f 22/22/22 20/20/20 21/21/21
f 23/23/23 20/20/20 22/22/22
f 24/24/24 20/20/20 23/23/23
f 25/25/25 20/20/20 24/24/24
f 26/26/26 16/16/16 18/18/18
f 17/17/17 16/16/16 26/26/26
f 20/20/20 26/26/26 18/18/18
f 25/25/25 26/26/26 20/20/20
f 29/29/29 28/28/28 27/27/27
f 30/30/30 29/29/29 27/27/27
f 27/27/27 28/28/28 31/31/31
f 28/28/28 32/32/32 31/31/31
f 35/35/35 34/34/34 33/33/33
f 36/36/36 35/35/35 33/33/33
f 39/39/39 38/38/38 37/37/37
f 40/40/40 39/39/39 37/37/37
f 41/41/41 39/39/39 40/40/40
f 42/42/42 41/41/41 40/40/40
f 45/45/45 44/44/44 43/43/43
f 46/46/46 45/45/45 43/43/43
f 49/49/49 48/48/48 47/47/47
f 50/50/50 49/49/49 47/47/47
f 53/53/53 52/52/52 51/51/51
f 54/54/54 53/53/53 51/51/51
f 57/57/57 56/56/56 55/55/55
f 58/58/58 57/57/57 55/55/55
f 59/59/59 57/57/57 58/58/58
f 60/60/60 59/59/59 58/58/58
