g shard28
v -0.34327495 -0.21722735 -0.14732718
v -0.6178949 -0.39100924 -0.26518893
v -0.504031 -0.45091206 -0.38772386
v -0.28001723 -0.2505067 -0.21540216
v -0.28001723 -0.2505067 -0.21540216
v -0.504031 -0.45091206 -0.38772386
v -0.58261 -0.3672943 -0.3607422
v -0.32367224 -0.2040524 -0.20041233
v -0.32367224 -0.2040524 -0.20041233
v -0.58261 -0.3672943 -0.3607422
v -0.5921751 -0.29251546 -0.414863
v -0.3289862 -0.16250859 -0.23047945
v -0.38772607 -0.1690975 -0.074264415
v -0.6979069 -0.3043755 -0.13367595
v -0.6178949 -0.39100924 -0.26518893
v -0.34327495 -0.21722735 -0.14732718
v -0.40052363 -0.14859481 -0.0038194838
v -0.7209425 -0.26747066 -0.0068750707
v -0.6979069 -0.3043755 -0.13367595
v -0.38772607 -0.1690975 -0.074264415
v -0.40978438 -0.070103705 -0.090891235
v -0.7376119 -0.12618667 -0.16360423
v -0.7209425 -0.26747066 -0.0068750707
v -0.40052363 -0.14859481 -0.0038194838
v -0.41412255 0.00729474 -0.095375374
v -0.7454206 0.013130533 -0.17167568
v -0.7376119 -0.12618667 -0.16360423
v -0.40978438 -0.070103705 -0.090891235
v -0.3289862 -0.16250859 -0.23047945
v -0.5921751 -0.29251546 -0.414863
v -0.5148035 -0.27175283 -0.524755
v -0.28600195 -0.1509738 -0.29153055
v -0.28600195 -0.1509738 -0.29153055
v -0.5148035 -0.27175283 -0.524755
v -0.53861153 -0.11298366 -0.5547966
v -0.2992286 -0.0627687 -0.30822033
v -0.2992286 -0.0627687 -0.30822033
v -0.53861153 -0.11298366 -0.5547966
v -0.561376 0.011104328 -0.54756486
v -0.31187555 0.006169071 -0.3042027
v -0.31187555 0.006169071 -0.3042027
v -0.561376 0.011104328 -0.54756486
v -0.6524799 -0.028514989 -0.42089558
v -0.36248884 -0.015841661 -0.23383088
v -0.36248884 -0.015841661 -0.23383088
v -0.6524799 -0.028514989 -0.42089558
v -0.7014335 0.11385682 -0.29848662
v -0.38968527 0.06325379 -0.1658259
v -0.38968527 0.06325379 -0.1658259
v -0.7014335 0.11385682 -0.29848662
v -0.7454206 0.013130533 -0.17167568
v -0.41412255 0.00729474 -0.095375374
vt 0 0
vt 0 1
vt 0.08888119 1
vt 0.08888119 0
vt 0.08888119 0
vt 0.08888119 1
vt 0.14784808 1
vt 0.14784808 0
vt 0.14784808 0
vt 0.14784808 1
vt 0.19427268 1
vt 0.19427268 0
vt 0.9116344 0
vt 0.9116344 1
vt 1 1
vt 1 0
vt 0.844573 0
vt 0.844573 1
vt 0.9116344 1
vt 0.9116344 0
vt 0.73868686 0
vt 0.73868686 1
vt 0.844573 1
vt 0.844573 0
vt 0.6687677 0
vt 0.6687677 1
vt 0.73868686 1
vt 0.73868686 0
vt 0.19427268 0
vt 0.19427268 1
vt 0.2623022 1
vt 0.2623022 0
vt 0.2623022 0
vt 0.2623022 1
vt 0.3440081 1
vt 0.3440081 0
vt 0.3440081 0
vt 0.3440081 1
vt 0.4072224 1
vt 0.4072224 0
vt 0.4072224 0
vt 0.4072224 1
vt 0.48775256 1
vt 0.48775256 0
vt 0.48775256 0
vt 0.48775256 1
vt 0.5848189 1
vt 0.5848189 0
vt 0.5848189 0
vt 0.5848189 1
vt 0.6687677 1
vt 0.6687677 0
vn -0.23301889 0.7705694 -0.59323263
vn -0.23301886 0.7705694 -0.5932326
vn -0.23301889 0.7705694 -0.59323263
vn -0.23301889 0.7705694 -0.59323263
vn -0.22138117 -0.48165318 0.847939
vn -0.22138117 -0.48165324 0.847939
vn -0.22138116 -0.48165318 0.847939
vn -0.22138117 -0.48165324 0.847939
vn -0.64972657 0.38939622 0.65285987
vn -0.6497265 0.38939622 0.6528599
vn -0.6497265 0.38939622 0.65285987
vn -0.6497265 0.3893962 0.6528599
vn -0.2091285 0.75334024 -0.6234932
vn -0.20912848 0.75334024 -0.6234931
vn -0.20912853 0.75334024 -0.62349313
vn -0.2091285 0.75334024 -0.6234931
vn -0.3270645 0.8897557 -0.3183764
vn -0.32706448 0.8897557 -0.3183764
vn -0.32706448 0.8897557 -0.31837636
vn -0.3270645 0.8897557 -0.31837636
vn 0.2665974 -0.7016031 -0.6608169
vn 0.26659742 -0.70160306 -0.66081697
vn 0.2665974 -0.70160306 -0.6608169
vn 0.26659742 -0.70160306 -0.66081697
vn 0.22348155 -0.043887172 -0.9737196
vn 0.22348155 -0.043887172 -0.9737196
vn 0.22348157 -0.043887172 -0.9737196
vn 0.22348157 -0.04388717 -0.9737196
vn -0.38494653 0.9177606 -0.09763037
vn -0.38494653 0.9177606 -0.09763037
vn -0.38494655 0.9177606 -0.09763036
vn -0.38494653 0.9177606 -0.09763037
vn -0.71967465 0.023382317 0.6939177
vn -0.71967465 0.023382323 0.69391775
vn -0.71967465 0.023382317 0.69391763
vn -0.71967465 0.023382321 0.6939177
vn -0.69006324 -0.1676275 0.70406926
vn -0.69006324 -0.1676275 0.70406926
vn -0.69006324 -0.1676275 0.70406926
vn -0.6900633 -0.1676275 0.70406926
vn 0.16247255 -0.9689811 -0.18622099
vn 0.16247255 -0.9689811 -0.186221
vn 0.16247253 -0.9689811 -0.18622099
vn 0.16247255 -0.9689811 -0.186221
vn -0.37900737 -0.67478555 0.63325983
vn -0.37900734 -0.67478555 0.63325983
vn -0.37900734 -0.67478555 0.63325983
vn -0.37900734 -0.67478555 0.6332598
vn 0.122068875 -0.79737246 -0.591013
vn 0.122068875 -0.79737246 -0.591013
vn 0.122068875 -0.79737246 -0.59101295
vn 0.12206888 -0.79737246 -0.591013
g shard28_0
f 3/3/3 2/2/2 1/1/1
f 4/4/4 3/3/3 1/1/1
f 7/7/7 6/6/6 5/5/5
f 8/8/8 7/7/7 5/5/5
f 11/11/11 10/10/10 9/9/9
f 12/12/12 11/11/11 9/9/9
f 15/15/15 14/14/14 13/13/13
f 16/16/16 15/15/15 13/13/13
f 19/19/19 18/18/18 17/17/17
f 20/20/20 19/19/19 17/17/17
f 23/23/23 22/22/22 21/21/21
f 24/24/24 23/23/23 21/21/21
f 27/27/27 26/26/26 25/25/25
f 28/28/28 27/27/27 25/25/25
f 31/31/31 30/30/30 29/29/29
f 32/32/32 31/31/31 29/29/29
f 35/35/35 34/34/34 33/33/33
f 36/36/36 35/35/35 33/33/33
f 39/39/39 38/38/38 37/37/37
f 40/40/40 39/39/39 37/37/37
f 43/43/43 42/42/42 41/41/41
f 44/44/44 43/43/43 41/41/41
f 47/47/47 46/46/46 45/45/45
f 48/48/48 47/47/47 45/45/45
f 51/51/51 50/50/50 49/49/49
f 52/52/52 51/51/51 49/49/49
