g shard11
v -0.2122341 0.201425 0.3193688
v -0.38202137 0.36256498 0.57486385
v -0.48498005 0.40204576 0.46155587
v -0.26943335 0.22335875 0.25641993
v -0.25375354 0.23974988 0.25785774
v -0.45675638 0.4315498 0.46414393
v -0.38202137 0.36256498 0.57486385
v -0.2122341 0.201425 0.3193688
v -0.20558837 0.3137607 0.21922605
v -0.37005907 0.56476927 0.3946069
v -0.45675638 0.4315498 0.46414393
v -0.25375354 0.23974988 0.25785774
v -0.24784772 0.32413644 0.14501053
v -0.4461259 0.58344555 0.26101896
v -0.37005907 0.56476927 0.3946069
v -0.20558837 0.3137607 0.21922605
v -0.24807964 0.34684077 0.07816527
v -0.44654334 0.62431335 0.14069748
v -0.4461259 0.58344555 0.26101896
v -0.24784772 0.32413644 0.14501053
v -0.30944708 0.2932835 0.082959436
v -0.55700475 0.5279103 0.14932698
v -0.44654334 0.62431335 0.14069748
v -0.24807964 0.34684077 0.07816527
v -0.39587852 0.012335643 0.16322438
v -0.71258134 0.022204157 0.29380387
v -0.7311064 0.17897692 0.15188105
v -0.40617022 0.09943162 0.08437836
v -0.38290146 0.08268195 0.1766544
v -0.68922263 0.1488275 0.3179779
v -0.71258134 0.022204157 0.29380387
v -0.39587852 0.012335643 0.16322438
v -0.40617022 0.09943162 0.08437836
v -0.7311064 0.17897692 0.15188105
v -0.69500506 0.31481528 0.10758646
v -0.38611394 0.17489739 0.059770256
v -0.34037018 0.14538547 0.22509162
v -0.6126663 0.26169384 0.4051649
v -0.63250387 0.17119315 0.42020777
v -0.35139102 0.0951073 0.23344876
v -0.35139102 0.0951073 0.23344876
v -0.63250387 0.17119315 0.42020777
v -0.68922263 0.1488275 0.3179779
v -0.38290146 0.08268195 0.1766544
v -0.30094728 0.21198224 0.23049816
v -0.54170513 0.381568 0.4148967
v -0.6126663 0.26169384 0.4051649
v -0.34037018 0.14538547 0.22509162
v -0.26943335 0.22335875 0.25641993
v -0.48498005 0.40204576 0.46155587
v -0.54170513 0.381568 0.4148967
v -0.30094728 0.21198224 0.23049816
v -0.38611394 0.17489739 0.059770256
v -0.69500506 0.31481528 0.10758646
v -0.6506071 0.42567563 -0.021471985
v -0.3614484 0.23648645 -0.01192888
v -0.3614484 0.23648645 -0.01192888
v -0.6506071 0.42567563 -0.021471985
v -0.61262137 0.44983858 0.16761112
v -0.3403452 0.24991032 0.09311729
v -0.3403452 0.24991032 0.09311729
v -0.61262137 0.44983858 0.16761112
v -0.55700475 0.5279103 0.14932698
v -0.30944708 0.2932835 0.082959436
vt 0 0
vt 0 1
vt 0.068803065 1
vt 0.068803065 0
vt 0.068803065 0
vt 0.068803065 1
vt 0.13422751 1
vt 0.13422751 0
vt 0.13422751 0
vt 0.13422751 1
vt 0.20972522 1
vt 0.20972522 0
vt 0.20972522 0
vt 0.20972522 1
vt 0.27711388 1
vt 0.27711388 0
vt 0.27711388 0
vt 0.27711388 1
vt 0.33241194 1
vt 0.33241194 0
vt 0.33241194 0
vt 0.33241194 1
vt 0.39632335 1
vt 0.39632335 0
vt 0.66401815 0
vt 0.66401815 1
vt 0.7563956 1
vt 0.7563956 0
vt 0.7563956 0
vt 0.7563956 1
vt 0.8134066 1
vt 0.8134066 0
vt 0.59988844 0
vt 0.59988844 1
vt 0.66401815 1
vt 0.66401815 0
vt 0.8652046 0
vt 0.8652046 1
vt 0.9060505 1
vt 0.9060505 0
vt 0.8134066 0
vt 0.8134066 1
vt 0.8652046 1
vt 0.8652046 0
vt 0.9060505 0
vt 0.9060505 1
vt 0.9668183 1
vt 0.9668183 0
vt 0.9668183 0
vt 0.9668183 1
vt 1 1
vt 1 0
vt 0.5233717 0
vt 0.5233717 1
vt 0.59988844 1
vt 0.59988844 0
vt 0.43878886 0
vt 0.43878886 1
vt 0.5233717 1
vt 0.5233717 0
vt 0.39632335 0
vt 0.39632335 1
vt 0.43878886 1
vt 0.43878886 0
vn 0.5196469 0.83493197 -0.18126185
vn 0.5196469 0.83493197 -0.18126188
vn 0.5196469 0.83493197 -0.18126188
vn 0.5196468 0.83493197 -0.18126187
vn -0.68332964 -0.7300823 0.006359299
vn -0.68332964 -0.7300822 0.0063592996
vn -0.68332964 -0.7300823 0.0063592987
vn -0.68332964 -0.73008233 0.006359299
vn -0.68148005 0.06291204 -0.7291275
vn -0.68148005 0.06291204 -0.7291276
vn -0.6814801 0.06291204 -0.7291275
vn -0.68148005 0.06291203 -0.7291275
vn -0.688448 -0.66048115 0.29967332
vn -0.6884481 -0.6604811 0.29967332
vn -0.688448 -0.66048115 0.29967332
vn -0.6884481 -0.6604811 0.29967332
vn -0.8187179 -0.5445493 -0.1821185
vn -0.8187179 -0.5445493 -0.18211848
vn -0.8187178 -0.5445493 -0.18211846
vn -0.8187178 -0.54454935 -0.18211848
vn 0.16594416 -0.10234646 0.98080975
vn 0.16594417 -0.10234647 0.98080975
vn 0.16594416 -0.10234648 0.98080975
vn 0.16594417 -0.10234649 0.98080975
vn 0.30421683 0.65882045 0.68804634
vn 0.3042168 0.6588205 0.68804634
vn 0.3042168 0.65882045 0.68804634
vn 0.3042168 0.65882045 0.6880463
vn -0.36376065 0.2389856 -0.9003133
vn -0.36376068 0.2389856 -0.9003133
vn -0.36376068 0.23898563 -0.9003133
vn -0.36376065 0.2389856 -0.9003133
vn 0.25314772 0.238451 0.9375805
vn 0.25314775 0.238451 0.93758065
vn 0.25314775 0.238451 0.9375805
vn 0.25314775 0.238451 0.9375805
vn -0.55632406 -0.01615059 -0.83080846
vn -0.55632406 -0.01615059 -0.83080846
vn -0.556324 -0.01615059 -0.83080846
vn -0.55632406 -0.01615059 -0.83080846
vn 0.08806367 0.96178013 -0.25927547
vn 0.08806365 0.96178013 -0.25927544
vn 0.08806365 0.96178013 -0.25927544
vn 0.08806366 0.96178013 -0.25927544
vn -0.4238571 0.31970534 -0.8474276
vn -0.4238571 0.3197053 -0.8474276
vn -0.4238571 0.31970534 -0.8474276
vn -0.42385715 0.31970537 -0.8474276
vn 0.15641572 0.82027775 -0.5501624
vn 0.15641572 0.82027775 -0.5501623
vn 0.15641573 0.82027775 -0.5501624
vn 0.15641573 0.82027775 -0.5501624
vn 0.38894346 0.6284448 0.673632
vn 0.38894346 0.62844485 0.6736321
vn 0.38894346 0.62844485 0.6736321
vn 0.3889435 0.6284448 0.6736321
vn -0.5398935 -0.8144576 0.21254121
vn -0.5398935 -0.81445754 0.21254121
vn -0.5398935 -0.8144576 0.21254121
vn -0.5398935 -0.8144576 0.21254121
vn 0.28068584 0.024752475 0.95948046
vn 0.28068584 0.024752477 0.95948046
vn 0.28068587 0.024752477 0.95948046
vn 0.28068587 0.024752475 0.95948046
g shard11_0
f 3/3/3 2/2/2 1/1/1
f 4/4/4 3/3/3 1/1/1
f 7/7/7 6/6/6 5/5/5
f 8/8/8 7/7/7 5/5/5
f 11/11/11 10/10/10 9/9/9
f 12/12/12 11/11/11 9/9/9
f 15/15/15 14/14/14 13/13/13
f 16/16/16 15/15/15 13/13/13
f 19/19/19 18/18/18 17/17/17
f 20/20/20 19/19/19 17/17/17
f 23/23/23 22/22/22 21/21/21
f 24/24/24 23/23/23 21/21/21
f 27/27/27 26/26/26 25/25/25
f 28/28/28 27/27/27 25/25/25
f 31/31/31 30/30/30 29/29/29
f 32/32/32 31/31/31 29/29/29
f 35/35/35 34/34/34 33/33/33
f 36/36/36 35/35/35 33/33/33
f 39/39/39 38/38/38 37/37/37
f 40/40/40 39/39/39 37/37/37
f 43/43/43 42/42/42 41/41/41
f 44/44/44 43/43/43 41/41/41
f 47/47/47 46/46/46 45/45/45
f 48/48/48 47/47/47 45/45/45
f 51/51/51 50/50/50 49/49/49
f 52/52/52 51/51/51 49/49/49
f 55/55/55 54/54/54 53/53/53
f 56/56/56 55/55/55 53/53/53
f 59/59/59 58/58/58 57/57/57
f 60/60/60 59/59/59 57/57/57
f 63/63/63 62/62/62 61/61/61
f 64/64/64 63/63/63 61/61/61
