g shard88
v 0.1294744 0.05331823 -0.07534108
v 0.1041602 -0.02083394 -0.02657041
v 0.1768236 0.04329422 -0.0534057
v 0.02304192 0.03714356 -0.07955068
v 0.03496018 -0.02597269 -0.03107992
v -0.06387233 -0.01607078 -0.02424523
v -0.06433935 0.03425348 -0.06411749
v -0.1152793 -0.006364822 -0.01429355
v -0.1105212 -0.06494462 0.0578725
v -0.1768236 -0.03974372 0.06817542
v 0.125908 0.06494465 -0.05950889
v 0.1721194 0.05506714 -0.0379374
v 0.1008272 -0.009001702 -0.01085594
v 0.0230256 0.04902257 -0.06365028
v 0.03512302 -0.01383498 -0.01533097
v -0.06013262 -0.002280444 -0.01051629
v -0.06053704 0.04637009 -0.04873317
v -0.1089868 0.006964505 -0.001023978
v -0.1042371 -0.04999447 0.06952044
v -0.1694473 -0.02504021 0.07955067
v 0.125908 0.06494465 -0.05950889
v 0.1768236 0.04329422 -0.0534057
v 0.1721194 0.05506714 -0.0379374
v 0.1294744 0.05331823 -0.07534108
v 0.0230256 0.04902257 -0.06365028
v 0.02304192 0.03714356 -0.07955068
v -0.06053704 0.04637009 -0.04873317
v -0.06433935 0.03425348 -0.06411749
v 0.1721194 0.05506714 -0.0379374
v 0.1768236 0.04329422 -0.0534057
v 0.1041602 -0.02083394 -0.02657041
v 0.1008272 -0.009001702 -0.01085594
v 0.1008272 -0.009001702 -0.01085594
v 0.1041602 -0.02083394 -0.02657041
v 0.03496018 -0.02597269 -0.03107992
v 0.03512302 -0.01383498 -0.01533097
v -0.06387233 -0.01607078 -0.02424523
v -0.06013262 -0.002280444 -0.01051629
v -0.1089868 0.006964505 -0.001023978
v -0.06433935 0.03425348 -0.06411749
v -0.06053704 0.04637009 -0.04873317
v -0.1152793 -0.006364822 -0.01429355
v -0.1694473 -0.02504021 0.07955067
v -0.1768236 -0.03974372 0.06817542
v -0.1042371 -0.04999447 0.06952044
v -0.1105212 -0.06494462 0.0578725
v -0.1768236 -0.03974372 0.06817542
v -0.1694473 -0.02504021 0.07955067
v -0.06013262 -0.002280444 -0.01051629
v -0.06387233 -0.01607078 -0.02424523
v -0.1105212 -0.06494462 0.0578725
v -0.1042371 -0.04999447 0.06952044
vt 0.53125 0.71875
vt 0.53125 0.75
vt 0.5625 0.71875
vt 0.5 0.71875
vt 0.5 0.75
vt 0.46875 0.75
vt 0.46875 0.71875
vt 0.4375 0.75
vt 0.4375 0.78125
vt 0.40625 0.78125
vt 0.53125 0.71875
vt 0.5625 0.71875
vt 0.53125 0.75
vt 0.5 0.71875
vt 0.5 0.75
vt 0.46875 0.75
vt 0.46875 0.71875
vt 0.4375 0.75
vt 0.4375 0.78125
vt 0.40625 0.78125
vt 0.53125 0.71875
vt 0.5625 0.71875
vt 0.5625 0.71875
vt 0.53125 0.71875
vt 0.5 0.71875
vt 0.5 0.71875
vt 0.46875 0.71875
vt 0.46875 0.71875
vt 0.5625 0.71875
vt 0.5625 0.71875
vt 0.53125 0.75
vt 0.53125 0.75
vt 0.53125 0.75
vt 0.53125 0.75
vt 0.5 0.75
vt 0.5 0.75
vt 0.46875 0.75
vt 0.46875 0.75
vt 0.4375 0.75
vt 0.46875 0.71875
vt 0.46875 0.71875
vt 0.4375 0.75
vt 0.40625 0.78125
vt 0.40625 0.78125
vt 0.4375 0.78125
vt 0.4375 0.78125
vt 0.40625 0.78125
vt 0.40625 0.78125
vt 0.46875 0.75
vt 0.46875 0.75
vt 0.4375 0.78125
vt 0.4375 0.78125
vn 0.1642174 -0.5805702 -0.7974778
vn 0.1315087 -0.5820912 -0.8024184
vn 0.2338233 -0.5887373 -0.7737668
vn -3.189291E-05 -0.6031018 -0.7976642
vn -0.01760001 -0.6110715 -0.7913797
vn -0.188366 -0.6534386 -0.7331687
vn -0.1459121 -0.6151966 -0.7747535
vn -0.2937614 -0.7234474 -0.6247624
vn -0.3443391 -0.7399041 -0.5779036
vn -0.3676708 -0.7337356 -0.5713582
vn -0.1662882 0.5807379 0.7969264
vn -0.2352096 0.5886457 0.7734162
vn -0.1335354 0.5823077 0.8019265
vn -0.002408994 0.6026033 0.7980373
vn 0.01519783 0.6112185 0.791316
vn 0.1876376 0.6524367 0.734247
vn 0.1479287 0.6117001 0.7771358
vn 0.2956397 0.7245058 0.6226463
vn 0.3463536 0.7411487 0.5750981
vn 0.3688162 0.7351756 0.568763
vn 0.06717475 0.8140372 -0.5769151
vn 0.3910922 0.78371 -0.4825406
vn 0.3910923 0.78371 -0.4825406
vn 0.06689285 0.8140231 -0.5769677
vn -0.1128583 0.7944236 -0.5967865
vn -0.1128553 0.7944236 -0.5967871
vn -0.1310914 0.7942259 -0.593313
vn -0.1310914 0.7942259 -0.593313
vn 0.6596348 -0.5076066 0.5542721
vn 0.6596348 -0.5076065 0.5542721
vn 0.6596348 -0.5076066 0.5542721
vn 0.6596348 -0.5076065 0.5542721
vn 0.01829356 -0.7944357 0.6070727
vn 0.01829356 -0.7944357 0.6070727
vn -0.01771657 -0.7675613 0.6407306
vn -0.01772675 -0.7675534 0.6407399
vn -0.04282519 -0.7473641 0.6630331
vn -0.04282519 -0.7473641 0.6630332
vn -0.7381731 0.6109096 -0.2861643
vn -0.7507586 0.6025924 -0.2706358
vn -0.7507586 0.6025925 -0.2706358
vn -0.7381638 0.6109156 -0.2861755
vn -0.7285056 0.6169603 -0.297724
vn -0.7285056 0.6169603 -0.297724
vn -0.09715775 -0.5820527 0.8073258
vn -0.09715775 -0.5820527 0.8073258
vn -0.09715776 -0.5820527 0.8073258
vn -0.09715775 -0.5820527 0.8073258
vn 0.8580156 -0.4739743 0.1978829
vn 0.8580156 -0.4739743 0.1978829
vn 0.8580156 -0.4739743 0.1978829
vn 0.8580156 -0.4739743 0.1978828
g shard88_0
f 3/3/3 2/2/2 1/1/1
f 2/2/2 4/4/4 1/1/1
f 2/2/2 5/5/5 4/4/4
f 4/4/4 5/5/5 6/6/6
f 4/4/4 6/6/6 7/7/7
f 7/7/7 6/6/6 8/8/8
f 6/6/6 9/9/9 8/8/8
f 8/8/8 9/9/9 10/10/10
f 13/13/13 12/12/12 11/11/11
f 14/14/14 13/13/13 11/11/11
f 15/15/15 13/13/13 14/14/14
f 15/15/15 14/14/14 16/16/16
f 16/16/16 14/14/14 17/17/17
f 16/16/16 17/17/17 18/18/18
f 19/19/19 16/16/16 18/18/18
f 19/19/19 18/18/18 20/20/20
f 23/23/23 22/22/22 21/21/21
f 22/22/22 24/24/24 21/21/21
f 21/21/21 24/24/24 25/25/25
f 24/24/24 26/26/26 25/25/25
f 25/25/25 26/26/26 27/27/27
f 26/26/26 28/28/28 27/27/27
f 31/31/31 30/30/30 29/29/29
f 32/32/32 31/31/31 29/29/29
f 35/35/35 34/34/34 33/33/33
f 36/36/36 35/35/35 33/33/33
f 37/37/37 35/35/35 36/36/36
f 38/38/38 37/37/37 36/36/36
f 41/41/41 40/40/40 39/39/39
f 40/40/40 42/42/42 39/39/39
f 39/39/39 42/42/42 43/43/43
f 42/42/42 44/44/44 43/43/43
f 47/47/47 46/46/46 45/45/45
f 48/48/48 47/47/47 45/45/45
f 51/51/51 50/50/50 49/49/49
f 52/52/52 51/51/51 49/49/49
