g shard90
v -0.13505141 -0.14850466 0.10436982
v -0.1276842 -0.05441784 0.098469734
v -0.04992114 -0.1247957 0.08428022
v -0.049219087 -0.03299932 0.072485924
v 0.05115658 -0.06814005 0.026848644
v 0.026684985 0.019694045 0.019483447
v 0.09212363 -0.03398835 -0.014382333
v 0.093318015 0.03199324 -0.043796748
v 0.1393368 0.010384053 -0.09084806
v 0.1085771 0.07498214 -0.0935394
v 0.06772187 0.07883233 -0.046736866
v 0.013183266 0.109589785 -0.024435818
v 0.0476743 0.13656522 -0.08029953
v 0.0003144443 0.14938156 -0.04884985
v -0.13933681 -0.14938155 0.08485401
v -0.056496084 -0.12635681 0.0656288
v -0.13263011 -0.056055166 0.07918793
v -0.05665216 -0.036184184 0.054323733
v 0.04082948 -0.071540296 0.01020506
v 0.016655803 0.013348371 0.003645122
v 0.078752816 -0.038876586 -0.02823931
v 0.07954192 0.025122985 -0.05656463
v 0.12442908 0.004017666 -0.10249244
v 0.0945774 0.06585549 -0.104369834
v 0.05532992 0.06947701 -0.0593431
v 0.0022139251 0.09963122 -0.037769973
v 0.03553632 0.12559544 -0.0917266
v -0.010825604 0.13818382 -0.061118096
v -0.13933681 -0.14938155 0.08485401
v -0.13505141 -0.14850466 0.10436982
v -0.04992114 -0.1247957 0.08428022
v -0.056496084 -0.12635681 0.0656288
v 0.05115658 -0.06814005 0.026848644
v 0.04082948 -0.071540296 0.01020506
v 0.09212363 -0.03398835 -0.014382333
v 0.078752816 -0.038876586 -0.02823931
v 0.1393368 0.010384053 -0.09084806
v 0.12442908 0.004017666 -0.10249244
v -0.13263011 -0.056055166 0.07918793
v -0.1276842 -0.05441784 0.098469734
v -0.13505141 -0.14850466 0.10436982
v -0.13933681 -0.14938155 0.08485401
v -0.05665216 -0.036184184 0.054323733
v -0.1276842 -0.05441784 0.098469734
v -0.13263011 -0.056055166 0.07918793
v -0.049219087 -0.03299932 0.072485924
v 0.016655803 0.013348371 0.003645122
v 0.026684985 0.019694045 0.019483447
v 0.0022139251 0.09963122 -0.037769973
v 0.026684985 0.019694045 0.019483447
v 0.016655803 0.013348371 0.003645122
v 0.013183266 0.109589785 -0.024435818
v -0.010825604 0.13818382 -0.061118096
v 0.0003144443 0.14938156 -0.04884985
v 0.03553632 0.12559544 -0.0917266
v 0.0476743 0.13656522 -0.08029953
v 0.0003144443 0.14938156 -0.04884985
v -0.010825604 0.13818382 -0.061118096
v 0.12442908 0.004017666 -0.10249244
v 0.1393368 0.010384053 -0.09084806
v 0.1085771 0.07498214 -0.0935394
v 0.0945774 0.06585549 -0.104369834
v 0.0476743 0.13656522 -0.08029953
v 0.03553632 0.12559544 -0.0917266
vt 0.53125 0.125
vt 0.53125 0.15625
vt 0.5625 0.125
vt 0.5625 0.15625
vt 0.59375 0.15625
vt 0.59375 0.1875
vt 0.625 0.15625
vt 0.625 0.1875
vt 0.65625 0.1875
vt 0.65625 0.21875
vt 0.625 0.21875
vt 0.59375 0.21875
vt 0.625 0.25
vt 0.59375 0.25
vt 0.53125 0.125
vt 0.5625 0.125
vt 0.53125 0.15625
vt 0.5625 0.15625
vt 0.59375 0.15625
vt 0.59375 0.1875
vt 0.625 0.15625
vt 0.625 0.1875
vt 0.65625 0.1875
vt 0.65625 0.21875
vt 0.625 0.21875
vt 0.59375 0.21875
vt 0.625 0.25
vt 0.59375 0.25
vt 0.53125 0.125
vt 0.53125 0.125
vt 0.5625 0.125
vt 0.5625 0.125
vt 0.59375 0.15625
vt 0.59375 0.15625
vt 0.625 0.15625
vt 0.625 0.15625
vt 0.65625 0.1875
vt 0.65625 0.1875
vt 0.53125 0.15625
vt 0.53125 0.15625
vt 0.53125 0.125
vt 0.53125 0.125
vt 0.5625 0.15625
vt 0.53125 0.15625
vt 0.53125 0.15625
vt 0.5625 0.15625
vt 0.59375 0.1875
vt 0.59375 0.1875
vt 0.59375 0.21875
vt 0.59375 0.1875
vt 0.59375 0.1875
vt 0.59375 0.21875
vt 0.59375 0.25
vt 0.59375 0.25
vt 0.625 0.25
vt 0.625 0.25
vt 0.59375 0.25
vt 0.59375 0.25
vt 0.65625 0.1875
vt 0.65625 0.1875
vt 0.65625 0.21875
vt 0.65625 0.21875
vt 0.625 0.25
vt 0.625 0.25
vn 0.21780774 0.044086117 0.97499555
vn 0.25038236 0.08216408 0.9646542
vn 0.33302277 0.09300573 0.93832076
vn 0.40031093 0.13695826 0.9060869
vn 0.49356946 0.18039493 0.8507919
vn 0.5414945 0.2797724 0.79278696
vn 0.63979626 0.2688014 0.7200047
vn 0.6829639 0.3350749 0.64906484
vn 0.74661654 0.31965485 0.5834248
vn 0.70422316 0.44581467 0.55255693
vn 0.6082902 0.4639799 0.64397633
vn 0.55207384 0.49433023 0.67145514
vn 0.5966057 0.5489278 0.58543986
vn 0.5586636 0.5574595 0.6141124
vn -0.2142697 -0.043844614 -0.97579
vn -0.33112612 -0.092986606 -0.9389936
vn -0.24766986 -0.08202613 -0.96536595
vn -0.39839107 -0.13656051 -0.90699273
vn -0.4923597 -0.17793807 -0.85200936
vn -0.5413843 -0.27896723 -0.79314584
vn -0.6419774 -0.2684316 -0.71819866
vn -0.6849132 -0.3348035 -0.64714795
vn -0.74691087 -0.31911838 -0.5833418
vn -0.7045064 -0.44561616 -0.55235577
vn -0.6085569 -0.46591038 -0.6423285
vn -0.55219626 -0.49733594 -0.6691309
vn -0.59566444 -0.54999393 -0.58539784
vn -0.5570026 -0.55988663 -0.6134126
vn 0.265014 -0.9641454 -0.013821712
vn 0.26501402 -0.9641454 -0.013821713
vn 0.37451378 -0.9253663 -0.0586233
vn 0.3744653 -0.9253872 -0.058603127
vn 0.47484118 -0.8717474 -0.12075746
vn 0.4748559 -0.8717369 -0.120775014
vn 0.50965464 -0.8411114 -0.18106288
vn 0.5096541 -0.8411117 -0.1810629
vn 0.50059915 -0.8464259 -0.18155915
vn 0.5005991 -0.8464259 -0.18155912
vn -0.97042334 0.08677742 0.22527392
vn -0.97042334 0.08677742 0.22527395
vn -0.97042334 0.08677742 0.22527395
vn -0.97042334 0.08677742 0.22527394
vn -0.4256608 0.90484 0.008801805
vn -0.2688748 0.96253645 -0.03506928
vn -0.26887485 0.96253645 -0.035069283
vn -0.42552614 0.90490365 0.008762659
vn -0.5435484 0.838213 0.04420406
vn -0.54354846 0.838213 0.04420406
vn -0.823416 0.11810955 0.55501014
vn -0.83707815 0.12518743 0.5325676
vn -0.83707815 0.12518743 0.5325676
vn -0.82336015 0.118081056 0.55509907
vn -0.7934339 0.1032938 0.5998274
vn -0.7934339 0.10329378 0.59982735
vn -0.16820921 0.7968777 -0.58025134
vn -0.16820924 0.7968778 -0.58025134
vn -0.16820922 0.7968777 -0.58025134
vn -0.16820924 0.7968778 -0.5802513
vn 0.52224076 0.22058704 -0.8237754
vn 0.5222408 0.22058707 -0.8237754
vn 0.41499472 0.3734356 -0.82965374
vn 0.41544405 0.37286103 -0.8296873
vn 0.31766292 0.48755196 -0.8132547
vn 0.31766292 0.48755196 -0.8132547
g shard90_0
f 3/3/3 2/2/2 1/1/1
f 3/3/3 4/4/4 2/2/2
f 5/5/5 4/4/4 3/3/3
f 6/6/6 4/4/4 5/5/5
f 7/7/7 6/6/6 5/5/5
f 7/7/7 8/8/8 6/6/6
f 9/9/9 8/8/8 7/7/7
f 10/10/10 8/8/8 9/9/9
f 11/11/11 6/6/6 8/8/8
f 10/10/10 11/11/11 8/8/8
f 11/11/11 12/12/12 6/6/6
f 10/10/10 13/13/13 11/11/11
f 13/13/13 12/12/12 11/11/11
f 13/13/13 14/14/14 12/12/12
f 17/17/17 16/16/16 15/15/15
f 18/18/18 16/16/16 17/17/17
f 18/18/18 19/19/19 16/16/16
f 18/18/18 20/20/20 19/19/19
f 20/20/20 21/21/21 19/19/19
f 22/22/22 21/21/21 20/20/20
f 22/22/22 23/23/23 21/21/21
f 22/22/22 24/24/24 23/23/23
f 20/20/20 25/25/25 22/22/22
f 25/25/25 24/24/24 22/22/22
f 26/26/26 25/25/25 20/20/20
f 27/27/27 24/24/24 25/25/25
f 26/26/26 27/27/27 25/25/25
f 28/28/28 27/27/27 26/26/26
f 31/31/31 30/30/30 29/29/29
f 32/32/32 31/31/31 29/29/29
f 33/33/33 31/31/31 32/32/32
f 34/34/34 33/33/33 32/32/32
f 35/35/35 33/33/33 34/34/34
f 36/36/36 35/35/35 34/34/34
f 37/37/37 35/35/35 36/36/36
f 38/38/38 37/37/37 36/36/36
f 41/41/41 40/40/40 39/39/39
f 42/42/42 41/41/41 39/39/39
f 45/45/45 44/44/44 43/43/43
f 44/44/44 46/46/46 43/43/43
f 43/43/43 46/46/46 47/47/47
f 46/46/46 48/48/48 47/47/47
f 51/51/51 50/50/50 49/49/49
f 50/50/50 52/52/52 49/49/49
f 49/49/49 52/52/52 53/53/53
f 52/52/52 54/54/54 53/53/53
f 57/57/57 56/56/56 55/55/55
f 58/58/58 57/57/57 55/55/55
f 61/61/61 60/60/60 59/59/59
f 62/62/62 61/61/61 59/59/59
f 63/63/63 61/61/61 62/62/62
f 64/64/64 63/63/63 62/62/62
