g shard111
v 0.04134104 -0.01881909 0.03031689
v -0.03623094 -0.001115054 0.0410732
v 0.03032933 0.03373021 -0.0287628
v 0.03623092 -0.03373021 0.0180065
v 0.02521922 0.01881909 -0.04107322
v -0.04134104 -0.01602617 0.02876282
v 0.03623092 -0.03373021 0.0180065
v 0.04134104 -0.01881909 0.03031689
v 0.03032933 0.03373021 -0.0287628
v 0.02521922 0.01881909 -0.04107322
v 0.02521922 0.01881909 -0.04107322
v 0.03032933 0.03373021 -0.0287628
v -0.03623094 -0.001115054 0.0410732
v -0.04134104 -0.01602617 0.02876282
v -0.04134104 -0.01602617 0.02876282
v -0.03623094 -0.001115054 0.0410732
v 0.04134104 -0.01881909 0.03031689
v 0.03623092 -0.03373021 0.0180065
vt 0.5625 0.25
vt 0.53125 0.25
vt 0.5625 0.28125
vt 0.5625 0.25
vt 0.5625 0.28125
vt 0.53125 0.25
vt 0.5625 0.25
vt 0.5625 0.25
vt 0.5625 0.28125
vt 0.5625 0.28125
vt 0.5625 0.28125
vt 0.5625 0.28125
vt 0.53125 0.25
vt 0.53125 0.25
vt 0.53125 0.25
vt 0.53125 0.25
vt 0.5625 0.25
vt 0.5625 0.25
vn 0.2555054 0.745554 0.6155211
vn 0.2555054 0.745554 0.6155211
vn 0.2555054 0.745554 0.6155211
vn -0.2555054 -0.7455541 -0.6155208
vn -0.2555054 -0.7455542 -0.6155209
vn -0.2555054 -0.7455541 -0.6155208
vn 0.9569171 -0.1041851 -0.2710261
vn 0.9569171 -0.1041851 -0.2710261
vn 0.9569171 -0.1041851 -0.2710261
vn 0.9569171 -0.1041851 -0.2710261
vn -0.7166941 0.5733648 -0.3969916
vn -0.7166942 0.5733648 -0.3969916
vn -0.7166941 0.5733648 -0.3969915
vn -0.7166941 0.5733648 -0.3969915
vn -0.03584173 -0.628909 0.7766523
vn -0.03584173 -0.628909 0.7766523
vn -0.03584173 -0.6289091 0.7766523
vn -0.03584173 -0.6289091 0.7766523
g shard111_0
f 3/3/3 2/2/2 1/1/1
f 6/6/6 5/5/5 4/4/4
f 9/9/9 8/8/8 7/7/7
f 10/10/10 9/9/9 7/7/7
f 13/13/13 12/12/12 11/11/11
f 14/14/14 13/13/13 11/11/11
f 17/17/17 16/16/16 15/15/15
f 18/18/18 17/17/17 15/15/15
