g shard76
v -0.003494143 0.04162269 0.06281595
v -0.003665 0.1107115 0.07428075
v 0.04633731 0.09735686 0.002201796
v 0.02674514 0.0288094 0.02199785
v -0.04329005 -0.03225905 0.07704745
v 0.05948091 0.01110338 -0.049114
v 0.02861723 -0.04201792 -0.01977661
v -0.04473856 -0.09364642 0.0429074
v 0.04327226 -0.06655101 -0.0686187
v -0.009382188 -0.1125362 -0.01338552
v -0.01888236 0.04528203 0.05074961
v 0.02935064 0.09952943 -0.007995829
v -0.01985136 0.1125362 0.06267591
v 0.01048586 0.03260361 0.010987
v -0.05795497 -0.02609096 0.06495421
v 0.0418835 0.01519731 -0.05753557
v 0.01243088 -0.03556573 -0.02959348
v -0.05948091 -0.08677886 0.031267
v 0.02650023 -0.05977708 -0.07704745
v -0.02482274 -0.1051495 -0.02359897
v -0.02482274 -0.1051495 -0.02359897
v -0.009382188 -0.1125362 -0.01338552
v 0.04327226 -0.06655101 -0.0686187
v 0.02650023 -0.05977708 -0.07704745
v -0.05948091 -0.08677886 0.031267
v -0.04473856 -0.09364642 0.0429074
v -0.009382188 -0.1125362 -0.01338552
v -0.02482274 -0.1051495 -0.02359897
v -0.05795497 -0.02609096 0.06495421
v -0.04329005 -0.03225905 0.07704745
v -0.04473856 -0.09364642 0.0429074
v -0.05948091 -0.08677886 0.031267
v -0.01888236 0.04528203 0.05074961
v -0.003494143 0.04162269 0.06281595
v -0.04329005 -0.03225905 0.07704745
v -0.05795497 -0.02609096 0.06495421
v 0.02650023 -0.05977708 -0.07704745
v 0.04327226 -0.06655101 -0.0686187
v 0.05948091 0.01110338 -0.049114
v 0.0418835 0.01519731 -0.05753557
v 0.04633731 0.09735686 0.002201796
v 0.02935064 0.09952943 -0.007995829
v 0.02935064 0.09952943 -0.007995829
v 0.04633731 0.09735686 0.002201796
v -0.003665 0.1107115 0.07428075
v -0.01985136 0.1125362 0.06267591
v -0.01985136 0.1125362 0.06267591
v -0.003665 0.1107115 0.07428075
v -0.003494143 0.04162269 0.06281595
v -0.01888236 0.04528203 0.05074961
vt 0.625 0.09375
vt 0.625 0.125
vt 0.65625 0.125
vt 0.65625 0.09375
vt 0.625 0.0625
vt 0.6875 0.09375
vt 0.65625 0.0625
vt 0.625 0.03125
vt 0.6875 0.0625
vt 0.65625 0.03125
vt 0.625 0.09375
vt 0.65625 0.125
vt 0.625 0.125
vt 0.65625 0.09375
vt 0.625 0.0625
vt 0.6875 0.09375
vt 0.65625 0.0625
vt 0.625 0.03125
vt 0.6875 0.0625
vt 0.65625 0.03125
vt 0.65625 0.03125
vt 0.65625 0.03125
vt 0.6875 0.0625
vt 0.6875 0.0625
vt 0.625 0.03125
vt 0.625 0.03125
vt 0.65625 0.03125
vt 0.65625 0.03125
vt 0.625 0.0625
vt 0.625 0.0625
vt 0.625 0.03125
vt 0.625 0.03125
vt 0.625 0.09375
vt 0.625 0.09375
vt 0.625 0.0625
vt 0.625 0.0625
vt 0.6875 0.0625
vt 0.6875 0.0625
vt 0.6875 0.09375
vt 0.6875 0.09375
vt 0.65625 0.125
vt 0.65625 0.125
vt 0.65625 0.125
vt 0.65625 0.125
vt 0.625 0.125
vt 0.625 0.125
vt 0.625 0.125
vt 0.625 0.125
vt 0.625 0.09375
vt 0.625 0.09375
vn 0.7761704 -0.1657207 0.6083552
vn 0.8097533 -0.09410753 0.5791747
vn 0.8449544 -0.1012736 0.5251627
vn 0.8088319 -0.2128469 0.5481671
vn 0.7391069 -0.3265712 0.5891286
vn 0.8725502 -0.2122168 0.440023
vn 0.7953725 -0.3243301 0.5120473
vn 0.7379439 -0.3424638 0.581513
vn 0.8358452 -0.3472244 0.4252034
vn 0.7570804 -0.3584573 0.5462029
vn -0.7762769 0.1649181 -0.6084375
vn -0.8446496 0.0996033 -0.5259717
vn -0.8093179 0.09123474 -0.5802422
vn -0.8085443 0.213718 -0.5482523
vn -0.738106 0.328155 -0.5895029
vn -0.8730029 0.2120006 -0.4392286
vn -0.7944062 0.3254041 -0.5128655
vn -0.7370658 0.3428661 -0.5823888
vn -0.8351418 0.3485966 -0.4254627
vn -0.7563723 0.3577674 -0.5476343
vn 0.02341842 -0.7761922 -0.6300611
vn 0.02341842 -0.7761922 -0.6300611
vn 0.02341842 -0.7761924 -0.6300611
vn 0.02341842 -0.7761924 -0.6300611
vn -0.4406407 -0.8973821 0.0232599
vn -0.4406407 -0.8973821 0.0232599
vn -0.4406407 -0.8973821 0.0232599
vn -0.4406407 -0.8973821 0.0232599
vn -0.6773316 -0.3446282 0.649964
vn -0.6773317 -0.3446282 0.649964
vn -0.6773316 -0.3446283 0.649964
vn -0.6773316 -0.3446282 0.649964
vn -0.4843168 0.4138676 0.7708119
vn -0.4843168 0.4138676 0.7708119
vn -0.4843168 0.4138676 0.7708119
vn -0.4843168 0.4138676 0.7708119
vn 0.4686361 0.1264939 -0.874288
vn 0.4686361 0.1264939 -0.874288
vn 0.4842693 0.3401648 -0.8060838
vn 0.4842583 0.3395039 -0.8063691
vn 0.4791621 0.499029 -0.7220622
vn 0.4791622 0.4990289 -0.7220621
vn 0.1634095 0.984199 -0.06818813
vn 0.1634095 0.984199 -0.06818813
vn 0.1634095 0.984199 -0.06818813
vn 0.1634095 0.984199 -0.06818813
vn -0.6093619 -0.1390164 0.7806103
vn -0.6093619 -0.1390164 0.7806103
vn -0.6093619 -0.1390165 0.7806104
vn -0.6093619 -0.1390164 0.7806103
g shard76_0
f 3/3/3 2/2/2 1/1/1
f 3/3/3 1/1/1 4/4/4
f 4/4/4 1/1/1 5/5/5
f 6/6/6 3/3/3 4/4/4
f 4/4/4 5/5/5 7/7/7
f 6/6/6 4/4/4 7/7/7
f 7/7/7 5/5/5 8/8/8
f 6/6/6 7/7/7 9/9/9
f 7/7/7 8/8/8 10/10/10
f 9/9/9 7/7/7 10/10/10
f 13/13/13 12/12/12 11/11/11
f 11/11/11 12/12/12 14/14/14
f 11/11/11 14/14/14 15/15/15
f 12/12/12 16/16/16 14/14/14
f 15/15/15 14/14/14 17/17/17
f 14/14/14 16/16/16 17/17/17
f 15/15/15 17/17/17 18/18/18
f 17/17/17 16/16/16 19/19/19
f 18/18/18 17/17/17 20/20/20
f 17/17/17 19/19/19 20/20/20
f 23/23/23 22/22/22 21/21/21
f 24/24/24 23/23/23 21/21/21
f 27/27/27 26/26/26 25/25/25
f 28/28/28 27/27/27 25/25/25
f 31/31/31 30/30/30 29/29/29
f 32/32/32 31/31/31 29/29/29
f 35/35/35 34/34/34 33/33/33
f 36/36/36 35/35/35 33/33/33
f 39/39/39 38/38/38 37/37/37
f 40/40/40 39/39/39 37/37/37
f 41/41/41 39/39/39 40/40/40
f 42/42/42 41/41/41 40/40/40
f 45/45/45 44/44/44 43/43/43
f 46/46/46 45/45/45 43/43/43
f 49/49/49 48/48/48 47/47/47
f 50/50/50 49/49/49 47/47/47
