g shard20
v 0.2990381 -0.2724356 0.1568557
v 0.2693203 -0.2696174 0.2110736
v 0.2362788 -0.3232526 0.1653467
v 0.5382687 -0.4903841 0.2823402
v 0.4847766 -0.4853114 0.3799325
v 0.4253018 -0.5818546 0.2976241
v 0.4847766 -0.4853114 0.3799325
v 0.2693203 -0.2696174 0.2110736
v 0.2990381 -0.2724356 0.1568557
v 0.5382687 -0.4903841 0.2823402
v 0.4253018 -0.5818546 0.2976241
v 0.2362788 -0.3232526 0.1653467
vt 0.2801409 0
vt 0 0
vt 0.2801409 0
vt 0.2801409 1
vt 0 1
vt 0.2801409 1
vt 0.6324748 1
vt 0.6324748 0
vt 0.6324748 0
vt 0.6324748 1
vt 1 1
vt 1 0
vn -0.5670326 -0.7780617 -0.2703588
vn -0.5670326 -0.7780618 -0.2703588
vn 0.7025347 0.1586583 -0.6937381
vn -0.5670326 -0.7780617 -0.2703588
vn -0.5670326 -0.7780617 -0.2703588
vn 0.7025348 0.1586583 -0.6937382
vn 0.7025347 0.1586583 -0.6937381
vn 0.7025347 0.1586583 -0.6937382
vn -0.161433 0.3533382 0.9214616
vn -0.161433 0.3533382 0.9214616
vn -0.161433 0.3533382 0.9214616
vn -0.161433 0.3533382 0.9214616
g shard20_0
f 4/4/4 5/5/5 2/2/2
f 1/1/1 4/4/4 2/2/2
f 7/7/7 6/6/6 3/3/3
f 8/8/8 7/7/7 3/3/3
f 11/11/11 10/10/10 9/9/9
f 12/12/12 11/11/11 9/9/9
