g shard14
v 0.2034812 -0.3026582 -0.2344503
v 0.3662663 -0.5447848 -0.4220106
v 0.4478509 -0.5816249 -0.2592457
v 0.2488061 -0.3231249 -0.1440254
v 0.2853625 -0.2593357 -0.1968068
v 0.5136524 -0.4668043 -0.3542523
v 0.3662663 -0.5447848 -0.4220106
v 0.2034812 -0.3026582 -0.2344503
v 0.2488061 -0.3231249 -0.1440254
v 0.4478509 -0.5816249 -0.2592457
v 0.407955 -0.6479383 -0.1353879
v 0.2266417 -0.3599657 -0.07521551
v 0.2266417 -0.3599657 -0.07521551
v 0.407955 -0.6479383 -0.1353879
v 0.4491958 -0.6378825 -0.01257748
v 0.2495532 -0.3543791 -0.006987491
v 0.2495532 -0.3543791 -0.006987491
v 0.4491958 -0.6378825 -0.01257748
v 0.4073355 -0.6411275 0.1638063
v 0.2262975 -0.3561819 0.09100351
v 0.2262975 -0.3561819 0.09100351
v 0.4073355 -0.6411275 0.1638063
v 0.4253018 -0.5818546 0.2976241
v 0.2362788 -0.3232526 0.1653467
v 0.2990381 -0.2724356 0.1568557
v 0.5382687 -0.4903841 0.2823402
v 0.5602843 -0.5291557 0.1293797
v 0.3112691 -0.2939754 0.0718776
v 0.2362788 -0.3232526 0.1653467
v 0.4253018 -0.5818546 0.2976241
v 0.5382687 -0.4903841 0.2823402
v 0.2990381 -0.2724356 0.1568557
v 0.3112691 -0.2939754 0.0718776
v 0.5602843 -0.5291557 0.1293797
v 0.6468825 -0.4368515 -0.01137928
v 0.3593792 -0.2426953 -0.006321822
v 0.3593792 -0.2426953 -0.006321822
v 0.6468825 -0.4368515 -0.01137928
v 0.6368477 -0.4353584 -0.1097733
v 0.3538043 -0.2418658 -0.06098518
v 0.3538043 -0.2418658 -0.06098518
v 0.6368477 -0.4353584 -0.1097733
v 0.707659 -0.2728129 -0.133171
v 0.3931439 -0.1515627 -0.07398388
v 0.3931439 -0.1515627 -0.07398388
v 0.707659 -0.2728129 -0.133171
v 0.6702678 -0.2691 -0.2813372
v 0.372371 -0.1495 -0.1562984
v 0.3075877 -0.204201 -0.2279114
v 0.5536579 -0.3675619 -0.4102405
v 0.5136524 -0.4668043 -0.3542523
v 0.2853625 -0.2593357 -0.1968068
v 0.342573 -0.1471736 -0.2194398
v 0.6166313 -0.2649125 -0.3949916
v 0.5536579 -0.3675619 -0.4102405
v 0.3075877 -0.204201 -0.2279114
v 0.372371 -0.1495 -0.1562984
v 0.6702678 -0.2691 -0.2813372
v 0.6166313 -0.2649125 -0.3949916
v 0.342573 -0.1471736 -0.2194398
vt 0 0
vt 0 1
vt 0.08205602 1
vt 0.08205602 0
vt 0.08205602 0
vt 0.08205602 1
vt 0.1615626 1
vt 0.1615626 0
vt 0.9354852 0
vt 0.9354852 1
vt 1 1
vt 1 0
vt 0.8780858 0
vt 0.8780858 1
vt 0.9354852 1
vt 0.9354852 0
vt 0.7979933 0
vt 0.7979933 1
vt 0.8780858 1
vt 0.8780858 0
vt 0.7328564 0
vt 0.7328564 1
vt 0.7979933 1
vt 0.7979933 0
vt 0.5979125 0
vt 0.5979125 1
vt 0.6682931 1
vt 0.6682931 0
vt 0.6682931 0
vt 0.6682931 1
vt 0.7328564 1
vt 0.7328564 0
vt 0.5142939 0
vt 0.5142939 1
vt 0.5979125 1
vt 0.5979125 0
vt 0.470599 0
vt 0.470599 1
vt 0.5142939 1
vt 0.5142939 0
vt 0.3915998 0
vt 0.3915998 1
vt 0.470599 1
vt 0.470599 0
vt 0.3240772 0
vt 0.3240772 1
vt 0.3915998 1
vt 0.3915998 0
vt 0.1615626 0
vt 0.1615626 1
vt 0.2149091 1
vt 0.2149091 0
vt 0.2149091 0
vt 0.2149091 1
vt 0.2685309 1
vt 0.2685309 0
vt 0.2685309 0
vt 0.2685309 1
vt 0.3240772 1
vt 0.3240772 0
vn 0.7249998 0.6542253 -0.215324
vn 0.7249998 0.6542253 -0.215324
vn 0.7249998 0.6542253 -0.215324
vn 0.7249998 0.6542253 -0.2153239
vn -0.02872722 -0.6241391 0.780785
vn -0.02872722 -0.6241391 0.780785
vn -0.02872722 -0.6241391 0.780785
vn -0.02872722 -0.6241391 0.780785
vn 0.7887775 0.3989134 0.4676519
vn 0.7887775 0.3989134 0.4676519
vn 0.7887775 0.3989134 0.4676519
vn 0.7887775 0.3989134 0.4676518
vn 0.7756323 0.5522264 -0.3056804
vn 0.7756324 0.5522263 -0.3056804
vn 0.7756324 0.5522263 -0.3056804
vn 0.7756324 0.5522263 -0.3056804
vn 0.8028136 0.5613797 0.2008559
vn 0.8028136 0.5613797 0.2008559
vn 0.8028136 0.5613797 0.200856
vn 0.8028136 0.5613797 0.2008559
vn 0.8359584 0.4513635 -0.3121613
vn 0.8359584 0.4513634 -0.3121613
vn 0.8359584 0.4513635 -0.3121613
vn 0.8359584 0.4513634 -0.3121613
vn -0.6942117 -0.7151582 0.08135638
vn -0.6942117 -0.7151582 0.08135638
vn -0.6942117 -0.7151582 0.08135639
vn -0.6942117 -0.7151582 0.08135639
vn 0.161433 -0.3533382 -0.9214616
vn 0.161433 -0.3533382 -0.9214616
vn 0.161433 -0.3533382 -0.9214616
vn 0.161433 -0.3533382 -0.9214616
vn -0.4261505 -0.6137242 -0.6646339
vn -0.4261505 -0.6137243 -0.6646339
vn -0.4261505 -0.6137242 -0.6646339
vn -0.4261505 -0.6137242 -0.664634
vn -0.5585657 -0.8282713 0.04439709
vn -0.5585657 -0.8282713 0.0443971
vn -0.5585657 -0.8282713 0.0443971
vn -0.5585657 -0.8282713 0.0443971
vn -0.2039656 -0.05186586 -0.9776031
vn -0.2039656 -0.05186586 -0.9776031
vn -0.2039656 -0.05186585 -0.9776031
vn -0.2039656 -0.05186585 -0.9776031
vn -0.3483737 -0.9351352 0.06448208
vn -0.3483737 -0.9351352 0.06448207
vn -0.3483737 -0.9351352 0.06448209
vn -0.3483737 -0.9351352 0.06448209
vn 0.6526097 0.155309 0.7416061
vn 0.6526096 0.155309 0.7416062
vn 0.6526098 0.155309 0.7416061
vn 0.6526096 0.155309 0.7416061
vn 0.3868703 -0.3632474 0.8475747
vn 0.3868703 -0.3632474 0.8475747
vn 0.3868703 -0.3632474 0.8475747
vn 0.3868702 -0.3632474 0.8475747
vn -0.3263228 -0.9376805 0.1194518
vn -0.3263228 -0.9376805 0.1194518
vn -0.3263228 -0.9376805 0.1194518
vn -0.3263228 -0.9376805 0.1194518
g shard14_0
f 3/3/3 2/2/2 1/1/1
f 4/4/4 3/3/3 1/1/1
f 7/7/7 6/6/6 5/5/5
f 8/8/8 7/7/7 5/5/5
f 11/11/11 10/10/10 9/9/9
f 12/12/12 11/11/11 9/9/9
f 15/15/15 14/14/14 13/13/13
f 16/16/16 15/15/15 13/13/13
f 19/19/19 18/18/18 17/17/17
f 20/20/20 19/19/19 17/17/17
f 23/23/23 22/22/22 21/21/21
f 24/24/24 23/23/23 21/21/21
f 27/27/27 26/26/26 25/25/25
f 28/28/28 27/27/27 25/25/25
f 31/31/31 30/30/30 29/29/29
f 32/32/32 31/31/31 29/29/29
f 35/35/35 34/34/34 33/33/33
f 36/36/36 35/35/35 33/33/33
f 39/39/39 38/38/38 37/37/37
f 40/40/40 39/39/39 37/37/37
f 43/43/43 42/42/42 41/41/41
f 44/44/44 43/43/43 41/41/41
f 47/47/47 46/46/46 45/45/45
f 48/48/48 47/47/47 45/45/45
f 51/51/51 50/50/50 49/49/49
f 52/52/52 51/51/51 49/49/49
f 55/55/55 54/54/54 53/53/53
f 56/56/56 55/55/55 53/53/53
f 59/59/59 58/58/58 57/57/57
f 60/60/60 59/59/59 57/57/57
