g shard105
v -0.09180623 -0.0382072 0.1121525
v -0.09166875 -0.01490784 0.04347498
v 0.005109638 0.01028183 0.1214145
v 0.01083329 0.03127977 0.04973708
v -0.01964287 0.02909452 -0.05268101
v 0.06853303 0.05510369 -0.03064894
v -0.01401696 0.0247874 -0.1214145
v 0.08670909 0.05151156 -0.1208073
v -0.08279441 -0.05510369 0.1063822
v 0.01373975 -0.00698626 0.1162488
v -0.08302633 -0.03239936 0.03953693
v 0.01792815 0.01293561 0.04677645
v -0.01290649 0.01043364 -0.05287223
v 0.07405224 0.03595275 -0.03041656
v -0.008868501 0.005543172 -0.1196404
v 0.09180623 0.0322583 -0.1189824
v -0.08279441 -0.05510369 0.1063822
v -0.09180623 -0.0382072 0.1121525
v 0.005109638 0.01028183 0.1214145
v 0.01373975 -0.00698626 0.1162488
v -0.08302633 -0.03239936 0.03953693
v -0.09166875 -0.01490784 0.04347498
v -0.09180623 -0.0382072 0.1121525
v -0.08279441 -0.05510369 0.1063822
v 0.01373975 -0.00698626 0.1162488
v 0.005109638 0.01028183 0.1214145
v 0.01083329 0.03127977 0.04973708
v 0.01792815 0.01293561 0.04677645
v 0.06853303 0.05510369 -0.03064894
v 0.07405224 0.03595275 -0.03041656
v 0.08670909 0.05151156 -0.1208073
v 0.09180623 0.0322583 -0.1189824
v -0.01290649 0.01043364 -0.05287223
v -0.01964287 0.02909452 -0.05268101
v -0.09166875 -0.01490784 0.04347498
v -0.08302633 -0.03239936 0.03953693
v -0.008868501 0.005543172 -0.1196404
v -0.01401696 0.0247874 -0.1214145
v -0.01964287 0.02909452 -0.05268101
v -0.01290649 0.01043364 -0.05287223
v 0.09180623 0.0322583 -0.1189824
v 0.08670909 0.05151156 -0.1208073
v -0.01401696 0.0247874 -0.1214145
v -0.008868501 0.005543172 -0.1196404
vt 0.40625 0.3125
vt 0.40625 0.34375
vt 0.4375 0.3125
vt 0.4375 0.34375
vt 0.4375 0.375
vt 0.46875 0.375
vt 0.4375 0.40625
vt 0.46875 0.40625
vt 0.40625 0.3125
vt 0.4375 0.3125
vt 0.40625 0.34375
vt 0.4375 0.34375
vt 0.4375 0.375
vt 0.46875 0.375
vt 0.4375 0.40625
vt 0.46875 0.40625
vt 0.40625 0.3125
vt 0.40625 0.3125
vt 0.4375 0.3125
vt 0.4375 0.3125
vt 0.40625 0.34375
vt 0.40625 0.34375
vt 0.40625 0.3125
vt 0.40625 0.3125
vt 0.4375 0.3125
vt 0.4375 0.3125
vt 0.4375 0.34375
vt 0.4375 0.34375
vt 0.46875 0.375
vt 0.46875 0.375
vt 0.46875 0.40625
vt 0.46875 0.40625
vt 0.4375 0.375
vt 0.4375 0.375
vt 0.40625 0.34375
vt 0.40625 0.34375
vt 0.4375 0.40625
vt 0.4375 0.40625
vt 0.4375 0.375
vt 0.4375 0.375
vt 0.46875 0.40625
vt 0.46875 0.40625
vt 0.4375 0.40625
vt 0.4375 0.40625
vn -0.4504729 0.8457344 0.2860202
vn -0.4274971 0.8830412 0.1936093
vn -0.4254278 0.8706726 0.2468615
vn -0.3867819 0.9117181 0.1384553
vn -0.3286154 0.9440507 0.02792958
vn -0.2762472 0.9609137 -0.01823541
vn -0.258306 0.9621872 -0.08645118
vn -0.2549026 0.9627928 -0.08974879
vn 0.4505911 -0.8448245 -0.2885123
vn 0.4259967 -0.8697155 -0.2492424
vn 0.4278776 -0.8823528 -0.195894
vn 0.3864412 -0.9115698 -0.1403701
vn 0.3276281 -0.9444375 -0.02641256
vn 0.2751436 -0.9611868 0.02039491
vn 0.2569428 -0.9623028 0.08918388
vn 0.2548569 -0.9626641 0.09124552
vn 0.04643875 -0.2826984 0.958084
vn 0.04643876 -0.2826985 0.9580841
vn 0.04643876 -0.2826985 0.9580841
vn 0.04643876 -0.2826984 0.9580841
vn -0.8963161 -0.4200735 -0.1419709
vn -0.8963161 -0.4200734 -0.1419708
vn -0.8963161 -0.4200735 -0.1419708
vn -0.8963161 -0.4200735 -0.1419708
vn 0.9152083 0.3652896 0.170168
vn 0.9152083 0.3652896 0.170168
vn 0.8528832 0.2858858 0.4368746
vn 0.8520726 0.2851265 0.4389479
vn 0.8744571 0.2470304 0.4174937
vn 0.8747548 0.2471261 0.4168125
vn 0.9457632 0.271038 0.1790825
vn 0.9457632 0.2710379 0.1790825
vn -0.7220678 -0.2327464 -0.6514962
vn -0.7220678 -0.2327464 -0.6514961
vn -0.7220678 -0.2327464 -0.6514961
vn -0.7220678 -0.2327464 -0.6514961
vn -0.9525498 -0.3006492 -0.04752791
vn -0.9525498 -0.3006492 -0.04752792
vn -0.9525498 -0.3006492 -0.04752791
vn -0.9525498 -0.3006492 -0.04752791
vn 0.02891896 -0.08541138 -0.995926
vn 0.02891896 -0.08541138 -0.995926
vn 0.02891896 -0.08541138 -0.995926
vn 0.02891896 -0.08541138 -0.995926
g shard105_0
f 3/3/3 2/2/2 1/1/1
f 3/3/3 4/4/4 2/2/2
f 5/5/5 2/2/2 4/4/4
f 6/6/6 5/5/5 4/4/4
f 6/6/6 7/7/7 5/5/5
f 6/6/6 8/8/8 7/7/7
f 11/11/11 10/10/10 9/9/9
f 12/12/12 10/10/10 11/11/11
f 11/11/11 13/13/13 12/12/12
f 13/13/13 14/14/14 12/12/12
f 15/15/15 14/14/14 13/13/13
f 16/16/16 14/14/14 15/15/15
f 19/19/19 18/18/18 17/17/17
f 20/20/20 19/19/19 17/17/17
f 23/23/23 22/22/22 21/21/21
f 24/24/24 23/23/23 21/21/21
f 27/27/27 26/26/26 25/25/25
f 28/28/28 27/27/27 25/25/25
f 29/29/29 27/27/27 28/28/28
f 30/30/30 29/29/29 28/28/28
f 31/31/31 29/29/29 30/30/30
f 32/32/32 31/31/31 30/30/30
f 35/35/35 34/34/34 33/33/33
f 36/36/36 35/35/35 33/33/33
f 39/39/39 38/38/38 37/37/37
f 40/40/40 39/39/39 37/37/37
f 43/43/43 42/42/42 41/41/41
f 44/44/44 43/43/43 41/41/41
