g shard53
v -0.2122341 0.201425 0.3193688
v -0.38202137 0.36256498 0.57486385
v -0.45675638 0.4315498 0.46414393
v -0.25375354 0.23974988 0.25785774
v -0.19908813 0.26375598 0.28100917
v -0.35835862 0.47476077 0.5058165
v -0.38202137 0.36256498 0.57486385
v -0.2122341 0.201425 0.3193688
v -0.20558837 0.3137607 0.21922605
v -0.37005907 0.56476927 0.3946069
v -0.35835862 0.47476077 0.5058165
v -0.19908813 0.26375598 0.28100917
v -0.25375354 0.23974988 0.25785774
v -0.45675638 0.4315498 0.46414393
v -0.37005907 0.56476927 0.3946069
v -0.20558837 0.3137607 0.21922605
vt 0 0
vt 0 1
vt 0.25005925 1
vt 0.25005925 0
vt 0.25005925 0
vt 0.25005925 1
vt 0.47268295 1
vt 0.47268295 0
vt 0.47268295 0
vt 0.47268295 1
vt 0.7114397 1
vt 0.7114397 0
vt 0.7114397 0
vt 0.7114397 1
vt 1 1
vt 1 0
vn 0.68332964 0.7300822 -0.006359206
vn 0.68332964 0.7300823 -0.006359207
vn 0.68332964 0.7300823 -0.006359207
vn 0.6833297 0.7300822 -0.006359206
vn -0.8605136 -0.122781664 -0.49440968
vn -0.8605136 -0.122781664 -0.4944097
vn -0.8605136 -0.122781664 -0.49440968
vn -0.8605136 -0.12278165 -0.49440968
vn -0.88030225 -0.40978596 -0.23904663
vn -0.88030225 -0.40978596 -0.23904663
vn -0.88030225 -0.40978596 -0.23904663
vn -0.88030225 -0.40978593 -0.23904663
vn 0.68148005 -0.06291204 0.7291276
vn 0.68148005 -0.06291204 0.7291276
vn 0.68148005 -0.06291203 0.7291276
vn 0.68148005 -0.06291204 0.7291275
g shard53_0
f 3/3/3 2/2/2 1/1/1
f 4/4/4 3/3/3 1/1/1
f 7/7/7 6/6/6 5/5/5
f 8/8/8 7/7/7 5/5/5
f 11/11/11 10/10/10 9/9/9
f 12/12/12 11/11/11 9/9/9
f 15/15/15 14/14/14 13/13/13
f 16/16/16 15/15/15 13/13/13
