g shard110
v -0.0850376 -0.02580516 0.01083896
v -0.08634181 -0.02591006 -0.009070128
v -0.00444081 0.0913949 -0.007511765
v -0.004200276 0.08986641 0.01239058
v -0.004200276 0.08986641 0.01239058
v -0.00444081 0.0913949 -0.007511765
v 0.06872018 0.07312822 -0.005700678
v 0.06762657 0.07142086 0.01419568
v 0.06762657 0.07142086 0.01419568
v 0.06872018 0.07312822 -0.005700678
v 0.06982658 0.008118034 -0.01085526
v 0.06797864 0.00780447 0.009003431
v 0.08634181 -0.0913949 -0.003855854
v 0.08425336 -0.09005335 0.01598302
v 0.08425336 -0.09005335 0.01598302
v 0.08634181 -0.0913949 -0.003855854
v 0.01413487 -0.08125239 -0.01084048
v 0.01386441 -0.07967125 0.009042799
v -0.08634181 -0.02591006 -0.009070128
v -0.0850376 -0.02580516 0.01083896
v 0.01869574 -0.01575121 -0.01598302
v 0.01413487 -0.08125239 -0.01084048
v 0.08634181 -0.0913949 -0.003855854
v 0.06982658 0.008118034 -0.01085526
v -0.08634181 -0.02591006 -0.009070128
v 0.06872018 0.07312822 -0.005700678
v -0.00444081 0.0913949 -0.007511765
v 0.01833795 -0.01566264 0.004013598
v 0.08425336 -0.09005335 0.01598302
v 0.01386441 -0.07967125 0.009042799
v 0.06797864 0.00780447 0.009003431
v -0.0850376 -0.02580516 0.01083896
v 0.06762657 0.07142086 0.01419568
v -0.004200276 0.08986641 0.01239058
vt 0.46875 0.625
vt 0.46875 0.625
vt 0.5 0.59375
vt 0.5 0.59375
vt 0.5 0.59375
vt 0.5 0.59375
vt 0.53125 0.59375
vt 0.53125 0.59375
vt 0.53125 0.59375
vt 0.53125 0.59375
vt 0.53125 0.625
vt 0.53125 0.625
vt 0.53125 0.65625
vt 0.53125 0.65625
vt 0.53125 0.65625
vt 0.53125 0.65625
vt 0.5 0.65625
vt 0.5 0.65625
vt 0.46875 0.625
vt 0.46875 0.625
vt 0.5 0.625
vt 0.5 0.65625
vt 0.53125 0.65625
vt 0.53125 0.625
vt 0.46875 0.625
vt 0.53125 0.59375
vt 0.5 0.59375
vt 0.5 0.625
vt 0.53125 0.65625
vt 0.5 0.65625
vt 0.53125 0.625
vt 0.46875 0.625
vt 0.53125 0.59375
vt 0.5 0.59375
vn -0.8190112 0.5713972 0.05221108
vn -0.8190112 0.5713972 0.05221108
vn -0.8190112 0.5713972 0.05221108
vn -0.8190112 0.5713972 0.05221108
vn 0.2426352 0.9664931 0.08378188
vn 0.2426352 0.9664931 0.08378188
vn 0.2426352 0.9664931 0.08378188
vn 0.2426352 0.9664931 0.08378188
vn 0.9972395 0.005350148 0.07405955
vn 0.9972395 0.005350148 0.07405953
vn 0.990712 0.1054988 0.08578952
vn 0.9906856 0.105725 0.08581515
vn 0.9811287 0.1695782 0.09289686
vn 0.9811287 0.1695781 0.09289686
vn -0.1482788 -0.986885 0.06380814
vn -0.1482788 -0.986885 0.06380814
vn -0.3558028 -0.9328864 0.05592123
vn -0.3552314 -0.9331027 0.05594752
vn -0.4791256 -0.876345 0.0495785
vn -0.4791255 -0.876345 0.0495785
vn -0.004383282 0.007264419 -0.999964
vn 0.01345826 -0.07919402 -0.9967684
vn 0.1027171 -0.06724957 -0.9924347
vn 0.09379153 0.01294889 -0.9955076
vn -0.06788722 0.02319483 -0.9974233
vn 0.04921875 0.08740311 -0.9949564
vn -0.01637186 0.0752923 -0.9970271
vn 0.004596984 -0.007694328 0.9999598
vn -0.1037519 0.067728 0.9922945
vn -0.01369897 0.07927343 0.9967588
vn -0.09377092 -0.01331851 0.9955048
vn 0.06818812 -0.02380611 0.9973884
vn -0.04993322 -0.08806071 0.9948627
vn 0.0161848 -0.07568607 0.9970003
g shard110_0
f 3/3/3 2/2/2 1/1/1
f 4/4/4 3/3/3 1/1/1
f 7/7/7 6/6/6 5/5/5
f 8/8/8 7/7/7 5/5/5
f 11/11/11 10/10/10 9/9/9
f 12/12/12 11/11/11 9/9/9
f 13/13/13 11/11/11 12/12/12
f 14/14/14 13/13/13 12/12/12
f 17/17/17 16/16/16 15/15/15
f 18/18/18 17/17/17 15/15/15
f 19/19/19 17/17/17 18/18/18
f 20/20/20 19/19/19 18/18/18
f 23/23/23 22/22/22 21/21/21
f 23/23/23 21/21/21 24/24/24
f 22/22/22 25/25/25 21/21/21
f 26/26/26 24/24/24 21/21/21
f 27/27/27 21/21/21 25/25/25
f 26/26/26 21/21/21 27/27/27
f 30/30/30 29/29/29 28/28/28
f 28/28/28 29/29/29 31/31/31
f 32/32/32 30/30/30 28/28/28
f 31/31/31 33/33/33 28/28/28
f 28/28/28 34/34/34 32/32/32
f 28/28/28 33/33/33 34/34/34
