g shard104
v -0.03699484 -0.074413 0.003104664
v -0.01839745 -0.004226103 0.008292321
v -0.02686945 -0.06021906 0.07888269
v -0.006234944 0.01693732 0.05391603
v 0.01872998 0.07950388 -0.0195551
v -0.02907506 -0.06321827 -0.07888269
v -0.01352853 -0.005156502 -0.07385059
v -0.01770782 -0.07950389 0.002860358
v -0.007726938 -0.06562185 0.07686836
v 0.0005015433 -0.01075952 0.007914671
v 0.01232934 0.009843916 0.05226025
v 0.03699487 0.07143298 -0.01943889
v -0.009803116 -0.06843083 -0.07769091
v 0.005299509 -0.01165846 -0.07265685
v -0.01770782 -0.07950389 0.002860358
v -0.03699484 -0.074413 0.003104664
v -0.02686945 -0.06021906 0.07888269
v -0.007726938 -0.06562185 0.07686836
v -0.009803116 -0.06843083 -0.07769091
v -0.02907506 -0.06321827 -0.07888269
v -0.007726938 -0.06562185 0.07686836
v -0.02686945 -0.06021906 0.07888269
v -0.006234944 0.01693732 0.05391603
v 0.01232934 0.009843916 0.05226025
v 0.01872998 0.07950388 -0.0195551
v 0.03699487 0.07143298 -0.01943889
v 0.005299509 -0.01165846 -0.07265685
v -0.01352853 -0.005156502 -0.07385059
v -0.02907506 -0.06321827 -0.07888269
v -0.009803116 -0.06843083 -0.07769091
v 0.03699487 0.07143298 -0.01943889
v 0.01872998 0.07950388 -0.0195551
vt 0.25 0.15625
vt 0.25 0.1875
vt 0.28125 0.15625
vt 0.28125 0.1875
vt 0.25 0.21875
vt 0.21875 0.15625
vt 0.21875 0.1875
vt 0.25 0.15625
vt 0.28125 0.15625
vt 0.25 0.1875
vt 0.28125 0.1875
vt 0.25 0.21875
vt 0.21875 0.15625
vt 0.21875 0.1875
vt 0.25 0.15625
vt 0.25 0.15625
vt 0.28125 0.15625
vt 0.28125 0.15625
vt 0.21875 0.15625
vt 0.21875 0.15625
vt 0.28125 0.15625
vt 0.28125 0.15625
vt 0.28125 0.1875
vt 0.28125 0.1875
vt 0.25 0.21875
vt 0.25 0.21875
vt 0.21875 0.1875
vt 0.21875 0.1875
vt 0.21875 0.15625
vt 0.21875 0.15625
vt 0.25 0.21875
vt 0.25 0.21875
vn -0.9667029 0.2558751 0.003677448
vn -0.9438463 0.3302868 0.008040803
vn -0.9597764 0.2643777 0.09451811
vn -0.9307529 0.3561205 0.08292966
vn -0.9171901 0.3974856 -0.02770299
vn -0.963455 0.261329 -0.05883531
vn -0.9438283 0.3250122 -0.05962558
vn 0.9667173 -0.2558255 -0.003314373
vn 0.9598612 -0.2637779 -0.09532884
vn 0.9438843 -0.3301878 -0.007648378
vn 0.930813 -0.355976 -0.08287501
vn 0.9170576 -0.3977478 0.02831835
vn 0.9636045 -0.2606089 0.05957601
vn 0.9439491 -0.3246229 0.0598332
vn -0.2530903 -0.9672076 0.02132646
vn -0.2530863 -0.967202 0.02162383
vn -0.2459982 -0.9461654 0.210371
vn -0.2459983 -0.9461654 0.210371
vn -0.2514556 -0.9553185 -0.1553599
vn -0.2514557 -0.9553185 -0.1553599
vn 0.1786926 0.2605422 0.9487817
vn 0.1786927 0.2605422 0.9487817
vn 0.2552652 0.4995751 0.827807
vn 0.2551513 0.4991997 0.8280686
vn 0.304209 0.6700836 0.6770855
vn 0.304209 0.6700837 0.6770855
vn 0.1700178 0.3287497 -0.9289874
vn 0.1703364 0.3297364 -0.9285793
vn 0.08231411 0.06520392 -0.9944711
vn 0.08231411 0.06520392 -0.9944711
vn 0.2141126 0.4679146 -0.8574449
vn 0.2141126 0.4679146 -0.8574449
g shard104_0
f 3/3/3 2/2/2 1/1/1
f 3/3/3 4/4/4 2/2/2
f 4/4/4 5/5/5 2/2/2
f 2/2/2 6/6/6 1/1/1
f 2/2/2 7/7/7 6/6/6
f 5/5/5 7/7/7 2/2/2
f 10/10/10 9/9/9 8/8/8
f 11/11/11 9/9/9 10/10/10
f 12/12/12 11/11/11 10/10/10
f 13/13/13 10/10/10 8/8/8
f 14/14/14 10/10/10 13/13/13
f 14/14/14 12/12/12 10/10/10
f 17/17/17 16/16/16 15/15/15
f 18/18/18 17/17/17 15/15/15
f 15/15/15 16/16/16 19/19/19
f 16/16/16 20/20/20 19/19/19
f 23/23/23 22/22/22 21/21/21
f 24/24/24 23/23/23 21/21/21
f 25/25/25 23/23/23 24/24/24
f 26/26/26 25/25/25 24/24/24
f 29/29/29 28/28/28 27/27/27
f 30/30/30 29/29/29 27/27/27
f 27/27/27 28/28/28 31/31/31
f 28/28/28 32/32/32 31/31/31
