g shard99
v -0.026562326 0.048787147 0.08996944
v -0.03339795 0.06546235 0.08139005
v 0.02495978 0.058515877 0.032185316
v 0.029044248 0.04202026 0.042524055
v 0.029044248 0.04202026 0.042524055
v 0.02495978 0.058515877 0.032185316
v 0.09762609 0.061632633 0.020639941
v 0.09966669 0.045739353 0.03259316
v 0.09966669 0.045739353 0.03259316
v 0.09762609 0.061632633 0.020639941
v 0.11361063 -0.0044891536 -0.06543118
v 0.11587066 -0.018854678 -0.051840603
v -0.0950113 0.0007184744 0.05965823
v -0.10353691 0.015946984 0.05009772
v -0.03339795 0.06546235 0.08139005
v -0.026562326 0.048787147 0.08996944
v -0.10708379 -0.053865403 0.0003773868
v -0.11587066 -0.039972693 -0.011005729
v -0.10353691 0.015946984 0.05009772
v -0.0950113 0.0007184744 0.05965823
v -0.02878163 -0.029739588 -0.028035313
v -0.03510175 -0.016367197 -0.041231275
v -0.11587066 -0.039972693 -0.011005729
v -0.10708379 -0.053865403 0.0003773868
v 0.026555605 -0.06546235 -0.075199425
v 0.023028478 -0.052461505 -0.089969456
v -0.03510175 -0.016367197 -0.041231275
v -0.02878163 -0.029739588 -0.028035313
v 0.11587066 -0.018854678 -0.051840603
v 0.11361063 -0.0044891536 -0.06543118
v 0.023028478 -0.052461505 -0.089969456
v 0.026555605 -0.06546235 -0.075199425
v 0.027477622 0.009961158 -0.03590253
v -0.03510175 -0.016367197 -0.041231275
v 0.023028478 -0.052461505 -0.089969456
v 0.11361063 -0.0044891536 -0.06543118
v 0.09762609 0.061632633 0.020639941
v 0.02495978 0.058515877 0.032185316
v -0.051902495 0.027111888 0.021765187
v -0.11587066 -0.039972693 -0.011005729
v -0.03339795 0.06546235 0.08139005
v -0.10353691 0.015946984 0.05009772
v 0.030985318 -0.00475803 -0.022824228
v 0.026555605 -0.06546235 -0.075199425
v -0.02878163 -0.029739588 -0.028035313
v 0.11587066 -0.018854678 -0.051840603
v 0.09966669 0.045739353 0.03259316
v 0.029044248 0.04202026 0.042524055
v -0.044755407 0.011567503 0.032123342
v -0.10708379 -0.053865403 0.0003773868
v -0.026562326 0.048787147 0.08996944
v -0.0950113 0.0007184744 0.05965823
vt 0.4375 0.4375
vt 0.4375 0.4375
vt 0.46875 0.46875
vt 0.46875 0.46875
vt 0.46875 0.46875
vt 0.46875 0.46875
vt 0.5 0.46875
vt 0.5 0.46875
vt 0.5 0.46875
vt 0.5 0.46875
vt 0.5 0.5
vt 0.5 0.5
vt 0.40625 0.46875
vt 0.40625 0.46875
vt 0.4375 0.4375
vt 0.4375 0.4375
vt 0.40625 0.5
vt 0.40625 0.5
vt 0.40625 0.46875
vt 0.40625 0.46875
vt 0.4375 0.5
vt 0.4375 0.5
vt 0.40625 0.5
vt 0.40625 0.5
vt 0.46875 0.53125
vt 0.46875 0.53125
vt 0.4375 0.5
vt 0.4375 0.5
vt 0.5 0.5
vt 0.5 0.5
vt 0.46875 0.53125
vt 0.46875 0.53125
vt 0.46875 0.5
vt 0.4375 0.5
vt 0.46875 0.53125
vt 0.5 0.5
vt 0.5 0.46875
vt 0.46875 0.46875
vt 0.4375 0.46875
vt 0.40625 0.5
vt 0.4375 0.4375
vt 0.40625 0.46875
vt 0.46875 0.5
vt 0.46875 0.53125
vt 0.4375 0.5
vt 0.5 0.5
vt 0.5 0.46875
vt 0.46875 0.46875
vt 0.4375 0.46875
vt 0.40625 0.5
vt 0.4375 0.4375
vt 0.40625 0.46875
vn 0.5815945 0.53897005 0.60931027
vn 0.5815945 0.5389701 0.6093103
vn 0.5815945 0.53897005 0.60931027
vn 0.5815945 0.53897005 0.6093103
vn 0.094155386 0.57645595 0.8116855
vn 0.0941554 0.57645595 0.8116855
vn 0.09415539 0.57645583 0.8116855
vn 0.09415539 0.57645595 0.8116855
vn 0.9825425 0.17984211 0.047614012
vn 0.9825425 0.17984213 0.04761401
vn 0.9825425 0.1798421 0.047614004
vn 0.9825425 0.1798421 0.047614004
vn -0.5207179 0.21852516 0.82528764
vn -0.5207179 0.21852513 0.82528764
vn -0.5207179 0.21852516 0.82528764
vn -0.5207179 0.21852513 0.82528764
vn -0.8851679 -0.23923475 0.39905453
vn -0.8851679 -0.23923475 0.39905456
vn -0.8851679 -0.23923475 0.3990546
vn -0.8851679 -0.23923475 0.39905453
vn -0.06094458 -0.6867471 -0.72433716
vn -0.060944583 -0.6867471 -0.7243371
vn -0.060944587 -0.68674713 -0.7243371
vn -0.060944576 -0.6867471 -0.7243371
vn -0.69386643 -0.62963015 -0.34944987
vn -0.69386643 -0.62963015 -0.3494499
vn -0.6938665 -0.62963015 -0.34944993
vn -0.69386643 -0.62963015 -0.34944987
vn 0.48019326 -0.5802085 -0.6578545
vn 0.4801932 -0.5802085 -0.6578545
vn 0.4801933 -0.58020854 -0.6578545
vn 0.4801933 -0.58020854 -0.6578545
vn -0.16613783 0.739493 -0.65234077
vn -0.31264704 0.70814544 -0.63307333
vn -0.16956732 0.6521009 -0.73892576
vn -0.10630579 0.7349442 -0.66974324
vn -0.09943529 0.792879 -0.6012117
vn -0.20694701 0.8092473 -0.5498106
vn -0.3529096 0.77249235 -0.5279303
vn -0.4334918 0.69410527 -0.5747196
vn -0.3231285 0.8383895 -0.4389658
vn -0.43641993 0.74749565 -0.5007872
vn 0.16413496 -0.7393616 0.65299624
vn 0.16794588 -0.650972 0.74029034
vn 0.3129991 -0.7083991 0.6326154
vn 0.10651813 -0.73560697 0.6689815
vn 0.097810365 -0.7929744 0.60135245
vn 0.20541471 -0.80949646 0.5500184
vn 0.35425642 -0.7726252 0.5268327
vn 0.43587056 -0.6935045 0.5736448
vn 0.32414606 -0.83867115 0.43767557
vn 0.4362596 -0.7467651 0.5020153
g shard99_0
f 3/3/3 2/2/2 1/1/1
f 4/4/4 3/3/3 1/1/1
f 7/7/7 6/6/6 5/5/5
f 8/8/8 7/7/7 5/5/5
f 11/11/11 10/10/10 9/9/9
f 12/12/12 11/11/11 9/9/9
f 15/15/15 14/14/14 13/13/13
f 16/16/16 15/15/15 13/13/13
f 19/19/19 18/18/18 17/17/17
f 20/20/20 19/19/19 17/17/17
f 23/23/23 22/22/22 21/21/21
f 24/24/24 23/23/23 21/21/21
f 27/27/27 26/26/26 25/25/25
f 28/28/28 27/27/27 25/25/25
f 31/31/31 30/30/30 29/29/29
f 32/32/32 31/31/31 29/29/29
f 35/35/35 34/34/34 33/33/33
f 36/36/36 35/35/35 33/33/33
f 37/37/37 36/36/36 33/33/33
f 37/37/37 33/33/33 38/38/38
f 33/33/33 34/34/34 39/39/39
f 33/33/33 39/39/39 38/38/38
f 39/39/39 34/34/34 40/40/40
f 38/38/38 39/39/39 41/41/41
f 39/39/39 40/40/40 42/42/42
f 41/41/41 39/39/39 42/42/42
f 45/45/45 44/44/44 43/43/43
f 44/44/44 46/46/46 43/43/43
f 46/46/46 47/47/47 43/43/43
f 43/43/43 47/47/47 48/48/48
f 45/45/45 43/43/43 49/49/49
f 49/49/49 43/43/43 48/48/48
f 45/45/45 49/49/49 50/50/50
f 49/49/49 48/48/48 51/51/51
f 50/50/50 49/49/49 52/52/52
f 49/49/49 51/51/51 52/52/52
