g shard57
v 0.015267804 0.054374903 -0.055193663
v 0.09045096 0.041312337 0.015766293
v 0.08192073 0.12747996 -0.028765798
v 0.008775458 -0.0039347857 -0.028857678
v 0.06484534 -0.016808853 0.030998737
v 0.034949854 -0.047871396 0.028597772
v -0.062936336 0.03392081 -0.08384192
v 0.012731612 -0.07485826 0.038387388
v 0.07849626 -0.057612553 0.091756076
v -0.006173998 -0.10282867 0.053748503
v -0.05880189 -0.08574511 -0.0045045316
v -0.08116259 -0.13781433 0.05012308
v -0.14406303 -0.10221417 -0.020163298
v -0.07239303 -0.035194278 -0.049560487
v -0.11857765 -0.023548141 -0.07224658
v -0.12029494 0.035613865 -0.101891875
v 0.034949854 -0.047871396 0.028597772
v 0.07849626 -0.057612553 0.091756076
v 0.06484534 -0.016808853 0.030998737
v 0.10244353 0.00029985607 0.060090616
v 0.09045096 0.041312337 0.015766293
v 0.13846533 0.060020566 0.06783505
v 0.1491852 0.13240667 0.046504945
v 0.08192073 0.12747996 -0.028765798
v 0.0049670935 0.06161344 -0.03988135
v 0.0683649 0.13311431 -0.015258044
v 0.07682054 0.04845634 0.028540254
v -0.0010988116 0.005607888 -0.014316827
v 0.05230604 -0.0067293793 0.042880267
v 0.023999289 -0.036060497 0.040454745
v -0.06955944 0.042343825 -0.0670262
v 0.0023604035 -0.062161997 0.04984352
v 0.066260114 -0.045532808 0.10189186
v -0.015621096 -0.08885531 0.06424835
v -0.06588417 -0.07259305 0.008794516
v -0.087446794 -0.122862175 0.061756477
v -0.14918518 -0.08866911 -0.006526798
v -0.077892914 -0.024600267 -0.033608258
v -0.12410435 -0.01472275 -0.055179745
v -0.12545651 0.04414624 -0.08455527
v 0.023999289 -0.036060497 0.040454745
v 0.05230604 -0.0067293793 0.042880267
v 0.066260114 -0.045532808 0.10189186
v 0.088485405 0.009601876 0.070787296
v 0.07682054 0.04845634 0.028540254
v 0.12347062 0.06662932 0.079258904
v 0.13434608 0.13781433 0.058761492
v 0.0683649 0.13311431 -0.015258044
v 0.0049670935 0.06161344 -0.03988135
v 0.08192073 0.12747996 -0.028765798
v 0.0683649 0.13311431 -0.015258044
v 0.015267804 0.054374903 -0.055193663
v -0.06955944 0.042343825 -0.0670262
v -0.062936336 0.03392081 -0.08384192
v -0.12545651 0.04414624 -0.08455527
v -0.12029494 0.035613865 -0.101891875
v -0.12410435 -0.01472275 -0.055179745
v -0.11857765 -0.023548141 -0.07224658
v -0.12029494 0.035613865 -0.101891875
v -0.12545651 0.04414624 -0.08455527
v -0.077892914 -0.024600267 -0.033608258
v -0.07239303 -0.035194278 -0.049560487
v -0.11857765 -0.023548141 -0.07224658
v -0.12410435 -0.01472275 -0.055179745
v -0.14918518 -0.08866911 -0.006526798
v -0.14406303 -0.10221417 -0.020163298
v -0.07239303 -0.035194278 -0.049560487
v -0.077892914 -0.024600267 -0.033608258
v -0.087446794 -0.122862175 0.061756477
v -0.08116259 -0.13781433 0.05012308
v -0.14406303 -0.10221417 -0.020163298
v -0.14918518 -0.08866911 -0.006526798
v -0.015621096 -0.08885531 0.06424835
v -0.08116259 -0.13781433 0.05012308
v -0.087446794 -0.122862175 0.061756477
v -0.006173998 -0.10282867 0.053748503
v 0.066260114 -0.045532808 0.10189186
v 0.07849626 -0.057612553 0.091756076
v 0.088485405 0.009601876 0.070787296
v 0.10244353 0.00029985607 0.060090616
v 0.07849626 -0.057612553 0.091756076
v 0.066260114 -0.045532808 0.10189186
v 0.12347062 0.06662932 0.079258904
v 0.13846533 0.060020566 0.06783505
v 0.10244353 0.00029985607 0.060090616
v 0.088485405 0.009601876 0.070787296
v 0.13434608 0.13781433 0.058761492
v 0.1491852 0.13240667 0.046504945
v 0.13846533 0.060020566 0.06783505
v 0.12347062 0.06662932 0.079258904
v 0.0683649 0.13311431 -0.015258044
v 0.08192073 0.12747996 -0.028765798
v 0.1491852 0.13240667 0.046504945
v 0.13434608 0.13781433 0.058761492
vt 0.59375 0.6875
vt 0.625 0.6875
vt 0.625 0.65625
vt 0.59375 0.71875
vt 0.625 0.71875
vt 0.625 0.75
vt 0.5625 0.6875
vt 0.59375 0.75
vt 0.625 0.78125
vt 0.59375 0.78125
vt 0.5625 0.75
vt 0.5625 0.78125
vt 0.53125 0.75
vt 0.5625 0.71875
vt 0.53125 0.71875
vt 0.53125 0.6875
vt 0.875 0
vt 0.84375 0
vt 0.875 0.03125
vt 0.84375 0.03125
vt 0.875 0.0625
vt 0.84375 0.0625
vt 0.84375 0.09375
vt 0.875 0.09375
vt 0.59375 0.6875
vt 0.625 0.65625
vt 0.625 0.6875
vt 0.59375 0.71875
vt 0.625 0.71875
vt 0.625 0.75
vt 0.5625 0.6875
vt 0.59375 0.75
vt 0.625 0.78125
vt 0.59375 0.78125
vt 0.5625 0.75
vt 0.5625 0.78125
vt 0.53125 0.75
vt 0.5625 0.71875
vt 0.53125 0.71875
vt 0.53125 0.6875
vt 0.875 0
vt 0.875 0.03125
vt 0.84375 0
vt 0.84375 0.03125
vt 0.875 0.0625
vt 0.84375 0.0625
vt 0.84375 0.09375
vt 0.875 0.09375
vt 0.59375 0.6875
vt 0.625 0.65625
vt 0.625 0.65625
vt 0.59375 0.6875
vt 0.5625 0.6875
vt 0.5625 0.6875
vt 0.53125 0.6875
vt 0.53125 0.6875
vt 0.53125 0.71875
vt 0.53125 0.71875
vt 0.53125 0.6875
vt 0.53125 0.6875
vt 0.5625 0.71875
vt 0.5625 0.71875
vt 0.53125 0.71875
vt 0.53125 0.71875
vt 0.53125 0.75
vt 0.53125 0.75
vt 0.5625 0.71875
vt 0.5625 0.71875
vt 0.5625 0.78125
vt 0.5625 0.78125
vt 0.53125 0.75
vt 0.53125 0.75
vt 0.59375 0.78125
vt 0.5625 0.78125
vt 0.5625 0.78125
vt 0.59375 0.78125
vt 0.625 0.78125
vt 0.625 0.78125
vt 0.84375 0.03125
vt 0.84375 0.03125
vt 0.84375 0
vt 0.84375 0
vt 0.84375 0.0625
vt 0.84375 0.0625
vt 0.84375 0.03125
vt 0.84375 0.03125
vt 0.84375 0.09375
vt 0.84375 0.09375
vt 0.84375 0.0625
vt 0.84375 0.0625
vt 0.875 0.09375
vt 0.875 0.09375
vt 0.84375 0.09375
vt 0.84375 0.09375
vn 0.55073047 -0.36892337 -0.74872655
vn 0.67760193 -0.3375107 -0.65340805
vn 0.6816803 -0.28152633 -0.67531836
vn 0.4906628 -0.47634792 -0.7296182
vn 0.6239775 -0.49561888 -0.6041639
vn 0.5531103 -0.5861504 -0.59202754
vn 0.34784478 -0.4395539 -0.82812816
vn 0.5093441 -0.6254621 -0.5910716
vn 0.6201609 -0.5940968 -0.5122983
vn 0.4497893 -0.69474494 -0.56126565
vn 0.35450473 -0.65529704 -0.6670174
vn 0.31193492 -0.7482429 -0.58551615
vn 0.25751576 -0.6900993 -0.6763495
vn 0.34621236 -0.51859593 -0.7817898
vn 0.28186175 -0.44446015 -0.8502995
vn 0.26001897 -0.42653787 -0.86628836
vn 0.5531103 -0.5861504 -0.59202754
vn 0.6201609 -0.5940968 -0.5122983
vn 0.6239775 -0.49561888 -0.6041639
vn 0.6928859 -0.46092102 -0.5544917
vn 0.67760193 -0.3375107 -0.65340805
vn 0.75174564 -0.31125373 -0.58137727
vn 0.73688686 -0.26530528 -0.62178046
vn 0.6816803 -0.28152633 -0.67531836
vn -0.5522685 0.36873382 0.74768627
vn -0.6839236 0.28018397 0.67360634
vn -0.6793294 0.33565795 0.6525683
vn -0.4911871 0.47633937 0.7292709
vn -0.6240443 0.49637556 0.6034733
vn -0.5535058 0.58714724 0.5906686
vn -0.34483445 0.43922347 0.82956123
vn -0.51082176 0.624454 0.5908624
vn -0.6196063 0.59450984 0.51249003
vn -0.44995016 0.6937651 0.56234765
vn -0.353264 0.65693307 0.66606575
vn -0.3098144 0.74940044 0.5851615
vn -0.25758505 0.6922832 0.67408746
vn -0.34535316 0.5174691 0.7829156
vn -0.2795918 0.4439605 0.8513093
vn -0.2580773 0.4266185 0.86682916
vn -0.5535058 0.58714724 0.5906686
vn -0.6240443 0.49637556 0.6034733
vn -0.6196063 0.59450984 0.51249003
vn -0.6925382 0.46091276 0.5549326
vn -0.6793294 0.33565795 0.6525683
vn -0.752564 0.30925408 0.5813857
vn -0.7374408 0.2645654 0.62143874
vn -0.6839236 0.28018397 0.67360634
vn -0.27666515 0.7664212 -0.5797025
vn -0.44143185 0.62447417 -0.64433676
vn -0.44143185 0.62447417 -0.64433676
vn -0.2775809 0.76576936 -0.580126
vn 0.02839683 0.8984852 -0.43808457
vn 0.028517267 0.898499 -0.43804812
vn 0.1525701 0.90516484 -0.39673543
vn 0.1525701 0.90516484 -0.39673546
vn -0.9633972 -0.1395192 -0.22891046
vn -0.9633972 -0.1395192 -0.22891046
vn -0.9633972 -0.13951918 -0.22891046
vn -0.9633973 -0.13951921 -0.22891046
vn -0.37627512 -0.8480596 0.37311116
vn -0.37627512 -0.8480596 0.37311116
vn -0.37627512 -0.8480596 0.37311116
vn -0.37627518 -0.8480596 0.3731112
vn -0.6546679 0.453358 -0.6048773
vn -0.6546679 0.453358 -0.6048773
vn -0.65466785 0.453358 -0.60487735
vn -0.65466785 0.453358 -0.60487723
vn -0.721995 -0.59783953 0.34829745
vn -0.721995 -0.59783953 0.34829748
vn -0.721995 -0.59783953 0.34829745
vn -0.721995 -0.59783953 0.34829748
vn 0.08381374 -0.58582085 0.80609506
vn 0.20970756 -0.5196872 0.82821983
vn 0.20970756 -0.5196872 0.82821983
vn 0.08397735 -0.58574325 0.80613434
vn -0.01785152 -0.6298814 0.7764862
vn -0.017851522 -0.6298814 0.7764862
vn 0.6781268 0.12515043 0.7242109
vn 0.67812675 0.12515041 0.7242109
vn 0.67812675 0.12515041 0.7242109
vn 0.67812675 0.12515043 0.7242109
vn 0.4250665 -0.3730772 0.8247011
vn 0.4250665 -0.3730772 0.8247011
vn 0.4250665 -0.37307718 0.8247011
vn 0.4250665 -0.37307718 0.8247011
vn 0.64674973 0.12205806 0.7528722
vn 0.6467497 0.12205806 0.7528723
vn 0.64674973 0.122058064 0.7528723
vn 0.64674973 0.12205807 0.7528722
vn 0.17523889 0.9600166 -0.21831003
vn 0.17523889 0.9600166 -0.21831001
vn 0.17523888 0.9600166 -0.21830998
vn 0.17523888 0.9600166 -0.21831
g shard57_0
f 3/3/3 2/2/2 1/1/1
f 2/2/2 4/4/4 1/1/1
f 2/2/2 5/5/5 4/4/4
f 6/6/6 4/4/4 5/5/5
f 4/4/4 7/7/7 1/1/1
f 6/6/6 8/8/8 4/4/4
f 6/6/6 9/9/9 8/8/8
f 8/8/8 9/9/9 10/10/10
f 10/10/10 11/11/11 8/8/8
f 4/4/4 8/8/8 11/11/11
f 10/10/10 12/12/12 11/11/11
f 12/12/12 13/13/13 11/11/11
f 14/14/14 11/11/11 13/13/13
f 4/4/4 11/11/11 14/14/14
f 4/4/4 14/14/14 7/7/7
f 7/7/7 14/14/14 15/15/15
f 7/7/7 15/15/15 16/16/16
f 19/19/19 18/18/18 17/17/17
f 19/19/19 20/20/20 18/18/18
f 21/21/21 20/20/20 19/19/19
f 21/21/21 22/22/22 20/20/20
f 21/21/21 23/23/23 22/22/22
f 21/21/21 24/24/24 23/23/23
f 27/27/27 26/26/26 25/25/25
f 28/28/28 27/27/27 25/25/25
f 29/29/29 27/27/27 28/28/28
f 28/28/28 30/30/30 29/29/29
f 31/31/31 28/28/28 25/25/25
f 32/32/32 30/30/30 28/28/28
f 33/33/33 30/30/30 32/32/32
f 33/33/33 32/32/32 34/34/34
f 35/35/35 34/34/34 32/32/32
f 32/32/32 28/28/28 35/35/35
f 36/36/36 34/34/34 35/35/35
f 37/37/37 36/36/36 35/35/35
f 35/35/35 38/38/38 37/37/37
f 35/35/35 28/28/28 38/38/38
f 38/38/38 28/28/28 31/31/31
f 38/38/38 31/31/31 39/39/39
f 39/39/39 31/31/31 40/40/40
f 43/43/43 42/42/42 41/41/41
f 44/44/44 42/42/42 43/43/43
f 44/44/44 45/45/45 42/42/42
f 46/46/46 45/45/45 44/44/44
f 47/47/47 45/45/45 46/46/46
f 48/48/48 45/45/45 47/47/47
f 51/51/51 50/50/50 49/49/49
f 50/50/50 52/52/52 49/49/49
f 49/49/49 52/52/52 53/53/53
f 52/52/52 54/54/54 53/53/53
f 53/53/53 54/54/54 55/55/55
f 54/54/54 56/56/56 55/55/55
f 59/59/59 58/58/58 57/57/57
f 60/60/60 59/59/59 57/57/57
f 63/63/63 62/62/62 61/61/61
f 64/64/64 63/63/63 61/61/61
f 67/67/67 66/66/66 65/65/65
f 68/68/68 67/67/67 65/65/65
f 71/71/71 70/70/70 69/69/69
f 72/72/72 71/71/71 69/69/69
f 75/75/75 74/74/74 73/73/73
f 74/74/74 76/76/76 73/73/73
f 73/73/73 76/76/76 77/77/77
f 76/76/76 78/78/78 77/77/77
f 81/81/81 80/80/80 79/79/79
f 82/82/82 81/81/81 79/79/79
f 85/85/85 84/84/84 83/83/83
f 86/86/86 85/85/85 83/83/83
f 89/89/89 88/88/88 87/87/87
f 90/90/90 89/89/89 87/87/87
f 93/93/93 92/92/92 91/91/91
f 94/94/94 93/93/93 91/91/91
