g shard59
v 0.1562871 0.057564758 0.059423715
v 0.2407361 0.07926877 0.03991133
v 0.23446319 -0.013371035 0.03387451
v 0.18449956 -0.023865566 0.044876516
v 0.088024795 -0.005775586 0.060211778
v 0.23449796 -0.075148106 0.01691693
v 0.14379692 -0.105418324 0.029165566
v 0.06382492 0.0814994 0.06597096
v 0.16138554 0.15221187 0.054044813
v -0.027610183 0.0572807 0.055061936
v 0.07731017 -0.11153944 0.033169717
v 0.08054972 -0.17251311 0.003616184
v -0.009837978 -0.16965613 -0.004321605
v 0.0045661554 -0.093050346 0.033361495
v -0.08535224 -0.10221325 0.0062510967
v -0.022797704 -0.023900807 0.0471631
v -0.08672261 -0.0052202195 0.033663094
v -0.11640161 0.085987456 0.028042018
v -0.1656113 -0.005421743 -0.002537012
v -0.16721082 0.09321237 0.0016261935
v -0.2407361 0.08119954 -0.04967326
v -0.22306836 0.13212904 -0.043102384
v -0.1869848 0.17251313 -0.02291122
v 0.15297846 0.05779963 0.039812893
v 0.2294281 -0.010013051 0.014901221
v 0.23581919 0.08082438 0.020587683
v 0.18063313 -0.019972406 0.025643885
v 0.08770838 -0.00262212 0.04046449
v 0.22967666 -0.06966509 -0.0016969442
v 0.14061882 -0.09821415 0.010883898
v 0.063914835 0.08188332 0.046109498
v 0.15968516 0.15112603 0.034146816
v -0.023633607 0.05860872 0.035630077
v 0.077337906 -0.10451569 0.014443636
v 0.08054834 -0.16382861 -0.01430282
v -0.006638907 -0.16131657 -0.022161216
v 0.0075266883 -0.08658932 0.0146668255
v -0.07907942 -0.09572145 -0.011453629
v -0.019208059 -0.020074554 0.027863503
v -0.08006996 -0.0020375103 0.015072435
v -0.1087161 0.08682648 0.009679854
v -0.15592676 -0.0024667978 -0.019562334
v -0.15680197 0.092553824 -0.015317351
v -0.22924608 0.080625385 -0.06597096
v -0.21149725 0.13003892 -0.059280366
v -0.17546514 0.1703203 -0.039112717
v -0.006638907 -0.16131657 -0.022161216
v -0.009837978 -0.16965613 -0.004321605
v 0.08054972 -0.17251311 0.003616184
v 0.08054834 -0.16382861 -0.01430282
v -0.07907942 -0.09572145 -0.011453629
v -0.009837978 -0.16965613 -0.004321605
v -0.006638907 -0.16131657 -0.022161216
v -0.08535224 -0.10221325 0.0062510967
v -0.15592676 -0.0024667978 -0.019562334
v -0.1656113 -0.005421743 -0.002537012
v -0.22924608 0.080625385 -0.06597096
v -0.2407361 0.08119954 -0.04967326
v 0.063914835 0.08188332 0.046109498
v -0.027610183 0.0572807 0.055061936
v -0.023633607 0.05860872 0.035630077
v 0.06382492 0.0814994 0.06597096
v 0.15968516 0.15112603 0.034146816
v 0.16138554 0.15221187 0.054044813
v -0.023633607 0.05860872 0.035630077
v -0.027610183 0.0572807 0.055061936
v -0.11640161 0.085987456 0.028042018
v -0.1087161 0.08682648 0.009679854
v -0.16721082 0.09321237 0.0016261935
v -0.15680197 0.092553824 -0.015317351
v 0.08054834 -0.16382861 -0.01430282
v 0.08054972 -0.17251311 0.003616184
v 0.14379692 -0.105418324 0.029165566
v 0.14061882 -0.09821415 0.010883898
v 0.14061882 -0.09821415 0.010883898
v 0.14379692 -0.105418324 0.029165566
v 0.23449796 -0.075148106 0.01691693
v 0.22967666 -0.06966509 -0.0016969442
v 0.22967666 -0.06966509 -0.0016969442
v 0.23449796 -0.075148106 0.01691693
v 0.23446319 -0.013371035 0.03387451
v 0.2294281 -0.010013051 0.014901221
v 0.2407361 0.07926877 0.03991133
v 0.23581919 0.08082438 0.020587683
v 0.23581919 0.08082438 0.020587683
v 0.2407361 0.07926877 0.03991133
v 0.1562871 0.057564758 0.059423715
v 0.15297846 0.05779963 0.039812893
v 0.15297846 0.05779963 0.039812893
v 0.1562871 0.057564758 0.059423715
v 0.16138554 0.15221187 0.054044813
v 0.15968516 0.15112603 0.034146816
v -0.21149725 0.13003892 -0.059280366
v -0.2407361 0.08119954 -0.04967326
v -0.22924608 0.080625385 -0.06597096
v -0.22306836 0.13212904 -0.043102384
v -0.17546514 0.1703203 -0.039112717
v -0.1869848 0.17251313 -0.02291122
v -0.15680197 0.092553824 -0.015317351
v -0.16721082 0.09321237 0.0016261935
v -0.1869848 0.17251313 -0.02291122
v -0.17546514 0.1703203 -0.039112717
vt 0.53125 0.125
vt 0.5625 0.125
vt 0.5625 0.09375
vt 0.53125 0.09375
vt 0.5 0.09375
vt 0.5625 0.0625
vt 0.53125 0.0625
vt 0.5 0.125
vt 0.53125 0.15625
vt 0.46875 0.125
vt 0.5 0.0625
vt 0.5 0.03125
vt 0.46875 0.03125
vt 0.46875 0.0625
vt 0.4375 0.0625
vt 0.46875 0.09375
vt 0.4375 0.09375
vt 0.4375 0.125
vt 0.40625 0.09375
vt 0.40625 0.125
vt 0.375 0.125
vt 0.375 0.15625
vt 0.40625 0.15625
vt 0.53125 0.125
vt 0.5625 0.09375
vt 0.5625 0.125
vt 0.53125 0.09375
vt 0.5 0.09375
vt 0.5625 0.0625
vt 0.53125 0.0625
vt 0.5 0.125
vt 0.53125 0.15625
vt 0.46875 0.125
vt 0.5 0.0625
vt 0.5 0.03125
vt 0.46875 0.03125
vt 0.46875 0.0625
vt 0.4375 0.0625
vt 0.46875 0.09375
vt 0.4375 0.09375
vt 0.4375 0.125
vt 0.40625 0.09375
vt 0.40625 0.125
vt 0.375 0.125
vt 0.375 0.15625
vt 0.40625 0.15625
vt 0.46875 0.03125
vt 0.46875 0.03125
vt 0.5 0.03125
vt 0.5 0.03125
vt 0.4375 0.0625
vt 0.46875 0.03125
vt 0.46875 0.03125
vt 0.4375 0.0625
vt 0.40625 0.09375
vt 0.40625 0.09375
vt 0.375 0.125
vt 0.375 0.125
vt 0.5 0.125
vt 0.46875 0.125
vt 0.46875 0.125
vt 0.5 0.125
vt 0.53125 0.15625
vt 0.53125 0.15625
vt 0.46875 0.125
vt 0.46875 0.125
vt 0.4375 0.125
vt 0.4375 0.125
vt 0.40625 0.125
vt 0.40625 0.125
vt 0.5 0.03125
vt 0.5 0.03125
vt 0.53125 0.0625
vt 0.53125 0.0625
vt 0.53125 0.0625
vt 0.53125 0.0625
vt 0.5625 0.0625
vt 0.5625 0.0625
vt 0.5625 0.0625
vt 0.5625 0.0625
vt 0.5625 0.09375
vt 0.5625 0.09375
vt 0.5625 0.125
vt 0.5625 0.125
vt 0.5625 0.125
vt 0.5625 0.125
vt 0.53125 0.125
vt 0.53125 0.125
vt 0.53125 0.125
vt 0.53125 0.125
vt 0.53125 0.15625
vt 0.53125 0.15625
vt 0.375 0.15625
vt 0.375 0.125
vt 0.375 0.125
vt 0.375 0.15625
vt 0.40625 0.15625
vt 0.40625 0.15625
vt 0.40625 0.125
vt 0.40625 0.125
vt 0.40625 0.15625
vt 0.40625 0.15625
vn 0.13078155 -0.044000685 0.9904343
vn 0.24376155 -0.07949186 0.96657205
vn 0.24612501 -0.13519153 0.95976335
vn 0.17512825 -0.20063297 0.9638862
vn 0.011651065 -0.15818548 0.98734075
vn 0.23171052 -0.28173086 0.93109506
vn 0.12258491 -0.2826953 0.95134455
vn -0.0058394806 -0.04217927 0.99909294
vn 0.083932824 0.052032072 0.995112
vn -0.1786159 -0.08294681 0.98041636
vn -0.008394439 -0.33525595 0.9420896
vn -0.042041942 -0.4375828 0.8981946
vn -0.16040848 -0.41435266 0.8958689
vn -0.14564277 -0.3171901 0.9371118
vn -0.29251894 -0.30647272 0.90581846
vn -0.16629095 -0.1896303 0.9676712
vn -0.34373084 -0.16195738 0.9249968
vn -0.39257702 -0.054834675 0.918083
vn -0.46196094 -0.11964977 0.87879235
vn -0.54005927 -0.011621349 0.84154665
vn -0.5731367 0.008704249 0.8194136
vn -0.577451 0.10215579 0.810009
vn -0.57459086 0.10776225 0.81131536
vn -0.1318021 0.042896606 -0.9903474
vn -0.24680033 0.13524844 -0.95958185
vn -0.24584472 0.077780396 -0.9661835
vn -0.17662059 0.20139994 -0.96345377
vn -0.011266026 0.15829326 -0.9873279
vn -0.232936 0.282155 -0.9306607
vn -0.12316593 0.2820988 -0.95144653
vn 0.0051242886 0.041337453 -0.9991321
vn -0.08501861 -0.054293096 -0.9948991
vn 0.17905356 0.083531015 -0.9802869
vn 0.009819018 0.33602384 -0.9418022
vn 0.04396977 0.43763873 -0.8980751
vn 0.16005448 0.41485444 -0.8957
vn 0.14535603 0.317536 -0.9370392
vn 0.29082316 0.3072847 -0.90608937
vn 0.16607916 0.18974254 -0.9676856
vn 0.34301803 0.16110604 -0.92540985
vn 0.39131033 0.0543085 -0.91865486
vn 0.46192825 0.11804934 -0.87902594
vn 0.54118186 0.008948969 -0.8408579
vn 0.5742093 -0.011006476 -0.81863457
vn 0.5786505 -0.10433753 -0.80887413
vn 0.57598174 -0.10964146 -0.81007636
vn 0.010855901 -0.90322167 -0.42903695
vn 0.010855901 -0.90322167 -0.42903695
vn 0.010855901 -0.90322167 -0.42903695
vn 0.010855902 -0.90322167 -0.42903695
vn -0.65049404 -0.6107578 -0.45147792
vn -0.63575053 -0.6373923 -0.43537608
vn -0.6357505 -0.6373923 -0.43537608
vn -0.65048933 -0.61076665 -0.45147276
vn -0.6150253 -0.6553919 -0.43841234
vn -0.61497444 -0.6554585 -0.43838397
vn -0.5630942 -0.7180218 -0.40910822
vn -0.5630942 -0.7180218 -0.40910822
vn -0.45062405 0.8926305 0.0121983765
vn -0.25815952 0.96598 0.015368613
vn -0.25815952 0.96598 0.015368615
vn -0.44968802 0.8931022 0.012215914
vn -0.5856023 0.8105439 0.009410108
vn -0.5856023 0.8105439 0.00941011
vn 0.26995924 0.9529398 0.13794118
vn 0.26995924 0.9529398 0.13794117
vn 0.20812142 0.97208977 0.108290724
vn 0.20792408 0.97214264 0.108196035
vn 0.10063944 0.99330854 0.056655567
vn 0.10063945 0.99330854 0.056655567
vn 0.75198877 -0.5767448 -0.3191838
vn 0.7519887 -0.57674485 -0.3191838
vn 0.7519887 -0.57674485 -0.31918377
vn 0.7519887 -0.57674485 -0.3191838
vn 0.24428524 -0.89949137 -0.36227053
vn 0.24428527 -0.89949137 -0.36227056
vn 0.24428521 -0.89949137 -0.3622705
vn 0.24428524 -0.89949137 -0.36227053
vn 0.9688645 0.068045445 -0.23805764
vn 0.9688645 0.068045445 -0.23805766
vn 0.9682758 -0.0021917315 -0.24987423
vn 0.96827704 -0.0021636882 -0.24986976
vn 0.9650496 -0.05017492 -0.2572192
vn 0.9650496 -0.050174918 -0.2572192
vn -0.2366707 0.9669863 0.09446985
vn -0.23667072 0.9669863 0.09446987
vn -0.23667072 0.9669863 0.09446986
vn -0.23667072 0.9669863 0.09446986
vn 0.9898489 -0.06945061 -0.12399921
vn 0.9898489 -0.0694506 -0.12399921
vn 0.9898489 -0.069450594 -0.12399918
vn 0.9898489 -0.0694506 -0.12399921
vn -0.65234965 0.5441014 -0.52763015
vn -0.75328964 0.34026152 -0.56282914
vn -0.7532897 0.34026155 -0.56282914
vn -0.6522653 0.5442366 -0.52759504
vn -0.5280178 0.70725274 -0.4700966
vn -0.52801776 0.70725274 -0.47009656
vn 0.79552054 0.34743714 0.4964218
vn 0.79552054 0.3474371 0.49642175
vn 0.7955204 0.3474371 0.4964218
vn 0.79552054 0.3474371 0.4964218
g shard59_0
f 3/3/3 2/2/2 1/1/1
f 3/3/3 1/1/1 4/4/4
f 1/1/1 5/5/5 4/4/4
f 6/6/6 3/3/3 4/4/4
f 6/6/6 4/4/4 7/7/7
f 7/7/7 4/4/4 5/5/5
f 1/1/1 8/8/8 5/5/5
f 9/9/9 8/8/8 1/1/1
f 5/5/5 8/8/8 10/10/10
f 7/7/7 5/5/5 11/11/11
f 7/7/7 11/11/11 12/12/12
f 11/11/11 13/13/13 12/12/12
f 11/11/11 14/14/14 13/13/13
f 5/5/5 14/14/14 11/11/11
f 13/13/13 14/14/14 15/15/15
f 5/5/5 16/16/16 14/14/14
f 5/5/5 10/10/10 16/16/16
f 16/16/16 15/15/15 14/14/14
f 10/10/10 17/17/17 16/16/16
f 16/16/16 17/17/17 15/15/15
f 10/10/10 18/18/18 17/17/17
f 15/15/15 17/17/17 19/19/19
f 18/18/18 19/19/19 17/17/17
f 18/18/18 20/20/20 19/19/19
f 19/19/19 20/20/20 21/21/21
f 20/20/20 22/22/22 21/21/21
f 20/20/20 23/23/23 22/22/22
f 26/26/26 25/25/25 24/24/24
f 24/24/24 25/25/25 27/27/27
f 28/28/28 24/24/24 27/27/27
f 25/25/25 29/29/29 27/27/27
f 27/27/27 29/29/29 30/30/30
f 27/27/27 30/30/30 28/28/28
f 31/31/31 24/24/24 28/28/28
f 31/31/31 32/32/32 24/24/24
f 31/31/31 28/28/28 33/33/33
f 28/28/28 30/30/30 34/34/34
f 34/34/34 30/30/30 35/35/35
f 36/36/36 34/34/34 35/35/35
f 37/37/37 34/34/34 36/36/36
f 37/37/37 28/28/28 34/34/34
f 37/37/37 36/36/36 38/38/38
f 39/39/39 28/28/28 37/37/37
f 33/33/33 28/28/28 39/39/39
f 38/38/38 39/39/39 37/37/37
f 40/40/40 33/33/33 39/39/39
f 40/40/40 39/39/39 38/38/38
f 41/41/41 33/33/33 40/40/40
f 40/40/40 38/38/38 42/42/42
f 42/42/42 41/41/41 40/40/40
f 43/43/43 41/41/41 42/42/42
f 43/43/43 42/42/42 44/44/44
f 45/45/45 43/43/43 44/44/44
f 46/46/46 43/43/43 45/45/45
f 49/49/49 48/48/48 47/47/47
f 50/50/50 49/49/49 47/47/47
f 53/53/53 52/52/52 51/51/51
f 52/52/52 54/54/54 51/51/51
f 51/51/51 54/54/54 55/55/55
f 54/54/54 56/56/56 55/55/55
f 55/55/55 56/56/56 57/57/57
f 56/56/56 58/58/58 57/57/57
f 61/61/61 60/60/60 59/59/59
f 60/60/60 62/62/62 59/59/59
f 59/59/59 62/62/62 63/63/63
f 62/62/62 64/64/64 63/63/63
f 67/67/67 66/66/66 65/65/65
f 68/68/68 67/67/67 65/65/65
f 69/69/69 67/67/67 68/68/68
f 70/70/70 69/69/69 68/68/68
f 73/73/73 72/72/72 71/71/71
f 74/74/74 73/73/73 71/71/71
f 77/77/77 76/76/76 75/75/75
f 78/78/78 77/77/77 75/75/75
f 81/81/81 80/80/80 79/79/79
f 82/82/82 81/81/81 79/79/79
f 83/83/83 81/81/81 82/82/82
f 84/84/84 83/83/83 82/82/82
f 87/87/87 86/86/86 85/85/85
f 88/88/88 87/87/87 85/85/85
f 91/91/91 90/90/90 89/89/89
f 92/92/92 91/91/91 89/89/89
f 95/95/95 94/94/94 93/93/93
f 94/94/94 96/96/96 93/93/93
f 93/93/93 96/96/96 97/97/97
f 96/96/96 98/98/98 97/97/97
f 101/101/101 100/100/100 99/99/99
f 102/102/102 101/101/101 99/99/99
