g shard14
v 0.20348124 -0.30265823 -0.23445034
v 0.36626625 -0.5447848 -0.4220106
v 0.44785094 -0.58162487 -0.2592457
v 0.24880609 -0.32312495 -0.14402539
v 0.28536245 -0.25933573 -0.19680683
v 0.51365244 -0.46680433 -0.35425228
v 0.36626625 -0.5447848 -0.4220106
v 0.20348124 -0.30265823 -0.23445034
v 0.24880609 -0.32312495 -0.14402539
v 0.44785094 -0.58162487 -0.2592457
v 0.407955 -0.64793825 -0.13538793
v 0.22664167 -0.35996568 -0.07521551
v 0.22664167 -0.35996568 -0.07521551
v 0.407955 -0.64793825 -0.13538793
v 0.4491958 -0.6378825 -0.012577483
v 0.24955323 -0.35437915 -0.006987491
v 0.24955323 -0.35437915 -0.006987491
v 0.4491958 -0.6378825 -0.012577483
v 0.40733546 -0.64112747 0.16380632
v 0.22629747 -0.35618192 0.091003515
v 0.22629747 -0.35618192 0.091003515
v 0.40733546 -0.64112747 0.16380632
v 0.4253018 -0.5818546 0.29762405
v 0.23627877 -0.32325256 0.1653467
v 0.29903814 -0.2724356 0.15685569
v 0.5382687 -0.4903841 0.28234023
v 0.5602843 -0.5291557 0.12937967
v 0.31126907 -0.29397538 0.0718776
v 0.23627877 -0.32325256 0.1653467
v 0.4253018 -0.5818546 0.29762405
v 0.5382687 -0.4903841 0.28234023
v 0.29903814 -0.2724356 0.15685569
v 0.31126907 -0.29397538 0.0718776
v 0.5602843 -0.5291557 0.12937967
v 0.64688253 -0.4368515 -0.01137928
v 0.3593792 -0.24269527 -0.0063218223
v 0.3593792 -0.24269527 -0.0063218223
v 0.64688253 -0.4368515 -0.01137928
v 0.63684773 -0.4353584 -0.10977332
v 0.35380432 -0.24186578 -0.060985178
v 0.35380432 -0.24186578 -0.060985178
v 0.63684773 -0.4353584 -0.10977332
v 0.707659 -0.2728129 -0.13317098
v 0.3931439 -0.15156272 -0.07398388
v 0.3931439 -0.15156272 -0.07398388
v 0.707659 -0.2728129 -0.13317098
v 0.6702678 -0.2691 -0.28133717
v 0.372371 -0.14950001 -0.15629843
v 0.30758774 -0.20420104 -0.2279114
v 0.55365795 -0.36756188 -0.41024053
v 0.51365244 -0.46680433 -0.35425228
v 0.28536245 -0.25933573 -0.19680683
v 0.34257296 -0.1471736 -0.21943979
v 0.6166313 -0.2649125 -0.39499164
v 0.55365795 -0.36756188 -0.41024053
v 0.30758774 -0.20420104 -0.2279114
v 0.372371 -0.14950001 -0.15629843
v 0.6702678 -0.2691 -0.28133717
v 0.6166313 -0.2649125 -0.39499164
v 0.34257296 -0.1471736 -0.21943979
vt 0 0
vt 0 1
vt 0.08205602 1
vt 0.08205602 0
vt 0.08205602 0
vt 0.08205602 1
vt 0.16156259 1
vt 0.16156259 0
vt 0.9354852 0
vt 0.9354852 1
vt 1 1
vt 1 0
vt 0.8780858 0
vt 0.8780858 1
vt 0.9354852 1
vt 0.9354852 0
vt 0.7979933 0
vt 0.7979933 1
vt 0.8780858 1
vt 0.8780858 0
vt 0.7328564 0
vt 0.7328564 1
vt 0.7979933 1
vt 0.7979933 0
vt 0.59791255 0
vt 0.59791255 1
vt 0.66829306 1
vt 0.66829306 0
vt 0.66829306 0
vt 0.66829306 1
vt 0.7328564 1
vt 0.7328564 0
vt 0.5142939 0
vt 0.5142939 1
vt 0.59791255 1
vt 0.59791255 0
vt 0.47059903 0
vt 0.47059903 1
vt 0.5142939 1
vt 0.5142939 0
vt 0.3915998 0
vt 0.3915998 1
vt 0.47059903 1
vt 0.47059903 0
vt 0.32407722 0
vt 0.32407722 1
vt 0.3915998 1
vt 0.3915998 0
vt 0.16156259 0
vt 0.16156259 1
vt 0.21490914 1
vt 0.21490914 0
vt 0.21490914 0
vt 0.21490914 1
vt 0.26853094 1
vt 0.26853094 0
vt 0.26853094 0
vt 0.26853094 1
vt 0.32407722 1
vt 0.32407722 0
vn 0.72499985 0.6542253 -0.21532397
vn 0.72499985 0.6542253 -0.21532395
vn 0.72499985 0.65422535 -0.21532397
vn 0.72499985 0.6542253 -0.21532393
vn -0.02872722 -0.6241391 0.780785
vn -0.028727219 -0.6241391 0.780785
vn -0.02872722 -0.6241391 0.780785
vn -0.02872722 -0.6241391 0.780785
vn 0.7887775 0.39891335 0.4676519
vn 0.7887775 0.39891335 0.4676519
vn 0.7887775 0.39891335 0.4676519
vn 0.7887775 0.39891335 0.46765184
vn 0.7756323 0.55222636 -0.3056804
vn 0.7756324 0.5522263 -0.3056804
vn 0.7756324 0.5522263 -0.3056804
vn 0.7756324 0.5522263 -0.3056804
vn 0.8028136 0.5613797 0.20085594
vn 0.8028136 0.5613797 0.20085594
vn 0.80281365 0.5613797 0.20085596
vn 0.80281365 0.56137973 0.20085594
vn 0.83595836 0.45136347 -0.3121613
vn 0.83595836 0.4513634 -0.3121613
vn 0.83595836 0.45136347 -0.31216127
vn 0.83595836 0.4513634 -0.31216127
vn -0.69421166 -0.7151582 0.081356384
vn -0.6942117 -0.71515816 0.081356384
vn -0.69421166 -0.7151582 0.08135639
vn -0.69421166 -0.7151582 0.08135639
vn 0.16143301 -0.35333815 -0.92146164
vn 0.16143301 -0.35333815 -0.92146164
vn 0.16143304 -0.3533382 -0.92146164
vn 0.16143301 -0.3533382 -0.92146164
vn -0.42615053 -0.61372423 -0.6646339
vn -0.42615053 -0.6137243 -0.6646339
vn -0.42615053 -0.61372423 -0.6646339
vn -0.42615053 -0.61372423 -0.664634
vn -0.5585657 -0.82827127 0.044397093
vn -0.5585657 -0.82827127 0.044397097
vn -0.5585657 -0.82827127 0.044397097
vn -0.55856574 -0.82827127 0.044397097
vn -0.20396556 -0.051865857 -0.97760314
vn -0.20396557 -0.051865865 -0.97760314
vn -0.20396557 -0.051865853 -0.97760314
vn -0.20396557 -0.051865853 -0.97760314
vn -0.34837365 -0.9351352 0.06448208
vn -0.34837365 -0.9351352 0.06448207
vn -0.3483737 -0.9351352 0.064482085
vn -0.34837368 -0.9351352 0.064482085
vn 0.6526097 0.15530904 0.7416061
vn 0.6526096 0.15530902 0.7416062
vn 0.65260977 0.15530904 0.7416061
vn 0.65260965 0.15530902 0.7416061
vn 0.38687027 -0.36324736 0.84757465
vn 0.38687027 -0.3632474 0.84757465
vn 0.3868703 -0.36324742 0.84757465
vn 0.38687024 -0.3632474 0.8475747
vn -0.3263228 -0.9376805 0.11945177
vn -0.3263228 -0.9376805 0.11945177
vn -0.32632282 -0.9376805 0.11945177
vn -0.32632282 -0.9376805 0.119451754
g shard14_0
f 3/3/3 2/2/2 1/1/1
f 4/4/4 3/3/3 1/1/1
f 7/7/7 6/6/6 5/5/5
f 8/8/8 7/7/7 5/5/5
f 11/11/11 10/10/10 9/9/9
f 12/12/12 11/11/11 9/9/9
f 15/15/15 14/14/14 13/13/13
f 16/16/16 15/15/15 13/13/13
f 19/19/19 18/18/18 17/17/17
f 20/20/20 19/19/19 17/17/17
f 23/23/23 22/22/22 21/21/21
f 24/24/24 23/23/23 21/21/21
f 27/27/27 26/26/26 25/25/25
f 28/28/28 27/27/27 25/25/25
f 31/31/31 30/30/30 29/29/29
f 32/32/32 31/31/31 29/29/29
f 35/35/35 34/34/34 33/33/33
f 36/36/36 35/35/35 33/33/33
f 39/39/39 38/38/38 37/37/37
f 40/40/40 39/39/39 37/37/37
f 43/43/43 42/42/42 41/41/41
f 44/44/44 43/43/43 41/41/41
f 47/47/47 46/46/46 45/45/45
f 48/48/48 47/47/47 45/45/45
f 51/51/51 50/50/50 49/49/49
f 52/52/52 51/51/51 49/49/49
f 55/55/55 54/54/54 53/53/53
f 56/56/56 55/55/55 53/53/53
f 59/59/59 58/58/58 57/57/57
f 60/60/60 59/59/59 57/57/57
