g shard64
v 0.12326066 0.092757046 0.17768711
v 0.0024629515 0.10288894 0.1630029
v 0.09445557 0.08923295 0.08604502
v 0.010146796 0.09339213 0.07630971
v -0.06108863 0.09186804 0.098383196
v -0.07743413 0.09607777 0.18863314
v 0.093427286 0.07326317 0.025081396
v 0.16352525 0.0528917 0.01685436
v 0.109796904 0.029024214 -0.06470014
v -0.06621038 0.07095054 0.018272579
v -0.16352525 0.064409375 0.09557678
v -0.13104883 0.045392513 -0.00014832616
v -0.07368745 0.0383974 -0.04914303
v -0.0014902726 0.073667645 0.005955383
v -2.609007E-05 0.041252613 -0.061034605
v 0.018608956 -0.02602917 -0.14881957
v 0.10960812 -0.02342698 -0.13079152
v 0.08574661 -0.090363204 -0.18989101
v 0.121405035 0.07288456 0.17896783
v 0.0910978 0.06992972 0.089206256
v 0.0026078224 0.08303031 0.16427219
v 0.01017727 0.07377732 0.08021584
v -0.057534784 0.072538555 0.10132519
v -0.075288765 0.076233 0.18989103
v 0.0904263 0.05461946 0.03166975
v 0.15897152 0.03460005 0.0233552
v 0.10666629 0.012318343 -0.05452025
v -0.0626293 0.052355856 0.024707928
v -0.1582095 0.045823425 0.10066723
v -0.12586355 0.027362972 0.0066464394
v -0.07025697 0.020596087 -0.040798947
v -0.0011469983 0.055000365 0.013125807
v 0.00036547612 0.024315178 -0.05072984
v 0.016569443 -0.040278852 -0.1351636
v 0.10724998 -0.037471056 -0.116913676
v 0.083044 -0.10288894 -0.17453519
v 0.121405035 0.07288456 0.17896783
v 0.12326066 0.092757046 0.17768711
v 0.09445557 0.08923295 0.08604502
v 0.0910978 0.06992972 0.089206256
v 0.0026078224 0.08303031 0.16427219
v 0.12326066 0.092757046 0.17768711
v 0.121405035 0.07288456 0.17896783
v 0.0024629515 0.10288894 0.1630029
v -0.075288765 0.076233 0.18989103
v -0.07743413 0.09607777 0.18863314
v 0.0910978 0.06992972 0.089206256
v 0.09445557 0.08923295 0.08604502
v 0.16352525 0.0528917 0.01685436
v 0.15897152 0.03460005 0.0233552
v 0.15897152 0.03460005 0.0233552
v 0.16352525 0.0528917 0.01685436
v 0.109796904 0.029024214 -0.06470014
v 0.10666629 0.012318343 -0.05452025
v 0.016569443 -0.040278852 -0.1351636
v 0.018608956 -0.02602917 -0.14881957
v -2.609007E-05 0.041252613 -0.061034605
v 0.00036547612 0.024315178 -0.05072984
v 0.10666629 0.012318343 -0.05452025
v 0.109796904 0.029024214 -0.06470014
v 0.10960812 -0.02342698 -0.13079152
v 0.10724998 -0.037471056 -0.116913676
v 0.08574661 -0.090363204 -0.18989101
v 0.083044 -0.10288894 -0.17453519
v -0.057534784 0.072538555 0.10132519
v -0.06108863 0.09186804 0.098383196
v -0.07743413 0.09607777 0.18863314
v -0.075288765 0.076233 0.18989103
v -0.1582095 0.045823425 0.10066723
v -0.16352525 0.064409375 0.09557678
v -0.06108863 0.09186804 0.098383196
v -0.057534784 0.072538555 0.10132519
v -0.12586355 0.027362972 0.0066464394
v -0.16352525 0.064409375 0.09557678
v -0.1582095 0.045823425 0.10066723
v -0.13104883 0.045392513 -0.00014832616
v -0.07025697 0.020596087 -0.040798947
v -0.07368745 0.0383974 -0.04914303
v 0.00036547612 0.024315178 -0.05072984
v -2.609007E-05 0.041252613 -0.061034605
v -0.07368745 0.0383974 -0.04914303
v -0.07025697 0.020596087 -0.040798947
v 0.083044 -0.10288894 -0.17453519
v 0.08574661 -0.090363204 -0.18989101
v 0.018608956 -0.02602917 -0.14881957
v 0.016569443 -0.040278852 -0.1351636
vt 0.53125 0.375
vt 0.5 0.375
vt 0.53125 0.40625
vt 0.5 0.40625
vt 0.46875 0.40625
vt 0.46875 0.375
vt 0.53125 0.4375
vt 0.5625 0.4375
vt 0.53125 0.46875
vt 0.46875 0.4375
vt 0.4375 0.40625
vt 0.4375 0.4375
vt 0.46875 0.46875
vt 0.5 0.4375
vt 0.5 0.46875
vt 0.5 0.5
vt 0.53125 0.5
vt 0.53125 0.53125
vt 0.53125 0.375
vt 0.53125 0.40625
vt 0.5 0.375
vt 0.5 0.40625
vt 0.46875 0.40625
vt 0.46875 0.375
vt 0.53125 0.4375
vt 0.5625 0.4375
vt 0.53125 0.46875
vt 0.46875 0.4375
vt 0.4375 0.40625
vt 0.4375 0.4375
vt 0.46875 0.46875
vt 0.5 0.4375
vt 0.5 0.46875
vt 0.5 0.5
vt 0.53125 0.5
vt 0.53125 0.53125
vt 0.53125 0.375
vt 0.53125 0.375
vt 0.53125 0.40625
vt 0.53125 0.40625
vt 0.5 0.375
vt 0.53125 0.375
vt 0.53125 0.375
vt 0.5 0.375
vt 0.46875 0.375
vt 0.46875 0.375
vt 0.53125 0.40625
vt 0.53125 0.40625
vt 0.5625 0.4375
vt 0.5625 0.4375
vt 0.5625 0.4375
vt 0.5625 0.4375
vt 0.53125 0.46875
vt 0.53125 0.46875
vt 0.5 0.5
vt 0.5 0.5
vt 0.5 0.46875
vt 0.5 0.46875
vt 0.53125 0.46875
vt 0.53125 0.46875
vt 0.53125 0.5
vt 0.53125 0.5
vt 0.53125 0.53125
vt 0.53125 0.53125
vt 0.46875 0.40625
vt 0.46875 0.40625
vt 0.46875 0.375
vt 0.46875 0.375
vt 0.4375 0.40625
vt 0.4375 0.40625
vt 0.46875 0.40625
vt 0.46875 0.40625
vt 0.4375 0.4375
vt 0.4375 0.40625
vt 0.4375 0.40625
vt 0.4375 0.4375
vt 0.46875 0.46875
vt 0.46875 0.46875
vt 0.5 0.46875
vt 0.5 0.46875
vt 0.46875 0.46875
vt 0.46875 0.46875
vt 0.53125 0.53125
vt 0.53125 0.53125
vt 0.5 0.5
vt 0.5 0.5
vn 0.091473825 0.99355376 -0.066959254
vn 0.0023584233 0.99650335 -0.08352019
vn 0.09985063 0.98439145 -0.1449248
vn 0.004042908 0.9819343 -0.18917872
vn -0.14621742 0.97273886 -0.17999895
vn -0.105570495 0.9922586 -0.06540437
vn 0.13801418 0.92664576 -0.34968516
vn 0.22062577 0.9055298 -0.36240876
vn 0.10151992 0.8548068 -0.5089195
vn -0.19019966 0.9323214 -0.30757242
vn -0.26171362 0.9320454 -0.25059393
vn -0.26859173 0.9096872 -0.3167454
vn -0.15590034 0.8941341 -0.41978467
vn -0.0019751014 0.93138534 -0.3640293
vn 0.041403037 0.8635242 -0.50260496
vn 0.09754771 0.74358815 -0.66148406
vn 0.114475116 0.72226083 -0.6820812
vn 0.13378946 0.6286836 -0.7660661
vn -0.09278098 -0.9936253 0.06403576
vn -0.09937547 -0.9847209 0.14300108
vn -0.0025433658 -0.99667335 0.08146021
vn -0.004395949 -0.98190135 0.1893424
vn 0.14726377 -0.9725691 0.18006296
vn 0.10726807 -0.9922389 0.06289341
vn -0.13817987 -0.9266249 0.34967527
vn -0.220578 -0.90564996 0.36213756
vn -0.102424346 -0.85491437 0.50855744
vn 0.19219291 -0.9317168 0.30816483
vn 0.2635154 -0.9312953 0.25149307
vn 0.26928365 -0.90972 0.31606296
vn 0.15869018 -0.8940391 0.4189409
vn 0.0023627013 -0.9317844 0.36300457
vn -0.04093557 -0.8638459 0.5020903
vn -0.09842251 -0.74129486 0.663924
vn -0.11542984 -0.71998596 0.6843217
vn -0.13512978 -0.62628704 0.767792
vn 0.9403232 -0.15923403 -0.30072725
vn 0.9403232 -0.15923403 -0.30072725
vn 0.9403232 -0.15923403 -0.30072722
vn 0.9403232 -0.15923405 -0.30072728
vn 0.055341356 0.07395711 0.9957247
vn -0.11570458 0.06858085 0.9909133
vn -0.11570458 0.06858084 0.9909133
vn 0.05589352 0.07397102 0.9956928
vn 0.3018799 0.07789247 0.9501586
vn 0.3018799 0.07789246 0.9501586
vn 0.7100725 0.031357065 0.70343
vn 0.7100725 0.03135706 0.70342994
vn 0.71007246 0.03135706 0.70343
vn 0.7100725 0.031357065 0.70343
vn 0.81602514 -0.3847641 -0.4313462
vn 0.81602514 -0.3847641 -0.4313462
vn 0.81602514 -0.38476413 -0.43134624
vn 0.81602514 -0.38476413 -0.4313462
vn -0.9865123 -0.06371346 -0.15077834
vn -0.9865123 -0.06371347 -0.15077831
vn -0.9865123 -0.06371345 -0.15077831
vn -0.9865123 -0.06371346 -0.15077832
vn 0.99025613 -0.10746961 0.08856154
vn 0.99025613 -0.10746961 0.08856154
vn 0.98029286 -0.1975296 -0.0028323634
vn 0.9804007 -0.19700107 -0.002286283
vn 0.95801115 -0.27431232 -0.08347124
vn 0.95801115 -0.27431235 -0.08347125
vn -0.97087055 -0.16033466 -0.17805403
vn -0.97087055 -0.16033468 -0.17805405
vn -0.97087055 -0.16033465 -0.17805402
vn -0.97087055 -0.16033466 -0.17805405
vn -0.067796536 0.1915715 0.9791343
vn -0.067796536 0.1915715 0.9791343
vn -0.067796536 0.19157149 0.9791343
vn -0.067796536 0.19157152 0.9791343
vn -0.81260914 -0.38951293 -0.43352738
vn -0.9085686 -0.3395522 -0.24332576
vn -0.90856856 -0.3395522 -0.24332577
vn -0.8118876 -0.38976637 -0.43465006
vn -0.61649936 -0.42757818 -0.66113937
vn -0.61649936 -0.42757818 -0.6611394
vn -0.10983602 -0.47947824 -0.87065303
vn -0.10983602 -0.47947812 -0.87065303
vn -0.109836005 -0.47947812 -0.87065303
vn -0.10983602 -0.47947818 -0.87065303
vn -0.73102456 -0.43771207 -0.52346075
vn -0.73102456 -0.4377121 -0.5234608
vn -0.73102456 -0.43771207 -0.52346075
vn -0.73102456 -0.43771207 -0.5234608
g shard64_0
f 3/3/3 2/2/2 1/1/1
f 3/3/3 4/4/4 2/2/2
f 2/2/2 4/4/4 5/5/5
f 2/2/2 5/5/5 6/6/6
f 7/7/7 4/4/4 3/3/3
f 8/8/8 7/7/7 3/3/3
f 8/8/8 9/9/9 7/7/7
f 4/4/4 10/10/10 5/5/5
f 10/10/10 11/11/11 5/5/5
f 10/10/10 12/12/12 11/11/11
f 13/13/13 12/12/12 10/10/10
f 4/4/4 14/14/14 10/10/10
f 14/14/14 13/13/13 10/10/10
f 7/7/7 14/14/14 4/4/4
f 14/14/14 15/15/15 13/13/13
f 7/7/7 15/15/15 14/14/14
f 7/7/7 9/9/9 15/15/15
f 9/9/9 16/16/16 15/15/15
f 9/9/9 17/17/17 16/16/16
f 18/18/18 16/16/16 17/17/17
f 21/21/21 20/20/20 19/19/19
f 22/22/22 20/20/20 21/21/21
f 22/22/22 21/21/21 23/23/23
f 23/23/23 21/21/21 24/24/24
f 22/22/22 25/25/25 20/20/20
f 25/25/25 26/26/26 20/20/20
f 27/27/27 26/26/26 25/25/25
f 28/28/28 22/22/22 23/23/23
f 29/29/29 28/28/28 23/23/23
f 30/30/30 28/28/28 29/29/29
f 30/30/30 31/31/31 28/28/28
f 32/32/32 22/22/22 28/28/28
f 31/31/31 32/32/32 28/28/28
f 32/32/32 25/25/25 22/22/22
f 33/33/33 32/32/32 31/31/31
f 33/33/33 25/25/25 32/32/32
f 27/27/27 25/25/25 33/33/33
f 34/34/34 27/27/27 33/33/33
f 35/35/35 27/27/27 34/34/34
f 34/34/34 36/36/36 35/35/35
f 39/39/39 38/38/38 37/37/37
f 40/40/40 39/39/39 37/37/37
f 43/43/43 42/42/42 41/41/41
f 42/42/42 44/44/44 41/41/41
f 41/41/41 44/44/44 45/45/45
f 44/44/44 46/46/46 45/45/45
f 49/49/49 48/48/48 47/47/47
f 50/50/50 49/49/49 47/47/47
f 53/53/53 52/52/52 51/51/51
f 54/54/54 53/53/53 51/51/51
f 57/57/57 56/56/56 55/55/55
f 58/58/58 57/57/57 55/55/55
f 61/61/61 60/60/60 59/59/59
f 62/62/62 61/61/61 59/59/59
f 63/63/63 61/61/61 62/62/62
f 64/64/64 63/63/63 62/62/62
f 67/67/67 66/66/66 65/65/65
f 68/68/68 67/67/67 65/65/65
f 71/71/71 70/70/70 69/69/69
f 72/72/72 71/71/71 69/69/69
f 75/75/75 74/74/74 73/73/73
f 74/74/74 76/76/76 73/73/73
f 73/73/73 76/76/76 77/77/77
f 76/76/76 78/78/78 77/77/77
f 81/81/81 80/80/80 79/79/79
f 82/82/82 81/81/81 79/79/79
f 85/85/85 84/84/84 83/83/83
f 86/86/86 85/85/85 83/83/83
