g shard51
v 0.36390316 -0.012637199 0.23083428
v 0.6550257 -0.022746958 0.4155017
v 0.5664621 0.0006651891 0.54271084
v 0.31470117 0.0003695495 0.301506
v 0.31470117 0.0003695495 0.301506
v 0.5664621 0.0006651891 0.54271084
v 0.5306885 0.17110223 0.546145
v 0.29482695 0.095056795 0.3034139
v 0.3990375 0.0033036056 0.15442234
v 0.71826756 0.00594649 0.2779602
v 0.6550257 -0.022746958 0.4155017
v 0.36390316 -0.012637199 0.23083428
v 0.34050322 0.13795105 0.22916077
v 0.6129058 0.24831188 0.41248938
v 0.64775956 0.3159032 0.28893894
v 0.3598664 0.17550176 0.16052163
v 0.29482695 0.095056795 0.3034139
v 0.5306885 0.17110223 0.546145
v 0.6129058 0.24831188 0.41248938
v 0.34050322 0.13795105 0.22916077
v 0.40581504 0.10441493 0.07409234
v 0.7304671 0.18794689 0.13336623
v 0.71826756 0.00594649 0.2779602
v 0.3990375 0.0033036056 0.15442234
v 0.3598664 0.17550176 0.16052163
v 0.64775956 0.3159032 0.28893894
v 0.7304671 0.18794689 0.13336623
v 0.40581504 0.10441493 0.07409234
vt 0 0
vt 0 1
vt 0.124858 1
vt 0.124858 0
vt 0.124858 0
vt 0.124858 1
vt 0.2635944 1
vt 0.2635944 0
vt 0.87727726 0
vt 0.87727726 1
vt 1 1
vt 1 0
vt 0.40288866 0
vt 0.40288866 1
vt 0.51844305 1
vt 0.51844305 0
vt 0.2635944 0
vt 0.2635944 1
vt 0.40288866 1
vt 0.40288866 0
vt 0.6918808 0
vt 0.6918808 1
vt 0.87727726 1
vt 0.87727726 0
vt 0.51844305 0
vt 0.51844305 1
vt 0.6918808 1
vt 0.6918808 0
vn 0.10386523 0.9885317 -0.109622404
vn 0.103865236 0.9885317 -0.10962241
vn 0.10386524 0.9885317 -0.10962242
vn 0.103865236 0.9885317 -0.10962242
vn 0.6830495 0.15773632 -0.71313584
vn 0.6830495 0.15773632 -0.71313584
vn 0.6830495 0.15773632 -0.71313584
vn 0.6830495 0.1577363 -0.7131358
vn -0.0742426 0.9824996 0.17082886
vn -0.0742426 0.9824996 0.17082885
vn -0.07424261 0.9824996 0.17082888
vn -0.07424261 0.9824996 0.17082885
vn 0.5212454 -0.80200243 -0.2917109
vn 0.5212454 -0.80200243 -0.29171088
vn 0.52124536 -0.80200243 -0.29171088
vn 0.5212454 -0.80200243 -0.29171088
vn 0.4798364 -0.85460407 -0.19851673
vn 0.4798364 -0.85460407 -0.19851674
vn 0.47983634 -0.85460407 -0.19851674
vn 0.47983646 -0.85460407 -0.19851674
vn -0.2911814 0.60698646 0.7394464
vn -0.2911814 0.60698646 0.7394464
vn -0.29118133 0.60698646 0.7394463
vn -0.2911814 0.60698646 0.7394464
vn 0.0733145 -0.7507745 0.65647745
vn 0.0733145 -0.7507745 0.6564774
vn 0.07331451 -0.7507745 0.6564774
vn 0.07331451 -0.7507745 0.65647745
g shard51_0
f 3/3/3 2/2/2 1/1/1
f 4/4/4 3/3/3 1/1/1
f 7/7/7 6/6/6 5/5/5
f 8/8/8 7/7/7 5/5/5
f 11/11/11 10/10/10 9/9/9
f 12/12/12 11/11/11 9/9/9
f 15/15/15 14/14/14 13/13/13
f 16/16/16 15/15/15 13/13/13
f 19/19/19 18/18/18 17/17/17
f 20/20/20 19/19/19 17/17/17
f 23/23/23 22/22/22 21/21/21
f 24/24/24 23/23/23 21/21/21
f 27/27/27 26/26/26 25/25/25
f 28/28/28 27/27/27 25/25/25
