g shard35
v 0.15957806 0.007576574 0.397282
v 0.2872405 0.013637833 0.7151076
v 0.1381272 -0.027806716 0.74971294
v 0.07673733 -0.015448175 0.4165072
v 0.07673733 -0.015448175 0.4165072
v 0.1381272 -0.027806716 0.74971294
v 0.15019925 0.14018078 0.73951405
v 0.08344403 0.077878214 0.41084114
v 0.08344403 0.077878214 0.41084114
v 0.15019925 0.14018078 0.73951405
v 0.28695956 0.17594856 0.69475853
v 0.15942198 0.097749196 0.38597694
v 0.25690362 0.062393084 0.34185827
v 0.4624265 0.11230755 0.6153449
v 0.2872405 0.013637833 0.7151076
v 0.15957806 0.007576574 0.397282
v 0.29482695 0.095056795 0.3034139
v 0.4624265 0.11230755 0.6153449
v 0.25690362 0.062393084 0.34185827
v 0.5306885 0.17110223 0.546145
v 0.34050322 0.13795105 0.22916077
v 0.6129058 0.24831188 0.41248938
v 0.15942198 0.097749196 0.38597694
v 0.28695956 0.17594856 0.69475853
v 0.4189139 0.26510715 0.60353696
v 0.23272994 0.14728175 0.33529833
v 0.23272994 0.14728175 0.33529833
v 0.4189139 0.26510715 0.60353696
v 0.39291853 0.4204163 0.5289898
v 0.21828806 0.2335646 0.29388323
v 0.20524853 0.2721172 0.2705351
v 0.36944735 0.48981094 0.4869632
v 0.45289883 0.46715188 0.4318679
v 0.25161046 0.25952882 0.2399266
v 0.21828806 0.2335646 0.29388323
v 0.39291853 0.4204163 0.5289898
v 0.36944735 0.48981094 0.4869632
v 0.20524853 0.2721172 0.2705351
v 0.31065154 0.19978887 0.22728337
v 0.55917275 0.35961998 0.40911007
v 0.6129058 0.24831188 0.41248938
v 0.34050322 0.13795105 0.22916077
v 0.25161046 0.25952882 0.2399266
v 0.45289883 0.46715188 0.4318679
v 0.55917275 0.35961998 0.40911007
v 0.31065154 0.19978887 0.22728337
vt 0 0
vt 0 1
vt 0.087626755 1
vt 0.087626755 0
vt 0.087626755 0
vt 0.087626755 1
vt 0.18085733 1
vt 0.18085733 0
vt 0.18085733 0
vt 0.18085733 1
vt 0.26278657 1
vt 0.26278657 0
vt 0.8759804 0
vt 0.8759804 1
vt 1 1
vt 1 0
vt 0.8132108 0
vt 0.8759804 1
vt 0.8759804 0
vt 0.8132108 1
vt 0.7165787 0
vt 0.7165787 1
vt 0.26278657 0
vt 0.26278657 1
vt 0.3641942 1
vt 0.3641942 0
vt 0.3641942 0
vt 0.3641942 1
vt 0.46046084 1
vt 0.46046084 0
vt 0.5071264 0
vt 0.5071264 1
vt 0.5637807 1
vt 0.5637807 0
vt 0.46046084 0
vt 0.46046084 1
vt 0.5071264 1
vt 0.5071264 0
vt 0.6482591 0
vt 0.6482591 1
vt 0.7165787 1
vt 0.7165787 0
vt 0.5637807 0
vt 0.5637807 1
vt 0.6482591 1
vt 0.6482591 0
vn -0.2492452 0.96498704 0.08171216
vn -0.2492452 0.96498704 0.08171215
vn -0.24924517 0.96498704 0.08171216
vn -0.24924517 0.96498704 0.081712164
vn 0.9796299 -0.08154039 -0.18351147
vn 0.9796299 -0.08154039 -0.18351145
vn 0.9796299 -0.081540406 -0.18351147
vn 0.9796299 -0.08154039 -0.18351145
vn 0.28818312 -0.94983375 0.12151705
vn 0.2881831 -0.94983375 0.12151706
vn 0.2881831 -0.94983375 0.12151705
vn 0.2881831 -0.94983375 0.12151705
vn -0.4184415 0.895604 0.15099724
vn -0.41844153 0.895604 0.15099724
vn -0.41844153 0.895604 0.15099722
vn -0.41844147 0.895604 0.1509972
vn -0.4979806 0.83850443 0.22119154
vn -0.49798056 0.83850443 0.22119153
vn -0.49798056 0.83850443 0.22119153
vn -0.49798056 0.83850443 0.22119153
vn -0.47983634 0.85460407 0.19851673
vn -0.47983634 0.8546041 0.19851674
vn 0.55180335 -0.83380604 -0.016751599
vn 0.55180335 -0.83380604 -0.016751599
vn 0.55180335 -0.83380604 -0.016751597
vn 0.55180335 -0.83380604 -0.016751597
vn 0.8389901 -0.11487133 -0.5318836
vn 0.8389901 -0.114871316 -0.5318836
vn 0.8389901 -0.11487133 -0.5318836
vn 0.83899015 -0.11487131 -0.5318836
vn 0.1994045 -0.7624186 0.61559373
vn 0.19940452 -0.76241857 0.61559373
vn 0.1994045 -0.7624186 0.61559373
vn 0.19940448 -0.76241857 0.61559373
vn 0.8242206 -0.06210003 -0.5628535
vn 0.8242206 -0.06210003 -0.5628535
vn 0.8242206 -0.062100023 -0.5628536
vn 0.8242206 -0.062100023 -0.5628536
vn -0.48631468 -0.20900628 0.8484188
vn -0.48631468 -0.2090063 0.8484188
vn -0.48631465 -0.2090063 0.8484188
vn -0.48631465 -0.20900628 0.8484188
vn -0.30141854 -0.47309566 0.8278451
vn -0.30141845 -0.47309566 0.827845
vn -0.3014185 -0.47309566 0.827845
vn -0.30141848 -0.47309566 0.827845
g shard35_0
f 3/3/3 2/2/2 1/1/1
f 4/4/4 3/3/3 1/1/1
f 7/7/7 6/6/6 5/5/5
f 8/8/8 7/7/7 5/5/5
f 11/11/11 10/10/10 9/9/9
f 12/12/12 11/11/11 9/9/9
f 15/15/15 14/14/14 13/13/13
f 16/16/16 15/15/15 13/13/13
f 19/19/19 18/18/18 17/17/17
f 18/18/18 20/20/20 17/17/17
f 17/17/17 20/20/20 21/21/21
f 20/20/20 22/22/22 21/21/21
f 25/25/25 24/24/24 23/23/23
f 26/26/26 25/25/25 23/23/23
f 29/29/29 28/28/28 27/27/27
f 30/30/30 29/29/29 27/27/27
f 33/33/33 32/32/32 31/31/31
f 34/34/34 33/33/33 31/31/31
f 37/37/37 36/36/36 35/35/35
f 38/38/38 37/37/37 35/35/35
f 41/41/41 40/40/40 39/39/39
f 42/42/42 41/41/41 39/39/39
f 45/45/45 44/44/44 43/43/43
f 46/46/46 45/45/45 43/43/43
