g shard2
v 0.2240694 -0.1521895 -0.33858
v 0.2874672 -0.08068861 -0.3139567
v 0.1495429 -0.1714591 -0.3657249
v 0.1412094 -0.2384032 -0.332307
v 0.09364583 -0.1696567 -0.383254
v 0.09499799 -0.2285257 -0.3538784
v 0.06991715 -0.302472 -0.3052255
v 0.1316555 -0.3366651 -0.2369422
v 0.2034812 -0.3026582 -0.2344503
v 0.2853625 -0.2593357 -0.1968068
v 0.3075877 -0.204201 -0.2279114
v 0.342573 -0.1471736 -0.2194398
v 0.3534484 -0.07598859 -0.2399372
v 0.517441 -0.1452395 -0.5651221
v 0.403325 -0.2739411 -0.6094441
v 0.2691772 -0.3086264 -0.6583048
v 0.1685625 -0.305382 -0.6898571
v 0.1709964 -0.4113462 -0.6369812
v 0.254177 -0.4291257 -0.5981525
v 0.1258509 -0.5444496 -0.5494059
v 0.23698 -0.6059972 -0.426496
v 0.3662663 -0.5447848 -0.4220106
v 0.5136524 -0.4668043 -0.3542523
v 0.5536579 -0.3675619 -0.4102405
v 0.6166313 -0.2649125 -0.3949916
v 0.6362072 -0.1367795 -0.431887
v 0.2240694 -0.1521895 -0.33858
v 0.403325 -0.2739411 -0.6094441
v 0.1495429 -0.1714591 -0.3657249
v 0.2691772 -0.3086264 -0.6583048
v 0.09364583 -0.1696567 -0.383254
v 0.1685625 -0.305382 -0.6898571
v 0.09499799 -0.2285257 -0.3538784
v 0.1709964 -0.4113462 -0.6369812
v 0.1412094 -0.2384032 -0.332307
v 0.254177 -0.4291257 -0.5981525
v 0.06991715 -0.302472 -0.3052255
v 0.1258509 -0.5444496 -0.5494059
v 0.1316555 -0.3366651 -0.2369422
v 0.23698 -0.6059972 -0.426496
v 0.2034812 -0.3026582 -0.2344503
v 0.3662663 -0.5447848 -0.4220106
v 0.2853625 -0.2593357 -0.1968068
v 0.5136524 -0.4668043 -0.3542523
v 0.3075877 -0.204201 -0.2279114
v 0.5536579 -0.3675619 -0.4102405
v 0.342573 -0.1471736 -0.2194398
v 0.6166313 -0.2649125 -0.3949916
v 0.3534484 -0.07598859 -0.2399372
v 0.6362072 -0.1367795 -0.431887
v 0.517441 -0.1452395 -0.5651221
v 0.2874672 -0.08068861 -0.3139567
vt 0.09464546 0
vt 0 0
vt 0.1729307 0
vt 0.3420783 0
vt 0.2291427 0
vt 0.2922566 0
vt 0.4376082 0
vt 0.5317929 0
vt 0.6080499 0
vt 0.7039527 0
vt 0.7683005 0
vt 0.8329805 0
vt 0.9047899 0
vt 0 1
vt 0.09464546 1
vt 0.1729307 1
vt 0.2291427 1
vt 0.2922566 1
vt 0.3420783 1
vt 0.4376082 1
vt 0.5317929 1
vt 0.6080499 1
vt 0.7039527 1
vt 0.7683005 1
vt 0.8329805 1
vt 0.9047899 1
vt 0.09464546 0
vt 0.09464546 1
vt 0.1729307 0
vt 0.1729307 1
vt 0.2291427 0
vt 0.2291427 1
vt 0.2922566 0
vt 0.2922566 1
vt 0.3420783 0
vt 0.3420783 1
vt 0.4376082 0
vt 0.4376082 1
vt 0.5317929 0
vt 0.5317929 1
vt 0.6080499 0
vt 0.6080499 1
vt 0.7039527 0
vt 0.7039527 1
vt 0.7683005 0
vt 0.7683005 1
vt 0.8329805 0
vt 0.8329805 1
vt 0.9047899 0
vt 0.9047899 1
vt 1 1
vt 1 0
vn 0.481523 -0.6349882 0.6040908
vn 0.481523 -0.6349882 0.6040908
vn 0.06819147 -0.892321 0.446221
vn 0.3759476 0.8211637 -0.4293642
vn -0.1457564 -0.9173381 0.3704671
vn 0.9754937 0.1157722 0.1871068
vn 0.6463536 -0.4627898 0.6066733
vn 0.7349361 0.558306 -0.3849197
vn -0.2106532 0.5061993 -0.8362939
vn 0.02872722 0.6241391 -0.780785
vn -0.6526096 -0.1553093 -0.7416062
vn -0.3868703 0.3632473 -0.8475747
vn -0.5767751 -0.1434503 -0.8042092
vn 0.481523 -0.6349882 0.6040908
vn 0.481523 -0.6349881 0.6040908
vn 0.06819148 -0.8923209 0.4462211
vn -0.1457564 -0.9173381 0.3704672
vn 0.9754937 0.1157722 0.1871067
vn 0.3759476 0.8211637 -0.4293642
vn 0.6463536 -0.4627898 0.6066733
vn 0.7349362 0.558306 -0.3849197
vn -0.2106532 0.5061993 -0.8362939
vn 0.02872722 0.6241391 -0.780785
vn -0.6526095 -0.1553092 -0.7416062
vn -0.3868703 0.3632473 -0.8475747
vn -0.5767751 -0.1434503 -0.8042092
vn 0.06819147 -0.892321 0.446221
vn 0.06819147 -0.892321 0.446221
vn -0.1457564 -0.9173381 0.3704671
vn -0.1457564 -0.9173381 0.3704672
vn 0.9754937 0.1157722 0.1871068
vn 0.9754937 0.1157722 0.1871068
vn 0.3759476 0.8211637 -0.4293642
vn 0.3759476 0.8211637 -0.4293642
vn 0.6463537 -0.4627897 0.6066734
vn 0.6463537 -0.4627898 0.6066733
vn 0.7349362 0.558306 -0.3849197
vn 0.7349362 0.558306 -0.3849197
vn -0.2106532 0.5061994 -0.8362939
vn -0.2106532 0.5061994 -0.8362939
vn 0.02872722 0.6241391 -0.780785
vn 0.02872722 0.6241391 -0.780785
vn -0.6526096 -0.1553093 -0.7416061
vn -0.6526096 -0.1553093 -0.7416062
vn -0.3868703 0.3632473 -0.8475747
vn -0.3868703 0.3632473 -0.8475747
vn -0.5767751 -0.1434503 -0.8042092
vn -0.5767751 -0.1434503 -0.8042092
vn -0.1051722 -0.982124 0.1561128
vn -0.1051722 -0.982124 0.1561128
vn -0.1051722 -0.982124 0.1561128
vn -0.1051722 -0.982124 0.1561128
g shard2_0
f 15/15/15 14/14/14 2/2/2
f 1/1/1 15/15/15 2/2/2
f 16/16/16 28/28/28 27/27/27
f 3/3/3 16/16/16 27/27/27
f 17/17/17 30/30/30 29/29/29
f 5/5/5 17/17/17 29/29/29
f 18/18/18 32/32/32 31/31/31
f 6/6/6 18/18/18 31/31/31
f 19/19/19 34/34/34 33/33/33
f 4/4/4 19/19/19 33/33/33
f 20/20/20 36/36/36 35/35/35
f 7/7/7 20/20/20 35/35/35
f 21/21/21 38/38/38 37/37/37
f 8/8/8 21/21/21 37/37/37
f 22/22/22 40/40/40 39/39/39
f 9/9/9 22/22/22 39/39/39
f 23/23/23 42/42/42 41/41/41
f 10/10/10 23/23/23 41/41/41
f 24/24/24 44/44/44 43/43/43
f 11/11/11 24/24/24 43/43/43
f 25/25/25 46/46/46 45/45/45
f 12/12/12 25/25/25 45/45/45
f 26/26/26 48/48/48 47/47/47
f 13/13/13 26/26/26 47/47/47
f 51/51/51 50/50/50 49/49/49
f 52/52/52 51/51/51 49/49/49
