g shard98
v -0.06539504 0.09423524 0.04848403
v -0.06041424 0.1063007 0.03334218
v 0.009903833 0.081723 0.03916499
v 0.003193125 0.07033679 0.05410156
v -0.08960102 0.02881736 -0.009137481
v -0.08479439 0.03926291 -0.02540967
v -0.06041424 0.1063007 0.03334218
v -0.06539504 0.09423524 0.04848403
v -0.07628574 -0.02739817 -0.03460139
v -0.0710334 -0.01992448 -0.05231994
v -0.08479439 0.03926291 -0.02540967
v -0.08960102 0.02881736 -0.009137481
v 0.003193125 0.07033679 0.05410156
v 0.009903833 0.081723 0.03916499
v 0.06493576 0.001031876 0.01158923
v 0.05675867 -0.007960439 0.02737391
v 0.08960102 -0.04209465 0.004615277
v 0.08123851 -0.04891106 0.02144277
v 0.08123851 -0.04891106 0.02144277
v 0.08960102 -0.04209465 0.004615277
v 0.01208594 -0.1002075 -0.05410153
v 0.005235359 -0.1063008 -0.03639847
v 0.005235359 -0.1063008 -0.03639847
v 0.01208594 -0.1002075 -0.05410153
v -0.0710334 -0.01992448 -0.05231994
v -0.07628574 -0.02739817 -0.03460139
v 0.003193125 0.07033679 0.05410156
v -0.0255702 0.03087911 0.01110005
v -0.06539504 0.09423524 0.04848403
v -0.08960102 0.02881736 -0.009137481
v 0.05675867 -0.007960439 0.02737391
v -0.07628574 -0.02739817 -0.03460139
v -0.01001665 -0.02657986 -0.01486114
v 0.08123851 -0.04891106 0.02144277
v 0.005235359 -0.1063008 -0.03639847
v 0.009903833 0.081723 0.03916499
v -0.06041424 0.1063007 0.03334218
v -0.01951441 0.04142192 -0.004780024
v -0.08479439 0.03926291 -0.02540967
v 0.06493576 0.001031876 0.01158923
v -0.0710334 -0.01992448 -0.05231994
v -0.003377542 -0.01895125 -0.03211588
v 0.08960102 -0.04209465 0.004615277
v 0.01208594 -0.1002075 -0.05410153
vt 0.53125 0.5
vt 0.53125 0.5
vt 0.5625 0.5
vt 0.5625 0.5
vt 0.53125 0.53125
vt 0.53125 0.53125
vt 0.53125 0.5
vt 0.53125 0.5
vt 0.53125 0.5625
vt 0.53125 0.5625
vt 0.53125 0.53125
vt 0.53125 0.53125
vt 0.5625 0.5
vt 0.5625 0.5
vt 0.59375 0.53125
vt 0.59375 0.53125
vt 0.59375 0.5625
vt 0.59375 0.5625
vt 0.59375 0.5625
vt 0.59375 0.5625
vt 0.5625 0.59375
vt 0.5625 0.59375
vt 0.5625 0.59375
vt 0.5625 0.59375
vt 0.53125 0.5625
vt 0.53125 0.5625
vt 0.5625 0.5
vt 0.5625 0.53125
vt 0.53125 0.5
vt 0.53125 0.53125
vt 0.59375 0.53125
vt 0.53125 0.5625
vt 0.5625 0.5625
vt 0.59375 0.5625
vt 0.5625 0.59375
vt 0.5625 0.5
vt 0.53125 0.5
vt 0.5625 0.53125
vt 0.53125 0.53125
vt 0.59375 0.53125
vt 0.53125 0.5625
vt 0.5625 0.5625
vt 0.59375 0.5625
vt 0.5625 0.59375
vn 0.2021736 0.7326826 0.6498477
vn 0.2021736 0.7326826 0.6498477
vn 0.2021737 0.7326825 0.6498478
vn 0.2021736 0.7326826 0.6498477
vn -0.9303236 0.365684 -0.0278078
vn -0.9303236 0.3656839 -0.02780779
vn -0.9303236 0.365684 -0.0278078
vn -0.9303236 0.365684 -0.0278078
vn -0.9444017 -0.07645003 -0.3197821
vn -0.9444017 -0.07645003 -0.3197821
vn -0.9444017 -0.07645003 -0.3197822
vn -0.9444017 -0.07645003 -0.3197822
vn 0.7532477 0.3178219 0.5758535
vn 0.7532477 0.3178218 0.5758535
vn 0.753314 0.3301964 0.5687605
vn 0.753314 0.3301721 0.5687745
vn 0.7529774 0.3550972 0.5540136
vn 0.7529774 0.3550972 0.5540136
vn 0.6131127 -0.789597 -0.02508246
vn 0.6131127 -0.789597 -0.02508246
vn 0.6131127 -0.789597 -0.02508246
vn 0.6131127 -0.789597 -0.02508246
vn -0.6236511 -0.6347657 -0.4562144
vn -0.6236512 -0.6347657 -0.4562145
vn -0.6236511 -0.6347657 -0.4562145
vn -0.6236511 -0.6347657 -0.4562145
vn -0.3398304 -0.5686529 0.7490989
vn -0.3073138 -0.5293241 0.7908061
vn -0.2480361 -0.6032023 0.7580404
vn -0.2420429 -0.5204934 0.8188418
vn -0.4036951 -0.4405879 0.8018183
vn -0.2601004 -0.3914246 0.882686
vn -0.3400825 -0.3696091 0.8647156
vn -0.4177046 -0.3319499 0.845773
vn -0.3718893 -0.3077487 0.8757791
vn 0.3406751 0.5681493 -0.7490973
vn 0.2485256 0.6023791 -0.7585344
vn 0.3077358 0.5282005 -0.791393
vn 0.2419106 0.5190209 -0.8198149
vn 0.4032199 0.4415496 -0.8015283
vn 0.2597694 0.3925025 -0.8823048
vn 0.3395353 0.3708042 -0.8644189
vn 0.4170417 0.3337054 -0.8454093
vn 0.3711076 0.3076811 -0.8761345
g shard98_0
f 3/3/3 2/2/2 1/1/1
f 4/4/4 3/3/3 1/1/1
f 7/7/7 6/6/6 5/5/5
f 8/8/8 7/7/7 5/5/5
f 11/11/11 10/10/10 9/9/9
f 12/12/12 11/11/11 9/9/9
f 15/15/15 14/14/14 13/13/13
f 16/16/16 15/15/15 13/13/13
f 17/17/17 15/15/15 16/16/16
f 18/18/18 17/17/17 16/16/16
f 21/21/21 20/20/20 19/19/19
f 22/22/22 21/21/21 19/19/19
f 25/25/25 24/24/24 23/23/23
f 26/26/26 25/25/25 23/23/23
f 29/29/29 28/28/28 27/27/27
f 30/30/30 28/28/28 29/29/29
f 28/28/28 31/31/31 27/27/27
f 32/32/32 28/28/28 30/30/30
f 33/33/33 31/31/31 28/28/28
f 33/33/33 28/28/28 32/32/32
f 34/34/34 31/31/31 33/33/33
f 32/32/32 35/35/35 33/33/33
f 35/35/35 34/34/34 33/33/33
f 38/38/38 37/37/37 36/36/36
f 38/38/38 39/39/39 37/37/37
f 40/40/40 38/38/38 36/36/36
f 38/38/38 41/41/41 39/39/39
f 40/40/40 42/42/42 38/38/38
f 38/38/38 42/42/42 41/41/41
f 40/40/40 43/43/43 42/42/42
f 44/44/44 41/41/41 42/42/42
f 43/43/43 44/44/44 42/42/42
