g shard44
v -0.08596927 0.35955596 -0.2224782
v -0.15474468 0.6472007 -0.40046075
v -0.2548365 0.65938115 -0.31505907
v -0.14157584 0.36632285 -0.17503281
v -0.015346822 0.36327505 -0.23240909
v -0.02762428 0.6538951 -0.41833636
v -0.15474468 0.6472007 -0.40046075
v -0.08596927 0.35955596 -0.2224782
v 0.0008571441 0.29868102 -0.31684285
v 0.0015428595 0.53762585 -0.57031715
v -0.02762428 0.6538951 -0.41833636
v -0.015346822 0.36327505 -0.23240909
v -0.14157584 0.36632285 -0.17503281
v -0.2548365 0.65938115 -0.31505907
v -0.37804466 0.5728575 -0.36961925
v -0.21002482 0.31825417 -0.20534402
v -0.21002482 0.31825417 -0.20534402
v -0.37804466 0.5728575 -0.36961925
v -0.39977515 0.4746065 -0.47632474
v -0.2220973 0.2636703 -0.26462486
v -0.2220973 0.2636703 -0.26462486
v -0.39977515 0.4746065 -0.47632474
v -0.25883126 0.518033 -0.5274676
v -0.14379515 0.2877961 -0.29303756
v -0.14379515 0.2877961 -0.29303756
v -0.25883126 0.518033 -0.5274676
v -0.15922424 0.453732 -0.612363
v -0.08845791 0.25207335 -0.34020168
v -0.08845791 0.25207335 -0.34020168
v -0.15922424 0.453732 -0.612363
v 0.0015428595 0.53762585 -0.57031715
v 0.0008571441 0.29868102 -0.31684285
vt 0 0
vt 0 1
vt 0.10578409 1
vt 0.10578409 0
vt 0.10578409 0
vt 0.10578409 1
vt 0.20869295 1
vt 0.20869295 0
vt 0.20869295 0
vt 0.20869295 1
vt 0.36365408 1
vt 0.36365408 0
vt 0.87180126 0
vt 0.87180126 1
vt 1 1
vt 1 0
vt 0.7543841 0
vt 0.7543841 1
vt 0.87180126 1
vt 0.87180126 0
vt 0.6294176 0
vt 0.6294176 1
vt 0.7543841 1
vt 0.7543841 0
vt 0.5126796 0
vt 0.5126796 1
vt 0.6294176 1
vt 0.6294176 0
vt 0.36365408 0
vt 0.36365408 1
vt 0.5126796 1
vt 0.5126796 0
vn -0.58940834 -0.5222704 -0.6163047
vn -0.5894083 -0.5222703 -0.6163047
vn -0.5894083 -0.5222703 -0.6163047
vn -0.5894083 -0.5222703 -0.6163047
vn -0.089330554 -0.5394312 -0.83727765
vn -0.08933055 -0.5394312 -0.83727765
vn -0.089330554 -0.5394312 -0.83727765
vn -0.089330554 -0.5394312 -0.83727765
vn -0.98832893 -0.109503604 -0.105900384
vn -0.98832893 -0.10950362 -0.10590039
vn -0.98832893 -0.10950359 -0.105900384
vn -0.98832893 -0.10950359 -0.10590038
vn 0.5114264 -0.20149335 -0.8353703
vn 0.5114264 -0.20149335 -0.8353703
vn 0.5114264 -0.20149332 -0.8353703
vn 0.5114264 -0.20149335 -0.8353703
vn 0.854688 0.28337526 -0.43497908
vn 0.854688 0.2833753 -0.43497902
vn 0.854688 0.2833753 -0.43497902
vn 0.854688 0.28337532 -0.43497908
vn 0.029508045 0.72034866 0.69298416
vn 0.029508045 0.72034866 0.6929841
vn 0.029508043 0.72034866 0.6929841
vn 0.029508045 0.72034866 0.69298416
vn 0.68738145 0.65753466 0.30847195
vn 0.6873814 0.65753466 0.30847195
vn 0.68738145 0.65753466 0.30847195
vn 0.68738145 0.6575346 0.30847195
vn -0.48813567 0.63573176 0.5979704
vn -0.48813567 0.63573176 0.5979705
vn -0.48813567 0.63573176 0.5979704
vn -0.48813564 0.63573176 0.5979704
g shard44_0
f 3/3/3 2/2/2 1/1/1
f 4/4/4 3/3/3 1/1/1
f 7/7/7 6/6/6 5/5/5
f 8/8/8 7/7/7 5/5/5
f 11/11/11 10/10/10 9/9/9
f 12/12/12 11/11/11 9/9/9
f 15/15/15 14/14/14 13/13/13
f 16/16/16 15/15/15 13/13/13
f 19/19/19 18/18/18 17/17/17
f 20/20/20 19/19/19 17/17/17
f 23/23/23 22/22/22 21/21/21
f 24/24/24 23/23/23 21/21/21
f 27/27/27 26/26/26 25/25/25
f 28/28/28 27/27/27 25/25/25
f 31/31/31 30/30/30 29/29/29
f 32/32/32 31/31/31 29/29/29
