g shard65
v 0.02015489 -0.07330623 0.1245827
v 0.09406871 -0.0657396 0.1299399
v 0.09623357 -0.05445063 0.01484176
v -0.0101348 -0.06166756 0.00949841
v 0.08747056 -0.03889456 -0.05078022
v -0.07155428 -0.06861642 0.115902
v -0.00887546 -0.06714147 0.2043755
v -4.796986E-05 -0.0466336 -0.05196905
v -0.0924525 -0.03752816 -0.04609624
v 0.06819338 -0.004285634 -0.1289268
v 0.1384247 0.01601076 -0.1293747
v 0.0752217 0.05098552 -0.1993473
v 0.01255916 0.000651598 -0.145242
v 0.006065967 0.04637924 -0.2043755
v -0.07936044 0.0006101131 -0.134399
v -0.1384247 0.009399265 -0.1171135
v -0.09305366 0.05831128 -0.1994392
v 0.01962051 -0.05344775 0.1249317
v 0.09431727 -0.03487214 0.0181376
v 0.09183616 -0.04595372 0.1318198
v -0.008599324 -0.04210484 0.01292378
v 0.08421174 -0.02060035 -0.04396959
v -0.07053534 -0.04870084 0.1162085
v -0.007711672 -0.0472104 0.2031935
v 0.0001030811 -0.02781391 -0.04520178
v -0.08884656 -0.01917201 -0.03941335
v 0.06517333 0.0126259 -0.1186857
v 0.1337553 0.03239191 -0.1190291
v 0.07201687 0.06658497 -0.1873124
v 0.01226379 0.01743713 -0.1343719
v 0.006312732 0.06175169 -0.1917874
v -0.07590026 0.01722598 -0.1238188
v -0.1330473 0.02559221 -0.106936
v -0.0889429 0.07330623 -0.1869727
v -0.1330473 0.02559221 -0.106936
v -0.1384247 0.009399265 -0.1171135
v -0.09305366 0.05831128 -0.1994392
v -0.0889429 0.07330623 -0.1869727
v -0.0889429 0.07330623 -0.1869727
v -0.09305366 0.05831128 -0.1994392
v 0.006065967 0.04637924 -0.2043755
v 0.006312732 0.06175169 -0.1917874
v 0.0752217 0.05098552 -0.1993473
v 0.07201687 0.06658497 -0.1873124
v -0.08884656 -0.01917201 -0.03941335
v -0.1384247 0.009399265 -0.1171135
v -0.1330473 0.02559221 -0.106936
v -0.0924525 -0.03752816 -0.04609624
v -0.008599324 -0.04210484 0.01292378
v -0.0101348 -0.06166756 0.00949841
v -0.07053534 -0.04870084 0.1162085
v -0.07155428 -0.06861642 0.115902
v -0.0101348 -0.06166756 0.00949841
v -0.008599324 -0.04210484 0.01292378
v 0.07201687 0.06658497 -0.1873124
v 0.0752217 0.05098552 -0.1993473
v 0.1384247 0.01601076 -0.1293747
v 0.1337553 0.03239191 -0.1190291
v 0.1337553 0.03239191 -0.1190291
v 0.1384247 0.01601076 -0.1293747
v 0.08747056 -0.03889456 -0.05078022
v 0.08421174 -0.02060035 -0.04396959
v 0.08421174 -0.02060035 -0.04396959
v 0.08747056 -0.03889456 -0.05078022
v 0.09623357 -0.05445063 0.01484176
v 0.09431727 -0.03487214 0.0181376
v 0.09406871 -0.0657396 0.1299399
v 0.09183616 -0.04595372 0.1318198
v 0.09183616 -0.04595372 0.1318198
v 0.09406871 -0.0657396 0.1299399
v 0.02015489 -0.07330623 0.1245827
v 0.01962051 -0.05344775 0.1249317
v 0.01962051 -0.05344775 0.1249317
v 0.02015489 -0.07330623 0.1245827
v -0.00887546 -0.06714147 0.2043755
v -0.007711672 -0.0472104 0.2031935
v -0.007711672 -0.0472104 0.2031935
v -0.00887546 -0.06714147 0.2043755
v -0.07155428 -0.06861642 0.115902
v -0.07053534 -0.04870084 0.1162085
vt 0.5 0.875
vt 0.53125 0.875
vt 0.53125 0.84375
vt 0.5 0.84375
vt 0.53125 0.8125
vt 0.46875 0.875
vt 0.5 0.90625
vt 0.5 0.8125
vt 0.46875 0.8125
vt 0.53125 0.78125
vt 0.5625 0.78125
vt 0.53125 0.75
vt 0.5 0.78125
vt 0.5 0.75
vt 0.46875 0.78125
vt 0.4375 0.78125
vt 0.46875 0.75
vt 0.5 0.875
vt 0.53125 0.84375
vt 0.53125 0.875
vt 0.5 0.84375
vt 0.53125 0.8125
vt 0.46875 0.875
vt 0.5 0.90625
vt 0.5 0.8125
vt 0.46875 0.8125
vt 0.53125 0.78125
vt 0.5625 0.78125
vt 0.53125 0.75
vt 0.5 0.78125
vt 0.5 0.75
vt 0.46875 0.78125
vt 0.4375 0.78125
vt 0.46875 0.75
vt 0.4375 0.78125
vt 0.4375 0.78125
vt 0.46875 0.75
vt 0.46875 0.75
vt 0.46875 0.75
vt 0.46875 0.75
vt 0.5 0.75
vt 0.5 0.75
vt 0.53125 0.75
vt 0.53125 0.75
vt 0.46875 0.8125
vt 0.4375 0.78125
vt 0.4375 0.78125
vt 0.46875 0.8125
vt 0.5 0.84375
vt 0.5 0.84375
vt 0.46875 0.875
vt 0.46875 0.875
vt 0.5 0.84375
vt 0.5 0.84375
vt 0.53125 0.75
vt 0.53125 0.75
vt 0.5625 0.78125
vt 0.5625 0.78125
vt 0.5625 0.78125
vt 0.5625 0.78125
vt 0.53125 0.8125
vt 0.53125 0.8125
vt 0.53125 0.8125
vt 0.53125 0.8125
vt 0.53125 0.84375
vt 0.53125 0.84375
vt 0.53125 0.875
vt 0.53125 0.875
vt 0.53125 0.875
vt 0.53125 0.875
vt 0.5 0.875
vt 0.5 0.875
vt 0.5 0.875
vt 0.5 0.875
vt 0.5 0.90625
vt 0.5 0.90625
vt 0.5 0.90625
vt 0.5 0.90625
vt 0.46875 0.875
vt 0.46875 0.875
vn 0.01510146 -0.9978575 -0.06365851
vn 0.1081913 -0.9895782 -0.09502424
vn 0.08142588 -0.9838331 -0.1595061
vn 0.02138883 -0.9865681 -0.1619439
vn 0.1130782 -0.93063 -0.3480535
vn -0.04748324 -0.9981634 -0.03761803
vn -0.0563248 -0.9968113 0.05652098
vn -0.01454048 -0.9347118 -0.3551093
vn -0.1399525 -0.9138337 -0.3812102
vn 0.1527094 -0.8496987 -0.5046702
vn 0.2338404 -0.8206612 -0.5213769
vn 0.1483031 -0.7831436 -0.6038976
vn 5.014213E-05 -0.845855 -0.5334129
vn -0.0269356 -0.7800736 -0.6251076
vn -0.1542187 -0.8372271 -0.5246594
vn -0.2684591 -0.8245358 -0.4980667
vn -0.1601437 -0.7548926 -0.6359962
vn -0.0153742 0.99794 0.06228452
vn -0.08421897 0.984161 0.155995
vn -0.1116279 0.9892944 0.09399865
vn -0.02241424 0.9868073 0.1603403
vn -0.1134098 0.9305224 0.3482333
vn 0.04900675 0.9981255 0.03665754
vn 0.0581894 0.9965546 -0.05910195
vn 0.01541084 0.9341909 0.3564406
vn 0.1398428 0.9135328 0.3819711
vn -0.1530839 0.8484766 0.506609
vn -0.2334722 0.8191781 0.5238683
vn -0.1503089 0.782881 0.6037421
vn -0.0005330437 0.8453543 0.5342059
vn 0.02637544 0.7802038 0.624969
vn 0.1544353 0.8365338 0.5257004
vn 0.2681867 0.8236854 0.4996181
vn 0.1609955 0.7542613 0.6365299
vn -0.8741527 0.4299302 -0.2258697
vn -0.8741527 0.4299302 -0.2258697
vn -0.8741527 0.4299302 -0.2258697
vn -0.8741527 0.4299302 -0.2258697
vn 0.03765272 0.6327336 -0.7734536
vn 0.03765271 0.6327336 -0.7734535
vn 0.02695423 0.6287903 -0.7771077
vn 0.02696437 0.628794 -0.7771043
vn 0.01151568 0.6229433 -0.7821822
vn 0.01151568 0.6229433 -0.7821822
vn -0.7225288 -0.09034283 0.6854125
vn -0.8485404 -0.03695826 0.5278382
vn -0.8485404 -0.03695826 0.5278382
vn -0.7221779 -0.09047007 0.6857654
vn -0.575135 -0.1370119 0.8065032
vn -0.575135 -0.1370119 0.8065032
vn -0.8602346 0.1028703 -0.4994141
vn -0.8602346 0.1028703 -0.499414
vn -0.8602346 0.1028703 -0.4994141
vn -0.8602344 0.1028703 -0.499414
vn 0.7542617 0.4908671 -0.436049
vn 0.7542617 0.4908671 -0.436049
vn 0.7542617 0.490867 -0.436049
vn 0.7542617 0.4908671 -0.436049
vn 0.8542137 -0.06020153 0.516425
vn 0.8542137 -0.06020154 0.5164251
vn 0.8542137 -0.06020154 0.516425
vn 0.8542137 -0.06020154 0.5164251
vn 0.9808853 0.1625695 -0.1069355
vn 0.9808853 0.1625695 -0.1069355
vn 0.9921438 0.1235503 -0.01964631
vn 0.9921296 0.1236342 -0.01983139
vn 0.9944466 0.1008585 0.03005691
vn 0.9944466 0.1008585 0.03005691
vn -0.07706955 -0.06132915 0.9951378
vn -0.07706954 -0.06132914 0.9951378
vn -0.07706955 -0.06132915 0.9951378
vn -0.07706955 -0.06132915 0.9951378
vn 0.9416792 -0.00785209 0.3364204
vn 0.9416792 -0.00785209 0.3364204
vn 0.9416792 -0.00785209 0.3364204
vn 0.9416792 -0.007852091 0.3364205
vn -0.8124731 0.05725402 0.5801805
vn -0.8124731 0.05725402 0.5801805
vn -0.8124731 0.05725402 0.5801805
vn -0.8124731 0.05725402 0.5801806
g shard65_0
f 3/3/3 2/2/2 1/1/1
f 3/3/3 1/1/1 4/4/4
f 5/5/5 3/3/3 4/4/4
f 4/4/4 1/1/1 6/6/6
f 7/7/7 6/6/6 1/1/1
f 5/5/5 4/4/4 8/8/8
f 4/4/4 9/9/9 8/8/8
f 10/10/10 5/5/5 8/8/8
f 11/11/11 5/5/5 10/10/10
f 11/11/11 10/10/10 12/12/12
f 12/12/12 10/10/10 13/13/13
f 10/10/10 8/8/8 13/13/13
f 12/12/12 13/13/13 14/14/14
f 8/8/8 9/9/9 15/15/15
f 8/8/8 15/15/15 13/13/13
f 14/14/14 13/13/13 15/15/15
f 9/9/9 16/16/16 15/15/15
f 14/14/14 15/15/15 17/17/17
f 17/17/17 15/15/15 16/16/16
f 20/20/20 19/19/19 18/18/18
f 18/18/18 19/19/19 21/21/21
f 19/19/19 22/22/22 21/21/21
f 18/18/18 21/21/21 23/23/23
f 23/23/23 24/24/24 18/18/18
f 21/21/21 22/22/22 25/25/25
f 26/26/26 21/21/21 25/25/25
f 22/22/22 27/27/27 25/25/25
f 22/22/22 28/28/28 27/27/27
f 27/27/27 28/28/28 29/29/29
f 27/27/27 29/29/29 30/30/30
f 25/25/25 27/27/27 30/30/30
f 30/30/30 29/29/29 31/31/31
f 26/26/26 25/25/25 32/32/32
f 32/32/32 25/25/25 30/30/30
f 30/30/30 31/31/31 32/32/32
f 33/33/33 26/26/26 32/32/32
f 32/32/32 31/31/31 34/34/34
f 32/32/32 34/34/34 33/33/33
f 37/37/37 36/36/36 35/35/35
f 38/38/38 37/37/37 35/35/35
f 41/41/41 40/40/40 39/39/39
f 42/42/42 41/41/41 39/39/39
f 43/43/43 41/41/41 42/42/42
f 44/44/44 43/43/43 42/42/42
f 47/47/47 46/46/46 45/45/45
f 46/46/46 48/48/48 45/45/45
f 45/45/45 48/48/48 49/49/49
f 48/48/48 50/50/50 49/49/49
f 53/53/53 52/52/52 51/51/51
f 54/54/54 53/53/53 51/51/51
f 57/57/57 56/56/56 55/55/55
f 58/58/58 57/57/57 55/55/55
f 61/61/61 60/60/60 59/59/59
f 62/62/62 61/61/61 59/59/59
f 65/65/65 64/64/64 63/63/63
f 66/66/66 65/65/65 63/63/63
f 67/67/67 65/65/65 66/66/66
f 68/68/68 67/67/67 66/66/66
f 71/71/71 70/70/70 69/69/69
f 72/72/72 71/71/71 69/69/69
f 75/75/75 74/74/74 73/73/73
f 76/76/76 75/75/75 73/73/73
f 79/79/79 78/78/78 77/77/77
f 80/80/80 79/79/79 77/77/77
