g shard106
v -0.04505423 -0.08376134 0.1066947
v -0.02905297 -0.0815509 0.1184388
v 0.02141833 -0.09548032 0.04590484
v 0.004147768 -0.09676809 0.03602296
v 0.05792883 -0.07897905 -0.03371206
v 0.03928211 -0.08082729 -0.04038897
v -0.06492844 0.0109259 0.1086026
v -0.0494518 0.01456522 0.120719
v -0.02905297 -0.0815509 0.1184388
v -0.04505423 -0.08376134 0.1066947
v 0.0001110137 0.09137087 -0.03428969
v 0.01811829 0.09676809 -0.02759451
v -0.002768338 0.05869161 0.04430182
v -0.01925218 0.05382016 0.03434946
v -0.0494518 0.01456522 0.120719
v -0.06492844 0.0109259 0.1086026
v 0.03928211 -0.08082729 -0.04038897
v 0.05792883 -0.07897905 -0.03371206
v 0.06492847 0.02421202 -0.1155858
v 0.04605964 0.02028404 -0.120719
v 0.04605964 0.02028404 -0.120719
v 0.06492847 0.02421202 -0.1155858
v 0.01811829 0.09676809 -0.02759451
v 0.0001110137 0.09137087 -0.03428969
v 0.05792883 -0.07897905 -0.03371206
v 0.04284453 -0.005605914 -0.0117608
v 0.06492847 0.02421202 -0.1155858
v 0.01811829 0.09676809 -0.02759451
v 0.02141833 -0.09548032 0.04590484
v -0.002768338 0.05869161 0.04430182
v 0.01803714 -0.001157098 0.03897499
v -0.02905297 -0.0815509 0.1184388
v -0.0494518 0.01456522 0.120719
v 0.03928211 -0.08082729 -0.04038897
v 0.04605964 0.02028404 -0.120719
v 0.02441189 -0.008987114 -0.01874685
v 0.0001110137 0.09137087 -0.03428969
v 0.004147768 -0.09676809 0.03602296
v -0.01925218 0.05382016 0.03434946
v 0.001054287 -0.004495144 0.02895302
v -0.04505423 -0.08376134 0.1066947
v -0.06492844 0.0109259 0.1086026
vt 0.625 0.125
vt 0.625 0.125
vt 0.65625 0.125
vt 0.65625 0.125
vt 0.6875 0.125
vt 0.6875 0.125
vt 0.625 0.15625
vt 0.625 0.15625
vt 0.625 0.125
vt 0.625 0.125
vt 0.6875 0.1875
vt 0.6875 0.1875
vt 0.65625 0.1875
vt 0.65625 0.1875
vt 0.625 0.15625
vt 0.625 0.15625
vt 0.6875 0.125
vt 0.6875 0.125
vt 0.71875 0.15625
vt 0.71875 0.15625
vt 0.71875 0.15625
vt 0.71875 0.15625
vt 0.6875 0.1875
vt 0.6875 0.1875
vt 0.6875 0.125
vt 0.6875 0.15625
vt 0.71875 0.15625
vt 0.6875 0.1875
vt 0.65625 0.125
vt 0.65625 0.1875
vt 0.65625 0.15625
vt 0.625 0.125
vt 0.625 0.15625
vt 0.6875 0.125
vt 0.71875 0.15625
vt 0.6875 0.15625
vt 0.6875 0.1875
vt 0.65625 0.125
vt 0.65625 0.1875
vt 0.65625 0.15625
vt 0.625 0.125
vt 0.625 0.15625
vn -0.01159843 -0.9841357 0.1770375
vn -0.01159843 -0.9841357 0.1770375
vn 0.06876358 -0.9973883 0.02209436
vn 0.06867481 -0.9973906 0.02226817
vn 0.1480883 -0.9796218 -0.1356877
vn 0.1480883 -0.9796218 -0.1356877
vn -0.5814095 -0.1403095 0.8014215
vn -0.5814095 -0.1403096 0.8014215
vn -0.5814095 -0.1403095 0.8014213
vn -0.5814095 -0.1403096 0.8014215
vn -0.4141911 0.8457104 0.3364816
vn -0.4141911 0.8457104 0.3364816
vn -0.4119449 0.8630361 0.292353
vn -0.4119417 0.8630551 0.2923013
vn -0.4093592 0.8760103 0.2550116
vn -0.4093592 0.8760103 0.2550116
vn 0.322647 -0.6017926 -0.7305782
vn 0.3226471 -0.6017926 -0.7305782
vn 0.3226471 -0.6017926 -0.7305782
vn 0.322647 -0.6017926 -0.7305782
vn 0.007457397 0.773846 -0.6333298
vn 0.007457397 0.773846 -0.6333299
vn 0.007457397 0.773846 -0.6333299
vn 0.007457397 0.773846 -0.6333299
vn 0.9355523 0.09017135 0.3414836
vn 0.9269808 0.1771837 0.3306246
vn 0.9399936 0.2179257 0.262527
vn 0.9057515 0.26937 0.3271913
vn 0.8584313 0.06668013 0.5085759
vn 0.8375308 0.2499951 0.4858443
vn 0.835113 0.1506763 0.5290394
vn 0.7981513 0.1166978 0.5910466
vn 0.7759021 0.1654236 0.6087784
vn -0.9357355 -0.09103566 -0.3407514
vn -0.9399045 -0.2186026 -0.2622831
vn -0.927489 -0.177662 -0.3289385
vn -0.9065434 -0.2697906 -0.3246414
vn -0.8575374 -0.06654993 -0.5100987
vn -0.8376226 -0.2492383 -0.4860747
vn -0.8337915 -0.1500039 -0.5313102
vn -0.7974005 -0.1168091 -0.5920373
vn -0.7749884 -0.1648836 -0.6100871
g shard106_0
f 3/3/3 2/2/2 1/1/1
f 4/4/4 3/3/3 1/1/1
f 5/5/5 3/3/3 4/4/4
f 6/6/6 5/5/5 4/4/4
f 9/9/9 8/8/8 7/7/7
f 10/10/10 9/9/9 7/7/7
f 13/13/13 12/12/12 11/11/11
f 14/14/14 13/13/13 11/11/11
f 15/15/15 13/13/13 14/14/14
f 16/16/16 15/15/15 14/14/14
f 19/19/19 18/18/18 17/17/17
f 20/20/20 19/19/19 17/17/17
f 23/23/23 22/22/22 21/21/21
f 24/24/24 23/23/23 21/21/21
f 27/27/27 26/26/26 25/25/25
f 27/27/27 28/28/28 26/26/26
f 26/26/26 29/29/29 25/25/25
f 26/26/26 28/28/28 30/30/30
f 26/26/26 31/31/31 29/29/29
f 26/26/26 30/30/30 31/31/31
f 31/31/31 32/32/32 29/29/29
f 30/30/30 33/33/33 31/31/31
f 31/31/31 33/33/33 32/32/32
f 36/36/36 35/35/35 34/34/34
f 37/37/37 35/35/35 36/36/36
f 38/38/38 36/36/36 34/34/34
f 37/37/37 36/36/36 39/39/39
f 40/40/40 36/36/36 38/38/38
f 39/39/39 36/36/36 40/40/40
f 41/41/41 40/40/40 38/38/38
f 42/42/42 39/39/39 40/40/40
f 42/42/42 40/40/40 41/41/41
