g shard84
v -0.030123927 0.06946242 -0.010958582
v 0.066067964 0.058495462 -0.031726778
v 0.061019495 0.11633903 0.012144029
v -0.005640544 -0.01263465 -0.059546113
v 0.07629597 -0.006506011 -0.062231243
v -0.086733 0.035691485 -0.014981359
v -0.0887177 0.10513753 0.03734538
v -0.16674893 0.035089582 0.025587082
v -0.16973206 0.08069232 0.06714225
v -0.21638124 0.041971058 0.075244576
v -0.22888152 -0.035625502 0.033794135
v -0.18506904 -0.039144993 -0.002221346
v -0.1203942 -0.030033857 -0.03365165
v -0.021592416 -0.09298514 -0.08150309
v 0.05814757 -0.092444025 -0.088158816
v 0.13302624 -0.11114567 -0.086197495
v 0.14608341 -0.0076269805 -0.055190742
v 0.13149112 0.050360143 -0.029291838
v 0.22888152 -0.08830117 -0.057422817
v -0.026212946 0.05777371 0.004681051
v 0.06310211 0.10438138 0.028039873
v 0.06771906 0.04836981 -0.014699668
v -0.002591446 -0.019976303 -0.041193932
v 0.07594852 -0.014947295 -0.04417199
v -0.08048613 0.026114285 0.0014275908
v -0.08155018 0.09349647 0.051845163
v -0.15696473 0.02521266 0.039964706
v -0.15985234 0.06937066 0.08025786
v -0.20478733 0.032085374 0.088158846
v -0.21726124 -0.044199318 0.047605872
v -0.17498308 -0.047301665 0.012941033
v -0.113400236 -0.037126213 -0.016497403
v -0.018258557 -0.09877835 -0.06273496
v 0.058038276 -0.09789346 -0.06899539
v 0.12986511 -0.11633901 -0.06719029
v 0.14289194 -0.014444232 -0.036795616
v 0.12957667 0.041771293 -0.011331707
v 0.22441305 -0.09334682 -0.038592696
v -0.20478733 0.032085374 0.088158846
v -0.21638124 0.041971058 0.075244576
v -0.16973206 0.08069232 0.06714225
v -0.15985234 0.06937066 0.08025786
v -0.0887177 0.10513753 0.03734538
v -0.08155018 0.09349647 0.051845163
v -0.113400236 -0.037126213 -0.016497403
v -0.1203942 -0.030033857 -0.03365165
v -0.18506904 -0.039144993 -0.002221346
v -0.17498308 -0.047301665 0.012941033
v -0.22888152 -0.035625502 0.033794135
v -0.21726124 -0.044199318 0.047605872
v -0.21726124 -0.044199318 0.047605872
v -0.22888152 -0.035625502 0.033794135
v -0.21638124 0.041971058 0.075244576
v -0.20478733 0.032085374 0.088158846
v -0.08155018 0.09349647 0.051845163
v -0.0887177 0.10513753 0.03734538
v -0.030123927 0.06946242 -0.010958582
v -0.026212946 0.05777371 0.004681051
v -0.026212946 0.05777371 0.004681051
v -0.030123927 0.06946242 -0.010958582
v 0.061019495 0.11633903 0.012144029
v 0.06310211 0.10438138 0.028039873
v 0.06310211 0.10438138 0.028039873
v 0.061019495 0.11633903 0.012144029
v 0.066067964 0.058495462 -0.031726778
v 0.06771906 0.04836981 -0.014699668
v 0.07629597 -0.006506011 -0.062231243
v 0.07594852 -0.014947295 -0.04417199
v -0.018258557 -0.09877835 -0.06273496
v -0.021592416 -0.09298514 -0.08150309
v -0.1203942 -0.030033857 -0.03365165
v -0.113400236 -0.037126213 -0.016497403
v 0.058038276 -0.09789346 -0.06899539
v -0.021592416 -0.09298514 -0.08150309
v -0.018258557 -0.09877835 -0.06273496
v 0.05814757 -0.092444025 -0.088158816
v 0.12986511 -0.11633901 -0.06719029
v 0.13302624 -0.11114567 -0.086197495
v 0.07594852 -0.014947295 -0.04417199
v 0.07629597 -0.006506011 -0.062231243
v 0.13149112 0.050360143 -0.029291838
v 0.12957667 0.041771293 -0.011331707
v 0.12957667 0.041771293 -0.011331707
v 0.13149112 0.050360143 -0.029291838
v 0.14608341 -0.0076269805 -0.055190742
v 0.14289194 -0.014444232 -0.036795616
v 0.14289194 -0.014444232 -0.036795616
v 0.14608341 -0.0076269805 -0.055190742
v 0.22888152 -0.08830117 -0.057422817
v 0.22441305 -0.09334682 -0.038592696
v 0.22441305 -0.09334682 -0.038592696
v 0.22888152 -0.08830117 -0.057422817
v 0.13302624 -0.11114567 -0.086197495
v 0.12986511 -0.11633901 -0.06719029
vt 0.46875 0.53125
vt 0.5 0.53125
vt 0.5 0.5
vt 0.46875 0.5625
vt 0.5 0.5625
vt 0.4375 0.53125
vt 0.4375 0.5
vt 0.40625 0.53125
vt 0.40625 0.5
vt 0.375 0.53125
vt 0.375 0.5625
vt 0.40625 0.5625
vt 0.4375 0.5625
vt 0.46875 0.59375
vt 0.5 0.59375
vt 0.53125 0.59375
vt 0.53125 0.5625
vt 0.53125 0.53125
vt 0.5625 0.59375
vt 0.46875 0.53125
vt 0.5 0.5
vt 0.5 0.53125
vt 0.46875 0.5625
vt 0.5 0.5625
vt 0.4375 0.53125
vt 0.4375 0.5
vt 0.40625 0.53125
vt 0.40625 0.5
vt 0.375 0.53125
vt 0.375 0.5625
vt 0.40625 0.5625
vt 0.4375 0.5625
vt 0.46875 0.59375
vt 0.5 0.59375
vt 0.53125 0.59375
vt 0.53125 0.5625
vt 0.53125 0.53125
vt 0.5625 0.59375
vt 0.375 0.53125
vt 0.375 0.53125
vt 0.40625 0.5
vt 0.40625 0.5
vt 0.4375 0.5
vt 0.4375 0.5
vt 0.4375 0.5625
vt 0.4375 0.5625
vt 0.40625 0.5625
vt 0.40625 0.5625
vt 0.375 0.5625
vt 0.375 0.5625
vt 0.375 0.5625
vt 0.375 0.5625
vt 0.375 0.53125
vt 0.375 0.53125
vt 0.4375 0.5
vt 0.4375 0.5
vt 0.46875 0.53125
vt 0.46875 0.53125
vt 0.46875 0.53125
vt 0.46875 0.53125
vt 0.5 0.5
vt 0.5 0.5
vt 0.5 0.5
vt 0.5 0.5
vt 0.5 0.53125
vt 0.5 0.53125
vt 0.5 0.5625
vt 0.5 0.5625
vt 0.46875 0.59375
vt 0.46875 0.59375
vt 0.4375 0.5625
vt 0.4375 0.5625
vt 0.5 0.59375
vt 0.46875 0.59375
vt 0.46875 0.59375
vt 0.5 0.59375
vt 0.53125 0.59375
vt 0.53125 0.59375
vt 0.5 0.5625
vt 0.5 0.5625
vt 0.53125 0.53125
vt 0.53125 0.53125
vt 0.53125 0.53125
vt 0.53125 0.53125
vt 0.53125 0.5625
vt 0.53125 0.5625
vt 0.53125 0.5625
vt 0.53125 0.5625
vt 0.5625 0.59375
vt 0.5625 0.59375
vt 0.5625 0.59375
vt 0.5625 0.59375
vt 0.53125 0.59375
vt 0.53125 0.59375
vn -0.18319632 0.5119402 -0.8392594
vn -0.10588158 0.50976866 -0.85377103
vn -0.104166724 0.59521955 -0.79678285
vn -0.16161309 0.36556363 -0.9166485
vn 0.0172957 0.33366072 -0.9425345
vn -0.31346002 0.47325367 -0.8232702
vn -0.36660817 0.5669361 -0.7376868
vn -0.47748545 0.49312207 -0.72721267
vn -0.47439668 0.5757715 -0.6659091
vn -0.58691627 0.47872078 -0.6529592
vn -0.58016586 0.4294294 -0.69209677
vn -0.49821714 0.40928844 -0.76437074
vn -0.33396626 0.38388047 -0.860873
vn -0.17527439 0.2917478 -0.9402989
vn 0.009365844 0.2803076 -0.9598645
vn 0.16268219 0.26278713 -0.95104015
vn 0.14471138 0.30298492 -0.9419442
vn 0.097575985 0.4262278 -0.89933807
vn 0.22206676 0.25395894 -0.9413773
vn 0.18314259 -0.51146436 0.83956116
vn 0.1041309 -0.5978814 0.7947921
vn 0.10521192 -0.51205534 0.8524845
vn 0.16145574 -0.36468714 0.91702527
vn -0.017766424 -0.33206326 0.9430898
vn 0.31380138 -0.4738696 0.82278574
vn 0.36727494 -0.56739557 0.7370016
vn 0.47899738 -0.49336135 0.72605515
vn 0.4747859 -0.57608134 0.66536355
vn 0.5884209 -0.47809473 0.6520631
vn 0.5813634 -0.42890224 0.69141847
vn 0.5013277 -0.4087702 0.7626123
vn 0.3336661 -0.38396218 0.8609529
vn 0.17471495 -0.291797 0.9403878
vn -0.008587477 -0.278613 0.96036506
vn -0.16512634 -0.26071817 0.9511883
vn -0.14689851 -0.30279076 0.9416681
vn -0.09572255 -0.4294426 0.89800686
vn -0.22342427 -0.2522826 0.9415068
vn -0.34249362 0.5699485 0.74689823
vn -0.34249365 0.5699484 0.74689823
vn -0.14252114 0.70228505 0.6974836
vn -0.1419849 0.70257705 0.6972988
vn -0.00066417636 0.76870525 0.63960284
vn -0.00066417636 0.7687053 0.63960284
vn -0.05442279 -0.91382796 -0.4024385
vn -0.054422785 -0.91382784 -0.40243846
vn -0.1688186 -0.91886663 -0.35662943
vn -0.16870536 -0.91886854 -0.35667795
vn -0.30887052 -0.90536726 -0.29139182
vn -0.30887052 -0.90536726 -0.29139182
vn -0.8000919 -0.17578979 0.5735423
vn -0.8000919 -0.1757898 0.5735423
vn -0.80009204 -0.1757898 0.5735423
vn -0.8000919 -0.17578979 0.5735423
vn 0.66909146 0.6862529 0.2852605
vn 0.66909146 0.68625283 0.2852605
vn 0.66909146 0.68625283 0.2852605
vn 0.6690915 0.68625283 0.2852605
vn -0.4872578 0.65169424 0.5812697
vn -0.48725787 0.65169424 0.5812697
vn -0.48725787 0.6516943 0.5812697
vn -0.48725787 0.6516943 0.5812697
vn 0.99295396 0.11253508 -0.037124734
vn 0.99295396 0.11253509 -0.03712473
vn 0.99272424 0.12036704 -0.003216536
vn 0.9927235 0.12037394 -0.0031863467
vn 0.991276 0.12811339 0.030963749
vn 0.991276 0.1281134 0.03096375
vn -0.57802135 -0.8066717 -0.123174585
vn -0.5780214 -0.8066718 -0.12317461
vn -0.57802135 -0.8066717 -0.123174585
vn -0.5780214 -0.8066718 -0.12317459
vn -0.12074004 -0.9514966 -0.28297725
vn -0.014661191 -0.9590087 -0.28299734
vn -0.014661192 -0.9590087 -0.28299734
vn -0.12084934 -0.9514832 -0.28297555
vn -0.22892131 -0.9324281 -0.2795941
vn -0.2289213 -0.9324281 -0.27959406
vn -0.7662218 0.5981785 0.2347052
vn -0.7662219 0.59817845 0.2347052
vn -0.7662218 0.5981785 0.2347052
vn -0.7662219 0.59817845 0.2347052
vn 0.9689283 0.14746746 0.19857307
vn 0.9689283 0.14746745 0.19857305
vn 0.9689283 0.14746745 0.19857302
vn 0.9689283 0.14746743 0.19857305
vn 0.6574539 0.66820043 0.34822762
vn 0.65745384 0.6682005 0.3482276
vn 0.6574539 0.6682005 0.34822765
vn 0.65745395 0.6682005 0.34822762
vn 0.28503272 -0.93818045 -0.19640236
vn 0.2850327 -0.93818045 -0.19640236
vn 0.28503266 -0.93818045 -0.19640236
vn 0.2850327 -0.93818045 -0.19640236
g shard84_0
f 3/3/3 2/2/2 1/1/1
f 2/2/2 4/4/4 1/1/1
f 2/2/2 5/5/5 4/4/4
f 4/4/4 6/6/6 1/1/1
f 1/1/1 6/6/6 7/7/7
f 7/7/7 6/6/6 8/8/8
f 7/7/7 8/8/8 9/9/9
f 9/9/9 8/8/8 10/10/10
f 8/8/8 11/11/11 10/10/10
f 8/8/8 12/12/12 11/11/11
f 13/13/13 12/12/12 8/8/8
f 13/13/13 8/8/8 6/6/6
f 4/4/4 13/13/13 6/6/6
f 14/14/14 13/13/13 4/4/4
f 15/15/15 14/14/14 4/4/4
f 15/15/15 4/4/4 5/5/5
f 16/16/16 15/15/15 5/5/5
f 16/16/16 5/5/5 17/17/17
f 18/18/18 17/17/17 5/5/5
f 19/19/19 16/16/16 17/17/17
f 22/22/22 21/21/21 20/20/20
f 23/23/23 22/22/22 20/20/20
f 24/24/24 22/22/22 23/23/23
f 25/25/25 23/23/23 20/20/20
f 25/25/25 20/20/20 26/26/26
f 25/25/25 26/26/26 27/27/27
f 27/27/27 26/26/26 28/28/28
f 27/27/27 28/28/28 29/29/29
f 30/30/30 27/27/27 29/29/29
f 31/31/31 27/27/27 30/30/30
f 31/31/31 32/32/32 27/27/27
f 27/27/27 32/32/32 25/25/25
f 32/32/32 23/23/23 25/25/25
f 32/32/32 33/33/33 23/23/23
f 33/33/33 34/34/34 23/23/23
f 23/23/23 34/34/34 24/24/24
f 34/34/34 35/35/35 24/24/24
f 24/24/24 35/35/35 36/36/36
f 36/36/36 37/37/37 24/24/24
f 35/35/35 38/38/38 36/36/36
f 41/41/41 40/40/40 39/39/39
f 42/42/42 41/41/41 39/39/39
f 43/43/43 41/41/41 42/42/42
f 44/44/44 43/43/43 42/42/42
f 47/47/47 46/46/46 45/45/45
f 48/48/48 47/47/47 45/45/45
f 49/49/49 47/47/47 48/48/48
f 50/50/50 49/49/49 48/48/48
f 53/53/53 52/52/52 51/51/51
f 54/54/54 53/53/53 51/51/51
f 57/57/57 56/56/56 55/55/55
f 58/58/58 57/57/57 55/55/55
f 61/61/61 60/60/60 59/59/59
f 62/62/62 61/61/61 59/59/59
f 65/65/65 64/64/64 63/63/63
f 66/66/66 65/65/65 63/63/63
f 67/67/67 65/65/65 66/66/66
f 68/68/68 67/67/67 66/66/66
f 71/71/71 70/70/70 69/69/69
f 72/72/72 71/71/71 69/69/69
f 75/75/75 74/74/74 73/73/73
f 74/74/74 76/76/76 73/73/73
f 73/73/73 76/76/76 77/77/77
f 76/76/76 78/78/78 77/77/77
f 81/81/81 80/80/80 79/79/79
f 82/82/82 81/81/81 79/79/79
f 85/85/85 84/84/84 83/83/83
f 86/86/86 85/85/85 83/83/83
f 89/89/89 88/88/88 87/87/87
f 90/90/90 89/89/89 87/87/87
f 93/93/93 92/92/92 91/91/91
f 94/94/94 93/93/93 91/91/91
