g shard37
v -0.2652615 -0.19396675 0.283071
v -0.4774707 -0.34914014 0.5095278
v -0.37752807 -0.39538842 0.5598852
v -0.20973782 -0.21966024 0.31104735
v -0.14233947 -0.28650954 0.2945516
v -0.25621104 -0.51571715 0.5301929
v -0.39600024 -0.47679573 0.47799486
v -0.22000013 -0.26488653 0.2655527
v -0.20973782 -0.21966024 0.31104735
v -0.37752807 -0.39538842 0.5598852
v -0.27957702 -0.30414468 0.6574333
v -0.15532055 -0.16896926 0.3652407
v -0.08288004 -0.23456438 0.3545331
v -0.14918408 -0.42221588 0.63815963
v -0.25621104 -0.51571715 0.5301929
v -0.14233947 -0.28650954 0.2945516
v -0.15532055 -0.16896926 0.3652407
v -0.27957702 -0.30414468 0.6574333
v -0.14918408 -0.42221588 0.63815963
v -0.08288004 -0.23456438 0.3545331
v -0.2240236 -0.30120984 0.21911107
v -0.40324247 -0.5421777 0.39439994
v -0.48128942 -0.4779547 0.39099506
v -0.267383 -0.26553038 0.21721947
v -0.22000013 -0.26488653 0.2655527
v -0.39600024 -0.47679573 0.47799486
v -0.40324247 -0.5421777 0.39439994
v -0.2240236 -0.30120984 0.21911107
v -0.267383 -0.26553038 0.21721947
v -0.48128942 -0.4779547 0.39099506
v -0.5596281 -0.38502216 0.38936096
v -0.31090453 -0.21390119 0.21631165
v -0.31090453 -0.21390119 0.21631165
v -0.5596281 -0.38502216 0.38936096
v -0.4774707 -0.34914014 0.5095278
v -0.2652615 -0.19396675 0.283071
vt 0 0
vt 0 1
vt 0.09494732 1
vt 0.09494732 0
vt 0.5035163 0
vt 0.5035163 1
vt 0.6244306 1
vt 0.6244306 0
vt 0.09494732 0
vt 0.09494732 1
vt 0.22482155 1
vt 0.22482155 0
vt 0.36357388 0
vt 0.36357388 1
vt 0.5035163 1
vt 0.5035163 0
vt 0.22482155 0
vt 0.22482155 1
vt 0.36357388 1
vt 0.36357388 0
vt 0.70783734 0
vt 0.70783734 1
vt 0.78713346 1
vt 0.78713346 0
vt 0.6244306 0
vt 0.6244306 1
vt 0.70783734 1
vt 0.70783734 0
vt 0.78713346 0
vt 0.78713346 1
vt 0.8824452 1
vt 0.8824452 0
vt 0.8824452 0
vt 0.8824452 1
vt 1 1
vt 1 0
vn -0.06341174 -0.7945563 -0.60387015
vn -0.06341175 -0.79455626 -0.6038702
vn -0.06341175 -0.7945563 -0.60387015
vn -0.063411735 -0.7945563 -0.6038702
vn -0.052311745 0.72836006 0.6831947
vn -0.052311745 0.72836006 0.6831947
vn -0.052311745 0.7283601 0.6831947
vn -0.052311745 0.72836006 0.68319476
vn 0.69882375 -0.7145149 -0.033373456
vn 0.6988238 -0.7145149 -0.03337346
vn 0.6988238 -0.71451485 -0.03337346
vn 0.6988237 -0.7145149 -0.033373456
vn -0.7600233 0.6094916 0.22557624
vn -0.7600233 0.6094916 0.22557624
vn -0.7600233 0.6094916 0.22557627
vn -0.76002336 0.6094916 0.22557625
vn -0.6104363 -0.5874059 -0.5313395
vn -0.6104363 -0.587406 -0.5313396
vn -0.6104363 -0.5874059 -0.5313395
vn -0.6104363 -0.587406 -0.5313396
vn 0.29732186 0.40710703 0.863634
vn 0.29732186 0.40710703 0.863634
vn 0.29732183 0.40710703 0.8636339
vn 0.2973219 0.40710703 0.863634
vn -0.8562416 0.44028714 -0.27018073
vn -0.85624146 0.4402872 -0.27018073
vn -0.8562416 0.4402872 -0.27018073
vn -0.8562416 0.44028714 -0.27018073
vn 0.3747207 0.33110324 0.8659995
vn 0.37472066 0.33110324 0.8659995
vn 0.37472066 0.33110327 0.8659995
vn 0.37472063 0.33110324 0.8659995
vn 0.5163433 -0.85063785 -0.09901955
vn 0.5163433 -0.8506378 -0.09901954
vn 0.51634324 -0.85063785 -0.09901954
vn 0.5163433 -0.85063785 -0.09901955
g shard37_0
f 3/3/3 2/2/2 1/1/1
f 4/4/4 3/3/3 1/1/1
f 7/7/7 6/6/6 5/5/5
f 8/8/8 7/7/7 5/5/5
f 11/11/11 10/10/10 9/9/9
f 12/12/12 11/11/11 9/9/9
f 15/15/15 14/14/14 13/13/13
f 16/16/16 15/15/15 13/13/13
f 19/19/19 18/18/18 17/17/17
f 20/20/20 19/19/19 17/17/17
f 23/23/23 22/22/22 21/21/21
f 24/24/24 23/23/23 21/21/21
f 27/27/27 26/26/26 25/25/25
f 28/28/28 27/27/27 25/25/25
f 31/31/31 30/30/30 29/29/29
f 32/32/32 31/31/31 29/29/29
f 35/35/35 34/34/34 33/33/33
f 36/36/36 35/35/35 33/33/33
