g shard93
v -0.06752139 0.059417307 -0.09723932
v -0.07564059 0.04302612 -0.105288096
v -0.008405343 0.017543823 -0.11587497
v -0.00231117 0.034463048 -0.10726955
v -0.10862258 0.04785624 -0.024164282
v -0.07564059 0.04302612 -0.105288096
v -0.06752139 0.059417307 -0.09723932
v -0.11753714 0.031138748 -0.030450232
v -0.112782955 0.027869493 0.04986245
v -0.121774554 0.010443121 0.04625584
v -0.11368154 0.020884693 0.11287067
v -0.12213686 0.0028505921 0.11114555
v -0.00231117 0.034463048 -0.10726955
v -0.008405343 0.017543823 -0.11587497
v 0.038504943 -0.028647512 -0.04657992
v 0.041889623 -0.010301173 -0.039746888
v 0.12005191 -0.05271709 0.008814864
v 0.12213685 -0.033234 0.012590244
v 0.12213685 -0.033234 0.012590244
v 0.12005191 -0.05271709 0.008814864
v 0.05702038 -0.059417278 0.11370314
v 0.06020084 -0.03983 0.11587496
v 0.06020084 -0.03983 0.11587496
v 0.05702038 -0.059417278 0.11370314
v -0.022732586 -0.041240633 0.1122428
v -0.016496792 -0.02241072 0.11385872
v -0.12213686 0.0028505921 0.11114555
v -0.11368154 0.020884693 0.11287067
v -0.121774554 0.010443121 0.04625584
v -0.12213686 0.0028505921 0.11114555
v -0.0476505 -0.0239546 0.027806267
v -0.11753714 0.031138748 -0.030450232
v -0.022732586 -0.041240633 0.1122428
v -0.019412443 -0.008216262 -0.05742102
v -0.07564059 0.04302612 -0.105288096
v -0.008405343 0.017543823 -0.11587497
v 0.038504943 -0.028647512 -0.04657992
v 0.034931786 -0.044944823 0.015856698
v 0.05702038 -0.059417278 0.11370314
v 0.12005191 -0.05271709 0.008814864
v -0.112782955 0.027869493 0.04986245
v -0.040343896 -0.005723834 0.03158155
v -0.11368154 0.020884693 0.11287067
v -0.10862258 0.04785624 -0.024164282
v -0.016496792 -0.02241072 0.11385872
v -0.012820497 0.009269178 -0.05029317
v -0.06752139 0.059417307 -0.09723932
v -0.00231117 0.034463048 -0.10726955
v 0.041889623 -0.010301173 -0.039746888
v 0.03870544 -0.02566579 0.019608766
v 0.06020084 -0.03983 0.11587496
v 0.12213685 -0.033234 0.012590244
vt 0.40625 0.78125
vt 0.40625 0.78125
vt 0.4375 0.78125
vt 0.4375 0.78125
vt 0.40625 0.8125
vt 0.40625 0.78125
vt 0.40625 0.78125
vt 0.40625 0.8125
vt 0.40625 0.84375
vt 0.40625 0.84375
vt 0.40625 0.875
vt 0.40625 0.875
vt 0.4375 0.78125
vt 0.4375 0.78125
vt 0.46875 0.8125
vt 0.46875 0.8125
vt 0.5 0.84375
vt 0.5 0.84375
vt 0.5 0.84375
vt 0.5 0.84375
vt 0.46875 0.875
vt 0.46875 0.875
vt 0.46875 0.875
vt 0.46875 0.875
vt 0.4375 0.875
vt 0.4375 0.875
vt 0.40625 0.875
vt 0.40625 0.875
vt 0.40625 0.84375
vt 0.40625 0.875
vt 0.4375 0.84375
vt 0.40625 0.8125
vt 0.4375 0.875
vt 0.4375 0.8125
vt 0.40625 0.78125
vt 0.4375 0.78125
vt 0.46875 0.8125
vt 0.46875 0.84375
vt 0.46875 0.875
vt 0.5 0.84375
vt 0.40625 0.84375
vt 0.4375 0.84375
vt 0.40625 0.875
vt 0.40625 0.8125
vt 0.4375 0.875
vt 0.4375 0.8125
vt 0.40625 0.78125
vt 0.4375 0.78125
vt 0.46875 0.8125
vt 0.46875 0.84375
vt 0.46875 0.875
vt 0.5 0.84375
vn 0.026846586 0.43784276 -0.89865065
vn 0.026846586 0.43784273 -0.89865065
vn 0.026846586 0.4378427 -0.89865065
vn 0.026846586 0.43784273 -0.89865065
vn -0.8470968 0.50992876 -0.1496657
vn -0.76611954 0.543008 -0.343807
vn -0.7661194 0.5430079 -0.343807
vn -0.84698814 0.51000714 -0.15001284
vn -0.89508456 0.4421898 0.057373438
vn -0.89508677 0.44218653 0.05736444
vn -0.89894664 0.43614933 0.04084832
vn -0.89894664 0.43614936 0.040848322
vn 0.8367359 0.014740716 -0.5474083
vn 0.8367359 0.014740718 -0.5474083
vn 0.7158898 0.0821743 -0.69336075
vn 0.7165673 0.08184485 -0.6926997
vn 0.5768861 0.14215457 -0.80435973
vn 0.57688606 0.14215457 -0.80435973
vn 0.84710526 -0.18972366 0.49640483
vn 0.84710526 -0.18972366 0.49640477
vn 0.84710526 -0.18972367 0.49640483
vn 0.84710526 -0.18972367 0.49640477
vn -0.0420944 -0.08780883 0.99524754
vn -0.0420944 -0.08780883 0.99524754
vn -0.04266019 -0.07940043 0.99592954
vn -0.04266015 -0.079401165 0.99592954
vn -0.043079477 -0.07313638 0.9963911
vn -0.04307947 -0.073136374 0.9963911
vn -0.4507137 -0.87410027 -0.18112436
vn -0.417283 -0.9050835 -0.081845686
vn -0.36560723 -0.91151935 -0.18831825
vn -0.43736708 -0.84356284 -0.31162784
vn -0.3101178 -0.9464969 -0.089278445
vn -0.34835365 -0.872179 -0.3434437
vn -0.41772112 -0.8213087 -0.38853717
vn -0.33437806 -0.8375603 -0.4320693
vn -0.20965464 -0.9332799 -0.29160532
vn -0.18589409 -0.9666666 -0.17606544
vn -0.17390685 -0.97908825 -0.10555778
vn -0.10326037 -0.980755 -0.16570167
vn 0.45086554 0.87424326 0.18005303
vn 0.36667705 0.9112003 0.18778184
vn 0.418127 0.9047639 0.081068836
vn 0.43814108 0.8428157 0.3125605
vn 0.31058547 0.94637805 0.08891175
vn 0.35039365 0.8710559 0.34421793
vn 0.41854268 0.8206818 0.38897753
vn 0.33749822 0.8363156 0.43205464
vn 0.20993274 0.93374664 0.28990582
vn 0.18432778 0.9672597 0.17444739
vn 0.172249 0.97937256 0.1056391
vn 0.10272406 0.98126435 0.16299736
g shard93_0
f 3/3/3 2/2/2 1/1/1
f 4/4/4 3/3/3 1/1/1
f 7/7/7 6/6/6 5/5/5
f 6/6/6 8/8/8 5/5/5
f 5/5/5 8/8/8 9/9/9
f 8/8/8 10/10/10 9/9/9
f 9/9/9 10/10/10 11/11/11
f 10/10/10 12/12/12 11/11/11
f 15/15/15 14/14/14 13/13/13
f 16/16/16 15/15/15 13/13/13
f 17/17/17 15/15/15 16/16/16
f 18/18/18 17/17/17 16/16/16
f 21/21/21 20/20/20 19/19/19
f 22/22/22 21/21/21 19/19/19
f 25/25/25 24/24/24 23/23/23
f 26/26/26 25/25/25 23/23/23
f 27/27/27 25/25/25 26/26/26
f 28/28/28 27/27/27 26/26/26
f 31/31/31 30/30/30 29/29/29
f 31/31/31 29/29/29 32/32/32
f 31/31/31 33/33/33 30/30/30
f 31/31/31 32/32/32 34/34/34
f 34/34/34 32/32/32 35/35/35
f 34/34/34 35/35/35 36/36/36
f 37/37/37 34/34/34 36/36/36
f 38/38/38 33/33/33 31/31/31
f 38/38/38 31/31/31 34/34/34
f 38/38/38 34/34/34 37/37/37
f 38/38/38 39/39/39 33/33/33
f 40/40/40 38/38/38 37/37/37
f 40/40/40 39/39/39 38/38/38
f 43/43/43 42/42/42 41/41/41
f 41/41/41 42/42/42 44/44/44
f 45/45/45 42/42/42 43/43/43
f 44/44/44 42/42/42 46/46/46
f 44/44/44 46/46/46 47/47/47
f 47/47/47 46/46/46 48/48/48
f 46/46/46 49/49/49 48/48/48
f 45/45/45 50/50/50 42/42/42
f 42/42/42 50/50/50 46/46/46
f 46/46/46 50/50/50 49/49/49
f 51/51/51 50/50/50 45/45/45
f 50/50/50 52/52/52 49/49/49
f 51/51/51 52/52/52 50/50/50
