g shard8
v -0.07261543 0.1604257 0.3908767
v -0.1307078 0.2887663 0.703578
v -0.2697712 0.3170565 0.6539488
v -0.1498729 0.1761425 0.3633049
v 0.01649933 0.2325467 0.3631467
v 0.02969879 0.418584 0.6536641
v -0.1307078 0.2887663 0.703578
v -0.07261543 0.1604257 0.3908767
v -0.01021885 0.319288 0.2940474
v -0.01839394 0.5747184 0.5292853
v 0.02969879 0.418584 0.6536641
v 0.01649933 0.2325467 0.3631467
v -0.1498729 0.1761425 0.3633049
v -0.2697712 0.3170565 0.6539488
v -0.3994828 0.2651781 0.6138185
v -0.2219349 0.1473212 0.3410103
v -0.2219349 0.1473212 0.3410103
v -0.3994828 0.2651781 0.6138185
v -0.3820214 0.362565 0.5748639
v -0.2122341 0.201425 0.3193688
v -0.2122341 0.201425 0.3193688
v -0.3820214 0.362565 0.5748639
v -0.3583586 0.4747608 0.5058165
v -0.1990881 0.263756 0.2810092
v -0.1990881 0.263756 0.2810092
v -0.3583586 0.4747608 0.5058165
v -0.3700591 0.5647693 0.3946069
v -0.2055884 0.3137607 0.219226
v -0.2478477 0.3241364 0.1450105
v -0.4461259 0.5834455 0.261019
v -0.2723644 0.6700569 0.2787789
v -0.1513136 0.3722539 0.1548772
v -0.2055884 0.3137607 0.219226
v -0.3700591 0.5647693 0.3946069
v -0.4461259 0.5834455 0.261019
v -0.2478477 0.3241364 0.1450105
v -0.00117233 0.3503011 0.2554046
v -0.002110193 0.630542 0.4597283
v -0.01839394 0.5747184 0.5292853
v -0.01021885 0.319288 0.2940474
v -0.06054244 0.3558082 0.2382649
v -0.1089764 0.6404547 0.4288769
v -0.002110193 0.630542 0.4597283
v -0.00117233 0.3503011 0.2554046
v -0.08466657 0.3891804 0.1605975
v -0.1523998 0.7005247 0.2890756
v -0.1089764 0.6404547 0.4288769
v -0.06054244 0.3558082 0.2382649
v -0.1471252 0.3921757 0.08540479
v -0.2648253 0.7059163 0.1537286
v -0.1523998 0.7005247 0.2890756
v -0.08466657 0.3891804 0.1605975
v -0.1513136 0.3722539 0.1548772
v -0.2723644 0.6700569 0.2787789
v -0.2648253 0.7059163 0.1537286
v -0.1471252 0.3921757 0.08540479
vt 0 0
vt 0 1
vt 0.07112345 1
vt 0.07112345 0
vt 0.07112345 0
vt 0.07112345 1
vt 0.1715627 1
vt 0.1715627 0
vt 0.1715627 0
vt 0.1715627 1
vt 0.2687019 1
vt 0.2687019 0
vt 0.9312366 0
vt 0.9312366 1
vt 1 1
vt 1 0
vt 0.8809324 0
vt 0.8809324 1
vt 0.9312366 1
vt 0.9312366 0
vt 0.8176108 0
vt 0.8176108 1
vt 0.8809324 1
vt 0.8809324 0
vt 0.7497005 0
vt 0.7497005 1
vt 0.8176108 1
vt 0.8176108 0
vt 0.5842066 0
vt 0.5842066 1
vt 0.6764399 1
vt 0.6764399 0
vt 0.6764399 0
vt 0.6764399 1
vt 0.7497005 1
vt 0.7497005 0
vt 0.2687019 0
vt 0.2687019 1
vt 0.3115927 1
vt 0.3115927 0
vt 0.3115927 0
vt 0.3115927 1
vt 0.3644227 1
vt 0.3644227 0
vt 0.3644227 0
vt 0.3644227 1
vt 0.4392814 1
vt 0.4392814 0
vt 0.4392814 0
vt 0.4392814 1
vt 0.5225596 1
vt 0.5225596 0
vt 0.5225596 0
vt 0.5225596 1
vt 0.5842066 1
vt 0.5842066 0
vn 0.2959069 0.9017403 -0.3151247
vn 0.2959069 0.9017403 -0.3151247
vn 0.2959069 0.9017403 -0.3151247
vn 0.2959069 0.9017403 -0.3151247
vn -0.6496738 0.6532622 -0.388809
vn -0.6496738 0.6532622 -0.388809
vn -0.6496738 0.6532622 -0.3888091
vn -0.6496738 0.6532622 -0.388809
vn -0.9720995 -0.1749813 0.1562187
vn -0.9720995 -0.1749813 0.1562187
vn -0.9720994 -0.1749813 0.1562187
vn -0.9720995 -0.1749813 0.1562187
vn -0.1886085 0.8508778 -0.4903405
vn -0.1886085 0.8508778 -0.4903404
vn -0.1886085 0.8508778 -0.4903405
vn -0.1886085 0.8508778 -0.4903405
vn 0.8480744 0.05859116 0.5266279
vn 0.8480744 0.05859115 0.5266279
vn 0.8480744 0.05859115 0.5266279
vn 0.8480744 0.05859115 0.5266278
vn 0.8605137 0.1227815 0.4944096
vn 0.8605137 0.1227815 0.4944096
vn 0.8605137 0.1227814 0.4944095
vn 0.8605137 0.1227814 0.4944096
vn 0.8803023 0.409786 0.2390468
vn 0.8803023 0.409786 0.2390468
vn 0.8803023 0.409786 0.2390468
vn 0.8803023 0.409786 0.2390468
vn 0.08146486 -0.3544476 0.9315205
vn 0.08146486 -0.3544476 0.9315205
vn 0.08146486 -0.3544476 0.9315205
vn 0.08146486 -0.3544475 0.9315205
vn 0.688448 0.6604812 -0.2996732
vn 0.688448 0.6604812 -0.2996732
vn 0.6884481 0.6604812 -0.2996732
vn 0.688448 0.6604812 -0.2996732
vn -0.9836786 0.1038448 -0.1469439
vn -0.9836786 0.1038448 -0.1469439
vn -0.9836786 0.1038448 -0.146944
vn -0.9836786 0.1038448 -0.1469439
vn -0.276614 -0.5667538 0.7760637
vn -0.276614 -0.5667538 0.7760637
vn -0.276614 -0.5667537 0.7760637
vn -0.276614 -0.5667537 0.7760637
vn -0.9448064 -0.2774488 0.1742499
vn -0.9448064 -0.2774488 0.1742499
vn -0.9448064 -0.2774488 0.1742499
vn -0.9448064 -0.2774488 0.1742499
vn -0.7146755 -0.3939722 0.5779488
vn -0.7146755 -0.3939722 0.5779488
vn -0.7146754 -0.3939722 0.5779488
vn -0.7146755 -0.3939722 0.5779488
vn 0.9361467 0.3189856 0.1479113
vn 0.9361467 0.3189856 0.1479113
vn 0.9361466 0.3189856 0.1479113
vn 0.9361467 0.3189856 0.1479113
g shard8_0
f 3/3/3 2/2/2 1/1/1
f 4/4/4 3/3/3 1/1/1
f 7/7/7 6/6/6 5/5/5
f 8/8/8 7/7/7 5/5/5
f 11/11/11 10/10/10 9/9/9
f 12/12/12 11/11/11 9/9/9
f 15/15/15 14/14/14 13/13/13
f 16/16/16 15/15/15 13/13/13
f 19/19/19 18/18/18 17/17/17
f 20/20/20 19/19/19 17/17/17
f 23/23/23 22/22/22 21/21/21
f 24/24/24 23/23/23 21/21/21
f 27/27/27 26/26/26 25/25/25
f 28/28/28 27/27/27 25/25/25
f 31/31/31 30/30/30 29/29/29
f 32/32/32 31/31/31 29/29/29
f 35/35/35 34/34/34 33/33/33
f 36/36/36 35/35/35 33/33/33
f 39/39/39 38/38/38 37/37/37
f 40/40/40 39/39/39 37/37/37
f 43/43/43 42/42/42 41/41/41
f 44/44/44 43/43/43 41/41/41
f 47/47/47 46/46/46 45/45/45
f 48/48/48 47/47/47 45/45/45
f 51/51/51 50/50/50 49/49/49
f 52/52/52 51/51/51 49/49/49
f 55/55/55 54/54/54 53/53/53
f 56/56/56 55/55/55 53/53/53
