g shard42
v 0.2492826 -0.00699029 -0.3545807
v 0.3055389 0.05780556 -0.3022619
v 0.2874672 -0.08068861 -0.3139567
v 0.372371 -0.1495 -0.1562984
v 0.342573 -0.1471736 -0.2194398
v 0.3534484 -0.07598859 -0.2399372
v 0.4064635 -0.09293434 -0.08971302
v 0.4139014 -0.01495299 -0.09222825
v 0.4115996 0.07061865 -0.08190051
v 0.390065 0.08003483 -0.1612895
v 0.353074 0.08591856 -0.2356457
v 0.54997 0.10405 -0.5440713
v 0.4487086 -0.01258252 -0.6382452
v 0.517441 -0.1452395 -0.5651221
v 0.6166313 -0.2649125 -0.3949916
v 0.6702678 -0.2691 -0.2813372
v 0.6362072 -0.1367795 -0.431887
v 0.7316343 -0.1672818 -0.1614834
v 0.7450224 -0.02691538 -0.1660109
v 0.7408794 0.1271136 -0.1474209
v 0.7021169 0.1440627 -0.2903211
v 0.6355331 0.1546534 -0.4241622
v 0.2492826 -0.00699029 -0.3545807
v 0.4487086 -0.01258252 -0.6382452
v 0.6166313 -0.2649125 -0.3949916
v 0.342573 -0.1471736 -0.2194398
v 0.2874672 -0.08068861 -0.3139567
v 0.517441 -0.1452395 -0.5651221
v 0.6362072 -0.1367795 -0.431887
v 0.3534484 -0.07598859 -0.2399372
v 0.372371 -0.1495 -0.1562984
v 0.6702678 -0.2691 -0.2813372
v 0.4064635 -0.09293434 -0.08971302
v 0.7316343 -0.1672818 -0.1614834
v 0.4139014 -0.01495299 -0.09222825
v 0.7450224 -0.02691538 -0.1660109
v 0.4115996 0.07061865 -0.08190051
v 0.7408794 0.1271136 -0.1474209
v 0.353074 0.08591856 -0.2356457
v 0.6355331 0.1546534 -0.4241622
v 0.54997 0.10405 -0.5440713
v 0.3055389 0.05780556 -0.3022619
vt 0.1060277 0
vt 0 0
vt 0.2035202 0
vt 0.4609362 0
vt 0.3872368 0
vt 0.3082485 0
vt 0.559878 0
vt 0.6425632 0
vt 0.7335277 0
vt 0.8208753 0
vt 0.9087108 0
vt 0 1
vt 0.1060277 1
vt 0.2035202 1
vt 0.3872368 1
vt 0.4609362 1
vt 0.3082485 1
vt 0.559878 1
vt 0.6425632 1
vt 0.7335277 1
vt 0.8208753 1
vt 0.9087108 1
vt 0.1060277 0
vt 0.1060277 1
vt 0.3872368 1
vt 0.3872368 0
vt 0.2035202 0
vt 0.2035202 1
vt 0.3082485 1
vt 0.3082485 0
vt 0.4609362 0
vt 0.4609362 1
vt 0.559878 0
vt 0.559878 1
vt 0.6425632 0
vt 0.6425632 1
vt 0.7335277 0
vt 0.7335277 1
vt 0.9087108 0
vt 0.9087108 1
vt 1 1
vt 1 0
vn 0.5223883 -0.7622136 0.3822836
vn 0.5223883 -0.7622136 0.3822836
vn 0.6633735 0.5943244 0.454658
vn 0.3263228 0.9376805 -0.1194518
vn 0.3263228 0.9376805 -0.1194518
vn 0.5767751 0.1434503 0.8042092
vn 0.02789593 0.7547303 -0.6554419
vn -0.2178484 -0.01069943 -0.975924
vn -0.2122995 0.11146 -0.9708273
vn 0.1373853 -0.9785776 -0.1533337
vn 0.140057 -0.9791474 -0.147155
vn 0.5223883 -0.7622136 0.3822836
vn 0.5223884 -0.7622136 0.3822836
vn 0.6633736 0.5943244 0.454658
vn 0.3263229 0.9376805 -0.1194518
vn 0.3263228 0.9376805 -0.1194518
vn 0.5767751 0.1434503 0.8042092
vn 0.02789592 0.7547303 -0.6554419
vn -0.2178484 -0.01069943 -0.975924
vn -0.2122995 0.11146 -0.9708273
vn 0.1373853 -0.9785776 -0.1533337
vn 0.140057 -0.9791474 -0.147155
vn 0.6633735 0.5943244 0.454658
vn 0.6633736 0.5943244 0.454658
vn 0.5767751 0.1434503 0.8042092
vn 0.5767751 0.1434503 0.8042092
vn 0.1051722 0.982124 -0.1561128
vn 0.1051722 0.982124 -0.1561128
vn 0.1051722 0.982124 -0.1561128
vn 0.1051722 0.982124 -0.1561128
vn 0.02789593 0.7547303 -0.6554419
vn 0.02789592 0.7547303 -0.6554419
vn -0.2178484 -0.01069943 -0.975924
vn -0.2178484 -0.01069943 -0.975924
vn -0.2122995 0.11146 -0.9708273
vn -0.2122995 0.11146 -0.9708273
vn 0.1373853 -0.9785776 -0.1533337
vn 0.1373853 -0.9785776 -0.1533337
vn 0.3309428 -0.9305719 0.1565651
vn 0.3309428 -0.9305719 0.1565651
vn 0.3309428 -0.9305719 0.1565651
vn 0.3309428 -0.9305719 0.1565651
g shard42_0
f 13/13/13 12/12/12 2/2/2
f 1/1/1 13/13/13 2/2/2
f 14/14/14 24/24/24 23/23/23
f 3/3/3 14/14/14 23/23/23
f 16/16/16 15/15/15 5/5/5
f 4/4/4 16/16/16 5/5/5
f 25/25/25 17/17/17 6/6/6
f 26/26/26 25/25/25 6/6/6
f 29/29/29 28/28/28 27/27/27
f 30/30/30 29/29/29 27/27/27
f 18/18/18 32/32/32 31/31/31
f 7/7/7 18/18/18 31/31/31
f 19/19/19 34/34/34 33/33/33
f 8/8/8 19/19/19 33/33/33
f 20/20/20 36/36/36 35/35/35
f 9/9/9 20/20/20 35/35/35
f 21/21/21 38/38/38 37/37/37
f 10/10/10 21/21/21 37/37/37
f 22/22/22 21/21/21 10/10/10
f 11/11/11 22/22/22 10/10/10
f 41/41/41 40/40/40 39/39/39
f 42/42/42 41/41/41 39/39/39
