g shard99
v -0.02656233 0.04878715 0.08996944
v -0.03339795 0.06546235 0.08139005
v 0.02495978 0.05851588 0.03218532
v 0.02904425 0.04202026 0.04252405
v 0.02904425 0.04202026 0.04252405
v 0.02495978 0.05851588 0.03218532
v 0.09762609 0.06163263 0.02063994
v 0.09966669 0.04573935 0.03259316
v 0.09966669 0.04573935 0.03259316
v 0.09762609 0.06163263 0.02063994
v 0.1136106 -0.004489154 -0.06543118
v 0.1158707 -0.01885468 -0.0518406
v -0.0950113 0.0007184744 0.05965823
v -0.1035369 0.01594698 0.05009772
v -0.03339795 0.06546235 0.08139005
v -0.02656233 0.04878715 0.08996944
v -0.1070838 -0.0538654 0.0003773868
v -0.1158707 -0.03997269 -0.01100573
v -0.1035369 0.01594698 0.05009772
v -0.0950113 0.0007184744 0.05965823
v -0.02878163 -0.02973959 -0.02803531
v -0.03510175 -0.0163672 -0.04123127
v -0.1158707 -0.03997269 -0.01100573
v -0.1070838 -0.0538654 0.0003773868
v 0.02655561 -0.06546235 -0.07519943
v 0.02302848 -0.0524615 -0.08996946
v -0.03510175 -0.0163672 -0.04123127
v -0.02878163 -0.02973959 -0.02803531
v 0.1158707 -0.01885468 -0.0518406
v 0.1136106 -0.004489154 -0.06543118
v 0.02302848 -0.0524615 -0.08996946
v 0.02655561 -0.06546235 -0.07519943
v -0.02656233 0.04878715 0.08996944
v 0.02904425 0.04202026 0.04252405
v -0.04475541 0.0115675 0.03212334
v -0.0950113 0.0007184744 0.05965823
v -0.1070838 -0.0538654 0.0003773868
v -0.02878163 -0.02973959 -0.02803531
v 0.03098532 -0.00475803 -0.02282423
v 0.09966669 0.04573935 0.03259316
v 0.02655561 -0.06546235 -0.07519943
v 0.1158707 -0.01885468 -0.0518406
v -0.03339795 0.06546235 0.08139005
v -0.0519025 0.02711189 0.02176519
v 0.02495978 0.05851588 0.03218532
v -0.1035369 0.01594698 0.05009772
v -0.1158707 -0.03997269 -0.01100573
v -0.03510175 -0.0163672 -0.04123127
v 0.02747762 0.009961158 -0.03590253
v 0.09762609 0.06163263 0.02063994
v 0.02302848 -0.0524615 -0.08996946
v 0.1136106 -0.004489154 -0.06543118
vt 0.4375 0.4375
vt 0.4375 0.4375
vt 0.46875 0.46875
vt 0.46875 0.46875
vt 0.46875 0.46875
vt 0.46875 0.46875
vt 0.5 0.46875
vt 0.5 0.46875
vt 0.5 0.46875
vt 0.5 0.46875
vt 0.5 0.5
vt 0.5 0.5
vt 0.40625 0.46875
vt 0.40625 0.46875
vt 0.4375 0.4375
vt 0.4375 0.4375
vt 0.40625 0.5
vt 0.40625 0.5
vt 0.40625 0.46875
vt 0.40625 0.46875
vt 0.4375 0.5
vt 0.4375 0.5
vt 0.40625 0.5
vt 0.40625 0.5
vt 0.46875 0.53125
vt 0.46875 0.53125
vt 0.4375 0.5
vt 0.4375 0.5
vt 0.5 0.5
vt 0.5 0.5
vt 0.46875 0.53125
vt 0.46875 0.53125
vt 0.4375 0.4375
vt 0.46875 0.46875
vt 0.4375 0.46875
vt 0.40625 0.46875
vt 0.40625 0.5
vt 0.4375 0.5
vt 0.46875 0.5
vt 0.5 0.46875
vt 0.46875 0.53125
vt 0.5 0.5
vt 0.4375 0.4375
vt 0.4375 0.46875
vt 0.46875 0.46875
vt 0.40625 0.46875
vt 0.40625 0.5
vt 0.4375 0.5
vt 0.46875 0.5
vt 0.5 0.46875
vt 0.46875 0.53125
vt 0.5 0.5
vn 0.5815945 0.5389701 0.6093103
vn 0.5815945 0.5389701 0.6093103
vn 0.5815945 0.5389701 0.6093103
vn 0.5815945 0.5389701 0.6093103
vn 0.09415539 0.576456 0.8116855
vn 0.0941554 0.576456 0.8116855
vn 0.09415539 0.5764558 0.8116855
vn 0.09415539 0.576456 0.8116855
vn 0.9825425 0.1798421 0.04761401
vn 0.9825425 0.1798421 0.04761401
vn 0.9825425 0.1798421 0.047614
vn 0.9825425 0.1798421 0.047614
vn -0.5207179 0.2185252 0.8252876
vn -0.5207179 0.2185251 0.8252876
vn -0.5207179 0.2185252 0.8252876
vn -0.5207179 0.2185251 0.8252876
vn -0.8851679 -0.2392347 0.3990545
vn -0.8851679 -0.2392347 0.3990546
vn -0.8851679 -0.2392347 0.3990546
vn -0.8851679 -0.2392347 0.3990545
vn -0.06094458 -0.6867471 -0.7243372
vn -0.06094458 -0.6867471 -0.7243371
vn -0.06094459 -0.6867471 -0.7243371
vn -0.06094458 -0.6867471 -0.7243371
vn -0.6938664 -0.6296301 -0.3494499
vn -0.6938664 -0.6296301 -0.3494499
vn -0.6938665 -0.6296301 -0.3494499
vn -0.6938664 -0.6296301 -0.3494499
vn 0.4801933 -0.5802085 -0.6578545
vn 0.4801932 -0.5802085 -0.6578545
vn 0.4801933 -0.5802085 -0.6578545
vn 0.4801933 -0.5802085 -0.6578545
vn 0.3241461 -0.8386711 0.4376756
vn 0.2054147 -0.8094965 0.5500184
vn 0.3542564 -0.7726252 0.5268327
vn 0.4362596 -0.7467651 0.5020153
vn 0.4358706 -0.6935045 0.5736448
vn 0.3129991 -0.7083991 0.6326154
vn 0.164135 -0.7393616 0.6529962
vn 0.09781037 -0.7929744 0.6013525
vn 0.1679459 -0.650972 0.7402903
vn 0.1065181 -0.735607 0.6689815
vn -0.3231285 0.8383895 -0.4389658
vn -0.3529096 0.7724923 -0.5279303
vn -0.206947 0.8092473 -0.5498106
vn -0.4364199 0.7474957 -0.5007872
vn -0.4334918 0.6941053 -0.5747196
vn -0.312647 0.7081454 -0.6330733
vn -0.1661378 0.739493 -0.6523408
vn -0.09943529 0.792879 -0.6012117
vn -0.1695673 0.6521009 -0.7389258
vn -0.1063058 0.7349442 -0.6697432
g shard99_0
f 3/3/3 2/2/2 1/1/1
f 4/4/4 3/3/3 1/1/1
f 7/7/7 6/6/6 5/5/5
f 8/8/8 7/7/7 5/5/5
f 11/11/11 10/10/10 9/9/9
f 12/12/12 11/11/11 9/9/9
f 15/15/15 14/14/14 13/13/13
f 16/16/16 15/15/15 13/13/13
f 19/19/19 18/18/18 17/17/17
f 20/20/20 19/19/19 17/17/17
f 23/23/23 22/22/22 21/21/21
f 24/24/24 23/23/23 21/21/21
f 27/27/27 26/26/26 25/25/25
f 28/28/28 27/27/27 25/25/25
f 31/31/31 30/30/30 29/29/29
f 32/32/32 31/31/31 29/29/29
f 35/35/35 34/34/34 33/33/33
f 35/35/35 33/33/33 36/36/36
f 37/37/37 35/35/35 36/36/36
f 38/38/38 35/35/35 37/37/37
f 35/35/35 39/39/39 34/34/34
f 38/38/38 39/39/39 35/35/35
f 39/39/39 40/40/40 34/34/34
f 38/38/38 41/41/41 39/39/39
f 42/42/42 40/40/40 39/39/39
f 41/41/41 42/42/42 39/39/39
f 45/45/45 44/44/44 43/43/43
f 43/43/43 44/44/44 46/46/46
f 44/44/44 47/47/47 46/46/46
f 44/44/44 48/48/48 47/47/47
f 49/49/49 44/44/44 45/45/45
f 49/49/49 48/48/48 44/44/44
f 50/50/50 49/49/49 45/45/45
f 51/51/51 48/48/48 49/49/49
f 50/50/50 52/52/52 49/49/49
f 52/52/52 51/51/51 49/49/49
