g shard9
v 0.0753855 0.4088896 -0.09247299
v 0.13569391 0.73600125 -0.1664514
v 0.19024692 0.74132 -0.004880548
v 0.10569274 0.41184443 -0.0027114155
v 0.10569274 0.41184443 -0.0027114155
v 0.19024692 0.74132 -0.004880548
v -0.023588058 0.75958234 -0.03133271
v -0.013104476 0.4219902 -0.01740706
v 0.14325923 0.37355992 -0.15832405
v 0.25786662 0.67240787 -0.28498328
v 0.13569391 0.73600125 -0.1664514
v 0.0753855 0.4088896 -0.09247299
v 0.09095399 0.35127822 -0.2361995
v 0.16371718 0.6323008 -0.4251591
v 0.25786662 0.67240787 -0.28498328
v 0.14325923 0.37355992 -0.15832405
v -0.015346822 0.36327505 -0.23240909
v -0.02762428 0.6538951 -0.41833636
v 0.0015428595 0.53762585 -0.57031715
v 0.0008571441 0.29868102 -0.31684285
v 0.091537684 0.30148882 -0.29859293
v 0.16476783 0.5426799 -0.53746724
v 0.16371718 0.6323008 -0.4251591
v 0.09095399 0.35127822 -0.2361995
v -0.013104476 0.4219902 -0.01740706
v -0.023588058 0.75958234 -0.03133271
v -0.16380191 0.7473472 0.01478119
v -0.09100106 0.41519287 0.008211772
v -0.09100106 0.41519287 0.008211772
v -0.16380191 0.7473472 0.01478119
v -0.13184474 0.74069715 -0.1446373
v -0.07324708 0.41149843 -0.08035406
v -0.07324708 0.41149843 -0.08035406
v -0.13184474 0.74069715 -0.1446373
v -0.31305927 0.6926099 -0.14582163
v -0.17392181 0.3847833 -0.08101202
v -0.17392181 0.3847833 -0.08101202
v -0.31305927 0.6926099 -0.14582163
v -0.2548365 0.65938115 -0.31505907
v -0.14157584 0.36632285 -0.17503281
v -0.14157584 0.36632285 -0.17503281
v -0.2548365 0.65938115 -0.31505907
v -0.15474468 0.6472007 -0.40046075
v -0.08596927 0.35955596 -0.2224782
v -0.08596927 0.35955596 -0.2224782
v -0.15474468 0.6472007 -0.40046075
v -0.02762428 0.6538951 -0.41833636
v -0.015346822 0.36327505 -0.23240909
v 0.0673317 0.23607093 -0.35621443
v 0.12119706 0.42492768 -0.641186
v 0.16476783 0.5426799 -0.53746724
v 0.091537684 0.30148882 -0.29859293
v 0.0008571441 0.29868102 -0.31684285
v 0.0015428595 0.53762585 -0.57031715
v 0.12119706 0.42492768 -0.641186
v 0.0673317 0.23607093 -0.35621443
vt 0 0
vt 0 1
vt 0.07222509 1
vt 0.07222509 0
vt 0.07222509 0
vt 0.07222509 1
vt 0.1637632 1
vt 0.1637632 0
vt 0.9230763 0
vt 0.9230763 1
vt 1 1
vt 1 0
vt 0.84960586 0
vt 0.84960586 1
vt 0.9230763 1
vt 0.9230763 0
vt 0.5621255 0
vt 0.5621255 1
vt 0.64406586 1
vt 0.64406586 0
vt 0.7887797 0
vt 0.7887797 1
vt 0.84960586 1
vt 0.84960586 0
vt 0.1637632 0
vt 0.1637632 1
vt 0.22646078 1
vt 0.22646078 0
vt 0.22646078 0
vt 0.22646078 1
vt 0.2953463 1
vt 0.2953463 0
vt 0.2953463 0
vt 0.2953463 1
vt 0.37471497 1
vt 0.37471497 0
vt 0.37471497 0
vt 0.37471497 1
vt 0.45177278 1
vt 0.45177278 0
vt 0.45177278 0
vt 0.45177278 1
vt 0.5077093 1
vt 0.5077093 0
vt 0.5077093 0
vt 0.5077093 1
vt 0.5621255 1
vt 0.5621255 0
vt 0.7198398 0
vt 0.7198398 1
vt 0.7887797 1
vt 0.7887797 0
vt 0.64406586 0
vt 0.64406586 1
vt 0.7198398 1
vt 0.7198398 0
vn -0.922414 0.23872028 0.3035869
vn -0.922414 0.23872028 0.30358687
vn -0.922414 0.23872028 0.30358687
vn -0.922414 0.23872028 0.3035869
vn 0.119552 -0.037212726 -0.9921302
vn 0.11955199 -0.037212722 -0.9921302
vn 0.11955199 -0.037212726 -0.9921302
vn 0.119551994 -0.037212726 -0.9921302
vn -0.70416623 -0.030605175 -0.70937526
vn -0.70416623 -0.030605176 -0.70937526
vn -0.7041662 -0.030605175 -0.70937526
vn -0.70416623 -0.030605176 -0.70937526
vn -0.78902966 0.47018206 0.39542532
vn -0.78902966 0.47018197 0.39542532
vn -0.78902966 0.47018203 0.3954253
vn -0.78902966 0.47018203 0.39542532
vn 0.98832893 0.10950358 0.10590039
vn 0.98832893 0.10950358 0.10590038
vn 0.98832893 0.10950358 0.105900384
vn 0.98832893 0.1095036 0.10590039
vn -0.97739637 0.16069709 -0.13737845
vn -0.97739637 0.16069709 -0.13737845
vn -0.97739637 0.16069709 -0.13737845
vn -0.97739637 0.16069707 -0.13737845
vn -0.3082063 -0.048761293 -0.95006907
vn -0.30820632 -0.048761297 -0.95006907
vn -0.30820623 -0.048761293 -0.95006907
vn -0.30820623 -0.0487613 -0.95006907
vn 0.96089184 0.20696723 0.18398766
vn 0.96089184 0.20696728 0.18398768
vn 0.96089184 0.20696723 0.18398765
vn 0.96089184 0.20696723 0.18398763
vn 0.05470585 -0.1819763 -0.98178
vn 0.054705847 -0.18197632 -0.98178
vn 0.05470585 -0.18197632 -0.98178
vn 0.054705855 -0.18197632 -0.98178
vn 0.87246484 0.43938467 0.21388362
vn 0.87246484 0.43938467 0.21388362
vn 0.87246484 0.43938464 0.21388361
vn 0.87246484 0.43938467 0.21388364
vn 0.5894082 0.52227026 0.61630476
vn 0.58940834 0.5222703 0.61630476
vn 0.58940834 0.5222703 0.61630476
vn 0.58940834 0.5222703 0.61630476
vn 0.089330554 0.5394313 0.83727777
vn 0.08933057 0.5394313 0.83727777
vn 0.08933056 0.5394312 0.83727777
vn 0.08933055 0.5394313 0.83727777
vn -0.9465944 0.32067207 0.033590846
vn -0.9465944 0.32067207 0.033590846
vn -0.9465944 0.32067207 0.033590846
vn -0.9465944 0.32067207 0.033590846
vn 0.7372313 0.490636 0.46450654
vn 0.7372313 0.49063596 0.46450657
vn 0.7372313 0.490636 0.46450657
vn 0.7372313 0.49063605 0.46450657
g shard9_0
f 3/3/3 2/2/2 1/1/1
f 4/4/4 3/3/3 1/1/1
f 7/7/7 6/6/6 5/5/5
f 8/8/8 7/7/7 5/5/5
f 11/11/11 10/10/10 9/9/9
f 12/12/12 11/11/11 9/9/9
f 15/15/15 14/14/14 13/13/13
f 16/16/16 15/15/15 13/13/13
f 19/19/19 18/18/18 17/17/17
f 20/20/20 19/19/19 17/17/17
f 23/23/23 22/22/22 21/21/21
f 24/24/24 23/23/23 21/21/21
f 27/27/27 26/26/26 25/25/25
f 28/28/28 27/27/27 25/25/25
f 31/31/31 30/30/30 29/29/29
f 32/32/32 31/31/31 29/29/29
f 35/35/35 34/34/34 33/33/33
f 36/36/36 35/35/35 33/33/33
f 39/39/39 38/38/38 37/37/37
f 40/40/40 39/39/39 37/37/37
f 43/43/43 42/42/42 41/41/41
f 44/44/44 43/43/43 41/41/41
f 47/47/47 46/46/46 45/45/45
f 48/48/48 47/47/47 45/45/45
f 51/51/51 50/50/50 49/49/49
f 52/52/52 51/51/51 49/49/49
f 55/55/55 54/54/54 53/53/53
f 56/56/56 55/55/55 53/53/53
