g shard100
v -0.14239444 0.056105167 -0.096911766
v -0.15500404 0.040776283 -0.09447378
v -0.09199642 -0.008770257 -0.08952438
v -0.081701994 0.008081019 -0.09134553
v 0.009190246 -0.0540466 -0.08894449
v 0.0154827535 -0.035214394 -0.090357475
v 0.08917503 -0.072298646 -0.086888865
v 0.092180386 -0.052633673 -0.088341236
v -0.13927044 0.072298616 0.012100436
v -0.1517333 0.05721882 0.016032077
v -0.15500404 0.040776283 -0.09447378
v -0.14239444 0.056105167 -0.096911766
v 0.009721965 -0.0075747967 0.06287237
v -0.07405135 0.015645444 0.07693059
v -0.06368905 0.031740367 0.07153859
v 0.0034181327 -0.025624156 0.06822433
v 0.101728514 -0.019385427 0.09177814
v 0.098451085 -0.038419366 0.096911766
v -0.06368905 0.031740367 0.07153859
v -0.07405135 0.015645444 0.07693059
v -0.1517333 0.05721882 0.016032077
v -0.13927044 0.072298616 0.012100436
v 0.092180386 -0.052633673 -0.088341236
v 0.08917503 -0.072298646 -0.086888865
v 0.152972 -0.0706732 0.001928255
v 0.15500405 -0.05114323 -0.0013562441
v 0.15500405 -0.05114323 -0.0013562441
v 0.152972 -0.0706732 0.001928255
v 0.098451085 -0.038419366 0.096911766
v 0.101728514 -0.019385427 0.09177814
v 0.08914002 -0.06699151 -0.01533106
v 0.098451085 -0.038419366 0.096911766
v 0.152972 -0.0706732 0.001928255
v 0.08917503 -0.072298646 -0.086888865
v 0.009190246 -0.0540466 -0.08894449
v 0.0034181327 -0.025624156 0.06822433
v 0.0042696744 -0.045955926 -0.011008248
v -0.09199642 -0.008770257 -0.08952438
v -0.0803642 -0.0046289563 0.0043949485
v -0.07405135 0.015645444 0.07693059
v -0.15500404 0.040776283 -0.09447378
v -0.1517333 0.05721882 0.016032077
v 0.09235206 -0.047497064 -0.018437386
v 0.15500405 -0.05114323 -0.0013562441
v 0.101728514 -0.019385427 0.09177814
v 0.092180386 -0.052633673 -0.088341236
v 0.0154827535 -0.035214394 -0.090357475
v 0.009721965 -0.0075747967 0.06287237
v 0.010650799 -0.027256817 -0.01411064
v -0.081701994 0.008081019 -0.09134553
v -0.06997484 0.012058765 0.00070964545
v -0.06368905 0.031740367 0.07153859
v -0.14239444 0.056105167 -0.096911766
v -0.13927044 0.072298616 0.012100436
vt 0.375 0.875
vt 0.375 0.875
vt 0.40625 0.875
vt 0.40625 0.875
vt 0.4375 0.875
vt 0.4375 0.875
vt 0.46875 0.875
vt 0.46875 0.875
vt 0.375 0.90625
vt 0.375 0.90625
vt 0.375 0.875
vt 0.375 0.875
vt 0.4375 0.9375
vt 0.40625 0.9375
vt 0.40625 0.9375
vt 0.4375 0.9375
vt 0.46875 0.9375
vt 0.46875 0.9375
vt 0.40625 0.9375
vt 0.40625 0.9375
vt 0.375 0.90625
vt 0.375 0.90625
vt 0.46875 0.875
vt 0.46875 0.875
vt 0.5 0.90625
vt 0.5 0.90625
vt 0.5 0.90625
vt 0.5 0.90625
vt 0.46875 0.9375
vt 0.46875 0.9375
vt 0.46875 0.90625
vt 0.46875 0.9375
vt 0.5 0.90625
vt 0.46875 0.875
vt 0.4375 0.875
vt 0.4375 0.9375
vt 0.4375 0.90625
vt 0.40625 0.875
vt 0.40625 0.90625
vt 0.40625 0.9375
vt 0.375 0.875
vt 0.375 0.90625
vt 0.46875 0.90625
vt 0.5 0.90625
vt 0.46875 0.9375
vt 0.46875 0.875
vt 0.4375 0.875
vt 0.4375 0.9375
vt 0.4375 0.90625
vt 0.40625 0.875
vt 0.40625 0.90625
vt 0.40625 0.9375
vt 0.375 0.875
vt 0.375 0.90625
vn -0.012321463 -0.12257482 -0.9923828
vn -0.012321463 -0.12257483 -0.9923828
vn -0.020729352 -0.096770614 -0.99509084
vn -0.020740619 -0.09673593 -0.99509394
vn -0.011750717 -0.07717986 -0.99694794
vn -0.011764479 -0.07718045 -0.9969477
vn 0.008546076 -0.07627486 -0.99705017
vn 0.008546075 -0.076274864 -0.99705017
vn -0.7768302 0.62576205 -0.07040305
vn -0.77683026 0.62576205 -0.07040304
vn -0.77683026 0.62576205 -0.07040304
vn -0.7768302 0.62576205 -0.07040303
vn -0.028745325 0.27048337 0.9622954
vn 0.21491913 0.19614492 0.95673245
vn 0.21491912 0.19614492 0.95673245
vn -0.030439917 0.27094066 0.96211463
vn -0.23987795 0.32103583 0.9161848
vn -0.23987795 0.32103583 0.9161848
vn -0.35531956 0.4969357 0.7917089
vn -0.35531956 0.49693564 0.7917089
vn -0.3553196 0.49693564 0.7917089
vn -0.3553196 0.4969357 0.7917089
vn 0.8007571 -0.17224745 -0.5736888
vn 0.8007571 -0.17224744 -0.5736888
vn 0.8007571 -0.17224744 -0.57368875
vn 0.8007571 -0.17224747 -0.57368875
vn 0.86610645 -0.010153758 0.49975654
vn 0.86610645 -0.010153757 0.49975652
vn 0.86610645 -0.010153756 0.49975652
vn 0.86610645 -0.010153757 0.49975654
vn -0.1711157 -0.96953714 0.17526321
vn -0.18581116 -0.9484233 0.25684115
vn -0.1128647 -0.97110724 0.21026699
vn -0.18946803 -0.9792044 0.07253076
vn -0.32967493 -0.94117445 0.07419627
vn -0.29658556 -0.9215402 0.25060055
vn -0.3277532 -0.93248415 0.15182602
vn -0.52121174 -0.84787816 0.09716459
vn -0.5221409 -0.83477634 0.17469186
vn -0.5088068 -0.81660444 0.27253065
vn -0.6296704 -0.76704764 0.12309772
vn -0.6299231 -0.7583988 0.16741602
vn 0.17018212 0.96965426 -0.17552379
vn 0.11408681 0.9707529 -0.21124125
vn 0.18382291 0.9486075 -0.2575909
vn 0.18833812 0.9794296 -0.0724321
vn 0.328842 0.9414339 -0.07459981
vn 0.29429948 0.9222615 -0.25064245
vn 0.32691196 0.9328604 -0.15132791
vn 0.5236309 0.8462373 -0.09845335
vn 0.52406096 0.83365387 -0.17430237
vn 0.51084554 0.8155246 -0.2719495
vn 0.63175017 0.76529324 -0.12336102
vn 0.6311767 0.75755036 -0.1665335
g shard100_0
f 3/3/3 2/2/2 1/1/1
f 4/4/4 3/3/3 1/1/1
f 5/5/5 3/3/3 4/4/4
f 6/6/6 5/5/5 4/4/4
f 7/7/7 5/5/5 6/6/6
f 8/8/8 7/7/7 6/6/6
f 11/11/11 10/10/10 9/9/9
f 12/12/12 11/11/11 9/9/9
f 15/15/15 14/14/14 13/13/13
f 14/14/14 16/16/16 13/13/13
f 13/13/13 16/16/16 17/17/17
f 16/16/16 18/18/18 17/17/17
f 21/21/21 20/20/20 19/19/19
f 22/22/22 21/21/21 19/19/19
f 25/25/25 24/24/24 23/23/23
f 26/26/26 25/25/25 23/23/23
f 29/29/29 28/28/28 27/27/27
f 30/30/30 29/29/29 27/27/27
f 33/33/33 32/32/32 31/31/31
f 33/33/33 31/31/31 34/34/34
f 31/31/31 35/35/35 34/34/34
f 31/31/31 32/32/32 36/36/36
f 31/31/31 37/37/37 35/35/35
f 31/31/31 36/36/36 37/37/37
f 37/37/37 38/38/38 35/35/35
f 36/36/36 39/39/39 37/37/37
f 37/37/37 39/39/39 38/38/38
f 36/36/36 40/40/40 39/39/39
f 39/39/39 41/41/41 38/38/38
f 40/40/40 42/42/42 39/39/39
f 39/39/39 42/42/42 41/41/41
f 45/45/45 44/44/44 43/43/43
f 43/43/43 44/44/44 46/46/46
f 47/47/47 43/43/43 46/46/46
f 45/45/45 43/43/43 48/48/48
f 49/49/49 43/43/43 47/47/47
f 48/48/48 43/43/43 49/49/49
f 50/50/50 49/49/49 47/47/47
f 51/51/51 48/48/48 49/49/49
f 51/51/51 49/49/49 50/50/50
f 52/52/52 48/48/48 51/51/51
f 53/53/53 51/51/51 50/50/50
f 54/54/54 52/52/52 51/51/51
f 54/54/54 51/51/51 53/53/53
