g shard95
v -0.02674165 0.007537842 0.06151173
v -0.08290245 0.03741643 0.03984238
v -0.02395916 0.05058119 -0.02728395
v -0.1020521 0.05908382 0.0001982152
v 0.07219076 -0.03216469 0.03998938
v 0.04383081 -0.05775523 0.09680404
v 0.09185112 -0.07140133 0.06600527
v 0.1063738 -0.05262661 0.02675627
v 0.0770743 0.005458951 -0.03744444
v 0.01317757 0.05537227 -0.09157375
v -0.09584567 0.08403873 -0.08526991
v -0.03376961 -0.008398086 0.05190206
v -0.03026086 0.03279757 -0.0339196
v -0.08810508 0.01987249 0.03181462
v -0.1063738 0.04075944 -0.006470159
v 0.06216118 -0.0466457 0.03051797
v 0.03431582 -0.07145035 0.08588286
v 0.08067775 -0.08403873 0.05527435
v 0.09479088 -0.06609643 0.01770607
v 0.0671543 -0.01030335 -0.0443476
v 0.006465614 0.03737631 -0.09680405
v -0.1004499 0.06527007 -0.09034396
v -0.08810508 0.01987249 0.03181462
v -0.08290245 0.03741643 0.03984238
v -0.02674165 0.007537842 0.06151173
v -0.03376961 -0.008398086 0.05190206
v 0.04383081 -0.05775523 0.09680404
v 0.03431582 -0.07145035 0.08588286
v -0.1063738 0.04075944 -0.006470159
v -0.1020521 0.05908382 0.0001982152
v -0.08290245 0.03741643 0.03984238
v -0.08810508 0.01987249 0.03181462
v -0.1004499 0.06527007 -0.09034396
v -0.09584567 0.08403873 -0.08526991
v 0.03431582 -0.07145035 0.08588286
v 0.04383081 -0.05775523 0.09680404
v 0.09185112 -0.07140133 0.06600527
v 0.08067775 -0.08403873 0.05527435
v 0.08067775 -0.08403873 0.05527435
v 0.09185112 -0.07140133 0.06600527
v 0.1063738 -0.05262661 0.02675627
v 0.09479088 -0.06609643 0.01770607
v 0.09479088 -0.06609643 0.01770607
v 0.1063738 -0.05262661 0.02675627
v 0.0770743 0.005458951 -0.03744444
v 0.0671543 -0.01030335 -0.0443476
v 0.01317757 0.05537227 -0.09157375
v 0.006465614 0.03737631 -0.09680405
v 0.006465614 0.03737631 -0.09680405
v 0.01317757 0.05537227 -0.09157375
v -0.09584567 0.08403873 -0.08526991
v -0.1004499 0.06527007 -0.09034396
vt 0.5625 0.28125
vt 0.53125 0.28125
vt 0.5625 0.3125
vt 0.53125 0.3125
vt 0.59375 0.28125
vt 0.59375 0.25
vt 0.625 0.25
vt 0.625 0.28125
vt 0.59375 0.3125
vt 0.5625 0.34375
vt 0.53125 0.34375
vt 0.5625 0.28125
vt 0.5625 0.3125
vt 0.53125 0.28125
vt 0.53125 0.3125
vt 0.59375 0.28125
vt 0.59375 0.25
vt 0.625 0.25
vt 0.625 0.28125
vt 0.59375 0.3125
vt 0.5625 0.34375
vt 0.53125 0.34375
vt 0.53125 0.28125
vt 0.53125 0.28125
vt 0.5625 0.28125
vt 0.5625 0.28125
vt 0.59375 0.25
vt 0.59375 0.25
vt 0.53125 0.3125
vt 0.53125 0.3125
vt 0.53125 0.28125
vt 0.53125 0.28125
vt 0.53125 0.34375
vt 0.53125 0.34375
vt 0.59375 0.25
vt 0.59375 0.25
vt 0.625 0.25
vt 0.625 0.25
vt 0.625 0.25
vt 0.625 0.25
vt 0.625 0.28125
vt 0.625 0.28125
vt 0.625 0.28125
vt 0.625 0.28125
vt 0.59375 0.3125
vt 0.59375 0.3125
vt 0.5625 0.34375
vt 0.5625 0.34375
vt 0.5625 0.34375
vt 0.5625 0.34375
vt 0.53125 0.34375
vt 0.53125 0.34375
vn 0.3868298 0.8135858 0.4340977
vn 0.2695035 0.8724163 0.4077472
vn 0.330005 0.8819607 0.3365145
vn 0.2147083 0.9209551 0.3251801
vn 0.4587983 0.761398 0.4580144
vn 0.4388555 0.7167594 0.5419057
vn 0.5487902 0.6352708 0.5433786
vn 0.5804255 0.6908077 0.4311508
vn 0.4214998 0.817878 0.3916804
vn 0.3493286 0.8976516 0.2686841
vn 0.2286841 0.9386634 0.2580983
vn -0.385866 -0.8139035 -0.4343599
vn -0.3282816 -0.8828661 -0.3358252
vn -0.2677162 -0.8731871 -0.4072743
vn -0.2136873 -0.9211361 -0.32534
vn -0.458526 -0.7611895 -0.4586333
vn -0.4390194 -0.7166736 -0.5418864
vn -0.5502409 -0.633002 -0.5445579
vn -0.5808735 -0.6899649 -0.4318963
vn -0.4205805 -0.8182583 -0.391874
vn -0.3474705 -0.8984714 -0.2683531
vn -0.2273299 -0.9391086 -0.2576748
vn -0.4630448 -0.2747687 0.8426694
vn -0.4630448 -0.2747687 0.8426694
vn -0.5394756 -0.2382401 0.8075938
vn -0.5396776 -0.2381379 0.8074889
vn -0.5873275 -0.2130944 0.7807926
vn -0.5873275 -0.2130944 0.7807927
vn -0.9708813 0.1742487 0.1643987
vn -0.9709213 0.174403 0.1639979
vn -0.8894104 0.05000641 0.4543659
vn -0.8894104 0.05000641 0.4543659
vn -0.9721601 0.2343145 -0.001193647
vn -0.9721601 0.2343145 -0.001193647
vn 0.2275439 -0.7188699 0.6568485
vn 0.2275439 -0.7188699 0.6568485
vn 0.2275439 -0.7188699 0.6568485
vn 0.2275439 -0.7188699 0.6568485
vn 0.7627413 -0.6462373 -0.02455416
vn 0.7627413 -0.6462374 -0.02455416
vn 0.7627413 -0.6462374 -0.02455416
vn 0.7627413 -0.6462374 -0.02455416
vn 0.7749047 -0.2541805 -0.5787184
vn 0.7749047 -0.2541805 -0.5787184
vn 0.712103 -0.1435518 -0.6872424
vn 0.7114705 -0.1425736 -0.6881006
vn 0.6339018 -0.03460643 -0.7726389
vn 0.6339018 -0.03460643 -0.7726389
vn 0.01275778 0.2662142 -0.9638295
vn 0.01275777 0.2662142 -0.9638295
vn 0.01275778 0.2662142 -0.9638295
vn 0.01275778 0.2662142 -0.9638295
g shard95_0
f 3/3/3 2/2/2 1/1/1
f 3/3/3 4/4/4 2/2/2
f 5/5/5 3/3/3 1/1/1
f 6/6/6 5/5/5 1/1/1
f 7/7/7 5/5/5 6/6/6
f 7/7/7 8/8/8 5/5/5
f 8/8/8 9/9/9 5/5/5
f 5/5/5 9/9/9 3/3/3
f 9/9/9 10/10/10 3/3/3
f 3/3/3 11/11/11 4/4/4
f 3/3/3 10/10/10 11/11/11
f 14/14/14 13/13/13 12/12/12
f 15/15/15 13/13/13 14/14/14
f 13/13/13 16/16/16 12/12/12
f 16/16/16 17/17/17 12/12/12
f 16/16/16 18/18/18 17/17/17
f 19/19/19 18/18/18 16/16/16
f 20/20/20 19/19/19 16/16/16
f 20/20/20 16/16/16 13/13/13
f 21/21/21 20/20/20 13/13/13
f 22/22/22 13/13/13 15/15/15
f 21/21/21 13/13/13 22/22/22
f 25/25/25 24/24/24 23/23/23
f 26/26/26 25/25/25 23/23/23
f 27/27/27 25/25/25 26/26/26
f 28/28/28 27/27/27 26/26/26
f 31/31/31 30/30/30 29/29/29
f 32/32/32 31/31/31 29/29/29
f 29/29/29 30/30/30 33/33/33
f 30/30/30 34/34/34 33/33/33
f 37/37/37 36/36/36 35/35/35
f 38/38/38 37/37/37 35/35/35
f 41/41/41 40/40/40 39/39/39
f 42/42/42 41/41/41 39/39/39
f 45/45/45 44/44/44 43/43/43
f 46/46/46 45/45/45 43/43/43
f 47/47/47 45/45/45 46/46/46
f 48/48/48 47/47/47 46/46/46
f 51/51/51 50/50/50 49/49/49
f 52/52/52 51/51/51 49/49/49
