g shard29
v -0.2220973 0.2636703 -0.26462486
v -0.39977515 0.4746065 -0.47632474
v -0.4806581 0.40749303 -0.46210298
v -0.2670323 0.22638501 -0.25672388
v -0.14379515 0.2877961 -0.29303756
v -0.25883126 0.518033 -0.5274676
v -0.39977515 0.4746065 -0.47632474
v -0.2220973 0.2636703 -0.26462486
v -0.23722805 0.14699797 -0.3319417
v -0.42701048 0.26459634 -0.5974951
v -0.31616136 0.28291216 -0.6504842
v -0.1756452 0.15717342 -0.36138013
v -0.2670323 0.22638501 -0.25672388
v -0.4806581 0.40749303 -0.46210298
v -0.5031112 0.27018058 -0.5350983
v -0.2795062 0.15010032 -0.29727685
v -0.2795062 0.15010032 -0.29727685
v -0.5031112 0.27018058 -0.5350983
v -0.42701048 0.26459634 -0.5974951
v -0.23722805 0.14699797 -0.3319417
v -0.08845791 0.25207335 -0.34020168
v -0.15922424 0.453732 -0.612363
v -0.25883126 0.518033 -0.5274676
v -0.14379515 0.2877961 -0.29303756
v 0.0008571441 0.29868102 -0.31684285
v 0.0015428595 0.53762585 -0.57031715
v -0.15922424 0.453732 -0.612363
v -0.08845791 0.25207335 -0.34020168
v 0.00547409 0.24266945 -0.3595824
v 0.009853362 0.436805 -0.64724827
v 0.0015428595 0.53762585 -0.57031715
v 0.0008571441 0.29868102 -0.31684285
v 0.013703555 0.17935234 -0.38905472
v 0.024666399 0.32283422 -0.7002985
v 0.009853362 0.436805 -0.64724827
v 0.00547409 0.24266945 -0.3595824
v -0.1756452 0.15717342 -0.36138013
v -0.31616136 0.28291216 -0.6504842
v -0.14490634 0.17193832 -0.73371184
v -0.08050352 0.095521286 -0.4076177
v -0.08050352 0.095521286 -0.4076177
v -0.14490634 0.17193832 -0.73371184
v -0.0075720446 0.17353112 -0.7449806
v -0.0042066914 0.09640618 -0.4138781
v 0.0673317 0.23607093 -0.35621443
v 0.12119706 0.42492768 -0.641186
v 0.024666399 0.32283422 -0.7002985
v 0.013703555 0.17935234 -0.38905472
v 0.080646984 0.1798554 -0.38167834
v 0.14516458 0.32373974 -0.687021
v 0.12119706 0.42492768 -0.641186
v 0.0673317 0.23607093 -0.35621443
v -0.0042066914 0.09640618 -0.4138781
v -0.0075720446 0.17353112 -0.7449806
v 0.121716276 0.14032912 -0.7417314
v 0.06762015 0.077960625 -0.41207302
v 0.16216809 0.10095282 -0.38347542
v 0.29190254 0.18171507 -0.69025576
v 0.14516458 0.32373974 -0.687021
v 0.080646984 0.1798554 -0.38167834
v 0.06762015 0.077960625 -0.41207302
v 0.121716276 0.14032912 -0.7417314
v 0.29190254 0.18171507 -0.69025576
v 0.16216809 0.10095282 -0.38347542
vt 0 0
vt 0 1
vt 0.044707414 1
vt 0.044707414 0
vt 0.044707414 0
vt 0.044707414 1
vt 0.11050792 1
vt 0.11050792 0
vt 0.8398548 0
vt 0.8398548 1
vt 0.89221805 1
vt 0.89221805 0
vt 0.9337681 0
vt 0.9337681 1
vt 1 1
vt 1 0
vt 0.89221805 0
vt 0.89221805 1
vt 0.9337681 1
vt 0.9337681 0
vt 0.11050792 0
vt 0.11050792 1
vt 0.17197575 1
vt 0.17197575 0
vt 0.17197575 0
vt 0.17197575 1
vt 0.2504444 1
vt 0.2504444 0
vt 0.2504444 0
vt 0.2504444 1
vt 0.30401775 1
vt 0.30401775 0
vt 0.30401775 0
vt 0.30401775 1
vt 0.35737637 1
vt 0.35737637 0
vt 0.74695456 0
vt 0.74695456 1
vt 0.8398548 1
vt 0.8398548 0
vt 0.6888652 0
vt 0.6888652 1
vt 0.74695456 1
vt 0.74695456 0
vt 0.35737637 0
vt 0.35737637 1
vt 0.42163152 1
vt 0.42163152 0
vt 0.42163152 0
vt 0.42163152 1
vt 0.46953496 1
vt 0.46953496 0
vt 0.6325808 0
vt 0.6325808 1
vt 0.6888652 1
vt 0.6888652 0
vt 0.46953496 0
vt 0.46953496 1
vt 0.55562836 1
vt 0.55562836 0
vt 0.55562836 0
vt 0.55562836 1
vt 0.6325808 1
vt 0.6325808 0
vn 0.30482897 -0.5344229 -0.7883346
vn 0.304829 -0.5344229 -0.7883346
vn 0.30482903 -0.5344229 -0.7883346
vn 0.30482903 -0.5344229 -0.7883346
vn -0.02950804 -0.72034866 -0.6929842
vn -0.02950804 -0.72034866 -0.6929842
vn -0.02950804 -0.72034866 -0.6929842
vn -0.029508043 -0.7203486 -0.6929842
vn 0.031932868 0.92213815 0.38554057
vn 0.031932864 0.92213815 0.38554054
vn 0.031932868 0.92213815 0.38554057
vn 0.031932864 0.92213815 0.3855406
vn 0.7623827 0.20213632 -0.61474675
vn 0.7623826 0.2021363 -0.61474675
vn 0.7623827 0.20213632 -0.61474675
vn 0.7623826 0.20213631 -0.61474675
vn 0.2581739 0.93809503 0.23091997
vn 0.2581739 0.93809503 0.23091997
vn 0.2581739 0.9380949 0.23091996
vn 0.25817388 0.93809503 0.23091997
vn -0.68738145 -0.6575346 -0.30847195
vn -0.68738145 -0.6575346 -0.30847195
vn -0.68738145 -0.65753466 -0.30847198
vn -0.68738145 -0.6575346 -0.30847195
vn 0.48813584 -0.63573176 -0.59797037
vn 0.48813584 -0.63573176 -0.5979703
vn 0.4881358 -0.63573176 -0.59797037
vn 0.48813578 -0.63573176 -0.5979703
vn -0.9978211 -0.04664027 -0.046666168
vn -0.9978211 -0.046640273 -0.046666168
vn -0.9978211 -0.046640273 -0.046666164
vn -0.9978211 -0.04664027 -0.046666168
vn -0.992642 -0.09282329 -0.07775463
vn -0.992642 -0.09282328 -0.07775463
vn -0.992642 -0.092823274 -0.07775462
vn -0.992642 -0.09282328 -0.07775463
vn 0.56899226 0.81849766 0.07943243
vn 0.56899226 0.81849754 0.07943241
vn 0.56899226 0.81849754 0.07943241
vn 0.56899226 0.81849766 0.07943243
vn 0.0073128548 0.97391766 0.22678399
vn 0.007312855 0.97391766 0.226784
vn 0.007312855 0.97391766 0.226784
vn 0.0073128548 0.97391766 0.226784
vn 0.7712245 -0.58798665 -0.24389441
vn 0.7712245 -0.5879867 -0.24389444
vn 0.7712245 -0.5879867 -0.24389444
vn 0.7712245 -0.58798665 -0.24389444
vn -0.9603206 -0.11170655 -0.25555018
vn -0.9603206 -0.11170653 -0.25555018
vn -0.9603206 -0.111706555 -0.2555502
vn -0.9603206 -0.111706555 -0.2555502
vn 0.23760347 0.94656694 0.21807234
vn 0.2376035 0.94656694 0.21807235
vn 0.23760347 0.94656694 0.21807234
vn 0.23760347 0.94656694 0.21807237
vn -0.6309006 -0.64191246 -0.43579006
vn -0.6309006 -0.64191246 -0.43579012
vn -0.63090056 -0.64191246 -0.4357901
vn -0.63090056 -0.64191246 -0.43579006
vn -0.27261522 0.95253724 0.13547626
vn -0.27261522 0.95253724 0.13547626
vn -0.27261522 0.95253724 0.13547625
vn -0.27261522 0.95253724 0.13547626
g shard29_0
f 3/3/3 2/2/2 1/1/1
f 4/4/4 3/3/3 1/1/1
f 7/7/7 6/6/6 5/5/5
f 8/8/8 7/7/7 5/5/5
f 11/11/11 10/10/10 9/9/9
f 12/12/12 11/11/11 9/9/9
f 15/15/15 14/14/14 13/13/13
f 16/16/16 15/15/15 13/13/13
f 19/19/19 18/18/18 17/17/17
f 20/20/20 19/19/19 17/17/17
f 23/23/23 22/22/22 21/21/21
f 24/24/24 23/23/23 21/21/21
f 27/27/27 26/26/26 25/25/25
f 28/28/28 27/27/27 25/25/25
f 31/31/31 30/30/30 29/29/29
f 32/32/32 31/31/31 29/29/29
f 35/35/35 34/34/34 33/33/33
f 36/36/36 35/35/35 33/33/33
f 39/39/39 38/38/38 37/37/37
f 40/40/40 39/39/39 37/37/37
f 43/43/43 42/42/42 41/41/41
f 44/44/44 43/43/43 41/41/41
f 47/47/47 46/46/46 45/45/45
f 48/48/48 47/47/47 45/45/45
f 51/51/51 50/50/50 49/49/49
f 52/52/52 51/51/51 49/49/49
f 55/55/55 54/54/54 53/53/53
f 56/56/56 55/55/55 53/53/53
f 59/59/59 58/58/58 57/57/57
f 60/60/60 59/59/59 57/57/57
f 63/63/63 62/62/62 61/61/61
f 64/64/64 63/63/63 61/61/61
