g shard45
v -0.2465174 -0.3570431 -0.004708888
v -0.3072099 -0.309019 -0.01027512
v -0.3040859 -0.2928255 0.09873708
v -0.1493327 -0.4003386 -0.003720837
v -0.1550935 -0.372699 0.149509
v -0.2285045 -0.3333838 0.1581752
v -0.07263505 -0.4177578 -0.001704593
v -0.009811387 -0.4162674 0.0852804
v -0.06308693 -0.3845096 0.1784148
v -0.4437314 -0.6426777 -0.008475998
v -0.5529778 -0.5562342 -0.01849522
v -0.5473546 -0.527086 0.1777267
v -0.2687988 -0.7206094 -0.006697507
v -0.2791682 -0.6708581 0.2691162
v -0.4113081 -0.6000909 0.2847154
v -0.1307431 -0.7519641 -0.003068268
v -0.0176605 -0.7492813 0.1535047
v -0.1135565 -0.6921173 0.3211466
v -0.3072099 -0.309019 -0.01027512
v -0.5529778 -0.5562342 -0.01849522
v -0.4437314 -0.6426777 -0.008475998
v -0.2465174 -0.3570431 -0.004708888
v -0.3040859 -0.2928255 0.09873708
v -0.5473546 -0.527086 0.1777267
v -0.4113081 -0.6000909 0.2847154
v -0.2285045 -0.3333838 0.1581752
v -0.1307431 -0.7519641 -0.003068268
v -0.07263505 -0.4177578 -0.001704593
v -0.0176605 -0.7492813 0.1535047
v -0.009811387 -0.4162674 0.0852804
v -0.1550935 -0.372699 0.149509
v -0.2791682 -0.6708581 0.2691162
v -0.1135565 -0.6921173 0.3211466
v -0.06308693 -0.3845096 0.1784148
vt 0 0
vt 0.08843956 0
vt 0.2141021 0
vt 0.8787319 0
vt 0.4284728 0
vt 0.3330451 0
vt 0.7890586 0
vt 0.6667501 0
vt 0.5392138 0
vt 0 1
vt 0.08843956 1
vt 0.2141021 1
vt 0.8787319 1
vt 0.4284728 1
vt 0.3330451 1
vt 0.7890586 1
vt 0.6667501 1
vt 0.5392138 1
vt 0.08843956 0
vt 0.08843956 1
vt 1 1
vt 1 0
vt 0.2141021 0
vt 0.2141021 1
vt 0.3330451 1
vt 0.3330451 0
vt 0.7890586 1
vt 0.7890586 0
vt 0.6667501 1
vt 0.6667501 0
vt 0.4284728 0
vt 0.4284728 1
vt 0.5392138 1
vt 0.5392138 0
vn -0.0658803 0.03233349 0.9973035
vn -0.06588029 0.03233349 0.9973035
vn 0.7052482 -0.7039243 0.08435534
vn -0.01226746 -0.004717463 0.9999137
vn -0.2530801 -0.2676314 -0.9296902
vn -0.2530802 -0.2676315 -0.9296902
vn -0.02617211 0.0004715709 0.9996573
vn -0.8040964 0.1374472 0.5783919
vn -0.8765096 -0.07670166 -0.4752343
vn -0.06588031 0.03233349 0.9973035
vn -0.06588031 0.03233349 0.9973035
vn 0.7052481 -0.7039243 0.08435534
vn -0.01226746 -0.004717463 0.9999137
vn -0.2530801 -0.2676315 -0.9296902
vn -0.2530802 -0.2676315 -0.9296902
vn -0.0261721 0.0004715709 0.9996573
vn -0.8040963 0.1374472 0.578392
vn -0.8765096 -0.07670165 -0.4752343
vn 0.7052481 -0.7039243 0.08435532
vn 0.7052482 -0.7039243 0.08435535
vn -0.01226746 -0.004717463 0.9999137
vn -0.01226746 -0.004717463 0.9999137
vn 0.298187 -0.5682511 -0.7669259
vn 0.298187 -0.568251 -0.7669258
vn 0.298187 -0.568251 -0.7669258
vn 0.298187 -0.568251 -0.7669258
vn -0.8040964 0.1374472 0.5783919
vn -0.8040964 0.1374472 0.5783919
vn -0.8765097 -0.07670166 -0.4752344
vn -0.8765096 -0.07670165 -0.4752343
vn 0.2172734 -0.439955 -0.8713391
vn 0.2172735 -0.439955 -0.8713391
vn 0.2172735 -0.439955 -0.8713391
vn 0.2172735 -0.439955 -0.8713391
g shard45_0
f 11/11/11 10/10/10 1/1/1
f 2/2/2 11/11/11 1/1/1
f 12/12/12 20/20/20 19/19/19
f 3/3/3 12/12/12 19/19/19
f 22/22/22 21/21/21 4/4/4
f 21/21/21 13/13/13 4/4/4
f 4/4/4 13/13/13 7/7/7
f 13/13/13 16/16/16 7/7/7
f 14/14/14 15/15/15 6/6/6
f 5/5/5 14/14/14 6/6/6
f 25/25/25 24/24/24 23/23/23
f 26/26/26 25/25/25 23/23/23
f 27/27/27 17/17/17 8/8/8
f 28/28/28 27/27/27 8/8/8
f 29/29/29 18/18/18 9/9/9
f 30/30/30 29/29/29 9/9/9
f 33/33/33 32/32/32 31/31/31
f 34/34/34 33/33/33 31/31/31
