g shard38
v -0.1351471 -0.3434648 -0.2248491
v -0.2003573 -0.3185105 -0.2148189
v -0.2414585 -0.3300716 -0.1417438
v -0.09094627 -0.388229 -0.1573264
v -0.01069904 -0.4111618 -0.1049893
v -0.07263505 -0.4177578 -0.001704593
v -0.1493327 -0.4003386 -0.003720837
v -0.2456188 -0.3500583 -0.06771711
v -0.2465174 -0.3570431 -0.004708888
v -0.2432647 -0.6182367 -0.4047284
v -0.3606431 -0.573319 -0.386674
v -0.4346253 -0.5941288 -0.2551389
v -0.1637033 -0.6988122 -0.2831876
v -0.01925827 -0.7400913 -0.1889808
v -0.1307431 -0.7519641 -0.003068268
v -0.2687988 -0.7206094 -0.006697507
v -0.4421139 -0.630105 -0.1218908
v -0.4437314 -0.6426777 -0.008475998
v -0.2003573 -0.3185105 -0.2148189
v -0.3606431 -0.573319 -0.386674
v -0.2432647 -0.6182367 -0.4047284
v -0.1351471 -0.3434648 -0.2248491
v -0.1637033 -0.6988122 -0.2831876
v -0.09094627 -0.388229 -0.1573264
v -0.01925827 -0.7400913 -0.1889808
v -0.01069904 -0.4111618 -0.1049893
v -0.1307431 -0.7519641 -0.003068268
v -0.07263505 -0.4177578 -0.001704593
v -0.2414585 -0.3300716 -0.1417438
v -0.4346253 -0.5941288 -0.2551389
v -0.2456188 -0.3500583 -0.06771711
v -0.4421139 -0.630105 -0.1218908
v -0.2465174 -0.3570431 -0.004708888
v -0.4437314 -0.6426777 -0.008475998
vt 0 0
vt 0.08908089 0
vt 0.1959625 0
vt 0.883454 0
vt 0.7590458 0
vt 0.6067286 0
vt 0.5073703 0
vt 0.2929384 0
vt 0.3730049 0
vt 0 1
vt 0.08908089 1
vt 0.1959625 1
vt 0.883454 1
vt 0.7590458 1
vt 0.6067286 1
vt 0.5073703 1
vt 0.2929384 1
vt 0.3730049 1
vt 0.08908089 0
vt 0.08908089 1
vt 1 1
vt 1 0
vt 0.883454 1
vt 0.883454 0
vt 0.7590458 1
vt 0.7590458 0
vt 0.6067286 1
vt 0.6067286 0
vt 0.1959625 0
vt 0.1959625 1
vt 0.2929384 0
vt 0.2929384 1
vt 0.3730049 0
vt 0.3730049 1
vn -0.07120119 -0.5265678 0.8471463
vn -0.07120118 -0.5265678 0.8471462
vn 0.7061902 -0.6434557 0.295398
vn -0.8427044 -0.02060133 0.5379823
vn -0.5737242 -0.1885934 0.7970402
vn -0.8520928 0.1501982 -0.5013765
vn 0.0261721 -0.0004715705 -0.9996573
vn 0.8235057 -0.5576419 -0.104278
vn 0.8221492 -0.5669717 -0.05112689
vn -0.07120119 -0.5265678 0.8471463
vn -0.0712012 -0.5265678 0.8471463
vn 0.7061902 -0.6434557 0.2953981
vn -0.8427044 -0.02060133 0.5379823
vn -0.5737242 -0.1885934 0.7970402
vn -0.8520928 0.1501982 -0.5013765
vn 0.0261721 -0.0004715705 -0.9996573
vn 0.8235057 -0.5576419 -0.104278
vn 0.822149 -0.5669717 -0.05112687
vn 0.7061902 -0.6434557 0.2953981
vn 0.7061902 -0.6434557 0.295398
vn -0.8427044 -0.02060133 0.5379823
vn -0.8427043 -0.02060133 0.5379823
vn -0.5737242 -0.1885934 0.7970402
vn -0.5737242 -0.1885934 0.7970402
vn -0.8520928 0.1501982 -0.5013765
vn -0.8520928 0.1501982 -0.5013765
vn 0.0261721 -0.0004715705 -0.9996573
vn 0.0261721 -0.0004715705 -0.9996573
vn 0.8235057 -0.5576419 -0.104278
vn 0.8235057 -0.5576419 -0.104278
vn 0.8221492 -0.5669717 -0.05112689
vn 0.8221492 -0.5669717 -0.05112689
vn 0.01226746 0.004717462 -0.9999137
vn 0.01226746 0.004717462 -0.9999137
g shard38_0
f 11/11/11 10/10/10 1/1/1
f 2/2/2 11/11/11 1/1/1
f 12/12/12 20/20/20 19/19/19
f 3/3/3 12/12/12 19/19/19
f 21/21/21 13/13/13 4/4/4
f 22/22/22 21/21/21 4/4/4
f 23/23/23 14/14/14 5/5/5
f 24/24/24 23/23/23 5/5/5
f 25/25/25 15/15/15 6/6/6
f 26/26/26 25/25/25 6/6/6
f 28/28/28 27/27/27 7/7/7
f 27/27/27 16/16/16 7/7/7
f 7/7/7 16/16/16 33/33/33
f 16/16/16 34/34/34 33/33/33
f 17/17/17 30/30/30 29/29/29
f 8/8/8 17/17/17 29/29/29
f 18/18/18 32/32/32 31/31/31
f 9/9/9 18/18/18 31/31/31
