g shard32
v -0.40052363 -0.14859481 -0.0038194838
v -0.7209425 -0.26747066 -0.0068750707
v -0.7376119 -0.12618667 -0.16360423
v -0.40978438 -0.070103705 -0.090891235
v -0.40978438 -0.070103705 -0.090891235
v -0.7376119 -0.12618667 -0.16360423
v -0.7454206 0.013130533 -0.17167568
v -0.41412255 0.00729474 -0.095375374
v -0.4099972 -0.090520956 0.06837289
v -0.7379949 -0.16293773 0.1230712
v -0.70482147 -0.28129995 0.14099807
v -0.39156747 -0.15627776 0.07833225
v -0.39156747 -0.15627776 0.07833225
v -0.70482147 -0.28129995 0.14099807
v -0.7209425 -0.26747066 -0.0068750707
v -0.40052363 -0.14859481 -0.0038194838
v -0.3803963 -0.079478174 0.18247597
v -0.68471336 -0.14306071 0.32845676
v -0.7379949 -0.16293773 0.1230712
v -0.4099972 -0.090520956 0.06837289
v -0.39587852 0.012335643 0.16322438
v -0.71258134 0.022204157 0.29380387
v -0.68471336 -0.14306071 0.32845676
v -0.3803963 -0.079478174 0.18247597
v -0.4161511 0.085549586 0.010370364
v -0.74907196 0.15398926 0.018666655
v -0.7311064 0.17897692 0.15188105
v -0.40617022 0.09943162 0.08437836
v -0.40617022 0.09943162 0.08437836
v -0.7311064 0.17897692 0.15188105
v -0.71258134 0.022204157 0.29380387
v -0.39587852 0.012335643 0.16322438
v -0.41412255 0.00729474 -0.095375374
v -0.7454206 0.013130533 -0.17167568
v -0.7348435 0.17392077 -0.12632562
v -0.4082464 0.096622646 -0.0701809
v -0.4082464 0.096622646 -0.0701809
v -0.7348435 0.17392077 -0.12632562
v -0.74907196 0.15398926 0.018666655
v -0.4161511 0.085549586 0.010370364
vt 0 0
vt 0 1
vt 0.12653823 1
vt 0.12653823 0
vt 0.12653823 0
vt 0.12653823 1
vt 0.21009453 1
vt 0.21009453 0
vt 0.8364289 0
vt 0.8364289 1
vt 0.91069174 1
vt 0.91069174 0
vt 0.91069174 0
vt 0.91069174 1
vt 1 1
vt 1 0
vt 0.7090263 0
vt 0.7090263 1
vt 0.8364289 1
vt 0.8364289 0
vt 0.6067142 0
vt 0.6067142 1
vt 0.7090263 1
vt 0.7090263 0
vt 0.39807406 0
vt 0.39807406 1
vt 0.47980943 1
vt 0.47980943 0
vt 0.47980943 0
vt 0.47980943 1
vt 0.6067142 1
vt 0.6067142 0
vt 0.21009453 0
vt 0.21009453 1
vt 0.31016764 1
vt 0.31016764 0
vt 0.31016764 0
vt 0.31016764 1
vt 0.39807406 1
vt 0.39807406 0
vn -0.26659736 0.70160306 0.6608169
vn -0.26659736 0.70160306 0.6608169
vn -0.26659742 0.70160306 0.6608169
vn -0.26659736 0.7016031 0.6608169
vn -0.22348155 0.043887272 0.9737196
vn -0.22348157 0.043887272 0.9737196
vn -0.22348154 0.043887272 0.9737196
vn -0.22348155 0.04388727 0.9737196
vn -0.122494586 -0.18209693 -0.9756208
vn -0.122494586 -0.18209694 -0.9756208
vn -0.122494586 -0.18209694 -0.9756208
vn -0.122494586 -0.18209693 -0.9756208
vn -0.34616458 0.92984945 0.124699496
vn -0.3461646 0.92984945 0.12469952
vn -0.3461646 0.92984945 0.12469951
vn -0.34616458 0.92984945 0.12469951
vn -0.22130902 0.9745054 -0.036899183
vn -0.22130902 0.9745054 -0.036899187
vn -0.221309 0.9745054 -0.036899183
vn -0.221309 0.9745054 -0.036899183
vn -0.37569225 -0.25044194 -0.8922635
vn -0.37569222 -0.2504419 -0.8922635
vn -0.37569225 -0.25044194 -0.8922635
vn -0.37569222 -0.2504419 -0.8922635
vn -0.19212289 -0.9595294 0.2058935
vn -0.19212286 -0.9595294 0.20589352
vn -0.19212286 -0.9595294 0.20589349
vn -0.19212288 -0.9595294 0.20589352
vn -0.3042168 -0.6588205 -0.6880463
vn -0.30421677 -0.6588205 -0.6880463
vn -0.3042168 -0.6588205 -0.68804634
vn -0.3042168 -0.6588205 -0.6880463
vn -0.22143564 -0.2511952 0.94226706
vn -0.22143562 -0.2511952 0.94226706
vn -0.2214356 -0.2511952 0.94226706
vn -0.22143562 -0.2511952 0.94226706
vn -0.20264956 -0.9672486 -0.15285026
vn -0.20264956 -0.9672486 -0.15285024
vn -0.20264955 -0.9672486 -0.15285026
vn -0.20264958 -0.9672486 -0.15285027
g shard32_0
f 3/3/3 2/2/2 1/1/1
f 4/4/4 3/3/3 1/1/1
f 7/7/7 6/6/6 5/5/5
f 8/8/8 7/7/7 5/5/5
f 11/11/11 10/10/10 9/9/9
f 12/12/12 11/11/11 9/9/9
f 15/15/15 14/14/14 13/13/13
f 16/16/16 15/15/15 13/13/13
f 19/19/19 18/18/18 17/17/17
f 20/20/20 19/19/19 17/17/17
f 23/23/23 22/22/22 21/21/21
f 24/24/24 23/23/23 21/21/21
f 27/27/27 26/26/26 25/25/25
f 28/28/28 27/27/27 25/25/25
f 31/31/31 30/30/30 29/29/29
f 32/32/32 31/31/31 29/29/29
f 35/35/35 34/34/34 33/33/33
f 36/36/36 35/35/35 33/33/33
f 39/39/39 38/38/38 37/37/37
f 40/40/40 39/39/39 37/37/37
