g shard91
v -0.023542032 0.1114213 -0.032114446
v 0.04050082 0.09545216 -0.0066761374
v 0.053997427 0.17081288 0.02676487
v -0.026960403 -0.005099481 -0.046494067
v -0.11988944 0.08614146 -0.061846554
v -0.120104365 0.021082435 -0.06723127
v -0.103641376 -0.0802177 -0.059869856
v 0.06871872 -0.000671213 -0.0009279847
v 0.12489493 0.06662246 0.051335245
v -0.029341906 -0.09449802 -0.035556853
v -0.09352289 -0.16883577 -0.032238394
v -0.03626722 -0.17081288 -0.014169276
v 0.041122243 -0.15099332 0.014223248
v 0.051792413 -0.057277955 -0.0051827133
v 0.106617674 -0.07791235 0.03971383
v -0.030347005 0.10724126 -0.013982296
v 0.045656145 0.16463095 0.043858945
v 0.030394599 0.09109697 0.009818912
v -0.033525184 -0.0049461266 -0.027602792
v -0.12489494 0.084249064 -0.04257989
v -0.12454286 0.020632679 -0.04777214
v -0.10826815 -0.07722514 -0.040792555
v 0.056767464 -0.0007018512 0.0149124265
v 0.11302377 0.064094 0.06723127
v -0.036193013 -0.09037243 -0.017225415
v -0.098869264 -0.16336824 -0.013760835
v -0.042972192 -0.16517065 0.0037682354
v 0.03155434 -0.14590104 0.030913085
v 0.04180616 -0.0542176 0.011873335
v 0.09495215 -0.07440017 0.05553639
v -0.030347005 0.10724126 -0.013982296
v 0.053997427 0.17081288 0.02676487
v 0.045656145 0.16463095 0.043858945
v -0.023542032 0.1114213 -0.032114446
v -0.12489494 0.084249064 -0.04257989
v -0.11988944 0.08614146 -0.061846554
v 0.045656145 0.16463095 0.043858945
v 0.053997427 0.17081288 0.02676487
v 0.04050082 0.09545216 -0.0066761374
v 0.030394599 0.09109697 0.009818912
v 0.030394599 0.09109697 0.009818912
v 0.04050082 0.09545216 -0.0066761374
v 0.12489493 0.06662246 0.051335245
v 0.11302377 0.064094 0.06723127
v 0.11302377 0.064094 0.06723127
v 0.12489493 0.06662246 0.051335245
v 0.06871872 -0.000671213 -0.0009279847
v 0.056767464 -0.0007018512 0.0149124265
v -0.12454286 0.020632679 -0.04777214
v -0.11988944 0.08614146 -0.061846554
v -0.12489494 0.084249064 -0.04257989
v -0.120104365 0.021082435 -0.06723127
v -0.10826815 -0.07722514 -0.040792555
v -0.103641376 -0.0802177 -0.059869856
v -0.098869264 -0.16336824 -0.013760835
v -0.09352289 -0.16883577 -0.032238394
v -0.042972192 -0.16517065 0.0037682354
v -0.09352289 -0.16883577 -0.032238394
v -0.098869264 -0.16336824 -0.013760835
v -0.03626722 -0.17081288 -0.014169276
v 0.03155434 -0.14590104 0.030913085
v 0.041122243 -0.15099332 0.014223248
v 0.056767464 -0.0007018512 0.0149124265
v 0.06871872 -0.000671213 -0.0009279847
v 0.106617674 -0.07791235 0.03971383
v 0.09495215 -0.07440017 0.05553639
v 0.09495215 -0.07440017 0.05553639
v 0.106617674 -0.07791235 0.03971383
v 0.041122243 -0.15099332 0.014223248
v 0.03155434 -0.14590104 0.030913085
vt 0.5625 0.59375
vt 0.59375 0.59375
vt 0.59375 0.5625
vt 0.5625 0.625
vt 0.53125 0.59375
vt 0.53125 0.625
vt 0.53125 0.65625
vt 0.59375 0.625
vt 0.625 0.59375
vt 0.5625 0.65625
vt 0.53125 0.6875
vt 0.5625 0.6875
vt 0.59375 0.6875
vt 0.59375 0.65625
vt 0.625 0.65625
vt 0.5625 0.59375
vt 0.59375 0.5625
vt 0.59375 0.59375
vt 0.5625 0.625
vt 0.53125 0.59375
vt 0.53125 0.625
vt 0.53125 0.65625
vt 0.59375 0.625
vt 0.625 0.59375
vt 0.5625 0.65625
vt 0.53125 0.6875
vt 0.5625 0.6875
vt 0.59375 0.6875
vt 0.59375 0.65625
vt 0.625 0.65625
vt 0.5625 0.59375
vt 0.59375 0.5625
vt 0.59375 0.5625
vt 0.5625 0.59375
vt 0.53125 0.59375
vt 0.53125 0.59375
vt 0.59375 0.5625
vt 0.59375 0.5625
vt 0.59375 0.59375
vt 0.59375 0.59375
vt 0.59375 0.59375
vt 0.59375 0.59375
vt 0.625 0.59375
vt 0.625 0.59375
vt 0.625 0.59375
vt 0.625 0.59375
vt 0.59375 0.625
vt 0.59375 0.625
vt 0.53125 0.625
vt 0.53125 0.59375
vt 0.53125 0.59375
vt 0.53125 0.625
vt 0.53125 0.65625
vt 0.53125 0.65625
vt 0.53125 0.6875
vt 0.53125 0.6875
vt 0.5625 0.6875
vt 0.53125 0.6875
vt 0.53125 0.6875
vt 0.5625 0.6875
vt 0.59375 0.6875
vt 0.59375 0.6875
vt 0.59375 0.625
vt 0.59375 0.625
vt 0.625 0.65625
vt 0.625 0.65625
vt 0.625 0.65625
vt 0.625 0.65625
vt 0.59375 0.6875
vt 0.59375 0.6875
vn 0.33726782 0.13799453 -0.93124
vn 0.45898384 0.15302438 -0.875167
vn 0.4163224 0.30545136 -0.8563732
vn 0.32683834 0.0044636773 -0.94506973
vn 0.25791192 0.10100394 -0.96087444
vn 0.2235747 0.023615137 -0.9744006
vn 0.24720204 -0.13976029 -0.9588317
vn 0.49840274 0.038384143 -0.86609554
vn 0.5907873 0.1257728 -0.79696393
vn 0.34814286 -0.20105566 -0.91562724
vn 0.26547775 -0.27051514 -0.9253881
vn 0.34256178 -0.28222325 -0.89610356
vn 0.45785075 -0.24548133 -0.85446566
vn 0.48554665 -0.15864664 -0.8596952
vn 0.5751054 -0.19865969 -0.79359186
vn -0.33349165 -0.13799359 0.9325991
vn -0.41706347 -0.30909634 0.8547031
vn -0.459798 -0.15523553 0.8743499
vn -0.3235342 -0.0040008654 0.946208
vn -0.25541458 -0.10017092 0.96162844
vn -0.22314194 -0.025641229 0.9744486
vn -0.24737045 0.14044528 0.9586882
vn -0.4987713 -0.037999876 0.86590016
vn -0.5935571 -0.12642293 0.7948001
vn -0.3480305 0.20249757 0.9153521
vn -0.26593643 0.2722318 0.9247528
vn -0.3408181 0.28255624 0.8966633
vn -0.45764968 0.2455194 0.85456246
vn -0.48590657 0.1620081 0.85886455
vn -0.5752479 0.20073047 0.7929673
vn -0.44724336 0.8940846 0.024212688
vn -0.5956309 0.80301195 -0.019894203
vn -0.5956309 0.80301195 -0.019894205
vn -0.44491228 0.89522886 0.02486708
vn -0.26523516 0.9614652 0.07235198
vn -0.2652352 0.9614652 0.072351985
vn 0.8661983 -0.33524263 0.3705575
vn 0.8661983 -0.3352427 0.37055752
vn 0.8661983 -0.3352427 0.37055752
vn 0.8661983 -0.33524266 0.37055752
vn 0.121338174 0.95098746 0.28442892
vn 0.121338174 0.95098746 0.28442892
vn 0.121338174 0.95098746 0.28442892
vn 0.121338174 0.95098746 0.28442892
vn 0.5540889 -0.7528692 0.35520914
vn 0.5540889 -0.7528692 0.3552091
vn 0.55408883 -0.7528691 0.35520914
vn 0.5540889 -0.7528691 0.3552091
vn -0.969583 -0.09876242 -0.22395286
vn -0.97161925 0.018349962 -0.23583747
vn -0.97161925 0.018349962 -0.23583747
vn -0.9695728 -0.098897934 -0.22393723
vn -0.9609337 -0.17408274 -0.21517815
vn -0.96093357 -0.17408293 -0.21517831
vn -0.96068054 -0.1747725 -0.21574871
vn -0.96068054 -0.17477252 -0.21574871
vn 0.01985805 -0.9509452 0.3087214
vn -0.112516925 -0.9601853 0.25570342
vn -0.112516925 -0.9601853 0.2557034
vn 0.019860206 -0.95094484 0.30872223
vn 0.11455938 -0.9323706 0.34287208
vn 0.11455937 -0.9323706 0.34287205
vn 0.6810441 0.5823136 0.44394806
vn 0.68104416 0.58231366 0.443948
vn 0.68104404 0.58231366 0.443948
vn 0.6810441 0.58231366 0.443948
vn 0.53660935 -0.6604358 0.52523804
vn 0.53660935 -0.66043574 0.52523804
vn 0.5366093 -0.66043574 0.52523804
vn 0.5366093 -0.66043574 0.52523804
g shard91_0
f 3/3/3 2/2/2 1/1/1
f 2/2/2 4/4/4 1/1/1
f 4/4/4 5/5/5 1/1/1
f 4/4/4 6/6/6 5/5/5
f 4/4/4 7/7/7 6/6/6
f 2/2/2 8/8/8 4/4/4
f 9/9/9 8/8/8 2/2/2
f 4/4/4 10/10/10 7/7/7
f 10/10/10 11/11/11 7/7/7
f 10/10/10 12/12/12 11/11/11
f 13/13/13 12/12/12 10/10/10
f 14/14/14 4/4/4 8/8/8
f 14/14/14 10/10/10 4/4/4
f 13/13/13 10/10/10 14/14/14
f 15/15/15 14/14/14 8/8/8
f 15/15/15 13/13/13 14/14/14
f 18/18/18 17/17/17 16/16/16
f 19/19/19 18/18/18 16/16/16
f 20/20/20 19/19/19 16/16/16
f 21/21/21 19/19/19 20/20/20
f 22/22/22 19/19/19 21/21/21
f 23/23/23 18/18/18 19/19/19
f 23/23/23 24/24/24 18/18/18
f 25/25/25 19/19/19 22/22/22
f 26/26/26 25/25/25 22/22/22
f 27/27/27 25/25/25 26/26/26
f 27/27/27 28/28/28 25/25/25
f 19/19/19 29/29/29 23/23/23
f 25/25/25 29/29/29 19/19/19
f 25/25/25 28/28/28 29/29/29
f 29/29/29 30/30/30 23/23/23
f 28/28/28 30/30/30 29/29/29
f 33/33/33 32/32/32 31/31/31
f 32/32/32 34/34/34 31/31/31
f 31/31/31 34/34/34 35/35/35
f 34/34/34 36/36/36 35/35/35
f 39/39/39 38/38/38 37/37/37
f 40/40/40 39/39/39 37/37/37
f 43/43/43 42/42/42 41/41/41
f 44/44/44 43/43/43 41/41/41
f 47/47/47 46/46/46 45/45/45
f 48/48/48 47/47/47 45/45/45
f 51/51/51 50/50/50 49/49/49
f 50/50/50 52/52/52 49/49/49
f 49/49/49 52/52/52 53/53/53
f 52/52/52 54/54/54 53/53/53
f 53/53/53 54/54/54 55/55/55
f 54/54/54 56/56/56 55/55/55
f 59/59/59 58/58/58 57/57/57
f 58/58/58 60/60/60 57/57/57
f 57/57/57 60/60/60 61/61/61
f 60/60/60 62/62/62 61/61/61
f 65/65/65 64/64/64 63/63/63
f 66/66/66 65/65/65 63/63/63
f 69/69/69 68/68/68 67/67/67
f 70/70/70 69/69/69 67/67/67
