g shard53
v -0.2537535 0.2397499 0.2578577
v -0.2122341 0.201425 0.3193688
v -0.1990881 0.263756 0.2810092
v -0.2055884 0.3137607 0.219226
v -0.3820214 0.362565 0.5748639
v -0.4567564 0.4315498 0.4641439
v -0.3583586 0.4747608 0.5058165
v -0.3700591 0.5647693 0.3946069
v -0.3820214 0.362565 0.5748639
v -0.2122341 0.201425 0.3193688
v -0.3583586 0.4747608 0.5058165
v -0.1990881 0.263756 0.2810092
v -0.2537535 0.2397499 0.2578577
v -0.4567564 0.4315498 0.4641439
v -0.3700591 0.5647693 0.3946069
v -0.2055884 0.3137607 0.219226
vt 0.2500592 0
vt 0 0
vt 0.2500592 0
vt 0.472683 0
vt 0 1
vt 0.2500592 1
vt 0.2500592 1
vt 0.472683 1
vt 0.472683 1
vt 0.472683 0
vt 0.7114397 1
vt 0.7114397 0
vt 0.7114397 0
vt 0.7114397 1
vt 1 1
vt 1 0
vn 0.6833297 0.7300822 -0.006359206
vn 0.6833296 0.7300822 -0.006359206
vn -0.8605136 -0.1227817 -0.4944097
vn -0.8803023 -0.409786 -0.2390466
vn 0.6833296 0.7300823 -0.006359207
vn 0.6833296 0.7300823 -0.006359207
vn -0.8605136 -0.1227817 -0.4944097
vn -0.8803023 -0.409786 -0.2390466
vn -0.8605136 -0.1227817 -0.4944097
vn -0.8605136 -0.1227816 -0.4944097
vn -0.8803023 -0.409786 -0.2390466
vn -0.8803023 -0.4097859 -0.2390466
vn 0.6814801 -0.06291204 0.7291276
vn 0.6814801 -0.06291204 0.7291276
vn 0.6814801 -0.06291203 0.7291276
vn 0.6814801 -0.06291204 0.7291275
g shard53_0
f 6/6/6 5/5/5 2/2/2
f 1/1/1 6/6/6 2/2/2
f 9/9/9 7/7/7 3/3/3
f 10/10/10 9/9/9 3/3/3
f 11/11/11 8/8/8 4/4/4
f 12/12/12 11/11/11 4/4/4
f 15/15/15 14/14/14 13/13/13
f 16/16/16 15/15/15 13/13/13
