g shard22
v 0.1432592 0.3735599 -0.158324
v 0.2275497 0.3384739 -0.147108
v 0.2974481 0.2747565 -0.1563736
v 0.1601259 0.2775904 -0.2929754
v 0.09095399 0.3512782 -0.2361995
v 0.09153768 0.3014888 -0.2985929
v 0.2136914 0.1992931 -0.319703
v 0.2659312 0.2237176 -0.2604135
v 0.3079078 0.2263205 -0.2058841
v 0.3248628 0.2381678 -0.1600078
v 0.4095894 0.609253 -0.2647944
v 0.2578666 0.6724079 -0.2849833
v 0.5354066 0.4945617 -0.2814726
v 0.1637172 0.6323008 -0.4251591
v 0.1647678 0.5426799 -0.5374672
v 0.2882265 0.4996626 -0.5273557
v 0.3846445 0.3587276 -0.5754654
v 0.4786761 0.4026916 -0.4687442
v 0.5542341 0.4073769 -0.3705914
v 0.5847531 0.428702 -0.288014
v 0.4095894 0.609253 -0.2647944
v 0.2275497 0.3384739 -0.147108
v 0.1432592 0.3735599 -0.158324
v 0.2578666 0.6724079 -0.2849833
v 0.09095399 0.3512782 -0.2361995
v 0.1637172 0.6323008 -0.4251591
v 0.09153768 0.3014888 -0.2985929
v 0.1647678 0.5426799 -0.5374672
v 0.1601259 0.2775904 -0.2929754
v 0.2882265 0.4996626 -0.5273557
v 0.2136914 0.1992931 -0.319703
v 0.3846445 0.3587276 -0.5754654
v 0.2659312 0.2237176 -0.2604135
v 0.4786761 0.4026916 -0.4687442
v 0.3079078 0.2263205 -0.2058841
v 0.5542341 0.4073769 -0.3705914
v 0.3248628 0.2381678 -0.1600078
v 0.5847531 0.428702 -0.288014
v 0.5354066 0.4945617 -0.2814726
v 0.2974481 0.2747565 -0.1563736
vt 0.1175651 0
vt 0 0
vt 0.1175651 0
vt 0.7747469 0
vt 1 0
vt 0.8767694 0
vt 0.6816414 0
vt 0.5556763 0
vt 0.4499695 0
vt 0.3619574 0
vt 0 1
vt 0.1175651 1
vt 0.1175651 1
vt 1 1
vt 0.8767694 1
vt 0.7747469 1
vt 0.6816414 1
vt 0.5556763 1
vt 0.4499695 1
vt 0.3619574 1
vt 0.2390244 1
vt 0.2390244 0
vt 0.8767694 0
vt 0.8767694 1
vt 0.7747469 0
vt 0.7747469 1
vt 0.6816414 0
vt 0.6816414 1
vt 0.5556763 0
vt 0.5556763 1
vt 0.4499695 0
vt 0.4499695 1
vt 0.3619574 0
vt 0.3619574 1
vt 0.2976411 0
vt 0.2976411 1
vt 0.2390244 0
vt 0.2390244 1
vt 0.2976411 1
vt 0.2976411 0
vn -0.03457657 -0.3787209 -0.9248648
vn -0.03457657 -0.3787208 -0.9248648
vn -0.3052635 -0.1994714 -0.931142
vn 0.1726854 0.6661506 0.7255502
vn 0.7890297 -0.470182 -0.3954253
vn 0.9773964 -0.160697 0.1373785
vn 0.7149543 0.2687945 0.6454379
vn -0.5496569 0.8226374 0.1454133
vn -0.432054 0.8533147 0.291862
vn -0.588448 0.8084882 0.008692825
vn -0.03457656 -0.3787209 -0.9248648
vn -0.03457656 -0.3787208 -0.9248648
vn -0.3052634 -0.1994714 -0.931142
vn 0.7890297 -0.4701819 -0.3954253
vn 0.9773964 -0.160697 0.1373785
vn 0.1726854 0.6661506 0.7255502
vn 0.7149541 0.2687945 0.6454378
vn -0.5496569 0.8226374 0.1454133
vn -0.432054 0.8533147 0.291862
vn -0.5884482 0.8084882 0.008692825
vn -0.3052635 -0.1994715 -0.931142
vn -0.3052635 -0.1994715 -0.931142
vn 0.7890297 -0.470182 -0.3954253
vn 0.7890297 -0.470182 -0.3954253
vn 0.9773964 -0.160697 0.1373785
vn 0.9773964 -0.160697 0.1373785
vn 0.1726854 0.6661506 0.7255503
vn 0.1726854 0.6661506 0.7255502
vn 0.7149541 0.2687945 0.6454378
vn 0.7149541 0.2687945 0.6454378
vn -0.5496568 0.8226375 0.1454133
vn -0.5496569 0.8226374 0.1454133
vn -0.432054 0.8533147 0.291862
vn -0.432054 0.8533147 0.291862
vn -0.5884482 0.8084882 0.008692824
vn -0.5884481 0.8084882 0.008692825
vn -0.3383044 -0.1613971 -0.9270929
vn -0.3383044 -0.1613971 -0.9270928
vn -0.3383044 -0.1613971 -0.9270929
vn -0.3383044 -0.1613971 -0.9270929
g shard22_0
f 12/12/12 11/11/11 2/2/2
f 1/1/1 12/12/12 2/2/2
f 21/21/21 13/13/13 3/3/3
f 22/22/22 21/21/21 3/3/3
f 14/14/14 24/24/24 23/23/23
f 5/5/5 14/14/14 23/23/23
f 15/15/15 26/26/26 25/25/25
f 6/6/6 15/15/15 25/25/25
f 16/16/16 28/28/28 27/27/27
f 4/4/4 16/16/16 27/27/27
f 17/17/17 30/30/30 29/29/29
f 7/7/7 17/17/17 29/29/29
f 18/18/18 32/32/32 31/31/31
f 8/8/8 18/18/18 31/31/31
f 19/19/19 34/34/34 33/33/33
f 9/9/9 19/19/19 33/33/33
f 20/20/20 36/36/36 35/35/35
f 10/10/10 20/20/20 35/35/35
f 39/39/39 38/38/38 37/37/37
f 40/40/40 39/39/39 37/37/37
