g shard7
v 0.3610528 -0.1719437 0.1617827
v 0.3780936 -0.1809435 0.09199832
v 0.376436 -0.09696932 0.1812945
v 0.388824 -0.1791489 0.01695525
v 0.3990375 0.003303606 0.1544223
v 0.3639032 -0.0126372 0.2308343
v 0.3593792 -0.2426953 -0.006321822
v 0.3538043 -0.2418658 -0.06098518
v 0.3931439 -0.1515627 -0.07398388
v 0.4064635 -0.09293434 -0.08971302
v 0.372371 -0.1495 -0.1562984
v 0.4139014 -0.01495299 -0.09222825
v 0.4115996 0.07061865 -0.08190051
v 0.390065 0.08003483 -0.1612895
v 0.3919631 0.1431256 -0.08975649
v 0.3943914 0.1687067 -0.01186691
v 0.3483167 0.2445883 -0.0818159
v 0.405815 0.1044149 0.07409234
v 0.3935868 0.1513334 0.06793072
v 0.3598664 0.1755018 0.1605216
v 0.6805686 -0.3256983 0.165597
v 0.649895 -0.3094987 0.2912088
v 0.6775849 -0.1745448 0.3263302
v 0.6998832 -0.3224681 0.03051945
v 0.6550257 -0.02274696 0.4155017
v 0.7182676 0.00594649 0.2779602
v 0.6368477 -0.4353584 -0.1097733
v 0.6468825 -0.4368515 -0.01137928
v 0.707659 -0.2728129 -0.133171
v 0.6702678 -0.2691 -0.2813372
v 0.7316343 -0.1672818 -0.1614834
v 0.7450224 -0.02691538 -0.1660109
v 0.7408794 0.1271136 -0.1474209
v 0.7021169 0.1440627 -0.2903211
v 0.7055336 0.2576261 -0.1615617
v 0.62697 0.440259 -0.1472686
v 0.7099046 0.3036721 -0.02136043
v 0.7304671 0.1879469 0.1333662
v 0.7084562 0.2724001 0.1222753
v 0.6477596 0.3159032 0.2889389
v 0.3610528 -0.1719437 0.1617827
v 0.649895 -0.3094987 0.2912088
v 0.6805686 -0.3256983 0.165597
v 0.3780936 -0.1809435 0.09199832
v 0.376436 -0.09696932 0.1812945
v 0.6775849 -0.1745448 0.3263302
v 0.3639032 -0.0126372 0.2308343
v 0.6550257 -0.02274696 0.4155017
v 0.3593792 -0.2426953 -0.006321822
v 0.6468825 -0.4368515 -0.01137928
v 0.6998832 -0.3224681 0.03051945
v 0.388824 -0.1791489 0.01695525
v 0.6368477 -0.4353584 -0.1097733
v 0.3538043 -0.2418658 -0.06098518
v 0.707659 -0.2728129 -0.133171
v 0.3931439 -0.1515627 -0.07398388
v 0.6702678 -0.2691 -0.2813372
v 0.372371 -0.1495 -0.1562984
v 0.7316343 -0.1672818 -0.1614834
v 0.4064635 -0.09293434 -0.08971302
v 0.7450224 -0.02691538 -0.1660109
v 0.4139014 -0.01495299 -0.09222825
v 0.7408794 0.1271136 -0.1474209
v 0.4115996 0.07061865 -0.08190051
v 0.7021169 0.1440627 -0.2903211
v 0.390065 0.08003483 -0.1612895
v 0.7055336 0.2576261 -0.1615617
v 0.3919631 0.1431256 -0.08975649
v 0.62697 0.440259 -0.1472686
v 0.3483167 0.2445883 -0.0818159
v 0.3990375 0.003303606 0.1544223
v 0.7182676 0.00594649 0.2779602
v 0.7099046 0.3036721 -0.02136043
v 0.3943914 0.1687067 -0.01186691
v 0.405815 0.1044149 0.07409234
v 0.7304671 0.1879469 0.1333662
v 0.3598664 0.1755018 0.1605216
v 0.6477596 0.3159032 0.2889389
v 0.7084562 0.2724001 0.1222753
v 0.3935868 0.1513334 0.06793072
vt 0.03981759 0
vt 0 0
vt 0.08325847 0
vt 0.9582953 0
vt 0.1845706 0
vt 0.1374912 0
vt 0.9177038 0
vt 0.8874799 0
vt 0.8328358 0
vt 0.7345491 0
vt 0.7861302 0
vt 0.691443 0
vt 0.6440206 0
vt 0.5984839 0
vt 0.5460148 0
vt 0.422949 0
vt 0.48511 0
vt 0.255693 0
vt 0.3780305 0
vt 0.3222278 0
vt 0 1
vt 0.03981759 1
vt 0.08325847 1
vt 0.9582953 1
vt 0.1374912 1
vt 0.1845706 1
vt 0.8874799 1
vt 0.9177038 1
vt 0.8328358 1
vt 0.7861302 1
vt 0.7345491 1
vt 0.691443 1
vt 0.6440206 1
vt 0.5984839 1
vt 0.5460148 1
vt 0.48511 1
vt 0.422949 1
vt 0.255693 1
vt 0.3780305 1
vt 0.3222278 1
vt 0.03981759 0
vt 0.03981759 1
vt 1 1
vt 1 0
vt 0.08325847 0
vt 0.08325847 1
vt 0.1374912 0
vt 0.1374912 1
vt 0.9177038 0
vt 0.9177038 1
vt 0.9582953 1
vt 0.9582953 0
vt 0.8874799 1
vt 0.8874799 0
vt 0.8328358 1
vt 0.8328358 0
vt 0.7861302 1
vt 0.7861302 0
vt 0.7345491 1
vt 0.7345491 0
vt 0.691443 1
vt 0.691443 0
vt 0.6440206 1
vt 0.6440206 0
vt 0.5984839 1
vt 0.5984839 0
vt 0.5460148 1
vt 0.5460148 0
vt 0.48511 1
vt 0.48511 0
vt 0.1845706 0
vt 0.1845706 1
vt 0.422949 1
vt 0.422949 0
vt 0.255693 0
vt 0.255693 1
vt 0.3222278 0
vt 0.3222278 1
vt 0.3780305 1
vt 0.3780305 0
vn 0.4336948 0.9010011 -0.0102932
vn 0.4336948 0.9010011 -0.0102932
vn 0.4579099 0.1347327 -0.8787296
vn 0.4141805 0.9065921 0.08090349
vn 0.07424258 -0.9824996 -0.1708289
vn 0.4771172 0.496776 -0.724964
vn 0.5585657 0.8282712 -0.0443971
vn 0.5585657 0.8282712 -0.0443971
vn 0.2039656 0.05186589 0.9776031
vn -0.02789588 -0.7547303 0.6554418
vn 0.3483737 0.9351352 -0.06448209
vn 0.2178484 0.01069943 0.975924
vn 0.2122995 -0.11146 0.9708273
vn -0.1373853 0.9785776 0.1533336
vn 0.3918427 -0.6951355 0.602699
vn 0.225741 -0.5826409 -0.7807501
vn 0.2172533 0.01707612 0.9759659
vn 0.2911813 -0.6069865 -0.7394463
vn 0.3809814 -0.9042103 -0.1930206
vn -0.07331454 0.7507744 -0.6564775
vn 0.4336948 0.901001 -0.0102932
vn 0.4336948 0.9010011 -0.0102932
vn 0.4579099 0.1347327 -0.8787296
vn 0.4141805 0.9065921 0.08090348
vn 0.4771171 0.496776 -0.724964
vn 0.07424258 -0.9824997 -0.1708288
vn 0.5585657 0.8282712 -0.0443971
vn 0.5585657 0.8282712 -0.0443971
vn 0.2039656 0.05186589 0.9776031
vn 0.3483737 0.9351352 -0.06448209
vn -0.02789588 -0.7547303 0.6554418
vn 0.2178485 0.01069943 0.975924
vn 0.2122995 -0.11146 0.9708273
vn -0.1373853 0.9785776 0.1533336
vn 0.3918426 -0.6951355 0.602699
vn 0.2172533 0.01707612 0.9759659
vn 0.225741 -0.5826408 -0.7807502
vn 0.2911813 -0.6069865 -0.7394463
vn 0.3809814 -0.9042103 -0.1930206
vn -0.07331453 0.7507744 -0.6564775
vn 0.4579098 0.1347327 -0.8787296
vn 0.4579098 0.1347327 -0.8787296
vn 0.4141805 0.9065921 0.08090348
vn 0.4141805 0.9065921 0.08090349
vn 0.4771172 0.496776 -0.724964
vn 0.4771171 0.496776 -0.724964
vn 0.07424259 -0.9824997 -0.1708288
vn 0.07424258 -0.9824996 -0.1708288
vn 0.1659686 0.2704658 -0.9483157
vn 0.1659687 0.2704658 -0.9483157
vn 0.1659687 0.2704658 -0.9483157
vn 0.1659686 0.2704658 -0.9483157
vn 0.2039656 0.0518659 0.9776031
vn 0.2039656 0.05186589 0.9776031
vn 0.3483737 0.9351352 -0.06448208
vn 0.3483737 0.9351352 -0.06448209
vn -0.02789588 -0.7547303 0.6554418
vn -0.02789588 -0.7547303 0.6554419
vn 0.2178484 0.01069943 0.975924
vn 0.2178484 0.01069943 0.975924
vn 0.2122995 -0.11146 0.9708273
vn 0.2122995 -0.11146 0.9708273
vn -0.1373853 0.9785776 0.1533337
vn -0.1373853 0.9785776 0.1533336
vn 0.3918427 -0.6951355 0.602699
vn 0.3918427 -0.6951355 0.602699
vn 0.2172533 0.01707612 0.9759659
vn 0.2172533 0.01707612 0.9759659
vn 0.225741 -0.5826408 -0.7807502
vn 0.225741 -0.5826408 -0.7807501
vn 0.2911813 -0.6069865 -0.7394463
vn 0.2911813 -0.6069865 -0.7394463
vn 0.3809815 -0.9042103 -0.1930206
vn 0.3809814 -0.9042103 -0.1930206
vn -0.07331454 0.7507744 -0.6564775
vn -0.07331454 0.7507744 -0.6564775
vn 0.2862998 -0.8964446 0.3382595
vn 0.2862998 -0.8964446 0.3382594
vn 0.2862998 -0.8964446 0.3382595
vn 0.2862998 -0.8964446 0.3382595
g shard7_0
f 22/22/22 21/21/21 2/2/2
f 1/1/1 22/22/22 2/2/2
f 23/23/23 42/42/42 41/41/41
f 3/3/3 23/23/23 41/41/41
f 43/43/43 24/24/24 4/4/4
f 44/44/44 43/43/43 4/4/4
f 25/25/25 46/46/46 45/45/45
f 6/6/6 25/25/25 45/45/45
f 26/26/26 48/48/48 47/47/47
f 5/5/5 26/26/26 47/47/47
f 28/28/28 27/27/27 8/8/8
f 7/7/7 28/28/28 8/8/8
f 51/51/51 50/50/50 49/49/49
f 52/52/52 51/51/51 49/49/49
f 53/53/53 29/29/29 9/9/9
f 54/54/54 53/53/53 9/9/9
f 55/55/55 30/30/30 11/11/11
f 56/56/56 55/55/55 11/11/11
f 57/57/57 31/31/31 10/10/10
f 58/58/58 57/57/57 10/10/10
f 59/59/59 32/32/32 12/12/12
f 60/60/60 59/59/59 12/12/12
f 61/61/61 33/33/33 13/13/13
f 62/62/62 61/61/61 13/13/13
f 63/63/63 34/34/34 14/14/14
f 64/64/64 63/63/63 14/14/14
f 65/65/65 35/35/35 15/15/15
f 66/66/66 65/65/65 15/15/15
f 67/67/67 36/36/36 17/17/17
f 68/68/68 67/67/67 17/17/17
f 69/69/69 37/37/37 16/16/16
f 70/70/70 69/69/69 16/16/16
f 38/38/38 72/72/72 71/71/71
f 18/18/18 38/38/38 71/71/71
f 73/73/73 39/39/39 19/19/19
f 74/74/74 73/73/73 19/19/19
f 40/40/40 76/76/76 75/75/75
f 20/20/20 40/40/40 75/75/75
f 79/79/79 78/78/78 77/77/77
f 80/80/80 79/79/79 77/77/77
