g shard36
v 0.1621681 0.1009528 -0.3834754
v 0.2381712 0.1583425 -0.3256342
v 0.2229097 0.08480853 -0.3596742
v 0.3055389 0.05780556 -0.3022619
v 0.2492826 -0.00699029 -0.3545807
v 0.06762015 0.07796063 -0.412073
v 0.06797223 0.01434424 -0.4172653
v 0.08424694 -0.08351358 -0.4102857
v 0.09364583 -0.1696567 -0.383254
v 0.1495429 -0.1714591 -0.3657249
v 0.2874672 -0.08068861 -0.3139567
v 0.2240694 -0.1521895 -0.33858
v 0.4287082 0.2850165 -0.5861415
v 0.2919025 0.1817151 -0.6902558
v 0.4012374 0.1526553 -0.6474136
v 0.54997 0.10405 -0.5440713
v 0.4487086 -0.01258252 -0.6382452
v 0.1217163 0.1403291 -0.7417314
v 0.12235 0.02581963 -0.7510775
v 0.1516445 -0.1503244 -0.7385142
v 0.1685625 -0.305382 -0.6898571
v 0.2691772 -0.3086264 -0.6583048
v 0.517441 -0.1452395 -0.5651221
v 0.403325 -0.2739411 -0.6094441
v 0.4287082 0.2850165 -0.5861415
v 0.2381712 0.1583425 -0.3256342
v 0.4012374 0.1526553 -0.6474136
v 0.2229097 0.08480853 -0.3596742
v 0.54997 0.10405 -0.5440713
v 0.3055389 0.05780556 -0.3022619
v 0.1621681 0.1009528 -0.3834754
v 0.2919025 0.1817151 -0.6902558
v 0.06762015 0.07796063 -0.412073
v 0.1217163 0.1403291 -0.7417314
v 0.06797223 0.01434424 -0.4172653
v 0.12235 0.02581963 -0.7510775
v 0.08424694 -0.08351358 -0.4102857
v 0.1516445 -0.1503244 -0.7385142
v 0.09364583 -0.1696567 -0.383254
v 0.1685625 -0.305382 -0.6898571
v 0.4487086 -0.01258252 -0.6382452
v 0.2492826 -0.00699029 -0.3545807
v 0.517441 -0.1452395 -0.5651221
v 0.2874672 -0.08068861 -0.3139567
v 0.1495429 -0.1714591 -0.3657249
v 0.2691772 -0.3086264 -0.6583048
v 0.403325 -0.2739411 -0.6094441
v 0.2240694 -0.1521895 -0.33858
vt 0.1026631 0
vt 0 0
vt 0.1026631 0
vt 0.1786342 0
vt 0.2746191 0
vt 1 0
vt 0.9065567 0
vt 0.8477473 0
vt 0.7561207 0
vt 0.6724863 0
vt 0.3672171 0
vt 0.4523611 0
vt 0 1
vt 0.1026631 1
vt 0.1026631 1
vt 0.1786342 1
vt 0.2746191 1
vt 1 1
vt 0.9065567 1
vt 0.8477473 1
vt 0.7561207 1
vt 0.6724863 1
vt 0.3672171 1
vt 0.4523611 1
vt 0.1786342 1
vt 0.1786342 0
vt 0.2746191 1
vt 0.2746191 0
vt 0.3672171 1
vt 0.3672171 0
vt 0.9065567 0
vt 0.9065567 1
vt 0.8477473 0
vt 0.8477473 1
vt 0.7561207 0
vt 0.7561207 1
vt 0.6724863 0
vt 0.6724863 1
vt 0.6184864 0
vt 0.6184864 1
vt 0.4523611 1
vt 0.4523611 0
vt 0.5432819 1
vt 0.5432819 0
vt 0.5432819 0
vt 0.5432819 1
vt 0.6184864 1
vt 0.6184864 0
vn 0.5854615 -0.809972 0.03435488
vn 0.5854615 -0.809972 0.03435488
vn -0.8265938 0.3684795 -0.4254005
vn -0.1082737 -0.9505074 -0.2912257
vn -0.5223884 0.7622136 -0.3822837
vn 0.2726152 -0.9525372 -0.1354762
vn 0.9870031 -0.007638889 0.1605195
vn 0.9711092 0.1732127 0.1641476
vn 0.9730135 0.1587212 0.1674883
vn 0.1457564 0.9173381 -0.3704672
vn -0.6633736 -0.5943246 -0.454658
vn -0.481523 0.6349881 -0.6040908
vn 0.5854615 -0.809972 0.03435488
vn 0.5854615 -0.809972 0.03435488
vn -0.8265938 0.3684795 -0.4254005
vn -0.1082737 -0.9505075 -0.2912257
vn -0.5223884 0.7622136 -0.3822837
vn 0.2726152 -0.9525372 -0.1354762
vn 0.9870031 -0.00763889 0.1605195
vn 0.9711092 0.1732127 0.1641476
vn 0.9730135 0.1587212 0.1674883
vn 0.1457564 0.917338 -0.3704673
vn -0.6633736 -0.5943246 -0.454658
vn -0.481523 0.6349881 -0.6040908
vn -0.8265938 0.3684794 -0.4254005
vn -0.8265938 0.3684795 -0.4254005
vn -0.1082737 -0.9505074 -0.2912257
vn -0.1082737 -0.9505075 -0.2912257
vn -0.5223884 0.7622136 -0.3822836
vn -0.5223884 0.7622136 -0.3822836
vn 0.2726152 -0.9525372 -0.1354763
vn 0.2726152 -0.9525372 -0.1354763
vn 0.9870031 -0.00763889 0.1605195
vn 0.9870031 -0.00763889 0.1605195
vn 0.9711092 0.1732127 0.1641476
vn 0.9711092 0.1732127 0.1641476
vn 0.9730135 0.1587212 0.1674883
vn 0.9730135 0.1587212 0.1674883
vn 0.1457564 0.9173381 -0.3704672
vn 0.1457564 0.9173381 -0.3704672
vn -0.6633735 -0.5943245 -0.454658
vn -0.6633736 -0.5943245 -0.454658
vn -0.481523 0.6349882 -0.6040908
vn -0.4815231 0.6349882 -0.6040908
vn -0.06819138 0.8923209 -0.4462211
vn -0.06819138 0.8923209 -0.4462211
vn -0.06819139 0.8923209 -0.4462211
vn -0.06819139 0.892321 -0.446221
g shard36_0
f 14/14/14 13/13/13 2/2/2
f 1/1/1 14/14/14 2/2/2
f 25/25/25 15/15/15 3/3/3
f 26/26/26 25/25/25 3/3/3
f 27/27/27 16/16/16 4/4/4
f 28/28/28 27/27/27 4/4/4
f 29/29/29 17/17/17 5/5/5
f 30/30/30 29/29/29 5/5/5
f 18/18/18 32/32/32 31/31/31
f 6/6/6 18/18/18 31/31/31
f 19/19/19 34/34/34 33/33/33
f 7/7/7 19/19/19 33/33/33
f 20/20/20 36/36/36 35/35/35
f 8/8/8 20/20/20 35/35/35
f 21/21/21 38/38/38 37/37/37
f 9/9/9 21/21/21 37/37/37
f 22/22/22 40/40/40 39/39/39
f 10/10/10 22/22/22 39/39/39
f 41/41/41 23/23/23 11/11/11
f 42/42/42 41/41/41 11/11/11
f 43/43/43 24/24/24 12/12/12
f 44/44/44 43/43/43 12/12/12
f 47/47/47 46/46/46 45/45/45
f 48/48/48 47/47/47 45/45/45
