g shard41
v -0.30548722 0.00737758 0.31072336
v -0.549877 0.013279644 0.5593021
v -0.6477261 -0.111082315 0.41370735
v -0.35984784 -0.0617124 0.22983742
v -0.35984784 -0.0617124 0.22983742
v -0.6477261 -0.111082315 0.41370735
v -0.71258134 0.022204157 0.29380387
v -0.39587852 0.012335643 0.16322438
v -0.39587852 0.012335643 0.16322438
v -0.71258134 0.022204157 0.29380387
v -0.68922263 0.1488275 0.3179779
v -0.38290146 0.08268195 0.1766544
v -0.38290146 0.08268195 0.1766544
v -0.68922263 0.1488275 0.3179779
v -0.63250387 0.17119315 0.42020777
v -0.35139102 0.0951073 0.23344876
v -0.28773838 0.05679111 0.31741396
v -0.5179291 0.102224 0.5713451
v -0.549877 0.013279644 0.5593021
v -0.30548722 0.00737758 0.31072336
v -0.35139102 0.0951073 0.23344876
v -0.63250387 0.17119315 0.42020777
v -0.5179291 0.102224 0.5713451
v -0.28773838 0.05679111 0.31741396
vt 0 0
vt 0 1
vt 0.22568208 1
vt 0.22568208 0
vt 0.22568208 0
vt 0.22568208 1
vt 0.42577833 1
vt 0.42577833 0
vt 0.42577833 0
vt 0.42577833 1
vt 0.5632773 1
vt 0.5632773 0
vt 0.5632773 0
vt 0.5632773 1
vt 0.68820363 1
vt 0.68820363 0
vt 0.9000085 0
vt 0.9000085 1
vt 1 1
vt 1 0
vt 0.68820363 0
vt 0.68820363 1
vt 0.9000085 1
vt 0.9000085 0
vn -0.40706953 0.8113788 -0.4194745
vn -0.40706953 0.8113788 -0.4194745
vn -0.4070695 0.8113788 -0.4194745
vn -0.40706953 0.8113788 -0.4194745
vn 0.28577393 0.7140224 0.63914406
vn 0.28577393 0.7140224 0.63914406
vn 0.28577396 0.71402246 0.63914406
vn 0.285774 0.71402246 0.63914406
vn 0.36376065 -0.2389856 0.9003133
vn 0.36376068 -0.23898563 0.9003133
vn 0.36376068 -0.2389856 0.9003133
vn 0.36376065 -0.2389856 0.9003133
vn -0.08806366 -0.96178013 0.25927544
vn -0.08806365 -0.96178013 0.25927544
vn -0.08806365 -0.96178013 0.25927544
vn -0.08806367 -0.96178013 0.25927547
vn -0.6690933 0.33046204 -0.66566443
vn -0.66909325 0.33046207 -0.6656644
vn -0.6690933 0.3304621 -0.6656644
vn -0.6690933 0.33046207 -0.6656644
vn -0.35228157 -0.92310584 -0.15418582
vn -0.35228157 -0.92310584 -0.15418582
vn -0.35228157 -0.92310584 -0.15418582
vn -0.35228163 -0.92310584 -0.15418582
g shard41_0
f 3/3/3 2/2/2 1/1/1
f 4/4/4 3/3/3 1/1/1
f 7/7/7 6/6/6 5/5/5
f 8/8/8 7/7/7 5/5/5
f 11/11/11 10/10/10 9/9/9
f 12/12/12 11/11/11 9/9/9
f 15/15/15 14/14/14 13/13/13
f 16/16/16 15/15/15 13/13/13
f 19/19/19 18/18/18 17/17/17
f 20/20/20 19/19/19 17/17/17
f 23/23/23 22/22/22 21/21/21
f 24/24/24 23/23/23 21/21/21
