g shard100
v -0.1423944 0.05610517 -0.09691177
v -0.155004 0.04077628 -0.09447378
v -0.09199642 -0.008770257 -0.08952438
v -0.08170199 0.008081019 -0.09134553
v 0.009190246 -0.0540466 -0.08894449
v 0.01548275 -0.03521439 -0.09035747
v 0.08917503 -0.07229865 -0.08688886
v 0.09218039 -0.05263367 -0.08834124
v -0.1392704 0.07229862 0.01210044
v -0.1517333 0.05721882 0.01603208
v -0.155004 0.04077628 -0.09447378
v -0.1423944 0.05610517 -0.09691177
v 0.009721965 -0.007574797 0.06287237
v -0.07405135 0.01564544 0.07693059
v -0.06368905 0.03174037 0.07153859
v 0.003418133 -0.02562416 0.06822433
v 0.1017285 -0.01938543 0.09177814
v 0.09845109 -0.03841937 0.09691177
v -0.06368905 0.03174037 0.07153859
v -0.07405135 0.01564544 0.07693059
v -0.1517333 0.05721882 0.01603208
v -0.1392704 0.07229862 0.01210044
v 0.09218039 -0.05263367 -0.08834124
v 0.08917503 -0.07229865 -0.08688886
v 0.152972 -0.0706732 0.001928255
v 0.1550041 -0.05114323 -0.001356244
v 0.1550041 -0.05114323 -0.001356244
v 0.152972 -0.0706732 0.001928255
v 0.09845109 -0.03841937 0.09691177
v 0.1017285 -0.01938543 0.09177814
v 0.08914002 -0.06699151 -0.01533106
v 0.09845109 -0.03841937 0.09691177
v 0.152972 -0.0706732 0.001928255
v 0.08917503 -0.07229865 -0.08688886
v 0.009190246 -0.0540466 -0.08894449
v 0.003418133 -0.02562416 0.06822433
v 0.004269674 -0.04595593 -0.01100825
v -0.09199642 -0.008770257 -0.08952438
v -0.0803642 -0.004628956 0.004394948
v -0.07405135 0.01564544 0.07693059
v -0.155004 0.04077628 -0.09447378
v -0.1517333 0.05721882 0.01603208
v 0.09235206 -0.04749706 -0.01843739
v 0.1550041 -0.05114323 -0.001356244
v 0.1017285 -0.01938543 0.09177814
v 0.09218039 -0.05263367 -0.08834124
v 0.01548275 -0.03521439 -0.09035747
v 0.009721965 -0.007574797 0.06287237
v 0.0106508 -0.02725682 -0.01411064
v -0.08170199 0.008081019 -0.09134553
v -0.06997484 0.01205876 0.0007096455
v -0.06368905 0.03174037 0.07153859
v -0.1423944 0.05610517 -0.09691177
v -0.1392704 0.07229862 0.01210044
vt 0.375 0.875
vt 0.375 0.875
vt 0.40625 0.875
vt 0.40625 0.875
vt 0.4375 0.875
vt 0.4375 0.875
vt 0.46875 0.875
vt 0.46875 0.875
vt 0.375 0.90625
vt 0.375 0.90625
vt 0.375 0.875
vt 0.375 0.875
vt 0.4375 0.9375
vt 0.40625 0.9375
vt 0.40625 0.9375
vt 0.4375 0.9375
vt 0.46875 0.9375
vt 0.46875 0.9375
vt 0.40625 0.9375
vt 0.40625 0.9375
vt 0.375 0.90625
vt 0.375 0.90625
vt 0.46875 0.875
vt 0.46875 0.875
vt 0.5 0.90625
vt 0.5 0.90625
vt 0.5 0.90625
vt 0.5 0.90625
vt 0.46875 0.9375
vt 0.46875 0.9375
vt 0.46875 0.90625
vt 0.46875 0.9375
vt 0.5 0.90625
vt 0.46875 0.875
vt 0.4375 0.875
vt 0.4375 0.9375
vt 0.4375 0.90625
vt 0.40625 0.875
vt 0.40625 0.90625
vt 0.40625 0.9375
vt 0.375 0.875
vt 0.375 0.90625
vt 0.46875 0.90625
vt 0.5 0.90625
vt 0.46875 0.9375
vt 0.46875 0.875
vt 0.4375 0.875
vt 0.4375 0.9375
vt 0.4375 0.90625
vt 0.40625 0.875
vt 0.40625 0.90625
vt 0.40625 0.9375
vt 0.375 0.875
vt 0.375 0.90625
vn -0.01232146 -0.1225748 -0.9923828
vn -0.01232146 -0.1225748 -0.9923828
vn -0.02072935 -0.09677061 -0.9950908
vn -0.02074062 -0.09673593 -0.9950939
vn -0.01175072 -0.07717986 -0.9969479
vn -0.01176448 -0.07718045 -0.9969477
vn 0.008546076 -0.07627486 -0.9970502
vn 0.008546075 -0.07627486 -0.9970502
vn -0.7768302 0.625762 -0.07040305
vn -0.7768303 0.625762 -0.07040304
vn -0.7768303 0.625762 -0.07040304
vn -0.7768302 0.625762 -0.07040303
vn -0.02874533 0.2704834 0.9622954
vn 0.2149191 0.1961449 0.9567325
vn 0.2149191 0.1961449 0.9567325
vn -0.03043992 0.2709407 0.9621146
vn -0.239878 0.3210358 0.9161848
vn -0.239878 0.3210358 0.9161848
vn -0.3553196 0.4969357 0.7917089
vn -0.3553196 0.4969356 0.7917089
vn -0.3553196 0.4969356 0.7917089
vn -0.3553196 0.4969357 0.7917089
vn 0.8007571 -0.1722475 -0.5736888
vn 0.8007571 -0.1722474 -0.5736888
vn 0.8007571 -0.1722474 -0.5736887
vn 0.8007571 -0.1722475 -0.5736887
vn 0.8661065 -0.01015376 0.4997565
vn 0.8661065 -0.01015376 0.4997565
vn 0.8661065 -0.01015376 0.4997565
vn 0.8661065 -0.01015376 0.4997565
vn -0.1711157 -0.9695371 0.1752632
vn -0.1858112 -0.9484233 0.2568412
vn -0.1128647 -0.9711072 0.210267
vn -0.189468 -0.9792044 0.07253076
vn -0.3296749 -0.9411744 0.07419627
vn -0.2965856 -0.9215402 0.2506005
vn -0.3277532 -0.9324841 0.151826
vn -0.5212117 -0.8478782 0.09716459
vn -0.5221409 -0.8347763 0.1746919
vn -0.5088068 -0.8166044 0.2725306
vn -0.6296704 -0.7670476 0.1230977
vn -0.6299231 -0.7583988 0.167416
vn 0.1701821 0.9696543 -0.1755238
vn 0.1140868 0.9707529 -0.2112412
vn 0.1838229 0.9486075 -0.2575909
vn 0.1883381 0.9794296 -0.0724321
vn 0.328842 0.9414339 -0.07459981
vn 0.2942995 0.9222615 -0.2506424
vn 0.326912 0.9328604 -0.1513279
vn 0.5236309 0.8462373 -0.09845335
vn 0.524061 0.8336539 -0.1743024
vn 0.5108455 0.8155246 -0.2719495
vn 0.6317502 0.7652932 -0.123361
vn 0.6311767 0.7575504 -0.1665335
g shard100_0
f 3/3/3 2/2/2 1/1/1
f 4/4/4 3/3/3 1/1/1
f 5/5/5 3/3/3 4/4/4
f 6/6/6 5/5/5 4/4/4
f 7/7/7 5/5/5 6/6/6
f 8/8/8 7/7/7 6/6/6
f 11/11/11 10/10/10 9/9/9
f 12/12/12 11/11/11 9/9/9
f 15/15/15 14/14/14 13/13/13
f 14/14/14 16/16/16 13/13/13
f 13/13/13 16/16/16 17/17/17
f 16/16/16 18/18/18 17/17/17
f 21/21/21 20/20/20 19/19/19
f 22/22/22 21/21/21 19/19/19
f 25/25/25 24/24/24 23/23/23
f 26/26/26 25/25/25 23/23/23
f 29/29/29 28/28/28 27/27/27
f 30/30/30 29/29/29 27/27/27
f 33/33/33 32/32/32 31/31/31
f 33/33/33 31/31/31 34/34/34
f 31/31/31 35/35/35 34/34/34
f 31/31/31 32/32/32 36/36/36
f 31/31/31 37/37/37 35/35/35
f 31/31/31 36/36/36 37/37/37
f 37/37/37 38/38/38 35/35/35
f 36/36/36 39/39/39 37/37/37
f 37/37/37 39/39/39 38/38/38
f 36/36/36 40/40/40 39/39/39
f 39/39/39 41/41/41 38/38/38
f 40/40/40 42/42/42 39/39/39
f 39/39/39 42/42/42 41/41/41
f 45/45/45 44/44/44 43/43/43
f 43/43/43 44/44/44 46/46/46
f 47/47/47 43/43/43 46/46/46
f 45/45/45 43/43/43 48/48/48
f 49/49/49 43/43/43 47/47/47
f 48/48/48 43/43/43 49/49/49
f 50/50/50 49/49/49 47/47/47
f 51/51/51 48/48/48 49/49/49
f 51/51/51 49/49/49 50/50/50
f 52/52/52 48/48/48 51/51/51
f 53/53/53 51/51/51 50/50/50
f 54/54/54 52/52/52 51/51/51
f 54/54/54 51/51/51 53/53/53
