g shard83
v 0.06211838 -0.16314507 -0.061307028
v 0.01752925 -0.11516031 -0.046331048
v -0.0026556253 -0.12817144 0.008003339
v -0.02890253 -0.05110333 -0.01562956
v -0.04949373 -0.07684704 0.08404915
v 0.011793941 -0.0705548 -0.07822515
v -0.07237223 0.025287956 0.067581676
v -0.063162 -0.05484409 0.15624171
v -0.013281554 0.039217886 -0.09167154
v 0.055394262 -0.05731266 -0.14129128
v 0.042170256 0.03231474 -0.15839429
v 0.029074878 0.10309699 -0.1542132
v -0.02295065 0.08253208 -0.08165084
v -0.051875472 0.034404524 -0.009269148
v -0.076672465 0.10609166 0.061685614
v -0.06130752 0.115690485 0.006221622
v -0.05172965 0.16314507 -0.010209322
v 0.076672465 -0.15208769 -0.05318837
v 0.013414741 -0.11880834 0.014886603
v 0.033017457 -0.105633385 -0.038198546
v -0.011274725 -0.04506717 -0.008361489
v -0.031036377 -0.07067848 0.08794937
v 0.027703494 -0.064089574 -0.06826566
v -0.053094685 0.028315313 0.07132255
v -0.04383394 -0.050175793 0.1583943
v 0.0033667982 0.04230193 -0.0810263
v 0.07068774 -0.05255478 -0.12931676
v 0.057461083 0.03565032 -0.14600654
v 0.04481414 0.10458809 -0.14198892
v -0.0057991445 0.082577355 -0.0716171
v -0.03331074 0.037146755 -0.0023531169
v -0.05743286 0.105713755 0.06683841
v -0.042363435 0.11517714 0.012613654
v -0.03299558 0.1616728 -0.003612116
v 0.076672465 -0.15208769 -0.05318837
v 0.06211838 -0.16314507 -0.061307028
v -0.0026556253 -0.12817144 0.008003339
v 0.013414741 -0.11880834 0.014886603
v -0.04949373 -0.07684704 0.08404915
v -0.031036377 -0.07067848 0.08794937
v -0.063162 -0.05484409 0.15624171
v -0.04383394 -0.050175793 0.1583943
v 0.033017457 -0.105633385 -0.038198546
v 0.01752925 -0.11516031 -0.046331048
v 0.06211838 -0.16314507 -0.061307028
v 0.076672465 -0.15208769 -0.05318837
v 0.027703494 -0.064089574 -0.06826566
v 0.011793941 -0.0705548 -0.07822515
v 0.01752925 -0.11516031 -0.046331048
v 0.033017457 -0.105633385 -0.038198546
v -0.04383394 -0.050175793 0.1583943
v -0.063162 -0.05484409 0.15624171
v -0.07237223 0.025287956 0.067581676
v -0.053094685 0.028315313 0.07132255
v -0.053094685 0.028315313 0.07132255
v -0.07237223 0.025287956 0.067581676
v -0.076672465 0.10609166 0.061685614
v -0.05743286 0.105713755 0.06683841
v 0.07068774 -0.05255478 -0.12931676
v 0.055394262 -0.05731266 -0.14129128
v 0.011793941 -0.0705548 -0.07822515
v 0.027703494 -0.064089574 -0.06826566
v 0.057461083 0.03565032 -0.14600654
v 0.055394262 -0.05731266 -0.14129128
v 0.07068774 -0.05255478 -0.12931676
v 0.042170256 0.03231474 -0.15839429
v 0.04481414 0.10458809 -0.14198892
v 0.029074878 0.10309699 -0.1542132
v -0.0057991445 0.082577355 -0.0716171
v -0.02295065 0.08253208 -0.08165084
v 0.029074878 0.10309699 -0.1542132
v 0.04481414 0.10458809 -0.14198892
v -0.03299558 0.1616728 -0.003612116
v -0.05172965 0.16314507 -0.010209322
v -0.02295065 0.08253208 -0.08165084
v -0.0057991445 0.082577355 -0.0716171
v -0.05743286 0.105713755 0.06683841
v -0.076672465 0.10609166 0.061685614
v -0.05172965 0.16314507 -0.010209322
v -0.03299558 0.1616728 -0.003612116
vt 0.15625 0
vt 0.15625 0.03125
vt 0.1875 0.03125
vt 0.1875 0.0625
vt 0.21875 0.0625
vt 0.15625 0.0625
vt 0.21875 0.09375
vt 0.25 0.0625
vt 0.15625 0.09375
vt 0.125 0.0625
vt 0.125 0.09375
vt 0.125 0.125
vt 0.15625 0.125
vt 0.1875 0.09375
vt 0.21875 0.125
vt 0.1875 0.125
vt 0.1875 0.15625
vt 0.15625 0
vt 0.1875 0.03125
vt 0.15625 0.03125
vt 0.1875 0.0625
vt 0.21875 0.0625
vt 0.15625 0.0625
vt 0.21875 0.09375
vt 0.25 0.0625
vt 0.15625 0.09375
vt 0.125 0.0625
vt 0.125 0.09375
vt 0.125 0.125
vt 0.15625 0.125
vt 0.1875 0.09375
vt 0.21875 0.125
vt 0.1875 0.125
vt 0.1875 0.15625
vt 0.15625 0
vt 0.15625 0
vt 0.1875 0.03125
vt 0.1875 0.03125
vt 0.21875 0.0625
vt 0.21875 0.0625
vt 0.25 0.0625
vt 0.25 0.0625
vt 0.15625 0.03125
vt 0.15625 0.03125
vt 0.15625 0
vt 0.15625 0
vt 0.15625 0.0625
vt 0.15625 0.0625
vt 0.15625 0.03125
vt 0.15625 0.03125
vt 0.25 0.0625
vt 0.25 0.0625
vt 0.21875 0.09375
vt 0.21875 0.09375
vt 0.21875 0.09375
vt 0.21875 0.09375
vt 0.21875 0.125
vt 0.21875 0.125
vt 0.125 0.0625
vt 0.125 0.0625
vt 0.15625 0.0625
vt 0.15625 0.0625
vt 0.125 0.09375
vt 0.125 0.0625
vt 0.125 0.0625
vt 0.125 0.09375
vt 0.125 0.125
vt 0.125 0.125
vt 0.15625 0.125
vt 0.15625 0.125
vt 0.125 0.125
vt 0.125 0.125
vt 0.1875 0.15625
vt 0.1875 0.15625
vt 0.15625 0.125
vt 0.15625 0.125
vt 0.21875 0.125
vt 0.21875 0.125
vt 0.1875 0.15625
vt 0.1875 0.15625
vn -0.7296874 -0.55218136 -0.4033015
vn -0.7869319 -0.46458805 -0.40607405
vn -0.84241235 -0.41813555 -0.3398592
vn -0.888787 -0.2897105 -0.35514155
vn -0.93793005 -0.2756732 -0.21045561
vn -0.81282914 -0.27956933 -0.51102823
vn -0.9522333 -0.19125284 -0.23806322
vn -0.9657565 -0.23429915 -0.11143728
vn -0.8267482 -0.17682034 -0.53406173
vn -0.7673347 -0.24031498 -0.5945134
vn -0.7655019 -0.1809234 -0.6174735
vn -0.77924603 -0.090473026 -0.6201533
vn -0.8837252 -0.04519752 -0.46581838
vn -0.92617697 -0.14379469 -0.3485962
vn -0.9623541 -0.04621244 -0.2678411
vn -0.94062966 0.0073370766 -0.33935514
vn -0.92276615 0.054138023 -0.38153848
vn 0.72770536 0.5528685 0.40593275
vn 0.84224266 0.41736063 0.3412292
vn 0.78543735 0.46629286 0.40701258
vn 0.888972 0.28873032 0.35547677
vn 0.9387976 0.27446234 0.20815727
vn 0.8117938 0.27782747 0.5136172
vn 0.95219475 0.19112664 0.23831882
vn 0.9664021 0.2334159 0.10762928
vn 0.8251164 0.17788222 0.53622836
vn 0.7658191 0.23973991 0.5966959
vn 0.76484543 0.18141393 0.6181427
vn 0.77780026 0.091086775 0.62187606
vn 0.8838332 0.045680966 0.46556646
vn 0.92622787 0.14366151 0.34851575
vn 0.96209186 0.044915263 0.26900145
vn 0.9410958 -0.007829137 0.33804953
vn 0.9235478 -0.053560663 0.37972444
vn 0.2247017 -0.77291626 0.59338826
vn 0.2247017 -0.7729162 0.59338826
vn 0.19106975 -0.7741972 0.60341614
vn 0.19098796 -0.77419907 0.60343957
vn 0.18461715 -0.8515626 0.49067053
vn 0.1843743 -0.8509183 0.49187815
vn 0.21461405 -0.92440873 0.31529248
vn 0.21461408 -0.92440873 0.31529254
vn 0.17363279 0.4415561 -0.8802726
vn 0.17363276 0.4415561 -0.8802726
vn 0.17363277 0.4415561 -0.8802726
vn 0.17363277 0.4415561 -0.8802726
vn 0.6034354 -0.41314718 -0.68203753
vn 0.6034354 -0.41314727 -0.68203753
vn 0.6034354 -0.41314718 -0.68203753
vn 0.60343534 -0.41314718 -0.68203753
vn -0.24237129 0.70737636 0.663984
vn -0.24237128 0.70737636 0.663984
vn -0.24237129 0.70737636 0.663984
vn -0.24237128 0.70737636 0.663984
vn -0.22803713 0.051344197 0.97229767
vn -0.22803713 0.051344197 0.97229767
vn -0.22803712 0.051344197 0.97229767
vn -0.22803715 0.0513442 0.97229767
vn 0.31789777 -0.9475641 0.032608744
vn 0.3178978 -0.9475641 0.032608744
vn 0.31789783 -0.9475641 0.032608744
vn 0.31789783 -0.9475641 0.032608747
vn 0.62020946 0.03859233 -0.7834864
vn 0.6307576 -0.05328977 -0.774148
vn 0.6307576 -0.05328977 -0.774148
vn 0.62019306 0.038705252 -0.7834937
vn 0.59872895 0.15640588 -0.7855321
vn 0.598729 0.1564059 -0.7855321
vn -0.16232584 0.9714867 0.17281212
vn -0.16232584 0.9714867 0.1728121
vn -0.16232586 0.9714867 0.17281212
vn -0.16232586 0.9714867 0.1728121
vn 0.32898942 0.68388927 -0.65119994
vn 0.32898942 0.6838893 -0.65119994
vn 0.32898942 0.68388927 -0.65119994
vn 0.32898945 0.68388927 -0.65119994
vn -0.14203875 0.7986473 0.5847969
vn -0.14203875 0.7986473 0.58479697
vn -0.14203875 0.7986473 0.5847969
vn -0.14203875 0.7986473 0.5847969
g shard83_0
f 3/3/3 2/2/2 1/1/1
f 4/4/4 2/2/2 3/3/3
f 5/5/5 4/4/4 3/3/3
f 4/4/4 6/6/6 2/2/2
f 7/7/7 4/4/4 5/5/5
f 8/8/8 7/7/7 5/5/5
f 4/4/4 9/9/9 6/6/6
f 9/9/9 10/10/10 6/6/6
f 9/9/9 11/11/11 10/10/10
f 9/9/9 12/12/12 11/11/11
f 9/9/9 13/13/13 12/12/12
f 7/7/7 14/14/14 4/4/4
f 4/4/4 14/14/14 9/9/9
f 14/14/14 13/13/13 9/9/9
f 15/15/15 14/14/14 7/7/7
f 14/14/14 16/16/16 13/13/13
f 15/15/15 16/16/16 14/14/14
f 17/17/17 13/13/13 16/16/16
f 15/15/15 17/17/17 16/16/16
f 20/20/20 19/19/19 18/18/18
f 20/20/20 21/21/21 19/19/19
f 21/21/21 22/22/22 19/19/19
f 23/23/23 21/21/21 20/20/20
f 21/21/21 24/24/24 22/22/22
f 24/24/24 25/25/25 22/22/22
f 26/26/26 21/21/21 23/23/23
f 27/27/27 26/26/26 23/23/23
f 28/28/28 26/26/26 27/27/27
f 29/29/29 26/26/26 28/28/28
f 30/30/30 26/26/26 29/29/29
f 31/31/31 24/24/24 21/21/21
f 31/31/31 21/21/21 26/26/26
f 30/30/30 31/31/31 26/26/26
f 31/31/31 32/32/32 24/24/24
f 33/33/33 31/31/31 30/30/30
f 33/33/33 32/32/32 31/31/31
f 30/30/30 34/34/34 33/33/33
f 34/34/34 32/32/32 33/33/33
f 37/37/37 36/36/36 35/35/35
f 38/38/38 37/37/37 35/35/35
f 39/39/39 37/37/37 38/38/38
f 40/40/40 39/39/39 38/38/38
f 41/41/41 39/39/39 40/40/40
f 42/42/42 41/41/41 40/40/40
f 45/45/45 44/44/44 43/43/43
f 46/46/46 45/45/45 43/43/43
f 49/49/49 48/48/48 47/47/47
f 50/50/50 49/49/49 47/47/47
f 53/53/53 52/52/52 51/51/51
f 54/54/54 53/53/53 51/51/51
f 57/57/57 56/56/56 55/55/55
f 58/58/58 57/57/57 55/55/55
f 61/61/61 60/60/60 59/59/59
f 62/62/62 61/61/61 59/59/59
f 65/65/65 64/64/64 63/63/63
f 64/64/64 66/66/66 63/63/63
f 63/63/63 66/66/66 67/67/67
f 66/66/66 68/68/68 67/67/67
f 71/71/71 70/70/70 69/69/69
f 72/72/72 71/71/71 69/69/69
f 75/75/75 74/74/74 73/73/73
f 76/76/76 75/75/75 73/73/73
f 79/79/79 78/78/78 77/77/77
f 80/80/80 79/79/79 77/77/77
