g shard87
v -0.0182775 -0.04268808 -0.137949
v -0.02583709 -0.05004487 -0.03937973
v -0.008696407 -0.1231508 -0.04926009
v -0.02282372 0.03773717 -0.1423063
v -0.03078267 0.0469561 -0.03055668
v -0.01804692 -0.06397983 0.02643211
v 0.0003543496 -0.1312564 0.03460754
v -0.02582458 0.01679586 0.03096577
v 0.01158139 -0.05143899 0.1423063
v -0.004048258 0.04218278 0.1225646
v -0.01462987 0.1312564 0.04230387
v -0.02479482 0.1174046 -0.03467385
v -0.01693025 0.1284514 -0.1171705
v 0.00139457 -0.03993013 -0.1362335
v 0.01065531 -0.1184212 -0.04916176
v -0.006042004 -0.04719077 -0.03928614
v -0.002943605 0.03746831 -0.1407177
v -0.01079345 0.04636316 -0.03083815
v 0.001181751 -0.06034738 0.02303062
v 0.01961148 -0.1261042 0.03298998
v -0.006100178 0.01727196 0.0276915
v 0.03078264 -0.0493046 0.1371337
v 0.01530042 0.04250922 0.1178821
v 0.005008727 0.1296052 0.03903609
v -0.00497216 0.1157232 -0.03497191
v 0.002932549 0.1267962 -0.1155232
v 0.00139457 -0.03993013 -0.1362335
v -0.0182775 -0.04268808 -0.137949
v -0.008696407 -0.1231508 -0.04926009
v 0.01065531 -0.1184212 -0.04916176
v -0.002943605 0.03746831 -0.1407177
v -0.02282372 0.03773717 -0.1423063
v -0.0182775 -0.04268808 -0.137949
v 0.00139457 -0.03993013 -0.1362335
v 0.002932549 0.1267962 -0.1155232
v -0.01693025 0.1284514 -0.1171705
v 0.01961148 -0.1261042 0.03298998
v 0.0003543496 -0.1312564 0.03460754
v -0.01804692 -0.06397983 0.02643211
v 0.001181751 -0.06034738 0.02303062
v 0.01065531 -0.1184212 -0.04916176
v -0.008696407 -0.1231508 -0.04926009
v 0.0003543496 -0.1312564 0.03460754
v 0.01961148 -0.1261042 0.03298998
v 0.001181751 -0.06034738 0.02303062
v -0.01804692 -0.06397983 0.02643211
v 0.01158139 -0.05143899 0.1423063
v 0.03078264 -0.0493046 0.1371337
v 0.03078264 -0.0493046 0.1371337
v 0.01158139 -0.05143899 0.1423063
v -0.004048258 0.04218278 0.1225646
v 0.01530042 0.04250922 0.1178821
v -0.01462987 0.1312564 0.04230387
v 0.005008727 0.1296052 0.03903609
v 0.005008727 0.1296052 0.03903609
v -0.01462987 0.1312564 0.04230387
v -0.02479482 0.1174046 -0.03467385
v -0.00497216 0.1157232 -0.03497191
v -0.01693025 0.1284514 -0.1171705
v 0.002932549 0.1267962 -0.1155232
vt 0.21875 0.09375
vt 0.25 0.09375
vt 0.25 0.0625
vt 0.21875 0.125
vt 0.25 0.125
vt 0.28125 0.09375
vt 0.28125 0.0625
vt 0.28125 0.125
vt 0.3125 0.09375
vt 0.3125 0.125
vt 0.28125 0.15625
vt 0.25 0.15625
vt 0.21875 0.15625
vt 0.21875 0.09375
vt 0.25 0.0625
vt 0.25 0.09375
vt 0.21875 0.125
vt 0.25 0.125
vt 0.28125 0.09375
vt 0.28125 0.0625
vt 0.28125 0.125
vt 0.3125 0.09375
vt 0.3125 0.125
vt 0.28125 0.15625
vt 0.25 0.15625
vt 0.21875 0.15625
vt 0.21875 0.09375
vt 0.21875 0.09375
vt 0.25 0.0625
vt 0.25 0.0625
vt 0.21875 0.125
vt 0.21875 0.125
vt 0.21875 0.09375
vt 0.21875 0.09375
vt 0.21875 0.15625
vt 0.21875 0.15625
vt 0.28125 0.0625
vt 0.28125 0.0625
vt 0.28125 0.09375
vt 0.28125 0.09375
vt 0.25 0.0625
vt 0.25 0.0625
vt 0.28125 0.0625
vt 0.28125 0.0625
vt 0.28125 0.09375
vt 0.28125 0.09375
vt 0.3125 0.09375
vt 0.3125 0.09375
vt 0.3125 0.09375
vt 0.3125 0.09375
vt 0.3125 0.125
vt 0.3125 0.125
vt 0.28125 0.15625
vt 0.28125 0.15625
vt 0.28125 0.15625
vt 0.28125 0.15625
vt 0.25 0.15625
vt 0.25 0.15625
vt 0.21875 0.15625
vt 0.21875 0.15625
vn -0.9911039 -0.1034504 -0.08373203
vn -0.9910887 -0.1316527 -0.02026724
vn -0.9725479 -0.2326891 -0.002506803
vn -0.997098 0.01029455 -0.07542888
vn -0.9997069 0.02419851 0.0007977608
vn -0.975454 -0.1519278 0.159397
vn -0.9639348 -0.2539942 0.07947721
vn -0.9835132 -0.02050722 0.1796696
vn -0.9604149 -0.1064046 0.2574513
vn -0.9708542 -0.02662853 0.2381871
vn -0.9827364 0.08078641 0.1664414
vn -0.9962943 0.08531775 0.01089252
vn -0.9932595 0.08445463 -0.07939136
vn 0.9911069 0.1033922 0.08376847
vn 0.9723378 0.233551 0.003630872
vn 0.9910883 0.1313266 0.02230048
vn 0.9970632 -0.0117464 0.07567739
vn 0.9996849 -0.02509893 0.0002249325
vn 0.975234 0.1522433 -0.1604383
vn 0.9628577 0.2576115 -0.08087835
vn 0.9832485 0.01982652 -0.1811884
vn 0.9600704 0.1068579 -0.2585464
vn 0.9708834 0.02724808 -0.2379977
vn 0.9825255 -0.08109948 -0.1675308
vn 0.9963986 -0.08421506 -0.0098778
vn 0.9931443 -0.08506163 0.08018093
vn 0.169681 -0.7218052 -0.6709737
vn 0.169681 -0.7218052 -0.6709737
vn 0.169681 -0.7218052 -0.6709737
vn 0.169681 -0.7218052 -0.6709737
vn 0.08993634 0.1206453 -0.9886132
vn 0.08994009 0.1209239 -0.9885789
vn 0.08632077 -0.05087932 -0.9949673
vn 0.08632077 -0.05087932 -0.9949673
vn 0.09092712 0.2625925 -0.9606131
vn 0.09092712 0.2625925 -0.9606131
vn 0.09180178 0.1594073 0.9829353
vn 0.09180179 0.1594073 0.9829353
vn 0.09180179 0.1594073 0.9829353
vn 0.09180178 0.1594073 0.9829353
vn 0.2418728 -0.9631273 -0.1178281
vn 0.2418728 -0.9631273 -0.1178281
vn 0.2418728 -0.9631273 -0.1178281
vn 0.2418728 -0.9631273 -0.1178281
vn 0.1611129 -0.985139 0.05953011
vn 0.1611129 -0.985139 0.05953011
vn 0.1611129 -0.985139 0.0595301
vn 0.1611129 -0.985139 0.05953011
vn 0.2264334 0.2366699 0.9448361
vn 0.2264334 0.2366699 0.9448361
vn 0.2011525 0.4930821 0.8464087
vn 0.2013426 0.4917085 0.8471623
vn 0.1698938 0.6715201 0.7212467
vn 0.1698938 0.6715201 0.7212467
vn 0.06569541 0.9798262 -0.1887451
vn 0.0656954 0.9798262 -0.1887451
vn 0.07314504 0.9971532 -0.01831161
vn 0.07313946 0.9971508 -0.01846108
vn 0.0781635 0.986856 0.1414411
vn 0.07816351 0.986856 0.1414412
g shard87_0
f 3/3/3 2/2/2 1/1/1
f 2/2/2 4/4/4 1/1/1
f 2/2/2 5/5/5 4/4/4
f 6/6/6 2/2/2 3/3/3
f 6/6/6 3/3/3 7/7/7
f 8/8/8 2/2/2 6/6/6
f 8/8/8 5/5/5 2/2/2
f 9/9/9 8/8/8 6/6/6
f 9/9/9 10/10/10 8/8/8
f 11/11/11 5/5/5 8/8/8
f 10/10/10 11/11/11 8/8/8
f 11/11/11 12/12/12 5/5/5
f 5/5/5 13/13/13 4/4/4
f 5/5/5 12/12/12 13/13/13
f 16/16/16 15/15/15 14/14/14
f 17/17/17 16/16/16 14/14/14
f 18/18/18 16/16/16 17/17/17
f 16/16/16 19/19/19 15/15/15
f 15/15/15 19/19/19 20/20/20
f 16/16/16 21/21/21 19/19/19
f 18/18/18 21/21/21 16/16/16
f 21/21/21 22/22/22 19/19/19
f 23/23/23 22/22/22 21/21/21
f 18/18/18 24/24/24 21/21/21
f 24/24/24 23/23/23 21/21/21
f 25/25/25 24/24/24 18/18/18
f 26/26/26 18/18/18 17/17/17
f 25/25/25 18/18/18 26/26/26
f 29/29/29 28/28/28 27/27/27
f 30/30/30 29/29/29 27/27/27
f 33/33/33 32/32/32 31/31/31
f 34/34/34 33/33/33 31/31/31
f 31/31/31 32/32/32 35/35/35
f 32/32/32 36/36/36 35/35/35
f 39/39/39 38/38/38 37/37/37
f 40/40/40 39/39/39 37/37/37
f 43/43/43 42/42/42 41/41/41
f 44/44/44 43/43/43 41/41/41
f 47/47/47 46/46/46 45/45/45
f 48/48/48 47/47/47 45/45/45
f 51/51/51 50/50/50 49/49/49
f 52/52/52 51/51/51 49/49/49
f 53/53/53 51/51/51 52/52/52
f 54/54/54 53/53/53 52/52/52
f 57/57/57 56/56/56 55/55/55
f 58/58/58 57/57/57 55/55/55
f 59/59/59 57/57/57 58/58/58
f 60/60/60 59/59/59 58/58/58
