g shard61
v 0.08229945 -0.1104579 0.07088417
v 0.00368505 -0.1305256 0.09657928
v 0.06505536 -0.06297661 0.06240442
v 0.009399563 -0.02846427 0.06556401
v -0.06766578 -0.03522012 0.07810053
v 0.1575729 -0.05900119 0.01864403
v 0.06527471 0.02246478 0.02354571
v 0.143329 0.02997534 -0.02436101
v 0.07095905 0.08205187 -0.02411699
v 0.1297755 0.07129204 -0.04979131
v -0.06743596 0.02942197 0.04675865
v 0.002935126 0.02796192 0.03971308
v -0.01017557 0.09879714 -0.01130855
v -0.09313197 0.1180875 -0.02353594
v -0.1575729 -0.04462317 0.0756838
v 0.06137531 0.1358865 -0.08513321
v 0.07593565 -0.1160155 0.05284333
v 0.05881945 -0.06941505 0.04452538
v -4.229695E-05 -0.1358865 0.07770753
v 0.005513825 -0.03571361 0.0473336
v -0.06825984 -0.04238635 0.05962512
v 0.1492436 -0.06648295 0.002164721
v 0.0586082 0.01269646 0.007416934
v 0.1348017 0.0197999 -0.03925037
v 0.06468848 0.06885546 -0.03749958
v 0.1217622 0.0583525 -0.0625985
v -0.06698699 0.01878196 0.03001311
v -0.0006291792 0.01771852 0.02290925
v -0.01288348 0.0865595 -0.02674326
v -0.09370518 0.1055233 -0.03908625
v -0.1561018 -0.053339 0.05774304
v 0.05367678 0.1214048 -0.0965793
v -4.229695E-05 -0.1358865 0.07770753
v 0.00368505 -0.1305256 0.09657928
v 0.08229945 -0.1104579 0.07088417
v 0.07593565 -0.1160155 0.05284333
v 0.1575729 -0.05900119 0.01864403
v 0.1492436 -0.06648295 0.002164721
v -0.06825984 -0.04238635 0.05962512
v -0.06766578 -0.03522012 0.07810053
v 0.00368505 -0.1305256 0.09657928
v -4.229695E-05 -0.1358865 0.07770753
v 0.1492436 -0.06648295 0.002164721
v 0.1575729 -0.05900119 0.01864403
v 0.143329 0.02997534 -0.02436101
v 0.1348017 0.0197999 -0.03925037
v 0.1297755 0.07129204 -0.04979131
v 0.1217622 0.0583525 -0.0625985
v 0.06137531 0.1358865 -0.08513321
v 0.05367678 0.1214048 -0.0965793
v 0.06468848 0.06885546 -0.03749958
v 0.07095905 0.08205187 -0.02411699
v -0.01017557 0.09879714 -0.01130855
v -0.01288348 0.0865595 -0.02674326
v -0.09313197 0.1180875 -0.02353594
v -0.09370518 0.1055233 -0.03908625
v -0.09370518 0.1055233 -0.03908625
v -0.09313197 0.1180875 -0.02353594
v -0.06743596 0.02942197 0.04675865
v -0.06698699 0.01878196 0.03001311
v -0.06698699 0.01878196 0.03001311
v -0.06743596 0.02942197 0.04675865
v -0.1575729 -0.04462317 0.0756838
v -0.1561018 -0.053339 0.05774304
v -0.1561018 -0.053339 0.05774304
v -0.1575729 -0.04462317 0.0756838
v -0.06766578 -0.03522012 0.07810053
v -0.06825984 -0.04238635 0.05962512
v 0.05367678 0.1214048 -0.0965793
v 0.06137531 0.1358865 -0.08513321
v 0.07095905 0.08205187 -0.02411699
v 0.06468848 0.06885546 -0.03749958
vt 0.5625 0.15625
vt 0.53125 0.15625
vt 0.5625 0.1875
vt 0.53125 0.1875
vt 0.5 0.1875
vt 0.59375 0.1875
vt 0.5625 0.21875
vt 0.59375 0.21875
vt 0.5625 0.25
vt 0.59375 0.25
vt 0.5 0.21875
vt 0.53125 0.21875
vt 0.53125 0.25
vt 0.5 0.25
vt 0.46875 0.1875
vt 0.5625 0.28125
vt 0.5625 0.15625
vt 0.5625 0.1875
vt 0.53125 0.15625
vt 0.53125 0.1875
vt 0.5 0.1875
vt 0.59375 0.1875
vt 0.5625 0.21875
vt 0.59375 0.21875
vt 0.5625 0.25
vt 0.59375 0.25
vt 0.5 0.21875
vt 0.53125 0.21875
vt 0.53125 0.25
vt 0.5 0.25
vt 0.46875 0.1875
vt 0.5625 0.28125
vt 0.53125 0.15625
vt 0.53125 0.15625
vt 0.5625 0.15625
vt 0.5625 0.15625
vt 0.59375 0.1875
vt 0.59375 0.1875
vt 0.5 0.1875
vt 0.5 0.1875
vt 0.53125 0.15625
vt 0.53125 0.15625
vt 0.59375 0.1875
vt 0.59375 0.1875
vt 0.59375 0.21875
vt 0.59375 0.21875
vt 0.59375 0.25
vt 0.59375 0.25
vt 0.5625 0.28125
vt 0.5625 0.28125
vt 0.5625 0.25
vt 0.5625 0.25
vt 0.53125 0.25
vt 0.53125 0.25
vt 0.5 0.25
vt 0.5 0.25
vt 0.5 0.25
vt 0.5 0.25
vt 0.5 0.21875
vt 0.5 0.21875
vt 0.5 0.21875
vt 0.5 0.21875
vt 0.46875 0.1875
vt 0.46875 0.1875
vt 0.46875 0.1875
vt 0.46875 0.1875
vt 0.5 0.1875
vt 0.5 0.1875
vt 0.5625 0.28125
vt 0.5625 0.28125
vt 0.5625 0.25
vt 0.5625 0.25
vn 0.3197931 0.2779116 0.9058132
vn 0.1828094 0.2735123 0.9443367
vn 0.3206238 0.331216 0.8874099
vn 0.1865492 0.3491286 0.9183184
vn 0.04554897 0.3885874 0.9202853
vn 0.4075393 0.3980915 0.8218485
vn 0.3521766 0.4770656 0.8052205
vn 0.4241084 0.4909188 0.7610065
vn 0.3424764 0.6230398 0.7032293
vn 0.4016138 0.6457102 0.6494341
vn 0.04672279 0.5233577 0.8508312
vn 0.1744694 0.5286161 0.8307378
vn 0.1240871 0.6120031 0.7810599
vn 0.03086757 0.6264334 0.7788635
vn -0.06966453 0.4354171 0.8975293
vn 0.3835983 0.7215552 0.576377
vn -0.3191251 -0.2788855 -0.9057494
vn -0.3204265 -0.3306831 -0.8876799
vn -0.1841839 -0.2729298 -0.9442381
vn -0.1882758 -0.347165 -0.9187103
vn -0.04503781 -0.3868605 -0.9210377
vn -0.4078563 -0.3981747 -0.8216509
vn -0.3536997 -0.4746243 -0.8059952
vn -0.4254821 -0.4883929 -0.7618644
vn -0.3436932 -0.6235839 -0.7021524
vn -0.4035 -0.6473139 -0.6466627
vn -0.04686017 -0.524869 -0.8498921
vn -0.1756672 -0.5290478 -0.8302104
vn -0.1206261 -0.6131565 -0.7806973
vn -0.02865998 -0.6282086 -0.777517
vn 0.07355682 -0.4357923 -0.8970366
vn -0.3849272 -0.7240859 -0.5723029
vn 0.3040828 -0.9329268 0.192824
vn 0.3040828 -0.9329268 0.192824
vn 0.4672373 -0.8761671 0.1184081
vn 0.4669541 -0.8762992 0.118548
vn 0.5871302 -0.8076113 0.05515574
vn 0.5871302 -0.8076112 0.05515574
vn -0.7981731 -0.5372435 0.2725604
vn -0.7981731 -0.5372434 0.2725604
vn -0.7981731 -0.5372435 0.2725604
vn -0.798173 -0.5372435 0.2725604
vn 0.894122 -0.06694066 -0.4427921
vn 0.894122 -0.06694065 -0.4427921
vn 0.8851584 -0.05087417 -0.4625002
vn 0.8851545 -0.05086755 -0.4625083
vn 0.7217116 0.1871622 -0.6664102
vn 0.7230557 0.1856535 -0.6653745
vn 0.6298225 0.2799528 -0.7245344
vn 0.6298225 0.2799527 -0.7245344
vn 0.06074602 0.7388973 -0.6710743
vn 0.06074601 0.7388973 -0.6710743
vn 0.1664589 0.7429832 -0.6482804
vn 0.166185 0.7429839 -0.6483498
vn 0.2654902 0.7387721 -0.61946
vn 0.2654902 0.7387721 -0.61946
vn -0.9736791 -0.1833088 0.1354506
vn -0.9736791 -0.1833088 0.1354506
vn -0.9736791 -0.1833088 0.1354506
vn -0.9736791 -0.1833088 0.1354506
vn -0.6521614 0.6460515 -0.3966146
vn -0.6521614 0.6460514 -0.3966146
vn -0.6521614 0.6460515 -0.3966146
vn -0.6521614 0.6460514 -0.3966146
vn 0.09473156 -0.9116587 0.3998805
vn 0.09473155 -0.9116587 0.3998805
vn 0.09473155 -0.9116587 0.3998805
vn 0.09473155 -0.9116587 0.3998804
vn -0.9296698 0.1817566 0.320435
vn -0.9296698 0.1817566 0.3204349
vn -0.9296698 0.1817567 0.320435
vn -0.9296698 0.1817566 0.320435
g shard61_0
f 3/3/3 2/2/2 1/1/1
f 3/3/3 4/4/4 2/2/2
f 2/2/2 4/4/4 5/5/5
f 6/6/6 3/3/3 1/1/1
f 6/6/6 7/7/7 3/3/3
f 7/7/7 4/4/4 3/3/3
f 6/6/6 8/8/8 7/7/7
f 8/8/8 9/9/9 7/7/7
f 8/8/8 10/10/10 9/9/9
f 4/4/4 11/11/11 5/5/5
f 4/4/4 12/12/12 11/11/11
f 7/7/7 12/12/12 4/4/4
f 9/9/9 12/12/12 7/7/7
f 9/9/9 13/13/13 12/12/12
f 13/13/13 11/11/11 12/12/12
f 13/13/13 14/14/14 11/11/11
f 11/11/11 15/15/15 5/5/5
f 10/10/10 16/16/16 9/9/9
f 19/19/19 18/18/18 17/17/17
f 20/20/20 18/18/18 19/19/19
f 20/20/20 19/19/19 21/21/21
f 18/18/18 22/22/22 17/17/17
f 23/23/23 22/22/22 18/18/18
f 20/20/20 23/23/23 18/18/18
f 24/24/24 22/22/22 23/23/23
f 25/25/25 24/24/24 23/23/23
f 26/26/26 24/24/24 25/25/25
f 27/27/27 20/20/20 21/21/21
f 28/28/28 20/20/20 27/27/27
f 28/28/28 23/23/23 20/20/20
f 28/28/28 25/25/25 23/23/23
f 29/29/29 25/25/25 28/28/28
f 27/27/27 29/29/29 28/28/28
f 30/30/30 29/29/29 27/27/27
f 31/31/31 27/27/27 21/21/21
f 32/32/32 26/26/26 25/25/25
f 35/35/35 34/34/34 33/33/33
f 36/36/36 35/35/35 33/33/33
f 37/37/37 35/35/35 36/36/36
f 38/38/38 37/37/37 36/36/36
f 41/41/41 40/40/40 39/39/39
f 42/42/42 41/41/41 39/39/39
f 45/45/45 44/44/44 43/43/43
f 46/46/46 45/45/45 43/43/43
f 47/47/47 45/45/45 46/46/46
f 48/48/48 47/47/47 46/46/46
f 49/49/49 47/47/47 48/48/48
f 50/50/50 49/49/49 48/48/48
f 53/53/53 52/52/52 51/51/51
f 54/54/54 53/53/53 51/51/51
f 55/55/55 53/53/53 54/54/54
f 56/56/56 55/55/55 54/54/54
f 59/59/59 58/58/58 57/57/57
f 60/60/60 59/59/59 57/57/57
f 63/63/63 62/62/62 61/61/61
f 64/64/64 63/63/63 61/61/61
f 67/67/67 66/66/66 65/65/65
f 68/68/68 67/67/67 65/65/65
f 71/71/71 70/70/70 69/69/69
f 72/72/72 71/71/71 69/69/69
