g shard38
v -0.13514706 -0.3434648 -0.2248491
v -0.24326472 -0.61823666 -0.40472838
v -0.36064312 -0.57331896 -0.386674
v -0.20035729 -0.31851053 -0.21481888
v -0.20035729 -0.31851053 -0.21481888
v -0.36064312 -0.57331896 -0.386674
v -0.43462527 -0.59412885 -0.2551389
v -0.24145848 -0.3300716 -0.14174384
v -0.09094627 -0.388229 -0.15732644
v -0.1637033 -0.69881225 -0.2831876
v -0.24326472 -0.61823666 -0.40472838
v -0.13514706 -0.3434648 -0.2248491
v -0.010699039 -0.41116184 -0.104989305
v -0.019258272 -0.7400913 -0.18898076
v -0.1637033 -0.69881225 -0.2831876
v -0.09094627 -0.388229 -0.15732644
v -0.072635055 -0.41775784 -0.0017045933
v -0.1307431 -0.7519641 -0.0030682678
v -0.019258272 -0.7400913 -0.18898076
v -0.010699039 -0.41116184 -0.104989305
v -0.14933269 -0.40033856 -0.0037208372
v -0.1307431 -0.7519641 -0.0030682678
v -0.072635055 -0.41775784 -0.0017045933
v -0.26879883 -0.7206094 -0.0066975066
v -0.24651743 -0.35704315 -0.004708888
v -0.44373137 -0.64267766 -0.008475998
v -0.24145848 -0.3300716 -0.14174384
v -0.43462527 -0.59412885 -0.2551389
v -0.44211394 -0.630105 -0.12189079
v -0.24561885 -0.35005835 -0.067717105
v -0.24561885 -0.35005835 -0.067717105
v -0.44211394 -0.630105 -0.12189079
v -0.44373137 -0.64267766 -0.008475998
v -0.24651743 -0.35704315 -0.004708888
vt 0 0
vt 0 1
vt 0.08908089 1
vt 0.08908089 0
vt 0.08908089 0
vt 0.08908089 1
vt 0.19596252 1
vt 0.19596252 0
vt 0.883454 0
vt 0.883454 1
vt 1 1
vt 1 0
vt 0.7590458 0
vt 0.7590458 1
vt 0.883454 1
vt 0.883454 0
vt 0.60672855 0
vt 0.60672855 1
vt 0.7590458 1
vt 0.7590458 0
vt 0.5073703 0
vt 0.60672855 1
vt 0.60672855 0
vt 0.5073703 1
vt 0.37300485 0
vt 0.37300485 1
vt 0.19596252 0
vt 0.19596252 1
vt 0.29293838 1
vt 0.29293838 0
vt 0.29293838 0
vt 0.29293838 1
vt 0.37300485 1
vt 0.37300485 0
vn -0.07120119 -0.52656776 0.84714633
vn -0.07120119 -0.52656776 0.84714633
vn -0.0712012 -0.52656776 0.84714633
vn -0.07120118 -0.52656776 0.8471462
vn 0.7061902 -0.64345574 0.29539806
vn 0.7061902 -0.64345574 0.29539803
vn 0.7061902 -0.64345574 0.29539806
vn 0.7061902 -0.64345574 0.29539803
vn -0.84270436 -0.020601327 0.53798234
vn -0.84270436 -0.020601327 0.53798234
vn -0.84270436 -0.020601327 0.53798234
vn -0.8427043 -0.020601327 0.53798234
vn -0.5737242 -0.18859342 0.79704016
vn -0.5737242 -0.1885934 0.79704016
vn -0.5737242 -0.1885934 0.79704016
vn -0.5737242 -0.1885934 0.79704016
vn -0.8520928 0.15019818 -0.50137645
vn -0.8520928 0.15019818 -0.50137645
vn -0.8520928 0.15019818 -0.50137645
vn -0.8520928 0.1501982 -0.5013765
vn 0.0261721 -0.00047157047 -0.9996573
vn 0.0261721 -0.0004715705 -0.9996573
vn 0.0261721 -0.0004715705 -0.9996573
vn 0.026172098 -0.0004715705 -0.9996573
vn 0.01226746 0.004717462 -0.9999137
vn 0.01226746 0.004717462 -0.9999137
vn 0.8235057 -0.5576419 -0.10427802
vn 0.8235057 -0.5576419 -0.10427802
vn 0.8235057 -0.5576419 -0.10427802
vn 0.8235057 -0.5576419 -0.10427802
vn 0.82214916 -0.5669717 -0.051126886
vn 0.82214916 -0.5669717 -0.051126886
vn 0.82214904 -0.5669717 -0.051126875
vn 0.82214916 -0.5669717 -0.05112689
g shard38_0
f 3/3/3 2/2/2 1/1/1
f 4/4/4 3/3/3 1/1/1
f 7/7/7 6/6/6 5/5/5
f 8/8/8 7/7/7 5/5/5
f 11/11/11 10/10/10 9/9/9
f 12/12/12 11/11/11 9/9/9
f 15/15/15 14/14/14 13/13/13
f 16/16/16 15/15/15 13/13/13
f 19/19/19 18/18/18 17/17/17
f 20/20/20 19/19/19 17/17/17
f 23/23/23 22/22/22 21/21/21
f 22/22/22 24/24/24 21/21/21
f 21/21/21 24/24/24 25/25/25
f 24/24/24 26/26/26 25/25/25
f 29/29/29 28/28/28 27/27/27
f 30/30/30 29/29/29 27/27/27
f 33/33/33 32/32/32 31/31/31
f 34/34/34 33/33/33 31/31/31
