g shard94
v -0.023779511 0.08047779 -0.015177906
v -0.07740493 0.055984035 -0.07589927
v -0.010967076 0.017248139 -0.046720415
v -0.05233127 0.012634531 -0.08246577
v -0.06714775 -0.062880024 -0.11706686
v 0.016551226 -0.08947736 -0.05846417
v 0.016551226 -0.08947736 -0.05846417
v 0.066583395 -0.060736783 0.011530355
v -0.010967076 0.017248139 -0.046720415
v 0.042510867 0.026669309 0.024957359
v 0.08866766 0.0134473 0.1089993
v -0.023779511 0.08047779 -0.015177906
v 0.038746983 0.09444985 0.08974512
v 0.020555109 0.08287786 0.04212682
v -0.036427915 0.071462154 -0.0027156472
v -0.024046898 0.010282055 -0.033289403
v -0.088667676 0.04703772 -0.06200522
v -0.06418784 0.0060870945 -0.06793636
v -0.079449385 -0.06744689 -0.101976395
v 0.0031797886 -0.094449855 -0.04456404
v 0.0031797886 -0.094449855 -0.04456404
v -0.024046898 0.010282055 -0.033289403
v 0.05071488 -0.066336855 0.022052154
v 0.026858687 0.0192388 0.03494717
v 0.07188231 0.0062624514 0.11706683
v -0.036427915 0.071462154 -0.0027156472
v 0.022503763 0.08591235 0.09769003
v 0.0055487454 0.07406512 0.05181372
v -0.088667676 0.04703772 -0.06200522
v -0.07740493 0.055984035 -0.07589927
v -0.023779511 0.08047779 -0.015177906
v -0.036427915 0.071462154 -0.0027156472
v -0.06418784 0.0060870945 -0.06793636
v -0.05233127 0.012634531 -0.08246577
v -0.07740493 0.055984035 -0.07589927
v -0.088667676 0.04703772 -0.06200522
v -0.079449385 -0.06744689 -0.101976395
v -0.06714775 -0.062880024 -0.11706686
v -0.05233127 0.012634531 -0.08246577
v -0.06418784 0.0060870945 -0.06793636
v 0.0031797886 -0.094449855 -0.04456404
v 0.016551226 -0.08947736 -0.05846417
v -0.06714775 -0.062880024 -0.11706686
v -0.079449385 -0.06744689 -0.101976395
v 0.05071488 -0.066336855 0.022052154
v 0.016551226 -0.08947736 -0.05846417
v 0.0031797886 -0.094449855 -0.04456404
v 0.066583395 -0.060736783 0.011530355
v 0.07188231 0.0062624514 0.11706683
v 0.08866766 0.0134473 0.1089993
v 0.022503763 0.08591235 0.09769003
v 0.038746983 0.09444985 0.08974512
v 0.08866766 0.0134473 0.1089993
v 0.07188231 0.0062624514 0.11706683
v 0.0055487454 0.07406512 0.05181372
v 0.038746983 0.09444985 0.08974512
v 0.022503763 0.08591235 0.09769003
v 0.020555109 0.08287786 0.04212682
v -0.036427915 0.071462154 -0.0027156472
v -0.023779511 0.08047779 -0.015177906
vt 0.625 0.53125
vt 0.59375 0.53125
vt 0.625 0.5625
vt 0.59375 0.5625
vt 0.59375 0.59375
vt 0.625 0.59375
vt 0.875 0.15625
vt 0.84375 0.15625
vt 0.875 0.1875
vt 0.84375 0.1875
vt 0.8125 0.1875
vt 0.875 0.21875
vt 0.8125 0.21875
vt 0.84375 0.21875
vt 0.625 0.53125
vt 0.625 0.5625
vt 0.59375 0.53125
vt 0.59375 0.5625
vt 0.59375 0.59375
vt 0.625 0.59375
vt 0.875 0.15625
vt 0.875 0.1875
vt 0.84375 0.15625
vt 0.84375 0.1875
vt 0.8125 0.1875
vt 0.875 0.21875
vt 0.8125 0.21875
vt 0.84375 0.21875
vt 0.59375 0.53125
vt 0.59375 0.53125
vt 0.625 0.53125
vt 0.625 0.53125
vt 0.59375 0.5625
vt 0.59375 0.5625
vt 0.59375 0.53125
vt 0.59375 0.53125
vt 0.59375 0.59375
vt 0.59375 0.59375
vt 0.59375 0.5625
vt 0.59375 0.5625
vt 0.625 0.59375
vt 0.625 0.59375
vt 0.59375 0.59375
vt 0.59375 0.59375
vt 0.84375 0.15625
vt 0.875 0.15625
vt 0.875 0.15625
vt 0.84375 0.15625
vt 0.8125 0.1875
vt 0.8125 0.1875
vt 0.8125 0.21875
vt 0.8125 0.21875
vt 0.8125 0.1875
vt 0.8125 0.1875
vt 0.84375 0.21875
vt 0.8125 0.21875
vt 0.8125 0.21875
vt 0.84375 0.21875
vt 0.875 0.21875
vt 0.875 0.21875
vn 0.6515699 0.44376373 -0.61524826
vn 0.5657456 0.44970706 -0.6911551
vn 0.66643393 0.32633242 -0.67035294
vn 0.60437495 0.29992744 -0.73808825
vn 0.6090203 0.23740093 -0.7567926
vn 0.6726182 0.2500652 -0.69645685
vn 0.6726182 0.2500652 -0.69645685
vn 0.77965087 0.28372294 -0.5582526
vn 0.66643393 0.32633242 -0.67035294
vn 0.7909449 0.35681063 -0.49708396
vn 0.8399762 0.36179695 -0.40440434
vn 0.6515699 0.44376373 -0.61524826
vn 0.81856364 0.4200061 -0.39185274
vn 0.74807024 0.44310638 -0.49401188
vn -0.6504706 -0.44430676 0.6160191
vn -0.6649381 -0.3256096 0.67218727
vn -0.5641016 -0.4518 0.691134
vn -0.6055045 -0.29865223 0.73767954
vn -0.60803044 -0.23636405 0.7579123
vn -0.67067176 -0.2495485 0.69851625
vn -0.67067176 -0.2495485 0.69851625
vn -0.6649381 -0.3256096 0.67218727
vn -0.7797553 -0.28423822 0.55784434
vn -0.7918239 -0.35754576 0.49515244
vn -0.84005165 -0.36293837 0.4032232
vn -0.6504706 -0.44430676 0.6160191
vn -0.81903857 -0.42065558 0.39015988
vn -0.74965596 -0.4427189 0.49195114
vn -0.5167852 0.8490464 0.10978767
vn -0.5167852 0.8490464 0.10978766
vn -0.45469055 0.87339157 0.17448127
vn -0.45442334 0.87347734 0.17474794
vn -0.6611992 -0.28583688 -0.693623
vn -0.6611992 -0.28583685 -0.693623
vn -0.6611992 -0.28583688 -0.69362295
vn -0.6611992 -0.28583688 -0.693623
vn -0.7807763 0.38440242 -0.49256778
vn -0.7807763 0.38440242 -0.49256784
vn -0.7807763 0.3844024 -0.49256784
vn -0.7807763 0.3844024 -0.49256778
vn -0.053517286 -0.93350005 -0.3545612
vn -0.053517282 -0.93350005 -0.3545612
vn -0.05351728 -0.93350005 -0.35456115
vn -0.053517282 -0.93350005 -0.35456118
vn 0.48844707 -0.82087773 0.29593772
vn 0.40430495 -0.91018164 0.09003777
vn 0.40430498 -0.91018164 0.09003777
vn 0.48906955 -0.81987214 0.2976924
vn 0.53196055 -0.72671 0.43463838
vn 0.53196055 -0.72671 0.43463835
vn 0.25532094 0.3723725 0.8922724
vn 0.25532097 0.3723725 0.8922724
vn 0.25532097 0.37237248 0.8922724
vn 0.25532097 0.37237248 0.8922724
vn -0.4319543 0.8919372 0.13365437
vn -0.498026 0.8666477 -0.02986416
vn -0.49802607 0.8666477 -0.02986416
vn -0.43222755 0.8918953 0.13304947
vn -0.45442334 0.87347734 0.17474794
vn -0.45469055 0.87339157 0.17448127
g shard94_0
f 3/3/3 2/2/2 1/1/1
f 3/3/3 4/4/4 2/2/2
f 3/3/3 5/5/5 4/4/4
f 3/3/3 6/6/6 5/5/5
f 9/9/9 8/8/8 7/7/7
f 9/9/9 10/10/10 8/8/8
f 8/8/8 10/10/10 11/11/11
f 12/12/12 10/10/10 9/9/9
f 10/10/10 13/13/13 11/11/11
f 12/12/12 14/14/14 10/10/10
f 10/10/10 14/14/14 13/13/13
f 17/17/17 16/16/16 15/15/15
f 18/18/18 16/16/16 17/17/17
f 19/19/19 16/16/16 18/18/18
f 20/20/20 16/16/16 19/19/19
f 23/23/23 22/22/22 21/21/21
f 24/24/24 22/22/22 23/23/23
f 24/24/24 23/23/23 25/25/25
f 24/24/24 26/26/26 22/22/22
f 27/27/27 24/24/24 25/25/25
f 28/28/28 26/26/26 24/24/24
f 28/28/28 24/24/24 27/27/27
f 31/31/31 30/30/30 29/29/29
f 32/32/32 31/31/31 29/29/29
f 35/35/35 34/34/34 33/33/33
f 36/36/36 35/35/35 33/33/33
f 39/39/39 38/38/38 37/37/37
f 40/40/40 39/39/39 37/37/37
f 43/43/43 42/42/42 41/41/41
f 44/44/44 43/43/43 41/41/41
f 47/47/47 46/46/46 45/45/45
f 46/46/46 48/48/48 45/45/45
f 45/45/45 48/48/48 49/49/49
f 48/48/48 50/50/50 49/49/49
f 53/53/53 52/52/52 51/51/51
f 54/54/54 53/53/53 51/51/51
f 57/57/57 56/56/56 55/55/55
f 56/56/56 58/58/58 55/55/55
f 55/55/55 58/58/58 59/59/59
f 58/58/58 60/60/60 59/59/59
