g shard57
v 0.0152678 0.0543749 -0.05519366
v 0.09045096 0.04131234 0.01576629
v 0.08192073 0.12748 -0.0287658
v 0.008775458 -0.003934786 -0.02885768
v -0.06293634 0.03392081 -0.08384192
v -0.07239303 -0.03519428 -0.04956049
v 0.06484534 -0.01680885 0.03099874
v 0.03494985 -0.0478714 0.02859777
v 0.01273161 -0.07485826 0.03838739
v -0.05880189 -0.08574511 -0.004504532
v -0.1185777 -0.02354814 -0.07224658
v -0.1202949 0.03561386 -0.1018919
v -0.144063 -0.1022142 -0.0201633
v -0.08116259 -0.1378143 0.05012308
v -0.006173998 -0.1028287 0.0537485
v 0.07849626 -0.05761255 0.09175608
v 0.03494985 -0.0478714 0.02859777
v 0.07849626 -0.05761255 0.09175608
v 0.06484534 -0.01680885 0.03099874
v 0.1024435 0.0002998561 0.06009062
v 0.09045096 0.04131234 0.01576629
v 0.1384653 0.06002057 0.06783505
v 0.1491852 0.1324067 0.04650494
v 0.08192073 0.12748 -0.0287658
v 0.004967093 0.06161344 -0.03988135
v 0.0683649 0.1331143 -0.01525804
v 0.07682054 0.04845634 0.02854025
v -0.001098812 0.005607888 -0.01431683
v -0.06955944 0.04234383 -0.0670262
v -0.07789291 -0.02460027 -0.03360826
v 0.05230604 -0.006729379 0.04288027
v 0.02399929 -0.0360605 0.04045475
v 0.002360404 -0.062162 0.04984352
v -0.06588417 -0.07259305 0.008794516
v -0.1241044 -0.01472275 -0.05517974
v -0.1254565 0.04414624 -0.08455527
v -0.1491852 -0.08866911 -0.006526798
v -0.08744679 -0.1228622 0.06175648
v -0.0156211 -0.08885531 0.06424835
v 0.06626011 -0.04553281 0.1018919
v 0.02399929 -0.0360605 0.04045475
v 0.05230604 -0.006729379 0.04288027
v 0.06626011 -0.04553281 0.1018919
v 0.0884854 0.009601876 0.0707873
v 0.07682054 0.04845634 0.02854025
v 0.1234706 0.06662932 0.0792589
v 0.1343461 0.1378143 0.05876149
v 0.0683649 0.1331143 -0.01525804
v 0.004967093 0.06161344 -0.03988135
v 0.0152678 0.0543749 -0.05519366
v 0.08192073 0.12748 -0.0287658
v 0.0683649 0.1331143 -0.01525804
v -0.06955944 0.04234383 -0.0670262
v -0.06293634 0.03392081 -0.08384192
v -0.1254565 0.04414624 -0.08455527
v -0.1202949 0.03561386 -0.1018919
v -0.1241044 -0.01472275 -0.05517974
v -0.1185777 -0.02354814 -0.07224658
v -0.1202949 0.03561386 -0.1018919
v -0.1254565 0.04414624 -0.08455527
v -0.07789291 -0.02460027 -0.03360826
v -0.07239303 -0.03519428 -0.04956049
v -0.1185777 -0.02354814 -0.07224658
v -0.1241044 -0.01472275 -0.05517974
v -0.1491852 -0.08866911 -0.006526798
v -0.144063 -0.1022142 -0.0201633
v -0.07239303 -0.03519428 -0.04956049
v -0.07789291 -0.02460027 -0.03360826
v -0.08744679 -0.1228622 0.06175648
v -0.08116259 -0.1378143 0.05012308
v -0.144063 -0.1022142 -0.0201633
v -0.1491852 -0.08866911 -0.006526798
v -0.0156211 -0.08885531 0.06424835
v -0.006173998 -0.1028287 0.0537485
v -0.08116259 -0.1378143 0.05012308
v -0.08744679 -0.1228622 0.06175648
v 0.06626011 -0.04553281 0.1018919
v 0.07849626 -0.05761255 0.09175608
v 0.0884854 0.009601876 0.0707873
v 0.1024435 0.0002998561 0.06009062
v 0.07849626 -0.05761255 0.09175608
v 0.06626011 -0.04553281 0.1018919
v 0.1234706 0.06662932 0.0792589
v 0.1384653 0.06002057 0.06783505
v 0.1024435 0.0002998561 0.06009062
v 0.0884854 0.009601876 0.0707873
v 0.1343461 0.1378143 0.05876149
v 0.1491852 0.1324067 0.04650494
v 0.1384653 0.06002057 0.06783505
v 0.1234706 0.06662932 0.0792589
v 0.0683649 0.1331143 -0.01525804
v 0.08192073 0.12748 -0.0287658
v 0.1491852 0.1324067 0.04650494
v 0.1343461 0.1378143 0.05876149
vt 0.59375 0.6875
vt 0.625 0.6875
vt 0.625 0.65625
vt 0.59375 0.71875
vt 0.5625 0.6875
vt 0.5625 0.71875
vt 0.625 0.71875
vt 0.625 0.75
vt 0.59375 0.75
vt 0.5625 0.75
vt 0.53125 0.71875
vt 0.53125 0.6875
vt 0.53125 0.75
vt 0.5625 0.78125
vt 0.59375 0.78125
vt 0.625 0.78125
vt 0.875 0
vt 0.84375 0
vt 0.875 0.03125
vt 0.84375 0.03125
vt 0.875 0.0625
vt 0.84375 0.0625
vt 0.84375 0.09375
vt 0.875 0.09375
vt 0.59375 0.6875
vt 0.625 0.65625
vt 0.625 0.6875
vt 0.59375 0.71875
vt 0.5625 0.6875
vt 0.5625 0.71875
vt 0.625 0.71875
vt 0.625 0.75
vt 0.59375 0.75
vt 0.5625 0.75
vt 0.53125 0.71875
vt 0.53125 0.6875
vt 0.53125 0.75
vt 0.5625 0.78125
vt 0.59375 0.78125
vt 0.625 0.78125
vt 0.875 0
vt 0.875 0.03125
vt 0.84375 0
vt 0.84375 0.03125
vt 0.875 0.0625
vt 0.84375 0.0625
vt 0.84375 0.09375
vt 0.875 0.09375
vt 0.59375 0.6875
vt 0.59375 0.6875
vt 0.625 0.65625
vt 0.625 0.65625
vt 0.5625 0.6875
vt 0.5625 0.6875
vt 0.53125 0.6875
vt 0.53125 0.6875
vt 0.53125 0.71875
vt 0.53125 0.71875
vt 0.53125 0.6875
vt 0.53125 0.6875
vt 0.5625 0.71875
vt 0.5625 0.71875
vt 0.53125 0.71875
vt 0.53125 0.71875
vt 0.53125 0.75
vt 0.53125 0.75
vt 0.5625 0.71875
vt 0.5625 0.71875
vt 0.5625 0.78125
vt 0.5625 0.78125
vt 0.53125 0.75
vt 0.53125 0.75
vt 0.59375 0.78125
vt 0.59375 0.78125
vt 0.5625 0.78125
vt 0.5625 0.78125
vt 0.625 0.78125
vt 0.625 0.78125
vt 0.84375 0.03125
vt 0.84375 0.03125
vt 0.84375 0
vt 0.84375 0
vt 0.84375 0.0625
vt 0.84375 0.0625
vt 0.84375 0.03125
vt 0.84375 0.03125
vt 0.84375 0.09375
vt 0.84375 0.09375
vt 0.84375 0.0625
vt 0.84375 0.0625
vt 0.875 0.09375
vt 0.875 0.09375
vt 0.84375 0.09375
vt 0.84375 0.09375
vn 0.5507305 -0.3689234 -0.7487265
vn 0.6776019 -0.3375107 -0.6534081
vn 0.6816803 -0.2815263 -0.6753184
vn 0.4906628 -0.4763479 -0.7296182
vn 0.3478448 -0.4395539 -0.8281282
vn 0.3462124 -0.5185959 -0.7817898
vn 0.6239775 -0.4956189 -0.6041639
vn 0.5531103 -0.5861504 -0.5920275
vn 0.5093441 -0.6254621 -0.5910716
vn 0.3545047 -0.655297 -0.6670174
vn 0.2818617 -0.4444601 -0.8502994
vn 0.260019 -0.4265379 -0.8662884
vn 0.2575157 -0.6900992 -0.6763495
vn 0.3119349 -0.7482429 -0.5855162
vn 0.4497893 -0.6947449 -0.5612656
vn 0.6201609 -0.5940968 -0.5122983
vn 0.5531103 -0.5861504 -0.5920275
vn 0.6201609 -0.5940968 -0.5122983
vn 0.6239775 -0.4956189 -0.6041639
vn 0.6928859 -0.460921 -0.5544917
vn 0.6776019 -0.3375107 -0.6534081
vn 0.7517457 -0.3112538 -0.5813773
vn 0.7368869 -0.2653053 -0.6217805
vn 0.6816803 -0.2815263 -0.6753184
vn -0.5522686 0.3687339 0.7476863
vn -0.6839236 0.280184 0.6736063
vn -0.6793294 0.335658 0.6525683
vn -0.4911871 0.4763394 0.7292709
vn -0.3448345 0.4392235 0.8295613
vn -0.3453532 0.5174691 0.7829157
vn -0.6240443 0.4963756 0.6034733
vn -0.5535058 0.5871473 0.5906687
vn -0.5108218 0.624454 0.5908624
vn -0.353264 0.6569331 0.6660658
vn -0.2795918 0.4439605 0.8513093
vn -0.2580773 0.4266185 0.8668292
vn -0.257585 0.6922832 0.6740875
vn -0.3098144 0.7494004 0.5851615
vn -0.4499502 0.6937651 0.5623477
vn -0.6196063 0.5945098 0.51249
vn -0.5535058 0.5871473 0.5906687
vn -0.6240443 0.4963756 0.6034733
vn -0.6196063 0.5945098 0.51249
vn -0.6925382 0.4609128 0.5549326
vn -0.6793294 0.335658 0.6525683
vn -0.752564 0.3092541 0.5813857
vn -0.7374408 0.2645654 0.6214387
vn -0.6839236 0.280184 0.6736063
vn -0.2766652 0.7664212 -0.5797025
vn -0.2775809 0.7657694 -0.580126
vn -0.4414319 0.6244742 -0.6443368
vn -0.4414319 0.6244742 -0.6443368
vn 0.02839683 0.8984852 -0.4380846
vn 0.02851727 0.8984991 -0.4380482
vn 0.1525701 0.9051648 -0.3967354
vn 0.1525701 0.9051648 -0.3967355
vn -0.9633973 -0.1395192 -0.2289105
vn -0.9633973 -0.1395192 -0.2289105
vn -0.9633973 -0.1395192 -0.2289105
vn -0.9633973 -0.1395192 -0.2289105
vn -0.3762751 -0.8480596 0.3731112
vn -0.3762751 -0.8480596 0.3731112
vn -0.3762751 -0.8480596 0.3731112
vn -0.3762752 -0.8480596 0.3731112
vn -0.6546679 0.453358 -0.6048773
vn -0.6546679 0.453358 -0.6048773
vn -0.6546679 0.453358 -0.6048774
vn -0.6546679 0.453358 -0.6048772
vn -0.721995 -0.5978395 0.3482974
vn -0.721995 -0.5978395 0.3482975
vn -0.721995 -0.5978395 0.3482974
vn -0.721995 -0.5978395 0.3482975
vn 0.08381373 -0.5858208 0.806095
vn 0.08397735 -0.5857432 0.8061343
vn 0.2097075 -0.5196871 0.8282198
vn 0.2097075 -0.5196871 0.8282198
vn -0.01785152 -0.6298813 0.7764862
vn -0.01785152 -0.6298813 0.7764862
vn 0.6781268 0.1251504 0.7242109
vn 0.6781268 0.1251504 0.7242109
vn 0.6781268 0.1251504 0.7242109
vn 0.6781268 0.1251504 0.7242109
vn 0.4250665 -0.3730772 0.8247011
vn 0.4250665 -0.3730772 0.8247011
vn 0.4250665 -0.3730772 0.8247011
vn 0.4250665 -0.3730772 0.8247011
vn 0.6467497 0.1220581 0.7528722
vn 0.6467497 0.1220581 0.7528723
vn 0.6467497 0.1220581 0.7528723
vn 0.6467497 0.1220581 0.7528722
vn 0.1752389 0.9600167 -0.21831
vn 0.1752389 0.9600167 -0.21831
vn 0.1752389 0.9600167 -0.21831
vn 0.1752389 0.9600167 -0.21831
g shard57_0
f 3/3/3 2/2/2 1/1/1
f 2/2/2 4/4/4 1/1/1
f 4/4/4 5/5/5 1/1/1
f 4/4/4 6/6/6 5/5/5
f 2/2/2 7/7/7 4/4/4
f 8/8/8 4/4/4 7/7/7
f 8/8/8 9/9/9 4/4/4
f 4/4/4 10/10/10 6/6/6
f 4/4/4 9/9/9 10/10/10
f 5/5/5 6/6/6 11/11/11
f 5/5/5 11/11/11 12/12/12
f 6/6/6 10/10/10 13/13/13
f 14/14/14 13/13/13 10/10/10
f 15/15/15 10/10/10 9/9/9
f 15/15/15 14/14/14 10/10/10
f 9/9/9 16/16/16 15/15/15
f 8/8/8 16/16/16 9/9/9
f 19/19/19 18/18/18 17/17/17
f 19/19/19 20/20/20 18/18/18
f 21/21/21 20/20/20 19/19/19
f 21/21/21 22/22/22 20/20/20
f 21/21/21 23/23/23 22/22/22
f 21/21/21 24/24/24 23/23/23
f 27/27/27 26/26/26 25/25/25
f 28/28/28 27/27/27 25/25/25
f 29/29/29 28/28/28 25/25/25
f 30/30/30 28/28/28 29/29/29
f 31/31/31 27/27/27 28/28/28
f 28/28/28 32/32/32 31/31/31
f 33/33/33 32/32/32 28/28/28
f 34/34/34 28/28/28 30/30/30
f 33/33/33 28/28/28 34/34/34
f 30/30/30 29/29/29 35/35/35
f 35/35/35 29/29/29 36/36/36
f 34/34/34 30/30/30 37/37/37
f 37/37/37 38/38/38 34/34/34
f 34/34/34 39/39/39 33/33/33
f 38/38/38 39/39/39 34/34/34
f 40/40/40 33/33/33 39/39/39
f 40/40/40 32/32/32 33/33/33
f 43/43/43 42/42/42 41/41/41
f 44/44/44 42/42/42 43/43/43
f 44/44/44 45/45/45 42/42/42
f 46/46/46 45/45/45 44/44/44
f 47/47/47 45/45/45 46/46/46
f 48/48/48 45/45/45 47/47/47
f 51/51/51 50/50/50 49/49/49
f 52/52/52 51/51/51 49/49/49
f 49/49/49 50/50/50 53/53/53
f 50/50/50 54/54/54 53/53/53
f 53/53/53 54/54/54 55/55/55
f 54/54/54 56/56/56 55/55/55
f 59/59/59 58/58/58 57/57/57
f 60/60/60 59/59/59 57/57/57
f 63/63/63 62/62/62 61/61/61
f 64/64/64 63/63/63 61/61/61
f 67/67/67 66/66/66 65/65/65
f 68/68/68 67/67/67 65/65/65
f 71/71/71 70/70/70 69/69/69
f 72/72/72 71/71/71 69/69/69
f 75/75/75 74/74/74 73/73/73
f 76/76/76 75/75/75 73/73/73
f 73/73/73 74/74/74 77/77/77
f 74/74/74 78/78/78 77/77/77
f 81/81/81 80/80/80 79/79/79
f 82/82/82 81/81/81 79/79/79
f 85/85/85 84/84/84 83/83/83
f 86/86/86 85/85/85 83/83/83
f 89/89/89 88/88/88 87/87/87
f 90/90/90 89/89/89 87/87/87
f 93/93/93 92/92/92 91/91/91
f 94/94/94 93/93/93 91/91/91
