g shard89
v 0.09757689 -0.07156292 -0.1621128
v 0.01642925 -0.002116114 -0.1624813
v 0.05646545 -0.08401632 -0.0870976
v 0.004579753 -0.04190081 -0.08961496
v 0.0002464354 -0.06117249 -0.02499769
v 0.05200684 -0.1049916 -0.009667076
v -0.01141557 -0.06251615 0.05135381
v 0.05082026 -0.1120727 0.05480476
v 0.004579753 -0.04190081 -0.08961496
v 0.01642925 -0.002116114 -0.1624813
v -0.04973423 0.03388929 -0.09263329
v -0.06189111 0.01329055 -0.01914159
v 0.0002464354 -0.06117249 -0.02499769
v -0.09603792 0.08346723 -0.01593393
v -0.01141557 -0.06251615 0.05135381
v -0.07084978 0.01675417 0.04939833
v -0.1092254 0.104048 0.05771405
v -0.1001813 0.09619555 0.141075
v -0.0638921 0.01739036 0.1407849
v -0.009834975 -0.04479039 0.1624813
v 0.1092254 -0.05784306 -0.1533905
v 0.06812418 -0.06940413 -0.08031547
v 0.02956542 0.01016077 -0.1539738
v 0.01788053 -0.02875045 -0.08253278
v 0.01387519 -0.047034 -0.02120823
v 0.0639638 -0.08939087 -0.006288737
v 0.002372772 -0.04835153 0.05115324
v 0.06306522 -0.09637567 0.05671948
v 0.01788053 -0.02875045 -0.08253278
v -0.0336923 0.04344012 -0.08589882
v 0.02956542 0.01016077 -0.1539738
v -0.04521146 0.02372906 -0.01556002
v 0.01387519 -0.047034 -0.02120823
v -0.07814342 0.09156998 -0.01283605
v 0.002372772 -0.04835153 0.05115324
v -0.05358186 0.02684377 0.04953672
v -0.09094098 0.1120727 0.05760888
v -0.08198482 0.1043897 0.1397606
v -0.0471496 0.02784485 0.1389275
v 0.00549677 -0.03215808 0.1601654
v 0.1092254 -0.05784306 -0.1533905
v 0.09757689 -0.07156292 -0.1621128
v 0.05646545 -0.08401632 -0.0870976
v 0.06812418 -0.06940413 -0.08031547
v 0.05200684 -0.1049916 -0.009667076
v 0.0639638 -0.08939087 -0.006288737
v 0.05082026 -0.1120727 0.05480476
v 0.06306522 -0.09637567 0.05671948
v 0.02956542 0.01016077 -0.1539738
v 0.01642925 -0.002116114 -0.1624813
v 0.09757689 -0.07156292 -0.1621128
v 0.1092254 -0.05784306 -0.1533905
v 0.06306522 -0.09637567 0.05671948
v 0.05082026 -0.1120727 0.05480476
v -0.01141557 -0.06251615 0.05135381
v 0.002372772 -0.04835153 0.05115324
v -0.0336923 0.04344012 -0.08589882
v 0.01642925 -0.002116114 -0.1624813
v 0.02956542 0.01016077 -0.1539738
v -0.04973423 0.03388929 -0.09263329
v -0.07814342 0.09156998 -0.01283605
v -0.09603792 0.08346723 -0.01593393
v -0.09094098 0.1120727 0.05760888
v -0.1092254 0.104048 0.05771405
v -0.08198482 0.1043897 0.1397606
v -0.1001813 0.09619555 0.141075
v 0.00549677 -0.03215808 0.1601654
v -0.009834975 -0.04479039 0.1624813
v -0.0638921 0.01739036 0.1407849
v -0.0471496 0.02784485 0.1389275
v -0.1001813 0.09619555 0.141075
v -0.08198482 0.1043897 0.1397606
v 0.002372772 -0.04835153 0.05115324
v -0.01141557 -0.06251615 0.05135381
v -0.009834975 -0.04479039 0.1624813
v 0.00549677 -0.03215808 0.1601654
vt 0.40625 0.78125
vt 0.375 0.78125
vt 0.40625 0.8125
vt 0.375 0.8125
vt 0.375 0.84375
vt 0.40625 0.84375
vt 0.375 0.875
vt 0.40625 0.875
vt 0.1875 0
vt 0.15625 0
vt 0.1875 0.03125
vt 0.21875 0.03125
vt 0.21875 0
vt 0.21875 0.0625
vt 0.25 0
vt 0.25 0.03125
vt 0.25 0.0625
vt 0.28125 0.0625
vt 0.28125 0.03125
vt 0.28125 0
vt 0.40625 0.78125
vt 0.40625 0.8125
vt 0.375 0.78125
vt 0.375 0.8125
vt 0.375 0.84375
vt 0.40625 0.84375
vt 0.375 0.875
vt 0.40625 0.875
vt 0.1875 0
vt 0.1875 0.03125
vt 0.15625 0
vt 0.21875 0.03125
vt 0.21875 0
vt 0.21875 0.0625
vt 0.25 0
vt 0.25 0.03125
vt 0.25 0.0625
vt 0.28125 0.0625
vt 0.28125 0.03125
vt 0.28125 0
vt 0.40625 0.78125
vt 0.40625 0.78125
vt 0.40625 0.8125
vt 0.40625 0.8125
vt 0.40625 0.84375
vt 0.40625 0.84375
vt 0.40625 0.875
vt 0.40625 0.875
vt 0.375 0.78125
vt 0.375 0.78125
vt 0.40625 0.78125
vt 0.40625 0.78125
vt 0.40625 0.875
vt 0.40625 0.875
vt 0.375 0.875
vt 0.375 0.875
vt 0.1875 0.03125
vt 0.15625 0
vt 0.15625 0
vt 0.1875 0.03125
vt 0.21875 0.0625
vt 0.21875 0.0625
vt 0.25 0.0625
vt 0.25 0.0625
vt 0.28125 0.0625
vt 0.28125 0.0625
vt 0.28125 0
vt 0.28125 0
vt 0.28125 0.03125
vt 0.28125 0.03125
vt 0.28125 0.0625
vt 0.28125 0.0625
vt 0.25 0
vt 0.25 0
vt 0.28125 0
vt 0.28125 0
vn -0.5845898 -0.685389 -0.4341621
vn -0.6440744 -0.6295206 -0.4345939
vn -0.5822812 -0.7219825 -0.373751
vn -0.678652 -0.6420746 -0.3566116
vn -0.6947647 -0.6953898 -0.1836714
vn -0.6069885 -0.7785147 -0.1596235
vn -0.7504334 -0.6604002 -0.02685665
vn -0.6166652 -0.7812078 -0.09715054
vn -0.678652 -0.6420746 -0.3566116
vn -0.6440744 -0.6295206 -0.4345939
vn -0.7886487 -0.5248905 -0.3201925
vn -0.8275612 -0.5313345 -0.18118
vn -0.6947647 -0.6953898 -0.1836714
vn -0.9023603 -0.4123799 -0.125255
vn -0.7504334 -0.6604002 -0.02685665
vn -0.8590056 -0.511952 0.003808574
vn -0.914765 -0.4036689 0.01601055
vn -0.9088789 -0.4117971 0.06604641
vn -0.8393813 -0.5370945 0.08347769
vn -0.7689028 -0.6295927 0.1113616
vn 0.5824233 0.6859935 0.4361148
vn 0.5811027 0.7217394 0.3760479
vn 0.6413293 0.6315904 0.4356492
vn 0.677444 0.6428638 0.3574851
vn 0.6932927 0.6963753 0.1854904
vn 0.6050602 0.7800967 0.1592207
vn 0.7496439 0.6613178 0.02632136
vn 0.6122475 0.7848487 0.09573628
vn 0.677444 0.6428638 0.3574851
vn 0.7884274 0.5249801 0.3205904
vn 0.6413293 0.6315904 0.4356492
vn 0.8284687 0.529843 0.1813998
vn 0.6932927 0.6963753 0.1854904
vn 0.9029248 0.4118272 0.1229843
vn 0.7496439 0.6613178 0.02632136
vn 0.8609979 0.508586 -0.004772374
vn 0.9150802 0.4028537 -0.01835851
vn 0.90993 0.4095494 -0.06555022
vn 0.8405505 0.5351241 -0.08436364
vn 0.7665861 0.6316152 -0.1157929
vn 0.6710773 -0.6943176 0.2599586
vn 0.6710773 -0.6943176 0.2599586
vn 0.7486178 -0.657626 0.08425777
vn 0.7492857 -0.6571031 0.08238041
vn 0.7983336 -0.5959634 -0.08655114
vn 0.7983351 -0.5959592 -0.08656527
vn 0.7943097 -0.6051282 -0.05377606
vn 0.7943096 -0.6051282 -0.05377606
vn 0.284321 0.3263936 -0.9014592
vn 0.2843209 0.3263936 -0.9014593
vn 0.284321 0.3263937 -0.9014593
vn 0.2843209 0.3263936 -0.9014593
vn -0.07010876 0.003859192 0.9975319
vn -0.07010875 0.003859192 0.9975319
vn -0.07010874 0.003859192 0.9975319
vn -0.07010876 0.003859192 0.9975319
vn -0.2291913 0.7542945 -0.6152326
vn -0.245713 0.7539156 -0.6092917
vn -0.245713 0.7539156 -0.6092917
vn -0.2291978 0.7542944 -0.6152303
vn -0.2831568 0.8206649 -0.4963177
vn -0.2825883 0.8201899 -0.4974258
vn -0.3923363 0.9159683 -0.08410893
vn -0.3923036 0.9159407 -0.0845605
vn -0.3986912 0.9080256 0.1285885
vn -0.3986912 0.9080256 0.1285885
vn -0.07232562 0.2738415 0.9590515
vn -0.07232562 0.2738415 0.9590515
vn 0.002479262 0.1510826 0.988518
vn 0.002394361 0.1512238 0.9884967
vn 0.07580797 0.02750028 0.9967431
vn 0.07580797 0.02750028 0.9967431
vn 0.6784639 -0.7281097 0.09768803
vn 0.6784639 -0.7281097 0.09768801
vn 0.6784639 -0.7281097 0.09768801
vn 0.6784639 -0.7281097 0.09768801
g shard89_0
f 3/3/3 2/2/2 1/1/1
f 3/3/3 4/4/4 2/2/2
f 3/3/3 5/5/5 4/4/4
f 3/3/3 6/6/6 5/5/5
f 6/6/6 7/7/7 5/5/5
f 6/6/6 8/8/8 7/7/7
f 11/11/11 10/10/10 9/9/9
f 12/12/12 11/11/11 9/9/9
f 12/12/12 9/9/9 13/13/13
f 14/14/14 11/11/11 12/12/12
f 15/15/15 12/12/12 13/13/13
f 16/16/16 14/14/14 12/12/12
f 15/15/15 16/16/16 12/12/12
f 16/16/16 17/17/17 14/14/14
f 18/18/18 17/17/17 16/16/16
f 18/18/18 16/16/16 19/19/19
f 19/19/19 16/16/16 15/15/15
f 19/19/19 15/15/15 20/20/20
f 23/23/23 22/22/22 21/21/21
f 24/24/24 22/22/22 23/23/23
f 25/25/25 22/22/22 24/24/24
f 26/26/26 22/22/22 25/25/25
f 27/27/27 26/26/26 25/25/25
f 28/28/28 26/26/26 27/27/27
f 31/31/31 30/30/30 29/29/29
f 30/30/30 32/32/32 29/29/29
f 29/29/29 32/32/32 33/33/33
f 30/30/30 34/34/34 32/32/32
f 32/32/32 35/35/35 33/33/33
f 34/34/34 36/36/36 32/32/32
f 36/36/36 35/35/35 32/32/32
f 37/37/37 36/36/36 34/34/34
f 37/37/37 38/38/38 36/36/36
f 36/36/36 38/38/38 39/39/39
f 36/36/36 39/39/39 35/35/35
f 35/35/35 39/39/39 40/40/40
f 43/43/43 42/42/42 41/41/41
f 44/44/44 43/43/43 41/41/41
f 45/45/45 43/43/43 44/44/44
f 46/46/46 45/45/45 44/44/44
f 47/47/47 45/45/45 46/46/46
f 48/48/48 47/47/47 46/46/46
f 51/51/51 50/50/50 49/49/49
f 52/52/52 51/51/51 49/49/49
f 55/55/55 54/54/54 53/53/53
f 56/56/56 55/55/55 53/53/53
f 59/59/59 58/58/58 57/57/57
f 58/58/58 60/60/60 57/57/57
f 57/57/57 60/60/60 61/61/61
f 60/60/60 62/62/62 61/61/61
f 61/61/61 62/62/62 63/63/63
f 62/62/62 64/64/64 63/63/63
f 63/63/63 64/64/64 65/65/65
f 64/64/64 66/66/66 65/65/65
f 69/69/69 68/68/68 67/67/67
f 70/70/70 69/69/69 67/67/67
f 71/71/71 69/69/69 70/70/70
f 72/72/72 71/71/71 70/70/70
f 75/75/75 74/74/74 73/73/73
f 76/76/76 75/75/75 73/73/73
