g shard44
v -0.08596927 0.359556 -0.2224782
v -0.1547447 0.6472007 -0.4004607
v -0.2548365 0.6593812 -0.3150591
v -0.1415758 0.3663228 -0.1750328
v -0.01534682 0.3632751 -0.2324091
v -0.02762428 0.6538951 -0.4183364
v -0.1547447 0.6472007 -0.4004607
v -0.08596927 0.359556 -0.2224782
v 0.0008571441 0.298681 -0.3168429
v 0.001542859 0.5376258 -0.5703171
v -0.02762428 0.6538951 -0.4183364
v -0.01534682 0.3632751 -0.2324091
v -0.1415758 0.3663228 -0.1750328
v -0.2548365 0.6593812 -0.3150591
v -0.3780447 0.5728575 -0.3696193
v -0.2100248 0.3182542 -0.205344
v -0.2100248 0.3182542 -0.205344
v -0.3780447 0.5728575 -0.3696193
v -0.3997751 0.4746065 -0.4763247
v -0.2220973 0.2636703 -0.2646249
v -0.2220973 0.2636703 -0.2646249
v -0.3997751 0.4746065 -0.4763247
v -0.2588313 0.518033 -0.5274676
v -0.1437951 0.2877961 -0.2930376
v -0.1437951 0.2877961 -0.2930376
v -0.2588313 0.518033 -0.5274676
v -0.1592242 0.453732 -0.612363
v -0.08845791 0.2520733 -0.3402017
v -0.08845791 0.2520733 -0.3402017
v -0.1592242 0.453732 -0.612363
v 0.001542859 0.5376258 -0.5703171
v 0.0008571441 0.298681 -0.3168429
vt 0 0
vt 0 1
vt 0.1057841 1
vt 0.1057841 0
vt 0.1057841 0
vt 0.1057841 1
vt 0.208693 1
vt 0.208693 0
vt 0.208693 0
vt 0.208693 1
vt 0.3636541 1
vt 0.3636541 0
vt 0.8718013 0
vt 0.8718013 1
vt 1 1
vt 1 0
vt 0.7543841 0
vt 0.7543841 1
vt 0.8718013 1
vt 0.8718013 0
vt 0.6294176 0
vt 0.6294176 1
vt 0.7543841 1
vt 0.7543841 0
vt 0.5126796 0
vt 0.5126796 1
vt 0.6294176 1
vt 0.6294176 0
vt 0.3636541 0
vt 0.3636541 1
vt 0.5126796 1
vt 0.5126796 0
vn -0.5894083 -0.5222704 -0.6163047
vn -0.5894083 -0.5222703 -0.6163047
vn -0.5894083 -0.5222703 -0.6163047
vn -0.5894083 -0.5222703 -0.6163047
vn -0.08933055 -0.5394312 -0.8372777
vn -0.08933055 -0.5394312 -0.8372777
vn -0.08933055 -0.5394312 -0.8372777
vn -0.08933055 -0.5394312 -0.8372777
vn -0.9883289 -0.1095036 -0.1059004
vn -0.9883289 -0.1095036 -0.1059004
vn -0.9883289 -0.1095036 -0.1059004
vn -0.9883289 -0.1095036 -0.1059004
vn 0.5114264 -0.2014934 -0.8353703
vn 0.5114264 -0.2014934 -0.8353703
vn 0.5114264 -0.2014933 -0.8353703
vn 0.5114264 -0.2014934 -0.8353703
vn 0.854688 0.2833753 -0.4349791
vn 0.854688 0.2833753 -0.434979
vn 0.854688 0.2833753 -0.434979
vn 0.854688 0.2833753 -0.4349791
vn 0.02950804 0.7203487 0.6929842
vn 0.02950804 0.7203487 0.6929841
vn 0.02950804 0.7203487 0.6929841
vn 0.02950804 0.7203487 0.6929842
vn 0.6873814 0.6575347 0.3084719
vn 0.6873814 0.6575347 0.3084719
vn 0.6873814 0.6575347 0.3084719
vn 0.6873814 0.6575346 0.3084719
vn -0.4881357 0.6357318 0.5979704
vn -0.4881357 0.6357318 0.5979705
vn -0.4881357 0.6357318 0.5979704
vn -0.4881356 0.6357318 0.5979704
g shard44_0
f 3/3/3 2/2/2 1/1/1
f 4/4/4 3/3/3 1/1/1
f 7/7/7 6/6/6 5/5/5
f 8/8/8 7/7/7 5/5/5
f 11/11/11 10/10/10 9/9/9
f 12/12/12 11/11/11 9/9/9
f 15/15/15 14/14/14 13/13/13
f 16/16/16 15/15/15 13/13/13
f 19/19/19 18/18/18 17/17/17
f 20/20/20 19/19/19 17/17/17
f 23/23/23 22/22/22 21/21/21
f 24/24/24 23/23/23 21/21/21
f 27/27/27 26/26/26 25/25/25
f 28/28/28 27/27/27 25/25/25
f 31/31/31 30/30/30 29/29/29
f 32/32/32 31/31/31 29/29/29
