g shard47
v 0.08973645 -0.41501072 0.013906753
v 0.1615256 -0.7470193 0.025032155
v 0.03153743 -0.76050854 0.012633437
v 0.017520793 -0.42250475 0.007018576
v 0.017520793 -0.42250475 0.007018576
v 0.03153743 -0.76050854 0.012633437
v -0.017660499 -0.7492813 0.15350471
v -0.009811387 -0.4162674 0.085280396
v 0.16576332 -0.3855946 0.09224028
v 0.29837397 -0.6940703 0.16603251
v 0.1615256 -0.7470193 0.025032155
v 0.08973645 -0.41501072 0.013906753
v -0.009811387 -0.4162674 0.085280396
v -0.017660499 -0.7492813 0.15350471
v 0.11981059 -0.7038139 0.2894237
v 0.06656144 -0.39100775 0.16079094
v 0.25691482 -0.60195374 0.42472318
v 0.14273046 -0.33441874 0.23595732
v 0.22629747 -0.35618192 0.091003515
v 0.40733546 -0.64112747 0.16380632
v 0.29837397 -0.6940703 0.16603251
v 0.16576332 -0.3855946 0.09224028
v 0.23627877 -0.32325256 0.1653467
v 0.4253018 -0.5818546 0.29762405
v 0.40733546 -0.64112747 0.16380632
v 0.22629747 -0.35618192 0.091003515
v 0.21972573 -0.3134168 0.20555349
v 0.39550632 -0.5641502 0.36999628
v 0.4253018 -0.5818546 0.29762405
v 0.23627877 -0.32325256 0.1653467
v 0.14273046 -0.33441874 0.23595732
v 0.25691482 -0.60195374 0.42472318
v 0.39550632 -0.5641502 0.36999628
v 0.21972573 -0.3134168 0.20555349
vt 0 0
vt 0 1
vt 0.09353338 1
vt 0.09353338 0
vt 0.09353338 0
vt 0.09353338 1
vt 0.20015119 1
vt 0.20015119 0
vt 0.8550043 0
vt 0.8550043 1
vt 1 1
vt 1 0
vt 0.20015119 0
vt 0.20015119 1
vt 0.34165138 1
vt 0.34165138 0
vt 0.4969051 1
vt 0.4969051 0
vt 0.7686744 0
vt 0.7686744 1
vt 0.8550043 1
vt 0.8550043 0
vt 0.6636105 0
vt 0.6636105 1
vt 0.7686744 1
vt 0.7686744 0
vt 0.60643655 0
vt 0.60643655 1
vt 0.6636105 1
vt 0.6636105 0
vt 0.4969051 0
vt 0.4969051 1
vt 0.60643655 1
vt 0.60643655 0
vn -0.0962348 0.012542673 0.99527967
vn -0.09623479 0.012542672 0.99527967
vn -0.09623479 0.012542672 0.99527967
vn -0.0962348 0.012542673 0.99527967
vn 0.9442439 0.044575755 0.32621542
vn 0.9442439 0.044575755 0.32621542
vn 0.9442439 0.04457575 0.3262154
vn 0.9442439 0.04457575 0.32621536
vn -0.6881393 -0.12484317 0.71475756
vn -0.6881394 -0.12484317 0.71475756
vn -0.6881394 -0.12484317 0.71475756
vn -0.6881393 -0.124843165 0.71475756
vn 0.7200605 -0.15551671 -0.6762599
vn 0.72006047 -0.15551671 -0.6762599
vn 0.7200605 -0.15551671 -0.6762599
vn 0.72006047 -0.15551671 -0.6762599
vn 0.74635416 -0.14047076 -0.6505563
vn 0.7463541 -0.14047074 -0.6505563
vn -0.07739791 0.20035987 0.9766604
vn -0.07739793 0.20035988 0.9766604
vn -0.07739791 0.20035985 0.9766604
vn -0.07739791 0.20035985 0.9766604
vn -0.8359584 -0.45136344 0.3121612
vn -0.8359584 -0.45136344 0.3121612
vn -0.83595836 -0.45136347 0.3121612
vn -0.83595836 -0.45136347 0.3121612
vn -0.7574219 -0.6338241 -0.15677719
vn -0.7574219 -0.6338241 -0.15677723
vn -0.7574218 -0.6338241 -0.15677722
vn -0.7574218 -0.6338241 -0.1567772
vn -0.14132701 -0.6102916 -0.7794683
vn -0.141327 -0.61029154 -0.7794683
vn -0.14132702 -0.61029166 -0.7794683
vn -0.14132701 -0.61029154 -0.77946836
g shard47_0
f 3/3/3 2/2/2 1/1/1
f 4/4/4 3/3/3 1/1/1
f 7/7/7 6/6/6 5/5/5
f 8/8/8 7/7/7 5/5/5
f 11/11/11 10/10/10 9/9/9
f 12/12/12 11/11/11 9/9/9
f 15/15/15 14/14/14 13/13/13
f 16/16/16 15/15/15 13/13/13
f 17/17/17 15/15/15 16/16/16
f 18/18/18 17/17/17 16/16/16
f 21/21/21 20/20/20 19/19/19
f 22/22/22 21/21/21 19/19/19
f 25/25/25 24/24/24 23/23/23
f 26/26/26 25/25/25 23/23/23
f 29/29/29 28/28/28 27/27/27
f 30/30/30 29/29/29 27/27/27
f 33/33/33 32/32/32 31/31/31
f 34/34/34 33/33/33 31/31/31
