g shard19
v 0.29903814 -0.2724356 0.15685569
v 0.5382687 -0.4903841 0.28234023
v 0.5575136 -0.39116904 0.38741606
v 0.30972978 -0.21731614 0.21523114
v 0.30972978 -0.21731614 0.21523114
v 0.5575136 -0.39116904 0.38741606
v 0.64989495 -0.30949867 0.29120877
v 0.36105275 -0.17194371 0.16178265
v 0.31126907 -0.29397538 0.0718776
v 0.5602843 -0.5291557 0.12937967
v 0.5382687 -0.4903841 0.28234023
v 0.29903814 -0.2724356 0.15685569
v 0.3593792 -0.24269527 -0.0063218223
v 0.64688253 -0.4368515 -0.01137928
v 0.5602843 -0.5291557 0.12937967
v 0.31126907 -0.29397538 0.0718776
v 0.388824 -0.17914894 0.016955249
v 0.69988316 -0.3224681 0.030519448
v 0.64688253 -0.4368515 -0.01137928
v 0.3593792 -0.24269527 -0.0063218223
v 0.37809363 -0.18094352 0.091998324
v 0.6805686 -0.32569832 0.16559699
v 0.69988316 -0.3224681 0.030519448
v 0.388824 -0.17914894 0.016955249
v 0.36105275 -0.17194371 0.16178265
v 0.64989495 -0.30949867 0.29120877
v 0.6805686 -0.32569832 0.16559699
v 0.37809363 -0.18094352 0.091998324
vt 0 0
vt 0 1
vt 0.13878766 1
vt 0.13878766 0
vt 0.13878766 0
vt 0.13878766 1
vt 0.2876727 1
vt 0.2876727 0
vt 0.8483269 0
vt 0.8483269 1
vt 1 1
vt 1 0
vt 0.66812515 0
vt 0.66812515 1
vt 0.8483269 1
vt 0.8483269 0
vt 0.54166013 0
vt 0.54166013 1
vt 0.66812515 1
vt 0.66812515 0
vt 0.41172668 0
vt 0.41172668 1
vt 0.54166013 1
vt 0.54166013 0
vt 0.2876727 0
vt 0.2876727 1
vt 0.41172668 1
vt 0.41172668 0
vn 0.70059526 0.45031738 -0.55351657
vn 0.7005952 0.45031744 -0.5535165
vn 0.7005952 0.45031738 -0.55351657
vn 0.7005952 0.45031744 -0.5535166
vn -0.049423605 -0.7375073 -0.6735282
vn -0.049423613 -0.7375073 -0.6735282
vn -0.0494236 -0.7375073 -0.67352825
vn -0.049423613 -0.7375073 -0.67352825
vn 0.69421166 0.7151582 -0.08135639
vn 0.69421166 0.7151582 -0.08135639
vn 0.6942117 0.71515816 -0.081356384
vn 0.69421166 0.7151582 -0.081356384
vn 0.42615044 0.61372423 0.66463405
vn 0.42615047 0.61372423 0.6646341
vn 0.42615044 0.61372423 0.6646341
vn 0.42615044 0.6137242 0.6646341
vn -0.16596864 -0.27046576 0.9483157
vn -0.16596866 -0.27046576 0.9483157
vn -0.16596866 -0.27046576 0.9483157
vn -0.16596864 -0.2704658 0.9483157
vn -0.41418043 -0.906592 -0.08090347
vn -0.41418046 -0.906592 -0.08090347
vn -0.41418043 -0.906592 -0.08090347
vn -0.41418043 -0.906592 -0.08090347
vn -0.43369484 -0.90100104 0.010293202
vn -0.43369478 -0.90100104 0.0102932
vn -0.43369484 -0.90100104 0.010293201
vn -0.43369475 -0.90100104 0.010293199
g shard19_0
f 3/3/3 2/2/2 1/1/1
f 4/4/4 3/3/3 1/1/1
f 7/7/7 6/6/6 5/5/5
f 8/8/8 7/7/7 5/5/5
f 11/11/11 10/10/10 9/9/9
f 12/12/12 11/11/11 9/9/9
f 15/15/15 14/14/14 13/13/13
f 16/16/16 15/15/15 13/13/13
f 19/19/19 18/18/18 17/17/17
f 20/20/20 19/19/19 17/17/17
f 23/23/23 22/22/22 21/21/21
f 24/24/24 23/23/23 21/21/21
f 27/27/27 26/26/26 25/25/25
f 28/28/28 27/27/27 25/25/25
