g shard6
v 0.159422 0.0977492 0.3859769
v 0.08344403 0.07787821 0.4108411
v 0.01522648 0.1713783 0.3927587
v 0.2327299 0.1472818 0.3352983
v 0.2182881 0.2335646 0.2938832
v 0.1481748 0.2826202 0.295634
v 0.2052485 0.2721172 0.2705351
v 0.01649933 0.2325467 0.3631467
v 0.07060284 0.3003242 0.3063903
v -0.01021885 0.319288 0.2940474
v -0.07261543 0.1604257 0.3908767
v 0.1371631 0.3351695 0.2365543
v 0.2869596 0.1759486 0.6947585
v 0.1501992 0.1401808 0.7395141
v 0.02740766 0.308481 0.7069657
v 0.4189139 0.2651072 0.603537
v 0.3929185 0.4204163 0.5289898
v 0.3694474 0.4898109 0.4869632
v 0.1270851 0.5405836 0.5515026
v 0.2667147 0.5087163 0.5321413
v -0.01839394 0.5747184 0.5292853
v 0.02969879 0.418584 0.6536641
v -0.1307078 0.2887663 0.703578
v 0.2468936 0.603305 0.4257978
v 0.08344403 0.07787821 0.4108411
v 0.1501992 0.1401808 0.7395141
v 0.2869596 0.1759486 0.6947585
v 0.159422 0.0977492 0.3859769
v 0.4189139 0.2651072 0.603537
v 0.2327299 0.1472818 0.3352983
v 0.3929185 0.4204163 0.5289898
v 0.2182881 0.2335646 0.2938832
v 0.1270851 0.5405836 0.5515026
v 0.07060284 0.3003242 0.3063903
v -0.01839394 0.5747184 0.5292853
v -0.01021885 0.319288 0.2940474
v 0.02969879 0.418584 0.6536641
v 0.01649933 0.2325467 0.3631467
v 0.01522648 0.1713783 0.3927587
v 0.02740766 0.308481 0.7069657
v -0.1307078 0.2887663 0.703578
v -0.07261543 0.1604257 0.3908767
v 0.3694474 0.4898109 0.4869632
v 0.2052485 0.2721172 0.2705351
v 0.1481748 0.2826202 0.295634
v 0.2667147 0.5087163 0.5321413
v 0.2468936 0.603305 0.4257978
v 0.1371631 0.3351695 0.2365543
vt 0 0
vt 0.07430402 0
vt 0.1799703 0
vt 0.9080305 0
vt 0.8207235 0
vt 0.6172522 0
vt 0.7784011 0
vt 0.3662279 0
vt 0.544829 0
vt 0.4691235 0
vt 0.2598367 0
vt 0.6892616 0
vt 0 1
vt 0.07430402 1
vt 0.1799703 1
vt 0.9080305 1
vt 0.8207235 1
vt 0.7784011 1
vt 0.544829 1
vt 0.6172522 1
vt 0.4691235 1
vt 0.3662279 1
vt 0.2598367 1
vt 0.6892616 1
vt 0.07430402 0
vt 0.07430402 1
vt 1 1
vt 1 0
vt 0.9080305 1
vt 0.9080305 0
vt 0.8207235 1
vt 0.8207235 0
vt 0.544829 1
vt 0.544829 0
vt 0.4691235 1
vt 0.4691235 0
vt 0.3662279 1
vt 0.3662279 0
vt 0.1799703 0
vt 0.1799703 1
vt 0.2598367 1
vt 0.2598367 0
vt 0.7784011 1
vt 0.7784011 0
vt 0.6172522 0
vt 0.6172522 1
vt 0.6892616 1
vt 0.6892616 0
vn -0.2881831 0.9498338 -0.121517
vn -0.2881831 0.9498338 -0.121517
vn 0.8027294 0.5345431 -0.2643655
vn -0.5518034 0.833806 0.0167516
vn -0.83899 0.1148713 0.5318837
vn -0.06310052 -0.7054104 0.7059847
vn -0.8242205 0.06209987 0.5628536
vn 0.9720994 0.1749813 -0.1562187
vn -0.06310052 -0.7054104 0.7059847
vn -0.2622176 -0.6582571 0.7056483
vn 0.6496739 -0.6532621 0.388809
vn -0.6177459 -0.2687777 0.7390186
vn -0.2881831 0.9498338 -0.121517
vn -0.2881831 0.9498338 -0.121517
vn 0.8027294 0.5345431 -0.2643655
vn -0.5518033 0.833806 0.01675159
vn -0.83899 0.1148713 0.5318837
vn -0.8242205 0.06209987 0.5628536
vn -0.06310053 -0.7054104 0.7059848
vn -0.06310052 -0.7054104 0.7059848
vn -0.2622176 -0.6582571 0.7056483
vn 0.9720994 0.1749813 -0.1562187
vn 0.6496739 -0.6532622 0.388809
vn -0.6177459 -0.2687777 0.7390186
vn 0.8027294 0.5345431 -0.2643655
vn 0.8027294 0.5345432 -0.2643655
vn -0.5518032 0.8338061 0.01675159
vn -0.5518033 0.833806 0.01675159
vn -0.83899 0.1148713 0.5318837
vn -0.8389901 0.1148713 0.5318836
vn -0.8242205 0.06209987 0.5628536
vn -0.8242205 0.06209988 0.5628536
vn -0.2622176 -0.6582571 0.7056482
vn -0.2622176 -0.6582571 0.7056483
vn 0.9720994 0.1749813 -0.1562186
vn 0.9720994 0.1749813 -0.1562187
vn 0.6496739 -0.6532621 0.388809
vn 0.6496739 -0.6532621 0.388809
vn -0.1053824 0.9129331 -0.3942684
vn -0.1053824 0.9129331 -0.3942685
vn -0.1053824 0.9129331 -0.3942685
vn -0.1053824 0.9129332 -0.3942684
vn -0.6177459 -0.2687777 0.7390187
vn -0.6177459 -0.2687777 0.7390186
vn 0.9351794 -0.1595368 -0.3162079
vn 0.9351794 -0.1595368 -0.3162079
vn 0.9351794 -0.1595368 -0.3162079
vn 0.9351794 -0.1595368 -0.3162079
g shard6_0
f 14/14/14 13/13/13 1/1/1
f 2/2/2 14/14/14 1/1/1
f 15/15/15 26/26/26 25/25/25
f 3/3/3 15/15/15 25/25/25
f 27/27/27 16/16/16 4/4/4
f 28/28/28 27/27/27 4/4/4
f 29/29/29 17/17/17 5/5/5
f 30/30/30 29/29/29 5/5/5
f 31/31/31 18/18/18 7/7/7
f 32/32/32 31/31/31 7/7/7
f 20/20/20 19/19/19 9/9/9
f 6/6/6 20/20/20 9/9/9
f 33/33/33 21/21/21 10/10/10
f 34/34/34 33/33/33 10/10/10
f 35/35/35 22/22/22 8/8/8
f 36/36/36 35/35/35 8/8/8
f 37/37/37 23/23/23 11/11/11
f 38/38/38 37/37/37 11/11/11
f 41/41/41 40/40/40 39/39/39
f 42/42/42 41/41/41 39/39/39
f 43/43/43 24/24/24 12/12/12
f 44/44/44 43/43/43 12/12/12
f 47/47/47 46/46/46 45/45/45
f 48/48/48 47/47/47 45/45/45
