g shard110
v -0.085037604 -0.025805164 0.010838956
v -0.086341806 -0.025910065 -0.009070128
v -0.00444081 0.0913949 -0.0075117648
v -0.0042002765 0.08986641 0.012390584
v -0.0042002765 0.08986641 0.012390584
v -0.00444081 0.0913949 -0.0075117648
v 0.06872018 0.07312822 -0.0057006776
v 0.067626566 0.071420856 0.014195681
v 0.067626566 0.071420856 0.014195681
v 0.06872018 0.07312822 -0.0057006776
v 0.06982658 0.008118034 -0.0108552575
v 0.06797864 0.00780447 0.009003431
v 0.086341806 -0.0913949 -0.0038558543
v 0.084253356 -0.09005335 0.015983015
v 0.084253356 -0.09005335 0.015983015
v 0.086341806 -0.0913949 -0.0038558543
v 0.014134868 -0.08125239 -0.010840476
v 0.013864413 -0.07967125 0.0090427995
v -0.086341806 -0.025910065 -0.009070128
v -0.085037604 -0.025805164 0.010838956
v 0.018695738 -0.015751215 -0.015983015
v 0.014134868 -0.08125239 -0.010840476
v 0.086341806 -0.0913949 -0.0038558543
v 0.06982658 0.008118034 -0.0108552575
v -0.086341806 -0.025910065 -0.009070128
v 0.06872018 0.07312822 -0.0057006776
v -0.00444081 0.0913949 -0.0075117648
v 0.018337954 -0.015662644 0.004013598
v 0.084253356 -0.09005335 0.015983015
v 0.013864413 -0.07967125 0.0090427995
v 0.06797864 0.00780447 0.009003431
v -0.085037604 -0.025805164 0.010838956
v 0.067626566 0.071420856 0.014195681
v -0.0042002765 0.08986641 0.012390584
vt 0.46875 0.625
vt 0.46875 0.625
vt 0.5 0.59375
vt 0.5 0.59375
vt 0.5 0.59375
vt 0.5 0.59375
vt 0.53125 0.59375
vt 0.53125 0.59375
vt 0.53125 0.59375
vt 0.53125 0.59375
vt 0.53125 0.625
vt 0.53125 0.625
vt 0.53125 0.65625
vt 0.53125 0.65625
vt 0.53125 0.65625
vt 0.53125 0.65625
vt 0.5 0.65625
vt 0.5 0.65625
vt 0.46875 0.625
vt 0.46875 0.625
vt 0.5 0.625
vt 0.5 0.65625
vt 0.53125 0.65625
vt 0.53125 0.625
vt 0.46875 0.625
vt 0.53125 0.59375
vt 0.5 0.59375
vt 0.5 0.625
vt 0.53125 0.65625
vt 0.5 0.65625
vt 0.53125 0.625
vt 0.46875 0.625
vt 0.53125 0.59375
vt 0.5 0.59375
vn -0.81901115 0.5713972 0.052211076
vn -0.81901115 0.5713972 0.052211076
vn -0.81901115 0.5713972 0.052211076
vn -0.81901115 0.5713972 0.052211076
vn 0.24263518 0.96649307 0.083781876
vn 0.2426352 0.96649307 0.08378188
vn 0.24263518 0.96649307 0.083781876
vn 0.24263518 0.96649307 0.08378188
vn 0.9972395 0.005350148 0.074059546
vn 0.9972395 0.005350148 0.07405953
vn 0.990712 0.10549877 0.08578952
vn 0.99068564 0.10572501 0.085815154
vn 0.9811287 0.16957816 0.092896864
vn 0.9811287 0.16957815 0.09289686
vn -0.14827879 -0.98688495 0.063808136
vn -0.14827882 -0.98688495 0.063808136
vn -0.35580283 -0.9328864 0.055921227
vn -0.35523137 -0.93310267 0.05594752
vn -0.47912556 -0.87634504 0.0495785
vn -0.47912553 -0.87634504 0.049578495
vn -0.004383282 0.0072644195 -0.999964
vn 0.013458265 -0.07919402 -0.99676836
vn 0.102717094 -0.067249574 -0.99243474
vn 0.09379153 0.012948886 -0.9955076
vn -0.067887224 0.023194825 -0.9974233
vn 0.049218748 0.08740311 -0.99495643
vn -0.016371856 0.075292304 -0.9970271
vn 0.0045969845 -0.007694328 0.9999598
vn -0.103751935 0.067728 0.99229455
vn -0.013698971 0.07927343 0.99675876
vn -0.09377092 -0.013318513 0.9955048
vn 0.06818812 -0.02380611 0.9973884
vn -0.04993322 -0.088060714 0.99486274
vn 0.016184805 -0.075686075 0.9970003
g shard110_0
f 3/3/3 2/2/2 1/1/1
f 4/4/4 3/3/3 1/1/1
f 7/7/7 6/6/6 5/5/5
f 8/8/8 7/7/7 5/5/5
f 11/11/11 10/10/10 9/9/9
f 12/12/12 11/11/11 9/9/9
f 13/13/13 11/11/11 12/12/12
f 14/14/14 13/13/13 12/12/12
f 17/17/17 16/16/16 15/15/15
f 18/18/18 17/17/17 15/15/15
f 19/19/19 17/17/17 18/18/18
f 20/20/20 19/19/19 18/18/18
f 23/23/23 22/22/22 21/21/21
f 23/23/23 21/21/21 24/24/24
f 22/22/22 25/25/25 21/21/21
f 26/26/26 24/24/24 21/21/21
f 27/27/27 21/21/21 25/25/25
f 26/26/26 21/21/21 27/27/27
f 30/30/30 29/29/29 28/28/28
f 28/28/28 29/29/29 31/31/31
f 32/32/32 30/30/30 28/28/28
f 31/31/31 33/33/33 28/28/28
f 28/28/28 34/34/34 32/32/32
f 28/28/28 33/33/33 34/34/34
