g shard10
v -0.091042615 -0.29575077 -0.30488583
v -0.16387671 -0.5323514 -0.5487945
v -0.24326472 -0.61823666 -0.40472838
v -0.13514706 -0.3434648 -0.2248491
v 0.004213017 -0.3073053 -0.30970052
v 0.0075834305 -0.5531496 -0.5574609
v -0.16387671 -0.5323514 -0.5487945
v -0.091042615 -0.29575077 -0.30488583
v -0.13514706 -0.3434648 -0.2248491
v -0.24326472 -0.61823666 -0.40472838
v -0.1637033 -0.69881225 -0.2831876
v -0.09094627 -0.388229 -0.15732644
v -0.09094627 -0.388229 -0.15732644
v -0.1637033 -0.69881225 -0.2831876
v -0.019258272 -0.7400913 -0.18898076
v -0.010699039 -0.41116184 -0.104989305
v -0.010699039 -0.41116184 -0.104989305
v -0.019258272 -0.7400913 -0.18898076
v -0.1307431 -0.7519641 -0.0030682678
v -0.072635055 -0.41775784 -0.0017045933
v 0.06991715 -0.30247203 -0.3052255
v 0.12585087 -0.5444496 -0.5494059
v 0.0075834305 -0.5531496 -0.5574609
v 0.004213017 -0.3073053 -0.30970052
v 0.13165554 -0.3366651 -0.23694222
v 0.23697998 -0.6059972 -0.42649597
v 0.12585087 -0.5444496 -0.5494059
v 0.06991715 -0.30247203 -0.3052255
v 0.08211203 -0.38965735 -0.16188268
v 0.14780165 -0.70138323 -0.2913888
v 0.23697998 -0.6059972 -0.42649597
v 0.13165554 -0.3366651 -0.23694222
v 0.09221756 -0.40392914 -0.0997755
v 0.1659916 -0.7270725 -0.1795959
v 0.14780165 -0.70138323 -0.2913888
v 0.08211203 -0.38965735 -0.16188268
v 0.08973645 -0.41501072 0.013906753
v 0.1615256 -0.7470193 0.025032155
v 0.1659916 -0.7270725 -0.1795959
v 0.09221756 -0.40392914 -0.0997755
v 0.017520793 -0.42250475 0.007018576
v 0.03153743 -0.76050854 0.012633437
v 0.1615256 -0.7470193 0.025032155
v 0.08973645 -0.41501072 0.013906753
v -0.009811387 -0.4162674 0.085280396
v -0.017660499 -0.7492813 0.15350471
v 0.03153743 -0.76050854 0.012633437
v 0.017520793 -0.42250475 0.007018576
v -0.072635055 -0.41775784 -0.0017045933
v -0.1307431 -0.7519641 -0.0030682678
v -0.017660499 -0.7492813 0.15350471
v -0.009811387 -0.4162674 0.085280396
vt 0 0
vt 0 1
vt 0.08440796 1
vt 0.08440796 0
vt 0.08440796 0
vt 0.08440796 1
vt 0.16307124 1
vt 0.16307124 0
vt 0.92443806 0
vt 0.92443806 1
vt 1 1
vt 1 0
vt 0.84377867 0
vt 0.84377867 1
vt 0.92443806 1
vt 0.92443806 0
vt 0.7450246 0
vt 0.7450246 1
vt 0.84377867 1
vt 0.84377867 0
vt 0.16307124 0
vt 0.16307124 1
vt 0.21713768 1
vt 0.21713768 0
vt 0.21713768 0
vt 0.21713768 1
vt 0.2975419 1
vt 0.2975419 0
vt 0.2975419 0
vt 0.2975419 1
vt 0.38301125 1
vt 0.38301125 0
vt 0.38301125 0
vt 0.38301125 1
vt 0.43584025 1
vt 0.43584025 0
vt 0.43584025 0
vt 0.43584025 1
vt 0.5293835 1
vt 0.5293835 0
vt 0.5293835 0
vt 0.5293835 1
vt 0.5890962 1
vt 0.5890962 0
vt 0.5890962 0
vt 0.5890962 1
vt 0.65716213 1
vt 0.65716213 0
vt 0.65716213 0
vt 0.65716213 1
vt 0.7450246 1
vt 0.7450246 0
vn 0.86189926 -0.46758422 0.19620064
vn 0.8618992 -0.46758422 0.19620064
vn 0.8618992 -0.4675842 0.19620064
vn 0.8618992 -0.46758422 0.19620062
vn -0.050497863 -0.7092841 0.7031117
vn -0.050497863 -0.7092841 0.70311177
vn -0.050497863 -0.7092841 0.7031117
vn -0.050497863 -0.7092841 0.70311165
vn 0.8427043 0.020601284 -0.53798234
vn 0.84270436 0.020601284 -0.53798234
vn 0.84270436 0.020601284 -0.53798234
vn 0.84270436 0.020601284 -0.53798234
vn 0.57372427 0.18859339 -0.79704016
vn 0.57372427 0.18859339 -0.79704016
vn 0.5737242 0.18859339 -0.7970401
vn 0.57372427 0.18859339 -0.7970401
vn 0.8520928 -0.1501982 0.5013765
vn 0.8520928 -0.15019818 0.50137645
vn 0.8520928 -0.15019818 0.50137645
vn 0.8520928 -0.15019818 0.50137645
vn 0.0042407163 -0.709811 0.7043793
vn 0.004240716 -0.709811 0.7043793
vn 0.0042407163 -0.70981103 0.7043793
vn 0.0042407163 -0.70981103 0.7043793
vn -0.7349362 -0.55830604 0.38491973
vn -0.7349362 -0.55830604 0.38491973
vn -0.7349362 -0.558306 0.38491973
vn -0.7349361 -0.55830604 0.38491973
vn -0.8471135 0.041586258 -0.5297824
vn -0.8471135 0.041586258 -0.5297824
vn -0.8471135 0.04158626 -0.5297824
vn -0.8471135 0.041586258 -0.5297824
vn -0.96428996 -0.2449986 0.10060179
vn -0.96428996 -0.2449986 0.100601785
vn -0.96428996 -0.24499857 0.100601785
vn -0.96428996 -0.24499857 0.100601785
vn -0.97625685 -0.21250097 -0.042020995
vn -0.97625685 -0.21250097 -0.042021
vn -0.97625685 -0.21250097 -0.04202099
vn -0.97625685 -0.21250099 -0.042020995
vn 0.0962348 -0.012542672 -0.99527967
vn 0.09623479 -0.0125426715 -0.99527967
vn 0.09623479 -0.0125426715 -0.99527967
vn 0.0962348 -0.0125426715 -0.99527967
vn -0.9442439 -0.04457576 -0.32621545
vn -0.9442439 -0.044575762 -0.32621542
vn -0.9442439 -0.04457576 -0.32621548
vn -0.9442439 -0.044575755 -0.32621545
vn 0.8040964 -0.13744724 -0.5783919
vn 0.8040964 -0.13744724 -0.5783919
vn 0.8040964 -0.13744724 -0.5783919
vn 0.80409634 -0.13744724 -0.57839197
g shard10_0
f 3/3/3 2/2/2 1/1/1
f 4/4/4 3/3/3 1/1/1
f 7/7/7 6/6/6 5/5/5
f 8/8/8 7/7/7 5/5/5
f 11/11/11 10/10/10 9/9/9
f 12/12/12 11/11/11 9/9/9
f 15/15/15 14/14/14 13/13/13
f 16/16/16 15/15/15 13/13/13
f 19/19/19 18/18/18 17/17/17
f 20/20/20 19/19/19 17/17/17
f 23/23/23 22/22/22 21/21/21
f 24/24/24 23/23/23 21/21/21
f 27/27/27 26/26/26 25/25/25
f 28/28/28 27/27/27 25/25/25
f 31/31/31 30/30/30 29/29/29
f 32/32/32 31/31/31 29/29/29
f 35/35/35 34/34/34 33/33/33
f 36/36/36 35/35/35 33/33/33
f 39/39/39 38/38/38 37/37/37
f 40/40/40 39/39/39 37/37/37
f 43/43/43 42/42/42 41/41/41
f 44/44/44 43/43/43 41/41/41
f 47/47/47 46/46/46 45/45/45
f 48/48/48 47/47/47 45/45/45
f 51/51/51 50/50/50 49/49/49
f 52/52/52 51/51/51 49/49/49
