g shard36
v 0.23817123 0.15834251 -0.32563418
v 0.42870823 0.28501654 -0.5861415
v 0.29190254 0.18171507 -0.69025576
v 0.16216809 0.10095282 -0.38347542
v 0.22290969 0.08480853 -0.35967422
v 0.40123743 0.15265535 -0.6474136
v 0.42870823 0.28501654 -0.5861415
v 0.23817123 0.15834251 -0.32563418
v 0.30553886 0.05780556 -0.30226186
v 0.54997 0.10405001 -0.5440713
v 0.40123743 0.15265535 -0.6474136
v 0.22290969 0.08480853 -0.35967422
v 0.24928255 -0.0069902902 -0.3545807
v 0.4487086 -0.012582522 -0.6382452
v 0.54997 0.10405001 -0.5440713
v 0.30553886 0.05780556 -0.30226186
v 0.16216809 0.10095282 -0.38347542
v 0.29190254 0.18171507 -0.69025576
v 0.121716276 0.14032912 -0.7417314
v 0.06762015 0.077960625 -0.41207302
v 0.06762015 0.077960625 -0.41207302
v 0.121716276 0.14032912 -0.7417314
v 0.12235001 0.025819631 -0.7510775
v 0.06797223 0.01434424 -0.41726527
v 0.06797223 0.01434424 -0.41726527
v 0.12235001 0.025819631 -0.7510775
v 0.1516445 -0.15032443 -0.7385142
v 0.08424694 -0.08351358 -0.41028568
v 0.08424694 -0.08351358 -0.41028568
v 0.1516445 -0.15032443 -0.7385142
v 0.16856249 -0.305382 -0.6898571
v 0.093645826 -0.16965668 -0.38325396
v 0.093645826 -0.16965668 -0.38325396
v 0.16856249 -0.305382 -0.6898571
v 0.2691772 -0.30862635 -0.6583048
v 0.1495429 -0.1714591 -0.3657249
v 0.28746724 -0.08068861 -0.31395674
v 0.51744103 -0.1452395 -0.5651221
v 0.4487086 -0.012582522 -0.6382452
v 0.24928255 -0.0069902902 -0.3545807
v 0.22406943 -0.15218948 -0.33858004
v 0.40332496 -0.27394107 -0.6094441
v 0.51744103 -0.1452395 -0.5651221
v 0.28746724 -0.08068861 -0.31395674
v 0.1495429 -0.1714591 -0.3657249
v 0.2691772 -0.30862635 -0.6583048
v 0.40332496 -0.27394107 -0.6094441
v 0.22406943 -0.15218948 -0.33858004
vt 0 0
vt 0 1
vt 0.10266312 1
vt 0.10266312 0
vt 0.10266312 0
vt 0.10266312 1
vt 0.17863421 1
vt 0.17863421 0
vt 0.17863421 0
vt 0.17863421 1
vt 0.27461907 1
vt 0.27461907 0
vt 0.27461907 0
vt 0.27461907 1
vt 0.3672171 1
vt 0.3672171 0
vt 0.9065567 0
vt 0.9065567 1
vt 1 1
vt 1 0
vt 0.8477473 0
vt 0.8477473 1
vt 0.9065567 1
vt 0.9065567 0
vt 0.7561207 0
vt 0.7561207 1
vt 0.8477473 1
vt 0.8477473 0
vt 0.6724863 0
vt 0.6724863 1
vt 0.7561207 1
vt 0.7561207 0
vt 0.6184864 0
vt 0.6184864 1
vt 0.6724863 1
vt 0.6724863 0
vt 0.3672171 0
vt 0.3672171 1
vt 0.45236108 1
vt 0.45236108 0
vt 0.45236108 0
vt 0.45236108 1
vt 0.5432819 1
vt 0.5432819 0
vt 0.5432819 0
vt 0.5432819 1
vt 0.6184864 1
vt 0.6184864 0
vn 0.58546144 -0.8099719 0.034354877
vn 0.58546144 -0.8099719 0.034354877
vn 0.5854615 -0.8099719 0.03435488
vn 0.5854615 -0.8099719 0.03435488
vn -0.8265938 0.3684795 -0.42540053
vn -0.8265938 0.36847946 -0.42540053
vn -0.8265938 0.36847943 -0.4254005
vn -0.8265938 0.36847952 -0.42540053
vn -0.10827369 -0.9505074 -0.29122567
vn -0.10827371 -0.9505075 -0.29122567
vn -0.10827369 -0.9505074 -0.2912257
vn -0.10827371 -0.9505075 -0.29122567
vn -0.5223884 0.7622136 -0.38228366
vn -0.5223884 0.7622136 -0.38228366
vn -0.5223884 0.7622136 -0.3822836
vn -0.5223884 0.7622136 -0.3822836
vn 0.27261522 -0.95253724 -0.13547626
vn 0.27261522 -0.95253724 -0.13547626
vn 0.2726152 -0.95253724 -0.13547625
vn 0.27261522 -0.95253724 -0.13547625
vn 0.987003 -0.00763889 0.16051948
vn 0.987003 -0.00763889 0.1605195
vn 0.987003 -0.0076388894 0.1605195
vn 0.987003 -0.007638889 0.16051948
vn 0.97110915 0.1732127 0.16414756
vn 0.97110915 0.1732127 0.16414757
vn 0.97110915 0.17321272 0.16414756
vn 0.97110915 0.17321272 0.16414756
vn 0.97301346 0.15872122 0.16748825
vn 0.97301346 0.15872122 0.16748828
vn 0.97301346 0.15872124 0.16748826
vn 0.97301346 0.15872121 0.16748826
vn 0.14575644 0.9173381 -0.37046725
vn 0.14575644 0.9173381 -0.37046725
vn 0.14575644 0.9173381 -0.3704673
vn 0.14575644 0.9173381 -0.37046722
vn -0.66337353 -0.5943245 -0.45465794
vn -0.66337353 -0.5943245 -0.45465794
vn -0.66337353 -0.5943245 -0.454658
vn -0.66337353 -0.59432447 -0.45465794
vn -0.481523 0.6349881 -0.60409075
vn -0.481523 0.6349881 -0.6040908
vn -0.48152298 0.6349882 -0.60409075
vn -0.48152307 0.6349882 -0.60409075
vn -0.06819138 0.89232093 -0.44622105
vn -0.06819138 0.89232093 -0.44622105
vn -0.06819139 0.89232093 -0.44622105
vn -0.06819139 0.892321 -0.44622102
g shard36_0
f 3/3/3 2/2/2 1/1/1
f 4/4/4 3/3/3 1/1/1
f 7/7/7 6/6/6 5/5/5
f 8/8/8 7/7/7 5/5/5
f 11/11/11 10/10/10 9/9/9
f 12/12/12 11/11/11 9/9/9
f 15/15/15 14/14/14 13/13/13
f 16/16/16 15/15/15 13/13/13
f 19/19/19 18/18/18 17/17/17
f 20/20/20 19/19/19 17/17/17
f 23/23/23 22/22/22 21/21/21
f 24/24/24 23/23/23 21/21/21
f 27/27/27 26/26/26 25/25/25
f 28/28/28 27/27/27 25/25/25
f 31/31/31 30/30/30 29/29/29
f 32/32/32 31/31/31 29/29/29
f 35/35/35 34/34/34 33/33/33
f 36/36/36 35/35/35 33/33/33
f 39/39/39 38/38/38 37/37/37
f 40/40/40 39/39/39 37/37/37
f 43/43/43 42/42/42 41/41/41
f 44/44/44 43/43/43 41/41/41
f 47/47/47 46/46/46 45/45/45
f 48/48/48 47/47/47 45/45/45
