g shard29
v -0.2670323 0.226385 -0.2567239
v -0.2220973 0.2636703 -0.2646249
v -0.1437951 0.2877961 -0.2930376
v -0.1756452 0.1571734 -0.3613801
v -0.2372281 0.146998 -0.3319417
v -0.2795062 0.1501003 -0.2972769
v -0.08845791 0.2520733 -0.3402017
v 0.0008571441 0.298681 -0.3168429
v 0.00547409 0.2426694 -0.3595824
v 0.01370355 0.1793523 -0.3890547
v -0.08050352 0.09552129 -0.4076177
v -0.004206691 0.09640618 -0.4138781
v 0.0673317 0.2360709 -0.3562144
v 0.08064698 0.1798554 -0.3816783
v 0.06762015 0.07796063 -0.412073
v 0.1621681 0.1009528 -0.3834754
v -0.3997751 0.4746065 -0.4763247
v -0.4806581 0.407493 -0.462103
v -0.2588313 0.518033 -0.5274676
v -0.3161614 0.2829122 -0.6504842
v -0.4270105 0.2645963 -0.5974951
v -0.5031112 0.2701806 -0.5350983
v -0.1592242 0.453732 -0.612363
v 0.001542859 0.5376258 -0.5703171
v 0.009853362 0.436805 -0.6472483
v 0.0246664 0.3228342 -0.7002985
v -0.1449063 0.1719383 -0.7337118
v -0.007572045 0.1735311 -0.7449806
v 0.1211971 0.4249277 -0.641186
v 0.1451646 0.3237397 -0.687021
v 0.1217163 0.1403291 -0.7417314
v 0.2919025 0.1817151 -0.6902558
v -0.3997751 0.4746065 -0.4763247
v -0.2220973 0.2636703 -0.2646249
v -0.2670323 0.226385 -0.2567239
v -0.4806581 0.407493 -0.462103
v -0.2795062 0.1501003 -0.2972769
v -0.5031112 0.2701806 -0.5350983
v -0.4270105 0.2645963 -0.5974951
v -0.2372281 0.146998 -0.3319417
v -0.2588313 0.518033 -0.5274676
v -0.1437951 0.2877961 -0.2930376
v -0.1592242 0.453732 -0.612363
v -0.08845791 0.2520733 -0.3402017
v 0.001542859 0.5376258 -0.5703171
v 0.0008571441 0.298681 -0.3168429
v 0.009853362 0.436805 -0.6472483
v 0.00547409 0.2426694 -0.3595824
v -0.1756452 0.1571734 -0.3613801
v -0.3161614 0.2829122 -0.6504842
v -0.08050352 0.09552129 -0.4076177
v -0.1449063 0.1719383 -0.7337118
v 0.0246664 0.3228342 -0.7002985
v 0.01370355 0.1793523 -0.3890547
v 0.1211971 0.4249277 -0.641186
v 0.0673317 0.2360709 -0.3562144
v -0.004206691 0.09640618 -0.4138781
v -0.007572045 0.1735311 -0.7449806
v 0.1451646 0.3237397 -0.687021
v 0.08064698 0.1798554 -0.3816783
v 0.06762015 0.07796063 -0.412073
v 0.1217163 0.1403291 -0.7417314
v 0.2919025 0.1817151 -0.6902558
v 0.1621681 0.1009528 -0.3834754
vt 0.04470741 0
vt 0 0
vt 0.04470741 0
vt 0.8922181 0
vt 0.8398548 0
vt 1 0
vt 0.1105079 0
vt 0.1719757 0
vt 0.2504444 0
vt 0.3040178 0
vt 0.8398548 0
vt 0.7469546 0
vt 0.3573764 0
vt 0.4216315 0
vt 0.6888652 0
vt 0.469535 0
vt 0 1
vt 0.04470741 1
vt 0.04470741 1
vt 0.8922181 1
vt 0.8398548 1
vt 1 1
vt 0.1105079 1
vt 0.1719757 1
vt 0.2504444 1
vt 0.3040178 1
vt 0.8398548 1
vt 0.7469546 1
vt 0.3573764 1
vt 0.4216315 1
vt 0.6888652 1
vt 0.469535 1
vt 0.1105079 1
vt 0.1105079 0
vt 0.9337681 0
vt 0.9337681 1
vt 0.8922181 0
vt 0.8922181 1
vt 0.9337681 1
vt 0.9337681 0
vt 0.1719757 1
vt 0.1719757 0
vt 0.2504444 1
vt 0.2504444 0
vt 0.3040178 1
vt 0.3040178 0
vt 0.3573764 1
vt 0.3573764 0
vt 0.7469546 0
vt 0.7469546 1
vt 0.6888652 0
vt 0.6888652 1
vt 0.4216315 1
vt 0.4216315 0
vt 0.469535 1
vt 0.469535 0
vt 0.6325808 0
vt 0.6325808 1
vt 0.5556284 1
vt 0.5556284 0
vt 0.5556284 0
vt 0.5556284 1
vt 0.6325808 1
vt 0.6325808 0
vn 0.304829 -0.5344229 -0.7883346
vn 0.304829 -0.5344229 -0.7883346
vn -0.02950804 -0.7203487 -0.6929842
vn 0.03193286 0.9221382 0.3855406
vn 0.03193287 0.9221382 0.3855406
vn 0.7623826 0.2021363 -0.6147467
vn -0.6873814 -0.6575346 -0.3084719
vn 0.4881358 -0.6357318 -0.5979704
vn -0.9978211 -0.04664027 -0.04666617
vn -0.992642 -0.09282329 -0.07775463
vn 0.5689923 0.8184977 0.07943243
vn 0.007312855 0.9739177 0.226784
vn 0.7712245 -0.5879866 -0.2438944
vn -0.9603206 -0.1117065 -0.2555502
vn 0.2376035 0.9465669 0.2180724
vn -0.6309006 -0.6419125 -0.4357901
vn 0.304829 -0.5344229 -0.7883346
vn 0.304829 -0.5344229 -0.7883346
vn -0.02950804 -0.7203487 -0.6929842
vn 0.03193287 0.9221382 0.3855406
vn 0.03193286 0.9221382 0.3855405
vn 0.7623827 0.2021363 -0.6147467
vn -0.6873814 -0.6575346 -0.3084719
vn 0.4881358 -0.6357318 -0.5979703
vn -0.9978211 -0.04664027 -0.04666617
vn -0.992642 -0.09282328 -0.07775463
vn 0.5689923 0.8184975 0.07943241
vn 0.007312855 0.9739177 0.226784
vn 0.7712245 -0.5879867 -0.2438944
vn -0.9603206 -0.1117065 -0.2555502
vn 0.2376035 0.9465669 0.2180723
vn -0.6309006 -0.6419125 -0.4357901
vn -0.02950804 -0.7203487 -0.6929842
vn -0.02950804 -0.7203486 -0.6929842
vn 0.7623827 0.2021363 -0.6147467
vn 0.7623826 0.2021363 -0.6147467
vn 0.2581739 0.938095 0.23092
vn 0.2581739 0.938095 0.23092
vn 0.2581739 0.9380949 0.23092
vn 0.2581739 0.938095 0.23092
vn -0.6873814 -0.6575347 -0.308472
vn -0.6873814 -0.6575346 -0.3084719
vn 0.4881358 -0.6357318 -0.5979704
vn 0.4881358 -0.6357318 -0.5979703
vn -0.9978211 -0.04664027 -0.04666616
vn -0.9978211 -0.04664027 -0.04666617
vn -0.992642 -0.09282327 -0.07775462
vn -0.992642 -0.09282328 -0.07775463
vn 0.5689923 0.8184977 0.07943243
vn 0.5689923 0.8184975 0.07943241
vn 0.007312855 0.9739177 0.226784
vn 0.007312855 0.9739177 0.226784
vn 0.7712245 -0.5879867 -0.2438944
vn 0.7712245 -0.5879866 -0.2438944
vn -0.9603206 -0.1117066 -0.2555502
vn -0.9603206 -0.1117066 -0.2555502
vn 0.2376035 0.9465669 0.2180723
vn 0.2376035 0.9465669 0.2180724
vn -0.6309006 -0.6419125 -0.4357901
vn -0.6309006 -0.6419125 -0.4357901
vn -0.2726152 0.9525372 0.1354763
vn -0.2726152 0.9525372 0.1354763
vn -0.2726152 0.9525372 0.1354762
vn -0.2726152 0.9525372 0.1354763
g shard29_0
f 18/18/18 17/17/17 2/2/2
f 1/1/1 18/18/18 2/2/2
f 33/33/33 19/19/19 3/3/3
f 34/34/34 33/33/33 3/3/3
f 20/20/20 21/21/21 5/5/5
f 4/4/4 20/20/20 5/5/5
f 22/22/22 36/36/36 35/35/35
f 6/6/6 22/22/22 35/35/35
f 39/39/39 38/38/38 37/37/37
f 40/40/40 39/39/39 37/37/37
f 41/41/41 23/23/23 7/7/7
f 42/42/42 41/41/41 7/7/7
f 43/43/43 24/24/24 8/8/8
f 44/44/44 43/43/43 8/8/8
f 45/45/45 25/25/25 9/9/9
f 46/46/46 45/45/45 9/9/9
f 47/47/47 26/26/26 10/10/10
f 48/48/48 47/47/47 10/10/10
f 27/27/27 50/50/50 49/49/49
f 11/11/11 27/27/27 49/49/49
f 28/28/28 52/52/52 51/51/51
f 12/12/12 28/28/28 51/51/51
f 53/53/53 29/29/29 13/13/13
f 54/54/54 53/53/53 13/13/13
f 55/55/55 30/30/30 14/14/14
f 56/56/56 55/55/55 14/14/14
f 31/31/31 58/58/58 57/57/57
f 15/15/15 31/31/31 57/57/57
f 59/59/59 32/32/32 16/16/16
f 60/60/60 59/59/59 16/16/16
f 63/63/63 62/62/62 61/61/61
f 64/64/64 63/63/63 61/61/61
