g shard11
v -0.2694333 0.2233588 0.2564199
v -0.2122341 0.201425 0.3193688
v -0.2537535 0.2397499 0.2578577
v -0.2055884 0.3137607 0.219226
v -0.2478477 0.3241364 0.1450105
v -0.3094471 0.2932835 0.08295944
v -0.2480796 0.3468408 0.07816527
v -0.4061702 0.09943162 0.08437836
v -0.3958785 0.01233564 0.1632244
v -0.3829015 0.08268195 0.1766544
v -0.3861139 0.1748974 0.05977026
v -0.351391 0.0951073 0.2334488
v -0.3403702 0.1453855 0.2250916
v -0.3009473 0.2119822 0.2304982
v -0.3614484 0.2364864 -0.01192888
v -0.3403452 0.2499103 0.09311729
v -0.3820214 0.362565 0.5748639
v -0.48498 0.4020458 0.4615559
v -0.4567564 0.4315498 0.4641439
v -0.3700591 0.5647693 0.3946069
v -0.4461259 0.5834455 0.261019
v -0.4465433 0.6243134 0.1406975
v -0.5570047 0.5279103 0.149327
v -0.7125813 0.02220416 0.2938039
v -0.7311064 0.1789769 0.1518811
v -0.6892226 0.1488275 0.3179779
v -0.6950051 0.3148153 0.1075865
v -0.6126663 0.2616938 0.4051649
v -0.6325039 0.1711932 0.4202078
v -0.5417051 0.381568 0.4148967
v -0.6506071 0.4256756 -0.02147198
v -0.6126214 0.4498386 0.1676111
v -0.3820214 0.362565 0.5748639
v -0.2122341 0.201425 0.3193688
v -0.4567564 0.4315498 0.4641439
v -0.2537535 0.2397499 0.2578577
v -0.3700591 0.5647693 0.3946069
v -0.2055884 0.3137607 0.219226
v -0.4461259 0.5834455 0.261019
v -0.2478477 0.3241364 0.1450105
v -0.4465433 0.6243134 0.1406975
v -0.2480796 0.3468408 0.07816527
v -0.7125813 0.02220416 0.2938039
v -0.3958785 0.01233564 0.1632244
v -0.4061702 0.09943162 0.08437836
v -0.7311064 0.1789769 0.1518811
v -0.351391 0.0951073 0.2334488
v -0.6325039 0.1711932 0.4202078
v -0.6892226 0.1488275 0.3179779
v -0.3829015 0.08268195 0.1766544
v -0.6126663 0.2616938 0.4051649
v -0.3403702 0.1453855 0.2250916
v -0.2694333 0.2233588 0.2564199
v -0.48498 0.4020458 0.4615559
v -0.5417051 0.381568 0.4148967
v -0.3009473 0.2119822 0.2304982
v -0.3861139 0.1748974 0.05977026
v -0.6950051 0.3148153 0.1075865
v -0.3614484 0.2364864 -0.01192888
v -0.6506071 0.4256756 -0.02147198
v -0.3403452 0.2499103 0.09311729
v -0.6126214 0.4498386 0.1676111
v -0.5570047 0.5279103 0.149327
v -0.3094471 0.2932835 0.08295944
vt 0.06880306 0
vt 0 0
vt 0.06880306 0
vt 0.1342275 0
vt 0.2097252 0
vt 0.3324119 0
vt 0.2771139 0
vt 0.7563956 0
vt 0.6640182 0
vt 0.7563956 0
vt 0.6640182 0
vt 0.9060505 0
vt 0.8652046 0
vt 0.9060505 0
vt 0.5998884 0
vt 0.5233717 0
vt 0 1
vt 0.06880306 1
vt 0.06880306 1
vt 0.1342275 1
vt 0.2097252 1
vt 0.2771139 1
vt 0.3324119 1
vt 0.6640182 1
vt 0.7563956 1
vt 0.7563956 1
vt 0.6640182 1
vt 0.8652046 1
vt 0.9060505 1
vt 0.9060505 1
vt 0.5998884 1
vt 0.5233717 1
vt 0.1342275 1
vt 0.1342275 0
vt 0.2097252 1
vt 0.2097252 0
vt 0.2771139 1
vt 0.2771139 0
vt 0.3324119 1
vt 0.3324119 0
vt 0.3963234 1
vt 0.3963234 0
vt 0.8134066 1
vt 0.8134066 0
vt 0.5998884 0
vt 0.5998884 1
vt 0.8134066 0
vt 0.8134066 1
vt 0.8652046 1
vt 0.8652046 0
vt 0.9668183 1
vt 0.9668183 0
vt 0.9668183 0
vt 0.9668183 1
vt 1 1
vt 1 0
vt 0.5233717 0
vt 0.5233717 1
vt 0.4387889 0
vt 0.4387889 1
vt 0.3963234 0
vt 0.3963234 1
vt 0.4387889 1
vt 0.4387889 0
vn 0.5196468 0.834932 -0.1812619
vn 0.5196468 0.8349319 -0.1812619
vn -0.6833296 -0.7300823 0.006359299
vn -0.6814801 0.06291204 -0.7291275
vn -0.688448 -0.6604811 0.2996733
vn 0.1659442 -0.1023465 0.9808097
vn -0.8187178 -0.5445493 -0.1821185
vn 0.3042168 0.6588205 0.6880463
vn 0.3042168 0.6588205 0.6880463
vn -0.3637607 0.2389856 -0.9003133
vn 0.2531478 0.238451 0.9375805
vn -0.5563241 -0.01615059 -0.8308085
vn -0.5563241 -0.01615059 -0.8308085
vn -0.4238571 0.3197054 -0.8474277
vn 0.3889435 0.6284448 0.6736321
vn -0.5398936 -0.8144577 0.2125412
vn 0.5196468 0.8349319 -0.1812619
vn 0.5196468 0.8349319 -0.1812619
vn -0.6833296 -0.7300822 0.0063593
vn -0.6814801 0.06291204 -0.7291276
vn -0.6884481 -0.6604811 0.2996733
vn -0.8187179 -0.5445493 -0.1821185
vn 0.1659442 -0.1023465 0.9808097
vn 0.3042168 0.6588205 0.6880463
vn 0.3042168 0.6588205 0.6880463
vn -0.3637607 0.2389856 -0.9003133
vn 0.2531478 0.238451 0.9375805
vn -0.5563241 -0.01615059 -0.8308085
vn -0.556324 -0.01615059 -0.8308085
vn -0.4238571 0.3197053 -0.8474277
vn 0.3889435 0.6284449 0.6736321
vn -0.5398935 -0.8144577 0.2125412
vn -0.6833296 -0.7300823 0.006359299
vn -0.6833296 -0.7300823 0.006359299
vn -0.6814801 0.06291204 -0.7291275
vn -0.6814801 0.06291203 -0.7291275
vn -0.688448 -0.6604811 0.2996733
vn -0.6884481 -0.6604811 0.2996733
vn -0.8187178 -0.5445493 -0.1821185
vn -0.8187178 -0.5445493 -0.1821185
vn 0.1659442 -0.1023465 0.9808097
vn 0.1659442 -0.1023465 0.9808097
vn -0.3637607 0.2389856 -0.9003133
vn -0.3637607 0.2389856 -0.9003133
vn 0.2531477 0.238451 0.9375805
vn 0.2531478 0.238451 0.9375806
vn 0.08806367 0.9617801 -0.2592755
vn 0.08806365 0.9617801 -0.2592754
vn 0.08806365 0.9617801 -0.2592754
vn 0.08806366 0.9617801 -0.2592754
vn -0.4238571 0.3197054 -0.8474277
vn -0.4238572 0.3197054 -0.8474276
vn 0.1564157 0.8202778 -0.5501624
vn 0.1564157 0.8202778 -0.5501623
vn 0.1564157 0.8202777 -0.5501623
vn 0.1564157 0.8202777 -0.5501623
vn 0.3889435 0.6284448 0.673632
vn 0.3889435 0.6284449 0.6736321
vn -0.5398936 -0.8144577 0.2125412
vn -0.5398936 -0.8144576 0.2125412
vn 0.2806858 0.02475248 0.9594805
vn 0.2806858 0.02475248 0.9594805
vn 0.2806859 0.02475248 0.9594805
vn 0.2806859 0.02475248 0.9594805
g shard11_0
f 18/18/18 17/17/17 2/2/2
f 1/1/1 18/18/18 2/2/2
f 33/33/33 19/19/19 3/3/3
f 34/34/34 33/33/33 3/3/3
f 35/35/35 20/20/20 4/4/4
f 36/36/36 35/35/35 4/4/4
f 37/37/37 21/21/21 5/5/5
f 38/38/38 37/37/37 5/5/5
f 39/39/39 22/22/22 7/7/7
f 40/40/40 39/39/39 7/7/7
f 41/41/41 23/23/23 6/6/6
f 42/42/42 41/41/41 6/6/6
f 25/25/25 24/24/24 9/9/9
f 8/8/8 25/25/25 9/9/9
f 43/43/43 26/26/26 10/10/10
f 44/44/44 43/43/43 10/10/10
f 27/27/27 46/46/46 45/45/45
f 11/11/11 27/27/27 45/45/45
f 29/29/29 28/28/28 13/13/13
f 12/12/12 29/29/29 13/13/13
f 49/49/49 48/48/48 47/47/47
f 50/50/50 49/49/49 47/47/47
f 51/51/51 30/30/30 14/14/14
f 52/52/52 51/51/51 14/14/14
f 55/55/55 54/54/54 53/53/53
f 56/56/56 55/55/55 53/53/53
f 31/31/31 58/58/58 57/57/57
f 15/15/15 31/31/31 57/57/57
f 32/32/32 60/60/60 59/59/59
f 16/16/16 32/32/32 59/59/59
f 63/63/63 62/62/62 61/61/61
f 64/64/64 63/63/63 61/61/61
