g shard97
v -0.078403085 0.025735037 -0.14371093
v -0.0017102063 0.051063623 -0.07384001
v -0.021132499 0.09228048 -0.09018923
v -0.039444894 -0.049106523 -0.10224514
v -0.039444894 -0.049106523 -0.10224514
v 0.028381199 -0.04646702 -0.025228158
v -0.0017102063 0.051063623 -0.07384001
v 0.045001358 0.02266284 -0.004423693
v 0.052831918 -0.069081195 0.036467448
v 0.018720984 -0.11937626 -0.0023332238
v 0.049179226 -0.12124723 0.062143236
v 0.08405265 -0.06301089 0.1298299
v 0.091896534 0.01761714 0.12799206
v 0.07176891 0.049852934 0.050582185
v 0.08977637 0.105087765 0.13890341
v 0.06746131 0.115013875 0.05745092
v 0.028651863 0.12124723 -0.02050358
v -0.021132499 0.09228048 -0.09018923
v -0.09189652 0.026042692 -0.12896927
v -0.03564021 0.090838544 -0.076650426
v -0.01692605 0.05078227 -0.060863152
v -0.05371183 -0.047655627 -0.088345304
v -0.05371183 -0.047655627 -0.088345304
v -0.01692605 0.05078227 -0.060863152
v 0.012269348 -0.042955607 -0.014325768
v 0.027441114 0.023051977 0.005141139
v 0.034602076 -0.06541787 0.043833077
v 0.0013938844 -0.114140615 0.0061716437
v 0.031191915 -0.11646703 0.069313005
v 0.06528443 -0.059901357 0.13589841
v 0.072722286 0.018079992 0.13338318
v 0.053030998 0.0496696 0.057571977
v 0.07042056 0.103651635 0.14371093
v 0.048885882 0.11306781 0.06432192
v 0.011894882 0.118951544 -0.010034233
v -0.03564021 0.090838544 -0.076650426
v -0.09189652 0.026042692 -0.12896927
v -0.078403085 0.025735037 -0.14371093
v -0.021132499 0.09228048 -0.09018923
v -0.03564021 0.090838544 -0.076650426
v -0.05371183 -0.047655627 -0.088345304
v -0.039444894 -0.049106523 -0.10224514
v -0.078403085 0.025735037 -0.14371093
v -0.09189652 0.026042692 -0.12896927
v 0.031191915 -0.11646703 0.069313005
v 0.049179226 -0.12124723 0.062143236
v 0.018720984 -0.11937626 -0.0023332238
v 0.0013938844 -0.114140615 0.0061716437
v 0.0013938844 -0.114140615 0.0061716437
v 0.018720984 -0.11937626 -0.0023332238
v 0.028381199 -0.04646702 -0.025228158
v 0.012269348 -0.042955607 -0.014325768
v 0.012269348 -0.042955607 -0.014325768
v 0.028381199 -0.04646702 -0.025228158
v -0.039444894 -0.049106523 -0.10224514
v -0.05371183 -0.047655627 -0.088345304
v 0.06528443 -0.059901357 0.13589841
v 0.08405265 -0.06301089 0.1298299
v 0.049179226 -0.12124723 0.062143236
v 0.031191915 -0.11646703 0.069313005
v 0.072722286 0.018079992 0.13338318
v 0.08405265 -0.06301089 0.1298299
v 0.06528443 -0.059901357 0.13589841
v 0.091896534 0.01761714 0.12799206
v 0.07042056 0.103651635 0.14371093
v 0.08977637 0.105087765 0.13890341
v 0.048885882 0.11306781 0.06432192
v 0.08977637 0.105087765 0.13890341
v 0.07042056 0.103651635 0.14371093
v 0.06746131 0.115013875 0.05745092
v 0.011894882 0.118951544 -0.010034233
v 0.028651863 0.12124723 -0.02050358
v -0.03564021 0.090838544 -0.076650426
v -0.021132499 0.09228048 -0.09018923
vt 0.59375 0.625
vt 0.625 0.625
vt 0.625 0.59375
vt 0.625 0.65625
vt 0.875 0.09375
vt 0.84375 0.09375
vt 0.875 0.125
vt 0.84375 0.125
vt 0.8125 0.09375
vt 0.84375 0.0625
vt 0.8125 0.0625
vt 0.78125 0.09375
vt 0.78125 0.125
vt 0.8125 0.125
vt 0.78125 0.15625
vt 0.8125 0.15625
vt 0.84375 0.15625
vt 0.875 0.15625
vt 0.59375 0.625
vt 0.625 0.59375
vt 0.625 0.625
vt 0.625 0.65625
vt 0.875 0.09375
vt 0.875 0.125
vt 0.84375 0.09375
vt 0.84375 0.125
vt 0.8125 0.09375
vt 0.84375 0.0625
vt 0.8125 0.0625
vt 0.78125 0.09375
vt 0.78125 0.125
vt 0.8125 0.125
vt 0.78125 0.15625
vt 0.8125 0.15625
vt 0.84375 0.15625
vt 0.875 0.15625
vt 0.59375 0.625
vt 0.59375 0.625
vt 0.625 0.59375
vt 0.625 0.59375
vt 0.625 0.65625
vt 0.625 0.65625
vt 0.59375 0.625
vt 0.59375 0.625
vt 0.8125 0.0625
vt 0.8125 0.0625
vt 0.84375 0.0625
vt 0.84375 0.0625
vt 0.84375 0.0625
vt 0.84375 0.0625
vt 0.84375 0.09375
vt 0.84375 0.09375
vt 0.84375 0.09375
vt 0.84375 0.09375
vt 0.875 0.09375
vt 0.875 0.09375
vt 0.78125 0.09375
vt 0.78125 0.09375
vt 0.8125 0.0625
vt 0.8125 0.0625
vt 0.78125 0.125
vt 0.78125 0.09375
vt 0.78125 0.09375
vt 0.78125 0.125
vt 0.78125 0.15625
vt 0.78125 0.15625
vt 0.8125 0.15625
vt 0.78125 0.15625
vt 0.78125 0.15625
vt 0.8125 0.15625
vt 0.84375 0.15625
vt 0.84375 0.15625
vt 0.875 0.15625
vt 0.875 0.15625
vn 0.67969924 -0.037298232 -0.7325419
vn 0.7611306 -0.005036183 -0.6485791
vn 0.72422814 0.06912647 -0.68608683
vn 0.71831524 -0.074442305 -0.69172364
vn 0.71831524 -0.074442305 -0.69172364
vn 0.83542377 -0.10924968 -0.5386386
vn 0.7611306 -0.005036183 -0.6485791
vn 0.87576914 -0.016694928 -0.48244137
vn 0.9195739 -0.16491126 -0.35663438
vn 0.8663884 -0.2575389 -0.42783743
vn 0.9091702 -0.23340185 -0.34486696
vn 0.9436765 -0.12175687 -0.30765226
vn 0.95927 -0.053730045 -0.2773339
vn 0.9393556 -0.007226417 -0.34286857
vn 0.9688118 0.06604908 -0.23883323
vn 0.9320336 0.098377764 -0.34876254
vn 0.85573393 0.07705705 -0.5116462
vn 0.72422814 0.06912647 -0.68608683
vn -0.6788012 0.038241252 0.7333258
vn -0.72363234 -0.06735597 0.6868912
vn -0.75961256 0.0051936596 0.6503551
vn -0.7159382 0.073717125 0.69426095
vn -0.7159382 0.073717125 0.69426095
vn -0.75961256 0.0051936596 0.6503551
vn -0.8354217 0.108432956 0.5388069
vn -0.87636364 0.01566118 0.48139542
vn -0.92014754 0.16632304 0.3544926
vn -0.86621195 0.26105452 0.42606023
vn -0.90941614 0.23277119 0.34464455
vn -0.9437087 0.12276858 0.30715087
vn -0.95937216 0.053673312 0.27699134
vn -0.9397635 0.0074680788 0.34174392
vn -0.96911275 -0.06668299 0.23743185
vn -0.93291837 -0.09789052 0.34652686
vn -0.8559676 -0.0767928 0.51129484
vn -0.72363234 -0.06735597 0.6868912
vn -0.47407794 0.7633634 -0.4387784
vn -0.47407794 0.7633634 -0.43877843
vn -0.38486943 0.86013263 -0.33473483
vn -0.38486463 0.86013687 -0.3347293
vn -0.59099853 -0.60303223 -0.53579175
vn -0.59099853 -0.60303223 -0.53579175
vn -0.59099853 -0.6030323 -0.53579175
vn -0.59099853 -0.60303223 -0.53579175
vn -0.23859663 -0.96774936 0.080826655
vn -0.23859663 -0.96774936 0.080826655
vn -0.23859665 -0.96774936 0.08082667
vn -0.2385967 -0.96774936 0.08082668
vn -0.5280586 -0.17498484 -0.830984
vn -0.5280586 -0.17498484 -0.830984
vn -0.52805865 -0.17498486 -0.830984
vn -0.5280585 -0.17498486 -0.830984
vn -0.07113778 -0.99124956 0.11119196
vn -0.07113778 -0.99124956 0.111191966
vn -0.07113779 -0.99124956 0.11119197
vn -0.07113778 -0.99124956 0.11119196
vn 0.060925707 -0.77389157 0.6303807
vn 0.060925703 -0.7738917 0.63038063
vn 0.060925707 -0.77389157 0.63038063
vn 0.060925707 -0.77389157 0.63038063
vn 0.27264768 -0.059086323 0.9602979
vn 0.2889915 -0.0015697272 0.95733035
vn 0.28899154 -0.0015697276 0.95733035
vn 0.27268732 -0.058951125 0.9602949
vn 0.25691855 -0.111265324 0.9600067
vn 0.25691855 -0.111265324 0.9600067
vn -0.05614831 0.9910028 0.12149393
vn -0.047626927 0.9900982 0.13205029
vn -0.047626924 0.9900982 0.13205029
vn -0.056141064 0.99100214 0.12150292
vn -0.17112751 0.9840171 -0.049253214
vn -0.17170504 0.98387146 -0.050143562
vn -0.38486463 0.86013687 -0.3347293
vn -0.38486943 0.86013263 -0.33473483
g shard97_0
f 3/3/3 2/2/2 1/1/1
f 4/4/4 1/1/1 2/2/2
f 7/7/7 6/6/6 5/5/5
f 7/7/7 8/8/8 6/6/6
f 8/8/8 9/9/9 6/6/6
f 10/10/10 6/6/6 9/9/9
f 10/10/10 9/9/9 11/11/11
f 11/11/11 9/9/9 12/12/12
f 9/9/9 13/13/13 12/12/12
f 9/9/9 14/14/14 13/13/13
f 8/8/8 14/14/14 9/9/9
f 14/14/14 15/15/15 13/13/13
f 14/14/14 16/16/16 15/15/15
f 17/17/17 16/16/16 14/14/14
f 17/17/17 14/14/14 8/8/8
f 7/7/7 17/17/17 8/8/8
f 7/7/7 18/18/18 17/17/17
f 21/21/21 20/20/20 19/19/19
f 19/19/19 22/22/22 21/21/21
f 25/25/25 24/24/24 23/23/23
f 26/26/26 24/24/24 25/25/25
f 27/27/27 26/26/26 25/25/25
f 25/25/25 28/28/28 27/27/27
f 27/27/27 28/28/28 29/29/29
f 27/27/27 29/29/29 30/30/30
f 31/31/31 27/27/27 30/30/30
f 32/32/32 27/27/27 31/31/31
f 32/32/32 26/26/26 27/27/27
f 33/33/33 32/32/32 31/31/31
f 34/34/34 32/32/32 33/33/33
f 34/34/34 35/35/35 32/32/32
f 32/32/32 35/35/35 26/26/26
f 35/35/35 24/24/24 26/26/26
f 36/36/36 24/24/24 35/35/35
f 39/39/39 38/38/38 37/37/37
f 40/40/40 39/39/39 37/37/37
f 43/43/43 42/42/42 41/41/41
f 44/44/44 43/43/43 41/41/41
f 47/47/47 46/46/46 45/45/45
f 48/48/48 47/47/47 45/45/45
f 51/51/51 50/50/50 49/49/49
f 52/52/52 51/51/51 49/49/49
f 55/55/55 54/54/54 53/53/53
f 56/56/56 55/55/55 53/53/53
f 59/59/59 58/58/58 57/57/57
f 60/60/60 59/59/59 57/57/57
f 63/63/63 62/62/62 61/61/61
f 62/62/62 64/64/64 61/61/61
f 61/61/61 64/64/64 65/65/65
f 64/64/64 66/66/66 65/65/65
f 69/69/69 68/68/68 67/67/67
f 68/68/68 70/70/70 67/67/67
f 67/67/67 70/70/70 71/71/71
f 70/70/70 72/72/72 71/71/71
f 71/71/71 72/72/72 73/73/73
f 72/72/72 74/74/74 73/73/73
