g shard5
v -0.2220973 0.2636703 -0.26462486
v -0.39977515 0.4746065 -0.47632474
v -0.37804466 0.5728575 -0.36961925
v -0.21002482 0.31825417 -0.20534402
v -0.21002482 0.31825417 -0.20534402
v -0.37804466 0.5728575 -0.36961925
v -0.47503188 0.4790674 -0.3965422
v -0.2639066 0.26614854 -0.22030121
v -0.2670323 0.22638501 -0.25672388
v -0.4806581 0.40749303 -0.46210298
v -0.39977515 0.4746065 -0.47632474
v -0.2220973 0.2636703 -0.26462486
v -0.36248884 -0.015841661 -0.23383088
v -0.6524799 -0.028514989 -0.42089558
v -0.561376 0.011104328 -0.54756486
v -0.31187555 0.006169071 -0.3042027
v -0.31187555 0.006169071 -0.3042027
v -0.561376 0.011104328 -0.54756486
v -0.55007625 0.1189955 -0.5446682
v -0.30559793 0.066108614 -0.30259344
v -0.38968527 0.06325379 -0.1658259
v -0.7014335 0.11385682 -0.29848662
v -0.6524799 -0.028514989 -0.42089558
v -0.36248884 -0.015841661 -0.23383088
v -0.30559793 0.066108614 -0.30259344
v -0.55007625 0.1189955 -0.5446682
v -0.5031112 0.27018058 -0.5350983
v -0.2795062 0.15010032 -0.29727685
v -0.41412255 0.00729474 -0.095375374
v -0.7454206 0.013130533 -0.17167568
v -0.7014335 0.11385682 -0.29848662
v -0.38968527 0.06325379 -0.1658259
v -0.4082464 0.096622646 -0.0701809
v -0.7348435 0.17392077 -0.12632562
v -0.7454206 0.013130533 -0.17167568
v -0.41412255 0.00729474 -0.095375374
v -0.39314377 0.15339501 -0.06514685
v -0.70765877 0.276111 -0.11726433
v -0.7348435 0.17392077 -0.12632562
v -0.4082464 0.096622646 -0.0701809
v -0.3614484 0.23648645 -0.01192888
v -0.6506071 0.42567563 -0.021471985
v -0.70765877 0.276111 -0.11726433
v -0.39314377 0.15339501 -0.06514685
v -0.35357097 0.23060426 -0.092512816
v -0.63642776 0.41508767 -0.16652307
v -0.6506071 0.42567563 -0.021471985
v -0.3614484 0.23648645 -0.01192888
v -0.30173832 0.3022575 -0.083783746
v -0.54312897 0.5440635 -0.15081075
v -0.63642776 0.41508767 -0.16652307
v -0.35357097 0.23060426 -0.092512816
v -0.2858084 0.27959305 -0.1696478
v -0.51445514 0.5032675 -0.30536604
v -0.54312897 0.5440635 -0.15081075
v -0.30173832 0.3022575 -0.083783746
v -0.2795062 0.15010032 -0.29727685
v -0.5031112 0.27018058 -0.5350983
v -0.4806581 0.40749303 -0.46210298
v -0.2670323 0.22638501 -0.25672388
v -0.2639066 0.26614854 -0.22030121
v -0.47503188 0.4790674 -0.3965422
v -0.51445514 0.5032675 -0.30536604
v -0.2858084 0.27959305 -0.1696478
vt 0 0
vt 0 1
vt 0.061932784 1
vt 0.061932784 0
vt 0.061932784 0
vt 0.061932784 1
vt 0.12002751 1
vt 0.12002751 0
vt 0.955215 0
vt 0.955215 1
vt 1 1
vt 1 0
vt 0.70809597 0
vt 0.70809597 1
vt 0.7760724 1
vt 0.7760724 0
vt 0.7760724 0
vt 0.7760724 1
vt 0.82189655 1
vt 0.82189655 0
vt 0.6261612 0
vt 0.6261612 1
vt 0.70809597 1
vt 0.70809597 0
vt 0.82189655 0
vt 0.82189655 1
vt 0.8888681 1
vt 0.8888681 0
vt 0.5552991 0
vt 0.5552991 1
vt 0.6261612 1
vt 0.6261612 0
vt 0.48461294 0
vt 0.48461294 1
vt 0.5552991 1
vt 0.5552991 0
vt 0.4397972 0
vt 0.4397972 1
vt 0.48461294 1
vt 0.48461294 0
vt 0.361024 0
vt 0.361024 1
vt 0.4397972 1
vt 0.4397972 0
vt 0.2993199 0
vt 0.2993199 1
vt 0.361024 1
vt 0.361024 0
vt 0.2317756 0
vt 0.2317756 1
vt 0.2993199 1
vt 0.2993199 0
vt 0.16319968 0
vt 0.16319968 1
vt 0.2317756 1
vt 0.2317756 0
vt 0.8888681 0
vt 0.8888681 1
vt 0.955215 1
vt 0.955215 0
vt 0.12002751 0
vt 0.12002751 1
vt 0.16319968 1
vt 0.16319968 0
vn -0.854688 -0.28337532 0.43497908
vn -0.854688 -0.2833753 0.43497902
vn -0.854688 -0.2833753 0.43497902
vn -0.854688 -0.28337526 0.43497908
vn 0.4680665 -0.23987763 -0.8505131
vn 0.4680665 -0.23987763 -0.8505131
vn 0.46806657 -0.23987763 -0.8505131
vn 0.46806657 -0.2398776 -0.8505131
vn -0.3048287 0.5344228 0.7883348
vn -0.30482873 0.5344229 0.7883348
vn -0.3048287 0.5344228 0.78833467
vn -0.3048287 0.5344228 0.78833467
vn -0.16247258 0.9689811 0.18622102
vn -0.16247256 0.9689811 0.18622102
vn -0.16247258 0.9689811 0.18622102
vn -0.16247258 0.9689811 0.186221
vn -0.69669116 0.053760905 0.71535397
vn -0.6966911 0.0537609 0.71535397
vn -0.69669116 0.053760897 0.71535397
vn -0.6966912 0.053760897 0.7153539
vn 0.37900734 0.67478555 -0.6332598
vn 0.37900734 0.67478555 -0.63325983
vn 0.37900734 0.67478555 -0.63325983
vn 0.37900737 0.67478555 -0.63325983
vn -0.67583126 0.16446565 0.7184728
vn -0.67583126 0.16446565 0.71847284
vn -0.6758312 0.16446564 0.71847284
vn -0.67583126 0.16446565 0.71847284
vn -0.122068875 0.79737246 0.59101295
vn -0.122068875 0.79737246 0.59101295
vn -0.122068845 0.79737246 0.59101295
vn -0.12206886 0.79737246 0.59101295
vn 0.22143562 0.2511952 -0.94226706
vn 0.2214356 0.2511952 -0.94226706
vn 0.22143562 0.2511952 -0.94226706
vn 0.22143564 0.2511952 -0.94226706
vn 0.17841215 0.039715786 -0.983154
vn 0.17841215 0.039715786 -0.983154
vn 0.17841214 0.039715786 -0.983154
vn 0.17841212 0.039715786 -0.983154
vn 0.30757877 0.4272195 -0.85022277
vn 0.30757877 0.42721957 -0.85022277
vn 0.3075788 0.4272196 -0.85022277
vn 0.30757877 0.42721957 -0.85022277
vn -0.5476589 -0.8366677 0.0075362185
vn -0.5476589 -0.8366677 0.0075362194
vn -0.5476589 -0.8366677 0.0075362185
vn -0.5476589 -0.8366677 0.0075362185
vn 0.22555338 -0.044601195 -0.9732093
vn 0.22555336 -0.04460119 -0.9732093
vn 0.22555336 -0.044601187 -0.9732093
vn 0.22555335 -0.044601195 -0.9732093
vn -0.7139146 -0.6983087 0.051874734
vn -0.7139145 -0.6983087 0.051874734
vn -0.7139146 -0.6983087 0.051874734
vn -0.7139146 -0.6983087 0.05187473
vn -0.7623827 -0.20213614 0.6147468
vn -0.7623826 -0.20213614 0.6147468
vn -0.7623826 -0.20213613 0.6147468
vn -0.7623826 -0.20213614 0.6147468
vn -0.66765106 -0.73869073 -0.0926181
vn -0.66765106 -0.73869073 -0.09261811
vn -0.6676511 -0.73869073 -0.0926181
vn -0.6676511 -0.73869073 -0.0926181
g shard5_0
f 3/3/3 2/2/2 1/1/1
f 4/4/4 3/3/3 1/1/1
f 7/7/7 6/6/6 5/5/5
f 8/8/8 7/7/7 5/5/5
f 11/11/11 10/10/10 9/9/9
f 12/12/12 11/11/11 9/9/9
f 15/15/15 14/14/14 13/13/13
f 16/16/16 15/15/15 13/13/13
f 19/19/19 18/18/18 17/17/17
f 20/20/20 19/19/19 17/17/17
f 23/23/23 22/22/22 21/21/21
f 24/24/24 23/23/23 21/21/21
f 27/27/27 26/26/26 25/25/25
f 28/28/28 27/27/27 25/25/25
f 31/31/31 30/30/30 29/29/29
f 32/32/32 31/31/31 29/29/29
f 35/35/35 34/34/34 33/33/33
f 36/36/36 35/35/35 33/33/33
f 39/39/39 38/38/38 37/37/37
f 40/40/40 39/39/39 37/37/37
f 43/43/43 42/42/42 41/41/41
f 44/44/44 43/43/43 41/41/41
f 47/47/47 46/46/46 45/45/45
f 48/48/48 47/47/47 45/45/45
f 51/51/51 50/50/50 49/49/49
f 52/52/52 51/51/51 49/49/49
f 55/55/55 54/54/54 53/53/53
f 56/56/56 55/55/55 53/53/53
f 59/59/59 58/58/58 57/57/57
f 60/60/60 59/59/59 57/57/57
f 63/63/63 62/62/62 61/61/61
f 64/64/64 63/63/63 61/61/61
