g shard96
v -0.02586371 -0.08043357 -0.006208822
v -0.01883209 -0.007186386 0.01542127
v 0.02982318 -0.008998333 0.0764412
v -0.06303087 -0.0045081 -0.07457818
v -0.04986593 0.06737428 -0.06089358
v -0.01697052 0.08043357 -0.00211367
v 0.04782048 0.04292655 0.083361
v -0.009078592 -0.07893698 -0.01674795
v 0.04528204 -0.009847 0.064138
v -0.002186894 -0.007691403 0.004345059
v -0.04510927 -0.004888937 -0.08336098
v -0.03213221 0.06545737 -0.06993097
v -0.0006217659 0.07788272 -0.01313661
v 0.06303087 0.03956653 0.07082859
v -0.009078592 -0.07893698 -0.01674795
v -0.02586371 -0.08043357 -0.006208822
v 0.02982318 -0.008998333 0.0764412
v 0.04528204 -0.009847 0.064138
v -0.04510927 -0.004888937 -0.08336098
v -0.06303087 -0.0045081 -0.07457818
v -0.02586371 -0.08043357 -0.006208822
v -0.009078592 -0.07893698 -0.01674795
v -0.03213221 0.06545737 -0.06993097
v -0.04986593 0.06737428 -0.06089358
v -0.06303087 -0.0045081 -0.07457818
v -0.04510927 -0.004888937 -0.08336098
v -0.0006217659 0.07788272 -0.01313661
v -0.01697052 0.08043357 -0.00211367
v -0.04986593 0.06737428 -0.06089358
v -0.03213221 0.06545737 -0.06993097
v 0.06303087 0.03956653 0.07082859
v 0.04782048 0.04292655 0.083361
v 0.04528204 -0.009847 0.064138
v 0.02982318 -0.008998333 0.0764412
v 0.04782048 0.04292655 0.083361
v 0.06303087 0.03956653 0.07082859
vt 0.34375 0.09375
vt 0.34375 0.125
vt 0.375 0.125
vt 0.3125 0.125
vt 0.3125 0.15625
vt 0.34375 0.15625
vt 0.375 0.15625
vt 0.34375 0.09375
vt 0.375 0.125
vt 0.34375 0.125
vt 0.3125 0.125
vt 0.3125 0.15625
vt 0.34375 0.15625
vt 0.375 0.15625
vt 0.34375 0.09375
vt 0.34375 0.09375
vt 0.375 0.125
vt 0.375 0.125
vt 0.3125 0.125
vt 0.3125 0.125
vt 0.34375 0.09375
vt 0.34375 0.09375
vt 0.3125 0.15625
vt 0.3125 0.15625
vt 0.3125 0.125
vt 0.3125 0.125
vt 0.34375 0.15625
vt 0.34375 0.15625
vt 0.3125 0.15625
vt 0.3125 0.15625
vt 0.375 0.15625
vt 0.375 0.15625
vt 0.375 0.125
vt 0.375 0.125
vt 0.375 0.15625
vt 0.375 0.15625
vn -0.8639644 -0.064535 0.4994005
vn -0.8326718 0.03040778 0.5529312
vn -0.7775068 0.08867434 0.6225914
vn -0.8966225 0.03533825 0.4413834
vn -0.8871564 0.09331394 0.4519359
vn -0.8207462 0.128823 0.5565792
vn -0.7600733 0.1555341 0.6309499
vn 0.8646436 0.06389059 -0.4983065
vn 0.7781262 -0.09346519 -0.621115
vn 0.8327562 -0.0317019 -0.5527315
vn 0.8971409 -0.03664567 -0.4402219
vn 0.8880705 -0.09348381 -0.4501017
vn 0.8211718 -0.1286029 -0.5560019
vn 0.7588141 -0.1584459 -0.6317405
vn 0.3466121 -0.8139601 0.4661857
vn 0.3466121 -0.8139601 0.4661857
vn 0.3466121 -0.8139601 0.4661856
vn 0.3466121 -0.8139601 0.4661857
vn -0.3222037 -0.7153388 -0.6200606
vn -0.3222037 -0.7153388 -0.6200606
vn -0.3222037 -0.7153389 -0.6200606
vn -0.3222037 -0.7153388 -0.6200606
vn -0.420936 0.2439278 -0.8736773
vn -0.420936 0.2439278 -0.8736773
vn -0.420936 0.2439278 -0.8736773
vn -0.420936 0.2439278 -0.8736773
vn 0.2004035 0.9791369 0.03360653
vn 0.2015218 0.978856 0.03507103
vn 0.0009572182 0.9764283 -0.2158402
vn 0.0009572183 0.9764283 -0.2158402
vn 0.3106042 0.9329462 0.182034
vn 0.3106042 0.9329462 0.182034
vn 0.5738457 -0.3045236 0.7602412
vn 0.5738456 -0.3045236 0.7602412
vn 0.5738457 -0.3045236 0.7602412
vn 0.5738456 -0.3045236 0.7602412
g shard96_0
f 3/3/3 2/2/2 1/1/1
f 1/1/1 2/2/2 4/4/4
f 2/2/2 5/5/5 4/4/4
f 2/2/2 6/6/6 5/5/5
f 7/7/7 2/2/2 3/3/3
f 7/7/7 6/6/6 2/2/2
f 10/10/10 9/9/9 8/8/8
f 10/10/10 8/8/8 11/11/11
f 12/12/12 10/10/10 11/11/11
f 13/13/13 10/10/10 12/12/12
f 10/10/10 14/14/14 9/9/9
f 13/13/13 14/14/14 10/10/10
f 17/17/17 16/16/16 15/15/15
f 18/18/18 17/17/17 15/15/15
f 21/21/21 20/20/20 19/19/19
f 22/22/22 21/21/21 19/19/19
f 25/25/25 24/24/24 23/23/23
f 26/26/26 25/25/25 23/23/23
f 29/29/29 28/28/28 27/27/27
f 30/30/30 29/29/29 27/27/27
f 27/27/27 28/28/28 31/31/31
f 28/28/28 32/32/32 31/31/31
f 35/35/35 34/34/34 33/33/33
f 36/36/36 35/35/35 33/33/33
