g shard81
v -0.009706497 -0.1363015 -0.004888356
v -0.07870772 -0.1092909 0.03986928
v 0.01736379 -0.05286559 0.008121222
v -0.07914785 -0.04772477 0.05695924
v 0.04776394 -0.1045575 -0.03349519
v 0.08766237 -0.03143327 -0.04785165
v 0.02085903 0.02342746 0.01667225
v 0.08673516 0.03913535 -0.03576604
v -0.07245944 0.04635229 0.06278616
v 0.02715564 0.1032511 0.005822599
v 0.06703436 0.1363015 -0.03399965
v -0.01966605 -0.1305143 -0.02118206
v 0.00655812 -0.04899096 -0.008256346
v -0.08741382 -0.1041074 0.02263153
v -0.08766238 -0.04445541 0.03922969
v 0.03574821 -0.09945214 -0.04858154
v 0.07482082 -0.02807915 -0.06278613
v 0.0101119 0.02406729 -0.000182718
v 0.07385182 0.039175 -0.05085984
v -0.08127129 0.04638202 0.04491615
v 0.01605427 0.1011985 -0.01050758
v 0.05397761 0.1338622 -0.04895195
v -0.08741382 -0.1041074 0.02263153
v -0.07870772 -0.1092909 0.03986928
v -0.009706497 -0.1363015 -0.004888356
v -0.01966605 -0.1305143 -0.02118206
v -0.08766238 -0.04445541 0.03922969
v -0.07914785 -0.04772477 0.05695924
v -0.07870772 -0.1092909 0.03986928
v -0.08741382 -0.1041074 0.02263153
v -0.08127129 0.04638202 0.04491615
v -0.07245944 0.04635229 0.06278616
v -0.01966605 -0.1305143 -0.02118206
v -0.009706497 -0.1363015 -0.004888356
v 0.04776394 -0.1045575 -0.03349519
v 0.03574821 -0.09945214 -0.04858154
v 0.03574821 -0.09945214 -0.04858154
v 0.04776394 -0.1045575 -0.03349519
v 0.08766237 -0.03143327 -0.04785165
v 0.07482082 -0.02807915 -0.06278613
v 0.07482082 -0.02807915 -0.06278613
v 0.08766237 -0.03143327 -0.04785165
v 0.08673516 0.03913535 -0.03576604
v 0.07385182 0.039175 -0.05085984
v 0.06703436 0.1363015 -0.03399965
v 0.05397761 0.1338622 -0.04895195
v 0.01605427 0.1011985 -0.01050758
v 0.02715564 0.1032511 0.005822599
v -0.07245944 0.04635229 0.06278616
v -0.08127129 0.04638202 0.04491615
v 0.05397761 0.1338622 -0.04895195
v 0.06703436 0.1363015 -0.03399965
vt 0.59375 0.0625
vt 0.5625 0.0625
vt 0.59375 0.09375
vt 0.5625 0.09375
vt 0.625 0.0625
vt 0.625 0.09375
vt 0.59375 0.125
vt 0.625 0.125
vt 0.5625 0.125
vt 0.59375 0.15625
vt 0.625 0.15625
vt 0.59375 0.0625
vt 0.59375 0.09375
vt 0.5625 0.0625
vt 0.5625 0.09375
vt 0.625 0.0625
vt 0.625 0.09375
vt 0.59375 0.125
vt 0.625 0.125
vt 0.5625 0.125
vt 0.59375 0.15625
vt 0.625 0.15625
vt 0.5625 0.0625
vt 0.5625 0.0625
vt 0.59375 0.0625
vt 0.59375 0.0625
vt 0.5625 0.09375
vt 0.5625 0.09375
vt 0.5625 0.0625
vt 0.5625 0.0625
vt 0.5625 0.125
vt 0.5625 0.125
vt 0.59375 0.0625
vt 0.59375 0.0625
vt 0.625 0.0625
vt 0.625 0.0625
vt 0.625 0.0625
vt 0.625 0.0625
vt 0.625 0.09375
vt 0.625 0.09375
vt 0.625 0.09375
vt 0.625 0.09375
vt 0.625 0.125
vt 0.625 0.125
vt 0.625 0.15625
vt 0.625 0.15625
vt 0.59375 0.15625
vt 0.59375 0.15625
vt 0.5625 0.125
vt 0.5625 0.125
vt 0.625 0.15625
vt 0.625 0.15625
vn 0.4775318 -0.2845454 0.8312625
vn 0.4356029 -0.2561405 0.8629265
vn 0.5310649 -0.1861843 0.826623
vn 0.4310988 -0.1539625 0.8890721
vn 0.6035858 -0.2535895 0.7558946
vn 0.6414134 -0.1467994 0.7530198
vn 0.523592 -0.03040884 0.8514262
vn 0.6355951 -0.01510625 0.7718748
vn 0.4357102 -0.03552403 0.8993857
vn 0.5713574 0.08891317 0.8158708
vn 0.650825 0.1183238 0.7499508
vn -0.4762711 0.285089 -0.8317993
vn -0.5307767 0.1870984 -0.8266016
vn -0.43471 0.2575583 -0.8629547
vn -0.4303663 0.1549829 -0.8892498
vn -0.6041906 0.2540472 -0.7552574
vn -0.6421999 0.1487877 -0.7519585
vn -0.5230038 0.03071778 -0.8517767
vn -0.6359704 0.01590571 -0.7715495
vn -0.435119 0.03630864 -0.8996405
vn -0.5714498 -0.08986033 -0.8157023
vn -0.6528385 -0.1219625 -0.7476143
vn -0.4038323 -0.9118723 -0.07354181
vn -0.4038324 -0.9118723 -0.07354181
vn -0.4038324 -0.9118723 -0.07354181
vn -0.4038324 -0.9118723 -0.07354182
vn -0.9018349 -0.02737564 0.4312126
vn -0.9018356 -0.02739087 0.4312102
vn -0.9018105 -0.1204585 0.4150031
vn -0.9018105 -0.1204585 0.415003
vn -0.8972545 0.03606704 0.4400381
vn -0.8972545 0.03606704 0.4400381
vn 0.2426737 -0.8511822 -0.4654012
vn 0.2426737 -0.8511822 -0.4654012
vn 0.2426738 -0.8511822 -0.4654012
vn 0.2426737 -0.8511822 -0.4654012
vn 0.6146367 -0.4622513 -0.6391756
vn 0.6146367 -0.4622514 -0.6391757
vn 0.6146367 -0.4622514 -0.6391757
vn 0.6146367 -0.4622513 -0.6391756
vn 0.7605405 0.1215841 -0.6378051
vn 0.7605405 0.1215841 -0.6378051
vn 0.748768 0.147048 -0.6463152
vn 0.7487742 0.1470352 -0.646311
vn 0.7399802 0.1651287 -0.6520444
vn 0.7399802 0.1651288 -0.6520444
vn -0.4275637 0.88091 0.2029456
vn -0.4276833 0.8808274 0.2030519
vn -0.4043099 0.8962494 0.1824024
vn -0.4043099 0.8962494 0.1824024
vn -0.4718299 0.8476384 0.2426639
vn -0.4718299 0.8476383 0.2426639
g shard81_0
f 3/3/3 2/2/2 1/1/1
f 3/3/3 4/4/4 2/2/2
f 5/5/5 3/3/3 1/1/1
f 5/5/5 6/6/6 3/3/3
f 6/6/6 7/7/7 3/3/3
f 7/7/7 4/4/4 3/3/3
f 6/6/6 8/8/8 7/7/7
f 7/7/7 9/9/9 4/4/4
f 10/10/10 9/9/9 7/7/7
f 8/8/8 10/10/10 7/7/7
f 8/8/8 11/11/11 10/10/10
f 14/14/14 13/13/13 12/12/12
f 15/15/15 13/13/13 14/14/14
f 13/13/13 16/16/16 12/12/12
f 17/17/17 16/16/16 13/13/13
f 18/18/18 17/17/17 13/13/13
f 15/15/15 18/18/18 13/13/13
f 19/19/19 17/17/17 18/18/18
f 20/20/20 18/18/18 15/15/15
f 20/20/20 21/21/21 18/18/18
f 21/21/21 19/19/19 18/18/18
f 22/22/22 19/19/19 21/21/21
f 25/25/25 24/24/24 23/23/23
f 26/26/26 25/25/25 23/23/23
f 29/29/29 28/28/28 27/27/27
f 30/30/30 29/29/29 27/27/27
f 27/27/27 28/28/28 31/31/31
f 28/28/28 32/32/32 31/31/31
f 35/35/35 34/34/34 33/33/33
f 36/36/36 35/35/35 33/33/33
f 39/39/39 38/38/38 37/37/37
f 40/40/40 39/39/39 37/37/37
f 43/43/43 42/42/42 41/41/41
f 44/44/44 43/43/43 41/41/41
f 45/45/45 43/43/43 44/44/44
f 46/46/46 45/45/45 44/44/44
f 49/49/49 48/48/48 47/47/47
f 50/50/50 49/49/49 47/47/47
f 47/47/47 48/48/48 51/51/51
f 48/48/48 52/52/52 51/51/51
