g shard50
v -0.09100106 0.41519287 0.008211772
v -0.16380191 0.7473472 0.01478119
v -0.26482528 0.7059163 0.15372863
v -0.14712515 0.39217573 0.08540479
v -0.15131356 0.37225387 0.15487717
v -0.2723644 0.67005694 0.2787789
v -0.4461259 0.58344555 0.26101896
v -0.24784772 0.32413644 0.14501053
v -0.24784772 0.32413644 0.14501053
v -0.4461259 0.58344555 0.26101896
v -0.44654334 0.62431335 0.14069748
v -0.24807964 0.34684077 0.07816527
v -0.14712515 0.39217573 0.08540479
v -0.26482528 0.7059163 0.15372863
v -0.2723644 0.67005694 0.2787789
v -0.15131356 0.37225387 0.15487717
v -0.24807964 0.34684077 0.07816527
v -0.44654334 0.62431335 0.14069748
v -0.32032764 0.7014128 -0.025639012
v -0.1779598 0.38967377 -0.014243895
v -0.1779598 0.38967377 -0.014243895
v -0.32032764 0.7014128 -0.025639012
v -0.31305927 0.6926099 -0.14582163
v -0.17392181 0.3847833 -0.08101202
v -0.07324708 0.41149843 -0.08035406
v -0.13184474 0.74069715 -0.1446373
v -0.16380191 0.7473472 0.01478119
v -0.09100106 0.41519287 0.008211772
v -0.17392181 0.3847833 -0.08101202
v -0.31305927 0.6926099 -0.14582163
v -0.13184474 0.74069715 -0.1446373
v -0.07324708 0.41149843 -0.08035406
vt 0 0
vt 0 1
vt 0.13361472 1
vt 0.13361472 0
vt 0.23214066 0
vt 0.23214066 1
vt 0.3795506 1
vt 0.3795506 0
vt 0.3795506 0
vt 0.3795506 1
vt 0.47563037 1
vt 0.47563037 0
vt 0.13361472 0
vt 0.13361472 1
vt 0.23214066 1
vt 0.23214066 0
vt 0.47563037 0
vt 0.47563037 1
vt 0.64392376 1
vt 0.64392376 0
vt 0.64392376 0
vt 0.64392376 1
vt 0.7352026 1
vt 0.7352026 0
vt 0.8769633 0
vt 0.8769633 1
vt 1 1
vt 1 0
vt 0.7352026 0
vt 0.7352026 1
vt 0.8769633 1
vt 0.8769633 0
vn -0.77567565 -0.1579253 -0.6110539
vn -0.7756757 -0.15792532 -0.6110538
vn -0.77567565 -0.15792531 -0.6110538
vn -0.7756757 -0.1579253 -0.6110538
vn -0.08146486 0.3544476 -0.93152046
vn -0.08146487 0.35444766 -0.93152046
vn -0.08146488 0.35444766 -0.93152046
vn -0.08146488 0.35444766 -0.93152046
vn 0.8187178 0.54454935 0.18211848
vn 0.8187178 0.5445493 0.18211846
vn 0.8187179 0.5445493 0.18211848
vn 0.8187179 0.5445493 0.1821185
vn -0.9361467 -0.31898558 -0.14791119
vn -0.9361467 -0.31898555 -0.14791119
vn -0.9361467 -0.31898558 -0.14791119
vn -0.9361467 -0.31898558 -0.14791119
vn 0.671549 0.3309226 0.6629572
vn 0.6715491 0.33092254 0.6629572
vn 0.671549 0.33092257 0.6629572
vn 0.671549 0.33092257 0.6629573
vn 0.9090186 0.41603458 0.024502417
vn 0.9090186 0.41603458 0.024502415
vn 0.9090186 0.41603458 0.024502413
vn 0.9090186 0.4160346 0.024502415
vn -0.96089184 -0.20696723 -0.18398763
vn -0.96089184 -0.20696723 -0.18398765
vn -0.96089184 -0.20696728 -0.18398768
vn -0.96089184 -0.20696723 -0.18398766
vn -0.05470586 0.18197633 0.98178
vn -0.05470586 0.18197633 0.98178
vn -0.054705862 0.18197635 0.98178
vn -0.05470586 0.18197633 0.98178
g shard50_0
f 3/3/3 2/2/2 1/1/1
f 4/4/4 3/3/3 1/1/1
f 7/7/7 6/6/6 5/5/5
f 8/8/8 7/7/7 5/5/5
f 11/11/11 10/10/10 9/9/9
f 12/12/12 11/11/11 9/9/9
f 15/15/15 14/14/14 13/13/13
f 16/16/16 15/15/15 13/13/13
f 19/19/19 18/18/18 17/17/17
f 20/20/20 19/19/19 17/17/17
f 23/23/23 22/22/22 21/21/21
f 24/24/24 23/23/23 21/21/21
f 27/27/27 26/26/26 25/25/25
f 28/28/28 27/27/27 25/25/25
f 31/31/31 30/30/30 29/29/29
f 32/32/32 31/31/31 29/29/29
