g shard92
v -0.0759553 -0.03572986 -0.07084703
v -0.05706325 -0.02212858 -0.03630143
v -0.03172037 -0.07245639 -0.06911403
v -0.02645476 -0.03573337 -0.02130124
v -0.0759553 -0.03572986 -0.07084703
v -0.1203907 0.01721995 -0.07138509
v -0.05706325 -0.02212858 -0.03630143
v -0.07399642 0.03729716 -0.003752649
v -0.01617543 0.01235755 0.02644792
v -0.02645476 -0.03573337 -0.02130124
v 0.0542177 -0.05697685 0.009901613
v 0.05086595 0.002522498 0.05524561
v 0.04127295 0.0639029 0.08282775
v 0.1152845 -0.003382146 0.07167831
v -0.06411225 -0.02410471 -0.08191994
v -0.02075283 -0.05978417 -0.08002834
v -0.04537566 -0.01093024 -0.04804865
v -0.01672937 -0.02346087 -0.03358671
v -0.06411225 -0.02410471 -0.08191994
v -0.04537566 -0.01093024 -0.04804865
v -0.1076338 0.02752447 -0.08282776
v -0.06199074 0.04745892 -0.0160684
v -0.006467059 0.02176543 0.01190794
v -0.01672937 -0.02346087 -0.03358671
v 0.0609313 -0.04508388 -0.004587799
v 0.05738166 0.012692 0.03930426
v 0.04795021 0.0724564 0.06610128
v 0.1203907 0.006861284 0.0553937
v -0.006467059 0.02176543 0.01190794
v -0.01617543 0.01235755 0.02644792
v -0.07399642 0.03729716 -0.003752649
v -0.06199074 0.04745892 -0.0160684
v -0.01672937 -0.02346087 -0.03358671
v -0.02645476 -0.03573337 -0.02130124
v 0.0542177 -0.05697685 0.009901613
v 0.0609313 -0.04508388 -0.004587799
v 0.04795021 0.0724564 0.06610128
v 0.04127295 0.0639029 0.08282775
v -0.01617543 0.01235755 0.02644792
v -0.006467059 0.02176543 0.01190794
v 0.0609313 -0.04508388 -0.004587799
v 0.0542177 -0.05697685 0.009901613
v 0.1152845 -0.003382146 0.07167831
v 0.1203907 0.006861284 0.0553937
v 0.1203907 0.006861284 0.0553937
v 0.1152845 -0.003382146 0.07167831
v 0.04127295 0.0639029 0.08282775
v 0.04795021 0.0724564 0.06610128
v -0.06411225 -0.02410471 -0.08191994
v -0.0759553 -0.03572986 -0.07084703
v -0.03172037 -0.07245639 -0.06911403
v -0.02075283 -0.05978417 -0.08002834
v -0.02075283 -0.05978417 -0.08002834
v -0.03172037 -0.07245639 -0.06911403
v -0.02645476 -0.03573337 -0.02130124
v -0.01672937 -0.02346087 -0.03358671
v -0.1076338 0.02752447 -0.08282776
v -0.1203907 0.01721995 -0.07138509
v -0.0759553 -0.03572986 -0.07084703
v -0.06411225 -0.02410471 -0.08191994
v -0.06199074 0.04745892 -0.0160684
v -0.07399642 0.03729716 -0.003752649
v -0.1203907 0.01721995 -0.07138509
v -0.1076338 0.02752447 -0.08282776
vt 0.375 0.96875
vt 0.375 1
vt 0.40625 0.96875
vt 0.40625 1
vt 0.34375 0
vt 0.34375 0.03125
vt 0.375 0
vt 0.375 0.03125
vt 0.40625 0.03125
vt 0.40625 0
vt 0.4375 0
vt 0.4375 0.03125
vt 0.4375 0.0625
vt 0.46875 0.03125
vt 0.375 0.96875
vt 0.40625 0.96875
vt 0.375 1
vt 0.40625 1
vt 0.34375 0
vt 0.375 0
vt 0.34375 0.03125
vt 0.375 0.03125
vt 0.40625 0.03125
vt 0.40625 0
vt 0.4375 0
vt 0.4375 0.03125
vt 0.4375 0.0625
vt 0.46875 0.03125
vt 0.40625 0.03125
vt 0.40625 0.03125
vt 0.375 0.03125
vt 0.375 0.03125
vt 0.40625 0
vt 0.40625 0
vt 0.4375 0
vt 0.4375 0
vt 0.4375 0.0625
vt 0.4375 0.0625
vt 0.40625 0.03125
vt 0.40625 0.03125
vt 0.4375 0
vt 0.4375 0
vt 0.46875 0.03125
vt 0.46875 0.03125
vt 0.46875 0.03125
vt 0.46875 0.03125
vt 0.4375 0.0625
vt 0.4375 0.0625
vt 0.375 0.96875
vt 0.375 0.96875
vt 0.40625 0.96875
vt 0.40625 0.96875
vt 0.40625 0.96875
vt 0.40625 0.96875
vt 0.40625 1
vt 0.40625 1
vt 0.34375 0.03125
vt 0.34375 0.03125
vt 0.34375 0
vt 0.34375 0
vt 0.375 0.03125
vt 0.375 0.03125
vt 0.34375 0.03125
vt 0.34375 0.03125
vn -0.6017445 -0.574203 0.5551525
vn -0.5914363 -0.5445144 0.5947329
vn -0.5477752 -0.6327113 0.5473744
vn -0.4848298 -0.5840777 0.6509941
vn -0.6017445 -0.574203 0.5551525
vn -0.6370096 -0.5091749 0.5787572
vn -0.5914363 -0.5445144 0.5947329
vn -0.5993551 -0.5091198 0.6177139
vn -0.4524283 -0.5380419 0.71121
vn -0.4848298 -0.5840777 0.6509941
vn -0.3631842 -0.5873842 0.7232407
vn -0.3297645 -0.5122991 0.7929723
vn -0.3465917 -0.4290099 0.834161
vn -0.255307 -0.5239905 0.8125591
vn 0.6018156 0.5733793 -0.5559263
vn 0.5479349 0.6336547 -0.546122
vn 0.5935678 0.5439732 -0.5931023
vn 0.4859907 0.5852932 -0.6490337
vn 0.6018156 0.5733793 -0.5559263
vn 0.5935678 0.5439732 -0.5931023
vn 0.6374546 0.5085304 -0.5788338
vn 0.6020095 0.5084984 -0.6156411
vn 0.4529215 0.5381551 -0.7108103
vn 0.4859907 0.5852932 -0.6490337
vn 0.3604937 0.5883215 -0.7238247
vn 0.3280373 0.5120755 -0.7938327
vn 0.3441138 0.428826 -0.8352808
vn 0.2559548 0.5235753 -0.812623
vn 0.04066863 0.7915839 0.6097056
vn 0.04066864 0.791584 0.6097056
vn 0.04066863 0.7915839 0.6097056
vn 0.04066864 0.7915839 0.6097056
vn 0.04433604 -0.7550123 -0.6542101
vn 0.04433604 -0.7550123 -0.65421
vn 0.04433603 -0.7550123 -0.65421
vn 0.04433604 -0.7550123 -0.6542101
vn -0.6978007 0.7148785 0.044978
vn -0.6978007 0.7148785 0.044978
vn -0.6978007 0.7148785 0.044978
vn -0.6978006 0.7148785 0.044978
vn 0.7438062 -0.6443169 -0.1777871
vn 0.7438062 -0.6443169 -0.1777871
vn 0.7438061 -0.6443169 -0.1777871
vn 0.7438061 -0.6443169 -0.1777871
vn 0.6062702 0.5784206 0.545771
vn 0.6062702 0.5784206 0.545771
vn 0.6062702 0.5784206 0.545771
vn 0.6062702 0.5784206 0.5457711
vn -0.383808 -0.403612 -0.8305352
vn -0.3837732 -0.4036391 -0.8305382
vn -0.331483 -0.4427234 -0.8331357
vn -0.331483 -0.4427233 -0.8331357
vn 0.8492092 -0.45462 0.2686342
vn 0.8492092 -0.45462 0.2686342
vn 0.8492092 -0.4546199 0.2686342
vn 0.8492092 -0.45462 0.2686342
vn -0.4260763 -0.3697701 -0.8256689
vn -0.4260762 -0.3697701 -0.8256689
vn -0.3837732 -0.4036391 -0.8305382
vn -0.383808 -0.403612 -0.8305352
vn -0.5523081 0.8229233 0.1332404
vn -0.5523081 0.8229232 0.1332403
vn -0.5523081 0.8229232 0.1332403
vn -0.5523081 0.8229232 0.1332403
g shard92_0
f 3/3/3 2/2/2 1/1/1
f 3/3/3 4/4/4 2/2/2
f 7/7/7 6/6/6 5/5/5
f 7/7/7 8/8/8 6/6/6
f 9/9/9 8/8/8 7/7/7
f 9/9/9 7/7/7 10/10/10
f 11/11/11 9/9/9 10/10/10
f 11/11/11 12/12/12 9/9/9
f 13/13/13 9/9/9 12/12/12
f 14/14/14 12/12/12 11/11/11
f 14/14/14 13/13/13 12/12/12
f 17/17/17 16/16/16 15/15/15
f 18/18/18 16/16/16 17/17/17
f 21/21/21 20/20/20 19/19/19
f 22/22/22 20/20/20 21/21/21
f 22/22/22 23/23/23 20/20/20
f 20/20/20 23/23/23 24/24/24
f 23/23/23 25/25/25 24/24/24
f 26/26/26 25/25/25 23/23/23
f 23/23/23 27/27/27 26/26/26
f 26/26/26 28/28/28 25/25/25
f 27/27/27 28/28/28 26/26/26
f 31/31/31 30/30/30 29/29/29
f 32/32/32 31/31/31 29/29/29
f 35/35/35 34/34/34 33/33/33
f 36/36/36 35/35/35 33/33/33
f 39/39/39 38/38/38 37/37/37
f 40/40/40 39/39/39 37/37/37
f 43/43/43 42/42/42 41/41/41
f 44/44/44 43/43/43 41/41/41
f 47/47/47 46/46/46 45/45/45
f 48/48/48 47/47/47 45/45/45
f 51/51/51 50/50/50 49/49/49
f 52/52/52 51/51/51 49/49/49
f 55/55/55 54/54/54 53/53/53
f 56/56/56 55/55/55 53/53/53
f 59/59/59 58/58/58 57/57/57
f 60/60/60 59/59/59 57/57/57
f 63/63/63 62/62/62 61/61/61
f 64/64/64 63/63/63 61/61/61
