g shard33
v 0.14120942 -0.23840319 -0.33230695
v 0.25417697 -0.42912573 -0.5981525
v 0.17099637 -0.4113462 -0.6369812
v 0.09499799 -0.22852567 -0.35387844
v 0.06991715 -0.30247203 -0.3052255
v 0.12585087 -0.5444496 -0.5494059
v 0.25417697 -0.42912573 -0.5981525
v 0.14120942 -0.23840319 -0.33230695
v 0.09499799 -0.22852567 -0.35387844
v 0.17099637 -0.4113462 -0.6369812
v -0.014191916 -0.44000596 -0.6444357
v -0.007884398 -0.24444775 -0.35801983
v 0.004213017 -0.3073053 -0.30970052
v 0.0075834305 -0.5531496 -0.5574609
v 0.12585087 -0.5444496 -0.5494059
v 0.06991715 -0.30247203 -0.3052255
v -0.007884398 -0.24444775 -0.35801983
v -0.014191916 -0.44000596 -0.6444357
v -0.16460466 -0.4447804 -0.61758494
v -0.09144704 -0.24710023 -0.34310272
v -0.091042615 -0.29575077 -0.30488583
v -0.16387671 -0.5323514 -0.5487945
v 0.0075834305 -0.5531496 -0.5574609
v 0.004213017 -0.3073053 -0.30970052
v -0.09144704 -0.24710023 -0.34310272
v -0.16460466 -0.4447804 -0.61758494
v -0.2518143 -0.5157105 -0.53170836
v -0.13989684 -0.28650582 -0.29539353
v -0.13989684 -0.28650582 -0.29539353
v -0.2518143 -0.5157105 -0.53170836
v -0.36064312 -0.57331896 -0.386674
v -0.20035729 -0.31851053 -0.21481888
v -0.20035729 -0.31851053 -0.21481888
v -0.36064312 -0.57331896 -0.386674
v -0.24326472 -0.61823666 -0.40472838
v -0.13514706 -0.3434648 -0.2248491
v -0.13514706 -0.3434648 -0.2248491
v -0.24326472 -0.61823666 -0.40472838
v -0.16387671 -0.5323514 -0.5487945
v -0.091042615 -0.29575077 -0.30488583
vt 0 0
vt 0 1
vt 0.060354024 1
vt 0.060354024 0
vt 0.060354024 0
vt 0.060354024 1
vt 0.17607906 1
vt 0.17607906 0
vt 0.8789464 0
vt 0.8789464 1
vt 1 1
vt 1 0
vt 0.17607906 0
vt 0.17607906 1
vt 0.2528007 1
vt 0.2528007 0
vt 0.78027534 0
vt 0.78027534 1
vt 0.8789464 1
vt 0.8789464 0
vt 0.2528007 0
vt 0.2528007 1
vt 0.3644259 1
vt 0.3644259 0
vt 0.6889651 0
vt 0.6889651 1
vt 0.78027534 1
vt 0.78027534 0
vt 0.56615895 0
vt 0.56615895 1
vt 0.6889651 1
vt 0.6889651 0
vt 0.48420295 0
vt 0.48420295 1
vt 0.56615895 1
vt 0.56615895 0
vt 0.3644259 0
vt 0.3644259 1
vt 0.48420295 1
vt 0.48420295 0
vn -0.3759476 -0.82116365 0.4293642
vn -0.37594762 -0.82116365 0.4293642
vn -0.3759476 -0.82116365 0.42936423
vn -0.3759476 -0.82116365 0.4293642
vn -0.6463538 0.4627897 -0.60667336
vn -0.6463538 0.46278974 -0.60667336
vn -0.6463538 0.46278974 -0.6066733
vn -0.6463537 0.46278974 -0.60667336
vn 0.1047629 -0.822387 0.5591998
vn 0.1047629 -0.822387 0.5591998
vn 0.10476288 -0.822387 0.55919975
vn 0.10476288 -0.822387 0.5591998
vn -0.0042407163 0.70981103 -0.7043793
vn -0.004240716 0.7098111 -0.7043793
vn -0.004240716 0.70981103 -0.7043793
vn -0.004240716 0.7098111 -0.7043793
vn 0.1255742 -0.82060695 0.5575262
vn 0.12557422 -0.82060695 0.5575262
vn 0.1255742 -0.82060695 0.5575261
vn 0.12557422 -0.82060695 0.5575262
vn 0.050497867 0.70928425 -0.70311165
vn 0.050497867 0.7092842 -0.70311165
vn 0.050497867 0.70928425 -0.70311165
vn 0.050497867 0.7092841 -0.7031117
vn 0.7460011 -0.61857814 0.24666448
vn 0.7460012 -0.61857814 0.24666446
vn 0.7460012 -0.61857814 0.2466645
vn 0.7460012 -0.6185781 0.24666446
vn 0.71476614 -0.63991964 0.28215623
vn 0.71476614 -0.6399196 0.28215626
vn 0.7147661 -0.63991964 0.28215623
vn 0.71476614 -0.63991964 0.28215626
vn 0.07120118 0.52656776 -0.8471462
vn 0.0712012 0.52656776 -0.84714633
vn 0.07120119 0.52656776 -0.84714633
vn 0.07120119 0.52656776 -0.84714633
vn -0.8618992 0.46758422 -0.19620056
vn -0.86189926 0.46758422 -0.1962006
vn -0.86189926 0.46758422 -0.19620058
vn -0.86189926 0.46758422 -0.19620058
g shard33_0
f 3/3/3 2/2/2 1/1/1
f 4/4/4 3/3/3 1/1/1
f 7/7/7 6/6/6 5/5/5
f 8/8/8 7/7/7 5/5/5
f 11/11/11 10/10/10 9/9/9
f 12/12/12 11/11/11 9/9/9
f 15/15/15 14/14/14 13/13/13
f 16/16/16 15/15/15 13/13/13
f 19/19/19 18/18/18 17/17/17
f 20/20/20 19/19/19 17/17/17
f 23/23/23 22/22/22 21/21/21
f 24/24/24 23/23/23 21/21/21
f 27/27/27 26/26/26 25/25/25
f 28/28/28 27/27/27 25/25/25
f 31/31/31 30/30/30 29/29/29
f 32/32/32 31/31/31 29/29/29
f 35/35/35 34/34/34 33/33/33
f 36/36/36 35/35/35 33/33/33
f 39/39/39 38/38/38 37/37/37
f 40/40/40 39/39/39 37/37/37
