g shard40
v 0.1371631 0.33516946 0.23655431
v 0.24689358 0.60330504 0.42579776
v 0.14908972 0.6541921 0.3896404
v 0.08282763 0.36344004 0.21646687
v 0.08282763 0.36344004 0.21646687
v 0.14908972 0.6541921 0.3896404
v 0.11620602 0.69178855 0.32072777
v 0.0645589 0.384327 0.1781821
v 0.20524853 0.2721172 0.2705351
v 0.36944735 0.48981094 0.4869632
v 0.24689358 0.60330504 0.42579776
v 0.1371631 0.33516946 0.23655431
v 0.25161046 0.25952882 0.2399266
v 0.45289883 0.46715188 0.4318679
v 0.36944735 0.48981094 0.4869632
v 0.20524853 0.2721172 0.2705351
v 0.2657236 0.27747113 0.20235832
v 0.47830245 0.49944803 0.364245
v 0.45289883 0.46715188 0.4318679
v 0.25161046 0.25952882 0.2399266
v 0.23808701 0.3332642 0.14030465
v 0.42855662 0.59987557 0.2525484
v 0.47830245 0.49944803 0.364245
v 0.2657236 0.27747113 0.20235832
v 0.17739832 0.38094386 0.08784821
v 0.31931698 0.685699 0.15812677
v 0.42855662 0.59987557 0.2525484
v 0.23808701 0.3332642 0.14030465
v 0.0645589 0.384327 0.1781821
v 0.11620602 0.69178855 0.32072777
v 0.12686911 0.7359077 0.16975492
v 0.070482835 0.40883762 0.094308294
v 0.070482835 0.40883762 0.094308294
v 0.12686911 0.7359077 0.16975492
v 0.31931698 0.685699 0.15812677
v 0.17739832 0.38094386 0.08784821
vt 0 0
vt 0 1
vt 0.09328802 1
vt 0.09328802 0
vt 0.09328802 0
vt 0.09328802 1
vt 0.16171804 1
vt 0.16171804 0
vt 0.8569813 0
vt 0.8569813 1
vt 1 1
vt 1 0
vt 0.77454305 0
vt 0.77454305 1
vt 0.8569813 1
vt 0.8569813 0
vt 0.71092296 0
vt 0.71092296 1
vt 0.77454305 1
vt 0.77454305 0
vt 0.58370435 0
vt 0.58370435 1
vt 0.71092296 1
vt 0.71092296 0
vt 0.4486529 0
vt 0.4486529 1
vt 0.58370435 1
vt 0.58370435 0
vt 0.16171804 0
vt 0.16171804 1
vt 0.2884696 1
vt 0.2884696 0
vt 0.2884696 0
vt 0.2884696 1
vt 0.4486529 1
vt 0.4486529 0
vn 0.4836284 0.36390597 -0.7960376
vn 0.4836284 0.363906 -0.7960376
vn 0.4836284 0.36390597 -0.7960376
vn 0.48362842 0.36390603 -0.79603773
vn 0.909875 0.038671028 -0.4130763
vn 0.909875 0.038671024 -0.41307634
vn 0.909875 0.038671024 -0.41307637
vn 0.909875 0.038671028 -0.41307634
vn 0.61774576 0.26877782 -0.7390187
vn 0.61774576 0.26877782 -0.7390187
vn 0.61774576 0.26877782 -0.7390187
vn 0.61774576 0.26877785 -0.7390186
vn -0.19940445 0.76241857 -0.6155938
vn -0.19940443 0.76241857 -0.61559373
vn -0.19940445 0.7624186 -0.61559373
vn -0.19940445 0.7624186 -0.61559373
vn -0.73759174 0.673766 0.044697076
vn -0.73759174 0.673766 0.04469707
vn -0.73759174 0.6737661 0.044697076
vn -0.73759174 0.67376596 0.044697072
vn -0.7519295 0.28740755 0.59329486
vn -0.7519295 0.28740752 0.59329486
vn -0.7519295 0.28740758 0.5932949
vn -0.7519295 0.28740755 0.59329486
vn -0.6048212 0.099444896 0.79012775
vn -0.6048212 0.09944492 0.79012793
vn -0.6048212 0.099444896 0.7901279
vn -0.6048212 0.09944492 0.79012793
vn 0.9845606 -0.17404483 0.018677244
vn 0.9845606 -0.17404482 0.018677246
vn 0.9845606 -0.17404482 0.018677244
vn 0.9845606 -0.17404482 0.018677244
vn 0.00022421738 -0.22480828 0.97440296
vn 0.00022421735 -0.22480828 0.97440296
vn 0.00022421737 -0.22480826 0.97440296
vn 0.00022421735 -0.22480826 0.97440296
g shard40_0
f 3/3/3 2/2/2 1/1/1
f 4/4/4 3/3/3 1/1/1
f 7/7/7 6/6/6 5/5/5
f 8/8/8 7/7/7 5/5/5
f 11/11/11 10/10/10 9/9/9
f 12/12/12 11/11/11 9/9/9
f 15/15/15 14/14/14 13/13/13
f 16/16/16 15/15/15 13/13/13
f 19/19/19 18/18/18 17/17/17
f 20/20/20 19/19/19 17/17/17
f 23/23/23 22/22/22 21/21/21
f 24/24/24 23/23/23 21/21/21
f 27/27/27 26/26/26 25/25/25
f 28/28/28 27/27/27 25/25/25
f 31/31/31 30/30/30 29/29/29
f 32/32/32 31/31/31 29/29/29
f 35/35/35 34/34/34 33/33/33
f 36/36/36 35/35/35 33/33/33
