g shard3
v -0.14233947 -0.28650954 0.2945516
v -0.25621104 -0.51571715 0.5301929
v -0.14918408 -0.42221588 0.63815963
v -0.08288004 -0.23456438 0.3545331
v 0.0043072 -0.23707642 0.3623915
v 0.0077529605 -0.42673755 0.6523047
v -0.032520197 -0.5741818 0.5277141
v -0.018066775 -0.3189899 0.29317448
v -0.08288004 -0.23456438 0.3545331
v -0.14918408 -0.42221588 0.63815963
v 0.0077529605 -0.42673755 0.6523047
v 0.0043072 -0.23707642 0.3623915
v 0.06656144 -0.39100775 0.16079094
v 0.11981059 -0.7038139 0.2894237
v -0.017660499 -0.7492813 0.15350471
v -0.009811387 -0.4162674 0.085280396
v 0.004500786 -0.35892367 0.24386226
v 0.008101415 -0.6460626 0.43895206
v 0.11981059 -0.7038139 0.2894237
v 0.06656144 -0.39100775 0.16079094
v -0.2285045 -0.3333838 0.15817523
v -0.4113081 -0.60009086 0.2847154
v -0.5473546 -0.527086 0.17772675
v -0.30408588 -0.29282555 0.098737076
v -0.30408588 -0.29282555 0.098737076
v -0.5473546 -0.527086 0.17772675
v -0.51981175 -0.50857687 0.28883907
v -0.28878433 -0.2825427 0.16046615
v -0.009811387 -0.4162674 0.085280396
v -0.017660499 -0.7492813 0.15350471
v -0.11355647 -0.6921173 0.3211466
v -0.06308693 -0.3845096 0.17841478
v -0.06308693 -0.3845096 0.17841478
v -0.11355647 -0.6921173 0.3211466
v -0.27916825 -0.67085814 0.26911622
v -0.15509348 -0.37269896 0.14950901
v -0.018066775 -0.3189899 0.29317448
v -0.032520197 -0.5741818 0.5277141
v 0.008101415 -0.6460626 0.43895206
v 0.004500786 -0.35892367 0.24386226
v -0.267383 -0.26553038 0.21721947
v -0.48128942 -0.4779547 0.39099506
v -0.40324247 -0.5421777 0.39439994
v -0.2240236 -0.30120984 0.21911107
v -0.15509348 -0.37269896 0.14950901
v -0.27916825 -0.67085814 0.26911622
v -0.4113081 -0.60009086 0.2847154
v -0.2285045 -0.3333838 0.15817523
v -0.2240236 -0.30120984 0.21911107
v -0.40324247 -0.5421777 0.39439994
v -0.39600024 -0.47679573 0.47799486
v -0.22000013 -0.26488653 0.2655527
v -0.22000013 -0.26488653 0.2655527
v -0.39600024 -0.47679573 0.47799486
v -0.25621104 -0.51571715 0.5301929
v -0.14233947 -0.28650954 0.2945516
v -0.31090453 -0.21390119 0.21631165
v -0.5596281 -0.38502216 0.38936096
v -0.48128942 -0.4779547 0.39099506
v -0.267383 -0.26553038 0.21721947
v -0.28878433 -0.2825427 0.16046615
v -0.51981175 -0.50857687 0.28883907
v -0.5596281 -0.38502216 0.38936096
v -0.31090453 -0.21390119 0.21631165
vt 0 0
vt 0 1
vt 0.0706344 1
vt 0.0706344 0
vt 0.13302153 0
vt 0.13302153 1
vt 0.21106246 1
vt 0.21106246 0
vt 0.0706344 0
vt 0.0706344 1
vt 0.13302153 1
vt 0.13302153 0
vt 0.33636242 0
vt 0.33636242 1
vt 0.4149583 1
vt 0.4149583 0
vt 0.25903893 0
vt 0.25903893 1
vt 0.33636242 1
vt 0.33636242 0
vt 0.6235285 0
vt 0.6235285 1
vt 0.6978695 1
vt 0.6978695 0
vt 0.6978695 0
vt 0.6978695 1
vt 0.74376273 1
vt 0.74376273 0
vt 0.4149583 0
vt 0.4149583 1
vt 0.4946702 1
vt 0.4946702 0
vt 0.4946702 0
vt 0.4946702 1
vt 0.56388485 1
vt 0.56388485 0
vt 0.21106246 0
vt 0.21106246 1
vt 0.25903893 1
vt 0.25903893 0
vt 0.85684735 0
vt 0.85684735 1
vt 0.8968712 1
vt 0.8968712 0
vt 0.56388485 0
vt 0.56388485 1
vt 0.6235285 1
vt 0.6235285 0
vt 0.8968712 0
vt 0.8968712 1
vt 0.93896985 1
vt 0.93896985 0
vt 0.93896985 0
vt 0.93896985 1
vt 1 1
vt 1 0
vt 0.8087397 0
vt 0.8087397 1
vt 0.85684735 1
vt 0.85684735 0
vt 0.74376273 0
vt 0.74376273 1
vt 0.8087397 1
vt 0.8087397 0
vn 0.76002336 -0.6094916 -0.2255762
vn 0.7600233 -0.6094916 -0.22557622
vn 0.7600233 -0.6094916 -0.22557622
vn 0.7600233 -0.6094916 -0.22557619
vn -0.9788079 0.16584411 0.120128796
vn -0.9788078 0.16584411 0.12012878
vn -0.9788079 0.16584411 0.1201288
vn -0.9788079 0.16584411 0.120128796
vn 0.025247507 -0.8364298 -0.54749215
vn 0.025247512 -0.8364299 -0.5474922
vn 0.02524751 -0.8364299 -0.5474922
vn 0.025247507 -0.8364298 -0.54749215
vn -0.72006047 0.1555167 0.6762599
vn -0.7200604 0.1555167 0.67625993
vn -0.72006047 0.1555167 0.6762599
vn -0.72006047 0.15551671 0.67625993
vn -0.81232774 -0.33468568 -0.4776077
vn -0.81232774 -0.3346857 -0.47760776
vn -0.81232774 -0.3346857 -0.47760776
vn -0.81232774 -0.33468574 -0.47760776
vn -0.298187 0.5682511 0.7669258
vn -0.298187 0.56825113 0.7669258
vn -0.298187 0.5682511 0.76692575
vn -0.298187 0.5682511 0.76692575
vn 0.68460274 -0.7272979 -0.048547454
vn 0.68460274 -0.7272979 -0.048547458
vn 0.6846028 -0.7272979 -0.048547454
vn 0.68460274 -0.7272979 -0.048547458
vn 0.8765096 0.07670167 0.47523433
vn 0.8765096 0.076701656 0.47523433
vn 0.8765096 0.07670166 0.47523433
vn 0.8765096 0.07670167 0.47523445
vn -0.21727346 0.43995503 0.8713391
vn -0.21727346 0.43995503 0.8713391
vn -0.21727346 0.43995503 0.8713391
vn -0.21727344 0.43995503 0.8713391
vn -0.9420268 -0.19656938 -0.27193034
vn -0.9420268 -0.1965694 -0.27193037
vn -0.9420268 -0.19656938 -0.27193037
vn -0.9420268 -0.19656938 -0.27193037
vn -0.2973218 -0.40710708 -0.8636339
vn -0.29732183 -0.4071071 -0.8636339
vn -0.2973218 -0.4071071 -0.8636339
vn -0.2973218 -0.40710708 -0.8636339
vn 0.25308013 0.26763144 0.92969024
vn 0.25308013 0.26763147 0.92969024
vn 0.25308016 0.26763147 0.92969024
vn 0.25308016 0.26763147 0.92969024
vn 0.85624146 -0.44028726 0.2701807
vn 0.8562416 -0.44028726 0.27018073
vn 0.85624146 -0.44028726 0.2701807
vn 0.85624146 -0.44028726 0.2701807
vn 0.052311752 -0.7283601 -0.6831947
vn 0.052311745 -0.72836006 -0.6831947
vn 0.052311745 -0.72836006 -0.6831947
vn 0.052311752 -0.72836006 -0.6831947
vn -0.37472078 -0.33110324 -0.8659995
vn -0.37472072 -0.3311032 -0.8659994
vn -0.37472078 -0.33110324 -0.8659995
vn -0.37472078 -0.33110324 -0.8659995
vn 0.6792697 -0.31887317 0.6609937
vn 0.6792696 -0.31887317 0.66099375
vn 0.6792696 -0.3188732 0.66099375
vn 0.6792696 -0.31887317 0.6609937
g shard3_0
f 3/3/3 2/2/2 1/1/1
f 4/4/4 3/3/3 1/1/1
f 7/7/7 6/6/6 5/5/5
f 8/8/8 7/7/7 5/5/5
f 11/11/11 10/10/10 9/9/9
f 12/12/12 11/11/11 9/9/9
f 15/15/15 14/14/14 13/13/13
f 16/16/16 15/15/15 13/13/13
f 19/19/19 18/18/18 17/17/17
f 20/20/20 19/19/19 17/17/17
f 23/23/23 22/22/22 21/21/21
f 24/24/24 23/23/23 21/21/21
f 27/27/27 26/26/26 25/25/25
f 28/28/28 27/27/27 25/25/25
f 31/31/31 30/30/30 29/29/29
f 32/32/32 31/31/31 29/29/29
f 35/35/35 34/34/34 33/33/33
f 36/36/36 35/35/35 33/33/33
f 39/39/39 38/38/38 37/37/37
f 40/40/40 39/39/39 37/37/37
f 43/43/43 42/42/42 41/41/41
f 44/44/44 43/43/43 41/41/41
f 47/47/47 46/46/46 45/45/45
f 48/48/48 47/47/47 45/45/45
f 51/51/51 50/50/50 49/49/49
f 52/52/52 51/51/51 49/49/49
f 55/55/55 54/54/54 53/53/53
f 56/56/56 55/55/55 53/53/53
f 59/59/59 58/58/58 57/57/57
f 60/60/60 59/59/59 57/57/57
f 63/63/63 62/62/62 61/61/61
f 64/64/64 63/63/63 61/61/61
