g shard85
v -0.0050506 0.09895918 -0.07568248
v 0.06840502 0.03236505 -0.08519706
v 0.07920893 0.05540141 -0.004696533
v 0.003155008 0.1170584 0.0003136247
v 0.07138203 0.07362938 0.06811382
v -0.0928667 0.1361534 -0.08620836
v -0.001362413 0.1263615 0.07411817
v -0.09204765 0.1591514 0.01073958
v -0.1624762 0.1723476 -0.01893509
v -0.1324911 0.1755505 0.07446434
v -0.07956062 0.1618972 0.07877873
v -0.05890557 0.1440297 0.1669675
v 0.1652587 -0.1701849 -0.09100662
v 0.1485221 -0.0897184 -0.07076158
v 0.1275964 -0.1640141 -0.1669674
v 0.1674431 -0.1059158 -0.01729149
v 0.1220006 -0.001036912 -0.009605192
v 0.09802775 -0.00695692 -0.08880123
v 0.06840502 0.03236505 -0.08519706
v 0.07920893 0.05540141 -0.004696533
v -0.01527897 0.08288857 -0.07024518
v 0.06547059 0.04168704 -0.0007244647
v 0.05461948 0.01917118 -0.07951082
v -0.00690563 0.1001018 0.003668822
v 0.05935009 0.05778453 0.07002286
v -0.09956942 0.1179746 -0.08146124
v -0.01135358 0.1092166 0.07393762
v -0.09833926 0.140412 0.01378081
v -0.1674432 0.1533043 -0.01561018
v -0.1371359 0.1562591 0.0741514
v -0.0861053 0.1430002 0.07851668
v -0.06543033 0.1253586 0.164711
v 0.1472363 -0.1755505 -0.0844267
v 0.1102453 -0.1696668 -0.1587829
v 0.1314127 -0.09706745 -0.06376818
v 0.1491345 -0.1124597 -0.01289368
v 0.105488 -0.01099698 -0.004953086
v 0.08203419 -0.01741755 -0.08314498
v 0.05461948 0.01917118 -0.07951082
v 0.06547059 0.04168704 -0.0007244647
v -0.06543033 0.1253586 0.164711
v -0.05890557 0.1440297 0.1669675
v -0.001362413 0.1263615 0.07411817
v -0.01135358 0.1092166 0.07393762
v -0.1371359 0.1562591 0.0741514
v -0.05890557 0.1440297 0.1669675
v -0.06543033 0.1253586 0.164711
v -0.1324911 0.1755505 0.07446434
v -0.1674432 0.1533043 -0.01561018
v -0.1624762 0.1723476 -0.01893509
v -0.09956942 0.1179746 -0.08146124
v -0.0928667 0.1361534 -0.08620836
v -0.1624762 0.1723476 -0.01893509
v -0.1674432 0.1533043 -0.01561018
v -0.01135358 0.1092166 0.07393762
v -0.001362413 0.1263615 0.07411817
v 0.07138203 0.07362938 0.06811382
v 0.05935009 0.05778453 0.07002286
v 0.05935009 0.05778453 0.07002286
v 0.07138203 0.07362938 0.06811382
v 0.07920893 0.05540141 -0.004696533
v 0.06547059 0.04168704 -0.0007244647
v 0.05461948 0.01917118 -0.07951082
v 0.06840502 0.03236505 -0.08519706
v -0.0050506 0.09895918 -0.07568248
v -0.01527897 0.08288857 -0.07024518
v -0.0928667 0.1361534 -0.08620836
v -0.09956942 0.1179746 -0.08146124
v 0.1491345 -0.1124597 -0.01289368
v 0.1674431 -0.1059158 -0.01729149
v 0.1652587 -0.1701849 -0.09100662
v 0.1472363 -0.1755505 -0.0844267
v 0.1472363 -0.1755505 -0.0844267
v 0.1652587 -0.1701849 -0.09100662
v 0.1275964 -0.1640141 -0.1669674
v 0.1102453 -0.1696668 -0.1587829
v 0.1102453 -0.1696668 -0.1587829
v 0.1275964 -0.1640141 -0.1669674
v 0.1485221 -0.0897184 -0.07076158
v 0.1314127 -0.09706745 -0.06376818
v 0.105488 -0.01099698 -0.004953086
v 0.1674431 -0.1059158 -0.01729149
v 0.1491345 -0.1124597 -0.01289368
v 0.1220006 -0.001036912 -0.009605192
v 0.06547059 0.04168704 -0.0007244647
v 0.07920893 0.05540141 -0.004696533
v 0.1314127 -0.09706745 -0.06376818
v 0.1485221 -0.0897184 -0.07076158
v 0.09802775 -0.00695692 -0.08880123
v 0.08203419 -0.01741755 -0.08314498
v 0.06840502 0.03236505 -0.08519706
v 0.05461948 0.01917118 -0.07951082
vt 0.59375 0.4375
vt 0.625 0.4375
vt 0.625 0.40625
vt 0.59375 0.40625
vt 0.625 0.375
vt 0.5625 0.4375
vt 0.59375 0.375
vt 0.5625 0.40625
vt 0.53125 0.40625
vt 0.53125 0.375
vt 0.5625 0.375
vt 0.5625 0.34375
vt 0.8125 0.15625
vt 0.8125 0.1875
vt 0.84375 0.15625
vt 0.78125 0.1875
vt 0.78125 0.21875
vt 0.8125 0.21875
vt 0.8125 0.25
vt 0.78125 0.25
vt 0.59375 0.4375
vt 0.625 0.40625
vt 0.625 0.4375
vt 0.59375 0.40625
vt 0.625 0.375
vt 0.5625 0.4375
vt 0.59375 0.375
vt 0.5625 0.40625
vt 0.53125 0.40625
vt 0.53125 0.375
vt 0.5625 0.375
vt 0.5625 0.34375
vt 0.8125 0.15625
vt 0.84375 0.15625
vt 0.8125 0.1875
vt 0.78125 0.1875
vt 0.78125 0.21875
vt 0.8125 0.21875
vt 0.8125 0.25
vt 0.78125 0.25
vt 0.5625 0.34375
vt 0.5625 0.34375
vt 0.59375 0.375
vt 0.59375 0.375
vt 0.53125 0.375
vt 0.5625 0.34375
vt 0.5625 0.34375
vt 0.53125 0.375
vt 0.53125 0.40625
vt 0.53125 0.40625
vt 0.5625 0.4375
vt 0.5625 0.4375
vt 0.53125 0.40625
vt 0.53125 0.40625
vt 0.59375 0.375
vt 0.59375 0.375
vt 0.625 0.375
vt 0.625 0.375
vt 0.625 0.375
vt 0.625 0.375
vt 0.625 0.40625
vt 0.625 0.40625
vt 0.625 0.4375
vt 0.625 0.4375
vt 0.59375 0.4375
vt 0.59375 0.4375
vt 0.5625 0.4375
vt 0.5625 0.4375
vt 0.78125 0.1875
vt 0.78125 0.1875
vt 0.8125 0.15625
vt 0.8125 0.15625
vt 0.8125 0.15625
vt 0.8125 0.15625
vt 0.84375 0.15625
vt 0.84375 0.15625
vt 0.84375 0.15625
vt 0.84375 0.15625
vt 0.8125 0.1875
vt 0.8125 0.1875
vt 0.78125 0.21875
vt 0.78125 0.1875
vt 0.78125 0.1875
vt 0.78125 0.21875
vt 0.78125 0.25
vt 0.78125 0.25
vt 0.8125 0.1875
vt 0.8125 0.1875
vt 0.8125 0.21875
vt 0.8125 0.21875
vt 0.8125 0.25
vt 0.8125 0.25
vn 0.5153967 0.8157606 -0.2624897
vn 0.6821808 0.6735092 -0.2846311
vn 0.6565105 0.7180703 -0.2310172
vn 0.4951686 0.8514895 -0.1725508
vn 0.605267 0.7892626 -0.1035196
vn 0.3520399 0.907729 -0.2282453
vn 0.4647963 0.884473 -0.04088871
vn 0.3261952 0.9310025 -0.1638016
vn 0.2535399 0.9506181 -0.1790047
vn 0.2394278 0.9705052 -0.02817692
vn 0.3457165 0.9381468 0.01899237
vn 0.3748973 0.9217706 0.09894953
vn 0.8842325 0.2782862 -0.3750862
vn 0.8936887 0.3546759 -0.2748188
vn 0.868224 0.2831061 -0.4074775
vn 0.9124105 0.3464327 -0.2179254
vn 0.8208255 0.5047539 -0.2673368
vn 0.8123115 0.509423 -0.283969
vn 0.6821808 0.6735092 -0.2846311
vn 0.6565105 0.7180703 -0.2310172
vn -0.5137357 -0.8170047 0.2618758
vn -0.6561046 -0.7188537 0.2297304
vn -0.681921 -0.6729411 0.2865906
vn -0.4943962 -0.8518772 0.1728517
vn -0.6055825 -0.789308 0.1013038
vn -0.3498619 -0.9087176 0.2276594
vn -0.4651873 -0.8842522 0.04121614
vn -0.3251336 -0.9310242 0.1657771
vn -0.2543423 -0.9499675 0.1813063
vn -0.2404712 -0.9702008 0.02973205
vn -0.3445832 -0.9385395 -0.0201515
vn -0.3735957 -0.9222771 -0.09915264
vn -0.8834416 -0.277492 0.3775304
vn -0.8675538 -0.2826327 0.4092297
vn -0.8941789 -0.3538746 0.2742567
vn -0.9142103 -0.343865 0.2144208
vn -0.820875 -0.5040481 0.2685139
vn -0.812643 -0.5080525 0.2854717
vn -0.681921 -0.6729411 0.2865906
vn -0.6561046 -0.7188537 0.2297304
vn 0.7556803 -0.3845414 0.5301652
vn 0.7556804 -0.3845414 0.5301652
vn 0.7556803 -0.3845414 0.5301651
vn 0.7556803 -0.3845414 0.5301652
vn -0.8388651 0.2143337 0.5003663
vn -0.7414854 0.1743114 0.6479313
vn -0.7414854 0.1743113 0.6479313
vn -0.8376008 0.2137823 0.5027147
vn -0.9211835 0.2541251 0.2946886
vn -0.9211835 0.2541252 0.2946886
vn -0.6798072 0.0545257 -0.731361
vn -0.6798072 0.05452571 -0.7313611
vn -0.6798072 0.05452571 -0.7313611
vn -0.6798072 0.05452571 -0.7313611
vn 0.07200808 0.004187237 0.9973953
vn 0.07200809 0.004187237 0.9973953
vn 0.07200808 0.004187237 0.9973953
vn 0.07200808 0.004187237 0.9973953
vn 0.7565045 -0.6156244 0.2206977
vn 0.7565045 -0.6156244 0.2206977
vn 0.7565045 -0.6156244 0.2206977
vn 0.7565045 -0.6156244 0.2206977
vn -0.2646207 -0.1374936 -0.9545007
vn -0.2646282 -0.1374732 -0.9545014
vn -0.1328934 -0.2186842 -0.9667039
vn -0.1335165 -0.2183583 -0.9666918
vn 0.001146538 -0.2855464 -0.9583642
vn 0.001146538 -0.2855464 -0.9583642
vn 0.4069889 -0.6924409 0.5957228
vn 0.4069889 -0.6924409 0.5957228
vn 0.4069889 -0.6924409 0.5957228
vn 0.4069889 -0.6924409 0.5957228
vn 0.2204776 -0.9574392 -0.1862788
vn 0.2204776 -0.9574392 -0.1862788
vn 0.2204776 -0.9574392 -0.1862788
vn 0.2204776 -0.9574392 -0.1862788
vn -0.4841537 0.742122 -0.4635193
vn -0.4841536 0.7421221 -0.4635193
vn -0.4841536 0.742122 -0.4635193
vn -0.4841536 0.742122 -0.4635193
vn 0.229292 0.04890969 0.9721281
vn 0.2383574 0.02939537 0.9707326
vn 0.2383574 0.02939537 0.9707326
vn 0.2293229 0.04884347 0.9721242
vn 0.2141343 0.08098859 0.9734409
vn 0.2141343 0.08098859 0.9734409
vn -0.180132 -0.3246813 -0.928512
vn -0.180132 -0.3246813 -0.928512
vn -0.2119584 -0.2570174 -0.9428763
vn -0.2120375 -0.256844 -0.9429057
vn -0.2646282 -0.1374732 -0.9545014
vn -0.2646207 -0.1374936 -0.9545007
g shard85_0
f 3/3/3 2/2/2 1/1/1
f 3/3/3 1/1/1 4/4/4
f 5/5/5 3/3/3 4/4/4
f 4/4/4 1/1/1 6/6/6
f 5/5/5 4/4/4 7/7/7
f 4/4/4 6/6/6 8/8/8
f 7/7/7 4/4/4 8/8/8
f 6/6/6 9/9/9 8/8/8
f 8/8/8 9/9/9 10/10/10
f 7/7/7 8/8/8 11/11/11
f 8/8/8 10/10/10 11/11/11
f 7/7/7 11/11/11 12/12/12
f 12/12/12 11/11/11 10/10/10
f 15/15/15 14/14/14 13/13/13
f 13/13/13 14/14/14 16/16/16
f 14/14/14 17/17/17 16/16/16
f 14/14/14 18/18/18 17/17/17
f 19/19/19 17/17/17 18/18/18
f 19/19/19 20/20/20 17/17/17
f 23/23/23 22/22/22 21/21/21
f 21/21/21 22/22/22 24/24/24
f 22/22/22 25/25/25 24/24/24
f 21/21/21 24/24/24 26/26/26
f 24/24/24 25/25/25 27/27/27
f 26/26/26 24/24/24 28/28/28
f 24/24/24 27/27/27 28/28/28
f 29/29/29 26/26/26 28/28/28
f 29/29/29 28/28/28 30/30/30
f 28/28/28 27/27/27 31/31/31
f 30/30/30 28/28/28 31/31/31
f 31/31/31 27/27/27 32/32/32
f 31/31/31 32/32/32 30/30/30
f 35/35/35 34/34/34 33/33/33
f 35/35/35 33/33/33 36/36/36
f 37/37/37 35/35/35 36/36/36
f 38/38/38 35/35/35 37/37/37
f 37/37/37 39/39/39 38/38/38
f 40/40/40 39/39/39 37/37/37
f 43/43/43 42/42/42 41/41/41
f 44/44/44 43/43/43 41/41/41
f 47/47/47 46/46/46 45/45/45
f 46/46/46 48/48/48 45/45/45
f 45/45/45 48/48/48 49/49/49
f 48/48/48 50/50/50 49/49/49
f 53/53/53 52/52/52 51/51/51
f 54/54/54 53/53/53 51/51/51
f 57/57/57 56/56/56 55/55/55
f 58/58/58 57/57/57 55/55/55
f 61/61/61 60/60/60 59/59/59
f 62/62/62 61/61/61 59/59/59
f 65/65/65 64/64/64 63/63/63
f 66/66/66 65/65/65 63/63/63
f 67/67/67 65/65/65 66/66/66
f 68/68/68 67/67/67 66/66/66
f 71/71/71 70/70/70 69/69/69
f 72/72/72 71/71/71 69/69/69
f 75/75/75 74/74/74 73/73/73
f 76/76/76 75/75/75 73/73/73
f 79/79/79 78/78/78 77/77/77
f 80/80/80 79/79/79 77/77/77
f 83/83/83 82/82/82 81/81/81
f 82/82/82 84/84/84 81/81/81
f 81/81/81 84/84/84 85/85/85
f 84/84/84 86/86/86 85/85/85
f 89/89/89 88/88/88 87/87/87
f 90/90/90 89/89/89 87/87/87
f 91/91/91 89/89/89 90/90/90
f 92/92/92 91/91/91 90/90/90
