g shield_level1_2
v 0.13581571 0.48454168 -0.11946856
v 0.13320023 0.48524633 -0.08998528
v -0.13284823 0.48524633 -0.090504155
v -0.13534868 0.48454168 -0.11999742
v -0.13534868 0.48454168 -0.11999742
v -0.13284823 0.48524633 -0.090504155
v -0.274327 0.25038218 -0.04361545
v -0.27992132 0.24493626 -0.07215295
v -0.27992132 0.24493626 -0.07215295
v -0.274327 0.25038218 -0.04361545
v -0.13993219 0.00952919 0.0038646983
v -0.14283116 -0.0010017013 -0.023698606
v -0.14283116 -0.0010017013 -0.023698606
v -0.13993219 0.00952919 0.0038646983
v 0.13991605 0.00952919 0.00441049
v 0.1429225 -0.0010017013 -0.023141298
v 0.1429225 -0.0010017013 -0.023141298
v 0.13991605 0.00952919 0.00441049
v 0.27449504 0.25038218 -0.04254507
v 0.28020063 0.24493626 -0.07106054
v 0.28020063 0.24493626 -0.07106054
v 0.27449504 0.25038218 -0.04254507
v 0.13320023 0.48524633 -0.08998528
v 0.13581571 0.48454168 -0.11946856
v 0.13991605 0.00952919 0.00441049
v 4.489023E-05 0.25038216 -0.023019291
v 0.27449504 0.25038218 -0.04254507
v -0.13993219 0.00952919 0.0038646983
v 0.13320023 0.48524633 -0.08998528
v -0.274327 0.25038218 -0.04361545
v -0.13284823 0.48524633 -0.090504155
vt 0.078590065 0.31095022
vt 0.055537045 0.3088193
vt 0.055537105 0.3088193
vt 0.078590065 0.31095022
vt 0.078590065 0.31095022
vt 0.055537105 0.3088193
vt 0.055537134 0.24943586
vt 0.078590035 0.24943586
vt 0.078590035 0.24943586
vt 0.055537134 0.24943586
vt 0.055537134 0.19005238
vt 0.078590065 0.18792143
vt 0.078590065 0.18792143
vt 0.055537134 0.19005238
vt 0.055537105 0.19005238
vt 0.078590065 0.18792143
vt 0.078590065 0.18792143
vt 0.055537105 0.19005238
vt 0.055537075 0.24943586
vt 0.078590035 0.24943586
vt 0.078590035 0.24943586
vt 0.055537075 0.24943586
vt 0.055537045 0.3088193
vt 0.078590065 0.31095022
vt 0.7305496 0.04809493
vt 0.4999999 0.5
vt 0.96109855 0.50000024
vt 0.26945078 0.04809472
vt 0.73054934 0.95190513
vt 0.038901478 0.5
vt 0.26945072 0.95190537
vn 4.659119E-05 0.99971455 -0.023888487
vn 4.6591194E-05 0.99971455 -0.02388849
vn 4.6591194E-05 0.99971455 -0.02388849
vn 4.659119E-05 0.99971455 -0.023888487
vn -0.8491081 0.52446586 0.062856354
vn -0.8491081 0.524466 0.062856354
vn -0.8491081 0.52446586 0.062856354
vn -0.8491081 0.52446586 0.062856354
vn -0.86512977 -0.43240523 0.2541186
vn -0.86512977 -0.43240523 0.2541186
vn -0.86512977 -0.4324053 0.2541186
vn -0.86512977 -0.43240532 0.25411862
vn -0.0006961918 -0.93411773 0.35696447
vn -0.00069619186 -0.93411773 0.35696444
vn -0.0006961918 -0.93411773 0.35696447
vn -0.00069619174 -0.93411773 0.35696447
vn 0.864132 -0.4324051 0.25749105
vn 0.864132 -0.4324051 0.25749105
vn 0.864132 -0.4324051 0.25749108
vn 0.864132 -0.43240517 0.25749105
vn 0.8488565 0.5244658 0.06616758
vn 0.84885657 0.5244658 0.06616758
vn 0.84885657 0.5244658 0.06616757
vn 0.84885657 0.52446574 0.06616757
vn 0.033581045 0.1323214 0.9906379
vn -0.0019132952 0.19391428 0.9810167
vn 0.06960284 0.19503775 0.97832286
vn -0.03744488 0.1323214 0.9904993
vn 0.03334031 0.25651956 0.9659639
vn -0.073418394 0.1950378 0.978044
vn -0.037107937 0.25651962 0.9658264
g shield_level1_2_0
f 3/3/3 2/2/2 1/1/1
f 4/4/4 3/3/3 1/1/1
f 7/7/7 6/6/6 5/5/5
f 8/8/8 7/7/7 5/5/5
f 11/11/11 10/10/10 9/9/9
f 12/12/12 11/11/11 9/9/9
f 15/15/15 14/14/14 13/13/13
f 16/16/16 15/15/15 13/13/13
f 19/19/19 18/18/18 17/17/17
f 20/20/20 19/19/19 17/17/17
f 23/23/23 22/22/22 21/21/21
f 24/24/24 23/23/23 21/21/21
f 27/27/27 26/26/26 25/25/25
f 25/25/25 26/26/26 28/28/28
f 29/29/29 26/26/26 27/27/27
f 28/28/28 26/26/26 30/30/30
f 31/31/31 26/26/26 29/29/29
f 30/30/30 26/26/26 31/31/31
