g shield_level1_22
v 0.17985597 0.42839733 -0.3920741
v 0.18424812 0.43664175 -0.36407015
v -0.043601282 0.43664175 -0.31102487
v -0.052029494 0.42839733 -0.3380892
v -0.052029494 0.42839733 -0.3380892
v -0.043601282 0.43664175 -0.31102487
v -0.14980993 0.22593106 -0.17646591
v -0.16075638 0.21358356 -0.20070001
v -0.16075638 0.21358356 -0.20070001
v -0.14980993 0.22593106 -0.17646591
v -0.010316161 0.0016419792 -0.09905834
v -0.018623484 -0.015587749 -0.12165612
v -0.018623484 -0.015587749 -0.12165612
v -0.010316161 0.0016419792 -0.09905834
v 0.24800652 0.001641941 -0.15919802
v 0.2454787 -0.015587787 -0.18314132
v 0.2454787 -0.015587787 -0.18314132
v 0.24800652 0.001641941 -0.15919802
v 0.33896747 0.22593103 -0.29025736
v 0.33808464 0.21358353 -0.31683436
v 0.33808464 0.21358353 -0.31683436
v 0.33896747 0.22593103 -0.29025736
v 0.18424812 0.43664175 -0.36407015
v 0.17985597 0.42839733 -0.3920741
v 0.24800652 0.001641941 -0.15919802
v 0.09873817 0.22593103 -0.21549541
v 0.33896747 0.22593103 -0.29025736
v -0.010316161 0.0016419792 -0.09905834
v 0.18424812 0.43664175 -0.36407015
v -0.14980993 0.22593106 -0.17646591
v -0.043601282 0.43664175 -0.31102487
vt 0.078590095 0.16888879
vt 0.05553712 0.16675788
vt 0.055537164 0.16675788
vt 0.078590095 0.16888879
vt 0.078590095 0.16888879
vt 0.055537164 0.16675788
vt 0.05553715 0.107374415
vt 0.078590035 0.10737443
vt 0.078590035 0.10737443
vt 0.05553715 0.107374415
vt 0.05553714 0.047990933
vt 0.07859005 0.045860007
vt 0.07859005 0.045860007
vt 0.05553714 0.047990933
vt 0.055537097 0.04799092
vt 0.078590065 0.045860007
vt 0.078590065 0.045860007
vt 0.055537097 0.04799092
vt 0.055537105 0.107374415
vt 0.078590035 0.10737443
vt 0.078590035 0.10737443
vt 0.055537105 0.107374415
vt 0.05553712 0.16675788
vt 0.078590095 0.16888879
vt 0.7305496 0.04809493
vt 0.4999999 0.5
vt 0.96109855 0.50000024
vt 0.26945078 0.04809472
vt 0.73054934 0.95190513
vt 0.038901478 0.5
vt 0.26945072 0.95190537
vn -0.06348077 0.96000993 -0.2726738
vn -0.06348077 0.96000993 -0.2726738
vn -0.06348077 0.96000993 -0.2726738
vn -0.06348077 0.96000993 -0.2726738
vn -0.85363865 0.50712764 0.11883809
vn -0.85363865 0.5071277 0.1188381
vn -0.85363865 0.50712764 0.11883809
vn -0.85363865 0.50712764 0.11883809
vn -0.7930673 -0.3120541 0.5231314
vn -0.7930673 -0.3120541 0.5231314
vn -0.7930673 -0.3120541 0.5231315
vn -0.7930673 -0.31205413 0.5231315
vn 0.1326241 -0.81110126 0.5696716
vn 0.1326241 -0.81110126 0.5696716
vn 0.1326241 -0.81110126 0.5696716
vn 0.13262412 -0.8111012 0.56967163
vn 0.94257474 -0.31205425 0.11905929
vn 0.94257474 -0.31205425 0.11905929
vn 0.94257474 -0.31205425 0.1190593
vn 0.94257474 -0.31205425 0.11905932
vn 0.8183506 0.507127 -0.27041522
vn 0.8183506 0.507127 -0.27041522
vn 0.8183506 0.507127 -0.27041522
vn 0.8183506 0.507127 -0.2704152
vn 0.23934305 0.38321054 0.89211243
vn 0.20361857 0.43997905 0.8746187
vn 0.2665166 0.44223493 0.85638607
vn 0.17929406 0.38321054 0.9060923
vn 0.22596925 0.4984442 0.83695364
vn 0.1391351 0.44223505 0.8860415
vn 0.16693032 0.4984442 0.85069835
g shield_level1_22_0
f 3/3/3 2/2/2 1/1/1
f 4/4/4 3/3/3 1/1/1
f 7/7/7 6/6/6 5/5/5
f 8/8/8 7/7/7 5/5/5
f 11/11/11 10/10/10 9/9/9
f 12/12/12 11/11/11 9/9/9
f 15/15/15 14/14/14 13/13/13
f 16/16/16 15/15/15 13/13/13
f 19/19/19 18/18/18 17/17/17
f 20/20/20 19/19/19 17/17/17
f 23/23/23 22/22/22 21/21/21
f 24/24/24 23/23/23 21/21/21
f 27/27/27 26/26/26 25/25/25
f 25/25/25 26/26/26 28/28/28
f 29/29/29 26/26/26 27/27/27
f 28/28/28 26/26/26 30/30/30
f 31/31/31 26/26/26 29/29/29
f 30/30/30 26/26/26 31/31/31
