g shield_level1_11
v 0.293017 0.4197763 -0.2737226
v 0.2947603 0.4257833 -0.2448231
v 0.02372107 0.445815 -0.2005994
v 0.01641582 0.440521 -0.2286605
v 0.01641582 0.440521 -0.2286605
v 0.02372107 0.445815 -0.2005994
v -0.1261646 0.2362668 -0.09593269
v -0.1368012 0.2266897 -0.1218811
v -0.1368012 0.2266897 -0.1218811
v -0.1261646 0.2362668 -0.09593269
v 0.007701845 0.004403267 -0.03360221
v -2.709389E-05 -0.01021011 -0.05819678
v -2.709389E-05 -0.01021011 -0.05819678
v 0.007701845 0.004403267 -0.03360221
v 0.2817562 -0.001114922 -0.08045398
v 0.2797638 -0.01561094 -0.1060413
v 0.2797638 -0.01561094 -0.1060413
v 0.2817562 -0.001114922 -0.08045398
v 0.4175535 0.2130991 -0.1876485
v 0.4180845 0.2031531 -0.2154891
v 0.4180845 0.2031531 -0.2154891
v 0.4175535 0.2130991 -0.1876485
v 0.2947603 0.4257833 -0.2448231
v 0.293017 0.4197763 -0.2737226
v 0.2947603 0.4257833 -0.2448231
v 0.1505428 0.2261533 -0.1216629
v 0.02372107 0.445815 -0.2005994
v 0.4175535 0.2130991 -0.1876485
v -0.1261646 0.2362668 -0.09593269
v 0.2817562 -0.001114922 -0.08045398
v 0.007701845 0.004403267 -0.03360221
vt 0.0785901 0.1688888
vt 0.05553712 0.1667579
vt 0.05553716 0.1667579
vt 0.0785901 0.1688888
vt 0.0785901 0.1688888
vt 0.05553716 0.1667579
vt 0.05553715 0.1073744
vt 0.07859004 0.1073744
vt 0.07859004 0.1073744
vt 0.05553715 0.1073744
vt 0.05553714 0.04799093
vt 0.07859005 0.04586001
vt 0.07859005 0.04586001
vt 0.05553714 0.04799093
vt 0.0555371 0.04799092
vt 0.07859007 0.04586001
vt 0.07859007 0.04586001
vt 0.0555371 0.04799092
vt 0.0555371 0.1073744
vt 0.07859004 0.1073744
vt 0.07859004 0.1073744
vt 0.0555371 0.1073744
vt 0.05553712 0.1667579
vt 0.0785901 0.1688888
vt 0.7305493 0.9519051
vt 0.4999999 0.5
vt 0.2694507 0.9519054
vt 0.9610986 0.5000002
vt 0.03890148 0.5
vt 0.7305496 0.04809493
vt 0.2694508 0.04809472
vn 0.04018054 0.9788516 -0.200587
vn 0.04018054 0.9788516 -0.200587
vn 0.04018054 0.9788516 -0.2005869
vn 0.04018054 0.9788516 -0.200587
vn -0.7868742 0.6099985 0.09343942
vn -0.7868742 0.6099985 0.09343942
vn -0.7868742 0.6099985 0.09343942
vn -0.7868742 0.6099986 0.09343944
vn -0.8159953 -0.3467888 0.4624816
vn -0.8159953 -0.3467888 0.4624816
vn -0.8159953 -0.3467888 0.4624816
vn -0.8159953 -0.3467888 0.4624816
vn 0.06681421 -0.8686322 0.4909316
vn 0.0668142 -0.8686322 0.4909316
vn 0.06681421 -0.8686322 0.4909317
vn 0.0668142 -0.8686322 0.4909316
vn 0.8695475 -0.4576544 0.1855792
vn 0.8695475 -0.4576544 0.1855792
vn 0.8695475 -0.4576544 0.1855792
vn 0.8695475 -0.4576544 0.1855792
vn 0.8731729 0.4640378 -0.1491242
vn 0.8731729 0.4640378 -0.1491242
vn 0.8731728 0.4640378 -0.1491242
vn 0.8731729 0.4640378 -0.1491242
vn 0.2087654 0.3998088 0.8925077
vn 0.1693719 0.3458756 0.9228669
vn 0.1376301 0.4043812 0.9041758
vn 0.241092 0.3438176 0.9075594
vn 0.09940234 0.3478716 0.9322577
vn 0.204875 0.2879095 0.9354861
vn 0.1321543 0.2911436 0.9475076
g shield_level1_11_0
f 3/3/3 2/2/2 1/1/1
f 4/4/4 3/3/3 1/1/1
f 7/7/7 6/6/6 5/5/5
f 8/8/8 7/7/7 5/5/5
f 11/11/11 10/10/10 9/9/9
f 12/12/12 11/11/11 9/9/9
f 15/15/15 14/14/14 13/13/13
f 16/16/16 15/15/15 13/13/13
f 19/19/19 18/18/18 17/17/17
f 20/20/20 19/19/19 17/17/17
f 23/23/23 22/22/22 21/21/21
f 24/24/24 23/23/23 21/21/21
f 27/27/27 26/26/26 25/25/25
f 25/25/25 26/26/26 28/28/28
f 29/29/29 26/26/26 27/27/27
f 28/28/28 26/26/26 30/30/30
f 31/31/31 26/26/26 29/29/29
f 30/30/30 26/26/26 31/31/31
