g shield_level1_23
v 0.20856325 0.3923581 -0.4171064
v 0.21988708 0.3940382 -0.3899443
v -0.023668269 0.4413788 -0.26435143
v -0.040108792 0.44088998 -0.28900206
v -0.040108792 0.44088998 -0.28900206
v -0.023668269 0.4413788 -0.26435143
v -0.147331 0.22718875 -0.14433418
v -0.1664574 0.22204782 -0.16637811
v -0.1664574 0.22204782 -0.16637811
v -0.147331 0.22718875 -0.14433418
v -0.018488178 -0.01883976 -0.15859616
v -0.03472 -0.029020805 -0.18099491
v -0.03472 -0.029020805 -0.18099491
v -0.018488178 -0.01883976 -0.15859616
v 0.22164944 -0.052379206 -0.2891024
v 0.21033818 -0.062959574 -0.3142901
v 0.21033818 -0.062959574 -0.3142901
v 0.22164944 -0.052379206 -0.2891024
v 0.33509138 0.14410797 -0.39920017
v 0.3258812 0.13716687 -0.42642707
v 0.3258812 0.13716687 -0.42642707
v 0.33509138 0.14410797 -0.39920017
v 0.21988708 0.3940382 -0.3899443
v 0.20856325 0.3923581 -0.4171064
v 0.22164944 -0.052379206 -0.2891024
v 0.104927674 0.19492272 -0.25684363
v 0.33509138 0.14410797 -0.39920017
v -0.018488178 -0.01883976 -0.15859616
v 0.21988708 0.3940382 -0.3899443
v -0.147331 0.22718875 -0.14433418
v -0.023668269 0.4413788 -0.26435143
vt 0.078590095 0.16888879
vt 0.05553712 0.16675788
vt 0.055537164 0.16675788
vt 0.078590095 0.16888879
vt 0.078590095 0.16888879
vt 0.055537164 0.16675788
vt 0.05553715 0.107374415
vt 0.078590035 0.10737443
vt 0.078590035 0.10737443
vt 0.05553715 0.107374415
vt 0.05553714 0.047990933
vt 0.07859005 0.045860007
vt 0.07859005 0.045860007
vt 0.05553714 0.047990933
vt 0.055537097 0.04799092
vt 0.078590065 0.045860007
vt 0.078590065 0.045860007
vt 0.055537097 0.04799092
vt 0.055537105 0.107374415
vt 0.078590035 0.10737443
vt 0.078590035 0.10737443
vt 0.055537105 0.107374415
vt 0.05553712 0.16675788
vt 0.078590095 0.16888879
vt 0.7305496 0.04809493
vt 0.4999999 0.5
vt 0.96109855 0.50000024
vt 0.26945078 0.04809472
vt 0.73054934 0.95190513
vt 0.038901478 0.5
vt 0.26945072 0.95190537
vn 0.13362354 0.9845895 -0.11281944
vn 0.13362354 0.9845895 -0.112819426
vn 0.13362354 0.9845895 -0.11281944
vn 0.13362354 0.9845895 -0.11281944
vn -0.6586622 0.6195419 0.42700335
vn -0.6586622 0.6195419 0.42700335
vn -0.6586622 0.6195419 0.42700335
vn -0.6586622 0.61954194 0.42700335
vn -0.6549293 -0.38122222 0.65248543
vn -0.65492934 -0.38122222 0.6524854
vn -0.65492934 -0.38122222 0.6524853
vn -0.65492934 -0.38122222 0.6524853
vn 0.06930405 -0.928442 0.3649554
vn 0.06930405 -0.928442 0.36495537
vn 0.06930405 -0.928442 0.3649554
vn 0.06930405 -0.928442 0.36495537
vn 0.82248175 -0.5519166 -0.13752085
vn 0.82248175 -0.55191654 -0.13752083
vn 0.82248175 -0.55191654 -0.13752083
vn 0.82248163 -0.55191654 -0.13752083
vn 0.83540565 0.39848313 -0.37856123
vn 0.83540565 0.39848316 -0.3785613
vn 0.83540565 0.39848316 -0.3785613
vn 0.83540565 0.39848313 -0.37856123
vn 0.5162962 0.13333155 0.8459674
vn 0.48344025 0.1985965 0.852552
vn 0.5461614 0.18505971 0.81698257
vn 0.4532256 0.14273828 0.8798934
vn 0.51534706 0.25033584 0.81960326
vn 0.42050454 0.20879294 0.88293916
vn 0.45076254 0.2612015 0.85357296
g shield_level1_23_0
f 3/3/3 2/2/2 1/1/1
f 4/4/4 3/3/3 1/1/1
f 7/7/7 6/6/6 5/5/5
f 8/8/8 7/7/7 5/5/5
f 11/11/11 10/10/10 9/9/9
f 12/12/12 11/11/11 9/9/9
f 15/15/15 14/14/14 13/13/13
f 16/16/16 15/15/15 13/13/13
f 19/19/19 18/18/18 17/17/17
f 20/20/20 19/19/19 17/17/17
f 23/23/23 22/22/22 21/21/21
f 24/24/24 23/23/23 21/21/21
f 27/27/27 26/26/26 25/25/25
f 25/25/25 26/26/26 28/28/28
f 29/29/29 26/26/26 27/27/27
f 28/28/28 26/26/26 30/30/30
f 31/31/31 26/26/26 29/29/29
f 30/30/30 26/26/26 31/31/31
