g shield_level2_line
v 0.57935375 -0.5002592 0.0010875851
v 0.72291416 -0.24852394 0.0010875851
v 0.7810042 -0.34852394 0.0010875824
v 0.6946469 -0.49995273 0.00108759
v 0.72372884 -0.7503241 0.0010875851
v 0.8391989 -0.7503241 0.00108759
v 0.57935387 -1.0003886 0.0010875851
v 0.6370889 -1.1003886 0.0010875824
v 0.290604 -1.0003887 0.0010875851
v 0.23286898 -1.1003888 0.0010875774
v 0.14622898 -0.75032395 0.0010875851
v 0.08847955 -0.850299 0.0010875774
v -0.14333816 -0.7501987 0.0010873005
v -0.20108826 -0.8501738 0.001087293
v -0.28771093 -0.50013196 0.0010873005
v -0.3453431 -0.6003113 0.001087293
v -0.5769801 -0.5010295 0.0010873005
v -0.63452 -0.6012085 0.001087293
v -0.7219574 -0.25071582 0.0010876589
v -0.77960515 -0.35070845 0.0010876514
v -1.0106574 -0.2506789 0.0010876053
v -1.0684227 -0.3506715 0.0010875977
v -1.154888 -0.00063976285 0.0010875313
v -1.2703581 -0.00059465563 0.0010875266
v -1.0104185 0.24936214 0.0010875113
v -1.0681231 0.3493695 0.0010875139
v -0.72171867 0.24932529 0.001087565
v -0.7796405 0.3493327 0.0010875675
v -0.5780622 0.4997994 0.0010875313
v -0.6934239 0.49965686 0.0010875266
v -0.7223356 0.7499147 0.0010875113
v -0.83779687 0.7499447 0.0010875062
v -0.5779537 0.99991757 0.001087565
v -0.63566726 1.0999401 0.0010875675
v -0.28929806 0.99980545 0.0010876388
v -0.23152395 1.099783 0.0010876463
v -0.14502472 0.74969035 0.0010876589
v -0.087395765 0.84991956 0.0010876665
v 0.14385536 0.75083524 0.0010875851
v 0.08598839 0.8506067 0.0010875877
v 0.28823036 1.0009001 0.0010875851
v 0.23049535 1.1009 0.0010875877
v 0.5769802 1.0008999 0.0010875851
v 0.6347152 1.1008999 0.0010875926
v 0.721355 0.7508354 0.0010875851
v 0.8368251 0.7508354 0.00108759
v 0.5769801 0.50077045 0.0010875851
v 0.69265836 0.50113106 0.00108759
v 0.7229141 0.25160572 0.0010875851
v 0.7802343 0.35160568 0.0010875926
v 1.0116639 0.2516055 0.0010875851
v 1.069399 0.35160545 0.0010875926
v 1.1560388 0.0015409469 0.0010875851
v 1.2715088 0.0015409698 0.00108759
v 1.0116639 -0.24852398 0.0010875851
v 1.0693989 -0.34852397 0.0010875824
v 0.72291416 -0.24852394 0.0010875851
v 0.7810042 -0.34852394 0.0010875824
vt 0.96428573 0
vt 1 0
vt 1 1
vt 0.96428573 1
vt 0.9285714 0
vt 0.9285714 1
vt 0.89285713 0
vt 0.89285713 1
vt 0.85714287 0
vt 0.85714287 1
vt 0.8214286 0
vt 0.8214286 1
vt 0.78571427 0
vt 0.78571427 1
vt 0.75 0
vt 0.75 1
vt 0.71428573 0
vt 0.71428573 1
vt 0.6785714 0
vt 0.6785714 1
vt 0.64285713 0
vt 0.64285713 1
vt 0.60714287 0
vt 0.60714287 1
vt 0.5714286 0
vt 0.5714286 1
vt 0.53571427 0
vt 0.53571427 1
vt 0.5 0
vt 0.5 1
vt 0.4642857 0
vt 0.4642857 1
vt 0.42857143 0
vt 0.42857143 1
vt 0.39285713 0
vt 0.39285713 1
vt 0.35714287 0
vt 0.35714287 1
vt 0.32142857 0
vt 0.32142857 1
vt 0.2857143 0
vt 0.2857143 1
vt 0.25 0
vt 0.25 1
vt 0.21428572 0
vt 0.21428572 1
vt 0.17857143 0
vt 0.17857143 1
vt 0.14285715 0
vt 0.14285715 1
vt 0.10714286 0
vt 0.10714286 1
vt 0.071428575 0
vt 0.071428575 1
vt 0.035714287 0
vt 0.035714287 1
vt 0 0
vt 0 1
vn -0 0 1
vn -0 0 1
vn -0 0 1
vn -0 0 1
vn -0 0 1
vn -0 0 1
vn -0 0 1
vn -0 0 1
vn -0 0 1
vn -0 0 1
vn -5.2392284E-07 2.2747703E-07 1
vn -5.239228E-07 2.2747702E-07 1
vn -5.240422E-07 2.2790971E-07 1
vn -5.240422E-07 2.2790975E-07 1
vn -0 0 1
vn -0 0 1
vn 5.874812E-07 -4.1290474E-07 1
vn 5.874812E-07 -4.1290474E-07 1
vn 4.948621E-07 -3.6030204E-07 1
vn 4.948624E-07 -3.603022E-07 1
vn -1.715528E-07 0 1
vn -1.7155281E-07 0 1
vn -0 0 1
vn -0 0 1
vn -0 0 1
vn -0 0 1
vn -0 0 1
vn -0 0 1
vn -0 0 1
vn -0 0 1
vn -0 0 1
vn -0 0 1
vn -1.5654761E-07 0 1
vn -1.5654763E-07 0 1
vn -1.8169487E-07 0 1
vn -1.8169487E-07 0 1
vn -0 0 1
vn -0 0 1
vn 1.5967038E-07 0 1
vn 1.5967042E-07 0 1
vn -0 0 1
vn -0 0 1
vn -0 0 1
vn -0 0 1
vn -0 0 1
vn -0 0 1
vn -0 0 1
vn -0 0 1
vn -0 0 1
vn -0 0 1
vn -0 0 1
vn -0 0 1
vn -0 0 1
vn -0 0 1
vn -0 0 1
vn -0 0 1
vn -0 0 1
vn -0 0 1
g shield_level2_line_0
f 3/3/3 2/2/2 1/1/1
f 4/4/4 3/3/3 1/1/1
f 4/4/4 1/1/1 5/5/5
f 6/6/6 4/4/4 5/5/5
f 6/6/6 5/5/5 7/7/7
f 8/8/8 6/6/6 7/7/7
f 8/8/8 7/7/7 9/9/9
f 10/10/10 8/8/8 9/9/9
f 10/10/10 9/9/9 11/11/11
f 12/12/12 10/10/10 11/11/11
f 12/12/12 11/11/11 13/13/13
f 14/14/14 12/12/12 13/13/13
f 14/14/14 13/13/13 15/15/15
f 16/16/16 14/14/14 15/15/15
f 16/16/16 15/15/15 17/17/17
f 18/18/18 16/16/16 17/17/17
f 18/18/18 17/17/17 19/19/19
f 20/20/20 18/18/18 19/19/19
f 20/20/20 19/19/19 21/21/21
f 22/22/22 20/20/20 21/21/21
f 22/22/22 21/21/21 23/23/23
f 24/24/24 22/22/22 23/23/23
f 24/24/24 23/23/23 25/25/25
f 26/26/26 24/24/24 25/25/25
f 26/26/26 25/25/25 27/27/27
f 28/28/28 26/26/26 27/27/27
f 28/28/28 27/27/27 29/29/29
f 30/30/30 28/28/28 29/29/29
f 30/30/30 29/29/29 31/31/31
f 32/32/32 30/30/30 31/31/31
f 32/32/32 31/31/31 33/33/33
f 34/34/34 32/32/32 33/33/33
f 34/34/34 33/33/33 35/35/35
f 36/36/36 34/34/34 35/35/35
f 36/36/36 35/35/35 37/37/37
f 38/38/38 36/36/36 37/37/37
f 38/38/38 37/37/37 39/39/39
f 40/40/40 38/38/38 39/39/39
f 40/40/40 39/39/39 41/41/41
f 42/42/42 40/40/40 41/41/41
f 42/42/42 41/41/41 43/43/43
f 44/44/44 42/42/42 43/43/43
f 44/44/44 43/43/43 45/45/45
f 46/46/46 44/44/44 45/45/45
f 46/46/46 45/45/45 47/47/47
f 48/48/48 46/46/46 47/47/47
f 48/48/48 47/47/47 49/49/49
f 50/50/50 48/48/48 49/49/49
f 50/50/50 49/49/49 51/51/51
f 52/52/52 50/50/50 51/51/51
f 52/52/52 51/51/51 53/53/53
f 54/54/54 52/52/52 53/53/53
f 54/54/54 53/53/53 55/55/55
f 56/56/56 54/54/54 55/55/55
f 56/56/56 55/55/55 57/57/57
f 58/58/58 56/56/56 57/57/57
