g shield_level1_8
v 0.28028494 0.37132698 -0.39024317
v 0.28528342 0.3791583 -0.36222228
v 0.025587397 0.4075434 -0.28780654
v 0.015283708 0.4006949 -0.31438679
v 0.015283708 0.4006949 -0.31438679
v 0.025587397 0.4075434 -0.28780654
v -0.122916944 0.21618232 -0.15710303
v -0.1366211 0.20545919 -0.181056
v -0.1366211 0.20545919 -0.181056
v -0.122916944 0.21618232 -0.15710303
v 0.0063607213 -0.007733135 -0.09797142
v -0.0044510937 -0.023465957 -0.12060143
v -0.0044510937 -0.023465957 -0.12060143
v 0.0063607213 -0.007733135 -0.09797142
v 0.27019617 -0.016131362 -0.1759225
v 0.26492882 -0.03170307 -0.20019913
v 0.26492882 -0.03170307 -0.20019913
v 0.27019617 -0.016131362 -0.1759225
v 0.3993107 0.18165725 -0.31006622
v 0.3963321 0.17032745 -0.33716318
v 0.3963321 0.17032745 -0.33716318
v 0.3993107 0.18165725 -0.31006622
v 0.28528342 0.3791583 -0.36222228
v 0.28028494 0.37132698 -0.39024317
v 0.27019617 -0.016131362 -0.1759225
v 0.14584693 0.19924779 -0.21398224
v 0.3993107 0.18165725 -0.31006622
v 0.0063607213 -0.007733135 -0.09797142
v 0.28528342 0.3791583 -0.36222228
v -0.122916944 0.21618232 -0.15710303
v 0.025587397 0.4075434 -0.28780654
vt 0.078590095 0.16888879
vt 0.05553712 0.16675788
vt 0.055537164 0.16675788
vt 0.078590095 0.16888879
vt 0.078590095 0.16888879
vt 0.055537164 0.16675788
vt 0.05553715 0.107374415
vt 0.078590035 0.10737443
vt 0.078590035 0.10737443
vt 0.05553715 0.107374415
vt 0.05553714 0.047990933
vt 0.07859005 0.045860007
vt 0.07859005 0.045860007
vt 0.05553714 0.047990933
vt 0.055537097 0.04799092
vt 0.078590065 0.045860007
vt 0.078590065 0.045860007
vt 0.055537097 0.04799092
vt 0.055537105 0.107374415
vt 0.078590035 0.10737443
vt 0.078590035 0.10737443
vt 0.055537105 0.107374415
vt 0.05553712 0.16675788
vt 0.078590095 0.16888879
vt 0.7305496 0.04809493
vt 0.4999999 0.5
vt 0.96109855 0.50000024
vt 0.26945078 0.04809472
vt 0.73054934 0.95190513
vt 0.038901478 0.5
vt 0.26945072 0.95190537
vn 0.029485716 0.96318406 -0.26722077
vn 0.029485714 0.96318406 -0.26722074
vn 0.029485716 0.96318406 -0.26722074
vn 0.029485714 0.96318406 -0.26722068
vn -0.7412984 0.6598581 0.122735344
vn -0.7412984 0.6598581 0.12273531
vn -0.7412984 0.65985817 0.12273535
vn -0.7412983 0.65985817 0.12273533
vn -0.767635 -0.29262024 0.57018405
vn -0.7676351 -0.29262024 0.57018405
vn -0.767635 -0.29262024 0.57018405
vn -0.767635 -0.29262024 0.57018405
vn 0.1273039 -0.8446054 0.5200341
vn 0.1273039 -0.8446054 0.5200341
vn 0.1273039 -0.8446054 0.52003413
vn 0.1273039 -0.8446054 0.52003413
vn 0.8662328 -0.4861057 0.11550741
vn 0.8662328 -0.48610577 0.115507424
vn 0.8662328 -0.4861057 0.11550741
vn 0.8662328 -0.4861057 0.11550741
vn 0.8626017 0.42595005 -0.27291936
vn 0.8626017 0.42595005 -0.27291936
vn 0.8626017 0.42595 -0.2729193
vn 0.8626017 0.42595 -0.27291933
vn 0.3151479 0.33861813 0.8865775
vn 0.28093034 0.39337257 0.8754063
vn 0.34986007 0.39091322 0.85134304
vn 0.24399087 0.3438166 0.9067848
vn 0.3203139 0.44208834 0.8378287
vn 0.21393934 0.39586732 0.8930393
vn 0.25139964 0.44903296 0.85741913
g shield_level1_8_0
f 3/3/3 2/2/2 1/1/1
f 4/4/4 3/3/3 1/1/1
f 7/7/7 6/6/6 5/5/5
f 8/8/8 7/7/7 5/5/5
f 11/11/11 10/10/10 9/9/9
f 12/12/12 11/11/11 9/9/9
f 15/15/15 14/14/14 13/13/13
f 16/16/16 15/15/15 13/13/13
f 19/19/19 18/18/18 17/17/17
f 20/20/20 19/19/19 17/17/17
f 23/23/23 22/22/22 21/21/21
f 24/24/24 23/23/23 21/21/21
f 27/27/27 26/26/26 25/25/25
f 25/25/25 26/26/26 28/28/28
f 29/29/29 26/26/26 27/27/27
f 28/28/28 26/26/26 30/30/30
f 31/31/31 26/26/26 29/29/29
f 30/30/30 26/26/26 31/31/31
