g shield_level1_10
v 0.21814673 0.46364832 -0.27174756
v 0.2223646 0.4681615 -0.24283138
v -0.023443107 0.4681615 -0.18661514
v -0.032213382 0.46364832 -0.2144902
v -0.032213382 0.46364832 -0.2144902
v -0.023443107 0.4681615 -0.18661514
v -0.14147651 0.2434506 -0.079880245
v -0.1529343 0.23447707 -0.105512425
v -0.1529343 0.23447707 -0.105512425
v -0.14147651 0.2434506 -0.079880245
v 0.00014572144 0.00887165 -0.03247569
v -0.008549366 -0.005128517 -0.057104368
v -0.008549366 -0.005128517 -0.057104368
v 0.00014572144 0.00887165 -0.03247569
v 0.26811978 0.008871612 -0.09376136
v 0.2652453 -0.005128555 -0.11972121
v 0.2652453 -0.005128555 -0.11972121
v 0.26811978 0.008871612 -0.09376136
v 0.3750585 0.24345057 -0.19801183
v 0.37423587 0.23447704 -0.22607628
v 0.37423587 0.23447704 -0.22607628
v 0.3750585 0.24345057 -0.19801183
v 0.2223646 0.4681615 -0.24283138
v 0.21814673 0.46364832 -0.27174756
v 0.26811978 0.008871612 -0.09376136
v 0.121109046 0.24345057 -0.12006519
v 0.3750585 0.24345057 -0.19801183
v 0.00014572144 0.00887165 -0.03247569
v 0.2223646 0.4681615 -0.24283138
v -0.14147651 0.2434506 -0.079880245
v -0.023443107 0.4681615 -0.18661514
vt 0.078590095 0.16888879
vt 0.05553712 0.16675788
vt 0.055537164 0.16675788
vt 0.078590095 0.16888879
vt 0.078590095 0.16888879
vt 0.055537164 0.16675788
vt 0.05553715 0.107374415
vt 0.078590035 0.10737443
vt 0.078590035 0.10737443
vt 0.05553715 0.107374415
vt 0.05553714 0.047990933
vt 0.07859005 0.045860007
vt 0.07859005 0.045860007
vt 0.05553714 0.047990933
vt 0.055537097 0.04799092
vt 0.078590065 0.045860007
vt 0.078590065 0.045860007
vt 0.055537097 0.04799092
vt 0.055537105 0.107374415
vt 0.078590035 0.10737443
vt 0.078590035 0.10737443
vt 0.055537105 0.107374415
vt 0.05553712 0.16675788
vt 0.078590095 0.16888879
vt 0.7305496 0.04809493
vt 0.4999999 0.5
vt 0.96109855 0.50000024
vt 0.26945078 0.04809472
vt 0.73054934 0.95190513
vt 0.038901478 0.5
vt 0.26945072 0.95190537
vn -0.03413518 0.988209 -0.14925751
vn -0.034135185 0.988209 -0.14925748
vn -0.034135185 0.988209 -0.14925748
vn -0.03413518 0.988209 -0.14925751
vn -0.83183134 0.5242233 0.1823363
vn -0.8318314 0.52422327 0.18233633
vn -0.8318314 0.52422327 0.18233635
vn -0.8318314 0.52422327 0.1823363
vn -0.78757393 -0.3764535 0.48786283
vn -0.787574 -0.3764535 0.48786283
vn -0.78757393 -0.3764535 0.48786283
vn -0.78757393 -0.3764535 0.48786283
vn 0.10586479 -0.8800669 0.4628986
vn 0.10586481 -0.8800669 0.46289855
vn 0.10586481 -0.8800669 0.4628986
vn 0.105864815 -0.8800669 0.4628986
vn 0.92133987 -0.3764536 0.09703369
vn 0.92133987 -0.37645364 0.0970337
vn 0.92133987 -0.3764536 0.09703368
vn 0.92133987 -0.37645364 0.09703369
vn 0.82839626 0.52422273 -0.19735804
vn 0.82839626 0.52422273 -0.19735803
vn 0.82839626 0.52422273 -0.19735804
vn 0.82839626 0.52422273 -0.19735803
vn 0.24792627 0.2600207 0.9332319
vn 0.21124974 0.31961814 0.92369795
vn 0.2778603 0.32138163 0.9052665
vn 0.18236327 0.2600207 0.94822615
vn 0.2383786 0.3807006 0.89344424
vn 0.14324938 0.3213817 0.936052
vn 0.17366754 0.38070065 0.9082437
g shield_level1_10_0
f 3/3/3 2/2/2 1/1/1
f 4/4/4 3/3/3 1/1/1
f 7/7/7 6/6/6 5/5/5
f 8/8/8 7/7/7 5/5/5
f 11/11/11 10/10/10 9/9/9
f 12/12/12 11/11/11 9/9/9
f 15/15/15 14/14/14 13/13/13
f 16/16/16 15/15/15 13/13/13
f 19/19/19 18/18/18 17/17/17
f 20/20/20 19/19/19 17/17/17
f 23/23/23 22/22/22 21/21/21
f 24/24/24 23/23/23 21/21/21
f 27/27/27 26/26/26 25/25/25
f 25/25/25 26/26/26 28/28/28
f 29/29/29 26/26/26 27/27/27
f 28/28/28 26/26/26 30/30/30
f 31/31/31 26/26/26 29/29/29
f 30/30/30 26/26/26 31/31/31
