g shield_level1_4
v 0.1521477 0.4555507 -0.1949511
v 0.1507087 0.4594372 -0.1656351
v -0.1268711 0.4704586 -0.1512647
v -0.1311528 0.4669971 -0.1803343
v -0.1311528 0.4669971 -0.1803343
v -0.1268711 0.4704586 -0.1512647
v -0.2751695 0.2455962 -0.07528915
v -0.282648 0.2375017 -0.1028135
v -0.282648 0.2375017 -0.1028135
v -0.2751695 0.2455962 -0.07528915
v -0.1387696 0.009344784 -0.01285122
v -0.1433699 -0.003734859 -0.0390581
v -0.1433699 -0.003734859 -0.0390581
v -0.1387696 0.009344784 -0.01285122
v 0.1406373 0.007120701 -0.02881102
v 0.1418635 -0.00588076 -0.05535935
v 0.1418635 -0.00588076 -0.05535935
v 0.1406373 0.007120701 -0.02881102
v 0.2803914 0.2348203 -0.106272
v 0.2843243 0.2266143 -0.1344464
v 0.2843243 0.2266143 -0.1344464
v 0.2803914 0.2348203 -0.106272
v 0.1507087 0.4594372 -0.1656351
v 0.1521477 0.4555507 -0.1949511
v 0.1406373 0.007120701 -0.02881102
v 0.004645046 0.242666 -0.07048152
v 0.2803914 0.2348203 -0.106272
v -0.1387696 0.009344784 -0.01285122
v 0.1507087 0.4594372 -0.1656351
v -0.2751695 0.2455962 -0.07528915
v -0.1268711 0.4704586 -0.1512647
vt 0.07859007 0.3109502
vt 0.05553705 0.3088193
vt 0.0555371 0.3088193
vt 0.07859007 0.3109502
vt 0.07859007 0.3109502
vt 0.0555371 0.3088193
vt 0.05553713 0.2494359
vt 0.07859004 0.2494359
vt 0.07859004 0.2494359
vt 0.05553713 0.2494359
vt 0.05553713 0.1900524
vt 0.07859007 0.1879214
vt 0.07859007 0.1879214
vt 0.05553713 0.1900524
vt 0.0555371 0.1900524
vt 0.07859007 0.1879214
vt 0.07859007 0.1879214
vt 0.0555371 0.1900524
vt 0.05553707 0.2494359
vt 0.07859004 0.2494359
vt 0.07859004 0.2494359
vt 0.05553707 0.2494359
vt 0.05553705 0.3088193
vt 0.07859007 0.3109502
vt 0.7305496 0.04809493
vt 0.4999999 0.5
vt 0.9610986 0.5000002
vt 0.2694508 0.04809472
vt 0.7305493 0.9519051
vt 0.03890148 0.5
vt 0.2694507 0.9519054
vn 0.03318264 0.9914255 -0.1263899
vn 0.03318264 0.9914255 -0.1263899
vn 0.03318264 0.9914255 -0.1263899
vn 0.03318264 0.9914255 -0.1263899
vn -0.8244949 0.5630561 0.05635659
vn -0.8244948 0.5630562 0.05635659
vn -0.8244948 0.5630561 0.05635659
vn -0.8244948 0.5630561 0.05635658
vn -0.8488435 -0.3981792 0.3477326
vn -0.8488435 -0.3981792 0.3477326
vn -0.8488435 -0.3981791 0.3477326
vn -0.8488435 -0.3981792 0.3477326
vn 0.01832288 -0.8967481 0.4421618
vn 0.01832288 -0.8967481 0.4421618
vn 0.01832288 -0.8967481 0.4421617
vn 0.01832288 -0.8967481 0.4421617
vn 0.8607656 -0.4419907 0.2524415
vn 0.8607656 -0.4419907 0.2524415
vn 0.8607656 -0.4419908 0.2524415
vn 0.8607656 -0.4419908 0.2524415
vn 0.8684195 0.4952947 -0.02303532
vn 0.8684195 0.4952947 -0.02303532
vn 0.8684195 0.4952947 -0.02303532
vn 0.8684195 0.4952947 -0.02303532
vn 0.09441637 0.2260322 0.9695333
vn 0.05827267 0.2863908 0.9563392
vn 0.131347 0.2850371 0.9494745
vn 0.02117546 0.2274531 0.9735588
vn 0.09700755 0.3445146 0.9337555
vn -0.01344508 0.2874177 0.9577109
vn 0.02470451 0.3467767 0.9376224
g shield_level1_4_0
f 3/3/3 2/2/2 1/1/1
f 4/4/4 3/3/3 1/1/1
f 7/7/7 6/6/6 5/5/5
f 8/8/8 7/7/7 5/5/5
f 11/11/11 10/10/10 9/9/9
f 12/12/12 11/11/11 9/9/9
f 15/15/15 14/14/14 13/13/13
f 16/16/16 15/15/15 13/13/13
f 19/19/19 18/18/18 17/17/17
f 20/20/20 19/19/19 17/17/17
f 23/23/23 22/22/22 21/21/21
f 24/24/24 23/23/23 21/21/21
f 27/27/27 26/26/26 25/25/25
f 25/25/25 26/26/26 28/28/28
f 29/29/29 26/26/26 27/27/27
f 28/28/28 26/26/26 30/30/30
f 31/31/31 26/26/26 29/29/29
f 30/30/30 26/26/26 31/31/31
