g shield_level1_16
v 0.15214774 0.45555067 -0.19495109
v 0.15070873 0.45943716 -0.16563506
v -0.12687114 0.4704586 -0.15126473
v -0.13115276 0.46699706 -0.1803343
v -0.13115276 0.46699706 -0.1803343
v -0.12687114 0.4704586 -0.15126473
v -0.27516946 0.24559622 -0.075289145
v -0.282648 0.23750173 -0.10281351
v -0.282648 0.23750173 -0.10281351
v -0.27516946 0.24559622 -0.075289145
v -0.13876963 0.009344784 -0.012851223
v -0.14336994 -0.0037348592 -0.0390581
v -0.14336994 -0.0037348592 -0.0390581
v -0.13876963 0.009344784 -0.012851223
v 0.14063726 0.007120701 -0.028811017
v 0.14186345 -0.00588076 -0.05535935
v 0.14186345 -0.00588076 -0.05535935
v 0.14063726 0.007120701 -0.028811017
v 0.2803914 0.2348203 -0.10627196
v 0.2843243 0.22661431 -0.13444641
v 0.2843243 0.22661431 -0.13444641
v 0.2803914 0.2348203 -0.10627196
v 0.15070873 0.45943716 -0.16563506
v 0.15214774 0.45555067 -0.19495109
v 0.14063726 0.007120701 -0.028811017
v 0.004645046 0.24266604 -0.070481524
v 0.2803914 0.2348203 -0.10627196
v -0.13876963 0.009344784 -0.012851223
v 0.15070873 0.45943716 -0.16563506
v -0.27516946 0.24559622 -0.075289145
v -0.12687114 0.4704586 -0.15126473
vt 0.078590065 0.31095022
vt 0.055537045 0.3088193
vt 0.055537105 0.3088193
vt 0.078590065 0.31095022
vt 0.078590065 0.31095022
vt 0.055537105 0.3088193
vt 0.055537134 0.24943586
vt 0.078590035 0.24943586
vt 0.078590035 0.24943586
vt 0.055537134 0.24943586
vt 0.055537134 0.19005238
vt 0.078590065 0.18792143
vt 0.078590065 0.18792143
vt 0.055537134 0.19005238
vt 0.055537105 0.19005238
vt 0.078590065 0.18792143
vt 0.078590065 0.18792143
vt 0.055537105 0.19005238
vt 0.055537075 0.24943586
vt 0.078590035 0.24943586
vt 0.078590035 0.24943586
vt 0.055537075 0.24943586
vt 0.055537045 0.3088193
vt 0.078590065 0.31095022
vt 0.7305496 0.04809493
vt 0.4999999 0.5
vt 0.96109855 0.50000024
vt 0.26945078 0.04809472
vt 0.73054934 0.95190513
vt 0.038901478 0.5
vt 0.26945072 0.95190537
vn 0.033182636 0.9914255 -0.1263899
vn 0.033182636 0.9914255 -0.1263899
vn 0.033182636 0.9914255 -0.1263899
vn 0.03318264 0.9914255 -0.12638992
vn -0.8244949 0.56305605 0.056356587
vn -0.8244948 0.5630562 0.05635659
vn -0.8244948 0.5630561 0.056356587
vn -0.8244948 0.5630561 0.05635658
vn -0.8488435 -0.39817917 0.3477326
vn -0.8488435 -0.39817917 0.3477326
vn -0.8488435 -0.39817914 0.3477326
vn -0.8488435 -0.39817917 0.3477326
vn 0.018322883 -0.8967481 0.4421618
vn 0.018322883 -0.8967481 0.4421618
vn 0.018322881 -0.8967481 0.44216174
vn 0.018322883 -0.8967481 0.44216174
vn 0.86076564 -0.4419907 0.2524415
vn 0.86076564 -0.4419907 0.25244147
vn 0.86076564 -0.44199076 0.2524415
vn 0.86076564 -0.44199076 0.2524415
vn 0.8684195 0.4952947 -0.023035316
vn 0.8684195 0.49529475 -0.023035318
vn 0.8684195 0.4952947 -0.023035316
vn 0.8684195 0.4952947 -0.023035316
vn 0.09441637 0.22603224 0.9695333
vn 0.058272675 0.28639078 0.95633924
vn 0.13134696 0.28503707 0.94947445
vn 0.021175465 0.22745305 0.9735588
vn 0.09700755 0.3445146 0.93375546
vn -0.013445084 0.28741765 0.9577109
vn 0.024704514 0.3467767 0.93762237
g shield_level1_16_0
f 3/3/3 2/2/2 1/1/1
f 4/4/4 3/3/3 1/1/1
f 7/7/7 6/6/6 5/5/5
f 8/8/8 7/7/7 5/5/5
f 11/11/11 10/10/10 9/9/9
f 12/12/12 11/11/11 9/9/9
f 15/15/15 14/14/14 13/13/13
f 16/16/16 15/15/15 13/13/13
f 19/19/19 18/18/18 17/17/17
f 20/20/20 19/19/19 17/17/17
f 23/23/23 22/22/22 21/21/21
f 24/24/24 23/23/23 21/21/21
f 27/27/27 26/26/26 25/25/25
f 25/25/25 26/26/26 28/28/28
f 29/29/29 26/26/26 27/27/27
f 28/28/28 26/26/26 30/30/30
f 31/31/31 26/26/26 29/29/29
f 30/30/30 26/26/26 31/31/31
