g shield_level3_line
v -0.2882303 -1.0018 0.0016311564
v -0.14385529 -0.7517352 0.0016312298
v -0.057009906 -0.9013144 0.001426725
v -0.20162784 -1.1517999 0.0014263317
v -0.5769804 -1.0018 0.0016311564
v -0.6634274 -1.1518 0.0015170064
v -0.72187483 -0.75173515 0.002175053
v -0.80832183 -0.9017351 0.002060903
v -1.010625 -0.75173515 0.002175053
v -1.0972276 -0.9017352 0.0020609843
v -1.1549996 -0.5016705 0.0021751262
v -1.3281217 -0.50181836 0.0022656817
v -1.0106574 -0.2506789 0.0036500029
v -1.1838301 -0.25077555 0.0037406397
v -1.154888 -0.00063976285 -0.0037352524
v -1.3278966 -0.0009567805 -0.003644936
v -1.0119593 0.24929444 0.002175053
v -1.1849519 0.2489263 0.0022653067
v -1.156334 0.49935922 0.0021751262
v -1.3295391 0.49935928 0.0022658827
v -1.0119593 0.749424 0.0021751262
v -1.0989511 0.899679 0.0023804263
v -0.71305037 0.7497238 0.022409473
v -0.80283475 0.9001664 0.022616433
v -0.5779537 0.99991757 -0.0003777088
v -0.6672573 1.1500008 -0.00017138002
v -0.28929806 0.99980545 0.0070075463
v -0.37634686 1.1498498 0.0072126524
v -0.14570938 1.2510945 0.0021751262
v -0.2327488 1.4010943 0.00238018
v 0.14304073 1.2510945 0.0021751262
v 0.22964339 1.4010944 0.0022891948
v 0.2874155 1.0010296 0.0021751262
v 0.37404066 1.1509907 0.0022891418
v 0.5769802 1.0008999 0.001631303
v 0.66329354 1.150862 0.0017454828
v 0.721875 0.7517352 0.002175053
v 0.80816525 0.9017351 0.0022892852
v 1.0106248 0.75173515 0.0021751262
v 1.0972275 0.9017352 0.0022891948
v 1.1549997 0.5016704 0.0021751262
v 1.3280488 0.50194085 0.0020847388
v 1.0116639 0.2516055 0.001631303
v 1.184713 0.25187588 0.0015409157
v 1.1560388 0.0015409469 0.001631303
v 1.328956 0.0020407592 0.0015412287
v 1.0129982 -0.24955371 0.002175053
v 1.1859149 -0.24905391 0.002084979
v 1.1573733 -0.49961856 0.002175053
v 1.3305783 -0.49961856 0.0020842967
v 1.0129983 -0.7496832 0.0021751262
v 1.0996008 -0.8996831 0.0019703014
v 0.72424847 -0.7496832 0.0021751262
v 0.8108064 -0.89968324 0.0019703247
v 0.57935387 -1.0003886 0.001631303
v 0.6659117 -1.1503885 0.0014265015
v 0.290604 -1.0003887 0.001631303
v 0.20400143 -1.150389 0.0015172343
v 0.14622898 -0.75032395 0.001631303
v 0.059870046 -0.9007458 0.0015166582
v -0.14385529 -0.7517352 0.0016312298
v -0.057009906 -0.9013144 0.001426725
vt 0.96666664 0
vt 1 0
vt 1 1
vt 0.96666664 1
vt 0.93333334 0
vt 0.93333334 1
vt 0.9 0
vt 0.9 1
vt 0.8666667 0
vt 0.8666667 1
vt 0.8333333 0
vt 0.8333333 1
vt 0.8 0
vt 0.8 1
vt 0.76666665 0
vt 0.76666665 1
vt 0.73333335 0
vt 0.73333335 1
vt 0.7 0
vt 0.7 1
vt 0.6666667 0
vt 0.6666667 1
vt 0.6333333 0
vt 0.6333333 1
vt 0.6 0
vt 0.6 1
vt 0.56666666 0
vt 0.56666666 1
vt 0.53333336 0
vt 0.53333336 1
vt 0.5 0
vt 0.5 1
vt 0.46666667 0
vt 0.46666667 1
vt 0.43333334 0
vt 0.43333334 1
vt 0.4 0
vt 0.4 1
vt 0.36666667 0
vt 0.36666667 1
vt 0.33333334 0
vt 0.33333334 1
vt 0.3 0
vt 0.3 1
vt 0.26666668 0
vt 0.26666668 1
vt 0.23333333 0
vt 0.23333333 1
vt 0.2 0
vt 0.2 1
vt 0.16666667 0
vt 0.16666667 1
vt 0.13333334 0
vt 0.13333334 1
vt 0.1 0
vt 0.1 1
vt 0.06666667 0
vt 0.06666667 1
vt 0.033333335 0
vt 0.033333335 1
vt 0 0
vt 0 1
vn 0.0005819758 -0.0008976467 0.9999994
vn 0.0011808256 -0.00068268273 0.99999905
vn 0.0011808259 -0.00068268273 0.99999905
vn 0.00058197574 -0.0008976469 0.9999994
vn 0.000600547 -0.0012384837 0.99999905
vn 0.00060054695 -0.0012384837 0.99999905
vn 0.00061200093 -0.0011135683 0.99999917
vn 0.000612001 -0.0011135685 0.99999917
vn 3.886678E-05 -0.00048650877 0.9999999
vn 3.886684E-05 -0.00048650833 0.9999999
vn 0.0002685798 -0.0028470529 0.99999595
vn 0.00026860612 -0.0028473919 0.99999595
vn 0.0005073313 0.011792914 0.9999304
vn 0.0005073306 0.011793464 0.9999304
vn 0.00052815815 0.0029603844 0.99999547
vn 0.00052815326 0.0029635616 0.99999547
vn 0.0005458615 -0.011814367 0.99993
vn 0.0005458622 -0.011814762 0.99993
vn 0.00066659396 -0.00022242089 0.99999976
vn 0.00066665414 -0.00022263896 0.99999976
vn -0.029622952 -0.018623678 0.9993876
vn -0.029649967 -0.018639669 0.99938655
vn 0.004955147 0.0018589762 0.99998605
vn 0.0049300683 0.0018441255 0.9999862
vn 0.0274534 0.015094523 0.9995091
vn 0.027510507 0.015128437 0.99950707
vn -0.0038174023 -0.0036779651 0.99998593
vn -0.0038186347 -0.003678685 0.99998593
vn 0.007852698 0.0033209263 0.99996364
vn 0.007853133 0.0033211734 0.99996364
vn -0.00021768031 -0.00076652196 0.99999976
vn -0.00021768035 -0.00076652196 0.99999976
vn 0.00061122014 -0.0011127535 0.99999917
vn 0.000611221 -0.0011127539 0.99999917
vn -0.00032875722 -0.0005731051 0.99999976
vn -0.0003287563 -0.0005731059 0.99999976
vn -0.0012707869 -3.0002027E-05 0.99999917
vn -0.0012707872 -3.0001778E-05 0.99999917
vn 3.849624E-05 -0.00048659736 0.9999999
vn 3.8496255E-05 -0.00048659733 0.9999999
vn 0.00026713024 -0.0012315505 0.9999993
vn 0.00026713024 -0.0012315506 0.9999993
vn 0.0005235666 -0.0010865409 0.9999993
vn 0.0005235667 -0.0010865402 0.9999993
vn 0.00051822065 0.001087116 0.9999993
vn 0.00051822065 0.0010871162 0.9999993
vn 0.00051875634 0.0010858573 0.9999993
vn 0.00051875634 0.0010858576 0.9999993
vn 0.00066629105 -0.00022204369 0.99999976
vn 0.00066629105 -0.00022204354 0.99999976
vn 0.00043938655 -0.00094640424 0.9999995
vn 0.00043938644 -0.00094640424 0.9999995
vn -0.00034843426 -0.0015664456 0.9999987
vn -0.00034843417 -0.0015664458 0.9999987
vn -0.00023486056 -0.0013695253 0.99999905
vn -0.00023486056 -0.0013695253 0.99999905
vn -0.00021903739 -0.0007663853 0.99999976
vn -0.00021903735 -0.0007663854 0.99999976
vn -0.0004770859 -0.0006633316 0.99999964
vn -0.00047708597 -0.0006633315 0.99999964
vn -0.00021598852 -0.0010641784 0.9999994
vn -0.0002159885 -0.0010641784 0.9999994
g shield_level3_line_0
f 3/3/3 2/2/2 1/1/1
f 4/4/4 3/3/3 1/1/1
f 4/4/4 1/1/1 5/5/5
f 6/6/6 4/4/4 5/5/5
f 6/6/6 5/5/5 7/7/7
f 8/8/8 6/6/6 7/7/7
f 8/8/8 7/7/7 9/9/9
f 10/10/10 8/8/8 9/9/9
f 10/10/10 9/9/9 11/11/11
f 12/12/12 10/10/10 11/11/11
f 12/12/12 11/11/11 13/13/13
f 14/14/14 12/12/12 13/13/13
f 14/14/14 13/13/13 15/15/15
f 16/16/16 14/14/14 15/15/15
f 16/16/16 15/15/15 17/17/17
f 18/18/18 16/16/16 17/17/17
f 18/18/18 17/17/17 19/19/19
f 20/20/20 18/18/18 19/19/19
f 20/20/20 19/19/19 21/21/21
f 22/22/22 20/20/20 21/21/21
f 22/22/22 21/21/21 23/23/23
f 24/24/24 22/22/22 23/23/23
f 24/24/24 23/23/23 25/25/25
f 26/26/26 24/24/24 25/25/25
f 26/26/26 25/25/25 27/27/27
f 28/28/28 26/26/26 27/27/27
f 28/28/28 27/27/27 29/29/29
f 30/30/30 28/28/28 29/29/29
f 30/30/30 29/29/29 31/31/31
f 32/32/32 30/30/30 31/31/31
f 32/32/32 31/31/31 33/33/33
f 34/34/34 32/32/32 33/33/33
f 34/34/34 33/33/33 35/35/35
f 36/36/36 34/34/34 35/35/35
f 36/36/36 35/35/35 37/37/37
f 38/38/38 36/36/36 37/37/37
f 38/38/38 37/37/37 39/39/39
f 40/40/40 38/38/38 39/39/39
f 40/40/40 39/39/39 41/41/41
f 42/42/42 40/40/40 41/41/41
f 42/42/42 41/41/41 43/43/43
f 44/44/44 42/42/42 43/43/43
f 44/44/44 43/43/43 45/45/45
f 46/46/46 44/44/44 45/45/45
f 46/46/46 45/45/45 47/47/47
f 48/48/48 46/46/46 47/47/47
f 48/48/48 47/47/47 49/49/49
f 50/50/50 48/48/48 49/49/49
f 50/50/50 49/49/49 51/51/51
f 52/52/52 50/50/50 51/51/51
f 52/52/52 51/51/51 53/53/53
f 54/54/54 52/52/52 53/53/53
f 54/54/54 53/53/53 55/55/55
f 56/56/56 54/54/54 55/55/55
f 56/56/56 55/55/55 57/57/57
f 58/58/58 56/56/56 57/57/57
f 58/58/58 57/57/57 59/59/59
f 60/60/60 58/58/58 59/59/59
f 60/60/60 59/59/59 61/61/61
f 62/62/62 60/60/60 61/61/61
