g shield_level1_10
v 0.2181467 0.4636483 -0.2717476
v 0.2223646 0.4681615 -0.2428314
v -0.02344311 0.4681615 -0.1866151
v -0.03221338 0.4636483 -0.2144902
v -0.03221338 0.4636483 -0.2144902
v -0.02344311 0.4681615 -0.1866151
v -0.1414765 0.2434506 -0.07988025
v -0.1529343 0.2344771 -0.1055124
v -0.1529343 0.2344771 -0.1055124
v -0.1414765 0.2434506 -0.07988025
v 0.0001457214 0.00887165 -0.03247569
v -0.008549366 -0.005128517 -0.05710437
v -0.008549366 -0.005128517 -0.05710437
v 0.0001457214 0.00887165 -0.03247569
v 0.2681198 0.008871612 -0.09376136
v 0.2652453 -0.005128555 -0.1197212
v 0.2652453 -0.005128555 -0.1197212
v 0.2681198 0.008871612 -0.09376136
v 0.3750585 0.2434506 -0.1980118
v 0.3742359 0.234477 -0.2260763
v 0.3742359 0.234477 -0.2260763
v 0.3750585 0.2434506 -0.1980118
v 0.2223646 0.4681615 -0.2428314
v 0.2181467 0.4636483 -0.2717476
v 0.2223646 0.4681615 -0.2428314
v 0.121109 0.2434506 -0.1200652
v -0.02344311 0.4681615 -0.1866151
v 0.3750585 0.2434506 -0.1980118
v -0.1414765 0.2434506 -0.07988025
v 0.2681198 0.008871612 -0.09376136
v 0.0001457214 0.00887165 -0.03247569
vt 0.0785901 0.1688888
vt 0.05553712 0.1667579
vt 0.05553716 0.1667579
vt 0.0785901 0.1688888
vt 0.0785901 0.1688888
vt 0.05553716 0.1667579
vt 0.05553715 0.1073744
vt 0.07859004 0.1073744
vt 0.07859004 0.1073744
vt 0.05553715 0.1073744
vt 0.05553714 0.04799093
vt 0.07859005 0.04586001
vt 0.07859005 0.04586001
vt 0.05553714 0.04799093
vt 0.0555371 0.04799092
vt 0.07859007 0.04586001
vt 0.07859007 0.04586001
vt 0.0555371 0.04799092
vt 0.0555371 0.1073744
vt 0.07859004 0.1073744
vt 0.07859004 0.1073744
vt 0.0555371 0.1073744
vt 0.05553712 0.1667579
vt 0.0785901 0.1688888
vt 0.7305493 0.9519051
vt 0.4999999 0.5
vt 0.2694507 0.9519054
vt 0.9610986 0.5000002
vt 0.03890148 0.5
vt 0.7305496 0.04809493
vt 0.2694508 0.04809472
vn -0.03413518 0.988209 -0.1492575
vn -0.03413519 0.988209 -0.1492575
vn -0.03413519 0.988209 -0.1492575
vn -0.03413518 0.988209 -0.1492575
vn -0.8318313 0.5242233 0.1823363
vn -0.8318314 0.5242233 0.1823363
vn -0.8318314 0.5242233 0.1823363
vn -0.8318314 0.5242233 0.1823363
vn -0.7875739 -0.3764535 0.4878628
vn -0.787574 -0.3764535 0.4878628
vn -0.7875739 -0.3764535 0.4878628
vn -0.7875739 -0.3764535 0.4878628
vn 0.1058648 -0.8800669 0.4628986
vn 0.1058648 -0.8800669 0.4628986
vn 0.1058648 -0.8800669 0.4628986
vn 0.1058648 -0.8800669 0.4628986
vn 0.9213399 -0.3764536 0.09703369
vn 0.9213399 -0.3764536 0.0970337
vn 0.9213399 -0.3764536 0.09703368
vn 0.9213399 -0.3764536 0.09703369
vn 0.8283963 0.5242227 -0.197358
vn 0.8283963 0.5242227 -0.197358
vn 0.8283963 0.5242227 -0.197358
vn 0.8283963 0.5242227 -0.197358
vn 0.2383786 0.3807006 0.8934442
vn 0.2112497 0.3196181 0.9236979
vn 0.1736675 0.3807006 0.9082437
vn 0.2778603 0.3213816 0.9052665
vn 0.1432494 0.3213817 0.936052
vn 0.2479263 0.2600207 0.9332319
vn 0.1823633 0.2600207 0.9482262
g shield_level1_10_0
f 3/3/3 2/2/2 1/1/1
f 4/4/4 3/3/3 1/1/1
f 7/7/7 6/6/6 5/5/5
f 8/8/8 7/7/7 5/5/5
f 11/11/11 10/10/10 9/9/9
f 12/12/12 11/11/11 9/9/9
f 15/15/15 14/14/14 13/13/13
f 16/16/16 15/15/15 13/13/13
f 19/19/19 18/18/18 17/17/17
f 20/20/20 19/19/19 17/17/17
f 23/23/23 22/22/22 21/21/21
f 24/24/24 23/23/23 21/21/21
f 27/27/27 26/26/26 25/25/25
f 25/25/25 26/26/26 28/28/28
f 29/29/29 26/26/26 27/27/27
f 28/28/28 26/26/26 30/30/30
f 31/31/31 26/26/26 29/29/29
f 30/30/30 26/26/26 31/31/31
