g shield_level1_24
v 0.18348096 0.48450273 -0.34837973
v 0.19416444 0.4852173 -0.32077628
v -0.04469734 0.4852173 -0.20368242
v -0.059973523 0.48450273 -0.22903445
v -0.059973523 0.48450273 -0.22903445
v -0.04469734 0.4852173 -0.20368242
v -0.15085158 0.25037438 -0.099027134
v -0.16848014 0.24491912 -0.12215302
v -0.16848014 0.24491912 -0.12215302
v -0.15085158 0.25037438 -0.099027134
v -0.009287853 0.009532337 -0.11574767
v -0.024067763 -0.001007843 -0.13918902
v -0.024067763 -0.001007843 -0.13918902
v -0.009287853 0.009532337 -0.11574767
v 0.24198616 0.009532299 -0.23892622
v 0.2325091 -0.0010078811 -0.2649671
v 0.2325091 -0.0010078811 -0.2649671
v 0.24198616 0.009532299 -0.23892622
v 0.34191075 0.25037432 -0.3405871
v 0.33442783 0.24491909 -0.36868656
v 0.33442783 0.24491909 -0.36868656
v 0.34191075 0.25037432 -0.3405871
v 0.19416444 0.4852173 -0.32077628
v 0.18348096 0.48450273 -0.34837973
v 0.24198616 0.009532299 -0.23892622
v 0.1043593 0.25037432 -0.20179525
v 0.34191075 0.25037432 -0.3405871
v -0.009287853 0.009532337 -0.11574767
v 0.19416444 0.4852173 -0.32077628
v -0.15085158 0.25037438 -0.099027134
v -0.04469734 0.4852173 -0.20368242
vt 0.078590095 0.16888879
vt 0.05553712 0.16675788
vt 0.055537164 0.16675788
vt 0.078590095 0.16888879
vt 0.078590095 0.16888879
vt 0.055537164 0.16675788
vt 0.05553715 0.107374415
vt 0.078590035 0.10737443
vt 0.078590035 0.10737443
vt 0.05553715 0.107374415
vt 0.05553714 0.047990933
vt 0.07859005 0.045860007
vt 0.07859005 0.045860007
vt 0.05553714 0.047990933
vt 0.055537097 0.04799092
vt 0.078590065 0.045860007
vt 0.078590065 0.045860007
vt 0.055537097 0.04799092
vt 0.055537105 0.107374415
vt 0.078590035 0.10737443
vt 0.078590035 0.10737443
vt 0.055537105 0.107374415
vt 0.05553712 0.16675788
vt 0.078590095 0.16888879
vt 0.7305496 0.04809493
vt 0.4999999 0.5
vt 0.96109855 0.50000024
vt 0.26945078 0.04809472
vt 0.73054934 0.95190513
vt 0.038901478 0.5
vt 0.26945072 0.95190537
vn -0.010662745 0.99970657 -0.02175048
vn -0.010662744 0.99970657 -0.02175048
vn -0.010662744 0.99970657 -0.02175048
vn -0.010662745 0.99970657 -0.021750482
vn -0.7340012 0.52448696 0.43145758
vn -0.73400116 0.52448696 0.43145758
vn -0.73400116 0.52448696 0.43145758
vn -0.73400116 0.52448696 0.43145758
vn -0.66373354 -0.43227333 0.61040765
vn -0.66373354 -0.43227342 0.61040777
vn -0.66373354 -0.43227342 0.61040777
vn -0.66373354 -0.43227342 0.61040765
vn 0.15726443 -0.9339972 0.320807
vn 0.15726444 -0.9339972 0.32080698
vn 0.15726443 -0.9339972 0.32080704
vn 0.15726444 -0.9339972 0.320807
vn 0.88904583 -0.43227312 -0.15078956
vn 0.88904583 -0.4322731 -0.15078957
vn 0.88904583 -0.43227312 -0.15078957
vn 0.88904583 -0.4322731 -0.15078954
vn 0.79063 0.52448606 -0.3159407
vn 0.79063 0.52448606 -0.3159407
vn 0.79063 0.5244861 -0.3159407
vn 0.7906301 0.5244861 -0.31594068
vn 0.46788573 0.13265747 0.8737762
vn 0.43178758 0.19424632 0.8808109
vn 0.49474642 0.19537166 0.8467916
vn 0.40411684 0.13265745 0.90503675
vn 0.45674667 0.25684917 0.8517106
vn 0.36633393 0.19537167 0.9097414
vn 0.39349735 0.2568492 0.8827165
g shield_level1_24_0
f 3/3/3 2/2/2 1/1/1
f 4/4/4 3/3/3 1/1/1
f 7/7/7 6/6/6 5/5/5
f 8/8/8 7/7/7 5/5/5
f 11/11/11 10/10/10 9/9/9
f 12/12/12 11/11/11 9/9/9
f 15/15/15 14/14/14 13/13/13
f 16/16/16 15/15/15 13/13/13
f 19/19/19 18/18/18 17/17/17
f 20/20/20 19/19/19 17/17/17
f 23/23/23 22/22/22 21/21/21
f 24/24/24 23/23/23 21/21/21
f 27/27/27 26/26/26 25/25/25
f 25/25/25 26/26/26 28/28/28
f 29/29/29 26/26/26 27/27/27
f 28/28/28 26/26/26 30/30/30
f 31/31/31 26/26/26 29/29/29
f 30/30/30 26/26/26 31/31/31
