g shield_level1_22
v 0.179856 0.4283973 -0.3920741
v 0.1842481 0.4366418 -0.3640701
v -0.04360128 0.4366418 -0.3110249
v -0.05202949 0.4283973 -0.3380892
v -0.05202949 0.4283973 -0.3380892
v -0.04360128 0.4366418 -0.3110249
v -0.1498099 0.2259311 -0.1764659
v -0.1607564 0.2135836 -0.2007
v -0.1607564 0.2135836 -0.2007
v -0.1498099 0.2259311 -0.1764659
v -0.01031616 0.001641979 -0.09905834
v -0.01862348 -0.01558775 -0.1216561
v -0.01862348 -0.01558775 -0.1216561
v -0.01031616 0.001641979 -0.09905834
v 0.2480065 0.001641941 -0.159198
v 0.2454787 -0.01558779 -0.1831413
v 0.2454787 -0.01558779 -0.1831413
v 0.2480065 0.001641941 -0.159198
v 0.3389675 0.225931 -0.2902574
v 0.3380846 0.2135835 -0.3168344
v 0.3380846 0.2135835 -0.3168344
v 0.3389675 0.225931 -0.2902574
v 0.1842481 0.4366418 -0.3640701
v 0.179856 0.4283973 -0.3920741
v 0.1842481 0.4366418 -0.3640701
v 0.09873817 0.225931 -0.2154954
v -0.04360128 0.4366418 -0.3110249
v 0.3389675 0.225931 -0.2902574
v -0.1498099 0.2259311 -0.1764659
v 0.2480065 0.001641941 -0.159198
v -0.01031616 0.001641979 -0.09905834
vt 0.0785901 0.1688888
vt 0.05553712 0.1667579
vt 0.05553716 0.1667579
vt 0.0785901 0.1688888
vt 0.0785901 0.1688888
vt 0.05553716 0.1667579
vt 0.05553715 0.1073744
vt 0.07859004 0.1073744
vt 0.07859004 0.1073744
vt 0.05553715 0.1073744
vt 0.05553714 0.04799093
vt 0.07859005 0.04586001
vt 0.07859005 0.04586001
vt 0.05553714 0.04799093
vt 0.0555371 0.04799092
vt 0.07859007 0.04586001
vt 0.07859007 0.04586001
vt 0.0555371 0.04799092
vt 0.0555371 0.1073744
vt 0.07859004 0.1073744
vt 0.07859004 0.1073744
vt 0.0555371 0.1073744
vt 0.05553712 0.1667579
vt 0.0785901 0.1688888
vt 0.7305493 0.9519051
vt 0.4999999 0.5
vt 0.2694507 0.9519054
vt 0.9610986 0.5000002
vt 0.03890148 0.5
vt 0.7305496 0.04809493
vt 0.2694508 0.04809472
vn -0.06348077 0.9600099 -0.2726738
vn -0.06348077 0.9600099 -0.2726738
vn -0.06348077 0.9600099 -0.2726738
vn -0.06348077 0.9600099 -0.2726738
vn -0.8536386 0.5071276 0.1188381
vn -0.8536386 0.5071277 0.1188381
vn -0.8536386 0.5071276 0.1188381
vn -0.8536386 0.5071276 0.1188381
vn -0.7930673 -0.3120541 0.5231314
vn -0.7930673 -0.3120541 0.5231314
vn -0.7930673 -0.3120541 0.5231315
vn -0.7930673 -0.3120541 0.5231315
vn 0.1326241 -0.8111013 0.5696716
vn 0.1326241 -0.8111013 0.5696716
vn 0.1326241 -0.8111013 0.5696716
vn 0.1326241 -0.8111012 0.5696716
vn 0.9425747 -0.3120542 0.1190593
vn 0.9425747 -0.3120542 0.1190593
vn 0.9425747 -0.3120542 0.1190593
vn 0.9425747 -0.3120542 0.1190593
vn 0.8183506 0.507127 -0.2704152
vn 0.8183506 0.507127 -0.2704152
vn 0.8183506 0.507127 -0.2704152
vn 0.8183506 0.507127 -0.2704152
vn 0.2259693 0.4984442 0.8369536
vn 0.2036186 0.439979 0.8746187
vn 0.1669303 0.4984442 0.8506984
vn 0.2665166 0.4422349 0.8563861
vn 0.1391351 0.4422351 0.8860415
vn 0.239343 0.3832105 0.8921124
vn 0.1792941 0.3832105 0.9060923
g shield_level1_22_0
f 3/3/3 2/2/2 1/1/1
f 4/4/4 3/3/3 1/1/1
f 7/7/7 6/6/6 5/5/5
f 8/8/8 7/7/7 5/5/5
f 11/11/11 10/10/10 9/9/9
f 12/12/12 11/11/11 9/9/9
f 15/15/15 14/14/14 13/13/13
f 16/16/16 15/15/15 13/13/13
f 19/19/19 18/18/18 17/17/17
f 20/20/20 19/19/19 17/17/17
f 23/23/23 22/22/22 21/21/21
f 24/24/24 23/23/23 21/21/21
f 27/27/27 26/26/26 25/25/25
f 25/25/25 26/26/26 28/28/28
f 29/29/29 26/26/26 27/27/27
f 28/28/28 26/26/26 30/30/30
f 31/31/31 26/26/26 29/29/29
f 30/30/30 26/26/26 31/31/31
