g shield_level1_line
v -0.22137931 -0.7167541 0.00054375
v -0.144375 -0.75012946 0.00054375
v -0.17324251 -0.8001295 0.00054375
v -0.1925 -0.6667746 0.00054375
v -0.240625 -0.5834197 0.00054375
v -0.2695161 -0.63337874 0.00054375
v -0.31765294 -0.5500034 0.00054375
v -0.28875 -0.5000648 0.00054375
v -0.41403374 -0.5497983 0.00054375
v -0.38513076 -0.4998597 0.00054375
v -0.48151156 -0.49965465 0.00054375
v -0.5104145 -0.54959327 0.00054375
v -0.6067953 -0.5493882 0.00054375
v -0.5778923 -0.49944958 0.00054375
v -0.66453093 -0.44938704 0.00054375
v -0.62601733 -0.41609463 0.00054375
v -0.6741423 -0.3327397 0.00054375
v -0.7222666 -0.3493859 0.00054375
v -0.7800023 -0.24938478 0.00054375
v -0.72226727 -0.24938476 0.00054375
v -0.67414236 -0.16602986 0.00054375
v -0.73189473 -0.16606 0.00054375
v -0.6837873 -0.08273525 0.00054375
v -0.6260174 -0.08267493 0.00054375
v -0.5778925 0.0006799888 0.00054375
v -0.6356797 0.00058950356 0.00054375
v -0.683847 0.08341773 0.00054375
v -0.62605983 0.083508216 0.00054375
v -0.73201436 0.16624595 0.00054375
v -0.6742271 0.16633643 0.00054375
v -0.72239447 0.24916466 0.00054375
v -0.7801817 0.24907416 0.00054375
v -0.7224168 0.34912592 0.00054375
v -0.6742695 0.3325196 0.00054375
v -0.6261445 0.41587454 0.00054375
v -0.66465193 0.44917774 0.00054375
v -0.60688704 0.5492295 0.00054375
v -0.5780195 0.4992295 0.00054375
v -0.48176956 0.49922952 0.00054375
v -0.5106358 0.5492295 0.00054375
v -0.4143846 0.54922956 0.00054375
v -0.3855196 0.49922952 0.00054375
v -0.31813338 0.54922956 0.00054375
v -0.28926963 0.49922958 0.00054375
v -0.2409714 0.58286285 0.00054375
v -0.26983517 0.63286287 0.00054375
v -0.22153698 0.71649617 0.00054375
v -0.1926732 0.66649616 0.00054375
v -0.144375 0.75012946 0.00054375
v -0.17323877 0.8001295 0.00054375
v -0.05774626 0.8001295 0.00054375
v -0.048125 0.75012946 0.00054375
v 0.048125 0.75012946 0.00054375
v 0.05774625 0.8001295 0.00054375
v 0.17323877 0.8001295 0.00054375
v 0.144375 0.75012946 0.00054375
v 0.22131678 0.7168775 0.00054375
v 0.19245301 0.6668775 0.00054375
v 0.24053106 0.5836255 0.00054375
v 0.26939484 0.6336255 0.00054375
v 0.31747285 0.5503735 0.00054375
v 0.2886091 0.50037354 0.00054375
v 0.41372406 0.5503735 0.00054375
v 0.38485903 0.5003735 0.00054375
v 0.48110896 0.5003735 0.00054375
v 0.50997525 0.55037344 0.00054375
v 0.60622644 0.55037344 0.00054375
v 0.5773589 0.5003734 0.00054375
v 0.6639693 0.45035997 0.00054375
v 0.62548393 0.4170185 0.00054375
v 0.6736089 0.33366358 0.00054375
v 0.721712 0.3503465 0.00054375
v 0.7794549 0.25033307 0.00054375
v 0.7217339 0.25030863 0.00054375
v 0.6737639 0.16705939 0.00054375
v 0.73148483 0.16708383 0.00054375
v 0.6835148 0.08383457 0.00054375
v 0.6257938 0.08381014 0.00054375
v 0.57782376 0.000560894 0.00054375
v 0.63554466 0.00058531837 0.00054375
v 0.6836744 -0.082777746 0.00054375
v 0.6259487 -0.082794026 0.00054375
v 0.73180395 -0.16614082 0.00054375
v 0.6740737 -0.16614895 0.00054375
v 0.7221986 -0.24950388 0.00054375
v 0.77993363 -0.24950388 0.00054375
v 0.7221956 -0.34950897 0.00054375
v 0.67407364 -0.3328588 0.00054375
v 0.62594867 -0.41621375 0.00054375
v 0.6644577 -0.44951406 0.00054375
v 0.6067198 -0.5495192 0.00054375
v 0.57782364 -0.4995687 0.00054375
v 0.4814658 -0.49973407 0.00054375
v 0.5103619 -0.5496845 0.00054375
v 0.41400397 -0.54984987 0.00054375
v 0.38510787 -0.4998994 0.00054375
v 0.3176461 -0.5500153 0.00054375
v 0.28875 -0.5000648 0.00054375
v 0.240625 -0.5834197 0.00054375
v 0.26951155 -0.6333866 0.00054375
v 0.22137703 -0.716758 0.00054375
v 0.1925 -0.6667746 0.00054375
v 0.144375 -0.75012946 0.00054375
v 0.17324251 -0.8001295 0.00054375
v 0.057747502 -0.8001295 0.00054375
v 0.048125 -0.75012946 0.00054375
v -0.048125 -0.75012946 0.00054375
v -0.057747502 -0.8001295 0.00054375
v -0.17324251 -0.8001295 0.00054375
v -0.144375 -0.75012946 0.00054375
vt 0.018518519 1
vt 0 0
vt 0 1
vt 0.018518519 0
vt 0.037037037 0
vt 0.037037037 1
vt 0.055555556 1
vt 0.055555556 0
vt 0.074074075 1
vt 0.074074075 0
vt 0.09259259 0
vt 0.09259259 1
vt 0.11111111 1
vt 0.11111111 0
vt 0.12962963 1
vt 0.12962963 0
vt 0.14814815 0
vt 0.14814815 1
vt 0.16666667 1
vt 0.16666667 0
vt 0.18518518 0
vt 0.18518518 1
vt 0.2037037 1
vt 0.2037037 0
vt 0.22222222 0
vt 0.22222222 1
vt 0.24074075 1
vt 0.24074075 0
vt 0.25925925 1
vt 0.25925925 0
vt 0.2777778 0
vt 0.2777778 1
vt 0.2962963 1
vt 0.2962963 0
vt 0.3148148 0
vt 0.3148148 1
vt 0.33333334 1
vt 0.33333334 0
vt 0.35185185 0
vt 0.35185185 1
vt 0.37037036 1
vt 0.37037036 0
vt 0.3888889 1
vt 0.3888889 0
vt 0.4074074 0
vt 0.4074074 1
vt 0.42592594 1
vt 0.42592594 0
vt 0.44444445 0
vt 0.44444445 1
vt 0.46296296 1
vt 0.46296296 0
vt 0.4814815 0
vt 0.4814815 1
vt 0.5 1
vt 0.5 0
vt 0.5185185 1
vt 0.5185185 0
vt 0.537037 0
vt 0.537037 1
vt 0.5555556 1
vt 0.5555556 0
vt 0.5740741 1
vt 0.5740741 0
vt 0.5925926 0
vt 0.5925926 1
vt 0.6111111 1
vt 0.6111111 0
vt 0.6296296 1
vt 0.6296296 0
vt 0.6481481 0
vt 0.6481481 1
vt 0.6666667 1
vt 0.6666667 0
vt 0.6851852 0
vt 0.6851852 1
vt 0.7037037 1
vt 0.7037037 0
vt 0.7222222 0
vt 0.7222222 1
vt 0.7407407 1
vt 0.7407407 0
vt 0.7592593 1
vt 0.7592593 0
vt 0.7777778 0
vt 0.7777778 1
vt 0.7962963 1
vt 0.7962963 0
vt 0.8148148 0
vt 0.8148148 1
vt 0.8333333 1
vt 0.8333333 0
vt 0.8518519 0
vt 0.8518519 1
vt 0.8703704 1
vt 0.8703704 0
vt 0.8888889 1
vt 0.8888889 0
vt 0.9074074 0
vt 0.9074074 1
vt 0.9259259 1
vt 0.9259259 0
vt 0.9444444 0
vt 0.9444444 1
vt 0.962963 1
vt 0.962963 0
vt 0.9814815 0
vt 0.9814815 1
vt 1 1
vt 1 0
vn -0 0 1
vn -0 0 1
vn -0 0 1
vn -0 0 1
vn -0 0 1
vn -0 0 1
vn -0 0 1
vn -0 0 1
vn -0 0 1
vn -0 0 1
vn -0 0 1
vn -0 0 1
vn -0 0 1
vn -0 0 1
vn -0 0 1
vn -0 0 1
vn -0 0 1
vn -0 0 1
vn -0 0 1
vn -0 0 1
vn -0 0 1
vn -0 0 1
vn -0 0 1
vn -0 0 1
vn -0 0 1
vn -0 0 1
vn -0 0 1
vn -0 0 1
vn -0 0 1
vn -0 0 1
vn -0 0 1
vn -0 0 1
vn -0 0 1
vn -0 0 1
vn -0 0 1
vn -0 0 1
vn -0 0 1
vn -0 0 1
vn -0 0 1
vn -0 0 1
vn -0 0 1
vn -0 0 1
vn -0 0 1
vn -0 0 1
vn -0 0 1
vn -0 0 1
vn -0 0 1
vn -0 0 1
vn -0 0 1
vn -0 0 1
vn -0 0 1
vn -0 0 1
vn -0 0 1
vn -0 0 1
vn -0 0 1
vn -0 0 1
vn -0 0 1
vn -0 0 1
vn -0 0 1
vn -0 0 1
vn -0 0 1
vn -0 0 1
vn -0 0 1
vn -0 0 1
vn -0 0 1
vn -0 0 1
vn -0 0 1
vn -0 0 1
vn -0 0 1
vn -0 0 1
vn -0 0 1
vn -0 0 1
vn -0 0 1
vn -0 0 1
vn -0 0 1
vn -0 0 1
vn -0 0 1
vn -0 0 1
vn -0 0 1
vn -0 0 1
vn -0 0 1
vn -0 0 1
vn -0 0 1
vn -0 0 1
vn -0 0 1
vn -0 0 1
vn -0 0 1
vn -0 0 1
vn -0 0 1
vn -0 0 1
vn -0 0 1
vn -0 0 1
vn -0 0 1
vn -0 0 1
vn -0 0 1
vn -0 0 1
vn -0 0 1
vn -0 0 1
vn -0 0 1
vn -0 0 1
vn -0 0 1
vn -0 0 1
vn -0 0 1
vn -0 0 1
vn -0 0 1
vn -0 0 1
vn -0 0 1
vn -0 0 1
vn -0 0 1
vn -0 0 1
g shield_level1_line_0
f 3/3/3 2/2/2 1/1/1
f 2/2/2 4/4/4 1/1/1
f 4/4/4 5/5/5 1/1/1
f 5/5/5 6/6/6 1/1/1
f 7/7/7 6/6/6 5/5/5
f 8/8/8 7/7/7 5/5/5
f 7/7/7 8/8/8 9/9/9
f 8/8/8 10/10/10 9/9/9
f 10/10/10 11/11/11 9/9/9
f 11/11/11 12/12/12 9/9/9
f 13/13/13 12/12/12 11/11/11
f 14/14/14 13/13/13 11/11/11
f 13/13/13 14/14/14 15/15/15
f 14/14/14 16/16/16 15/15/15
f 16/16/16 17/17/17 15/15/15
f 17/17/17 18/18/18 15/15/15
f 19/19/19 18/18/18 17/17/17
f 20/20/20 19/19/19 17/17/17
f 20/20/20 21/21/21 19/19/19
f 21/21/21 22/22/22 19/19/19
f 23/23/23 22/22/22 21/21/21
f 24/24/24 23/23/23 21/21/21
f 24/24/24 25/25/25 23/23/23
f 25/25/25 26/26/26 23/23/23
f 27/27/27 26/26/26 25/25/25
f 28/28/28 27/27/27 25/25/25
f 27/27/27 28/28/28 29/29/29
f 28/28/28 30/30/30 29/29/29
f 30/30/30 31/31/31 29/29/29
f 31/31/31 32/32/32 29/29/29
f 33/33/33 32/32/32 31/31/31
f 34/34/34 33/33/33 31/31/31
f 34/34/34 35/35/35 33/33/33
f 35/35/35 36/36/36 33/33/33
f 37/37/37 36/36/36 35/35/35
f 38/38/38 37/37/37 35/35/35
f 38/38/38 39/39/39 37/37/37
f 39/39/39 40/40/40 37/37/37
f 41/41/41 40/40/40 39/39/39
f 42/42/42 41/41/41 39/39/39
f 41/41/41 42/42/42 43/43/43
f 42/42/42 44/44/44 43/43/43
f 44/44/44 45/45/45 43/43/43
f 45/45/45 46/46/46 43/43/43
f 47/47/47 46/46/46 45/45/45
f 48/48/48 47/47/47 45/45/45
f 48/48/48 49/49/49 47/47/47
f 49/49/49 50/50/50 47/47/47
f 51/51/51 50/50/50 49/49/49
f 52/52/52 51/51/51 49/49/49
f 52/52/52 53/53/53 51/51/51
f 53/53/53 54/54/54 51/51/51
f 55/55/55 54/54/54 53/53/53
f 56/56/56 55/55/55 53/53/53
f 55/55/55 56/56/56 57/57/57
f 56/56/56 58/58/58 57/57/57
f 58/58/58 59/59/59 57/57/57
f 59/59/59 60/60/60 57/57/57
f 61/61/61 60/60/60 59/59/59
f 62/62/62 61/61/61 59/59/59
f 61/61/61 62/62/62 63/63/63
f 62/62/62 64/64/64 63/63/63
f 64/64/64 65/65/65 63/63/63
f 65/65/65 66/66/66 63/63/63
f 67/67/67 66/66/66 65/65/65
f 68/68/68 67/67/67 65/65/65
f 67/67/67 68/68/68 69/69/69
f 68/68/68 70/70/70 69/69/69
f 70/70/70 71/71/71 69/69/69
f 71/71/71 72/72/72 69/69/69
f 73/73/73 72/72/72 71/71/71
f 74/74/74 73/73/73 71/71/71
f 74/74/74 75/75/75 73/73/73
f 75/75/75 76/76/76 73/73/73
f 77/77/77 76/76/76 75/75/75
f 78/78/78 77/77/77 75/75/75
f 78/78/78 79/79/79 77/77/77
f 79/79/79 80/80/80 77/77/77
f 81/81/81 80/80/80 79/79/79
f 82/82/82 81/81/81 79/79/79
f 81/81/81 82/82/82 83/83/83
f 82/82/82 84/84/84 83/83/83
f 84/84/84 85/85/85 83/83/83
f 85/85/85 86/86/86 83/83/83
f 87/87/87 86/86/86 85/85/85
f 88/88/88 87/87/87 85/85/85
f 88/88/88 89/89/89 87/87/87
f 89/89/89 90/90/90 87/87/87
f 91/91/91 90/90/90 89/89/89
f 92/92/92 91/91/91 89/89/89
f 92/92/92 93/93/93 91/91/91
f 93/93/93 94/94/94 91/91/91
f 95/95/95 94/94/94 93/93/93
f 96/96/96 95/95/95 93/93/93
f 95/95/95 96/96/96 97/97/97
f 96/96/96 98/98/98 97/97/97
f 98/98/98 99/99/99 97/97/97
f 99/99/99 100/100/100 97/97/97
f 101/101/101 100/100/100 99/99/99
f 102/102/102 101/101/101 99/99/99
f 102/102/102 103/103/103 101/101/101
f 103/103/103 104/104/104 101/101/101
f 105/105/105 104/104/104 103/103/103
f 106/106/106 105/105/105 103/103/103
f 106/106/106 107/107/107 105/105/105
f 107/107/107 108/108/108 105/105/105
f 109/109/109 108/108/108 107/107/107
f 110/110/110 109/109/109 107/107/107
