g splashCone
v 0.95105714 0 -0.30901718
v 1.6468148 0.86228365 -0.5350823
v 1.4008641 0.86228365 -1.017787
v 0.80901754 0 -0.5877856
v 1.0177872 0.86228365 -1.4008639
v 0.5877856 0 -0.8090175
v 0.53508246 0.86228365 -1.6468141
v 0.30901715 0 -0.951057
v 8.7208996E-08 0.86228365 -1.7315627
v -0 0 -1.0000005
v -0.5350822 0.86228365 -1.646814
v -0.30901715 0 -0.95105696
v -1.0177869 0.86228365 -1.4008636
v -0.5877855 0 -0.8090173
v -1.4008635 0.86228365 -1.0177867
v -0.80901724 0 -0.5877854
v -1.6468136 0.86228365 -0.53508204
v -0.9510568 0 -0.30901706
v -1.7315624 0.86228365 1.3081349E-07
v -1.0000002 0 0
v -1.6468136 0.86228365 0.5350823
v -0.9510568 0 0.30901706
v -1.4008634 0.86228365 1.0177867
v -0.8090172 0 0.58778536
v -1.0177867 0.86228365 1.4008635
v -0.58778536 0 0.8090171
v -0.5350821 0.86228365 1.6468138
v -0.30901706 0 0.95105666
v 3.5604423E-08 0.86228365 1.7315624
v -2.9802322E-08 0 1.0000001
v 0.53508216 0.86228365 1.6468135
v 0.30901697 0 0.9510566
v 1.0177866 0.86228365 1.4008634
v 0.58778524 0 0.80901706
v 1.4008633 0.86228365 1.0177867
v 0.809017 0 0.5877853
v 1.6468134 0.86228365 0.5350822
v 0.95105654 0 0.309017
v 1.7315621 0.86228365 1.3081349E-07
v 1 0 0
v 1.6468148 0.86228365 -0.5350823
v 0.95105714 0 -0.30901718
vt 0 0
vt 0 1
vt 0.050000012 1
vt 0.050000012 0
vt 0.099999994 1
vt 0.099999994 0
vt 0.15 1
vt 0.15 0
vt 0.19999999 1
vt 0.19999999 0
vt 0.25 1
vt 0.25 0
vt 0.3 1
vt 0.3 0
vt 0.35 1
vt 0.35 0
vt 0.4 1
vt 0.4 0
vt 0.45 1
vt 0.45 0
vt 0.5 1
vt 0.5 0
vt 0.55 1
vt 0.55 0
vt 0.6 1
vt 0.6 0
vt 0.65 1
vt 0.65 0
vt 0.7 1
vt 0.7 0
vt 0.75 1
vt 0.75 0
vt 0.8 1
vt 0.8 0
vt 0.85 1
vt 0.85 0
vt 0.9 1
vt 0.9 0
vt 0.95 1
vt 0.95 0
vt 1 1
vt 1 0
vn 0.72521937 -0.6469404 -0.23563722
vn 0.72521937 -0.6469404 -0.2356373
vn 0.6169082 -0.64694035 -0.44821024
vn 0.61690813 -0.64694035 -0.44821024
vn 0.4482101 -0.64694035 -0.6169084
vn 0.4482101 -0.64694035 -0.61690843
vn 0.23563789 -0.6469403 -0.7252193
vn 0.23563783 -0.64694035 -0.72521925
vn -0 -0.6469403 -0.7625407
vn -0 -0.6469403 -0.7625407
vn -0.23563813 -0.64694023 -0.72521925
vn -0.23563817 -0.64694023 -0.7252193
vn -0.4482103 -0.64694023 -0.6169083
vn -0.44821036 -0.64694023 -0.6169083
vn -0.6169085 -0.6469402 -0.4482101
vn -0.6169085 -0.64694023 -0.4482101
vn -0.7252195 -0.6469401 -0.235638
vn -0.7252195 -0.64694 -0.23563796
vn -0.7625407 -0.6469402 0
vn -0.76254076 -0.6469402 0
vn -0.7252193 -0.6469403 0.23563811
vn -0.72521937 -0.64694023 0.23563808
vn -0.61690843 -0.6469403 0.4482102
vn -0.61690843 -0.6469403 0.44821018
vn -0.44821012 -0.6469403 0.61690843
vn -0.44821012 -0.6469403 0.61690843
vn -0.235638 -0.64694023 0.7252193
vn -0.235638 -0.64694023 0.7252193
vn -0 -0.64694023 0.7625407
vn -0 -0.6469403 0.7625407
vn 0.23563819 -0.64694023 0.72521937
vn 0.2356382 -0.64694023 0.72521925
vn 0.44821024 -0.6469403 0.61690843
vn 0.44821024 -0.6469403 0.61690843
vn 0.61690843 -0.6469403 0.44821024
vn 0.6169084 -0.6469403 0.44821018
vn 0.72521937 -0.6469402 0.23563807
vn 0.72521937 -0.64694023 0.23563802
vn 0.76254076 -0.6469402 0
vn 0.76254076 -0.6469402 0
vn 0.72521937 -0.6469404 -0.2356373
vn 0.72521937 -0.6469404 -0.23563722
g splashCone_0
f 3/3/3 2/2/2 1/1/1
f 4/4/4 3/3/3 1/1/1
f 5/5/5 3/3/3 4/4/4
f 6/6/6 5/5/5 4/4/4
f 7/7/7 5/5/5 6/6/6
f 8/8/8 7/7/7 6/6/6
f 9/9/9 7/7/7 8/8/8
f 10/10/10 9/9/9 8/8/8
f 11/11/11 9/9/9 10/10/10
f 12/12/12 11/11/11 10/10/10
f 13/13/13 11/11/11 12/12/12
f 14/14/14 13/13/13 12/12/12
f 15/15/15 13/13/13 14/14/14
f 16/16/16 15/15/15 14/14/14
f 17/17/17 15/15/15 16/16/16
f 18/18/18 17/17/17 16/16/16
f 19/19/19 17/17/17 18/18/18
f 20/20/20 19/19/19 18/18/18
f 21/21/21 19/19/19 20/20/20
f 22/22/22 21/21/21 20/20/20
f 23/23/23 21/21/21 22/22/22
f 24/24/24 23/23/23 22/22/22
f 25/25/25 23/23/23 24/24/24
f 26/26/26 25/25/25 24/24/24
f 27/27/27 25/25/25 26/26/26
f 28/28/28 27/27/27 26/26/26
f 29/29/29 27/27/27 28/28/28
f 30/30/30 29/29/29 28/28/28
f 31/31/31 29/29/29 30/30/30
f 32/32/32 31/31/31 30/30/30
f 33/33/33 31/31/31 32/32/32
f 34/34/34 33/33/33 32/32/32
f 35/35/35 33/33/33 34/34/34
f 36/36/36 35/35/35 34/34/34
f 37/37/37 35/35/35 36/36/36
f 38/38/38 37/37/37 36/36/36
f 39/39/39 37/37/37 38/38/38
f 40/40/40 39/39/39 38/38/38
f 41/41/41 39/39/39 40/40/40
f 42/42/42 41/41/41 40/40/40
