g throw_arrow_curve
v -0.2523288 2.058467 0.008511846
v -0.2507442 2.057106 0.008302507
v -0.3468038 1.942696 0.008389072
v -0.3484186 1.943802 0.008600595
v -0.04400297 2.257097 0.008410624
v -0.04282594 2.255186 0.008203774
v 0.1521564 2.40503 0.008136534
v 0.1528576 2.402537 0.007936425
v 0.278766 2.471263 0.009183852
v 0.2790217 2.468555 0.008957985
v -0.3478066 1.94149 0.008402156
v -0.5037646 2.057557 0.01023456
v -0.499795 2.051149 0.009972175
v -0.4260489 1.698927 8.647895E-07
v -0.4278619 1.696331 -7.430399E-17
v -0.07857454 1.757149 -0.01023456
v -0.08309257 1.757992 -0.01006352
v -0.2174194 1.850905 -0.008361202
v -0.2143964 1.851157 -0.008600595
v -0.2165856 1.852683 -0.008324819
v -0.125899 1.948633 -0.008511846
v -0.1278928 1.950382 -0.008238915
v 0.0408257 2.101752 -0.00814094
v 0.0421103 2.099248 -0.008410624
v 0.1959647 2.219054 -0.007875637
v 0.1964464 2.21623 -0.008136534
v 0.2902023 2.268045 -0.008889373
v 0.2902571 2.264915 -0.009183852
v 0.3967525 2.306637 -0.009313632
v 0.3963383 2.303405 -0.009622165
v 0.5098827 2.324646 -0.012004
v 0.5092269 2.321156 -0.01240166
v 0.5425116 2.532657 0.01209665
v 0.4182976 2.511453 0.009385518
v 0.5428186 2.535374 0.01240166
v 0.4185311 2.514194 0.009622165
v 0.6185907 2.316923 -0.01626061
v 0.6176587 2.312906 -0.01679927
v 0.7221214 2.275157 -0.019586
v 0.719745 2.271053 -0.02023482
v 0.8331094 2.496177 0.01973717
v 0.6582768 2.532757 0.01638611
v 0.8342873 2.498983 0.02023482
v 0.658609 2.535553 0.01679927
v 0.8099023 2.220352 -0.02282175
v 0.8062095 2.216349 -0.02357777
v 0.8778688 2.148305 -0.02486536
v 0.8734211 2.144749 -0.02568908
v 1.078437 2.324696 0.02505728
v 0.9777823 2.420262 0.0229979
v 1.080725 2.326961 0.02568908
v 0.9796561 2.422811 0.02357777
v 0.9257467 2.082265 -0.02681122
v 0.9209397 2.079112 -0.0276994
v 0.9686271 1.99036 -0.02378208
v 0.9633541 1.987765 -0.02456991
v 1.149773 2.239481 0.02701816
v 1.22319 2.119881 0.02396564
v 1.22636 2.12157 0.02456991
v 1.152517 2.241509 0.0276994
v 0.9990043 1.885927 -0.01999226
v 0.9935654 1.884047 -0.02065454
v 1.019729 1.77369 -0.01799587
v 1.014025 1.772813 -0.01859202
v 1.029347 1.665255 -0.01810317
v 1.023736 1.664911 -0.01870288
v 1.304745 1.814618 0.01813477
v 1.27529 1.980682 0.02014657
v 1.308133 1.815041 0.01859202
v 1.278676 1.981802 0.02065454
v 1.319491 1.682146 0.01870288
v 1.31614 1.68198 0.0182429
v 1.031097 1.551384 -0.0189507
v 1.025447 1.551468 -0.01957848
v 1.017295 1.379745 -0.01970006
v 1.011465 1.380006 -0.02038507
v 1.313281 1.366179 0.02470298
v 1.321949 1.546806 0.01909696
v 1.316824 1.365998 0.02535465
v 1.325366 1.546783 0.01957848
v 0.989825 1.174956 -0.02085346
v 0.9841111 1.175842 -0.02148501
v 0.9518185 0.9779578 -0.01906922
v 0.9462615 0.9791304 -0.01970093
v 1.261022 0.9192707 0.0192164
v 1.293088 1.130267 0.02167162
v 1.264888 0.9185509 0.01970093
v 1.296977 1.129726 0.02234763
v 0.896639 0.7838007 -0.02016684
v 0.8910771 0.7852556 -0.02083491
v 0.8371362 0.5694235 -0.02048344
v 0.8314582 0.5710096 -0.021162
v 1.171737 0.4800955 0.02064154
v 1.221665 0.704951 0.0203225
v 1.175922 0.4789368 0.021162
v 1.22579 0.7039699 0.02083491
v 0.7463371 0.3046886 -0.02013178
v 0.7408922 0.3065135 -0.02073902
v 0.5701916 -0.1176542 -0.01866482
v 0.5642856 -0.1157363 -0.01919976
v 0.3373779 -0.5873606 -0.02154363
v 0.3307335 -0.584859 -0.0222573
v 0.02993302 -1.095497 -0.02617043
v 0.02184673 -1.092356 -0.02703738
v -0.3139079 -1.562376 -0.03431104
v -0.3242695 -1.558055 -0.03544767
v -0.6165997 -1.936842 -0.04078366
v -0.6296624 -1.932302 -0.0421347
v -1.006667 -2.312413 -0.05408736
v -0.9903839 -2.317825 -0.05235306
v 0.9565046 -0.2370374 0.02003232
v 1.092046 0.187127 0.02111154
v 0.9614065 -0.2385701 0.02055864
v 0.7656778 -0.7470875 0.0222573
v 0.7604272 -0.7451875 0.02170991
v 0.5583032 -1.283158 0.02703738
v 0.5518817 -1.280877 0.02637243
v 0.3491419 -1.833049 0.03544767
v 0.3410222 -1.829795 0.03457587
v 0.1975296 -2.234367 0.0421347
v 0.1876542 -2.230686 0.04109844
v 0.01138806 -2.656628 0.05275714
v 0.0242781 -2.661061 0.05408736
v 1.096441 0.1856872 0.02165938
v 0.00594914 -2.66765 0.05299878
v -0.9998761 -2.326006 -0.05259285
v -1.01618 -2.320547 -0.05433509
v 0.01891409 -2.672119 0.05433509
v -0.3489246 1.807595 -2.228127E-16
v -0.2033397 1.780429 -0.00551136
v -0.3915231 1.748352 1.733333E-05
v -0.4321637 1.94197 0.005501914
vt 0.885381 0.0008160258
vt 0.8852937 0.2474864
vt 0.892695 0.2474864
vt 0.8987424 0.0008160258
vt 0.8529351 0.0008160258
vt 0.8527348 0.2474864
vt 0.8213042 0.0008160258
vt 0.8210005 0.2474864
vt 0.7944222 0.0008160258
vt 0.7940482 0.2474864
vt 0.9143077 0.227128
vt 0.9853642 0.0008160258
vt 0.9824082 0.01363449
vt 0.9828345 0.2632463
vt 0.9854944 0.250816
vt 0.987748 1.000816
vt 0.9857407 0.9924601
vt 0.9137964 0.7571385
vt 0.8987424 1.000816
vt 0.8924006 0.7421072
vt 0.885381 1.000816
vt 0.8852894 0.7421072
vt 0.8527249 0.7421072
vt 0.8529351 1.000816
vt 0.8209857 0.7421072
vt 0.8213043 1.000816
vt 0.79403 0.7421072
vt 0.7944223 1.000816
vt 0.7613423 0.7421072
vt 0.7618241 1.000816
vt 0.7211338 0.7421072
vt 0.7216575 1.000816
vt 0.7211582 0.2474864
vt 0.7613648 0.2474864
vt 0.7216575 0.0008160258
vt 0.761824 0.0008160258
vt 0.6806197 0.7421072
vt 0.6811857 1.000816
vt 0.6550611 0.7421072
vt 0.6557041 1.000816
vt 0.655091 0.2474864
vt 0.6806459 0.2474864
vt 0.655704 0.0008160258
vt 0.6811856 0.0008160258
vt 0.6301914 0.7421072
vt 0.6309094 1.000816
vt 0.6150821 0.7421072
vt 0.6159133 1.000816
vt 0.6151209 0.2474864
vt 0.6302249 0.2474864
vt 0.6159132 0.0008160258
vt 0.6309094 0.0008160258
vt 0.6006955 0.7421072
vt 0.6016344 1.000816
vt 0.5810853 0.7421072
vt 0.5817947 1.000816
vt 0.6007394 0.2474864
vt 0.5811182 0.2474864
vt 0.5817946 0.0008160258
vt 0.6016343 0.0008160258
vt 0.5568496 0.7312878
vt 0.5559144 1.002249
vt 0.5327413 0.7421072
vt 0.5331682 1.000816
vt 0.5161546 0.7421072
vt 0.5164975 1.000816
vt 0.532761 0.2474864
vt 0.5587174 0.2355894
vt 0.5331681 0.0008160258
vt 0.5594475 1.191196E-05
vt 0.5164974 0.0008160258
vt 0.5161703 0.2474864
vt 0.49909 0.7421072
vt 0.4993464 1.000816
vt 0.4683852 0.7421072
vt 0.4685315 1.000816
vt 0.4683915 0.2474864
vt 0.4991013 0.2474864
vt 0.4685314 0.0008160258
vt 0.4993463 0.0008160258
vt 0.4342455 0.7421072
vt 0.4342694 1.000816
vt 0.4042524 0.7421072
vt 0.4042782 1.000816
vt 0.4042535 0.2474864
vt 0.4342462 0.2474864
vt 0.4042782 0.0008160258
vt 0.4342693 0.0008160258
vt 0.373248 0.7421072
vt 0.3732758 1.000816
vt 0.3452945 0.7421072
vt 0.3453586 1.000816
vt 0.3452977 0.2474864
vt 0.3732495 0.2474864
vt 0.3453585 0.0008160258
vt 0.3732757 0.0008160258
vt 0.315013 0.7421072
vt 0.3151163 1.000816
vt 0.258809 0.7421072
vt 0.2589142 1.000816
vt 0.2083853 0.7421072
vt 0.2084788 1.000816
vt 0.1519029 0.7421072
vt 0.1519684 1.000816
vt 0.09608972 0.7421072
vt 0.0961292 1.000816
vt 0.0718421 0.7421072
vt 0.07186966 1.000816
vt 0.04591113 1.000816
vt 0.04590692 0.7421072
vt 0.2588136 0.2474864
vt 0.3150179 0.2474864
vt 0.2589142 0.0008160258
vt 0.2084787 0.0008160258
vt 0.2083896 0.2474864
vt 0.1519683 0.0008160258
vt 0.1519058 0.2474864
vt 0.09612914 0.0008160258
vt 0.09609153 0.2474864
vt 0.0718696 0.0008160258
vt 0.07184335 0.2474864
vt 0.04590711 0.2474864
vt 0.04591107 0.000816051
vt 0.3151163 0.0008160258
vt 9.313226E-10 0.2474864
vt 9.313226E-10 0.7421072
vt 3.073364E-08 1.000816
vt -2.8871E-08 0.0008160556
vt 0.9231972 0.500816
vt 0.932315 0.7700685
vt 0.9321804 0.4999613
vt 0.9320458 0.232025
vn 0.07146823 -0.06864867 0.9950777
vn 0.07105073 -0.07077783 0.9949585
vn 0.07806801 -0.06775581 0.9946429
vn -0.007025621 -0.07335389 0.9972813
vn 0.05991261 -0.06955546 0.9957773
vn 0.0610924 -0.07323519 0.9954418
vn 0.04288962 -0.07241542 0.9964519
vn 0.04927077 -0.07743686 0.995779
vn 0.02622804 -0.081122 0.996359
vn 0.03443456 -0.08700369 0.9956127
vn 0.02022622 -0.05120609 0.9984832
vn 0.004895796 -0.04047757 0.9991685
vn 0.009669445 -0.03582534 0.9993113
vn 0.03201527 -0.0227077 0.9992294
vn 0.03189644 -0.02262151 0.9992352
vn 0.04270815 0.008899075 0.999048
vn 0.03879148 0.0003090592 0.9992473
vn 0.05562963 -0.006823332 0.9984282
vn 0.06685773 0.007927051 0.997731
vn 0.07800458 -0.06781332 0.994644
vn 0.07004713 -0.07339606 0.9948399
vn 0.07070597 -0.07098261 0.9949684
vn 0.06251779 -0.07315236 0.9953594
vn 0.063659 -0.07704072 0.9949936
vn 0.05206535 -0.0761776 0.995734
vn 0.05802947 -0.08175674 0.9949615
vn 0.03738219 -0.08519698 0.9956626
vn 0.04931762 -0.0912901 0.9946024
vn 0.02529315 -0.09638534 0.9950227
vn 0.0400799 -0.1024833 0.9939269
vn 0.007983813 -0.1172122 0.9930748
vn 0.03620091 -0.1197588 0.9921428
vn 0.004203626 -0.1206644 0.9926844
vn 0.02216525 -0.09934809 0.9948059
vn -0.02296712 -0.1131139 0.9933165
vn 0.006754492 -0.09238549 0.9957004
vn -0.0264933 -0.1416491 0.9895623
vn 0.001405147 -0.1330877 0.9911033
vn -0.06169476 -0.1466666 0.9872602
vn -0.0353237 -0.135648 0.9901272
vn -0.06377669 -0.1466634 0.9871283
vn -0.02762389 -0.1419178 0.989493
vn -0.07421769 -0.1449542 0.9866509
vn -0.04506885 -0.1388683 0.9892848
vn -0.1026847 -0.1362433 0.9853393
vn -0.06805729 -0.1237605 0.9899755
vn -0.1357784 -0.1219424 0.9832062
vn -0.09627792 -0.1092861 0.9893367
vn -0.1366428 -0.1220927 0.9830678
vn -0.1046853 -0.1358652 0.985181
vn -0.1492077 -0.1197333 0.98153
vn -0.1175357 -0.1349278 0.9838597
vn -0.1530074 -0.09850202 0.9833037
vn -0.1282452 -0.06517868 0.9895983
vn -0.1492092 -0.06477834 0.9866815
vn -0.1385983 -0.01673788 0.9902072
vn -0.1531914 -0.09976797 0.9831473
vn -0.149704 -0.06737722 0.9864325
vn -0.1384765 -0.09520251 0.9857793
vn -0.1504088 -0.1125358 0.982198
vn -0.1351935 -0.03414807 0.9902306
vn -0.1216077 -0.002330846 0.9925755
vn -0.126737 -0.01739299 0.9917839
vn -0.1078685 -0.006342322 0.994145
vn -0.1258548 -0.007320308 0.9920217
vn -0.1061223 -0.009725405 0.9943055
vn -0.1271506 -0.01774584 0.9917247
vn -0.136054 -0.0362173 0.9900392
vn -0.1334363 -0.02476476 0.9907479
vn -0.1336946 -0.05644333 0.989414
vn -0.1359102 -0.005038884 0.9907084
vn -0.126315 -0.00725187 0.9919637
vn -0.1336899 0.01161698 0.9909551
vn -0.1114117 -0.0006929474 0.9937741
vn -0.1405898 0.01283227 0.9899848
vn -0.1128486 0.007465957 0.9935842
vn -0.1413302 0.0133893 0.989872
vn -0.1342843 0.01196441 0.9908706
vn -0.1688922 0.0175548 0.9854782
vn -0.1504474 0.02267237 0.988358
vn -0.1348461 0.01319394 0.9907787
vn -0.1092527 0.01935772 0.9938255
vn -0.1219075 0.02397597 0.9922519
vn -0.1080969 0.0274854 0.9937603
vn -0.1223384 0.02379774 0.9922031
vn -0.1355862 0.01304758 0.9906797
vn -0.1317093 0.01887032 0.9911087
vn -0.1612752 0.006229058 0.9868898
vn -0.1162805 0.0280475 0.9928203
vn -0.1106173 0.02762163 0.9934791
vn -0.1119914 0.03242841 0.9931799
vn -0.1068291 0.03365531 0.9937077
vn -0.1121417 0.03234627 0.9931656
vn -0.116386 0.02804321 0.992808
vn -0.1148649 0.03035814 0.9929172
vn -0.1171956 0.02703502 0.9927408
vn -0.1014361 0.03576314 0.994199
vn -0.09301681 0.03882019 0.9949074
vn -0.09143917 0.03690432 0.9951266
vn -0.08652356 0.03788507 0.9955292
vn -0.08652862 0.04037276 0.995431
vn -0.08822037 0.0417886 0.9952241
vn -0.08516014 0.04490361 0.9953549
vn -0.08898303 0.04684483 0.9949309
vn -0.0843181 0.04813392 0.9952756
vn -0.08702751 0.05049402 0.9949254
vn -0.08339486 0.05436496 0.9950325
vn -0.08609018 0.05363611 0.9948425
vn -0.08606438 0.05487197 0.9947773
vn -0.08318384 0.05706093 0.9948992
vn -0.09203729 0.03680693 0.995075
vn -0.101619 0.03566761 0.9941838
vn -0.09774791 0.03535067 0.9945832
vn -0.0898755 0.04103794 0.9951072
vn -0.08666478 0.04013974 0.9954286
vn -0.0873353 0.04586303 0.9951227
vn -0.0851879 0.04456073 0.9953679
vn -0.08666522 0.04873133 0.9950449
vn -0.08437493 0.0478871 0.9952828
vn -0.0837549 0.05595966 0.9949139
vn -0.08344555 0.05353051 0.9950736
vn -0.08309537 0.05699493 0.9949104
vn -0.08165126 0.06104367 0.9947898
vn -0.1082922 0.03153052 0.9936189
vn -0.08256597 0.06428148 0.9945103
vn -0.08260871 0.06440777 0.9944986
vn -0.08352111 0.06758663 0.9942114
vn -0.08130403 0.06182646 0.9947699
vn 0.02904147 -0.02451281 0.9992776
vn 0.03727689 -0.002938304 0.9993007
vn 0.02852109 -0.02145119 0.999363
vn 0.01137639 -0.03387161 0.9993615
g throw_arrow_curve_0
f 3/3/3 2/2/2 1/1/1
f 4/4/4 3/3/3 1/1/1
f 1/1/1 2/2/2 5/5/5
f 2/2/2 6/6/6 5/5/5
f 5/5/5 6/6/6 7/7/7
f 6/6/6 8/8/8 7/7/7
f 9/9/9 7/7/7 8/8/8
f 10/10/10 9/9/9 8/8/8
f 11/11/11 3/3/3 4/4/4
f 11/11/11 4/4/4 12/12/12
f 13/13/13 11/11/11 12/12/12
f 14/14/14 13/13/13 12/12/12
f 15/15/15 14/14/14 12/12/12
f 14/14/14 15/15/15 16/16/16
f 17/17/17 14/14/14 16/16/16
f 18/18/18 17/17/17 16/16/16
f 19/19/19 18/18/18 16/16/16
f 18/18/18 19/19/19 20/20/20
f 11/11/11 18/18/18 20/20/20
f 19/19/19 21/21/21 20/20/20
f 21/21/21 22/22/22 20/20/20
f 22/22/22 21/21/21 23/23/23
f 21/21/21 24/24/24 23/23/23
f 23/23/23 24/24/24 25/25/25
f 24/24/24 26/26/26 25/25/25
f 27/27/27 25/25/25 26/26/26
f 28/28/28 27/27/27 26/26/26
f 3/3/3 20/20/20 22/22/22
f 2/2/2 3/3/3 22/22/22
f 2/2/2 22/22/22 23/23/23
f 6/6/6 2/2/2 23/23/23
f 23/23/23 25/25/25 8/8/8
f 6/6/6 23/23/23 8/8/8
f 10/10/10 8/8/8 25/25/25
f 27/27/27 10/10/10 25/25/25
f 3/3/3 11/11/11 20/20/20
f 29/29/29 27/27/27 28/28/28
f 27/27/27 29/29/29 10/10/10
f 30/30/30 29/29/29 28/28/28
f 31/31/31 29/29/29 30/30/30
f 32/32/32 31/31/31 30/30/30
f 31/31/31 33/33/33 29/29/29
f 33/33/33 34/34/34 29/29/29
f 29/29/29 34/34/34 10/10/10
f 34/34/34 33/33/33 35/35/35
f 36/36/36 34/34/34 35/35/35
f 37/37/37 31/31/31 32/32/32
f 31/31/31 37/37/37 33/33/33
f 38/38/38 37/37/37 32/32/32
f 39/39/39 37/37/37 38/38/38
f 40/40/40 39/39/39 38/38/38
f 39/39/39 41/41/41 37/37/37
f 41/41/41 42/42/42 37/37/37
f 37/37/37 42/42/42 33/33/33
f 42/42/42 41/41/41 43/43/43
f 44/44/44 42/42/42 43/43/43
f 33/33/33 42/42/42 44/44/44
f 35/35/35 33/33/33 44/44/44
f 45/45/45 39/39/39 40/40/40
f 39/39/39 45/45/45 41/41/41
f 46/46/46 45/45/45 40/40/40
f 45/45/45 46/46/46 47/47/47
f 46/46/46 48/48/48 47/47/47
f 45/45/45 47/47/47 49/49/49
f 50/50/50 45/45/45 49/49/49
f 45/45/45 50/50/50 41/41/41
f 50/50/50 49/49/49 51/51/51
f 52/52/52 50/50/50 51/51/51
f 41/41/41 50/50/50 52/52/52
f 43/43/43 41/41/41 52/52/52
f 47/47/47 48/48/48 53/53/53
f 48/48/48 54/54/54 53/53/53
f 53/53/53 54/54/54 55/55/55
f 54/54/54 56/56/56 55/55/55
f 57/57/57 53/53/53 55/55/55
f 47/47/47 53/53/53 57/57/57
f 49/49/49 47/47/47 57/57/57
f 58/58/58 57/57/57 55/55/55
f 57/57/57 58/58/58 59/59/59
f 60/60/60 57/57/57 59/59/59
f 49/49/49 57/57/57 60/60/60
f 51/51/51 49/49/49 60/60/60
f 55/55/55 56/56/56 61/61/61
f 58/58/58 55/55/55 61/61/61
f 56/56/56 62/62/62 61/61/61
f 61/61/61 62/62/62 63/63/63
f 62/62/62 64/64/64 63/63/63
f 63/63/63 64/64/64 65/65/65
f 64/64/64 66/66/66 65/65/65
f 61/61/61 63/63/63 67/67/67
f 67/67/67 63/63/63 65/65/65
f 68/68/68 61/61/61 67/67/67
f 68/68/68 58/58/58 61/61/61
f 68/68/68 67/67/67 69/69/69
f 70/70/70 68/68/68 69/69/69
f 58/58/58 68/68/68 70/70/70
f 59/59/59 58/58/58 70/70/70
f 69/69/69 67/67/67 71/71/71
f 67/67/67 72/72/72 71/71/71
f 72/72/72 67/67/67 65/65/65
f 65/65/65 66/66/66 73/73/73
f 72/72/72 65/65/65 73/73/73
f 66/66/66 74/74/74 73/73/73
f 75/75/75 73/73/73 74/74/74
f 76/76/76 75/75/75 74/74/74
f 75/75/75 77/77/77 73/73/73
f 77/77/77 78/78/78 73/73/73
f 78/78/78 72/72/72 73/73/73
f 77/77/77 79/79/79 78/78/78
f 79/79/79 80/80/80 78/78/78
f 72/72/72 78/78/78 80/80/80
f 71/71/71 72/72/72 80/80/80
f 81/81/81 75/75/75 76/76/76
f 75/75/75 81/81/81 77/77/77
f 82/82/82 81/81/81 76/76/76
f 83/83/83 81/81/81 82/82/82
f 84/84/84 83/83/83 82/82/82
f 83/83/83 85/85/85 81/81/81
f 85/85/85 86/86/86 81/81/81
f 81/81/81 86/86/86 77/77/77
f 77/77/77 86/86/86 79/79/79
f 85/85/85 87/87/87 86/86/86
f 87/87/87 88/88/88 86/86/86
f 86/86/86 88/88/88 79/79/79
f 89/89/89 83/83/83 84/84/84
f 83/83/83 89/89/89 85/85/85
f 90/90/90 89/89/89 84/84/84
f 91/91/91 89/89/89 90/90/90
f 92/92/92 91/91/91 90/90/90
f 91/91/91 93/93/93 89/89/89
f 93/93/93 94/94/94 89/89/89
f 89/89/89 94/94/94 85/85/85
f 85/85/85 94/94/94 87/87/87
f 93/93/93 95/95/95 94/94/94
f 95/95/95 96/96/96 94/94/94
f 94/94/94 96/96/96 87/87/87
f 97/97/97 91/91/91 92/92/92
f 91/91/91 97/97/97 93/93/93
f 98/98/98 97/97/97 92/92/92
f 99/99/99 97/97/97 98/98/98
f 100/100/100 99/99/99 98/98/98
f 101/101/101 99/99/99 100/100/100
f 102/102/102 101/101/101 100/100/100
f 103/103/103 101/101/101 102/102/102
f 104/104/104 103/103/103 102/102/102
f 105/105/105 103/103/103 104/104/104
f 106/106/106 105/105/105 104/104/104
f 105/105/105 106/106/106 107/107/107
f 106/106/106 108/108/108 107/107/107
f 107/107/107 108/108/108 109/109/109
f 110/110/110 107/107/107 109/109/109
f 99/99/99 111/111/111 97/97/97
f 111/111/111 112/112/112 97/97/97
f 111/111/111 113/113/113 112/112/112
f 114/114/114 113/113/113 111/111/111
f 115/115/115 114/114/114 111/111/111
f 116/116/116 114/114/114 115/115/115
f 117/117/117 116/116/116 115/115/115
f 118/118/118 116/116/116 117/117/117
f 119/119/119 118/118/118 117/117/117
f 119/119/119 105/105/105 107/107/107
f 118/118/118 119/119/119 120/120/120
f 119/119/119 121/121/121 120/120/120
f 121/121/121 119/119/119 107/107/107
f 121/121/121 107/107/107 110/110/110
f 120/120/120 121/121/121 122/122/122
f 122/122/122 121/121/121 110/110/110
f 123/123/123 120/120/120 122/122/122
f 113/113/113 124/124/124 112/112/112
f 115/115/115 111/111/111 99/99/99
f 101/101/101 115/115/115 99/99/99
f 117/117/117 115/115/115 101/101/101
f 103/103/103 117/117/117 101/101/101
f 119/119/119 117/117/117 103/103/103
f 105/105/105 119/119/119 103/103/103
f 123/123/123 122/122/122 125/125/125
f 125/125/125 122/122/122 126/126/126
f 122/122/122 110/110/110 126/126/126
f 126/126/126 110/110/110 127/127/127
f 110/110/110 109/109/109 127/127/127
f 128/128/128 123/123/123 125/125/125
f 112/112/112 124/124/124 95/95/95
f 93/93/93 112/112/112 95/95/95
f 97/97/97 112/112/112 93/93/93
f 130/130/130 18/18/18 129/129/129
f 131/131/131 130/130/130 129/129/129
f 131/131/131 129/129/129 132/132/132
f 129/129/129 11/11/11 132/132/132
f 11/11/11 129/129/129 18/18/18
f 18/18/18 130/130/130 17/17/17
f 130/130/130 131/131/131 14/14/14
f 17/17/17 130/130/130 14/14/14
f 131/131/131 132/132/132 13/13/13
f 14/14/14 131/131/131 13/13/13
f 13/13/13 132/132/132 11/11/11
f 34/34/34 36/36/36 9/9/9
f 10/10/10 34/34/34 9/9/9
