g throw_arrow
v -0.3571557 2.057218 0.008093528
v -0.3557469 2.056857 0.007933814
v -0.3771407 1.901006 0.007606773
v -0.3784394 1.901296 0.007759904
v -0.3168748 2.296949 0.008739755
v -0.3156721 2.295465 0.008567289
v -0.2811628 2.438407 0.009334484
v -0.2798501 2.436705 0.009150282
v -0.2397866 2.515787 0.01008782
v -0.2385715 2.513936 0.009888746
v -0.2147246 2.539072 0.01067585
v -0.2137781 2.537466 0.01046518
v -0.1624372 2.549342 0.01104233
v -0.1617291 2.547654 0.01082442
v -0.103324 2.557647 0.01119519
v -0.1034033 2.555926 0.01097427
v -0.3777735 1.899393 0.00763504
v -0.5312734 1.938376 0.008561272
v -0.5261617 1.934973 0.008519334
v -0.3562002 1.686175 -6.761793E-05
v -0.3571771 1.683372 -6.215575E-17
v -0.1065797 1.841994 -0.008561272
v -0.1098711 1.841248 -0.008828391
v -0.2414161 1.868406 -0.007768326
v -0.2392685 1.869467 -0.007759904
v -0.2416904 1.870046 -0.007494907
v -0.210431 2.019906 -0.008093528
v -0.2126893 2.020456 -0.007817138
v -0.1776139 2.17752 -0.008441296
v -0.1756567 2.175988 -0.008739755
v -0.1458856 2.296242 -0.009015716
v -0.143935 2.294489 -0.009334484
v -0.1321817 2.336972 -0.009743322
v -0.1302251 2.334695 -0.01008782
v -0.119702 2.365787 -0.01031128
v -0.1178287 2.363524 -0.01067585
v -0.1070001 2.387114 -0.01066524
v -0.1061314 2.384602 -0.01104233
v -0.1032189 2.384676 -0.01081288
v -0.1033485 2.381715 -0.01119519
v -0.09926341 2.382126 -0.01096733
v -0.1004374 2.378695 -0.0113551
v -0.09313776 2.373897 -0.01108099
v -0.09508283 2.370415 -0.01147278
v -0.03982899 2.555832 0.01113102
v 0.006333447 2.549515 0.01124638
v 0.007735642 2.551091 0.01147278
v -0.03892609 2.557588 0.0113551
v -0.08815769 2.367208 -0.01117339
v -0.09072968 2.363684 -0.01156845
v -0.07597016 2.336055 -0.01124353
v -0.07876393 2.33253 -0.01164107
v -0.06326231 2.286849 -0.01116568
v -0.0663555 2.283684 -0.01156047
v -0.04546484 2.183568 -0.01103903
v -0.04871368 2.18146 -0.01142934
v -0.03745337 2.046912 -0.01099059
v -0.04093435 2.046139 -0.01137919
v -0.03506997 1.876562 -0.01158469
v -0.03888669 1.876162 -0.01199429
v -0.040255 1.676437 -0.01226988
v -0.04435932 1.676294 -0.0127037
v -0.05178588 1.458404 -0.01298225
v -0.0561434 1.458438 -0.01344127
v -0.06863872 1.233508 -0.0147229
v -0.0735826 1.233697 -0.01524346
v -0.08523415 1.005214 -0.01549116
v -0.08975759 1.005484 -0.015973
v -0.1139084 0.7773431 -0.01719057
v -0.119151 0.777752 -0.01775244
v -0.149608 0.5505562 -0.01828376
v -0.1557309 0.5511213 -0.01893022
v -0.1867662 0.3227349 -0.01995193
v -0.1934401 0.3234368 -0.02065737
v -0.2278789 0.09229135 -0.02224695
v -0.2353186 0.09313843 -0.02303354
v -0.2718508 -0.1477187 -0.02361474
v -0.2796651 -0.1467737 -0.02444969
v -0.3219953 -0.3849044 -0.02592472
v -0.3304833 -0.3837067 -0.02684135
v -0.371928 -0.6188546 -0.02821699
v -0.3811472 -0.6172009 -0.02921465
v -0.4310343 -0.8600214 -0.03120344
v -0.4412518 -0.8578768 -0.0323067
v -0.4989939 -1.112903 -0.03461064
v -0.5103827 -1.110423 -0.03583437
v -0.5779575 -1.36967 -0.03815537
v -0.5904239 -1.366861 -0.03950442
v -0.6777084 -1.653298 -0.04154529
v -0.6911174 -1.650123 -0.04301421
v -0.8136504 -1.982233 -0.04349778
v -0.8280353 -1.978577 -0.04503573
v -1.019955 -2.347799 -0.05620045
v -1.001818 -2.35257 -0.05428123
v 0.2186683 -0.7132213 0.02863814
v 0.2276365 -0.4532 0.02631167
v 0.2248982 -0.7141964 0.02921465
v 0.2336246 -0.453892 0.02684135
v 0.2060741 -0.9827022 0.0323067
v 0.199164 -0.9813781 0.03166917
v 0.197468 -1.25569 0.03583437
v 0.189965 -1.254375 0.03512723
v 0.178661 -1.531328 0.03950442
v 0.1701823 -1.529706 0.03872485
v 0.1556289 -1.837164 0.04301421
v 0.14626 -1.835307 0.04216538
v 0.1218818 -2.193051 0.04503573
v 0.1115467 -2.190761 0.04414701
v 0.06815749 -2.641593 0.05509141
v 0.07936825 -2.644695 0.05620045
v 0.2274539 -0.2015731 0.0239672
v 0.2327985 -0.2021192 0.02444969
v 0.2341883 0.04161183 0.022579
v 0.2391372 0.04102195 0.02303354
v 0.2348302 0.2851516 0.02024973
v 0.2392354 0.2848467 0.02065737
v 0.2338313 0.5181683 0.01855665
v 0.2376635 0.5178341 0.01893022
v 0.2362452 0.7521517 0.01742901
v 0.239603 0.7519162 0.01775244
v 0.2309524 0.9877255 0.01569636
v 0.2338637 0.9875703 0.015973
v 0.2330472 1.222785 0.01494265
v 0.2359803 1.222677 0.01524346
v 0.2251889 1.456439 0.01317602
v 0.2277756 1.456419 0.01344127
v 0.2178285 1.684544 0.01245301
v 0.2205681 1.684626 0.0127037
v 0.2007001 1.899307 0.0117576
v 0.2030925 1.899538 0.01199429
v 0.1772249 2.091272 0.01115463
v 0.1793008 2.091733 0.01137919
v 0.1433682 2.306692 0.01120379
v 0.1451812 2.307803 0.01142934
v 0.1089906 2.449708 0.01133234
v 0.1107194 2.450869 0.01156047
v 0.06827857 2.519102 0.01141135
v 0.06949738 2.520896 0.01164107
v 0.04598743 2.538581 0.01134016
v 0.04766077 2.540251 0.01156845
v -1.009806 -2.366267 -0.05472106
v -1.028082 -2.361388 -0.05665582
v 0.06952995 -2.661856 0.0555378
v 0.08085053 -2.665029 0.05665582
v -0.3316996 1.794611 -1.863842E-16
v -0.2104689 1.820128 -0.004610287
v -0.3457009 1.735201 1.449944E-05
v -0.4389827 1.871898 0.004602385
vt 0.8679336 0.0008160258
vt 0.8678464 0.2474864
vt 0.8752476 0.2474864
vt 0.881295 0.0008160258
vt 0.8401403 0.0008160258
vt 0.8399401 0.2474864
vt 0.8131621 0.0008160258
vt 0.8128583 0.2474864
vt 0.7873521 0.0008160258
vt 0.7869606 0.2474864
vt 0.7583345 0.0008160258
vt 0.7578753 0.2474864
vt 0.7313479 0.0008160258
vt 0.7308505 0.2474864
vt 0.713825 0.0008160258
vt 0.7133131 0.2474864
vt 0.9143077 0.227128
vt 0.9988081 0.0008160258
vt 0.9944453 0.01592508
vt 0.9949454 0.2657175
vt 0.9989383 0.250816
vt 1.001192 1.000816
vt 0.9980488 0.9902864
vt 0.9137964 0.7571385
vt 0.8812951 1.000816
vt 0.8749533 0.7421072
vt 0.8679337 1.000816
vt 0.8678421 0.7421072
vt 0.8399302 0.7421072
vt 0.8401404 1.000816
vt 0.8128436 0.7421072
vt 0.8131621 1.000816
vt 0.7869415 0.7421072
vt 0.7873521 1.000816
vt 0.7578528 0.7421072
vt 0.7583346 1.000816
vt 0.7308262 0.7421072
vt 0.7313479 1.000816
vt 0.7132881 0.7421072
vt 0.7138251 1.000816
vt 0.694321 0.7421072
vt 0.6948724 1.000816
vt 0.6729736 0.7421072
vt 0.6735081 1.000816
vt 0.6943467 0.2474864
vt 0.6729984 0.2474864
vt 0.673508 0.0008160258
vt 0.6948723 0.0008160258
vt 0.6564464 0.7421072
vt 0.6569799 1.000816
vt 0.6303063 0.7421072
vt 0.6308115 1.000816
vt 0.6098726 0.7421072
vt 0.6105698 1.000816
vt 0.5824999 0.7421072
vt 0.5834346 1.000816
vt 0.5540576 0.7421072
vt 0.5546146 1.000816
vt 0.526257 0.7421072
vt 0.5267171 1.000816
vt 0.4989748 0.7421072
vt 0.499246 1.000816
vt 0.4649652 0.7421072
vt 0.4650525 1.000816
vt 0.4342455 0.7421072
vt 0.4342694 1.000816
vt 0.4035153 0.7421072
vt 0.4035323 1.000816
vt 0.373248 0.7421072
vt 0.3732758 1.000816
vt 0.3438619 0.7421072
vt 0.3439184 1.000816
vt 0.315013 0.7421072
vt 0.3151163 1.000816
vt 0.2873769 0.7421072
vt 0.2874916 1.000816
vt 0.258809 0.7421072
vt 0.2589142 1.000816
vt 0.2322431 0.7421072
vt 0.2323407 1.000816
vt 0.2083853 0.7421072
vt 0.2084788 1.000816
vt 0.1834356 0.7421072
vt 0.1835189 1.000816
vt 0.1519029 0.7421072
vt 0.1519684 1.000816
vt 0.1238414 0.7421072
vt 0.123896 1.000816
vt 0.09608972 0.7421072
vt 0.0961292 1.000816
vt 0.0718421 0.7421072
vt 0.07186966 1.000816
vt 0.04591113 1.000816
vt 0.04590692 0.7421072
vt 0.2083896 0.2474864
vt 0.232247 0.2474864
vt 0.2084787 0.0008160258
vt 0.2323406 0.0008160258
vt 0.1835189 0.0008160258
vt 0.1834394 0.2474864
vt 0.1519683 0.0008160258
vt 0.1519058 0.2474864
vt 0.1238959 0.0008160258
vt 0.1238439 0.2474864
vt 0.09612914 0.0008160258
vt 0.09609153 0.2474864
vt 0.0718696 0.0008160258
vt 0.07184335 0.2474864
vt 0.04590711 0.2474864
vt 0.04591107 0.000816051
vt 0.2588136 0.2474864
vt 0.2589142 0.0008160258
vt 0.2873823 0.2474864
vt 0.2874915 0.0008160258
vt 0.3150179 0.2474864
vt 0.3151163 0.0008160258
vt 0.3438645 0.2474864
vt 0.3439183 0.0008160258
vt 0.3732495 0.2474864
vt 0.3732757 0.0008160258
vt 0.4035158 0.2474864
vt 0.4035322 0.0008160258
vt 0.4342462 0.2474864
vt 0.4342693 0.0008160258
vt 0.4649692 0.2474864
vt 0.4650525 0.0008160258
vt 0.4989869 0.2474864
vt 0.4992459 0.0008160258
vt 0.5262782 0.2474864
vt 0.526717 0.0008160258
vt 0.5540832 0.2474864
vt 0.5546145 0.0008160258
vt 0.5825437 0.2474864
vt 0.5834346 0.0008160258
vt 0.6099052 0.2474864
vt 0.6105697 0.0008160258
vt 0.6303298 0.2474864
vt 0.6308115 0.0008160258
vt 0.6564711 0.2474864
vt 0.6569798 0.0008160258
vt 9.313226E-10 0.7421072
vt 3.073364E-08 1.000816
vt 9.313226E-10 0.2474864
vt -2.8871E-08 0.0008160556
vt 0.9231972 0.500816
vt 0.932315 0.7700685
vt 0.9321804 0.4999613
vt 0.9320458 0.232025
vn 0.1110855 -0.01990297 0.9936116
vn 0.1053658 -0.01898219 0.9942524
vn 0.1058178 -0.01814674 0.9942199
vn 0.03879242 -0.02815976 0.9988504
vn 0.1058961 -0.02694726 0.9940121
vn 0.1039235 -0.02396012 0.9942967
vn 0.08783899 -0.04333248 0.9951918
vn 0.09989519 -0.03585433 0.9943517
vn 0.06931559 -0.06411738 0.9955322
vn 0.09288 -0.05402321 0.9942107
vn 0.03374423 -0.1042985 0.9939734
vn 0.0685354 -0.08495536 0.9940249
vn 0.01601424 -0.1226132 0.9923254
vn 0.03494257 -0.1132827 0.9929481
vn 0.005207667 -0.1256516 0.9920607
vn 0.002713115 -0.1262632 0.9919931
vn 0.03766705 -0.04295228 0.9983668
vn 0.01068643 -0.02631647 0.9995965
vn 0.01781855 -0.02833011 0.9994398
vn 0.03281207 -0.00327815 0.9994561
vn -0.001176623 0.01975663 0.9998041
vn -0.03104156 0.03925093 0.9987471
vn 0.01683618 0.02461949 0.9995551
vn 0.0549756 0.01798851 0.9983256
vn 0.0528087 -0.05959265 0.996825
vn 0.1058175 -0.01834103 0.9942164
vn 0.1168511 -0.02125129 0.9929221
vn 0.1055086 -0.01889928 0.9942388
vn 0.104659 -0.02195144 0.9942659
vn 0.1259841 -0.02562232 0.9917013
vn 0.1020332 -0.03068793 0.9943076
vn 0.1324305 -0.02993682 0.9907401
vn 0.09578144 -0.04836201 0.9942268
vn 0.1379189 -0.03183409 0.9899318
vn 0.07670557 -0.07734645 0.9940492
vn 0.140067 -0.04771786 0.9889915
vn 0.03271233 -0.1147227 0.9928588
vn 0.1173737 -0.07955175 0.9898964
vn -9.352846E-05 -0.1259718 0.9920338
vn -0.04961895 -0.1171418 0.9918749
vn -0.02056331 -0.117488 0.9928614
vn -0.07894263 -0.07942847 0.9937098
vn -0.03700964 -0.1052838 0.9937533
vn -0.0774558 -0.06780473 0.9946874
vn -0.01926778 -0.1181663 0.9928069
vn -0.03623698 -0.1060129 0.9937043
vn -0.02777058 -0.1128329 0.9932258
vn -0.0120321 -0.1231982 0.9923092
vn -0.07196435 -0.07212707 0.9947959
vn -0.09261896 -0.04238601 0.994799
vn -0.0935786 -0.04559426 0.9945673
vn -0.1027222 -0.02865783 0.9942972
vn -0.1033243 -0.02662257 0.9942914
vn -0.1078642 -0.01895198 0.993985
vn -0.1046576 -0.0151625 0.9943927
vn -0.1111835 -0.009644164 0.9937531
vn -0.1015799 -0.009275555 0.9947841
vn -0.1095999 -0.005396931 0.9939611
vn -0.09795852 -0.004518369 0.9951802
vn -0.1066926 -0.002389603 0.9942892
vn -0.09571332 -0.0006826498 0.9954087
vn -0.1053445 0.001011831 0.9944353
vn -0.09553137 0.001465699 0.9954253
vn -0.1048345 0.001120594 0.9944891
vn -0.09708893 0.002977672 0.9952713
vn -0.1049157 0.002299738 0.9944785
vn -0.09800963 0.004508871 0.9951753
vn -0.1054885 0.005124357 0.9944073
vn -0.097187 0.006696556 0.9952436
vn -0.1052234 0.009147047 0.9944065
vn -0.09552852 0.007778541 0.9953963
vn -0.1043795 0.01059729 0.9944811
vn -0.09494095 0.008028497 0.9954506
vn -0.1041479 0.009140154 0.9945198
vn -0.09490005 0.009305063 0.9954433
vn -0.1041601 0.01128309 0.9944965
vn -0.09421702 0.00983487 0.9955031
vn -0.104707 0.01293389 0.994419
vn -0.09380621 0.01055172 0.9955346
vn -0.1053261 0.01266263 0.9943571
vn -0.09455275 0.01316283 0.9954328
vn -0.1051241 0.01311548 0.9943726
vn -0.09632475 0.01452646 0.995244
vn -0.1043773 0.01404547 0.9944386
vn -0.09756012 0.01648825 0.995093
vn -0.1035868 0.01647075 0.994484
vn -0.09748606 0.0195695 0.9950445
vn -0.1029366 0.02160376 0.9944533
vn -0.0943417 0.02218326 0.9952927
vn -0.1004587 0.03073273 0.9944664
vn -0.0921047 0.02505386 0.9954341
vn -0.09966224 0.0267589 0.9946615
vn -0.09998012 0.02210551 0.9947438
vn -0.09221191 0.025613 0.9954099
vn -0.09434891 0.01322615 0.9954513
vn -0.09357316 0.01053195 0.9955567
vn -0.08874813 0.01520878 0.9959379
vn -0.08828316 0.01077096 0.9960372
vn -0.08954998 0.01655407 0.9958448
vn -0.09617774 0.01454866 0.9952579
vn -0.08948798 0.01778298 0.9958291
vn -0.0973873 0.01659174 0.9951082
vn -0.08806266 0.01858054 0.9959416
vn -0.09729274 0.01955449 0.9950637
vn -0.08592202 0.01548991 0.9961814
vn -0.09417387 0.02198522 0.995313
vn -0.08450888 0.02533932 0.9961005
vn -0.09193032 0.02492529 0.9954534
vn -0.09195684 0.02576583 0.9954296
vn -0.08480521 0.03142947 0.9959018
vn -0.09400091 0.009774595 0.9955241
vn -0.08875021 0.008738012 0.9960156
vn -0.09470424 0.009285894 0.9954621
vn -0.09024227 0.008861842 0.9958804
vn -0.09477288 0.008016887 0.9954666
vn -0.09217031 0.008466011 0.9957072
vn -0.09538309 0.007718233 0.9954107
vn -0.09483106 0.006351603 0.9954731
vn -0.09704833 0.006662878 0.9952574
vn -0.09555766 0.005530764 0.9954085
vn -0.09789129 0.004507982 0.9951869
vn -0.09643714 0.004650678 0.9953282
vn -0.09700404 0.003006456 0.9952794
vn -0.09991253 0.004053394 0.994988
vn -0.0954189 0.001470807 0.9954361
vn -0.09932268 0.002211533 0.9950528
vn -0.09559385 -0.0007719307 0.9954201
vn -0.09541621 -0.00197371 0.9954355
vn -0.097904 -0.004694605 0.9951848
vn -0.09734379 -0.00651951 0.9952294
vn -0.1018486 -0.009751121 0.9947521
vn -0.1048713 -0.01352013 0.9943939
vn -0.10496 -0.01777141 0.9943177
vn -0.108933 -0.02239565 0.9937968
vn -0.1005766 -0.03224069 0.9944068
vn -0.1040607 -0.04035359 0.993752
vn -0.09170123 -0.04924202 0.9945683
vn -0.08589529 -0.0640348 0.9942442
vn -0.06908733 -0.07486028 0.9947979
vn -0.05249212 -0.08952448 0.9946004
vn -0.09656735 0.01913242 0.9951426
vn -0.098519 0.02554839 0.9948071
vn -0.09648288 0.01893544 0.9951546
vn -0.09407854 0.01549557 0.9954442
vn 0.03684866 -0.01081797 0.9992623
vn 0.03742824 0.01280057 0.9992173
vn 0.03596828 -0.01023156 0.9993005
vn 0.022829 -0.02907775 0.9993165
g throw_arrow_0
f 3/3/3 2/2/2 1/1/1
f 4/4/4 3/3/3 1/1/1
f 1/1/1 2/2/2 5/5/5
f 2/2/2 6/6/6 5/5/5
f 5/5/5 6/6/6 7/7/7
f 6/6/6 8/8/8 7/7/7
f 7/7/7 8/8/8 9/9/9
f 8/8/8 10/10/10 9/9/9
f 9/9/9 10/10/10 11/11/11
f 10/10/10 12/12/12 11/11/11
f 11/11/11 12/12/12 13/13/13
f 12/12/12 14/14/14 13/13/13
f 13/13/13 14/14/14 15/15/15
f 14/14/14 16/16/16 15/15/15
f 17/17/17 3/3/3 4/4/4
f 17/17/17 4/4/4 18/18/18
f 19/19/19 17/17/17 18/18/18
f 20/20/20 19/19/19 18/18/18
f 21/21/21 20/20/20 18/18/18
f 20/20/20 21/21/21 22/22/22
f 23/23/23 20/20/20 22/22/22
f 24/24/24 23/23/23 22/22/22
f 25/25/25 24/24/24 22/22/22
f 24/24/24 25/25/25 26/26/26
f 17/17/17 24/24/24 26/26/26
f 25/25/25 27/27/27 26/26/26
f 27/27/27 28/28/28 26/26/26
f 28/28/28 27/27/27 29/29/29
f 27/27/27 30/30/30 29/29/29
f 29/29/29 30/30/30 31/31/31
f 30/30/30 32/32/32 31/31/31
f 31/31/31 32/32/32 33/33/33
f 32/32/32 34/34/34 33/33/33
f 33/33/33 34/34/34 35/35/35
f 34/34/34 36/36/36 35/35/35
f 35/35/35 36/36/36 37/37/37
f 36/36/36 38/38/38 37/37/37
f 37/37/37 38/38/38 39/39/39
f 38/38/38 40/40/40 39/39/39
f 3/3/3 26/26/26 28/28/28
f 2/2/2 3/3/3 28/28/28
f 2/2/2 28/28/28 29/29/29
f 6/6/6 2/2/2 29/29/29
f 29/29/29 31/31/31 8/8/8
f 6/6/6 29/29/29 8/8/8
f 8/8/8 31/31/31 33/33/33
f 10/10/10 8/8/8 33/33/33
f 33/33/33 35/35/35 12/12/12
f 10/10/10 33/33/33 12/12/12
f 12/12/12 35/35/35 37/37/37
f 14/14/14 12/12/12 37/37/37
f 37/37/37 39/39/39 16/16/16
f 14/14/14 37/37/37 16/16/16
f 39/39/39 40/40/40 41/41/41
f 40/40/40 42/42/42 41/41/41
f 41/41/41 42/42/42 43/43/43
f 42/42/42 44/44/44 43/43/43
f 45/45/45 41/41/41 43/43/43
f 39/39/39 41/41/41 45/45/45
f 16/16/16 39/39/39 45/45/45
f 46/46/46 45/45/45 43/43/43
f 45/45/45 46/46/46 47/47/47
f 48/48/48 45/45/45 47/47/47
f 16/16/16 45/45/45 48/48/48
f 15/15/15 16/16/16 48/48/48
f 43/43/43 44/44/44 49/49/49
f 46/46/46 43/43/43 49/49/49
f 44/44/44 50/50/50 49/49/49
f 49/49/49 50/50/50 51/51/51
f 50/50/50 52/52/52 51/51/51
f 51/51/51 52/52/52 53/53/53
f 52/52/52 54/54/54 53/53/53
f 53/53/53 54/54/54 55/55/55
f 54/54/54 56/56/56 55/55/55
f 55/55/55 56/56/56 57/57/57
f 56/56/56 58/58/58 57/57/57
f 57/57/57 58/58/58 59/59/59
f 58/58/58 60/60/60 59/59/59
f 59/59/59 60/60/60 61/61/61
f 60/60/60 62/62/62 61/61/61
f 61/61/61 62/62/62 63/63/63
f 62/62/62 64/64/64 63/63/63
f 63/63/63 64/64/64 65/65/65
f 64/64/64 66/66/66 65/65/65
f 65/65/65 66/66/66 67/67/67
f 66/66/66 68/68/68 67/67/67
f 67/67/67 68/68/68 69/69/69
f 68/68/68 70/70/70 69/69/69
f 69/69/69 70/70/70 71/71/71
f 70/70/70 72/72/72 71/71/71
f 71/71/71 72/72/72 73/73/73
f 72/72/72 74/74/74 73/73/73
f 73/73/73 74/74/74 75/75/75
f 74/74/74 76/76/76 75/75/75
f 75/75/75 76/76/76 77/77/77
f 76/76/76 78/78/78 77/77/77
f 77/77/77 78/78/78 79/79/79
f 78/78/78 80/80/80 79/79/79
f 79/79/79 80/80/80 81/81/81
f 80/80/80 82/82/82 81/81/81
f 81/81/81 82/82/82 83/83/83
f 82/82/82 84/84/84 83/83/83
f 83/83/83 84/84/84 85/85/85
f 84/84/84 86/86/86 85/85/85
f 85/85/85 86/86/86 87/87/87
f 86/86/86 88/88/88 87/87/87
f 87/87/87 88/88/88 89/89/89
f 88/88/88 90/90/90 89/89/89
f 89/89/89 90/90/90 91/91/91
f 90/90/90 92/92/92 91/91/91
f 91/91/91 92/92/92 93/93/93
f 94/94/94 91/91/91 93/93/93
f 79/79/79 81/81/81 95/95/95
f 95/95/95 81/81/81 83/83/83
f 96/96/96 79/79/79 95/95/95
f 96/96/96 95/95/95 97/97/97
f 98/98/98 96/96/96 97/97/97
f 97/97/97 95/95/95 99/99/99
f 95/95/95 100/100/100 99/99/99
f 99/99/99 100/100/100 101/101/101
f 100/100/100 102/102/102 101/101/101
f 101/101/101 102/102/102 103/103/103
f 102/102/102 104/104/104 103/103/103
f 103/103/103 104/104/104 105/105/105
f 104/104/104 106/106/106 105/105/105
f 105/105/105 106/106/106 107/107/107
f 106/106/106 108/108/108 107/107/107
f 107/107/107 108/108/108 109/109/109
f 110/110/110 107/107/107 109/109/109
f 111/111/111 96/96/96 98/98/98
f 112/112/112 111/111/111 98/98/98
f 113/113/113 111/111/111 112/112/112
f 114/114/114 113/113/113 112/112/112
f 115/115/115 113/113/113 114/114/114
f 116/116/116 115/115/115 114/114/114
f 117/117/117 115/115/115 116/116/116
f 118/118/118 117/117/117 116/116/116
f 119/119/119 117/117/117 118/118/118
f 120/120/120 119/119/119 118/118/118
f 121/121/121 119/119/119 120/120/120
f 122/122/122 121/121/121 120/120/120
f 123/123/123 121/121/121 122/122/122
f 124/124/124 123/123/123 122/122/122
f 125/125/125 123/123/123 124/124/124
f 126/126/126 125/125/125 124/124/124
f 127/127/127 125/125/125 126/126/126
f 128/128/128 127/127/127 126/126/126
f 129/129/129 127/127/127 128/128/128
f 130/130/130 129/129/129 128/128/128
f 131/131/131 129/129/129 130/130/130
f 132/132/132 131/131/131 130/130/130
f 133/133/133 131/131/131 132/132/132
f 134/134/134 133/133/133 132/132/132
f 135/135/135 133/133/133 134/134/134
f 136/136/136 135/135/135 134/134/134
f 137/137/137 135/135/135 136/136/136
f 138/138/138 137/137/137 136/136/136
f 139/139/139 137/137/137 138/138/138
f 140/140/140 139/139/139 138/138/138
f 139/139/139 49/49/49 137/137/137
f 49/49/49 51/51/51 137/137/137
f 137/137/137 51/51/51 53/53/53
f 135/135/135 137/137/137 53/53/53
f 135/135/135 53/53/53 133/133/133
f 53/53/53 55/55/55 133/133/133
f 133/133/133 55/55/55 57/57/57
f 131/131/131 133/133/133 57/57/57
f 131/131/131 57/57/57 129/129/129
f 57/57/57 59/59/59 129/129/129
f 129/129/129 59/59/59 61/61/61
f 127/127/127 129/129/129 61/61/61
f 127/127/127 61/61/61 63/63/63
f 125/125/125 127/127/127 63/63/63
f 125/125/125 63/63/63 123/123/123
f 63/63/63 65/65/65 123/123/123
f 123/123/123 65/65/65 67/67/67
f 121/121/121 123/123/123 67/67/67
f 121/121/121 67/67/67 119/119/119
f 67/67/67 69/69/69 119/119/119
f 119/119/119 69/69/69 71/71/71
f 117/117/117 119/119/119 71/71/71
f 117/117/117 71/71/71 115/115/115
f 71/71/71 73/73/73 115/115/115
f 115/115/115 73/73/73 75/75/75
f 113/113/113 115/115/115 75/75/75
f 113/113/113 75/75/75 111/111/111
f 75/75/75 77/77/77 111/111/111
f 111/111/111 77/77/77 79/79/79
f 96/96/96 111/111/111 79/79/79
f 100/100/100 95/95/95 83/83/83
f 100/100/100 83/83/83 102/102/102
f 83/83/83 85/85/85 102/102/102
f 102/102/102 85/85/85 87/87/87
f 104/104/104 102/102/102 87/87/87
f 104/104/104 87/87/87 106/106/106
f 87/87/87 89/89/89 106/106/106
f 106/106/106 89/89/89 91/91/91
f 108/108/108 106/106/106 91/91/91
f 108/108/108 91/91/91 94/94/94
f 109/109/109 108/108/108 94/94/94
f 109/109/109 94/94/94 141/141/141
f 141/141/141 94/94/94 142/142/142
f 94/94/94 93/93/93 142/142/142
f 143/143/143 109/109/109 141/141/141
f 110/110/110 109/109/109 143/143/143
f 144/144/144 110/110/110 143/143/143
f 146/146/146 24/24/24 145/145/145
f 147/147/147 146/146/146 145/145/145
f 147/147/147 145/145/145 148/148/148
f 145/145/145 17/17/17 148/148/148
f 17/17/17 145/145/145 24/24/24
f 24/24/24 146/146/146 23/23/23
f 146/146/146 147/147/147 20/20/20
f 23/23/23 146/146/146 20/20/20
f 147/147/147 148/148/148 19/19/19
f 20/20/20 147/147/147 19/19/19
f 19/19/19 148/148/148 17/17/17
f 3/3/3 17/17/17 26/26/26
f 139/139/139 46/46/46 49/49/49
f 46/46/46 139/139/139 140/140/140
f 47/47/47 46/46/46 140/140/140
