g TradeFXLine_withJump
v 0.10306564 0.52312416 3.6023984
v 0.042783625 0.52312416 3.64816
v -0.042783625 0.52312416 3.64816
v -0.10306564 0.52312416 3.6023984
v 0.12555 0.52312416 3.5254302
v -0.12555 0.52312416 3.5254302
v 0.12555008 0.52312416 3.4152007
v -0.12554993 0.52312416 3.411948
v 0.12555008 0.52312416 3.304974
v -0.12554993 0.52312416 3.2984684
v 0.12555008 0.52312416 3.1947474
v -0.12554993 0.52312416 3.184989
v 0.12555008 0.52312416 3.084521
v -0.12554993 0.52312416 3.0715096
v 0.12555008 0.52312416 2.9742944
v -0.12554993 0.52312416 2.9580302
v 0.12555008 0.52312416 2.864068
v -0.12554993 0.52312416 2.844551
v 0.12555008 0.52312416 2.7538414
v -0.12554993 0.52312416 2.7310717
v 0.12555008 0.52312416 2.643615
v -0.12554993 0.52312416 2.6175923
v 0.12555008 0.52312416 2.5333884
v -0.12554993 0.52312416 2.5041132
v 0.12555008 0.52312416 2.4231622
v -0.12554993 0.52312416 2.3906338
v 0.12555008 0.52312416 2.3129356
v -0.12554993 0.52312416 2.2771544
v 0.12555008 0.52312416 2.2027092
v -0.12554993 0.52312416 2.1636748
v 0.12555008 0.52312416 2.0924826
v -0.12554993 0.52312416 2.0501955
v 0.12555008 0.52312416 1.9822562
v -0.12554993 0.52312416 1.9367161
v 0.12555008 0.52312416 1.8720295
v -0.12554993 0.52312416 1.8232367
v 0.12555008 0.52312416 1.7618032
v -0.12554993 0.52312416 1.7097572
v 0.12555008 0.52312416 1.6515766
v -0.12554993 0.52312416 1.5962778
v 0.12555008 0.52312416 1.5413502
v -0.12554993 0.52312416 1.4827986
v 0.12555008 0.52312416 1.4311237
v -0.12554993 0.52312416 1.3693191
v 0.12555008 0.52312416 1.3208972
v -0.12554993 0.52312416 1.2558397
v 0.12555008 0.52312416 1.2106707
v -0.12554993 0.52312416 1.1423604
v 0.12555008 0.52312416 1.1033036
v -0.11926162 0.52312416 1.029824
v 0.13042755 0.52312416 1.047666
v -0.09609207 0.52312416 0.92477214
v -0.03727142 0.52312416 0.84779066
v 0.14027222 0.52312416 1.0385342
v 0.053255003 0.52312416 0.8060739
v 0.18556595 0.52312416 1.0256248
v 0.16347519 0.52312416 0.7748731
v 0.26272032 0.52312416 1.0105987
v 0.26233262 0.52312416 0.7346217
v 0.38511366 0.52312416 0.9666079
v 0.3475467 0.52312416 0.6886191
v 0.50129396 0.52312416 0.9060781
v 0.42750868 0.52312416 0.630834
v 0.6100266 0.52312416 0.830045
v 0.50091743 0.52312416 0.5622551
v 0.709555 0.52312416 0.73980963
v 0.56629086 0.52312416 0.48405594
v 0.7982479 0.52312416 0.6369159
v 0.6221834 0.52312416 0.39757434
v 0.87420034 0.52312416 0.5231244
v 0.6672323 0.52312416 0.3042902
v 0.9355151 0.52312416 0.40038204
v 0.7002055 0.52312416 0.20579953
v 0.9804694 0.52312416 0.27078906
v 0.72047013 0.52312416 0.1037876
v 1.0090281 0.52312416 0.13656276
v 0.72729087 0.52312416 -1.7149348E-07
v 1.0186821 0.52312416 -1.7149348E-07
v 1.0090281 0.52312416 -0.13656333
v 0.72047013 0.52312416 -0.10378811
v 0.9804694 0.52312416 -0.27078983
v 0.7002055 0.52312416 -0.20580022
v 0.9355151 0.52312416 -0.40038303
v 0.6672323 0.52312416 -0.30429104
v 0.87420034 0.52312416 -0.5231256
v 0.6221834 0.52312416 -0.39757532
v 0.7982479 0.52312416 -0.6369173
v 0.56629086 0.52312416 -0.48405704
v 0.709555 0.52312416 -0.7398112
v 0.50091743 0.52312416 -0.56225634
v 0.6100266 0.52312416 -0.8300466
v 0.42750868 0.52312416 -0.6308353
v 0.50129396 0.52312416 -0.9060798
v 0.3475467 0.52312416 -0.6886205
v 0.38511366 0.52312416 -0.9666098
v 0.26233262 0.52312416 -0.73462325
v 0.26272032 0.52312416 -1.0106006
v 0.16347519 0.52312416 -0.7748746
v 0.18556595 0.52312416 -1.0256268
v 0.053255003 0.52312416 -0.8060755
v 0.14027222 0.52312416 -1.0385362
v -0.03727142 0.52312416 -0.8477923
v 0.13042755 0.52312416 -1.047668
v -0.09609207 0.52312416 -0.924774
v -0.11926162 0.52312416 -1.0298259
v 0.12555008 0.52312416 -1.1033057
v -0.11926162 0.52312416 -1.0298259
v -0.12554993 0.52312416 -1.1423626
v 0.12555008 0.52312416 -1.210673
v -0.12554993 0.52312416 -1.2558421
v 0.12555008 0.52312416 -1.3208996
v -0.12554993 0.52312416 -1.3693217
v 0.12555008 0.52312416 -1.4311264
v -0.12554993 0.52312416 -1.4828012
v 0.12555008 0.52312416 -1.5413531
v -0.12554993 0.52312416 -1.5962807
v 0.12555008 0.52312416 -1.6515797
v -0.12554993 0.52312416 -1.7097602
v 0.12555008 0.52312416 -1.7618061
v -0.12554993 0.52312416 -1.8232398
v 0.12555008 0.52312416 -1.8720329
v -0.12554993 0.52312416 -1.9367194
v 0.12555008 0.52312416 -1.9822596
v -0.12554993 0.52312416 -2.050199
v 0.12555008 0.52312416 -2.0924861
v -0.12554993 0.52312416 -2.1636786
v 0.12555008 0.52312416 -2.202713
v -0.12554993 0.52312416 -2.2771583
v 0.12555008 0.52312416 -2.3129396
v -0.12554993 0.52312416 -2.3906379
v 0.12555008 0.52312416 -2.4231663
v -0.12554993 0.52312416 -2.5041175
v 0.12555008 0.52312416 -2.533393
v -0.12554993 0.52312416 -2.617597
v 0.12555008 0.52312416 -2.6436195
v -0.12554993 0.52312416 -2.7310762
v 0.12555008 0.52312416 -2.7538462
v -0.12554993 0.52312416 -2.8445559
v 0.12555008 0.52312416 -2.8640728
v -0.12554993 0.52312416 -2.9580355
v 0.12555008 0.52312416 -2.9742997
v -0.12554993 0.52312416 -3.0715148
v 0.12555008 0.52312416 -3.0845263
v -0.12554993 0.52312416 -3.1849945
v 0.12555008 0.52312416 -3.194753
v -0.12554993 0.52312416 -3.2984738
v 0.12555008 0.52312416 -3.3049798
v -0.12554993 0.52312416 -3.4119537
v 0.12555008 0.52312416 -3.4152062
v -0.12554993 0.52312416 -3.525433
v 0.12555008 0.52312416 -3.525433
v 0.10306564 0.52312416 -3.6023984
v -0.10306564 0.52312416 -3.6023984
v 0.042783625 0.52312416 -3.64816
v -0.042783625 0.52312416 -3.64816
v -0.8884281 2.2545447 2.8971426
v -0.86439335 2.2768571 2.865256
v -0.741454 2.2690258 2.7883677
v -0.91141623 2.1306958 3.000103
v -0.6143914 2.228278 2.731984
v -0.9074095 1.9987676 3.0906763
v -0.45829746 2.0821676 2.7306168
v -0.8432846 1.8245744 3.1708205
v -0.7571992 1.667491 3.2241466
v -0.33711275 1.9087243 2.7719758
v -0.64733803 1.5243876 3.25165
v -0.25479954 1.716802 2.8524578
v -0.54474175 1.379496 3.285288
v -0.18246418 1.5278938 2.9374995
v -0.453934 1.2362344 3.3256772
v -0.11944911 1.3443048 3.0250294
v -0.37350467 1.0984806 3.369131
v -0.06358412 1.171165 3.109967
v -0.30347455 0.97011167 3.4129229
v -0.015998838 1.0136038 3.1894429
v -0.2446764 0.85500485 3.4548705
v 0.023329586 0.87675095 3.259816
v -0.19817287 0.75703764 3.4929445
v 0.054829136 0.7657359 3.3171728
v -0.091734715 0.6720848 3.518806
v -0.1609534 0.6719252 3.5281568
v -0.13006228 0.5953824 3.5615535
v 0.05454066 0.67390853 3.438856
v 0.08041093 0.6740996 3.3647988
v 0.10202572 0.5953823 3.405952
v 0.09566782 0.5953823 3.456576
v 0.12555005 0.52312416 3.4550588
v 0.12555 0.52312416 3.5254302
v 0.10306564 0.52312416 3.6023984
v 0.047735214 0.5953823 3.554894
v 0.042783625 0.52312416 3.64816
v -0.030028278 0.5953824 3.5852826
v -0.042783625 0.52312416 3.64816
v -0.098248966 0.5953824 3.574126
v -0.105644464 0.52312416 3.5935705
v -0.10306564 0.52312416 3.6023984
vt 0.005510628 16.939367
vt 0.005510628 17.158567
vt 0.99690735 17.158567
vt 0.99690735 16.939367
vt 0.005510628 16.71935
vt 0.99690735 16.71935
vt 0.005510628 16.493124
vt 0.9969075 16.493124
vt 0.005510628 16.266897
vt 0.9969076 16.2669
vt 0.005510628 16.040672
vt 0.9969077 16.040674
vt 0.005510628 15.814443
vt 0.99690783 15.814445
vt 0.005510628 15.588218
vt 0.99690795 15.58822
vt 0.005510628 15.361993
vt 0.99690807 15.361995
vt 0.005510628 15.135766
vt 0.9969081 15.135768
vt 0.005510628 14.909539
vt 0.99690825 14.909541
vt 0.005510628 14.683314
vt 0.99690837 14.683316
vt 0.005510628 14.4570875
vt 0.9969085 14.457091
vt 0.005510628 14.230861
vt 0.9969086 14.230865
vt 0.005510628 14.004636
vt 0.9969087 14.004638
vt 0.005510628 13.778409
vt 0.99690884 13.778413
vt 0.005510628 13.552182
vt 0.99690896 13.552186
vt 0.005510628 13.325957
vt 0.996909 13.325959
vt 0.005510628 13.099732
vt 0.99690914 13.099734
vt 0.005510628 12.873506
vt 0.99690926 12.8735075
vt 0.005510628 12.647279
vt 0.9969094 12.647283
vt 0.005510628 12.421054
vt 0.9969095 12.421056
vt 0.005510628 12.194827
vt 0.9969096 12.19483
vt 0.005510628 11.9686
vt 0.99690974 11.968604
vt 0.005510628 11.742375
vt 0.9969098 11.742377
vt 0.005510628 11.516149
vt 0.9969099 11.51615
vt 0.99691 11.289925
vt 0.005510628 11.289923
vt 0.99691 11.063699
vt 0.005510628 11.063696
vt 0.99691004 10.837472
vt 0.005510628 10.83747
vt 0.99691015 10.611246
vt 0.005510628 10.611244
vt 0.9969103 10.385019
vt 0.005510628 10.385018
vt 0.9969103 10.158794
vt 0.005510628 10.158794
vt 0.9969102 9.932567
vt 0.005510628 9.932567
vt 0.9969103 9.706341
vt 0.005510628 9.706341
vt 0.9969103 9.480115
vt 0.005510628 9.480113
vt 0.99691033 9.253888
vt 0.005510628 9.253888
vt 0.99691033 9.027662
vt 0.005510628 9.027662
vt 0.99691033 8.801436
vt 0.005510628 8.8014345
vt 0.9969104 8.575212
vt 0.005510628 8.57521
vt 0.005510628 8.348982
vt 0.9969105 8.348987
vt 0.005510628 8.122756
vt 0.9969107 8.122761
vt 0.005510628 7.896531
vt 0.9969108 7.896533
vt 0.005510628 7.6703033
vt 0.996911 7.6703076
vt 0.005510628 7.4440784
vt 0.9969111 7.4440823
vt 0.005510628 7.2178526
vt 0.9969112 7.2178545
vt 0.005510628 6.991625
vt 0.99691135 6.991627
vt 0.005510628 6.7653975
vt 0.9969115 6.765402
vt 0.005510628 6.539172
vt 0.99691164 6.539176
vt 0.005510628 6.3129463
vt 0.99691176 6.3129506
vt 0.005510628 6.086719
vt 0.9969119 6.086723
vt 0.005510628 5.8604956
vt 0.99691206 5.8604956
vt 0.005510628 5.634268
vt 0.9969121 5.63427
vt 0.99691224 5.4080443
vt 0.005510628 5.4080424
vt 0.99691224 5.4080443
vt 0.9969123 5.181817
vt 0.005510628 5.181817
vt 0.9969125 4.955593
vt 0.005510628 4.955589
vt 0.9969126 4.7293653
vt 0.005510628 4.7293634
vt 0.9969128 4.50314
vt 0.005510628 4.5031357
vt 0.9969129 4.2769146
vt 0.005510628 4.2769103
vt 0.99691314 4.050689
vt 0.005510628 4.050685
vt 0.9969134 3.8244634
vt 0.005510628 3.8244596
vt 0.9969136 3.598238
vt 0.005510628 3.5982337
vt 0.9969138 3.3720107
vt 0.005510628 3.3720064
vt 0.99691397 3.1457849
vt 0.005510628 3.145781
vt 0.9969142 2.9195595
vt 0.005510628 2.9195533
vt 0.9969146 2.693334
vt 0.005510628 2.6933255
vt 0.996915 2.4671087
vt 0.005510628 2.4671001
vt 0.9969153 2.2408829
vt 0.005510628 2.2408748
vt 0.99691546 2.014655
vt 0.005510628 2.0146532
vt 0.9969155 1.7884283
vt 0.005510628 1.7884283
vt 0.9969156 1.5622044
vt 0.005510628 1.5622005
vt 0.9969158 1.3359737
vt 0.005510628 1.3359718
vt 0.99691594 1.1097479
vt 0.005510628 1.1097441
vt 0.996916 0.8835211
vt 0.005510628 0.8835211
vt 0.996916 0.6572933
vt 0.005510628 0.6572933
vt 0.996916 0.43106842
vt 0.005510628 0.4310665
vt 0.005510628 0.20885754
vt 0.99691606 0.20886135
vt 0.005510628 0.0029058456
vt 0.9969162 0.0029096603
vt 0.005510628 19.725672
vt 0.99690413 19.725672
vt 0.99690413 19.687393
vt 0.005510628 19.687393
vt 0.99690413 19.637196
vt 0.005510628 19.637196
vt 0.99690413 19.536823
vt 0.005510628 19.536823
vt 0.005510628 19.405266
vt 0.99690413 19.405268
vt 0.005510628 19.238033
vt 0.99690413 19.238033
vt 0.005510628 19.050001
vt 0.99690413 19.050003
vt 0.005510628 18.836689
vt 0.99690413 18.836689
vt 0.005510628 18.590277
vt 0.99690413 18.590277
vt 0.005510628 18.343866
vt 0.99690413 18.343866
vt 0.005510628 18.07229
vt 0.99690413 18.07229
vt 0.005510628 17.890783
vt 0.99690413 17.890785
vt 0.22761607 17.655708
vt 0.005510628 17.730854
vt 0.005510628 17.497168
vt 0.78252256 17.624372
vt 0.99694407 17.730656
vt 0.99694407 17.505287
vt 0.89899653 17.437042
vt 0.99690735 17.158567
vt 0.9494051 17.15856
vt 0.8254573 17.15856
vt 0.6250292 17.388357
vt 0.63714397 17.15856
vt 0.34680602 17.390808
vt 0.3976356 17.15856
vt 0.1124902 17.439148
vt 0.005510628 17.158567
vt 0.060726494 17.15856
vn -0 1 5.636595E-07
vn -0 1 -9.1447856E-07
vn -0 1 -9.1447856E-07
vn -0 1 5.636595E-07
vn -0 1 1.1373157E-07
vn -0 1 1.1373171E-07
vn -0 1 0
vn -0 1 0
vn -0 1 0
vn -0 1 0
vn -0 1 0
vn -0 1 0
vn -0 1 0
vn -0 1 0
vn -0 1 0
vn -0 1 0
vn -0 1 0
vn -0 1 0
vn -0 1 0
vn -0 1 0
vn -0 1 0
vn -0 1 0
vn -0 1 0
vn -0 1 0
vn -0 1 0
vn -0 1 0
vn -0 1 0
vn -0 1 0
vn -0 1 0
vn -0 1 0
vn -0 1 0
vn -0 1 0
vn -0 1 0
vn -0 1 0
vn -0 1 0
vn -0 1 0
vn -0 1 0
vn -0 1 0
vn -0 1 0
vn -0 1 0
vn -0 1 0
vn -0 1 0
vn -0 1 0
vn -0 1 0
vn -0 1 0
vn -0 1 0
vn -0 1 0
vn -0 1 0
vn -0 1 0
vn -0 1 0
vn -0 1 0
vn -0 1 0
vn -0 1 0
vn -0 1 0
vn -0 1 1.287213E-07
vn -0 1 1.6789504E-07
vn -0 1 0
vn -0 1 0
vn -0 1 -1.03641106E-07
vn -0 1 0
vn -0 1 0
vn -0 1 0
vn -0 1 -1.883741E-07
vn -0 1 -2.0330006E-07
vn -0 1 0
vn -0 1 0
vn -0 1 0
vn -0 1 0
vn -0 1 -1.8666356E-07
vn -0 1 -1.7339202E-07
vn -0 1 0
vn -0 1 0
vn -0 1 0
vn -0 1 0
vn -0 1 0
vn -0 1 0
vn -0 1 0
vn -0 1 0
vn -0 1 0
vn -0 1 0
vn -0 1 -1.637363E-07
vn -0 1 -1.6645322E-07
vn -0 1 0
vn -0 1 0
vn -0 1 1.1410732E-07
vn -0 1 1.1253406E-07
vn -0 1 0
vn -0 1 0
vn -0 1 0
vn -0 1 0
vn -0 1 1.06057904E-07
vn -0 1 0
vn -0 1 0
vn -0 1 0
vn -0 1 0
vn -0 1 1.0364089E-07
vn -0 1 0
vn -0 1 0
vn -0 1 -1.6789464E-07
vn -0 1 -1.2872123E-07
vn -0 1 0
vn -0 1 0
vn -0 1 0
vn -0 1 0
vn -0 1 1.1268613E-07
vn -0 1 1.1268611E-07
vn -0 1 0
vn -0 1 0
vn -0 1 0
vn -0 1 0
vn -0 1 0
vn -0 1 0
vn -0 1 0
vn -0 1 0
vn -0 1 0
vn -0 1 0
vn -0 1 0
vn -0 1 0
vn -0 1 0
vn -0 1 0
vn -0 1 0
vn -0 1 0
vn -0 1 0
vn -0 1 0
vn -0 1 0
vn -0 1 0
vn -0 1 0
vn -0 1 0
vn -0 1 0
vn -0 1 0
vn -0 1 0
vn -0 1 0
vn -0 1 0
vn -0 1 0
vn -0 1 0
vn -0 1 0
vn -0 1 0
vn -0 1 0
vn -0 1 0
vn -0 1 0
vn -0 1 0
vn -0 1 0
vn -0 1 0
vn -0 1 0
vn -0 1 0
vn -0 1 0
vn -0 1 0
vn -0 1 0
vn -0 1 0
vn -0 1 0
vn -0 1 0
vn -0 1 -7.371196E-07
vn -0 1 -7.3711954E-07
vn -0 1 9.1447856E-07
vn -0 1 9.1447856E-07
vn 0.48021415 0.5063232 0.716262
vn 0.48021406 0.50632334 0.716262
vn 0.4802153 0.5063222 0.716262
vn 0.4802153 0.50632215 0.716262
vn 0.48021367 0.5063232 0.7162623
vn 0.48021355 0.5063234 0.7162623
vn 0.48021314 0.5063234 0.7162625
vn 0.48021328 0.50632334 0.7162625
vn 0.48021445 0.50632226 0.71626246
vn 0.48021427 0.5063224 0.7162624
vn 0.48021448 0.5063223 0.7162624
vn 0.48021466 0.50632226 0.7162623
vn 0.480214 0.50632215 0.71626276
vn 0.48021394 0.5063223 0.7162627
vn 0.48021433 0.5063219 0.7162627
vn 0.48021442 0.50632185 0.7162627
vn 0.48021358 0.50632226 0.716263
vn 0.4802136 0.5063224 0.7162629
vn 0.4802128 0.50632197 0.71626365
vn 0.48021284 0.50632197 0.7162637
vn 0.4802134 0.50632125 0.7162638
vn 0.48021334 0.50632125 0.71626383
vn 0.44116956 0.576704 0.68759143
vn 0.4545725 0.5797266 0.6762256
vn 0.3067768 0.71375716 0.6296338
vn 0.04949213 0.4606619 0.88619465
vn -0.10698275 0.47051084 0.8758849
vn 0.44695306 0.70142096 0.5551951
vn 0.8695224 0.4155556 0.2669161
vn 0.8915648 0.41865623 0.17274028
vn 0.83013165 0.49927434 0.24820693
vn 0.9233684 0.38083676 0.048520114
vn 0.85045344 0.49762347 0.17058696
vn 0.587832 0.6986842 0.4077916
vn 0.38445365 0.7461186 0.54360133
vn 0.314108 0.7395677 0.5952947
vn 0.1144867 0.73206884 0.67154145
vn -0.053899013 0.66968465 0.7406871
vn -0.23278184 0.515919 0.8244029
vn -0.5084083 0.27190477 0.8170611
vn -0.37072766 0.49424803 0.7863077
g TradeFXLine_withJump_0
f 3/3/3 2/2/2 1/1/1
f 4/4/4 3/3/3 1/1/1
f 4/4/4 1/1/1 5/5/5
f 6/6/6 4/4/4 5/5/5
f 5/5/5 7/7/7 6/6/6
f 7/7/7 8/8/8 6/6/6
f 7/7/7 9/9/9 8/8/8
f 9/9/9 10/10/10 8/8/8
f 9/9/9 11/11/11 10/10/10
f 11/11/11 12/12/12 10/10/10
f 11/11/11 13/13/13 12/12/12
f 13/13/13 14/14/14 12/12/12
f 13/13/13 15/15/15 14/14/14
f 15/15/15 16/16/16 14/14/14
f 15/15/15 17/17/17 16/16/16
f 17/17/17 18/18/18 16/16/16
f 17/17/17 19/19/19 18/18/18
f 19/19/19 20/20/20 18/18/18
f 19/19/19 21/21/21 20/20/20
f 21/21/21 22/22/22 20/20/20
f 21/21/21 23/23/23 22/22/22
f 23/23/23 24/24/24 22/22/22
f 23/23/23 25/25/25 24/24/24
f 25/25/25 26/26/26 24/24/24
f 25/25/25 27/27/27 26/26/26
f 27/27/27 28/28/28 26/26/26
f 27/27/27 29/29/29 28/28/28
f 29/29/29 30/30/30 28/28/28
f 29/29/29 31/31/31 30/30/30
f 31/31/31 32/32/32 30/30/30
f 31/31/31 33/33/33 32/32/32
f 33/33/33 34/34/34 32/32/32
f 33/33/33 35/35/35 34/34/34
f 35/35/35 36/36/36 34/34/34
f 35/35/35 37/37/37 36/36/36
f 37/37/37 38/38/38 36/36/36
f 37/37/37 39/39/39 38/38/38
f 39/39/39 40/40/40 38/38/38
f 39/39/39 41/41/41 40/40/40
f 41/41/41 42/42/42 40/40/40
f 41/41/41 43/43/43 42/42/42
f 43/43/43 44/44/44 42/42/42
f 43/43/43 45/45/45 44/44/44
f 45/45/45 46/46/46 44/44/44
f 45/45/45 47/47/47 46/46/46
f 47/47/47 48/48/48 46/46/46
f 47/47/47 49/49/49 48/48/48
f 49/49/49 50/50/50 48/48/48
f 50/50/50 49/49/49 51/51/51
f 51/51/51 52/52/52 50/50/50
f 51/51/51 53/53/53 52/52/52
f 53/53/53 51/51/51 54/54/54
f 54/54/54 55/55/55 53/53/53
f 55/55/55 54/54/54 56/56/56
f 56/56/56 57/57/57 55/55/55
f 57/57/57 56/56/56 58/58/58
f 57/57/57 58/58/58 59/59/59
f 59/59/59 58/58/58 60/60/60
f 60/60/60 61/61/61 59/59/59
f 61/61/61 60/60/60 62/62/62
f 62/62/62 63/63/63 61/61/61
f 63/63/63 62/62/62 64/64/64
f 64/64/64 65/65/65 63/63/63
f 64/64/64 66/66/66 65/65/65
f 66/66/66 67/67/67 65/65/65
f 66/66/66 68/68/68 67/67/67
f 68/68/68 69/69/69 67/67/67
f 68/68/68 70/70/70 69/69/69
f 71/71/71 69/69/69 70/70/70
f 70/70/70 72/72/72 71/71/71
f 73/73/73 71/71/71 72/72/72
f 72/72/72 74/74/74 73/73/73
f 75/75/75 73/73/73 74/74/74
f 74/74/74 76/76/76 75/75/75
f 77/77/77 75/75/75 76/76/76
f 76/76/76 78/78/78 77/77/77
f 78/78/78 79/79/79 77/77/77
f 79/79/79 80/80/80 77/77/77
f 80/80/80 79/79/79 81/81/81
f 81/81/81 82/82/82 80/80/80
f 82/82/82 81/81/81 83/83/83
f 83/83/83 84/84/84 82/82/82
f 84/84/84 83/83/83 85/85/85
f 85/85/85 86/86/86 84/84/84
f 86/86/86 85/85/85 87/87/87
f 87/87/87 88/88/88 86/86/86
f 88/88/88 87/87/87 89/89/89
f 89/89/89 90/90/90 88/88/88
f 90/90/90 89/89/89 91/91/91
f 91/91/91 92/92/92 90/90/90
f 92/92/92 91/91/91 93/93/93
f 94/94/94 92/92/92 93/93/93
f 94/94/94 93/93/93 95/95/95
f 96/96/96 94/94/94 95/95/95
f 96/96/96 95/95/95 97/97/97
f 98/98/98 96/96/96 97/97/97
f 97/97/97 99/99/99 98/98/98
f 100/100/100 98/98/98 99/99/99
f 99/99/99 101/101/101 100/100/100
f 102/102/102 100/100/100 101/101/101
f 102/102/102 101/101/101 103/103/103
f 103/103/103 104/104/104 102/102/102
f 105/105/105 104/104/104 103/103/103
f 103/103/103 106/106/106 105/105/105
f 106/106/106 108/108/108 107/107/107
f 108/108/108 106/106/106 109/109/109
f 109/109/109 110/110/110 108/108/108
f 110/110/110 109/109/109 111/111/111
f 111/111/111 112/112/112 110/110/110
f 112/112/112 111/111/111 113/113/113
f 113/113/113 114/114/114 112/112/112
f 114/114/114 113/113/113 115/115/115
f 115/115/115 116/116/116 114/114/114
f 116/116/116 115/115/115 117/117/117
f 117/117/117 118/118/118 116/116/116
f 118/118/118 117/117/117 119/119/119
f 119/119/119 120/120/120 118/118/118
f 120/120/120 119/119/119 121/121/121
f 121/121/121 122/122/122 120/120/120
f 122/122/122 121/121/121 123/123/123
f 123/123/123 124/124/124 122/122/122
f 124/124/124 123/123/123 125/125/125
f 125/125/125 126/126/126 124/124/124
f 126/126/126 125/125/125 127/127/127
f 127/127/127 128/128/128 126/126/126
f 128/128/128 127/127/127 129/129/129
f 129/129/129 130/130/130 128/128/128
f 130/130/130 129/129/129 131/131/131
f 131/131/131 132/132/132 130/130/130
f 132/132/132 131/131/131 133/133/133
f 133/133/133 134/134/134 132/132/132
f 134/134/134 133/133/133 135/135/135
f 135/135/135 136/136/136 134/134/134
f 136/136/136 135/135/135 137/137/137
f 137/137/137 138/138/138 136/136/136
f 138/138/138 137/137/137 139/139/139
f 139/139/139 140/140/140 138/138/138
f 140/140/140 139/139/139 141/141/141
f 141/141/141 142/142/142 140/140/140
f 142/142/142 141/141/141 143/143/143
f 143/143/143 144/144/144 142/142/142
f 144/144/144 143/143/143 145/145/145
f 145/145/145 146/146/146 144/144/144
f 146/146/146 145/145/145 147/147/147
f 147/147/147 148/148/148 146/146/146
f 148/148/148 147/147/147 149/149/149
f 149/149/149 150/150/150 148/148/148
f 150/150/150 149/149/149 151/151/151
f 151/151/151 152/152/152 150/150/150
f 152/152/152 153/153/153 150/150/150
f 152/152/152 154/154/154 153/153/153
f 154/154/154 155/155/155 153/153/153
f 158/158/158 157/157/157 156/156/156
f 158/158/158 156/156/156 159/159/159
f 160/160/160 158/158/158 159/159/159
f 160/160/160 159/159/159 161/161/161
f 160/160/160 161/161/161 162/162/162
f 162/162/162 161/161/161 163/163/163
f 162/162/162 163/163/163 164/164/164
f 164/164/164 165/165/165 162/162/162
f 165/165/165 164/164/164 166/166/166
f 166/166/166 167/167/167 165/165/165
f 167/167/167 166/166/166 168/168/168
f 168/168/168 169/169/169 167/167/167
f 168/168/168 170/170/170 169/169/169
f 171/171/171 169/169/169 170/170/170
f 171/171/171 170/170/170 172/172/172
f 172/172/172 173/173/173 171/171/171
f 172/172/172 174/174/174 173/173/173
f 175/175/175 173/173/173 174/174/174
f 175/175/175 174/174/174 176/176/176
f 176/176/176 177/177/177 175/175/175
f 177/177/177 176/176/176 178/178/178
f 178/178/178 179/179/179 177/177/177
f 179/179/179 178/178/178 180/180/180
f 178/178/178 181/181/181 180/180/180
f 180/180/180 181/181/181 182/182/182
f 180/180/180 183/183/183 179/179/179
f 179/179/179 183/183/183 184/184/184
f 185/185/185 184/184/184 183/183/183
f 186/186/186 185/185/185 183/183/183
f 186/186/186 187/187/187 185/185/185
f 188/188/188 187/187/187 186/186/186
f 189/189/189 188/188/188 186/186/186
f 183/183/183 190/190/190 186/186/186
f 186/186/186 190/190/190 189/189/189
f 180/180/180 190/190/190 183/183/183
f 190/190/190 191/191/191 189/189/189
f 191/191/191 190/190/190 192/192/192
f 180/180/180 192/192/192 190/190/190
f 192/192/192 193/193/193 191/191/191
f 182/182/182 194/194/194 180/180/180
f 180/180/180 194/194/194 192/192/192
f 194/194/194 193/193/193 192/192/192
f 195/195/195 194/194/194 182/182/182
f 196/196/196 193/193/193 194/194/194
f 195/195/195 196/196/196 194/194/194
