g trading_arrows_distance_geo
v -0.2742702 0.0064885714 3.1447682
v -0.39054283 0.0064885714 2.7925973
v -0.2805402 0.0064885714 2.7925973
v -0.3832174 0.0064885714 3.2673917
v 0.47116905 0.0064885714 3.2756908
v 0.6260185 0.0064885714 3.1612542
v -0.22588818 0.0064885714 5.034657
v -0.25358546 0.0064885714 4.7874975
v -1.1639006 0.0064885714 3.0752556
v -0.9604716 0.0064885714 3.2330394
v -0.47077334 0.0064885714 3.1322103
v -0.47377232 0.0064885714 3.2673922
v -0.39542347 0.0064885714 2.4762628
v -0.40549812 0.0064885714 1.8232797
v -0.29558656 0.0064885714 1.8232797
v -0.28545058 0.0064885714 2.4762628
v -0.425334 0.0064885714 0.5376272
v -0.43540865 0.0064885714 -0.11535582
v -0.32567927 0.0064885714 -0.11535582
v -0.31554326 0.0064885714 0.5376272
v -0.41037872 0.0064885714 1.5069451
v -0.42045337 0.0064885714 0.85396177
v -0.3106329 0.0064885714 0.85396177
v -0.3004969 0.0064885714 1.5069451
v -0.44028926 0.0064885714 -0.43169057
v -0.45036396 0.0064885714 -1.084674
v -0.34072563 0.0064885714 -1.084674
v -0.33058962 0.0064885714 -0.43169057
v -0.42086777 0.0064885714 -6.284168
v -0.53002095 0.0064885714 -6.284168
v -0.536253 0.0064885714 -6.905235
v -0.4282378 0.0064885714 -6.9761014
v -1.0127846 0.0064885714 -6.986011
v -1.1143748 0.0064885714 -6.9151444
v -0.5025051 0.0064885714 -8.032771
v -0.50022537 0.0064885714 -7.8854594
v 0.21027404 0.0064885714 -6.9238453
v 0.06436838 0.0064885714 -6.9910984
v -0.33734974 0.0064885714 -6.9052353
v -0.33845523 0.0064885714 -6.9761024
v -0.5150656 0.0064885714 -5.27828
v -0.5251403 0.0064885714 -5.9312634
v -0.4159574 0.0064885714 -5.9312634
v -0.40582138 0.0064885714 -5.27828
v -0.4851551 0.0064885714 -3.3396444
v -0.49522975 0.0064885714 -3.9926274
v -0.38586468 0.0064885714 -3.9926274
v -0.37572867 0.0064885714 -3.3396444
v -0.5001103 0.0064885714 -4.308962
v -0.51018506 0.0064885714 -4.9619455
v -0.400911 0.0064885714 -4.9619455
v -0.39077502 0.0064885714 -4.308962
v -0.4701998 0.0064885714 -2.3703263
v -0.48027447 0.0064885714 -3.0233095
v -0.37081832 0.0064885714 -3.0233095
v -0.36068228 0.0064885714 -2.3703263
v -0.45524454 0.0064885714 -1.4010084
v -0.46531922 0.0064885714 -2.0539916
v -0.35577196 0.0064885714 -2.0539916
v -0.34563598 0.0064885714 -1.4010084
v -0.36027423 0.0137612475 -1.9224
v 0.7244794 0.0137612475 -2.4388611
v 0.78200024 0.0137612475 -2.3411748
v -0.3976389 0.0137612475 -2.0292032
v 0.78200024 0.0137612475 -2.3411748
v 0.7244794 0.0137612475 -2.4388611
v 0.9126245 0.0137612475 -2.6632056
v 0.8409767 0.0137612475 -2.7315176
vt 0.12944585 0.23344454
vt 0.11785929 0.28975692
vt 0.12926877 0.29010978
vt 0.11806782 0.22312482
vt 0.17295441 0.2249447
vt 0.18243021 0.2351837
vt 0.12433237 0.044597823
vt 0.12426771 0.065264605
vt 0.064823344 0.2313231
vt 0.07443028 0.22167774
vt 0.11032037 0.23281652
vt 0.11035155 0.22286884
vt 0.11772029 0.33415258
vt 0.11743353 0.4257989
vt 0.12884367 0.42610008
vt 0.12913004 0.33448848
vt 0.11686876 0.606257
vt 0.11658192 0.69791996
vt 0.1279935 0.69811726
vt 0.1282798 0.6064893
vt 0.11729459 0.47019863
vt 0.11700779 0.5618533
vt 0.12841865 0.56210244
vt 0.12870494 0.47048277
vt 0.11644295 0.7423277
vt 0.11615616 0.8339989
vt 0.1275683 0.83414435
vt 0.12785473 0.742508
vt 0.11792487 0.2907575
vt 0.12934053 0.29060793
vt 0.12948865 0.23387119
vt 0.11809838 0.22409162
vt 0.1731782 0.22324724
vt 0.18273342 0.2330726
vt 0.12427139 0.04509967
vt 0.12421757 0.06579053
vt 0.06505674 0.23483701
vt 0.07459462 0.22475852
vt 0.11036146 0.23415779
vt 0.1103875 0.2242098
vt 0.12898546 0.42675295
vt 0.12922454 0.3350398
vt 0.11780894 0.33517236
vt 0.11757046 0.42685077
vt 0.12827575 0.69900596
vt 0.12851495 0.6073096
vt 0.11710066 0.6073385
vt 0.11686194 0.6989999
vt 0.12863076 0.5628857
vt 0.12886965 0.4711807
vt 0.11745495 0.4712613
vt 0.11721617 0.5629313
vt 0.1279209 0.83511424
vt 0.12815985 0.7434258
vt 0.11674628 0.74340284
vt 0.11650762 0.8350562
vt 0.11601716 0.8784106
vt 0.1157302 0.97009003
vt 0.12714311 0.9701836
vt 0.12742957 0.87853897
vt 0.15202528 0.82571983
vt 0.11091111 0.82093567
vt 0.11091113 0.8260541
vt 0.15200956 0.82060146
vt 0.11091113 0.8260541
vt 0.11091111 0.82093567
vt 0.1057927 0.82605416
vt 0.10579268 0.8209357
vn -0 1 0
vn -0 1 0
vn -0 1 0
vn -0 1 0
vn -0 1 0
vn -0 1 0
vn -0 1 0
vn -0 1 0
vn -0 1 0
vn -0 1 0
vn -0 1 0
vn -0 1 0
vn -0 1 0
vn -0 1 0
vn -0 1 0
vn -0 1 0
vn -0 1 0
vn -0 1 0
vn -0 1 0
vn -0 1 0
vn -0 1 0
vn -0 1 0
vn -0 1 0
vn -0 1 0
vn -0 1 0
vn -0 1 0
vn -0 1 0
vn -0 1 0
vn -0 1 0
vn -0 1 0
vn -0 1 0
vn -0 1 0
vn -0 1 0
vn -0 1 0
vn -0 1 0
vn -0 1 0
vn -0 1 0
vn -0 1 0
vn -0 1 0
vn -0 1 0
vn -0 1 0
vn -0 1 0
vn -0 1 0
vn -0 1 0
vn -0 1 0
vn -0 1 0
vn -0 1 0
vn -0 1 0
vn -0 1 0
vn -0 1 0
vn -0 1 0
vn -0 1 0
vn -0 1 0
vn -0 1 0
vn -0 1 0
vn -0 1 0
vn -0 1 0
vn -0 1 0
vn -0 1 0
vn -0 1 0
vn -0 1 0
vn -0 1 0
vn -0 1 0
vn -0 1 0
vn -0 1 0
vn -0 1 0
vn -0 1 0
vn -0 1 0
g trading_arrows_distance_geo_0
f 3/3/3 2/2/2 1/1/1
f 4/4/4 1/1/1 2/2/2
f 1/1/1 4/4/4 5/5/5
f 5/5/5 6/6/6 1/1/1
f 6/6/6 5/5/5 7/7/7
f 5/5/5 8/8/8 7/7/7
f 7/7/7 8/8/8 9/9/9
f 8/8/8 10/10/10 9/9/9
f 9/9/9 10/10/10 11/11/11
f 12/12/12 11/11/11 10/10/10
f 15/15/15 14/14/14 13/13/13
f 13/13/13 16/16/16 15/15/15
f 19/19/19 18/18/18 17/17/17
f 17/17/17 20/20/20 19/19/19
f 23/23/23 22/22/22 21/21/21
f 21/21/21 24/24/24 23/23/23
f 27/27/27 26/26/26 25/25/25
f 25/25/25 28/28/28 27/27/27
f 31/31/31 30/30/30 29/29/29
f 32/32/32 31/31/31 29/29/29
f 31/31/31 32/32/32 33/33/33
f 33/33/33 34/34/34 31/31/31
f 35/35/35 34/34/34 33/33/33
f 33/33/33 36/36/36 35/35/35
f 37/37/37 35/35/35 36/36/36
f 36/36/36 38/38/38 37/37/37
f 37/37/37 38/38/38 39/39/39
f 38/38/38 40/40/40 39/39/39
f 43/43/43 42/42/42 41/41/41
f 41/41/41 44/44/44 43/43/43
f 47/47/47 46/46/46 45/45/45
f 45/45/45 48/48/48 47/47/47
f 51/51/51 50/50/50 49/49/49
f 49/49/49 52/52/52 51/51/51
f 55/55/55 54/54/54 53/53/53
f 53/53/53 56/56/56 55/55/55
f 59/59/59 58/58/58 57/57/57
f 57/57/57 60/60/60 59/59/59
f 63/63/63 62/62/62 61/61/61
f 64/64/64 61/61/61 62/62/62
f 67/67/67 66/66/66 65/65/65
f 66/66/66 67/67/67 68/68/68
