g verticalSliceTrees01Geo
v 0.1174036 8.674541 -9.374889E-16
v 4.161946 5.359202 0
v 4.161946 2.514311 0
v 1.285046 -0.7071814 0
v -1.03999 -0.7071814 0
v -2.976302 8.58912 -9.185217E-16
v -4.033041 2.281225 4.821121E-16
v -4.611143 5.438237 -2.188852E-16
v -4.571254 3.399175 2.338775E-16
vt 0.841619 0.6653329
vt 1 0.535507
vt 1 0.4241034
vt 0.8873429 0.2979524
vt 0.7962964 0.2979524
vt 0.720472 0.661988
vt 0.679091 0.414976
vt 0.656453 0.538602
vt 0.6580151 0.458754
vn 0 0 1
vn 0 0 1
vn 0 0 1
vn 0 0 1
vn 0 0 1
vn 0 0 1
vn 0 0 1
vn 0 0 1
vn 0 0 1
g verticalSliceTrees01Geo_0
f 3/3/3 2/2/2 1/1/1
f 1/1/1 4/4/4 3/3/3
f 1/1/1 5/5/5 4/4/4
f 1/1/1 6/6/6 5/5/5
f 6/6/6 7/7/7 5/5/5
f 6/6/6 8/8/8 7/7/7
f 8/8/8 9/9/9 7/7/7
