g verticalSliceTrees02Geo
v 0.1378284 8.146032 -8.525842E-31
v 4.137125 5.16563 -8.525842E-31
v 4.137125 1.905228 -8.525842E-31
v 0.8160644 -0.3346591 -9.520615E-16
v -0.4144763 -0.3254403 -9.541085E-16
v -2.816033 8.146032 -8.525842E-31
v -3.289715 1.25258 -1.304499E-15
v -3.556115 4.731252 -2.07692E-15
v -3.469673 2.619258 -1.607963E-15
v -4.014066 3.673468 -1.842044E-15
vt 0.8433908 1
vt 1 0.8832898
vt 1 0.7556151
vt 0.8699501 0.667903
vt 0.821763 0.668264
vt 0.72772 1
vt 0.7091709 0.730058
vt 0.698739 0.86628
vt 0.702124 0.783576
vt 0.680806 0.824858
vn 0 0 1
vn 0 0 1
vn 0 0 1
vn 0 0 1
vn 0 0 1
vn 0 0 1
vn 0 0 1
vn 0 0 1
vn 0 0 1
vn 0 0 1
g verticalSliceTrees02Geo_0
f 3/3/3 2/2/2 1/1/1
f 1/1/1 4/4/4 3/3/3
f 1/1/1 5/5/5 4/4/4
f 1/1/1 6/6/6 5/5/5
f 6/6/6 7/7/7 5/5/5
f 6/6/6 8/8/8 7/7/7
f 8/8/8 9/9/9 7/7/7
f 8/8/8 10/10/10 9/9/9
