g verticalSliceBushes06Geo
v 0.8402264 2.475768 1.516353E-16
v 2.145744 0.794017 5.25059E-16
v 2.038029 -0.2034247 7.465356E-16
v -2.005338 -0.1287039 7.299442E-16
v -1.006415 2.185261 2.161408E-16
v -2.022192 0.7436583 5.362409E-16
vt 0.638054 0.473258
vt 0.689177 0.407402
vt 0.6849591 0.368343
vt 0.526624 0.371269
vt 0.565741 0.461882
vt 0.525964 0.40543
vn 0 0 1
vn 0 0 1
vn 0 0 1
vn 0 0 1
vn 0 0 1
vn 0 0 1
g verticalSliceBushes06Geo_0
f 3/3/3 2/2/2 1/1/1
f 1/1/1 4/4/4 3/3/3
f 1/1/1 5/5/5 4/4/4
f 5/5/5 6/6/6 4/4/4
