g verticalSliceTrees05Geo
v 2.964097 6.059831 -1.62075E-15
v 3.120382 5.124443 -1.413052E-15
v 1.71831 1.045247 -5.072883E-16
v 2.411532 7.155461 -1.864028E-15
v 1.632456 11.52902 -3.418225E-31
v 2.950742 8.046669 -2.061916E-15
v 2.994869 8.549259 -2.173514E-15
v 0.3511474 -0.4221479 -1.814612E-16
v -3.322649 11.52902 -3.418225E-31
v -0.2642383 -0.4328733 -1.790796E-16
v -0.8379478 0.2572074 -3.323083E-16
v -2.636198 7.257455 -1.886676E-15
v -3.089144 8.356507 -2.130714E-15
v -2.978646 1.492601 -6.066208E-16
v -3.198875 5.95227 -1.596866E-15
v -3.175841 4.745451 -1.328899E-15
v -3.73691 3.426936 -1.03613E-15
vt 0.699541 0.785831
vt 0.705661 0.749202
vt 0.650757 0.5894639
vt 0.677903 0.828735
vt 0.647395 1
vt 0.699018 0.863634
vt 0.700746 0.883315
vt 0.59722 0.532002
vt 0.4533571 1
vt 0.573122 0.531582
vt 0.550656 0.558605
vt 0.480238 0.832729
vt 0.462501 0.875767
vt 0.466828 0.606982
vt 0.458204 0.781619
vt 0.459106 0.734361
vt 0.437135 0.682729
vn 0 0 1
vn 0 0 1
vn 0 0 1
vn 0 0 1
vn 0 0 1
vn 0 0 1
vn 0 0 1
vn 0 0 1
vn 0 0 1
vn 0 0 1
vn 0 0 1
vn 0 0 1
vn 0 0 1
vn 0 0 1
vn 0 0 1
vn 0 0 1
vn 0 0 1
g verticalSliceTrees05Geo_0
f 3/3/3 2/2/2 1/1/1
f 1/1/1 4/4/4 3/3/3
f 5/5/5 3/3/3 4/4/4
f 5/5/5 4/4/4 6/6/6
f 6/6/6 7/7/7 5/5/5
f 5/5/5 8/8/8 3/3/3
f 5/5/5 9/9/9 8/8/8
f 9/9/9 10/10/10 8/8/8
f 9/9/9 11/11/11 10/10/10
f 9/9/9 12/12/12 11/11/11
f 9/9/9 13/13/13 12/12/12
f 14/14/14 11/11/11 12/12/12
f 12/12/12 15/15/15 14/14/14
f 15/15/15 16/16/16 14/14/14
f 14/14/14 16/16/16 17/17/17
