g verticalSliceTrees03Geo
v 2.550804 9.078235 -2.091952E-15
v 2.898565 8.357867 -1.931998E-15
v 2.757397 7.945883 -1.840519E-15
v 1.035426 4.738997 -1.128448E-15
v 3.140321 7.320027 -1.701551E-15
v 2.507929 12.42532 0
v -2.419983 12.42532 0
v 0.5238562 -0.4173613 8.20437E-18
v -2.419983 -0.4109972 0
vt 0.194652 0.868931
vt 0.20827 0.840722
vt 0.202742 0.824589
vt 0.135311 0.69901
vt 0.217737 0.800081
vt 0.192973 1
vt 0 1
vt 0.1152783 0.4970912
vt 0 0.4973404
vn 0 0 1
vn 0 0 1
vn 0 0 1
vn 0 0 1
vn 0 0 1
vn 0 0 1
vn 0 0 1
vn 0 0 1
vn 0 0 1
g verticalSliceTrees03Geo_0
f 3/3/3 2/2/2 1/1/1
f 3/3/3 1/1/1 4/4/4
f 4/4/4 5/5/5 3/3/3
f 1/1/1 6/6/6 4/4/4
f 6/6/6 7/7/7 4/4/4
f 7/7/7 8/8/8 4/4/4
f 7/7/7 9/9/9 8/8/8
