g WonderBox_SmokeTop2
v -0.03314661 -0.002213284 0.04215598
v -0.05169671 -0.002887598 0.02000761
v -0.02428296 -0.005518507 0.02871132
v -0.06305809 0.001504399 0.03935448
v -0.05969848 0.006184405 0.06368285
v -0.07977638 0.008851402 0.07017411
v -0.03207049 0.00411336 0.05555198
v -0.08463173 0.004554633 0.03678032
v -0.07616693 0.000385525 0.01298564
v -0.04024325 0.01130502 0.08948951
v -0.02118478 0.008519677 0.06886955
v -0.1185624 0.007507487 0.03472748
v -0.1159007 0.003554153 0.003228209
v -0.1119817 0.01143326 0.08011705
v -0.07758313 0.01557592 0.1276456
v -0.05303019 0.01347511 0.103833
v -0.02849903 0.01336631 0.1478646
v -0.01644996 0.01007422 0.09674226
v -0.007686079 0.008713433 0.07609072
v -0.02260171 0.01218639 0.1187079
v 0.01769819 0.01038027 0.1438226
v 0.01087859 0.008943284 0.09764713
v 0.009913827 0.008358108 0.07737832
v 0.01272606 0.009694891 0.1164151
v 0.05593147 0.007471642 0.1247381
v 0.03705378 0.007738961 0.09140977
v 0.02935196 0.007958028 0.07467986
v 0.04068992 0.008441722 0.06902756
v 0.04368936 0.007597162 0.107234
v 0.07474421 0.006627019 0.1056955
v 0.05112933 0.007883461 0.08192329
v 0.06065885 0.007251021 0.09233091
v 0.07144099 0.006617752 0.07728485
v 0.08643775 0.005510963 0.08530764
v 0.0779398 0.005276327 0.06338903
v 0.09145842 0.003691683 0.06626214
v 0.0919963 0.001984594 0.04946407
v 0.06110951 0.007761041 0.07101363
v 0.05043714 0.008831118 0.06359977
v 0.06652722 0.006913229 0.06086215
v 0.0540508 0.008634438 0.05796523
v 0.05902452 0.008251756 0.05042695
v 0.07005648 0.006134652 0.05012047
v 0.08047983 0.004025963 0.04978694
v 0.08005201 0.00316329 0.03718035
v 0.08946971 0.0007427101 0.03484735
v 0.07622185 0.003023138 0.02650409
v 0.08457607 0.0004054831 0.02229327
v 0.07781344 0.001635903 0.01194228
v 0.07032373 0.005663696 0.03959028
v 0.06010514 0.00817408 0.04203822
v 0.06759211 0.005727118 0.03085378
v 0.05892795 0.00844189 0.03522083
v 0.05623437 0.009361005 0.02972219
v 0.06352398 0.006751396 0.02371597
v 0.07078461 0.004152158 0.01773363
v 0.06517885 0.007209151 0.01117885
v 0.07086187 0.005099757 0.004250132
v 0.06012265 0.01241261 0.0067025
v 0.06463415 0.01093364 -0.0008920267
v 0.05930175 0.01862836 -0.004063328
v 0.05930839 0.00938811 0.01833607
v 0.05341452 0.01157576 0.02552185
v 0.05546236 0.01394035 0.01454748
v 0.05078349 0.01547419 0.02242377
v 0.04823065 0.02098792 0.02012361
v 0.05197056 0.02019084 0.01195304
v 0.04743749 0.02419056 0.01940806
v 0.05569562 0.01939693 0.003814951
v 0.05741249 0.02287359 -0.00488789
v 0.05416338 0.02330256 0.003025897
v 0.05625982 0.02720683 -0.005188968
v 0.05080713 0.02374568 0.01120067
v 0.04721269 0.02758286 0.01906119
v 0.05331295 0.02732931 0.002709903
v 0.0502689 0.02745583 0.01086927
v 0.04740061 0.03108563 0.01900331
v 0.05296225 0.03137663 0.002759384
v 0.05564894 0.0315172 -0.005087625
v 0.05530059 0.03569908 -0.004736246
v 0.05018697 0.03123142 0.01086517
v 0.04776549 0.03462005 0.01912206
v 0.05284622 0.03534761 0.00303499
v 0.05497752 0.03964003 -0.004273253
v 0.05031091 0.03498456 0.01106251
v 0.04810638 0.03809663 0.01931396
v 0.05273942 0.0391373 0.003409681
v 0.05042751 0.038618 0.01134598
v 0.04836165 0.04138323 0.01951114
v 0.05257494 0.04260854 0.003805673
v 0.05461027 0.04320046 -0.003781222
v 0.0541714 0.046234 -0.003328762
v 0.05047249 0.0419971 0.01164277
v 0.04850445 0.04433704 0.01965463
v 0.05232553 0.04561612 0.004157493
v 0.05355966 0.04865731 -0.002988855
v 0.0504188 0.04497785 0.01189063
v 0.0484323 0.04686894 0.01967859
v 0.05188955 0.0480748 0.004394489
v 0.05016437 0.04747307 0.01202132
v 0.04774003 0.04910453 0.01948974
v 0.05086777 0.0501392 0.004425277
v 0.05237869 0.05063903 -0.002851964
v 0.05015837 0.05241081 -0.003012926
v 0.04930701 0.0496229 0.01194251
v 0.04594682 0.05122307 0.01898793
v 0.04878656 0.05202394 0.004153293
v 0.04633167 0.05412865 -0.003539046
v 0.04736952 0.0516243 0.01155584
v 0.0425115 0.05332913 0.01810615
v 0.04508734 0.05386823 0.003511325
v 0.04380199 0.05359921 0.01079421
v 0.03665165 0.05522845 0.01690985
v 0.03887159 0.05550982 0.002549564
v 0.03994399 0.05564574 -0.004387506
v 0.02994386 0.05673961 -0.005487959
v 0.02915581 0.05671111 0.001347556
v 0.03776383 0.05536942 0.009715408
v 0.02834178 0.05668167 0.008408495
v 0.0275245 0.05665212 0.01549761
vt 1 0.9791667
vt 0.6666667 1
vt 1 1
vt 0.6666667 0.9791667
vt 0.6666667 0.9375
vt 0.3333333 0.9375
vt 1 0.9375
vt 0.3333333 0.9791667
vt 0.3333333 1
vt 0.6666667 0.875
vt 1 0.875
vt 0 0.9791667
vt 0 1
vt 0 0.9375
vt 0 0.875
vt 0.3333333 0.875
vt 0 0.8125
vt 0.6666667 0.8125
vt 1 0.8125
vt 0.3333333 0.8125
vt 0 0.75
vt 0.6666667 0.75
vt 1 0.75
vt 0.3333333 0.75
vt 0 0.6875
vt 0.6666667 0.6875
vt 1 0.6875
vt 1 0.6458333
vt 0.3333333 0.6875
vt 0 0.6458333
vt 0.6666667 0.6458333
vt 0.3333333 0.6458333
vt 0.3333333 0.6041667
vt 0 0.6041667
vt 0.3333333 0.5625
vt 0 0.5625
vt 0 0.5208333
vt 0.6666667 0.6041667
vt 1 0.6041667
vt 0.6666667 0.5625
vt 1 0.5625
vt 1 0.5208333
vt 0.6666667 0.5208333
vt 0.3333333 0.5208333
vt 0.3333333 0.4791667
vt 0 0.4791667
vt 0.3333333 0.4375
vt 0 0.4375
vt 0 0.3958333
vt 0.6666667 0.4791667
vt 1 0.4791667
vt 0.6666667 0.4375
vt 1 0.4375
vt 1 0.3958333
vt 0.6666667 0.3958333
vt 0.3333333 0.3958333
vt 0.3333333 0.3541667
vt 0 0.3541667
vt 0.3333333 0.3125
vt 0 0.3125
vt 0 0.2708333
vt 0.6666667 0.3541667
vt 1 0.3541667
vt 0.6666667 0.3125
vt 1 0.3125
vt 1 0.2708333
vt 0.6666667 0.2708333
vt 1 0.25
vt 0.3333333 0.2708333
vt 0 0.25
vt 0.3333333 0.25
vt 0 0.2291667
vt 0.6666667 0.25
vt 1 0.2291667
vt 0.3333333 0.2291667
vt 0.6666667 0.2291667
vt 1 0.2083333
vt 0.3333333 0.2083333
vt 0 0.2083333
vt 0 0.1875
vt 0.6666667 0.2083333
vt 1 0.1875
vt 0.3333333 0.1875
vt 0 0.1666667
vt 0.6666667 0.1875
vt 1 0.1666667
vt 0.3333333 0.1666667
vt 0.6666667 0.1666667
vt 1 0.1458333
vt 0.3333333 0.1458333
vt 0 0.1458333
vt 0 0.125
vt 0.6666667 0.1458333
vt 1 0.125
vt 0.3333333 0.125
vt 0 0.1041667
vt 0.6666667 0.125
vt 1 0.1041667
vt 0.3333333 0.1041667
vt 0.6666667 0.1041667
vt 1 0.08333334
vt 0.3333333 0.08333334
vt 0 0.08333334
vt 0 0.0625
vt 0.6666667 0.08333334
vt 1 0.0625
vt 0.3333333 0.0625
vt 0 0.04166667
vt 0.6666667 0.0625
vt 1 0.04166667
vt 0.3333333 0.04166667
vt 0.6666667 0.04166667
vt 1 0.02083333
vt 0.3333333 0.02083333
vt 0 0.02083333
vt 0 0
vt 0.3333333 0
vt 0.6666667 0.02083333
vt 0.6666667 0
vt 1 0
vn 0.1064888 0.9715939 -0.2113421
vn 0.147076 0.9798895 -0.1348535
vn 0.1376316 0.9797974 -0.1451019
vn 0.1240014 0.9764846 -0.1763563
vn 0.04839814 0.9772457 -0.2065147
vn 0.04500801 0.9904581 -0.1302569
vn 0.01303325 0.9691195 -0.2462469
vn 0.09857139 0.9871224 -0.1259875
vn 0.1234837 0.9846662 -0.1232238
vn 0.03260924 0.9891812 -0.1430282
vn 0.005091004 0.9885263 -0.1509625
vn 0.08474869 0.9893083 -0.1186873
vn 0.1019713 0.9869705 -0.1244627
vn 0.03944126 0.9925557 -0.1152282
vn 0.02986272 0.9961372 -0.08257692
vn 0.03764256 0.9951332 -0.09106464
vn 0.06025381 0.9977211 -0.0303621
vn 0.05784576 0.9962742 -0.06396626
vn 0.04351395 0.9976898 -0.05216811
vn 0.06221148 0.9972194 -0.04102656
vn 0.06190642 0.9975368 -0.03298325
vn 0.04541815 0.998121 -0.04112889
vn 0.03344832 0.9990059 -0.02947081
vn 0.05895026 0.9975172 -0.03852662
vn 0.04857306 0.998548 -0.02329019
vn 0.0301943 0.9995174 -0.007284767
vn 0.01895689 0.9998193 -0.001447631
vn 0.006043411 0.9992725 0.03765513
vn 0.04628163 0.9987079 -0.02099012
vn 0.0445756 0.998996 -0.004493246
vn 0.02606221 0.9992626 0.02819532
vn 0.04347875 0.9990471 0.003802347
vn 0.0890352 0.9958994 -0.0160376
vn 0.08417254 0.9961128 -0.02596827
vn 0.1377977 0.9890354 -0.05311017
vn 0.1293177 0.9894457 -0.06537613
vn 0.1699265 0.981572 -0.08741467
vn 0.08233844 0.9964675 0.0165181
vn 0.05819207 0.9977028 0.03468349
vn 0.1472492 0.988995 -0.01437195
vn 0.1346388 0.9908773 0.005871869
vn 0.1787284 0.9838952 0.002511157
vn 0.1890846 0.9815497 -0.02841144
vn 0.1787968 0.9812548 -0.07190821
vn 0.2189079 0.9716419 -0.08939408
vn 0.212943 0.9717606 -0.1016685
vn 0.2598877 0.9625295 -0.07742896
vn 0.2558148 0.9629031 -0.08588491
vn 0.3356624 0.9419779 -0.002920847
vn 0.2286376 0.9720658 -0.05303811
vn 0.2271794 0.9735368 -0.0248139
vn 0.2699995 0.9614441 -0.05220562
vn 0.275388 0.9608013 -0.03197337
vn 0.3693272 0.9282464 0.04422729
vn 0.3595665 0.9326571 0.02936949
vn 0.3426227 0.9394526 0.006210875
vn 0.5006902 0.8527616 0.1486838
vn 0.4884101 0.8618713 0.1365038
vn 0.6734722 0.6894451 0.2666471
vn 0.6601143 0.7061481 0.2561323
vn 0.7720798 0.5548832 0.3098343
vn 0.5281669 0.8303824 0.1774954
vn 0.5442467 0.8157066 0.1960058
vn 0.6999367 0.652841 0.2896329
vn 0.7154848 0.6288479 0.3043548
vn 0.8128992 0.4731195 0.3396362
vn 0.8023781 0.4965538 0.3310948
vn 0.9033534 0.2363597 0.3578919
vn 0.7823583 0.5363719 0.3165765
vn 0.8766183 0.3389465 0.341549
vn 0.8842291 0.3142178 0.345552
vn 0.922839 0.1769468 0.3421375
vn 0.8972999 0.2642703 0.3535735
vn 0.9352145 0.06328121 0.348381
vn 0.9271156 0.1495197 0.3436576
vn 0.9332215 0.09395573 0.3467997
vn 0.9451538 -0.04303439 0.3237781
vn 0.9448491 0.04174254 0.3248347
vn 0.9431539 0.06828693 0.3252654
vn 0.9525046 0.02612435 0.3034018
vn 0.9458856 -0.01292093 0.3242431
vn 0.951305 -0.07870383 0.2980341
vn 0.95331 0.001648479 0.3019889
vn 0.9587367 0.02907179 0.2828049
vn 0.95277 -0.05024855 0.2995069
vn 0.9584884 -0.07229778 0.2758133
vn 0.9597044 0.005408016 0.2809596
vn 0.9596207 -0.04506047 0.2776645
vn 0.9652737 -0.04838973 0.2567196
vn 0.9644898 0.03047781 0.2623559
vn 0.9628698 0.05452137 0.2644035
vn 0.9614027 0.1176464 0.2487248
vn 0.965731 -0.02103492 0.2586911
vn 0.9703727 0.007048445 0.24151
vn 0.96459 0.09298549 0.2468195
vn 0.9233882 0.3042703 0.234038
vn 0.9692305 0.03705525 0.2433496
vn 0.955125 0.1847051 0.2315606
vn 0.9302771 0.2831705 0.233236
vn 0.9469454 0.2222211 0.23219
vn 0.8258232 0.5245622 0.2070037
vn 0.7665817 0.610213 0.1999817
vn 0.7531538 0.6270543 0.1989027
vn 0.5059717 0.8509319 0.1410936
vn 0.8026821 0.5604141 0.2040527
vn 0.5848397 0.7964858 0.1535349
vn 0.5223144 0.8406134 0.1433762
vn 0.3062088 0.9479859 0.08694182
vn 0.5596225 0.8152197 0.1491296
vn 0.3650695 0.925947 0.09667794
vn 0.3187005 0.9436875 0.08879137
vn 0.346798 0.9332849 0.09333002
vn 0.1996957 0.9786457 0.04872601
vn 0.1703579 0.9843916 0.04417491
vn 0.1624856 0.9857654 0.04318749
vn 0.112471 0.9932868 0.02705102
vn 0.1194411 0.9924469 0.02798203
vn 0.1887531 0.9809033 0.04691479
vn 0.1337305 0.9905669 0.02989022
vn 0.1414102 0.9894683 0.03091543
g WonderBox_SmokeTop2_0
f 3/3/3 2/2/2 1/1/1
f 2/2/2 4/4/4 1/1/1
f 1/1/1 4/4/4 5/5/5
f 5/5/5 4/4/4 6/6/6
f 7/7/7 1/1/1 5/5/5
f 8/8/8 4/4/4 2/2/2
f 4/4/4 8/8/8 6/6/6
f 9/9/9 8/8/8 2/2/2
f 7/7/7 5/5/5 10/10/10
f 10/10/10 5/5/5 6/6/6
f 11/11/11 7/7/7 10/10/10
f 12/12/12 8/8/8 9/9/9
f 6/6/6 8/8/8 12/12/12
f 13/13/13 12/12/12 9/9/9
f 14/14/14 6/6/6 12/12/12
f 14/14/14 15/15/15 6/6/6
f 15/15/15 16/16/16 6/6/6
f 16/16/16 10/10/10 6/6/6
f 15/15/15 17/17/17 16/16/16
f 11/11/11 10/10/10 18/18/18
f 18/18/18 10/10/10 16/16/16
f 19/19/19 11/11/11 18/18/18
f 17/17/17 20/20/20 16/16/16
f 20/20/20 18/18/18 16/16/16
f 17/17/17 21/21/21 20/20/20
f 19/19/19 18/18/18 22/22/22
f 22/22/22 18/18/18 20/20/20
f 23/23/23 19/19/19 22/22/22
f 21/21/21 24/24/24 20/20/20
f 24/24/24 22/22/22 20/20/20
f 21/21/21 25/25/25 24/24/24
f 23/23/23 22/22/22 26/26/26
f 26/26/26 22/22/22 24/24/24
f 27/27/27 23/23/23 26/26/26
f 27/27/27 26/26/26 28/28/28
f 25/25/25 29/29/29 24/24/24
f 29/29/29 26/26/26 24/24/24
f 25/25/25 30/30/30 29/29/29
f 26/26/26 31/31/31 28/28/28
f 31/31/31 26/26/26 29/29/29
f 30/30/30 32/32/32 29/29/29
f 32/32/32 31/31/31 29/29/29
f 33/33/33 32/32/32 30/30/30
f 31/31/31 32/32/32 33/33/33
f 34/34/34 33/33/33 30/30/30
f 35/35/35 33/33/33 34/34/34
f 36/36/36 35/35/35 34/34/34
f 36/36/36 37/37/37 35/35/35
f 28/28/28 31/31/31 38/38/38
f 38/38/38 31/31/31 33/33/33
f 38/38/38 33/33/33 35/35/35
f 39/39/39 28/28/28 38/38/38
f 39/39/39 38/38/38 40/40/40
f 40/40/40 38/38/38 35/35/35
f 41/41/41 39/39/39 40/40/40
f 41/41/41 40/40/40 42/42/42
f 43/43/43 40/40/40 35/35/35
f 40/40/40 43/43/43 42/42/42
f 37/37/37 44/44/44 35/35/35
f 44/44/44 43/43/43 35/35/35
f 45/45/45 44/44/44 37/37/37
f 43/43/43 44/44/44 45/45/45
f 46/46/46 45/45/45 37/37/37
f 47/47/47 45/45/45 46/46/46
f 48/48/48 47/47/47 46/46/46
f 48/48/48 49/49/49 47/47/47
f 42/42/42 43/43/43 50/50/50
f 50/50/50 43/43/43 45/45/45
f 50/50/50 45/45/45 47/47/47
f 51/51/51 42/42/42 50/50/50
f 51/51/51 50/50/50 52/52/52
f 52/52/52 50/50/50 47/47/47
f 53/53/53 51/51/51 52/52/52
f 53/53/53 52/52/52 54/54/54
f 55/55/55 52/52/52 47/47/47
f 52/52/52 55/55/55 54/54/54
f 49/49/49 56/56/56 47/47/47
f 56/56/56 55/55/55 47/47/47
f 57/57/57 56/56/56 49/49/49
f 55/55/55 56/56/56 57/57/57
f 58/58/58 57/57/57 49/49/49
f 59/59/59 57/57/57 58/58/58
f 60/60/60 59/59/59 58/58/58
f 60/60/60 61/61/61 59/59/59
f 54/54/54 55/55/55 62/62/62
f 62/62/62 55/55/55 57/57/57
f 62/62/62 57/57/57 59/59/59
f 63/63/63 54/54/54 62/62/62
f 63/63/63 62/62/62 64/64/64
f 64/64/64 62/62/62 59/59/59
f 65/65/65 63/63/63 64/64/64
f 65/65/65 64/64/64 66/66/66
f 64/64/64 67/67/67 66/66/66
f 67/67/67 64/64/64 59/59/59
f 66/66/66 67/67/67 68/68/68
f 61/61/61 69/69/69 59/59/59
f 69/69/69 67/67/67 59/59/59
f 61/61/61 70/70/70 69/69/69
f 70/70/70 71/71/71 69/69/69
f 69/69/69 71/71/71 67/67/67
f 70/70/70 72/72/72 71/71/71
f 67/67/67 73/73/73 68/68/68
f 71/71/71 73/73/73 67/67/67
f 68/68/68 73/73/73 74/74/74
f 72/72/72 75/75/75 71/71/71
f 71/71/71 75/75/75 73/73/73
f 73/73/73 76/76/76 74/74/74
f 75/75/75 76/76/76 73/73/73
f 74/74/74 76/76/76 77/77/77
f 78/78/78 75/75/75 72/72/72
f 75/75/75 78/78/78 76/76/76
f 79/79/79 78/78/78 72/72/72
f 79/79/79 80/80/80 78/78/78
f 76/76/76 81/81/81 77/77/77
f 78/78/78 81/81/81 76/76/76
f 77/77/77 81/81/81 82/82/82
f 80/80/80 83/83/83 78/78/78
f 78/78/78 83/83/83 81/81/81
f 80/80/80 84/84/84 83/83/83
f 81/81/81 85/85/85 82/82/82
f 83/83/83 85/85/85 81/81/81
f 82/82/82 85/85/85 86/86/86
f 84/84/84 87/87/87 83/83/83
f 83/83/83 87/87/87 85/85/85
f 85/85/85 88/88/88 86/86/86
f 87/87/87 88/88/88 85/85/85
f 86/86/86 88/88/88 89/89/89
f 90/90/90 87/87/87 84/84/84
f 87/87/87 90/90/90 88/88/88
f 91/91/91 90/90/90 84/84/84
f 91/91/91 92/92/92 90/90/90
f 88/88/88 93/93/93 89/89/89
f 90/90/90 93/93/93 88/88/88
f 89/89/89 93/93/93 94/94/94
f 92/92/92 95/95/95 90/90/90
f 90/90/90 95/95/95 93/93/93
f 92/92/92 96/96/96 95/95/95
f 93/93/93 97/97/97 94/94/94
f 95/95/95 97/97/97 93/93/93
f 94/94/94 97/97/97 98/98/98
f 96/96/96 99/99/99 95/95/95
f 95/95/95 99/99/99 97/97/97
f 97/97/97 100/100/100 98/98/98
f 99/99/99 100/100/100 97/97/97
f 98/98/98 100/100/100 101/101/101
f 102/102/102 99/99/99 96/96/96
f 99/99/99 102/102/102 100/100/100
f 103/103/103 102/102/102 96/96/96
f 103/103/103 104/104/104 102/102/102
f 100/100/100 105/105/105 101/101/101
f 102/102/102 105/105/105 100/100/100
f 101/101/101 105/105/105 106/106/106
f 104/104/104 107/107/107 102/102/102
f 102/102/102 107/107/107 105/105/105
f 104/104/104 108/108/108 107/107/107
f 105/105/105 109/109/109 106/106/106
f 107/107/107 109/109/109 105/105/105
f 106/106/106 109/109/109 110/110/110
f 108/108/108 111/111/111 107/107/107
f 107/107/107 111/111/111 109/109/109
f 109/109/109 112/112/112 110/110/110
f 111/111/111 112/112/112 109/109/109
f 110/110/110 112/112/112 113/113/113
f 114/114/114 111/111/111 108/108/108
f 111/111/111 114/114/114 112/112/112
f 115/115/115 114/114/114 108/108/108
f 114/114/114 115/115/115 116/116/116
f 117/117/117 114/114/114 116/116/116
f 114/114/114 118/118/118 112/112/112
f 118/118/118 114/114/114 117/117/117
f 112/112/112 118/118/118 113/113/113
f 119/119/119 118/118/118 117/117/117
f 113/113/113 118/118/118 119/119/119
f 120/120/120 113/113/113 119/119/119
