g 小ylindrical小one
v 2.316572 0.8121557 4.005432E-05
v 2.6 0.9999697 4.005432E-05
v 2.550011 0.9999697 0.5072255
v 2.272059 0.8121557 0.4519207
v 0.9999691 -3.933907E-05 -3.933907E-05
v 2.402108 0.9999697 0.9949708
v 0.9807673 -3.933907E-05 0.1950748
v 2.140184 0.8121557 0.8865037
v 2.161846 0.9999697 1.444471
v 0.9238755 -3.933907E-05 0.3826509
v 1.926106 0.8121557 1.286968
v 1.838507 0.9999697 1.838508
v 0.8314363 -3.933907E-05 0.5555477
v 1.638077 0.8121557 1.638077
v 1.444471 0.9999697 2.161846
v 0.7070997 -3.933907E-05 0.7071004
v 1.286967 0.8121557 1.926107
v 0.9949703 0.9999697 2.402109
v 0.555547 -3.933907E-05 0.8314369
v 0.8865031 0.8121557 2.140185
v 0.5072248 0.9999697 2.550012
v 0.3826501 -3.933907E-05 0.923876
v 0.45192 0.8121557 2.27206
v -4.005432E-05 0.9999697 2.6
v 0.1950741 -3.933907E-05 0.9807677
v -4.005432E-05 0.8121557 2.316573
v -0.5072255 0.9999697 2.550012
v -4.005432E-05 -3.933907E-05 0.9999697
v -0.4519207 0.8121557 2.27206
v -0.9949708 0.9999697 2.402109
v -0.1950748 -3.933907E-05 0.9807677
v -0.8865037 0.8121557 2.140185
v -1.444471 0.9999697 2.161846
v -0.3826509 -3.933907E-05 0.923876
v -1.286968 0.8121557 1.926107
v -1.838508 0.9999697 1.838508
v -0.5555477 -3.933907E-05 0.8314369
v -1.638077 0.8121557 1.638077
v -2.161846 0.9999697 1.444471
v -0.7071004 -3.933907E-05 0.7071004
v -1.926107 0.8121557 1.286968
v -2.402109 0.9999697 0.9949708
v -0.8314369 -3.933907E-05 0.5555477
v -2.140185 0.8121557 0.8865037
v -2.550012 0.9999697 0.5072255
v -0.923876 -3.933907E-05 0.3826509
v -2.27206 0.8121557 0.4519207
v -2.6 0.9999697 -3.933907E-05
v -0.9807677 -3.933907E-05 0.1950748
v -2.316573 0.8121557 -3.933907E-05
v -2.550012 0.9999697 -0.5072248
v -0.9999697 -3.933907E-05 -3.933907E-05
v -2.27206 0.8121557 -0.45192
v -2.402109 0.9999697 -0.9949703
v -0.9807677 -3.933907E-05 -0.1950741
v -2.140185 0.8121557 -0.8865031
v -2.161846 0.9999697 -1.444471
v -0.923876 -3.933907E-05 -0.3826501
v -1.926107 0.8121557 -1.286967
v -1.838508 0.9999697 -1.838507
v -0.8314369 -3.933907E-05 -0.555547
v -1.638077 0.8121557 -1.638077
v -1.444471 0.9999697 -2.161846
v -0.7071004 -3.933907E-05 -0.7070997
v -1.286968 0.8121557 -1.926106
v -0.9949708 0.9999697 -2.402108
v -0.5555477 -3.933907E-05 -0.8314363
v -0.8865037 0.8121557 -2.140184
v -0.5072255 0.9999697 -2.550011
v -0.3826509 -3.933907E-05 -0.9238755
v -0.4519207 0.8121557 -2.272059
v -4.005432E-05 0.9999697 -2.6
v -0.1950748 -3.933907E-05 -0.9807673
v -4.005432E-05 0.8121557 -2.316572
v 0.5072248 0.9999697 -2.550011
v 3.933907E-05 -3.933907E-05 -0.9999691
v 0.45192 0.8121557 -2.272059
v 0.9949703 0.9999697 -2.402108
v 0.1950741 -3.933907E-05 -0.9807673
v 0.8865031 0.8121557 -2.140184
v 1.444471 0.9999697 -2.161846
v 0.3826501 -3.933907E-05 -0.9238755
v 1.286967 0.8121557 -1.926106
v 1.838507 0.9999697 -1.838507
v 0.555547 -3.933907E-05 -0.8314363
v 1.638077 0.8121557 -1.638077
v 2.161846 0.9999697 -1.444471
v 0.7070997 -3.933907E-05 -0.7070997
v 1.926106 0.8121557 -1.286967
v 2.402108 0.9999697 -0.9949703
v 0.8314363 -3.933907E-05 -0.555547
v 2.140184 0.8121557 -0.8865031
v 2.550011 0.9999697 -0.5072248
v 0.9238755 -3.933907E-05 -0.3826501
v 2.272059 0.8121557 -0.45192
v 2.6 0.9999697 4.005432E-05
v 0.9807673 -3.933907E-05 -0.1950741
v 2.316572 0.8121557 4.005432E-05
v 0.9999691 -3.933907E-05 -3.933907E-05
vt 0.9999796 0.890506
vt 0.9999796 0.9999796
vt 0.9687014 0.9999796
vt 0.9687014 0.890506
vt 0.9999796 5.64456E-05
vt 0.9374233 0.9999796
vt 0.9687014 5.64456E-05
vt 0.9374233 0.890506
vt 0.9061451 0.9999796
vt 0.9374233 5.64456E-05
vt 0.9061451 0.890506
vt 0.874867 0.9999796
vt 0.9061451 5.64456E-05
vt 0.874867 0.890506
vt 0.8435888 0.9999796
vt 0.874867 5.64456E-05
vt 0.8435888 0.890506
vt 0.8123107 0.9999796
vt 0.8435888 5.64456E-05
vt 0.8123107 0.890506
vt 0.7810326 0.9999796
vt 0.8123107 5.64456E-05
vt 0.7810326 0.890506
vt 0.7497544 0.9999796
vt 0.7810326 5.64456E-05
vt 0.7497544 0.890506
vt 0.7184763 0.9999796
vt 0.7497544 5.64456E-05
vt 0.7184763 0.890506
vt 0.6871981 0.9999796
vt 0.7184763 5.64456E-05
vt 0.6871981 0.890506
vt 0.65592 0.9999796
vt 0.6871981 5.64456E-05
vt 0.65592 0.890506
vt 0.6246418 0.9999796
vt 0.65592 5.64456E-05
vt 0.6246418 0.890506
vt 0.5933637 0.9999796
vt 0.6246418 5.64456E-05
vt 0.5933637 0.890506
vt 0.5620856 0.9999796
vt 0.5933637 5.64456E-05
vt 0.5620856 0.890506
vt 0.5308074 0.9999796
vt 0.5620856 5.64456E-05
vt 0.5308074 0.890506
vt 0.4995293 0.9999796
vt 0.5308074 5.64456E-05
vt 0.4995293 0.890506
vt 0.4692286 0.9999796
vt 0.4995293 5.64456E-05
vt 0.4692286 0.890506
vt 0.4379504 0.9999796
vt 0.4692286 5.64456E-05
vt 0.4379504 0.890506
vt 0.4066723 0.9999796
vt 0.4379504 5.64456E-05
vt 0.4066723 0.890506
vt 0.3753941 0.9999796
vt 0.4066723 5.64456E-05
vt 0.3753941 0.890506
vt 0.344116 0.9999796
vt 0.3753941 5.64456E-05
vt 0.344116 0.890506
vt 0.3128379 0.9999796
vt 0.344116 5.64456E-05
vt 0.3128379 0.890506
vt 0.2815597 0.9999796
vt 0.3128379 5.64456E-05
vt 0.2815597 0.890506
vt 0.2502816 0.9999796
vt 0.2815597 5.64456E-05
vt 0.2502816 0.890506
vt 0.2190034 0.9999796
vt 0.2502816 5.64456E-05
vt 0.2190034 0.890506
vt 0.1877253 0.9999796
vt 0.2190034 5.64456E-05
vt 0.1877253 0.890506
vt 0.1564472 0.9999796
vt 0.1877253 5.64456E-05
vt 0.1564472 0.890506
vt 0.125169 0.9999796
vt 0.1564472 5.64456E-05
vt 0.125169 0.890506
vt 0.09389087 0.9999796
vt 0.125169 5.64456E-05
vt 0.09389087 0.890506
vt 0.06261273 0.9999796
vt 0.09389087 5.64456E-05
vt 0.06261273 0.890506
vt 0.03133459 0.9999796
vt 0.06261273 5.64456E-05
vt 0.03133459 0.890506
vt 5.64456E-05 0.9999796
vt 0.03133459 5.64456E-05
vt 5.64456E-05 0.890506
vt 5.64456E-05 5.64456E-05
vn -0.5374818 0.8400918 -0.07320556
vn -0.5530366 0.8331569 0
vn -0.5429838 0.8345898 -0.09288933
vn -0.5264778 0.8400918 -0.1306401
vn -0.5260721 0.85044 0
vn -0.5099717 0.8345898 -0.2082995
vn -0.5154737 0.8510958 -0.09961326
vn -0.4989678 0.8400918 -0.2127836
vn -0.4604537 0.8345898 -0.3023941
vn -0.4824618 0.8510958 -0.2070425
vn -0.4494498 0.8400918 -0.3037114
vn -0.3889278 0.8345898 -0.3901218
vn -0.4384457 0.8510958 -0.2887928
vn -0.3834258 0.8400918 -0.3837061
vn -0.3063977 0.8345898 -0.4577993
vn -0.3724217 0.8510958 -0.3700513
vn -0.3008958 0.8400918 -0.4513396
vn -0.2128637 0.8345898 -0.5080835
vn -0.2898917 0.8510958 -0.43772
vn -0.2073618 0.8400918 -0.5012453
vn -0.1083257 0.8345898 -0.540116
vn -0.2018597 0.8510958 -0.4846531
vn -0.1028237 0.8400918 -0.5326096
vn 0.001714289 0.8345898 -0.5508692
vn -0.1028237 0.8510958 -0.5148429
vn 0.001714289 0.8400918 -0.5424415
vn 0.1062523 0.8345898 -0.5405278
vn 0.001714289 0.8510958 -0.5250077
vn 0.1062523 0.8400918 -0.5319363
vn 0.2107903 0.8345898 -0.5089472
vn 0.1007503 0.8510958 -0.5152527
vn 0.2052883 0.8400918 -0.502098
vn 0.3043243 0.8345898 -0.4591803
vn 0.1997863 0.8510958 -0.4855115
vn 0.2988223 0.8400918 -0.4527151
vn 0.3923563 0.8345898 -0.3866734
vn 0.2933203 0.8510958 -0.4354298
vn 0.3813523 0.8400918 -0.3857669
vn 0.4583803 0.8345898 -0.3055278
vn 0.3703483 0.8510958 -0.3721264
vn 0.4473763 0.8400918 -0.3067575
vn 0.5078983 0.8345898 -0.2133053
vn 0.4363723 0.8510958 -0.2919163
vn 0.4968943 0.8400918 -0.2175816
vn 0.5409104 0.8345898 -0.1042869
vn 0.4858903 0.8510958 -0.1988631
vn 0.5299063 0.8400918 -0.1159527
vn 0.5515974 0.8341105 0
vn 0.5134003 0.8510958 -0.1098003
vn 0.5409104 0.8400918 -0.04076344
vn 0.5409104 0.8345898 0.1042869
vn 0.5244043 0.8510958 -0.02521986
vn 0.5299063 0.8400918 0.1159527
vn 0.5078983 0.8345898 0.2133053
vn 0.5134003 0.8510958 0.1098003
vn 0.4968943 0.8400918 0.2175816
vn 0.4583803 0.8345898 0.3055278
vn 0.4858903 0.8510958 0.1988631
vn 0.4473763 0.8400918 0.3067575
vn 0.3923563 0.8345898 0.3866734
vn 0.4363723 0.8510958 0.2919163
vn 0.3813523 0.8400918 0.3857669
vn 0.3043243 0.8345898 0.4591803
vn 0.3703483 0.8510958 0.3721264
vn 0.2988223 0.8400918 0.4527151
vn 0.2107903 0.8345898 0.5089472
vn 0.2933203 0.8510958 0.4354298
vn 0.2052883 0.8400918 0.502098
vn 0.1062523 0.8345898 0.5405278
vn 0.1997863 0.8510958 0.4855115
vn 0.1062523 0.8400918 0.5319363
vn 0.001714289 0.8345898 0.5508692
vn 0.1007503 0.8510958 0.5152527
vn 0.001714289 0.8400918 0.5424415
vn -0.1083257 0.8345898 0.540116
vn 0.001714289 0.8510958 0.5250077
vn -0.1028237 0.8400918 0.5326096
vn -0.2128637 0.8345898 0.5080835
vn -0.1028237 0.8510958 0.5148429
vn -0.2073618 0.8400918 0.5012453
vn -0.3063977 0.8345898 0.4577993
vn -0.2018597 0.8510958 0.4846531
vn -0.3008958 0.8400918 0.4513396
vn -0.3889278 0.8345898 0.3901218
vn -0.2898917 0.8510958 0.43772
vn -0.3834258 0.8400918 0.3837061
vn -0.4604537 0.8345898 0.3023941
vn -0.3724217 0.8510958 0.3700513
vn -0.4494498 0.8400918 0.3037114
vn -0.5099717 0.8345898 0.2082995
vn -0.4384457 0.8510958 0.2887928
vn -0.4989678 0.8400918 0.2127836
vn -0.5429838 0.8345898 0.09288933
vn -0.4824618 0.8510958 0.2070425
vn -0.5264778 0.8400918 0.1306401
vn -0.5530366 0.8331569 0
vn -0.5154737 0.8510958 0.09961326
vn -0.5374818 0.8400918 -0.07320556
vn -0.5260721 0.85044 0
g 小ylindrical小one_0
f 3/3/3 2/2/2 1/1/1
f 4/4/4 3/3/3 1/1/1
f 4/4/4 1/1/1 5/5/5
f 6/6/6 3/3/3 4/4/4
f 7/7/7 4/4/4 5/5/5
f 8/8/8 6/6/6 4/4/4
f 8/8/8 4/4/4 7/7/7
f 9/9/9 6/6/6 8/8/8
f 10/10/10 8/8/8 7/7/7
f 11/11/11 9/9/9 8/8/8
f 11/11/11 8/8/8 10/10/10
f 12/12/12 9/9/9 11/11/11
f 13/13/13 11/11/11 10/10/10
f 14/14/14 12/12/12 11/11/11
f 14/14/14 11/11/11 13/13/13
f 15/15/15 12/12/12 14/14/14
f 16/16/16 14/14/14 13/13/13
f 17/17/17 15/15/15 14/14/14
f 17/17/17 14/14/14 16/16/16
f 18/18/18 15/15/15 17/17/17
f 19/19/19 17/17/17 16/16/16
f 20/20/20 18/18/18 17/17/17
f 20/20/20 17/17/17 19/19/19
f 21/21/21 18/18/18 20/20/20
f 22/22/22 20/20/20 19/19/19
f 23/23/23 21/21/21 20/20/20
f 23/23/23 20/20/20 22/22/22
f 24/24/24 21/21/21 23/23/23
f 25/25/25 23/23/23 22/22/22
f 26/26/26 24/24/24 23/23/23
f 26/26/26 23/23/23 25/25/25
f 27/27/27 24/24/24 26/26/26
f 28/28/28 26/26/26 25/25/25
f 29/29/29 27/27/27 26/26/26
f 29/29/29 26/26/26 28/28/28
f 30/30/30 27/27/27 29/29/29
f 31/31/31 29/29/29 28/28/28
f 32/32/32 30/30/30 29/29/29
f 32/32/32 29/29/29 31/31/31
f 33/33/33 30/30/30 32/32/32
f 34/34/34 32/32/32 31/31/31
f 35/35/35 33/33/33 32/32/32
f 35/35/35 32/32/32 34/34/34
f 36/36/36 33/33/33 35/35/35
f 37/37/37 35/35/35 34/34/34
f 38/38/38 36/36/36 35/35/35
f 38/38/38 35/35/35 37/37/37
f 39/39/39 36/36/36 38/38/38
f 40/40/40 38/38/38 37/37/37
f 41/41/41 39/39/39 38/38/38
f 41/41/41 38/38/38 40/40/40
f 42/42/42 39/39/39 41/41/41
f 43/43/43 41/41/41 40/40/40
f 44/44/44 42/42/42 41/41/41
f 44/44/44 41/41/41 43/43/43
f 45/45/45 42/42/42 44/44/44
f 46/46/46 44/44/44 43/43/43
f 47/47/47 45/45/45 44/44/44
f 47/47/47 44/44/44 46/46/46
f 48/48/48 45/45/45 47/47/47
f 49/49/49 47/47/47 46/46/46
f 50/50/50 48/48/48 47/47/47
f 50/50/50 47/47/47 49/49/49
f 51/51/51 48/48/48 50/50/50
f 52/52/52 50/50/50 49/49/49
f 53/53/53 51/51/51 50/50/50
f 53/53/53 50/50/50 52/52/52
f 54/54/54 51/51/51 53/53/53
f 55/55/55 53/53/53 52/52/52
f 56/56/56 54/54/54 53/53/53
f 56/56/56 53/53/53 55/55/55
f 57/57/57 54/54/54 56/56/56
f 58/58/58 56/56/56 55/55/55
f 59/59/59 57/57/57 56/56/56
f 59/59/59 56/56/56 58/58/58
f 60/60/60 57/57/57 59/59/59
f 61/61/61 59/59/59 58/58/58
f 62/62/62 60/60/60 59/59/59
f 62/62/62 59/59/59 61/61/61
f 63/63/63 60/60/60 62/62/62
f 64/64/64 62/62/62 61/61/61
f 65/65/65 63/63/63 62/62/62
f 65/65/65 62/62/62 64/64/64
f 66/66/66 63/63/63 65/65/65
f 67/67/67 65/65/65 64/64/64
f 68/68/68 66/66/66 65/65/65
f 68/68/68 65/65/65 67/67/67
f 69/69/69 66/66/66 68/68/68
f 70/70/70 68/68/68 67/67/67
f 71/71/71 69/69/69 68/68/68
f 71/71/71 68/68/68 70/70/70
f 72/72/72 69/69/69 71/71/71
f 73/73/73 71/71/71 70/70/70
f 74/74/74 72/72/72 71/71/71
f 74/74/74 71/71/71 73/73/73
f 75/75/75 72/72/72 74/74/74
f 76/76/76 74/74/74 73/73/73
f 77/77/77 75/75/75 74/74/74
f 77/77/77 74/74/74 76/76/76
f 78/78/78 75/75/75 77/77/77
f 79/79/79 77/77/77 76/76/76
f 80/80/80 78/78/78 77/77/77
f 80/80/80 77/77/77 79/79/79
f 81/81/81 78/78/78 80/80/80
f 82/82/82 80/80/80 79/79/79
f 83/83/83 81/81/81 80/80/80
f 83/83/83 80/80/80 82/82/82
f 84/84/84 81/81/81 83/83/83
f 85/85/85 83/83/83 82/82/82
f 86/86/86 84/84/84 83/83/83
f 86/86/86 83/83/83 85/85/85
f 87/87/87 84/84/84 86/86/86
f 88/88/88 86/86/86 85/85/85
f 89/89/89 87/87/87 86/86/86
f 89/89/89 86/86/86 88/88/88
f 90/90/90 87/87/87 89/89/89
f 91/91/91 89/89/89 88/88/88
f 92/92/92 90/90/90 89/89/89
f 92/92/92 89/89/89 91/91/91
f 93/93/93 90/90/90 92/92/92
f 94/94/94 92/92/92 91/91/91
f 95/95/95 93/93/93 92/92/92
f 95/95/95 92/92/92 94/94/94
f 96/96/96 93/93/93 95/95/95
f 97/97/97 95/95/95 94/94/94
f 98/98/98 96/96/96 95/95/95
f 98/98/98 95/95/95 97/97/97
f 99/99/99 98/98/98 97/97/97
